<?xml version="1.0" encoding="utf-8" standalone="no"?>
<!DOCTYPE svg PUBLIC "-//W3C//DTD SVG 1.1//EN"
  "http://www.w3.org/Graphics/SVG/1.1/DTD/svg11.dtd">
<svg xmlns:xlink="http://www.w3.org/1999/xlink" width="544.8pt" height="228.4pt" viewBox="0 0 544.8 228.4" xmlns="http://www.w3.org/2000/svg" version="1.1">
 <metadata>
  <rdf:RDF xmlns:dc="http://purl.org/dc/elements/1.1/" xmlns:cc="http://creativecommons.org/ns#" xmlns:rdf="http://www.w3.org/1999/02/22-rdf-syntax-ns#">
   <cc:Work>
    <dc:type rdf:resource="http://purl.org/dc/dcmitype/StillImage"/>
    <dc:date>2025-05-29T18:43:59.519385</dc:date>
    <dc:format>image/svg+xml</dc:format>
    <dc:creator>
     <cc:Agent>
      <dc:title>Matplotlib v3.10.3, https://matplotlib.org/</dc:title>
     </cc:Agent>
    </dc:creator>
   </cc:Work>
  </rdf:RDF>
 </metadata>
 <defs>
  <style type="text/css">*{stroke-linejoin: round; stroke-linecap: butt}</style>
 </defs>
 <g id="figure_1">
  <g id="patch_1">
   <path d="M 0 228.4 
L 544.8 228.4 
L 544.8 0 
L 0 0 
z
" style="fill: #ffffff"/>
  </g>
  <g id="axes_1">
   <g id="text_1">
    <!-- Let $f$ be an infinitely differentiable real-valued function defined on the real numbers. If -->
    <g transform="translate(7.2 89.086625) scale(0.12 -0.12)">
     <defs>
      <path id="DejaVuSerif-4c" d="M 353 0 
L 353 331 
L 947 331 
L 947 4331 
L 353 4331 
L 353 4666 
L 2175 4666 
L 2175 4331 
L 1581 4331 
L 1581 384 
L 3713 384 
L 3713 1166 
L 4097 1166 
L 4097 0 
L 353 0 
z
" transform="scale(0.015625)"/>
      <path id="DejaVuSerif-65" d="M 3469 1600 
L 991 1600 
L 991 1575 
Q 991 903 1244 561 
Q 1497 219 1991 219 
Q 2369 219 2611 417 
Q 2853 616 2950 1006 
L 3413 1006 
Q 3275 459 2904 184 
Q 2534 -91 1931 -91 
Q 1203 -91 761 389 
Q 319 869 319 1663 
Q 319 2450 753 2931 
Q 1188 3413 1894 3413 
Q 2647 3413 3050 2948 
Q 3453 2484 3469 1600 
z
M 2791 1931 
Q 2772 2513 2545 2808 
Q 2319 3103 1894 3103 
Q 1497 3103 1269 2806 
Q 1041 2509 991 1931 
L 2791 1931 
z
" transform="scale(0.015625)"/>
      <path id="DejaVuSerif-74" d="M 691 2988 
L 184 2988 
L 184 3322 
L 691 3322 
L 691 4353 
L 1269 4353 
L 1269 3322 
L 2350 3322 
L 2350 2988 
L 1269 2988 
L 1269 878 
Q 1269 456 1350 337 
Q 1431 219 1650 219 
Q 1875 219 1978 351 
Q 2081 484 2088 781 
L 2522 781 
Q 2497 328 2275 118 
Q 2053 -91 1600 -91 
Q 1103 -91 897 129 
Q 691 350 691 878 
L 691 2988 
z
" transform="scale(0.015625)"/>
      <path id="DejaVuSerif-20" transform="scale(0.015625)"/>
      <path id="Cmmi10-66" d="M 622 -1056 
Q 741 -1147 909 -1147 
Q 1138 -1147 1281 -641 
Q 1341 -397 1606 966 
L 1900 2534 
L 1350 2534 
Q 1288 2534 1288 2619 
Q 1313 2759 1369 2759 
L 1941 2759 
L 2016 3175 
Q 2053 3369 2084 3508 
Q 2116 3647 2152 3765 
Q 2188 3884 2259 4031 
Q 2369 4241 2555 4377 
Q 2741 4513 2956 4513 
Q 3097 4513 3230 4461 
Q 3363 4409 3447 4306 
Q 3531 4203 3531 4063 
Q 3531 3900 3423 3779 
Q 3316 3659 3163 3659 
Q 3059 3659 2986 3723 
Q 2913 3788 2913 3891 
Q 2913 4031 3008 4136 
Q 3103 4241 3244 4256 
Q 3125 4347 2950 4347 
Q 2853 4347 2767 4256 
Q 2681 4166 2656 4063 
Q 2616 3900 2478 3181 
L 2400 2759 
L 3059 2759 
Q 3122 2759 3122 2675 
Q 3119 2659 3109 2620 
Q 3100 2581 3083 2557 
Q 3066 2534 3041 2534 
L 2356 2534 
L 2059 972 
Q 2003 631 1929 279 
Q 1856 -72 1723 -442 
Q 1591 -813 1384 -1063 
Q 1178 -1313 897 -1313 
Q 681 -1313 511 -1189 
Q 341 -1066 341 -863 
Q 341 -700 445 -579 
Q 550 -459 709 -459 
Q 816 -459 887 -523 
Q 959 -588 959 -691 
Q 959 -828 857 -942 
Q 756 -1056 622 -1056 
z
" transform="scale(0.015625)"/>
      <path id="DejaVuSerif-62" d="M 738 331 
L 738 4531 
L 184 4531 
L 184 4863 
L 1313 4863 
L 1313 2803 
Q 1481 3116 1742 3264 
Q 2003 3413 2388 3413 
Q 3000 3413 3387 2928 
Q 3775 2444 3775 1663 
Q 3775 881 3387 395 
Q 3000 -91 2388 -91 
Q 2003 -91 1742 57 
Q 1481 206 1313 519 
L 1313 0 
L 184 0 
L 184 331 
L 738 331 
z
M 1313 1497 
Q 1313 897 1542 583 
Q 1772 269 2209 269 
Q 2650 269 2876 622 
Q 3103 975 3103 1663 
Q 3103 2353 2876 2703 
Q 2650 3053 2209 3053 
Q 1772 3053 1542 2737 
Q 1313 2422 1313 1825 
L 1313 1497 
z
" transform="scale(0.015625)"/>
      <path id="DejaVuSerif-61" d="M 2547 1044 
L 2547 1747 
L 1806 1747 
Q 1378 1747 1168 1562 
Q 959 1378 959 997 
Q 959 650 1171 447 
Q 1384 244 1747 244 
Q 2106 244 2326 466 
Q 2547 688 2547 1044 
z
M 3122 2075 
L 3122 331 
L 3634 331 
L 3634 0 
L 2547 0 
L 2547 359 
Q 2356 128 2106 18 
Q 1856 -91 1522 -91 
Q 969 -91 644 203 
Q 319 497 319 997 
Q 319 1513 691 1797 
Q 1063 2081 1741 2081 
L 2547 2081 
L 2547 2309 
Q 2547 2688 2317 2895 
Q 2088 3103 1672 3103 
Q 1328 3103 1125 2947 
Q 922 2791 872 2484 
L 575 2484 
L 575 3156 
Q 875 3284 1158 3348 
Q 1441 3413 1709 3413 
Q 2400 3413 2761 3070 
Q 3122 2728 3122 2075 
z
" transform="scale(0.015625)"/>
      <path id="DejaVuSerif-6e" d="M 263 0 
L 263 331 
L 781 331 
L 781 2988 
L 231 2988 
L 231 3322 
L 1356 3322 
L 1356 2731 
Q 1516 3069 1770 3241 
Q 2025 3413 2363 3413 
Q 2913 3413 3172 3097 
Q 3431 2781 3431 2113 
L 3431 331 
L 3944 331 
L 3944 0 
L 2356 0 
L 2356 331 
L 2853 331 
L 2853 1931 
Q 2853 2541 2703 2767 
Q 2553 2994 2175 2994 
Q 1775 2994 1565 2701 
Q 1356 2409 1356 1850 
L 1356 331 
L 1856 331 
L 1856 0 
L 263 0 
z
" transform="scale(0.015625)"/>
      <path id="DejaVuSerif-69" d="M 622 4353 
Q 622 4497 726 4603 
Q 831 4709 978 4709 
Q 1122 4709 1226 4603 
Q 1331 4497 1331 4353 
Q 1331 4206 1228 4103 
Q 1125 4000 978 4000 
Q 831 4000 726 4103 
Q 622 4206 622 4353 
z
M 1356 331 
L 1900 331 
L 1900 0 
L 231 0 
L 231 331 
L 781 331 
L 781 2988 
L 231 2988 
L 231 3322 
L 1356 3322 
L 1356 331 
z
" transform="scale(0.015625)"/>
      <path id="DejaVuSerif-66" d="M 2753 4078 
L 2450 4078 
Q 2447 4313 2317 4434 
Q 2188 4556 1941 4556 
Q 1619 4556 1487 4379 
Q 1356 4203 1356 3750 
L 1356 3322 
L 2284 3322 
L 2284 2988 
L 1356 2988 
L 1356 331 
L 2094 331 
L 2094 0 
L 231 0 
L 231 331 
L 781 331 
L 781 2988 
L 231 2988 
L 231 3322 
L 781 3322 
L 781 3738 
Q 781 4294 1070 4578 
Q 1359 4863 1919 4863 
Q 2128 4863 2337 4825 
Q 2547 4788 2753 4709 
L 2753 4078 
z
" transform="scale(0.015625)"/>
      <path id="DejaVuSerif-6c" d="M 1313 331 
L 1856 331 
L 1856 0 
L 184 0 
L 184 331 
L 738 331 
L 738 4531 
L 184 4531 
L 184 4863 
L 1313 4863 
L 1313 331 
z
" transform="scale(0.015625)"/>
      <path id="DejaVuSerif-79" d="M 1381 -609 
L 1600 -56 
L 359 2988 
L -19 2988 
L -19 3322 
L 1509 3322 
L 1509 2988 
L 978 2988 
L 1913 703 
L 2847 2988 
L 2350 2988 
L 2350 3322 
L 3597 3322 
L 3597 2988 
L 3225 2988 
L 1703 -750 
Q 1547 -1138 1356 -1280 
Q 1166 -1422 819 -1422 
Q 672 -1422 517 -1397 
Q 363 -1372 206 -1325 
L 206 -691 
L 500 -691 
Q 519 -903 608 -995 
Q 697 -1088 884 -1088 
Q 1056 -1088 1161 -992 
Q 1266 -897 1381 -609 
z
" transform="scale(0.015625)"/>
      <path id="DejaVuSerif-64" d="M 3359 331 
L 3909 331 
L 3909 0 
L 2784 0 
L 2784 519 
Q 2616 206 2355 57 
Q 2094 -91 1709 -91 
Q 1097 -91 708 395 
Q 319 881 319 1663 
Q 319 2444 706 2928 
Q 1094 3413 1709 3413 
Q 2094 3413 2355 3264 
Q 2616 3116 2784 2803 
L 2784 4531 
L 2241 4531 
L 2241 4863 
L 3359 4863 
L 3359 331 
z
M 2784 1497 
L 2784 1825 
Q 2784 2422 2554 2737 
Q 2325 3053 1888 3053 
Q 1444 3053 1217 2703 
Q 991 2353 991 1663 
Q 991 975 1217 622 
Q 1444 269 1888 269 
Q 2325 269 2554 583 
Q 2784 897 2784 1497 
z
" transform="scale(0.015625)"/>
      <path id="DejaVuSerif-72" d="M 3059 3328 
L 3059 2497 
L 2728 2497 
Q 2713 2744 2591 2866 
Q 2469 2988 2234 2988 
Q 1809 2988 1582 2694 
Q 1356 2400 1356 1850 
L 1356 331 
L 2022 331 
L 2022 0 
L 263 0 
L 263 331 
L 781 331 
L 781 2994 
L 231 2994 
L 231 3322 
L 1356 3322 
L 1356 2731 
Q 1525 3078 1790 3245 
Q 2056 3413 2438 3413 
Q 2578 3413 2733 3391 
Q 2888 3369 3059 3328 
z
" transform="scale(0.015625)"/>
      <path id="DejaVuSerif-2d" d="M 281 1959 
L 1881 1959 
L 1881 1472 
L 281 1472 
L 281 1959 
z
" transform="scale(0.015625)"/>
      <path id="DejaVuSerif-76" d="M 1581 0 
L 359 2988 
L -19 2988 
L -19 3322 
L 1509 3322 
L 1509 2988 
L 978 2988 
L 1913 703 
L 2847 2988 
L 2350 2988 
L 2350 3322 
L 3597 3322 
L 3597 2988 
L 3225 2988 
L 2003 0 
L 1581 0 
z
" transform="scale(0.015625)"/>
      <path id="DejaVuSerif-75" d="M 2266 3322 
L 3341 3322 
L 3341 331 
L 3884 331 
L 3884 0 
L 2766 0 
L 2766 588 
Q 2606 256 2353 82 
Q 2100 -91 1766 -91 
Q 1213 -91 952 223 
Q 691 538 691 1209 
L 691 2988 
L 172 2988 
L 172 3322 
L 1269 3322 
L 1269 1388 
Q 1269 781 1417 556 
Q 1566 331 1947 331 
Q 2347 331 2556 625 
Q 2766 919 2766 1478 
L 2766 2988 
L 2266 2988 
L 2266 3322 
z
" transform="scale(0.015625)"/>
      <path id="DejaVuSerif-63" d="M 3291 997 
Q 3169 466 2822 187 
Q 2475 -91 1925 -91 
Q 1200 -91 759 389 
Q 319 869 319 1663 
Q 319 2459 759 2936 
Q 1200 3413 1925 3413 
Q 2241 3413 2553 3339 
Q 2866 3266 3181 3116 
L 3181 2266 
L 2847 2266 
Q 2781 2703 2561 2903 
Q 2341 3103 1931 3103 
Q 1466 3103 1228 2742 
Q 991 2381 991 1663 
Q 991 944 1227 581 
Q 1463 219 1931 219 
Q 2303 219 2525 412 
Q 2747 606 2828 997 
L 3291 997 
z
" transform="scale(0.015625)"/>
      <path id="DejaVuSerif-6f" d="M 1925 219 
Q 2388 219 2623 584 
Q 2859 950 2859 1663 
Q 2859 2375 2623 2739 
Q 2388 3103 1925 3103 
Q 1463 3103 1227 2739 
Q 991 2375 991 1663 
Q 991 950 1228 584 
Q 1466 219 1925 219 
z
M 1925 -91 
Q 1200 -91 759 389 
Q 319 869 319 1663 
Q 319 2456 758 2934 
Q 1197 3413 1925 3413 
Q 2653 3413 3092 2934 
Q 3531 2456 3531 1663 
Q 3531 869 3092 389 
Q 2653 -91 1925 -91 
z
" transform="scale(0.015625)"/>
      <path id="DejaVuSerif-68" d="M 263 0 
L 263 331 
L 781 331 
L 781 4531 
L 231 4531 
L 231 4863 
L 1356 4863 
L 1356 2731 
Q 1516 3069 1770 3241 
Q 2025 3413 2363 3413 
Q 2913 3413 3172 3097 
Q 3431 2781 3431 2113 
L 3431 331 
L 3944 331 
L 3944 0 
L 2356 0 
L 2356 331 
L 2853 331 
L 2853 1931 
Q 2853 2541 2704 2764 
Q 2556 2988 2175 2988 
Q 1775 2988 1565 2697 
Q 1356 2406 1356 1850 
L 1356 331 
L 1856 331 
L 1856 0 
L 263 0 
z
" transform="scale(0.015625)"/>
      <path id="DejaVuSerif-6d" d="M 3316 2675 
Q 3481 3041 3739 3227 
Q 3997 3413 4341 3413 
Q 4863 3413 5119 3089 
Q 5375 2766 5375 2113 
L 5375 331 
L 5894 331 
L 5894 0 
L 4300 0 
L 4300 331 
L 4800 331 
L 4800 2047 
Q 4800 2556 4650 2772 
Q 4500 2988 4153 2988 
Q 3769 2988 3567 2697 
Q 3366 2406 3366 1850 
L 3366 331 
L 3866 331 
L 3866 0 
L 2291 0 
L 2291 331 
L 2791 331 
L 2791 2069 
Q 2791 2566 2641 2777 
Q 2491 2988 2144 2988 
Q 1759 2988 1557 2697 
Q 1356 2406 1356 1850 
L 1356 331 
L 1856 331 
L 1856 0 
L 263 0 
L 263 331 
L 781 331 
L 781 2994 
L 231 2994 
L 231 3322 
L 1356 3322 
L 1356 2731 
Q 1516 3063 1762 3238 
Q 2009 3413 2322 3413 
Q 2709 3413 2968 3220 
Q 3228 3028 3316 2675 
z
" transform="scale(0.015625)"/>
      <path id="DejaVuSerif-73" d="M 359 184 
L 359 959 
L 691 959 
Q 703 588 923 403 
Q 1144 219 1575 219 
Q 1963 219 2166 364 
Q 2369 509 2369 788 
Q 2369 1006 2220 1140 
Q 2072 1275 1594 1428 
L 1178 1569 
Q 750 1706 558 1912 
Q 366 2119 366 2438 
Q 366 2894 700 3153 
Q 1034 3413 1625 3413 
Q 1888 3413 2178 3344 
Q 2469 3275 2778 3144 
L 2778 2419 
L 2447 2419 
Q 2434 2741 2221 2922 
Q 2009 3103 1644 3103 
Q 1281 3103 1095 2975 
Q 909 2847 909 2591 
Q 909 2381 1050 2254 
Q 1191 2128 1613 1997 
L 2069 1856 
Q 2541 1709 2748 1489 
Q 2956 1269 2956 922 
Q 2956 450 2595 179 
Q 2234 -91 1600 -91 
Q 1278 -91 972 -22 
Q 666 47 359 184 
z
" transform="scale(0.015625)"/>
      <path id="DejaVuSerif-2e" d="M 603 325 
Q 603 500 722 622 
Q 841 744 1019 744 
Q 1191 744 1312 622 
Q 1434 500 1434 325 
Q 1434 153 1312 31 
Q 1191 -91 1019 -91 
Q 841 -91 722 29 
Q 603 150 603 325 
z
" transform="scale(0.015625)"/>
      <path id="DejaVuSerif-49" d="M 1581 331 
L 2175 331 
L 2175 0 
L 353 0 
L 353 331 
L 947 331 
L 947 4331 
L 353 4331 
L 353 4666 
L 2175 4666 
L 2175 4331 
L 1581 4331 
L 1581 331 
z
" transform="scale(0.015625)"/>
     </defs>
     <use xlink:href="#DejaVuSerif-4c" transform="translate(0 0.015625)"/>
     <use xlink:href="#DejaVuSerif-65" transform="translate(66.40625 0.015625)"/>
     <use xlink:href="#DejaVuSerif-74" transform="translate(125.585938 0.015625)"/>
     <use xlink:href="#DejaVuSerif-20" transform="translate(165.771484 0.015625)"/>
     <use xlink:href="#Cmmi10-66" transform="translate(197.558594 0.015625)"/>
     <use xlink:href="#DejaVuSerif-20" transform="translate(246.435547 0.015625)"/>
     <use xlink:href="#DejaVuSerif-62" transform="translate(278.222656 0.015625)"/>
     <use xlink:href="#DejaVuSerif-65" transform="translate(342.236328 0.015625)"/>
     <use xlink:href="#DejaVuSerif-20" transform="translate(401.416016 0.015625)"/>
     <use xlink:href="#DejaVuSerif-61" transform="translate(433.203125 0.015625)"/>
     <use xlink:href="#DejaVuSerif-6e" transform="translate(492.822266 0.015625)"/>
     <use xlink:href="#DejaVuSerif-20" transform="translate(557.226562 0.015625)"/>
     <use xlink:href="#DejaVuSerif-69" transform="translate(589.013672 0.015625)"/>
     <use xlink:href="#DejaVuSerif-6e" transform="translate(620.996094 0.015625)"/>
     <use xlink:href="#DejaVuSerif-66" transform="translate(685.400391 0.015625)"/>
     <use xlink:href="#DejaVuSerif-69" transform="translate(722.412109 0.015625)"/>
     <use xlink:href="#DejaVuSerif-6e" transform="translate(754.394531 0.015625)"/>
     <use xlink:href="#DejaVuSerif-69" transform="translate(818.798828 0.015625)"/>
     <use xlink:href="#DejaVuSerif-74" transform="translate(850.78125 0.015625)"/>
     <use xlink:href="#DejaVuSerif-65" transform="translate(890.966797 0.015625)"/>
     <use xlink:href="#DejaVuSerif-6c" transform="translate(950.146484 0.015625)"/>
     <use xlink:href="#DejaVuSerif-79" transform="translate(982.128906 0.015625)"/>
     <use xlink:href="#DejaVuSerif-20" transform="translate(1038.623047 0.015625)"/>
     <use xlink:href="#DejaVuSerif-64" transform="translate(1070.410156 0.015625)"/>
     <use xlink:href="#DejaVuSerif-69" transform="translate(1134.423828 0.015625)"/>
     <use xlink:href="#DejaVuSerif-66" transform="translate(1166.40625 0.015625)"/>
     <use xlink:href="#DejaVuSerif-66" transform="translate(1203.417969 0.015625)"/>
     <use xlink:href="#DejaVuSerif-65" transform="translate(1240.429688 0.015625)"/>
     <use xlink:href="#DejaVuSerif-72" transform="translate(1299.609375 0.015625)"/>
     <use xlink:href="#DejaVuSerif-65" transform="translate(1347.412109 0.015625)"/>
     <use xlink:href="#DejaVuSerif-6e" transform="translate(1406.591797 0.015625)"/>
     <use xlink:href="#DejaVuSerif-74" transform="translate(1470.996094 0.015625)"/>
     <use xlink:href="#DejaVuSerif-69" transform="translate(1511.181641 0.015625)"/>
     <use xlink:href="#DejaVuSerif-61" transform="translate(1543.164062 0.015625)"/>
     <use xlink:href="#DejaVuSerif-62" transform="translate(1602.783203 0.015625)"/>
     <use xlink:href="#DejaVuSerif-6c" transform="translate(1666.796875 0.015625)"/>
     <use xlink:href="#DejaVuSerif-65" transform="translate(1698.779297 0.015625)"/>
     <use xlink:href="#DejaVuSerif-20" transform="translate(1757.958984 0.015625)"/>
     <use xlink:href="#DejaVuSerif-72" transform="translate(1789.746094 0.015625)"/>
     <use xlink:href="#DejaVuSerif-65" transform="translate(1837.548828 0.015625)"/>
     <use xlink:href="#DejaVuSerif-61" transform="translate(1896.728516 0.015625)"/>
     <use xlink:href="#DejaVuSerif-6c" transform="translate(1956.347656 0.015625)"/>
     <use xlink:href="#DejaVuSerif-2d" transform="translate(1988.330078 0.015625)"/>
     <use xlink:href="#DejaVuSerif-76" transform="translate(2022.119141 0.015625)"/>
     <use xlink:href="#DejaVuSerif-61" transform="translate(2078.613281 0.015625)"/>
     <use xlink:href="#DejaVuSerif-6c" transform="translate(2138.232422 0.015625)"/>
     <use xlink:href="#DejaVuSerif-75" transform="translate(2170.214844 0.015625)"/>
     <use xlink:href="#DejaVuSerif-65" transform="translate(2234.619141 0.015625)"/>
     <use xlink:href="#DejaVuSerif-64" transform="translate(2293.798828 0.015625)"/>
     <use xlink:href="#DejaVuSerif-20" transform="translate(2357.8125 0.015625)"/>
     <use xlink:href="#DejaVuSerif-66" transform="translate(2389.599609 0.015625)"/>
     <use xlink:href="#DejaVuSerif-75" transform="translate(2426.611328 0.015625)"/>
     <use xlink:href="#DejaVuSerif-6e" transform="translate(2491.015625 0.015625)"/>
     <use xlink:href="#DejaVuSerif-63" transform="translate(2555.419922 0.015625)"/>
     <use xlink:href="#DejaVuSerif-74" transform="translate(2611.425781 0.015625)"/>
     <use xlink:href="#DejaVuSerif-69" transform="translate(2651.611328 0.015625)"/>
     <use xlink:href="#DejaVuSerif-6f" transform="translate(2683.59375 0.015625)"/>
     <use xlink:href="#DejaVuSerif-6e" transform="translate(2743.798828 0.015625)"/>
     <use xlink:href="#DejaVuSerif-20" transform="translate(2808.203125 0.015625)"/>
     <use xlink:href="#DejaVuSerif-64" transform="translate(2839.990234 0.015625)"/>
     <use xlink:href="#DejaVuSerif-65" transform="translate(2904.003906 0.015625)"/>
     <use xlink:href="#DejaVuSerif-66" transform="translate(2963.183594 0.015625)"/>
     <use xlink:href="#DejaVuSerif-69" transform="translate(3000.195312 0.015625)"/>
     <use xlink:href="#DejaVuSerif-6e" transform="translate(3032.177734 0.015625)"/>
     <use xlink:href="#DejaVuSerif-65" transform="translate(3096.582031 0.015625)"/>
     <use xlink:href="#DejaVuSerif-64" transform="translate(3155.761719 0.015625)"/>
     <use xlink:href="#DejaVuSerif-20" transform="translate(3219.775391 0.015625)"/>
     <use xlink:href="#DejaVuSerif-6f" transform="translate(3251.5625 0.015625)"/>
     <use xlink:href="#DejaVuSerif-6e" transform="translate(3311.767578 0.015625)"/>
     <use xlink:href="#DejaVuSerif-20" transform="translate(3376.171875 0.015625)"/>
     <use xlink:href="#DejaVuSerif-74" transform="translate(3407.958984 0.015625)"/>
     <use xlink:href="#DejaVuSerif-68" transform="translate(3448.144531 0.015625)"/>
     <use xlink:href="#DejaVuSerif-65" transform="translate(3512.548828 0.015625)"/>
     <use xlink:href="#DejaVuSerif-20" transform="translate(3571.728516 0.015625)"/>
     <use xlink:href="#DejaVuSerif-72" transform="translate(3603.515625 0.015625)"/>
     <use xlink:href="#DejaVuSerif-65" transform="translate(3651.318359 0.015625)"/>
     <use xlink:href="#DejaVuSerif-61" transform="translate(3710.498047 0.015625)"/>
     <use xlink:href="#DejaVuSerif-6c" transform="translate(3770.117188 0.015625)"/>
     <use xlink:href="#DejaVuSerif-20" transform="translate(3802.099609 0.015625)"/>
     <use xlink:href="#DejaVuSerif-6e" transform="translate(3833.886719 0.015625)"/>
     <use xlink:href="#DejaVuSerif-75" transform="translate(3898.291016 0.015625)"/>
     <use xlink:href="#DejaVuSerif-6d" transform="translate(3962.695312 0.015625)"/>
     <use xlink:href="#DejaVuSerif-62" transform="translate(4057.519531 0.015625)"/>
     <use xlink:href="#DejaVuSerif-65" transform="translate(4121.533203 0.015625)"/>
     <use xlink:href="#DejaVuSerif-72" transform="translate(4180.712891 0.015625)"/>
     <use xlink:href="#DejaVuSerif-73" transform="translate(4228.515625 0.015625)"/>
     <use xlink:href="#DejaVuSerif-2e" transform="translate(4279.833984 0.015625)"/>
     <use xlink:href="#DejaVuSerif-20" transform="translate(4311.621094 0.015625)"/>
     <use xlink:href="#DejaVuSerif-49" transform="translate(4343.408203 0.015625)"/>
     <use xlink:href="#DejaVuSerif-66" transform="translate(4382.910156 0.015625)"/>
    </g>
    <!-- \[ -->
    <g transform="translate(268.037812 102.788375) scale(0.12 -0.12)">
     <defs>
      <path id="DejaVuSerif-5c" d="M 500 4666 
L 2156 -594 
L 1656 -594 
L 0 4666 
L 500 4666 
z
" transform="scale(0.015625)"/>
      <path id="DejaVuSerif-5b" d="M 550 4863 
L 2003 4863 
L 2003 4531 
L 1147 4531 
L 1147 -513 
L 2003 -513 
L 2003 -844 
L 550 -844 
L 550 4863 
z
" transform="scale(0.015625)"/>
     </defs>
     <use xlink:href="#DejaVuSerif-5c"/>
     <use xlink:href="#DejaVuSerif-5b" transform="translate(33.691406 0)"/>
    </g>
    <!-- f\leqft( \frac{1}{n} \right) = \frac{n^2}{n^2 + 1}, \qquad n = 1, 2, 3, \dots, -->
    <g transform="translate(36.379687 116.22575) scale(0.12 -0.12)">
     <defs>
      <path id="DejaVuSerif-71" d="M 3359 2988 
L 3359 -997 
L 3909 -997 
L 3909 -1331 
L 2241 -1331 
L 2241 -997 
L 2784 -997 
L 2784 519 
Q 2616 206 2355 57 
Q 2094 -91 1709 -91 
Q 1097 -91 708 395 
Q 319 881 319 1663 
Q 319 2444 706 2928 
Q 1094 3413 1709 3413 
Q 2094 3413 2355 3264 
Q 2616 3116 2784 2803 
L 2784 3322 
L 3909 3322 
L 3909 2988 
L 3359 2988 
z
M 2784 1825 
Q 2784 2422 2554 2737 
Q 2325 3053 1888 3053 
Q 1444 3053 1217 2703 
Q 991 2353 991 1663 
Q 991 975 1217 622 
Q 1444 269 1888 269 
Q 2325 269 2554 583 
Q 2784 897 2784 1497 
L 2784 1825 
z
" transform="scale(0.015625)"/>
      <path id="DejaVuSerif-28" d="M 2041 -997 
Q 1281 -656 893 83 
Q 506 822 506 1931 
Q 506 3044 893 3783 
Q 1281 4522 2041 4863 
L 2041 4556 
Q 1559 4225 1350 3623 
Q 1141 3022 1141 1931 
Q 1141 844 1350 242 
Q 1559 -359 2041 -691 
L 2041 -997 
z
" transform="scale(0.015625)"/>
      <path id="DejaVuSerif-7b" d="M 3272 -716 
L 3272 -1044 
L 3078 -1044 
Q 2300 -1044 2036 -812 
Q 1772 -581 1772 109 
L 1772 916 
Q 1772 1384 1603 1565 
Q 1434 1747 991 1747 
L 800 1747 
L 800 2075 
L 991 2075 
Q 1434 2075 1603 2256 
Q 1772 2438 1772 2906 
L 1772 3713 
Q 1772 4403 2036 4633 
Q 2300 4863 3078 4863 
L 3272 4863 
L 3272 4538 
L 3059 4538 
Q 2619 4538 2484 4400 
Q 2350 4263 2350 3822 
L 2350 2925 
Q 2350 2431 2194 2218 
Q 2038 2006 1631 1913 
Q 2044 1806 2197 1597 
Q 2350 1388 2350 897 
L 2350 0 
Q 2350 -441 2484 -578 
Q 2619 -716 3059 -716 
L 3272 -716 
z
" transform="scale(0.015625)"/>
      <path id="DejaVuSerif-31" d="M 909 0 
L 909 331 
L 1722 331 
L 1722 4213 
L 781 3603 
L 781 4013 
L 1919 4750 
L 2350 4750 
L 2350 331 
L 3163 331 
L 3163 0 
L 909 0 
z
" transform="scale(0.015625)"/>
      <path id="DejaVuSerif-7d" d="M 800 -716 
L 1019 -716 
Q 1456 -716 1589 -580 
Q 1722 -444 1722 0 
L 1722 897 
Q 1722 1388 1875 1597 
Q 2028 1806 2438 1913 
Q 2031 2006 1876 2218 
Q 1722 2431 1722 2925 
L 1722 3822 
Q 1722 4266 1589 4402 
Q 1456 4538 1019 4538 
L 800 4538 
L 800 4863 
L 997 4863 
Q 1775 4863 2036 4633 
Q 2297 4403 2297 3713 
L 2297 2906 
Q 2297 2438 2465 2256 
Q 2634 2075 3078 2075 
L 3272 2075 
L 3272 1747 
L 3078 1747 
Q 2634 1747 2465 1565 
Q 2297 1384 2297 916 
L 2297 109 
Q 2297 -581 2036 -812 
Q 1775 -1044 997 -1044 
L 800 -1044 
L 800 -716 
z
" transform="scale(0.015625)"/>
      <path id="DejaVuSerif-67" d="M 3359 2988 
L 3359 72 
Q 3359 -644 2965 -1033 
Q 2572 -1422 1844 -1422 
Q 1516 -1422 1216 -1362 
Q 916 -1303 641 -1184 
L 641 -488 
L 941 -488 
Q 997 -813 1206 -963 
Q 1416 -1113 1806 -1113 
Q 2313 -1113 2548 -827 
Q 2784 -541 2784 72 
L 2784 519 
Q 2616 206 2355 57 
Q 2094 -91 1709 -91 
Q 1097 -91 708 395 
Q 319 881 319 1663 
Q 319 2444 706 2928 
Q 1094 3413 1709 3413 
Q 2094 3413 2355 3264 
Q 2616 3116 2784 2803 
L 2784 3322 
L 3909 3322 
L 3909 2988 
L 3359 2988 
z
M 2784 1825 
Q 2784 2422 2554 2737 
Q 2325 3053 1888 3053 
Q 1444 3053 1217 2703 
Q 991 2353 991 1663 
Q 991 975 1217 622 
Q 1444 269 1888 269 
Q 2325 269 2554 583 
Q 2784 897 2784 1497 
L 2784 1825 
z
" transform="scale(0.015625)"/>
      <path id="DejaVuSerif-29" d="M 453 -997 
L 453 -691 
Q 934 -359 1145 242 
Q 1356 844 1356 1931 
Q 1356 3022 1145 3623 
Q 934 4225 453 4556 
L 453 4863 
Q 1216 4522 1603 3783 
Q 1991 3044 1991 1931 
Q 1991 822 1603 83 
Q 1216 -656 453 -997 
z
" transform="scale(0.015625)"/>
      <path id="DejaVuSerif-3d" d="M 678 2894 
L 4684 2894 
L 4684 2394 
L 678 2394 
L 678 2894 
z
M 678 1619 
L 4684 1619 
L 4684 1119 
L 678 1119 
L 678 1619 
z
" transform="scale(0.015625)"/>
      <path id="DejaVuSerif-5e" d="M 2988 4666 
L 4684 2925 
L 4206 2925 
L 2681 4116 
L 1159 2925 
L 678 2925 
L 2375 4666 
L 2988 4666 
z
" transform="scale(0.015625)"/>
      <path id="DejaVuSerif-32" d="M 819 3553 
L 469 3553 
L 469 4384 
Q 803 4563 1142 4656 
Q 1481 4750 1806 4750 
Q 2534 4750 2956 4397 
Q 3378 4044 3378 3438 
Q 3378 2753 2422 1800 
Q 2347 1728 2309 1691 
L 1131 513 
L 3078 513 
L 3078 1088 
L 3444 1088 
L 3444 0 
L 434 0 
L 434 341 
L 1850 1753 
Q 2319 2222 2519 2614 
Q 2719 3006 2719 3438 
Q 2719 3909 2473 4175 
Q 2228 4441 1797 4441 
Q 1350 4441 1106 4219 
Q 863 3997 819 3553 
z
" transform="scale(0.015625)"/>
      <path id="DejaVuSerif-2b" d="M 2931 4013 
L 2931 2259 
L 4684 2259 
L 4684 1753 
L 2931 1753 
L 2931 0 
L 2431 0 
L 2431 1753 
L 678 1753 
L 678 2259 
L 2431 2259 
L 2431 4013 
L 2931 4013 
z
" transform="scale(0.015625)"/>
      <path id="DejaVuSerif-2c" d="M 231 -622 
Q 525 -406 662 -114 
Q 800 178 800 594 
L 800 709 
L 1416 709 
Q 1391 175 1164 -208 
Q 938 -591 481 -872 
L 231 -622 
z
" transform="scale(0.015625)"/>
      <path id="DejaVuSerif-33" d="M 622 4469 
Q 988 4606 1323 4678 
Q 1659 4750 1953 4750 
Q 2638 4750 3022 4454 
Q 3406 4159 3406 3634 
Q 3406 3213 3140 2930 
Q 2875 2647 2388 2547 
Q 2963 2466 3280 2130 
Q 3597 1794 3597 1259 
Q 3597 606 3158 257 
Q 2719 -91 1894 -91 
Q 1528 -91 1179 -12 
Q 831 66 488 225 
L 488 1131 
L 838 1131 
Q 869 681 1141 450 
Q 1413 219 1906 219 
Q 2384 219 2661 495 
Q 2938 772 2938 1253 
Q 2938 1803 2653 2086 
Q 2369 2369 1819 2369 
L 1522 2369 
L 1522 2688 
L 1678 2688 
Q 2225 2688 2498 2914 
Q 2772 3141 2772 3597 
Q 2772 4006 2547 4223 
Q 2322 4441 1900 4441 
Q 1478 4441 1245 4241 
Q 1013 4041 972 3647 
L 622 3647 
L 622 4469 
z
" transform="scale(0.015625)"/>
     </defs>
     <use xlink:href="#DejaVuSerif-66"/>
     <use xlink:href="#DejaVuSerif-5c" transform="translate(37.011719 0)"/>
     <use xlink:href="#DejaVuSerif-6c" transform="translate(70.703125 0)"/>
     <use xlink:href="#DejaVuSerif-65" transform="translate(102.685547 0)"/>
     <use xlink:href="#DejaVuSerif-71" transform="translate(161.865234 0)"/>
     <use xlink:href="#DejaVuSerif-66" transform="translate(225.878906 0)"/>
     <use xlink:href="#DejaVuSerif-74" transform="translate(262.890625 0)"/>
     <use xlink:href="#DejaVuSerif-28" transform="translate(303.076172 0)"/>
     <use xlink:href="#DejaVuSerif-20" transform="translate(342.089844 0)"/>
     <use xlink:href="#DejaVuSerif-5c" transform="translate(373.876953 0)"/>
     <use xlink:href="#DejaVuSerif-66" transform="translate(407.568359 0)"/>
     <use xlink:href="#DejaVuSerif-72" transform="translate(444.580078 0)"/>
     <use xlink:href="#DejaVuSerif-61" transform="translate(492.382812 0)"/>
     <use xlink:href="#DejaVuSerif-63" transform="translate(552.001953 0)"/>
     <use xlink:href="#DejaVuSerif-7b" transform="translate(608.007812 0)"/>
     <use xlink:href="#DejaVuSerif-31" transform="translate(671.630859 0)"/>
     <use xlink:href="#DejaVuSerif-7d" transform="translate(735.253906 0)"/>
     <use xlink:href="#DejaVuSerif-7b" transform="translate(798.876953 0)"/>
     <use xlink:href="#DejaVuSerif-6e" transform="translate(862.5 0)"/>
     <use xlink:href="#DejaVuSerif-7d" transform="translate(926.904297 0)"/>
     <use xlink:href="#DejaVuSerif-20" transform="translate(990.527344 0)"/>
     <use xlink:href="#DejaVuSerif-5c" transform="translate(1022.314453 0)"/>
     <use xlink:href="#DejaVuSerif-72" transform="translate(1056.005859 0)"/>
     <use xlink:href="#DejaVuSerif-69" transform="translate(1103.808594 0)"/>
     <use xlink:href="#DejaVuSerif-67" transform="translate(1135.791016 0)"/>
     <use xlink:href="#DejaVuSerif-68" transform="translate(1199.804688 0)"/>
     <use xlink:href="#DejaVuSerif-74" transform="translate(1264.208984 0)"/>
     <use xlink:href="#DejaVuSerif-29" transform="translate(1304.394531 0)"/>
     <use xlink:href="#DejaVuSerif-20" transform="translate(1343.408203 0)"/>
     <use xlink:href="#DejaVuSerif-3d" transform="translate(1375.195312 0)"/>
     <use xlink:href="#DejaVuSerif-20" transform="translate(1458.984375 0)"/>
     <use xlink:href="#DejaVuSerif-5c" transform="translate(1490.771484 0)"/>
     <use xlink:href="#DejaVuSerif-66" transform="translate(1524.462891 0)"/>
     <use xlink:href="#DejaVuSerif-72" transform="translate(1561.474609 0)"/>
     <use xlink:href="#DejaVuSerif-61" transform="translate(1609.277344 0)"/>
     <use xlink:href="#DejaVuSerif-63" transform="translate(1668.896484 0)"/>
     <use xlink:href="#DejaVuSerif-7b" transform="translate(1724.902344 0)"/>
     <use xlink:href="#DejaVuSerif-6e" transform="translate(1788.525391 0)"/>
     <use xlink:href="#DejaVuSerif-5e" transform="translate(1852.929688 0)"/>
     <use xlink:href="#DejaVuSerif-32" transform="translate(1936.71875 0)"/>
     <use xlink:href="#DejaVuSerif-7d" transform="translate(2000.341797 0)"/>
     <use xlink:href="#DejaVuSerif-7b" transform="translate(2063.964844 0)"/>
     <use xlink:href="#DejaVuSerif-6e" transform="translate(2127.587891 0)"/>
     <use xlink:href="#DejaVuSerif-5e" transform="translate(2191.992188 0)"/>
     <use xlink:href="#DejaVuSerif-32" transform="translate(2275.78125 0)"/>
     <use xlink:href="#DejaVuSerif-20" transform="translate(2339.404297 0)"/>
     <use xlink:href="#DejaVuSerif-2b" transform="translate(2371.191406 0)"/>
     <use xlink:href="#DejaVuSerif-20" transform="translate(2454.980469 0)"/>
     <use xlink:href="#DejaVuSerif-31" transform="translate(2486.767578 0)"/>
     <use xlink:href="#DejaVuSerif-7d" transform="translate(2550.390625 0)"/>
     <use xlink:href="#DejaVuSerif-2c" transform="translate(2614.013672 0)"/>
     <use xlink:href="#DejaVuSerif-20" transform="translate(2645.800781 0)"/>
     <use xlink:href="#DejaVuSerif-5c" transform="translate(2677.587891 0)"/>
     <use xlink:href="#DejaVuSerif-71" transform="translate(2711.279297 0)"/>
     <use xlink:href="#DejaVuSerif-71" transform="translate(2775.292969 0)"/>
     <use xlink:href="#DejaVuSerif-75" transform="translate(2839.306641 0)"/>
     <use xlink:href="#DejaVuSerif-61" transform="translate(2903.710938 0)"/>
     <use xlink:href="#DejaVuSerif-64" transform="translate(2963.330078 0)"/>
     <use xlink:href="#DejaVuSerif-20" transform="translate(3027.34375 0)"/>
     <use xlink:href="#DejaVuSerif-6e" transform="translate(3059.130859 0)"/>
     <use xlink:href="#DejaVuSerif-20" transform="translate(3123.535156 0)"/>
     <use xlink:href="#DejaVuSerif-3d" transform="translate(3155.322266 0)"/>
     <use xlink:href="#DejaVuSerif-20" transform="translate(3239.111328 0)"/>
     <use xlink:href="#DejaVuSerif-31" transform="translate(3270.898438 0)"/>
     <use xlink:href="#DejaVuSerif-2c" transform="translate(3334.521484 0)"/>
     <use xlink:href="#DejaVuSerif-20" transform="translate(3366.308594 0)"/>
     <use xlink:href="#DejaVuSerif-32" transform="translate(3398.095703 0)"/>
     <use xlink:href="#DejaVuSerif-2c" transform="translate(3461.71875 0)"/>
     <use xlink:href="#DejaVuSerif-20" transform="translate(3493.505859 0)"/>
     <use xlink:href="#DejaVuSerif-33" transform="translate(3525.292969 0)"/>
     <use xlink:href="#DejaVuSerif-2c" transform="translate(3588.916016 0)"/>
     <use xlink:href="#DejaVuSerif-20" transform="translate(3620.703125 0)"/>
     <use xlink:href="#DejaVuSerif-5c" transform="translate(3652.490234 0)"/>
     <use xlink:href="#DejaVuSerif-64" transform="translate(3686.181641 0)"/>
     <use xlink:href="#DejaVuSerif-6f" transform="translate(3750.195312 0)"/>
     <use xlink:href="#DejaVuSerif-74" transform="translate(3810.400391 0)"/>
     <use xlink:href="#DejaVuSerif-73" transform="translate(3850.585938 0)"/>
     <use xlink:href="#DejaVuSerif-2c" transform="translate(3901.904297 0)"/>
    </g>
    <!-- \] -->
    <g transform="translate(268.037812 129.83375) scale(0.12 -0.12)">
     <defs>
      <path id="DejaVuSerif-5d" d="M 1947 4863 
L 1947 -844 
L 494 -844 
L 494 -513 
L 1350 -513 
L 1350 4531 
L 494 4531 
L 494 4863 
L 1947 4863 
z
" transform="scale(0.015625)"/>
     </defs>
     <use xlink:href="#DejaVuSerif-5c"/>
     <use xlink:href="#DejaVuSerif-5d" transform="translate(33.691406 0)"/>
    </g>
    <!-- compute the values of the derivatives $f^{(k)}(0), k = 1, 2, 3, \dots$. -->
    <g transform="translate(99.36 145.433375) scale(0.12 -0.12)">
     <defs>
      <path id="DejaVuSerif-70" d="M 1313 1825 
L 1313 1497 
Q 1313 897 1542 583 
Q 1772 269 2209 269 
Q 2650 269 2876 622 
Q 3103 975 3103 1663 
Q 3103 2353 2876 2703 
Q 2650 3053 2209 3053 
Q 1772 3053 1542 2737 
Q 1313 2422 1313 1825 
z
M 738 2988 
L 184 2988 
L 184 3322 
L 1313 3322 
L 1313 2803 
Q 1481 3116 1742 3264 
Q 2003 3413 2388 3413 
Q 3000 3413 3387 2928 
Q 3775 2444 3775 1663 
Q 3775 881 3387 395 
Q 3000 -91 2388 -91 
Q 2003 -91 1742 57 
Q 1481 206 1313 519 
L 1313 -997 
L 1856 -997 
L 1856 -1331 
L 184 -1331 
L 184 -997 
L 738 -997 
L 738 2988 
z
" transform="scale(0.015625)"/>
      <path id="Cmr10-28" d="M 1984 -1588 
Q 1628 -1306 1370 -942 
Q 1113 -578 948 -165 
Q 784 247 703 697 
Q 622 1147 622 1600 
Q 622 2059 703 2509 
Q 784 2959 951 3375 
Q 1119 3791 1378 4153 
Q 1638 4516 1984 4788 
Q 1984 4800 2016 4800 
L 2075 4800 
Q 2094 4800 2109 4783 
Q 2125 4766 2125 4744 
Q 2125 4716 2113 4703 
Q 1800 4397 1592 4047 
Q 1384 3697 1257 3301 
Q 1131 2906 1075 2482 
Q 1019 2059 1019 1600 
Q 1019 -434 2106 -1491 
Q 2125 -1509 2125 -1544 
Q 2125 -1559 2108 -1579 
Q 2091 -1600 2075 -1600 
L 2016 -1600 
Q 1984 -1600 1984 -1588 
z
" transform="scale(0.015625)"/>
      <path id="Cmmi10-6b" d="M 341 116 
Q 341 153 347 172 
L 1275 3872 
Q 1300 3981 1306 4044 
Q 1306 4147 891 4147 
Q 825 4147 825 4231 
Q 828 4247 839 4287 
Q 850 4328 867 4350 
Q 884 4372 916 4372 
L 1778 4441 
L 1797 4441 
Q 1797 4434 1819 4423 
Q 1841 4413 1844 4409 
Q 1856 4378 1856 4359 
L 1184 1684 
Q 1416 1781 1767 2145 
Q 2119 2509 2317 2668 
Q 2516 2828 2816 2828 
Q 2994 2828 3119 2706 
Q 3244 2584 3244 2406 
Q 3244 2294 3197 2198 
Q 3150 2103 3065 2043 
Q 2981 1984 2869 1984 
Q 2766 1984 2695 2048 
Q 2625 2113 2625 2216 
Q 2625 2369 2733 2473 
Q 2841 2578 2994 2578 
Q 2931 2663 2803 2663 
Q 2613 2663 2436 2553 
Q 2259 2444 2054 2239 
Q 1850 2034 1681 1864 
Q 1513 1694 1369 1606 
Q 1747 1563 2025 1408 
Q 2303 1253 2303 934 
Q 2303 869 2278 769 
Q 2222 528 2222 384 
Q 2222 97 2419 97 
Q 2650 97 2770 350 
Q 2891 603 2969 941 
Q 2981 978 3022 978 
L 3097 978 
Q 3122 978 3139 962 
Q 3156 947 3156 922 
Q 3156 916 3150 903 
Q 2909 -72 2406 -72 
Q 2225 -72 2086 12 
Q 1947 97 1872 242 
Q 1797 388 1797 569 
Q 1797 672 1825 781 
Q 1844 856 1844 922 
Q 1844 1169 1625 1297 
Q 1406 1425 1125 1453 
L 800 147 
Q 775 50 703 -11 
Q 631 -72 538 -72 
Q 456 -72 398 -17 
Q 341 38 341 116 
z
" transform="scale(0.015625)"/>
      <path id="Cmr10-29" d="M 416 -1600 
Q 359 -1600 359 -1544 
Q 359 -1516 372 -1503 
Q 1466 -434 1466 1600 
Q 1466 3634 384 4691 
Q 359 4706 359 4744 
Q 359 4766 376 4783 
Q 394 4800 416 4800 
L 475 4800 
Q 494 4800 506 4788 
Q 966 4425 1272 3906 
Q 1578 3388 1720 2800 
Q 1863 2213 1863 1600 
Q 1863 1147 1786 708 
Q 1709 269 1542 -157 
Q 1375 -584 1119 -945 
Q 863 -1306 506 -1588 
Q 494 -1600 475 -1600 
L 416 -1600 
z
" transform="scale(0.015625)"/>
      <path id="Cmr10-30" d="M 1600 -141 
Q 816 -141 533 504 
Q 250 1150 250 2041 
Q 250 2597 351 3087 
Q 453 3578 754 3920 
Q 1056 4263 1600 4263 
Q 2022 4263 2290 4056 
Q 2559 3850 2700 3523 
Q 2841 3197 2892 2823 
Q 2944 2450 2944 2041 
Q 2944 1491 2842 1011 
Q 2741 531 2444 195 
Q 2147 -141 1600 -141 
z
M 1600 25 
Q 1956 25 2131 390 
Q 2306 756 2347 1200 
Q 2388 1644 2388 2144 
Q 2388 2625 2347 3031 
Q 2306 3438 2132 3767 
Q 1959 4097 1600 4097 
Q 1238 4097 1063 3765 
Q 888 3434 847 3029 
Q 806 2625 806 2144 
Q 806 1788 823 1472 
Q 841 1156 916 820 
Q 991 484 1158 254 
Q 1325 25 1600 25 
z
" transform="scale(0.015625)"/>
      <path id="Cmmi10-3b" d="M 634 -1153 
Q 634 -1125 659 -1100 
Q 891 -878 1019 -587 
Q 1147 -297 1147 25 
L 1147 103 
Q 1044 0 891 0 
Q 744 0 641 103 
Q 538 206 538 353 
Q 538 503 641 603 
Q 744 703 891 703 
Q 1119 703 1216 492 
Q 1313 281 1313 25 
Q 1313 -331 1170 -651 
Q 1028 -972 769 -1228 
Q 744 -1241 728 -1241 
Q 697 -1241 665 -1212 
Q 634 -1184 634 -1153 
z
" transform="scale(0.015625)"/>
      <path id="Cmr10-3d" d="M 481 850 
Q 428 850 393 890 
Q 359 931 359 978 
Q 359 1031 393 1068 
Q 428 1106 481 1106 
L 4500 1106 
Q 4547 1106 4581 1068 
Q 4616 1031 4616 978 
Q 4616 931 4581 890 
Q 4547 850 4500 850 
L 481 850 
z
M 481 2094 
Q 428 2094 393 2131 
Q 359 2169 359 2222 
Q 359 2269 393 2309 
Q 428 2350 481 2350 
L 4500 2350 
Q 4547 2350 4581 2309 
Q 4616 2269 4616 2222 
Q 4616 2169 4581 2131 
Q 4547 2094 4500 2094 
L 481 2094 
z
" transform="scale(0.015625)"/>
      <path id="Cmr10-31" d="M 594 0 
L 594 225 
Q 1394 225 1394 428 
L 1394 3788 
Q 1063 3628 556 3628 
L 556 3853 
Q 1341 3853 1741 4263 
L 1831 4263 
Q 1853 4263 1873 4245 
Q 1894 4228 1894 4206 
L 1894 428 
Q 1894 225 2694 225 
L 2694 0 
L 594 0 
z
" transform="scale(0.015625)"/>
      <path id="Cmr10-32" d="M 319 0 
L 319 172 
Q 319 188 331 206 
L 1325 1306 
Q 1550 1550 1690 1715 
Q 1831 1881 1968 2097 
Q 2106 2313 2186 2536 
Q 2266 2759 2266 3009 
Q 2266 3272 2169 3511 
Q 2072 3750 1880 3894 
Q 1688 4038 1416 4038 
Q 1138 4038 916 3870 
Q 694 3703 603 3438 
Q 628 3444 672 3444 
Q 816 3444 917 3347 
Q 1019 3250 1019 3097 
Q 1019 2950 917 2848 
Q 816 2747 672 2747 
Q 522 2747 420 2851 
Q 319 2956 319 3097 
Q 319 3338 409 3548 
Q 500 3759 670 3923 
Q 841 4088 1055 4175 
Q 1269 4263 1509 4263 
Q 1875 4263 2190 4108 
Q 2506 3953 2690 3670 
Q 2875 3388 2875 3009 
Q 2875 2731 2753 2481 
Q 2631 2231 2440 2026 
Q 2250 1822 1953 1562 
Q 1656 1303 1563 1216 
L 838 519 
L 1453 519 
Q 1906 519 2211 526 
Q 2516 534 2534 550 
Q 2609 631 2688 1141 
L 2875 1141 
L 2694 0 
L 319 0 
z
" transform="scale(0.015625)"/>
      <path id="Cmr10-33" d="M 609 494 
Q 759 275 1012 169 
Q 1266 63 1556 63 
Q 1928 63 2084 380 
Q 2241 697 2241 1100 
Q 2241 1281 2208 1462 
Q 2175 1644 2097 1800 
Q 2019 1956 1883 2050 
Q 1747 2144 1550 2144 
L 1125 2144 
Q 1069 2144 1069 2203 
L 1069 2259 
Q 1069 2309 1125 2309 
L 1478 2338 
Q 1703 2338 1851 2506 
Q 2000 2675 2069 2917 
Q 2138 3159 2138 3378 
Q 2138 3684 1994 3881 
Q 1850 4078 1556 4078 
Q 1313 4078 1091 3986 
Q 869 3894 738 3706 
Q 750 3709 759 3711 
Q 769 3713 781 3713 
Q 925 3713 1022 3613 
Q 1119 3513 1119 3372 
Q 1119 3234 1022 3134 
Q 925 3034 781 3034 
Q 641 3034 541 3134 
Q 441 3234 441 3372 
Q 441 3647 606 3850 
Q 772 4053 1033 4158 
Q 1294 4263 1556 4263 
Q 1750 4263 1965 4205 
Q 2181 4147 2356 4039 
Q 2531 3931 2642 3762 
Q 2753 3594 2753 3378 
Q 2753 3109 2633 2881 
Q 2513 2653 2303 2487 
Q 2094 2322 1844 2241 
Q 2122 2188 2372 2031 
Q 2622 1875 2773 1631 
Q 2925 1388 2925 1106 
Q 2925 753 2731 467 
Q 2538 181 2222 20 
Q 1906 -141 1556 -141 
Q 1256 -141 954 -26 
Q 653 88 461 316 
Q 269 544 269 863 
Q 269 1022 375 1128 
Q 481 1234 641 1234 
Q 744 1234 830 1186 
Q 916 1138 964 1050 
Q 1013 963 1013 863 
Q 1013 706 903 600 
Q 794 494 641 494 
L 609 494 
z
" transform="scale(0.015625)"/>
      <path id="STIXGeneral-Regular-2026" d="M 5683 275 
Q 5683 134 5577 32 
Q 5472 -70 5325 -70 
Q 5178 -70 5075 32 
Q 4973 134 4973 281 
Q 4973 429 5078 534 
Q 5184 640 5331 640 
Q 5472 640 5577 531 
Q 5683 422 5683 275 
z
M 3552 275 
Q 3552 134 3446 32 
Q 3341 -70 3193 -70 
Q 3046 -70 2944 32 
Q 2842 134 2842 281 
Q 2842 429 2947 534 
Q 3053 640 3200 640 
Q 3341 640 3446 531 
Q 3552 422 3552 275 
z
M 1421 275 
Q 1421 134 1315 32 
Q 1210 -70 1062 -70 
Q 915 -70 812 32 
Q 710 134 710 281 
Q 710 429 816 534 
Q 922 640 1069 640 
Q 1210 640 1315 531 
Q 1421 422 1421 275 
z
" transform="scale(0.015625)"/>
     </defs>
     <use xlink:href="#DejaVuSerif-63" transform="translate(0 0.235938)"/>
     <use xlink:href="#DejaVuSerif-6f" transform="translate(56.005859 0.235938)"/>
     <use xlink:href="#DejaVuSerif-6d" transform="translate(116.210938 0.235938)"/>
     <use xlink:href="#DejaVuSerif-70" transform="translate(211.035156 0.235938)"/>
     <use xlink:href="#DejaVuSerif-75" transform="translate(275.048828 0.235938)"/>
     <use xlink:href="#DejaVuSerif-74" transform="translate(339.453125 0.235938)"/>
     <use xlink:href="#DejaVuSerif-65" transform="translate(379.638672 0.235938)"/>
     <use xlink:href="#DejaVuSerif-20" transform="translate(438.818359 0.235938)"/>
     <use xlink:href="#DejaVuSerif-74" transform="translate(470.605469 0.235938)"/>
     <use xlink:href="#DejaVuSerif-68" transform="translate(510.791016 0.235938)"/>
     <use xlink:href="#DejaVuSerif-65" transform="translate(575.195312 0.235938)"/>
     <use xlink:href="#DejaVuSerif-20" transform="translate(634.375 0.235938)"/>
     <use xlink:href="#DejaVuSerif-76" transform="translate(666.162109 0.235938)"/>
     <use xlink:href="#DejaVuSerif-61" transform="translate(722.65625 0.235938)"/>
     <use xlink:href="#DejaVuSerif-6c" transform="translate(782.275391 0.235938)"/>
     <use xlink:href="#DejaVuSerif-75" transform="translate(814.257812 0.235938)"/>
     <use xlink:href="#DejaVuSerif-65" transform="translate(878.662109 0.235938)"/>
     <use xlink:href="#DejaVuSerif-73" transform="translate(937.841797 0.235938)"/>
     <use xlink:href="#DejaVuSerif-20" transform="translate(989.160156 0.235938)"/>
     <use xlink:href="#DejaVuSerif-6f" transform="translate(1020.947266 0.235938)"/>
     <use xlink:href="#DejaVuSerif-66" transform="translate(1081.152344 0.235938)"/>
     <use xlink:href="#DejaVuSerif-20" transform="translate(1118.164062 0.235938)"/>
     <use xlink:href="#DejaVuSerif-74" transform="translate(1149.951172 0.235938)"/>
     <use xlink:href="#DejaVuSerif-68" transform="translate(1190.136719 0.235938)"/>
     <use xlink:href="#DejaVuSerif-65" transform="translate(1254.541016 0.235938)"/>
     <use xlink:href="#DejaVuSerif-20" transform="translate(1313.720703 0.235938)"/>
     <use xlink:href="#DejaVuSerif-64" transform="translate(1345.507812 0.235938)"/>
     <use xlink:href="#DejaVuSerif-65" transform="translate(1409.521484 0.235938)"/>
     <use xlink:href="#DejaVuSerif-72" transform="translate(1468.701172 0.235938)"/>
     <use xlink:href="#DejaVuSerif-69" transform="translate(1516.503906 0.235938)"/>
     <use xlink:href="#DejaVuSerif-76" transform="translate(1548.486328 0.235938)"/>
     <use xlink:href="#DejaVuSerif-61" transform="translate(1604.980469 0.235938)"/>
     <use xlink:href="#DejaVuSerif-74" transform="translate(1664.599609 0.235938)"/>
     <use xlink:href="#DejaVuSerif-69" transform="translate(1704.785156 0.235938)"/>
     <use xlink:href="#DejaVuSerif-76" transform="translate(1736.767578 0.235938)"/>
     <use xlink:href="#DejaVuSerif-65" transform="translate(1793.261719 0.235938)"/>
     <use xlink:href="#DejaVuSerif-73" transform="translate(1852.441406 0.235938)"/>
     <use xlink:href="#DejaVuSerif-20" transform="translate(1903.759766 0.235938)"/>
     <use xlink:href="#Cmmi10-66" transform="translate(1935.546875 0.235938)"/>
     <use xlink:href="#Cmr10-28" transform="translate(1996.256016 38.5) scale(0.7)"/>
     <use xlink:href="#Cmmi10-6b" transform="translate(2023.428867 38.5) scale(0.7)"/>
     <use xlink:href="#Cmr10-29" transform="translate(2059.830234 38.5) scale(0.7)"/>
     <use xlink:href="#Cmr10-28" transform="translate(2093.38043 0.235938)"/>
     <use xlink:href="#Cmr10-30" transform="translate(2132.198789 0.235938)"/>
     <use xlink:href="#Cmr10-29" transform="translate(2182.198789 0.235938)"/>
     <use xlink:href="#Cmmi10-3b" transform="translate(2221.017148 0.235938)"/>
     <use xlink:href="#Cmmi10-6b" transform="translate(2266.261289 0.235938)"/>
     <use xlink:href="#Cmr10-3d" transform="translate(2335.821836 0.235938)"/>
     <use xlink:href="#Cmr10-31" transform="translate(2431.065977 0.235938)"/>
     <use xlink:href="#Cmmi10-3b" transform="translate(2481.065977 0.235938)"/>
     <use xlink:href="#Cmr10-32" transform="translate(2526.310117 0.235938)"/>
     <use xlink:href="#Cmmi10-3b" transform="translate(2576.310117 0.235938)"/>
     <use xlink:href="#Cmr10-33" transform="translate(2621.554258 0.235938)"/>
     <use xlink:href="#Cmmi10-3b" transform="translate(2671.554258 0.235938)"/>
     <use xlink:href="#STIXGeneral-Regular-2026" transform="translate(2734.356992 0.235938)"/>
     <use xlink:href="#DejaVuSerif-2e" transform="translate(2851.915571 0.235938)"/>
    </g>
   </g>
  </g>
 </g>
</svg>
