<?xml version="1.0" encoding="utf-8" standalone="no"?>
<!DOCTYPE svg PUBLIC "-//W3C//DTD SVG 1.1//EN"
  "http://www.w3.org/Graphics/SVG/1.1/DTD/svg11.dtd">
<svg xmlns:xlink="http://www.w3.org/1999/xlink" width="645.24pt" height="228.4pt" viewBox="0 0 645.24 228.4" xmlns="http://www.w3.org/2000/svg" version="1.1">
 <metadata>
  <rdf:RDF xmlns:dc="http://purl.org/dc/elements/1.1/" xmlns:cc="http://creativecommons.org/ns#" xmlns:rdf="http://www.w3.org/1999/02/22-rdf-syntax-ns#">
   <cc:Work>
    <dc:type rdf:resource="http://purl.org/dc/dcmitype/StillImage"/>
    <dc:date>2025-05-29T18:43:58.675658</dc:date>
    <dc:format>image/svg+xml</dc:format>
    <dc:creator>
     <cc:Agent>
      <dc:title>Matplotlib v3.10.3, https://matplotlib.org/</dc:title>
     </cc:Agent>
    </dc:creator>
   </cc:Work>
  </rdf:RDF>
 </metadata>
 <defs>
  <style type="text/css">*{stroke-linejoin: round; stroke-linecap: butt}</style>
 </defs>
 <g id="figure_1">
  <g id="patch_1">
   <path d="M 0 228.4 
L 645.24 228.4 
L 645.24 0 
L 0 0 
z
" style="fill: #ffffff"/>
  </g>
  <g id="axes_1">
   <g id="text_1">
    <!-- Find all real polynomials $p(x)$ of degree $n \geqq 2$ for which there exist real numbers $r_1&lt;r_2&lt;\cdots&lt;r_n$ such that -->
    <g transform="translate(7.2 80.349313) scale(0.12 -0.12)">
     <defs>
      <path id="DejaVuSerif-46" d="M 353 0 
L 353 331 
L 947 331 
L 947 4331 
L 353 4331 
L 353 4666 
L 4172 4666 
L 4172 3628 
L 3788 3628 
L 3788 4281 
L 1581 4281 
L 1581 2719 
L 3175 2719 
L 3175 3303 
L 3559 3303 
L 3559 1753 
L 3175 1753 
L 3175 2338 
L 1581 2338 
L 1581 331 
L 2328 331 
L 2328 0 
L 353 0 
z
" transform="scale(0.015625)"/>
      <path id="DejaVuSerif-69" d="M 622 4353 
Q 622 4497 726 4603 
Q 831 4709 978 4709 
Q 1122 4709 1226 4603 
Q 1331 4497 1331 4353 
Q 1331 4206 1228 4103 
Q 1125 4000 978 4000 
Q 831 4000 726 4103 
Q 622 4206 622 4353 
z
M 1356 331 
L 1900 331 
L 1900 0 
L 231 0 
L 231 331 
L 781 331 
L 781 2988 
L 231 2988 
L 231 3322 
L 1356 3322 
L 1356 331 
z
" transform="scale(0.015625)"/>
      <path id="DejaVuSerif-6e" d="M 263 0 
L 263 331 
L 781 331 
L 781 2988 
L 231 2988 
L 231 3322 
L 1356 3322 
L 1356 2731 
Q 1516 3069 1770 3241 
Q 2025 3413 2363 3413 
Q 2913 3413 3172 3097 
Q 3431 2781 3431 2113 
L 3431 331 
L 3944 331 
L 3944 0 
L 2356 0 
L 2356 331 
L 2853 331 
L 2853 1931 
Q 2853 2541 2703 2767 
Q 2553 2994 2175 2994 
Q 1775 2994 1565 2701 
Q 1356 2409 1356 1850 
L 1356 331 
L 1856 331 
L 1856 0 
L 263 0 
z
" transform="scale(0.015625)"/>
      <path id="DejaVuSerif-64" d="M 3359 331 
L 3909 331 
L 3909 0 
L 2784 0 
L 2784 519 
Q 2616 206 2355 57 
Q 2094 -91 1709 -91 
Q 1097 -91 708 395 
Q 319 881 319 1663 
Q 319 2444 706 2928 
Q 1094 3413 1709 3413 
Q 2094 3413 2355 3264 
Q 2616 3116 2784 2803 
L 2784 4531 
L 2241 4531 
L 2241 4863 
L 3359 4863 
L 3359 331 
z
M 2784 1497 
L 2784 1825 
Q 2784 2422 2554 2737 
Q 2325 3053 1888 3053 
Q 1444 3053 1217 2703 
Q 991 2353 991 1663 
Q 991 975 1217 622 
Q 1444 269 1888 269 
Q 2325 269 2554 583 
Q 2784 897 2784 1497 
z
" transform="scale(0.015625)"/>
      <path id="DejaVuSerif-20" transform="scale(0.015625)"/>
      <path id="DejaVuSerif-61" d="M 2547 1044 
L 2547 1747 
L 1806 1747 
Q 1378 1747 1168 1562 
Q 959 1378 959 997 
Q 959 650 1171 447 
Q 1384 244 1747 244 
Q 2106 244 2326 466 
Q 2547 688 2547 1044 
z
M 3122 2075 
L 3122 331 
L 3634 331 
L 3634 0 
L 2547 0 
L 2547 359 
Q 2356 128 2106 18 
Q 1856 -91 1522 -91 
Q 969 -91 644 203 
Q 319 497 319 997 
Q 319 1513 691 1797 
Q 1063 2081 1741 2081 
L 2547 2081 
L 2547 2309 
Q 2547 2688 2317 2895 
Q 2088 3103 1672 3103 
Q 1328 3103 1125 2947 
Q 922 2791 872 2484 
L 575 2484 
L 575 3156 
Q 875 3284 1158 3348 
Q 1441 3413 1709 3413 
Q 2400 3413 2761 3070 
Q 3122 2728 3122 2075 
z
" transform="scale(0.015625)"/>
      <path id="DejaVuSerif-6c" d="M 1313 331 
L 1856 331 
L 1856 0 
L 184 0 
L 184 331 
L 738 331 
L 738 4531 
L 184 4531 
L 184 4863 
L 1313 4863 
L 1313 331 
z
" transform="scale(0.015625)"/>
      <path id="DejaVuSerif-72" d="M 3059 3328 
L 3059 2497 
L 2728 2497 
Q 2713 2744 2591 2866 
Q 2469 2988 2234 2988 
Q 1809 2988 1582 2694 
Q 1356 2400 1356 1850 
L 1356 331 
L 2022 331 
L 2022 0 
L 263 0 
L 263 331 
L 781 331 
L 781 2994 
L 231 2994 
L 231 3322 
L 1356 3322 
L 1356 2731 
Q 1525 3078 1790 3245 
Q 2056 3413 2438 3413 
Q 2578 3413 2733 3391 
Q 2888 3369 3059 3328 
z
" transform="scale(0.015625)"/>
      <path id="DejaVuSerif-65" d="M 3469 1600 
L 991 1600 
L 991 1575 
Q 991 903 1244 561 
Q 1497 219 1991 219 
Q 2369 219 2611 417 
Q 2853 616 2950 1006 
L 3413 1006 
Q 3275 459 2904 184 
Q 2534 -91 1931 -91 
Q 1203 -91 761 389 
Q 319 869 319 1663 
Q 319 2450 753 2931 
Q 1188 3413 1894 3413 
Q 2647 3413 3050 2948 
Q 3453 2484 3469 1600 
z
M 2791 1931 
Q 2772 2513 2545 2808 
Q 2319 3103 1894 3103 
Q 1497 3103 1269 2806 
Q 1041 2509 991 1931 
L 2791 1931 
z
" transform="scale(0.015625)"/>
      <path id="DejaVuSerif-70" d="M 1313 1825 
L 1313 1497 
Q 1313 897 1542 583 
Q 1772 269 2209 269 
Q 2650 269 2876 622 
Q 3103 975 3103 1663 
Q 3103 2353 2876 2703 
Q 2650 3053 2209 3053 
Q 1772 3053 1542 2737 
Q 1313 2422 1313 1825 
z
M 738 2988 
L 184 2988 
L 184 3322 
L 1313 3322 
L 1313 2803 
Q 1481 3116 1742 3264 
Q 2003 3413 2388 3413 
Q 3000 3413 3387 2928 
Q 3775 2444 3775 1663 
Q 3775 881 3387 395 
Q 3000 -91 2388 -91 
Q 2003 -91 1742 57 
Q 1481 206 1313 519 
L 1313 -997 
L 1856 -997 
L 1856 -1331 
L 184 -1331 
L 184 -997 
L 738 -997 
L 738 2988 
z
" transform="scale(0.015625)"/>
      <path id="DejaVuSerif-6f" d="M 1925 219 
Q 2388 219 2623 584 
Q 2859 950 2859 1663 
Q 2859 2375 2623 2739 
Q 2388 3103 1925 3103 
Q 1463 3103 1227 2739 
Q 991 2375 991 1663 
Q 991 950 1228 584 
Q 1466 219 1925 219 
z
M 1925 -91 
Q 1200 -91 759 389 
Q 319 869 319 1663 
Q 319 2456 758 2934 
Q 1197 3413 1925 3413 
Q 2653 3413 3092 2934 
Q 3531 2456 3531 1663 
Q 3531 869 3092 389 
Q 2653 -91 1925 -91 
z
" transform="scale(0.015625)"/>
      <path id="DejaVuSerif-79" d="M 1381 -609 
L 1600 -56 
L 359 2988 
L -19 2988 
L -19 3322 
L 1509 3322 
L 1509 2988 
L 978 2988 
L 1913 703 
L 2847 2988 
L 2350 2988 
L 2350 3322 
L 3597 3322 
L 3597 2988 
L 3225 2988 
L 1703 -750 
Q 1547 -1138 1356 -1280 
Q 1166 -1422 819 -1422 
Q 672 -1422 517 -1397 
Q 363 -1372 206 -1325 
L 206 -691 
L 500 -691 
Q 519 -903 608 -995 
Q 697 -1088 884 -1088 
Q 1056 -1088 1161 -992 
Q 1266 -897 1381 -609 
z
" transform="scale(0.015625)"/>
      <path id="DejaVuSerif-6d" d="M 3316 2675 
Q 3481 3041 3739 3227 
Q 3997 3413 4341 3413 
Q 4863 3413 5119 3089 
Q 5375 2766 5375 2113 
L 5375 331 
L 5894 331 
L 5894 0 
L 4300 0 
L 4300 331 
L 4800 331 
L 4800 2047 
Q 4800 2556 4650 2772 
Q 4500 2988 4153 2988 
Q 3769 2988 3567 2697 
Q 3366 2406 3366 1850 
L 3366 331 
L 3866 331 
L 3866 0 
L 2291 0 
L 2291 331 
L 2791 331 
L 2791 2069 
Q 2791 2566 2641 2777 
Q 2491 2988 2144 2988 
Q 1759 2988 1557 2697 
Q 1356 2406 1356 1850 
L 1356 331 
L 1856 331 
L 1856 0 
L 263 0 
L 263 331 
L 781 331 
L 781 2994 
L 231 2994 
L 231 3322 
L 1356 3322 
L 1356 2731 
Q 1516 3063 1762 3238 
Q 2009 3413 2322 3413 
Q 2709 3413 2968 3220 
Q 3228 3028 3316 2675 
z
" transform="scale(0.015625)"/>
      <path id="DejaVuSerif-73" d="M 359 184 
L 359 959 
L 691 959 
Q 703 588 923 403 
Q 1144 219 1575 219 
Q 1963 219 2166 364 
Q 2369 509 2369 788 
Q 2369 1006 2220 1140 
Q 2072 1275 1594 1428 
L 1178 1569 
Q 750 1706 558 1912 
Q 366 2119 366 2438 
Q 366 2894 700 3153 
Q 1034 3413 1625 3413 
Q 1888 3413 2178 3344 
Q 2469 3275 2778 3144 
L 2778 2419 
L 2447 2419 
Q 2434 2741 2221 2922 
Q 2009 3103 1644 3103 
Q 1281 3103 1095 2975 
Q 909 2847 909 2591 
Q 909 2381 1050 2254 
Q 1191 2128 1613 1997 
L 2069 1856 
Q 2541 1709 2748 1489 
Q 2956 1269 2956 922 
Q 2956 450 2595 179 
Q 2234 -91 1600 -91 
Q 1278 -91 972 -22 
Q 666 47 359 184 
z
" transform="scale(0.015625)"/>
      <path id="Cmmi10-70" d="M -159 -1241 
Q -219 -1241 -219 -1159 
Q -197 -1019 -134 -1019 
Q 66 -1019 145 -983 
Q 225 -947 269 -800 
L 991 2081 
Q 1038 2200 1038 2388 
Q 1038 2663 850 2663 
Q 650 2663 553 2423 
Q 456 2184 366 1819 
Q 366 1778 313 1778 
L 238 1778 
Q 222 1778 203 1801 
Q 184 1825 184 1844 
Q 253 2122 317 2315 
Q 381 2509 517 2668 
Q 653 2828 856 2828 
Q 1075 2828 1240 2704 
Q 1406 2581 1453 2369 
Q 1628 2572 1840 2700 
Q 2053 2828 2278 2828 
Q 2547 2828 2745 2684 
Q 2944 2541 3044 2308 
Q 3144 2075 3144 1806 
Q 3144 1394 2933 953 
Q 2722 513 2361 220 
Q 2000 -72 1588 -72 
Q 1400 -72 1248 34 
Q 1097 141 1013 313 
L 722 -825 
Q 706 -919 703 -934 
Q 703 -1019 1125 -1019 
Q 1191 -1019 1191 -1100 
Q 1169 -1184 1155 -1212 
Q 1141 -1241 1081 -1241 
L -159 -1241 
z
M 1594 97 
Q 1816 97 2006 280 
Q 2197 463 2316 691 
Q 2403 863 2479 1111 
Q 2556 1359 2612 1640 
Q 2669 1922 2669 2088 
Q 2669 2234 2630 2362 
Q 2591 2491 2502 2577 
Q 2413 2663 2266 2663 
Q 2031 2663 1823 2495 
Q 1616 2328 1447 2081 
L 1447 2059 
L 1094 647 
Q 1138 419 1263 258 
Q 1388 97 1594 97 
z
" transform="scale(0.015625)"/>
      <path id="Cmr10-28" d="M 1984 -1588 
Q 1628 -1306 1370 -942 
Q 1113 -578 948 -165 
Q 784 247 703 697 
Q 622 1147 622 1600 
Q 622 2059 703 2509 
Q 784 2959 951 3375 
Q 1119 3791 1378 4153 
Q 1638 4516 1984 4788 
Q 1984 4800 2016 4800 
L 2075 4800 
Q 2094 4800 2109 4783 
Q 2125 4766 2125 4744 
Q 2125 4716 2113 4703 
Q 1800 4397 1592 4047 
Q 1384 3697 1257 3301 
Q 1131 2906 1075 2482 
Q 1019 2059 1019 1600 
Q 1019 -434 2106 -1491 
Q 2125 -1509 2125 -1544 
Q 2125 -1559 2108 -1579 
Q 2091 -1600 2075 -1600 
L 2016 -1600 
Q 1984 -1600 1984 -1588 
z
" transform="scale(0.015625)"/>
      <path id="Cmmi10-78" d="M 500 184 
Q 613 97 819 97 
Q 1019 97 1172 289 
Q 1325 481 1381 709 
L 1672 1844 
Q 1741 2153 1741 2266 
Q 1741 2425 1652 2544 
Q 1563 2663 1403 2663 
Q 1200 2663 1022 2536 
Q 844 2409 722 2214 
Q 600 2019 550 1819 
Q 538 1778 500 1778 
L 422 1778 
Q 372 1778 372 1838 
L 372 1856 
Q 434 2094 584 2320 
Q 734 2547 951 2687 
Q 1169 2828 1416 2828 
Q 1650 2828 1839 2703 
Q 2028 2578 2106 2363 
Q 2216 2559 2386 2693 
Q 2556 2828 2759 2828 
Q 2897 2828 3040 2779 
Q 3184 2731 3275 2631 
Q 3366 2531 3366 2381 
Q 3366 2219 3261 2101 
Q 3156 1984 2994 1984 
Q 2891 1984 2822 2050 
Q 2753 2116 2753 2216 
Q 2753 2350 2845 2451 
Q 2938 2553 3066 2572 
Q 2950 2663 2747 2663 
Q 2541 2663 2389 2472 
Q 2238 2281 2175 2047 
L 1894 916 
Q 1825 659 1825 494 
Q 1825 331 1917 214 
Q 2009 97 2163 97 
Q 2463 97 2698 361 
Q 2934 625 3009 941 
Q 3022 978 3059 978 
L 3138 978 
Q 3163 978 3178 961 
Q 3194 944 3194 922 
Q 3194 916 3188 903 
Q 3097 522 2806 225 
Q 2516 -72 2150 -72 
Q 1916 -72 1727 54 
Q 1538 181 1459 397 
Q 1359 209 1182 68 
Q 1006 -72 806 -72 
Q 669 -72 523 -23 
Q 378 25 287 125 
Q 197 225 197 378 
Q 197 528 301 651 
Q 406 775 563 775 
Q 669 775 741 711 
Q 813 647 813 544 
Q 813 409 723 309 
Q 634 209 500 184 
z
" transform="scale(0.015625)"/>
      <path id="Cmr10-29" d="M 416 -1600 
Q 359 -1600 359 -1544 
Q 359 -1516 372 -1503 
Q 1466 -434 1466 1600 
Q 1466 3634 384 4691 
Q 359 4706 359 4744 
Q 359 4766 376 4783 
Q 394 4800 416 4800 
L 475 4800 
Q 494 4800 506 4788 
Q 966 4425 1272 3906 
Q 1578 3388 1720 2800 
Q 1863 2213 1863 1600 
Q 1863 1147 1786 708 
Q 1709 269 1542 -157 
Q 1375 -584 1119 -945 
Q 863 -1306 506 -1588 
Q 494 -1600 475 -1600 
L 416 -1600 
z
" transform="scale(0.015625)"/>
      <path id="DejaVuSerif-66" d="M 2753 4078 
L 2450 4078 
Q 2447 4313 2317 4434 
Q 2188 4556 1941 4556 
Q 1619 4556 1487 4379 
Q 1356 4203 1356 3750 
L 1356 3322 
L 2284 3322 
L 2284 2988 
L 1356 2988 
L 1356 331 
L 2094 331 
L 2094 0 
L 231 0 
L 231 331 
L 781 331 
L 781 2988 
L 231 2988 
L 231 3322 
L 781 3322 
L 781 3738 
Q 781 4294 1070 4578 
Q 1359 4863 1919 4863 
Q 2128 4863 2337 4825 
Q 2547 4788 2753 4709 
L 2753 4078 
z
" transform="scale(0.015625)"/>
      <path id="DejaVuSerif-67" d="M 3359 2988 
L 3359 72 
Q 3359 -644 2965 -1033 
Q 2572 -1422 1844 -1422 
Q 1516 -1422 1216 -1362 
Q 916 -1303 641 -1184 
L 641 -488 
L 941 -488 
Q 997 -813 1206 -963 
Q 1416 -1113 1806 -1113 
Q 2313 -1113 2548 -827 
Q 2784 -541 2784 72 
L 2784 519 
Q 2616 206 2355 57 
Q 2094 -91 1709 -91 
Q 1097 -91 708 395 
Q 319 881 319 1663 
Q 319 2444 706 2928 
Q 1094 3413 1709 3413 
Q 2094 3413 2355 3264 
Q 2616 3116 2784 2803 
L 2784 3322 
L 3909 3322 
L 3909 2988 
L 3359 2988 
z
M 2784 1825 
Q 2784 2422 2554 2737 
Q 2325 3053 1888 3053 
Q 1444 3053 1217 2703 
Q 991 2353 991 1663 
Q 991 975 1217 622 
Q 1444 269 1888 269 
Q 2325 269 2554 583 
Q 2784 897 2784 1497 
L 2784 1825 
z
" transform="scale(0.015625)"/>
      <path id="Cmmi10-6e" d="M 494 109 
Q 494 147 500 166 
L 978 2075 
Q 1025 2253 1025 2388 
Q 1025 2663 838 2663 
Q 638 2663 541 2423 
Q 444 2184 353 1819 
Q 353 1800 334 1789 
Q 316 1778 300 1778 
L 225 1778 
Q 203 1778 187 1801 
Q 172 1825 172 1844 
Q 241 2122 305 2315 
Q 369 2509 505 2668 
Q 641 2828 844 2828 
Q 1084 2828 1268 2676 
Q 1453 2525 1453 2291 
Q 1644 2541 1900 2684 
Q 2156 2828 2444 2828 
Q 2672 2828 2837 2750 
Q 3003 2672 3095 2514 
Q 3188 2356 3188 2138 
Q 3188 1875 3070 1503 
Q 2953 1131 2778 672 
Q 2688 463 2688 288 
Q 2688 97 2834 97 
Q 3084 97 3251 365 
Q 3419 634 3488 941 
Q 3500 978 3541 978 
L 3616 978 
Q 3641 978 3658 962 
Q 3675 947 3675 922 
Q 3675 916 3669 903 
Q 3581 541 3364 234 
Q 3147 -72 2822 -72 
Q 2597 -72 2437 83 
Q 2278 238 2278 459 
Q 2278 578 2328 709 
Q 2409 919 2514 1209 
Q 2619 1500 2686 1765 
Q 2753 2031 2753 2234 
Q 2753 2413 2679 2538 
Q 2606 2663 2431 2663 
Q 2197 2663 2000 2559 
Q 1803 2456 1656 2286 
Q 1509 2116 1388 1881 
L 953 141 
Q 931 53 854 -9 
Q 778 -72 684 -72 
Q 606 -72 550 -22 
Q 494 28 494 109 
z
" transform="scale(0.015625)"/>
      <path id="STIXGeneral-Regular-2267" d="M 3981 2771 
L 365 1024 
L 365 1427 
L 3130 2803 
L 365 4179 
L 365 4595 
L 3981 2835 
L 3981 2771 
z
M 3981 -77 
L 365 -77 
L 365 346 
L 3981 346 
L 3981 -77 
z
M 3981 -1350 
L 365 -1350 
L 365 -928 
L 3981 -928 
L 3981 -1350 
z
" transform="scale(0.015625)"/>
      <path id="Cmr10-32" d="M 319 0 
L 319 172 
Q 319 188 331 206 
L 1325 1306 
Q 1550 1550 1690 1715 
Q 1831 1881 1968 2097 
Q 2106 2313 2186 2536 
Q 2266 2759 2266 3009 
Q 2266 3272 2169 3511 
Q 2072 3750 1880 3894 
Q 1688 4038 1416 4038 
Q 1138 4038 916 3870 
Q 694 3703 603 3438 
Q 628 3444 672 3444 
Q 816 3444 917 3347 
Q 1019 3250 1019 3097 
Q 1019 2950 917 2848 
Q 816 2747 672 2747 
Q 522 2747 420 2851 
Q 319 2956 319 3097 
Q 319 3338 409 3548 
Q 500 3759 670 3923 
Q 841 4088 1055 4175 
Q 1269 4263 1509 4263 
Q 1875 4263 2190 4108 
Q 2506 3953 2690 3670 
Q 2875 3388 2875 3009 
Q 2875 2731 2753 2481 
Q 2631 2231 2440 2026 
Q 2250 1822 1953 1562 
Q 1656 1303 1563 1216 
L 838 519 
L 1453 519 
Q 1906 519 2211 526 
Q 2516 534 2534 550 
Q 2609 631 2688 1141 
L 2875 1141 
L 2694 0 
L 319 0 
z
" transform="scale(0.015625)"/>
      <path id="DejaVuSerif-77" d="M 3072 3322 
L 3922 728 
L 4672 2988 
L 4191 2988 
L 4191 3322 
L 5394 3322 
L 5394 2988 
L 5025 2988 
L 4038 0 
L 3559 0 
L 2741 2484 
L 1919 0 
L 1459 0 
L 475 2988 
L 103 2988 
L 103 3322 
L 1606 3322 
L 1606 2988 
L 1069 2988 
L 1813 728 
L 2669 3322 
L 3072 3322 
z
" transform="scale(0.015625)"/>
      <path id="DejaVuSerif-68" d="M 263 0 
L 263 331 
L 781 331 
L 781 4531 
L 231 4531 
L 231 4863 
L 1356 4863 
L 1356 2731 
Q 1516 3069 1770 3241 
Q 2025 3413 2363 3413 
Q 2913 3413 3172 3097 
Q 3431 2781 3431 2113 
L 3431 331 
L 3944 331 
L 3944 0 
L 2356 0 
L 2356 331 
L 2853 331 
L 2853 1931 
Q 2853 2541 2704 2764 
Q 2556 2988 2175 2988 
Q 1775 2988 1565 2697 
Q 1356 2406 1356 1850 
L 1356 331 
L 1856 331 
L 1856 0 
L 263 0 
z
" transform="scale(0.015625)"/>
      <path id="DejaVuSerif-63" d="M 3291 997 
Q 3169 466 2822 187 
Q 2475 -91 1925 -91 
Q 1200 -91 759 389 
Q 319 869 319 1663 
Q 319 2459 759 2936 
Q 1200 3413 1925 3413 
Q 2241 3413 2553 3339 
Q 2866 3266 3181 3116 
L 3181 2266 
L 2847 2266 
Q 2781 2703 2561 2903 
Q 2341 3103 1931 3103 
Q 1466 3103 1228 2742 
Q 991 2381 991 1663 
Q 991 944 1227 581 
Q 1463 219 1931 219 
Q 2303 219 2525 412 
Q 2747 606 2828 997 
L 3291 997 
z
" transform="scale(0.015625)"/>
      <path id="DejaVuSerif-74" d="M 691 2988 
L 184 2988 
L 184 3322 
L 691 3322 
L 691 4353 
L 1269 4353 
L 1269 3322 
L 2350 3322 
L 2350 2988 
L 1269 2988 
L 1269 878 
Q 1269 456 1350 337 
Q 1431 219 1650 219 
Q 1875 219 1978 351 
Q 2081 484 2088 781 
L 2522 781 
Q 2497 328 2275 118 
Q 2053 -91 1600 -91 
Q 1103 -91 897 129 
Q 691 350 691 878 
L 691 2988 
z
" transform="scale(0.015625)"/>
      <path id="DejaVuSerif-78" d="M 1863 2028 
L 2559 2988 
L 2113 2988 
L 2113 3322 
L 3391 3322 
L 3391 2988 
L 2950 2988 
L 2059 1759 
L 3097 331 
L 3531 331 
L 3531 0 
L 1997 0 
L 1997 331 
L 2419 331 
L 1697 1325 
L 972 331 
L 1403 331 
L 1403 0 
L 141 0 
L 141 331 
L 581 331 
L 1497 1594 
L 488 2988 
L 78 2988 
L 78 3322 
L 1563 3322 
L 1563 2988 
L 1166 2988 
L 1863 2028 
z
" transform="scale(0.015625)"/>
      <path id="DejaVuSerif-75" d="M 2266 3322 
L 3341 3322 
L 3341 331 
L 3884 331 
L 3884 0 
L 2766 0 
L 2766 588 
Q 2606 256 2353 82 
Q 2100 -91 1766 -91 
Q 1213 -91 952 223 
Q 691 538 691 1209 
L 691 2988 
L 172 2988 
L 172 3322 
L 1269 3322 
L 1269 1388 
Q 1269 781 1417 556 
Q 1566 331 1947 331 
Q 2347 331 2556 625 
Q 2766 919 2766 1478 
L 2766 2988 
L 2266 2988 
L 2266 3322 
z
" transform="scale(0.015625)"/>
      <path id="DejaVuSerif-62" d="M 738 331 
L 738 4531 
L 184 4531 
L 184 4863 
L 1313 4863 
L 1313 2803 
Q 1481 3116 1742 3264 
Q 2003 3413 2388 3413 
Q 3000 3413 3387 2928 
Q 3775 2444 3775 1663 
Q 3775 881 3387 395 
Q 3000 -91 2388 -91 
Q 2003 -91 1742 57 
Q 1481 206 1313 519 
L 1313 0 
L 184 0 
L 184 331 
L 738 331 
z
M 1313 1497 
Q 1313 897 1542 583 
Q 1772 269 2209 269 
Q 2650 269 2876 622 
Q 3103 975 3103 1663 
Q 3103 2353 2876 2703 
Q 2650 3053 2209 3053 
Q 1772 3053 1542 2737 
Q 1313 2422 1313 1825 
L 1313 1497 
z
" transform="scale(0.015625)"/>
      <path id="Cmmi10-72" d="M 494 109 
Q 494 147 500 166 
L 978 2075 
Q 1025 2253 1025 2388 
Q 1025 2663 838 2663 
Q 638 2663 541 2423 
Q 444 2184 353 1819 
Q 353 1800 334 1789 
Q 316 1778 300 1778 
L 225 1778 
Q 203 1778 187 1801 
Q 172 1825 172 1844 
Q 241 2122 305 2315 
Q 369 2509 505 2668 
Q 641 2828 844 2828 
Q 1066 2828 1233 2700 
Q 1400 2572 1441 2363 
Q 1603 2575 1811 2701 
Q 2019 2828 2266 2828 
Q 2469 2828 2623 2709 
Q 2778 2591 2778 2388 
Q 2778 2225 2676 2104 
Q 2575 1984 2406 1984 
Q 2303 1984 2233 2048 
Q 2163 2113 2163 2216 
Q 2163 2356 2266 2467 
Q 2369 2578 2503 2578 
Q 2400 2663 2253 2663 
Q 1978 2663 1775 2467 
Q 1572 2272 1409 1972 
L 953 141 
Q 931 53 854 -9 
Q 778 -72 684 -72 
Q 606 -72 550 -22 
Q 494 28 494 109 
z
" transform="scale(0.015625)"/>
      <path id="Cmr10-31" d="M 594 0 
L 594 225 
Q 1394 225 1394 428 
L 1394 3788 
Q 1063 3628 556 3628 
L 556 3853 
Q 1341 3853 1741 4263 
L 1831 4263 
Q 1853 4263 1873 4245 
Q 1894 4228 1894 4206 
L 1894 428 
Q 1894 225 2694 225 
L 2694 0 
L 594 0 
z
" transform="scale(0.015625)"/>
      <path id="Cmmi10-3c" d="M 594 1491 
Q 531 1519 531 1600 
Q 531 1681 616 1722 
L 4269 3444 
Q 4294 3456 4313 3456 
Q 4369 3456 4405 3417 
Q 4441 3378 4441 3328 
Q 4441 3250 4366 3206 
L 959 1600 
L 4384 -19 
Q 4441 -38 4441 -128 
Q 4441 -178 4405 -217 
Q 4369 -256 4313 -256 
Q 4294 -256 4269 -244 
L 594 1491 
z
" transform="scale(0.015625)"/>
      <path id="STIXGeneral-Regular-22ef" d="M 5235 1619 
Q 5235 1453 5123 1331 
Q 5011 1210 4832 1210 
Q 4646 1210 4534 1322 
Q 4422 1434 4422 1619 
Q 4422 1792 4547 1907 
Q 4672 2022 4832 2022 
Q 4992 2022 5113 1907 
Q 5235 1792 5235 1619 
z
M 3366 1619 
Q 3366 1453 3254 1331 
Q 3142 1210 2963 1210 
Q 2778 1210 2666 1322 
Q 2554 1434 2554 1619 
Q 2554 1792 2678 1907 
Q 2803 2022 2963 2022 
Q 3123 2022 3244 1907 
Q 3366 1792 3366 1619 
z
M 1504 1619 
Q 1504 1453 1392 1331 
Q 1280 1210 1101 1210 
Q 915 1210 803 1322 
Q 691 1434 691 1619 
Q 691 1792 816 1907 
Q 941 2022 1101 2022 
Q 1261 2022 1382 1907 
Q 1504 1792 1504 1619 
z
" transform="scale(0.015625)"/>
     </defs>
     <use xlink:href="#DejaVuSerif-46" transform="translate(0 0.015625)"/>
     <use xlink:href="#DejaVuSerif-69" transform="translate(69.384766 0.015625)"/>
     <use xlink:href="#DejaVuSerif-6e" transform="translate(101.367188 0.015625)"/>
     <use xlink:href="#DejaVuSerif-64" transform="translate(165.771484 0.015625)"/>
     <use xlink:href="#DejaVuSerif-20" transform="translate(229.785156 0.015625)"/>
     <use xlink:href="#DejaVuSerif-61" transform="translate(261.572266 0.015625)"/>
     <use xlink:href="#DejaVuSerif-6c" transform="translate(321.191406 0.015625)"/>
     <use xlink:href="#DejaVuSerif-6c" transform="translate(353.173828 0.015625)"/>
     <use xlink:href="#DejaVuSerif-20" transform="translate(385.15625 0.015625)"/>
     <use xlink:href="#DejaVuSerif-72" transform="translate(416.943359 0.015625)"/>
     <use xlink:href="#DejaVuSerif-65" transform="translate(464.746094 0.015625)"/>
     <use xlink:href="#DejaVuSerif-61" transform="translate(523.925781 0.015625)"/>
     <use xlink:href="#DejaVuSerif-6c" transform="translate(583.544922 0.015625)"/>
     <use xlink:href="#DejaVuSerif-20" transform="translate(615.527344 0.015625)"/>
     <use xlink:href="#DejaVuSerif-70" transform="translate(647.314453 0.015625)"/>
     <use xlink:href="#DejaVuSerif-6f" transform="translate(711.328125 0.015625)"/>
     <use xlink:href="#DejaVuSerif-6c" transform="translate(771.533203 0.015625)"/>
     <use xlink:href="#DejaVuSerif-79" transform="translate(803.515625 0.015625)"/>
     <use xlink:href="#DejaVuSerif-6e" transform="translate(860.009766 0.015625)"/>
     <use xlink:href="#DejaVuSerif-6f" transform="translate(924.414062 0.015625)"/>
     <use xlink:href="#DejaVuSerif-6d" transform="translate(984.619141 0.015625)"/>
     <use xlink:href="#DejaVuSerif-69" transform="translate(1079.443359 0.015625)"/>
     <use xlink:href="#DejaVuSerif-61" transform="translate(1111.425781 0.015625)"/>
     <use xlink:href="#DejaVuSerif-6c" transform="translate(1171.044922 0.015625)"/>
     <use xlink:href="#DejaVuSerif-73" transform="translate(1203.027344 0.015625)"/>
     <use xlink:href="#DejaVuSerif-20" transform="translate(1254.345703 0.015625)"/>
     <use xlink:href="#Cmmi10-70" transform="translate(1286.132812 0.015625)"/>
     <use xlink:href="#Cmr10-28" transform="translate(1336.425781 0.015625)"/>
     <use xlink:href="#Cmmi10-78" transform="translate(1375.244141 0.015625)"/>
     <use xlink:href="#Cmr10-29" transform="translate(1432.324219 0.015625)"/>
     <use xlink:href="#DejaVuSerif-20" transform="translate(1471.142578 0.015625)"/>
     <use xlink:href="#DejaVuSerif-6f" transform="translate(1502.929688 0.015625)"/>
     <use xlink:href="#DejaVuSerif-66" transform="translate(1563.134766 0.015625)"/>
     <use xlink:href="#DejaVuSerif-20" transform="translate(1600.146484 0.015625)"/>
     <use xlink:href="#DejaVuSerif-64" transform="translate(1631.933594 0.015625)"/>
     <use xlink:href="#DejaVuSerif-65" transform="translate(1695.947266 0.015625)"/>
     <use xlink:href="#DejaVuSerif-67" transform="translate(1755.126953 0.015625)"/>
     <use xlink:href="#DejaVuSerif-72" transform="translate(1819.140625 0.015625)"/>
     <use xlink:href="#DejaVuSerif-65" transform="translate(1866.943359 0.015625)"/>
     <use xlink:href="#DejaVuSerif-65" transform="translate(1926.123047 0.015625)"/>
     <use xlink:href="#DejaVuSerif-20" transform="translate(1985.302734 0.015625)"/>
     <use xlink:href="#Cmmi10-6e" transform="translate(2017.089844 0.015625)"/>
     <use xlink:href="#STIXGeneral-Regular-2267" transform="translate(2094.658203 0.015625)"/>
     <use xlink:href="#Cmr10-32" transform="translate(2180.716782 0.015625)"/>
     <use xlink:href="#DejaVuSerif-20" transform="translate(2230.716782 0.015625)"/>
     <use xlink:href="#DejaVuSerif-66" transform="translate(2262.503891 0.015625)"/>
     <use xlink:href="#DejaVuSerif-6f" transform="translate(2299.51561 0.015625)"/>
     <use xlink:href="#DejaVuSerif-72" transform="translate(2359.720688 0.015625)"/>
     <use xlink:href="#DejaVuSerif-20" transform="translate(2407.523422 0.015625)"/>
     <use xlink:href="#DejaVuSerif-77" transform="translate(2439.310532 0.015625)"/>
     <use xlink:href="#DejaVuSerif-68" transform="translate(2524.906235 0.015625)"/>
     <use xlink:href="#DejaVuSerif-69" transform="translate(2589.310532 0.015625)"/>
     <use xlink:href="#DejaVuSerif-63" transform="translate(2621.292953 0.015625)"/>
     <use xlink:href="#DejaVuSerif-68" transform="translate(2677.298813 0.015625)"/>
     <use xlink:href="#DejaVuSerif-20" transform="translate(2741.70311 0.015625)"/>
     <use xlink:href="#DejaVuSerif-74" transform="translate(2773.490219 0.015625)"/>
     <use xlink:href="#DejaVuSerif-68" transform="translate(2813.675766 0.015625)"/>
     <use xlink:href="#DejaVuSerif-65" transform="translate(2878.080063 0.015625)"/>
     <use xlink:href="#DejaVuSerif-72" transform="translate(2937.25975 0.015625)"/>
     <use xlink:href="#DejaVuSerif-65" transform="translate(2985.062485 0.015625)"/>
     <use xlink:href="#DejaVuSerif-20" transform="translate(3044.242172 0.015625)"/>
     <use xlink:href="#DejaVuSerif-65" transform="translate(3076.029282 0.015625)"/>
     <use xlink:href="#DejaVuSerif-78" transform="translate(3135.208969 0.015625)"/>
     <use xlink:href="#DejaVuSerif-69" transform="translate(3191.605453 0.015625)"/>
     <use xlink:href="#DejaVuSerif-73" transform="translate(3223.587875 0.015625)"/>
     <use xlink:href="#DejaVuSerif-74" transform="translate(3274.906235 0.015625)"/>
     <use xlink:href="#DejaVuSerif-20" transform="translate(3315.091782 0.015625)"/>
     <use xlink:href="#DejaVuSerif-72" transform="translate(3346.878891 0.015625)"/>
     <use xlink:href="#DejaVuSerif-65" transform="translate(3394.681625 0.015625)"/>
     <use xlink:href="#DejaVuSerif-61" transform="translate(3453.861313 0.015625)"/>
     <use xlink:href="#DejaVuSerif-6c" transform="translate(3513.480453 0.015625)"/>
     <use xlink:href="#DejaVuSerif-20" transform="translate(3545.462875 0.015625)"/>
     <use xlink:href="#DejaVuSerif-6e" transform="translate(3577.249985 0.015625)"/>
     <use xlink:href="#DejaVuSerif-75" transform="translate(3641.654282 0.015625)"/>
     <use xlink:href="#DejaVuSerif-6d" transform="translate(3706.058578 0.015625)"/>
     <use xlink:href="#DejaVuSerif-62" transform="translate(3800.882797 0.015625)"/>
     <use xlink:href="#DejaVuSerif-65" transform="translate(3864.896469 0.015625)"/>
     <use xlink:href="#DejaVuSerif-72" transform="translate(3924.076157 0.015625)"/>
     <use xlink:href="#DejaVuSerif-73" transform="translate(3971.878891 0.015625)"/>
     <use xlink:href="#DejaVuSerif-20" transform="translate(4023.19725 0.015625)"/>
     <use xlink:href="#Cmmi10-72" transform="translate(4054.98436 0.015625)"/>
     <use xlink:href="#Cmr10-31" transform="translate(4100.101547 -16.990625) scale(0.7)"/>
     <use xlink:href="#Cmmi10-3c" transform="translate(4159.037485 0.015625)"/>
     <use xlink:href="#Cmmi10-72" transform="translate(4254.281625 0.015625)"/>
     <use xlink:href="#Cmr10-32" transform="translate(4299.398813 -16.990625) scale(0.7)"/>
     <use xlink:href="#Cmmi10-3c" transform="translate(4358.33475 0.015625)"/>
     <use xlink:href="#STIXGeneral-Regular-22ef" transform="translate(4453.578891 0.015625)"/>
     <use xlink:href="#Cmmi10-3c" transform="translate(4563.737476 0.015625)"/>
     <use xlink:href="#Cmmi10-72" transform="translate(4658.981616 0.015625)"/>
     <use xlink:href="#Cmmi10-6e" transform="translate(4704.098804 -16.990625) scale(0.7)"/>
     <use xlink:href="#DejaVuSerif-20" transform="translate(4752.482983 0.015625)"/>
     <use xlink:href="#DejaVuSerif-73" transform="translate(4784.270093 0.015625)"/>
     <use xlink:href="#DejaVuSerif-75" transform="translate(4835.588452 0.015625)"/>
     <use xlink:href="#DejaVuSerif-63" transform="translate(4899.992749 0.015625)"/>
     <use xlink:href="#DejaVuSerif-68" transform="translate(4955.998608 0.015625)"/>
     <use xlink:href="#DejaVuSerif-20" transform="translate(5020.402905 0.015625)"/>
     <use xlink:href="#DejaVuSerif-74" transform="translate(5052.190015 0.015625)"/>
     <use xlink:href="#DejaVuSerif-68" transform="translate(5092.375562 0.015625)"/>
     <use xlink:href="#DejaVuSerif-61" transform="translate(5156.779858 0.015625)"/>
     <use xlink:href="#DejaVuSerif-74" transform="translate(5216.398999 0.015625)"/>
    </g>
    <!-- \begin{enumerate} -->
    <g transform="translate(263.018438 94.291063) scale(0.12 -0.12)">
     <defs>
      <path id="DejaVuSerif-5c" d="M 500 4666 
L 2156 -594 
L 1656 -594 
L 0 4666 
L 500 4666 
z
" transform="scale(0.015625)"/>
      <path id="DejaVuSerif-7b" d="M 3272 -716 
L 3272 -1044 
L 3078 -1044 
Q 2300 -1044 2036 -812 
Q 1772 -581 1772 109 
L 1772 916 
Q 1772 1384 1603 1565 
Q 1434 1747 991 1747 
L 800 1747 
L 800 2075 
L 991 2075 
Q 1434 2075 1603 2256 
Q 1772 2438 1772 2906 
L 1772 3713 
Q 1772 4403 2036 4633 
Q 2300 4863 3078 4863 
L 3272 4863 
L 3272 4538 
L 3059 4538 
Q 2619 4538 2484 4400 
Q 2350 4263 2350 3822 
L 2350 2925 
Q 2350 2431 2194 2218 
Q 2038 2006 1631 1913 
Q 2044 1806 2197 1597 
Q 2350 1388 2350 897 
L 2350 0 
Q 2350 -441 2484 -578 
Q 2619 -716 3059 -716 
L 3272 -716 
z
" transform="scale(0.015625)"/>
      <path id="DejaVuSerif-7d" d="M 800 -716 
L 1019 -716 
Q 1456 -716 1589 -580 
Q 1722 -444 1722 0 
L 1722 897 
Q 1722 1388 1875 1597 
Q 2028 1806 2438 1913 
Q 2031 2006 1876 2218 
Q 1722 2431 1722 2925 
L 1722 3822 
Q 1722 4266 1589 4402 
Q 1456 4538 1019 4538 
L 800 4538 
L 800 4863 
L 997 4863 
Q 1775 4863 2036 4633 
Q 2297 4403 2297 3713 
L 2297 2906 
Q 2297 2438 2465 2256 
Q 2634 2075 3078 2075 
L 3272 2075 
L 3272 1747 
L 3078 1747 
Q 2634 1747 2465 1565 
Q 2297 1384 2297 916 
L 2297 109 
Q 2297 -581 2036 -812 
Q 1775 -1044 997 -1044 
L 800 -1044 
L 800 -716 
z
" transform="scale(0.015625)"/>
     </defs>
     <use xlink:href="#DejaVuSerif-5c"/>
     <use xlink:href="#DejaVuSerif-62" transform="translate(33.691406 0)"/>
     <use xlink:href="#DejaVuSerif-65" transform="translate(97.705078 0)"/>
     <use xlink:href="#DejaVuSerif-67" transform="translate(156.884766 0)"/>
     <use xlink:href="#DejaVuSerif-69" transform="translate(220.898438 0)"/>
     <use xlink:href="#DejaVuSerif-6e" transform="translate(252.880859 0)"/>
     <use xlink:href="#DejaVuSerif-7b" transform="translate(317.285156 0)"/>
     <use xlink:href="#DejaVuSerif-65" transform="translate(380.908203 0)"/>
     <use xlink:href="#DejaVuSerif-6e" transform="translate(440.087891 0)"/>
     <use xlink:href="#DejaVuSerif-75" transform="translate(504.492188 0)"/>
     <use xlink:href="#DejaVuSerif-6d" transform="translate(568.896484 0)"/>
     <use xlink:href="#DejaVuSerif-65" transform="translate(663.720703 0)"/>
     <use xlink:href="#DejaVuSerif-72" transform="translate(722.900391 0)"/>
     <use xlink:href="#DejaVuSerif-61" transform="translate(770.703125 0)"/>
     <use xlink:href="#DejaVuSerif-74" transform="translate(830.322266 0)"/>
     <use xlink:href="#DejaVuSerif-65" transform="translate(870.507812 0)"/>
     <use xlink:href="#DejaVuSerif-7d" transform="translate(929.6875 0)"/>
    </g>
    <!-- \item $p(r_i)=0, \qquad i=1,2,\dots,n$, and -->
    <g transform="translate(220.08 107.901313) scale(0.12 -0.12)">
     <defs>
      <path id="Cmmi10-69" d="M 500 459 
Q 500 578 550 709 
L 1069 2088 
Q 1153 2322 1153 2472 
Q 1153 2663 1013 2663 
Q 759 2663 595 2402 
Q 431 2141 353 1819 
Q 341 1778 300 1778 
L 225 1778 
Q 172 1778 172 1838 
L 172 1856 
Q 275 2238 487 2533 
Q 700 2828 1025 2828 
Q 1253 2828 1411 2678 
Q 1569 2528 1569 2297 
Q 1569 2178 1516 2047 
L 997 672 
Q 909 459 909 288 
Q 909 97 1056 97 
Q 1306 97 1473 364 
Q 1641 631 1709 941 
Q 1722 978 1759 978 
L 1838 978 
Q 1863 978 1878 961 
Q 1894 944 1894 922 
Q 1894 916 1888 903 
Q 1800 541 1583 234 
Q 1366 -72 1044 -72 
Q 819 -72 659 83 
Q 500 238 500 459 
z
M 1222 3878 
Q 1222 4013 1334 4122 
Q 1447 4231 1581 4231 
Q 1691 4231 1761 4164 
Q 1831 4097 1831 3994 
Q 1831 3850 1717 3742 
Q 1603 3634 1466 3634 
Q 1363 3634 1292 3704 
Q 1222 3775 1222 3878 
z
" transform="scale(0.015625)"/>
      <path id="Cmr10-3d" d="M 481 850 
Q 428 850 393 890 
Q 359 931 359 978 
Q 359 1031 393 1068 
Q 428 1106 481 1106 
L 4500 1106 
Q 4547 1106 4581 1068 
Q 4616 1031 4616 978 
Q 4616 931 4581 890 
Q 4547 850 4500 850 
L 481 850 
z
M 481 2094 
Q 428 2094 393 2131 
Q 359 2169 359 2222 
Q 359 2269 393 2309 
Q 428 2350 481 2350 
L 4500 2350 
Q 4547 2350 4581 2309 
Q 4616 2269 4616 2222 
Q 4616 2169 4581 2131 
Q 4547 2094 4500 2094 
L 481 2094 
z
" transform="scale(0.015625)"/>
      <path id="Cmr10-30" d="M 1600 -141 
Q 816 -141 533 504 
Q 250 1150 250 2041 
Q 250 2597 351 3087 
Q 453 3578 754 3920 
Q 1056 4263 1600 4263 
Q 2022 4263 2290 4056 
Q 2559 3850 2700 3523 
Q 2841 3197 2892 2823 
Q 2944 2450 2944 2041 
Q 2944 1491 2842 1011 
Q 2741 531 2444 195 
Q 2147 -141 1600 -141 
z
M 1600 25 
Q 1956 25 2131 390 
Q 2306 756 2347 1200 
Q 2388 1644 2388 2144 
Q 2388 2625 2347 3031 
Q 2306 3438 2132 3767 
Q 1959 4097 1600 4097 
Q 1238 4097 1063 3765 
Q 888 3434 847 3029 
Q 806 2625 806 2144 
Q 806 1788 823 1472 
Q 841 1156 916 820 
Q 991 484 1158 254 
Q 1325 25 1600 25 
z
" transform="scale(0.015625)"/>
      <path id="Cmmi10-3b" d="M 634 -1153 
Q 634 -1125 659 -1100 
Q 891 -878 1019 -587 
Q 1147 -297 1147 25 
L 1147 103 
Q 1044 0 891 0 
Q 744 0 641 103 
Q 538 206 538 353 
Q 538 503 641 603 
Q 744 703 891 703 
Q 1119 703 1216 492 
Q 1313 281 1313 25 
Q 1313 -331 1170 -651 
Q 1028 -972 769 -1228 
Q 744 -1241 728 -1241 
Q 697 -1241 665 -1212 
Q 634 -1184 634 -1153 
z
" transform="scale(0.015625)"/>
      <path id="STIXGeneral-Regular-2026" d="M 5683 275 
Q 5683 134 5577 32 
Q 5472 -70 5325 -70 
Q 5178 -70 5075 32 
Q 4973 134 4973 281 
Q 4973 429 5078 534 
Q 5184 640 5331 640 
Q 5472 640 5577 531 
Q 5683 422 5683 275 
z
M 3552 275 
Q 3552 134 3446 32 
Q 3341 -70 3193 -70 
Q 3046 -70 2944 32 
Q 2842 134 2842 281 
Q 2842 429 2947 534 
Q 3053 640 3200 640 
Q 3341 640 3446 531 
Q 3552 422 3552 275 
z
M 1421 275 
Q 1421 134 1315 32 
Q 1210 -70 1062 -70 
Q 915 -70 812 32 
Q 710 134 710 281 
Q 710 429 816 534 
Q 922 640 1069 640 
Q 1210 640 1315 531 
Q 1421 422 1421 275 
z
" transform="scale(0.015625)"/>
      <path id="DejaVuSerif-2c" d="M 231 -622 
Q 525 -406 662 -114 
Q 800 178 800 594 
L 800 709 
L 1416 709 
Q 1391 175 1164 -208 
Q 938 -591 481 -872 
L 231 -622 
z
" transform="scale(0.015625)"/>
     </defs>
     <use xlink:href="#DejaVuSerif-5c" transform="translate(0 0.015625)"/>
     <use xlink:href="#DejaVuSerif-69" transform="translate(33.691406 0.015625)"/>
     <use xlink:href="#DejaVuSerif-74" transform="translate(65.673828 0.015625)"/>
     <use xlink:href="#DejaVuSerif-65" transform="translate(105.859375 0.015625)"/>
     <use xlink:href="#DejaVuSerif-6d" transform="translate(165.039062 0.015625)"/>
     <use xlink:href="#DejaVuSerif-20" transform="translate(259.863281 0.015625)"/>
     <use xlink:href="#Cmmi10-70" transform="translate(291.650391 0.015625)"/>
     <use xlink:href="#Cmr10-28" transform="translate(341.943359 0.015625)"/>
     <use xlink:href="#Cmmi10-72" transform="translate(380.761719 0.015625)"/>
     <use xlink:href="#Cmmi10-69" transform="translate(425.878906 -16.990625) scale(0.7)"/>
     <use xlink:href="#Cmr10-29" transform="translate(456.35293 0.015625)"/>
     <use xlink:href="#Cmr10-3d" transform="translate(512.729883 0.015625)"/>
     <use xlink:href="#Cmr10-30" transform="translate(607.974023 0.015625)"/>
     <use xlink:href="#Cmmi10-3b" transform="translate(657.974023 0.015625)"/>
     <use xlink:href="#Cmmi10-69" transform="translate(878.804102 0.015625)"/>
     <use xlink:href="#Cmr10-3d" transform="translate(930.786523 0.015625)"/>
     <use xlink:href="#Cmr10-31" transform="translate(1026.030664 0.015625)"/>
     <use xlink:href="#Cmmi10-3b" transform="translate(1076.030664 0.015625)"/>
     <use xlink:href="#Cmr10-32" transform="translate(1121.274805 0.015625)"/>
     <use xlink:href="#Cmmi10-3b" transform="translate(1171.274805 0.015625)"/>
     <use xlink:href="#STIXGeneral-Regular-2026" transform="translate(1234.077539 0.015625)"/>
     <use xlink:href="#Cmmi10-3b" transform="translate(1351.636118 0.015625)"/>
     <use xlink:href="#Cmmi10-6e" transform="translate(1396.880258 0.015625)"/>
     <use xlink:href="#DejaVuSerif-2c" transform="translate(1456.890024 0.015625)"/>
     <use xlink:href="#DejaVuSerif-20" transform="translate(1488.677133 0.015625)"/>
     <use xlink:href="#DejaVuSerif-61" transform="translate(1520.464243 0.015625)"/>
     <use xlink:href="#DejaVuSerif-6e" transform="translate(1580.083383 0.015625)"/>
     <use xlink:href="#DejaVuSerif-64" transform="translate(1644.48768 0.015625)"/>
    </g>
    <!-- \item $p'(\frac{r_i+r_{i+1}}{2})=0 \qquad i=1,2,\dots,n-1$, -->
    <g transform="translate(212.22 124.581313) scale(0.12 -0.12)">
     <defs>
      <path id="Cmsy10-30" d="M 225 347 
Q 184 359 184 409 
L 966 3316 
Q 1003 3434 1093 3506 
Q 1184 3578 1300 3578 
Q 1450 3578 1564 3479 
Q 1678 3381 1678 3231 
Q 1678 3166 1644 3084 
L 488 319 
Q 466 275 428 275 
Q 394 275 320 306 
Q 247 338 225 347 
z
" transform="scale(0.015625)"/>
      <path id="Cmr10-2b" d="M 481 1472 
Q 428 1472 393 1512 
Q 359 1553 359 1600 
Q 359 1647 393 1687 
Q 428 1728 481 1728 
L 2363 1728 
L 2363 3616 
Q 2363 3666 2400 3698 
Q 2438 3731 2491 3731 
Q 2538 3731 2578 3698 
Q 2619 3666 2619 3616 
L 2619 1728 
L 4500 1728 
Q 4547 1728 4581 1687 
Q 4616 1647 4616 1600 
Q 4616 1553 4581 1512 
Q 4547 1472 4500 1472 
L 2619 1472 
L 2619 -416 
Q 2619 -466 2578 -498 
Q 2538 -531 2491 -531 
Q 2438 -531 2400 -498 
Q 2363 -466 2363 -416 
L 2363 1472 
L 481 1472 
z
" transform="scale(0.015625)"/>
      <path id="Cmsy10-a1" d="M 653 1472 
Q 600 1472 565 1512 
Q 531 1553 531 1600 
Q 531 1647 565 1687 
Q 600 1728 653 1728 
L 4325 1728 
Q 4375 1728 4408 1687 
Q 4441 1647 4441 1600 
Q 4441 1553 4408 1512 
Q 4375 1472 4325 1472 
L 653 1472 
z
" transform="scale(0.015625)"/>
     </defs>
     <use xlink:href="#DejaVuSerif-5c" transform="translate(0 0.722344)"/>
     <use xlink:href="#DejaVuSerif-69" transform="translate(33.691406 0.722344)"/>
     <use xlink:href="#DejaVuSerif-74" transform="translate(65.673828 0.722344)"/>
     <use xlink:href="#DejaVuSerif-65" transform="translate(105.859375 0.722344)"/>
     <use xlink:href="#DejaVuSerif-6d" transform="translate(165.039062 0.722344)"/>
     <use xlink:href="#DejaVuSerif-20" transform="translate(259.863281 0.722344)"/>
     <use xlink:href="#Cmmi10-70" transform="translate(291.650391 0.722344)"/>
     <use xlink:href="#Cmsy10-30" transform="translate(348.246641 38.986406) scale(0.7)"/>
     <use xlink:href="#Cmr10-28" transform="translate(373.867148 0.722344)"/>
     <use xlink:href="#Cmmi10-72" transform="translate(412.685508 54.192188) scale(0.7)"/>
     <use xlink:href="#Cmmi10-69" transform="translate(444.267539 42.287813) scale(0.49)"/>
     <use xlink:href="#Cmr10-2b" transform="translate(477.890371 54.192188) scale(0.7)"/>
     <use xlink:href="#Cmmi10-72" transform="translate(544.56127 54.192188) scale(0.7)"/>
     <use xlink:href="#Cmmi10-69" transform="translate(576.143301 42.287813) scale(0.49)"/>
     <use xlink:href="#Cmr10-2b" transform="translate(601.614687 42.287813) scale(0.49)"/>
     <use xlink:href="#Cmr10-31" transform="translate(648.284316 42.287813) scale(0.49)"/>
     <use xlink:href="#Cmr10-32" transform="translate(527.685508 -39.654219) scale(0.7)"/>
     <use xlink:href="#Cmr10-29" transform="translate(689.748457 0.722344)"/>
     <use xlink:href="#Cmr10-3d" transform="translate(746.12541 0.722344)"/>
     <use xlink:href="#Cmr10-30" transform="translate(841.369551 0.722344)"/>
     <use xlink:href="#Cmmi10-69" transform="translate(1066.955488 0.722344)"/>
     <use xlink:href="#Cmr10-3d" transform="translate(1118.93791 0.722344)"/>
     <use xlink:href="#Cmr10-31" transform="translate(1214.182051 0.722344)"/>
     <use xlink:href="#Cmmi10-3b" transform="translate(1264.182051 0.722344)"/>
     <use xlink:href="#Cmr10-32" transform="translate(1309.426191 0.722344)"/>
     <use xlink:href="#Cmmi10-3b" transform="translate(1359.426191 0.722344)"/>
     <use xlink:href="#STIXGeneral-Regular-2026" transform="translate(1422.228926 0.722344)"/>
     <use xlink:href="#Cmmi10-3b" transform="translate(1539.787504 0.722344)"/>
     <use xlink:href="#Cmmi10-6e" transform="translate(1585.031645 0.722344)"/>
     <use xlink:href="#Cmsy10-a1" transform="translate(1662.600004 0.722344)"/>
     <use xlink:href="#Cmr10-31" transform="translate(1757.844145 0.722344)"/>
     <use xlink:href="#DejaVuSerif-2c" transform="translate(1807.844145 0.722344)"/>
     <path d="M 412.685508 13.222344 
L 412.685508 19.472344 
L 677.248457 19.472344 
L 677.248457 13.222344 
L 412.685508 13.222344 
z
"/>
    </g>
    <!-- \end{enumerate} -->
    <g transform="translate(268.778437 140.443063) scale(0.12 -0.12)">
     <use xlink:href="#DejaVuSerif-5c"/>
     <use xlink:href="#DejaVuSerif-65" transform="translate(33.691406 0)"/>
     <use xlink:href="#DejaVuSerif-6e" transform="translate(92.871094 0)"/>
     <use xlink:href="#DejaVuSerif-64" transform="translate(157.275391 0)"/>
     <use xlink:href="#DejaVuSerif-7b" transform="translate(221.289062 0)"/>
     <use xlink:href="#DejaVuSerif-65" transform="translate(284.912109 0)"/>
     <use xlink:href="#DejaVuSerif-6e" transform="translate(344.091797 0)"/>
     <use xlink:href="#DejaVuSerif-75" transform="translate(408.496094 0)"/>
     <use xlink:href="#DejaVuSerif-6d" transform="translate(472.900391 0)"/>
     <use xlink:href="#DejaVuSerif-65" transform="translate(567.724609 0)"/>
     <use xlink:href="#DejaVuSerif-72" transform="translate(626.904297 0)"/>
     <use xlink:href="#DejaVuSerif-61" transform="translate(674.707031 0)"/>
     <use xlink:href="#DejaVuSerif-74" transform="translate(734.326172 0)"/>
     <use xlink:href="#DejaVuSerif-65" transform="translate(774.511719 0)"/>
     <use xlink:href="#DejaVuSerif-7d" transform="translate(833.691406 0)"/>
    </g>
    <!-- where $p'(x)$ denotes the derivative of $p(x)$. -->
    <g transform="translate(196.14 154.170688) scale(0.12 -0.12)">
     <defs>
      <path id="DejaVuSerif-76" d="M 1581 0 
L 359 2988 
L -19 2988 
L -19 3322 
L 1509 3322 
L 1509 2988 
L 978 2988 
L 1913 703 
L 2847 2988 
L 2350 2988 
L 2350 3322 
L 3597 3322 
L 3597 2988 
L 3225 2988 
L 2003 0 
L 1581 0 
z
" transform="scale(0.015625)"/>
      <path id="DejaVuSerif-2e" d="M 603 325 
Q 603 500 722 622 
Q 841 744 1019 744 
Q 1191 744 1312 622 
Q 1434 500 1434 325 
Q 1434 153 1312 31 
Q 1191 -91 1019 -91 
Q 841 -91 722 29 
Q 603 150 603 325 
z
" transform="scale(0.015625)"/>
     </defs>
     <use xlink:href="#DejaVuSerif-77" transform="translate(0 0.601562)"/>
     <use xlink:href="#DejaVuSerif-68" transform="translate(85.595703 0.601562)"/>
     <use xlink:href="#DejaVuSerif-65" transform="translate(150 0.601562)"/>
     <use xlink:href="#DejaVuSerif-72" transform="translate(209.179688 0.601562)"/>
     <use xlink:href="#DejaVuSerif-65" transform="translate(256.982422 0.601562)"/>
     <use xlink:href="#DejaVuSerif-20" transform="translate(316.162109 0.601562)"/>
     <use xlink:href="#Cmmi10-70" transform="translate(347.949219 0.601562)"/>
     <use xlink:href="#Cmsy10-30" transform="translate(404.545469 38.865625) scale(0.7)"/>
     <use xlink:href="#Cmr10-28" transform="translate(430.165977 0.601562)"/>
     <use xlink:href="#Cmmi10-78" transform="translate(468.984336 0.601562)"/>
     <use xlink:href="#Cmr10-29" transform="translate(526.064414 0.601562)"/>
     <use xlink:href="#DejaVuSerif-20" transform="translate(564.882773 0.601562)"/>
     <use xlink:href="#DejaVuSerif-64" transform="translate(596.669883 0.601562)"/>
     <use xlink:href="#DejaVuSerif-65" transform="translate(660.683555 0.601562)"/>
     <use xlink:href="#DejaVuSerif-6e" transform="translate(719.863242 0.601562)"/>
     <use xlink:href="#DejaVuSerif-6f" transform="translate(784.267539 0.601562)"/>
     <use xlink:href="#DejaVuSerif-74" transform="translate(844.472617 0.601562)"/>
     <use xlink:href="#DejaVuSerif-65" transform="translate(884.658164 0.601562)"/>
     <use xlink:href="#DejaVuSerif-73" transform="translate(943.837852 0.601562)"/>
     <use xlink:href="#DejaVuSerif-20" transform="translate(995.156211 0.601562)"/>
     <use xlink:href="#DejaVuSerif-74" transform="translate(1026.94332 0.601562)"/>
     <use xlink:href="#DejaVuSerif-68" transform="translate(1067.128867 0.601562)"/>
     <use xlink:href="#DejaVuSerif-65" transform="translate(1131.533164 0.601562)"/>
     <use xlink:href="#DejaVuSerif-20" transform="translate(1190.712852 0.601562)"/>
     <use xlink:href="#DejaVuSerif-64" transform="translate(1222.499961 0.601562)"/>
     <use xlink:href="#DejaVuSerif-65" transform="translate(1286.513633 0.601562)"/>
     <use xlink:href="#DejaVuSerif-72" transform="translate(1345.69332 0.601562)"/>
     <use xlink:href="#DejaVuSerif-69" transform="translate(1393.496055 0.601562)"/>
     <use xlink:href="#DejaVuSerif-76" transform="translate(1425.478477 0.601562)"/>
     <use xlink:href="#DejaVuSerif-61" transform="translate(1481.972617 0.601562)"/>
     <use xlink:href="#DejaVuSerif-74" transform="translate(1541.591758 0.601562)"/>
     <use xlink:href="#DejaVuSerif-69" transform="translate(1581.777305 0.601562)"/>
     <use xlink:href="#DejaVuSerif-76" transform="translate(1613.759727 0.601562)"/>
     <use xlink:href="#DejaVuSerif-65" transform="translate(1670.253867 0.601562)"/>
     <use xlink:href="#DejaVuSerif-20" transform="translate(1729.433555 0.601562)"/>
     <use xlink:href="#DejaVuSerif-6f" transform="translate(1761.220664 0.601562)"/>
     <use xlink:href="#DejaVuSerif-66" transform="translate(1821.425742 0.601562)"/>
     <use xlink:href="#DejaVuSerif-20" transform="translate(1858.437461 0.601562)"/>
     <use xlink:href="#Cmmi10-70" transform="translate(1890.22457 0.601562)"/>
     <use xlink:href="#Cmr10-28" transform="translate(1940.517539 0.601562)"/>
     <use xlink:href="#Cmmi10-78" transform="translate(1979.335898 0.601562)"/>
     <use xlink:href="#Cmr10-29" transform="translate(2036.415977 0.601562)"/>
     <use xlink:href="#DejaVuSerif-2e" transform="translate(2075.234336 0.601562)"/>
    </g>
   </g>
  </g>
 </g>
</svg>
