<?xml version="1.0" encoding="utf-8" standalone="no"?>
<!DOCTYPE svg PUBLIC "-//W3C//DTD SVG 1.1//EN"
  "http://www.w3.org/Graphics/SVG/1.1/DTD/svg11.dtd">
<svg xmlns:xlink="http://www.w3.org/1999/xlink" width="2338.32pt" height="180.72pt" viewBox="0 0 2338.32 180.72" xmlns="http://www.w3.org/2000/svg" version="1.1">
 <metadata>
  <rdf:RDF xmlns:dc="http://purl.org/dc/elements/1.1/" xmlns:cc="http://creativecommons.org/ns#" xmlns:rdf="http://www.w3.org/1999/02/22-rdf-syntax-ns#">
   <cc:Work>
    <dc:type rdf:resource="http://purl.org/dc/dcmitype/StillImage"/>
    <dc:date>2025-05-29T18:43:46.099183</dc:date>
    <dc:format>image/svg+xml</dc:format>
    <dc:creator>
     <cc:Agent>
      <dc:title>Matplotlib v3.10.3, https://matplotlib.org/</dc:title>
     </cc:Agent>
    </dc:creator>
   </cc:Work>
  </rdf:RDF>
 </metadata>
 <defs>
  <style type="text/css">*{stroke-linejoin: round; stroke-linecap: butt}</style>
 </defs>
 <g id="figure_1">
  <g id="patch_1">
   <path d="M -0 180.72 
L 2338.32 180.72 
L 2338.32 0 
L -0 0 
z
" style="fill: #ffffff"/>
  </g>
  <g id="axes_1">
   <g id="text_1">
    <!-- Let $G$ be a group generated by two elements $A$ and $B$; i.e., every element of $G$ can be expressed as a finite word $A^{n_1}B^{n_2} \cdots A^{n_{k-1}}B^{n_k}$, where the $n_i$ can assume any integer values and $A^0 = B^0 = 1$. Further assume that $A^4 = B^7 = ABA^{-1}B = 1$, but $A^2 \ne 1$ and $B \ne 1$. Find the number of elements of $G$ than can be written as $C^2$ for some $C \in G$ and express each such square as a word in $A$ and $B$. -->
    <g transform="translate(7.2 94.14) scale(0.12 -0.12)">
     <defs>
      <path id="DejaVuSerif-4c" d="M 353 0 
L 353 331 
L 947 331 
L 947 4331 
L 353 4331 
L 353 4666 
L 2175 4666 
L 2175 4331 
L 1581 4331 
L 1581 384 
L 3713 384 
L 3713 1166 
L 4097 1166 
L 4097 0 
L 353 0 
z
" transform="scale(0.015625)"/>
      <path id="DejaVuSerif-65" d="M 3469 1600 
L 991 1600 
L 991 1575 
Q 991 903 1244 561 
Q 1497 219 1991 219 
Q 2369 219 2611 417 
Q 2853 616 2950 1006 
L 3413 1006 
Q 3275 459 2904 184 
Q 2534 -91 1931 -91 
Q 1203 -91 761 389 
Q 319 869 319 1663 
Q 319 2450 753 2931 
Q 1188 3413 1894 3413 
Q 2647 3413 3050 2948 
Q 3453 2484 3469 1600 
z
M 2791 1931 
Q 2772 2513 2545 2808 
Q 2319 3103 1894 3103 
Q 1497 3103 1269 2806 
Q 1041 2509 991 1931 
L 2791 1931 
z
" transform="scale(0.015625)"/>
      <path id="DejaVuSerif-74" d="M 691 2988 
L 184 2988 
L 184 3322 
L 691 3322 
L 691 4353 
L 1269 4353 
L 1269 3322 
L 2350 3322 
L 2350 2988 
L 1269 2988 
L 1269 878 
Q 1269 456 1350 337 
Q 1431 219 1650 219 
Q 1875 219 1978 351 
Q 2081 484 2088 781 
L 2522 781 
Q 2497 328 2275 118 
Q 2053 -91 1600 -91 
Q 1103 -91 897 129 
Q 691 350 691 878 
L 691 2988 
z
" transform="scale(0.015625)"/>
      <path id="DejaVuSerif-20" transform="scale(0.015625)"/>
      <path id="Cmmi10-47" d="M 934 1403 
Q 934 1006 1092 707 
Q 1250 409 1547 246 
Q 1844 84 2234 84 
Q 2616 84 2959 264 
Q 3303 444 3391 781 
L 3531 1331 
Q 3534 1350 3537 1370 
Q 3541 1391 3541 1403 
Q 3541 1469 3500 1478 
Q 3341 1522 2859 1522 
Q 2797 1522 2797 1606 
Q 2816 1684 2831 1715 
Q 2847 1747 2906 1747 
L 4556 1747 
Q 4622 1747 4622 1663 
Q 4619 1647 4609 1609 
Q 4600 1572 4584 1547 
Q 4569 1522 4538 1522 
Q 4325 1522 4226 1487 
Q 4128 1453 4091 1306 
L 3950 756 
L 3769 44 
Q 3759 0 3713 0 
Q 3659 0 3559 144 
Q 3459 288 3419 384 
Q 3197 122 2825 -9 
Q 2453 -141 2059 -141 
Q 1563 -141 1164 84 
Q 766 309 545 709 
Q 325 1109 325 1613 
Q 325 2150 564 2673 
Q 803 3197 1212 3611 
Q 1622 4025 2142 4269 
Q 2663 4513 3194 4513 
Q 3406 4513 3601 4447 
Q 3797 4381 3964 4251 
Q 4131 4122 4238 3950 
L 4744 4500 
Q 4744 4513 4775 4513 
L 4813 4513 
Q 4838 4513 4855 4492 
Q 4872 4472 4872 4447 
L 4434 2719 
Q 4434 2675 4384 2675 
L 4269 2675 
Q 4219 2675 4219 2747 
Q 4244 2888 4244 3078 
Q 4244 3394 4137 3672 
Q 4031 3950 3806 4119 
Q 3581 4288 3256 4288 
Q 2741 4288 2303 4027 
Q 1866 3766 1562 3337 
Q 1259 2909 1096 2396 
Q 934 1884 934 1403 
z
" transform="scale(0.015625)"/>
      <path id="DejaVuSerif-62" d="M 738 331 
L 738 4531 
L 184 4531 
L 184 4863 
L 1313 4863 
L 1313 2803 
Q 1481 3116 1742 3264 
Q 2003 3413 2388 3413 
Q 3000 3413 3387 2928 
Q 3775 2444 3775 1663 
Q 3775 881 3387 395 
Q 3000 -91 2388 -91 
Q 2003 -91 1742 57 
Q 1481 206 1313 519 
L 1313 0 
L 184 0 
L 184 331 
L 738 331 
z
M 1313 1497 
Q 1313 897 1542 583 
Q 1772 269 2209 269 
Q 2650 269 2876 622 
Q 3103 975 3103 1663 
Q 3103 2353 2876 2703 
Q 2650 3053 2209 3053 
Q 1772 3053 1542 2737 
Q 1313 2422 1313 1825 
L 1313 1497 
z
" transform="scale(0.015625)"/>
      <path id="DejaVuSerif-61" d="M 2547 1044 
L 2547 1747 
L 1806 1747 
Q 1378 1747 1168 1562 
Q 959 1378 959 997 
Q 959 650 1171 447 
Q 1384 244 1747 244 
Q 2106 244 2326 466 
Q 2547 688 2547 1044 
z
M 3122 2075 
L 3122 331 
L 3634 331 
L 3634 0 
L 2547 0 
L 2547 359 
Q 2356 128 2106 18 
Q 1856 -91 1522 -91 
Q 969 -91 644 203 
Q 319 497 319 997 
Q 319 1513 691 1797 
Q 1063 2081 1741 2081 
L 2547 2081 
L 2547 2309 
Q 2547 2688 2317 2895 
Q 2088 3103 1672 3103 
Q 1328 3103 1125 2947 
Q 922 2791 872 2484 
L 575 2484 
L 575 3156 
Q 875 3284 1158 3348 
Q 1441 3413 1709 3413 
Q 2400 3413 2761 3070 
Q 3122 2728 3122 2075 
z
" transform="scale(0.015625)"/>
      <path id="DejaVuSerif-67" d="M 3359 2988 
L 3359 72 
Q 3359 -644 2965 -1033 
Q 2572 -1422 1844 -1422 
Q 1516 -1422 1216 -1362 
Q 916 -1303 641 -1184 
L 641 -488 
L 941 -488 
Q 997 -813 1206 -963 
Q 1416 -1113 1806 -1113 
Q 2313 -1113 2548 -827 
Q 2784 -541 2784 72 
L 2784 519 
Q 2616 206 2355 57 
Q 2094 -91 1709 -91 
Q 1097 -91 708 395 
Q 319 881 319 1663 
Q 319 2444 706 2928 
Q 1094 3413 1709 3413 
Q 2094 3413 2355 3264 
Q 2616 3116 2784 2803 
L 2784 3322 
L 3909 3322 
L 3909 2988 
L 3359 2988 
z
M 2784 1825 
Q 2784 2422 2554 2737 
Q 2325 3053 1888 3053 
Q 1444 3053 1217 2703 
Q 991 2353 991 1663 
Q 991 975 1217 622 
Q 1444 269 1888 269 
Q 2325 269 2554 583 
Q 2784 897 2784 1497 
L 2784 1825 
z
" transform="scale(0.015625)"/>
      <path id="DejaVuSerif-72" d="M 3059 3328 
L 3059 2497 
L 2728 2497 
Q 2713 2744 2591 2866 
Q 2469 2988 2234 2988 
Q 1809 2988 1582 2694 
Q 1356 2400 1356 1850 
L 1356 331 
L 2022 331 
L 2022 0 
L 263 0 
L 263 331 
L 781 331 
L 781 2994 
L 231 2994 
L 231 3322 
L 1356 3322 
L 1356 2731 
Q 1525 3078 1790 3245 
Q 2056 3413 2438 3413 
Q 2578 3413 2733 3391 
Q 2888 3369 3059 3328 
z
" transform="scale(0.015625)"/>
      <path id="DejaVuSerif-6f" d="M 1925 219 
Q 2388 219 2623 584 
Q 2859 950 2859 1663 
Q 2859 2375 2623 2739 
Q 2388 3103 1925 3103 
Q 1463 3103 1227 2739 
Q 991 2375 991 1663 
Q 991 950 1228 584 
Q 1466 219 1925 219 
z
M 1925 -91 
Q 1200 -91 759 389 
Q 319 869 319 1663 
Q 319 2456 758 2934 
Q 1197 3413 1925 3413 
Q 2653 3413 3092 2934 
Q 3531 2456 3531 1663 
Q 3531 869 3092 389 
Q 2653 -91 1925 -91 
z
" transform="scale(0.015625)"/>
      <path id="DejaVuSerif-75" d="M 2266 3322 
L 3341 3322 
L 3341 331 
L 3884 331 
L 3884 0 
L 2766 0 
L 2766 588 
Q 2606 256 2353 82 
Q 2100 -91 1766 -91 
Q 1213 -91 952 223 
Q 691 538 691 1209 
L 691 2988 
L 172 2988 
L 172 3322 
L 1269 3322 
L 1269 1388 
Q 1269 781 1417 556 
Q 1566 331 1947 331 
Q 2347 331 2556 625 
Q 2766 919 2766 1478 
L 2766 2988 
L 2266 2988 
L 2266 3322 
z
" transform="scale(0.015625)"/>
      <path id="DejaVuSerif-70" d="M 1313 1825 
L 1313 1497 
Q 1313 897 1542 583 
Q 1772 269 2209 269 
Q 2650 269 2876 622 
Q 3103 975 3103 1663 
Q 3103 2353 2876 2703 
Q 2650 3053 2209 3053 
Q 1772 3053 1542 2737 
Q 1313 2422 1313 1825 
z
M 738 2988 
L 184 2988 
L 184 3322 
L 1313 3322 
L 1313 2803 
Q 1481 3116 1742 3264 
Q 2003 3413 2388 3413 
Q 3000 3413 3387 2928 
Q 3775 2444 3775 1663 
Q 3775 881 3387 395 
Q 3000 -91 2388 -91 
Q 2003 -91 1742 57 
Q 1481 206 1313 519 
L 1313 -997 
L 1856 -997 
L 1856 -1331 
L 184 -1331 
L 184 -997 
L 738 -997 
L 738 2988 
z
" transform="scale(0.015625)"/>
      <path id="DejaVuSerif-6e" d="M 263 0 
L 263 331 
L 781 331 
L 781 2988 
L 231 2988 
L 231 3322 
L 1356 3322 
L 1356 2731 
Q 1516 3069 1770 3241 
Q 2025 3413 2363 3413 
Q 2913 3413 3172 3097 
Q 3431 2781 3431 2113 
L 3431 331 
L 3944 331 
L 3944 0 
L 2356 0 
L 2356 331 
L 2853 331 
L 2853 1931 
Q 2853 2541 2703 2767 
Q 2553 2994 2175 2994 
Q 1775 2994 1565 2701 
Q 1356 2409 1356 1850 
L 1356 331 
L 1856 331 
L 1856 0 
L 263 0 
z
" transform="scale(0.015625)"/>
      <path id="DejaVuSerif-64" d="M 3359 331 
L 3909 331 
L 3909 0 
L 2784 0 
L 2784 519 
Q 2616 206 2355 57 
Q 2094 -91 1709 -91 
Q 1097 -91 708 395 
Q 319 881 319 1663 
Q 319 2444 706 2928 
Q 1094 3413 1709 3413 
Q 2094 3413 2355 3264 
Q 2616 3116 2784 2803 
L 2784 4531 
L 2241 4531 
L 2241 4863 
L 3359 4863 
L 3359 331 
z
M 2784 1497 
L 2784 1825 
Q 2784 2422 2554 2737 
Q 2325 3053 1888 3053 
Q 1444 3053 1217 2703 
Q 991 2353 991 1663 
Q 991 975 1217 622 
Q 1444 269 1888 269 
Q 2325 269 2554 583 
Q 2784 897 2784 1497 
z
" transform="scale(0.015625)"/>
      <path id="DejaVuSerif-79" d="M 1381 -609 
L 1600 -56 
L 359 2988 
L -19 2988 
L -19 3322 
L 1509 3322 
L 1509 2988 
L 978 2988 
L 1913 703 
L 2847 2988 
L 2350 2988 
L 2350 3322 
L 3597 3322 
L 3597 2988 
L 3225 2988 
L 1703 -750 
Q 1547 -1138 1356 -1280 
Q 1166 -1422 819 -1422 
Q 672 -1422 517 -1397 
Q 363 -1372 206 -1325 
L 206 -691 
L 500 -691 
Q 519 -903 608 -995 
Q 697 -1088 884 -1088 
Q 1056 -1088 1161 -992 
Q 1266 -897 1381 -609 
z
" transform="scale(0.015625)"/>
      <path id="DejaVuSerif-77" d="M 3072 3322 
L 3922 728 
L 4672 2988 
L 4191 2988 
L 4191 3322 
L 5394 3322 
L 5394 2988 
L 5025 2988 
L 4038 0 
L 3559 0 
L 2741 2484 
L 1919 0 
L 1459 0 
L 475 2988 
L 103 2988 
L 103 3322 
L 1606 3322 
L 1606 2988 
L 1069 2988 
L 1813 728 
L 2669 3322 
L 3072 3322 
z
" transform="scale(0.015625)"/>
      <path id="DejaVuSerif-6c" d="M 1313 331 
L 1856 331 
L 1856 0 
L 184 0 
L 184 331 
L 738 331 
L 738 4531 
L 184 4531 
L 184 4863 
L 1313 4863 
L 1313 331 
z
" transform="scale(0.015625)"/>
      <path id="DejaVuSerif-6d" d="M 3316 2675 
Q 3481 3041 3739 3227 
Q 3997 3413 4341 3413 
Q 4863 3413 5119 3089 
Q 5375 2766 5375 2113 
L 5375 331 
L 5894 331 
L 5894 0 
L 4300 0 
L 4300 331 
L 4800 331 
L 4800 2047 
Q 4800 2556 4650 2772 
Q 4500 2988 4153 2988 
Q 3769 2988 3567 2697 
Q 3366 2406 3366 1850 
L 3366 331 
L 3866 331 
L 3866 0 
L 2291 0 
L 2291 331 
L 2791 331 
L 2791 2069 
Q 2791 2566 2641 2777 
Q 2491 2988 2144 2988 
Q 1759 2988 1557 2697 
Q 1356 2406 1356 1850 
L 1356 331 
L 1856 331 
L 1856 0 
L 263 0 
L 263 331 
L 781 331 
L 781 2994 
L 231 2994 
L 231 3322 
L 1356 3322 
L 1356 2731 
Q 1516 3063 1762 3238 
Q 2009 3413 2322 3413 
Q 2709 3413 2968 3220 
Q 3228 3028 3316 2675 
z
" transform="scale(0.015625)"/>
      <path id="DejaVuSerif-73" d="M 359 184 
L 359 959 
L 691 959 
Q 703 588 923 403 
Q 1144 219 1575 219 
Q 1963 219 2166 364 
Q 2369 509 2369 788 
Q 2369 1006 2220 1140 
Q 2072 1275 1594 1428 
L 1178 1569 
Q 750 1706 558 1912 
Q 366 2119 366 2438 
Q 366 2894 700 3153 
Q 1034 3413 1625 3413 
Q 1888 3413 2178 3344 
Q 2469 3275 2778 3144 
L 2778 2419 
L 2447 2419 
Q 2434 2741 2221 2922 
Q 2009 3103 1644 3103 
Q 1281 3103 1095 2975 
Q 909 2847 909 2591 
Q 909 2381 1050 2254 
Q 1191 2128 1613 1997 
L 2069 1856 
Q 2541 1709 2748 1489 
Q 2956 1269 2956 922 
Q 2956 450 2595 179 
Q 2234 -91 1600 -91 
Q 1278 -91 972 -22 
Q 666 47 359 184 
z
" transform="scale(0.015625)"/>
      <path id="Cmmi10-41" d="M 288 0 
Q 225 0 225 84 
Q 250 225 306 225 
Q 566 225 755 328 
Q 944 431 1081 647 
Q 1094 659 1094 659 
L 3378 4513 
Q 3428 4581 3500 4581 
L 3584 4581 
Q 3603 4581 3622 4573 
Q 3641 4566 3655 4548 
Q 3669 4531 3669 4513 
L 4056 378 
Q 4056 350 4084 294 
Q 4147 225 4563 225 
Q 4628 225 4628 141 
Q 4606 56 4592 28 
Q 4578 0 4519 0 
L 2919 0 
Q 2859 0 2859 84 
Q 2894 225 2944 225 
Q 3450 225 3481 397 
L 3384 1453 
L 1806 1453 
L 1294 594 
Q 1247 525 1247 434 
Q 1247 322 1355 273 
Q 1463 225 1594 225 
Q 1656 225 1656 141 
Q 1634 50 1621 25 
Q 1609 0 1550 0 
L 288 0 
z
M 1931 1678 
L 3359 1678 
L 3169 3750 
L 1931 1678 
z
" transform="scale(0.015625)"/>
      <path id="Cmmi10-42" d="M 319 0 
Q 256 0 256 84 
Q 259 100 268 137 
Q 278 175 293 200 
Q 309 225 341 225 
Q 522 225 656 234 
Q 791 244 884 269 
Q 959 297 1006 441 
L 1881 3956 
Q 1894 4019 1894 4044 
Q 1894 4113 1819 4122 
Q 1697 4147 1356 4147 
Q 1294 4147 1294 4231 
Q 1297 4247 1306 4286 
Q 1316 4325 1333 4348 
Q 1350 4372 1375 4372 
L 3669 4372 
Q 3878 4372 4083 4320 
Q 4288 4269 4461 4156 
Q 4634 4044 4736 3876 
Q 4838 3709 4838 3488 
Q 4838 3247 4714 3040 
Q 4591 2834 4395 2681 
Q 4200 2528 3973 2429 
Q 3747 2331 3500 2284 
Q 3675 2284 3854 2215 
Q 4034 2147 4175 2028 
Q 4316 1909 4402 1743 
Q 4488 1578 4488 1388 
Q 4488 1003 4219 684 
Q 3950 366 3542 183 
Q 3134 0 2753 0 
L 319 0 
z
M 1497 275 
Q 1497 225 1716 225 
L 2631 225 
Q 2944 225 3231 398 
Q 3519 572 3692 859 
Q 3866 1147 3866 1459 
Q 3866 1650 3786 1820 
Q 3706 1991 3556 2089 
Q 3406 2188 3213 2188 
L 1966 2188 
L 1522 416 
Q 1497 328 1497 275 
z
M 2009 2356 
L 2981 2356 
Q 3288 2356 3577 2512 
Q 3866 2669 4048 2937 
Q 4231 3206 4231 3506 
Q 4231 3784 4057 3965 
Q 3884 4147 3609 4147 
L 2731 4147 
Q 2559 4147 2500 4115 
Q 2441 4084 2400 3928 
L 2009 2356 
z
" transform="scale(0.015625)"/>
      <path id="DejaVuSerif-3b" d="M 231 -622 
Q 525 -406 662 -114 
Q 800 178 800 594 
L 800 709 
L 1416 709 
Q 1391 175 1164 -208 
Q 938 -591 481 -872 
L 231 -622 
z
M 678 2363 
Q 678 2538 798 2658 
Q 919 2778 1094 2778 
Q 1269 2778 1389 2656 
Q 1509 2534 1509 2363 
Q 1509 2188 1389 2067 
Q 1269 1947 1094 1947 
Q 919 1947 798 2067 
Q 678 2188 678 2363 
z
" transform="scale(0.015625)"/>
      <path id="DejaVuSerif-69" d="M 622 4353 
Q 622 4497 726 4603 
Q 831 4709 978 4709 
Q 1122 4709 1226 4603 
Q 1331 4497 1331 4353 
Q 1331 4206 1228 4103 
Q 1125 4000 978 4000 
Q 831 4000 726 4103 
Q 622 4206 622 4353 
z
M 1356 331 
L 1900 331 
L 1900 0 
L 231 0 
L 231 331 
L 781 331 
L 781 2988 
L 231 2988 
L 231 3322 
L 1356 3322 
L 1356 331 
z
" transform="scale(0.015625)"/>
      <path id="DejaVuSerif-2e" d="M 603 325 
Q 603 500 722 622 
Q 841 744 1019 744 
Q 1191 744 1312 622 
Q 1434 500 1434 325 
Q 1434 153 1312 31 
Q 1191 -91 1019 -91 
Q 841 -91 722 29 
Q 603 150 603 325 
z
" transform="scale(0.015625)"/>
      <path id="DejaVuSerif-2c" d="M 231 -622 
Q 525 -406 662 -114 
Q 800 178 800 594 
L 800 709 
L 1416 709 
Q 1391 175 1164 -208 
Q 938 -591 481 -872 
L 231 -622 
z
" transform="scale(0.015625)"/>
      <path id="DejaVuSerif-76" d="M 1581 0 
L 359 2988 
L -19 2988 
L -19 3322 
L 1509 3322 
L 1509 2988 
L 978 2988 
L 1913 703 
L 2847 2988 
L 2350 2988 
L 2350 3322 
L 3597 3322 
L 3597 2988 
L 3225 2988 
L 2003 0 
L 1581 0 
z
" transform="scale(0.015625)"/>
      <path id="DejaVuSerif-66" d="M 2753 4078 
L 2450 4078 
Q 2447 4313 2317 4434 
Q 2188 4556 1941 4556 
Q 1619 4556 1487 4379 
Q 1356 4203 1356 3750 
L 1356 3322 
L 2284 3322 
L 2284 2988 
L 1356 2988 
L 1356 331 
L 2094 331 
L 2094 0 
L 231 0 
L 231 331 
L 781 331 
L 781 2988 
L 231 2988 
L 231 3322 
L 781 3322 
L 781 3738 
Q 781 4294 1070 4578 
Q 1359 4863 1919 4863 
Q 2128 4863 2337 4825 
Q 2547 4788 2753 4709 
L 2753 4078 
z
" transform="scale(0.015625)"/>
      <path id="DejaVuSerif-63" d="M 3291 997 
Q 3169 466 2822 187 
Q 2475 -91 1925 -91 
Q 1200 -91 759 389 
Q 319 869 319 1663 
Q 319 2459 759 2936 
Q 1200 3413 1925 3413 
Q 2241 3413 2553 3339 
Q 2866 3266 3181 3116 
L 3181 2266 
L 2847 2266 
Q 2781 2703 2561 2903 
Q 2341 3103 1931 3103 
Q 1466 3103 1228 2742 
Q 991 2381 991 1663 
Q 991 944 1227 581 
Q 1463 219 1931 219 
Q 2303 219 2525 412 
Q 2747 606 2828 997 
L 3291 997 
z
" transform="scale(0.015625)"/>
      <path id="DejaVuSerif-78" d="M 1863 2028 
L 2559 2988 
L 2113 2988 
L 2113 3322 
L 3391 3322 
L 3391 2988 
L 2950 2988 
L 2059 1759 
L 3097 331 
L 3531 331 
L 3531 0 
L 1997 0 
L 1997 331 
L 2419 331 
L 1697 1325 
L 972 331 
L 1403 331 
L 1403 0 
L 141 0 
L 141 331 
L 581 331 
L 1497 1594 
L 488 2988 
L 78 2988 
L 78 3322 
L 1563 3322 
L 1563 2988 
L 1166 2988 
L 1863 2028 
z
" transform="scale(0.015625)"/>
      <path id="Cmmi10-6e" d="M 494 109 
Q 494 147 500 166 
L 978 2075 
Q 1025 2253 1025 2388 
Q 1025 2663 838 2663 
Q 638 2663 541 2423 
Q 444 2184 353 1819 
Q 353 1800 334 1789 
Q 316 1778 300 1778 
L 225 1778 
Q 203 1778 187 1801 
Q 172 1825 172 1844 
Q 241 2122 305 2315 
Q 369 2509 505 2668 
Q 641 2828 844 2828 
Q 1084 2828 1268 2676 
Q 1453 2525 1453 2291 
Q 1644 2541 1900 2684 
Q 2156 2828 2444 2828 
Q 2672 2828 2837 2750 
Q 3003 2672 3095 2514 
Q 3188 2356 3188 2138 
Q 3188 1875 3070 1503 
Q 2953 1131 2778 672 
Q 2688 463 2688 288 
Q 2688 97 2834 97 
Q 3084 97 3251 365 
Q 3419 634 3488 941 
Q 3500 978 3541 978 
L 3616 978 
Q 3641 978 3658 962 
Q 3675 947 3675 922 
Q 3675 916 3669 903 
Q 3581 541 3364 234 
Q 3147 -72 2822 -72 
Q 2597 -72 2437 83 
Q 2278 238 2278 459 
Q 2278 578 2328 709 
Q 2409 919 2514 1209 
Q 2619 1500 2686 1765 
Q 2753 2031 2753 2234 
Q 2753 2413 2679 2538 
Q 2606 2663 2431 2663 
Q 2197 2663 2000 2559 
Q 1803 2456 1656 2286 
Q 1509 2116 1388 1881 
L 953 141 
Q 931 53 854 -9 
Q 778 -72 684 -72 
Q 606 -72 550 -22 
Q 494 28 494 109 
z
" transform="scale(0.015625)"/>
      <path id="Cmr10-31" d="M 594 0 
L 594 225 
Q 1394 225 1394 428 
L 1394 3788 
Q 1063 3628 556 3628 
L 556 3853 
Q 1341 3853 1741 4263 
L 1831 4263 
Q 1853 4263 1873 4245 
Q 1894 4228 1894 4206 
L 1894 428 
Q 1894 225 2694 225 
L 2694 0 
L 594 0 
z
" transform="scale(0.015625)"/>
      <path id="Cmr10-32" d="M 319 0 
L 319 172 
Q 319 188 331 206 
L 1325 1306 
Q 1550 1550 1690 1715 
Q 1831 1881 1968 2097 
Q 2106 2313 2186 2536 
Q 2266 2759 2266 3009 
Q 2266 3272 2169 3511 
Q 2072 3750 1880 3894 
Q 1688 4038 1416 4038 
Q 1138 4038 916 3870 
Q 694 3703 603 3438 
Q 628 3444 672 3444 
Q 816 3444 917 3347 
Q 1019 3250 1019 3097 
Q 1019 2950 917 2848 
Q 816 2747 672 2747 
Q 522 2747 420 2851 
Q 319 2956 319 3097 
Q 319 3338 409 3548 
Q 500 3759 670 3923 
Q 841 4088 1055 4175 
Q 1269 4263 1509 4263 
Q 1875 4263 2190 4108 
Q 2506 3953 2690 3670 
Q 2875 3388 2875 3009 
Q 2875 2731 2753 2481 
Q 2631 2231 2440 2026 
Q 2250 1822 1953 1562 
Q 1656 1303 1563 1216 
L 838 519 
L 1453 519 
Q 1906 519 2211 526 
Q 2516 534 2534 550 
Q 2609 631 2688 1141 
L 2875 1141 
L 2694 0 
L 319 0 
z
" transform="scale(0.015625)"/>
      <path id="STIXGeneral-Regular-22ef" d="M 5235 1619 
Q 5235 1453 5123 1331 
Q 5011 1210 4832 1210 
Q 4646 1210 4534 1322 
Q 4422 1434 4422 1619 
Q 4422 1792 4547 1907 
Q 4672 2022 4832 2022 
Q 4992 2022 5113 1907 
Q 5235 1792 5235 1619 
z
M 3366 1619 
Q 3366 1453 3254 1331 
Q 3142 1210 2963 1210 
Q 2778 1210 2666 1322 
Q 2554 1434 2554 1619 
Q 2554 1792 2678 1907 
Q 2803 2022 2963 2022 
Q 3123 2022 3244 1907 
Q 3366 1792 3366 1619 
z
M 1504 1619 
Q 1504 1453 1392 1331 
Q 1280 1210 1101 1210 
Q 915 1210 803 1322 
Q 691 1434 691 1619 
Q 691 1792 816 1907 
Q 941 2022 1101 2022 
Q 1261 2022 1382 1907 
Q 1504 1792 1504 1619 
z
" transform="scale(0.015625)"/>
      <path id="Cmmi10-6b" d="M 341 116 
Q 341 153 347 172 
L 1275 3872 
Q 1300 3981 1306 4044 
Q 1306 4147 891 4147 
Q 825 4147 825 4231 
Q 828 4247 839 4287 
Q 850 4328 867 4350 
Q 884 4372 916 4372 
L 1778 4441 
L 1797 4441 
Q 1797 4434 1819 4423 
Q 1841 4413 1844 4409 
Q 1856 4378 1856 4359 
L 1184 1684 
Q 1416 1781 1767 2145 
Q 2119 2509 2317 2668 
Q 2516 2828 2816 2828 
Q 2994 2828 3119 2706 
Q 3244 2584 3244 2406 
Q 3244 2294 3197 2198 
Q 3150 2103 3065 2043 
Q 2981 1984 2869 1984 
Q 2766 1984 2695 2048 
Q 2625 2113 2625 2216 
Q 2625 2369 2733 2473 
Q 2841 2578 2994 2578 
Q 2931 2663 2803 2663 
Q 2613 2663 2436 2553 
Q 2259 2444 2054 2239 
Q 1850 2034 1681 1864 
Q 1513 1694 1369 1606 
Q 1747 1563 2025 1408 
Q 2303 1253 2303 934 
Q 2303 869 2278 769 
Q 2222 528 2222 384 
Q 2222 97 2419 97 
Q 2650 97 2770 350 
Q 2891 603 2969 941 
Q 2981 978 3022 978 
L 3097 978 
Q 3122 978 3139 962 
Q 3156 947 3156 922 
Q 3156 916 3150 903 
Q 2909 -72 2406 -72 
Q 2225 -72 2086 12 
Q 1947 97 1872 242 
Q 1797 388 1797 569 
Q 1797 672 1825 781 
Q 1844 856 1844 922 
Q 1844 1169 1625 1297 
Q 1406 1425 1125 1453 
L 800 147 
Q 775 50 703 -11 
Q 631 -72 538 -72 
Q 456 -72 398 -17 
Q 341 38 341 116 
z
" transform="scale(0.015625)"/>
      <path id="Cmsy10-a1" d="M 653 1472 
Q 600 1472 565 1512 
Q 531 1553 531 1600 
Q 531 1647 565 1687 
Q 600 1728 653 1728 
L 4325 1728 
Q 4375 1728 4408 1687 
Q 4441 1647 4441 1600 
Q 4441 1553 4408 1512 
Q 4375 1472 4325 1472 
L 653 1472 
z
" transform="scale(0.015625)"/>
      <path id="DejaVuSerif-68" d="M 263 0 
L 263 331 
L 781 331 
L 781 4531 
L 231 4531 
L 231 4863 
L 1356 4863 
L 1356 2731 
Q 1516 3069 1770 3241 
Q 2025 3413 2363 3413 
Q 2913 3413 3172 3097 
Q 3431 2781 3431 2113 
L 3431 331 
L 3944 331 
L 3944 0 
L 2356 0 
L 2356 331 
L 2853 331 
L 2853 1931 
Q 2853 2541 2704 2764 
Q 2556 2988 2175 2988 
Q 1775 2988 1565 2697 
Q 1356 2406 1356 1850 
L 1356 331 
L 1856 331 
L 1856 0 
L 263 0 
z
" transform="scale(0.015625)"/>
      <path id="Cmmi10-69" d="M 500 459 
Q 500 578 550 709 
L 1069 2088 
Q 1153 2322 1153 2472 
Q 1153 2663 1013 2663 
Q 759 2663 595 2402 
Q 431 2141 353 1819 
Q 341 1778 300 1778 
L 225 1778 
Q 172 1778 172 1838 
L 172 1856 
Q 275 2238 487 2533 
Q 700 2828 1025 2828 
Q 1253 2828 1411 2678 
Q 1569 2528 1569 2297 
Q 1569 2178 1516 2047 
L 997 672 
Q 909 459 909 288 
Q 909 97 1056 97 
Q 1306 97 1473 364 
Q 1641 631 1709 941 
Q 1722 978 1759 978 
L 1838 978 
Q 1863 978 1878 961 
Q 1894 944 1894 922 
Q 1894 916 1888 903 
Q 1800 541 1583 234 
Q 1366 -72 1044 -72 
Q 819 -72 659 83 
Q 500 238 500 459 
z
M 1222 3878 
Q 1222 4013 1334 4122 
Q 1447 4231 1581 4231 
Q 1691 4231 1761 4164 
Q 1831 4097 1831 3994 
Q 1831 3850 1717 3742 
Q 1603 3634 1466 3634 
Q 1363 3634 1292 3704 
Q 1222 3775 1222 3878 
z
" transform="scale(0.015625)"/>
      <path id="Cmr10-30" d="M 1600 -141 
Q 816 -141 533 504 
Q 250 1150 250 2041 
Q 250 2597 351 3087 
Q 453 3578 754 3920 
Q 1056 4263 1600 4263 
Q 2022 4263 2290 4056 
Q 2559 3850 2700 3523 
Q 2841 3197 2892 2823 
Q 2944 2450 2944 2041 
Q 2944 1491 2842 1011 
Q 2741 531 2444 195 
Q 2147 -141 1600 -141 
z
M 1600 25 
Q 1956 25 2131 390 
Q 2306 756 2347 1200 
Q 2388 1644 2388 2144 
Q 2388 2625 2347 3031 
Q 2306 3438 2132 3767 
Q 1959 4097 1600 4097 
Q 1238 4097 1063 3765 
Q 888 3434 847 3029 
Q 806 2625 806 2144 
Q 806 1788 823 1472 
Q 841 1156 916 820 
Q 991 484 1158 254 
Q 1325 25 1600 25 
z
" transform="scale(0.015625)"/>
      <path id="Cmr10-3d" d="M 481 850 
Q 428 850 393 890 
Q 359 931 359 978 
Q 359 1031 393 1068 
Q 428 1106 481 1106 
L 4500 1106 
Q 4547 1106 4581 1068 
Q 4616 1031 4616 978 
Q 4616 931 4581 890 
Q 4547 850 4500 850 
L 481 850 
z
M 481 2094 
Q 428 2094 393 2131 
Q 359 2169 359 2222 
Q 359 2269 393 2309 
Q 428 2350 481 2350 
L 4500 2350 
Q 4547 2350 4581 2309 
Q 4616 2269 4616 2222 
Q 4616 2169 4581 2131 
Q 4547 2094 4500 2094 
L 481 2094 
z
" transform="scale(0.015625)"/>
      <path id="DejaVuSerif-46" d="M 353 0 
L 353 331 
L 947 331 
L 947 4331 
L 353 4331 
L 353 4666 
L 4172 4666 
L 4172 3628 
L 3788 3628 
L 3788 4281 
L 1581 4281 
L 1581 2719 
L 3175 2719 
L 3175 3303 
L 3559 3303 
L 3559 1753 
L 3175 1753 
L 3175 2338 
L 1581 2338 
L 1581 331 
L 2328 331 
L 2328 0 
L 353 0 
z
" transform="scale(0.015625)"/>
      <path id="Cmr10-34" d="M 178 1056 
L 178 1281 
L 2156 4231 
Q 2178 4263 2222 4263 
L 2316 4263 
Q 2388 4263 2388 4191 
L 2388 1281 
L 3016 1281 
L 3016 1056 
L 2388 1056 
L 2388 428 
Q 2388 297 2575 261 
Q 2763 225 3009 225 
L 3009 0 
L 1247 0 
L 1247 225 
Q 1494 225 1681 261 
Q 1869 297 1869 428 
L 1869 1056 
L 178 1056 
z
M 391 1281 
L 1906 1281 
L 1906 3547 
L 391 1281 
z
" transform="scale(0.015625)"/>
      <path id="Cmr10-37" d="M 1113 166 
Q 1113 522 1175 862 
Q 1238 1203 1358 1536 
Q 1478 1869 1648 2189 
Q 1819 2509 2022 2791 
L 2606 3603 
L 1875 3603 
Q 738 3603 703 3572 
Q 619 3469 544 2981 
L 359 2981 
L 569 4325 
L 756 4325 
L 756 4306 
Q 756 4191 1147 4156 
Q 1538 4122 1913 4122 
L 3103 4122 
L 3103 3956 
Q 3103 3950 3101 3947 
Q 3100 3944 3097 3938 
L 2216 2700 
Q 1891 2219 1809 1631 
Q 1728 1044 1728 166 
Q 1728 41 1637 -50 
Q 1547 -141 1422 -141 
Q 1294 -141 1203 -50 
Q 1113 41 1113 166 
z
" transform="scale(0.015625)"/>
      <path id="STIXGeneral-Regular-2260" d="M 4077 768 
L 1990 768 
L 1222 -998 
L 877 -998 
L 1645 768 
L 307 768 
L 307 1190 
L 1830 1190 
L 2208 2048 
L 307 2048 
L 307 2470 
L 2394 2470 
L 3162 4237 
L 3507 4237 
L 2733 2470 
L 4077 2470 
L 4077 2048 
L 2554 2048 
L 2176 1190 
L 4077 1190 
L 4077 768 
z
" transform="scale(0.015625)"/>
      <path id="Cmmi10-43" d="M 934 1381 
Q 934 997 1082 705 
Q 1231 413 1514 248 
Q 1797 84 2181 84 
Q 2584 84 2957 290 
Q 3331 497 3595 842 
Q 3859 1188 3956 1575 
Q 3969 1613 4006 1613 
L 4084 1613 
Q 4109 1613 4125 1595 
Q 4141 1578 4141 1556 
Q 4141 1550 4134 1538 
Q 4025 1094 3711 705 
Q 3397 316 2959 87 
Q 2522 -141 2059 -141 
Q 1559 -141 1162 84 
Q 766 309 545 709 
Q 325 1109 325 1613 
Q 325 2150 565 2676 
Q 806 3203 1212 3614 
Q 1619 4025 2139 4269 
Q 2659 4513 3194 4513 
Q 3406 4513 3600 4448 
Q 3794 4384 3959 4253 
Q 4125 4122 4231 3950 
L 4738 4500 
Q 4738 4513 4769 4513 
L 4806 4513 
Q 4831 4513 4847 4491 
Q 4863 4469 4863 4447 
L 4428 2719 
Q 4428 2675 4378 2675 
L 4263 2675 
Q 4213 2675 4213 2747 
Q 4238 2888 4238 3084 
Q 4238 3397 4131 3673 
Q 4025 3950 3801 4119 
Q 3578 4288 3256 4288 
Q 2734 4288 2300 4025 
Q 1866 3763 1564 3336 
Q 1263 2909 1098 2389 
Q 934 1869 934 1381 
z
" transform="scale(0.015625)"/>
      <path id="Cmsy10-32" d="M 1356 403 
Q 1838 0 2497 0 
L 3616 0 
Q 3666 0 3698 -37 
Q 3731 -75 3731 -128 
Q 3731 -175 3698 -215 
Q 3666 -256 3616 -256 
L 2478 -256 
Q 1969 -256 1519 -12 
Q 1069 231 800 657 
Q 531 1084 531 1600 
Q 531 2116 800 2542 
Q 1069 2969 1519 3212 
Q 1969 3456 2478 3456 
L 3616 3456 
Q 3666 3456 3698 3415 
Q 3731 3375 3731 3328 
Q 3731 3275 3698 3237 
Q 3666 3200 3616 3200 
L 2497 3200 
Q 2184 3200 1889 3097 
Q 1594 2994 1356 2797 
Q 1122 2600 958 2304 
Q 794 2009 794 1728 
L 3616 1728 
Q 3666 1728 3698 1687 
Q 3731 1647 3731 1600 
Q 3731 1553 3698 1512 
Q 3666 1472 3616 1472 
L 794 1472 
Q 794 1194 958 897 
Q 1122 600 1356 403 
z
" transform="scale(0.015625)"/>
      <path id="DejaVuSerif-71" d="M 3359 2988 
L 3359 -997 
L 3909 -997 
L 3909 -1331 
L 2241 -1331 
L 2241 -997 
L 2784 -997 
L 2784 519 
Q 2616 206 2355 57 
Q 2094 -91 1709 -91 
Q 1097 -91 708 395 
Q 319 881 319 1663 
Q 319 2444 706 2928 
Q 1094 3413 1709 3413 
Q 2094 3413 2355 3264 
Q 2616 3116 2784 2803 
L 2784 3322 
L 3909 3322 
L 3909 2988 
L 3359 2988 
z
M 2784 1825 
Q 2784 2422 2554 2737 
Q 2325 3053 1888 3053 
Q 1444 3053 1217 2703 
Q 991 2353 991 1663 
Q 991 975 1217 622 
Q 1444 269 1888 269 
Q 2325 269 2554 583 
Q 2784 897 2784 1497 
L 2784 1825 
z
" transform="scale(0.015625)"/>
     </defs>
     <use xlink:href="#DejaVuSerif-4c" transform="translate(0 0.43125)"/>
     <use xlink:href="#DejaVuSerif-65" transform="translate(66.40625 0.43125)"/>
     <use xlink:href="#DejaVuSerif-74" transform="translate(125.585938 0.43125)"/>
     <use xlink:href="#DejaVuSerif-20" transform="translate(165.771484 0.43125)"/>
     <use xlink:href="#Cmmi10-47" transform="translate(197.558594 0.43125)"/>
     <use xlink:href="#DejaVuSerif-20" transform="translate(276.171875 0.43125)"/>
     <use xlink:href="#DejaVuSerif-62" transform="translate(307.958984 0.43125)"/>
     <use xlink:href="#DejaVuSerif-65" transform="translate(371.972656 0.43125)"/>
     <use xlink:href="#DejaVuSerif-20" transform="translate(431.152344 0.43125)"/>
     <use xlink:href="#DejaVuSerif-61" transform="translate(462.939453 0.43125)"/>
     <use xlink:href="#DejaVuSerif-20" transform="translate(522.558594 0.43125)"/>
     <use xlink:href="#DejaVuSerif-67" transform="translate(554.345703 0.43125)"/>
     <use xlink:href="#DejaVuSerif-72" transform="translate(618.359375 0.43125)"/>
     <use xlink:href="#DejaVuSerif-6f" transform="translate(666.162109 0.43125)"/>
     <use xlink:href="#DejaVuSerif-75" transform="translate(726.367188 0.43125)"/>
     <use xlink:href="#DejaVuSerif-70" transform="translate(790.771484 0.43125)"/>
     <use xlink:href="#DejaVuSerif-20" transform="translate(854.785156 0.43125)"/>
     <use xlink:href="#DejaVuSerif-67" transform="translate(886.572266 0.43125)"/>
     <use xlink:href="#DejaVuSerif-65" transform="translate(950.585938 0.43125)"/>
     <use xlink:href="#DejaVuSerif-6e" transform="translate(1009.765625 0.43125)"/>
     <use xlink:href="#DejaVuSerif-65" transform="translate(1074.169922 0.43125)"/>
     <use xlink:href="#DejaVuSerif-72" transform="translate(1133.349609 0.43125)"/>
     <use xlink:href="#DejaVuSerif-61" transform="translate(1181.152344 0.43125)"/>
     <use xlink:href="#DejaVuSerif-74" transform="translate(1240.771484 0.43125)"/>
     <use xlink:href="#DejaVuSerif-65" transform="translate(1280.957031 0.43125)"/>
     <use xlink:href="#DejaVuSerif-64" transform="translate(1340.136719 0.43125)"/>
     <use xlink:href="#DejaVuSerif-20" transform="translate(1404.150391 0.43125)"/>
     <use xlink:href="#DejaVuSerif-62" transform="translate(1435.9375 0.43125)"/>
     <use xlink:href="#DejaVuSerif-79" transform="translate(1499.951172 0.43125)"/>
     <use xlink:href="#DejaVuSerif-20" transform="translate(1556.445312 0.43125)"/>
     <use xlink:href="#DejaVuSerif-74" transform="translate(1588.232422 0.43125)"/>
     <use xlink:href="#DejaVuSerif-77" transform="translate(1628.417969 0.43125)"/>
     <use xlink:href="#DejaVuSerif-6f" transform="translate(1714.013672 0.43125)"/>
     <use xlink:href="#DejaVuSerif-20" transform="translate(1774.21875 0.43125)"/>
     <use xlink:href="#DejaVuSerif-65" transform="translate(1806.005859 0.43125)"/>
     <use xlink:href="#DejaVuSerif-6c" transform="translate(1865.185547 0.43125)"/>
     <use xlink:href="#DejaVuSerif-65" transform="translate(1897.167969 0.43125)"/>
     <use xlink:href="#DejaVuSerif-6d" transform="translate(1956.347656 0.43125)"/>
     <use xlink:href="#DejaVuSerif-65" transform="translate(2051.171875 0.43125)"/>
     <use xlink:href="#DejaVuSerif-6e" transform="translate(2110.351562 0.43125)"/>
     <use xlink:href="#DejaVuSerif-74" transform="translate(2174.755859 0.43125)"/>
     <use xlink:href="#DejaVuSerif-73" transform="translate(2214.941406 0.43125)"/>
     <use xlink:href="#DejaVuSerif-20" transform="translate(2266.259766 0.43125)"/>
     <use xlink:href="#Cmmi10-41" transform="translate(2298.046875 0.43125)"/>
     <use xlink:href="#DejaVuSerif-20" transform="translate(2373.046875 0.43125)"/>
     <use xlink:href="#DejaVuSerif-61" transform="translate(2404.833984 0.43125)"/>
     <use xlink:href="#DejaVuSerif-6e" transform="translate(2464.453125 0.43125)"/>
     <use xlink:href="#DejaVuSerif-64" transform="translate(2528.857422 0.43125)"/>
     <use xlink:href="#DejaVuSerif-20" transform="translate(2592.871094 0.43125)"/>
     <use xlink:href="#Cmmi10-42" transform="translate(2624.658203 0.43125)"/>
     <use xlink:href="#DejaVuSerif-3b" transform="translate(2700.439453 0.43125)"/>
     <use xlink:href="#DejaVuSerif-20" transform="translate(2734.130859 0.43125)"/>
     <use xlink:href="#DejaVuSerif-69" transform="translate(2765.917969 0.43125)"/>
     <use xlink:href="#DejaVuSerif-2e" transform="translate(2797.900391 0.43125)"/>
     <use xlink:href="#DejaVuSerif-65" transform="translate(2829.6875 0.43125)"/>
     <use xlink:href="#DejaVuSerif-2e" transform="translate(2888.867188 0.43125)"/>
     <use xlink:href="#DejaVuSerif-2c" transform="translate(2920.654297 0.43125)"/>
     <use xlink:href="#DejaVuSerif-20" transform="translate(2952.441406 0.43125)"/>
     <use xlink:href="#DejaVuSerif-65" transform="translate(2984.228516 0.43125)"/>
     <use xlink:href="#DejaVuSerif-76" transform="translate(3043.408203 0.43125)"/>
     <use xlink:href="#DejaVuSerif-65" transform="translate(3099.902344 0.43125)"/>
     <use xlink:href="#DejaVuSerif-72" transform="translate(3159.082031 0.43125)"/>
     <use xlink:href="#DejaVuSerif-79" transform="translate(3206.884766 0.43125)"/>
     <use xlink:href="#DejaVuSerif-20" transform="translate(3263.378906 0.43125)"/>
     <use xlink:href="#DejaVuSerif-65" transform="translate(3295.166016 0.43125)"/>
     <use xlink:href="#DejaVuSerif-6c" transform="translate(3354.345703 0.43125)"/>
     <use xlink:href="#DejaVuSerif-65" transform="translate(3386.328125 0.43125)"/>
     <use xlink:href="#DejaVuSerif-6d" transform="translate(3445.507812 0.43125)"/>
     <use xlink:href="#DejaVuSerif-65" transform="translate(3540.332031 0.43125)"/>
     <use xlink:href="#DejaVuSerif-6e" transform="translate(3599.511719 0.43125)"/>
     <use xlink:href="#DejaVuSerif-74" transform="translate(3663.916016 0.43125)"/>
     <use xlink:href="#DejaVuSerif-20" transform="translate(3704.101562 0.43125)"/>
     <use xlink:href="#DejaVuSerif-6f" transform="translate(3735.888672 0.43125)"/>
     <use xlink:href="#DejaVuSerif-66" transform="translate(3796.09375 0.43125)"/>
     <use xlink:href="#DejaVuSerif-20" transform="translate(3833.105469 0.43125)"/>
     <use xlink:href="#Cmmi10-47" transform="translate(3864.892578 0.43125)"/>
     <use xlink:href="#DejaVuSerif-20" transform="translate(3943.505859 0.43125)"/>
     <use xlink:href="#DejaVuSerif-63" transform="translate(3975.292969 0.43125)"/>
     <use xlink:href="#DejaVuSerif-61" transform="translate(4031.298828 0.43125)"/>
     <use xlink:href="#DejaVuSerif-6e" transform="translate(4090.917969 0.43125)"/>
     <use xlink:href="#DejaVuSerif-20" transform="translate(4155.322266 0.43125)"/>
     <use xlink:href="#DejaVuSerif-62" transform="translate(4187.109375 0.43125)"/>
     <use xlink:href="#DejaVuSerif-65" transform="translate(4251.123047 0.43125)"/>
     <use xlink:href="#DejaVuSerif-20" transform="translate(4310.302734 0.43125)"/>
     <use xlink:href="#DejaVuSerif-65" transform="translate(4342.089844 0.43125)"/>
     <use xlink:href="#DejaVuSerif-78" transform="translate(4401.269531 0.43125)"/>
     <use xlink:href="#DejaVuSerif-70" transform="translate(4457.666016 0.43125)"/>
     <use xlink:href="#DejaVuSerif-72" transform="translate(4521.679688 0.43125)"/>
     <use xlink:href="#DejaVuSerif-65" transform="translate(4569.482422 0.43125)"/>
     <use xlink:href="#DejaVuSerif-73" transform="translate(4628.662109 0.43125)"/>
     <use xlink:href="#DejaVuSerif-73" transform="translate(4679.980469 0.43125)"/>
     <use xlink:href="#DejaVuSerif-65" transform="translate(4731.298828 0.43125)"/>
     <use xlink:href="#DejaVuSerif-64" transform="translate(4790.478516 0.43125)"/>
     <use xlink:href="#DejaVuSerif-20" transform="translate(4854.492188 0.43125)"/>
     <use xlink:href="#DejaVuSerif-61" transform="translate(4886.279297 0.43125)"/>
     <use xlink:href="#DejaVuSerif-73" transform="translate(4945.898438 0.43125)"/>
     <use xlink:href="#DejaVuSerif-20" transform="translate(4997.216797 0.43125)"/>
     <use xlink:href="#DejaVuSerif-61" transform="translate(5029.003906 0.43125)"/>
     <use xlink:href="#DejaVuSerif-20" transform="translate(5088.623047 0.43125)"/>
     <use xlink:href="#DejaVuSerif-66" transform="translate(5120.410156 0.43125)"/>
     <use xlink:href="#DejaVuSerif-69" transform="translate(5157.421875 0.43125)"/>
     <use xlink:href="#DejaVuSerif-6e" transform="translate(5189.404297 0.43125)"/>
     <use xlink:href="#DejaVuSerif-69" transform="translate(5253.808594 0.43125)"/>
     <use xlink:href="#DejaVuSerif-74" transform="translate(5285.791016 0.43125)"/>
     <use xlink:href="#DejaVuSerif-65" transform="translate(5325.976562 0.43125)"/>
     <use xlink:href="#DejaVuSerif-20" transform="translate(5385.15625 0.43125)"/>
     <use xlink:href="#DejaVuSerif-77" transform="translate(5416.943359 0.43125)"/>
     <use xlink:href="#DejaVuSerif-6f" transform="translate(5502.539062 0.43125)"/>
     <use xlink:href="#DejaVuSerif-72" transform="translate(5562.744141 0.43125)"/>
     <use xlink:href="#DejaVuSerif-64" transform="translate(5610.546875 0.43125)"/>
     <use xlink:href="#DejaVuSerif-20" transform="translate(5674.560547 0.43125)"/>
     <use xlink:href="#Cmmi10-41" transform="translate(5706.347656 0.43125)"/>
     <use xlink:href="#Cmmi10-6e" transform="translate(5793.402969 38.695313) scale(0.7)"/>
     <use xlink:href="#Cmr10-31" transform="translate(5835.409805 26.790938) scale(0.49)"/>
     <use xlink:href="#Cmmi10-42" transform="translate(5870.751289 0.43125)"/>
     <use xlink:href="#Cmmi10-6e" transform="translate(5957.90207 38.695313) scale(0.7)"/>
     <use xlink:href="#Cmr10-32" transform="translate(5999.908906 26.790938) scale(0.49)"/>
     <use xlink:href="#STIXGeneral-Regular-22ef" transform="translate(6035.250391 0.43125)"/>
     <use xlink:href="#Cmmi10-41" transform="translate(6127.850381 0.43125)"/>
     <use xlink:href="#Cmmi10-6e" transform="translate(6214.905694 38.695313) scale(0.7)"/>
     <use xlink:href="#Cmmi10-6b" transform="translate(6256.91253 26.790938) scale(0.49)"/>
     <use xlink:href="#Cmsy10-a1" transform="translate(6290.997198 26.790938) scale(0.49)"/>
     <use xlink:href="#Cmr10-31" transform="translate(6337.666827 26.790938) scale(0.49)"/>
     <use xlink:href="#Cmmi10-42" transform="translate(6373.008311 0.43125)"/>
     <use xlink:href="#Cmmi10-6e" transform="translate(6460.159092 38.695313) scale(0.7)"/>
     <use xlink:href="#Cmmi10-6b" transform="translate(6502.165928 26.790938) scale(0.49)"/>
     <use xlink:href="#DejaVuSerif-2c" transform="translate(6538.48837 0.43125)"/>
     <use xlink:href="#DejaVuSerif-20" transform="translate(6570.275479 0.43125)"/>
     <use xlink:href="#DejaVuSerif-77" transform="translate(6602.062589 0.43125)"/>
     <use xlink:href="#DejaVuSerif-68" transform="translate(6687.658292 0.43125)"/>
     <use xlink:href="#DejaVuSerif-65" transform="translate(6752.062589 0.43125)"/>
     <use xlink:href="#DejaVuSerif-72" transform="translate(6811.242276 0.43125)"/>
     <use xlink:href="#DejaVuSerif-65" transform="translate(6859.04501 0.43125)"/>
     <use xlink:href="#DejaVuSerif-20" transform="translate(6918.224698 0.43125)"/>
     <use xlink:href="#DejaVuSerif-74" transform="translate(6950.011807 0.43125)"/>
     <use xlink:href="#DejaVuSerif-68" transform="translate(6990.197354 0.43125)"/>
     <use xlink:href="#DejaVuSerif-65" transform="translate(7054.601651 0.43125)"/>
     <use xlink:href="#DejaVuSerif-20" transform="translate(7113.781339 0.43125)"/>
     <use xlink:href="#Cmmi10-6e" transform="translate(7145.568448 0.43125)"/>
     <use xlink:href="#Cmmi10-69" transform="translate(7205.578214 -16.575) scale(0.7)"/>
     <use xlink:href="#DejaVuSerif-20" transform="translate(7236.052237 0.43125)"/>
     <use xlink:href="#DejaVuSerif-63" transform="translate(7267.839346 0.43125)"/>
     <use xlink:href="#DejaVuSerif-61" transform="translate(7323.845206 0.43125)"/>
     <use xlink:href="#DejaVuSerif-6e" transform="translate(7383.464346 0.43125)"/>
     <use xlink:href="#DejaVuSerif-20" transform="translate(7447.868643 0.43125)"/>
     <use xlink:href="#DejaVuSerif-61" transform="translate(7479.655753 0.43125)"/>
     <use xlink:href="#DejaVuSerif-73" transform="translate(7539.274893 0.43125)"/>
     <use xlink:href="#DejaVuSerif-73" transform="translate(7590.593253 0.43125)"/>
     <use xlink:href="#DejaVuSerif-75" transform="translate(7641.911612 0.43125)"/>
     <use xlink:href="#DejaVuSerif-6d" transform="translate(7706.315909 0.43125)"/>
     <use xlink:href="#DejaVuSerif-65" transform="translate(7801.140128 0.43125)"/>
     <use xlink:href="#DejaVuSerif-20" transform="translate(7860.319815 0.43125)"/>
     <use xlink:href="#DejaVuSerif-61" transform="translate(7892.106924 0.43125)"/>
     <use xlink:href="#DejaVuSerif-6e" transform="translate(7951.726065 0.43125)"/>
     <use xlink:href="#DejaVuSerif-79" transform="translate(8016.130362 0.43125)"/>
     <use xlink:href="#DejaVuSerif-20" transform="translate(8072.624503 0.43125)"/>
     <use xlink:href="#DejaVuSerif-69" transform="translate(8104.411612 0.43125)"/>
     <use xlink:href="#DejaVuSerif-6e" transform="translate(8136.394034 0.43125)"/>
     <use xlink:href="#DejaVuSerif-74" transform="translate(8200.798331 0.43125)"/>
     <use xlink:href="#DejaVuSerif-65" transform="translate(8240.983878 0.43125)"/>
     <use xlink:href="#DejaVuSerif-67" transform="translate(8300.163565 0.43125)"/>
     <use xlink:href="#DejaVuSerif-65" transform="translate(8364.177237 0.43125)"/>
     <use xlink:href="#DejaVuSerif-72" transform="translate(8423.356924 0.43125)"/>
     <use xlink:href="#DejaVuSerif-20" transform="translate(8471.159659 0.43125)"/>
     <use xlink:href="#DejaVuSerif-76" transform="translate(8502.946768 0.43125)"/>
     <use xlink:href="#DejaVuSerif-61" transform="translate(8559.440909 0.43125)"/>
     <use xlink:href="#DejaVuSerif-6c" transform="translate(8619.060049 0.43125)"/>
     <use xlink:href="#DejaVuSerif-75" transform="translate(8651.042471 0.43125)"/>
     <use xlink:href="#DejaVuSerif-65" transform="translate(8715.446768 0.43125)"/>
     <use xlink:href="#DejaVuSerif-73" transform="translate(8774.626456 0.43125)"/>
     <use xlink:href="#DejaVuSerif-20" transform="translate(8825.944815 0.43125)"/>
     <use xlink:href="#DejaVuSerif-61" transform="translate(8857.731924 0.43125)"/>
     <use xlink:href="#DejaVuSerif-6e" transform="translate(8917.351065 0.43125)"/>
     <use xlink:href="#DejaVuSerif-64" transform="translate(8981.755362 0.43125)"/>
     <use xlink:href="#DejaVuSerif-20" transform="translate(9045.769034 0.43125)"/>
     <use xlink:href="#Cmmi10-41" transform="translate(9077.556143 0.43125)"/>
     <use xlink:href="#Cmr10-30" transform="translate(9164.611456 38.695313) scale(0.7)"/>
     <use xlink:href="#Cmr10-3d" transform="translate(9223.547393 0.43125)"/>
     <use xlink:href="#Cmmi10-42" transform="translate(9318.791534 0.43125)"/>
     <use xlink:href="#Cmr10-30" transform="translate(9405.942315 38.695313) scale(0.7)"/>
     <use xlink:href="#Cmr10-3d" transform="translate(9464.878253 0.43125)"/>
     <use xlink:href="#Cmr10-31" transform="translate(9560.122393 0.43125)"/>
     <use xlink:href="#DejaVuSerif-2e" transform="translate(9610.122393 0.43125)"/>
     <use xlink:href="#DejaVuSerif-20" transform="translate(9641.909503 0.43125)"/>
     <use xlink:href="#DejaVuSerif-46" transform="translate(9673.696612 0.43125)"/>
     <use xlink:href="#DejaVuSerif-75" transform="translate(9743.081378 0.43125)"/>
     <use xlink:href="#DejaVuSerif-72" transform="translate(9807.485674 0.43125)"/>
     <use xlink:href="#DejaVuSerif-74" transform="translate(9855.288409 0.43125)"/>
     <use xlink:href="#DejaVuSerif-68" transform="translate(9895.473956 0.43125)"/>
     <use xlink:href="#DejaVuSerif-65" transform="translate(9959.878253 0.43125)"/>
     <use xlink:href="#DejaVuSerif-72" transform="translate(10019.05794 0.43125)"/>
     <use xlink:href="#DejaVuSerif-20" transform="translate(10066.860674 0.43125)"/>
     <use xlink:href="#DejaVuSerif-61" transform="translate(10098.647784 0.43125)"/>
     <use xlink:href="#DejaVuSerif-73" transform="translate(10158.266924 0.43125)"/>
     <use xlink:href="#DejaVuSerif-73" transform="translate(10209.585284 0.43125)"/>
     <use xlink:href="#DejaVuSerif-75" transform="translate(10260.903643 0.43125)"/>
     <use xlink:href="#DejaVuSerif-6d" transform="translate(10325.30794 0.43125)"/>
     <use xlink:href="#DejaVuSerif-65" transform="translate(10420.132159 0.43125)"/>
     <use xlink:href="#DejaVuSerif-20" transform="translate(10479.311846 0.43125)"/>
     <use xlink:href="#DejaVuSerif-74" transform="translate(10511.098956 0.43125)"/>
     <use xlink:href="#DejaVuSerif-68" transform="translate(10551.284503 0.43125)"/>
     <use xlink:href="#DejaVuSerif-61" transform="translate(10615.688799 0.43125)"/>
     <use xlink:href="#DejaVuSerif-74" transform="translate(10675.30794 0.43125)"/>
     <use xlink:href="#DejaVuSerif-20" transform="translate(10715.493487 0.43125)"/>
     <use xlink:href="#Cmmi10-41" transform="translate(10747.280596 0.43125)"/>
     <use xlink:href="#Cmr10-34" transform="translate(10834.335909 38.695313) scale(0.7)"/>
     <use xlink:href="#Cmr10-3d" transform="translate(10893.271846 0.43125)"/>
     <use xlink:href="#Cmmi10-42" transform="translate(10988.515987 0.43125)"/>
     <use xlink:href="#Cmr10-37" transform="translate(11075.666768 38.695313) scale(0.7)"/>
     <use xlink:href="#Cmr10-3d" transform="translate(11134.602706 0.43125)"/>
     <use xlink:href="#Cmmi10-41" transform="translate(11229.846846 0.43125)"/>
     <use xlink:href="#Cmmi10-42" transform="translate(11304.846846 0.43125)"/>
     <use xlink:href="#Cmmi10-41" transform="translate(11380.628096 0.43125)"/>
     <use xlink:href="#Cmsy10-a1" transform="translate(11467.683409 38.695313) scale(0.7)"/>
     <use xlink:href="#Cmr10-31" transform="translate(11522.063292 38.695313) scale(0.7)"/>
     <use xlink:href="#Cmmi10-42" transform="translate(11563.440635 0.43125)"/>
     <use xlink:href="#Cmr10-3d" transform="translate(11656.780479 0.43125)"/>
     <use xlink:href="#Cmr10-31" transform="translate(11752.02462 0.43125)"/>
     <use xlink:href="#DejaVuSerif-2c" transform="translate(11802.02462 0.43125)"/>
     <use xlink:href="#DejaVuSerif-20" transform="translate(11833.811729 0.43125)"/>
     <use xlink:href="#DejaVuSerif-62" transform="translate(11865.598839 0.43125)"/>
     <use xlink:href="#DejaVuSerif-75" transform="translate(11929.61251 0.43125)"/>
     <use xlink:href="#DejaVuSerif-74" transform="translate(11994.016807 0.43125)"/>
     <use xlink:href="#DejaVuSerif-20" transform="translate(12034.202354 0.43125)"/>
     <use xlink:href="#Cmmi10-41" transform="translate(12065.989464 0.43125)"/>
     <use xlink:href="#Cmr10-32" transform="translate(12153.044776 38.695313) scale(0.7)"/>
     <use xlink:href="#STIXGeneral-Regular-2260" transform="translate(12211.980714 0.43125)"/>
     <use xlink:href="#Cmr10-31" transform="translate(12298.039292 0.43125)"/>
     <use xlink:href="#DejaVuSerif-20" transform="translate(12348.039292 0.43125)"/>
     <use xlink:href="#DejaVuSerif-61" transform="translate(12379.826401 0.43125)"/>
     <use xlink:href="#DejaVuSerif-6e" transform="translate(12439.445542 0.43125)"/>
     <use xlink:href="#DejaVuSerif-64" transform="translate(12503.849839 0.43125)"/>
     <use xlink:href="#DejaVuSerif-20" transform="translate(12567.863511 0.43125)"/>
     <use xlink:href="#Cmmi10-42" transform="translate(12599.65062 0.43125)"/>
     <use xlink:href="#STIXGeneral-Regular-2260" transform="translate(12692.990464 0.43125)"/>
     <use xlink:href="#Cmr10-31" transform="translate(12779.049042 0.43125)"/>
     <use xlink:href="#DejaVuSerif-2e" transform="translate(12829.049042 0.43125)"/>
     <use xlink:href="#DejaVuSerif-20" transform="translate(12860.836152 0.43125)"/>
     <use xlink:href="#DejaVuSerif-46" transform="translate(12892.623261 0.43125)"/>
     <use xlink:href="#DejaVuSerif-69" transform="translate(12962.008027 0.43125)"/>
     <use xlink:href="#DejaVuSerif-6e" transform="translate(12993.990449 0.43125)"/>
     <use xlink:href="#DejaVuSerif-64" transform="translate(13058.394745 0.43125)"/>
     <use xlink:href="#DejaVuSerif-20" transform="translate(13122.408417 0.43125)"/>
     <use xlink:href="#DejaVuSerif-74" transform="translate(13154.195527 0.43125)"/>
     <use xlink:href="#DejaVuSerif-68" transform="translate(13194.381074 0.43125)"/>
     <use xlink:href="#DejaVuSerif-65" transform="translate(13258.78537 0.43125)"/>
     <use xlink:href="#DejaVuSerif-20" transform="translate(13317.965058 0.43125)"/>
     <use xlink:href="#DejaVuSerif-6e" transform="translate(13349.752167 0.43125)"/>
     <use xlink:href="#DejaVuSerif-75" transform="translate(13414.156464 0.43125)"/>
     <use xlink:href="#DejaVuSerif-6d" transform="translate(13478.560761 0.43125)"/>
     <use xlink:href="#DejaVuSerif-62" transform="translate(13573.38498 0.43125)"/>
     <use xlink:href="#DejaVuSerif-65" transform="translate(13637.398652 0.43125)"/>
     <use xlink:href="#DejaVuSerif-72" transform="translate(13696.578339 0.43125)"/>
     <use xlink:href="#DejaVuSerif-20" transform="translate(13744.381074 0.43125)"/>
     <use xlink:href="#DejaVuSerif-6f" transform="translate(13776.168183 0.43125)"/>
     <use xlink:href="#DejaVuSerif-66" transform="translate(13836.373261 0.43125)"/>
     <use xlink:href="#DejaVuSerif-20" transform="translate(13873.38498 0.43125)"/>
     <use xlink:href="#DejaVuSerif-65" transform="translate(13905.172089 0.43125)"/>
     <use xlink:href="#DejaVuSerif-6c" transform="translate(13964.351777 0.43125)"/>
     <use xlink:href="#DejaVuSerif-65" transform="translate(13996.334199 0.43125)"/>
     <use xlink:href="#DejaVuSerif-6d" transform="translate(14055.513886 0.43125)"/>
     <use xlink:href="#DejaVuSerif-65" transform="translate(14150.338105 0.43125)"/>
     <use xlink:href="#DejaVuSerif-6e" transform="translate(14209.517792 0.43125)"/>
     <use xlink:href="#DejaVuSerif-74" transform="translate(14273.922089 0.43125)"/>
     <use xlink:href="#DejaVuSerif-73" transform="translate(14314.107636 0.43125)"/>
     <use xlink:href="#DejaVuSerif-20" transform="translate(14365.425995 0.43125)"/>
     <use xlink:href="#DejaVuSerif-6f" transform="translate(14397.213105 0.43125)"/>
     <use xlink:href="#DejaVuSerif-66" transform="translate(14457.418183 0.43125)"/>
     <use xlink:href="#DejaVuSerif-20" transform="translate(14494.429902 0.43125)"/>
     <use xlink:href="#Cmmi10-47" transform="translate(14526.217011 0.43125)"/>
     <use xlink:href="#DejaVuSerif-20" transform="translate(14604.830292 0.43125)"/>
     <use xlink:href="#DejaVuSerif-74" transform="translate(14636.617402 0.43125)"/>
     <use xlink:href="#DejaVuSerif-68" transform="translate(14676.802949 0.43125)"/>
     <use xlink:href="#DejaVuSerif-61" transform="translate(14741.207245 0.43125)"/>
     <use xlink:href="#DejaVuSerif-6e" transform="translate(14800.826386 0.43125)"/>
     <use xlink:href="#DejaVuSerif-20" transform="translate(14865.230683 0.43125)"/>
     <use xlink:href="#DejaVuSerif-63" transform="translate(14897.017792 0.43125)"/>
     <use xlink:href="#DejaVuSerif-61" transform="translate(14953.023652 0.43125)"/>
     <use xlink:href="#DejaVuSerif-6e" transform="translate(15012.642792 0.43125)"/>
     <use xlink:href="#DejaVuSerif-20" transform="translate(15077.047089 0.43125)"/>
     <use xlink:href="#DejaVuSerif-62" transform="translate(15108.834199 0.43125)"/>
     <use xlink:href="#DejaVuSerif-65" transform="translate(15172.84787 0.43125)"/>
     <use xlink:href="#DejaVuSerif-20" transform="translate(15232.027558 0.43125)"/>
     <use xlink:href="#DejaVuSerif-77" transform="translate(15263.814667 0.43125)"/>
     <use xlink:href="#DejaVuSerif-72" transform="translate(15349.41037 0.43125)"/>
     <use xlink:href="#DejaVuSerif-69" transform="translate(15397.213105 0.43125)"/>
     <use xlink:href="#DejaVuSerif-74" transform="translate(15429.195527 0.43125)"/>
     <use xlink:href="#DejaVuSerif-74" transform="translate(15469.381074 0.43125)"/>
     <use xlink:href="#DejaVuSerif-65" transform="translate(15509.56662 0.43125)"/>
     <use xlink:href="#DejaVuSerif-6e" transform="translate(15568.746308 0.43125)"/>
     <use xlink:href="#DejaVuSerif-20" transform="translate(15633.150605 0.43125)"/>
     <use xlink:href="#DejaVuSerif-61" transform="translate(15664.937714 0.43125)"/>
     <use xlink:href="#DejaVuSerif-73" transform="translate(15724.556855 0.43125)"/>
     <use xlink:href="#DejaVuSerif-20" transform="translate(15775.875214 0.43125)"/>
     <use xlink:href="#Cmmi10-43" transform="translate(15807.662324 0.43125)"/>
     <use xlink:href="#Cmr10-32" transform="translate(15890.88123 38.695313) scale(0.7)"/>
     <use xlink:href="#DejaVuSerif-20" transform="translate(15932.258574 0.43125)"/>
     <use xlink:href="#DejaVuSerif-66" transform="translate(15964.045683 0.43125)"/>
     <use xlink:href="#DejaVuSerif-6f" transform="translate(16001.057402 0.43125)"/>
     <use xlink:href="#DejaVuSerif-72" transform="translate(16061.26248 0.43125)"/>
     <use xlink:href="#DejaVuSerif-20" transform="translate(16109.065214 0.43125)"/>
     <use xlink:href="#DejaVuSerif-73" transform="translate(16140.852324 0.43125)"/>
     <use xlink:href="#DejaVuSerif-6f" transform="translate(16192.170683 0.43125)"/>
     <use xlink:href="#DejaVuSerif-6d" transform="translate(16252.375761 0.43125)"/>
     <use xlink:href="#DejaVuSerif-65" transform="translate(16347.19998 0.43125)"/>
     <use xlink:href="#DejaVuSerif-20" transform="translate(16406.379667 0.43125)"/>
     <use xlink:href="#Cmmi10-43" transform="translate(16438.166777 0.43125)"/>
     <use xlink:href="#Cmsy10-32" transform="translate(16527.112089 0.43125)"/>
     <use xlink:href="#Cmmi10-47" transform="translate(16611.272245 0.43125)"/>
     <use xlink:href="#DejaVuSerif-20" transform="translate(16689.885527 0.43125)"/>
     <use xlink:href="#DejaVuSerif-61" transform="translate(16721.672636 0.43125)"/>
     <use xlink:href="#DejaVuSerif-6e" transform="translate(16781.291777 0.43125)"/>
     <use xlink:href="#DejaVuSerif-64" transform="translate(16845.696074 0.43125)"/>
     <use xlink:href="#DejaVuSerif-20" transform="translate(16909.709745 0.43125)"/>
     <use xlink:href="#DejaVuSerif-65" transform="translate(16941.496855 0.43125)"/>
     <use xlink:href="#DejaVuSerif-78" transform="translate(17000.676542 0.43125)"/>
     <use xlink:href="#DejaVuSerif-70" transform="translate(17057.073027 0.43125)"/>
     <use xlink:href="#DejaVuSerif-72" transform="translate(17121.086699 0.43125)"/>
     <use xlink:href="#DejaVuSerif-65" transform="translate(17168.889433 0.43125)"/>
     <use xlink:href="#DejaVuSerif-73" transform="translate(17228.06912 0.43125)"/>
     <use xlink:href="#DejaVuSerif-73" transform="translate(17279.38748 0.43125)"/>
     <use xlink:href="#DejaVuSerif-20" transform="translate(17330.705839 0.43125)"/>
     <use xlink:href="#DejaVuSerif-65" transform="translate(17362.492949 0.43125)"/>
     <use xlink:href="#DejaVuSerif-61" transform="translate(17421.672636 0.43125)"/>
     <use xlink:href="#DejaVuSerif-63" transform="translate(17481.291777 0.43125)"/>
     <use xlink:href="#DejaVuSerif-68" transform="translate(17537.297636 0.43125)"/>
     <use xlink:href="#DejaVuSerif-20" transform="translate(17601.701933 0.43125)"/>
     <use xlink:href="#DejaVuSerif-73" transform="translate(17633.489042 0.43125)"/>
     <use xlink:href="#DejaVuSerif-75" transform="translate(17684.807402 0.43125)"/>
     <use xlink:href="#DejaVuSerif-63" transform="translate(17749.211699 0.43125)"/>
     <use xlink:href="#DejaVuSerif-68" transform="translate(17805.217558 0.43125)"/>
     <use xlink:href="#DejaVuSerif-20" transform="translate(17869.621855 0.43125)"/>
     <use xlink:href="#DejaVuSerif-73" transform="translate(17901.408964 0.43125)"/>
     <use xlink:href="#DejaVuSerif-71" transform="translate(17952.727324 0.43125)"/>
     <use xlink:href="#DejaVuSerif-75" transform="translate(18016.740995 0.43125)"/>
     <use xlink:href="#DejaVuSerif-61" transform="translate(18081.145292 0.43125)"/>
     <use xlink:href="#DejaVuSerif-72" transform="translate(18140.764433 0.43125)"/>
     <use xlink:href="#DejaVuSerif-65" transform="translate(18188.567167 0.43125)"/>
     <use xlink:href="#DejaVuSerif-20" transform="translate(18247.746855 0.43125)"/>
     <use xlink:href="#DejaVuSerif-61" transform="translate(18279.533964 0.43125)"/>
     <use xlink:href="#DejaVuSerif-73" transform="translate(18339.153105 0.43125)"/>
     <use xlink:href="#DejaVuSerif-20" transform="translate(18390.471464 0.43125)"/>
     <use xlink:href="#DejaVuSerif-61" transform="translate(18422.258574 0.43125)"/>
     <use xlink:href="#DejaVuSerif-20" transform="translate(18481.877714 0.43125)"/>
     <use xlink:href="#DejaVuSerif-77" transform="translate(18513.664824 0.43125)"/>
     <use xlink:href="#DejaVuSerif-6f" transform="translate(18599.260527 0.43125)"/>
     <use xlink:href="#DejaVuSerif-72" transform="translate(18659.465605 0.43125)"/>
     <use xlink:href="#DejaVuSerif-64" transform="translate(18707.268339 0.43125)"/>
     <use xlink:href="#DejaVuSerif-20" transform="translate(18771.282011 0.43125)"/>
     <use xlink:href="#DejaVuSerif-69" transform="translate(18803.06912 0.43125)"/>
     <use xlink:href="#DejaVuSerif-6e" transform="translate(18835.051542 0.43125)"/>
     <use xlink:href="#DejaVuSerif-20" transform="translate(18899.455839 0.43125)"/>
     <use xlink:href="#Cmmi10-41" transform="translate(18931.242949 0.43125)"/>
     <use xlink:href="#DejaVuSerif-20" transform="translate(19006.242949 0.43125)"/>
     <use xlink:href="#DejaVuSerif-61" transform="translate(19038.030058 0.43125)"/>
     <use xlink:href="#DejaVuSerif-6e" transform="translate(19097.649199 0.43125)"/>
     <use xlink:href="#DejaVuSerif-64" transform="translate(19162.053495 0.43125)"/>
     <use xlink:href="#DejaVuSerif-20" transform="translate(19226.067167 0.43125)"/>
     <use xlink:href="#Cmmi10-42" transform="translate(19257.854277 0.43125)"/>
     <use xlink:href="#DejaVuSerif-2e" transform="translate(19333.635527 0.43125)"/>
    </g>
   </g>
  </g>
 </g>
</svg>
