<?xml version="1.0" encoding="utf-8" standalone="no"?>
<!DOCTYPE svg PUBLIC "-//W3C//DTD SVG 1.1//EN"
  "http://www.w3.org/Graphics/SVG/1.1/DTD/svg11.dtd">
<svg xmlns:xlink="http://www.w3.org/1999/xlink" width="1115.52pt" height="180.72pt" viewBox="0 0 1115.52 180.72" xmlns="http://www.w3.org/2000/svg" version="1.1">
 <metadata>
  <rdf:RDF xmlns:dc="http://purl.org/dc/elements/1.1/" xmlns:cc="http://creativecommons.org/ns#" xmlns:rdf="http://www.w3.org/1999/02/22-rdf-syntax-ns#">
   <cc:Work>
    <dc:type rdf:resource="http://purl.org/dc/dcmitype/StillImage"/>
    <dc:date>2025-05-29T18:44:21.726824</dc:date>
    <dc:format>image/svg+xml</dc:format>
    <dc:creator>
     <cc:Agent>
      <dc:title>Matplotlib v3.10.3, https://matplotlib.org/</dc:title>
     </cc:Agent>
    </dc:creator>
   </cc:Work>
  </rdf:RDF>
 </metadata>
 <defs>
  <style type="text/css">*{stroke-linejoin: round; stroke-linecap: butt}</style>
 </defs>
 <g id="figure_1">
  <g id="patch_1">
   <path d="M 0 180.72 
L 1115.52 180.72 
L 1115.52 0 
L 0 0 
z
" style="fill: #ffffff"/>
  </g>
  <g id="axes_1">
   <g id="text_1">
    <!-- Let $A$ be the set of all integers $n$ such that $1 \leqq n \leqq 2021$ and $\gcd(n,2021)=1$. For every nonnegative integer $j$, let $S(j)=\sum_{n \in A}n^j$. Determine all values of $j$ such that $S(j)$ is a multiple of $2021$. -->
    <g transform="translate(7.2 90.06) scale(0.12 -0.12)">
     <defs>
      <path id="DejaVuSerif-4c" d="M 353 0 
L 353 331 
L 947 331 
L 947 4331 
L 353 4331 
L 353 4666 
L 2175 4666 
L 2175 4331 
L 1581 4331 
L 1581 384 
L 3713 384 
L 3713 1166 
L 4097 1166 
L 4097 0 
L 353 0 
z
" transform="scale(0.015625)"/>
      <path id="DejaVuSerif-65" d="M 3469 1600 
L 991 1600 
L 991 1575 
Q 991 903 1244 561 
Q 1497 219 1991 219 
Q 2369 219 2611 417 
Q 2853 616 2950 1006 
L 3413 1006 
Q 3275 459 2904 184 
Q 2534 -91 1931 -91 
Q 1203 -91 761 389 
Q 319 869 319 1663 
Q 319 2450 753 2931 
Q 1188 3413 1894 3413 
Q 2647 3413 3050 2948 
Q 3453 2484 3469 1600 
z
M 2791 1931 
Q 2772 2513 2545 2808 
Q 2319 3103 1894 3103 
Q 1497 3103 1269 2806 
Q 1041 2509 991 1931 
L 2791 1931 
z
" transform="scale(0.015625)"/>
      <path id="DejaVuSerif-74" d="M 691 2988 
L 184 2988 
L 184 3322 
L 691 3322 
L 691 4353 
L 1269 4353 
L 1269 3322 
L 2350 3322 
L 2350 2988 
L 1269 2988 
L 1269 878 
Q 1269 456 1350 337 
Q 1431 219 1650 219 
Q 1875 219 1978 351 
Q 2081 484 2088 781 
L 2522 781 
Q 2497 328 2275 118 
Q 2053 -91 1600 -91 
Q 1103 -91 897 129 
Q 691 350 691 878 
L 691 2988 
z
" transform="scale(0.015625)"/>
      <path id="DejaVuSerif-20" transform="scale(0.015625)"/>
      <path id="Cmmi10-41" d="M 288 0 
Q 225 0 225 84 
Q 250 225 306 225 
Q 566 225 755 328 
Q 944 431 1081 647 
Q 1094 659 1094 659 
L 3378 4513 
Q 3428 4581 3500 4581 
L 3584 4581 
Q 3603 4581 3622 4573 
Q 3641 4566 3655 4548 
Q 3669 4531 3669 4513 
L 4056 378 
Q 4056 350 4084 294 
Q 4147 225 4563 225 
Q 4628 225 4628 141 
Q 4606 56 4592 28 
Q 4578 0 4519 0 
L 2919 0 
Q 2859 0 2859 84 
Q 2894 225 2944 225 
Q 3450 225 3481 397 
L 3384 1453 
L 1806 1453 
L 1294 594 
Q 1247 525 1247 434 
Q 1247 322 1355 273 
Q 1463 225 1594 225 
Q 1656 225 1656 141 
Q 1634 50 1621 25 
Q 1609 0 1550 0 
L 288 0 
z
M 1931 1678 
L 3359 1678 
L 3169 3750 
L 1931 1678 
z
" transform="scale(0.015625)"/>
      <path id="DejaVuSerif-62" d="M 738 331 
L 738 4531 
L 184 4531 
L 184 4863 
L 1313 4863 
L 1313 2803 
Q 1481 3116 1742 3264 
Q 2003 3413 2388 3413 
Q 3000 3413 3387 2928 
Q 3775 2444 3775 1663 
Q 3775 881 3387 395 
Q 3000 -91 2388 -91 
Q 2003 -91 1742 57 
Q 1481 206 1313 519 
L 1313 0 
L 184 0 
L 184 331 
L 738 331 
z
M 1313 1497 
Q 1313 897 1542 583 
Q 1772 269 2209 269 
Q 2650 269 2876 622 
Q 3103 975 3103 1663 
Q 3103 2353 2876 2703 
Q 2650 3053 2209 3053 
Q 1772 3053 1542 2737 
Q 1313 2422 1313 1825 
L 1313 1497 
z
" transform="scale(0.015625)"/>
      <path id="DejaVuSerif-68" d="M 263 0 
L 263 331 
L 781 331 
L 781 4531 
L 231 4531 
L 231 4863 
L 1356 4863 
L 1356 2731 
Q 1516 3069 1770 3241 
Q 2025 3413 2363 3413 
Q 2913 3413 3172 3097 
Q 3431 2781 3431 2113 
L 3431 331 
L 3944 331 
L 3944 0 
L 2356 0 
L 2356 331 
L 2853 331 
L 2853 1931 
Q 2853 2541 2704 2764 
Q 2556 2988 2175 2988 
Q 1775 2988 1565 2697 
Q 1356 2406 1356 1850 
L 1356 331 
L 1856 331 
L 1856 0 
L 263 0 
z
" transform="scale(0.015625)"/>
      <path id="DejaVuSerif-73" d="M 359 184 
L 359 959 
L 691 959 
Q 703 588 923 403 
Q 1144 219 1575 219 
Q 1963 219 2166 364 
Q 2369 509 2369 788 
Q 2369 1006 2220 1140 
Q 2072 1275 1594 1428 
L 1178 1569 
Q 750 1706 558 1912 
Q 366 2119 366 2438 
Q 366 2894 700 3153 
Q 1034 3413 1625 3413 
Q 1888 3413 2178 3344 
Q 2469 3275 2778 3144 
L 2778 2419 
L 2447 2419 
Q 2434 2741 2221 2922 
Q 2009 3103 1644 3103 
Q 1281 3103 1095 2975 
Q 909 2847 909 2591 
Q 909 2381 1050 2254 
Q 1191 2128 1613 1997 
L 2069 1856 
Q 2541 1709 2748 1489 
Q 2956 1269 2956 922 
Q 2956 450 2595 179 
Q 2234 -91 1600 -91 
Q 1278 -91 972 -22 
Q 666 47 359 184 
z
" transform="scale(0.015625)"/>
      <path id="DejaVuSerif-6f" d="M 1925 219 
Q 2388 219 2623 584 
Q 2859 950 2859 1663 
Q 2859 2375 2623 2739 
Q 2388 3103 1925 3103 
Q 1463 3103 1227 2739 
Q 991 2375 991 1663 
Q 991 950 1228 584 
Q 1466 219 1925 219 
z
M 1925 -91 
Q 1200 -91 759 389 
Q 319 869 319 1663 
Q 319 2456 758 2934 
Q 1197 3413 1925 3413 
Q 2653 3413 3092 2934 
Q 3531 2456 3531 1663 
Q 3531 869 3092 389 
Q 2653 -91 1925 -91 
z
" transform="scale(0.015625)"/>
      <path id="DejaVuSerif-66" d="M 2753 4078 
L 2450 4078 
Q 2447 4313 2317 4434 
Q 2188 4556 1941 4556 
Q 1619 4556 1487 4379 
Q 1356 4203 1356 3750 
L 1356 3322 
L 2284 3322 
L 2284 2988 
L 1356 2988 
L 1356 331 
L 2094 331 
L 2094 0 
L 231 0 
L 231 331 
L 781 331 
L 781 2988 
L 231 2988 
L 231 3322 
L 781 3322 
L 781 3738 
Q 781 4294 1070 4578 
Q 1359 4863 1919 4863 
Q 2128 4863 2337 4825 
Q 2547 4788 2753 4709 
L 2753 4078 
z
" transform="scale(0.015625)"/>
      <path id="DejaVuSerif-61" d="M 2547 1044 
L 2547 1747 
L 1806 1747 
Q 1378 1747 1168 1562 
Q 959 1378 959 997 
Q 959 650 1171 447 
Q 1384 244 1747 244 
Q 2106 244 2326 466 
Q 2547 688 2547 1044 
z
M 3122 2075 
L 3122 331 
L 3634 331 
L 3634 0 
L 2547 0 
L 2547 359 
Q 2356 128 2106 18 
Q 1856 -91 1522 -91 
Q 969 -91 644 203 
Q 319 497 319 997 
Q 319 1513 691 1797 
Q 1063 2081 1741 2081 
L 2547 2081 
L 2547 2309 
Q 2547 2688 2317 2895 
Q 2088 3103 1672 3103 
Q 1328 3103 1125 2947 
Q 922 2791 872 2484 
L 575 2484 
L 575 3156 
Q 875 3284 1158 3348 
Q 1441 3413 1709 3413 
Q 2400 3413 2761 3070 
Q 3122 2728 3122 2075 
z
" transform="scale(0.015625)"/>
      <path id="DejaVuSerif-6c" d="M 1313 331 
L 1856 331 
L 1856 0 
L 184 0 
L 184 331 
L 738 331 
L 738 4531 
L 184 4531 
L 184 4863 
L 1313 4863 
L 1313 331 
z
" transform="scale(0.015625)"/>
      <path id="DejaVuSerif-69" d="M 622 4353 
Q 622 4497 726 4603 
Q 831 4709 978 4709 
Q 1122 4709 1226 4603 
Q 1331 4497 1331 4353 
Q 1331 4206 1228 4103 
Q 1125 4000 978 4000 
Q 831 4000 726 4103 
Q 622 4206 622 4353 
z
M 1356 331 
L 1900 331 
L 1900 0 
L 231 0 
L 231 331 
L 781 331 
L 781 2988 
L 231 2988 
L 231 3322 
L 1356 3322 
L 1356 331 
z
" transform="scale(0.015625)"/>
      <path id="DejaVuSerif-6e" d="M 263 0 
L 263 331 
L 781 331 
L 781 2988 
L 231 2988 
L 231 3322 
L 1356 3322 
L 1356 2731 
Q 1516 3069 1770 3241 
Q 2025 3413 2363 3413 
Q 2913 3413 3172 3097 
Q 3431 2781 3431 2113 
L 3431 331 
L 3944 331 
L 3944 0 
L 2356 0 
L 2356 331 
L 2853 331 
L 2853 1931 
Q 2853 2541 2703 2767 
Q 2553 2994 2175 2994 
Q 1775 2994 1565 2701 
Q 1356 2409 1356 1850 
L 1356 331 
L 1856 331 
L 1856 0 
L 263 0 
z
" transform="scale(0.015625)"/>
      <path id="DejaVuSerif-67" d="M 3359 2988 
L 3359 72 
Q 3359 -644 2965 -1033 
Q 2572 -1422 1844 -1422 
Q 1516 -1422 1216 -1362 
Q 916 -1303 641 -1184 
L 641 -488 
L 941 -488 
Q 997 -813 1206 -963 
Q 1416 -1113 1806 -1113 
Q 2313 -1113 2548 -827 
Q 2784 -541 2784 72 
L 2784 519 
Q 2616 206 2355 57 
Q 2094 -91 1709 -91 
Q 1097 -91 708 395 
Q 319 881 319 1663 
Q 319 2444 706 2928 
Q 1094 3413 1709 3413 
Q 2094 3413 2355 3264 
Q 2616 3116 2784 2803 
L 2784 3322 
L 3909 3322 
L 3909 2988 
L 3359 2988 
z
M 2784 1825 
Q 2784 2422 2554 2737 
Q 2325 3053 1888 3053 
Q 1444 3053 1217 2703 
Q 991 2353 991 1663 
Q 991 975 1217 622 
Q 1444 269 1888 269 
Q 2325 269 2554 583 
Q 2784 897 2784 1497 
L 2784 1825 
z
" transform="scale(0.015625)"/>
      <path id="DejaVuSerif-72" d="M 3059 3328 
L 3059 2497 
L 2728 2497 
Q 2713 2744 2591 2866 
Q 2469 2988 2234 2988 
Q 1809 2988 1582 2694 
Q 1356 2400 1356 1850 
L 1356 331 
L 2022 331 
L 2022 0 
L 263 0 
L 263 331 
L 781 331 
L 781 2994 
L 231 2994 
L 231 3322 
L 1356 3322 
L 1356 2731 
Q 1525 3078 1790 3245 
Q 2056 3413 2438 3413 
Q 2578 3413 2733 3391 
Q 2888 3369 3059 3328 
z
" transform="scale(0.015625)"/>
      <path id="Cmmi10-6e" d="M 494 109 
Q 494 147 500 166 
L 978 2075 
Q 1025 2253 1025 2388 
Q 1025 2663 838 2663 
Q 638 2663 541 2423 
Q 444 2184 353 1819 
Q 353 1800 334 1789 
Q 316 1778 300 1778 
L 225 1778 
Q 203 1778 187 1801 
Q 172 1825 172 1844 
Q 241 2122 305 2315 
Q 369 2509 505 2668 
Q 641 2828 844 2828 
Q 1084 2828 1268 2676 
Q 1453 2525 1453 2291 
Q 1644 2541 1900 2684 
Q 2156 2828 2444 2828 
Q 2672 2828 2837 2750 
Q 3003 2672 3095 2514 
Q 3188 2356 3188 2138 
Q 3188 1875 3070 1503 
Q 2953 1131 2778 672 
Q 2688 463 2688 288 
Q 2688 97 2834 97 
Q 3084 97 3251 365 
Q 3419 634 3488 941 
Q 3500 978 3541 978 
L 3616 978 
Q 3641 978 3658 962 
Q 3675 947 3675 922 
Q 3675 916 3669 903 
Q 3581 541 3364 234 
Q 3147 -72 2822 -72 
Q 2597 -72 2437 83 
Q 2278 238 2278 459 
Q 2278 578 2328 709 
Q 2409 919 2514 1209 
Q 2619 1500 2686 1765 
Q 2753 2031 2753 2234 
Q 2753 2413 2679 2538 
Q 2606 2663 2431 2663 
Q 2197 2663 2000 2559 
Q 1803 2456 1656 2286 
Q 1509 2116 1388 1881 
L 953 141 
Q 931 53 854 -9 
Q 778 -72 684 -72 
Q 606 -72 550 -22 
Q 494 28 494 109 
z
" transform="scale(0.015625)"/>
      <path id="DejaVuSerif-75" d="M 2266 3322 
L 3341 3322 
L 3341 331 
L 3884 331 
L 3884 0 
L 2766 0 
L 2766 588 
Q 2606 256 2353 82 
Q 2100 -91 1766 -91 
Q 1213 -91 952 223 
Q 691 538 691 1209 
L 691 2988 
L 172 2988 
L 172 3322 
L 1269 3322 
L 1269 1388 
Q 1269 781 1417 556 
Q 1566 331 1947 331 
Q 2347 331 2556 625 
Q 2766 919 2766 1478 
L 2766 2988 
L 2266 2988 
L 2266 3322 
z
" transform="scale(0.015625)"/>
      <path id="DejaVuSerif-63" d="M 3291 997 
Q 3169 466 2822 187 
Q 2475 -91 1925 -91 
Q 1200 -91 759 389 
Q 319 869 319 1663 
Q 319 2459 759 2936 
Q 1200 3413 1925 3413 
Q 2241 3413 2553 3339 
Q 2866 3266 3181 3116 
L 3181 2266 
L 2847 2266 
Q 2781 2703 2561 2903 
Q 2341 3103 1931 3103 
Q 1466 3103 1228 2742 
Q 991 2381 991 1663 
Q 991 944 1227 581 
Q 1463 219 1931 219 
Q 2303 219 2525 412 
Q 2747 606 2828 997 
L 3291 997 
z
" transform="scale(0.015625)"/>
      <path id="Cmr10-31" d="M 594 0 
L 594 225 
Q 1394 225 1394 428 
L 1394 3788 
Q 1063 3628 556 3628 
L 556 3853 
Q 1341 3853 1741 4263 
L 1831 4263 
Q 1853 4263 1873 4245 
Q 1894 4228 1894 4206 
L 1894 428 
Q 1894 225 2694 225 
L 2694 0 
L 594 0 
z
" transform="scale(0.015625)"/>
      <path id="STIXGeneral-Regular-2266" d="M 3981 1024 
L 365 2771 
L 365 2835 
L 3981 4595 
L 3981 4179 
L 1216 2803 
L 3981 1427 
L 3981 1024 
z
M 3981 -77 
L 365 -77 
L 365 346 
L 3981 346 
L 3981 -77 
z
M 3981 -1350 
L 365 -1350 
L 365 -928 
L 3981 -928 
L 3981 -1350 
z
" transform="scale(0.015625)"/>
      <path id="Cmr10-32" d="M 319 0 
L 319 172 
Q 319 188 331 206 
L 1325 1306 
Q 1550 1550 1690 1715 
Q 1831 1881 1968 2097 
Q 2106 2313 2186 2536 
Q 2266 2759 2266 3009 
Q 2266 3272 2169 3511 
Q 2072 3750 1880 3894 
Q 1688 4038 1416 4038 
Q 1138 4038 916 3870 
Q 694 3703 603 3438 
Q 628 3444 672 3444 
Q 816 3444 917 3347 
Q 1019 3250 1019 3097 
Q 1019 2950 917 2848 
Q 816 2747 672 2747 
Q 522 2747 420 2851 
Q 319 2956 319 3097 
Q 319 3338 409 3548 
Q 500 3759 670 3923 
Q 841 4088 1055 4175 
Q 1269 4263 1509 4263 
Q 1875 4263 2190 4108 
Q 2506 3953 2690 3670 
Q 2875 3388 2875 3009 
Q 2875 2731 2753 2481 
Q 2631 2231 2440 2026 
Q 2250 1822 1953 1562 
Q 1656 1303 1563 1216 
L 838 519 
L 1453 519 
Q 1906 519 2211 526 
Q 2516 534 2534 550 
Q 2609 631 2688 1141 
L 2875 1141 
L 2694 0 
L 319 0 
z
" transform="scale(0.015625)"/>
      <path id="Cmr10-30" d="M 1600 -141 
Q 816 -141 533 504 
Q 250 1150 250 2041 
Q 250 2597 351 3087 
Q 453 3578 754 3920 
Q 1056 4263 1600 4263 
Q 2022 4263 2290 4056 
Q 2559 3850 2700 3523 
Q 2841 3197 2892 2823 
Q 2944 2450 2944 2041 
Q 2944 1491 2842 1011 
Q 2741 531 2444 195 
Q 2147 -141 1600 -141 
z
M 1600 25 
Q 1956 25 2131 390 
Q 2306 756 2347 1200 
Q 2388 1644 2388 2144 
Q 2388 2625 2347 3031 
Q 2306 3438 2132 3767 
Q 1959 4097 1600 4097 
Q 1238 4097 1063 3765 
Q 888 3434 847 3029 
Q 806 2625 806 2144 
Q 806 1788 823 1472 
Q 841 1156 916 820 
Q 991 484 1158 254 
Q 1325 25 1600 25 
z
" transform="scale(0.015625)"/>
      <path id="DejaVuSerif-64" d="M 3359 331 
L 3909 331 
L 3909 0 
L 2784 0 
L 2784 519 
Q 2616 206 2355 57 
Q 2094 -91 1709 -91 
Q 1097 -91 708 395 
Q 319 881 319 1663 
Q 319 2444 706 2928 
Q 1094 3413 1709 3413 
Q 2094 3413 2355 3264 
Q 2616 3116 2784 2803 
L 2784 4531 
L 2241 4531 
L 2241 4863 
L 3359 4863 
L 3359 331 
z
M 2784 1497 
L 2784 1825 
Q 2784 2422 2554 2737 
Q 2325 3053 1888 3053 
Q 1444 3053 1217 2703 
Q 991 2353 991 1663 
Q 991 975 1217 622 
Q 1444 269 1888 269 
Q 2325 269 2554 583 
Q 2784 897 2784 1497 
z
" transform="scale(0.015625)"/>
      <path id="Cmr10-67" d="M 178 -500 
Q 178 -272 343 -101 
Q 509 69 738 141 
Q 609 238 542 384 
Q 475 531 475 697 
Q 475 997 666 1228 
Q 372 1516 372 1888 
Q 372 2088 458 2263 
Q 544 2438 697 2566 
Q 850 2694 1037 2761 
Q 1225 2828 1422 2828 
Q 1803 2828 2106 2606 
Q 2238 2747 2417 2823 
Q 2597 2900 2791 2900 
Q 2928 2900 3015 2801 
Q 3103 2703 3103 2566 
Q 3103 2488 3043 2428 
Q 2984 2369 2906 2369 
Q 2825 2369 2765 2428 
Q 2706 2488 2706 2566 
Q 2706 2684 2784 2731 
Q 2453 2731 2216 2503 
Q 2331 2388 2401 2220 
Q 2472 2053 2472 1888 
Q 2472 1616 2322 1398 
Q 2172 1181 1926 1061 
Q 1681 941 1422 941 
Q 1072 941 781 1131 
Q 691 1006 691 850 
Q 691 681 802 554 
Q 913 428 1081 428 
L 1606 428 
Q 1988 428 2294 359 
Q 2600 291 2808 84 
Q 3016 -122 3016 -500 
Q 3016 -781 2778 -967 
Q 2541 -1153 2211 -1236 
Q 1881 -1319 1600 -1319 
Q 1316 -1319 984 -1236 
Q 653 -1153 415 -967 
Q 178 -781 178 -500 
z
M 538 -500 
Q 538 -716 713 -861 
Q 888 -1006 1134 -1076 
Q 1381 -1147 1600 -1147 
Q 1816 -1147 2062 -1076 
Q 2309 -1006 2482 -861 
Q 2656 -716 2656 -500 
Q 2656 -166 2350 -67 
Q 2044 31 1606 31 
L 1081 31 
Q 934 31 811 -39 
Q 688 -109 613 -236 
Q 538 -363 538 -500 
z
M 1422 1113 
Q 1966 1113 1966 1888 
Q 1966 2222 1850 2439 
Q 1734 2656 1422 2656 
Q 1109 2656 993 2439 
Q 878 2222 878 1888 
Q 878 1675 922 1503 
Q 966 1331 1084 1222 
Q 1203 1113 1422 1113 
z
" transform="scale(0.015625)"/>
      <path id="Cmr10-63" d="M 1594 -72 
Q 1206 -72 890 129 
Q 575 331 394 667 
Q 213 1003 213 1381 
Q 213 1759 392 2106 
Q 572 2453 889 2661 
Q 1206 2869 1594 2869 
Q 1969 2869 2276 2722 
Q 2584 2575 2584 2241 
Q 2584 2116 2495 2023 
Q 2406 1931 2278 1931 
Q 2150 1931 2061 2023 
Q 1972 2116 1972 2241 
Q 1972 2353 2044 2436 
Q 2116 2519 2222 2541 
Q 2000 2681 1600 2681 
Q 1294 2681 1106 2478 
Q 919 2275 844 1975 
Q 769 1675 769 1381 
Q 769 1072 861 783 
Q 953 494 1158 305 
Q 1363 116 1672 116 
Q 1975 116 2187 302 
Q 2400 488 2478 788 
Q 2478 825 2528 825 
L 2606 825 
Q 2625 825 2640 808 
Q 2656 791 2656 769 
L 2656 750 
Q 2559 372 2271 150 
Q 1984 -72 1594 -72 
z
" transform="scale(0.015625)"/>
      <path id="Cmr10-64" d="M 1563 -72 
Q 1184 -72 871 133 
Q 559 338 386 672 
Q 213 1006 213 1381 
Q 213 1769 402 2101 
Q 591 2434 916 2631 
Q 1241 2828 1631 2828 
Q 1866 2828 2075 2729 
Q 2284 2631 2438 2456 
L 2438 3788 
Q 2438 3959 2386 4036 
Q 2334 4113 2239 4130 
Q 2144 4147 1941 4147 
L 1941 4372 
L 2888 4441 
L 2888 581 
Q 2888 413 2939 336 
Q 2991 259 3086 242 
Q 3181 225 3384 225 
L 3384 0 
L 2419 -72 
L 2419 331 
Q 2253 141 2025 34 
Q 1797 -72 1563 -72 
z
M 909 556 
Q 1019 347 1201 222 
Q 1384 97 1600 97 
Q 1866 97 2087 250 
Q 2309 403 2419 647 
L 2419 2181 
Q 2344 2322 2230 2433 
Q 2116 2544 1973 2603 
Q 1831 2663 1672 2663 
Q 1338 2663 1134 2473 
Q 931 2284 850 1990 
Q 769 1697 769 1375 
Q 769 1119 795 928 
Q 822 738 909 556 
z
" transform="scale(0.015625)"/>
      <path id="Cmr10-28" d="M 1984 -1588 
Q 1628 -1306 1370 -942 
Q 1113 -578 948 -165 
Q 784 247 703 697 
Q 622 1147 622 1600 
Q 622 2059 703 2509 
Q 784 2959 951 3375 
Q 1119 3791 1378 4153 
Q 1638 4516 1984 4788 
Q 1984 4800 2016 4800 
L 2075 4800 
Q 2094 4800 2109 4783 
Q 2125 4766 2125 4744 
Q 2125 4716 2113 4703 
Q 1800 4397 1592 4047 
Q 1384 3697 1257 3301 
Q 1131 2906 1075 2482 
Q 1019 2059 1019 1600 
Q 1019 -434 2106 -1491 
Q 2125 -1509 2125 -1544 
Q 2125 -1559 2108 -1579 
Q 2091 -1600 2075 -1600 
L 2016 -1600 
Q 1984 -1600 1984 -1588 
z
" transform="scale(0.015625)"/>
      <path id="Cmmi10-3b" d="M 634 -1153 
Q 634 -1125 659 -1100 
Q 891 -878 1019 -587 
Q 1147 -297 1147 25 
L 1147 103 
Q 1044 0 891 0 
Q 744 0 641 103 
Q 538 206 538 353 
Q 538 503 641 603 
Q 744 703 891 703 
Q 1119 703 1216 492 
Q 1313 281 1313 25 
Q 1313 -331 1170 -651 
Q 1028 -972 769 -1228 
Q 744 -1241 728 -1241 
Q 697 -1241 665 -1212 
Q 634 -1184 634 -1153 
z
" transform="scale(0.015625)"/>
      <path id="Cmr10-29" d="M 416 -1600 
Q 359 -1600 359 -1544 
Q 359 -1516 372 -1503 
Q 1466 -434 1466 1600 
Q 1466 3634 384 4691 
Q 359 4706 359 4744 
Q 359 4766 376 4783 
Q 394 4800 416 4800 
L 475 4800 
Q 494 4800 506 4788 
Q 966 4425 1272 3906 
Q 1578 3388 1720 2800 
Q 1863 2213 1863 1600 
Q 1863 1147 1786 708 
Q 1709 269 1542 -157 
Q 1375 -584 1119 -945 
Q 863 -1306 506 -1588 
Q 494 -1600 475 -1600 
L 416 -1600 
z
" transform="scale(0.015625)"/>
      <path id="Cmr10-3d" d="M 481 850 
Q 428 850 393 890 
Q 359 931 359 978 
Q 359 1031 393 1068 
Q 428 1106 481 1106 
L 4500 1106 
Q 4547 1106 4581 1068 
Q 4616 1031 4616 978 
Q 4616 931 4581 890 
Q 4547 850 4500 850 
L 481 850 
z
M 481 2094 
Q 428 2094 393 2131 
Q 359 2169 359 2222 
Q 359 2269 393 2309 
Q 428 2350 481 2350 
L 4500 2350 
Q 4547 2350 4581 2309 
Q 4616 2269 4616 2222 
Q 4616 2169 4581 2131 
Q 4547 2094 4500 2094 
L 481 2094 
z
" transform="scale(0.015625)"/>
      <path id="DejaVuSerif-2e" d="M 603 325 
Q 603 500 722 622 
Q 841 744 1019 744 
Q 1191 744 1312 622 
Q 1434 500 1434 325 
Q 1434 153 1312 31 
Q 1191 -91 1019 -91 
Q 841 -91 722 29 
Q 603 150 603 325 
z
" transform="scale(0.015625)"/>
      <path id="DejaVuSerif-46" d="M 353 0 
L 353 331 
L 947 331 
L 947 4331 
L 353 4331 
L 353 4666 
L 4172 4666 
L 4172 3628 
L 3788 3628 
L 3788 4281 
L 1581 4281 
L 1581 2719 
L 3175 2719 
L 3175 3303 
L 3559 3303 
L 3559 1753 
L 3175 1753 
L 3175 2338 
L 1581 2338 
L 1581 331 
L 2328 331 
L 2328 0 
L 353 0 
z
" transform="scale(0.015625)"/>
      <path id="DejaVuSerif-76" d="M 1581 0 
L 359 2988 
L -19 2988 
L -19 3322 
L 1509 3322 
L 1509 2988 
L 978 2988 
L 1913 703 
L 2847 2988 
L 2350 2988 
L 2350 3322 
L 3597 3322 
L 3597 2988 
L 3225 2988 
L 2003 0 
L 1581 0 
z
" transform="scale(0.015625)"/>
      <path id="DejaVuSerif-79" d="M 1381 -609 
L 1600 -56 
L 359 2988 
L -19 2988 
L -19 3322 
L 1509 3322 
L 1509 2988 
L 978 2988 
L 1913 703 
L 2847 2988 
L 2350 2988 
L 2350 3322 
L 3597 3322 
L 3597 2988 
L 3225 2988 
L 1703 -750 
Q 1547 -1138 1356 -1280 
Q 1166 -1422 819 -1422 
Q 672 -1422 517 -1397 
Q 363 -1372 206 -1325 
L 206 -691 
L 500 -691 
Q 519 -903 608 -995 
Q 697 -1088 884 -1088 
Q 1056 -1088 1161 -992 
Q 1266 -897 1381 -609 
z
" transform="scale(0.015625)"/>
      <path id="Cmmi10-6a" d="M -84 -909 
Q -84 -753 23 -639 
Q 131 -525 288 -525 
Q 391 -525 461 -589 
Q 531 -653 531 -756 
Q 531 -878 454 -976 
Q 378 -1075 263 -1106 
Q 375 -1147 488 -1147 
Q 759 -1147 959 -895 
Q 1159 -644 1241 -331 
L 1844 2075 
Q 1888 2259 1888 2388 
Q 1888 2663 1697 2663 
Q 1416 2663 1205 2408 
Q 994 2153 863 1819 
Q 850 1778 813 1778 
L 738 1778 
Q 684 1778 684 1838 
L 684 1856 
Q 828 2241 1093 2534 
Q 1359 2828 1709 2828 
Q 1975 2828 2145 2662 
Q 2316 2497 2316 2241 
Q 2316 2150 2297 2059 
L 1691 -372 
Q 1625 -631 1440 -847 
Q 1256 -1063 1000 -1188 
Q 744 -1313 475 -1313 
Q 259 -1313 87 -1209 
Q -84 -1106 -84 -909 
z
M 1941 3878 
Q 1941 4019 2050 4125 
Q 2159 4231 2297 4231 
Q 2406 4231 2476 4164 
Q 2547 4097 2547 3994 
Q 2547 3850 2433 3742 
Q 2319 3634 2181 3634 
Q 2078 3634 2009 3706 
Q 1941 3778 1941 3878 
z
" transform="scale(0.015625)"/>
      <path id="DejaVuSerif-2c" d="M 231 -622 
Q 525 -406 662 -114 
Q 800 178 800 594 
L 800 709 
L 1416 709 
Q 1391 175 1164 -208 
Q 938 -591 481 -872 
L 231 -622 
z
" transform="scale(0.015625)"/>
      <path id="Cmmi10-53" d="M 391 -141 
Q 372 -141 356 -119 
Q 341 -97 341 -78 
L 709 1416 
Q 722 1453 763 1453 
L 838 1453 
Q 863 1453 877 1434 
Q 891 1416 891 1388 
Q 838 1169 838 997 
Q 838 534 1156 309 
Q 1475 84 1959 84 
Q 2169 84 2372 187 
Q 2575 291 2726 456 
Q 2878 622 2968 826 
Q 3059 1031 3059 1241 
Q 3059 1466 2940 1642 
Q 2822 1819 2613 1869 
L 1831 2075 
Q 1516 2159 1328 2414 
Q 1141 2669 1141 2988 
Q 1141 3372 1369 3728 
Q 1597 4084 1964 4298 
Q 2331 4513 2713 4513 
Q 3006 4513 3251 4405 
Q 3497 4297 3628 4063 
L 3994 4494 
Q 4031 4513 4038 4513 
L 4078 4513 
Q 4103 4513 4118 4491 
Q 4134 4469 4134 4447 
L 3763 2963 
Q 3753 2919 3713 2919 
L 3634 2919 
Q 3578 2919 3578 2988 
Q 3609 3191 3609 3341 
Q 3609 3638 3507 3858 
Q 3406 4078 3201 4192 
Q 2997 4306 2694 4306 
Q 2438 4306 2184 4159 
Q 1931 4013 1775 3769 
Q 1619 3525 1619 3263 
Q 1619 3056 1739 2897 
Q 1859 2738 2059 2681 
L 2841 2478 
Q 3053 2422 3211 2280 
Q 3369 2138 3450 1942 
Q 3531 1747 3531 1516 
Q 3531 1213 3403 917 
Q 3275 622 3045 378 
Q 2816 134 2525 -3 
Q 2234 -141 1931 -141 
Q 1169 -141 838 306 
L 481 -122 
Q 444 -141 434 -141 
L 391 -141 
z
" transform="scale(0.015625)"/>
      <path id="Cmex10-58" d="M 422 -8959 
Q 359 -8959 359 -8891 
Q 359 -8863 378 -8844 
L 3756 -4909 
L 378 -281 
Q 359 -263 359 -250 
L 359 -56 
Q 359 -34 379 -17 
Q 400 0 422 0 
L 8103 0 
L 8878 -1797 
L 8691 -1797 
Q 8394 -1116 7697 -787 
Q 7000 -459 6242 -382 
Q 5484 -306 4481 -306 
L 1522 -306 
L 4544 -4434 
Q 4556 -4459 4556 -4481 
Q 4556 -4500 4544 -4525 
L 1222 -8391 
L 4544 -8391 
Q 5528 -8391 6289 -8314 
Q 7050 -8238 7739 -7908 
Q 8428 -7578 8691 -6900 
L 8878 -6900 
L 8103 -8959 
L 422 -8959 
z
" transform="scale(0.015625)"/>
      <path id="Cmsy10-32" d="M 1356 403 
Q 1838 0 2497 0 
L 3616 0 
Q 3666 0 3698 -37 
Q 3731 -75 3731 -128 
Q 3731 -175 3698 -215 
Q 3666 -256 3616 -256 
L 2478 -256 
Q 1969 -256 1519 -12 
Q 1069 231 800 657 
Q 531 1084 531 1600 
Q 531 2116 800 2542 
Q 1069 2969 1519 3212 
Q 1969 3456 2478 3456 
L 3616 3456 
Q 3666 3456 3698 3415 
Q 3731 3375 3731 3328 
Q 3731 3275 3698 3237 
Q 3666 3200 3616 3200 
L 2497 3200 
Q 2184 3200 1889 3097 
Q 1594 2994 1356 2797 
Q 1122 2600 958 2304 
Q 794 2009 794 1728 
L 3616 1728 
Q 3666 1728 3698 1687 
Q 3731 1647 3731 1600 
Q 3731 1553 3698 1512 
Q 3666 1472 3616 1472 
L 794 1472 
Q 794 1194 958 897 
Q 1122 600 1356 403 
z
" transform="scale(0.015625)"/>
      <path id="DejaVuSerif-44" d="M 1581 331 
L 2163 331 
Q 3072 331 3558 850 
Q 4044 1369 4044 2338 
Q 4044 3306 3559 3818 
Q 3075 4331 2163 4331 
L 1581 4331 
L 1581 331 
z
M 353 0 
L 353 331 
L 947 331 
L 947 4331 
L 353 4331 
L 353 4666 
L 2209 4666 
Q 3416 4666 4089 4050 
Q 4763 3434 4763 2338 
Q 4763 1238 4088 619 
Q 3413 0 2209 0 
L 353 0 
z
" transform="scale(0.015625)"/>
      <path id="DejaVuSerif-6d" d="M 3316 2675 
Q 3481 3041 3739 3227 
Q 3997 3413 4341 3413 
Q 4863 3413 5119 3089 
Q 5375 2766 5375 2113 
L 5375 331 
L 5894 331 
L 5894 0 
L 4300 0 
L 4300 331 
L 4800 331 
L 4800 2047 
Q 4800 2556 4650 2772 
Q 4500 2988 4153 2988 
Q 3769 2988 3567 2697 
Q 3366 2406 3366 1850 
L 3366 331 
L 3866 331 
L 3866 0 
L 2291 0 
L 2291 331 
L 2791 331 
L 2791 2069 
Q 2791 2566 2641 2777 
Q 2491 2988 2144 2988 
Q 1759 2988 1557 2697 
Q 1356 2406 1356 1850 
L 1356 331 
L 1856 331 
L 1856 0 
L 263 0 
L 263 331 
L 781 331 
L 781 2994 
L 231 2994 
L 231 3322 
L 1356 3322 
L 1356 2731 
Q 1516 3063 1762 3238 
Q 2009 3413 2322 3413 
Q 2709 3413 2968 3220 
Q 3228 3028 3316 2675 
z
" transform="scale(0.015625)"/>
      <path id="DejaVuSerif-70" d="M 1313 1825 
L 1313 1497 
Q 1313 897 1542 583 
Q 1772 269 2209 269 
Q 2650 269 2876 622 
Q 3103 975 3103 1663 
Q 3103 2353 2876 2703 
Q 2650 3053 2209 3053 
Q 1772 3053 1542 2737 
Q 1313 2422 1313 1825 
z
M 738 2988 
L 184 2988 
L 184 3322 
L 1313 3322 
L 1313 2803 
Q 1481 3116 1742 3264 
Q 2003 3413 2388 3413 
Q 3000 3413 3387 2928 
Q 3775 2444 3775 1663 
Q 3775 881 3387 395 
Q 3000 -91 2388 -91 
Q 2003 -91 1742 57 
Q 1481 206 1313 519 
L 1313 -997 
L 1856 -997 
L 1856 -1331 
L 184 -1331 
L 184 -997 
L 738 -997 
L 738 2988 
z
" transform="scale(0.015625)"/>
     </defs>
     <use xlink:href="#DejaVuSerif-4c" transform="translate(0 0.674479)"/>
     <use xlink:href="#DejaVuSerif-65" transform="translate(66.40625 0.674479)"/>
     <use xlink:href="#DejaVuSerif-74" transform="translate(125.585938 0.674479)"/>
     <use xlink:href="#DejaVuSerif-20" transform="translate(165.771484 0.674479)"/>
     <use xlink:href="#Cmmi10-41" transform="translate(197.558594 0.674479)"/>
     <use xlink:href="#DejaVuSerif-20" transform="translate(272.558594 0.674479)"/>
     <use xlink:href="#DejaVuSerif-62" transform="translate(304.345703 0.674479)"/>
     <use xlink:href="#DejaVuSerif-65" transform="translate(368.359375 0.674479)"/>
     <use xlink:href="#DejaVuSerif-20" transform="translate(427.539062 0.674479)"/>
     <use xlink:href="#DejaVuSerif-74" transform="translate(459.326172 0.674479)"/>
     <use xlink:href="#DejaVuSerif-68" transform="translate(499.511719 0.674479)"/>
     <use xlink:href="#DejaVuSerif-65" transform="translate(563.916016 0.674479)"/>
     <use xlink:href="#DejaVuSerif-20" transform="translate(623.095703 0.674479)"/>
     <use xlink:href="#DejaVuSerif-73" transform="translate(654.882812 0.674479)"/>
     <use xlink:href="#DejaVuSerif-65" transform="translate(706.201172 0.674479)"/>
     <use xlink:href="#DejaVuSerif-74" transform="translate(765.380859 0.674479)"/>
     <use xlink:href="#DejaVuSerif-20" transform="translate(805.566406 0.674479)"/>
     <use xlink:href="#DejaVuSerif-6f" transform="translate(837.353516 0.674479)"/>
     <use xlink:href="#DejaVuSerif-66" transform="translate(897.558594 0.674479)"/>
     <use xlink:href="#DejaVuSerif-20" transform="translate(934.570312 0.674479)"/>
     <use xlink:href="#DejaVuSerif-61" transform="translate(966.357422 0.674479)"/>
     <use xlink:href="#DejaVuSerif-6c" transform="translate(1025.976562 0.674479)"/>
     <use xlink:href="#DejaVuSerif-6c" transform="translate(1057.958984 0.674479)"/>
     <use xlink:href="#DejaVuSerif-20" transform="translate(1089.941406 0.674479)"/>
     <use xlink:href="#DejaVuSerif-69" transform="translate(1121.728516 0.674479)"/>
     <use xlink:href="#DejaVuSerif-6e" transform="translate(1153.710938 0.674479)"/>
     <use xlink:href="#DejaVuSerif-74" transform="translate(1218.115234 0.674479)"/>
     <use xlink:href="#DejaVuSerif-65" transform="translate(1258.300781 0.674479)"/>
     <use xlink:href="#DejaVuSerif-67" transform="translate(1317.480469 0.674479)"/>
     <use xlink:href="#DejaVuSerif-65" transform="translate(1381.494141 0.674479)"/>
     <use xlink:href="#DejaVuSerif-72" transform="translate(1440.673828 0.674479)"/>
     <use xlink:href="#DejaVuSerif-73" transform="translate(1488.476562 0.674479)"/>
     <use xlink:href="#DejaVuSerif-20" transform="translate(1539.794922 0.674479)"/>
     <use xlink:href="#Cmmi10-6e" transform="translate(1571.582031 0.674479)"/>
     <use xlink:href="#DejaVuSerif-20" transform="translate(1631.591797 0.674479)"/>
     <use xlink:href="#DejaVuSerif-73" transform="translate(1663.378906 0.674479)"/>
     <use xlink:href="#DejaVuSerif-75" transform="translate(1714.697266 0.674479)"/>
     <use xlink:href="#DejaVuSerif-63" transform="translate(1779.101562 0.674479)"/>
     <use xlink:href="#DejaVuSerif-68" transform="translate(1835.107422 0.674479)"/>
     <use xlink:href="#DejaVuSerif-20" transform="translate(1899.511719 0.674479)"/>
     <use xlink:href="#DejaVuSerif-74" transform="translate(1931.298828 0.674479)"/>
     <use xlink:href="#DejaVuSerif-68" transform="translate(1971.484375 0.674479)"/>
     <use xlink:href="#DejaVuSerif-61" transform="translate(2035.888672 0.674479)"/>
     <use xlink:href="#DejaVuSerif-74" transform="translate(2095.507812 0.674479)"/>
     <use xlink:href="#DejaVuSerif-20" transform="translate(2135.693359 0.674479)"/>
     <use xlink:href="#Cmr10-31" transform="translate(2167.480469 0.674479)"/>
     <use xlink:href="#STIXGeneral-Regular-2266" transform="translate(2235.039062 0.674479)"/>
     <use xlink:href="#Cmmi10-6e" transform="translate(2321.097641 0.674479)"/>
     <use xlink:href="#STIXGeneral-Regular-2266" transform="translate(2398.666 0.674479)"/>
     <use xlink:href="#Cmr10-32" transform="translate(2484.724579 0.674479)"/>
     <use xlink:href="#Cmr10-30" transform="translate(2534.724579 0.674479)"/>
     <use xlink:href="#Cmr10-32" transform="translate(2584.724579 0.674479)"/>
     <use xlink:href="#Cmr10-31" transform="translate(2634.724579 0.674479)"/>
     <use xlink:href="#DejaVuSerif-20" transform="translate(2684.724579 0.674479)"/>
     <use xlink:href="#DejaVuSerif-61" transform="translate(2716.511688 0.674479)"/>
     <use xlink:href="#DejaVuSerif-6e" transform="translate(2776.130829 0.674479)"/>
     <use xlink:href="#DejaVuSerif-64" transform="translate(2840.535126 0.674479)"/>
     <use xlink:href="#DejaVuSerif-20" transform="translate(2904.548798 0.674479)"/>
     <use xlink:href="#Cmr10-67" transform="translate(2936.335907 0.674479)"/>
     <use xlink:href="#Cmr10-63" transform="translate(2986.335907 0.674479)"/>
     <use xlink:href="#Cmr10-64" transform="translate(3030.720673 0.674479)"/>
     <use xlink:href="#Cmr10-28" transform="translate(3086.238251 0.674479)"/>
     <use xlink:href="#Cmmi10-6e" transform="translate(3125.05661 0.674479)"/>
     <use xlink:href="#Cmmi10-3b" transform="translate(3185.066376 0.674479)"/>
     <use xlink:href="#Cmr10-32" transform="translate(3230.310516 0.674479)"/>
     <use xlink:href="#Cmr10-30" transform="translate(3280.310516 0.674479)"/>
     <use xlink:href="#Cmr10-32" transform="translate(3330.310516 0.674479)"/>
     <use xlink:href="#Cmr10-31" transform="translate(3380.310516 0.674479)"/>
     <use xlink:href="#Cmr10-29" transform="translate(3430.310516 0.674479)"/>
     <use xlink:href="#Cmr10-3d" transform="translate(3486.687469 0.674479)"/>
     <use xlink:href="#Cmr10-31" transform="translate(3581.93161 0.674479)"/>
     <use xlink:href="#DejaVuSerif-2e" transform="translate(3631.93161 0.674479)"/>
     <use xlink:href="#DejaVuSerif-20" transform="translate(3663.718719 0.674479)"/>
     <use xlink:href="#DejaVuSerif-46" transform="translate(3695.505829 0.674479)"/>
     <use xlink:href="#DejaVuSerif-6f" transform="translate(3764.890594 0.674479)"/>
     <use xlink:href="#DejaVuSerif-72" transform="translate(3825.095673 0.674479)"/>
     <use xlink:href="#DejaVuSerif-20" transform="translate(3872.898407 0.674479)"/>
     <use xlink:href="#DejaVuSerif-65" transform="translate(3904.685516 0.674479)"/>
     <use xlink:href="#DejaVuSerif-76" transform="translate(3963.865204 0.674479)"/>
     <use xlink:href="#DejaVuSerif-65" transform="translate(4020.359344 0.674479)"/>
     <use xlink:href="#DejaVuSerif-72" transform="translate(4079.539032 0.674479)"/>
     <use xlink:href="#DejaVuSerif-79" transform="translate(4127.341766 0.674479)"/>
     <use xlink:href="#DejaVuSerif-20" transform="translate(4183.835907 0.674479)"/>
     <use xlink:href="#DejaVuSerif-6e" transform="translate(4215.623016 0.674479)"/>
     <use xlink:href="#DejaVuSerif-6f" transform="translate(4280.027313 0.674479)"/>
     <use xlink:href="#DejaVuSerif-6e" transform="translate(4340.232391 0.674479)"/>
     <use xlink:href="#DejaVuSerif-6e" transform="translate(4404.636688 0.674479)"/>
     <use xlink:href="#DejaVuSerif-65" transform="translate(4469.040985 0.674479)"/>
     <use xlink:href="#DejaVuSerif-67" transform="translate(4528.220673 0.674479)"/>
     <use xlink:href="#DejaVuSerif-61" transform="translate(4592.234344 0.674479)"/>
     <use xlink:href="#DejaVuSerif-74" transform="translate(4651.853485 0.674479)"/>
     <use xlink:href="#DejaVuSerif-69" transform="translate(4692.039032 0.674479)"/>
     <use xlink:href="#DejaVuSerif-76" transform="translate(4724.021454 0.674479)"/>
     <use xlink:href="#DejaVuSerif-65" transform="translate(4780.515594 0.674479)"/>
     <use xlink:href="#DejaVuSerif-20" transform="translate(4839.695282 0.674479)"/>
     <use xlink:href="#DejaVuSerif-69" transform="translate(4871.482391 0.674479)"/>
     <use xlink:href="#DejaVuSerif-6e" transform="translate(4903.464813 0.674479)"/>
     <use xlink:href="#DejaVuSerif-74" transform="translate(4967.86911 0.674479)"/>
     <use xlink:href="#DejaVuSerif-65" transform="translate(5008.054657 0.674479)"/>
     <use xlink:href="#DejaVuSerif-67" transform="translate(5067.234344 0.674479)"/>
     <use xlink:href="#DejaVuSerif-65" transform="translate(5131.248016 0.674479)"/>
     <use xlink:href="#DejaVuSerif-72" transform="translate(5190.427704 0.674479)"/>
     <use xlink:href="#DejaVuSerif-20" transform="translate(5238.230438 0.674479)"/>
     <use xlink:href="#Cmmi10-6a" transform="translate(5270.017548 0.674479)"/>
     <use xlink:href="#DejaVuSerif-2c" transform="translate(5311.130829 0.674479)"/>
     <use xlink:href="#DejaVuSerif-20" transform="translate(5342.917938 0.674479)"/>
     <use xlink:href="#DejaVuSerif-6c" transform="translate(5374.705048 0.674479)"/>
     <use xlink:href="#DejaVuSerif-65" transform="translate(5406.687469 0.674479)"/>
     <use xlink:href="#DejaVuSerif-74" transform="translate(5465.867157 0.674479)"/>
     <use xlink:href="#DejaVuSerif-20" transform="translate(5506.052704 0.674479)"/>
     <use xlink:href="#Cmmi10-53" transform="translate(5537.839813 0.674479)"/>
     <use xlink:href="#Cmr10-28" transform="translate(5599.11911 0.674479)"/>
     <use xlink:href="#Cmmi10-6a" transform="translate(5637.937469 0.674479)"/>
     <use xlink:href="#Cmr10-29" transform="translate(5679.050751 0.674479)"/>
     <use xlink:href="#Cmr10-3d" transform="translate(5735.427704 0.674479)"/>
     <use xlink:href="#Cmex10-58" transform="translate(5846.671844 104)"/>
     <use xlink:href="#Cmmi10-6e" transform="translate(5830.671844 -104.839063) scale(0.7)"/>
     <use xlink:href="#Cmsy10-32" transform="translate(5884.969696 -104.839063) scale(0.7)"/>
     <use xlink:href="#Cmmi10-41" transform="translate(5943.881805 -104.839063) scale(0.7)"/>
     <use xlink:href="#Cmmi10-6e" transform="translate(5996.381805 0.674479)"/>
     <use xlink:href="#Cmmi10-6a" transform="translate(6062.694852 38.938542) scale(0.7)"/>
     <use xlink:href="#DejaVuSerif-2e" transform="translate(6097.851493 0.674479)"/>
     <use xlink:href="#DejaVuSerif-20" transform="translate(6129.638602 0.674479)"/>
     <use xlink:href="#DejaVuSerif-44" transform="translate(6161.425712 0.674479)"/>
     <use xlink:href="#DejaVuSerif-65" transform="translate(6241.601493 0.674479)"/>
     <use xlink:href="#DejaVuSerif-74" transform="translate(6300.78118 0.674479)"/>
     <use xlink:href="#DejaVuSerif-65" transform="translate(6340.966727 0.674479)"/>
     <use xlink:href="#DejaVuSerif-72" transform="translate(6400.146415 0.674479)"/>
     <use xlink:href="#DejaVuSerif-6d" transform="translate(6447.949149 0.674479)"/>
     <use xlink:href="#DejaVuSerif-69" transform="translate(6542.773368 0.674479)"/>
     <use xlink:href="#DejaVuSerif-6e" transform="translate(6574.75579 0.674479)"/>
     <use xlink:href="#DejaVuSerif-65" transform="translate(6639.160087 0.674479)"/>
     <use xlink:href="#DejaVuSerif-20" transform="translate(6698.339774 0.674479)"/>
     <use xlink:href="#DejaVuSerif-61" transform="translate(6730.126884 0.674479)"/>
     <use xlink:href="#DejaVuSerif-6c" transform="translate(6789.746024 0.674479)"/>
     <use xlink:href="#DejaVuSerif-6c" transform="translate(6821.728446 0.674479)"/>
     <use xlink:href="#DejaVuSerif-20" transform="translate(6853.710868 0.674479)"/>
     <use xlink:href="#DejaVuSerif-76" transform="translate(6885.497977 0.674479)"/>
     <use xlink:href="#DejaVuSerif-61" transform="translate(6941.992118 0.674479)"/>
     <use xlink:href="#DejaVuSerif-6c" transform="translate(7001.611259 0.674479)"/>
     <use xlink:href="#DejaVuSerif-75" transform="translate(7033.59368 0.674479)"/>
     <use xlink:href="#DejaVuSerif-65" transform="translate(7097.997977 0.674479)"/>
     <use xlink:href="#DejaVuSerif-73" transform="translate(7157.177665 0.674479)"/>
     <use xlink:href="#DejaVuSerif-20" transform="translate(7208.496024 0.674479)"/>
     <use xlink:href="#DejaVuSerif-6f" transform="translate(7240.283134 0.674479)"/>
     <use xlink:href="#DejaVuSerif-66" transform="translate(7300.488212 0.674479)"/>
     <use xlink:href="#DejaVuSerif-20" transform="translate(7337.49993 0.674479)"/>
     <use xlink:href="#Cmmi10-6a" transform="translate(7369.28704 0.674479)"/>
     <use xlink:href="#DejaVuSerif-20" transform="translate(7410.400321 0.674479)"/>
     <use xlink:href="#DejaVuSerif-73" transform="translate(7442.18743 0.674479)"/>
     <use xlink:href="#DejaVuSerif-75" transform="translate(7493.50579 0.674479)"/>
     <use xlink:href="#DejaVuSerif-63" transform="translate(7557.910087 0.674479)"/>
     <use xlink:href="#DejaVuSerif-68" transform="translate(7613.915946 0.674479)"/>
     <use xlink:href="#DejaVuSerif-20" transform="translate(7678.320243 0.674479)"/>
     <use xlink:href="#DejaVuSerif-74" transform="translate(7710.107352 0.674479)"/>
     <use xlink:href="#DejaVuSerif-68" transform="translate(7750.292899 0.674479)"/>
     <use xlink:href="#DejaVuSerif-61" transform="translate(7814.697196 0.674479)"/>
     <use xlink:href="#DejaVuSerif-74" transform="translate(7874.316337 0.674479)"/>
     <use xlink:href="#DejaVuSerif-20" transform="translate(7914.501884 0.674479)"/>
     <use xlink:href="#Cmmi10-53" transform="translate(7946.288993 0.674479)"/>
     <use xlink:href="#Cmr10-28" transform="translate(8007.56829 0.674479)"/>
     <use xlink:href="#Cmmi10-6a" transform="translate(8046.386649 0.674479)"/>
     <use xlink:href="#Cmr10-29" transform="translate(8087.49993 0.674479)"/>
     <use xlink:href="#DejaVuSerif-20" transform="translate(8126.31829 0.674479)"/>
     <use xlink:href="#DejaVuSerif-69" transform="translate(8158.105399 0.674479)"/>
     <use xlink:href="#DejaVuSerif-73" transform="translate(8190.087821 0.674479)"/>
     <use xlink:href="#DejaVuSerif-20" transform="translate(8241.40618 0.674479)"/>
     <use xlink:href="#DejaVuSerif-61" transform="translate(8273.19329 0.674479)"/>
     <use xlink:href="#DejaVuSerif-20" transform="translate(8332.81243 0.674479)"/>
     <use xlink:href="#DejaVuSerif-6d" transform="translate(8364.59954 0.674479)"/>
     <use xlink:href="#DejaVuSerif-75" transform="translate(8459.423759 0.674479)"/>
     <use xlink:href="#DejaVuSerif-6c" transform="translate(8523.828055 0.674479)"/>
     <use xlink:href="#DejaVuSerif-74" transform="translate(8555.810477 0.674479)"/>
     <use xlink:href="#DejaVuSerif-69" transform="translate(8595.996024 0.674479)"/>
     <use xlink:href="#DejaVuSerif-70" transform="translate(8627.978446 0.674479)"/>
     <use xlink:href="#DejaVuSerif-6c" transform="translate(8691.992118 0.674479)"/>
     <use xlink:href="#DejaVuSerif-65" transform="translate(8723.97454 0.674479)"/>
     <use xlink:href="#DejaVuSerif-20" transform="translate(8783.154227 0.674479)"/>
     <use xlink:href="#DejaVuSerif-6f" transform="translate(8814.941337 0.674479)"/>
     <use xlink:href="#DejaVuSerif-66" transform="translate(8875.146415 0.674479)"/>
     <use xlink:href="#DejaVuSerif-20" transform="translate(8912.158134 0.674479)"/>
     <use xlink:href="#Cmr10-32" transform="translate(8943.945243 0.674479)"/>
     <use xlink:href="#Cmr10-30" transform="translate(8993.945243 0.674479)"/>
     <use xlink:href="#Cmr10-32" transform="translate(9043.945243 0.674479)"/>
     <use xlink:href="#Cmr10-31" transform="translate(9093.945243 0.674479)"/>
     <use xlink:href="#DejaVuSerif-2e" transform="translate(9143.945243 0.674479)"/>
    </g>
   </g>
  </g>
 </g>
</svg>
