<?xml version="1.0" encoding="utf-8" standalone="no"?>
<!DOCTYPE svg PUBLIC "-//W3C//DTD SVG 1.1//EN"
  "http://www.w3.org/Graphics/SVG/1.1/DTD/svg11.dtd">
<svg xmlns:xlink="http://www.w3.org/1999/xlink" width="1143.12pt" height="180.72pt" viewBox="0 0 1143.12 180.72" xmlns="http://www.w3.org/2000/svg" version="1.1">
 <metadata>
  <rdf:RDF xmlns:dc="http://purl.org/dc/elements/1.1/" xmlns:cc="http://creativecommons.org/ns#" xmlns:rdf="http://www.w3.org/1999/02/22-rdf-syntax-ns#">
   <cc:Work>
    <dc:type rdf:resource="http://purl.org/dc/dcmitype/StillImage"/>
    <dc:date>2025-05-29T18:43:59.155832</dc:date>
    <dc:format>image/svg+xml</dc:format>
    <dc:creator>
     <cc:Agent>
      <dc:title>Matplotlib v3.10.3, https://matplotlib.org/</dc:title>
     </cc:Agent>
    </dc:creator>
   </cc:Work>
  </rdf:RDF>
 </metadata>
 <defs>
  <style type="text/css">*{stroke-linejoin: round; stroke-linecap: butt}</style>
 </defs>
 <g id="figure_1">
  <g id="patch_1">
   <path d="M 0 180.72 
L 1143.12 180.72 
L 1143.12 0 
L 0 0 
z
" style="fill: #ffffff"/>
  </g>
  <g id="axes_1">
   <g id="text_1">
    <!-- Let $a$ and $b$ be positive numbers. Find the largest number $c$, in terms of $a$ and $b$, such that $a^xb^{1-x} \leqq a\frac{\sinh ux}{\sinh u}+b\frac{\sinh u(1-x)}{\sinh u}$ for all $u$ with $0&lt;|u| \leqq c$ and for all $x$, $0&lt;x&lt;1$. (Note: $\sinh u=(e^u-e^{-u})/2$.) -->
    <g transform="translate(7.2 94.2) scale(0.12 -0.12)">
     <defs>
      <path id="DejaVuSerif-4c" d="M 353 0 
L 353 331 
L 947 331 
L 947 4331 
L 353 4331 
L 353 4666 
L 2175 4666 
L 2175 4331 
L 1581 4331 
L 1581 384 
L 3713 384 
L 3713 1166 
L 4097 1166 
L 4097 0 
L 353 0 
z
" transform="scale(0.015625)"/>
      <path id="DejaVuSerif-65" d="M 3469 1600 
L 991 1600 
L 991 1575 
Q 991 903 1244 561 
Q 1497 219 1991 219 
Q 2369 219 2611 417 
Q 2853 616 2950 1006 
L 3413 1006 
Q 3275 459 2904 184 
Q 2534 -91 1931 -91 
Q 1203 -91 761 389 
Q 319 869 319 1663 
Q 319 2450 753 2931 
Q 1188 3413 1894 3413 
Q 2647 3413 3050 2948 
Q 3453 2484 3469 1600 
z
M 2791 1931 
Q 2772 2513 2545 2808 
Q 2319 3103 1894 3103 
Q 1497 3103 1269 2806 
Q 1041 2509 991 1931 
L 2791 1931 
z
" transform="scale(0.015625)"/>
      <path id="DejaVuSerif-74" d="M 691 2988 
L 184 2988 
L 184 3322 
L 691 3322 
L 691 4353 
L 1269 4353 
L 1269 3322 
L 2350 3322 
L 2350 2988 
L 1269 2988 
L 1269 878 
Q 1269 456 1350 337 
Q 1431 219 1650 219 
Q 1875 219 1978 351 
Q 2081 484 2088 781 
L 2522 781 
Q 2497 328 2275 118 
Q 2053 -91 1600 -91 
Q 1103 -91 897 129 
Q 691 350 691 878 
L 691 2988 
z
" transform="scale(0.015625)"/>
      <path id="DejaVuSerif-20" transform="scale(0.015625)"/>
      <path id="Cmmi10-61" d="M 1113 -72 
Q 709 -72 476 233 
Q 244 538 244 953 
Q 244 1363 456 1803 
Q 669 2244 1030 2536 
Q 1391 2828 1806 2828 
Q 1997 2828 2147 2725 
Q 2297 2622 2381 2444 
Q 2453 2700 2663 2700 
Q 2744 2700 2798 2651 
Q 2853 2603 2853 2522 
Q 2853 2503 2851 2493 
Q 2850 2484 2847 2472 
L 2400 684 
Q 2356 494 2356 372 
Q 2356 97 2541 97 
Q 2741 97 2845 351 
Q 2950 606 3022 941 
Q 3034 978 3072 978 
L 3150 978 
Q 3175 978 3190 956 
Q 3206 934 3206 916 
Q 3094 469 2961 198 
Q 2828 -72 2528 -72 
Q 2313 -72 2147 54 
Q 1981 181 1941 391 
Q 1528 -72 1113 -72 
z
M 1119 97 
Q 1350 97 1567 270 
Q 1784 444 1941 678 
Q 1947 684 1947 697 
L 2291 2088 
L 2297 2106 
Q 2259 2334 2132 2498 
Q 2006 2663 1791 2663 
Q 1575 2663 1389 2486 
Q 1203 2309 1075 2069 
Q 950 1813 836 1366 
Q 722 919 722 672 
Q 722 450 817 273 
Q 913 97 1119 97 
z
" transform="scale(0.015625)"/>
      <path id="DejaVuSerif-61" d="M 2547 1044 
L 2547 1747 
L 1806 1747 
Q 1378 1747 1168 1562 
Q 959 1378 959 997 
Q 959 650 1171 447 
Q 1384 244 1747 244 
Q 2106 244 2326 466 
Q 2547 688 2547 1044 
z
M 3122 2075 
L 3122 331 
L 3634 331 
L 3634 0 
L 2547 0 
L 2547 359 
Q 2356 128 2106 18 
Q 1856 -91 1522 -91 
Q 969 -91 644 203 
Q 319 497 319 997 
Q 319 1513 691 1797 
Q 1063 2081 1741 2081 
L 2547 2081 
L 2547 2309 
Q 2547 2688 2317 2895 
Q 2088 3103 1672 3103 
Q 1328 3103 1125 2947 
Q 922 2791 872 2484 
L 575 2484 
L 575 3156 
Q 875 3284 1158 3348 
Q 1441 3413 1709 3413 
Q 2400 3413 2761 3070 
Q 3122 2728 3122 2075 
z
" transform="scale(0.015625)"/>
      <path id="DejaVuSerif-6e" d="M 263 0 
L 263 331 
L 781 331 
L 781 2988 
L 231 2988 
L 231 3322 
L 1356 3322 
L 1356 2731 
Q 1516 3069 1770 3241 
Q 2025 3413 2363 3413 
Q 2913 3413 3172 3097 
Q 3431 2781 3431 2113 
L 3431 331 
L 3944 331 
L 3944 0 
L 2356 0 
L 2356 331 
L 2853 331 
L 2853 1931 
Q 2853 2541 2703 2767 
Q 2553 2994 2175 2994 
Q 1775 2994 1565 2701 
Q 1356 2409 1356 1850 
L 1356 331 
L 1856 331 
L 1856 0 
L 263 0 
z
" transform="scale(0.015625)"/>
      <path id="DejaVuSerif-64" d="M 3359 331 
L 3909 331 
L 3909 0 
L 2784 0 
L 2784 519 
Q 2616 206 2355 57 
Q 2094 -91 1709 -91 
Q 1097 -91 708 395 
Q 319 881 319 1663 
Q 319 2444 706 2928 
Q 1094 3413 1709 3413 
Q 2094 3413 2355 3264 
Q 2616 3116 2784 2803 
L 2784 4531 
L 2241 4531 
L 2241 4863 
L 3359 4863 
L 3359 331 
z
M 2784 1497 
L 2784 1825 
Q 2784 2422 2554 2737 
Q 2325 3053 1888 3053 
Q 1444 3053 1217 2703 
Q 991 2353 991 1663 
Q 991 975 1217 622 
Q 1444 269 1888 269 
Q 2325 269 2554 583 
Q 2784 897 2784 1497 
z
" transform="scale(0.015625)"/>
      <path id="Cmmi10-62" d="M 1106 -72 
Q 719 -72 503 231 
Q 288 534 288 941 
Q 288 1000 317 1173 
Q 347 1347 347 1388 
L 966 3872 
Q 991 3981 997 4044 
Q 997 4147 581 4147 
Q 519 4147 519 4231 
Q 522 4247 533 4287 
Q 544 4328 561 4350 
Q 578 4372 609 4372 
L 1472 4441 
Q 1550 4441 1550 4359 
L 1075 2472 
Q 1438 2828 1806 2828 
Q 2078 2828 2273 2684 
Q 2469 2541 2566 2306 
Q 2663 2072 2663 1806 
Q 2663 1497 2542 1167 
Q 2422 838 2209 555 
Q 1997 272 1712 100 
Q 1428 -72 1106 -72 
z
M 1119 97 
Q 1338 97 1528 280 
Q 1719 463 1838 691 
Q 1966 947 2077 1386 
Q 2188 1825 2188 2088 
Q 2188 2316 2092 2489 
Q 1997 2663 1791 2663 
Q 1559 2663 1348 2492 
Q 1138 2322 978 2088 
L 800 1363 
Q 697 959 691 716 
Q 691 475 795 286 
Q 900 97 1119 97 
z
" transform="scale(0.015625)"/>
      <path id="DejaVuSerif-62" d="M 738 331 
L 738 4531 
L 184 4531 
L 184 4863 
L 1313 4863 
L 1313 2803 
Q 1481 3116 1742 3264 
Q 2003 3413 2388 3413 
Q 3000 3413 3387 2928 
Q 3775 2444 3775 1663 
Q 3775 881 3387 395 
Q 3000 -91 2388 -91 
Q 2003 -91 1742 57 
Q 1481 206 1313 519 
L 1313 0 
L 184 0 
L 184 331 
L 738 331 
z
M 1313 1497 
Q 1313 897 1542 583 
Q 1772 269 2209 269 
Q 2650 269 2876 622 
Q 3103 975 3103 1663 
Q 3103 2353 2876 2703 
Q 2650 3053 2209 3053 
Q 1772 3053 1542 2737 
Q 1313 2422 1313 1825 
L 1313 1497 
z
" transform="scale(0.015625)"/>
      <path id="DejaVuSerif-70" d="M 1313 1825 
L 1313 1497 
Q 1313 897 1542 583 
Q 1772 269 2209 269 
Q 2650 269 2876 622 
Q 3103 975 3103 1663 
Q 3103 2353 2876 2703 
Q 2650 3053 2209 3053 
Q 1772 3053 1542 2737 
Q 1313 2422 1313 1825 
z
M 738 2988 
L 184 2988 
L 184 3322 
L 1313 3322 
L 1313 2803 
Q 1481 3116 1742 3264 
Q 2003 3413 2388 3413 
Q 3000 3413 3387 2928 
Q 3775 2444 3775 1663 
Q 3775 881 3387 395 
Q 3000 -91 2388 -91 
Q 2003 -91 1742 57 
Q 1481 206 1313 519 
L 1313 -997 
L 1856 -997 
L 1856 -1331 
L 184 -1331 
L 184 -997 
L 738 -997 
L 738 2988 
z
" transform="scale(0.015625)"/>
      <path id="DejaVuSerif-6f" d="M 1925 219 
Q 2388 219 2623 584 
Q 2859 950 2859 1663 
Q 2859 2375 2623 2739 
Q 2388 3103 1925 3103 
Q 1463 3103 1227 2739 
Q 991 2375 991 1663 
Q 991 950 1228 584 
Q 1466 219 1925 219 
z
M 1925 -91 
Q 1200 -91 759 389 
Q 319 869 319 1663 
Q 319 2456 758 2934 
Q 1197 3413 1925 3413 
Q 2653 3413 3092 2934 
Q 3531 2456 3531 1663 
Q 3531 869 3092 389 
Q 2653 -91 1925 -91 
z
" transform="scale(0.015625)"/>
      <path id="DejaVuSerif-73" d="M 359 184 
L 359 959 
L 691 959 
Q 703 588 923 403 
Q 1144 219 1575 219 
Q 1963 219 2166 364 
Q 2369 509 2369 788 
Q 2369 1006 2220 1140 
Q 2072 1275 1594 1428 
L 1178 1569 
Q 750 1706 558 1912 
Q 366 2119 366 2438 
Q 366 2894 700 3153 
Q 1034 3413 1625 3413 
Q 1888 3413 2178 3344 
Q 2469 3275 2778 3144 
L 2778 2419 
L 2447 2419 
Q 2434 2741 2221 2922 
Q 2009 3103 1644 3103 
Q 1281 3103 1095 2975 
Q 909 2847 909 2591 
Q 909 2381 1050 2254 
Q 1191 2128 1613 1997 
L 2069 1856 
Q 2541 1709 2748 1489 
Q 2956 1269 2956 922 
Q 2956 450 2595 179 
Q 2234 -91 1600 -91 
Q 1278 -91 972 -22 
Q 666 47 359 184 
z
" transform="scale(0.015625)"/>
      <path id="DejaVuSerif-69" d="M 622 4353 
Q 622 4497 726 4603 
Q 831 4709 978 4709 
Q 1122 4709 1226 4603 
Q 1331 4497 1331 4353 
Q 1331 4206 1228 4103 
Q 1125 4000 978 4000 
Q 831 4000 726 4103 
Q 622 4206 622 4353 
z
M 1356 331 
L 1900 331 
L 1900 0 
L 231 0 
L 231 331 
L 781 331 
L 781 2988 
L 231 2988 
L 231 3322 
L 1356 3322 
L 1356 331 
z
" transform="scale(0.015625)"/>
      <path id="DejaVuSerif-76" d="M 1581 0 
L 359 2988 
L -19 2988 
L -19 3322 
L 1509 3322 
L 1509 2988 
L 978 2988 
L 1913 703 
L 2847 2988 
L 2350 2988 
L 2350 3322 
L 3597 3322 
L 3597 2988 
L 3225 2988 
L 2003 0 
L 1581 0 
z
" transform="scale(0.015625)"/>
      <path id="DejaVuSerif-75" d="M 2266 3322 
L 3341 3322 
L 3341 331 
L 3884 331 
L 3884 0 
L 2766 0 
L 2766 588 
Q 2606 256 2353 82 
Q 2100 -91 1766 -91 
Q 1213 -91 952 223 
Q 691 538 691 1209 
L 691 2988 
L 172 2988 
L 172 3322 
L 1269 3322 
L 1269 1388 
Q 1269 781 1417 556 
Q 1566 331 1947 331 
Q 2347 331 2556 625 
Q 2766 919 2766 1478 
L 2766 2988 
L 2266 2988 
L 2266 3322 
z
" transform="scale(0.015625)"/>
      <path id="DejaVuSerif-6d" d="M 3316 2675 
Q 3481 3041 3739 3227 
Q 3997 3413 4341 3413 
Q 4863 3413 5119 3089 
Q 5375 2766 5375 2113 
L 5375 331 
L 5894 331 
L 5894 0 
L 4300 0 
L 4300 331 
L 4800 331 
L 4800 2047 
Q 4800 2556 4650 2772 
Q 4500 2988 4153 2988 
Q 3769 2988 3567 2697 
Q 3366 2406 3366 1850 
L 3366 331 
L 3866 331 
L 3866 0 
L 2291 0 
L 2291 331 
L 2791 331 
L 2791 2069 
Q 2791 2566 2641 2777 
Q 2491 2988 2144 2988 
Q 1759 2988 1557 2697 
Q 1356 2406 1356 1850 
L 1356 331 
L 1856 331 
L 1856 0 
L 263 0 
L 263 331 
L 781 331 
L 781 2994 
L 231 2994 
L 231 3322 
L 1356 3322 
L 1356 2731 
Q 1516 3063 1762 3238 
Q 2009 3413 2322 3413 
Q 2709 3413 2968 3220 
Q 3228 3028 3316 2675 
z
" transform="scale(0.015625)"/>
      <path id="DejaVuSerif-72" d="M 3059 3328 
L 3059 2497 
L 2728 2497 
Q 2713 2744 2591 2866 
Q 2469 2988 2234 2988 
Q 1809 2988 1582 2694 
Q 1356 2400 1356 1850 
L 1356 331 
L 2022 331 
L 2022 0 
L 263 0 
L 263 331 
L 781 331 
L 781 2994 
L 231 2994 
L 231 3322 
L 1356 3322 
L 1356 2731 
Q 1525 3078 1790 3245 
Q 2056 3413 2438 3413 
Q 2578 3413 2733 3391 
Q 2888 3369 3059 3328 
z
" transform="scale(0.015625)"/>
      <path id="DejaVuSerif-2e" d="M 603 325 
Q 603 500 722 622 
Q 841 744 1019 744 
Q 1191 744 1312 622 
Q 1434 500 1434 325 
Q 1434 153 1312 31 
Q 1191 -91 1019 -91 
Q 841 -91 722 29 
Q 603 150 603 325 
z
" transform="scale(0.015625)"/>
      <path id="DejaVuSerif-46" d="M 353 0 
L 353 331 
L 947 331 
L 947 4331 
L 353 4331 
L 353 4666 
L 4172 4666 
L 4172 3628 
L 3788 3628 
L 3788 4281 
L 1581 4281 
L 1581 2719 
L 3175 2719 
L 3175 3303 
L 3559 3303 
L 3559 1753 
L 3175 1753 
L 3175 2338 
L 1581 2338 
L 1581 331 
L 2328 331 
L 2328 0 
L 353 0 
z
" transform="scale(0.015625)"/>
      <path id="DejaVuSerif-68" d="M 263 0 
L 263 331 
L 781 331 
L 781 4531 
L 231 4531 
L 231 4863 
L 1356 4863 
L 1356 2731 
Q 1516 3069 1770 3241 
Q 2025 3413 2363 3413 
Q 2913 3413 3172 3097 
Q 3431 2781 3431 2113 
L 3431 331 
L 3944 331 
L 3944 0 
L 2356 0 
L 2356 331 
L 2853 331 
L 2853 1931 
Q 2853 2541 2704 2764 
Q 2556 2988 2175 2988 
Q 1775 2988 1565 2697 
Q 1356 2406 1356 1850 
L 1356 331 
L 1856 331 
L 1856 0 
L 263 0 
z
" transform="scale(0.015625)"/>
      <path id="DejaVuSerif-6c" d="M 1313 331 
L 1856 331 
L 1856 0 
L 184 0 
L 184 331 
L 738 331 
L 738 4531 
L 184 4531 
L 184 4863 
L 1313 4863 
L 1313 331 
z
" transform="scale(0.015625)"/>
      <path id="DejaVuSerif-67" d="M 3359 2988 
L 3359 72 
Q 3359 -644 2965 -1033 
Q 2572 -1422 1844 -1422 
Q 1516 -1422 1216 -1362 
Q 916 -1303 641 -1184 
L 641 -488 
L 941 -488 
Q 997 -813 1206 -963 
Q 1416 -1113 1806 -1113 
Q 2313 -1113 2548 -827 
Q 2784 -541 2784 72 
L 2784 519 
Q 2616 206 2355 57 
Q 2094 -91 1709 -91 
Q 1097 -91 708 395 
Q 319 881 319 1663 
Q 319 2444 706 2928 
Q 1094 3413 1709 3413 
Q 2094 3413 2355 3264 
Q 2616 3116 2784 2803 
L 2784 3322 
L 3909 3322 
L 3909 2988 
L 3359 2988 
z
M 2784 1825 
Q 2784 2422 2554 2737 
Q 2325 3053 1888 3053 
Q 1444 3053 1217 2703 
Q 991 2353 991 1663 
Q 991 975 1217 622 
Q 1444 269 1888 269 
Q 2325 269 2554 583 
Q 2784 897 2784 1497 
L 2784 1825 
z
" transform="scale(0.015625)"/>
      <path id="Cmmi10-63" d="M 750 763 
Q 750 484 892 290 
Q 1034 97 1300 97 
Q 1681 97 2032 272 
Q 2384 447 2606 756 
Q 2625 775 2656 775 
Q 2688 775 2720 739 
Q 2753 703 2753 672 
Q 2753 647 2741 634 
Q 2506 306 2109 117 
Q 1713 -72 1288 -72 
Q 981 -72 747 73 
Q 513 219 384 462 
Q 256 706 256 1013 
Q 256 1444 497 1869 
Q 738 2294 1138 2561 
Q 1538 2828 1978 2828 
Q 2266 2828 2495 2689 
Q 2725 2550 2725 2278 
Q 2725 2103 2623 1979 
Q 2522 1856 2350 1856 
Q 2247 1856 2176 1920 
Q 2106 1984 2106 2088 
Q 2106 2238 2215 2344 
Q 2325 2450 2472 2450 
L 2484 2450 
Q 2409 2559 2267 2611 
Q 2125 2663 1972 2663 
Q 1597 2663 1315 2342 
Q 1034 2022 892 1576 
Q 750 1131 750 763 
z
" transform="scale(0.015625)"/>
      <path id="DejaVuSerif-2c" d="M 231 -622 
Q 525 -406 662 -114 
Q 800 178 800 594 
L 800 709 
L 1416 709 
Q 1391 175 1164 -208 
Q 938 -591 481 -872 
L 231 -622 
z
" transform="scale(0.015625)"/>
      <path id="DejaVuSerif-66" d="M 2753 4078 
L 2450 4078 
Q 2447 4313 2317 4434 
Q 2188 4556 1941 4556 
Q 1619 4556 1487 4379 
Q 1356 4203 1356 3750 
L 1356 3322 
L 2284 3322 
L 2284 2988 
L 1356 2988 
L 1356 331 
L 2094 331 
L 2094 0 
L 231 0 
L 231 331 
L 781 331 
L 781 2988 
L 231 2988 
L 231 3322 
L 781 3322 
L 781 3738 
Q 781 4294 1070 4578 
Q 1359 4863 1919 4863 
Q 2128 4863 2337 4825 
Q 2547 4788 2753 4709 
L 2753 4078 
z
" transform="scale(0.015625)"/>
      <path id="DejaVuSerif-63" d="M 3291 997 
Q 3169 466 2822 187 
Q 2475 -91 1925 -91 
Q 1200 -91 759 389 
Q 319 869 319 1663 
Q 319 2459 759 2936 
Q 1200 3413 1925 3413 
Q 2241 3413 2553 3339 
Q 2866 3266 3181 3116 
L 3181 2266 
L 2847 2266 
Q 2781 2703 2561 2903 
Q 2341 3103 1931 3103 
Q 1466 3103 1228 2742 
Q 991 2381 991 1663 
Q 991 944 1227 581 
Q 1463 219 1931 219 
Q 2303 219 2525 412 
Q 2747 606 2828 997 
L 3291 997 
z
" transform="scale(0.015625)"/>
      <path id="Cmmi10-78" d="M 500 184 
Q 613 97 819 97 
Q 1019 97 1172 289 
Q 1325 481 1381 709 
L 1672 1844 
Q 1741 2153 1741 2266 
Q 1741 2425 1652 2544 
Q 1563 2663 1403 2663 
Q 1200 2663 1022 2536 
Q 844 2409 722 2214 
Q 600 2019 550 1819 
Q 538 1778 500 1778 
L 422 1778 
Q 372 1778 372 1838 
L 372 1856 
Q 434 2094 584 2320 
Q 734 2547 951 2687 
Q 1169 2828 1416 2828 
Q 1650 2828 1839 2703 
Q 2028 2578 2106 2363 
Q 2216 2559 2386 2693 
Q 2556 2828 2759 2828 
Q 2897 2828 3040 2779 
Q 3184 2731 3275 2631 
Q 3366 2531 3366 2381 
Q 3366 2219 3261 2101 
Q 3156 1984 2994 1984 
Q 2891 1984 2822 2050 
Q 2753 2116 2753 2216 
Q 2753 2350 2845 2451 
Q 2938 2553 3066 2572 
Q 2950 2663 2747 2663 
Q 2541 2663 2389 2472 
Q 2238 2281 2175 2047 
L 1894 916 
Q 1825 659 1825 494 
Q 1825 331 1917 214 
Q 2009 97 2163 97 
Q 2463 97 2698 361 
Q 2934 625 3009 941 
Q 3022 978 3059 978 
L 3138 978 
Q 3163 978 3178 961 
Q 3194 944 3194 922 
Q 3194 916 3188 903 
Q 3097 522 2806 225 
Q 2516 -72 2150 -72 
Q 1916 -72 1727 54 
Q 1538 181 1459 397 
Q 1359 209 1182 68 
Q 1006 -72 806 -72 
Q 669 -72 523 -23 
Q 378 25 287 125 
Q 197 225 197 378 
Q 197 528 301 651 
Q 406 775 563 775 
Q 669 775 741 711 
Q 813 647 813 544 
Q 813 409 723 309 
Q 634 209 500 184 
z
" transform="scale(0.015625)"/>
      <path id="Cmr10-31" d="M 594 0 
L 594 225 
Q 1394 225 1394 428 
L 1394 3788 
Q 1063 3628 556 3628 
L 556 3853 
Q 1341 3853 1741 4263 
L 1831 4263 
Q 1853 4263 1873 4245 
Q 1894 4228 1894 4206 
L 1894 428 
Q 1894 225 2694 225 
L 2694 0 
L 594 0 
z
" transform="scale(0.015625)"/>
      <path id="Cmsy10-a1" d="M 653 1472 
Q 600 1472 565 1512 
Q 531 1553 531 1600 
Q 531 1647 565 1687 
Q 600 1728 653 1728 
L 4325 1728 
Q 4375 1728 4408 1687 
Q 4441 1647 4441 1600 
Q 4441 1553 4408 1512 
Q 4375 1472 4325 1472 
L 653 1472 
z
" transform="scale(0.015625)"/>
      <path id="STIXGeneral-Regular-2266" d="M 3981 1024 
L 365 2771 
L 365 2835 
L 3981 4595 
L 3981 4179 
L 1216 2803 
L 3981 1427 
L 3981 1024 
z
M 3981 -77 
L 365 -77 
L 365 346 
L 3981 346 
L 3981 -77 
z
M 3981 -1350 
L 365 -1350 
L 365 -928 
L 3981 -928 
L 3981 -1350 
z
" transform="scale(0.015625)"/>
      <path id="Cmr10-73" d="M 213 -19 
L 213 1025 
Q 213 1075 269 1075 
L 347 1075 
Q 384 1075 397 1025 
Q 575 97 1259 97 
Q 1563 97 1767 234 
Q 1972 372 1972 659 
Q 1972 866 1812 1011 
Q 1653 1156 1434 1209 
L 1006 1294 
Q 791 1341 614 1437 
Q 438 1534 325 1695 
Q 213 1856 213 2069 
Q 213 2350 361 2529 
Q 509 2709 746 2789 
Q 984 2869 1259 2869 
Q 1588 2869 1831 2694 
L 2016 2853 
Q 2016 2869 2047 2869 
L 2094 2869 
Q 2113 2869 2128 2851 
Q 2144 2834 2144 2816 
L 2144 1978 
Q 2144 1919 2094 1919 
L 2016 1919 
Q 1959 1919 1959 1978 
Q 1959 2313 1773 2516 
Q 1588 2719 1253 2719 
Q 966 2719 755 2612 
Q 544 2506 544 2247 
Q 544 2069 695 1955 
Q 847 1841 1050 1791 
L 1484 1709 
Q 1703 1659 1892 1540 
Q 2081 1422 2192 1240 
Q 2303 1059 2303 831 
Q 2303 600 2223 429 
Q 2144 259 2001 146 
Q 1859 34 1665 -19 
Q 1472 -72 1259 -72 
Q 859 -72 575 197 
L 341 -56 
Q 341 -72 306 -72 
L 269 -72 
Q 213 -72 213 -19 
z
" transform="scale(0.015625)"/>
      <path id="Cmr10-69" d="M 197 0 
L 197 225 
Q 416 225 556 259 
Q 697 294 697 428 
L 697 2175 
Q 697 2422 601 2478 
Q 506 2534 225 2534 
L 225 2759 
L 1147 2828 
L 1147 428 
Q 1147 294 1269 259 
Q 1391 225 1594 225 
L 1594 0 
L 197 0 
z
M 469 3928 
Q 469 4069 575 4175 
Q 681 4281 819 4281 
Q 909 4281 993 4234 
Q 1078 4188 1125 4103 
Q 1172 4019 1172 3928 
Q 1172 3791 1065 3684 
Q 959 3578 819 3578 
Q 681 3578 575 3684 
Q 469 3791 469 3928 
z
" transform="scale(0.015625)"/>
      <path id="Cmr10-6e" d="M 191 0 
L 191 225 
Q 409 225 550 259 
Q 691 294 691 428 
L 691 2175 
Q 691 2347 639 2423 
Q 588 2500 491 2517 
Q 394 2534 191 2534 
L 191 2759 
L 1119 2828 
L 1119 2203 
Q 1247 2478 1498 2653 
Q 1750 2828 2047 2828 
Q 2491 2828 2714 2615 
Q 2938 2403 2938 1966 
L 2938 428 
Q 2938 294 3078 259 
Q 3219 225 3438 225 
L 3438 0 
L 1972 0 
L 1972 225 
Q 2191 225 2331 259 
Q 2472 294 2472 428 
L 2472 1947 
Q 2472 2259 2381 2461 
Q 2291 2663 2009 2663 
Q 1638 2663 1398 2366 
Q 1159 2069 1159 1691 
L 1159 428 
Q 1159 294 1300 259 
Q 1441 225 1656 225 
L 1656 0 
L 191 0 
z
" transform="scale(0.015625)"/>
      <path id="Cmr10-68" d="M 191 0 
L 191 225 
Q 409 225 550 259 
Q 691 294 691 428 
L 691 3788 
Q 691 3959 639 4036 
Q 588 4113 491 4130 
Q 394 4147 191 4147 
L 191 4372 
L 1141 4441 
L 1141 2241 
Q 1275 2506 1515 2667 
Q 1756 2828 2047 2828 
Q 2491 2828 2714 2615 
Q 2938 2403 2938 1966 
L 2938 428 
Q 2938 294 3078 259 
Q 3219 225 3438 225 
L 3438 0 
L 1972 0 
L 1972 225 
Q 2191 225 2331 259 
Q 2472 294 2472 428 
L 2472 1947 
Q 2472 2259 2381 2461 
Q 2291 2663 2009 2663 
Q 1638 2663 1398 2366 
Q 1159 2069 1159 1691 
L 1159 428 
Q 1159 294 1300 259 
Q 1441 225 1656 225 
L 1656 0 
L 191 0 
z
" transform="scale(0.015625)"/>
      <path id="Cmmi10-75" d="M 678 697 
Q 678 906 734 1126 
Q 791 1347 892 1617 
Q 994 1888 1069 2088 
Q 1153 2322 1153 2472 
Q 1153 2663 1013 2663 
Q 759 2663 595 2402 
Q 431 2141 353 1819 
Q 341 1778 300 1778 
L 225 1778 
Q 172 1778 172 1838 
L 172 1856 
Q 275 2238 487 2533 
Q 700 2828 1025 2828 
Q 1253 2828 1411 2678 
Q 1569 2528 1569 2297 
Q 1569 2178 1516 2047 
Q 1488 1969 1388 1706 
Q 1288 1444 1234 1272 
Q 1181 1100 1147 934 
Q 1113 769 1113 603 
Q 1113 391 1203 244 
Q 1294 97 1497 97 
Q 1906 97 2216 603 
Q 2222 628 2226 651 
Q 2231 675 2234 697 
L 2694 2553 
Q 2716 2638 2794 2698 
Q 2872 2759 2963 2759 
Q 3041 2759 3098 2709 
Q 3156 2659 3156 2578 
Q 3156 2541 3150 2528 
L 2688 684 
Q 2644 494 2644 372 
Q 2644 97 2828 97 
Q 3034 97 3136 351 
Q 3238 606 3309 941 
Q 3322 978 3359 978 
L 3438 978 
Q 3463 978 3478 956 
Q 3494 934 3494 916 
Q 3425 641 3361 444 
Q 3297 247 3159 87 
Q 3022 -72 2816 -72 
Q 2613 -72 2452 39 
Q 2291 150 2234 341 
Q 2088 153 1894 40 
Q 1700 -72 1484 -72 
Q 1116 -72 897 129 
Q 678 331 678 697 
z
" transform="scale(0.015625)"/>
      <path id="Cmr10-2b" d="M 481 1472 
Q 428 1472 393 1512 
Q 359 1553 359 1600 
Q 359 1647 393 1687 
Q 428 1728 481 1728 
L 2363 1728 
L 2363 3616 
Q 2363 3666 2400 3698 
Q 2438 3731 2491 3731 
Q 2538 3731 2578 3698 
Q 2619 3666 2619 3616 
L 2619 1728 
L 4500 1728 
Q 4547 1728 4581 1687 
Q 4616 1647 4616 1600 
Q 4616 1553 4581 1512 
Q 4547 1472 4500 1472 
L 2619 1472 
L 2619 -416 
Q 2619 -466 2578 -498 
Q 2538 -531 2491 -531 
Q 2438 -531 2400 -498 
Q 2363 -466 2363 -416 
L 2363 1472 
L 481 1472 
z
" transform="scale(0.015625)"/>
      <path id="Cmr10-28" d="M 1984 -1588 
Q 1628 -1306 1370 -942 
Q 1113 -578 948 -165 
Q 784 247 703 697 
Q 622 1147 622 1600 
Q 622 2059 703 2509 
Q 784 2959 951 3375 
Q 1119 3791 1378 4153 
Q 1638 4516 1984 4788 
Q 1984 4800 2016 4800 
L 2075 4800 
Q 2094 4800 2109 4783 
Q 2125 4766 2125 4744 
Q 2125 4716 2113 4703 
Q 1800 4397 1592 4047 
Q 1384 3697 1257 3301 
Q 1131 2906 1075 2482 
Q 1019 2059 1019 1600 
Q 1019 -434 2106 -1491 
Q 2125 -1509 2125 -1544 
Q 2125 -1559 2108 -1579 
Q 2091 -1600 2075 -1600 
L 2016 -1600 
Q 1984 -1600 1984 -1588 
z
" transform="scale(0.015625)"/>
      <path id="Cmr10-29" d="M 416 -1600 
Q 359 -1600 359 -1544 
Q 359 -1516 372 -1503 
Q 1466 -434 1466 1600 
Q 1466 3634 384 4691 
Q 359 4706 359 4744 
Q 359 4766 376 4783 
Q 394 4800 416 4800 
L 475 4800 
Q 494 4800 506 4788 
Q 966 4425 1272 3906 
Q 1578 3388 1720 2800 
Q 1863 2213 1863 1600 
Q 1863 1147 1786 708 
Q 1709 269 1542 -157 
Q 1375 -584 1119 -945 
Q 863 -1306 506 -1588 
Q 494 -1600 475 -1600 
L 416 -1600 
z
" transform="scale(0.015625)"/>
      <path id="DejaVuSerif-77" d="M 3072 3322 
L 3922 728 
L 4672 2988 
L 4191 2988 
L 4191 3322 
L 5394 3322 
L 5394 2988 
L 5025 2988 
L 4038 0 
L 3559 0 
L 2741 2484 
L 1919 0 
L 1459 0 
L 475 2988 
L 103 2988 
L 103 3322 
L 1606 3322 
L 1606 2988 
L 1069 2988 
L 1813 728 
L 2669 3322 
L 3072 3322 
z
" transform="scale(0.015625)"/>
      <path id="Cmr10-30" d="M 1600 -141 
Q 816 -141 533 504 
Q 250 1150 250 2041 
Q 250 2597 351 3087 
Q 453 3578 754 3920 
Q 1056 4263 1600 4263 
Q 2022 4263 2290 4056 
Q 2559 3850 2700 3523 
Q 2841 3197 2892 2823 
Q 2944 2450 2944 2041 
Q 2944 1491 2842 1011 
Q 2741 531 2444 195 
Q 2147 -141 1600 -141 
z
M 1600 25 
Q 1956 25 2131 390 
Q 2306 756 2347 1200 
Q 2388 1644 2388 2144 
Q 2388 2625 2347 3031 
Q 2306 3438 2132 3767 
Q 1959 4097 1600 4097 
Q 1238 4097 1063 3765 
Q 888 3434 847 3029 
Q 806 2625 806 2144 
Q 806 1788 823 1472 
Q 841 1156 916 820 
Q 991 484 1158 254 
Q 1325 25 1600 25 
z
" transform="scale(0.015625)"/>
      <path id="Cmmi10-3c" d="M 594 1491 
Q 531 1519 531 1600 
Q 531 1681 616 1722 
L 4269 3444 
Q 4294 3456 4313 3456 
Q 4369 3456 4405 3417 
Q 4441 3378 4441 3328 
Q 4441 3250 4366 3206 
L 959 1600 
L 4384 -19 
Q 4441 -38 4441 -128 
Q 4441 -178 4405 -217 
Q 4369 -256 4313 -256 
Q 4294 -256 4269 -244 
L 594 1491 
z
" transform="scale(0.015625)"/>
      <path id="Cmsy10-6a" d="M 763 -1484 
L 763 4684 
Q 763 4734 800 4767 
Q 838 4800 891 4800 
Q 938 4800 978 4767 
Q 1019 4734 1019 4684 
L 1019 -1484 
Q 1019 -1534 978 -1567 
Q 938 -1600 891 -1600 
Q 838 -1600 800 -1567 
Q 763 -1534 763 -1484 
z
" transform="scale(0.015625)"/>
      <path id="DejaVuSerif-28" d="M 2041 -997 
Q 1281 -656 893 83 
Q 506 822 506 1931 
Q 506 3044 893 3783 
Q 1281 4522 2041 4863 
L 2041 4556 
Q 1559 4225 1350 3623 
Q 1141 3022 1141 1931 
Q 1141 844 1350 242 
Q 1559 -359 2041 -691 
L 2041 -997 
z
" transform="scale(0.015625)"/>
      <path id="DejaVuSerif-4e" d="M 313 0 
L 313 331 
L 941 331 
L 941 4331 
L 313 4331 
L 313 4666 
L 1509 4666 
L 4306 984 
L 4306 4331 
L 3681 4331 
L 3681 4666 
L 5319 4666 
L 5319 4331 
L 4691 4331 
L 4691 -91 
L 4313 -91 
L 1325 3841 
L 1325 331 
L 1953 331 
L 1953 0 
L 313 0 
z
" transform="scale(0.015625)"/>
      <path id="DejaVuSerif-3a" d="M 666 325 
Q 666 500 786 622 
Q 906 744 1081 744 
Q 1256 744 1376 622 
Q 1497 500 1497 325 
Q 1497 150 1378 29 
Q 1259 -91 1081 -91 
Q 903 -91 784 29 
Q 666 150 666 325 
z
M 666 2363 
Q 666 2538 786 2658 
Q 906 2778 1081 2778 
Q 1259 2778 1378 2659 
Q 1497 2541 1497 2363 
Q 1497 2184 1378 2065 
Q 1259 1947 1081 1947 
Q 906 1947 786 2067 
Q 666 2188 666 2363 
z
" transform="scale(0.015625)"/>
      <path id="Cmr10-3d" d="M 481 850 
Q 428 850 393 890 
Q 359 931 359 978 
Q 359 1031 393 1068 
Q 428 1106 481 1106 
L 4500 1106 
Q 4547 1106 4581 1068 
Q 4616 1031 4616 978 
Q 4616 931 4581 890 
Q 4547 850 4500 850 
L 481 850 
z
M 481 2094 
Q 428 2094 393 2131 
Q 359 2169 359 2222 
Q 359 2269 393 2309 
Q 428 2350 481 2350 
L 4500 2350 
Q 4547 2350 4581 2309 
Q 4616 2269 4616 2222 
Q 4616 2169 4581 2131 
Q 4547 2094 4500 2094 
L 481 2094 
z
" transform="scale(0.015625)"/>
      <path id="Cmmi10-65" d="M 1288 -72 
Q 981 -72 751 87 
Q 522 247 401 517 
Q 281 788 281 1088 
Q 281 1544 511 1945 
Q 741 2347 1134 2587 
Q 1528 2828 1978 2828 
Q 2253 2828 2458 2686 
Q 2663 2544 2663 2278 
Q 2663 1909 2369 1729 
Q 2075 1550 1706 1508 
Q 1338 1466 891 1466 
L 872 1466 
Q 769 1084 769 813 
Q 769 528 900 312 
Q 1031 97 1300 97 
Q 1681 97 2032 272 
Q 2384 447 2606 756 
Q 2625 775 2656 775 
Q 2688 775 2720 739 
Q 2753 703 2753 672 
Q 2753 647 2741 634 
Q 2506 306 2109 117 
Q 1713 -72 1288 -72 
z
M 909 1631 
Q 1281 1631 1597 1665 
Q 1913 1700 2169 1839 
Q 2425 1978 2425 2272 
Q 2425 2391 2359 2480 
Q 2294 2569 2189 2616 
Q 2084 2663 1972 2663 
Q 1700 2663 1483 2516 
Q 1266 2369 1125 2133 
Q 984 1897 909 1631 
z
" transform="scale(0.015625)"/>
      <path id="Cmmi10-3d" d="M 359 -1472 
Q 359 -1453 366 -1447 
L 2591 4722 
Q 2603 4759 2634 4779 
Q 2666 4800 2706 4800 
Q 2763 4800 2798 4765 
Q 2834 4731 2834 4672 
L 2834 4647 
L 609 -1522 
Q 572 -1600 488 -1600 
Q 434 -1600 396 -1562 
Q 359 -1525 359 -1472 
z
" transform="scale(0.015625)"/>
      <path id="Cmr10-32" d="M 319 0 
L 319 172 
Q 319 188 331 206 
L 1325 1306 
Q 1550 1550 1690 1715 
Q 1831 1881 1968 2097 
Q 2106 2313 2186 2536 
Q 2266 2759 2266 3009 
Q 2266 3272 2169 3511 
Q 2072 3750 1880 3894 
Q 1688 4038 1416 4038 
Q 1138 4038 916 3870 
Q 694 3703 603 3438 
Q 628 3444 672 3444 
Q 816 3444 917 3347 
Q 1019 3250 1019 3097 
Q 1019 2950 917 2848 
Q 816 2747 672 2747 
Q 522 2747 420 2851 
Q 319 2956 319 3097 
Q 319 3338 409 3548 
Q 500 3759 670 3923 
Q 841 4088 1055 4175 
Q 1269 4263 1509 4263 
Q 1875 4263 2190 4108 
Q 2506 3953 2690 3670 
Q 2875 3388 2875 3009 
Q 2875 2731 2753 2481 
Q 2631 2231 2440 2026 
Q 2250 1822 1953 1562 
Q 1656 1303 1563 1216 
L 838 519 
L 1453 519 
Q 1906 519 2211 526 
Q 2516 534 2534 550 
Q 2609 631 2688 1141 
L 2875 1141 
L 2694 0 
L 319 0 
z
" transform="scale(0.015625)"/>
      <path id="DejaVuSerif-29" d="M 453 -997 
L 453 -691 
Q 934 -359 1145 242 
Q 1356 844 1356 1931 
Q 1356 3022 1145 3623 
Q 934 4225 453 4556 
L 453 4863 
Q 1216 4522 1603 3783 
Q 1991 3044 1991 1931 
Q 1991 822 1603 83 
Q 1216 -656 453 -997 
z
" transform="scale(0.015625)"/>
     </defs>
     <use xlink:href="#DejaVuSerif-4c" transform="translate(0 0.5)"/>
     <use xlink:href="#DejaVuSerif-65" transform="translate(66.40625 0.5)"/>
     <use xlink:href="#DejaVuSerif-74" transform="translate(125.585938 0.5)"/>
     <use xlink:href="#DejaVuSerif-20" transform="translate(165.771484 0.5)"/>
     <use xlink:href="#Cmmi10-61" transform="translate(197.558594 0.5)"/>
     <use xlink:href="#DejaVuSerif-20" transform="translate(250.341797 0.5)"/>
     <use xlink:href="#DejaVuSerif-61" transform="translate(282.128906 0.5)"/>
     <use xlink:href="#DejaVuSerif-6e" transform="translate(341.748047 0.5)"/>
     <use xlink:href="#DejaVuSerif-64" transform="translate(406.152344 0.5)"/>
     <use xlink:href="#DejaVuSerif-20" transform="translate(470.166016 0.5)"/>
     <use xlink:href="#Cmmi10-62" transform="translate(501.953125 0.5)"/>
     <use xlink:href="#DejaVuSerif-20" transform="translate(544.873047 0.5)"/>
     <use xlink:href="#DejaVuSerif-62" transform="translate(576.660156 0.5)"/>
     <use xlink:href="#DejaVuSerif-65" transform="translate(640.673828 0.5)"/>
     <use xlink:href="#DejaVuSerif-20" transform="translate(699.853516 0.5)"/>
     <use xlink:href="#DejaVuSerif-70" transform="translate(731.640625 0.5)"/>
     <use xlink:href="#DejaVuSerif-6f" transform="translate(795.654297 0.5)"/>
     <use xlink:href="#DejaVuSerif-73" transform="translate(855.859375 0.5)"/>
     <use xlink:href="#DejaVuSerif-69" transform="translate(907.177734 0.5)"/>
     <use xlink:href="#DejaVuSerif-74" transform="translate(939.160156 0.5)"/>
     <use xlink:href="#DejaVuSerif-69" transform="translate(979.345703 0.5)"/>
     <use xlink:href="#DejaVuSerif-76" transform="translate(1011.328125 0.5)"/>
     <use xlink:href="#DejaVuSerif-65" transform="translate(1067.822266 0.5)"/>
     <use xlink:href="#DejaVuSerif-20" transform="translate(1127.001953 0.5)"/>
     <use xlink:href="#DejaVuSerif-6e" transform="translate(1158.789062 0.5)"/>
     <use xlink:href="#DejaVuSerif-75" transform="translate(1223.193359 0.5)"/>
     <use xlink:href="#DejaVuSerif-6d" transform="translate(1287.597656 0.5)"/>
     <use xlink:href="#DejaVuSerif-62" transform="translate(1382.421875 0.5)"/>
     <use xlink:href="#DejaVuSerif-65" transform="translate(1446.435547 0.5)"/>
     <use xlink:href="#DejaVuSerif-72" transform="translate(1505.615234 0.5)"/>
     <use xlink:href="#DejaVuSerif-73" transform="translate(1553.417969 0.5)"/>
     <use xlink:href="#DejaVuSerif-2e" transform="translate(1604.736328 0.5)"/>
     <use xlink:href="#DejaVuSerif-20" transform="translate(1636.523438 0.5)"/>
     <use xlink:href="#DejaVuSerif-46" transform="translate(1668.310547 0.5)"/>
     <use xlink:href="#DejaVuSerif-69" transform="translate(1737.695312 0.5)"/>
     <use xlink:href="#DejaVuSerif-6e" transform="translate(1769.677734 0.5)"/>
     <use xlink:href="#DejaVuSerif-64" transform="translate(1834.082031 0.5)"/>
     <use xlink:href="#DejaVuSerif-20" transform="translate(1898.095703 0.5)"/>
     <use xlink:href="#DejaVuSerif-74" transform="translate(1929.882812 0.5)"/>
     <use xlink:href="#DejaVuSerif-68" transform="translate(1970.068359 0.5)"/>
     <use xlink:href="#DejaVuSerif-65" transform="translate(2034.472656 0.5)"/>
     <use xlink:href="#DejaVuSerif-20" transform="translate(2093.652344 0.5)"/>
     <use xlink:href="#DejaVuSerif-6c" transform="translate(2125.439453 0.5)"/>
     <use xlink:href="#DejaVuSerif-61" transform="translate(2157.421875 0.5)"/>
     <use xlink:href="#DejaVuSerif-72" transform="translate(2217.041016 0.5)"/>
     <use xlink:href="#DejaVuSerif-67" transform="translate(2264.84375 0.5)"/>
     <use xlink:href="#DejaVuSerif-65" transform="translate(2328.857422 0.5)"/>
     <use xlink:href="#DejaVuSerif-73" transform="translate(2388.037109 0.5)"/>
     <use xlink:href="#DejaVuSerif-74" transform="translate(2439.355469 0.5)"/>
     <use xlink:href="#DejaVuSerif-20" transform="translate(2479.541016 0.5)"/>
     <use xlink:href="#DejaVuSerif-6e" transform="translate(2511.328125 0.5)"/>
     <use xlink:href="#DejaVuSerif-75" transform="translate(2575.732422 0.5)"/>
     <use xlink:href="#DejaVuSerif-6d" transform="translate(2640.136719 0.5)"/>
     <use xlink:href="#DejaVuSerif-62" transform="translate(2734.960938 0.5)"/>
     <use xlink:href="#DejaVuSerif-65" transform="translate(2798.974609 0.5)"/>
     <use xlink:href="#DejaVuSerif-72" transform="translate(2858.154297 0.5)"/>
     <use xlink:href="#DejaVuSerif-20" transform="translate(2905.957031 0.5)"/>
     <use xlink:href="#Cmmi10-63" transform="translate(2937.744141 0.5)"/>
     <use xlink:href="#DejaVuSerif-2c" transform="translate(2980.957031 0.5)"/>
     <use xlink:href="#DejaVuSerif-20" transform="translate(3012.744141 0.5)"/>
     <use xlink:href="#DejaVuSerif-69" transform="translate(3044.53125 0.5)"/>
     <use xlink:href="#DejaVuSerif-6e" transform="translate(3076.513672 0.5)"/>
     <use xlink:href="#DejaVuSerif-20" transform="translate(3140.917969 0.5)"/>
     <use xlink:href="#DejaVuSerif-74" transform="translate(3172.705078 0.5)"/>
     <use xlink:href="#DejaVuSerif-65" transform="translate(3212.890625 0.5)"/>
     <use xlink:href="#DejaVuSerif-72" transform="translate(3272.070312 0.5)"/>
     <use xlink:href="#DejaVuSerif-6d" transform="translate(3319.873047 0.5)"/>
     <use xlink:href="#DejaVuSerif-73" transform="translate(3414.697266 0.5)"/>
     <use xlink:href="#DejaVuSerif-20" transform="translate(3466.015625 0.5)"/>
     <use xlink:href="#DejaVuSerif-6f" transform="translate(3497.802734 0.5)"/>
     <use xlink:href="#DejaVuSerif-66" transform="translate(3558.007812 0.5)"/>
     <use xlink:href="#DejaVuSerif-20" transform="translate(3595.019531 0.5)"/>
     <use xlink:href="#Cmmi10-61" transform="translate(3626.806641 0.5)"/>
     <use xlink:href="#DejaVuSerif-20" transform="translate(3679.589844 0.5)"/>
     <use xlink:href="#DejaVuSerif-61" transform="translate(3711.376953 0.5)"/>
     <use xlink:href="#DejaVuSerif-6e" transform="translate(3770.996094 0.5)"/>
     <use xlink:href="#DejaVuSerif-64" transform="translate(3835.400391 0.5)"/>
     <use xlink:href="#DejaVuSerif-20" transform="translate(3899.414062 0.5)"/>
     <use xlink:href="#Cmmi10-62" transform="translate(3931.201172 0.5)"/>
     <use xlink:href="#DejaVuSerif-2c" transform="translate(3974.121094 0.5)"/>
     <use xlink:href="#DejaVuSerif-20" transform="translate(4005.908203 0.5)"/>
     <use xlink:href="#DejaVuSerif-73" transform="translate(4037.695312 0.5)"/>
     <use xlink:href="#DejaVuSerif-75" transform="translate(4089.013672 0.5)"/>
     <use xlink:href="#DejaVuSerif-63" transform="translate(4153.417969 0.5)"/>
     <use xlink:href="#DejaVuSerif-68" transform="translate(4209.423828 0.5)"/>
     <use xlink:href="#DejaVuSerif-20" transform="translate(4273.828125 0.5)"/>
     <use xlink:href="#DejaVuSerif-74" transform="translate(4305.615234 0.5)"/>
     <use xlink:href="#DejaVuSerif-68" transform="translate(4345.800781 0.5)"/>
     <use xlink:href="#DejaVuSerif-61" transform="translate(4410.205078 0.5)"/>
     <use xlink:href="#DejaVuSerif-74" transform="translate(4469.824219 0.5)"/>
     <use xlink:href="#DejaVuSerif-20" transform="translate(4510.009766 0.5)"/>
     <use xlink:href="#Cmmi10-61" transform="translate(4541.796875 0.5)"/>
     <use xlink:href="#Cmmi10-78" transform="translate(4600.883359 38.764062) scale(0.7)"/>
     <use xlink:href="#Cmmi10-62" transform="translate(4647.216758 0.5)"/>
     <use xlink:href="#Cmr10-31" transform="translate(4701.732617 38.764062) scale(0.7)"/>
     <use xlink:href="#Cmsy10-a1" transform="translate(4749.023633 38.764062) scale(0.7)"/>
     <use xlink:href="#Cmmi10-78" transform="translate(4815.694531 38.764062) scale(0.7)"/>
     <use xlink:href="#STIXGeneral-Regular-2266" transform="translate(4879.586523 0.5)"/>
     <use xlink:href="#Cmmi10-61" transform="translate(4965.645102 0.5)"/>
     <use xlink:href="#Cmr10-73" transform="translate(5018.428305 38.7875) scale(0.7)"/>
     <use xlink:href="#Cmr10-69" transform="translate(5046.011313 38.7875) scale(0.7)"/>
     <use xlink:href="#Cmr10-6e" transform="translate(5065.391196 38.7875) scale(0.7)"/>
     <use xlink:href="#Cmr10-68" transform="translate(5104.2535 38.7875) scale(0.7)"/>
     <use xlink:href="#Cmmi10-75" transform="translate(5153.358523 38.7875) scale(0.7)"/>
     <use xlink:href="#Cmmi10-78" transform="translate(5193.382937 38.7875) scale(0.7)"/>
     <use xlink:href="#Cmr10-73" transform="translate(5038.428305 -41.823438) scale(0.7)"/>
     <use xlink:href="#Cmr10-69" transform="translate(5066.011313 -41.823438) scale(0.7)"/>
     <use xlink:href="#Cmr10-6e" transform="translate(5085.391196 -41.823438) scale(0.7)"/>
     <use xlink:href="#Cmr10-68" transform="translate(5124.2535 -41.823438) scale(0.7)"/>
     <use xlink:href="#Cmmi10-75" transform="translate(5173.358523 -41.823438) scale(0.7)"/>
     <use xlink:href="#Cmr10-2b" transform="translate(5263.397585 0.5)"/>
     <use xlink:href="#Cmmi10-62" transform="translate(5358.641726 0.5)"/>
     <use xlink:href="#Cmr10-73" transform="translate(5401.561648 55.5) scale(0.7)"/>
     <use xlink:href="#Cmr10-69" transform="translate(5429.144656 55.5) scale(0.7)"/>
     <use xlink:href="#Cmr10-6e" transform="translate(5448.524539 55.5) scale(0.7)"/>
     <use xlink:href="#Cmr10-68" transform="translate(5487.386843 55.5) scale(0.7)"/>
     <use xlink:href="#Cmmi10-75" transform="translate(5536.491866 55.5) scale(0.7)"/>
     <use xlink:href="#Cmr10-28" transform="translate(5576.51628 55.5) scale(0.7)"/>
     <use xlink:href="#Cmr10-31" transform="translate(5603.689131 55.5) scale(0.7)"/>
     <use xlink:href="#Cmsy10-a1" transform="translate(5650.980147 55.5) scale(0.7)"/>
     <use xlink:href="#Cmmi10-78" transform="translate(5717.651045 55.5) scale(0.7)"/>
     <use xlink:href="#Cmr10-29" transform="translate(5757.6071 55.5) scale(0.7)"/>
     <use xlink:href="#Cmr10-73" transform="translate(5505.561648 -41.823438) scale(0.7)"/>
     <use xlink:href="#Cmr10-69" transform="translate(5533.144656 -41.823438) scale(0.7)"/>
     <use xlink:href="#Cmr10-6e" transform="translate(5552.524539 -41.823438) scale(0.7)"/>
     <use xlink:href="#Cmr10-68" transform="translate(5591.386843 -41.823438) scale(0.7)"/>
     <use xlink:href="#Cmmi10-75" transform="translate(5640.491866 -41.823438) scale(0.7)"/>
     <use xlink:href="#DejaVuSerif-20" transform="translate(5797.279952 0.5)"/>
     <use xlink:href="#DejaVuSerif-66" transform="translate(5829.067061 0.5)"/>
     <use xlink:href="#DejaVuSerif-6f" transform="translate(5866.07878 0.5)"/>
     <use xlink:href="#DejaVuSerif-72" transform="translate(5926.283858 0.5)"/>
     <use xlink:href="#DejaVuSerif-20" transform="translate(5974.086592 0.5)"/>
     <use xlink:href="#DejaVuSerif-61" transform="translate(6005.873702 0.5)"/>
     <use xlink:href="#DejaVuSerif-6c" transform="translate(6065.492842 0.5)"/>
     <use xlink:href="#DejaVuSerif-6c" transform="translate(6097.475264 0.5)"/>
     <use xlink:href="#DejaVuSerif-20" transform="translate(6129.457686 0.5)"/>
     <use xlink:href="#Cmmi10-75" transform="translate(6161.244795 0.5)"/>
     <use xlink:href="#DejaVuSerif-20" transform="translate(6218.42253 0.5)"/>
     <use xlink:href="#DejaVuSerif-77" transform="translate(6250.209639 0.5)"/>
     <use xlink:href="#DejaVuSerif-69" transform="translate(6335.805342 0.5)"/>
     <use xlink:href="#DejaVuSerif-74" transform="translate(6367.787764 0.5)"/>
     <use xlink:href="#DejaVuSerif-68" transform="translate(6407.973311 0.5)"/>
     <use xlink:href="#DejaVuSerif-20" transform="translate(6472.377608 0.5)"/>
     <use xlink:href="#Cmr10-30" transform="translate(6504.164717 0.5)"/>
     <use xlink:href="#Cmmi10-3c" transform="translate(6571.723311 0.5)"/>
     <use xlink:href="#Cmsy10-6a" transform="translate(6666.967452 0.5)"/>
     <use xlink:href="#Cmmi10-75" transform="translate(6694.652999 0.5)"/>
     <use xlink:href="#Cmsy10-6a" transform="translate(6751.830733 0.5)"/>
     <use xlink:href="#STIXGeneral-Regular-2266" transform="translate(6797.074874 0.5)"/>
     <use xlink:href="#Cmmi10-63" transform="translate(6883.133452 0.5)"/>
     <use xlink:href="#DejaVuSerif-20" transform="translate(6926.346343 0.5)"/>
     <use xlink:href="#DejaVuSerif-61" transform="translate(6958.133452 0.5)"/>
     <use xlink:href="#DejaVuSerif-6e" transform="translate(7017.752593 0.5)"/>
     <use xlink:href="#DejaVuSerif-64" transform="translate(7082.15689 0.5)"/>
     <use xlink:href="#DejaVuSerif-20" transform="translate(7146.170561 0.5)"/>
     <use xlink:href="#DejaVuSerif-66" transform="translate(7177.957671 0.5)"/>
     <use xlink:href="#DejaVuSerif-6f" transform="translate(7214.96939 0.5)"/>
     <use xlink:href="#DejaVuSerif-72" transform="translate(7275.174468 0.5)"/>
     <use xlink:href="#DejaVuSerif-20" transform="translate(7322.977202 0.5)"/>
     <use xlink:href="#DejaVuSerif-61" transform="translate(7354.764311 0.5)"/>
     <use xlink:href="#DejaVuSerif-6c" transform="translate(7414.383452 0.5)"/>
     <use xlink:href="#DejaVuSerif-6c" transform="translate(7446.365874 0.5)"/>
     <use xlink:href="#DejaVuSerif-20" transform="translate(7478.348296 0.5)"/>
     <use xlink:href="#Cmmi10-78" transform="translate(7510.135405 0.5)"/>
     <use xlink:href="#DejaVuSerif-2c" transform="translate(7567.215483 0.5)"/>
     <use xlink:href="#DejaVuSerif-20" transform="translate(7599.002593 0.5)"/>
     <use xlink:href="#Cmr10-30" transform="translate(7630.789702 0.5)"/>
     <use xlink:href="#Cmmi10-3c" transform="translate(7698.348296 0.5)"/>
     <use xlink:href="#Cmmi10-78" transform="translate(7793.592436 0.5)"/>
     <use xlink:href="#Cmmi10-3c" transform="translate(7868.231108 0.5)"/>
     <use xlink:href="#Cmr10-31" transform="translate(7963.475249 0.5)"/>
     <use xlink:href="#DejaVuSerif-2e" transform="translate(8013.475249 0.5)"/>
     <use xlink:href="#DejaVuSerif-20" transform="translate(8045.262358 0.5)"/>
     <use xlink:href="#DejaVuSerif-28" transform="translate(8077.049468 0.5)"/>
     <use xlink:href="#DejaVuSerif-4e" transform="translate(8116.06314 0.5)"/>
     <use xlink:href="#DejaVuSerif-6f" transform="translate(8203.56314 0.5)"/>
     <use xlink:href="#DejaVuSerif-74" transform="translate(8263.768218 0.5)"/>
     <use xlink:href="#DejaVuSerif-65" transform="translate(8303.953765 0.5)"/>
     <use xlink:href="#DejaVuSerif-3a" transform="translate(8363.133452 0.5)"/>
     <use xlink:href="#DejaVuSerif-20" transform="translate(8396.824858 0.5)"/>
     <use xlink:href="#Cmr10-73" transform="translate(8428.611968 0.5)"/>
     <use xlink:href="#Cmr10-69" transform="translate(8468.016265 0.5)"/>
     <use xlink:href="#Cmr10-6e" transform="translate(8495.701811 0.5)"/>
     <use xlink:href="#Cmr10-68" transform="translate(8551.21939 0.5)"/>
     <use xlink:href="#Cmmi10-75" transform="translate(8621.369422 0.5)"/>
     <use xlink:href="#Cmr10-3d" transform="translate(8696.10575 0.5)"/>
     <use xlink:href="#Cmr10-28" transform="translate(8791.349891 0.5)"/>
     <use xlink:href="#Cmmi10-65" transform="translate(8830.16825 0.5)"/>
     <use xlink:href="#Cmmi10-75" transform="translate(8882.955906 38.764062) scale(0.7)"/>
     <use xlink:href="#Cmsy10-a1" transform="translate(8946.916258 0.5)"/>
     <use xlink:href="#Cmmi10-65" transform="translate(9042.160398 0.5)"/>
     <use xlink:href="#Cmsy10-a1" transform="translate(9094.948055 38.764062) scale(0.7)"/>
     <use xlink:href="#Cmmi10-75" transform="translate(9149.327937 38.764062) scale(0.7)"/>
     <use xlink:href="#Cmr10-29" transform="translate(9195.729695 0.5)"/>
     <use xlink:href="#Cmmi10-3d" transform="translate(9234.548055 0.5)"/>
     <use xlink:href="#Cmr10-32" transform="translate(9284.548055 0.5)"/>
     <use xlink:href="#DejaVuSerif-2e" transform="translate(9334.548055 0.5)"/>
     <use xlink:href="#DejaVuSerif-29" transform="translate(9366.335164 0.5)"/>
     <path d="M 5018.428305 13 
L 5018.428305 19.25 
L 5233.338992 19.25 
L 5233.338992 13 
L 5018.428305 13 
z
"/>
     <path d="M 5401.561648 13 
L 5401.561648 19.25 
L 5784.779952 19.25 
L 5784.779952 13 
L 5401.561648 13 
z
"/>
    </g>
   </g>
  </g>
 </g>
</svg>
