<?xml version="1.0" encoding="utf-8" standalone="no"?>
<!DOCTYPE svg PUBLIC "-//W3C//DTD SVG 1.1//EN"
  "http://www.w3.org/Graphics/SVG/1.1/DTD/svg11.dtd">
<svg xmlns:xlink="http://www.w3.org/1999/xlink" width="948.3375pt" height="228.4pt" viewBox="0 0 948.3375 228.4" xmlns="http://www.w3.org/2000/svg" version="1.1">
 <metadata>
  <rdf:RDF xmlns:dc="http://purl.org/dc/elements/1.1/" xmlns:cc="http://creativecommons.org/ns#" xmlns:rdf="http://www.w3.org/1999/02/22-rdf-syntax-ns#">
   <cc:Work>
    <dc:type rdf:resource="http://purl.org/dc/dcmitype/StillImage"/>
    <dc:date>2025-05-29T18:44:19.561875</dc:date>
    <dc:format>image/svg+xml</dc:format>
    <dc:creator>
     <cc:Agent>
      <dc:title>Matplotlib v3.10.3, https://matplotlib.org/</dc:title>
     </cc:Agent>
    </dc:creator>
   </cc:Work>
  </rdf:RDF>
 </metadata>
 <defs>
  <style type="text/css">*{stroke-linejoin: round; stroke-linecap: butt}</style>
 </defs>
 <g id="figure_1">
  <g id="patch_1">
   <path d="M 0 228.4 
L 948.3375 228.4 
L 948.3375 0 
L 0 0 
z
" style="fill: #ffffff"/>
  </g>
  <g id="axes_1">
   <g id="text_1">
    <!-- For all $n \geqq 1$, let -->
    <g transform="translate(427.72875 70.075438) scale(0.12 -0.12)">
     <defs>
      <path id="DejaVuSerif-46" d="M 353 0 
L 353 331 
L 947 331 
L 947 4331 
L 353 4331 
L 353 4666 
L 4172 4666 
L 4172 3628 
L 3788 3628 
L 3788 4281 
L 1581 4281 
L 1581 2719 
L 3175 2719 
L 3175 3303 
L 3559 3303 
L 3559 1753 
L 3175 1753 
L 3175 2338 
L 1581 2338 
L 1581 331 
L 2328 331 
L 2328 0 
L 353 0 
z
" transform="scale(0.015625)"/>
      <path id="DejaVuSerif-6f" d="M 1925 219 
Q 2388 219 2623 584 
Q 2859 950 2859 1663 
Q 2859 2375 2623 2739 
Q 2388 3103 1925 3103 
Q 1463 3103 1227 2739 
Q 991 2375 991 1663 
Q 991 950 1228 584 
Q 1466 219 1925 219 
z
M 1925 -91 
Q 1200 -91 759 389 
Q 319 869 319 1663 
Q 319 2456 758 2934 
Q 1197 3413 1925 3413 
Q 2653 3413 3092 2934 
Q 3531 2456 3531 1663 
Q 3531 869 3092 389 
Q 2653 -91 1925 -91 
z
" transform="scale(0.015625)"/>
      <path id="DejaVuSerif-72" d="M 3059 3328 
L 3059 2497 
L 2728 2497 
Q 2713 2744 2591 2866 
Q 2469 2988 2234 2988 
Q 1809 2988 1582 2694 
Q 1356 2400 1356 1850 
L 1356 331 
L 2022 331 
L 2022 0 
L 263 0 
L 263 331 
L 781 331 
L 781 2994 
L 231 2994 
L 231 3322 
L 1356 3322 
L 1356 2731 
Q 1525 3078 1790 3245 
Q 2056 3413 2438 3413 
Q 2578 3413 2733 3391 
Q 2888 3369 3059 3328 
z
" transform="scale(0.015625)"/>
      <path id="DejaVuSerif-20" transform="scale(0.015625)"/>
      <path id="DejaVuSerif-61" d="M 2547 1044 
L 2547 1747 
L 1806 1747 
Q 1378 1747 1168 1562 
Q 959 1378 959 997 
Q 959 650 1171 447 
Q 1384 244 1747 244 
Q 2106 244 2326 466 
Q 2547 688 2547 1044 
z
M 3122 2075 
L 3122 331 
L 3634 331 
L 3634 0 
L 2547 0 
L 2547 359 
Q 2356 128 2106 18 
Q 1856 -91 1522 -91 
Q 969 -91 644 203 
Q 319 497 319 997 
Q 319 1513 691 1797 
Q 1063 2081 1741 2081 
L 2547 2081 
L 2547 2309 
Q 2547 2688 2317 2895 
Q 2088 3103 1672 3103 
Q 1328 3103 1125 2947 
Q 922 2791 872 2484 
L 575 2484 
L 575 3156 
Q 875 3284 1158 3348 
Q 1441 3413 1709 3413 
Q 2400 3413 2761 3070 
Q 3122 2728 3122 2075 
z
" transform="scale(0.015625)"/>
      <path id="DejaVuSerif-6c" d="M 1313 331 
L 1856 331 
L 1856 0 
L 184 0 
L 184 331 
L 738 331 
L 738 4531 
L 184 4531 
L 184 4863 
L 1313 4863 
L 1313 331 
z
" transform="scale(0.015625)"/>
      <path id="Cmmi10-6e" d="M 494 109 
Q 494 147 500 166 
L 978 2075 
Q 1025 2253 1025 2388 
Q 1025 2663 838 2663 
Q 638 2663 541 2423 
Q 444 2184 353 1819 
Q 353 1800 334 1789 
Q 316 1778 300 1778 
L 225 1778 
Q 203 1778 187 1801 
Q 172 1825 172 1844 
Q 241 2122 305 2315 
Q 369 2509 505 2668 
Q 641 2828 844 2828 
Q 1084 2828 1268 2676 
Q 1453 2525 1453 2291 
Q 1644 2541 1900 2684 
Q 2156 2828 2444 2828 
Q 2672 2828 2837 2750 
Q 3003 2672 3095 2514 
Q 3188 2356 3188 2138 
Q 3188 1875 3070 1503 
Q 2953 1131 2778 672 
Q 2688 463 2688 288 
Q 2688 97 2834 97 
Q 3084 97 3251 365 
Q 3419 634 3488 941 
Q 3500 978 3541 978 
L 3616 978 
Q 3641 978 3658 962 
Q 3675 947 3675 922 
Q 3675 916 3669 903 
Q 3581 541 3364 234 
Q 3147 -72 2822 -72 
Q 2597 -72 2437 83 
Q 2278 238 2278 459 
Q 2278 578 2328 709 
Q 2409 919 2514 1209 
Q 2619 1500 2686 1765 
Q 2753 2031 2753 2234 
Q 2753 2413 2679 2538 
Q 2606 2663 2431 2663 
Q 2197 2663 2000 2559 
Q 1803 2456 1656 2286 
Q 1509 2116 1388 1881 
L 953 141 
Q 931 53 854 -9 
Q 778 -72 684 -72 
Q 606 -72 550 -22 
Q 494 28 494 109 
z
" transform="scale(0.015625)"/>
      <path id="STIXGeneral-Regular-2267" d="M 3981 2771 
L 365 1024 
L 365 1427 
L 3130 2803 
L 365 4179 
L 365 4595 
L 3981 2835 
L 3981 2771 
z
M 3981 -77 
L 365 -77 
L 365 346 
L 3981 346 
L 3981 -77 
z
M 3981 -1350 
L 365 -1350 
L 365 -928 
L 3981 -928 
L 3981 -1350 
z
" transform="scale(0.015625)"/>
      <path id="Cmr10-31" d="M 594 0 
L 594 225 
Q 1394 225 1394 428 
L 1394 3788 
Q 1063 3628 556 3628 
L 556 3853 
Q 1341 3853 1741 4263 
L 1831 4263 
Q 1853 4263 1873 4245 
Q 1894 4228 1894 4206 
L 1894 428 
Q 1894 225 2694 225 
L 2694 0 
L 594 0 
z
" transform="scale(0.015625)"/>
      <path id="DejaVuSerif-2c" d="M 231 -622 
Q 525 -406 662 -114 
Q 800 178 800 594 
L 800 709 
L 1416 709 
Q 1391 175 1164 -208 
Q 938 -591 481 -872 
L 231 -622 
z
" transform="scale(0.015625)"/>
      <path id="DejaVuSerif-65" d="M 3469 1600 
L 991 1600 
L 991 1575 
Q 991 903 1244 561 
Q 1497 219 1991 219 
Q 2369 219 2611 417 
Q 2853 616 2950 1006 
L 3413 1006 
Q 3275 459 2904 184 
Q 2534 -91 1931 -91 
Q 1203 -91 761 389 
Q 319 869 319 1663 
Q 319 2450 753 2931 
Q 1188 3413 1894 3413 
Q 2647 3413 3050 2948 
Q 3453 2484 3469 1600 
z
M 2791 1931 
Q 2772 2513 2545 2808 
Q 2319 3103 1894 3103 
Q 1497 3103 1269 2806 
Q 1041 2509 991 1931 
L 2791 1931 
z
" transform="scale(0.015625)"/>
      <path id="DejaVuSerif-74" d="M 691 2988 
L 184 2988 
L 184 3322 
L 691 3322 
L 691 4353 
L 1269 4353 
L 1269 3322 
L 2350 3322 
L 2350 2988 
L 1269 2988 
L 1269 878 
Q 1269 456 1350 337 
Q 1431 219 1650 219 
Q 1875 219 1978 351 
Q 2081 484 2088 781 
L 2522 781 
Q 2497 328 2275 118 
Q 2053 -91 1600 -91 
Q 1103 -91 897 129 
Q 691 350 691 878 
L 691 2988 
z
" transform="scale(0.015625)"/>
     </defs>
     <use xlink:href="#DejaVuSerif-46" transform="translate(0 0.015625)"/>
     <use xlink:href="#DejaVuSerif-6f" transform="translate(69.384766 0.015625)"/>
     <use xlink:href="#DejaVuSerif-72" transform="translate(129.589844 0.015625)"/>
     <use xlink:href="#DejaVuSerif-20" transform="translate(177.392578 0.015625)"/>
     <use xlink:href="#DejaVuSerif-61" transform="translate(209.179688 0.015625)"/>
     <use xlink:href="#DejaVuSerif-6c" transform="translate(268.798828 0.015625)"/>
     <use xlink:href="#DejaVuSerif-6c" transform="translate(300.78125 0.015625)"/>
     <use xlink:href="#DejaVuSerif-20" transform="translate(332.763672 0.015625)"/>
     <use xlink:href="#Cmmi10-6e" transform="translate(364.550781 0.015625)"/>
     <use xlink:href="#STIXGeneral-Regular-2267" transform="translate(442.119141 0.015625)"/>
     <use xlink:href="#Cmr10-31" transform="translate(528.177719 0.015625)"/>
     <use xlink:href="#DejaVuSerif-2c" transform="translate(578.177719 0.015625)"/>
     <use xlink:href="#DejaVuSerif-20" transform="translate(609.964828 0.015625)"/>
     <use xlink:href="#DejaVuSerif-6c" transform="translate(641.751938 0.015625)"/>
     <use xlink:href="#DejaVuSerif-65" transform="translate(673.73436 0.015625)"/>
     <use xlink:href="#DejaVuSerif-74" transform="translate(732.914047 0.015625)"/>
    </g>
    <!-- \[ -->
    <g transform="translate(469.806562 83.657188) scale(0.12 -0.12)">
     <defs>
      <path id="DejaVuSerif-5c" d="M 500 4666 
L 2156 -594 
L 1656 -594 
L 0 4666 
L 500 4666 
z
" transform="scale(0.015625)"/>
      <path id="DejaVuSerif-5b" d="M 550 4863 
L 2003 4863 
L 2003 4531 
L 1147 4531 
L 1147 -513 
L 2003 -513 
L 2003 -844 
L 550 -844 
L 550 4863 
z
" transform="scale(0.015625)"/>
     </defs>
     <use xlink:href="#DejaVuSerif-5c"/>
     <use xlink:href="#DejaVuSerif-5b" transform="translate(33.691406 0)"/>
    </g>
    <!-- a_n = \sum_{k=1}^{n-1} \frac{\sin \leqft( \frac{(2k-1)\pi}{2n} \right)}{\cos^2 \leqft( \frac{(k-1)\pi}{2n} \right) \cos^2 \leqft( \frac{k\pi}{2n} \right)}. -->
    <g transform="translate(7.2 97.094563) scale(0.12 -0.12)">
     <defs>
      <path id="DejaVuSerif-5f" d="M 3200 -1259 
L 3200 -1509 
L 0 -1509 
L 0 -1259 
L 3200 -1259 
z
" transform="scale(0.015625)"/>
      <path id="DejaVuSerif-6e" d="M 263 0 
L 263 331 
L 781 331 
L 781 2988 
L 231 2988 
L 231 3322 
L 1356 3322 
L 1356 2731 
Q 1516 3069 1770 3241 
Q 2025 3413 2363 3413 
Q 2913 3413 3172 3097 
Q 3431 2781 3431 2113 
L 3431 331 
L 3944 331 
L 3944 0 
L 2356 0 
L 2356 331 
L 2853 331 
L 2853 1931 
Q 2853 2541 2703 2767 
Q 2553 2994 2175 2994 
Q 1775 2994 1565 2701 
Q 1356 2409 1356 1850 
L 1356 331 
L 1856 331 
L 1856 0 
L 263 0 
z
" transform="scale(0.015625)"/>
      <path id="DejaVuSerif-3d" d="M 678 2894 
L 4684 2894 
L 4684 2394 
L 678 2394 
L 678 2894 
z
M 678 1619 
L 4684 1619 
L 4684 1119 
L 678 1119 
L 678 1619 
z
" transform="scale(0.015625)"/>
      <path id="DejaVuSerif-73" d="M 359 184 
L 359 959 
L 691 959 
Q 703 588 923 403 
Q 1144 219 1575 219 
Q 1963 219 2166 364 
Q 2369 509 2369 788 
Q 2369 1006 2220 1140 
Q 2072 1275 1594 1428 
L 1178 1569 
Q 750 1706 558 1912 
Q 366 2119 366 2438 
Q 366 2894 700 3153 
Q 1034 3413 1625 3413 
Q 1888 3413 2178 3344 
Q 2469 3275 2778 3144 
L 2778 2419 
L 2447 2419 
Q 2434 2741 2221 2922 
Q 2009 3103 1644 3103 
Q 1281 3103 1095 2975 
Q 909 2847 909 2591 
Q 909 2381 1050 2254 
Q 1191 2128 1613 1997 
L 2069 1856 
Q 2541 1709 2748 1489 
Q 2956 1269 2956 922 
Q 2956 450 2595 179 
Q 2234 -91 1600 -91 
Q 1278 -91 972 -22 
Q 666 47 359 184 
z
" transform="scale(0.015625)"/>
      <path id="DejaVuSerif-75" d="M 2266 3322 
L 3341 3322 
L 3341 331 
L 3884 331 
L 3884 0 
L 2766 0 
L 2766 588 
Q 2606 256 2353 82 
Q 2100 -91 1766 -91 
Q 1213 -91 952 223 
Q 691 538 691 1209 
L 691 2988 
L 172 2988 
L 172 3322 
L 1269 3322 
L 1269 1388 
Q 1269 781 1417 556 
Q 1566 331 1947 331 
Q 2347 331 2556 625 
Q 2766 919 2766 1478 
L 2766 2988 
L 2266 2988 
L 2266 3322 
z
" transform="scale(0.015625)"/>
      <path id="DejaVuSerif-6d" d="M 3316 2675 
Q 3481 3041 3739 3227 
Q 3997 3413 4341 3413 
Q 4863 3413 5119 3089 
Q 5375 2766 5375 2113 
L 5375 331 
L 5894 331 
L 5894 0 
L 4300 0 
L 4300 331 
L 4800 331 
L 4800 2047 
Q 4800 2556 4650 2772 
Q 4500 2988 4153 2988 
Q 3769 2988 3567 2697 
Q 3366 2406 3366 1850 
L 3366 331 
L 3866 331 
L 3866 0 
L 2291 0 
L 2291 331 
L 2791 331 
L 2791 2069 
Q 2791 2566 2641 2777 
Q 2491 2988 2144 2988 
Q 1759 2988 1557 2697 
Q 1356 2406 1356 1850 
L 1356 331 
L 1856 331 
L 1856 0 
L 263 0 
L 263 331 
L 781 331 
L 781 2994 
L 231 2994 
L 231 3322 
L 1356 3322 
L 1356 2731 
Q 1516 3063 1762 3238 
Q 2009 3413 2322 3413 
Q 2709 3413 2968 3220 
Q 3228 3028 3316 2675 
z
" transform="scale(0.015625)"/>
      <path id="DejaVuSerif-7b" d="M 3272 -716 
L 3272 -1044 
L 3078 -1044 
Q 2300 -1044 2036 -812 
Q 1772 -581 1772 109 
L 1772 916 
Q 1772 1384 1603 1565 
Q 1434 1747 991 1747 
L 800 1747 
L 800 2075 
L 991 2075 
Q 1434 2075 1603 2256 
Q 1772 2438 1772 2906 
L 1772 3713 
Q 1772 4403 2036 4633 
Q 2300 4863 3078 4863 
L 3272 4863 
L 3272 4538 
L 3059 4538 
Q 2619 4538 2484 4400 
Q 2350 4263 2350 3822 
L 2350 2925 
Q 2350 2431 2194 2218 
Q 2038 2006 1631 1913 
Q 2044 1806 2197 1597 
Q 2350 1388 2350 897 
L 2350 0 
Q 2350 -441 2484 -578 
Q 2619 -716 3059 -716 
L 3272 -716 
z
" transform="scale(0.015625)"/>
      <path id="DejaVuSerif-6b" d="M 1831 0 
L 219 0 
L 219 331 
L 738 331 
L 738 4531 
L 184 4531 
L 184 4863 
L 1313 4863 
L 1313 1697 
L 2713 2988 
L 2234 2988 
L 2234 3322 
L 3738 3322 
L 3738 2988 
L 3169 2988 
L 2181 2075 
L 3444 331 
L 3922 331 
L 3922 0 
L 2284 0 
L 2284 331 
L 2759 331 
L 1766 1697 
L 1313 1275 
L 1313 331 
L 1831 331 
L 1831 0 
z
" transform="scale(0.015625)"/>
      <path id="DejaVuSerif-31" d="M 909 0 
L 909 331 
L 1722 331 
L 1722 4213 
L 781 3603 
L 781 4013 
L 1919 4750 
L 2350 4750 
L 2350 331 
L 3163 331 
L 3163 0 
L 909 0 
z
" transform="scale(0.015625)"/>
      <path id="DejaVuSerif-7d" d="M 800 -716 
L 1019 -716 
Q 1456 -716 1589 -580 
Q 1722 -444 1722 0 
L 1722 897 
Q 1722 1388 1875 1597 
Q 2028 1806 2438 1913 
Q 2031 2006 1876 2218 
Q 1722 2431 1722 2925 
L 1722 3822 
Q 1722 4266 1589 4402 
Q 1456 4538 1019 4538 
L 800 4538 
L 800 4863 
L 997 4863 
Q 1775 4863 2036 4633 
Q 2297 4403 2297 3713 
L 2297 2906 
Q 2297 2438 2465 2256 
Q 2634 2075 3078 2075 
L 3272 2075 
L 3272 1747 
L 3078 1747 
Q 2634 1747 2465 1565 
Q 2297 1384 2297 916 
L 2297 109 
Q 2297 -581 2036 -812 
Q 1775 -1044 997 -1044 
L 800 -1044 
L 800 -716 
z
" transform="scale(0.015625)"/>
      <path id="DejaVuSerif-5e" d="M 2988 4666 
L 4684 2925 
L 4206 2925 
L 2681 4116 
L 1159 2925 
L 678 2925 
L 2375 4666 
L 2988 4666 
z
" transform="scale(0.015625)"/>
      <path id="DejaVuSerif-2d" d="M 281 1959 
L 1881 1959 
L 1881 1472 
L 281 1472 
L 281 1959 
z
" transform="scale(0.015625)"/>
      <path id="DejaVuSerif-66" d="M 2753 4078 
L 2450 4078 
Q 2447 4313 2317 4434 
Q 2188 4556 1941 4556 
Q 1619 4556 1487 4379 
Q 1356 4203 1356 3750 
L 1356 3322 
L 2284 3322 
L 2284 2988 
L 1356 2988 
L 1356 331 
L 2094 331 
L 2094 0 
L 231 0 
L 231 331 
L 781 331 
L 781 2988 
L 231 2988 
L 231 3322 
L 781 3322 
L 781 3738 
Q 781 4294 1070 4578 
Q 1359 4863 1919 4863 
Q 2128 4863 2337 4825 
Q 2547 4788 2753 4709 
L 2753 4078 
z
" transform="scale(0.015625)"/>
      <path id="DejaVuSerif-63" d="M 3291 997 
Q 3169 466 2822 187 
Q 2475 -91 1925 -91 
Q 1200 -91 759 389 
Q 319 869 319 1663 
Q 319 2459 759 2936 
Q 1200 3413 1925 3413 
Q 2241 3413 2553 3339 
Q 2866 3266 3181 3116 
L 3181 2266 
L 2847 2266 
Q 2781 2703 2561 2903 
Q 2341 3103 1931 3103 
Q 1466 3103 1228 2742 
Q 991 2381 991 1663 
Q 991 944 1227 581 
Q 1463 219 1931 219 
Q 2303 219 2525 412 
Q 2747 606 2828 997 
L 3291 997 
z
" transform="scale(0.015625)"/>
      <path id="DejaVuSerif-69" d="M 622 4353 
Q 622 4497 726 4603 
Q 831 4709 978 4709 
Q 1122 4709 1226 4603 
Q 1331 4497 1331 4353 
Q 1331 4206 1228 4103 
Q 1125 4000 978 4000 
Q 831 4000 726 4103 
Q 622 4206 622 4353 
z
M 1356 331 
L 1900 331 
L 1900 0 
L 231 0 
L 231 331 
L 781 331 
L 781 2988 
L 231 2988 
L 231 3322 
L 1356 3322 
L 1356 331 
z
" transform="scale(0.015625)"/>
      <path id="DejaVuSerif-71" d="M 3359 2988 
L 3359 -997 
L 3909 -997 
L 3909 -1331 
L 2241 -1331 
L 2241 -997 
L 2784 -997 
L 2784 519 
Q 2616 206 2355 57 
Q 2094 -91 1709 -91 
Q 1097 -91 708 395 
Q 319 881 319 1663 
Q 319 2444 706 2928 
Q 1094 3413 1709 3413 
Q 2094 3413 2355 3264 
Q 2616 3116 2784 2803 
L 2784 3322 
L 3909 3322 
L 3909 2988 
L 3359 2988 
z
M 2784 1825 
Q 2784 2422 2554 2737 
Q 2325 3053 1888 3053 
Q 1444 3053 1217 2703 
Q 991 2353 991 1663 
Q 991 975 1217 622 
Q 1444 269 1888 269 
Q 2325 269 2554 583 
Q 2784 897 2784 1497 
L 2784 1825 
z
" transform="scale(0.015625)"/>
      <path id="DejaVuSerif-28" d="M 2041 -997 
Q 1281 -656 893 83 
Q 506 822 506 1931 
Q 506 3044 893 3783 
Q 1281 4522 2041 4863 
L 2041 4556 
Q 1559 4225 1350 3623 
Q 1141 3022 1141 1931 
Q 1141 844 1350 242 
Q 1559 -359 2041 -691 
L 2041 -997 
z
" transform="scale(0.015625)"/>
      <path id="DejaVuSerif-32" d="M 819 3553 
L 469 3553 
L 469 4384 
Q 803 4563 1142 4656 
Q 1481 4750 1806 4750 
Q 2534 4750 2956 4397 
Q 3378 4044 3378 3438 
Q 3378 2753 2422 1800 
Q 2347 1728 2309 1691 
L 1131 513 
L 3078 513 
L 3078 1088 
L 3444 1088 
L 3444 0 
L 434 0 
L 434 341 
L 1850 1753 
Q 2319 2222 2519 2614 
Q 2719 3006 2719 3438 
Q 2719 3909 2473 4175 
Q 2228 4441 1797 4441 
Q 1350 4441 1106 4219 
Q 863 3997 819 3553 
z
" transform="scale(0.015625)"/>
      <path id="DejaVuSerif-29" d="M 453 -997 
L 453 -691 
Q 934 -359 1145 242 
Q 1356 844 1356 1931 
Q 1356 3022 1145 3623 
Q 934 4225 453 4556 
L 453 4863 
Q 1216 4522 1603 3783 
Q 1991 3044 1991 1931 
Q 1991 822 1603 83 
Q 1216 -656 453 -997 
z
" transform="scale(0.015625)"/>
      <path id="DejaVuSerif-70" d="M 1313 1825 
L 1313 1497 
Q 1313 897 1542 583 
Q 1772 269 2209 269 
Q 2650 269 2876 622 
Q 3103 975 3103 1663 
Q 3103 2353 2876 2703 
Q 2650 3053 2209 3053 
Q 1772 3053 1542 2737 
Q 1313 2422 1313 1825 
z
M 738 2988 
L 184 2988 
L 184 3322 
L 1313 3322 
L 1313 2803 
Q 1481 3116 1742 3264 
Q 2003 3413 2388 3413 
Q 3000 3413 3387 2928 
Q 3775 2444 3775 1663 
Q 3775 881 3387 395 
Q 3000 -91 2388 -91 
Q 2003 -91 1742 57 
Q 1481 206 1313 519 
L 1313 -997 
L 1856 -997 
L 1856 -1331 
L 184 -1331 
L 184 -997 
L 738 -997 
L 738 2988 
z
" transform="scale(0.015625)"/>
      <path id="DejaVuSerif-67" d="M 3359 2988 
L 3359 72 
Q 3359 -644 2965 -1033 
Q 2572 -1422 1844 -1422 
Q 1516 -1422 1216 -1362 
Q 916 -1303 641 -1184 
L 641 -488 
L 941 -488 
Q 997 -813 1206 -963 
Q 1416 -1113 1806 -1113 
Q 2313 -1113 2548 -827 
Q 2784 -541 2784 72 
L 2784 519 
Q 2616 206 2355 57 
Q 2094 -91 1709 -91 
Q 1097 -91 708 395 
Q 319 881 319 1663 
Q 319 2444 706 2928 
Q 1094 3413 1709 3413 
Q 2094 3413 2355 3264 
Q 2616 3116 2784 2803 
L 2784 3322 
L 3909 3322 
L 3909 2988 
L 3359 2988 
z
M 2784 1825 
Q 2784 2422 2554 2737 
Q 2325 3053 1888 3053 
Q 1444 3053 1217 2703 
Q 991 2353 991 1663 
Q 991 975 1217 622 
Q 1444 269 1888 269 
Q 2325 269 2554 583 
Q 2784 897 2784 1497 
L 2784 1825 
z
" transform="scale(0.015625)"/>
      <path id="DejaVuSerif-68" d="M 263 0 
L 263 331 
L 781 331 
L 781 4531 
L 231 4531 
L 231 4863 
L 1356 4863 
L 1356 2731 
Q 1516 3069 1770 3241 
Q 2025 3413 2363 3413 
Q 2913 3413 3172 3097 
Q 3431 2781 3431 2113 
L 3431 331 
L 3944 331 
L 3944 0 
L 2356 0 
L 2356 331 
L 2853 331 
L 2853 1931 
Q 2853 2541 2704 2764 
Q 2556 2988 2175 2988 
Q 1775 2988 1565 2697 
Q 1356 2406 1356 1850 
L 1356 331 
L 1856 331 
L 1856 0 
L 263 0 
z
" transform="scale(0.015625)"/>
      <path id="DejaVuSerif-2e" d="M 603 325 
Q 603 500 722 622 
Q 841 744 1019 744 
Q 1191 744 1312 622 
Q 1434 500 1434 325 
Q 1434 153 1312 31 
Q 1191 -91 1019 -91 
Q 841 -91 722 29 
Q 603 150 603 325 
z
" transform="scale(0.015625)"/>
     </defs>
     <use xlink:href="#DejaVuSerif-61"/>
     <use xlink:href="#DejaVuSerif-5f" transform="translate(59.619141 0)"/>
     <use xlink:href="#DejaVuSerif-6e" transform="translate(109.619141 0)"/>
     <use xlink:href="#DejaVuSerif-20" transform="translate(174.023438 0)"/>
     <use xlink:href="#DejaVuSerif-3d" transform="translate(205.810547 0)"/>
     <use xlink:href="#DejaVuSerif-20" transform="translate(289.599609 0)"/>
     <use xlink:href="#DejaVuSerif-5c" transform="translate(321.386719 0)"/>
     <use xlink:href="#DejaVuSerif-73" transform="translate(355.078125 0)"/>
     <use xlink:href="#DejaVuSerif-75" transform="translate(406.396484 0)"/>
     <use xlink:href="#DejaVuSerif-6d" transform="translate(470.800781 0)"/>
     <use xlink:href="#DejaVuSerif-5f" transform="translate(565.625 0)"/>
     <use xlink:href="#DejaVuSerif-7b" transform="translate(615.625 0)"/>
     <use xlink:href="#DejaVuSerif-6b" transform="translate(679.248047 0)"/>
     <use xlink:href="#DejaVuSerif-3d" transform="translate(739.84375 0)"/>
     <use xlink:href="#DejaVuSerif-31" transform="translate(823.632812 0)"/>
     <use xlink:href="#DejaVuSerif-7d" transform="translate(887.255859 0)"/>
     <use xlink:href="#DejaVuSerif-5e" transform="translate(950.878906 0)"/>
     <use xlink:href="#DejaVuSerif-7b" transform="translate(1034.667969 0)"/>
     <use xlink:href="#DejaVuSerif-6e" transform="translate(1098.291016 0)"/>
     <use xlink:href="#DejaVuSerif-2d" transform="translate(1162.695312 0)"/>
     <use xlink:href="#DejaVuSerif-31" transform="translate(1196.484375 0)"/>
     <use xlink:href="#DejaVuSerif-7d" transform="translate(1260.107422 0)"/>
     <use xlink:href="#DejaVuSerif-20" transform="translate(1323.730469 0)"/>
     <use xlink:href="#DejaVuSerif-5c" transform="translate(1355.517578 0)"/>
     <use xlink:href="#DejaVuSerif-66" transform="translate(1389.208984 0)"/>
     <use xlink:href="#DejaVuSerif-72" transform="translate(1426.220703 0)"/>
     <use xlink:href="#DejaVuSerif-61" transform="translate(1474.023438 0)"/>
     <use xlink:href="#DejaVuSerif-63" transform="translate(1533.642578 0)"/>
     <use xlink:href="#DejaVuSerif-7b" transform="translate(1589.648438 0)"/>
     <use xlink:href="#DejaVuSerif-5c" transform="translate(1653.271484 0)"/>
     <use xlink:href="#DejaVuSerif-73" transform="translate(1686.962891 0)"/>
     <use xlink:href="#DejaVuSerif-69" transform="translate(1738.28125 0)"/>
     <use xlink:href="#DejaVuSerif-6e" transform="translate(1770.263672 0)"/>
     <use xlink:href="#DejaVuSerif-20" transform="translate(1834.667969 0)"/>
     <use xlink:href="#DejaVuSerif-5c" transform="translate(1866.455078 0)"/>
     <use xlink:href="#DejaVuSerif-6c" transform="translate(1900.146484 0)"/>
     <use xlink:href="#DejaVuSerif-65" transform="translate(1932.128906 0)"/>
     <use xlink:href="#DejaVuSerif-71" transform="translate(1991.308594 0)"/>
     <use xlink:href="#DejaVuSerif-66" transform="translate(2055.322266 0)"/>
     <use xlink:href="#DejaVuSerif-74" transform="translate(2092.333984 0)"/>
     <use xlink:href="#DejaVuSerif-28" transform="translate(2132.519531 0)"/>
     <use xlink:href="#DejaVuSerif-20" transform="translate(2171.533203 0)"/>
     <use xlink:href="#DejaVuSerif-5c" transform="translate(2203.320312 0)"/>
     <use xlink:href="#DejaVuSerif-66" transform="translate(2237.011719 0)"/>
     <use xlink:href="#DejaVuSerif-72" transform="translate(2274.023438 0)"/>
     <use xlink:href="#DejaVuSerif-61" transform="translate(2321.826172 0)"/>
     <use xlink:href="#DejaVuSerif-63" transform="translate(2381.445312 0)"/>
     <use xlink:href="#DejaVuSerif-7b" transform="translate(2437.451172 0)"/>
     <use xlink:href="#DejaVuSerif-28" transform="translate(2501.074219 0)"/>
     <use xlink:href="#DejaVuSerif-32" transform="translate(2540.087891 0)"/>
     <use xlink:href="#DejaVuSerif-6b" transform="translate(2603.710938 0)"/>
     <use xlink:href="#DejaVuSerif-2d" transform="translate(2662.556641 0)"/>
     <use xlink:href="#DejaVuSerif-31" transform="translate(2696.345703 0)"/>
     <use xlink:href="#DejaVuSerif-29" transform="translate(2759.96875 0)"/>
     <use xlink:href="#DejaVuSerif-5c" transform="translate(2798.982422 0)"/>
     <use xlink:href="#DejaVuSerif-70" transform="translate(2832.673828 0)"/>
     <use xlink:href="#DejaVuSerif-69" transform="translate(2896.6875 0)"/>
     <use xlink:href="#DejaVuSerif-7d" transform="translate(2928.669922 0)"/>
     <use xlink:href="#DejaVuSerif-7b" transform="translate(2992.292969 0)"/>
     <use xlink:href="#DejaVuSerif-32" transform="translate(3055.916016 0)"/>
     <use xlink:href="#DejaVuSerif-6e" transform="translate(3119.539062 0)"/>
     <use xlink:href="#DejaVuSerif-7d" transform="translate(3183.943359 0)"/>
     <use xlink:href="#DejaVuSerif-20" transform="translate(3247.566406 0)"/>
     <use xlink:href="#DejaVuSerif-5c" transform="translate(3279.353516 0)"/>
     <use xlink:href="#DejaVuSerif-72" transform="translate(3313.044922 0)"/>
     <use xlink:href="#DejaVuSerif-69" transform="translate(3360.847656 0)"/>
     <use xlink:href="#DejaVuSerif-67" transform="translate(3392.830078 0)"/>
     <use xlink:href="#DejaVuSerif-68" transform="translate(3456.84375 0)"/>
     <use xlink:href="#DejaVuSerif-74" transform="translate(3521.248047 0)"/>
     <use xlink:href="#DejaVuSerif-29" transform="translate(3561.433594 0)"/>
     <use xlink:href="#DejaVuSerif-7d" transform="translate(3600.447266 0)"/>
     <use xlink:href="#DejaVuSerif-7b" transform="translate(3664.070312 0)"/>
     <use xlink:href="#DejaVuSerif-5c" transform="translate(3727.693359 0)"/>
     <use xlink:href="#DejaVuSerif-63" transform="translate(3761.384766 0)"/>
     <use xlink:href="#DejaVuSerif-6f" transform="translate(3817.390625 0)"/>
     <use xlink:href="#DejaVuSerif-73" transform="translate(3877.595703 0)"/>
     <use xlink:href="#DejaVuSerif-5e" transform="translate(3928.914062 0)"/>
     <use xlink:href="#DejaVuSerif-32" transform="translate(4012.703125 0)"/>
     <use xlink:href="#DejaVuSerif-20" transform="translate(4076.326172 0)"/>
     <use xlink:href="#DejaVuSerif-5c" transform="translate(4108.113281 0)"/>
     <use xlink:href="#DejaVuSerif-6c" transform="translate(4141.804688 0)"/>
     <use xlink:href="#DejaVuSerif-65" transform="translate(4173.787109 0)"/>
     <use xlink:href="#DejaVuSerif-71" transform="translate(4232.966797 0)"/>
     <use xlink:href="#DejaVuSerif-66" transform="translate(4296.980469 0)"/>
     <use xlink:href="#DejaVuSerif-74" transform="translate(4333.992188 0)"/>
     <use xlink:href="#DejaVuSerif-28" transform="translate(4374.177734 0)"/>
     <use xlink:href="#DejaVuSerif-20" transform="translate(4413.191406 0)"/>
     <use xlink:href="#DejaVuSerif-5c" transform="translate(4444.978516 0)"/>
     <use xlink:href="#DejaVuSerif-66" transform="translate(4478.669922 0)"/>
     <use xlink:href="#DejaVuSerif-72" transform="translate(4515.681641 0)"/>
     <use xlink:href="#DejaVuSerif-61" transform="translate(4563.484375 0)"/>
     <use xlink:href="#DejaVuSerif-63" transform="translate(4623.103516 0)"/>
     <use xlink:href="#DejaVuSerif-7b" transform="translate(4679.109375 0)"/>
     <use xlink:href="#DejaVuSerif-28" transform="translate(4742.732422 0)"/>
     <use xlink:href="#DejaVuSerif-6b" transform="translate(4781.746094 0)"/>
     <use xlink:href="#DejaVuSerif-2d" transform="translate(4840.591797 0)"/>
     <use xlink:href="#DejaVuSerif-31" transform="translate(4874.380859 0)"/>
     <use xlink:href="#DejaVuSerif-29" transform="translate(4938.003906 0)"/>
     <use xlink:href="#DejaVuSerif-5c" transform="translate(4977.017578 0)"/>
     <use xlink:href="#DejaVuSerif-70" transform="translate(5010.708984 0)"/>
     <use xlink:href="#DejaVuSerif-69" transform="translate(5074.722656 0)"/>
     <use xlink:href="#DejaVuSerif-7d" transform="translate(5106.705078 0)"/>
     <use xlink:href="#DejaVuSerif-7b" transform="translate(5170.328125 0)"/>
     <use xlink:href="#DejaVuSerif-32" transform="translate(5233.951172 0)"/>
     <use xlink:href="#DejaVuSerif-6e" transform="translate(5297.574219 0)"/>
     <use xlink:href="#DejaVuSerif-7d" transform="translate(5361.978516 0)"/>
     <use xlink:href="#DejaVuSerif-20" transform="translate(5425.601562 0)"/>
     <use xlink:href="#DejaVuSerif-5c" transform="translate(5457.388672 0)"/>
     <use xlink:href="#DejaVuSerif-72" transform="translate(5491.080078 0)"/>
     <use xlink:href="#DejaVuSerif-69" transform="translate(5538.882812 0)"/>
     <use xlink:href="#DejaVuSerif-67" transform="translate(5570.865234 0)"/>
     <use xlink:href="#DejaVuSerif-68" transform="translate(5634.878906 0)"/>
     <use xlink:href="#DejaVuSerif-74" transform="translate(5699.283203 0)"/>
     <use xlink:href="#DejaVuSerif-29" transform="translate(5739.46875 0)"/>
     <use xlink:href="#DejaVuSerif-20" transform="translate(5778.482422 0)"/>
     <use xlink:href="#DejaVuSerif-5c" transform="translate(5810.269531 0)"/>
     <use xlink:href="#DejaVuSerif-63" transform="translate(5843.960938 0)"/>
     <use xlink:href="#DejaVuSerif-6f" transform="translate(5899.966797 0)"/>
     <use xlink:href="#DejaVuSerif-73" transform="translate(5960.171875 0)"/>
     <use xlink:href="#DejaVuSerif-5e" transform="translate(6011.490234 0)"/>
     <use xlink:href="#DejaVuSerif-32" transform="translate(6095.279297 0)"/>
     <use xlink:href="#DejaVuSerif-20" transform="translate(6158.902344 0)"/>
     <use xlink:href="#DejaVuSerif-5c" transform="translate(6190.689453 0)"/>
     <use xlink:href="#DejaVuSerif-6c" transform="translate(6224.380859 0)"/>
     <use xlink:href="#DejaVuSerif-65" transform="translate(6256.363281 0)"/>
     <use xlink:href="#DejaVuSerif-71" transform="translate(6315.542969 0)"/>
     <use xlink:href="#DejaVuSerif-66" transform="translate(6379.556641 0)"/>
     <use xlink:href="#DejaVuSerif-74" transform="translate(6416.568359 0)"/>
     <use xlink:href="#DejaVuSerif-28" transform="translate(6456.753906 0)"/>
     <use xlink:href="#DejaVuSerif-20" transform="translate(6495.767578 0)"/>
     <use xlink:href="#DejaVuSerif-5c" transform="translate(6527.554688 0)"/>
     <use xlink:href="#DejaVuSerif-66" transform="translate(6561.246094 0)"/>
     <use xlink:href="#DejaVuSerif-72" transform="translate(6598.257812 0)"/>
     <use xlink:href="#DejaVuSerif-61" transform="translate(6646.060547 0)"/>
     <use xlink:href="#DejaVuSerif-63" transform="translate(6705.679688 0)"/>
     <use xlink:href="#DejaVuSerif-7b" transform="translate(6761.685547 0)"/>
     <use xlink:href="#DejaVuSerif-6b" transform="translate(6825.308594 0)"/>
     <use xlink:href="#DejaVuSerif-5c" transform="translate(6885.904297 0)"/>
     <use xlink:href="#DejaVuSerif-70" transform="translate(6919.595703 0)"/>
     <use xlink:href="#DejaVuSerif-69" transform="translate(6983.609375 0)"/>
     <use xlink:href="#DejaVuSerif-7d" transform="translate(7015.591797 0)"/>
     <use xlink:href="#DejaVuSerif-7b" transform="translate(7079.214844 0)"/>
     <use xlink:href="#DejaVuSerif-32" transform="translate(7142.837891 0)"/>
     <use xlink:href="#DejaVuSerif-6e" transform="translate(7206.460938 0)"/>
     <use xlink:href="#DejaVuSerif-7d" transform="translate(7270.865234 0)"/>
     <use xlink:href="#DejaVuSerif-20" transform="translate(7334.488281 0)"/>
     <use xlink:href="#DejaVuSerif-5c" transform="translate(7366.275391 0)"/>
     <use xlink:href="#DejaVuSerif-72" transform="translate(7399.966797 0)"/>
     <use xlink:href="#DejaVuSerif-69" transform="translate(7447.769531 0)"/>
     <use xlink:href="#DejaVuSerif-67" transform="translate(7479.751953 0)"/>
     <use xlink:href="#DejaVuSerif-68" transform="translate(7543.765625 0)"/>
     <use xlink:href="#DejaVuSerif-74" transform="translate(7608.169922 0)"/>
     <use xlink:href="#DejaVuSerif-29" transform="translate(7648.355469 0)"/>
     <use xlink:href="#DejaVuSerif-7d" transform="translate(7687.369141 0)"/>
     <use xlink:href="#DejaVuSerif-2e" transform="translate(7750.992188 0)"/>
    </g>
    <!-- \] -->
    <g transform="translate(469.806562 110.865688) scale(0.12 -0.12)">
     <defs>
      <path id="DejaVuSerif-5d" d="M 1947 4863 
L 1947 -844 
L 494 -844 
L 494 -513 
L 1350 -513 
L 1350 4531 
L 494 4531 
L 494 4863 
L 1947 4863 
z
" transform="scale(0.015625)"/>
     </defs>
     <use xlink:href="#DejaVuSerif-5c"/>
     <use xlink:href="#DejaVuSerif-5d" transform="translate(33.691406 0)"/>
    </g>
    <!-- Determine -->
    <g transform="translate(441.9525 124.303063) scale(0.12 -0.12)">
     <defs>
      <path id="DejaVuSerif-44" d="M 1581 331 
L 2163 331 
Q 3072 331 3558 850 
Q 4044 1369 4044 2338 
Q 4044 3306 3559 3818 
Q 3075 4331 2163 4331 
L 1581 4331 
L 1581 331 
z
M 353 0 
L 353 331 
L 947 331 
L 947 4331 
L 353 4331 
L 353 4666 
L 2209 4666 
Q 3416 4666 4089 4050 
Q 4763 3434 4763 2338 
Q 4763 1238 4088 619 
Q 3413 0 2209 0 
L 353 0 
z
" transform="scale(0.015625)"/>
     </defs>
     <use xlink:href="#DejaVuSerif-44"/>
     <use xlink:href="#DejaVuSerif-65" transform="translate(80.175781 0)"/>
     <use xlink:href="#DejaVuSerif-74" transform="translate(139.355469 0)"/>
     <use xlink:href="#DejaVuSerif-65" transform="translate(179.541016 0)"/>
     <use xlink:href="#DejaVuSerif-72" transform="translate(238.720703 0)"/>
     <use xlink:href="#DejaVuSerif-6d" transform="translate(286.523438 0)"/>
     <use xlink:href="#DejaVuSerif-69" transform="translate(381.347656 0)"/>
     <use xlink:href="#DejaVuSerif-6e" transform="translate(413.330078 0)"/>
     <use xlink:href="#DejaVuSerif-65" transform="translate(477.734375 0)"/>
    </g>
    <!-- \[ -->
    <g transform="translate(469.806562 137.740438) scale(0.12 -0.12)">
     <use xlink:href="#DejaVuSerif-5c"/>
     <use xlink:href="#DejaVuSerif-5b" transform="translate(33.691406 0)"/>
    </g>
    <!-- \lim_{n \rightarrow \infty} \frac{a_n}{n^3}. -->
    <g transform="translate(337.21125 151.177813) scale(0.12 -0.12)">
     <defs>
      <path id="DejaVuSerif-77" d="M 3072 3322 
L 3922 728 
L 4672 2988 
L 4191 2988 
L 4191 3322 
L 5394 3322 
L 5394 2988 
L 5025 2988 
L 4038 0 
L 3559 0 
L 2741 2484 
L 1919 0 
L 1459 0 
L 475 2988 
L 103 2988 
L 103 3322 
L 1606 3322 
L 1606 2988 
L 1069 2988 
L 1813 728 
L 2669 3322 
L 3072 3322 
z
" transform="scale(0.015625)"/>
      <path id="DejaVuSerif-79" d="M 1381 -609 
L 1600 -56 
L 359 2988 
L -19 2988 
L -19 3322 
L 1509 3322 
L 1509 2988 
L 978 2988 
L 1913 703 
L 2847 2988 
L 2350 2988 
L 2350 3322 
L 3597 3322 
L 3597 2988 
L 3225 2988 
L 1703 -750 
Q 1547 -1138 1356 -1280 
Q 1166 -1422 819 -1422 
Q 672 -1422 517 -1397 
Q 363 -1372 206 -1325 
L 206 -691 
L 500 -691 
Q 519 -903 608 -995 
Q 697 -1088 884 -1088 
Q 1056 -1088 1161 -992 
Q 1266 -897 1381 -609 
z
" transform="scale(0.015625)"/>
      <path id="DejaVuSerif-33" d="M 622 4469 
Q 988 4606 1323 4678 
Q 1659 4750 1953 4750 
Q 2638 4750 3022 4454 
Q 3406 4159 3406 3634 
Q 3406 3213 3140 2930 
Q 2875 2647 2388 2547 
Q 2963 2466 3280 2130 
Q 3597 1794 3597 1259 
Q 3597 606 3158 257 
Q 2719 -91 1894 -91 
Q 1528 -91 1179 -12 
Q 831 66 488 225 
L 488 1131 
L 838 1131 
Q 869 681 1141 450 
Q 1413 219 1906 219 
Q 2384 219 2661 495 
Q 2938 772 2938 1253 
Q 2938 1803 2653 2086 
Q 2369 2369 1819 2369 
L 1522 2369 
L 1522 2688 
L 1678 2688 
Q 2225 2688 2498 2914 
Q 2772 3141 2772 3597 
Q 2772 4006 2547 4223 
Q 2322 4441 1900 4441 
Q 1478 4441 1245 4241 
Q 1013 4041 972 3647 
L 622 3647 
L 622 4469 
z
" transform="scale(0.015625)"/>
     </defs>
     <use xlink:href="#DejaVuSerif-5c"/>
     <use xlink:href="#DejaVuSerif-6c" transform="translate(33.691406 0)"/>
     <use xlink:href="#DejaVuSerif-69" transform="translate(65.673828 0)"/>
     <use xlink:href="#DejaVuSerif-6d" transform="translate(97.65625 0)"/>
     <use xlink:href="#DejaVuSerif-5f" transform="translate(192.480469 0)"/>
     <use xlink:href="#DejaVuSerif-7b" transform="translate(242.480469 0)"/>
     <use xlink:href="#DejaVuSerif-6e" transform="translate(306.103516 0)"/>
     <use xlink:href="#DejaVuSerif-20" transform="translate(370.507812 0)"/>
     <use xlink:href="#DejaVuSerif-5c" transform="translate(402.294922 0)"/>
     <use xlink:href="#DejaVuSerif-72" transform="translate(435.986328 0)"/>
     <use xlink:href="#DejaVuSerif-69" transform="translate(483.789062 0)"/>
     <use xlink:href="#DejaVuSerif-67" transform="translate(515.771484 0)"/>
     <use xlink:href="#DejaVuSerif-68" transform="translate(579.785156 0)"/>
     <use xlink:href="#DejaVuSerif-74" transform="translate(644.189453 0)"/>
     <use xlink:href="#DejaVuSerif-61" transform="translate(684.375 0)"/>
     <use xlink:href="#DejaVuSerif-72" transform="translate(743.994141 0)"/>
     <use xlink:href="#DejaVuSerif-72" transform="translate(791.796875 0)"/>
     <use xlink:href="#DejaVuSerif-6f" transform="translate(839.599609 0)"/>
     <use xlink:href="#DejaVuSerif-77" transform="translate(899.804688 0)"/>
     <use xlink:href="#DejaVuSerif-20" transform="translate(985.400391 0)"/>
     <use xlink:href="#DejaVuSerif-5c" transform="translate(1017.1875 0)"/>
     <use xlink:href="#DejaVuSerif-69" transform="translate(1050.878906 0)"/>
     <use xlink:href="#DejaVuSerif-6e" transform="translate(1082.861328 0)"/>
     <use xlink:href="#DejaVuSerif-66" transform="translate(1147.265625 0)"/>
     <use xlink:href="#DejaVuSerif-74" transform="translate(1184.277344 0)"/>
     <use xlink:href="#DejaVuSerif-79" transform="translate(1224.462891 0)"/>
     <use xlink:href="#DejaVuSerif-7d" transform="translate(1280.957031 0)"/>
     <use xlink:href="#DejaVuSerif-20" transform="translate(1344.580078 0)"/>
     <use xlink:href="#DejaVuSerif-5c" transform="translate(1376.367188 0)"/>
     <use xlink:href="#DejaVuSerif-66" transform="translate(1410.058594 0)"/>
     <use xlink:href="#DejaVuSerif-72" transform="translate(1447.070312 0)"/>
     <use xlink:href="#DejaVuSerif-61" transform="translate(1494.873047 0)"/>
     <use xlink:href="#DejaVuSerif-63" transform="translate(1554.492188 0)"/>
     <use xlink:href="#DejaVuSerif-7b" transform="translate(1610.498047 0)"/>
     <use xlink:href="#DejaVuSerif-61" transform="translate(1674.121094 0)"/>
     <use xlink:href="#DejaVuSerif-5f" transform="translate(1733.740234 0)"/>
     <use xlink:href="#DejaVuSerif-6e" transform="translate(1783.740234 0)"/>
     <use xlink:href="#DejaVuSerif-7d" transform="translate(1848.144531 0)"/>
     <use xlink:href="#DejaVuSerif-7b" transform="translate(1911.767578 0)"/>
     <use xlink:href="#DejaVuSerif-6e" transform="translate(1975.390625 0)"/>
     <use xlink:href="#DejaVuSerif-5e" transform="translate(2039.794922 0)"/>
     <use xlink:href="#DejaVuSerif-33" transform="translate(2123.583984 0)"/>
     <use xlink:href="#DejaVuSerif-7d" transform="translate(2187.207031 0)"/>
     <use xlink:href="#DejaVuSerif-2e" transform="translate(2250.830078 0)"/>
    </g>
    <!-- \] -->
    <g transform="translate(469.806562 164.948938) scale(0.12 -0.12)">
     <use xlink:href="#DejaVuSerif-5c"/>
     <use xlink:href="#DejaVuSerif-5d" transform="translate(33.691406 0)"/>
    </g>
   </g>
  </g>
 </g>
</svg>
