<?xml version="1.0" encoding="utf-8" standalone="no"?>
<!DOCTYPE svg PUBLIC "-//W3C//DTD SVG 1.1//EN"
  "http://www.w3.org/Graphics/SVG/1.1/DTD/svg11.dtd">
<svg xmlns:xlink="http://www.w3.org/1999/xlink" width="717.6pt" height="228.4pt" viewBox="0 0 717.6 228.4" xmlns="http://www.w3.org/2000/svg" version="1.1">
 <metadata>
  <rdf:RDF xmlns:dc="http://purl.org/dc/elements/1.1/" xmlns:cc="http://creativecommons.org/ns#" xmlns:rdf="http://www.w3.org/1999/02/22-rdf-syntax-ns#">
   <cc:Work>
    <dc:type rdf:resource="http://purl.org/dc/dcmitype/StillImage"/>
    <dc:date>2025-05-29T18:43:59.351048</dc:date>
    <dc:format>image/svg+xml</dc:format>
    <dc:creator>
     <cc:Agent>
      <dc:title>Matplotlib v3.10.3, https://matplotlib.org/</dc:title>
     </cc:Agent>
    </dc:creator>
   </cc:Work>
  </rdf:RDF>
 </metadata>
 <defs>
  <style type="text/css">*{stroke-linejoin: round; stroke-linecap: butt}</style>
 </defs>
 <g id="figure_1">
  <g id="patch_1">
   <path d="M 0 228.4 
L 717.6 228.4 
L 717.6 0 
L 0 0 
z
" style="fill: #ffffff"/>
  </g>
  <g id="axes_1">
   <g id="text_1">
    <!-- For a given positive integer $m$, find all triples $(n, x, y)$ of positive integers, with $n$ relatively prime to $m$, which satisfy -->
    <g transform="translate(7.2 97.018625) scale(0.12 -0.12)">
     <defs>
      <path id="DejaVuSerif-46" d="M 353 0 
L 353 331 
L 947 331 
L 947 4331 
L 353 4331 
L 353 4666 
L 4172 4666 
L 4172 3628 
L 3788 3628 
L 3788 4281 
L 1581 4281 
L 1581 2719 
L 3175 2719 
L 3175 3303 
L 3559 3303 
L 3559 1753 
L 3175 1753 
L 3175 2338 
L 1581 2338 
L 1581 331 
L 2328 331 
L 2328 0 
L 353 0 
z
" transform="scale(0.015625)"/>
      <path id="DejaVuSerif-6f" d="M 1925 219 
Q 2388 219 2623 584 
Q 2859 950 2859 1663 
Q 2859 2375 2623 2739 
Q 2388 3103 1925 3103 
Q 1463 3103 1227 2739 
Q 991 2375 991 1663 
Q 991 950 1228 584 
Q 1466 219 1925 219 
z
M 1925 -91 
Q 1200 -91 759 389 
Q 319 869 319 1663 
Q 319 2456 758 2934 
Q 1197 3413 1925 3413 
Q 2653 3413 3092 2934 
Q 3531 2456 3531 1663 
Q 3531 869 3092 389 
Q 2653 -91 1925 -91 
z
" transform="scale(0.015625)"/>
      <path id="DejaVuSerif-72" d="M 3059 3328 
L 3059 2497 
L 2728 2497 
Q 2713 2744 2591 2866 
Q 2469 2988 2234 2988 
Q 1809 2988 1582 2694 
Q 1356 2400 1356 1850 
L 1356 331 
L 2022 331 
L 2022 0 
L 263 0 
L 263 331 
L 781 331 
L 781 2994 
L 231 2994 
L 231 3322 
L 1356 3322 
L 1356 2731 
Q 1525 3078 1790 3245 
Q 2056 3413 2438 3413 
Q 2578 3413 2733 3391 
Q 2888 3369 3059 3328 
z
" transform="scale(0.015625)"/>
      <path id="DejaVuSerif-20" transform="scale(0.015625)"/>
      <path id="DejaVuSerif-61" d="M 2547 1044 
L 2547 1747 
L 1806 1747 
Q 1378 1747 1168 1562 
Q 959 1378 959 997 
Q 959 650 1171 447 
Q 1384 244 1747 244 
Q 2106 244 2326 466 
Q 2547 688 2547 1044 
z
M 3122 2075 
L 3122 331 
L 3634 331 
L 3634 0 
L 2547 0 
L 2547 359 
Q 2356 128 2106 18 
Q 1856 -91 1522 -91 
Q 969 -91 644 203 
Q 319 497 319 997 
Q 319 1513 691 1797 
Q 1063 2081 1741 2081 
L 2547 2081 
L 2547 2309 
Q 2547 2688 2317 2895 
Q 2088 3103 1672 3103 
Q 1328 3103 1125 2947 
Q 922 2791 872 2484 
L 575 2484 
L 575 3156 
Q 875 3284 1158 3348 
Q 1441 3413 1709 3413 
Q 2400 3413 2761 3070 
Q 3122 2728 3122 2075 
z
" transform="scale(0.015625)"/>
      <path id="DejaVuSerif-67" d="M 3359 2988 
L 3359 72 
Q 3359 -644 2965 -1033 
Q 2572 -1422 1844 -1422 
Q 1516 -1422 1216 -1362 
Q 916 -1303 641 -1184 
L 641 -488 
L 941 -488 
Q 997 -813 1206 -963 
Q 1416 -1113 1806 -1113 
Q 2313 -1113 2548 -827 
Q 2784 -541 2784 72 
L 2784 519 
Q 2616 206 2355 57 
Q 2094 -91 1709 -91 
Q 1097 -91 708 395 
Q 319 881 319 1663 
Q 319 2444 706 2928 
Q 1094 3413 1709 3413 
Q 2094 3413 2355 3264 
Q 2616 3116 2784 2803 
L 2784 3322 
L 3909 3322 
L 3909 2988 
L 3359 2988 
z
M 2784 1825 
Q 2784 2422 2554 2737 
Q 2325 3053 1888 3053 
Q 1444 3053 1217 2703 
Q 991 2353 991 1663 
Q 991 975 1217 622 
Q 1444 269 1888 269 
Q 2325 269 2554 583 
Q 2784 897 2784 1497 
L 2784 1825 
z
" transform="scale(0.015625)"/>
      <path id="DejaVuSerif-69" d="M 622 4353 
Q 622 4497 726 4603 
Q 831 4709 978 4709 
Q 1122 4709 1226 4603 
Q 1331 4497 1331 4353 
Q 1331 4206 1228 4103 
Q 1125 4000 978 4000 
Q 831 4000 726 4103 
Q 622 4206 622 4353 
z
M 1356 331 
L 1900 331 
L 1900 0 
L 231 0 
L 231 331 
L 781 331 
L 781 2988 
L 231 2988 
L 231 3322 
L 1356 3322 
L 1356 331 
z
" transform="scale(0.015625)"/>
      <path id="DejaVuSerif-76" d="M 1581 0 
L 359 2988 
L -19 2988 
L -19 3322 
L 1509 3322 
L 1509 2988 
L 978 2988 
L 1913 703 
L 2847 2988 
L 2350 2988 
L 2350 3322 
L 3597 3322 
L 3597 2988 
L 3225 2988 
L 2003 0 
L 1581 0 
z
" transform="scale(0.015625)"/>
      <path id="DejaVuSerif-65" d="M 3469 1600 
L 991 1600 
L 991 1575 
Q 991 903 1244 561 
Q 1497 219 1991 219 
Q 2369 219 2611 417 
Q 2853 616 2950 1006 
L 3413 1006 
Q 3275 459 2904 184 
Q 2534 -91 1931 -91 
Q 1203 -91 761 389 
Q 319 869 319 1663 
Q 319 2450 753 2931 
Q 1188 3413 1894 3413 
Q 2647 3413 3050 2948 
Q 3453 2484 3469 1600 
z
M 2791 1931 
Q 2772 2513 2545 2808 
Q 2319 3103 1894 3103 
Q 1497 3103 1269 2806 
Q 1041 2509 991 1931 
L 2791 1931 
z
" transform="scale(0.015625)"/>
      <path id="DejaVuSerif-6e" d="M 263 0 
L 263 331 
L 781 331 
L 781 2988 
L 231 2988 
L 231 3322 
L 1356 3322 
L 1356 2731 
Q 1516 3069 1770 3241 
Q 2025 3413 2363 3413 
Q 2913 3413 3172 3097 
Q 3431 2781 3431 2113 
L 3431 331 
L 3944 331 
L 3944 0 
L 2356 0 
L 2356 331 
L 2853 331 
L 2853 1931 
Q 2853 2541 2703 2767 
Q 2553 2994 2175 2994 
Q 1775 2994 1565 2701 
Q 1356 2409 1356 1850 
L 1356 331 
L 1856 331 
L 1856 0 
L 263 0 
z
" transform="scale(0.015625)"/>
      <path id="DejaVuSerif-70" d="M 1313 1825 
L 1313 1497 
Q 1313 897 1542 583 
Q 1772 269 2209 269 
Q 2650 269 2876 622 
Q 3103 975 3103 1663 
Q 3103 2353 2876 2703 
Q 2650 3053 2209 3053 
Q 1772 3053 1542 2737 
Q 1313 2422 1313 1825 
z
M 738 2988 
L 184 2988 
L 184 3322 
L 1313 3322 
L 1313 2803 
Q 1481 3116 1742 3264 
Q 2003 3413 2388 3413 
Q 3000 3413 3387 2928 
Q 3775 2444 3775 1663 
Q 3775 881 3387 395 
Q 3000 -91 2388 -91 
Q 2003 -91 1742 57 
Q 1481 206 1313 519 
L 1313 -997 
L 1856 -997 
L 1856 -1331 
L 184 -1331 
L 184 -997 
L 738 -997 
L 738 2988 
z
" transform="scale(0.015625)"/>
      <path id="DejaVuSerif-73" d="M 359 184 
L 359 959 
L 691 959 
Q 703 588 923 403 
Q 1144 219 1575 219 
Q 1963 219 2166 364 
Q 2369 509 2369 788 
Q 2369 1006 2220 1140 
Q 2072 1275 1594 1428 
L 1178 1569 
Q 750 1706 558 1912 
Q 366 2119 366 2438 
Q 366 2894 700 3153 
Q 1034 3413 1625 3413 
Q 1888 3413 2178 3344 
Q 2469 3275 2778 3144 
L 2778 2419 
L 2447 2419 
Q 2434 2741 2221 2922 
Q 2009 3103 1644 3103 
Q 1281 3103 1095 2975 
Q 909 2847 909 2591 
Q 909 2381 1050 2254 
Q 1191 2128 1613 1997 
L 2069 1856 
Q 2541 1709 2748 1489 
Q 2956 1269 2956 922 
Q 2956 450 2595 179 
Q 2234 -91 1600 -91 
Q 1278 -91 972 -22 
Q 666 47 359 184 
z
" transform="scale(0.015625)"/>
      <path id="DejaVuSerif-74" d="M 691 2988 
L 184 2988 
L 184 3322 
L 691 3322 
L 691 4353 
L 1269 4353 
L 1269 3322 
L 2350 3322 
L 2350 2988 
L 1269 2988 
L 1269 878 
Q 1269 456 1350 337 
Q 1431 219 1650 219 
Q 1875 219 1978 351 
Q 2081 484 2088 781 
L 2522 781 
Q 2497 328 2275 118 
Q 2053 -91 1600 -91 
Q 1103 -91 897 129 
Q 691 350 691 878 
L 691 2988 
z
" transform="scale(0.015625)"/>
      <path id="Cmmi10-6d" d="M 494 109 
Q 494 147 500 166 
L 978 2075 
Q 1025 2253 1025 2388 
Q 1025 2663 838 2663 
Q 638 2663 541 2423 
Q 444 2184 353 1819 
Q 353 1800 334 1789 
Q 316 1778 300 1778 
L 225 1778 
Q 203 1778 187 1801 
Q 172 1825 172 1844 
Q 241 2122 305 2315 
Q 369 2509 505 2668 
Q 641 2828 844 2828 
Q 1084 2828 1268 2676 
Q 1453 2525 1453 2291 
Q 1644 2541 1900 2684 
Q 2156 2828 2444 2828 
Q 2747 2828 2967 2673 
Q 3188 2519 3188 2234 
Q 3384 2513 3648 2670 
Q 3913 2828 4225 2828 
Q 4556 2828 4757 2648 
Q 4959 2469 4959 2138 
Q 4959 1875 4842 1503 
Q 4725 1131 4550 672 
Q 4459 450 4459 288 
Q 4459 97 4609 97 
Q 4859 97 5025 365 
Q 5191 634 5259 941 
Q 5278 978 5313 978 
L 5388 978 
Q 5413 978 5430 961 
Q 5447 944 5447 922 
Q 5447 916 5441 903 
Q 5353 541 5136 234 
Q 4919 -72 4594 -72 
Q 4369 -72 4209 83 
Q 4050 238 4050 459 
Q 4050 572 4103 709 
Q 4284 1191 4404 1569 
Q 4525 1947 4525 2234 
Q 4525 2413 4453 2538 
Q 4381 2663 4213 2663 
Q 3863 2663 3606 2448 
Q 3350 2234 3163 1881 
Q 3150 1819 3144 1784 
L 2731 141 
Q 2709 53 2632 -9 
Q 2556 -72 2463 -72 
Q 2388 -72 2330 -22 
Q 2272 28 2272 109 
Q 2272 147 2278 166 
L 2688 1797 
Q 2753 2059 2753 2234 
Q 2753 2413 2679 2538 
Q 2606 2663 2431 2663 
Q 2197 2663 2000 2559 
Q 1803 2456 1656 2286 
Q 1509 2116 1388 1881 
L 953 141 
Q 931 53 854 -9 
Q 778 -72 684 -72 
Q 606 -72 550 -22 
Q 494 28 494 109 
z
" transform="scale(0.015625)"/>
      <path id="DejaVuSerif-2c" d="M 231 -622 
Q 525 -406 662 -114 
Q 800 178 800 594 
L 800 709 
L 1416 709 
Q 1391 175 1164 -208 
Q 938 -591 481 -872 
L 231 -622 
z
" transform="scale(0.015625)"/>
      <path id="DejaVuSerif-66" d="M 2753 4078 
L 2450 4078 
Q 2447 4313 2317 4434 
Q 2188 4556 1941 4556 
Q 1619 4556 1487 4379 
Q 1356 4203 1356 3750 
L 1356 3322 
L 2284 3322 
L 2284 2988 
L 1356 2988 
L 1356 331 
L 2094 331 
L 2094 0 
L 231 0 
L 231 331 
L 781 331 
L 781 2988 
L 231 2988 
L 231 3322 
L 781 3322 
L 781 3738 
Q 781 4294 1070 4578 
Q 1359 4863 1919 4863 
Q 2128 4863 2337 4825 
Q 2547 4788 2753 4709 
L 2753 4078 
z
" transform="scale(0.015625)"/>
      <path id="DejaVuSerif-64" d="M 3359 331 
L 3909 331 
L 3909 0 
L 2784 0 
L 2784 519 
Q 2616 206 2355 57 
Q 2094 -91 1709 -91 
Q 1097 -91 708 395 
Q 319 881 319 1663 
Q 319 2444 706 2928 
Q 1094 3413 1709 3413 
Q 2094 3413 2355 3264 
Q 2616 3116 2784 2803 
L 2784 4531 
L 2241 4531 
L 2241 4863 
L 3359 4863 
L 3359 331 
z
M 2784 1497 
L 2784 1825 
Q 2784 2422 2554 2737 
Q 2325 3053 1888 3053 
Q 1444 3053 1217 2703 
Q 991 2353 991 1663 
Q 991 975 1217 622 
Q 1444 269 1888 269 
Q 2325 269 2554 583 
Q 2784 897 2784 1497 
z
" transform="scale(0.015625)"/>
      <path id="DejaVuSerif-6c" d="M 1313 331 
L 1856 331 
L 1856 0 
L 184 0 
L 184 331 
L 738 331 
L 738 4531 
L 184 4531 
L 184 4863 
L 1313 4863 
L 1313 331 
z
" transform="scale(0.015625)"/>
      <path id="Cmr10-28" d="M 1984 -1588 
Q 1628 -1306 1370 -942 
Q 1113 -578 948 -165 
Q 784 247 703 697 
Q 622 1147 622 1600 
Q 622 2059 703 2509 
Q 784 2959 951 3375 
Q 1119 3791 1378 4153 
Q 1638 4516 1984 4788 
Q 1984 4800 2016 4800 
L 2075 4800 
Q 2094 4800 2109 4783 
Q 2125 4766 2125 4744 
Q 2125 4716 2113 4703 
Q 1800 4397 1592 4047 
Q 1384 3697 1257 3301 
Q 1131 2906 1075 2482 
Q 1019 2059 1019 1600 
Q 1019 -434 2106 -1491 
Q 2125 -1509 2125 -1544 
Q 2125 -1559 2108 -1579 
Q 2091 -1600 2075 -1600 
L 2016 -1600 
Q 1984 -1600 1984 -1588 
z
" transform="scale(0.015625)"/>
      <path id="Cmmi10-6e" d="M 494 109 
Q 494 147 500 166 
L 978 2075 
Q 1025 2253 1025 2388 
Q 1025 2663 838 2663 
Q 638 2663 541 2423 
Q 444 2184 353 1819 
Q 353 1800 334 1789 
Q 316 1778 300 1778 
L 225 1778 
Q 203 1778 187 1801 
Q 172 1825 172 1844 
Q 241 2122 305 2315 
Q 369 2509 505 2668 
Q 641 2828 844 2828 
Q 1084 2828 1268 2676 
Q 1453 2525 1453 2291 
Q 1644 2541 1900 2684 
Q 2156 2828 2444 2828 
Q 2672 2828 2837 2750 
Q 3003 2672 3095 2514 
Q 3188 2356 3188 2138 
Q 3188 1875 3070 1503 
Q 2953 1131 2778 672 
Q 2688 463 2688 288 
Q 2688 97 2834 97 
Q 3084 97 3251 365 
Q 3419 634 3488 941 
Q 3500 978 3541 978 
L 3616 978 
Q 3641 978 3658 962 
Q 3675 947 3675 922 
Q 3675 916 3669 903 
Q 3581 541 3364 234 
Q 3147 -72 2822 -72 
Q 2597 -72 2437 83 
Q 2278 238 2278 459 
Q 2278 578 2328 709 
Q 2409 919 2514 1209 
Q 2619 1500 2686 1765 
Q 2753 2031 2753 2234 
Q 2753 2413 2679 2538 
Q 2606 2663 2431 2663 
Q 2197 2663 2000 2559 
Q 1803 2456 1656 2286 
Q 1509 2116 1388 1881 
L 953 141 
Q 931 53 854 -9 
Q 778 -72 684 -72 
Q 606 -72 550 -22 
Q 494 28 494 109 
z
" transform="scale(0.015625)"/>
      <path id="Cmmi10-3b" d="M 634 -1153 
Q 634 -1125 659 -1100 
Q 891 -878 1019 -587 
Q 1147 -297 1147 25 
L 1147 103 
Q 1044 0 891 0 
Q 744 0 641 103 
Q 538 206 538 353 
Q 538 503 641 603 
Q 744 703 891 703 
Q 1119 703 1216 492 
Q 1313 281 1313 25 
Q 1313 -331 1170 -651 
Q 1028 -972 769 -1228 
Q 744 -1241 728 -1241 
Q 697 -1241 665 -1212 
Q 634 -1184 634 -1153 
z
" transform="scale(0.015625)"/>
      <path id="Cmmi10-78" d="M 500 184 
Q 613 97 819 97 
Q 1019 97 1172 289 
Q 1325 481 1381 709 
L 1672 1844 
Q 1741 2153 1741 2266 
Q 1741 2425 1652 2544 
Q 1563 2663 1403 2663 
Q 1200 2663 1022 2536 
Q 844 2409 722 2214 
Q 600 2019 550 1819 
Q 538 1778 500 1778 
L 422 1778 
Q 372 1778 372 1838 
L 372 1856 
Q 434 2094 584 2320 
Q 734 2547 951 2687 
Q 1169 2828 1416 2828 
Q 1650 2828 1839 2703 
Q 2028 2578 2106 2363 
Q 2216 2559 2386 2693 
Q 2556 2828 2759 2828 
Q 2897 2828 3040 2779 
Q 3184 2731 3275 2631 
Q 3366 2531 3366 2381 
Q 3366 2219 3261 2101 
Q 3156 1984 2994 1984 
Q 2891 1984 2822 2050 
Q 2753 2116 2753 2216 
Q 2753 2350 2845 2451 
Q 2938 2553 3066 2572 
Q 2950 2663 2747 2663 
Q 2541 2663 2389 2472 
Q 2238 2281 2175 2047 
L 1894 916 
Q 1825 659 1825 494 
Q 1825 331 1917 214 
Q 2009 97 2163 97 
Q 2463 97 2698 361 
Q 2934 625 3009 941 
Q 3022 978 3059 978 
L 3138 978 
Q 3163 978 3178 961 
Q 3194 944 3194 922 
Q 3194 916 3188 903 
Q 3097 522 2806 225 
Q 2516 -72 2150 -72 
Q 1916 -72 1727 54 
Q 1538 181 1459 397 
Q 1359 209 1182 68 
Q 1006 -72 806 -72 
Q 669 -72 523 -23 
Q 378 25 287 125 
Q 197 225 197 378 
Q 197 528 301 651 
Q 406 775 563 775 
Q 669 775 741 711 
Q 813 647 813 544 
Q 813 409 723 309 
Q 634 209 500 184 
z
" transform="scale(0.015625)"/>
      <path id="Cmmi10-79" d="M 538 -916 
Q 672 -1147 1006 -1147 
Q 1309 -1147 1531 -934 
Q 1753 -722 1889 -420 
Q 2025 -119 2100 197 
Q 1816 -72 1484 -72 
Q 1231 -72 1053 15 
Q 875 103 776 276 
Q 678 450 678 697 
Q 678 906 734 1126 
Q 791 1347 892 1617 
Q 994 1888 1069 2088 
Q 1153 2322 1153 2472 
Q 1153 2663 1013 2663 
Q 759 2663 595 2402 
Q 431 2141 353 1819 
Q 341 1778 300 1778 
L 225 1778 
Q 172 1778 172 1838 
L 172 1856 
Q 275 2238 487 2533 
Q 700 2828 1025 2828 
Q 1253 2828 1411 2678 
Q 1569 2528 1569 2297 
Q 1569 2178 1516 2047 
Q 1488 1969 1388 1706 
Q 1288 1444 1234 1272 
Q 1181 1100 1147 934 
Q 1113 769 1113 603 
Q 1113 391 1203 244 
Q 1294 97 1491 97 
Q 1888 97 2203 581 
L 2688 2553 
Q 2709 2638 2787 2698 
Q 2866 2759 2956 2759 
Q 3034 2759 3092 2709 
Q 3150 2659 3150 2578 
Q 3150 2541 3144 2528 
L 2509 -19 
Q 2425 -347 2200 -647 
Q 1975 -947 1658 -1130 
Q 1341 -1313 997 -1313 
Q 831 -1313 668 -1248 
Q 506 -1184 406 -1056 
Q 306 -928 306 -756 
Q 306 -581 409 -453 
Q 513 -325 684 -325 
Q 788 -325 858 -389 
Q 928 -453 928 -556 
Q 928 -703 818 -812 
Q 709 -922 563 -922 
Q 556 -919 550 -917 
Q 544 -916 538 -916 
z
" transform="scale(0.015625)"/>
      <path id="Cmr10-29" d="M 416 -1600 
Q 359 -1600 359 -1544 
Q 359 -1516 372 -1503 
Q 1466 -434 1466 1600 
Q 1466 3634 384 4691 
Q 359 4706 359 4744 
Q 359 4766 376 4783 
Q 394 4800 416 4800 
L 475 4800 
Q 494 4800 506 4788 
Q 966 4425 1272 3906 
Q 1578 3388 1720 2800 
Q 1863 2213 1863 1600 
Q 1863 1147 1786 708 
Q 1709 269 1542 -157 
Q 1375 -584 1119 -945 
Q 863 -1306 506 -1588 
Q 494 -1600 475 -1600 
L 416 -1600 
z
" transform="scale(0.015625)"/>
      <path id="DejaVuSerif-77" d="M 3072 3322 
L 3922 728 
L 4672 2988 
L 4191 2988 
L 4191 3322 
L 5394 3322 
L 5394 2988 
L 5025 2988 
L 4038 0 
L 3559 0 
L 2741 2484 
L 1919 0 
L 1459 0 
L 475 2988 
L 103 2988 
L 103 3322 
L 1606 3322 
L 1606 2988 
L 1069 2988 
L 1813 728 
L 2669 3322 
L 3072 3322 
z
" transform="scale(0.015625)"/>
      <path id="DejaVuSerif-68" d="M 263 0 
L 263 331 
L 781 331 
L 781 4531 
L 231 4531 
L 231 4863 
L 1356 4863 
L 1356 2731 
Q 1516 3069 1770 3241 
Q 2025 3413 2363 3413 
Q 2913 3413 3172 3097 
Q 3431 2781 3431 2113 
L 3431 331 
L 3944 331 
L 3944 0 
L 2356 0 
L 2356 331 
L 2853 331 
L 2853 1931 
Q 2853 2541 2704 2764 
Q 2556 2988 2175 2988 
Q 1775 2988 1565 2697 
Q 1356 2406 1356 1850 
L 1356 331 
L 1856 331 
L 1856 0 
L 263 0 
z
" transform="scale(0.015625)"/>
      <path id="DejaVuSerif-79" d="M 1381 -609 
L 1600 -56 
L 359 2988 
L -19 2988 
L -19 3322 
L 1509 3322 
L 1509 2988 
L 978 2988 
L 1913 703 
L 2847 2988 
L 2350 2988 
L 2350 3322 
L 3597 3322 
L 3597 2988 
L 3225 2988 
L 1703 -750 
Q 1547 -1138 1356 -1280 
Q 1166 -1422 819 -1422 
Q 672 -1422 517 -1397 
Q 363 -1372 206 -1325 
L 206 -691 
L 500 -691 
Q 519 -903 608 -995 
Q 697 -1088 884 -1088 
Q 1056 -1088 1161 -992 
Q 1266 -897 1381 -609 
z
" transform="scale(0.015625)"/>
      <path id="DejaVuSerif-6d" d="M 3316 2675 
Q 3481 3041 3739 3227 
Q 3997 3413 4341 3413 
Q 4863 3413 5119 3089 
Q 5375 2766 5375 2113 
L 5375 331 
L 5894 331 
L 5894 0 
L 4300 0 
L 4300 331 
L 4800 331 
L 4800 2047 
Q 4800 2556 4650 2772 
Q 4500 2988 4153 2988 
Q 3769 2988 3567 2697 
Q 3366 2406 3366 1850 
L 3366 331 
L 3866 331 
L 3866 0 
L 2291 0 
L 2291 331 
L 2791 331 
L 2791 2069 
Q 2791 2566 2641 2777 
Q 2491 2988 2144 2988 
Q 1759 2988 1557 2697 
Q 1356 2406 1356 1850 
L 1356 331 
L 1856 331 
L 1856 0 
L 263 0 
L 263 331 
L 781 331 
L 781 2994 
L 231 2994 
L 231 3322 
L 1356 3322 
L 1356 2731 
Q 1516 3063 1762 3238 
Q 2009 3413 2322 3413 
Q 2709 3413 2968 3220 
Q 3228 3028 3316 2675 
z
" transform="scale(0.015625)"/>
      <path id="DejaVuSerif-63" d="M 3291 997 
Q 3169 466 2822 187 
Q 2475 -91 1925 -91 
Q 1200 -91 759 389 
Q 319 869 319 1663 
Q 319 2459 759 2936 
Q 1200 3413 1925 3413 
Q 2241 3413 2553 3339 
Q 2866 3266 3181 3116 
L 3181 2266 
L 2847 2266 
Q 2781 2703 2561 2903 
Q 2341 3103 1931 3103 
Q 1466 3103 1228 2742 
Q 991 2381 991 1663 
Q 991 944 1227 581 
Q 1463 219 1931 219 
Q 2303 219 2525 412 
Q 2747 606 2828 997 
L 3291 997 
z
" transform="scale(0.015625)"/>
     </defs>
     <use xlink:href="#DejaVuSerif-46" transform="translate(0 0.015625)"/>
     <use xlink:href="#DejaVuSerif-6f" transform="translate(69.384766 0.015625)"/>
     <use xlink:href="#DejaVuSerif-72" transform="translate(129.589844 0.015625)"/>
     <use xlink:href="#DejaVuSerif-20" transform="translate(177.392578 0.015625)"/>
     <use xlink:href="#DejaVuSerif-61" transform="translate(209.179688 0.015625)"/>
     <use xlink:href="#DejaVuSerif-20" transform="translate(268.798828 0.015625)"/>
     <use xlink:href="#DejaVuSerif-67" transform="translate(300.585938 0.015625)"/>
     <use xlink:href="#DejaVuSerif-69" transform="translate(364.599609 0.015625)"/>
     <use xlink:href="#DejaVuSerif-76" transform="translate(396.582031 0.015625)"/>
     <use xlink:href="#DejaVuSerif-65" transform="translate(453.076172 0.015625)"/>
     <use xlink:href="#DejaVuSerif-6e" transform="translate(512.255859 0.015625)"/>
     <use xlink:href="#DejaVuSerif-20" transform="translate(576.660156 0.015625)"/>
     <use xlink:href="#DejaVuSerif-70" transform="translate(608.447266 0.015625)"/>
     <use xlink:href="#DejaVuSerif-6f" transform="translate(672.460938 0.015625)"/>
     <use xlink:href="#DejaVuSerif-73" transform="translate(732.666016 0.015625)"/>
     <use xlink:href="#DejaVuSerif-69" transform="translate(783.984375 0.015625)"/>
     <use xlink:href="#DejaVuSerif-74" transform="translate(815.966797 0.015625)"/>
     <use xlink:href="#DejaVuSerif-69" transform="translate(856.152344 0.015625)"/>
     <use xlink:href="#DejaVuSerif-76" transform="translate(888.134766 0.015625)"/>
     <use xlink:href="#DejaVuSerif-65" transform="translate(944.628906 0.015625)"/>
     <use xlink:href="#DejaVuSerif-20" transform="translate(1003.808594 0.015625)"/>
     <use xlink:href="#DejaVuSerif-69" transform="translate(1035.595703 0.015625)"/>
     <use xlink:href="#DejaVuSerif-6e" transform="translate(1067.578125 0.015625)"/>
     <use xlink:href="#DejaVuSerif-74" transform="translate(1131.982422 0.015625)"/>
     <use xlink:href="#DejaVuSerif-65" transform="translate(1172.167969 0.015625)"/>
     <use xlink:href="#DejaVuSerif-67" transform="translate(1231.347656 0.015625)"/>
     <use xlink:href="#DejaVuSerif-65" transform="translate(1295.361328 0.015625)"/>
     <use xlink:href="#DejaVuSerif-72" transform="translate(1354.541016 0.015625)"/>
     <use xlink:href="#DejaVuSerif-20" transform="translate(1402.34375 0.015625)"/>
     <use xlink:href="#Cmmi10-6d" transform="translate(1434.130859 0.015625)"/>
     <use xlink:href="#DejaVuSerif-2c" transform="translate(1521.923828 0.015625)"/>
     <use xlink:href="#DejaVuSerif-20" transform="translate(1553.710938 0.015625)"/>
     <use xlink:href="#DejaVuSerif-66" transform="translate(1585.498047 0.015625)"/>
     <use xlink:href="#DejaVuSerif-69" transform="translate(1622.509766 0.015625)"/>
     <use xlink:href="#DejaVuSerif-6e" transform="translate(1654.492188 0.015625)"/>
     <use xlink:href="#DejaVuSerif-64" transform="translate(1718.896484 0.015625)"/>
     <use xlink:href="#DejaVuSerif-20" transform="translate(1782.910156 0.015625)"/>
     <use xlink:href="#DejaVuSerif-61" transform="translate(1814.697266 0.015625)"/>
     <use xlink:href="#DejaVuSerif-6c" transform="translate(1874.316406 0.015625)"/>
     <use xlink:href="#DejaVuSerif-6c" transform="translate(1906.298828 0.015625)"/>
     <use xlink:href="#DejaVuSerif-20" transform="translate(1938.28125 0.015625)"/>
     <use xlink:href="#DejaVuSerif-74" transform="translate(1970.068359 0.015625)"/>
     <use xlink:href="#DejaVuSerif-72" transform="translate(2010.253906 0.015625)"/>
     <use xlink:href="#DejaVuSerif-69" transform="translate(2058.056641 0.015625)"/>
     <use xlink:href="#DejaVuSerif-70" transform="translate(2090.039062 0.015625)"/>
     <use xlink:href="#DejaVuSerif-6c" transform="translate(2154.052734 0.015625)"/>
     <use xlink:href="#DejaVuSerif-65" transform="translate(2186.035156 0.015625)"/>
     <use xlink:href="#DejaVuSerif-73" transform="translate(2245.214844 0.015625)"/>
     <use xlink:href="#DejaVuSerif-20" transform="translate(2296.533203 0.015625)"/>
     <use xlink:href="#Cmr10-28" transform="translate(2328.320312 0.015625)"/>
     <use xlink:href="#Cmmi10-6e" transform="translate(2367.138672 0.015625)"/>
     <use xlink:href="#Cmmi10-3b" transform="translate(2427.148438 0.015625)"/>
     <use xlink:href="#Cmmi10-78" transform="translate(2472.392578 0.015625)"/>
     <use xlink:href="#Cmmi10-3b" transform="translate(2529.472656 0.015625)"/>
     <use xlink:href="#Cmmi10-79" transform="translate(2574.716797 0.015625)"/>
     <use xlink:href="#Cmr10-29" transform="translate(2623.740234 0.015625)"/>
     <use xlink:href="#DejaVuSerif-20" transform="translate(2662.558594 0.015625)"/>
     <use xlink:href="#DejaVuSerif-6f" transform="translate(2694.345703 0.015625)"/>
     <use xlink:href="#DejaVuSerif-66" transform="translate(2754.550781 0.015625)"/>
     <use xlink:href="#DejaVuSerif-20" transform="translate(2791.5625 0.015625)"/>
     <use xlink:href="#DejaVuSerif-70" transform="translate(2823.349609 0.015625)"/>
     <use xlink:href="#DejaVuSerif-6f" transform="translate(2887.363281 0.015625)"/>
     <use xlink:href="#DejaVuSerif-73" transform="translate(2947.568359 0.015625)"/>
     <use xlink:href="#DejaVuSerif-69" transform="translate(2998.886719 0.015625)"/>
     <use xlink:href="#DejaVuSerif-74" transform="translate(3030.869141 0.015625)"/>
     <use xlink:href="#DejaVuSerif-69" transform="translate(3071.054688 0.015625)"/>
     <use xlink:href="#DejaVuSerif-76" transform="translate(3103.037109 0.015625)"/>
     <use xlink:href="#DejaVuSerif-65" transform="translate(3159.53125 0.015625)"/>
     <use xlink:href="#DejaVuSerif-20" transform="translate(3218.710938 0.015625)"/>
     <use xlink:href="#DejaVuSerif-69" transform="translate(3250.498047 0.015625)"/>
     <use xlink:href="#DejaVuSerif-6e" transform="translate(3282.480469 0.015625)"/>
     <use xlink:href="#DejaVuSerif-74" transform="translate(3346.884766 0.015625)"/>
     <use xlink:href="#DejaVuSerif-65" transform="translate(3387.070312 0.015625)"/>
     <use xlink:href="#DejaVuSerif-67" transform="translate(3446.25 0.015625)"/>
     <use xlink:href="#DejaVuSerif-65" transform="translate(3510.263672 0.015625)"/>
     <use xlink:href="#DejaVuSerif-72" transform="translate(3569.443359 0.015625)"/>
     <use xlink:href="#DejaVuSerif-73" transform="translate(3617.246094 0.015625)"/>
     <use xlink:href="#DejaVuSerif-2c" transform="translate(3668.564453 0.015625)"/>
     <use xlink:href="#DejaVuSerif-20" transform="translate(3700.351562 0.015625)"/>
     <use xlink:href="#DejaVuSerif-77" transform="translate(3732.138672 0.015625)"/>
     <use xlink:href="#DejaVuSerif-69" transform="translate(3817.734375 0.015625)"/>
     <use xlink:href="#DejaVuSerif-74" transform="translate(3849.716797 0.015625)"/>
     <use xlink:href="#DejaVuSerif-68" transform="translate(3889.902344 0.015625)"/>
     <use xlink:href="#DejaVuSerif-20" transform="translate(3954.306641 0.015625)"/>
     <use xlink:href="#Cmmi10-6e" transform="translate(3986.09375 0.015625)"/>
     <use xlink:href="#DejaVuSerif-20" transform="translate(4046.103516 0.015625)"/>
     <use xlink:href="#DejaVuSerif-72" transform="translate(4077.890625 0.015625)"/>
     <use xlink:href="#DejaVuSerif-65" transform="translate(4125.693359 0.015625)"/>
     <use xlink:href="#DejaVuSerif-6c" transform="translate(4184.873047 0.015625)"/>
     <use xlink:href="#DejaVuSerif-61" transform="translate(4216.855469 0.015625)"/>
     <use xlink:href="#DejaVuSerif-74" transform="translate(4276.474609 0.015625)"/>
     <use xlink:href="#DejaVuSerif-69" transform="translate(4316.660156 0.015625)"/>
     <use xlink:href="#DejaVuSerif-76" transform="translate(4348.642578 0.015625)"/>
     <use xlink:href="#DejaVuSerif-65" transform="translate(4405.136719 0.015625)"/>
     <use xlink:href="#DejaVuSerif-6c" transform="translate(4464.316406 0.015625)"/>
     <use xlink:href="#DejaVuSerif-79" transform="translate(4496.298828 0.015625)"/>
     <use xlink:href="#DejaVuSerif-20" transform="translate(4552.792969 0.015625)"/>
     <use xlink:href="#DejaVuSerif-70" transform="translate(4584.580078 0.015625)"/>
     <use xlink:href="#DejaVuSerif-72" transform="translate(4648.59375 0.015625)"/>
     <use xlink:href="#DejaVuSerif-69" transform="translate(4696.396484 0.015625)"/>
     <use xlink:href="#DejaVuSerif-6d" transform="translate(4728.378906 0.015625)"/>
     <use xlink:href="#DejaVuSerif-65" transform="translate(4823.203125 0.015625)"/>
     <use xlink:href="#DejaVuSerif-20" transform="translate(4882.382812 0.015625)"/>
     <use xlink:href="#DejaVuSerif-74" transform="translate(4914.169922 0.015625)"/>
     <use xlink:href="#DejaVuSerif-6f" transform="translate(4954.355469 0.015625)"/>
     <use xlink:href="#DejaVuSerif-20" transform="translate(5014.560547 0.015625)"/>
     <use xlink:href="#Cmmi10-6d" transform="translate(5046.347656 0.015625)"/>
     <use xlink:href="#DejaVuSerif-2c" transform="translate(5134.140625 0.015625)"/>
     <use xlink:href="#DejaVuSerif-20" transform="translate(5165.927734 0.015625)"/>
     <use xlink:href="#DejaVuSerif-77" transform="translate(5197.714844 0.015625)"/>
     <use xlink:href="#DejaVuSerif-68" transform="translate(5283.310547 0.015625)"/>
     <use xlink:href="#DejaVuSerif-69" transform="translate(5347.714844 0.015625)"/>
     <use xlink:href="#DejaVuSerif-63" transform="translate(5379.697266 0.015625)"/>
     <use xlink:href="#DejaVuSerif-68" transform="translate(5435.703125 0.015625)"/>
     <use xlink:href="#DejaVuSerif-20" transform="translate(5500.107422 0.015625)"/>
     <use xlink:href="#DejaVuSerif-73" transform="translate(5531.894531 0.015625)"/>
     <use xlink:href="#DejaVuSerif-61" transform="translate(5583.212891 0.015625)"/>
     <use xlink:href="#DejaVuSerif-74" transform="translate(5642.832031 0.015625)"/>
     <use xlink:href="#DejaVuSerif-69" transform="translate(5683.017578 0.015625)"/>
     <use xlink:href="#DejaVuSerif-73" transform="translate(5715 0.015625)"/>
     <use xlink:href="#DejaVuSerif-66" transform="translate(5766.318359 0.015625)"/>
     <use xlink:href="#DejaVuSerif-79" transform="translate(5803.330078 0.015625)"/>
    </g>
    <!-- \[ -->
    <g transform="translate(354.437812 110.960375) scale(0.12 -0.12)">
     <defs>
      <path id="DejaVuSerif-5c" d="M 500 4666 
L 2156 -594 
L 1656 -594 
L 0 4666 
L 500 4666 
z
" transform="scale(0.015625)"/>
      <path id="DejaVuSerif-5b" d="M 550 4863 
L 2003 4863 
L 2003 4531 
L 1147 4531 
L 1147 -513 
L 2003 -513 
L 2003 -844 
L 550 -844 
L 550 4863 
z
" transform="scale(0.015625)"/>
     </defs>
     <use xlink:href="#DejaVuSerif-5c"/>
     <use xlink:href="#DejaVuSerif-5b" transform="translate(33.691406 0)"/>
    </g>
    <!-- (x^2 + y^2)^m = (xy)^n. -->
    <g transform="translate(278.999062 124.39775) scale(0.12 -0.12)">
     <defs>
      <path id="DejaVuSerif-28" d="M 2041 -997 
Q 1281 -656 893 83 
Q 506 822 506 1931 
Q 506 3044 893 3783 
Q 1281 4522 2041 4863 
L 2041 4556 
Q 1559 4225 1350 3623 
Q 1141 3022 1141 1931 
Q 1141 844 1350 242 
Q 1559 -359 2041 -691 
L 2041 -997 
z
" transform="scale(0.015625)"/>
      <path id="DejaVuSerif-78" d="M 1863 2028 
L 2559 2988 
L 2113 2988 
L 2113 3322 
L 3391 3322 
L 3391 2988 
L 2950 2988 
L 2059 1759 
L 3097 331 
L 3531 331 
L 3531 0 
L 1997 0 
L 1997 331 
L 2419 331 
L 1697 1325 
L 972 331 
L 1403 331 
L 1403 0 
L 141 0 
L 141 331 
L 581 331 
L 1497 1594 
L 488 2988 
L 78 2988 
L 78 3322 
L 1563 3322 
L 1563 2988 
L 1166 2988 
L 1863 2028 
z
" transform="scale(0.015625)"/>
      <path id="DejaVuSerif-5e" d="M 2988 4666 
L 4684 2925 
L 4206 2925 
L 2681 4116 
L 1159 2925 
L 678 2925 
L 2375 4666 
L 2988 4666 
z
" transform="scale(0.015625)"/>
      <path id="DejaVuSerif-32" d="M 819 3553 
L 469 3553 
L 469 4384 
Q 803 4563 1142 4656 
Q 1481 4750 1806 4750 
Q 2534 4750 2956 4397 
Q 3378 4044 3378 3438 
Q 3378 2753 2422 1800 
Q 2347 1728 2309 1691 
L 1131 513 
L 3078 513 
L 3078 1088 
L 3444 1088 
L 3444 0 
L 434 0 
L 434 341 
L 1850 1753 
Q 2319 2222 2519 2614 
Q 2719 3006 2719 3438 
Q 2719 3909 2473 4175 
Q 2228 4441 1797 4441 
Q 1350 4441 1106 4219 
Q 863 3997 819 3553 
z
" transform="scale(0.015625)"/>
      <path id="DejaVuSerif-2b" d="M 2931 4013 
L 2931 2259 
L 4684 2259 
L 4684 1753 
L 2931 1753 
L 2931 0 
L 2431 0 
L 2431 1753 
L 678 1753 
L 678 2259 
L 2431 2259 
L 2431 4013 
L 2931 4013 
z
" transform="scale(0.015625)"/>
      <path id="DejaVuSerif-29" d="M 453 -997 
L 453 -691 
Q 934 -359 1145 242 
Q 1356 844 1356 1931 
Q 1356 3022 1145 3623 
Q 934 4225 453 4556 
L 453 4863 
Q 1216 4522 1603 3783 
Q 1991 3044 1991 1931 
Q 1991 822 1603 83 
Q 1216 -656 453 -997 
z
" transform="scale(0.015625)"/>
      <path id="DejaVuSerif-3d" d="M 678 2894 
L 4684 2894 
L 4684 2394 
L 678 2394 
L 678 2894 
z
M 678 1619 
L 4684 1619 
L 4684 1119 
L 678 1119 
L 678 1619 
z
" transform="scale(0.015625)"/>
      <path id="DejaVuSerif-2e" d="M 603 325 
Q 603 500 722 622 
Q 841 744 1019 744 
Q 1191 744 1312 622 
Q 1434 500 1434 325 
Q 1434 153 1312 31 
Q 1191 -91 1019 -91 
Q 841 -91 722 29 
Q 603 150 603 325 
z
" transform="scale(0.015625)"/>
     </defs>
     <use xlink:href="#DejaVuSerif-28"/>
     <use xlink:href="#DejaVuSerif-78" transform="translate(39.013672 0)"/>
     <use xlink:href="#DejaVuSerif-5e" transform="translate(95.410156 0)"/>
     <use xlink:href="#DejaVuSerif-32" transform="translate(179.199219 0)"/>
     <use xlink:href="#DejaVuSerif-20" transform="translate(242.822266 0)"/>
     <use xlink:href="#DejaVuSerif-2b" transform="translate(274.609375 0)"/>
     <use xlink:href="#DejaVuSerif-20" transform="translate(358.398438 0)"/>
     <use xlink:href="#DejaVuSerif-79" transform="translate(390.185547 0)"/>
     <use xlink:href="#DejaVuSerif-5e" transform="translate(446.679688 0)"/>
     <use xlink:href="#DejaVuSerif-32" transform="translate(530.46875 0)"/>
     <use xlink:href="#DejaVuSerif-29" transform="translate(594.091797 0)"/>
     <use xlink:href="#DejaVuSerif-5e" transform="translate(633.105469 0)"/>
     <use xlink:href="#DejaVuSerif-6d" transform="translate(716.894531 0)"/>
     <use xlink:href="#DejaVuSerif-20" transform="translate(811.71875 0)"/>
     <use xlink:href="#DejaVuSerif-3d" transform="translate(843.505859 0)"/>
     <use xlink:href="#DejaVuSerif-20" transform="translate(927.294922 0)"/>
     <use xlink:href="#DejaVuSerif-28" transform="translate(959.082031 0)"/>
     <use xlink:href="#DejaVuSerif-78" transform="translate(998.095703 0)"/>
     <use xlink:href="#DejaVuSerif-79" transform="translate(1054.492188 0)"/>
     <use xlink:href="#DejaVuSerif-29" transform="translate(1110.986328 0)"/>
     <use xlink:href="#DejaVuSerif-5e" transform="translate(1150 0)"/>
     <use xlink:href="#DejaVuSerif-6e" transform="translate(1233.789062 0)"/>
     <use xlink:href="#DejaVuSerif-2e" transform="translate(1298.193359 0)"/>
    </g>
    <!-- \] -->
    <g transform="translate(354.437812 138.00575) scale(0.12 -0.12)">
     <defs>
      <path id="DejaVuSerif-5d" d="M 1947 4863 
L 1947 -844 
L 494 -844 
L 494 -513 
L 1350 -513 
L 1350 4531 
L 494 4531 
L 494 4863 
L 1947 4863 
z
" transform="scale(0.015625)"/>
     </defs>
     <use xlink:href="#DejaVuSerif-5c"/>
     <use xlink:href="#DejaVuSerif-5d" transform="translate(33.691406 0)"/>
    </g>
   </g>
  </g>
 </g>
</svg>
