<?xml version="1.0" encoding="utf-8" standalone="no"?>
<!DOCTYPE svg PUBLIC "-//W3C//DTD SVG 1.1//EN"
  "http://www.w3.org/Graphics/SVG/1.1/DTD/svg11.dtd">
<svg xmlns:xlink="http://www.w3.org/1999/xlink" width="1020pt" height="228.4pt" viewBox="0 0 1020 228.4" xmlns="http://www.w3.org/2000/svg" version="1.1">
 <metadata>
  <rdf:RDF xmlns:dc="http://purl.org/dc/elements/1.1/" xmlns:cc="http://creativecommons.org/ns#" xmlns:rdf="http://www.w3.org/1999/02/22-rdf-syntax-ns#">
   <cc:Work>
    <dc:type rdf:resource="http://purl.org/dc/dcmitype/StillImage"/>
    <dc:date>2025-05-29T18:44:09.766970</dc:date>
    <dc:format>image/svg+xml</dc:format>
    <dc:creator>
     <cc:Agent>
      <dc:title>Matplotlib v3.10.3, https://matplotlib.org/</dc:title>
     </cc:Agent>
    </dc:creator>
   </cc:Work>
  </rdf:RDF>
 </metadata>
 <defs>
  <style type="text/css">*{stroke-linejoin: round; stroke-linecap: butt}</style>
 </defs>
 <g id="figure_1">
  <g id="patch_1">
   <path d="M 0 228.4 
L 1020 228.4 
L 1020 0 
L 0 0 
z
" style="fill: #ffffff"/>
  </g>
  <g id="axes_1">
   <g id="text_1">
    <!-- Let $x_0 = 1$ and for $n \geqq 0$, let $x_{n+1} = 3x_n + \lfloor x_n \sqrt{5} \rfloor$. In particular, $x_1 = 5$, $x_2 = 26$, $x_3 = 136$, $x_4 = 712$. Find a closed-form expression for $x_{2007}$. ($\lfloor a \rfloor$ means the largest integer $\leqq a$.) -->
    <g transform="translate(7.2 118.94) scale(0.12 -0.12)">
     <defs>
      <path id="DejaVuSerif-4c" d="M 353 0 
L 353 331 
L 947 331 
L 947 4331 
L 353 4331 
L 353 4666 
L 2175 4666 
L 2175 4331 
L 1581 4331 
L 1581 384 
L 3713 384 
L 3713 1166 
L 4097 1166 
L 4097 0 
L 353 0 
z
" transform="scale(0.015625)"/>
      <path id="DejaVuSerif-65" d="M 3469 1600 
L 991 1600 
L 991 1575 
Q 991 903 1244 561 
Q 1497 219 1991 219 
Q 2369 219 2611 417 
Q 2853 616 2950 1006 
L 3413 1006 
Q 3275 459 2904 184 
Q 2534 -91 1931 -91 
Q 1203 -91 761 389 
Q 319 869 319 1663 
Q 319 2450 753 2931 
Q 1188 3413 1894 3413 
Q 2647 3413 3050 2948 
Q 3453 2484 3469 1600 
z
M 2791 1931 
Q 2772 2513 2545 2808 
Q 2319 3103 1894 3103 
Q 1497 3103 1269 2806 
Q 1041 2509 991 1931 
L 2791 1931 
z
" transform="scale(0.015625)"/>
      <path id="DejaVuSerif-74" d="M 691 2988 
L 184 2988 
L 184 3322 
L 691 3322 
L 691 4353 
L 1269 4353 
L 1269 3322 
L 2350 3322 
L 2350 2988 
L 1269 2988 
L 1269 878 
Q 1269 456 1350 337 
Q 1431 219 1650 219 
Q 1875 219 1978 351 
Q 2081 484 2088 781 
L 2522 781 
Q 2497 328 2275 118 
Q 2053 -91 1600 -91 
Q 1103 -91 897 129 
Q 691 350 691 878 
L 691 2988 
z
" transform="scale(0.015625)"/>
      <path id="DejaVuSerif-20" transform="scale(0.015625)"/>
      <path id="Cmmi10-78" d="M 500 184 
Q 613 97 819 97 
Q 1019 97 1172 289 
Q 1325 481 1381 709 
L 1672 1844 
Q 1741 2153 1741 2266 
Q 1741 2425 1652 2544 
Q 1563 2663 1403 2663 
Q 1200 2663 1022 2536 
Q 844 2409 722 2214 
Q 600 2019 550 1819 
Q 538 1778 500 1778 
L 422 1778 
Q 372 1778 372 1838 
L 372 1856 
Q 434 2094 584 2320 
Q 734 2547 951 2687 
Q 1169 2828 1416 2828 
Q 1650 2828 1839 2703 
Q 2028 2578 2106 2363 
Q 2216 2559 2386 2693 
Q 2556 2828 2759 2828 
Q 2897 2828 3040 2779 
Q 3184 2731 3275 2631 
Q 3366 2531 3366 2381 
Q 3366 2219 3261 2101 
Q 3156 1984 2994 1984 
Q 2891 1984 2822 2050 
Q 2753 2116 2753 2216 
Q 2753 2350 2845 2451 
Q 2938 2553 3066 2572 
Q 2950 2663 2747 2663 
Q 2541 2663 2389 2472 
Q 2238 2281 2175 2047 
L 1894 916 
Q 1825 659 1825 494 
Q 1825 331 1917 214 
Q 2009 97 2163 97 
Q 2463 97 2698 361 
Q 2934 625 3009 941 
Q 3022 978 3059 978 
L 3138 978 
Q 3163 978 3178 961 
Q 3194 944 3194 922 
Q 3194 916 3188 903 
Q 3097 522 2806 225 
Q 2516 -72 2150 -72 
Q 1916 -72 1727 54 
Q 1538 181 1459 397 
Q 1359 209 1182 68 
Q 1006 -72 806 -72 
Q 669 -72 523 -23 
Q 378 25 287 125 
Q 197 225 197 378 
Q 197 528 301 651 
Q 406 775 563 775 
Q 669 775 741 711 
Q 813 647 813 544 
Q 813 409 723 309 
Q 634 209 500 184 
z
" transform="scale(0.015625)"/>
      <path id="Cmr10-30" d="M 1600 -141 
Q 816 -141 533 504 
Q 250 1150 250 2041 
Q 250 2597 351 3087 
Q 453 3578 754 3920 
Q 1056 4263 1600 4263 
Q 2022 4263 2290 4056 
Q 2559 3850 2700 3523 
Q 2841 3197 2892 2823 
Q 2944 2450 2944 2041 
Q 2944 1491 2842 1011 
Q 2741 531 2444 195 
Q 2147 -141 1600 -141 
z
M 1600 25 
Q 1956 25 2131 390 
Q 2306 756 2347 1200 
Q 2388 1644 2388 2144 
Q 2388 2625 2347 3031 
Q 2306 3438 2132 3767 
Q 1959 4097 1600 4097 
Q 1238 4097 1063 3765 
Q 888 3434 847 3029 
Q 806 2625 806 2144 
Q 806 1788 823 1472 
Q 841 1156 916 820 
Q 991 484 1158 254 
Q 1325 25 1600 25 
z
" transform="scale(0.015625)"/>
      <path id="Cmr10-3d" d="M 481 850 
Q 428 850 393 890 
Q 359 931 359 978 
Q 359 1031 393 1068 
Q 428 1106 481 1106 
L 4500 1106 
Q 4547 1106 4581 1068 
Q 4616 1031 4616 978 
Q 4616 931 4581 890 
Q 4547 850 4500 850 
L 481 850 
z
M 481 2094 
Q 428 2094 393 2131 
Q 359 2169 359 2222 
Q 359 2269 393 2309 
Q 428 2350 481 2350 
L 4500 2350 
Q 4547 2350 4581 2309 
Q 4616 2269 4616 2222 
Q 4616 2169 4581 2131 
Q 4547 2094 4500 2094 
L 481 2094 
z
" transform="scale(0.015625)"/>
      <path id="Cmr10-31" d="M 594 0 
L 594 225 
Q 1394 225 1394 428 
L 1394 3788 
Q 1063 3628 556 3628 
L 556 3853 
Q 1341 3853 1741 4263 
L 1831 4263 
Q 1853 4263 1873 4245 
Q 1894 4228 1894 4206 
L 1894 428 
Q 1894 225 2694 225 
L 2694 0 
L 594 0 
z
" transform="scale(0.015625)"/>
      <path id="DejaVuSerif-61" d="M 2547 1044 
L 2547 1747 
L 1806 1747 
Q 1378 1747 1168 1562 
Q 959 1378 959 997 
Q 959 650 1171 447 
Q 1384 244 1747 244 
Q 2106 244 2326 466 
Q 2547 688 2547 1044 
z
M 3122 2075 
L 3122 331 
L 3634 331 
L 3634 0 
L 2547 0 
L 2547 359 
Q 2356 128 2106 18 
Q 1856 -91 1522 -91 
Q 969 -91 644 203 
Q 319 497 319 997 
Q 319 1513 691 1797 
Q 1063 2081 1741 2081 
L 2547 2081 
L 2547 2309 
Q 2547 2688 2317 2895 
Q 2088 3103 1672 3103 
Q 1328 3103 1125 2947 
Q 922 2791 872 2484 
L 575 2484 
L 575 3156 
Q 875 3284 1158 3348 
Q 1441 3413 1709 3413 
Q 2400 3413 2761 3070 
Q 3122 2728 3122 2075 
z
" transform="scale(0.015625)"/>
      <path id="DejaVuSerif-6e" d="M 263 0 
L 263 331 
L 781 331 
L 781 2988 
L 231 2988 
L 231 3322 
L 1356 3322 
L 1356 2731 
Q 1516 3069 1770 3241 
Q 2025 3413 2363 3413 
Q 2913 3413 3172 3097 
Q 3431 2781 3431 2113 
L 3431 331 
L 3944 331 
L 3944 0 
L 2356 0 
L 2356 331 
L 2853 331 
L 2853 1931 
Q 2853 2541 2703 2767 
Q 2553 2994 2175 2994 
Q 1775 2994 1565 2701 
Q 1356 2409 1356 1850 
L 1356 331 
L 1856 331 
L 1856 0 
L 263 0 
z
" transform="scale(0.015625)"/>
      <path id="DejaVuSerif-64" d="M 3359 331 
L 3909 331 
L 3909 0 
L 2784 0 
L 2784 519 
Q 2616 206 2355 57 
Q 2094 -91 1709 -91 
Q 1097 -91 708 395 
Q 319 881 319 1663 
Q 319 2444 706 2928 
Q 1094 3413 1709 3413 
Q 2094 3413 2355 3264 
Q 2616 3116 2784 2803 
L 2784 4531 
L 2241 4531 
L 2241 4863 
L 3359 4863 
L 3359 331 
z
M 2784 1497 
L 2784 1825 
Q 2784 2422 2554 2737 
Q 2325 3053 1888 3053 
Q 1444 3053 1217 2703 
Q 991 2353 991 1663 
Q 991 975 1217 622 
Q 1444 269 1888 269 
Q 2325 269 2554 583 
Q 2784 897 2784 1497 
z
" transform="scale(0.015625)"/>
      <path id="DejaVuSerif-66" d="M 2753 4078 
L 2450 4078 
Q 2447 4313 2317 4434 
Q 2188 4556 1941 4556 
Q 1619 4556 1487 4379 
Q 1356 4203 1356 3750 
L 1356 3322 
L 2284 3322 
L 2284 2988 
L 1356 2988 
L 1356 331 
L 2094 331 
L 2094 0 
L 231 0 
L 231 331 
L 781 331 
L 781 2988 
L 231 2988 
L 231 3322 
L 781 3322 
L 781 3738 
Q 781 4294 1070 4578 
Q 1359 4863 1919 4863 
Q 2128 4863 2337 4825 
Q 2547 4788 2753 4709 
L 2753 4078 
z
" transform="scale(0.015625)"/>
      <path id="DejaVuSerif-6f" d="M 1925 219 
Q 2388 219 2623 584 
Q 2859 950 2859 1663 
Q 2859 2375 2623 2739 
Q 2388 3103 1925 3103 
Q 1463 3103 1227 2739 
Q 991 2375 991 1663 
Q 991 950 1228 584 
Q 1466 219 1925 219 
z
M 1925 -91 
Q 1200 -91 759 389 
Q 319 869 319 1663 
Q 319 2456 758 2934 
Q 1197 3413 1925 3413 
Q 2653 3413 3092 2934 
Q 3531 2456 3531 1663 
Q 3531 869 3092 389 
Q 2653 -91 1925 -91 
z
" transform="scale(0.015625)"/>
      <path id="DejaVuSerif-72" d="M 3059 3328 
L 3059 2497 
L 2728 2497 
Q 2713 2744 2591 2866 
Q 2469 2988 2234 2988 
Q 1809 2988 1582 2694 
Q 1356 2400 1356 1850 
L 1356 331 
L 2022 331 
L 2022 0 
L 263 0 
L 263 331 
L 781 331 
L 781 2994 
L 231 2994 
L 231 3322 
L 1356 3322 
L 1356 2731 
Q 1525 3078 1790 3245 
Q 2056 3413 2438 3413 
Q 2578 3413 2733 3391 
Q 2888 3369 3059 3328 
z
" transform="scale(0.015625)"/>
      <path id="Cmmi10-6e" d="M 494 109 
Q 494 147 500 166 
L 978 2075 
Q 1025 2253 1025 2388 
Q 1025 2663 838 2663 
Q 638 2663 541 2423 
Q 444 2184 353 1819 
Q 353 1800 334 1789 
Q 316 1778 300 1778 
L 225 1778 
Q 203 1778 187 1801 
Q 172 1825 172 1844 
Q 241 2122 305 2315 
Q 369 2509 505 2668 
Q 641 2828 844 2828 
Q 1084 2828 1268 2676 
Q 1453 2525 1453 2291 
Q 1644 2541 1900 2684 
Q 2156 2828 2444 2828 
Q 2672 2828 2837 2750 
Q 3003 2672 3095 2514 
Q 3188 2356 3188 2138 
Q 3188 1875 3070 1503 
Q 2953 1131 2778 672 
Q 2688 463 2688 288 
Q 2688 97 2834 97 
Q 3084 97 3251 365 
Q 3419 634 3488 941 
Q 3500 978 3541 978 
L 3616 978 
Q 3641 978 3658 962 
Q 3675 947 3675 922 
Q 3675 916 3669 903 
Q 3581 541 3364 234 
Q 3147 -72 2822 -72 
Q 2597 -72 2437 83 
Q 2278 238 2278 459 
Q 2278 578 2328 709 
Q 2409 919 2514 1209 
Q 2619 1500 2686 1765 
Q 2753 2031 2753 2234 
Q 2753 2413 2679 2538 
Q 2606 2663 2431 2663 
Q 2197 2663 2000 2559 
Q 1803 2456 1656 2286 
Q 1509 2116 1388 1881 
L 953 141 
Q 931 53 854 -9 
Q 778 -72 684 -72 
Q 606 -72 550 -22 
Q 494 28 494 109 
z
" transform="scale(0.015625)"/>
      <path id="STIXGeneral-Regular-2267" d="M 3981 2771 
L 365 1024 
L 365 1427 
L 3130 2803 
L 365 4179 
L 365 4595 
L 3981 2835 
L 3981 2771 
z
M 3981 -77 
L 365 -77 
L 365 346 
L 3981 346 
L 3981 -77 
z
M 3981 -1350 
L 365 -1350 
L 365 -928 
L 3981 -928 
L 3981 -1350 
z
" transform="scale(0.015625)"/>
      <path id="DejaVuSerif-2c" d="M 231 -622 
Q 525 -406 662 -114 
Q 800 178 800 594 
L 800 709 
L 1416 709 
Q 1391 175 1164 -208 
Q 938 -591 481 -872 
L 231 -622 
z
" transform="scale(0.015625)"/>
      <path id="DejaVuSerif-6c" d="M 1313 331 
L 1856 331 
L 1856 0 
L 184 0 
L 184 331 
L 738 331 
L 738 4531 
L 184 4531 
L 184 4863 
L 1313 4863 
L 1313 331 
z
" transform="scale(0.015625)"/>
      <path id="Cmr10-2b" d="M 481 1472 
Q 428 1472 393 1512 
Q 359 1553 359 1600 
Q 359 1647 393 1687 
Q 428 1728 481 1728 
L 2363 1728 
L 2363 3616 
Q 2363 3666 2400 3698 
Q 2438 3731 2491 3731 
Q 2538 3731 2578 3698 
Q 2619 3666 2619 3616 
L 2619 1728 
L 4500 1728 
Q 4547 1728 4581 1687 
Q 4616 1647 4616 1600 
Q 4616 1553 4581 1512 
Q 4547 1472 4500 1472 
L 2619 1472 
L 2619 -416 
Q 2619 -466 2578 -498 
Q 2538 -531 2491 -531 
Q 2438 -531 2400 -498 
Q 2363 -466 2363 -416 
L 2363 1472 
L 481 1472 
z
" transform="scale(0.015625)"/>
      <path id="Cmr10-33" d="M 609 494 
Q 759 275 1012 169 
Q 1266 63 1556 63 
Q 1928 63 2084 380 
Q 2241 697 2241 1100 
Q 2241 1281 2208 1462 
Q 2175 1644 2097 1800 
Q 2019 1956 1883 2050 
Q 1747 2144 1550 2144 
L 1125 2144 
Q 1069 2144 1069 2203 
L 1069 2259 
Q 1069 2309 1125 2309 
L 1478 2338 
Q 1703 2338 1851 2506 
Q 2000 2675 2069 2917 
Q 2138 3159 2138 3378 
Q 2138 3684 1994 3881 
Q 1850 4078 1556 4078 
Q 1313 4078 1091 3986 
Q 869 3894 738 3706 
Q 750 3709 759 3711 
Q 769 3713 781 3713 
Q 925 3713 1022 3613 
Q 1119 3513 1119 3372 
Q 1119 3234 1022 3134 
Q 925 3034 781 3034 
Q 641 3034 541 3134 
Q 441 3234 441 3372 
Q 441 3647 606 3850 
Q 772 4053 1033 4158 
Q 1294 4263 1556 4263 
Q 1750 4263 1965 4205 
Q 2181 4147 2356 4039 
Q 2531 3931 2642 3762 
Q 2753 3594 2753 3378 
Q 2753 3109 2633 2881 
Q 2513 2653 2303 2487 
Q 2094 2322 1844 2241 
Q 2122 2188 2372 2031 
Q 2622 1875 2773 1631 
Q 2925 1388 2925 1106 
Q 2925 753 2731 467 
Q 2538 181 2222 20 
Q 1906 -141 1556 -141 
Q 1256 -141 954 -26 
Q 653 88 461 316 
Q 269 544 269 863 
Q 269 1022 375 1128 
Q 481 1234 641 1234 
Q 744 1234 830 1186 
Q 916 1138 964 1050 
Q 1013 963 1013 863 
Q 1013 706 903 600 
Q 794 494 641 494 
L 609 494 
z
" transform="scale(0.015625)"/>
      <path id="Cmsy10-62" d="M 1113 -1484 
L 1113 4684 
Q 1113 4734 1153 4767 
Q 1194 4800 1241 4800 
Q 1294 4800 1331 4767 
Q 1369 4734 1369 4684 
L 1369 -1344 
L 2584 -1344 
Q 2634 -1344 2667 -1384 
Q 2700 -1425 2700 -1472 
Q 2700 -1525 2667 -1562 
Q 2634 -1600 2584 -1600 
L 1234 -1600 
Q 1191 -1600 1152 -1564 
Q 1113 -1528 1113 -1484 
z
" transform="scale(0.015625)"/>
      <path id="Cmex10-70" d="M 2713 -7425 
L 1269 -4063 
L 819 -4409 
L 703 -4294 
L 1619 -3584 
L 2969 -6725 
L 6291 197 
Q 6322 256 6400 256 
Q 6453 256 6490 218 
Q 6528 181 6528 128 
Q 6528 97 6522 84 
L 2950 -7366 
Q 2925 -7425 2853 -7425 
L 2713 -7425 
z
" transform="scale(0.015625)"/>
      <path id="Cmr10-35" d="M 556 728 
Q 622 541 758 387 
Q 894 234 1080 148 
Q 1266 63 1466 63 
Q 1928 63 2103 422 
Q 2278 781 2278 1294 
Q 2278 1516 2270 1667 
Q 2263 1819 2228 1959 
Q 2169 2184 2020 2353 
Q 1872 2522 1656 2522 
Q 1441 2522 1286 2456 
Q 1131 2391 1034 2303 
Q 938 2216 863 2119 
Q 788 2022 769 2016 
L 697 2016 
Q 681 2016 657 2036 
Q 634 2056 634 2075 
L 634 4213 
Q 634 4228 654 4245 
Q 675 4263 697 4263 
L 716 4263 
Q 1147 4056 1631 4056 
Q 2106 4056 2547 4263 
L 2566 4263 
Q 2588 4263 2606 4247 
Q 2625 4231 2625 4213 
L 2625 4153 
Q 2625 4122 2613 4122 
Q 2394 3831 2064 3668 
Q 1734 3506 1381 3506 
Q 1125 3506 856 3578 
L 856 2369 
Q 1069 2541 1236 2614 
Q 1403 2688 1663 2688 
Q 2016 2688 2295 2484 
Q 2575 2281 2725 1954 
Q 2875 1628 2875 1288 
Q 2875 903 2686 575 
Q 2497 247 2172 53 
Q 1847 -141 1466 -141 
Q 1150 -141 886 21 
Q 622 184 470 459 
Q 319 734 319 1044 
Q 319 1188 412 1278 
Q 506 1369 647 1369 
Q 788 1369 883 1276 
Q 978 1184 978 1044 
Q 978 906 883 811 
Q 788 716 647 716 
Q 625 716 597 720 
Q 569 725 556 728 
z
" transform="scale(0.015625)"/>
      <path id="Cmsy10-63" d="M 250 -1600 
Q 200 -1600 167 -1562 
Q 134 -1525 134 -1472 
Q 134 -1425 167 -1384 
Q 200 -1344 250 -1344 
L 1466 -1344 
L 1466 4684 
Q 1466 4734 1503 4767 
Q 1541 4800 1594 4800 
Q 1641 4800 1681 4767 
Q 1722 4734 1722 4684 
L 1722 -1484 
Q 1722 -1528 1683 -1564 
Q 1644 -1600 1606 -1600 
L 250 -1600 
z
" transform="scale(0.015625)"/>
      <path id="DejaVuSerif-2e" d="M 603 325 
Q 603 500 722 622 
Q 841 744 1019 744 
Q 1191 744 1312 622 
Q 1434 500 1434 325 
Q 1434 153 1312 31 
Q 1191 -91 1019 -91 
Q 841 -91 722 29 
Q 603 150 603 325 
z
" transform="scale(0.015625)"/>
      <path id="DejaVuSerif-49" d="M 1581 331 
L 2175 331 
L 2175 0 
L 353 0 
L 353 331 
L 947 331 
L 947 4331 
L 353 4331 
L 353 4666 
L 2175 4666 
L 2175 4331 
L 1581 4331 
L 1581 331 
z
" transform="scale(0.015625)"/>
      <path id="DejaVuSerif-70" d="M 1313 1825 
L 1313 1497 
Q 1313 897 1542 583 
Q 1772 269 2209 269 
Q 2650 269 2876 622 
Q 3103 975 3103 1663 
Q 3103 2353 2876 2703 
Q 2650 3053 2209 3053 
Q 1772 3053 1542 2737 
Q 1313 2422 1313 1825 
z
M 738 2988 
L 184 2988 
L 184 3322 
L 1313 3322 
L 1313 2803 
Q 1481 3116 1742 3264 
Q 2003 3413 2388 3413 
Q 3000 3413 3387 2928 
Q 3775 2444 3775 1663 
Q 3775 881 3387 395 
Q 3000 -91 2388 -91 
Q 2003 -91 1742 57 
Q 1481 206 1313 519 
L 1313 -997 
L 1856 -997 
L 1856 -1331 
L 184 -1331 
L 184 -997 
L 738 -997 
L 738 2988 
z
" transform="scale(0.015625)"/>
      <path id="DejaVuSerif-69" d="M 622 4353 
Q 622 4497 726 4603 
Q 831 4709 978 4709 
Q 1122 4709 1226 4603 
Q 1331 4497 1331 4353 
Q 1331 4206 1228 4103 
Q 1125 4000 978 4000 
Q 831 4000 726 4103 
Q 622 4206 622 4353 
z
M 1356 331 
L 1900 331 
L 1900 0 
L 231 0 
L 231 331 
L 781 331 
L 781 2988 
L 231 2988 
L 231 3322 
L 1356 3322 
L 1356 331 
z
" transform="scale(0.015625)"/>
      <path id="DejaVuSerif-63" d="M 3291 997 
Q 3169 466 2822 187 
Q 2475 -91 1925 -91 
Q 1200 -91 759 389 
Q 319 869 319 1663 
Q 319 2459 759 2936 
Q 1200 3413 1925 3413 
Q 2241 3413 2553 3339 
Q 2866 3266 3181 3116 
L 3181 2266 
L 2847 2266 
Q 2781 2703 2561 2903 
Q 2341 3103 1931 3103 
Q 1466 3103 1228 2742 
Q 991 2381 991 1663 
Q 991 944 1227 581 
Q 1463 219 1931 219 
Q 2303 219 2525 412 
Q 2747 606 2828 997 
L 3291 997 
z
" transform="scale(0.015625)"/>
      <path id="DejaVuSerif-75" d="M 2266 3322 
L 3341 3322 
L 3341 331 
L 3884 331 
L 3884 0 
L 2766 0 
L 2766 588 
Q 2606 256 2353 82 
Q 2100 -91 1766 -91 
Q 1213 -91 952 223 
Q 691 538 691 1209 
L 691 2988 
L 172 2988 
L 172 3322 
L 1269 3322 
L 1269 1388 
Q 1269 781 1417 556 
Q 1566 331 1947 331 
Q 2347 331 2556 625 
Q 2766 919 2766 1478 
L 2766 2988 
L 2266 2988 
L 2266 3322 
z
" transform="scale(0.015625)"/>
      <path id="Cmr10-32" d="M 319 0 
L 319 172 
Q 319 188 331 206 
L 1325 1306 
Q 1550 1550 1690 1715 
Q 1831 1881 1968 2097 
Q 2106 2313 2186 2536 
Q 2266 2759 2266 3009 
Q 2266 3272 2169 3511 
Q 2072 3750 1880 3894 
Q 1688 4038 1416 4038 
Q 1138 4038 916 3870 
Q 694 3703 603 3438 
Q 628 3444 672 3444 
Q 816 3444 917 3347 
Q 1019 3250 1019 3097 
Q 1019 2950 917 2848 
Q 816 2747 672 2747 
Q 522 2747 420 2851 
Q 319 2956 319 3097 
Q 319 3338 409 3548 
Q 500 3759 670 3923 
Q 841 4088 1055 4175 
Q 1269 4263 1509 4263 
Q 1875 4263 2190 4108 
Q 2506 3953 2690 3670 
Q 2875 3388 2875 3009 
Q 2875 2731 2753 2481 
Q 2631 2231 2440 2026 
Q 2250 1822 1953 1562 
Q 1656 1303 1563 1216 
L 838 519 
L 1453 519 
Q 1906 519 2211 526 
Q 2516 534 2534 550 
Q 2609 631 2688 1141 
L 2875 1141 
L 2694 0 
L 319 0 
z
" transform="scale(0.015625)"/>
      <path id="Cmr10-36" d="M 1600 -141 
Q 1203 -141 937 70 
Q 672 281 526 617 
Q 381 953 325 1322 
Q 269 1691 269 2069 
Q 269 2575 466 3084 
Q 663 3594 1045 3928 
Q 1428 4263 1953 4263 
Q 2172 4263 2361 4180 
Q 2550 4097 2658 3936 
Q 2766 3775 2766 3547 
Q 2766 3416 2677 3327 
Q 2588 3238 2456 3238 
Q 2331 3238 2240 3328 
Q 2150 3419 2150 3547 
Q 2150 3672 2240 3762 
Q 2331 3853 2456 3853 
L 2491 3853 
Q 2409 3969 2261 4023 
Q 2113 4078 1953 4078 
Q 1759 4078 1595 3993 
Q 1431 3909 1300 3765 
Q 1169 3622 1081 3448 
Q 994 3275 945 3053 
Q 897 2831 884 2637 
Q 872 2444 872 2150 
Q 984 2413 1190 2580 
Q 1397 2747 1656 2747 
Q 1941 2747 2175 2631 
Q 2409 2516 2578 2311 
Q 2747 2106 2836 1843 
Q 2925 1581 2925 1313 
Q 2925 938 2758 598 
Q 2591 259 2287 59 
Q 1984 -141 1600 -141 
z
M 1600 63 
Q 1847 63 1997 175 
Q 2147 288 2217 473 
Q 2288 659 2305 848 
Q 2322 1038 2322 1313 
Q 2322 1675 2287 1931 
Q 2253 2188 2100 2383 
Q 1947 2578 1631 2578 
Q 1372 2578 1205 2403 
Q 1038 2228 961 1961 
Q 884 1694 884 1447 
Q 884 1363 891 1319 
Q 891 1309 889 1303 
Q 888 1297 884 1288 
Q 884 1013 940 731 
Q 997 450 1156 256 
Q 1316 63 1600 63 
z
" transform="scale(0.015625)"/>
      <path id="Cmr10-34" d="M 178 1056 
L 178 1281 
L 2156 4231 
Q 2178 4263 2222 4263 
L 2316 4263 
Q 2388 4263 2388 4191 
L 2388 1281 
L 3016 1281 
L 3016 1056 
L 2388 1056 
L 2388 428 
Q 2388 297 2575 261 
Q 2763 225 3009 225 
L 3009 0 
L 1247 0 
L 1247 225 
Q 1494 225 1681 261 
Q 1869 297 1869 428 
L 1869 1056 
L 178 1056 
z
M 391 1281 
L 1906 1281 
L 1906 3547 
L 391 1281 
z
" transform="scale(0.015625)"/>
      <path id="Cmr10-37" d="M 1113 166 
Q 1113 522 1175 862 
Q 1238 1203 1358 1536 
Q 1478 1869 1648 2189 
Q 1819 2509 2022 2791 
L 2606 3603 
L 1875 3603 
Q 738 3603 703 3572 
Q 619 3469 544 2981 
L 359 2981 
L 569 4325 
L 756 4325 
L 756 4306 
Q 756 4191 1147 4156 
Q 1538 4122 1913 4122 
L 3103 4122 
L 3103 3956 
Q 3103 3950 3101 3947 
Q 3100 3944 3097 3938 
L 2216 2700 
Q 1891 2219 1809 1631 
Q 1728 1044 1728 166 
Q 1728 41 1637 -50 
Q 1547 -141 1422 -141 
Q 1294 -141 1203 -50 
Q 1113 41 1113 166 
z
" transform="scale(0.015625)"/>
      <path id="DejaVuSerif-46" d="M 353 0 
L 353 331 
L 947 331 
L 947 4331 
L 353 4331 
L 353 4666 
L 4172 4666 
L 4172 3628 
L 3788 3628 
L 3788 4281 
L 1581 4281 
L 1581 2719 
L 3175 2719 
L 3175 3303 
L 3559 3303 
L 3559 1753 
L 3175 1753 
L 3175 2338 
L 1581 2338 
L 1581 331 
L 2328 331 
L 2328 0 
L 353 0 
z
" transform="scale(0.015625)"/>
      <path id="DejaVuSerif-73" d="M 359 184 
L 359 959 
L 691 959 
Q 703 588 923 403 
Q 1144 219 1575 219 
Q 1963 219 2166 364 
Q 2369 509 2369 788 
Q 2369 1006 2220 1140 
Q 2072 1275 1594 1428 
L 1178 1569 
Q 750 1706 558 1912 
Q 366 2119 366 2438 
Q 366 2894 700 3153 
Q 1034 3413 1625 3413 
Q 1888 3413 2178 3344 
Q 2469 3275 2778 3144 
L 2778 2419 
L 2447 2419 
Q 2434 2741 2221 2922 
Q 2009 3103 1644 3103 
Q 1281 3103 1095 2975 
Q 909 2847 909 2591 
Q 909 2381 1050 2254 
Q 1191 2128 1613 1997 
L 2069 1856 
Q 2541 1709 2748 1489 
Q 2956 1269 2956 922 
Q 2956 450 2595 179 
Q 2234 -91 1600 -91 
Q 1278 -91 972 -22 
Q 666 47 359 184 
z
" transform="scale(0.015625)"/>
      <path id="DejaVuSerif-2d" d="M 281 1959 
L 1881 1959 
L 1881 1472 
L 281 1472 
L 281 1959 
z
" transform="scale(0.015625)"/>
      <path id="DejaVuSerif-6d" d="M 3316 2675 
Q 3481 3041 3739 3227 
Q 3997 3413 4341 3413 
Q 4863 3413 5119 3089 
Q 5375 2766 5375 2113 
L 5375 331 
L 5894 331 
L 5894 0 
L 4300 0 
L 4300 331 
L 4800 331 
L 4800 2047 
Q 4800 2556 4650 2772 
Q 4500 2988 4153 2988 
Q 3769 2988 3567 2697 
Q 3366 2406 3366 1850 
L 3366 331 
L 3866 331 
L 3866 0 
L 2291 0 
L 2291 331 
L 2791 331 
L 2791 2069 
Q 2791 2566 2641 2777 
Q 2491 2988 2144 2988 
Q 1759 2988 1557 2697 
Q 1356 2406 1356 1850 
L 1356 331 
L 1856 331 
L 1856 0 
L 263 0 
L 263 331 
L 781 331 
L 781 2994 
L 231 2994 
L 231 3322 
L 1356 3322 
L 1356 2731 
Q 1516 3063 1762 3238 
Q 2009 3413 2322 3413 
Q 2709 3413 2968 3220 
Q 3228 3028 3316 2675 
z
" transform="scale(0.015625)"/>
      <path id="DejaVuSerif-78" d="M 1863 2028 
L 2559 2988 
L 2113 2988 
L 2113 3322 
L 3391 3322 
L 3391 2988 
L 2950 2988 
L 2059 1759 
L 3097 331 
L 3531 331 
L 3531 0 
L 1997 0 
L 1997 331 
L 2419 331 
L 1697 1325 
L 972 331 
L 1403 331 
L 1403 0 
L 141 0 
L 141 331 
L 581 331 
L 1497 1594 
L 488 2988 
L 78 2988 
L 78 3322 
L 1563 3322 
L 1563 2988 
L 1166 2988 
L 1863 2028 
z
" transform="scale(0.015625)"/>
      <path id="DejaVuSerif-28" d="M 2041 -997 
Q 1281 -656 893 83 
Q 506 822 506 1931 
Q 506 3044 893 3783 
Q 1281 4522 2041 4863 
L 2041 4556 
Q 1559 4225 1350 3623 
Q 1141 3022 1141 1931 
Q 1141 844 1350 242 
Q 1559 -359 2041 -691 
L 2041 -997 
z
" transform="scale(0.015625)"/>
      <path id="Cmmi10-61" d="M 1113 -72 
Q 709 -72 476 233 
Q 244 538 244 953 
Q 244 1363 456 1803 
Q 669 2244 1030 2536 
Q 1391 2828 1806 2828 
Q 1997 2828 2147 2725 
Q 2297 2622 2381 2444 
Q 2453 2700 2663 2700 
Q 2744 2700 2798 2651 
Q 2853 2603 2853 2522 
Q 2853 2503 2851 2493 
Q 2850 2484 2847 2472 
L 2400 684 
Q 2356 494 2356 372 
Q 2356 97 2541 97 
Q 2741 97 2845 351 
Q 2950 606 3022 941 
Q 3034 978 3072 978 
L 3150 978 
Q 3175 978 3190 956 
Q 3206 934 3206 916 
Q 3094 469 2961 198 
Q 2828 -72 2528 -72 
Q 2313 -72 2147 54 
Q 1981 181 1941 391 
Q 1528 -72 1113 -72 
z
M 1119 97 
Q 1350 97 1567 270 
Q 1784 444 1941 678 
Q 1947 684 1947 697 
L 2291 2088 
L 2297 2106 
Q 2259 2334 2132 2498 
Q 2006 2663 1791 2663 
Q 1575 2663 1389 2486 
Q 1203 2309 1075 2069 
Q 950 1813 836 1366 
Q 722 919 722 672 
Q 722 450 817 273 
Q 913 97 1119 97 
z
" transform="scale(0.015625)"/>
      <path id="DejaVuSerif-68" d="M 263 0 
L 263 331 
L 781 331 
L 781 4531 
L 231 4531 
L 231 4863 
L 1356 4863 
L 1356 2731 
Q 1516 3069 1770 3241 
Q 2025 3413 2363 3413 
Q 2913 3413 3172 3097 
Q 3431 2781 3431 2113 
L 3431 331 
L 3944 331 
L 3944 0 
L 2356 0 
L 2356 331 
L 2853 331 
L 2853 1931 
Q 2853 2541 2704 2764 
Q 2556 2988 2175 2988 
Q 1775 2988 1565 2697 
Q 1356 2406 1356 1850 
L 1356 331 
L 1856 331 
L 1856 0 
L 263 0 
z
" transform="scale(0.015625)"/>
      <path id="DejaVuSerif-67" d="M 3359 2988 
L 3359 72 
Q 3359 -644 2965 -1033 
Q 2572 -1422 1844 -1422 
Q 1516 -1422 1216 -1362 
Q 916 -1303 641 -1184 
L 641 -488 
L 941 -488 
Q 997 -813 1206 -963 
Q 1416 -1113 1806 -1113 
Q 2313 -1113 2548 -827 
Q 2784 -541 2784 72 
L 2784 519 
Q 2616 206 2355 57 
Q 2094 -91 1709 -91 
Q 1097 -91 708 395 
Q 319 881 319 1663 
Q 319 2444 706 2928 
Q 1094 3413 1709 3413 
Q 2094 3413 2355 3264 
Q 2616 3116 2784 2803 
L 2784 3322 
L 3909 3322 
L 3909 2988 
L 3359 2988 
z
M 2784 1825 
Q 2784 2422 2554 2737 
Q 2325 3053 1888 3053 
Q 1444 3053 1217 2703 
Q 991 2353 991 1663 
Q 991 975 1217 622 
Q 1444 269 1888 269 
Q 2325 269 2554 583 
Q 2784 897 2784 1497 
L 2784 1825 
z
" transform="scale(0.015625)"/>
      <path id="STIXGeneral-Regular-2266" d="M 3981 1024 
L 365 2771 
L 365 2835 
L 3981 4595 
L 3981 4179 
L 1216 2803 
L 3981 1427 
L 3981 1024 
z
M 3981 -77 
L 365 -77 
L 365 346 
L 3981 346 
L 3981 -77 
z
M 3981 -1350 
L 365 -1350 
L 365 -928 
L 3981 -928 
L 3981 -1350 
z
" transform="scale(0.015625)"/>
      <path id="DejaVuSerif-29" d="M 453 -997 
L 453 -691 
Q 934 -359 1145 242 
Q 1356 844 1356 1931 
Q 1356 3022 1145 3623 
Q 934 4225 453 4556 
L 453 4863 
Q 1216 4522 1603 3783 
Q 1991 3044 1991 1931 
Q 1991 822 1603 83 
Q 1216 -656 453 -997 
z
" transform="scale(0.015625)"/>
     </defs>
     <use xlink:href="#DejaVuSerif-4c" transform="translate(0 0.15625)"/>
     <use xlink:href="#DejaVuSerif-65" transform="translate(66.40625 0.15625)"/>
     <use xlink:href="#DejaVuSerif-74" transform="translate(125.585938 0.15625)"/>
     <use xlink:href="#DejaVuSerif-20" transform="translate(165.771484 0.15625)"/>
     <use xlink:href="#Cmmi10-78" transform="translate(197.558594 0.15625)"/>
     <use xlink:href="#Cmr10-30" transform="translate(254.638672 -16.85) scale(0.7)"/>
     <use xlink:href="#Cmr10-3d" transform="translate(313.574609 0.15625)"/>
     <use xlink:href="#Cmr10-31" transform="translate(408.81875 0.15625)"/>
     <use xlink:href="#DejaVuSerif-20" transform="translate(458.81875 0.15625)"/>
     <use xlink:href="#DejaVuSerif-61" transform="translate(490.605859 0.15625)"/>
     <use xlink:href="#DejaVuSerif-6e" transform="translate(550.225 0.15625)"/>
     <use xlink:href="#DejaVuSerif-64" transform="translate(614.629297 0.15625)"/>
     <use xlink:href="#DejaVuSerif-20" transform="translate(678.642969 0.15625)"/>
     <use xlink:href="#DejaVuSerif-66" transform="translate(710.430078 0.15625)"/>
     <use xlink:href="#DejaVuSerif-6f" transform="translate(747.441797 0.15625)"/>
     <use xlink:href="#DejaVuSerif-72" transform="translate(807.646875 0.15625)"/>
     <use xlink:href="#DejaVuSerif-20" transform="translate(855.449609 0.15625)"/>
     <use xlink:href="#Cmmi10-6e" transform="translate(887.236719 0.15625)"/>
     <use xlink:href="#STIXGeneral-Regular-2267" transform="translate(964.805078 0.15625)"/>
     <use xlink:href="#Cmr10-30" transform="translate(1050.863657 0.15625)"/>
     <use xlink:href="#DejaVuSerif-2c" transform="translate(1100.863657 0.15625)"/>
     <use xlink:href="#DejaVuSerif-20" transform="translate(1132.650766 0.15625)"/>
     <use xlink:href="#DejaVuSerif-6c" transform="translate(1164.437875 0.15625)"/>
     <use xlink:href="#DejaVuSerif-65" transform="translate(1196.420297 0.15625)"/>
     <use xlink:href="#DejaVuSerif-74" transform="translate(1255.599985 0.15625)"/>
     <use xlink:href="#DejaVuSerif-20" transform="translate(1295.785532 0.15625)"/>
     <use xlink:href="#Cmmi10-78" transform="translate(1327.572641 0.15625)"/>
     <use xlink:href="#Cmmi10-6e" transform="translate(1384.652719 -16.85) scale(0.7)"/>
     <use xlink:href="#Cmr10-2b" transform="translate(1438.950571 -16.85) scale(0.7)"/>
     <use xlink:href="#Cmr10-31" transform="translate(1505.621469 -16.85) scale(0.7)"/>
     <use xlink:href="#Cmr10-3d" transform="translate(1564.557407 0.15625)"/>
     <use xlink:href="#Cmr10-33" transform="translate(1659.801547 0.15625)"/>
     <use xlink:href="#Cmmi10-78" transform="translate(1709.801547 0.15625)"/>
     <use xlink:href="#Cmmi10-6e" transform="translate(1766.881625 -16.85) scale(0.7)"/>
     <use xlink:href="#Cmr10-2b" transform="translate(1832.824399 0.15625)"/>
     <use xlink:href="#Cmsy10-62" transform="translate(1928.068539 0.15625)"/>
     <use xlink:href="#Cmmi10-78" transform="translate(1972.453305 0.15625)"/>
     <use xlink:href="#Cmmi10-6e" transform="translate(2029.533383 -16.85) scale(0.7)"/>
     <use xlink:href="#Cmex10-70" transform="translate(2077.917563 94.65625) scale(0.833746)"/>
     <use xlink:href="#Cmr10-35" transform="translate(2173.776938 0.140625)"/>
     <use xlink:href="#Cmsy10-63" transform="translate(2236.276938 0.15625)"/>
     <use xlink:href="#DejaVuSerif-2e" transform="translate(2280.661703 0.15625)"/>
     <use xlink:href="#DejaVuSerif-20" transform="translate(2312.448813 0.15625)"/>
     <use xlink:href="#DejaVuSerif-49" transform="translate(2344.235922 0.15625)"/>
     <use xlink:href="#DejaVuSerif-6e" transform="translate(2383.737875 0.15625)"/>
     <use xlink:href="#DejaVuSerif-20" transform="translate(2448.142172 0.15625)"/>
     <use xlink:href="#DejaVuSerif-70" transform="translate(2479.929282 0.15625)"/>
     <use xlink:href="#DejaVuSerif-61" transform="translate(2543.942953 0.15625)"/>
     <use xlink:href="#DejaVuSerif-72" transform="translate(2603.562094 0.15625)"/>
     <use xlink:href="#DejaVuSerif-74" transform="translate(2651.364828 0.15625)"/>
     <use xlink:href="#DejaVuSerif-69" transform="translate(2691.550375 0.15625)"/>
     <use xlink:href="#DejaVuSerif-63" transform="translate(2723.532797 0.15625)"/>
     <use xlink:href="#DejaVuSerif-75" transform="translate(2779.538657 0.15625)"/>
     <use xlink:href="#DejaVuSerif-6c" transform="translate(2843.942953 0.15625)"/>
     <use xlink:href="#DejaVuSerif-61" transform="translate(2875.925375 0.15625)"/>
     <use xlink:href="#DejaVuSerif-72" transform="translate(2935.544516 0.15625)"/>
     <use xlink:href="#DejaVuSerif-2c" transform="translate(2983.34725 0.15625)"/>
     <use xlink:href="#DejaVuSerif-20" transform="translate(3015.13436 0.15625)"/>
     <use xlink:href="#Cmmi10-78" transform="translate(3046.921469 0.15625)"/>
     <use xlink:href="#Cmr10-31" transform="translate(3104.001547 -16.85) scale(0.7)"/>
     <use xlink:href="#Cmr10-3d" transform="translate(3162.937485 0.15625)"/>
     <use xlink:href="#Cmr10-35" transform="translate(3258.181625 0.15625)"/>
     <use xlink:href="#DejaVuSerif-2c" transform="translate(3308.181625 0.15625)"/>
     <use xlink:href="#DejaVuSerif-20" transform="translate(3339.968735 0.15625)"/>
     <use xlink:href="#Cmmi10-78" transform="translate(3371.755844 0.15625)"/>
     <use xlink:href="#Cmr10-32" transform="translate(3428.835922 -16.85) scale(0.7)"/>
     <use xlink:href="#Cmr10-3d" transform="translate(3487.77186 0.15625)"/>
     <use xlink:href="#Cmr10-32" transform="translate(3583.016 0.15625)"/>
     <use xlink:href="#Cmr10-36" transform="translate(3633.016 0.15625)"/>
     <use xlink:href="#DejaVuSerif-2c" transform="translate(3683.016 0.15625)"/>
     <use xlink:href="#DejaVuSerif-20" transform="translate(3714.80311 0.15625)"/>
     <use xlink:href="#Cmmi10-78" transform="translate(3746.590219 0.15625)"/>
     <use xlink:href="#Cmr10-33" transform="translate(3803.670297 -16.85) scale(0.7)"/>
     <use xlink:href="#Cmr10-3d" transform="translate(3862.606235 0.15625)"/>
     <use xlink:href="#Cmr10-31" transform="translate(3957.850375 0.15625)"/>
     <use xlink:href="#Cmr10-33" transform="translate(4007.850375 0.15625)"/>
     <use xlink:href="#Cmr10-36" transform="translate(4057.850375 0.15625)"/>
     <use xlink:href="#DejaVuSerif-2c" transform="translate(4107.850375 0.15625)"/>
     <use xlink:href="#DejaVuSerif-20" transform="translate(4139.637485 0.15625)"/>
     <use xlink:href="#Cmmi10-78" transform="translate(4171.424594 0.15625)"/>
     <use xlink:href="#Cmr10-34" transform="translate(4228.504672 -16.85) scale(0.7)"/>
     <use xlink:href="#Cmr10-3d" transform="translate(4287.44061 0.15625)"/>
     <use xlink:href="#Cmr10-37" transform="translate(4382.68475 0.15625)"/>
     <use xlink:href="#Cmr10-31" transform="translate(4432.68475 0.15625)"/>
     <use xlink:href="#Cmr10-32" transform="translate(4482.68475 0.15625)"/>
     <use xlink:href="#DejaVuSerif-2e" transform="translate(4532.68475 0.15625)"/>
     <use xlink:href="#DejaVuSerif-20" transform="translate(4564.47186 0.15625)"/>
     <use xlink:href="#DejaVuSerif-46" transform="translate(4596.258969 0.15625)"/>
     <use xlink:href="#DejaVuSerif-69" transform="translate(4665.643735 0.15625)"/>
     <use xlink:href="#DejaVuSerif-6e" transform="translate(4697.626157 0.15625)"/>
     <use xlink:href="#DejaVuSerif-64" transform="translate(4762.030453 0.15625)"/>
     <use xlink:href="#DejaVuSerif-20" transform="translate(4826.044125 0.15625)"/>
     <use xlink:href="#DejaVuSerif-61" transform="translate(4857.831235 0.15625)"/>
     <use xlink:href="#DejaVuSerif-20" transform="translate(4917.450375 0.15625)"/>
     <use xlink:href="#DejaVuSerif-63" transform="translate(4949.237485 0.15625)"/>
     <use xlink:href="#DejaVuSerif-6c" transform="translate(5005.243344 0.15625)"/>
     <use xlink:href="#DejaVuSerif-6f" transform="translate(5037.225766 0.15625)"/>
     <use xlink:href="#DejaVuSerif-73" transform="translate(5097.430844 0.15625)"/>
     <use xlink:href="#DejaVuSerif-65" transform="translate(5148.749203 0.15625)"/>
     <use xlink:href="#DejaVuSerif-64" transform="translate(5207.928891 0.15625)"/>
     <use xlink:href="#DejaVuSerif-2d" transform="translate(5271.942563 0.15625)"/>
     <use xlink:href="#DejaVuSerif-66" transform="translate(5305.731625 0.15625)"/>
     <use xlink:href="#DejaVuSerif-6f" transform="translate(5342.743344 0.15625)"/>
     <use xlink:href="#DejaVuSerif-72" transform="translate(5402.948422 0.15625)"/>
     <use xlink:href="#DejaVuSerif-6d" transform="translate(5450.751157 0.15625)"/>
     <use xlink:href="#DejaVuSerif-20" transform="translate(5545.575375 0.15625)"/>
     <use xlink:href="#DejaVuSerif-65" transform="translate(5577.362485 0.15625)"/>
     <use xlink:href="#DejaVuSerif-78" transform="translate(5636.542172 0.15625)"/>
     <use xlink:href="#DejaVuSerif-70" transform="translate(5692.938657 0.15625)"/>
     <use xlink:href="#DejaVuSerif-72" transform="translate(5756.952328 0.15625)"/>
     <use xlink:href="#DejaVuSerif-65" transform="translate(5804.755063 0.15625)"/>
     <use xlink:href="#DejaVuSerif-73" transform="translate(5863.93475 0.15625)"/>
     <use xlink:href="#DejaVuSerif-73" transform="translate(5915.25311 0.15625)"/>
     <use xlink:href="#DejaVuSerif-69" transform="translate(5966.571469 0.15625)"/>
     <use xlink:href="#DejaVuSerif-6f" transform="translate(5998.553891 0.15625)"/>
     <use xlink:href="#DejaVuSerif-6e" transform="translate(6058.758969 0.15625)"/>
     <use xlink:href="#DejaVuSerif-20" transform="translate(6123.163266 0.15625)"/>
     <use xlink:href="#DejaVuSerif-66" transform="translate(6154.950375 0.15625)"/>
     <use xlink:href="#DejaVuSerif-6f" transform="translate(6191.962094 0.15625)"/>
     <use xlink:href="#DejaVuSerif-72" transform="translate(6252.167172 0.15625)"/>
     <use xlink:href="#DejaVuSerif-20" transform="translate(6299.969907 0.15625)"/>
     <use xlink:href="#Cmmi10-78" transform="translate(6331.757016 0.15625)"/>
     <use xlink:href="#Cmr10-32" transform="translate(6388.837094 -16.85) scale(0.7)"/>
     <use xlink:href="#Cmr10-30" transform="translate(6423.837094 -16.85) scale(0.7)"/>
     <use xlink:href="#Cmr10-30" transform="translate(6458.837094 -16.85) scale(0.7)"/>
     <use xlink:href="#Cmr10-37" transform="translate(6493.837094 -16.85) scale(0.7)"/>
     <use xlink:href="#DejaVuSerif-2e" transform="translate(6535.214438 0.15625)"/>
     <use xlink:href="#DejaVuSerif-20" transform="translate(6567.001547 0.15625)"/>
     <use xlink:href="#DejaVuSerif-28" transform="translate(6598.788657 0.15625)"/>
     <use xlink:href="#Cmsy10-62" transform="translate(6637.802328 0.15625)"/>
     <use xlink:href="#Cmmi10-61" transform="translate(6682.187094 0.15625)"/>
     <use xlink:href="#Cmsy10-63" transform="translate(6734.970297 0.15625)"/>
     <use xlink:href="#DejaVuSerif-20" transform="translate(6779.355063 0.15625)"/>
     <use xlink:href="#DejaVuSerif-6d" transform="translate(6811.142172 0.15625)"/>
     <use xlink:href="#DejaVuSerif-65" transform="translate(6905.966391 0.15625)"/>
     <use xlink:href="#DejaVuSerif-61" transform="translate(6965.146078 0.15625)"/>
     <use xlink:href="#DejaVuSerif-6e" transform="translate(7024.765219 0.15625)"/>
     <use xlink:href="#DejaVuSerif-73" transform="translate(7089.169516 0.15625)"/>
     <use xlink:href="#DejaVuSerif-20" transform="translate(7140.487875 0.15625)"/>
     <use xlink:href="#DejaVuSerif-74" transform="translate(7172.274985 0.15625)"/>
     <use xlink:href="#DejaVuSerif-68" transform="translate(7212.460532 0.15625)"/>
     <use xlink:href="#DejaVuSerif-65" transform="translate(7276.864828 0.15625)"/>
     <use xlink:href="#DejaVuSerif-20" transform="translate(7336.044516 0.15625)"/>
     <use xlink:href="#DejaVuSerif-6c" transform="translate(7367.831625 0.15625)"/>
     <use xlink:href="#DejaVuSerif-61" transform="translate(7399.814047 0.15625)"/>
     <use xlink:href="#DejaVuSerif-72" transform="translate(7459.433188 0.15625)"/>
     <use xlink:href="#DejaVuSerif-67" transform="translate(7507.235922 0.15625)"/>
     <use xlink:href="#DejaVuSerif-65" transform="translate(7571.249594 0.15625)"/>
     <use xlink:href="#DejaVuSerif-73" transform="translate(7630.429282 0.15625)"/>
     <use xlink:href="#DejaVuSerif-74" transform="translate(7681.747641 0.15625)"/>
     <use xlink:href="#DejaVuSerif-20" transform="translate(7721.933188 0.15625)"/>
     <use xlink:href="#DejaVuSerif-69" transform="translate(7753.720297 0.15625)"/>
     <use xlink:href="#DejaVuSerif-6e" transform="translate(7785.702719 0.15625)"/>
     <use xlink:href="#DejaVuSerif-74" transform="translate(7850.107016 0.15625)"/>
     <use xlink:href="#DejaVuSerif-65" transform="translate(7890.292563 0.15625)"/>
     <use xlink:href="#DejaVuSerif-67" transform="translate(7949.47225 0.15625)"/>
     <use xlink:href="#DejaVuSerif-65" transform="translate(8013.485922 0.15625)"/>
     <use xlink:href="#DejaVuSerif-72" transform="translate(8072.66561 0.15625)"/>
     <use xlink:href="#DejaVuSerif-20" transform="translate(8120.468344 0.15625)"/>
     <use xlink:href="#STIXGeneral-Regular-2266" transform="translate(8169.814047 0.15625)"/>
     <use xlink:href="#Cmmi10-61" transform="translate(8255.872626 0.15625)"/>
     <use xlink:href="#DejaVuSerif-2e" transform="translate(8308.655829 0.15625)"/>
     <use xlink:href="#DejaVuSerif-29" transform="translate(8340.442938 0.15625)"/>
     <path d="M 2161.276938 91.5 
L 2161.276938 97.75 
L 2236.276938 97.75 
L 2236.276938 91.5 
L 2161.276938 91.5 
z
"/>
    </g>
   </g>
  </g>
 </g>
</svg>
