<?xml version="1.0" encoding="utf-8" standalone="no"?>
<!DOCTYPE svg PUBLIC "-//W3C//DTD SVG 1.1//EN"
  "http://www.w3.org/Graphics/SVG/1.1/DTD/svg11.dtd">
<svg xmlns:xlink="http://www.w3.org/1999/xlink" width="784.68pt" height="228.4pt" viewBox="0 0 784.68 228.4" xmlns="http://www.w3.org/2000/svg" version="1.1">
 <metadata>
  <rdf:RDF xmlns:dc="http://purl.org/dc/elements/1.1/" xmlns:cc="http://creativecommons.org/ns#" xmlns:rdf="http://www.w3.org/1999/02/22-rdf-syntax-ns#">
   <cc:Work>
    <dc:type rdf:resource="http://purl.org/dc/dcmitype/StillImage"/>
    <dc:date>2025-05-29T18:43:55.709596</dc:date>
    <dc:format>image/svg+xml</dc:format>
    <dc:creator>
     <cc:Agent>
      <dc:title>Matplotlib v3.10.3, https://matplotlib.org/</dc:title>
     </cc:Agent>
    </dc:creator>
   </cc:Work>
  </rdf:RDF>
 </metadata>
 <defs>
  <style type="text/css">*{stroke-linejoin: round; stroke-linecap: butt}</style>
 </defs>
 <g id="figure_1">
  <g id="patch_1">
   <path d="M 0 228.4 
L 784.68 228.4 
L 784.68 0 
L 0 0 
z
" style="fill: #ffffff"/>
  </g>
  <g id="axes_1">
   <g id="text_1">
    <!-- Let $R$ be the region consisting of the points $(x,y)$ of the cartesian plane satisfying both $|x|-|y| \leqq 1$ and $|y| \leqq 1$. Find the area of $R$. -->
    <g transform="translate(7.2 117.26) scale(0.12 -0.12)">
     <defs>
      <path id="DejaVuSerif-4c" d="M 353 0 
L 353 331 
L 947 331 
L 947 4331 
L 353 4331 
L 353 4666 
L 2175 4666 
L 2175 4331 
L 1581 4331 
L 1581 384 
L 3713 384 
L 3713 1166 
L 4097 1166 
L 4097 0 
L 353 0 
z
" transform="scale(0.015625)"/>
      <path id="DejaVuSerif-65" d="M 3469 1600 
L 991 1600 
L 991 1575 
Q 991 903 1244 561 
Q 1497 219 1991 219 
Q 2369 219 2611 417 
Q 2853 616 2950 1006 
L 3413 1006 
Q 3275 459 2904 184 
Q 2534 -91 1931 -91 
Q 1203 -91 761 389 
Q 319 869 319 1663 
Q 319 2450 753 2931 
Q 1188 3413 1894 3413 
Q 2647 3413 3050 2948 
Q 3453 2484 3469 1600 
z
M 2791 1931 
Q 2772 2513 2545 2808 
Q 2319 3103 1894 3103 
Q 1497 3103 1269 2806 
Q 1041 2509 991 1931 
L 2791 1931 
z
" transform="scale(0.015625)"/>
      <path id="DejaVuSerif-74" d="M 691 2988 
L 184 2988 
L 184 3322 
L 691 3322 
L 691 4353 
L 1269 4353 
L 1269 3322 
L 2350 3322 
L 2350 2988 
L 1269 2988 
L 1269 878 
Q 1269 456 1350 337 
Q 1431 219 1650 219 
Q 1875 219 1978 351 
Q 2081 484 2088 781 
L 2522 781 
Q 2497 328 2275 118 
Q 2053 -91 1600 -91 
Q 1103 -91 897 129 
Q 691 350 691 878 
L 691 2988 
z
" transform="scale(0.015625)"/>
      <path id="DejaVuSerif-20" transform="scale(0.015625)"/>
      <path id="Cmmi10-52" d="M 313 0 
Q 250 0 250 84 
Q 253 100 262 139 
Q 272 178 289 201 
Q 306 225 331 225 
Q 722 225 878 269 
Q 959 297 997 441 
L 1875 3956 
Q 1888 4019 1888 4044 
Q 1888 4113 1813 4122 
Q 1691 4147 1350 4147 
Q 1288 4147 1288 4231 
Q 1291 4247 1300 4286 
Q 1309 4325 1326 4348 
Q 1344 4372 1369 4372 
L 3309 4372 
Q 3541 4372 3791 4319 
Q 4041 4266 4250 4152 
Q 4459 4038 4593 3848 
Q 4728 3659 4728 3406 
Q 4728 3084 4515 2831 
Q 4303 2578 3978 2408 
Q 3653 2238 3347 2169 
Q 3597 2078 3756 1879 
Q 3916 1681 3916 1422 
Q 3916 1388 3914 1370 
Q 3913 1353 3909 1331 
L 3859 763 
Q 3853 638 3847 550 
Q 3841 463 3841 409 
Q 3841 234 3892 129 
Q 3944 25 4097 25 
Q 4297 25 4448 211 
Q 4600 397 4647 616 
Q 4675 672 4709 672 
L 4769 672 
Q 4831 672 4831 588 
Q 4784 403 4682 237 
Q 4581 72 4426 -34 
Q 4272 -141 4091 -141 
Q 3716 -141 3452 26 
Q 3188 194 3188 550 
Q 3188 684 3213 788 
L 3353 1356 
Q 3378 1434 3378 1538 
Q 3378 1803 3198 1954 
Q 3019 2106 2747 2106 
L 1959 2106 
L 1538 416 
Q 1522 363 1522 325 
Q 1522 259 1600 250 
Q 1722 225 2059 225 
Q 2125 225 2125 141 
Q 2103 50 2090 25 
Q 2078 0 2016 0 
L 313 0 
z
M 1997 2272 
L 2706 2272 
Q 3403 2272 3756 2625 
Q 3919 2788 4014 3039 
Q 4109 3291 4109 3541 
Q 4109 3778 3970 3912 
Q 3831 4047 3626 4097 
Q 3422 4147 3175 4147 
L 2747 4147 
Q 2572 4147 2515 4117 
Q 2459 4088 2413 3928 
L 1997 2272 
z
" transform="scale(0.015625)"/>
      <path id="DejaVuSerif-62" d="M 738 331 
L 738 4531 
L 184 4531 
L 184 4863 
L 1313 4863 
L 1313 2803 
Q 1481 3116 1742 3264 
Q 2003 3413 2388 3413 
Q 3000 3413 3387 2928 
Q 3775 2444 3775 1663 
Q 3775 881 3387 395 
Q 3000 -91 2388 -91 
Q 2003 -91 1742 57 
Q 1481 206 1313 519 
L 1313 0 
L 184 0 
L 184 331 
L 738 331 
z
M 1313 1497 
Q 1313 897 1542 583 
Q 1772 269 2209 269 
Q 2650 269 2876 622 
Q 3103 975 3103 1663 
Q 3103 2353 2876 2703 
Q 2650 3053 2209 3053 
Q 1772 3053 1542 2737 
Q 1313 2422 1313 1825 
L 1313 1497 
z
" transform="scale(0.015625)"/>
      <path id="DejaVuSerif-68" d="M 263 0 
L 263 331 
L 781 331 
L 781 4531 
L 231 4531 
L 231 4863 
L 1356 4863 
L 1356 2731 
Q 1516 3069 1770 3241 
Q 2025 3413 2363 3413 
Q 2913 3413 3172 3097 
Q 3431 2781 3431 2113 
L 3431 331 
L 3944 331 
L 3944 0 
L 2356 0 
L 2356 331 
L 2853 331 
L 2853 1931 
Q 2853 2541 2704 2764 
Q 2556 2988 2175 2988 
Q 1775 2988 1565 2697 
Q 1356 2406 1356 1850 
L 1356 331 
L 1856 331 
L 1856 0 
L 263 0 
z
" transform="scale(0.015625)"/>
      <path id="DejaVuSerif-72" d="M 3059 3328 
L 3059 2497 
L 2728 2497 
Q 2713 2744 2591 2866 
Q 2469 2988 2234 2988 
Q 1809 2988 1582 2694 
Q 1356 2400 1356 1850 
L 1356 331 
L 2022 331 
L 2022 0 
L 263 0 
L 263 331 
L 781 331 
L 781 2994 
L 231 2994 
L 231 3322 
L 1356 3322 
L 1356 2731 
Q 1525 3078 1790 3245 
Q 2056 3413 2438 3413 
Q 2578 3413 2733 3391 
Q 2888 3369 3059 3328 
z
" transform="scale(0.015625)"/>
      <path id="DejaVuSerif-67" d="M 3359 2988 
L 3359 72 
Q 3359 -644 2965 -1033 
Q 2572 -1422 1844 -1422 
Q 1516 -1422 1216 -1362 
Q 916 -1303 641 -1184 
L 641 -488 
L 941 -488 
Q 997 -813 1206 -963 
Q 1416 -1113 1806 -1113 
Q 2313 -1113 2548 -827 
Q 2784 -541 2784 72 
L 2784 519 
Q 2616 206 2355 57 
Q 2094 -91 1709 -91 
Q 1097 -91 708 395 
Q 319 881 319 1663 
Q 319 2444 706 2928 
Q 1094 3413 1709 3413 
Q 2094 3413 2355 3264 
Q 2616 3116 2784 2803 
L 2784 3322 
L 3909 3322 
L 3909 2988 
L 3359 2988 
z
M 2784 1825 
Q 2784 2422 2554 2737 
Q 2325 3053 1888 3053 
Q 1444 3053 1217 2703 
Q 991 2353 991 1663 
Q 991 975 1217 622 
Q 1444 269 1888 269 
Q 2325 269 2554 583 
Q 2784 897 2784 1497 
L 2784 1825 
z
" transform="scale(0.015625)"/>
      <path id="DejaVuSerif-69" d="M 622 4353 
Q 622 4497 726 4603 
Q 831 4709 978 4709 
Q 1122 4709 1226 4603 
Q 1331 4497 1331 4353 
Q 1331 4206 1228 4103 
Q 1125 4000 978 4000 
Q 831 4000 726 4103 
Q 622 4206 622 4353 
z
M 1356 331 
L 1900 331 
L 1900 0 
L 231 0 
L 231 331 
L 781 331 
L 781 2988 
L 231 2988 
L 231 3322 
L 1356 3322 
L 1356 331 
z
" transform="scale(0.015625)"/>
      <path id="DejaVuSerif-6f" d="M 1925 219 
Q 2388 219 2623 584 
Q 2859 950 2859 1663 
Q 2859 2375 2623 2739 
Q 2388 3103 1925 3103 
Q 1463 3103 1227 2739 
Q 991 2375 991 1663 
Q 991 950 1228 584 
Q 1466 219 1925 219 
z
M 1925 -91 
Q 1200 -91 759 389 
Q 319 869 319 1663 
Q 319 2456 758 2934 
Q 1197 3413 1925 3413 
Q 2653 3413 3092 2934 
Q 3531 2456 3531 1663 
Q 3531 869 3092 389 
Q 2653 -91 1925 -91 
z
" transform="scale(0.015625)"/>
      <path id="DejaVuSerif-6e" d="M 263 0 
L 263 331 
L 781 331 
L 781 2988 
L 231 2988 
L 231 3322 
L 1356 3322 
L 1356 2731 
Q 1516 3069 1770 3241 
Q 2025 3413 2363 3413 
Q 2913 3413 3172 3097 
Q 3431 2781 3431 2113 
L 3431 331 
L 3944 331 
L 3944 0 
L 2356 0 
L 2356 331 
L 2853 331 
L 2853 1931 
Q 2853 2541 2703 2767 
Q 2553 2994 2175 2994 
Q 1775 2994 1565 2701 
Q 1356 2409 1356 1850 
L 1356 331 
L 1856 331 
L 1856 0 
L 263 0 
z
" transform="scale(0.015625)"/>
      <path id="DejaVuSerif-63" d="M 3291 997 
Q 3169 466 2822 187 
Q 2475 -91 1925 -91 
Q 1200 -91 759 389 
Q 319 869 319 1663 
Q 319 2459 759 2936 
Q 1200 3413 1925 3413 
Q 2241 3413 2553 3339 
Q 2866 3266 3181 3116 
L 3181 2266 
L 2847 2266 
Q 2781 2703 2561 2903 
Q 2341 3103 1931 3103 
Q 1466 3103 1228 2742 
Q 991 2381 991 1663 
Q 991 944 1227 581 
Q 1463 219 1931 219 
Q 2303 219 2525 412 
Q 2747 606 2828 997 
L 3291 997 
z
" transform="scale(0.015625)"/>
      <path id="DejaVuSerif-73" d="M 359 184 
L 359 959 
L 691 959 
Q 703 588 923 403 
Q 1144 219 1575 219 
Q 1963 219 2166 364 
Q 2369 509 2369 788 
Q 2369 1006 2220 1140 
Q 2072 1275 1594 1428 
L 1178 1569 
Q 750 1706 558 1912 
Q 366 2119 366 2438 
Q 366 2894 700 3153 
Q 1034 3413 1625 3413 
Q 1888 3413 2178 3344 
Q 2469 3275 2778 3144 
L 2778 2419 
L 2447 2419 
Q 2434 2741 2221 2922 
Q 2009 3103 1644 3103 
Q 1281 3103 1095 2975 
Q 909 2847 909 2591 
Q 909 2381 1050 2254 
Q 1191 2128 1613 1997 
L 2069 1856 
Q 2541 1709 2748 1489 
Q 2956 1269 2956 922 
Q 2956 450 2595 179 
Q 2234 -91 1600 -91 
Q 1278 -91 972 -22 
Q 666 47 359 184 
z
" transform="scale(0.015625)"/>
      <path id="DejaVuSerif-66" d="M 2753 4078 
L 2450 4078 
Q 2447 4313 2317 4434 
Q 2188 4556 1941 4556 
Q 1619 4556 1487 4379 
Q 1356 4203 1356 3750 
L 1356 3322 
L 2284 3322 
L 2284 2988 
L 1356 2988 
L 1356 331 
L 2094 331 
L 2094 0 
L 231 0 
L 231 331 
L 781 331 
L 781 2988 
L 231 2988 
L 231 3322 
L 781 3322 
L 781 3738 
Q 781 4294 1070 4578 
Q 1359 4863 1919 4863 
Q 2128 4863 2337 4825 
Q 2547 4788 2753 4709 
L 2753 4078 
z
" transform="scale(0.015625)"/>
      <path id="DejaVuSerif-70" d="M 1313 1825 
L 1313 1497 
Q 1313 897 1542 583 
Q 1772 269 2209 269 
Q 2650 269 2876 622 
Q 3103 975 3103 1663 
Q 3103 2353 2876 2703 
Q 2650 3053 2209 3053 
Q 1772 3053 1542 2737 
Q 1313 2422 1313 1825 
z
M 738 2988 
L 184 2988 
L 184 3322 
L 1313 3322 
L 1313 2803 
Q 1481 3116 1742 3264 
Q 2003 3413 2388 3413 
Q 3000 3413 3387 2928 
Q 3775 2444 3775 1663 
Q 3775 881 3387 395 
Q 3000 -91 2388 -91 
Q 2003 -91 1742 57 
Q 1481 206 1313 519 
L 1313 -997 
L 1856 -997 
L 1856 -1331 
L 184 -1331 
L 184 -997 
L 738 -997 
L 738 2988 
z
" transform="scale(0.015625)"/>
      <path id="Cmr10-28" d="M 1984 -1588 
Q 1628 -1306 1370 -942 
Q 1113 -578 948 -165 
Q 784 247 703 697 
Q 622 1147 622 1600 
Q 622 2059 703 2509 
Q 784 2959 951 3375 
Q 1119 3791 1378 4153 
Q 1638 4516 1984 4788 
Q 1984 4800 2016 4800 
L 2075 4800 
Q 2094 4800 2109 4783 
Q 2125 4766 2125 4744 
Q 2125 4716 2113 4703 
Q 1800 4397 1592 4047 
Q 1384 3697 1257 3301 
Q 1131 2906 1075 2482 
Q 1019 2059 1019 1600 
Q 1019 -434 2106 -1491 
Q 2125 -1509 2125 -1544 
Q 2125 -1559 2108 -1579 
Q 2091 -1600 2075 -1600 
L 2016 -1600 
Q 1984 -1600 1984 -1588 
z
" transform="scale(0.015625)"/>
      <path id="Cmmi10-78" d="M 500 184 
Q 613 97 819 97 
Q 1019 97 1172 289 
Q 1325 481 1381 709 
L 1672 1844 
Q 1741 2153 1741 2266 
Q 1741 2425 1652 2544 
Q 1563 2663 1403 2663 
Q 1200 2663 1022 2536 
Q 844 2409 722 2214 
Q 600 2019 550 1819 
Q 538 1778 500 1778 
L 422 1778 
Q 372 1778 372 1838 
L 372 1856 
Q 434 2094 584 2320 
Q 734 2547 951 2687 
Q 1169 2828 1416 2828 
Q 1650 2828 1839 2703 
Q 2028 2578 2106 2363 
Q 2216 2559 2386 2693 
Q 2556 2828 2759 2828 
Q 2897 2828 3040 2779 
Q 3184 2731 3275 2631 
Q 3366 2531 3366 2381 
Q 3366 2219 3261 2101 
Q 3156 1984 2994 1984 
Q 2891 1984 2822 2050 
Q 2753 2116 2753 2216 
Q 2753 2350 2845 2451 
Q 2938 2553 3066 2572 
Q 2950 2663 2747 2663 
Q 2541 2663 2389 2472 
Q 2238 2281 2175 2047 
L 1894 916 
Q 1825 659 1825 494 
Q 1825 331 1917 214 
Q 2009 97 2163 97 
Q 2463 97 2698 361 
Q 2934 625 3009 941 
Q 3022 978 3059 978 
L 3138 978 
Q 3163 978 3178 961 
Q 3194 944 3194 922 
Q 3194 916 3188 903 
Q 3097 522 2806 225 
Q 2516 -72 2150 -72 
Q 1916 -72 1727 54 
Q 1538 181 1459 397 
Q 1359 209 1182 68 
Q 1006 -72 806 -72 
Q 669 -72 523 -23 
Q 378 25 287 125 
Q 197 225 197 378 
Q 197 528 301 651 
Q 406 775 563 775 
Q 669 775 741 711 
Q 813 647 813 544 
Q 813 409 723 309 
Q 634 209 500 184 
z
" transform="scale(0.015625)"/>
      <path id="Cmmi10-3b" d="M 634 -1153 
Q 634 -1125 659 -1100 
Q 891 -878 1019 -587 
Q 1147 -297 1147 25 
L 1147 103 
Q 1044 0 891 0 
Q 744 0 641 103 
Q 538 206 538 353 
Q 538 503 641 603 
Q 744 703 891 703 
Q 1119 703 1216 492 
Q 1313 281 1313 25 
Q 1313 -331 1170 -651 
Q 1028 -972 769 -1228 
Q 744 -1241 728 -1241 
Q 697 -1241 665 -1212 
Q 634 -1184 634 -1153 
z
" transform="scale(0.015625)"/>
      <path id="Cmmi10-79" d="M 538 -916 
Q 672 -1147 1006 -1147 
Q 1309 -1147 1531 -934 
Q 1753 -722 1889 -420 
Q 2025 -119 2100 197 
Q 1816 -72 1484 -72 
Q 1231 -72 1053 15 
Q 875 103 776 276 
Q 678 450 678 697 
Q 678 906 734 1126 
Q 791 1347 892 1617 
Q 994 1888 1069 2088 
Q 1153 2322 1153 2472 
Q 1153 2663 1013 2663 
Q 759 2663 595 2402 
Q 431 2141 353 1819 
Q 341 1778 300 1778 
L 225 1778 
Q 172 1778 172 1838 
L 172 1856 
Q 275 2238 487 2533 
Q 700 2828 1025 2828 
Q 1253 2828 1411 2678 
Q 1569 2528 1569 2297 
Q 1569 2178 1516 2047 
Q 1488 1969 1388 1706 
Q 1288 1444 1234 1272 
Q 1181 1100 1147 934 
Q 1113 769 1113 603 
Q 1113 391 1203 244 
Q 1294 97 1491 97 
Q 1888 97 2203 581 
L 2688 2553 
Q 2709 2638 2787 2698 
Q 2866 2759 2956 2759 
Q 3034 2759 3092 2709 
Q 3150 2659 3150 2578 
Q 3150 2541 3144 2528 
L 2509 -19 
Q 2425 -347 2200 -647 
Q 1975 -947 1658 -1130 
Q 1341 -1313 997 -1313 
Q 831 -1313 668 -1248 
Q 506 -1184 406 -1056 
Q 306 -928 306 -756 
Q 306 -581 409 -453 
Q 513 -325 684 -325 
Q 788 -325 858 -389 
Q 928 -453 928 -556 
Q 928 -703 818 -812 
Q 709 -922 563 -922 
Q 556 -919 550 -917 
Q 544 -916 538 -916 
z
" transform="scale(0.015625)"/>
      <path id="Cmr10-29" d="M 416 -1600 
Q 359 -1600 359 -1544 
Q 359 -1516 372 -1503 
Q 1466 -434 1466 1600 
Q 1466 3634 384 4691 
Q 359 4706 359 4744 
Q 359 4766 376 4783 
Q 394 4800 416 4800 
L 475 4800 
Q 494 4800 506 4788 
Q 966 4425 1272 3906 
Q 1578 3388 1720 2800 
Q 1863 2213 1863 1600 
Q 1863 1147 1786 708 
Q 1709 269 1542 -157 
Q 1375 -584 1119 -945 
Q 863 -1306 506 -1588 
Q 494 -1600 475 -1600 
L 416 -1600 
z
" transform="scale(0.015625)"/>
      <path id="DejaVuSerif-61" d="M 2547 1044 
L 2547 1747 
L 1806 1747 
Q 1378 1747 1168 1562 
Q 959 1378 959 997 
Q 959 650 1171 447 
Q 1384 244 1747 244 
Q 2106 244 2326 466 
Q 2547 688 2547 1044 
z
M 3122 2075 
L 3122 331 
L 3634 331 
L 3634 0 
L 2547 0 
L 2547 359 
Q 2356 128 2106 18 
Q 1856 -91 1522 -91 
Q 969 -91 644 203 
Q 319 497 319 997 
Q 319 1513 691 1797 
Q 1063 2081 1741 2081 
L 2547 2081 
L 2547 2309 
Q 2547 2688 2317 2895 
Q 2088 3103 1672 3103 
Q 1328 3103 1125 2947 
Q 922 2791 872 2484 
L 575 2484 
L 575 3156 
Q 875 3284 1158 3348 
Q 1441 3413 1709 3413 
Q 2400 3413 2761 3070 
Q 3122 2728 3122 2075 
z
" transform="scale(0.015625)"/>
      <path id="DejaVuSerif-6c" d="M 1313 331 
L 1856 331 
L 1856 0 
L 184 0 
L 184 331 
L 738 331 
L 738 4531 
L 184 4531 
L 184 4863 
L 1313 4863 
L 1313 331 
z
" transform="scale(0.015625)"/>
      <path id="DejaVuSerif-79" d="M 1381 -609 
L 1600 -56 
L 359 2988 
L -19 2988 
L -19 3322 
L 1509 3322 
L 1509 2988 
L 978 2988 
L 1913 703 
L 2847 2988 
L 2350 2988 
L 2350 3322 
L 3597 3322 
L 3597 2988 
L 3225 2988 
L 1703 -750 
Q 1547 -1138 1356 -1280 
Q 1166 -1422 819 -1422 
Q 672 -1422 517 -1397 
Q 363 -1372 206 -1325 
L 206 -691 
L 500 -691 
Q 519 -903 608 -995 
Q 697 -1088 884 -1088 
Q 1056 -1088 1161 -992 
Q 1266 -897 1381 -609 
z
" transform="scale(0.015625)"/>
      <path id="Cmsy10-6a" d="M 763 -1484 
L 763 4684 
Q 763 4734 800 4767 
Q 838 4800 891 4800 
Q 938 4800 978 4767 
Q 1019 4734 1019 4684 
L 1019 -1484 
Q 1019 -1534 978 -1567 
Q 938 -1600 891 -1600 
Q 838 -1600 800 -1567 
Q 763 -1534 763 -1484 
z
" transform="scale(0.015625)"/>
      <path id="Cmsy10-a1" d="M 653 1472 
Q 600 1472 565 1512 
Q 531 1553 531 1600 
Q 531 1647 565 1687 
Q 600 1728 653 1728 
L 4325 1728 
Q 4375 1728 4408 1687 
Q 4441 1647 4441 1600 
Q 4441 1553 4408 1512 
Q 4375 1472 4325 1472 
L 653 1472 
z
" transform="scale(0.015625)"/>
      <path id="STIXGeneral-Regular-2266" d="M 3981 1024 
L 365 2771 
L 365 2835 
L 3981 4595 
L 3981 4179 
L 1216 2803 
L 3981 1427 
L 3981 1024 
z
M 3981 -77 
L 365 -77 
L 365 346 
L 3981 346 
L 3981 -77 
z
M 3981 -1350 
L 365 -1350 
L 365 -928 
L 3981 -928 
L 3981 -1350 
z
" transform="scale(0.015625)"/>
      <path id="Cmr10-31" d="M 594 0 
L 594 225 
Q 1394 225 1394 428 
L 1394 3788 
Q 1063 3628 556 3628 
L 556 3853 
Q 1341 3853 1741 4263 
L 1831 4263 
Q 1853 4263 1873 4245 
Q 1894 4228 1894 4206 
L 1894 428 
Q 1894 225 2694 225 
L 2694 0 
L 594 0 
z
" transform="scale(0.015625)"/>
      <path id="DejaVuSerif-64" d="M 3359 331 
L 3909 331 
L 3909 0 
L 2784 0 
L 2784 519 
Q 2616 206 2355 57 
Q 2094 -91 1709 -91 
Q 1097 -91 708 395 
Q 319 881 319 1663 
Q 319 2444 706 2928 
Q 1094 3413 1709 3413 
Q 2094 3413 2355 3264 
Q 2616 3116 2784 2803 
L 2784 4531 
L 2241 4531 
L 2241 4863 
L 3359 4863 
L 3359 331 
z
M 2784 1497 
L 2784 1825 
Q 2784 2422 2554 2737 
Q 2325 3053 1888 3053 
Q 1444 3053 1217 2703 
Q 991 2353 991 1663 
Q 991 975 1217 622 
Q 1444 269 1888 269 
Q 2325 269 2554 583 
Q 2784 897 2784 1497 
z
" transform="scale(0.015625)"/>
      <path id="DejaVuSerif-2e" d="M 603 325 
Q 603 500 722 622 
Q 841 744 1019 744 
Q 1191 744 1312 622 
Q 1434 500 1434 325 
Q 1434 153 1312 31 
Q 1191 -91 1019 -91 
Q 841 -91 722 29 
Q 603 150 603 325 
z
" transform="scale(0.015625)"/>
      <path id="DejaVuSerif-46" d="M 353 0 
L 353 331 
L 947 331 
L 947 4331 
L 353 4331 
L 353 4666 
L 4172 4666 
L 4172 3628 
L 3788 3628 
L 3788 4281 
L 1581 4281 
L 1581 2719 
L 3175 2719 
L 3175 3303 
L 3559 3303 
L 3559 1753 
L 3175 1753 
L 3175 2338 
L 1581 2338 
L 1581 331 
L 2328 331 
L 2328 0 
L 353 0 
z
" transform="scale(0.015625)"/>
     </defs>
     <use xlink:href="#DejaVuSerif-4c" transform="translate(0 0.015625)"/>
     <use xlink:href="#DejaVuSerif-65" transform="translate(66.40625 0.015625)"/>
     <use xlink:href="#DejaVuSerif-74" transform="translate(125.585938 0.015625)"/>
     <use xlink:href="#DejaVuSerif-20" transform="translate(165.771484 0.015625)"/>
     <use xlink:href="#Cmmi10-52" transform="translate(197.558594 0.015625)"/>
     <use xlink:href="#DejaVuSerif-20" transform="translate(273.4375 0.015625)"/>
     <use xlink:href="#DejaVuSerif-62" transform="translate(305.224609 0.015625)"/>
     <use xlink:href="#DejaVuSerif-65" transform="translate(369.238281 0.015625)"/>
     <use xlink:href="#DejaVuSerif-20" transform="translate(428.417969 0.015625)"/>
     <use xlink:href="#DejaVuSerif-74" transform="translate(460.205078 0.015625)"/>
     <use xlink:href="#DejaVuSerif-68" transform="translate(500.390625 0.015625)"/>
     <use xlink:href="#DejaVuSerif-65" transform="translate(564.794922 0.015625)"/>
     <use xlink:href="#DejaVuSerif-20" transform="translate(623.974609 0.015625)"/>
     <use xlink:href="#DejaVuSerif-72" transform="translate(655.761719 0.015625)"/>
     <use xlink:href="#DejaVuSerif-65" transform="translate(703.564453 0.015625)"/>
     <use xlink:href="#DejaVuSerif-67" transform="translate(762.744141 0.015625)"/>
     <use xlink:href="#DejaVuSerif-69" transform="translate(826.757812 0.015625)"/>
     <use xlink:href="#DejaVuSerif-6f" transform="translate(858.740234 0.015625)"/>
     <use xlink:href="#DejaVuSerif-6e" transform="translate(918.945312 0.015625)"/>
     <use xlink:href="#DejaVuSerif-20" transform="translate(983.349609 0.015625)"/>
     <use xlink:href="#DejaVuSerif-63" transform="translate(1015.136719 0.015625)"/>
     <use xlink:href="#DejaVuSerif-6f" transform="translate(1071.142578 0.015625)"/>
     <use xlink:href="#DejaVuSerif-6e" transform="translate(1131.347656 0.015625)"/>
     <use xlink:href="#DejaVuSerif-73" transform="translate(1195.751953 0.015625)"/>
     <use xlink:href="#DejaVuSerif-69" transform="translate(1247.070312 0.015625)"/>
     <use xlink:href="#DejaVuSerif-73" transform="translate(1279.052734 0.015625)"/>
     <use xlink:href="#DejaVuSerif-74" transform="translate(1330.371094 0.015625)"/>
     <use xlink:href="#DejaVuSerif-69" transform="translate(1370.556641 0.015625)"/>
     <use xlink:href="#DejaVuSerif-6e" transform="translate(1402.539062 0.015625)"/>
     <use xlink:href="#DejaVuSerif-67" transform="translate(1466.943359 0.015625)"/>
     <use xlink:href="#DejaVuSerif-20" transform="translate(1530.957031 0.015625)"/>
     <use xlink:href="#DejaVuSerif-6f" transform="translate(1562.744141 0.015625)"/>
     <use xlink:href="#DejaVuSerif-66" transform="translate(1622.949219 0.015625)"/>
     <use xlink:href="#DejaVuSerif-20" transform="translate(1659.960938 0.015625)"/>
     <use xlink:href="#DejaVuSerif-74" transform="translate(1691.748047 0.015625)"/>
     <use xlink:href="#DejaVuSerif-68" transform="translate(1731.933594 0.015625)"/>
     <use xlink:href="#DejaVuSerif-65" transform="translate(1796.337891 0.015625)"/>
     <use xlink:href="#DejaVuSerif-20" transform="translate(1855.517578 0.015625)"/>
     <use xlink:href="#DejaVuSerif-70" transform="translate(1887.304688 0.015625)"/>
     <use xlink:href="#DejaVuSerif-6f" transform="translate(1951.318359 0.015625)"/>
     <use xlink:href="#DejaVuSerif-69" transform="translate(2011.523438 0.015625)"/>
     <use xlink:href="#DejaVuSerif-6e" transform="translate(2043.505859 0.015625)"/>
     <use xlink:href="#DejaVuSerif-74" transform="translate(2107.910156 0.015625)"/>
     <use xlink:href="#DejaVuSerif-73" transform="translate(2148.095703 0.015625)"/>
     <use xlink:href="#DejaVuSerif-20" transform="translate(2199.414062 0.015625)"/>
     <use xlink:href="#Cmr10-28" transform="translate(2231.201172 0.015625)"/>
     <use xlink:href="#Cmmi10-78" transform="translate(2270.019531 0.015625)"/>
     <use xlink:href="#Cmmi10-3b" transform="translate(2327.099609 0.015625)"/>
     <use xlink:href="#Cmmi10-79" transform="translate(2372.34375 0.015625)"/>
     <use xlink:href="#Cmr10-29" transform="translate(2421.367188 0.015625)"/>
     <use xlink:href="#DejaVuSerif-20" transform="translate(2460.185547 0.015625)"/>
     <use xlink:href="#DejaVuSerif-6f" transform="translate(2491.972656 0.015625)"/>
     <use xlink:href="#DejaVuSerif-66" transform="translate(2552.177734 0.015625)"/>
     <use xlink:href="#DejaVuSerif-20" transform="translate(2589.189453 0.015625)"/>
     <use xlink:href="#DejaVuSerif-74" transform="translate(2620.976562 0.015625)"/>
     <use xlink:href="#DejaVuSerif-68" transform="translate(2661.162109 0.015625)"/>
     <use xlink:href="#DejaVuSerif-65" transform="translate(2725.566406 0.015625)"/>
     <use xlink:href="#DejaVuSerif-20" transform="translate(2784.746094 0.015625)"/>
     <use xlink:href="#DejaVuSerif-63" transform="translate(2816.533203 0.015625)"/>
     <use xlink:href="#DejaVuSerif-61" transform="translate(2872.539062 0.015625)"/>
     <use xlink:href="#DejaVuSerif-72" transform="translate(2932.158203 0.015625)"/>
     <use xlink:href="#DejaVuSerif-74" transform="translate(2979.960938 0.015625)"/>
     <use xlink:href="#DejaVuSerif-65" transform="translate(3020.146484 0.015625)"/>
     <use xlink:href="#DejaVuSerif-73" transform="translate(3079.326172 0.015625)"/>
     <use xlink:href="#DejaVuSerif-69" transform="translate(3130.644531 0.015625)"/>
     <use xlink:href="#DejaVuSerif-61" transform="translate(3162.626953 0.015625)"/>
     <use xlink:href="#DejaVuSerif-6e" transform="translate(3222.246094 0.015625)"/>
     <use xlink:href="#DejaVuSerif-20" transform="translate(3286.650391 0.015625)"/>
     <use xlink:href="#DejaVuSerif-70" transform="translate(3318.4375 0.015625)"/>
     <use xlink:href="#DejaVuSerif-6c" transform="translate(3382.451172 0.015625)"/>
     <use xlink:href="#DejaVuSerif-61" transform="translate(3414.433594 0.015625)"/>
     <use xlink:href="#DejaVuSerif-6e" transform="translate(3474.052734 0.015625)"/>
     <use xlink:href="#DejaVuSerif-65" transform="translate(3538.457031 0.015625)"/>
     <use xlink:href="#DejaVuSerif-20" transform="translate(3597.636719 0.015625)"/>
     <use xlink:href="#DejaVuSerif-73" transform="translate(3629.423828 0.015625)"/>
     <use xlink:href="#DejaVuSerif-61" transform="translate(3680.742188 0.015625)"/>
     <use xlink:href="#DejaVuSerif-74" transform="translate(3740.361328 0.015625)"/>
     <use xlink:href="#DejaVuSerif-69" transform="translate(3780.546875 0.015625)"/>
     <use xlink:href="#DejaVuSerif-73" transform="translate(3812.529297 0.015625)"/>
     <use xlink:href="#DejaVuSerif-66" transform="translate(3863.847656 0.015625)"/>
     <use xlink:href="#DejaVuSerif-79" transform="translate(3900.859375 0.015625)"/>
     <use xlink:href="#DejaVuSerif-69" transform="translate(3957.353516 0.015625)"/>
     <use xlink:href="#DejaVuSerif-6e" transform="translate(3989.335938 0.015625)"/>
     <use xlink:href="#DejaVuSerif-67" transform="translate(4053.740234 0.015625)"/>
     <use xlink:href="#DejaVuSerif-20" transform="translate(4117.753906 0.015625)"/>
     <use xlink:href="#DejaVuSerif-62" transform="translate(4149.541016 0.015625)"/>
     <use xlink:href="#DejaVuSerif-6f" transform="translate(4213.554688 0.015625)"/>
     <use xlink:href="#DejaVuSerif-74" transform="translate(4273.759766 0.015625)"/>
     <use xlink:href="#DejaVuSerif-68" transform="translate(4313.945312 0.015625)"/>
     <use xlink:href="#DejaVuSerif-20" transform="translate(4378.349609 0.015625)"/>
     <use xlink:href="#Cmsy10-6a" transform="translate(4410.136719 0.015625)"/>
     <use xlink:href="#Cmmi10-78" transform="translate(4437.822266 0.015625)"/>
     <use xlink:href="#Cmsy10-6a" transform="translate(4494.902344 0.015625)"/>
     <use xlink:href="#Cmsy10-a1" transform="translate(4540.146484 0.015625)"/>
     <use xlink:href="#Cmsy10-6a" transform="translate(4635.390625 0.015625)"/>
     <use xlink:href="#Cmmi10-79" transform="translate(4663.076172 0.015625)"/>
     <use xlink:href="#Cmsy10-6a" transform="translate(4712.099609 0.015625)"/>
     <use xlink:href="#STIXGeneral-Regular-2266" transform="translate(4757.34375 0.015625)"/>
     <use xlink:href="#Cmr10-31" transform="translate(4843.402328 0.015625)"/>
     <use xlink:href="#DejaVuSerif-20" transform="translate(4893.402328 0.015625)"/>
     <use xlink:href="#DejaVuSerif-61" transform="translate(4925.189438 0.015625)"/>
     <use xlink:href="#DejaVuSerif-6e" transform="translate(4984.808578 0.015625)"/>
     <use xlink:href="#DejaVuSerif-64" transform="translate(5049.212875 0.015625)"/>
     <use xlink:href="#DejaVuSerif-20" transform="translate(5113.226547 0.015625)"/>
     <use xlink:href="#Cmsy10-6a" transform="translate(5145.013657 0.015625)"/>
     <use xlink:href="#Cmmi10-79" transform="translate(5172.699203 0.015625)"/>
     <use xlink:href="#Cmsy10-6a" transform="translate(5221.722641 0.015625)"/>
     <use xlink:href="#STIXGeneral-Regular-2266" transform="translate(5266.966782 0.015625)"/>
     <use xlink:href="#Cmr10-31" transform="translate(5353.02536 0.015625)"/>
     <use xlink:href="#DejaVuSerif-2e" transform="translate(5403.02536 0.015625)"/>
     <use xlink:href="#DejaVuSerif-20" transform="translate(5434.812469 0.015625)"/>
     <use xlink:href="#DejaVuSerif-46" transform="translate(5466.599579 0.015625)"/>
     <use xlink:href="#DejaVuSerif-69" transform="translate(5535.984344 0.015625)"/>
     <use xlink:href="#DejaVuSerif-6e" transform="translate(5567.966766 0.015625)"/>
     <use xlink:href="#DejaVuSerif-64" transform="translate(5632.371063 0.015625)"/>
     <use xlink:href="#DejaVuSerif-20" transform="translate(5696.384735 0.015625)"/>
     <use xlink:href="#DejaVuSerif-74" transform="translate(5728.171844 0.015625)"/>
     <use xlink:href="#DejaVuSerif-68" transform="translate(5768.357391 0.015625)"/>
     <use xlink:href="#DejaVuSerif-65" transform="translate(5832.761688 0.015625)"/>
     <use xlink:href="#DejaVuSerif-20" transform="translate(5891.941376 0.015625)"/>
     <use xlink:href="#DejaVuSerif-61" transform="translate(5923.728485 0.015625)"/>
     <use xlink:href="#DejaVuSerif-72" transform="translate(5983.347626 0.015625)"/>
     <use xlink:href="#DejaVuSerif-65" transform="translate(6031.15036 0.015625)"/>
     <use xlink:href="#DejaVuSerif-61" transform="translate(6090.330048 0.015625)"/>
     <use xlink:href="#DejaVuSerif-20" transform="translate(6149.949188 0.015625)"/>
     <use xlink:href="#DejaVuSerif-6f" transform="translate(6181.736298 0.015625)"/>
     <use xlink:href="#DejaVuSerif-66" transform="translate(6241.941376 0.015625)"/>
     <use xlink:href="#DejaVuSerif-20" transform="translate(6278.953094 0.015625)"/>
     <use xlink:href="#Cmmi10-52" transform="translate(6310.740204 0.015625)"/>
     <use xlink:href="#DejaVuSerif-2e" transform="translate(6386.61911 0.015625)"/>
    </g>
   </g>
  </g>
 </g>
</svg>
