<?xml version="1.0" encoding="utf-8" standalone="no"?>
<!DOCTYPE svg PUBLIC "-//W3C//DTD SVG 1.1//EN"
  "http://www.w3.org/Graphics/SVG/1.1/DTD/svg11.dtd">
<svg xmlns:xlink="http://www.w3.org/1999/xlink" width="2177.64pt" height="180.72pt" viewBox="0 0 2177.64 180.72" xmlns="http://www.w3.org/2000/svg" version="1.1">
 <metadata>
  <rdf:RDF xmlns:dc="http://purl.org/dc/elements/1.1/" xmlns:cc="http://creativecommons.org/ns#" xmlns:rdf="http://www.w3.org/1999/02/22-rdf-syntax-ns#">
   <cc:Work>
    <dc:type rdf:resource="http://purl.org/dc/dcmitype/StillImage"/>
    <dc:date>2025-05-29T18:44:08.721784</dc:date>
    <dc:format>image/svg+xml</dc:format>
    <dc:creator>
     <cc:Agent>
      <dc:title>Matplotlib v3.10.3, https://matplotlib.org/</dc:title>
     </cc:Agent>
    </dc:creator>
   </cc:Work>
  </rdf:RDF>
 </metadata>
 <defs>
  <style type="text/css">*{stroke-linejoin: round; stroke-linecap: butt}</style>
 </defs>
 <g id="figure_1">
  <g id="patch_1">
   <path d="M -0 180.72 
L 2177.64 180.72 
L 2177.64 0 
L -0 0 
z
" style="fill: #ffffff"/>
  </g>
  <g id="axes_1">
   <g id="text_1">
    <!-- Let $S$ be a finite set of points in the plane. A linear partition of $S$ is an unordered pair $\{A,B\}$ of subsets of $S$ such that $A \cup B=S$, $A \cap B=\emptyset$, and $A$ and $B$ lie on opposite sides of some straight line disjoint from $S$ ($A$ or $B$ may be empty). Let $L_S$ be the number of linear partitions of $S$. For each positive integer $n$, find the maximum of $L_S$ over all sets $S$ of $n$ points. -->
    <g transform="translate(7.2 94.86) scale(0.12 -0.12)">
     <defs>
      <path id="DejaVuSerif-4c" d="M 353 0 
L 353 331 
L 947 331 
L 947 4331 
L 353 4331 
L 353 4666 
L 2175 4666 
L 2175 4331 
L 1581 4331 
L 1581 384 
L 3713 384 
L 3713 1166 
L 4097 1166 
L 4097 0 
L 353 0 
z
" transform="scale(0.015625)"/>
      <path id="DejaVuSerif-65" d="M 3469 1600 
L 991 1600 
L 991 1575 
Q 991 903 1244 561 
Q 1497 219 1991 219 
Q 2369 219 2611 417 
Q 2853 616 2950 1006 
L 3413 1006 
Q 3275 459 2904 184 
Q 2534 -91 1931 -91 
Q 1203 -91 761 389 
Q 319 869 319 1663 
Q 319 2450 753 2931 
Q 1188 3413 1894 3413 
Q 2647 3413 3050 2948 
Q 3453 2484 3469 1600 
z
M 2791 1931 
Q 2772 2513 2545 2808 
Q 2319 3103 1894 3103 
Q 1497 3103 1269 2806 
Q 1041 2509 991 1931 
L 2791 1931 
z
" transform="scale(0.015625)"/>
      <path id="DejaVuSerif-74" d="M 691 2988 
L 184 2988 
L 184 3322 
L 691 3322 
L 691 4353 
L 1269 4353 
L 1269 3322 
L 2350 3322 
L 2350 2988 
L 1269 2988 
L 1269 878 
Q 1269 456 1350 337 
Q 1431 219 1650 219 
Q 1875 219 1978 351 
Q 2081 484 2088 781 
L 2522 781 
Q 2497 328 2275 118 
Q 2053 -91 1600 -91 
Q 1103 -91 897 129 
Q 691 350 691 878 
L 691 2988 
z
" transform="scale(0.015625)"/>
      <path id="DejaVuSerif-20" transform="scale(0.015625)"/>
      <path id="Cmmi10-53" d="M 391 -141 
Q 372 -141 356 -119 
Q 341 -97 341 -78 
L 709 1416 
Q 722 1453 763 1453 
L 838 1453 
Q 863 1453 877 1434 
Q 891 1416 891 1388 
Q 838 1169 838 997 
Q 838 534 1156 309 
Q 1475 84 1959 84 
Q 2169 84 2372 187 
Q 2575 291 2726 456 
Q 2878 622 2968 826 
Q 3059 1031 3059 1241 
Q 3059 1466 2940 1642 
Q 2822 1819 2613 1869 
L 1831 2075 
Q 1516 2159 1328 2414 
Q 1141 2669 1141 2988 
Q 1141 3372 1369 3728 
Q 1597 4084 1964 4298 
Q 2331 4513 2713 4513 
Q 3006 4513 3251 4405 
Q 3497 4297 3628 4063 
L 3994 4494 
Q 4031 4513 4038 4513 
L 4078 4513 
Q 4103 4513 4118 4491 
Q 4134 4469 4134 4447 
L 3763 2963 
Q 3753 2919 3713 2919 
L 3634 2919 
Q 3578 2919 3578 2988 
Q 3609 3191 3609 3341 
Q 3609 3638 3507 3858 
Q 3406 4078 3201 4192 
Q 2997 4306 2694 4306 
Q 2438 4306 2184 4159 
Q 1931 4013 1775 3769 
Q 1619 3525 1619 3263 
Q 1619 3056 1739 2897 
Q 1859 2738 2059 2681 
L 2841 2478 
Q 3053 2422 3211 2280 
Q 3369 2138 3450 1942 
Q 3531 1747 3531 1516 
Q 3531 1213 3403 917 
Q 3275 622 3045 378 
Q 2816 134 2525 -3 
Q 2234 -141 1931 -141 
Q 1169 -141 838 306 
L 481 -122 
Q 444 -141 434 -141 
L 391 -141 
z
" transform="scale(0.015625)"/>
      <path id="DejaVuSerif-62" d="M 738 331 
L 738 4531 
L 184 4531 
L 184 4863 
L 1313 4863 
L 1313 2803 
Q 1481 3116 1742 3264 
Q 2003 3413 2388 3413 
Q 3000 3413 3387 2928 
Q 3775 2444 3775 1663 
Q 3775 881 3387 395 
Q 3000 -91 2388 -91 
Q 2003 -91 1742 57 
Q 1481 206 1313 519 
L 1313 0 
L 184 0 
L 184 331 
L 738 331 
z
M 1313 1497 
Q 1313 897 1542 583 
Q 1772 269 2209 269 
Q 2650 269 2876 622 
Q 3103 975 3103 1663 
Q 3103 2353 2876 2703 
Q 2650 3053 2209 3053 
Q 1772 3053 1542 2737 
Q 1313 2422 1313 1825 
L 1313 1497 
z
" transform="scale(0.015625)"/>
      <path id="DejaVuSerif-61" d="M 2547 1044 
L 2547 1747 
L 1806 1747 
Q 1378 1747 1168 1562 
Q 959 1378 959 997 
Q 959 650 1171 447 
Q 1384 244 1747 244 
Q 2106 244 2326 466 
Q 2547 688 2547 1044 
z
M 3122 2075 
L 3122 331 
L 3634 331 
L 3634 0 
L 2547 0 
L 2547 359 
Q 2356 128 2106 18 
Q 1856 -91 1522 -91 
Q 969 -91 644 203 
Q 319 497 319 997 
Q 319 1513 691 1797 
Q 1063 2081 1741 2081 
L 2547 2081 
L 2547 2309 
Q 2547 2688 2317 2895 
Q 2088 3103 1672 3103 
Q 1328 3103 1125 2947 
Q 922 2791 872 2484 
L 575 2484 
L 575 3156 
Q 875 3284 1158 3348 
Q 1441 3413 1709 3413 
Q 2400 3413 2761 3070 
Q 3122 2728 3122 2075 
z
" transform="scale(0.015625)"/>
      <path id="DejaVuSerif-66" d="M 2753 4078 
L 2450 4078 
Q 2447 4313 2317 4434 
Q 2188 4556 1941 4556 
Q 1619 4556 1487 4379 
Q 1356 4203 1356 3750 
L 1356 3322 
L 2284 3322 
L 2284 2988 
L 1356 2988 
L 1356 331 
L 2094 331 
L 2094 0 
L 231 0 
L 231 331 
L 781 331 
L 781 2988 
L 231 2988 
L 231 3322 
L 781 3322 
L 781 3738 
Q 781 4294 1070 4578 
Q 1359 4863 1919 4863 
Q 2128 4863 2337 4825 
Q 2547 4788 2753 4709 
L 2753 4078 
z
" transform="scale(0.015625)"/>
      <path id="DejaVuSerif-69" d="M 622 4353 
Q 622 4497 726 4603 
Q 831 4709 978 4709 
Q 1122 4709 1226 4603 
Q 1331 4497 1331 4353 
Q 1331 4206 1228 4103 
Q 1125 4000 978 4000 
Q 831 4000 726 4103 
Q 622 4206 622 4353 
z
M 1356 331 
L 1900 331 
L 1900 0 
L 231 0 
L 231 331 
L 781 331 
L 781 2988 
L 231 2988 
L 231 3322 
L 1356 3322 
L 1356 331 
z
" transform="scale(0.015625)"/>
      <path id="DejaVuSerif-6e" d="M 263 0 
L 263 331 
L 781 331 
L 781 2988 
L 231 2988 
L 231 3322 
L 1356 3322 
L 1356 2731 
Q 1516 3069 1770 3241 
Q 2025 3413 2363 3413 
Q 2913 3413 3172 3097 
Q 3431 2781 3431 2113 
L 3431 331 
L 3944 331 
L 3944 0 
L 2356 0 
L 2356 331 
L 2853 331 
L 2853 1931 
Q 2853 2541 2703 2767 
Q 2553 2994 2175 2994 
Q 1775 2994 1565 2701 
Q 1356 2409 1356 1850 
L 1356 331 
L 1856 331 
L 1856 0 
L 263 0 
z
" transform="scale(0.015625)"/>
      <path id="DejaVuSerif-73" d="M 359 184 
L 359 959 
L 691 959 
Q 703 588 923 403 
Q 1144 219 1575 219 
Q 1963 219 2166 364 
Q 2369 509 2369 788 
Q 2369 1006 2220 1140 
Q 2072 1275 1594 1428 
L 1178 1569 
Q 750 1706 558 1912 
Q 366 2119 366 2438 
Q 366 2894 700 3153 
Q 1034 3413 1625 3413 
Q 1888 3413 2178 3344 
Q 2469 3275 2778 3144 
L 2778 2419 
L 2447 2419 
Q 2434 2741 2221 2922 
Q 2009 3103 1644 3103 
Q 1281 3103 1095 2975 
Q 909 2847 909 2591 
Q 909 2381 1050 2254 
Q 1191 2128 1613 1997 
L 2069 1856 
Q 2541 1709 2748 1489 
Q 2956 1269 2956 922 
Q 2956 450 2595 179 
Q 2234 -91 1600 -91 
Q 1278 -91 972 -22 
Q 666 47 359 184 
z
" transform="scale(0.015625)"/>
      <path id="DejaVuSerif-6f" d="M 1925 219 
Q 2388 219 2623 584 
Q 2859 950 2859 1663 
Q 2859 2375 2623 2739 
Q 2388 3103 1925 3103 
Q 1463 3103 1227 2739 
Q 991 2375 991 1663 
Q 991 950 1228 584 
Q 1466 219 1925 219 
z
M 1925 -91 
Q 1200 -91 759 389 
Q 319 869 319 1663 
Q 319 2456 758 2934 
Q 1197 3413 1925 3413 
Q 2653 3413 3092 2934 
Q 3531 2456 3531 1663 
Q 3531 869 3092 389 
Q 2653 -91 1925 -91 
z
" transform="scale(0.015625)"/>
      <path id="DejaVuSerif-70" d="M 1313 1825 
L 1313 1497 
Q 1313 897 1542 583 
Q 1772 269 2209 269 
Q 2650 269 2876 622 
Q 3103 975 3103 1663 
Q 3103 2353 2876 2703 
Q 2650 3053 2209 3053 
Q 1772 3053 1542 2737 
Q 1313 2422 1313 1825 
z
M 738 2988 
L 184 2988 
L 184 3322 
L 1313 3322 
L 1313 2803 
Q 1481 3116 1742 3264 
Q 2003 3413 2388 3413 
Q 3000 3413 3387 2928 
Q 3775 2444 3775 1663 
Q 3775 881 3387 395 
Q 3000 -91 2388 -91 
Q 2003 -91 1742 57 
Q 1481 206 1313 519 
L 1313 -997 
L 1856 -997 
L 1856 -1331 
L 184 -1331 
L 184 -997 
L 738 -997 
L 738 2988 
z
" transform="scale(0.015625)"/>
      <path id="DejaVuSerif-68" d="M 263 0 
L 263 331 
L 781 331 
L 781 4531 
L 231 4531 
L 231 4863 
L 1356 4863 
L 1356 2731 
Q 1516 3069 1770 3241 
Q 2025 3413 2363 3413 
Q 2913 3413 3172 3097 
Q 3431 2781 3431 2113 
L 3431 331 
L 3944 331 
L 3944 0 
L 2356 0 
L 2356 331 
L 2853 331 
L 2853 1931 
Q 2853 2541 2704 2764 
Q 2556 2988 2175 2988 
Q 1775 2988 1565 2697 
Q 1356 2406 1356 1850 
L 1356 331 
L 1856 331 
L 1856 0 
L 263 0 
z
" transform="scale(0.015625)"/>
      <path id="DejaVuSerif-6c" d="M 1313 331 
L 1856 331 
L 1856 0 
L 184 0 
L 184 331 
L 738 331 
L 738 4531 
L 184 4531 
L 184 4863 
L 1313 4863 
L 1313 331 
z
" transform="scale(0.015625)"/>
      <path id="DejaVuSerif-2e" d="M 603 325 
Q 603 500 722 622 
Q 841 744 1019 744 
Q 1191 744 1312 622 
Q 1434 500 1434 325 
Q 1434 153 1312 31 
Q 1191 -91 1019 -91 
Q 841 -91 722 29 
Q 603 150 603 325 
z
" transform="scale(0.015625)"/>
      <path id="DejaVuSerif-41" d="M 1281 1691 
L 2994 1691 
L 2138 3909 
L 1281 1691 
z
M -38 0 
L -38 331 
L 372 331 
L 2034 4666 
L 2559 4666 
L 4225 331 
L 4684 331 
L 4684 0 
L 2988 0 
L 2988 331 
L 3506 331 
L 3116 1356 
L 1153 1356 
L 763 331 
L 1275 331 
L 1275 0 
L -38 0 
z
" transform="scale(0.015625)"/>
      <path id="DejaVuSerif-72" d="M 3059 3328 
L 3059 2497 
L 2728 2497 
Q 2713 2744 2591 2866 
Q 2469 2988 2234 2988 
Q 1809 2988 1582 2694 
Q 1356 2400 1356 1850 
L 1356 331 
L 2022 331 
L 2022 0 
L 263 0 
L 263 331 
L 781 331 
L 781 2994 
L 231 2994 
L 231 3322 
L 1356 3322 
L 1356 2731 
Q 1525 3078 1790 3245 
Q 2056 3413 2438 3413 
Q 2578 3413 2733 3391 
Q 2888 3369 3059 3328 
z
" transform="scale(0.015625)"/>
      <path id="DejaVuSerif-75" d="M 2266 3322 
L 3341 3322 
L 3341 331 
L 3884 331 
L 3884 0 
L 2766 0 
L 2766 588 
Q 2606 256 2353 82 
Q 2100 -91 1766 -91 
Q 1213 -91 952 223 
Q 691 538 691 1209 
L 691 2988 
L 172 2988 
L 172 3322 
L 1269 3322 
L 1269 1388 
Q 1269 781 1417 556 
Q 1566 331 1947 331 
Q 2347 331 2556 625 
Q 2766 919 2766 1478 
L 2766 2988 
L 2266 2988 
L 2266 3322 
z
" transform="scale(0.015625)"/>
      <path id="DejaVuSerif-64" d="M 3359 331 
L 3909 331 
L 3909 0 
L 2784 0 
L 2784 519 
Q 2616 206 2355 57 
Q 2094 -91 1709 -91 
Q 1097 -91 708 395 
Q 319 881 319 1663 
Q 319 2444 706 2928 
Q 1094 3413 1709 3413 
Q 2094 3413 2355 3264 
Q 2616 3116 2784 2803 
L 2784 4531 
L 2241 4531 
L 2241 4863 
L 3359 4863 
L 3359 331 
z
M 2784 1497 
L 2784 1825 
Q 2784 2422 2554 2737 
Q 2325 3053 1888 3053 
Q 1444 3053 1217 2703 
Q 991 2353 991 1663 
Q 991 975 1217 622 
Q 1444 269 1888 269 
Q 2325 269 2554 583 
Q 2784 897 2784 1497 
z
" transform="scale(0.015625)"/>
      <path id="Cmex10-a9" d="M 1631 -6425 
L 1631 -4556 
Q 1631 -4338 1503 -4159 
Q 1375 -3981 1184 -3867 
Q 994 -3753 756 -3675 
Q 709 -3650 709 -3622 
L 709 -3547 
Q 709 -3503 756 -3494 
Q 1128 -3366 1379 -3150 
Q 1631 -2934 1631 -2606 
L 1631 -738 
Q 1631 -325 2004 -95 
Q 2378 134 2888 256 
L 2963 256 
Q 2981 256 2998 242 
Q 3016 228 3016 206 
L 3016 128 
Q 3016 91 2975 78 
Q 2619 -31 2359 -232 
Q 2100 -434 2100 -750 
L 2100 -2619 
Q 2100 -2994 1804 -3214 
Q 1509 -3434 1056 -3584 
Q 1497 -3716 1798 -3939 
Q 2100 -4163 2100 -4544 
L 2100 -6413 
Q 2100 -6628 2231 -6790 
Q 2363 -6953 2556 -7059 
Q 2750 -7166 2975 -7238 
Q 3016 -7250 3016 -7291 
L 3016 -7366 
Q 3016 -7384 2998 -7401 
Q 2981 -7419 2963 -7419 
L 2888 -7419 
Q 2559 -7338 2292 -7227 
Q 2025 -7116 1828 -6914 
Q 1631 -6713 1631 -6425 
z
" transform="scale(0.015625)"/>
      <path id="Cmmi10-41" d="M 288 0 
Q 225 0 225 84 
Q 250 225 306 225 
Q 566 225 755 328 
Q 944 431 1081 647 
Q 1094 659 1094 659 
L 3378 4513 
Q 3428 4581 3500 4581 
L 3584 4581 
Q 3603 4581 3622 4573 
Q 3641 4566 3655 4548 
Q 3669 4531 3669 4513 
L 4056 378 
Q 4056 350 4084 294 
Q 4147 225 4563 225 
Q 4628 225 4628 141 
Q 4606 56 4592 28 
Q 4578 0 4519 0 
L 2919 0 
Q 2859 0 2859 84 
Q 2894 225 2944 225 
Q 3450 225 3481 397 
L 3384 1453 
L 1806 1453 
L 1294 594 
Q 1247 525 1247 434 
Q 1247 322 1355 273 
Q 1463 225 1594 225 
Q 1656 225 1656 141 
Q 1634 50 1621 25 
Q 1609 0 1550 0 
L 288 0 
z
M 1931 1678 
L 3359 1678 
L 3169 3750 
L 1931 1678 
z
" transform="scale(0.015625)"/>
      <path id="Cmmi10-3b" d="M 634 -1153 
Q 634 -1125 659 -1100 
Q 891 -878 1019 -587 
Q 1147 -297 1147 25 
L 1147 103 
Q 1044 0 891 0 
Q 744 0 641 103 
Q 538 206 538 353 
Q 538 503 641 603 
Q 744 703 891 703 
Q 1119 703 1216 492 
Q 1313 281 1313 25 
Q 1313 -331 1170 -651 
Q 1028 -972 769 -1228 
Q 744 -1241 728 -1241 
Q 697 -1241 665 -1212 
Q 634 -1184 634 -1153 
z
" transform="scale(0.015625)"/>
      <path id="Cmmi10-42" d="M 319 0 
Q 256 0 256 84 
Q 259 100 268 137 
Q 278 175 293 200 
Q 309 225 341 225 
Q 522 225 656 234 
Q 791 244 884 269 
Q 959 297 1006 441 
L 1881 3956 
Q 1894 4019 1894 4044 
Q 1894 4113 1819 4122 
Q 1697 4147 1356 4147 
Q 1294 4147 1294 4231 
Q 1297 4247 1306 4286 
Q 1316 4325 1333 4348 
Q 1350 4372 1375 4372 
L 3669 4372 
Q 3878 4372 4083 4320 
Q 4288 4269 4461 4156 
Q 4634 4044 4736 3876 
Q 4838 3709 4838 3488 
Q 4838 3247 4714 3040 
Q 4591 2834 4395 2681 
Q 4200 2528 3973 2429 
Q 3747 2331 3500 2284 
Q 3675 2284 3854 2215 
Q 4034 2147 4175 2028 
Q 4316 1909 4402 1743 
Q 4488 1578 4488 1388 
Q 4488 1003 4219 684 
Q 3950 366 3542 183 
Q 3134 0 2753 0 
L 319 0 
z
M 1497 275 
Q 1497 225 1716 225 
L 2631 225 
Q 2944 225 3231 398 
Q 3519 572 3692 859 
Q 3866 1147 3866 1459 
Q 3866 1650 3786 1820 
Q 3706 1991 3556 2089 
Q 3406 2188 3213 2188 
L 1966 2188 
L 1522 416 
Q 1497 328 1497 275 
z
M 2009 2356 
L 2981 2356 
Q 3288 2356 3577 2512 
Q 3866 2669 4048 2937 
Q 4231 3206 4231 3506 
Q 4231 3784 4057 3965 
Q 3884 4147 3609 4147 
L 2731 4147 
Q 2559 4147 2500 4115 
Q 2441 4084 2400 3928 
L 2009 2356 
z
" transform="scale(0.015625)"/>
      <path id="Cmex10-aa" d="M 709 -7366 
L 709 -7291 
Q 709 -7247 756 -7238 
Q 1631 -6953 1631 -6413 
L 1631 -4544 
Q 1631 -3909 2669 -3584 
Q 2219 -3431 1925 -3209 
Q 1631 -2988 1631 -2619 
L 1631 -750 
Q 1631 -206 756 78 
Q 709 88 709 128 
L 709 206 
Q 709 256 769 256 
L 844 256 
Q 1359 131 1729 -97 
Q 2100 -325 2100 -738 
L 2100 -2606 
Q 2100 -2925 2354 -3142 
Q 2609 -3359 2975 -3494 
Q 3016 -3506 3016 -3547 
L 3016 -3622 
Q 3016 -3641 2975 -3675 
Q 2769 -3744 2566 -3864 
Q 2363 -3984 2231 -4161 
Q 2100 -4338 2100 -4556 
L 2100 -6425 
Q 2100 -6713 1901 -6914 
Q 1703 -7116 1437 -7227 
Q 1172 -7338 844 -7419 
L 769 -7419 
Q 744 -7419 726 -7401 
Q 709 -7384 709 -7366 
z
" transform="scale(0.015625)"/>
      <path id="DejaVuSerif-63" d="M 3291 997 
Q 3169 466 2822 187 
Q 2475 -91 1925 -91 
Q 1200 -91 759 389 
Q 319 869 319 1663 
Q 319 2459 759 2936 
Q 1200 3413 1925 3413 
Q 2241 3413 2553 3339 
Q 2866 3266 3181 3116 
L 3181 2266 
L 2847 2266 
Q 2781 2703 2561 2903 
Q 2341 3103 1931 3103 
Q 1466 3103 1228 2742 
Q 991 2381 991 1663 
Q 991 944 1227 581 
Q 1463 219 1931 219 
Q 2303 219 2525 412 
Q 2747 606 2828 997 
L 3291 997 
z
" transform="scale(0.015625)"/>
      <path id="Cmsy10-5b" d="M 359 1216 
L 359 3713 
Q 359 3759 396 3793 
Q 434 3828 488 3828 
Q 534 3828 575 3793 
Q 616 3759 616 3713 
L 616 1234 
Q 616 956 752 747 
Q 888 538 1111 398 
Q 1334 259 1606 187 
Q 1878 116 2131 116 
Q 2388 116 2659 186 
Q 2931 256 3151 393 
Q 3372 531 3509 743 
Q 3647 956 3647 1234 
L 3647 3713 
Q 3647 3759 3687 3793 
Q 3728 3828 3775 3828 
Q 3828 3828 3865 3793 
Q 3903 3759 3903 3713 
L 3903 1216 
Q 3903 891 3743 631 
Q 3584 372 3323 200 
Q 3063 28 2747 -56 
Q 2431 -141 2131 -141 
Q 1831 -141 1515 -56 
Q 1200 28 939 200 
Q 678 372 518 631 
Q 359 891 359 1216 
z
" transform="scale(0.015625)"/>
      <path id="Cmr10-3d" d="M 481 850 
Q 428 850 393 890 
Q 359 931 359 978 
Q 359 1031 393 1068 
Q 428 1106 481 1106 
L 4500 1106 
Q 4547 1106 4581 1068 
Q 4616 1031 4616 978 
Q 4616 931 4581 890 
Q 4547 850 4500 850 
L 481 850 
z
M 481 2094 
Q 428 2094 393 2131 
Q 359 2169 359 2222 
Q 359 2269 393 2309 
Q 428 2350 481 2350 
L 4500 2350 
Q 4547 2350 4581 2309 
Q 4616 2269 4616 2222 
Q 4616 2169 4581 2131 
Q 4547 2094 4500 2094 
L 481 2094 
z
" transform="scale(0.015625)"/>
      <path id="DejaVuSerif-2c" d="M 231 -622 
Q 525 -406 662 -114 
Q 800 178 800 594 
L 800 709 
L 1416 709 
Q 1391 175 1164 -208 
Q 938 -591 481 -872 
L 231 -622 
z
" transform="scale(0.015625)"/>
      <path id="Cmsy10-5c" d="M 359 -25 
L 359 2472 
Q 359 2897 625 3206 
Q 891 3516 1306 3672 
Q 1722 3828 2131 3828 
Q 2434 3828 2745 3745 
Q 3056 3663 3320 3489 
Q 3584 3316 3743 3056 
Q 3903 2797 3903 2472 
L 3903 -25 
Q 3903 -75 3865 -108 
Q 3828 -141 3775 -141 
Q 3728 -141 3687 -108 
Q 3647 -75 3647 -25 
L 3647 2450 
Q 3647 2731 3508 2945 
Q 3369 3159 3151 3293 
Q 2934 3428 2662 3500 
Q 2391 3572 2131 3572 
Q 1775 3572 1426 3447 
Q 1078 3322 847 3069 
Q 616 2816 616 2450 
L 616 -25 
Q 616 -75 575 -108 
Q 534 -141 488 -141 
Q 434 -141 396 -108 
Q 359 -75 359 -25 
z
" transform="scale(0.015625)"/>
      <path id="Cmsy10-3b" d="M 709 -372 
Q 709 -353 716 -347 
L 856 147 
Q 509 463 398 1003 
Q 288 1544 288 2203 
Q 288 3147 553 3864 
Q 819 4581 1600 4581 
Q 1869 4581 2113 4447 
L 2234 4844 
Q 2256 4941 2356 4941 
Q 2409 4941 2446 4903 
Q 2484 4866 2484 4813 
L 2484 4788 
L 2338 4288 
Q 2575 4066 2703 3717 
Q 2831 3369 2868 2992 
Q 2906 2616 2906 2203 
Q 2906 1650 2814 1129 
Q 2722 609 2431 234 
Q 2141 -141 1600 -141 
Q 1313 -141 1075 -6 
L 966 -403 
Q 928 -500 838 -500 
Q 791 -500 750 -459 
Q 709 -419 709 -372 
z
M 1141 213 
Q 1347 25 1600 25 
Q 1897 25 2075 270 
Q 2253 516 2334 891 
Q 2416 1266 2433 1598 
Q 2450 1931 2450 2309 
Q 2450 2866 2415 3294 
Q 2381 3722 2247 3994 
L 1141 213 
z
M 947 469 
L 2053 4238 
Q 1844 4416 1600 4416 
Q 1300 4416 1122 4195 
Q 944 3975 864 3650 
Q 784 3325 764 3000 
Q 744 2675 744 2309 
Q 744 1706 778 1239 
Q 813 772 947 469 
z
" transform="scale(0.015625)"/>
      <path id="DejaVuSerif-6d" d="M 3316 2675 
Q 3481 3041 3739 3227 
Q 3997 3413 4341 3413 
Q 4863 3413 5119 3089 
Q 5375 2766 5375 2113 
L 5375 331 
L 5894 331 
L 5894 0 
L 4300 0 
L 4300 331 
L 4800 331 
L 4800 2047 
Q 4800 2556 4650 2772 
Q 4500 2988 4153 2988 
Q 3769 2988 3567 2697 
Q 3366 2406 3366 1850 
L 3366 331 
L 3866 331 
L 3866 0 
L 2291 0 
L 2291 331 
L 2791 331 
L 2791 2069 
Q 2791 2566 2641 2777 
Q 2491 2988 2144 2988 
Q 1759 2988 1557 2697 
Q 1356 2406 1356 1850 
L 1356 331 
L 1856 331 
L 1856 0 
L 263 0 
L 263 331 
L 781 331 
L 781 2994 
L 231 2994 
L 231 3322 
L 1356 3322 
L 1356 2731 
Q 1516 3063 1762 3238 
Q 2009 3413 2322 3413 
Q 2709 3413 2968 3220 
Q 3228 3028 3316 2675 
z
" transform="scale(0.015625)"/>
      <path id="DejaVuSerif-67" d="M 3359 2988 
L 3359 72 
Q 3359 -644 2965 -1033 
Q 2572 -1422 1844 -1422 
Q 1516 -1422 1216 -1362 
Q 916 -1303 641 -1184 
L 641 -488 
L 941 -488 
Q 997 -813 1206 -963 
Q 1416 -1113 1806 -1113 
Q 2313 -1113 2548 -827 
Q 2784 -541 2784 72 
L 2784 519 
Q 2616 206 2355 57 
Q 2094 -91 1709 -91 
Q 1097 -91 708 395 
Q 319 881 319 1663 
Q 319 2444 706 2928 
Q 1094 3413 1709 3413 
Q 2094 3413 2355 3264 
Q 2616 3116 2784 2803 
L 2784 3322 
L 3909 3322 
L 3909 2988 
L 3359 2988 
z
M 2784 1825 
Q 2784 2422 2554 2737 
Q 2325 3053 1888 3053 
Q 1444 3053 1217 2703 
Q 991 2353 991 1663 
Q 991 975 1217 622 
Q 1444 269 1888 269 
Q 2325 269 2554 583 
Q 2784 897 2784 1497 
L 2784 1825 
z
" transform="scale(0.015625)"/>
      <path id="DejaVuSerif-6a" d="M 641 4353 
Q 641 4497 745 4603 
Q 850 4709 997 4709 
Q 1141 4709 1245 4603 
Q 1350 4497 1350 4353 
Q 1350 4206 1248 4103 
Q 1147 4000 997 4000 
Q 850 4000 745 4103 
Q 641 4206 641 4353 
z
M 781 2988 
L 238 2988 
L 238 3322 
L 1356 3322 
L 1356 -325 
Q 1356 -838 1051 -1130 
Q 747 -1422 213 -1422 
Q -13 -1422 -217 -1370 
Q -422 -1319 -616 -1216 
L -616 -531 
L -319 -531 
Q -297 -831 -164 -972 
Q -31 -1113 225 -1113 
Q 509 -1113 645 -920 
Q 781 -728 781 -325 
L 781 2988 
z
" transform="scale(0.015625)"/>
      <path id="DejaVuSerif-28" d="M 2041 -997 
Q 1281 -656 893 83 
Q 506 822 506 1931 
Q 506 3044 893 3783 
Q 1281 4522 2041 4863 
L 2041 4556 
Q 1559 4225 1350 3623 
Q 1141 3022 1141 1931 
Q 1141 844 1350 242 
Q 1559 -359 2041 -691 
L 2041 -997 
z
" transform="scale(0.015625)"/>
      <path id="DejaVuSerif-79" d="M 1381 -609 
L 1600 -56 
L 359 2988 
L -19 2988 
L -19 3322 
L 1509 3322 
L 1509 2988 
L 978 2988 
L 1913 703 
L 2847 2988 
L 2350 2988 
L 2350 3322 
L 3597 3322 
L 3597 2988 
L 3225 2988 
L 1703 -750 
Q 1547 -1138 1356 -1280 
Q 1166 -1422 819 -1422 
Q 672 -1422 517 -1397 
Q 363 -1372 206 -1325 
L 206 -691 
L 500 -691 
Q 519 -903 608 -995 
Q 697 -1088 884 -1088 
Q 1056 -1088 1161 -992 
Q 1266 -897 1381 -609 
z
" transform="scale(0.015625)"/>
      <path id="DejaVuSerif-29" d="M 453 -997 
L 453 -691 
Q 934 -359 1145 242 
Q 1356 844 1356 1931 
Q 1356 3022 1145 3623 
Q 934 4225 453 4556 
L 453 4863 
Q 1216 4522 1603 3783 
Q 1991 3044 1991 1931 
Q 1991 822 1603 83 
Q 1216 -656 453 -997 
z
" transform="scale(0.015625)"/>
      <path id="Cmmi10-4c" d="M 300 0 
Q 238 0 238 84 
Q 241 100 250 139 
Q 259 178 276 201 
Q 294 225 319 225 
Q 709 225 863 269 
Q 947 297 984 441 
L 1863 3956 
Q 1875 4019 1875 4044 
Q 1875 4113 1797 4122 
Q 1678 4147 1338 4147 
Q 1275 4147 1275 4231 
Q 1297 4313 1309 4342 
Q 1322 4372 1381 4372 
L 3272 4372 
Q 3328 4372 3328 4288 
Q 3319 4222 3306 4184 
Q 3294 4147 3244 4147 
Q 2772 4147 2613 4116 
Q 2456 4088 2419 3928 
L 1544 416 
Q 1516 338 1516 275 
Q 1516 225 1734 225 
L 2328 225 
Q 2831 225 3143 425 
Q 3456 625 3606 876 
Q 3756 1128 3857 1398 
Q 3959 1669 4006 1678 
L 4063 1678 
Q 4128 1678 4128 1594 
L 3559 44 
Q 3550 0 3500 0 
L 300 0 
z
" transform="scale(0.015625)"/>
      <path id="DejaVuSerif-46" d="M 353 0 
L 353 331 
L 947 331 
L 947 4331 
L 353 4331 
L 353 4666 
L 4172 4666 
L 4172 3628 
L 3788 3628 
L 3788 4281 
L 1581 4281 
L 1581 2719 
L 3175 2719 
L 3175 3303 
L 3559 3303 
L 3559 1753 
L 3175 1753 
L 3175 2338 
L 1581 2338 
L 1581 331 
L 2328 331 
L 2328 0 
L 353 0 
z
" transform="scale(0.015625)"/>
      <path id="DejaVuSerif-76" d="M 1581 0 
L 359 2988 
L -19 2988 
L -19 3322 
L 1509 3322 
L 1509 2988 
L 978 2988 
L 1913 703 
L 2847 2988 
L 2350 2988 
L 2350 3322 
L 3597 3322 
L 3597 2988 
L 3225 2988 
L 2003 0 
L 1581 0 
z
" transform="scale(0.015625)"/>
      <path id="Cmmi10-6e" d="M 494 109 
Q 494 147 500 166 
L 978 2075 
Q 1025 2253 1025 2388 
Q 1025 2663 838 2663 
Q 638 2663 541 2423 
Q 444 2184 353 1819 
Q 353 1800 334 1789 
Q 316 1778 300 1778 
L 225 1778 
Q 203 1778 187 1801 
Q 172 1825 172 1844 
Q 241 2122 305 2315 
Q 369 2509 505 2668 
Q 641 2828 844 2828 
Q 1084 2828 1268 2676 
Q 1453 2525 1453 2291 
Q 1644 2541 1900 2684 
Q 2156 2828 2444 2828 
Q 2672 2828 2837 2750 
Q 3003 2672 3095 2514 
Q 3188 2356 3188 2138 
Q 3188 1875 3070 1503 
Q 2953 1131 2778 672 
Q 2688 463 2688 288 
Q 2688 97 2834 97 
Q 3084 97 3251 365 
Q 3419 634 3488 941 
Q 3500 978 3541 978 
L 3616 978 
Q 3641 978 3658 962 
Q 3675 947 3675 922 
Q 3675 916 3669 903 
Q 3581 541 3364 234 
Q 3147 -72 2822 -72 
Q 2597 -72 2437 83 
Q 2278 238 2278 459 
Q 2278 578 2328 709 
Q 2409 919 2514 1209 
Q 2619 1500 2686 1765 
Q 2753 2031 2753 2234 
Q 2753 2413 2679 2538 
Q 2606 2663 2431 2663 
Q 2197 2663 2000 2559 
Q 1803 2456 1656 2286 
Q 1509 2116 1388 1881 
L 953 141 
Q 931 53 854 -9 
Q 778 -72 684 -72 
Q 606 -72 550 -22 
Q 494 28 494 109 
z
" transform="scale(0.015625)"/>
      <path id="DejaVuSerif-78" d="M 1863 2028 
L 2559 2988 
L 2113 2988 
L 2113 3322 
L 3391 3322 
L 3391 2988 
L 2950 2988 
L 2059 1759 
L 3097 331 
L 3531 331 
L 3531 0 
L 1997 0 
L 1997 331 
L 2419 331 
L 1697 1325 
L 972 331 
L 1403 331 
L 1403 0 
L 141 0 
L 141 331 
L 581 331 
L 1497 1594 
L 488 2988 
L 78 2988 
L 78 3322 
L 1563 3322 
L 1563 2988 
L 1166 2988 
L 1863 2028 
z
" transform="scale(0.015625)"/>
     </defs>
     <use xlink:href="#DejaVuSerif-4c" transform="translate(0 0.705729)"/>
     <use xlink:href="#DejaVuSerif-65" transform="translate(66.40625 0.705729)"/>
     <use xlink:href="#DejaVuSerif-74" transform="translate(125.585938 0.705729)"/>
     <use xlink:href="#DejaVuSerif-20" transform="translate(165.771484 0.705729)"/>
     <use xlink:href="#Cmmi10-53" transform="translate(197.558594 0.705729)"/>
     <use xlink:href="#DejaVuSerif-20" transform="translate(258.837891 0.705729)"/>
     <use xlink:href="#DejaVuSerif-62" transform="translate(290.625 0.705729)"/>
     <use xlink:href="#DejaVuSerif-65" transform="translate(354.638672 0.705729)"/>
     <use xlink:href="#DejaVuSerif-20" transform="translate(413.818359 0.705729)"/>
     <use xlink:href="#DejaVuSerif-61" transform="translate(445.605469 0.705729)"/>
     <use xlink:href="#DejaVuSerif-20" transform="translate(505.224609 0.705729)"/>
     <use xlink:href="#DejaVuSerif-66" transform="translate(537.011719 0.705729)"/>
     <use xlink:href="#DejaVuSerif-69" transform="translate(574.023438 0.705729)"/>
     <use xlink:href="#DejaVuSerif-6e" transform="translate(606.005859 0.705729)"/>
     <use xlink:href="#DejaVuSerif-69" transform="translate(670.410156 0.705729)"/>
     <use xlink:href="#DejaVuSerif-74" transform="translate(702.392578 0.705729)"/>
     <use xlink:href="#DejaVuSerif-65" transform="translate(742.578125 0.705729)"/>
     <use xlink:href="#DejaVuSerif-20" transform="translate(801.757812 0.705729)"/>
     <use xlink:href="#DejaVuSerif-73" transform="translate(833.544922 0.705729)"/>
     <use xlink:href="#DejaVuSerif-65" transform="translate(884.863281 0.705729)"/>
     <use xlink:href="#DejaVuSerif-74" transform="translate(944.042969 0.705729)"/>
     <use xlink:href="#DejaVuSerif-20" transform="translate(984.228516 0.705729)"/>
     <use xlink:href="#DejaVuSerif-6f" transform="translate(1016.015625 0.705729)"/>
     <use xlink:href="#DejaVuSerif-66" transform="translate(1076.220703 0.705729)"/>
     <use xlink:href="#DejaVuSerif-20" transform="translate(1113.232422 0.705729)"/>
     <use xlink:href="#DejaVuSerif-70" transform="translate(1145.019531 0.705729)"/>
     <use xlink:href="#DejaVuSerif-6f" transform="translate(1209.033203 0.705729)"/>
     <use xlink:href="#DejaVuSerif-69" transform="translate(1269.238281 0.705729)"/>
     <use xlink:href="#DejaVuSerif-6e" transform="translate(1301.220703 0.705729)"/>
     <use xlink:href="#DejaVuSerif-74" transform="translate(1365.625 0.705729)"/>
     <use xlink:href="#DejaVuSerif-73" transform="translate(1405.810547 0.705729)"/>
     <use xlink:href="#DejaVuSerif-20" transform="translate(1457.128906 0.705729)"/>
     <use xlink:href="#DejaVuSerif-69" transform="translate(1488.916016 0.705729)"/>
     <use xlink:href="#DejaVuSerif-6e" transform="translate(1520.898438 0.705729)"/>
     <use xlink:href="#DejaVuSerif-20" transform="translate(1585.302734 0.705729)"/>
     <use xlink:href="#DejaVuSerif-74" transform="translate(1617.089844 0.705729)"/>
     <use xlink:href="#DejaVuSerif-68" transform="translate(1657.275391 0.705729)"/>
     <use xlink:href="#DejaVuSerif-65" transform="translate(1721.679688 0.705729)"/>
     <use xlink:href="#DejaVuSerif-20" transform="translate(1780.859375 0.705729)"/>
     <use xlink:href="#DejaVuSerif-70" transform="translate(1812.646484 0.705729)"/>
     <use xlink:href="#DejaVuSerif-6c" transform="translate(1876.660156 0.705729)"/>
     <use xlink:href="#DejaVuSerif-61" transform="translate(1908.642578 0.705729)"/>
     <use xlink:href="#DejaVuSerif-6e" transform="translate(1968.261719 0.705729)"/>
     <use xlink:href="#DejaVuSerif-65" transform="translate(2032.666016 0.705729)"/>
     <use xlink:href="#DejaVuSerif-2e" transform="translate(2091.845703 0.705729)"/>
     <use xlink:href="#DejaVuSerif-20" transform="translate(2123.632812 0.705729)"/>
     <use xlink:href="#DejaVuSerif-41" transform="translate(2155.419922 0.705729)"/>
     <use xlink:href="#DejaVuSerif-20" transform="translate(2227.636719 0.705729)"/>
     <use xlink:href="#DejaVuSerif-6c" transform="translate(2259.423828 0.705729)"/>
     <use xlink:href="#DejaVuSerif-69" transform="translate(2291.40625 0.705729)"/>
     <use xlink:href="#DejaVuSerif-6e" transform="translate(2323.388672 0.705729)"/>
     <use xlink:href="#DejaVuSerif-65" transform="translate(2387.792969 0.705729)"/>
     <use xlink:href="#DejaVuSerif-61" transform="translate(2446.972656 0.705729)"/>
     <use xlink:href="#DejaVuSerif-72" transform="translate(2506.591797 0.705729)"/>
     <use xlink:href="#DejaVuSerif-20" transform="translate(2554.394531 0.705729)"/>
     <use xlink:href="#DejaVuSerif-70" transform="translate(2586.181641 0.705729)"/>
     <use xlink:href="#DejaVuSerif-61" transform="translate(2650.195312 0.705729)"/>
     <use xlink:href="#DejaVuSerif-72" transform="translate(2709.814453 0.705729)"/>
     <use xlink:href="#DejaVuSerif-74" transform="translate(2757.617188 0.705729)"/>
     <use xlink:href="#DejaVuSerif-69" transform="translate(2797.802734 0.705729)"/>
     <use xlink:href="#DejaVuSerif-74" transform="translate(2829.785156 0.705729)"/>
     <use xlink:href="#DejaVuSerif-69" transform="translate(2869.970703 0.705729)"/>
     <use xlink:href="#DejaVuSerif-6f" transform="translate(2901.953125 0.705729)"/>
     <use xlink:href="#DejaVuSerif-6e" transform="translate(2962.158203 0.705729)"/>
     <use xlink:href="#DejaVuSerif-20" transform="translate(3026.5625 0.705729)"/>
     <use xlink:href="#DejaVuSerif-6f" transform="translate(3058.349609 0.705729)"/>
     <use xlink:href="#DejaVuSerif-66" transform="translate(3118.554688 0.705729)"/>
     <use xlink:href="#DejaVuSerif-20" transform="translate(3155.566406 0.705729)"/>
     <use xlink:href="#Cmmi10-53" transform="translate(3187.353516 0.705729)"/>
     <use xlink:href="#DejaVuSerif-20" transform="translate(3248.632812 0.705729)"/>
     <use xlink:href="#DejaVuSerif-69" transform="translate(3280.419922 0.705729)"/>
     <use xlink:href="#DejaVuSerif-73" transform="translate(3312.402344 0.705729)"/>
     <use xlink:href="#DejaVuSerif-20" transform="translate(3363.720703 0.705729)"/>
     <use xlink:href="#DejaVuSerif-61" transform="translate(3395.507812 0.705729)"/>
     <use xlink:href="#DejaVuSerif-6e" transform="translate(3455.126953 0.705729)"/>
     <use xlink:href="#DejaVuSerif-20" transform="translate(3519.53125 0.705729)"/>
     <use xlink:href="#DejaVuSerif-75" transform="translate(3551.318359 0.705729)"/>
     <use xlink:href="#DejaVuSerif-6e" transform="translate(3615.722656 0.705729)"/>
     <use xlink:href="#DejaVuSerif-6f" transform="translate(3680.126953 0.705729)"/>
     <use xlink:href="#DejaVuSerif-72" transform="translate(3740.332031 0.705729)"/>
     <use xlink:href="#DejaVuSerif-64" transform="translate(3788.134766 0.705729)"/>
     <use xlink:href="#DejaVuSerif-65" transform="translate(3852.148438 0.705729)"/>
     <use xlink:href="#DejaVuSerif-72" transform="translate(3911.328125 0.705729)"/>
     <use xlink:href="#DejaVuSerif-65" transform="translate(3959.130859 0.705729)"/>
     <use xlink:href="#DejaVuSerif-64" transform="translate(4018.310547 0.705729)"/>
     <use xlink:href="#DejaVuSerif-20" transform="translate(4082.324219 0.705729)"/>
     <use xlink:href="#DejaVuSerif-70" transform="translate(4114.111328 0.705729)"/>
     <use xlink:href="#DejaVuSerif-61" transform="translate(4178.125 0.705729)"/>
     <use xlink:href="#DejaVuSerif-69" transform="translate(4237.744141 0.705729)"/>
     <use xlink:href="#DejaVuSerif-72" transform="translate(4269.726562 0.705729)"/>
     <use xlink:href="#DejaVuSerif-20" transform="translate(4317.529297 0.705729)"/>
     <use xlink:href="#Cmex10-a9" transform="translate(4349.316406 94)"/>
     <use xlink:href="#Cmmi10-41" transform="translate(4407.617188 0.705729)"/>
     <use xlink:href="#Cmmi10-3b" transform="translate(4482.617188 0.705729)"/>
     <use xlink:href="#Cmmi10-42" transform="translate(4527.861328 0.705729)"/>
     <use xlink:href="#Cmex10-aa" transform="translate(4603.642578 94)"/>
     <use xlink:href="#DejaVuSerif-20" transform="translate(4661.943359 0.705729)"/>
     <use xlink:href="#DejaVuSerif-6f" transform="translate(4693.730469 0.705729)"/>
     <use xlink:href="#DejaVuSerif-66" transform="translate(4753.935547 0.705729)"/>
     <use xlink:href="#DejaVuSerif-20" transform="translate(4790.947266 0.705729)"/>
     <use xlink:href="#DejaVuSerif-73" transform="translate(4822.734375 0.705729)"/>
     <use xlink:href="#DejaVuSerif-75" transform="translate(4874.052734 0.705729)"/>
     <use xlink:href="#DejaVuSerif-62" transform="translate(4938.457031 0.705729)"/>
     <use xlink:href="#DejaVuSerif-73" transform="translate(5002.470703 0.705729)"/>
     <use xlink:href="#DejaVuSerif-65" transform="translate(5053.789062 0.705729)"/>
     <use xlink:href="#DejaVuSerif-74" transform="translate(5112.96875 0.705729)"/>
     <use xlink:href="#DejaVuSerif-73" transform="translate(5153.154297 0.705729)"/>
     <use xlink:href="#DejaVuSerif-20" transform="translate(5204.472656 0.705729)"/>
     <use xlink:href="#DejaVuSerif-6f" transform="translate(5236.259766 0.705729)"/>
     <use xlink:href="#DejaVuSerif-66" transform="translate(5296.464844 0.705729)"/>
     <use xlink:href="#DejaVuSerif-20" transform="translate(5333.476562 0.705729)"/>
     <use xlink:href="#Cmmi10-53" transform="translate(5365.263672 0.705729)"/>
     <use xlink:href="#DejaVuSerif-20" transform="translate(5426.542969 0.705729)"/>
     <use xlink:href="#DejaVuSerif-73" transform="translate(5458.330078 0.705729)"/>
     <use xlink:href="#DejaVuSerif-75" transform="translate(5509.648438 0.705729)"/>
     <use xlink:href="#DejaVuSerif-63" transform="translate(5574.052734 0.705729)"/>
     <use xlink:href="#DejaVuSerif-68" transform="translate(5630.058594 0.705729)"/>
     <use xlink:href="#DejaVuSerif-20" transform="translate(5694.462891 0.705729)"/>
     <use xlink:href="#DejaVuSerif-74" transform="translate(5726.25 0.705729)"/>
     <use xlink:href="#DejaVuSerif-68" transform="translate(5766.435547 0.705729)"/>
     <use xlink:href="#DejaVuSerif-61" transform="translate(5830.839844 0.705729)"/>
     <use xlink:href="#DejaVuSerif-74" transform="translate(5890.458984 0.705729)"/>
     <use xlink:href="#DejaVuSerif-20" transform="translate(5930.644531 0.705729)"/>
     <use xlink:href="#Cmmi10-41" transform="translate(5962.431641 0.705729)"/>
     <use xlink:href="#Cmsy10-5b" transform="translate(6054.990234 0.705729)"/>
     <use xlink:href="#Cmmi10-42" transform="translate(6139.150391 0.705729)"/>
     <use xlink:href="#Cmr10-3d" transform="translate(6232.490234 0.705729)"/>
     <use xlink:href="#Cmmi10-53" transform="translate(6327.734375 0.705729)"/>
     <use xlink:href="#DejaVuSerif-2c" transform="translate(6389.013672 0.705729)"/>
     <use xlink:href="#DejaVuSerif-20" transform="translate(6420.800781 0.705729)"/>
     <use xlink:href="#Cmmi10-41" transform="translate(6452.587891 0.705729)"/>
     <use xlink:href="#Cmsy10-5c" transform="translate(6545.146484 0.705729)"/>
     <use xlink:href="#Cmmi10-42" transform="translate(6629.306641 0.705729)"/>
     <use xlink:href="#Cmr10-3d" transform="translate(6722.646484 0.705729)"/>
     <use xlink:href="#Cmsy10-3b" transform="translate(6817.890625 0.705729)"/>
     <use xlink:href="#DejaVuSerif-2c" transform="translate(6867.890625 0.705729)"/>
     <use xlink:href="#DejaVuSerif-20" transform="translate(6899.677734 0.705729)"/>
     <use xlink:href="#DejaVuSerif-61" transform="translate(6931.464844 0.705729)"/>
     <use xlink:href="#DejaVuSerif-6e" transform="translate(6991.083984 0.705729)"/>
     <use xlink:href="#DejaVuSerif-64" transform="translate(7055.488281 0.705729)"/>
     <use xlink:href="#DejaVuSerif-20" transform="translate(7119.501953 0.705729)"/>
     <use xlink:href="#Cmmi10-41" transform="translate(7151.289062 0.705729)"/>
     <use xlink:href="#DejaVuSerif-20" transform="translate(7226.289062 0.705729)"/>
     <use xlink:href="#DejaVuSerif-61" transform="translate(7258.076172 0.705729)"/>
     <use xlink:href="#DejaVuSerif-6e" transform="translate(7317.695312 0.705729)"/>
     <use xlink:href="#DejaVuSerif-64" transform="translate(7382.099609 0.705729)"/>
     <use xlink:href="#DejaVuSerif-20" transform="translate(7446.113281 0.705729)"/>
     <use xlink:href="#Cmmi10-42" transform="translate(7477.900391 0.705729)"/>
     <use xlink:href="#DejaVuSerif-20" transform="translate(7553.681641 0.705729)"/>
     <use xlink:href="#DejaVuSerif-6c" transform="translate(7585.46875 0.705729)"/>
     <use xlink:href="#DejaVuSerif-69" transform="translate(7617.451172 0.705729)"/>
     <use xlink:href="#DejaVuSerif-65" transform="translate(7649.433594 0.705729)"/>
     <use xlink:href="#DejaVuSerif-20" transform="translate(7708.613281 0.705729)"/>
     <use xlink:href="#DejaVuSerif-6f" transform="translate(7740.400391 0.705729)"/>
     <use xlink:href="#DejaVuSerif-6e" transform="translate(7800.605469 0.705729)"/>
     <use xlink:href="#DejaVuSerif-20" transform="translate(7865.009766 0.705729)"/>
     <use xlink:href="#DejaVuSerif-6f" transform="translate(7896.796875 0.705729)"/>
     <use xlink:href="#DejaVuSerif-70" transform="translate(7957.001953 0.705729)"/>
     <use xlink:href="#DejaVuSerif-70" transform="translate(8021.015625 0.705729)"/>
     <use xlink:href="#DejaVuSerif-6f" transform="translate(8085.029297 0.705729)"/>
     <use xlink:href="#DejaVuSerif-73" transform="translate(8145.234375 0.705729)"/>
     <use xlink:href="#DejaVuSerif-69" transform="translate(8196.552734 0.705729)"/>
     <use xlink:href="#DejaVuSerif-74" transform="translate(8228.535156 0.705729)"/>
     <use xlink:href="#DejaVuSerif-65" transform="translate(8268.720703 0.705729)"/>
     <use xlink:href="#DejaVuSerif-20" transform="translate(8327.900391 0.705729)"/>
     <use xlink:href="#DejaVuSerif-73" transform="translate(8359.6875 0.705729)"/>
     <use xlink:href="#DejaVuSerif-69" transform="translate(8411.005859 0.705729)"/>
     <use xlink:href="#DejaVuSerif-64" transform="translate(8442.988281 0.705729)"/>
     <use xlink:href="#DejaVuSerif-65" transform="translate(8507.001953 0.705729)"/>
     <use xlink:href="#DejaVuSerif-73" transform="translate(8566.181641 0.705729)"/>
     <use xlink:href="#DejaVuSerif-20" transform="translate(8617.5 0.705729)"/>
     <use xlink:href="#DejaVuSerif-6f" transform="translate(8649.287109 0.705729)"/>
     <use xlink:href="#DejaVuSerif-66" transform="translate(8709.492188 0.705729)"/>
     <use xlink:href="#DejaVuSerif-20" transform="translate(8746.503906 0.705729)"/>
     <use xlink:href="#DejaVuSerif-73" transform="translate(8778.291016 0.705729)"/>
     <use xlink:href="#DejaVuSerif-6f" transform="translate(8829.609375 0.705729)"/>
     <use xlink:href="#DejaVuSerif-6d" transform="translate(8889.814453 0.705729)"/>
     <use xlink:href="#DejaVuSerif-65" transform="translate(8984.638672 0.705729)"/>
     <use xlink:href="#DejaVuSerif-20" transform="translate(9043.818359 0.705729)"/>
     <use xlink:href="#DejaVuSerif-73" transform="translate(9075.605469 0.705729)"/>
     <use xlink:href="#DejaVuSerif-74" transform="translate(9126.923828 0.705729)"/>
     <use xlink:href="#DejaVuSerif-72" transform="translate(9167.109375 0.705729)"/>
     <use xlink:href="#DejaVuSerif-61" transform="translate(9214.912109 0.705729)"/>
     <use xlink:href="#DejaVuSerif-69" transform="translate(9274.53125 0.705729)"/>
     <use xlink:href="#DejaVuSerif-67" transform="translate(9306.513672 0.705729)"/>
     <use xlink:href="#DejaVuSerif-68" transform="translate(9370.527344 0.705729)"/>
     <use xlink:href="#DejaVuSerif-74" transform="translate(9434.931641 0.705729)"/>
     <use xlink:href="#DejaVuSerif-20" transform="translate(9475.117188 0.705729)"/>
     <use xlink:href="#DejaVuSerif-6c" transform="translate(9506.904297 0.705729)"/>
     <use xlink:href="#DejaVuSerif-69" transform="translate(9538.886719 0.705729)"/>
     <use xlink:href="#DejaVuSerif-6e" transform="translate(9570.869141 0.705729)"/>
     <use xlink:href="#DejaVuSerif-65" transform="translate(9635.273438 0.705729)"/>
     <use xlink:href="#DejaVuSerif-20" transform="translate(9694.453125 0.705729)"/>
     <use xlink:href="#DejaVuSerif-64" transform="translate(9726.240234 0.705729)"/>
     <use xlink:href="#DejaVuSerif-69" transform="translate(9790.253906 0.705729)"/>
     <use xlink:href="#DejaVuSerif-73" transform="translate(9822.236328 0.705729)"/>
     <use xlink:href="#DejaVuSerif-6a" transform="translate(9873.554688 0.705729)"/>
     <use xlink:href="#DejaVuSerif-6f" transform="translate(9904.560547 0.705729)"/>
     <use xlink:href="#DejaVuSerif-69" transform="translate(9964.765625 0.705729)"/>
     <use xlink:href="#DejaVuSerif-6e" transform="translate(9996.748047 0.705729)"/>
     <use xlink:href="#DejaVuSerif-74" transform="translate(10061.152344 0.705729)"/>
     <use xlink:href="#DejaVuSerif-20" transform="translate(10101.337891 0.705729)"/>
     <use xlink:href="#DejaVuSerif-66" transform="translate(10133.125 0.705729)"/>
     <use xlink:href="#DejaVuSerif-72" transform="translate(10170.136719 0.705729)"/>
     <use xlink:href="#DejaVuSerif-6f" transform="translate(10217.939453 0.705729)"/>
     <use xlink:href="#DejaVuSerif-6d" transform="translate(10278.144531 0.705729)"/>
     <use xlink:href="#DejaVuSerif-20" transform="translate(10372.96875 0.705729)"/>
     <use xlink:href="#Cmmi10-53" transform="translate(10404.755859 0.705729)"/>
     <use xlink:href="#DejaVuSerif-20" transform="translate(10466.035156 0.705729)"/>
     <use xlink:href="#DejaVuSerif-28" transform="translate(10497.822266 0.705729)"/>
     <use xlink:href="#Cmmi10-41" transform="translate(10536.835938 0.705729)"/>
     <use xlink:href="#DejaVuSerif-20" transform="translate(10611.835938 0.705729)"/>
     <use xlink:href="#DejaVuSerif-6f" transform="translate(10643.623047 0.705729)"/>
     <use xlink:href="#DejaVuSerif-72" transform="translate(10703.828125 0.705729)"/>
     <use xlink:href="#DejaVuSerif-20" transform="translate(10751.630859 0.705729)"/>
     <use xlink:href="#Cmmi10-42" transform="translate(10783.417969 0.705729)"/>
     <use xlink:href="#DejaVuSerif-20" transform="translate(10859.199219 0.705729)"/>
     <use xlink:href="#DejaVuSerif-6d" transform="translate(10890.986328 0.705729)"/>
     <use xlink:href="#DejaVuSerif-61" transform="translate(10985.810547 0.705729)"/>
     <use xlink:href="#DejaVuSerif-79" transform="translate(11045.429688 0.705729)"/>
     <use xlink:href="#DejaVuSerif-20" transform="translate(11101.923828 0.705729)"/>
     <use xlink:href="#DejaVuSerif-62" transform="translate(11133.710938 0.705729)"/>
     <use xlink:href="#DejaVuSerif-65" transform="translate(11197.724609 0.705729)"/>
     <use xlink:href="#DejaVuSerif-20" transform="translate(11256.904297 0.705729)"/>
     <use xlink:href="#DejaVuSerif-65" transform="translate(11288.691406 0.705729)"/>
     <use xlink:href="#DejaVuSerif-6d" transform="translate(11347.871094 0.705729)"/>
     <use xlink:href="#DejaVuSerif-70" transform="translate(11442.695312 0.705729)"/>
     <use xlink:href="#DejaVuSerif-74" transform="translate(11506.708984 0.705729)"/>
     <use xlink:href="#DejaVuSerif-79" transform="translate(11546.894531 0.705729)"/>
     <use xlink:href="#DejaVuSerif-29" transform="translate(11603.388672 0.705729)"/>
     <use xlink:href="#DejaVuSerif-2e" transform="translate(11642.402344 0.705729)"/>
     <use xlink:href="#DejaVuSerif-20" transform="translate(11674.189453 0.705729)"/>
     <use xlink:href="#DejaVuSerif-4c" transform="translate(11705.976562 0.705729)"/>
     <use xlink:href="#DejaVuSerif-65" transform="translate(11772.382812 0.705729)"/>
     <use xlink:href="#DejaVuSerif-74" transform="translate(11831.5625 0.705729)"/>
     <use xlink:href="#DejaVuSerif-20" transform="translate(11871.748047 0.705729)"/>
     <use xlink:href="#Cmmi10-4c" transform="translate(11903.535156 0.705729)"/>
     <use xlink:href="#Cmmi10-53" transform="translate(11971.552734 -16.300521) scale(0.7)"/>
     <use xlink:href="#DejaVuSerif-20" transform="translate(12020.825586 0.705729)"/>
     <use xlink:href="#DejaVuSerif-62" transform="translate(12052.612695 0.705729)"/>
     <use xlink:href="#DejaVuSerif-65" transform="translate(12116.626367 0.705729)"/>
     <use xlink:href="#DejaVuSerif-20" transform="translate(12175.806055 0.705729)"/>
     <use xlink:href="#DejaVuSerif-74" transform="translate(12207.593164 0.705729)"/>
     <use xlink:href="#DejaVuSerif-68" transform="translate(12247.778711 0.705729)"/>
     <use xlink:href="#DejaVuSerif-65" transform="translate(12312.183008 0.705729)"/>
     <use xlink:href="#DejaVuSerif-20" transform="translate(12371.362695 0.705729)"/>
     <use xlink:href="#DejaVuSerif-6e" transform="translate(12403.149805 0.705729)"/>
     <use xlink:href="#DejaVuSerif-75" transform="translate(12467.554102 0.705729)"/>
     <use xlink:href="#DejaVuSerif-6d" transform="translate(12531.958398 0.705729)"/>
     <use xlink:href="#DejaVuSerif-62" transform="translate(12626.782617 0.705729)"/>
     <use xlink:href="#DejaVuSerif-65" transform="translate(12690.796289 0.705729)"/>
     <use xlink:href="#DejaVuSerif-72" transform="translate(12749.975977 0.705729)"/>
     <use xlink:href="#DejaVuSerif-20" transform="translate(12797.778711 0.705729)"/>
     <use xlink:href="#DejaVuSerif-6f" transform="translate(12829.56582 0.705729)"/>
     <use xlink:href="#DejaVuSerif-66" transform="translate(12889.770898 0.705729)"/>
     <use xlink:href="#DejaVuSerif-20" transform="translate(12926.782617 0.705729)"/>
     <use xlink:href="#DejaVuSerif-6c" transform="translate(12958.569727 0.705729)"/>
     <use xlink:href="#DejaVuSerif-69" transform="translate(12990.552148 0.705729)"/>
     <use xlink:href="#DejaVuSerif-6e" transform="translate(13022.53457 0.705729)"/>
     <use xlink:href="#DejaVuSerif-65" transform="translate(13086.938867 0.705729)"/>
     <use xlink:href="#DejaVuSerif-61" transform="translate(13146.118555 0.705729)"/>
     <use xlink:href="#DejaVuSerif-72" transform="translate(13205.737695 0.705729)"/>
     <use xlink:href="#DejaVuSerif-20" transform="translate(13253.54043 0.705729)"/>
     <use xlink:href="#DejaVuSerif-70" transform="translate(13285.327539 0.705729)"/>
     <use xlink:href="#DejaVuSerif-61" transform="translate(13349.341211 0.705729)"/>
     <use xlink:href="#DejaVuSerif-72" transform="translate(13408.960352 0.705729)"/>
     <use xlink:href="#DejaVuSerif-74" transform="translate(13456.763086 0.705729)"/>
     <use xlink:href="#DejaVuSerif-69" transform="translate(13496.948633 0.705729)"/>
     <use xlink:href="#DejaVuSerif-74" transform="translate(13528.931055 0.705729)"/>
     <use xlink:href="#DejaVuSerif-69" transform="translate(13569.116602 0.705729)"/>
     <use xlink:href="#DejaVuSerif-6f" transform="translate(13601.099023 0.705729)"/>
     <use xlink:href="#DejaVuSerif-6e" transform="translate(13661.304102 0.705729)"/>
     <use xlink:href="#DejaVuSerif-73" transform="translate(13725.708398 0.705729)"/>
     <use xlink:href="#DejaVuSerif-20" transform="translate(13777.026758 0.705729)"/>
     <use xlink:href="#DejaVuSerif-6f" transform="translate(13808.813867 0.705729)"/>
     <use xlink:href="#DejaVuSerif-66" transform="translate(13869.018945 0.705729)"/>
     <use xlink:href="#DejaVuSerif-20" transform="translate(13906.030664 0.705729)"/>
     <use xlink:href="#Cmmi10-53" transform="translate(13937.817773 0.705729)"/>
     <use xlink:href="#DejaVuSerif-2e" transform="translate(13999.09707 0.705729)"/>
     <use xlink:href="#DejaVuSerif-20" transform="translate(14030.88418 0.705729)"/>
     <use xlink:href="#DejaVuSerif-46" transform="translate(14062.671289 0.705729)"/>
     <use xlink:href="#DejaVuSerif-6f" transform="translate(14132.056055 0.705729)"/>
     <use xlink:href="#DejaVuSerif-72" transform="translate(14192.261133 0.705729)"/>
     <use xlink:href="#DejaVuSerif-20" transform="translate(14240.063867 0.705729)"/>
     <use xlink:href="#DejaVuSerif-65" transform="translate(14271.850977 0.705729)"/>
     <use xlink:href="#DejaVuSerif-61" transform="translate(14331.030664 0.705729)"/>
     <use xlink:href="#DejaVuSerif-63" transform="translate(14390.649805 0.705729)"/>
     <use xlink:href="#DejaVuSerif-68" transform="translate(14446.655664 0.705729)"/>
     <use xlink:href="#DejaVuSerif-20" transform="translate(14511.059961 0.705729)"/>
     <use xlink:href="#DejaVuSerif-70" transform="translate(14542.84707 0.705729)"/>
     <use xlink:href="#DejaVuSerif-6f" transform="translate(14606.860742 0.705729)"/>
     <use xlink:href="#DejaVuSerif-73" transform="translate(14667.06582 0.705729)"/>
     <use xlink:href="#DejaVuSerif-69" transform="translate(14718.38418 0.705729)"/>
     <use xlink:href="#DejaVuSerif-74" transform="translate(14750.366602 0.705729)"/>
     <use xlink:href="#DejaVuSerif-69" transform="translate(14790.552148 0.705729)"/>
     <use xlink:href="#DejaVuSerif-76" transform="translate(14822.53457 0.705729)"/>
     <use xlink:href="#DejaVuSerif-65" transform="translate(14879.028711 0.705729)"/>
     <use xlink:href="#DejaVuSerif-20" transform="translate(14938.208398 0.705729)"/>
     <use xlink:href="#DejaVuSerif-69" transform="translate(14969.995508 0.705729)"/>
     <use xlink:href="#DejaVuSerif-6e" transform="translate(15001.97793 0.705729)"/>
     <use xlink:href="#DejaVuSerif-74" transform="translate(15066.382227 0.705729)"/>
     <use xlink:href="#DejaVuSerif-65" transform="translate(15106.567773 0.705729)"/>
     <use xlink:href="#DejaVuSerif-67" transform="translate(15165.747461 0.705729)"/>
     <use xlink:href="#DejaVuSerif-65" transform="translate(15229.761133 0.705729)"/>
     <use xlink:href="#DejaVuSerif-72" transform="translate(15288.94082 0.705729)"/>
     <use xlink:href="#DejaVuSerif-20" transform="translate(15336.743555 0.705729)"/>
     <use xlink:href="#Cmmi10-6e" transform="translate(15368.530664 0.705729)"/>
     <use xlink:href="#DejaVuSerif-2c" transform="translate(15428.54043 0.705729)"/>
     <use xlink:href="#DejaVuSerif-20" transform="translate(15460.327539 0.705729)"/>
     <use xlink:href="#DejaVuSerif-66" transform="translate(15492.114648 0.705729)"/>
     <use xlink:href="#DejaVuSerif-69" transform="translate(15529.126367 0.705729)"/>
     <use xlink:href="#DejaVuSerif-6e" transform="translate(15561.108789 0.705729)"/>
     <use xlink:href="#DejaVuSerif-64" transform="translate(15625.513086 0.705729)"/>
     <use xlink:href="#DejaVuSerif-20" transform="translate(15689.526758 0.705729)"/>
     <use xlink:href="#DejaVuSerif-74" transform="translate(15721.313867 0.705729)"/>
     <use xlink:href="#DejaVuSerif-68" transform="translate(15761.499414 0.705729)"/>
     <use xlink:href="#DejaVuSerif-65" transform="translate(15825.903711 0.705729)"/>
     <use xlink:href="#DejaVuSerif-20" transform="translate(15885.083398 0.705729)"/>
     <use xlink:href="#DejaVuSerif-6d" transform="translate(15916.870508 0.705729)"/>
     <use xlink:href="#DejaVuSerif-61" transform="translate(16011.694727 0.705729)"/>
     <use xlink:href="#DejaVuSerif-78" transform="translate(16071.313867 0.705729)"/>
     <use xlink:href="#DejaVuSerif-69" transform="translate(16127.710352 0.705729)"/>
     <use xlink:href="#DejaVuSerif-6d" transform="translate(16159.692773 0.705729)"/>
     <use xlink:href="#DejaVuSerif-75" transform="translate(16254.516992 0.705729)"/>
     <use xlink:href="#DejaVuSerif-6d" transform="translate(16318.921289 0.705729)"/>
     <use xlink:href="#DejaVuSerif-20" transform="translate(16413.745508 0.705729)"/>
     <use xlink:href="#DejaVuSerif-6f" transform="translate(16445.532617 0.705729)"/>
     <use xlink:href="#DejaVuSerif-66" transform="translate(16505.737695 0.705729)"/>
     <use xlink:href="#DejaVuSerif-20" transform="translate(16542.749414 0.705729)"/>
     <use xlink:href="#Cmmi10-4c" transform="translate(16574.536523 0.705729)"/>
     <use xlink:href="#Cmmi10-53" transform="translate(16642.554102 -16.300521) scale(0.7)"/>
     <use xlink:href="#DejaVuSerif-20" transform="translate(16691.826953 0.705729)"/>
     <use xlink:href="#DejaVuSerif-6f" transform="translate(16723.614062 0.705729)"/>
     <use xlink:href="#DejaVuSerif-76" transform="translate(16783.819141 0.705729)"/>
     <use xlink:href="#DejaVuSerif-65" transform="translate(16840.313281 0.705729)"/>
     <use xlink:href="#DejaVuSerif-72" transform="translate(16899.492969 0.705729)"/>
     <use xlink:href="#DejaVuSerif-20" transform="translate(16947.295703 0.705729)"/>
     <use xlink:href="#DejaVuSerif-61" transform="translate(16979.082812 0.705729)"/>
     <use xlink:href="#DejaVuSerif-6c" transform="translate(17038.701953 0.705729)"/>
     <use xlink:href="#DejaVuSerif-6c" transform="translate(17070.684375 0.705729)"/>
     <use xlink:href="#DejaVuSerif-20" transform="translate(17102.666797 0.705729)"/>
     <use xlink:href="#DejaVuSerif-73" transform="translate(17134.453906 0.705729)"/>
     <use xlink:href="#DejaVuSerif-65" transform="translate(17185.772266 0.705729)"/>
     <use xlink:href="#DejaVuSerif-74" transform="translate(17244.951953 0.705729)"/>
     <use xlink:href="#DejaVuSerif-73" transform="translate(17285.1375 0.705729)"/>
     <use xlink:href="#DejaVuSerif-20" transform="translate(17336.455859 0.705729)"/>
     <use xlink:href="#Cmmi10-53" transform="translate(17368.242969 0.705729)"/>
     <use xlink:href="#DejaVuSerif-20" transform="translate(17429.522266 0.705729)"/>
     <use xlink:href="#DejaVuSerif-6f" transform="translate(17461.309375 0.705729)"/>
     <use xlink:href="#DejaVuSerif-66" transform="translate(17521.514453 0.705729)"/>
     <use xlink:href="#DejaVuSerif-20" transform="translate(17558.526172 0.705729)"/>
     <use xlink:href="#Cmmi10-6e" transform="translate(17590.313281 0.705729)"/>
     <use xlink:href="#DejaVuSerif-20" transform="translate(17650.323047 0.705729)"/>
     <use xlink:href="#DejaVuSerif-70" transform="translate(17682.110156 0.705729)"/>
     <use xlink:href="#DejaVuSerif-6f" transform="translate(17746.123828 0.705729)"/>
     <use xlink:href="#DejaVuSerif-69" transform="translate(17806.328906 0.705729)"/>
     <use xlink:href="#DejaVuSerif-6e" transform="translate(17838.311328 0.705729)"/>
     <use xlink:href="#DejaVuSerif-74" transform="translate(17902.715625 0.705729)"/>
     <use xlink:href="#DejaVuSerif-73" transform="translate(17942.901172 0.705729)"/>
     <use xlink:href="#DejaVuSerif-2e" transform="translate(17994.219531 0.705729)"/>
    </g>
   </g>
  </g>
 </g>
</svg>
