<?xml version="1.0" encoding="utf-8" standalone="no"?>
<!DOCTYPE svg PUBLIC "-//W3C//DTD SVG 1.1//EN"
  "http://www.w3.org/Graphics/SVG/1.1/DTD/svg11.dtd">
<svg xmlns:xlink="http://www.w3.org/1999/xlink" width="881.04pt" height="228.4pt" viewBox="0 0 881.04 228.4" xmlns="http://www.w3.org/2000/svg" version="1.1">
 <metadata>
  <rdf:RDF xmlns:dc="http://purl.org/dc/elements/1.1/" xmlns:cc="http://creativecommons.org/ns#" xmlns:rdf="http://www.w3.org/1999/02/22-rdf-syntax-ns#">
   <cc:Work>
    <dc:type rdf:resource="http://purl.org/dc/dcmitype/StillImage"/>
    <dc:date>2025-05-29T18:43:53.888169</dc:date>
    <dc:format>image/svg+xml</dc:format>
    <dc:creator>
     <cc:Agent>
      <dc:title>Matplotlib v3.10.3, https://matplotlib.org/</dc:title>
     </cc:Agent>
    </dc:creator>
   </cc:Work>
  </rdf:RDF>
 </metadata>
 <defs>
  <style type="text/css">*{stroke-linejoin: round; stroke-linecap: butt}</style>
 </defs>
 <g id="figure_1">
  <g id="patch_1">
   <path d="M 0 228.4 
L 881.04 228.4 
L 881.04 0 
L 0 0 
z
" style="fill: #ffffff"/>
  </g>
  <g id="axes_1">
   <g id="text_1">
    <!-- Let $a_1, a_2, \dots, a_n$ be real numbers, and let $b_1, b_2, \dots, b_n$ be distinct positive integers. Suppose that there is a polynomial $f(x)$ satisfying the identity -->
    <g transform="translate(7.2 89.965063) scale(0.12 -0.12)">
     <defs>
      <path id="DejaVuSerif-4c" d="M 353 0 
L 353 331 
L 947 331 
L 947 4331 
L 353 4331 
L 353 4666 
L 2175 4666 
L 2175 4331 
L 1581 4331 
L 1581 384 
L 3713 384 
L 3713 1166 
L 4097 1166 
L 4097 0 
L 353 0 
z
" transform="scale(0.015625)"/>
      <path id="DejaVuSerif-65" d="M 3469 1600 
L 991 1600 
L 991 1575 
Q 991 903 1244 561 
Q 1497 219 1991 219 
Q 2369 219 2611 417 
Q 2853 616 2950 1006 
L 3413 1006 
Q 3275 459 2904 184 
Q 2534 -91 1931 -91 
Q 1203 -91 761 389 
Q 319 869 319 1663 
Q 319 2450 753 2931 
Q 1188 3413 1894 3413 
Q 2647 3413 3050 2948 
Q 3453 2484 3469 1600 
z
M 2791 1931 
Q 2772 2513 2545 2808 
Q 2319 3103 1894 3103 
Q 1497 3103 1269 2806 
Q 1041 2509 991 1931 
L 2791 1931 
z
" transform="scale(0.015625)"/>
      <path id="DejaVuSerif-74" d="M 691 2988 
L 184 2988 
L 184 3322 
L 691 3322 
L 691 4353 
L 1269 4353 
L 1269 3322 
L 2350 3322 
L 2350 2988 
L 1269 2988 
L 1269 878 
Q 1269 456 1350 337 
Q 1431 219 1650 219 
Q 1875 219 1978 351 
Q 2081 484 2088 781 
L 2522 781 
Q 2497 328 2275 118 
Q 2053 -91 1600 -91 
Q 1103 -91 897 129 
Q 691 350 691 878 
L 691 2988 
z
" transform="scale(0.015625)"/>
      <path id="DejaVuSerif-20" transform="scale(0.015625)"/>
      <path id="Cmmi10-61" d="M 1113 -72 
Q 709 -72 476 233 
Q 244 538 244 953 
Q 244 1363 456 1803 
Q 669 2244 1030 2536 
Q 1391 2828 1806 2828 
Q 1997 2828 2147 2725 
Q 2297 2622 2381 2444 
Q 2453 2700 2663 2700 
Q 2744 2700 2798 2651 
Q 2853 2603 2853 2522 
Q 2853 2503 2851 2493 
Q 2850 2484 2847 2472 
L 2400 684 
Q 2356 494 2356 372 
Q 2356 97 2541 97 
Q 2741 97 2845 351 
Q 2950 606 3022 941 
Q 3034 978 3072 978 
L 3150 978 
Q 3175 978 3190 956 
Q 3206 934 3206 916 
Q 3094 469 2961 198 
Q 2828 -72 2528 -72 
Q 2313 -72 2147 54 
Q 1981 181 1941 391 
Q 1528 -72 1113 -72 
z
M 1119 97 
Q 1350 97 1567 270 
Q 1784 444 1941 678 
Q 1947 684 1947 697 
L 2291 2088 
L 2297 2106 
Q 2259 2334 2132 2498 
Q 2006 2663 1791 2663 
Q 1575 2663 1389 2486 
Q 1203 2309 1075 2069 
Q 950 1813 836 1366 
Q 722 919 722 672 
Q 722 450 817 273 
Q 913 97 1119 97 
z
" transform="scale(0.015625)"/>
      <path id="Cmr10-31" d="M 594 0 
L 594 225 
Q 1394 225 1394 428 
L 1394 3788 
Q 1063 3628 556 3628 
L 556 3853 
Q 1341 3853 1741 4263 
L 1831 4263 
Q 1853 4263 1873 4245 
Q 1894 4228 1894 4206 
L 1894 428 
Q 1894 225 2694 225 
L 2694 0 
L 594 0 
z
" transform="scale(0.015625)"/>
      <path id="Cmmi10-3b" d="M 634 -1153 
Q 634 -1125 659 -1100 
Q 891 -878 1019 -587 
Q 1147 -297 1147 25 
L 1147 103 
Q 1044 0 891 0 
Q 744 0 641 103 
Q 538 206 538 353 
Q 538 503 641 603 
Q 744 703 891 703 
Q 1119 703 1216 492 
Q 1313 281 1313 25 
Q 1313 -331 1170 -651 
Q 1028 -972 769 -1228 
Q 744 -1241 728 -1241 
Q 697 -1241 665 -1212 
Q 634 -1184 634 -1153 
z
" transform="scale(0.015625)"/>
      <path id="Cmr10-32" d="M 319 0 
L 319 172 
Q 319 188 331 206 
L 1325 1306 
Q 1550 1550 1690 1715 
Q 1831 1881 1968 2097 
Q 2106 2313 2186 2536 
Q 2266 2759 2266 3009 
Q 2266 3272 2169 3511 
Q 2072 3750 1880 3894 
Q 1688 4038 1416 4038 
Q 1138 4038 916 3870 
Q 694 3703 603 3438 
Q 628 3444 672 3444 
Q 816 3444 917 3347 
Q 1019 3250 1019 3097 
Q 1019 2950 917 2848 
Q 816 2747 672 2747 
Q 522 2747 420 2851 
Q 319 2956 319 3097 
Q 319 3338 409 3548 
Q 500 3759 670 3923 
Q 841 4088 1055 4175 
Q 1269 4263 1509 4263 
Q 1875 4263 2190 4108 
Q 2506 3953 2690 3670 
Q 2875 3388 2875 3009 
Q 2875 2731 2753 2481 
Q 2631 2231 2440 2026 
Q 2250 1822 1953 1562 
Q 1656 1303 1563 1216 
L 838 519 
L 1453 519 
Q 1906 519 2211 526 
Q 2516 534 2534 550 
Q 2609 631 2688 1141 
L 2875 1141 
L 2694 0 
L 319 0 
z
" transform="scale(0.015625)"/>
      <path id="STIXGeneral-Regular-2026" d="M 5683 275 
Q 5683 134 5577 32 
Q 5472 -70 5325 -70 
Q 5178 -70 5075 32 
Q 4973 134 4973 281 
Q 4973 429 5078 534 
Q 5184 640 5331 640 
Q 5472 640 5577 531 
Q 5683 422 5683 275 
z
M 3552 275 
Q 3552 134 3446 32 
Q 3341 -70 3193 -70 
Q 3046 -70 2944 32 
Q 2842 134 2842 281 
Q 2842 429 2947 534 
Q 3053 640 3200 640 
Q 3341 640 3446 531 
Q 3552 422 3552 275 
z
M 1421 275 
Q 1421 134 1315 32 
Q 1210 -70 1062 -70 
Q 915 -70 812 32 
Q 710 134 710 281 
Q 710 429 816 534 
Q 922 640 1069 640 
Q 1210 640 1315 531 
Q 1421 422 1421 275 
z
" transform="scale(0.015625)"/>
      <path id="Cmmi10-6e" d="M 494 109 
Q 494 147 500 166 
L 978 2075 
Q 1025 2253 1025 2388 
Q 1025 2663 838 2663 
Q 638 2663 541 2423 
Q 444 2184 353 1819 
Q 353 1800 334 1789 
Q 316 1778 300 1778 
L 225 1778 
Q 203 1778 187 1801 
Q 172 1825 172 1844 
Q 241 2122 305 2315 
Q 369 2509 505 2668 
Q 641 2828 844 2828 
Q 1084 2828 1268 2676 
Q 1453 2525 1453 2291 
Q 1644 2541 1900 2684 
Q 2156 2828 2444 2828 
Q 2672 2828 2837 2750 
Q 3003 2672 3095 2514 
Q 3188 2356 3188 2138 
Q 3188 1875 3070 1503 
Q 2953 1131 2778 672 
Q 2688 463 2688 288 
Q 2688 97 2834 97 
Q 3084 97 3251 365 
Q 3419 634 3488 941 
Q 3500 978 3541 978 
L 3616 978 
Q 3641 978 3658 962 
Q 3675 947 3675 922 
Q 3675 916 3669 903 
Q 3581 541 3364 234 
Q 3147 -72 2822 -72 
Q 2597 -72 2437 83 
Q 2278 238 2278 459 
Q 2278 578 2328 709 
Q 2409 919 2514 1209 
Q 2619 1500 2686 1765 
Q 2753 2031 2753 2234 
Q 2753 2413 2679 2538 
Q 2606 2663 2431 2663 
Q 2197 2663 2000 2559 
Q 1803 2456 1656 2286 
Q 1509 2116 1388 1881 
L 953 141 
Q 931 53 854 -9 
Q 778 -72 684 -72 
Q 606 -72 550 -22 
Q 494 28 494 109 
z
" transform="scale(0.015625)"/>
      <path id="DejaVuSerif-62" d="M 738 331 
L 738 4531 
L 184 4531 
L 184 4863 
L 1313 4863 
L 1313 2803 
Q 1481 3116 1742 3264 
Q 2003 3413 2388 3413 
Q 3000 3413 3387 2928 
Q 3775 2444 3775 1663 
Q 3775 881 3387 395 
Q 3000 -91 2388 -91 
Q 2003 -91 1742 57 
Q 1481 206 1313 519 
L 1313 0 
L 184 0 
L 184 331 
L 738 331 
z
M 1313 1497 
Q 1313 897 1542 583 
Q 1772 269 2209 269 
Q 2650 269 2876 622 
Q 3103 975 3103 1663 
Q 3103 2353 2876 2703 
Q 2650 3053 2209 3053 
Q 1772 3053 1542 2737 
Q 1313 2422 1313 1825 
L 1313 1497 
z
" transform="scale(0.015625)"/>
      <path id="DejaVuSerif-72" d="M 3059 3328 
L 3059 2497 
L 2728 2497 
Q 2713 2744 2591 2866 
Q 2469 2988 2234 2988 
Q 1809 2988 1582 2694 
Q 1356 2400 1356 1850 
L 1356 331 
L 2022 331 
L 2022 0 
L 263 0 
L 263 331 
L 781 331 
L 781 2994 
L 231 2994 
L 231 3322 
L 1356 3322 
L 1356 2731 
Q 1525 3078 1790 3245 
Q 2056 3413 2438 3413 
Q 2578 3413 2733 3391 
Q 2888 3369 3059 3328 
z
" transform="scale(0.015625)"/>
      <path id="DejaVuSerif-61" d="M 2547 1044 
L 2547 1747 
L 1806 1747 
Q 1378 1747 1168 1562 
Q 959 1378 959 997 
Q 959 650 1171 447 
Q 1384 244 1747 244 
Q 2106 244 2326 466 
Q 2547 688 2547 1044 
z
M 3122 2075 
L 3122 331 
L 3634 331 
L 3634 0 
L 2547 0 
L 2547 359 
Q 2356 128 2106 18 
Q 1856 -91 1522 -91 
Q 969 -91 644 203 
Q 319 497 319 997 
Q 319 1513 691 1797 
Q 1063 2081 1741 2081 
L 2547 2081 
L 2547 2309 
Q 2547 2688 2317 2895 
Q 2088 3103 1672 3103 
Q 1328 3103 1125 2947 
Q 922 2791 872 2484 
L 575 2484 
L 575 3156 
Q 875 3284 1158 3348 
Q 1441 3413 1709 3413 
Q 2400 3413 2761 3070 
Q 3122 2728 3122 2075 
z
" transform="scale(0.015625)"/>
      <path id="DejaVuSerif-6c" d="M 1313 331 
L 1856 331 
L 1856 0 
L 184 0 
L 184 331 
L 738 331 
L 738 4531 
L 184 4531 
L 184 4863 
L 1313 4863 
L 1313 331 
z
" transform="scale(0.015625)"/>
      <path id="DejaVuSerif-6e" d="M 263 0 
L 263 331 
L 781 331 
L 781 2988 
L 231 2988 
L 231 3322 
L 1356 3322 
L 1356 2731 
Q 1516 3069 1770 3241 
Q 2025 3413 2363 3413 
Q 2913 3413 3172 3097 
Q 3431 2781 3431 2113 
L 3431 331 
L 3944 331 
L 3944 0 
L 2356 0 
L 2356 331 
L 2853 331 
L 2853 1931 
Q 2853 2541 2703 2767 
Q 2553 2994 2175 2994 
Q 1775 2994 1565 2701 
Q 1356 2409 1356 1850 
L 1356 331 
L 1856 331 
L 1856 0 
L 263 0 
z
" transform="scale(0.015625)"/>
      <path id="DejaVuSerif-75" d="M 2266 3322 
L 3341 3322 
L 3341 331 
L 3884 331 
L 3884 0 
L 2766 0 
L 2766 588 
Q 2606 256 2353 82 
Q 2100 -91 1766 -91 
Q 1213 -91 952 223 
Q 691 538 691 1209 
L 691 2988 
L 172 2988 
L 172 3322 
L 1269 3322 
L 1269 1388 
Q 1269 781 1417 556 
Q 1566 331 1947 331 
Q 2347 331 2556 625 
Q 2766 919 2766 1478 
L 2766 2988 
L 2266 2988 
L 2266 3322 
z
" transform="scale(0.015625)"/>
      <path id="DejaVuSerif-6d" d="M 3316 2675 
Q 3481 3041 3739 3227 
Q 3997 3413 4341 3413 
Q 4863 3413 5119 3089 
Q 5375 2766 5375 2113 
L 5375 331 
L 5894 331 
L 5894 0 
L 4300 0 
L 4300 331 
L 4800 331 
L 4800 2047 
Q 4800 2556 4650 2772 
Q 4500 2988 4153 2988 
Q 3769 2988 3567 2697 
Q 3366 2406 3366 1850 
L 3366 331 
L 3866 331 
L 3866 0 
L 2291 0 
L 2291 331 
L 2791 331 
L 2791 2069 
Q 2791 2566 2641 2777 
Q 2491 2988 2144 2988 
Q 1759 2988 1557 2697 
Q 1356 2406 1356 1850 
L 1356 331 
L 1856 331 
L 1856 0 
L 263 0 
L 263 331 
L 781 331 
L 781 2994 
L 231 2994 
L 231 3322 
L 1356 3322 
L 1356 2731 
Q 1516 3063 1762 3238 
Q 2009 3413 2322 3413 
Q 2709 3413 2968 3220 
Q 3228 3028 3316 2675 
z
" transform="scale(0.015625)"/>
      <path id="DejaVuSerif-73" d="M 359 184 
L 359 959 
L 691 959 
Q 703 588 923 403 
Q 1144 219 1575 219 
Q 1963 219 2166 364 
Q 2369 509 2369 788 
Q 2369 1006 2220 1140 
Q 2072 1275 1594 1428 
L 1178 1569 
Q 750 1706 558 1912 
Q 366 2119 366 2438 
Q 366 2894 700 3153 
Q 1034 3413 1625 3413 
Q 1888 3413 2178 3344 
Q 2469 3275 2778 3144 
L 2778 2419 
L 2447 2419 
Q 2434 2741 2221 2922 
Q 2009 3103 1644 3103 
Q 1281 3103 1095 2975 
Q 909 2847 909 2591 
Q 909 2381 1050 2254 
Q 1191 2128 1613 1997 
L 2069 1856 
Q 2541 1709 2748 1489 
Q 2956 1269 2956 922 
Q 2956 450 2595 179 
Q 2234 -91 1600 -91 
Q 1278 -91 972 -22 
Q 666 47 359 184 
z
" transform="scale(0.015625)"/>
      <path id="DejaVuSerif-2c" d="M 231 -622 
Q 525 -406 662 -114 
Q 800 178 800 594 
L 800 709 
L 1416 709 
Q 1391 175 1164 -208 
Q 938 -591 481 -872 
L 231 -622 
z
" transform="scale(0.015625)"/>
      <path id="DejaVuSerif-64" d="M 3359 331 
L 3909 331 
L 3909 0 
L 2784 0 
L 2784 519 
Q 2616 206 2355 57 
Q 2094 -91 1709 -91 
Q 1097 -91 708 395 
Q 319 881 319 1663 
Q 319 2444 706 2928 
Q 1094 3413 1709 3413 
Q 2094 3413 2355 3264 
Q 2616 3116 2784 2803 
L 2784 4531 
L 2241 4531 
L 2241 4863 
L 3359 4863 
L 3359 331 
z
M 2784 1497 
L 2784 1825 
Q 2784 2422 2554 2737 
Q 2325 3053 1888 3053 
Q 1444 3053 1217 2703 
Q 991 2353 991 1663 
Q 991 975 1217 622 
Q 1444 269 1888 269 
Q 2325 269 2554 583 
Q 2784 897 2784 1497 
z
" transform="scale(0.015625)"/>
      <path id="Cmmi10-62" d="M 1106 -72 
Q 719 -72 503 231 
Q 288 534 288 941 
Q 288 1000 317 1173 
Q 347 1347 347 1388 
L 966 3872 
Q 991 3981 997 4044 
Q 997 4147 581 4147 
Q 519 4147 519 4231 
Q 522 4247 533 4287 
Q 544 4328 561 4350 
Q 578 4372 609 4372 
L 1472 4441 
Q 1550 4441 1550 4359 
L 1075 2472 
Q 1438 2828 1806 2828 
Q 2078 2828 2273 2684 
Q 2469 2541 2566 2306 
Q 2663 2072 2663 1806 
Q 2663 1497 2542 1167 
Q 2422 838 2209 555 
Q 1997 272 1712 100 
Q 1428 -72 1106 -72 
z
M 1119 97 
Q 1338 97 1528 280 
Q 1719 463 1838 691 
Q 1966 947 2077 1386 
Q 2188 1825 2188 2088 
Q 2188 2316 2092 2489 
Q 1997 2663 1791 2663 
Q 1559 2663 1348 2492 
Q 1138 2322 978 2088 
L 800 1363 
Q 697 959 691 716 
Q 691 475 795 286 
Q 900 97 1119 97 
z
" transform="scale(0.015625)"/>
      <path id="DejaVuSerif-69" d="M 622 4353 
Q 622 4497 726 4603 
Q 831 4709 978 4709 
Q 1122 4709 1226 4603 
Q 1331 4497 1331 4353 
Q 1331 4206 1228 4103 
Q 1125 4000 978 4000 
Q 831 4000 726 4103 
Q 622 4206 622 4353 
z
M 1356 331 
L 1900 331 
L 1900 0 
L 231 0 
L 231 331 
L 781 331 
L 781 2988 
L 231 2988 
L 231 3322 
L 1356 3322 
L 1356 331 
z
" transform="scale(0.015625)"/>
      <path id="DejaVuSerif-63" d="M 3291 997 
Q 3169 466 2822 187 
Q 2475 -91 1925 -91 
Q 1200 -91 759 389 
Q 319 869 319 1663 
Q 319 2459 759 2936 
Q 1200 3413 1925 3413 
Q 2241 3413 2553 3339 
Q 2866 3266 3181 3116 
L 3181 2266 
L 2847 2266 
Q 2781 2703 2561 2903 
Q 2341 3103 1931 3103 
Q 1466 3103 1228 2742 
Q 991 2381 991 1663 
Q 991 944 1227 581 
Q 1463 219 1931 219 
Q 2303 219 2525 412 
Q 2747 606 2828 997 
L 3291 997 
z
" transform="scale(0.015625)"/>
      <path id="DejaVuSerif-70" d="M 1313 1825 
L 1313 1497 
Q 1313 897 1542 583 
Q 1772 269 2209 269 
Q 2650 269 2876 622 
Q 3103 975 3103 1663 
Q 3103 2353 2876 2703 
Q 2650 3053 2209 3053 
Q 1772 3053 1542 2737 
Q 1313 2422 1313 1825 
z
M 738 2988 
L 184 2988 
L 184 3322 
L 1313 3322 
L 1313 2803 
Q 1481 3116 1742 3264 
Q 2003 3413 2388 3413 
Q 3000 3413 3387 2928 
Q 3775 2444 3775 1663 
Q 3775 881 3387 395 
Q 3000 -91 2388 -91 
Q 2003 -91 1742 57 
Q 1481 206 1313 519 
L 1313 -997 
L 1856 -997 
L 1856 -1331 
L 184 -1331 
L 184 -997 
L 738 -997 
L 738 2988 
z
" transform="scale(0.015625)"/>
      <path id="DejaVuSerif-6f" d="M 1925 219 
Q 2388 219 2623 584 
Q 2859 950 2859 1663 
Q 2859 2375 2623 2739 
Q 2388 3103 1925 3103 
Q 1463 3103 1227 2739 
Q 991 2375 991 1663 
Q 991 950 1228 584 
Q 1466 219 1925 219 
z
M 1925 -91 
Q 1200 -91 759 389 
Q 319 869 319 1663 
Q 319 2456 758 2934 
Q 1197 3413 1925 3413 
Q 2653 3413 3092 2934 
Q 3531 2456 3531 1663 
Q 3531 869 3092 389 
Q 2653 -91 1925 -91 
z
" transform="scale(0.015625)"/>
      <path id="DejaVuSerif-76" d="M 1581 0 
L 359 2988 
L -19 2988 
L -19 3322 
L 1509 3322 
L 1509 2988 
L 978 2988 
L 1913 703 
L 2847 2988 
L 2350 2988 
L 2350 3322 
L 3597 3322 
L 3597 2988 
L 3225 2988 
L 2003 0 
L 1581 0 
z
" transform="scale(0.015625)"/>
      <path id="DejaVuSerif-67" d="M 3359 2988 
L 3359 72 
Q 3359 -644 2965 -1033 
Q 2572 -1422 1844 -1422 
Q 1516 -1422 1216 -1362 
Q 916 -1303 641 -1184 
L 641 -488 
L 941 -488 
Q 997 -813 1206 -963 
Q 1416 -1113 1806 -1113 
Q 2313 -1113 2548 -827 
Q 2784 -541 2784 72 
L 2784 519 
Q 2616 206 2355 57 
Q 2094 -91 1709 -91 
Q 1097 -91 708 395 
Q 319 881 319 1663 
Q 319 2444 706 2928 
Q 1094 3413 1709 3413 
Q 2094 3413 2355 3264 
Q 2616 3116 2784 2803 
L 2784 3322 
L 3909 3322 
L 3909 2988 
L 3359 2988 
z
M 2784 1825 
Q 2784 2422 2554 2737 
Q 2325 3053 1888 3053 
Q 1444 3053 1217 2703 
Q 991 2353 991 1663 
Q 991 975 1217 622 
Q 1444 269 1888 269 
Q 2325 269 2554 583 
Q 2784 897 2784 1497 
L 2784 1825 
z
" transform="scale(0.015625)"/>
      <path id="DejaVuSerif-2e" d="M 603 325 
Q 603 500 722 622 
Q 841 744 1019 744 
Q 1191 744 1312 622 
Q 1434 500 1434 325 
Q 1434 153 1312 31 
Q 1191 -91 1019 -91 
Q 841 -91 722 29 
Q 603 150 603 325 
z
" transform="scale(0.015625)"/>
      <path id="DejaVuSerif-53" d="M 594 225 
L 594 1288 
L 953 1284 
Q 969 753 1261 498 
Q 1553 244 2150 244 
Q 2706 244 2998 464 
Q 3291 684 3291 1106 
Q 3291 1444 3114 1625 
Q 2938 1806 2369 1978 
L 1753 2163 
Q 1084 2366 811 2669 
Q 538 2972 538 3500 
Q 538 4094 959 4422 
Q 1381 4750 2144 4750 
Q 2469 4750 2856 4679 
Q 3244 4609 3681 4475 
L 3681 3481 
L 3328 3481 
Q 3275 3975 2998 4195 
Q 2722 4416 2156 4416 
Q 1663 4416 1405 4214 
Q 1147 4013 1147 3628 
Q 1147 3294 1340 3103 
Q 1534 2913 2163 2725 
L 2741 2553 
Q 3375 2363 3645 2067 
Q 3916 1772 3916 1275 
Q 3916 597 3481 253 
Q 3047 -91 2188 -91 
Q 1803 -91 1404 -12 
Q 1006 66 594 225 
z
" transform="scale(0.015625)"/>
      <path id="DejaVuSerif-68" d="M 263 0 
L 263 331 
L 781 331 
L 781 4531 
L 231 4531 
L 231 4863 
L 1356 4863 
L 1356 2731 
Q 1516 3069 1770 3241 
Q 2025 3413 2363 3413 
Q 2913 3413 3172 3097 
Q 3431 2781 3431 2113 
L 3431 331 
L 3944 331 
L 3944 0 
L 2356 0 
L 2356 331 
L 2853 331 
L 2853 1931 
Q 2853 2541 2704 2764 
Q 2556 2988 2175 2988 
Q 1775 2988 1565 2697 
Q 1356 2406 1356 1850 
L 1356 331 
L 1856 331 
L 1856 0 
L 263 0 
z
" transform="scale(0.015625)"/>
      <path id="DejaVuSerif-79" d="M 1381 -609 
L 1600 -56 
L 359 2988 
L -19 2988 
L -19 3322 
L 1509 3322 
L 1509 2988 
L 978 2988 
L 1913 703 
L 2847 2988 
L 2350 2988 
L 2350 3322 
L 3597 3322 
L 3597 2988 
L 3225 2988 
L 1703 -750 
Q 1547 -1138 1356 -1280 
Q 1166 -1422 819 -1422 
Q 672 -1422 517 -1397 
Q 363 -1372 206 -1325 
L 206 -691 
L 500 -691 
Q 519 -903 608 -995 
Q 697 -1088 884 -1088 
Q 1056 -1088 1161 -992 
Q 1266 -897 1381 -609 
z
" transform="scale(0.015625)"/>
      <path id="Cmmi10-66" d="M 622 -1056 
Q 741 -1147 909 -1147 
Q 1138 -1147 1281 -641 
Q 1341 -397 1606 966 
L 1900 2534 
L 1350 2534 
Q 1288 2534 1288 2619 
Q 1313 2759 1369 2759 
L 1941 2759 
L 2016 3175 
Q 2053 3369 2084 3508 
Q 2116 3647 2152 3765 
Q 2188 3884 2259 4031 
Q 2369 4241 2555 4377 
Q 2741 4513 2956 4513 
Q 3097 4513 3230 4461 
Q 3363 4409 3447 4306 
Q 3531 4203 3531 4063 
Q 3531 3900 3423 3779 
Q 3316 3659 3163 3659 
Q 3059 3659 2986 3723 
Q 2913 3788 2913 3891 
Q 2913 4031 3008 4136 
Q 3103 4241 3244 4256 
Q 3125 4347 2950 4347 
Q 2853 4347 2767 4256 
Q 2681 4166 2656 4063 
Q 2616 3900 2478 3181 
L 2400 2759 
L 3059 2759 
Q 3122 2759 3122 2675 
Q 3119 2659 3109 2620 
Q 3100 2581 3083 2557 
Q 3066 2534 3041 2534 
L 2356 2534 
L 2059 972 
Q 2003 631 1929 279 
Q 1856 -72 1723 -442 
Q 1591 -813 1384 -1063 
Q 1178 -1313 897 -1313 
Q 681 -1313 511 -1189 
Q 341 -1066 341 -863 
Q 341 -700 445 -579 
Q 550 -459 709 -459 
Q 816 -459 887 -523 
Q 959 -588 959 -691 
Q 959 -828 857 -942 
Q 756 -1056 622 -1056 
z
" transform="scale(0.015625)"/>
      <path id="Cmr10-28" d="M 1984 -1588 
Q 1628 -1306 1370 -942 
Q 1113 -578 948 -165 
Q 784 247 703 697 
Q 622 1147 622 1600 
Q 622 2059 703 2509 
Q 784 2959 951 3375 
Q 1119 3791 1378 4153 
Q 1638 4516 1984 4788 
Q 1984 4800 2016 4800 
L 2075 4800 
Q 2094 4800 2109 4783 
Q 2125 4766 2125 4744 
Q 2125 4716 2113 4703 
Q 1800 4397 1592 4047 
Q 1384 3697 1257 3301 
Q 1131 2906 1075 2482 
Q 1019 2059 1019 1600 
Q 1019 -434 2106 -1491 
Q 2125 -1509 2125 -1544 
Q 2125 -1559 2108 -1579 
Q 2091 -1600 2075 -1600 
L 2016 -1600 
Q 1984 -1600 1984 -1588 
z
" transform="scale(0.015625)"/>
      <path id="Cmmi10-78" d="M 500 184 
Q 613 97 819 97 
Q 1019 97 1172 289 
Q 1325 481 1381 709 
L 1672 1844 
Q 1741 2153 1741 2266 
Q 1741 2425 1652 2544 
Q 1563 2663 1403 2663 
Q 1200 2663 1022 2536 
Q 844 2409 722 2214 
Q 600 2019 550 1819 
Q 538 1778 500 1778 
L 422 1778 
Q 372 1778 372 1838 
L 372 1856 
Q 434 2094 584 2320 
Q 734 2547 951 2687 
Q 1169 2828 1416 2828 
Q 1650 2828 1839 2703 
Q 2028 2578 2106 2363 
Q 2216 2559 2386 2693 
Q 2556 2828 2759 2828 
Q 2897 2828 3040 2779 
Q 3184 2731 3275 2631 
Q 3366 2531 3366 2381 
Q 3366 2219 3261 2101 
Q 3156 1984 2994 1984 
Q 2891 1984 2822 2050 
Q 2753 2116 2753 2216 
Q 2753 2350 2845 2451 
Q 2938 2553 3066 2572 
Q 2950 2663 2747 2663 
Q 2541 2663 2389 2472 
Q 2238 2281 2175 2047 
L 1894 916 
Q 1825 659 1825 494 
Q 1825 331 1917 214 
Q 2009 97 2163 97 
Q 2463 97 2698 361 
Q 2934 625 3009 941 
Q 3022 978 3059 978 
L 3138 978 
Q 3163 978 3178 961 
Q 3194 944 3194 922 
Q 3194 916 3188 903 
Q 3097 522 2806 225 
Q 2516 -72 2150 -72 
Q 1916 -72 1727 54 
Q 1538 181 1459 397 
Q 1359 209 1182 68 
Q 1006 -72 806 -72 
Q 669 -72 523 -23 
Q 378 25 287 125 
Q 197 225 197 378 
Q 197 528 301 651 
Q 406 775 563 775 
Q 669 775 741 711 
Q 813 647 813 544 
Q 813 409 723 309 
Q 634 209 500 184 
z
" transform="scale(0.015625)"/>
      <path id="Cmr10-29" d="M 416 -1600 
Q 359 -1600 359 -1544 
Q 359 -1516 372 -1503 
Q 1466 -434 1466 1600 
Q 1466 3634 384 4691 
Q 359 4706 359 4744 
Q 359 4766 376 4783 
Q 394 4800 416 4800 
L 475 4800 
Q 494 4800 506 4788 
Q 966 4425 1272 3906 
Q 1578 3388 1720 2800 
Q 1863 2213 1863 1600 
Q 1863 1147 1786 708 
Q 1709 269 1542 -157 
Q 1375 -584 1119 -945 
Q 863 -1306 506 -1588 
Q 494 -1600 475 -1600 
L 416 -1600 
z
" transform="scale(0.015625)"/>
      <path id="DejaVuSerif-66" d="M 2753 4078 
L 2450 4078 
Q 2447 4313 2317 4434 
Q 2188 4556 1941 4556 
Q 1619 4556 1487 4379 
Q 1356 4203 1356 3750 
L 1356 3322 
L 2284 3322 
L 2284 2988 
L 1356 2988 
L 1356 331 
L 2094 331 
L 2094 0 
L 231 0 
L 231 331 
L 781 331 
L 781 2988 
L 231 2988 
L 231 3322 
L 781 3322 
L 781 3738 
Q 781 4294 1070 4578 
Q 1359 4863 1919 4863 
Q 2128 4863 2337 4825 
Q 2547 4788 2753 4709 
L 2753 4078 
z
" transform="scale(0.015625)"/>
     </defs>
     <use xlink:href="#DejaVuSerif-4c" transform="translate(0 0.015625)"/>
     <use xlink:href="#DejaVuSerif-65" transform="translate(66.40625 0.015625)"/>
     <use xlink:href="#DejaVuSerif-74" transform="translate(125.585938 0.015625)"/>
     <use xlink:href="#DejaVuSerif-20" transform="translate(165.771484 0.015625)"/>
     <use xlink:href="#Cmmi10-61" transform="translate(197.558594 0.015625)"/>
     <use xlink:href="#Cmr10-31" transform="translate(250.341797 -16.990625) scale(0.7)"/>
     <use xlink:href="#Cmmi10-3b" transform="translate(291.719141 0.015625)"/>
     <use xlink:href="#Cmmi10-61" transform="translate(336.963281 0.015625)"/>
     <use xlink:href="#Cmr10-32" transform="translate(389.746484 -16.990625) scale(0.7)"/>
     <use xlink:href="#Cmmi10-3b" transform="translate(431.123828 0.015625)"/>
     <use xlink:href="#STIXGeneral-Regular-2026" transform="translate(493.926563 0.015625)"/>
     <use xlink:href="#Cmmi10-3b" transform="translate(611.485141 0.015625)"/>
     <use xlink:href="#Cmmi10-61" transform="translate(656.729282 0.015625)"/>
     <use xlink:href="#Cmmi10-6e" transform="translate(709.512485 -16.990625) scale(0.7)"/>
     <use xlink:href="#DejaVuSerif-20" transform="translate(757.896664 0.015625)"/>
     <use xlink:href="#DejaVuSerif-62" transform="translate(789.683774 0.015625)"/>
     <use xlink:href="#DejaVuSerif-65" transform="translate(853.697446 0.015625)"/>
     <use xlink:href="#DejaVuSerif-20" transform="translate(912.877133 0.015625)"/>
     <use xlink:href="#DejaVuSerif-72" transform="translate(944.664243 0.015625)"/>
     <use xlink:href="#DejaVuSerif-65" transform="translate(992.466977 0.015625)"/>
     <use xlink:href="#DejaVuSerif-61" transform="translate(1051.646664 0.015625)"/>
     <use xlink:href="#DejaVuSerif-6c" transform="translate(1111.265805 0.015625)"/>
     <use xlink:href="#DejaVuSerif-20" transform="translate(1143.248227 0.015625)"/>
     <use xlink:href="#DejaVuSerif-6e" transform="translate(1175.035336 0.015625)"/>
     <use xlink:href="#DejaVuSerif-75" transform="translate(1239.439633 0.015625)"/>
     <use xlink:href="#DejaVuSerif-6d" transform="translate(1303.84393 0.015625)"/>
     <use xlink:href="#DejaVuSerif-62" transform="translate(1398.668149 0.015625)"/>
     <use xlink:href="#DejaVuSerif-65" transform="translate(1462.681821 0.015625)"/>
     <use xlink:href="#DejaVuSerif-72" transform="translate(1521.861508 0.015625)"/>
     <use xlink:href="#DejaVuSerif-73" transform="translate(1569.664243 0.015625)"/>
     <use xlink:href="#DejaVuSerif-2c" transform="translate(1620.982602 0.015625)"/>
     <use xlink:href="#DejaVuSerif-20" transform="translate(1652.769711 0.015625)"/>
     <use xlink:href="#DejaVuSerif-61" transform="translate(1684.556821 0.015625)"/>
     <use xlink:href="#DejaVuSerif-6e" transform="translate(1744.175961 0.015625)"/>
     <use xlink:href="#DejaVuSerif-64" transform="translate(1808.580258 0.015625)"/>
     <use xlink:href="#DejaVuSerif-20" transform="translate(1872.59393 0.015625)"/>
     <use xlink:href="#DejaVuSerif-6c" transform="translate(1904.381039 0.015625)"/>
     <use xlink:href="#DejaVuSerif-65" transform="translate(1936.363461 0.015625)"/>
     <use xlink:href="#DejaVuSerif-74" transform="translate(1995.543149 0.015625)"/>
     <use xlink:href="#DejaVuSerif-20" transform="translate(2035.728696 0.015625)"/>
     <use xlink:href="#Cmmi10-62" transform="translate(2067.515805 0.015625)"/>
     <use xlink:href="#Cmr10-31" transform="translate(2110.435727 -16.990625) scale(0.7)"/>
     <use xlink:href="#Cmmi10-3b" transform="translate(2151.813071 0.015625)"/>
     <use xlink:href="#Cmmi10-62" transform="translate(2197.057211 0.015625)"/>
     <use xlink:href="#Cmr10-32" transform="translate(2239.977133 -16.990625) scale(0.7)"/>
     <use xlink:href="#Cmmi10-3b" transform="translate(2281.354477 0.015625)"/>
     <use xlink:href="#STIXGeneral-Regular-2026" transform="translate(2344.157211 0.015625)"/>
     <use xlink:href="#Cmmi10-3b" transform="translate(2461.71579 0.015625)"/>
     <use xlink:href="#Cmmi10-62" transform="translate(2506.95993 0.015625)"/>
     <use xlink:href="#Cmmi10-6e" transform="translate(2549.879852 -16.990625) scale(0.7)"/>
     <use xlink:href="#DejaVuSerif-20" transform="translate(2598.264032 0.015625)"/>
     <use xlink:href="#DejaVuSerif-62" transform="translate(2630.051141 0.015625)"/>
     <use xlink:href="#DejaVuSerif-65" transform="translate(2694.064813 0.015625)"/>
     <use xlink:href="#DejaVuSerif-20" transform="translate(2753.244501 0.015625)"/>
     <use xlink:href="#DejaVuSerif-64" transform="translate(2785.03161 0.015625)"/>
     <use xlink:href="#DejaVuSerif-69" transform="translate(2849.045282 0.015625)"/>
     <use xlink:href="#DejaVuSerif-73" transform="translate(2881.027704 0.015625)"/>
     <use xlink:href="#DejaVuSerif-74" transform="translate(2932.346063 0.015625)"/>
     <use xlink:href="#DejaVuSerif-69" transform="translate(2972.53161 0.015625)"/>
     <use xlink:href="#DejaVuSerif-6e" transform="translate(3004.514032 0.015625)"/>
     <use xlink:href="#DejaVuSerif-63" transform="translate(3068.918329 0.015625)"/>
     <use xlink:href="#DejaVuSerif-74" transform="translate(3124.924188 0.015625)"/>
     <use xlink:href="#DejaVuSerif-20" transform="translate(3165.109735 0.015625)"/>
     <use xlink:href="#DejaVuSerif-70" transform="translate(3196.896844 0.015625)"/>
     <use xlink:href="#DejaVuSerif-6f" transform="translate(3260.910516 0.015625)"/>
     <use xlink:href="#DejaVuSerif-73" transform="translate(3321.115594 0.015625)"/>
     <use xlink:href="#DejaVuSerif-69" transform="translate(3372.433954 0.015625)"/>
     <use xlink:href="#DejaVuSerif-74" transform="translate(3404.416376 0.015625)"/>
     <use xlink:href="#DejaVuSerif-69" transform="translate(3444.601923 0.015625)"/>
     <use xlink:href="#DejaVuSerif-76" transform="translate(3476.584344 0.015625)"/>
     <use xlink:href="#DejaVuSerif-65" transform="translate(3533.078485 0.015625)"/>
     <use xlink:href="#DejaVuSerif-20" transform="translate(3592.258173 0.015625)"/>
     <use xlink:href="#DejaVuSerif-69" transform="translate(3624.045282 0.015625)"/>
     <use xlink:href="#DejaVuSerif-6e" transform="translate(3656.027704 0.015625)"/>
     <use xlink:href="#DejaVuSerif-74" transform="translate(3720.432001 0.015625)"/>
     <use xlink:href="#DejaVuSerif-65" transform="translate(3760.617548 0.015625)"/>
     <use xlink:href="#DejaVuSerif-67" transform="translate(3819.797235 0.015625)"/>
     <use xlink:href="#DejaVuSerif-65" transform="translate(3883.810907 0.015625)"/>
     <use xlink:href="#DejaVuSerif-72" transform="translate(3942.990594 0.015625)"/>
     <use xlink:href="#DejaVuSerif-73" transform="translate(3990.793329 0.015625)"/>
     <use xlink:href="#DejaVuSerif-2e" transform="translate(4042.111688 0.015625)"/>
     <use xlink:href="#DejaVuSerif-20" transform="translate(4073.898798 0.015625)"/>
     <use xlink:href="#DejaVuSerif-53" transform="translate(4105.685907 0.015625)"/>
     <use xlink:href="#DejaVuSerif-75" transform="translate(4174.191766 0.015625)"/>
     <use xlink:href="#DejaVuSerif-70" transform="translate(4238.596063 0.015625)"/>
     <use xlink:href="#DejaVuSerif-70" transform="translate(4302.609735 0.015625)"/>
     <use xlink:href="#DejaVuSerif-6f" transform="translate(4366.623407 0.015625)"/>
     <use xlink:href="#DejaVuSerif-73" transform="translate(4426.828485 0.015625)"/>
     <use xlink:href="#DejaVuSerif-65" transform="translate(4478.146844 0.015625)"/>
     <use xlink:href="#DejaVuSerif-20" transform="translate(4537.326532 0.015625)"/>
     <use xlink:href="#DejaVuSerif-74" transform="translate(4569.113641 0.015625)"/>
     <use xlink:href="#DejaVuSerif-68" transform="translate(4609.299188 0.015625)"/>
     <use xlink:href="#DejaVuSerif-61" transform="translate(4673.703485 0.015625)"/>
     <use xlink:href="#DejaVuSerif-74" transform="translate(4733.322626 0.015625)"/>
     <use xlink:href="#DejaVuSerif-20" transform="translate(4773.508173 0.015625)"/>
     <use xlink:href="#DejaVuSerif-74" transform="translate(4805.295282 0.015625)"/>
     <use xlink:href="#DejaVuSerif-68" transform="translate(4845.480829 0.015625)"/>
     <use xlink:href="#DejaVuSerif-65" transform="translate(4909.885126 0.015625)"/>
     <use xlink:href="#DejaVuSerif-72" transform="translate(4969.064813 0.015625)"/>
     <use xlink:href="#DejaVuSerif-65" transform="translate(5016.867548 0.015625)"/>
     <use xlink:href="#DejaVuSerif-20" transform="translate(5076.047235 0.015625)"/>
     <use xlink:href="#DejaVuSerif-69" transform="translate(5107.834344 0.015625)"/>
     <use xlink:href="#DejaVuSerif-73" transform="translate(5139.816766 0.015625)"/>
     <use xlink:href="#DejaVuSerif-20" transform="translate(5191.135126 0.015625)"/>
     <use xlink:href="#DejaVuSerif-61" transform="translate(5222.922235 0.015625)"/>
     <use xlink:href="#DejaVuSerif-20" transform="translate(5282.541376 0.015625)"/>
     <use xlink:href="#DejaVuSerif-70" transform="translate(5314.328485 0.015625)"/>
     <use xlink:href="#DejaVuSerif-6f" transform="translate(5378.342157 0.015625)"/>
     <use xlink:href="#DejaVuSerif-6c" transform="translate(5438.547235 0.015625)"/>
     <use xlink:href="#DejaVuSerif-79" transform="translate(5470.529657 0.015625)"/>
     <use xlink:href="#DejaVuSerif-6e" transform="translate(5527.023798 0.015625)"/>
     <use xlink:href="#DejaVuSerif-6f" transform="translate(5591.428094 0.015625)"/>
     <use xlink:href="#DejaVuSerif-6d" transform="translate(5651.633173 0.015625)"/>
     <use xlink:href="#DejaVuSerif-69" transform="translate(5746.457391 0.015625)"/>
     <use xlink:href="#DejaVuSerif-61" transform="translate(5778.439813 0.015625)"/>
     <use xlink:href="#DejaVuSerif-6c" transform="translate(5838.058954 0.015625)"/>
     <use xlink:href="#DejaVuSerif-20" transform="translate(5870.041376 0.015625)"/>
     <use xlink:href="#Cmmi10-66" transform="translate(5901.828485 0.015625)"/>
     <use xlink:href="#Cmr10-28" transform="translate(5950.705438 0.015625)"/>
     <use xlink:href="#Cmmi10-78" transform="translate(5989.523798 0.015625)"/>
     <use xlink:href="#Cmr10-29" transform="translate(6046.603876 0.015625)"/>
     <use xlink:href="#DejaVuSerif-20" transform="translate(6085.422235 0.015625)"/>
     <use xlink:href="#DejaVuSerif-73" transform="translate(6117.209344 0.015625)"/>
     <use xlink:href="#DejaVuSerif-61" transform="translate(6168.527704 0.015625)"/>
     <use xlink:href="#DejaVuSerif-74" transform="translate(6228.146844 0.015625)"/>
     <use xlink:href="#DejaVuSerif-69" transform="translate(6268.332391 0.015625)"/>
     <use xlink:href="#DejaVuSerif-73" transform="translate(6300.314813 0.015625)"/>
     <use xlink:href="#DejaVuSerif-66" transform="translate(6351.633173 0.015625)"/>
     <use xlink:href="#DejaVuSerif-79" transform="translate(6388.644891 0.015625)"/>
     <use xlink:href="#DejaVuSerif-69" transform="translate(6445.139032 0.015625)"/>
     <use xlink:href="#DejaVuSerif-6e" transform="translate(6477.121454 0.015625)"/>
     <use xlink:href="#DejaVuSerif-67" transform="translate(6541.525751 0.015625)"/>
     <use xlink:href="#DejaVuSerif-20" transform="translate(6605.539423 0.015625)"/>
     <use xlink:href="#DejaVuSerif-74" transform="translate(6637.326532 0.015625)"/>
     <use xlink:href="#DejaVuSerif-68" transform="translate(6677.512079 0.015625)"/>
     <use xlink:href="#DejaVuSerif-65" transform="translate(6741.916376 0.015625)"/>
     <use xlink:href="#DejaVuSerif-20" transform="translate(6801.096063 0.015625)"/>
     <use xlink:href="#DejaVuSerif-69" transform="translate(6832.883173 0.015625)"/>
     <use xlink:href="#DejaVuSerif-64" transform="translate(6864.865594 0.015625)"/>
     <use xlink:href="#DejaVuSerif-65" transform="translate(6928.879266 0.015625)"/>
     <use xlink:href="#DejaVuSerif-6e" transform="translate(6988.058954 0.015625)"/>
     <use xlink:href="#DejaVuSerif-74" transform="translate(7052.463251 0.015625)"/>
     <use xlink:href="#DejaVuSerif-69" transform="translate(7092.648798 0.015625)"/>
     <use xlink:href="#DejaVuSerif-74" transform="translate(7124.631219 0.015625)"/>
     <use xlink:href="#DejaVuSerif-79" transform="translate(7164.816766 0.015625)"/>
    </g>
    <!-- \[ -->
    <g transform="translate(436.157812 103.906813) scale(0.12 -0.12)">
     <defs>
      <path id="DejaVuSerif-5c" d="M 500 4666 
L 2156 -594 
L 1656 -594 
L 0 4666 
L 500 4666 
z
" transform="scale(0.015625)"/>
      <path id="DejaVuSerif-5b" d="M 550 4863 
L 2003 4863 
L 2003 4531 
L 1147 4531 
L 1147 -513 
L 2003 -513 
L 2003 -844 
L 550 -844 
L 550 4863 
z
" transform="scale(0.015625)"/>
     </defs>
     <use xlink:href="#DejaVuSerif-5c"/>
     <use xlink:href="#DejaVuSerif-5b" transform="translate(33.691406 0)"/>
    </g>
    <!-- (1-x)^n f(x) = 1 + \sum_{i=1}^n a_i x^{b_i}. -->
    <g transform="translate(300.054375 117.344188) scale(0.12 -0.12)">
     <defs>
      <path id="DejaVuSerif-28" d="M 2041 -997 
Q 1281 -656 893 83 
Q 506 822 506 1931 
Q 506 3044 893 3783 
Q 1281 4522 2041 4863 
L 2041 4556 
Q 1559 4225 1350 3623 
Q 1141 3022 1141 1931 
Q 1141 844 1350 242 
Q 1559 -359 2041 -691 
L 2041 -997 
z
" transform="scale(0.015625)"/>
      <path id="DejaVuSerif-31" d="M 909 0 
L 909 331 
L 1722 331 
L 1722 4213 
L 781 3603 
L 781 4013 
L 1919 4750 
L 2350 4750 
L 2350 331 
L 3163 331 
L 3163 0 
L 909 0 
z
" transform="scale(0.015625)"/>
      <path id="DejaVuSerif-2d" d="M 281 1959 
L 1881 1959 
L 1881 1472 
L 281 1472 
L 281 1959 
z
" transform="scale(0.015625)"/>
      <path id="DejaVuSerif-78" d="M 1863 2028 
L 2559 2988 
L 2113 2988 
L 2113 3322 
L 3391 3322 
L 3391 2988 
L 2950 2988 
L 2059 1759 
L 3097 331 
L 3531 331 
L 3531 0 
L 1997 0 
L 1997 331 
L 2419 331 
L 1697 1325 
L 972 331 
L 1403 331 
L 1403 0 
L 141 0 
L 141 331 
L 581 331 
L 1497 1594 
L 488 2988 
L 78 2988 
L 78 3322 
L 1563 3322 
L 1563 2988 
L 1166 2988 
L 1863 2028 
z
" transform="scale(0.015625)"/>
      <path id="DejaVuSerif-29" d="M 453 -997 
L 453 -691 
Q 934 -359 1145 242 
Q 1356 844 1356 1931 
Q 1356 3022 1145 3623 
Q 934 4225 453 4556 
L 453 4863 
Q 1216 4522 1603 3783 
Q 1991 3044 1991 1931 
Q 1991 822 1603 83 
Q 1216 -656 453 -997 
z
" transform="scale(0.015625)"/>
      <path id="DejaVuSerif-5e" d="M 2988 4666 
L 4684 2925 
L 4206 2925 
L 2681 4116 
L 1159 2925 
L 678 2925 
L 2375 4666 
L 2988 4666 
z
" transform="scale(0.015625)"/>
      <path id="DejaVuSerif-3d" d="M 678 2894 
L 4684 2894 
L 4684 2394 
L 678 2394 
L 678 2894 
z
M 678 1619 
L 4684 1619 
L 4684 1119 
L 678 1119 
L 678 1619 
z
" transform="scale(0.015625)"/>
      <path id="DejaVuSerif-2b" d="M 2931 4013 
L 2931 2259 
L 4684 2259 
L 4684 1753 
L 2931 1753 
L 2931 0 
L 2431 0 
L 2431 1753 
L 678 1753 
L 678 2259 
L 2431 2259 
L 2431 4013 
L 2931 4013 
z
" transform="scale(0.015625)"/>
      <path id="DejaVuSerif-5f" d="M 3200 -1259 
L 3200 -1509 
L 0 -1509 
L 0 -1259 
L 3200 -1259 
z
" transform="scale(0.015625)"/>
      <path id="DejaVuSerif-7b" d="M 3272 -716 
L 3272 -1044 
L 3078 -1044 
Q 2300 -1044 2036 -812 
Q 1772 -581 1772 109 
L 1772 916 
Q 1772 1384 1603 1565 
Q 1434 1747 991 1747 
L 800 1747 
L 800 2075 
L 991 2075 
Q 1434 2075 1603 2256 
Q 1772 2438 1772 2906 
L 1772 3713 
Q 1772 4403 2036 4633 
Q 2300 4863 3078 4863 
L 3272 4863 
L 3272 4538 
L 3059 4538 
Q 2619 4538 2484 4400 
Q 2350 4263 2350 3822 
L 2350 2925 
Q 2350 2431 2194 2218 
Q 2038 2006 1631 1913 
Q 2044 1806 2197 1597 
Q 2350 1388 2350 897 
L 2350 0 
Q 2350 -441 2484 -578 
Q 2619 -716 3059 -716 
L 3272 -716 
z
" transform="scale(0.015625)"/>
      <path id="DejaVuSerif-7d" d="M 800 -716 
L 1019 -716 
Q 1456 -716 1589 -580 
Q 1722 -444 1722 0 
L 1722 897 
Q 1722 1388 1875 1597 
Q 2028 1806 2438 1913 
Q 2031 2006 1876 2218 
Q 1722 2431 1722 2925 
L 1722 3822 
Q 1722 4266 1589 4402 
Q 1456 4538 1019 4538 
L 800 4538 
L 800 4863 
L 997 4863 
Q 1775 4863 2036 4633 
Q 2297 4403 2297 3713 
L 2297 2906 
Q 2297 2438 2465 2256 
Q 2634 2075 3078 2075 
L 3272 2075 
L 3272 1747 
L 3078 1747 
Q 2634 1747 2465 1565 
Q 2297 1384 2297 916 
L 2297 109 
Q 2297 -581 2036 -812 
Q 1775 -1044 997 -1044 
L 800 -1044 
L 800 -716 
z
" transform="scale(0.015625)"/>
     </defs>
     <use xlink:href="#DejaVuSerif-28"/>
     <use xlink:href="#DejaVuSerif-31" transform="translate(39.013672 0)"/>
     <use xlink:href="#DejaVuSerif-2d" transform="translate(102.636719 0)"/>
     <use xlink:href="#DejaVuSerif-78" transform="translate(136.425781 0)"/>
     <use xlink:href="#DejaVuSerif-29" transform="translate(192.822266 0)"/>
     <use xlink:href="#DejaVuSerif-5e" transform="translate(231.835938 0)"/>
     <use xlink:href="#DejaVuSerif-6e" transform="translate(315.625 0)"/>
     <use xlink:href="#DejaVuSerif-20" transform="translate(380.029297 0)"/>
     <use xlink:href="#DejaVuSerif-66" transform="translate(411.816406 0)"/>
     <use xlink:href="#DejaVuSerif-28" transform="translate(448.828125 0)"/>
     <use xlink:href="#DejaVuSerif-78" transform="translate(487.841797 0)"/>
     <use xlink:href="#DejaVuSerif-29" transform="translate(544.238281 0)"/>
     <use xlink:href="#DejaVuSerif-20" transform="translate(583.251953 0)"/>
     <use xlink:href="#DejaVuSerif-3d" transform="translate(615.039062 0)"/>
     <use xlink:href="#DejaVuSerif-20" transform="translate(698.828125 0)"/>
     <use xlink:href="#DejaVuSerif-31" transform="translate(730.615234 0)"/>
     <use xlink:href="#DejaVuSerif-20" transform="translate(794.238281 0)"/>
     <use xlink:href="#DejaVuSerif-2b" transform="translate(826.025391 0)"/>
     <use xlink:href="#DejaVuSerif-20" transform="translate(909.814453 0)"/>
     <use xlink:href="#DejaVuSerif-5c" transform="translate(941.601562 0)"/>
     <use xlink:href="#DejaVuSerif-73" transform="translate(975.292969 0)"/>
     <use xlink:href="#DejaVuSerif-75" transform="translate(1026.611328 0)"/>
     <use xlink:href="#DejaVuSerif-6d" transform="translate(1091.015625 0)"/>
     <use xlink:href="#DejaVuSerif-5f" transform="translate(1185.839844 0)"/>
     <use xlink:href="#DejaVuSerif-7b" transform="translate(1235.839844 0)"/>
     <use xlink:href="#DejaVuSerif-69" transform="translate(1299.462891 0)"/>
     <use xlink:href="#DejaVuSerif-3d" transform="translate(1331.445312 0)"/>
     <use xlink:href="#DejaVuSerif-31" transform="translate(1415.234375 0)"/>
     <use xlink:href="#DejaVuSerif-7d" transform="translate(1478.857422 0)"/>
     <use xlink:href="#DejaVuSerif-5e" transform="translate(1542.480469 0)"/>
     <use xlink:href="#DejaVuSerif-6e" transform="translate(1626.269531 0)"/>
     <use xlink:href="#DejaVuSerif-20" transform="translate(1690.673828 0)"/>
     <use xlink:href="#DejaVuSerif-61" transform="translate(1722.460938 0)"/>
     <use xlink:href="#DejaVuSerif-5f" transform="translate(1782.080078 0)"/>
     <use xlink:href="#DejaVuSerif-69" transform="translate(1832.080078 0)"/>
     <use xlink:href="#DejaVuSerif-20" transform="translate(1864.0625 0)"/>
     <use xlink:href="#DejaVuSerif-78" transform="translate(1895.849609 0)"/>
     <use xlink:href="#DejaVuSerif-5e" transform="translate(1952.246094 0)"/>
     <use xlink:href="#DejaVuSerif-7b" transform="translate(2036.035156 0)"/>
     <use xlink:href="#DejaVuSerif-62" transform="translate(2099.658203 0)"/>
     <use xlink:href="#DejaVuSerif-5f" transform="translate(2163.671875 0)"/>
     <use xlink:href="#DejaVuSerif-69" transform="translate(2213.671875 0)"/>
     <use xlink:href="#DejaVuSerif-7d" transform="translate(2245.654297 0)"/>
     <use xlink:href="#DejaVuSerif-2e" transform="translate(2309.277344 0)"/>
    </g>
    <!-- \] -->
    <g transform="translate(436.157812 131.115313) scale(0.12 -0.12)">
     <defs>
      <path id="DejaVuSerif-5d" d="M 1947 4863 
L 1947 -844 
L 494 -844 
L 494 -513 
L 1350 -513 
L 1350 4531 
L 494 4531 
L 494 4863 
L 1947 4863 
z
" transform="scale(0.015625)"/>
     </defs>
     <use xlink:href="#DejaVuSerif-5c"/>
     <use xlink:href="#DejaVuSerif-5d" transform="translate(33.691406 0)"/>
    </g>
    <!-- Find a simple expression (not involving any sums) for $f(1)$ in terms of $b_1, b_2, \dots, b_n$ and $n$ (but independent of $a_1, a_2, \dots, a_n$). -->
    <g transform="translate(75.84 144.554938) scale(0.12 -0.12)">
     <defs>
      <path id="DejaVuSerif-46" d="M 353 0 
L 353 331 
L 947 331 
L 947 4331 
L 353 4331 
L 353 4666 
L 4172 4666 
L 4172 3628 
L 3788 3628 
L 3788 4281 
L 1581 4281 
L 1581 2719 
L 3175 2719 
L 3175 3303 
L 3559 3303 
L 3559 1753 
L 3175 1753 
L 3175 2338 
L 1581 2338 
L 1581 331 
L 2328 331 
L 2328 0 
L 353 0 
z
" transform="scale(0.015625)"/>
     </defs>
     <use xlink:href="#DejaVuSerif-46" transform="translate(0 0.015625)"/>
     <use xlink:href="#DejaVuSerif-69" transform="translate(69.384766 0.015625)"/>
     <use xlink:href="#DejaVuSerif-6e" transform="translate(101.367188 0.015625)"/>
     <use xlink:href="#DejaVuSerif-64" transform="translate(165.771484 0.015625)"/>
     <use xlink:href="#DejaVuSerif-20" transform="translate(229.785156 0.015625)"/>
     <use xlink:href="#DejaVuSerif-61" transform="translate(261.572266 0.015625)"/>
     <use xlink:href="#DejaVuSerif-20" transform="translate(321.191406 0.015625)"/>
     <use xlink:href="#DejaVuSerif-73" transform="translate(352.978516 0.015625)"/>
     <use xlink:href="#DejaVuSerif-69" transform="translate(404.296875 0.015625)"/>
     <use xlink:href="#DejaVuSerif-6d" transform="translate(436.279297 0.015625)"/>
     <use xlink:href="#DejaVuSerif-70" transform="translate(531.103516 0.015625)"/>
     <use xlink:href="#DejaVuSerif-6c" transform="translate(595.117188 0.015625)"/>
     <use xlink:href="#DejaVuSerif-65" transform="translate(627.099609 0.015625)"/>
     <use xlink:href="#DejaVuSerif-20" transform="translate(686.279297 0.015625)"/>
     <use xlink:href="#DejaVuSerif-65" transform="translate(718.066406 0.015625)"/>
     <use xlink:href="#DejaVuSerif-78" transform="translate(777.246094 0.015625)"/>
     <use xlink:href="#DejaVuSerif-70" transform="translate(833.642578 0.015625)"/>
     <use xlink:href="#DejaVuSerif-72" transform="translate(897.65625 0.015625)"/>
     <use xlink:href="#DejaVuSerif-65" transform="translate(945.458984 0.015625)"/>
     <use xlink:href="#DejaVuSerif-73" transform="translate(1004.638672 0.015625)"/>
     <use xlink:href="#DejaVuSerif-73" transform="translate(1055.957031 0.015625)"/>
     <use xlink:href="#DejaVuSerif-69" transform="translate(1107.275391 0.015625)"/>
     <use xlink:href="#DejaVuSerif-6f" transform="translate(1139.257812 0.015625)"/>
     <use xlink:href="#DejaVuSerif-6e" transform="translate(1199.462891 0.015625)"/>
     <use xlink:href="#DejaVuSerif-20" transform="translate(1263.867188 0.015625)"/>
     <use xlink:href="#DejaVuSerif-28" transform="translate(1295.654297 0.015625)"/>
     <use xlink:href="#DejaVuSerif-6e" transform="translate(1334.667969 0.015625)"/>
     <use xlink:href="#DejaVuSerif-6f" transform="translate(1399.072266 0.015625)"/>
     <use xlink:href="#DejaVuSerif-74" transform="translate(1459.277344 0.015625)"/>
     <use xlink:href="#DejaVuSerif-20" transform="translate(1499.462891 0.015625)"/>
     <use xlink:href="#DejaVuSerif-69" transform="translate(1531.25 0.015625)"/>
     <use xlink:href="#DejaVuSerif-6e" transform="translate(1563.232422 0.015625)"/>
     <use xlink:href="#DejaVuSerif-76" transform="translate(1627.636719 0.015625)"/>
     <use xlink:href="#DejaVuSerif-6f" transform="translate(1684.130859 0.015625)"/>
     <use xlink:href="#DejaVuSerif-6c" transform="translate(1744.335938 0.015625)"/>
     <use xlink:href="#DejaVuSerif-76" transform="translate(1776.318359 0.015625)"/>
     <use xlink:href="#DejaVuSerif-69" transform="translate(1832.8125 0.015625)"/>
     <use xlink:href="#DejaVuSerif-6e" transform="translate(1864.794922 0.015625)"/>
     <use xlink:href="#DejaVuSerif-67" transform="translate(1929.199219 0.015625)"/>
     <use xlink:href="#DejaVuSerif-20" transform="translate(1993.212891 0.015625)"/>
     <use xlink:href="#DejaVuSerif-61" transform="translate(2025 0.015625)"/>
     <use xlink:href="#DejaVuSerif-6e" transform="translate(2084.619141 0.015625)"/>
     <use xlink:href="#DejaVuSerif-79" transform="translate(2149.023438 0.015625)"/>
     <use xlink:href="#DejaVuSerif-20" transform="translate(2205.517578 0.015625)"/>
     <use xlink:href="#DejaVuSerif-73" transform="translate(2237.304688 0.015625)"/>
     <use xlink:href="#DejaVuSerif-75" transform="translate(2288.623047 0.015625)"/>
     <use xlink:href="#DejaVuSerif-6d" transform="translate(2353.027344 0.015625)"/>
     <use xlink:href="#DejaVuSerif-73" transform="translate(2447.851562 0.015625)"/>
     <use xlink:href="#DejaVuSerif-29" transform="translate(2499.169922 0.015625)"/>
     <use xlink:href="#DejaVuSerif-20" transform="translate(2538.183594 0.015625)"/>
     <use xlink:href="#DejaVuSerif-66" transform="translate(2569.970703 0.015625)"/>
     <use xlink:href="#DejaVuSerif-6f" transform="translate(2606.982422 0.015625)"/>
     <use xlink:href="#DejaVuSerif-72" transform="translate(2667.1875 0.015625)"/>
     <use xlink:href="#DejaVuSerif-20" transform="translate(2714.990234 0.015625)"/>
     <use xlink:href="#Cmmi10-66" transform="translate(2746.777344 0.015625)"/>
     <use xlink:href="#Cmr10-28" transform="translate(2795.654297 0.015625)"/>
     <use xlink:href="#Cmr10-31" transform="translate(2834.472656 0.015625)"/>
     <use xlink:href="#Cmr10-29" transform="translate(2884.472656 0.015625)"/>
     <use xlink:href="#DejaVuSerif-20" transform="translate(2923.291016 0.015625)"/>
     <use xlink:href="#DejaVuSerif-69" transform="translate(2955.078125 0.015625)"/>
     <use xlink:href="#DejaVuSerif-6e" transform="translate(2987.060547 0.015625)"/>
     <use xlink:href="#DejaVuSerif-20" transform="translate(3051.464844 0.015625)"/>
     <use xlink:href="#DejaVuSerif-74" transform="translate(3083.251953 0.015625)"/>
     <use xlink:href="#DejaVuSerif-65" transform="translate(3123.4375 0.015625)"/>
     <use xlink:href="#DejaVuSerif-72" transform="translate(3182.617188 0.015625)"/>
     <use xlink:href="#DejaVuSerif-6d" transform="translate(3230.419922 0.015625)"/>
     <use xlink:href="#DejaVuSerif-73" transform="translate(3325.244141 0.015625)"/>
     <use xlink:href="#DejaVuSerif-20" transform="translate(3376.5625 0.015625)"/>
     <use xlink:href="#DejaVuSerif-6f" transform="translate(3408.349609 0.015625)"/>
     <use xlink:href="#DejaVuSerif-66" transform="translate(3468.554688 0.015625)"/>
     <use xlink:href="#DejaVuSerif-20" transform="translate(3505.566406 0.015625)"/>
     <use xlink:href="#Cmmi10-62" transform="translate(3537.353516 0.015625)"/>
     <use xlink:href="#Cmr10-31" transform="translate(3580.273438 -16.990625) scale(0.7)"/>
     <use xlink:href="#Cmmi10-3b" transform="translate(3621.650781 0.015625)"/>
     <use xlink:href="#Cmmi10-62" transform="translate(3666.894922 0.015625)"/>
     <use xlink:href="#Cmr10-32" transform="translate(3709.814844 -16.990625) scale(0.7)"/>
     <use xlink:href="#Cmmi10-3b" transform="translate(3751.192187 0.015625)"/>
     <use xlink:href="#STIXGeneral-Regular-2026" transform="translate(3813.994922 0.015625)"/>
     <use xlink:href="#Cmmi10-3b" transform="translate(3931.5535 0.015625)"/>
     <use xlink:href="#Cmmi10-62" transform="translate(3976.797641 0.015625)"/>
     <use xlink:href="#Cmmi10-6e" transform="translate(4019.717563 -16.990625) scale(0.7)"/>
     <use xlink:href="#DejaVuSerif-20" transform="translate(4068.101743 0.015625)"/>
     <use xlink:href="#DejaVuSerif-61" transform="translate(4099.888852 0.015625)"/>
     <use xlink:href="#DejaVuSerif-6e" transform="translate(4159.507993 0.015625)"/>
     <use xlink:href="#DejaVuSerif-64" transform="translate(4223.912289 0.015625)"/>
     <use xlink:href="#DejaVuSerif-20" transform="translate(4287.925961 0.015625)"/>
     <use xlink:href="#Cmmi10-6e" transform="translate(4319.713071 0.015625)"/>
     <use xlink:href="#DejaVuSerif-20" transform="translate(4379.722836 0.015625)"/>
     <use xlink:href="#DejaVuSerif-28" transform="translate(4411.509946 0.015625)"/>
     <use xlink:href="#DejaVuSerif-62" transform="translate(4450.523618 0.015625)"/>
     <use xlink:href="#DejaVuSerif-75" transform="translate(4514.537289 0.015625)"/>
     <use xlink:href="#DejaVuSerif-74" transform="translate(4578.941586 0.015625)"/>
     <use xlink:href="#DejaVuSerif-20" transform="translate(4619.127133 0.015625)"/>
     <use xlink:href="#DejaVuSerif-69" transform="translate(4650.914243 0.015625)"/>
     <use xlink:href="#DejaVuSerif-6e" transform="translate(4682.896664 0.015625)"/>
     <use xlink:href="#DejaVuSerif-64" transform="translate(4747.300961 0.015625)"/>
     <use xlink:href="#DejaVuSerif-65" transform="translate(4811.314633 0.015625)"/>
     <use xlink:href="#DejaVuSerif-70" transform="translate(4870.494321 0.015625)"/>
     <use xlink:href="#DejaVuSerif-65" transform="translate(4934.507993 0.015625)"/>
     <use xlink:href="#DejaVuSerif-6e" transform="translate(4993.68768 0.015625)"/>
     <use xlink:href="#DejaVuSerif-64" transform="translate(5058.091977 0.015625)"/>
     <use xlink:href="#DejaVuSerif-65" transform="translate(5122.105649 0.015625)"/>
     <use xlink:href="#DejaVuSerif-6e" transform="translate(5181.285336 0.015625)"/>
     <use xlink:href="#DejaVuSerif-74" transform="translate(5245.689633 0.015625)"/>
     <use xlink:href="#DejaVuSerif-20" transform="translate(5285.87518 0.015625)"/>
     <use xlink:href="#DejaVuSerif-6f" transform="translate(5317.662289 0.015625)"/>
     <use xlink:href="#DejaVuSerif-66" transform="translate(5377.867368 0.015625)"/>
     <use xlink:href="#DejaVuSerif-20" transform="translate(5414.879086 0.015625)"/>
     <use xlink:href="#Cmmi10-61" transform="translate(5446.666196 0.015625)"/>
     <use xlink:href="#Cmr10-31" transform="translate(5499.449399 -16.990625) scale(0.7)"/>
     <use xlink:href="#Cmmi10-3b" transform="translate(5540.826743 0.015625)"/>
     <use xlink:href="#Cmmi10-61" transform="translate(5586.070883 0.015625)"/>
     <use xlink:href="#Cmr10-32" transform="translate(5638.854086 -16.990625) scale(0.7)"/>
     <use xlink:href="#Cmmi10-3b" transform="translate(5680.23143 0.015625)"/>
     <use xlink:href="#STIXGeneral-Regular-2026" transform="translate(5743.034164 0.015625)"/>
     <use xlink:href="#Cmmi10-3b" transform="translate(5860.592743 0.015625)"/>
     <use xlink:href="#Cmmi10-61" transform="translate(5905.836884 0.015625)"/>
     <use xlink:href="#Cmmi10-6e" transform="translate(5958.620087 -16.990625) scale(0.7)"/>
     <use xlink:href="#DejaVuSerif-29" transform="translate(6007.004266 0.015625)"/>
     <use xlink:href="#DejaVuSerif-2e" transform="translate(6046.017938 0.015625)"/>
    </g>
   </g>
  </g>
 </g>
</svg>
