<?xml version="1.0" encoding="utf-8" standalone="no"?>
<!DOCTYPE svg PUBLIC "-//W3C//DTD SVG 1.1//EN"
  "http://www.w3.org/Graphics/SVG/1.1/DTD/svg11.dtd">
<svg xmlns:xlink="http://www.w3.org/1999/xlink" width="1512.36pt" height="180.72pt" viewBox="0 0 1512.36 180.72" xmlns="http://www.w3.org/2000/svg" version="1.1">
 <metadata>
  <rdf:RDF xmlns:dc="http://purl.org/dc/elements/1.1/" xmlns:cc="http://creativecommons.org/ns#" xmlns:rdf="http://www.w3.org/1999/02/22-rdf-syntax-ns#">
   <cc:Work>
    <dc:type rdf:resource="http://purl.org/dc/dcmitype/StillImage"/>
    <dc:date>2025-05-29T18:44:08.209186</dc:date>
    <dc:format>image/svg+xml</dc:format>
    <dc:creator>
     <cc:Agent>
      <dc:title>Matplotlib v3.10.3, https://matplotlib.org/</dc:title>
     </cc:Agent>
    </dc:creator>
   </cc:Work>
  </rdf:RDF>
 </metadata>
 <defs>
  <style type="text/css">*{stroke-linejoin: round; stroke-linecap: butt}</style>
 </defs>
 <g id="figure_1">
  <g id="patch_1">
   <path d="M 0 180.72 
L 1512.36 180.72 
L 1512.36 0 
L 0 0 
z
" style="fill: #ffffff"/>
  </g>
  <g id="axes_1">
   <g id="text_1">
    <!-- Let $S=\{1,2,\dots,n\}$ for some integer $n&gt;1$. Say a permutation $\pi$ of $S$ has a \emph{local maximum} at $k \in S$ if -->
    <g transform="translate(433.56 53.569313) scale(0.12 -0.12)">
     <defs>
      <path id="DejaVuSerif-4c" d="M 353 0 
L 353 331 
L 947 331 
L 947 4331 
L 353 4331 
L 353 4666 
L 2175 4666 
L 2175 4331 
L 1581 4331 
L 1581 384 
L 3713 384 
L 3713 1166 
L 4097 1166 
L 4097 0 
L 353 0 
z
" transform="scale(0.015625)"/>
      <path id="DejaVuSerif-65" d="M 3469 1600 
L 991 1600 
L 991 1575 
Q 991 903 1244 561 
Q 1497 219 1991 219 
Q 2369 219 2611 417 
Q 2853 616 2950 1006 
L 3413 1006 
Q 3275 459 2904 184 
Q 2534 -91 1931 -91 
Q 1203 -91 761 389 
Q 319 869 319 1663 
Q 319 2450 753 2931 
Q 1188 3413 1894 3413 
Q 2647 3413 3050 2948 
Q 3453 2484 3469 1600 
z
M 2791 1931 
Q 2772 2513 2545 2808 
Q 2319 3103 1894 3103 
Q 1497 3103 1269 2806 
Q 1041 2509 991 1931 
L 2791 1931 
z
" transform="scale(0.015625)"/>
      <path id="DejaVuSerif-74" d="M 691 2988 
L 184 2988 
L 184 3322 
L 691 3322 
L 691 4353 
L 1269 4353 
L 1269 3322 
L 2350 3322 
L 2350 2988 
L 1269 2988 
L 1269 878 
Q 1269 456 1350 337 
Q 1431 219 1650 219 
Q 1875 219 1978 351 
Q 2081 484 2088 781 
L 2522 781 
Q 2497 328 2275 118 
Q 2053 -91 1600 -91 
Q 1103 -91 897 129 
Q 691 350 691 878 
L 691 2988 
z
" transform="scale(0.015625)"/>
      <path id="DejaVuSerif-20" transform="scale(0.015625)"/>
      <path id="Cmmi10-53" d="M 391 -141 
Q 372 -141 356 -119 
Q 341 -97 341 -78 
L 709 1416 
Q 722 1453 763 1453 
L 838 1453 
Q 863 1453 877 1434 
Q 891 1416 891 1388 
Q 838 1169 838 997 
Q 838 534 1156 309 
Q 1475 84 1959 84 
Q 2169 84 2372 187 
Q 2575 291 2726 456 
Q 2878 622 2968 826 
Q 3059 1031 3059 1241 
Q 3059 1466 2940 1642 
Q 2822 1819 2613 1869 
L 1831 2075 
Q 1516 2159 1328 2414 
Q 1141 2669 1141 2988 
Q 1141 3372 1369 3728 
Q 1597 4084 1964 4298 
Q 2331 4513 2713 4513 
Q 3006 4513 3251 4405 
Q 3497 4297 3628 4063 
L 3994 4494 
Q 4031 4513 4038 4513 
L 4078 4513 
Q 4103 4513 4118 4491 
Q 4134 4469 4134 4447 
L 3763 2963 
Q 3753 2919 3713 2919 
L 3634 2919 
Q 3578 2919 3578 2988 
Q 3609 3191 3609 3341 
Q 3609 3638 3507 3858 
Q 3406 4078 3201 4192 
Q 2997 4306 2694 4306 
Q 2438 4306 2184 4159 
Q 1931 4013 1775 3769 
Q 1619 3525 1619 3263 
Q 1619 3056 1739 2897 
Q 1859 2738 2059 2681 
L 2841 2478 
Q 3053 2422 3211 2280 
Q 3369 2138 3450 1942 
Q 3531 1747 3531 1516 
Q 3531 1213 3403 917 
Q 3275 622 3045 378 
Q 2816 134 2525 -3 
Q 2234 -141 1931 -141 
Q 1169 -141 838 306 
L 481 -122 
Q 444 -141 434 -141 
L 391 -141 
z
" transform="scale(0.015625)"/>
      <path id="Cmr10-3d" d="M 481 850 
Q 428 850 393 890 
Q 359 931 359 978 
Q 359 1031 393 1068 
Q 428 1106 481 1106 
L 4500 1106 
Q 4547 1106 4581 1068 
Q 4616 1031 4616 978 
Q 4616 931 4581 890 
Q 4547 850 4500 850 
L 481 850 
z
M 481 2094 
Q 428 2094 393 2131 
Q 359 2169 359 2222 
Q 359 2269 393 2309 
Q 428 2350 481 2350 
L 4500 2350 
Q 4547 2350 4581 2309 
Q 4616 2269 4616 2222 
Q 4616 2169 4581 2131 
Q 4547 2094 4500 2094 
L 481 2094 
z
" transform="scale(0.015625)"/>
      <path id="Cmex10-a9" d="M 1631 -6425 
L 1631 -4556 
Q 1631 -4338 1503 -4159 
Q 1375 -3981 1184 -3867 
Q 994 -3753 756 -3675 
Q 709 -3650 709 -3622 
L 709 -3547 
Q 709 -3503 756 -3494 
Q 1128 -3366 1379 -3150 
Q 1631 -2934 1631 -2606 
L 1631 -738 
Q 1631 -325 2004 -95 
Q 2378 134 2888 256 
L 2963 256 
Q 2981 256 2998 242 
Q 3016 228 3016 206 
L 3016 128 
Q 3016 91 2975 78 
Q 2619 -31 2359 -232 
Q 2100 -434 2100 -750 
L 2100 -2619 
Q 2100 -2994 1804 -3214 
Q 1509 -3434 1056 -3584 
Q 1497 -3716 1798 -3939 
Q 2100 -4163 2100 -4544 
L 2100 -6413 
Q 2100 -6628 2231 -6790 
Q 2363 -6953 2556 -7059 
Q 2750 -7166 2975 -7238 
Q 3016 -7250 3016 -7291 
L 3016 -7366 
Q 3016 -7384 2998 -7401 
Q 2981 -7419 2963 -7419 
L 2888 -7419 
Q 2559 -7338 2292 -7227 
Q 2025 -7116 1828 -6914 
Q 1631 -6713 1631 -6425 
z
" transform="scale(0.015625)"/>
      <path id="Cmr10-31" d="M 594 0 
L 594 225 
Q 1394 225 1394 428 
L 1394 3788 
Q 1063 3628 556 3628 
L 556 3853 
Q 1341 3853 1741 4263 
L 1831 4263 
Q 1853 4263 1873 4245 
Q 1894 4228 1894 4206 
L 1894 428 
Q 1894 225 2694 225 
L 2694 0 
L 594 0 
z
" transform="scale(0.015625)"/>
      <path id="Cmmi10-3b" d="M 634 -1153 
Q 634 -1125 659 -1100 
Q 891 -878 1019 -587 
Q 1147 -297 1147 25 
L 1147 103 
Q 1044 0 891 0 
Q 744 0 641 103 
Q 538 206 538 353 
Q 538 503 641 603 
Q 744 703 891 703 
Q 1119 703 1216 492 
Q 1313 281 1313 25 
Q 1313 -331 1170 -651 
Q 1028 -972 769 -1228 
Q 744 -1241 728 -1241 
Q 697 -1241 665 -1212 
Q 634 -1184 634 -1153 
z
" transform="scale(0.015625)"/>
      <path id="Cmr10-32" d="M 319 0 
L 319 172 
Q 319 188 331 206 
L 1325 1306 
Q 1550 1550 1690 1715 
Q 1831 1881 1968 2097 
Q 2106 2313 2186 2536 
Q 2266 2759 2266 3009 
Q 2266 3272 2169 3511 
Q 2072 3750 1880 3894 
Q 1688 4038 1416 4038 
Q 1138 4038 916 3870 
Q 694 3703 603 3438 
Q 628 3444 672 3444 
Q 816 3444 917 3347 
Q 1019 3250 1019 3097 
Q 1019 2950 917 2848 
Q 816 2747 672 2747 
Q 522 2747 420 2851 
Q 319 2956 319 3097 
Q 319 3338 409 3548 
Q 500 3759 670 3923 
Q 841 4088 1055 4175 
Q 1269 4263 1509 4263 
Q 1875 4263 2190 4108 
Q 2506 3953 2690 3670 
Q 2875 3388 2875 3009 
Q 2875 2731 2753 2481 
Q 2631 2231 2440 2026 
Q 2250 1822 1953 1562 
Q 1656 1303 1563 1216 
L 838 519 
L 1453 519 
Q 1906 519 2211 526 
Q 2516 534 2534 550 
Q 2609 631 2688 1141 
L 2875 1141 
L 2694 0 
L 319 0 
z
" transform="scale(0.015625)"/>
      <path id="STIXGeneral-Regular-2026" d="M 5683 275 
Q 5683 134 5577 32 
Q 5472 -70 5325 -70 
Q 5178 -70 5075 32 
Q 4973 134 4973 281 
Q 4973 429 5078 534 
Q 5184 640 5331 640 
Q 5472 640 5577 531 
Q 5683 422 5683 275 
z
M 3552 275 
Q 3552 134 3446 32 
Q 3341 -70 3193 -70 
Q 3046 -70 2944 32 
Q 2842 134 2842 281 
Q 2842 429 2947 534 
Q 3053 640 3200 640 
Q 3341 640 3446 531 
Q 3552 422 3552 275 
z
M 1421 275 
Q 1421 134 1315 32 
Q 1210 -70 1062 -70 
Q 915 -70 812 32 
Q 710 134 710 281 
Q 710 429 816 534 
Q 922 640 1069 640 
Q 1210 640 1315 531 
Q 1421 422 1421 275 
z
" transform="scale(0.015625)"/>
      <path id="Cmmi10-6e" d="M 494 109 
Q 494 147 500 166 
L 978 2075 
Q 1025 2253 1025 2388 
Q 1025 2663 838 2663 
Q 638 2663 541 2423 
Q 444 2184 353 1819 
Q 353 1800 334 1789 
Q 316 1778 300 1778 
L 225 1778 
Q 203 1778 187 1801 
Q 172 1825 172 1844 
Q 241 2122 305 2315 
Q 369 2509 505 2668 
Q 641 2828 844 2828 
Q 1084 2828 1268 2676 
Q 1453 2525 1453 2291 
Q 1644 2541 1900 2684 
Q 2156 2828 2444 2828 
Q 2672 2828 2837 2750 
Q 3003 2672 3095 2514 
Q 3188 2356 3188 2138 
Q 3188 1875 3070 1503 
Q 2953 1131 2778 672 
Q 2688 463 2688 288 
Q 2688 97 2834 97 
Q 3084 97 3251 365 
Q 3419 634 3488 941 
Q 3500 978 3541 978 
L 3616 978 
Q 3641 978 3658 962 
Q 3675 947 3675 922 
Q 3675 916 3669 903 
Q 3581 541 3364 234 
Q 3147 -72 2822 -72 
Q 2597 -72 2437 83 
Q 2278 238 2278 459 
Q 2278 578 2328 709 
Q 2409 919 2514 1209 
Q 2619 1500 2686 1765 
Q 2753 2031 2753 2234 
Q 2753 2413 2679 2538 
Q 2606 2663 2431 2663 
Q 2197 2663 2000 2559 
Q 1803 2456 1656 2286 
Q 1509 2116 1388 1881 
L 953 141 
Q 931 53 854 -9 
Q 778 -72 684 -72 
Q 606 -72 550 -22 
Q 494 28 494 109 
z
" transform="scale(0.015625)"/>
      <path id="Cmex10-aa" d="M 709 -7366 
L 709 -7291 
Q 709 -7247 756 -7238 
Q 1631 -6953 1631 -6413 
L 1631 -4544 
Q 1631 -3909 2669 -3584 
Q 2219 -3431 1925 -3209 
Q 1631 -2988 1631 -2619 
L 1631 -750 
Q 1631 -206 756 78 
Q 709 88 709 128 
L 709 206 
Q 709 256 769 256 
L 844 256 
Q 1359 131 1729 -97 
Q 2100 -325 2100 -738 
L 2100 -2606 
Q 2100 -2925 2354 -3142 
Q 2609 -3359 2975 -3494 
Q 3016 -3506 3016 -3547 
L 3016 -3622 
Q 3016 -3641 2975 -3675 
Q 2769 -3744 2566 -3864 
Q 2363 -3984 2231 -4161 
Q 2100 -4338 2100 -4556 
L 2100 -6425 
Q 2100 -6713 1901 -6914 
Q 1703 -7116 1437 -7227 
Q 1172 -7338 844 -7419 
L 769 -7419 
Q 744 -7419 726 -7401 
Q 709 -7384 709 -7366 
z
" transform="scale(0.015625)"/>
      <path id="DejaVuSerif-66" d="M 2753 4078 
L 2450 4078 
Q 2447 4313 2317 4434 
Q 2188 4556 1941 4556 
Q 1619 4556 1487 4379 
Q 1356 4203 1356 3750 
L 1356 3322 
L 2284 3322 
L 2284 2988 
L 1356 2988 
L 1356 331 
L 2094 331 
L 2094 0 
L 231 0 
L 231 331 
L 781 331 
L 781 2988 
L 231 2988 
L 231 3322 
L 781 3322 
L 781 3738 
Q 781 4294 1070 4578 
Q 1359 4863 1919 4863 
Q 2128 4863 2337 4825 
Q 2547 4788 2753 4709 
L 2753 4078 
z
" transform="scale(0.015625)"/>
      <path id="DejaVuSerif-6f" d="M 1925 219 
Q 2388 219 2623 584 
Q 2859 950 2859 1663 
Q 2859 2375 2623 2739 
Q 2388 3103 1925 3103 
Q 1463 3103 1227 2739 
Q 991 2375 991 1663 
Q 991 950 1228 584 
Q 1466 219 1925 219 
z
M 1925 -91 
Q 1200 -91 759 389 
Q 319 869 319 1663 
Q 319 2456 758 2934 
Q 1197 3413 1925 3413 
Q 2653 3413 3092 2934 
Q 3531 2456 3531 1663 
Q 3531 869 3092 389 
Q 2653 -91 1925 -91 
z
" transform="scale(0.015625)"/>
      <path id="DejaVuSerif-72" d="M 3059 3328 
L 3059 2497 
L 2728 2497 
Q 2713 2744 2591 2866 
Q 2469 2988 2234 2988 
Q 1809 2988 1582 2694 
Q 1356 2400 1356 1850 
L 1356 331 
L 2022 331 
L 2022 0 
L 263 0 
L 263 331 
L 781 331 
L 781 2994 
L 231 2994 
L 231 3322 
L 1356 3322 
L 1356 2731 
Q 1525 3078 1790 3245 
Q 2056 3413 2438 3413 
Q 2578 3413 2733 3391 
Q 2888 3369 3059 3328 
z
" transform="scale(0.015625)"/>
      <path id="DejaVuSerif-73" d="M 359 184 
L 359 959 
L 691 959 
Q 703 588 923 403 
Q 1144 219 1575 219 
Q 1963 219 2166 364 
Q 2369 509 2369 788 
Q 2369 1006 2220 1140 
Q 2072 1275 1594 1428 
L 1178 1569 
Q 750 1706 558 1912 
Q 366 2119 366 2438 
Q 366 2894 700 3153 
Q 1034 3413 1625 3413 
Q 1888 3413 2178 3344 
Q 2469 3275 2778 3144 
L 2778 2419 
L 2447 2419 
Q 2434 2741 2221 2922 
Q 2009 3103 1644 3103 
Q 1281 3103 1095 2975 
Q 909 2847 909 2591 
Q 909 2381 1050 2254 
Q 1191 2128 1613 1997 
L 2069 1856 
Q 2541 1709 2748 1489 
Q 2956 1269 2956 922 
Q 2956 450 2595 179 
Q 2234 -91 1600 -91 
Q 1278 -91 972 -22 
Q 666 47 359 184 
z
" transform="scale(0.015625)"/>
      <path id="DejaVuSerif-6d" d="M 3316 2675 
Q 3481 3041 3739 3227 
Q 3997 3413 4341 3413 
Q 4863 3413 5119 3089 
Q 5375 2766 5375 2113 
L 5375 331 
L 5894 331 
L 5894 0 
L 4300 0 
L 4300 331 
L 4800 331 
L 4800 2047 
Q 4800 2556 4650 2772 
Q 4500 2988 4153 2988 
Q 3769 2988 3567 2697 
Q 3366 2406 3366 1850 
L 3366 331 
L 3866 331 
L 3866 0 
L 2291 0 
L 2291 331 
L 2791 331 
L 2791 2069 
Q 2791 2566 2641 2777 
Q 2491 2988 2144 2988 
Q 1759 2988 1557 2697 
Q 1356 2406 1356 1850 
L 1356 331 
L 1856 331 
L 1856 0 
L 263 0 
L 263 331 
L 781 331 
L 781 2994 
L 231 2994 
L 231 3322 
L 1356 3322 
L 1356 2731 
Q 1516 3063 1762 3238 
Q 2009 3413 2322 3413 
Q 2709 3413 2968 3220 
Q 3228 3028 3316 2675 
z
" transform="scale(0.015625)"/>
      <path id="DejaVuSerif-69" d="M 622 4353 
Q 622 4497 726 4603 
Q 831 4709 978 4709 
Q 1122 4709 1226 4603 
Q 1331 4497 1331 4353 
Q 1331 4206 1228 4103 
Q 1125 4000 978 4000 
Q 831 4000 726 4103 
Q 622 4206 622 4353 
z
M 1356 331 
L 1900 331 
L 1900 0 
L 231 0 
L 231 331 
L 781 331 
L 781 2988 
L 231 2988 
L 231 3322 
L 1356 3322 
L 1356 331 
z
" transform="scale(0.015625)"/>
      <path id="DejaVuSerif-6e" d="M 263 0 
L 263 331 
L 781 331 
L 781 2988 
L 231 2988 
L 231 3322 
L 1356 3322 
L 1356 2731 
Q 1516 3069 1770 3241 
Q 2025 3413 2363 3413 
Q 2913 3413 3172 3097 
Q 3431 2781 3431 2113 
L 3431 331 
L 3944 331 
L 3944 0 
L 2356 0 
L 2356 331 
L 2853 331 
L 2853 1931 
Q 2853 2541 2703 2767 
Q 2553 2994 2175 2994 
Q 1775 2994 1565 2701 
Q 1356 2409 1356 1850 
L 1356 331 
L 1856 331 
L 1856 0 
L 263 0 
z
" transform="scale(0.015625)"/>
      <path id="DejaVuSerif-67" d="M 3359 2988 
L 3359 72 
Q 3359 -644 2965 -1033 
Q 2572 -1422 1844 -1422 
Q 1516 -1422 1216 -1362 
Q 916 -1303 641 -1184 
L 641 -488 
L 941 -488 
Q 997 -813 1206 -963 
Q 1416 -1113 1806 -1113 
Q 2313 -1113 2548 -827 
Q 2784 -541 2784 72 
L 2784 519 
Q 2616 206 2355 57 
Q 2094 -91 1709 -91 
Q 1097 -91 708 395 
Q 319 881 319 1663 
Q 319 2444 706 2928 
Q 1094 3413 1709 3413 
Q 2094 3413 2355 3264 
Q 2616 3116 2784 2803 
L 2784 3322 
L 3909 3322 
L 3909 2988 
L 3359 2988 
z
M 2784 1825 
Q 2784 2422 2554 2737 
Q 2325 3053 1888 3053 
Q 1444 3053 1217 2703 
Q 991 2353 991 1663 
Q 991 975 1217 622 
Q 1444 269 1888 269 
Q 2325 269 2554 583 
Q 2784 897 2784 1497 
L 2784 1825 
z
" transform="scale(0.015625)"/>
      <path id="Cmmi10-3e" d="M 531 -128 
Q 531 -47 616 -6 
L 4013 1600 
L 594 3219 
Q 531 3238 531 3328 
Q 531 3372 567 3414 
Q 603 3456 659 3456 
Q 672 3456 709 3444 
L 4384 1709 
Q 4441 1681 4441 1600 
Q 4441 1516 4366 1484 
L 709 -244 
Q 672 -256 659 -256 
Q 603 -256 567 -214 
Q 531 -172 531 -128 
z
" transform="scale(0.015625)"/>
      <path id="DejaVuSerif-2e" d="M 603 325 
Q 603 500 722 622 
Q 841 744 1019 744 
Q 1191 744 1312 622 
Q 1434 500 1434 325 
Q 1434 153 1312 31 
Q 1191 -91 1019 -91 
Q 841 -91 722 29 
Q 603 150 603 325 
z
" transform="scale(0.015625)"/>
      <path id="DejaVuSerif-53" d="M 594 225 
L 594 1288 
L 953 1284 
Q 969 753 1261 498 
Q 1553 244 2150 244 
Q 2706 244 2998 464 
Q 3291 684 3291 1106 
Q 3291 1444 3114 1625 
Q 2938 1806 2369 1978 
L 1753 2163 
Q 1084 2366 811 2669 
Q 538 2972 538 3500 
Q 538 4094 959 4422 
Q 1381 4750 2144 4750 
Q 2469 4750 2856 4679 
Q 3244 4609 3681 4475 
L 3681 3481 
L 3328 3481 
Q 3275 3975 2998 4195 
Q 2722 4416 2156 4416 
Q 1663 4416 1405 4214 
Q 1147 4013 1147 3628 
Q 1147 3294 1340 3103 
Q 1534 2913 2163 2725 
L 2741 2553 
Q 3375 2363 3645 2067 
Q 3916 1772 3916 1275 
Q 3916 597 3481 253 
Q 3047 -91 2188 -91 
Q 1803 -91 1404 -12 
Q 1006 66 594 225 
z
" transform="scale(0.015625)"/>
      <path id="DejaVuSerif-61" d="M 2547 1044 
L 2547 1747 
L 1806 1747 
Q 1378 1747 1168 1562 
Q 959 1378 959 997 
Q 959 650 1171 447 
Q 1384 244 1747 244 
Q 2106 244 2326 466 
Q 2547 688 2547 1044 
z
M 3122 2075 
L 3122 331 
L 3634 331 
L 3634 0 
L 2547 0 
L 2547 359 
Q 2356 128 2106 18 
Q 1856 -91 1522 -91 
Q 969 -91 644 203 
Q 319 497 319 997 
Q 319 1513 691 1797 
Q 1063 2081 1741 2081 
L 2547 2081 
L 2547 2309 
Q 2547 2688 2317 2895 
Q 2088 3103 1672 3103 
Q 1328 3103 1125 2947 
Q 922 2791 872 2484 
L 575 2484 
L 575 3156 
Q 875 3284 1158 3348 
Q 1441 3413 1709 3413 
Q 2400 3413 2761 3070 
Q 3122 2728 3122 2075 
z
" transform="scale(0.015625)"/>
      <path id="DejaVuSerif-79" d="M 1381 -609 
L 1600 -56 
L 359 2988 
L -19 2988 
L -19 3322 
L 1509 3322 
L 1509 2988 
L 978 2988 
L 1913 703 
L 2847 2988 
L 2350 2988 
L 2350 3322 
L 3597 3322 
L 3597 2988 
L 3225 2988 
L 1703 -750 
Q 1547 -1138 1356 -1280 
Q 1166 -1422 819 -1422 
Q 672 -1422 517 -1397 
Q 363 -1372 206 -1325 
L 206 -691 
L 500 -691 
Q 519 -903 608 -995 
Q 697 -1088 884 -1088 
Q 1056 -1088 1161 -992 
Q 1266 -897 1381 -609 
z
" transform="scale(0.015625)"/>
      <path id="DejaVuSerif-70" d="M 1313 1825 
L 1313 1497 
Q 1313 897 1542 583 
Q 1772 269 2209 269 
Q 2650 269 2876 622 
Q 3103 975 3103 1663 
Q 3103 2353 2876 2703 
Q 2650 3053 2209 3053 
Q 1772 3053 1542 2737 
Q 1313 2422 1313 1825 
z
M 738 2988 
L 184 2988 
L 184 3322 
L 1313 3322 
L 1313 2803 
Q 1481 3116 1742 3264 
Q 2003 3413 2388 3413 
Q 3000 3413 3387 2928 
Q 3775 2444 3775 1663 
Q 3775 881 3387 395 
Q 3000 -91 2388 -91 
Q 2003 -91 1742 57 
Q 1481 206 1313 519 
L 1313 -997 
L 1856 -997 
L 1856 -1331 
L 184 -1331 
L 184 -997 
L 738 -997 
L 738 2988 
z
" transform="scale(0.015625)"/>
      <path id="DejaVuSerif-75" d="M 2266 3322 
L 3341 3322 
L 3341 331 
L 3884 331 
L 3884 0 
L 2766 0 
L 2766 588 
Q 2606 256 2353 82 
Q 2100 -91 1766 -91 
Q 1213 -91 952 223 
Q 691 538 691 1209 
L 691 2988 
L 172 2988 
L 172 3322 
L 1269 3322 
L 1269 1388 
Q 1269 781 1417 556 
Q 1566 331 1947 331 
Q 2347 331 2556 625 
Q 2766 919 2766 1478 
L 2766 2988 
L 2266 2988 
L 2266 3322 
z
" transform="scale(0.015625)"/>
      <path id="Cmmi10-bc" d="M 647 109 
Q 647 144 672 213 
Q 850 584 1004 942 
Q 1159 1300 1282 1639 
Q 1406 1978 1509 2363 
L 1100 2363 
Q 866 2363 662 2216 
Q 459 2069 325 1844 
Q 313 1819 288 1819 
L 213 1819 
Q 153 1819 153 1881 
Q 153 1894 166 1919 
Q 375 2275 614 2517 
Q 853 2759 1153 2759 
L 3475 2759 
Q 3541 2759 3587 2715 
Q 3634 2672 3634 2597 
Q 3634 2503 3567 2433 
Q 3500 2363 3406 2363 
L 2591 2363 
Q 2488 1859 2478 1381 
Q 2478 766 2694 269 
Q 2713 231 2713 191 
Q 2713 122 2672 62 
Q 2631 3 2567 -34 
Q 2503 -72 2431 -72 
Q 2263 -72 2200 203 
Q 2138 478 2138 738 
Q 2138 1103 2200 1442 
Q 2263 1781 2400 2363 
L 1703 2363 
Q 1197 313 1094 103 
Q 1003 -72 844 -72 
Q 766 -72 706 -20 
Q 647 31 647 109 
z
" transform="scale(0.015625)"/>
      <path id="DejaVuSerif-68" d="M 263 0 
L 263 331 
L 781 331 
L 781 4531 
L 231 4531 
L 231 4863 
L 1356 4863 
L 1356 2731 
Q 1516 3069 1770 3241 
Q 2025 3413 2363 3413 
Q 2913 3413 3172 3097 
Q 3431 2781 3431 2113 
L 3431 331 
L 3944 331 
L 3944 0 
L 2356 0 
L 2356 331 
L 2853 331 
L 2853 1931 
Q 2853 2541 2704 2764 
Q 2556 2988 2175 2988 
Q 1775 2988 1565 2697 
Q 1356 2406 1356 1850 
L 1356 331 
L 1856 331 
L 1856 0 
L 263 0 
z
" transform="scale(0.015625)"/>
      <path id="DejaVuSerif-5c" d="M 500 4666 
L 2156 -594 
L 1656 -594 
L 0 4666 
L 500 4666 
z
" transform="scale(0.015625)"/>
      <path id="DejaVuSerif-7b" d="M 3272 -716 
L 3272 -1044 
L 3078 -1044 
Q 2300 -1044 2036 -812 
Q 1772 -581 1772 109 
L 1772 916 
Q 1772 1384 1603 1565 
Q 1434 1747 991 1747 
L 800 1747 
L 800 2075 
L 991 2075 
Q 1434 2075 1603 2256 
Q 1772 2438 1772 2906 
L 1772 3713 
Q 1772 4403 2036 4633 
Q 2300 4863 3078 4863 
L 3272 4863 
L 3272 4538 
L 3059 4538 
Q 2619 4538 2484 4400 
Q 2350 4263 2350 3822 
L 2350 2925 
Q 2350 2431 2194 2218 
Q 2038 2006 1631 1913 
Q 2044 1806 2197 1597 
Q 2350 1388 2350 897 
L 2350 0 
Q 2350 -441 2484 -578 
Q 2619 -716 3059 -716 
L 3272 -716 
z
" transform="scale(0.015625)"/>
      <path id="DejaVuSerif-6c" d="M 1313 331 
L 1856 331 
L 1856 0 
L 184 0 
L 184 331 
L 738 331 
L 738 4531 
L 184 4531 
L 184 4863 
L 1313 4863 
L 1313 331 
z
" transform="scale(0.015625)"/>
      <path id="DejaVuSerif-63" d="M 3291 997 
Q 3169 466 2822 187 
Q 2475 -91 1925 -91 
Q 1200 -91 759 389 
Q 319 869 319 1663 
Q 319 2459 759 2936 
Q 1200 3413 1925 3413 
Q 2241 3413 2553 3339 
Q 2866 3266 3181 3116 
L 3181 2266 
L 2847 2266 
Q 2781 2703 2561 2903 
Q 2341 3103 1931 3103 
Q 1466 3103 1228 2742 
Q 991 2381 991 1663 
Q 991 944 1227 581 
Q 1463 219 1931 219 
Q 2303 219 2525 412 
Q 2747 606 2828 997 
L 3291 997 
z
" transform="scale(0.015625)"/>
      <path id="DejaVuSerif-78" d="M 1863 2028 
L 2559 2988 
L 2113 2988 
L 2113 3322 
L 3391 3322 
L 3391 2988 
L 2950 2988 
L 2059 1759 
L 3097 331 
L 3531 331 
L 3531 0 
L 1997 0 
L 1997 331 
L 2419 331 
L 1697 1325 
L 972 331 
L 1403 331 
L 1403 0 
L 141 0 
L 141 331 
L 581 331 
L 1497 1594 
L 488 2988 
L 78 2988 
L 78 3322 
L 1563 3322 
L 1563 2988 
L 1166 2988 
L 1863 2028 
z
" transform="scale(0.015625)"/>
      <path id="DejaVuSerif-7d" d="M 800 -716 
L 1019 -716 
Q 1456 -716 1589 -580 
Q 1722 -444 1722 0 
L 1722 897 
Q 1722 1388 1875 1597 
Q 2028 1806 2438 1913 
Q 2031 2006 1876 2218 
Q 1722 2431 1722 2925 
L 1722 3822 
Q 1722 4266 1589 4402 
Q 1456 4538 1019 4538 
L 800 4538 
L 800 4863 
L 997 4863 
Q 1775 4863 2036 4633 
Q 2297 4403 2297 3713 
L 2297 2906 
Q 2297 2438 2465 2256 
Q 2634 2075 3078 2075 
L 3272 2075 
L 3272 1747 
L 3078 1747 
Q 2634 1747 2465 1565 
Q 2297 1384 2297 916 
L 2297 109 
Q 2297 -581 2036 -812 
Q 1775 -1044 997 -1044 
L 800 -1044 
L 800 -716 
z
" transform="scale(0.015625)"/>
      <path id="Cmmi10-6b" d="M 341 116 
Q 341 153 347 172 
L 1275 3872 
Q 1300 3981 1306 4044 
Q 1306 4147 891 4147 
Q 825 4147 825 4231 
Q 828 4247 839 4287 
Q 850 4328 867 4350 
Q 884 4372 916 4372 
L 1778 4441 
L 1797 4441 
Q 1797 4434 1819 4423 
Q 1841 4413 1844 4409 
Q 1856 4378 1856 4359 
L 1184 1684 
Q 1416 1781 1767 2145 
Q 2119 2509 2317 2668 
Q 2516 2828 2816 2828 
Q 2994 2828 3119 2706 
Q 3244 2584 3244 2406 
Q 3244 2294 3197 2198 
Q 3150 2103 3065 2043 
Q 2981 1984 2869 1984 
Q 2766 1984 2695 2048 
Q 2625 2113 2625 2216 
Q 2625 2369 2733 2473 
Q 2841 2578 2994 2578 
Q 2931 2663 2803 2663 
Q 2613 2663 2436 2553 
Q 2259 2444 2054 2239 
Q 1850 2034 1681 1864 
Q 1513 1694 1369 1606 
Q 1747 1563 2025 1408 
Q 2303 1253 2303 934 
Q 2303 869 2278 769 
Q 2222 528 2222 384 
Q 2222 97 2419 97 
Q 2650 97 2770 350 
Q 2891 603 2969 941 
Q 2981 978 3022 978 
L 3097 978 
Q 3122 978 3139 962 
Q 3156 947 3156 922 
Q 3156 916 3150 903 
Q 2909 -72 2406 -72 
Q 2225 -72 2086 12 
Q 1947 97 1872 242 
Q 1797 388 1797 569 
Q 1797 672 1825 781 
Q 1844 856 1844 922 
Q 1844 1169 1625 1297 
Q 1406 1425 1125 1453 
L 800 147 
Q 775 50 703 -11 
Q 631 -72 538 -72 
Q 456 -72 398 -17 
Q 341 38 341 116 
z
" transform="scale(0.015625)"/>
      <path id="Cmsy10-32" d="M 1356 403 
Q 1838 0 2497 0 
L 3616 0 
Q 3666 0 3698 -37 
Q 3731 -75 3731 -128 
Q 3731 -175 3698 -215 
Q 3666 -256 3616 -256 
L 2478 -256 
Q 1969 -256 1519 -12 
Q 1069 231 800 657 
Q 531 1084 531 1600 
Q 531 2116 800 2542 
Q 1069 2969 1519 3212 
Q 1969 3456 2478 3456 
L 3616 3456 
Q 3666 3456 3698 3415 
Q 3731 3375 3731 3328 
Q 3731 3275 3698 3237 
Q 3666 3200 3616 3200 
L 2497 3200 
Q 2184 3200 1889 3097 
Q 1594 2994 1356 2797 
Q 1122 2600 958 2304 
Q 794 2009 794 1728 
L 3616 1728 
Q 3666 1728 3698 1687 
Q 3731 1647 3731 1600 
Q 3731 1553 3698 1512 
Q 3666 1472 3616 1472 
L 794 1472 
Q 794 1194 958 897 
Q 1122 600 1356 403 
z
" transform="scale(0.015625)"/>
     </defs>
     <use xlink:href="#DejaVuSerif-4c" transform="translate(0 0.705729)"/>
     <use xlink:href="#DejaVuSerif-65" transform="translate(66.40625 0.705729)"/>
     <use xlink:href="#DejaVuSerif-74" transform="translate(125.585938 0.705729)"/>
     <use xlink:href="#DejaVuSerif-20" transform="translate(165.771484 0.705729)"/>
     <use xlink:href="#Cmmi10-53" transform="translate(197.558594 0.705729)"/>
     <use xlink:href="#Cmr10-3d" transform="translate(276.396484 0.705729)"/>
     <use xlink:href="#Cmex10-a9" transform="translate(371.640625 94)"/>
     <use xlink:href="#Cmr10-31" transform="translate(429.941406 0.705729)"/>
     <use xlink:href="#Cmmi10-3b" transform="translate(479.941406 0.705729)"/>
     <use xlink:href="#Cmr10-32" transform="translate(525.185547 0.705729)"/>
     <use xlink:href="#Cmmi10-3b" transform="translate(575.185547 0.705729)"/>
     <use xlink:href="#STIXGeneral-Regular-2026" transform="translate(637.988281 0.705729)"/>
     <use xlink:href="#Cmmi10-3b" transform="translate(755.54686 0.705729)"/>
     <use xlink:href="#Cmmi10-6e" transform="translate(800.791 0.705729)"/>
     <use xlink:href="#Cmex10-aa" transform="translate(860.800766 94)"/>
     <use xlink:href="#DejaVuSerif-20" transform="translate(919.101547 0.705729)"/>
     <use xlink:href="#DejaVuSerif-66" transform="translate(950.888657 0.705729)"/>
     <use xlink:href="#DejaVuSerif-6f" transform="translate(987.900375 0.705729)"/>
     <use xlink:href="#DejaVuSerif-72" transform="translate(1048.105453 0.705729)"/>
     <use xlink:href="#DejaVuSerif-20" transform="translate(1095.908188 0.705729)"/>
     <use xlink:href="#DejaVuSerif-73" transform="translate(1127.695297 0.705729)"/>
     <use xlink:href="#DejaVuSerif-6f" transform="translate(1179.013657 0.705729)"/>
     <use xlink:href="#DejaVuSerif-6d" transform="translate(1239.218735 0.705729)"/>
     <use xlink:href="#DejaVuSerif-65" transform="translate(1334.042953 0.705729)"/>
     <use xlink:href="#DejaVuSerif-20" transform="translate(1393.222641 0.705729)"/>
     <use xlink:href="#DejaVuSerif-69" transform="translate(1425.00975 0.705729)"/>
     <use xlink:href="#DejaVuSerif-6e" transform="translate(1456.992172 0.705729)"/>
     <use xlink:href="#DejaVuSerif-74" transform="translate(1521.396469 0.705729)"/>
     <use xlink:href="#DejaVuSerif-65" transform="translate(1561.582016 0.705729)"/>
     <use xlink:href="#DejaVuSerif-67" transform="translate(1620.761703 0.705729)"/>
     <use xlink:href="#DejaVuSerif-65" transform="translate(1684.775375 0.705729)"/>
     <use xlink:href="#DejaVuSerif-72" transform="translate(1743.955063 0.705729)"/>
     <use xlink:href="#DejaVuSerif-20" transform="translate(1791.757797 0.705729)"/>
     <use xlink:href="#Cmmi10-6e" transform="translate(1823.544907 0.705729)"/>
     <use xlink:href="#Cmmi10-3e" transform="translate(1901.113266 0.705729)"/>
     <use xlink:href="#Cmr10-31" transform="translate(1996.357407 0.705729)"/>
     <use xlink:href="#DejaVuSerif-2e" transform="translate(2046.357407 0.705729)"/>
     <use xlink:href="#DejaVuSerif-20" transform="translate(2078.144516 0.705729)"/>
     <use xlink:href="#DejaVuSerif-53" transform="translate(2109.931625 0.705729)"/>
     <use xlink:href="#DejaVuSerif-61" transform="translate(2178.437485 0.705729)"/>
     <use xlink:href="#DejaVuSerif-79" transform="translate(2238.056625 0.705729)"/>
     <use xlink:href="#DejaVuSerif-20" transform="translate(2294.550766 0.705729)"/>
     <use xlink:href="#DejaVuSerif-61" transform="translate(2326.337875 0.705729)"/>
     <use xlink:href="#DejaVuSerif-20" transform="translate(2385.957016 0.705729)"/>
     <use xlink:href="#DejaVuSerif-70" transform="translate(2417.744125 0.705729)"/>
     <use xlink:href="#DejaVuSerif-65" transform="translate(2481.757797 0.705729)"/>
     <use xlink:href="#DejaVuSerif-72" transform="translate(2540.937485 0.705729)"/>
     <use xlink:href="#DejaVuSerif-6d" transform="translate(2588.740219 0.705729)"/>
     <use xlink:href="#DejaVuSerif-75" transform="translate(2683.564438 0.705729)"/>
     <use xlink:href="#DejaVuSerif-74" transform="translate(2747.968735 0.705729)"/>
     <use xlink:href="#DejaVuSerif-61" transform="translate(2788.154282 0.705729)"/>
     <use xlink:href="#DejaVuSerif-74" transform="translate(2847.773422 0.705729)"/>
     <use xlink:href="#DejaVuSerif-69" transform="translate(2887.958969 0.705729)"/>
     <use xlink:href="#DejaVuSerif-6f" transform="translate(2919.941391 0.705729)"/>
     <use xlink:href="#DejaVuSerif-6e" transform="translate(2980.146469 0.705729)"/>
     <use xlink:href="#DejaVuSerif-20" transform="translate(3044.550766 0.705729)"/>
     <use xlink:href="#Cmmi10-bc" transform="translate(3076.337875 0.705729)"/>
     <use xlink:href="#DejaVuSerif-20" transform="translate(3133.320297 0.705729)"/>
     <use xlink:href="#DejaVuSerif-6f" transform="translate(3165.107407 0.705729)"/>
     <use xlink:href="#DejaVuSerif-66" transform="translate(3225.312485 0.705729)"/>
     <use xlink:href="#DejaVuSerif-20" transform="translate(3262.324203 0.705729)"/>
     <use xlink:href="#Cmmi10-53" transform="translate(3294.111313 0.705729)"/>
     <use xlink:href="#DejaVuSerif-20" transform="translate(3355.39061 0.705729)"/>
     <use xlink:href="#DejaVuSerif-68" transform="translate(3387.177719 0.705729)"/>
     <use xlink:href="#DejaVuSerif-61" transform="translate(3451.582016 0.705729)"/>
     <use xlink:href="#DejaVuSerif-73" transform="translate(3511.201157 0.705729)"/>
     <use xlink:href="#DejaVuSerif-20" transform="translate(3562.519516 0.705729)"/>
     <use xlink:href="#DejaVuSerif-61" transform="translate(3594.306625 0.705729)"/>
     <use xlink:href="#DejaVuSerif-20" transform="translate(3653.925766 0.705729)"/>
     <use xlink:href="#DejaVuSerif-5c" transform="translate(3685.712875 0.705729)"/>
     <use xlink:href="#DejaVuSerif-65" transform="translate(3719.404282 0.705729)"/>
     <use xlink:href="#DejaVuSerif-6d" transform="translate(3778.583969 0.705729)"/>
     <use xlink:href="#DejaVuSerif-70" transform="translate(3873.408188 0.705729)"/>
     <use xlink:href="#DejaVuSerif-68" transform="translate(3937.42186 0.705729)"/>
     <use xlink:href="#DejaVuSerif-7b" transform="translate(4001.826157 0.705729)"/>
     <use xlink:href="#DejaVuSerif-6c" transform="translate(4065.449203 0.705729)"/>
     <use xlink:href="#DejaVuSerif-6f" transform="translate(4097.431625 0.705729)"/>
     <use xlink:href="#DejaVuSerif-63" transform="translate(4157.636703 0.705729)"/>
     <use xlink:href="#DejaVuSerif-61" transform="translate(4213.642563 0.705729)"/>
     <use xlink:href="#DejaVuSerif-6c" transform="translate(4273.261703 0.705729)"/>
     <use xlink:href="#DejaVuSerif-20" transform="translate(4305.244125 0.705729)"/>
     <use xlink:href="#DejaVuSerif-6d" transform="translate(4337.031235 0.705729)"/>
     <use xlink:href="#DejaVuSerif-61" transform="translate(4431.855453 0.705729)"/>
     <use xlink:href="#DejaVuSerif-78" transform="translate(4491.474594 0.705729)"/>
     <use xlink:href="#DejaVuSerif-69" transform="translate(4547.871078 0.705729)"/>
     <use xlink:href="#DejaVuSerif-6d" transform="translate(4579.8535 0.705729)"/>
     <use xlink:href="#DejaVuSerif-75" transform="translate(4674.677719 0.705729)"/>
     <use xlink:href="#DejaVuSerif-6d" transform="translate(4739.082016 0.705729)"/>
     <use xlink:href="#DejaVuSerif-7d" transform="translate(4833.906235 0.705729)"/>
     <use xlink:href="#DejaVuSerif-20" transform="translate(4897.529282 0.705729)"/>
     <use xlink:href="#DejaVuSerif-61" transform="translate(4929.316391 0.705729)"/>
     <use xlink:href="#DejaVuSerif-74" transform="translate(4988.935532 0.705729)"/>
     <use xlink:href="#DejaVuSerif-20" transform="translate(5029.121078 0.705729)"/>
     <use xlink:href="#Cmmi10-6b" transform="translate(5060.908188 0.705729)"/>
     <use xlink:href="#Cmsy10-32" transform="translate(5130.468735 0.705729)"/>
     <use xlink:href="#Cmmi10-53" transform="translate(5214.628891 0.705729)"/>
     <use xlink:href="#DejaVuSerif-20" transform="translate(5275.908188 0.705729)"/>
     <use xlink:href="#DejaVuSerif-69" transform="translate(5307.695297 0.705729)"/>
     <use xlink:href="#DejaVuSerif-66" transform="translate(5339.677719 0.705729)"/>
    </g>
    <!-- \begin{enumerate} -->
    <g transform="translate(696.578438 67.271063) scale(0.12 -0.12)">
     <defs>
      <path id="DejaVuSerif-62" d="M 738 331 
L 738 4531 
L 184 4531 
L 184 4863 
L 1313 4863 
L 1313 2803 
Q 1481 3116 1742 3264 
Q 2003 3413 2388 3413 
Q 3000 3413 3387 2928 
Q 3775 2444 3775 1663 
Q 3775 881 3387 395 
Q 3000 -91 2388 -91 
Q 2003 -91 1742 57 
Q 1481 206 1313 519 
L 1313 0 
L 184 0 
L 184 331 
L 738 331 
z
M 1313 1497 
Q 1313 897 1542 583 
Q 1772 269 2209 269 
Q 2650 269 2876 622 
Q 3103 975 3103 1663 
Q 3103 2353 2876 2703 
Q 2650 3053 2209 3053 
Q 1772 3053 1542 2737 
Q 1313 2422 1313 1825 
L 1313 1497 
z
" transform="scale(0.015625)"/>
     </defs>
     <use xlink:href="#DejaVuSerif-5c"/>
     <use xlink:href="#DejaVuSerif-62" transform="translate(33.691406 0)"/>
     <use xlink:href="#DejaVuSerif-65" transform="translate(97.705078 0)"/>
     <use xlink:href="#DejaVuSerif-67" transform="translate(156.884766 0)"/>
     <use xlink:href="#DejaVuSerif-69" transform="translate(220.898438 0)"/>
     <use xlink:href="#DejaVuSerif-6e" transform="translate(252.880859 0)"/>
     <use xlink:href="#DejaVuSerif-7b" transform="translate(317.285156 0)"/>
     <use xlink:href="#DejaVuSerif-65" transform="translate(380.908203 0)"/>
     <use xlink:href="#DejaVuSerif-6e" transform="translate(440.087891 0)"/>
     <use xlink:href="#DejaVuSerif-75" transform="translate(504.492188 0)"/>
     <use xlink:href="#DejaVuSerif-6d" transform="translate(568.896484 0)"/>
     <use xlink:href="#DejaVuSerif-65" transform="translate(663.720703 0)"/>
     <use xlink:href="#DejaVuSerif-72" transform="translate(722.900391 0)"/>
     <use xlink:href="#DejaVuSerif-61" transform="translate(770.703125 0)"/>
     <use xlink:href="#DejaVuSerif-74" transform="translate(830.322266 0)"/>
     <use xlink:href="#DejaVuSerif-65" transform="translate(870.507812 0)"/>
     <use xlink:href="#DejaVuSerif-7d" transform="translate(929.6875 0)"/>
    </g>
    <!-- \item[(i)] $\pi(k)&gt;\pi(k+1)$ for $k=1$; -->
    <g transform="translate(661.02 80.881313) scale(0.12 -0.12)">
     <defs>
      <path id="DejaVuSerif-5b" d="M 550 4863 
L 2003 4863 
L 2003 4531 
L 1147 4531 
L 1147 -513 
L 2003 -513 
L 2003 -844 
L 550 -844 
L 550 4863 
z
" transform="scale(0.015625)"/>
      <path id="DejaVuSerif-28" d="M 2041 -997 
Q 1281 -656 893 83 
Q 506 822 506 1931 
Q 506 3044 893 3783 
Q 1281 4522 2041 4863 
L 2041 4556 
Q 1559 4225 1350 3623 
Q 1141 3022 1141 1931 
Q 1141 844 1350 242 
Q 1559 -359 2041 -691 
L 2041 -997 
z
" transform="scale(0.015625)"/>
      <path id="DejaVuSerif-29" d="M 453 -997 
L 453 -691 
Q 934 -359 1145 242 
Q 1356 844 1356 1931 
Q 1356 3022 1145 3623 
Q 934 4225 453 4556 
L 453 4863 
Q 1216 4522 1603 3783 
Q 1991 3044 1991 1931 
Q 1991 822 1603 83 
Q 1216 -656 453 -997 
z
" transform="scale(0.015625)"/>
      <path id="DejaVuSerif-5d" d="M 1947 4863 
L 1947 -844 
L 494 -844 
L 494 -513 
L 1350 -513 
L 1350 4531 
L 494 4531 
L 494 4863 
L 1947 4863 
z
" transform="scale(0.015625)"/>
      <path id="Cmr10-28" d="M 1984 -1588 
Q 1628 -1306 1370 -942 
Q 1113 -578 948 -165 
Q 784 247 703 697 
Q 622 1147 622 1600 
Q 622 2059 703 2509 
Q 784 2959 951 3375 
Q 1119 3791 1378 4153 
Q 1638 4516 1984 4788 
Q 1984 4800 2016 4800 
L 2075 4800 
Q 2094 4800 2109 4783 
Q 2125 4766 2125 4744 
Q 2125 4716 2113 4703 
Q 1800 4397 1592 4047 
Q 1384 3697 1257 3301 
Q 1131 2906 1075 2482 
Q 1019 2059 1019 1600 
Q 1019 -434 2106 -1491 
Q 2125 -1509 2125 -1544 
Q 2125 -1559 2108 -1579 
Q 2091 -1600 2075 -1600 
L 2016 -1600 
Q 1984 -1600 1984 -1588 
z
" transform="scale(0.015625)"/>
      <path id="Cmr10-29" d="M 416 -1600 
Q 359 -1600 359 -1544 
Q 359 -1516 372 -1503 
Q 1466 -434 1466 1600 
Q 1466 3634 384 4691 
Q 359 4706 359 4744 
Q 359 4766 376 4783 
Q 394 4800 416 4800 
L 475 4800 
Q 494 4800 506 4788 
Q 966 4425 1272 3906 
Q 1578 3388 1720 2800 
Q 1863 2213 1863 1600 
Q 1863 1147 1786 708 
Q 1709 269 1542 -157 
Q 1375 -584 1119 -945 
Q 863 -1306 506 -1588 
Q 494 -1600 475 -1600 
L 416 -1600 
z
" transform="scale(0.015625)"/>
      <path id="Cmr10-2b" d="M 481 1472 
Q 428 1472 393 1512 
Q 359 1553 359 1600 
Q 359 1647 393 1687 
Q 428 1728 481 1728 
L 2363 1728 
L 2363 3616 
Q 2363 3666 2400 3698 
Q 2438 3731 2491 3731 
Q 2538 3731 2578 3698 
Q 2619 3666 2619 3616 
L 2619 1728 
L 4500 1728 
Q 4547 1728 4581 1687 
Q 4616 1647 4616 1600 
Q 4616 1553 4581 1512 
Q 4547 1472 4500 1472 
L 2619 1472 
L 2619 -416 
Q 2619 -466 2578 -498 
Q 2538 -531 2491 -531 
Q 2438 -531 2400 -498 
Q 2363 -466 2363 -416 
L 2363 1472 
L 481 1472 
z
" transform="scale(0.015625)"/>
      <path id="DejaVuSerif-3b" d="M 231 -622 
Q 525 -406 662 -114 
Q 800 178 800 594 
L 800 709 
L 1416 709 
Q 1391 175 1164 -208 
Q 938 -591 481 -872 
L 231 -622 
z
M 678 2363 
Q 678 2538 798 2658 
Q 919 2778 1094 2778 
Q 1269 2778 1389 2656 
Q 1509 2534 1509 2363 
Q 1509 2188 1389 2067 
Q 1269 1947 1094 1947 
Q 919 1947 798 2067 
Q 678 2188 678 2363 
z
" transform="scale(0.015625)"/>
     </defs>
     <use xlink:href="#DejaVuSerif-5c" transform="translate(0 0.015625)"/>
     <use xlink:href="#DejaVuSerif-69" transform="translate(33.691406 0.015625)"/>
     <use xlink:href="#DejaVuSerif-74" transform="translate(65.673828 0.015625)"/>
     <use xlink:href="#DejaVuSerif-65" transform="translate(105.859375 0.015625)"/>
     <use xlink:href="#DejaVuSerif-6d" transform="translate(165.039062 0.015625)"/>
     <use xlink:href="#DejaVuSerif-5b" transform="translate(259.863281 0.015625)"/>
     <use xlink:href="#DejaVuSerif-28" transform="translate(298.876953 0.015625)"/>
     <use xlink:href="#DejaVuSerif-69" transform="translate(337.890625 0.015625)"/>
     <use xlink:href="#DejaVuSerif-29" transform="translate(369.873047 0.015625)"/>
     <use xlink:href="#DejaVuSerif-5d" transform="translate(408.886719 0.015625)"/>
     <use xlink:href="#DejaVuSerif-20" transform="translate(447.900391 0.015625)"/>
     <use xlink:href="#Cmmi10-bc" transform="translate(479.6875 0.015625)"/>
     <use xlink:href="#Cmr10-28" transform="translate(536.669922 0.015625)"/>
     <use xlink:href="#Cmmi10-6b" transform="translate(575.488281 0.015625)"/>
     <use xlink:href="#Cmr10-29" transform="translate(627.490234 0.015625)"/>
     <use xlink:href="#Cmmi10-3e" transform="translate(683.867188 0.015625)"/>
     <use xlink:href="#Cmmi10-bc" transform="translate(779.111328 0.015625)"/>
     <use xlink:href="#Cmr10-28" transform="translate(836.09375 0.015625)"/>
     <use xlink:href="#Cmmi10-6b" transform="translate(874.912109 0.015625)"/>
     <use xlink:href="#Cmr10-2b" transform="translate(944.472656 0.015625)"/>
     <use xlink:href="#Cmr10-31" transform="translate(1039.716797 0.015625)"/>
     <use xlink:href="#Cmr10-29" transform="translate(1089.716797 0.015625)"/>
     <use xlink:href="#DejaVuSerif-20" transform="translate(1128.535156 0.015625)"/>
     <use xlink:href="#DejaVuSerif-66" transform="translate(1160.322266 0.015625)"/>
     <use xlink:href="#DejaVuSerif-6f" transform="translate(1197.333984 0.015625)"/>
     <use xlink:href="#DejaVuSerif-72" transform="translate(1257.539062 0.015625)"/>
     <use xlink:href="#DejaVuSerif-20" transform="translate(1305.341797 0.015625)"/>
     <use xlink:href="#Cmmi10-6b" transform="translate(1337.128906 0.015625)"/>
     <use xlink:href="#Cmr10-3d" transform="translate(1406.689453 0.015625)"/>
     <use xlink:href="#Cmr10-31" transform="translate(1501.933594 0.015625)"/>
     <use xlink:href="#DejaVuSerif-3b" transform="translate(1551.933594 0.015625)"/>
    </g>
    <!-- \item[(ii)] $\pi(k-1)&lt;\pi(k)$ and $\pi(k)&gt;\pi(k+1)$ for $1&lt;k&lt;n$; -->
    <g transform="translate(594.72 94.825313) scale(0.12 -0.12)">
     <defs>
      <path id="Cmsy10-a1" d="M 653 1472 
Q 600 1472 565 1512 
Q 531 1553 531 1600 
Q 531 1647 565 1687 
Q 600 1728 653 1728 
L 4325 1728 
Q 4375 1728 4408 1687 
Q 4441 1647 4441 1600 
Q 4441 1553 4408 1512 
Q 4375 1472 4325 1472 
L 653 1472 
z
" transform="scale(0.015625)"/>
      <path id="Cmmi10-3c" d="M 594 1491 
Q 531 1519 531 1600 
Q 531 1681 616 1722 
L 4269 3444 
Q 4294 3456 4313 3456 
Q 4369 3456 4405 3417 
Q 4441 3378 4441 3328 
Q 4441 3250 4366 3206 
L 959 1600 
L 4384 -19 
Q 4441 -38 4441 -128 
Q 4441 -178 4405 -217 
Q 4369 -256 4313 -256 
Q 4294 -256 4269 -244 
L 594 1491 
z
" transform="scale(0.015625)"/>
      <path id="DejaVuSerif-64" d="M 3359 331 
L 3909 331 
L 3909 0 
L 2784 0 
L 2784 519 
Q 2616 206 2355 57 
Q 2094 -91 1709 -91 
Q 1097 -91 708 395 
Q 319 881 319 1663 
Q 319 2444 706 2928 
Q 1094 3413 1709 3413 
Q 2094 3413 2355 3264 
Q 2616 3116 2784 2803 
L 2784 4531 
L 2241 4531 
L 2241 4863 
L 3359 4863 
L 3359 331 
z
M 2784 1497 
L 2784 1825 
Q 2784 2422 2554 2737 
Q 2325 3053 1888 3053 
Q 1444 3053 1217 2703 
Q 991 2353 991 1663 
Q 991 975 1217 622 
Q 1444 269 1888 269 
Q 2325 269 2554 583 
Q 2784 897 2784 1497 
z
" transform="scale(0.015625)"/>
     </defs>
     <use xlink:href="#DejaVuSerif-5c" transform="translate(0 0.015625)"/>
     <use xlink:href="#DejaVuSerif-69" transform="translate(33.691406 0.015625)"/>
     <use xlink:href="#DejaVuSerif-74" transform="translate(65.673828 0.015625)"/>
     <use xlink:href="#DejaVuSerif-65" transform="translate(105.859375 0.015625)"/>
     <use xlink:href="#DejaVuSerif-6d" transform="translate(165.039062 0.015625)"/>
     <use xlink:href="#DejaVuSerif-5b" transform="translate(259.863281 0.015625)"/>
     <use xlink:href="#DejaVuSerif-28" transform="translate(298.876953 0.015625)"/>
     <use xlink:href="#DejaVuSerif-69" transform="translate(337.890625 0.015625)"/>
     <use xlink:href="#DejaVuSerif-69" transform="translate(369.873047 0.015625)"/>
     <use xlink:href="#DejaVuSerif-29" transform="translate(401.855469 0.015625)"/>
     <use xlink:href="#DejaVuSerif-5d" transform="translate(440.869141 0.015625)"/>
     <use xlink:href="#DejaVuSerif-20" transform="translate(479.882812 0.015625)"/>
     <use xlink:href="#Cmmi10-bc" transform="translate(511.669922 0.015625)"/>
     <use xlink:href="#Cmr10-28" transform="translate(568.652344 0.015625)"/>
     <use xlink:href="#Cmmi10-6b" transform="translate(607.470703 0.015625)"/>
     <use xlink:href="#Cmsy10-a1" transform="translate(677.03125 0.015625)"/>
     <use xlink:href="#Cmr10-31" transform="translate(772.275391 0.015625)"/>
     <use xlink:href="#Cmr10-29" transform="translate(822.275391 0.015625)"/>
     <use xlink:href="#Cmmi10-3c" transform="translate(878.652344 0.015625)"/>
     <use xlink:href="#Cmmi10-bc" transform="translate(973.896484 0.015625)"/>
     <use xlink:href="#Cmr10-28" transform="translate(1030.878906 0.015625)"/>
     <use xlink:href="#Cmmi10-6b" transform="translate(1069.697266 0.015625)"/>
     <use xlink:href="#Cmr10-29" transform="translate(1121.699219 0.015625)"/>
     <use xlink:href="#DejaVuSerif-20" transform="translate(1160.517578 0.015625)"/>
     <use xlink:href="#DejaVuSerif-61" transform="translate(1192.304688 0.015625)"/>
     <use xlink:href="#DejaVuSerif-6e" transform="translate(1251.923828 0.015625)"/>
     <use xlink:href="#DejaVuSerif-64" transform="translate(1316.328125 0.015625)"/>
     <use xlink:href="#DejaVuSerif-20" transform="translate(1380.341797 0.015625)"/>
     <use xlink:href="#Cmmi10-bc" transform="translate(1412.128906 0.015625)"/>
     <use xlink:href="#Cmr10-28" transform="translate(1469.111328 0.015625)"/>
     <use xlink:href="#Cmmi10-6b" transform="translate(1507.929688 0.015625)"/>
     <use xlink:href="#Cmr10-29" transform="translate(1559.931641 0.015625)"/>
     <use xlink:href="#Cmmi10-3e" transform="translate(1616.308594 0.015625)"/>
     <use xlink:href="#Cmmi10-bc" transform="translate(1711.552734 0.015625)"/>
     <use xlink:href="#Cmr10-28" transform="translate(1768.535156 0.015625)"/>
     <use xlink:href="#Cmmi10-6b" transform="translate(1807.353516 0.015625)"/>
     <use xlink:href="#Cmr10-2b" transform="translate(1876.914062 0.015625)"/>
     <use xlink:href="#Cmr10-31" transform="translate(1972.158203 0.015625)"/>
     <use xlink:href="#Cmr10-29" transform="translate(2022.158203 0.015625)"/>
     <use xlink:href="#DejaVuSerif-20" transform="translate(2060.976562 0.015625)"/>
     <use xlink:href="#DejaVuSerif-66" transform="translate(2092.763672 0.015625)"/>
     <use xlink:href="#DejaVuSerif-6f" transform="translate(2129.775391 0.015625)"/>
     <use xlink:href="#DejaVuSerif-72" transform="translate(2189.980469 0.015625)"/>
     <use xlink:href="#DejaVuSerif-20" transform="translate(2237.783203 0.015625)"/>
     <use xlink:href="#Cmr10-31" transform="translate(2269.570312 0.015625)"/>
     <use xlink:href="#Cmmi10-3c" transform="translate(2337.128906 0.015625)"/>
     <use xlink:href="#Cmmi10-6b" transform="translate(2432.373047 0.015625)"/>
     <use xlink:href="#Cmmi10-3c" transform="translate(2501.933594 0.015625)"/>
     <use xlink:href="#Cmmi10-6e" transform="translate(2597.177734 0.015625)"/>
     <use xlink:href="#DejaVuSerif-3b" transform="translate(2657.1875 0.015625)"/>
    </g>
    <!-- \item[(iii)] $\pi(k-1)&lt;\pi(k)$ for $k=n$. -->
    <g transform="translate(656.7 108.769313) scale(0.12 -0.12)">
     <use xlink:href="#DejaVuSerif-5c" transform="translate(0 0.015625)"/>
     <use xlink:href="#DejaVuSerif-69" transform="translate(33.691406 0.015625)"/>
     <use xlink:href="#DejaVuSerif-74" transform="translate(65.673828 0.015625)"/>
     <use xlink:href="#DejaVuSerif-65" transform="translate(105.859375 0.015625)"/>
     <use xlink:href="#DejaVuSerif-6d" transform="translate(165.039062 0.015625)"/>
     <use xlink:href="#DejaVuSerif-5b" transform="translate(259.863281 0.015625)"/>
     <use xlink:href="#DejaVuSerif-28" transform="translate(298.876953 0.015625)"/>
     <use xlink:href="#DejaVuSerif-69" transform="translate(337.890625 0.015625)"/>
     <use xlink:href="#DejaVuSerif-69" transform="translate(369.873047 0.015625)"/>
     <use xlink:href="#DejaVuSerif-69" transform="translate(401.855469 0.015625)"/>
     <use xlink:href="#DejaVuSerif-29" transform="translate(433.837891 0.015625)"/>
     <use xlink:href="#DejaVuSerif-5d" transform="translate(472.851562 0.015625)"/>
     <use xlink:href="#DejaVuSerif-20" transform="translate(511.865234 0.015625)"/>
     <use xlink:href="#Cmmi10-bc" transform="translate(543.652344 0.015625)"/>
     <use xlink:href="#Cmr10-28" transform="translate(600.634766 0.015625)"/>
     <use xlink:href="#Cmmi10-6b" transform="translate(639.453125 0.015625)"/>
     <use xlink:href="#Cmsy10-a1" transform="translate(709.013672 0.015625)"/>
     <use xlink:href="#Cmr10-31" transform="translate(804.257812 0.015625)"/>
     <use xlink:href="#Cmr10-29" transform="translate(854.257812 0.015625)"/>
     <use xlink:href="#Cmmi10-3c" transform="translate(910.634766 0.015625)"/>
     <use xlink:href="#Cmmi10-bc" transform="translate(1005.878906 0.015625)"/>
     <use xlink:href="#Cmr10-28" transform="translate(1062.861328 0.015625)"/>
     <use xlink:href="#Cmmi10-6b" transform="translate(1101.679688 0.015625)"/>
     <use xlink:href="#Cmr10-29" transform="translate(1153.681641 0.015625)"/>
     <use xlink:href="#DejaVuSerif-20" transform="translate(1192.5 0.015625)"/>
     <use xlink:href="#DejaVuSerif-66" transform="translate(1224.287109 0.015625)"/>
     <use xlink:href="#DejaVuSerif-6f" transform="translate(1261.298828 0.015625)"/>
     <use xlink:href="#DejaVuSerif-72" transform="translate(1321.503906 0.015625)"/>
     <use xlink:href="#DejaVuSerif-20" transform="translate(1369.306641 0.015625)"/>
     <use xlink:href="#Cmmi10-6b" transform="translate(1401.09375 0.015625)"/>
     <use xlink:href="#Cmr10-3d" transform="translate(1470.654297 0.015625)"/>
     <use xlink:href="#Cmmi10-6e" transform="translate(1565.898438 0.015625)"/>
     <use xlink:href="#DejaVuSerif-2e" transform="translate(1625.908203 0.015625)"/>
    </g>
    <!-- \end{enumerate} -->
    <g transform="translate(702.338438 122.711063) scale(0.12 -0.12)">
     <use xlink:href="#DejaVuSerif-5c"/>
     <use xlink:href="#DejaVuSerif-65" transform="translate(33.691406 0)"/>
     <use xlink:href="#DejaVuSerif-6e" transform="translate(92.871094 0)"/>
     <use xlink:href="#DejaVuSerif-64" transform="translate(157.275391 0)"/>
     <use xlink:href="#DejaVuSerif-7b" transform="translate(221.289062 0)"/>
     <use xlink:href="#DejaVuSerif-65" transform="translate(284.912109 0)"/>
     <use xlink:href="#DejaVuSerif-6e" transform="translate(344.091797 0)"/>
     <use xlink:href="#DejaVuSerif-75" transform="translate(408.496094 0)"/>
     <use xlink:href="#DejaVuSerif-6d" transform="translate(472.900391 0)"/>
     <use xlink:href="#DejaVuSerif-65" transform="translate(567.724609 0)"/>
     <use xlink:href="#DejaVuSerif-72" transform="translate(626.904297 0)"/>
     <use xlink:href="#DejaVuSerif-61" transform="translate(674.707031 0)"/>
     <use xlink:href="#DejaVuSerif-74" transform="translate(734.326172 0)"/>
     <use xlink:href="#DejaVuSerif-65" transform="translate(774.511719 0)"/>
     <use xlink:href="#DejaVuSerif-7d" transform="translate(833.691406 0)"/>
    </g>
    <!-- (For example, if $n=5$ and $\pi$ takes values at $1,2,3,4,5$ of $2,1,4,5,3$, then $\pi$ has a local maximum of 2 at $k=1$, and a local maximum of 5 at $k=4$.) What is the average number of local maxima of a permutation of $S$, averaging over all permutations of $S$? -->
    <g transform="translate(7.2 136.150688) scale(0.12 -0.12)">
     <defs>
      <path id="DejaVuSerif-46" d="M 353 0 
L 353 331 
L 947 331 
L 947 4331 
L 353 4331 
L 353 4666 
L 4172 4666 
L 4172 3628 
L 3788 3628 
L 3788 4281 
L 1581 4281 
L 1581 2719 
L 3175 2719 
L 3175 3303 
L 3559 3303 
L 3559 1753 
L 3175 1753 
L 3175 2338 
L 1581 2338 
L 1581 331 
L 2328 331 
L 2328 0 
L 353 0 
z
" transform="scale(0.015625)"/>
      <path id="DejaVuSerif-2c" d="M 231 -622 
Q 525 -406 662 -114 
Q 800 178 800 594 
L 800 709 
L 1416 709 
Q 1391 175 1164 -208 
Q 938 -591 481 -872 
L 231 -622 
z
" transform="scale(0.015625)"/>
      <path id="Cmr10-35" d="M 556 728 
Q 622 541 758 387 
Q 894 234 1080 148 
Q 1266 63 1466 63 
Q 1928 63 2103 422 
Q 2278 781 2278 1294 
Q 2278 1516 2270 1667 
Q 2263 1819 2228 1959 
Q 2169 2184 2020 2353 
Q 1872 2522 1656 2522 
Q 1441 2522 1286 2456 
Q 1131 2391 1034 2303 
Q 938 2216 863 2119 
Q 788 2022 769 2016 
L 697 2016 
Q 681 2016 657 2036 
Q 634 2056 634 2075 
L 634 4213 
Q 634 4228 654 4245 
Q 675 4263 697 4263 
L 716 4263 
Q 1147 4056 1631 4056 
Q 2106 4056 2547 4263 
L 2566 4263 
Q 2588 4263 2606 4247 
Q 2625 4231 2625 4213 
L 2625 4153 
Q 2625 4122 2613 4122 
Q 2394 3831 2064 3668 
Q 1734 3506 1381 3506 
Q 1125 3506 856 3578 
L 856 2369 
Q 1069 2541 1236 2614 
Q 1403 2688 1663 2688 
Q 2016 2688 2295 2484 
Q 2575 2281 2725 1954 
Q 2875 1628 2875 1288 
Q 2875 903 2686 575 
Q 2497 247 2172 53 
Q 1847 -141 1466 -141 
Q 1150 -141 886 21 
Q 622 184 470 459 
Q 319 734 319 1044 
Q 319 1188 412 1278 
Q 506 1369 647 1369 
Q 788 1369 883 1276 
Q 978 1184 978 1044 
Q 978 906 883 811 
Q 788 716 647 716 
Q 625 716 597 720 
Q 569 725 556 728 
z
" transform="scale(0.015625)"/>
      <path id="DejaVuSerif-6b" d="M 1831 0 
L 219 0 
L 219 331 
L 738 331 
L 738 4531 
L 184 4531 
L 184 4863 
L 1313 4863 
L 1313 1697 
L 2713 2988 
L 2234 2988 
L 2234 3322 
L 3738 3322 
L 3738 2988 
L 3169 2988 
L 2181 2075 
L 3444 331 
L 3922 331 
L 3922 0 
L 2284 0 
L 2284 331 
L 2759 331 
L 1766 1697 
L 1313 1275 
L 1313 331 
L 1831 331 
L 1831 0 
z
" transform="scale(0.015625)"/>
      <path id="DejaVuSerif-76" d="M 1581 0 
L 359 2988 
L -19 2988 
L -19 3322 
L 1509 3322 
L 1509 2988 
L 978 2988 
L 1913 703 
L 2847 2988 
L 2350 2988 
L 2350 3322 
L 3597 3322 
L 3597 2988 
L 3225 2988 
L 2003 0 
L 1581 0 
z
" transform="scale(0.015625)"/>
      <path id="Cmr10-33" d="M 609 494 
Q 759 275 1012 169 
Q 1266 63 1556 63 
Q 1928 63 2084 380 
Q 2241 697 2241 1100 
Q 2241 1281 2208 1462 
Q 2175 1644 2097 1800 
Q 2019 1956 1883 2050 
Q 1747 2144 1550 2144 
L 1125 2144 
Q 1069 2144 1069 2203 
L 1069 2259 
Q 1069 2309 1125 2309 
L 1478 2338 
Q 1703 2338 1851 2506 
Q 2000 2675 2069 2917 
Q 2138 3159 2138 3378 
Q 2138 3684 1994 3881 
Q 1850 4078 1556 4078 
Q 1313 4078 1091 3986 
Q 869 3894 738 3706 
Q 750 3709 759 3711 
Q 769 3713 781 3713 
Q 925 3713 1022 3613 
Q 1119 3513 1119 3372 
Q 1119 3234 1022 3134 
Q 925 3034 781 3034 
Q 641 3034 541 3134 
Q 441 3234 441 3372 
Q 441 3647 606 3850 
Q 772 4053 1033 4158 
Q 1294 4263 1556 4263 
Q 1750 4263 1965 4205 
Q 2181 4147 2356 4039 
Q 2531 3931 2642 3762 
Q 2753 3594 2753 3378 
Q 2753 3109 2633 2881 
Q 2513 2653 2303 2487 
Q 2094 2322 1844 2241 
Q 2122 2188 2372 2031 
Q 2622 1875 2773 1631 
Q 2925 1388 2925 1106 
Q 2925 753 2731 467 
Q 2538 181 2222 20 
Q 1906 -141 1556 -141 
Q 1256 -141 954 -26 
Q 653 88 461 316 
Q 269 544 269 863 
Q 269 1022 375 1128 
Q 481 1234 641 1234 
Q 744 1234 830 1186 
Q 916 1138 964 1050 
Q 1013 963 1013 863 
Q 1013 706 903 600 
Q 794 494 641 494 
L 609 494 
z
" transform="scale(0.015625)"/>
      <path id="Cmr10-34" d="M 178 1056 
L 178 1281 
L 2156 4231 
Q 2178 4263 2222 4263 
L 2316 4263 
Q 2388 4263 2388 4191 
L 2388 1281 
L 3016 1281 
L 3016 1056 
L 2388 1056 
L 2388 428 
Q 2388 297 2575 261 
Q 2763 225 3009 225 
L 3009 0 
L 1247 0 
L 1247 225 
Q 1494 225 1681 261 
Q 1869 297 1869 428 
L 1869 1056 
L 178 1056 
z
M 391 1281 
L 1906 1281 
L 1906 3547 
L 391 1281 
z
" transform="scale(0.015625)"/>
      <path id="DejaVuSerif-32" d="M 819 3553 
L 469 3553 
L 469 4384 
Q 803 4563 1142 4656 
Q 1481 4750 1806 4750 
Q 2534 4750 2956 4397 
Q 3378 4044 3378 3438 
Q 3378 2753 2422 1800 
Q 2347 1728 2309 1691 
L 1131 513 
L 3078 513 
L 3078 1088 
L 3444 1088 
L 3444 0 
L 434 0 
L 434 341 
L 1850 1753 
Q 2319 2222 2519 2614 
Q 2719 3006 2719 3438 
Q 2719 3909 2473 4175 
Q 2228 4441 1797 4441 
Q 1350 4441 1106 4219 
Q 863 3997 819 3553 
z
" transform="scale(0.015625)"/>
      <path id="DejaVuSerif-35" d="M 3219 4666 
L 3219 4153 
L 1081 4153 
L 1081 2816 
Q 1244 2928 1461 2984 
Q 1678 3041 1947 3041 
Q 2703 3041 3140 2622 
Q 3578 2203 3578 1478 
Q 3578 738 3136 323 
Q 2694 -91 1894 -91 
Q 1572 -91 1234 -12 
Q 897 66 544 225 
L 544 1131 
L 897 1131 
Q 925 688 1179 453 
Q 1434 219 1894 219 
Q 2388 219 2653 544 
Q 2919 869 2919 1478 
Q 2919 2084 2655 2407 
Q 2391 2731 1894 2731 
Q 1613 2731 1398 2631 
Q 1184 2531 1019 2322 
L 750 2322 
L 750 4666 
L 3219 4666 
z
" transform="scale(0.015625)"/>
      <path id="DejaVuSerif-57" d="M 4878 0 
L 4366 0 
L 3297 3794 
L 2228 0 
L 1716 0 
L 494 4331 
L 31 4331 
L 31 4666 
L 1734 4666 
L 1734 4331 
L 1153 4331 
L 2125 884 
L 3188 4666 
L 3694 4666 
L 4775 844 
L 5753 4331 
L 5216 4331 
L 5216 4666 
L 6559 4666 
L 6559 4331 
L 6100 4331 
L 4878 0 
z
" transform="scale(0.015625)"/>
      <path id="DejaVuSerif-3f" d="M 1125 325 
Q 1125 500 1245 622 
Q 1366 744 1544 744 
Q 1716 744 1837 622 
Q 1959 500 1959 325 
Q 1959 153 1837 31 
Q 1716 -91 1544 -91 
Q 1366 -91 1245 29 
Q 1125 150 1125 325 
z
M 434 4459 
Q 766 4606 1064 4678 
Q 1363 4750 1625 4750 
Q 2319 4750 2720 4415 
Q 3122 4081 3122 3513 
Q 3122 2931 2776 2562 
Q 2431 2194 1734 2034 
L 1734 1241 
L 1350 1241 
L 1350 2266 
Q 1903 2400 2183 2715 
Q 2463 3031 2463 3519 
Q 2463 3947 2234 4194 
Q 2006 4441 1613 4441 
Q 1256 4441 1029 4236 
Q 803 4031 738 3647 
L 434 3647 
L 434 4459 
z
" transform="scale(0.015625)"/>
     </defs>
     <use xlink:href="#DejaVuSerif-28" transform="translate(0 0.015625)"/>
     <use xlink:href="#DejaVuSerif-46" transform="translate(39.013672 0.015625)"/>
     <use xlink:href="#DejaVuSerif-6f" transform="translate(108.398438 0.015625)"/>
     <use xlink:href="#DejaVuSerif-72" transform="translate(168.603516 0.015625)"/>
     <use xlink:href="#DejaVuSerif-20" transform="translate(216.40625 0.015625)"/>
     <use xlink:href="#DejaVuSerif-65" transform="translate(248.193359 0.015625)"/>
     <use xlink:href="#DejaVuSerif-78" transform="translate(307.373047 0.015625)"/>
     <use xlink:href="#DejaVuSerif-61" transform="translate(363.769531 0.015625)"/>
     <use xlink:href="#DejaVuSerif-6d" transform="translate(423.388672 0.015625)"/>
     <use xlink:href="#DejaVuSerif-70" transform="translate(518.212891 0.015625)"/>
     <use xlink:href="#DejaVuSerif-6c" transform="translate(582.226562 0.015625)"/>
     <use xlink:href="#DejaVuSerif-65" transform="translate(614.208984 0.015625)"/>
     <use xlink:href="#DejaVuSerif-2c" transform="translate(673.388672 0.015625)"/>
     <use xlink:href="#DejaVuSerif-20" transform="translate(705.175781 0.015625)"/>
     <use xlink:href="#DejaVuSerif-69" transform="translate(736.962891 0.015625)"/>
     <use xlink:href="#DejaVuSerif-66" transform="translate(768.945312 0.015625)"/>
     <use xlink:href="#DejaVuSerif-20" transform="translate(805.957031 0.015625)"/>
     <use xlink:href="#Cmmi10-6e" transform="translate(837.744141 0.015625)"/>
     <use xlink:href="#Cmr10-3d" transform="translate(915.3125 0.015625)"/>
     <use xlink:href="#Cmr10-35" transform="translate(1010.556641 0.015625)"/>
     <use xlink:href="#DejaVuSerif-20" transform="translate(1060.556641 0.015625)"/>
     <use xlink:href="#DejaVuSerif-61" transform="translate(1092.34375 0.015625)"/>
     <use xlink:href="#DejaVuSerif-6e" transform="translate(1151.962891 0.015625)"/>
     <use xlink:href="#DejaVuSerif-64" transform="translate(1216.367188 0.015625)"/>
     <use xlink:href="#DejaVuSerif-20" transform="translate(1280.380859 0.015625)"/>
     <use xlink:href="#Cmmi10-bc" transform="translate(1312.167969 0.015625)"/>
     <use xlink:href="#DejaVuSerif-20" transform="translate(1369.150391 0.015625)"/>
     <use xlink:href="#DejaVuSerif-74" transform="translate(1400.9375 0.015625)"/>
     <use xlink:href="#DejaVuSerif-61" transform="translate(1441.123047 0.015625)"/>
     <use xlink:href="#DejaVuSerif-6b" transform="translate(1500.742188 0.015625)"/>
     <use xlink:href="#DejaVuSerif-65" transform="translate(1561.337891 0.015625)"/>
     <use xlink:href="#DejaVuSerif-73" transform="translate(1620.517578 0.015625)"/>
     <use xlink:href="#DejaVuSerif-20" transform="translate(1671.835938 0.015625)"/>
     <use xlink:href="#DejaVuSerif-76" transform="translate(1703.623047 0.015625)"/>
     <use xlink:href="#DejaVuSerif-61" transform="translate(1760.117188 0.015625)"/>
     <use xlink:href="#DejaVuSerif-6c" transform="translate(1819.736328 0.015625)"/>
     <use xlink:href="#DejaVuSerif-75" transform="translate(1851.71875 0.015625)"/>
     <use xlink:href="#DejaVuSerif-65" transform="translate(1916.123047 0.015625)"/>
     <use xlink:href="#DejaVuSerif-73" transform="translate(1975.302734 0.015625)"/>
     <use xlink:href="#DejaVuSerif-20" transform="translate(2026.621094 0.015625)"/>
     <use xlink:href="#DejaVuSerif-61" transform="translate(2058.408203 0.015625)"/>
     <use xlink:href="#DejaVuSerif-74" transform="translate(2118.027344 0.015625)"/>
     <use xlink:href="#DejaVuSerif-20" transform="translate(2158.212891 0.015625)"/>
     <use xlink:href="#Cmr10-31" transform="translate(2190 0.015625)"/>
     <use xlink:href="#Cmmi10-3b" transform="translate(2240 0.015625)"/>
     <use xlink:href="#Cmr10-32" transform="translate(2285.244141 0.015625)"/>
     <use xlink:href="#Cmmi10-3b" transform="translate(2335.244141 0.015625)"/>
     <use xlink:href="#Cmr10-33" transform="translate(2380.488281 0.015625)"/>
     <use xlink:href="#Cmmi10-3b" transform="translate(2430.488281 0.015625)"/>
     <use xlink:href="#Cmr10-34" transform="translate(2475.732422 0.015625)"/>
     <use xlink:href="#Cmmi10-3b" transform="translate(2525.732422 0.015625)"/>
     <use xlink:href="#Cmr10-35" transform="translate(2570.976562 0.015625)"/>
     <use xlink:href="#DejaVuSerif-20" transform="translate(2620.976562 0.015625)"/>
     <use xlink:href="#DejaVuSerif-6f" transform="translate(2652.763672 0.015625)"/>
     <use xlink:href="#DejaVuSerif-66" transform="translate(2712.96875 0.015625)"/>
     <use xlink:href="#DejaVuSerif-20" transform="translate(2749.980469 0.015625)"/>
     <use xlink:href="#Cmr10-32" transform="translate(2781.767578 0.015625)"/>
     <use xlink:href="#Cmmi10-3b" transform="translate(2831.767578 0.015625)"/>
     <use xlink:href="#Cmr10-31" transform="translate(2877.011719 0.015625)"/>
     <use xlink:href="#Cmmi10-3b" transform="translate(2927.011719 0.015625)"/>
     <use xlink:href="#Cmr10-34" transform="translate(2972.255859 0.015625)"/>
     <use xlink:href="#Cmmi10-3b" transform="translate(3022.255859 0.015625)"/>
     <use xlink:href="#Cmr10-35" transform="translate(3067.5 0.015625)"/>
     <use xlink:href="#Cmmi10-3b" transform="translate(3117.5 0.015625)"/>
     <use xlink:href="#Cmr10-33" transform="translate(3162.744141 0.015625)"/>
     <use xlink:href="#DejaVuSerif-2c" transform="translate(3212.744141 0.015625)"/>
     <use xlink:href="#DejaVuSerif-20" transform="translate(3244.53125 0.015625)"/>
     <use xlink:href="#DejaVuSerif-74" transform="translate(3276.318359 0.015625)"/>
     <use xlink:href="#DejaVuSerif-68" transform="translate(3316.503906 0.015625)"/>
     <use xlink:href="#DejaVuSerif-65" transform="translate(3380.908203 0.015625)"/>
     <use xlink:href="#DejaVuSerif-6e" transform="translate(3440.087891 0.015625)"/>
     <use xlink:href="#DejaVuSerif-20" transform="translate(3504.492188 0.015625)"/>
     <use xlink:href="#Cmmi10-bc" transform="translate(3536.279297 0.015625)"/>
     <use xlink:href="#DejaVuSerif-20" transform="translate(3593.261719 0.015625)"/>
     <use xlink:href="#DejaVuSerif-68" transform="translate(3625.048828 0.015625)"/>
     <use xlink:href="#DejaVuSerif-61" transform="translate(3689.453125 0.015625)"/>
     <use xlink:href="#DejaVuSerif-73" transform="translate(3749.072266 0.015625)"/>
     <use xlink:href="#DejaVuSerif-20" transform="translate(3800.390625 0.015625)"/>
     <use xlink:href="#DejaVuSerif-61" transform="translate(3832.177734 0.015625)"/>
     <use xlink:href="#DejaVuSerif-20" transform="translate(3891.796875 0.015625)"/>
     <use xlink:href="#DejaVuSerif-6c" transform="translate(3923.583984 0.015625)"/>
     <use xlink:href="#DejaVuSerif-6f" transform="translate(3955.566406 0.015625)"/>
     <use xlink:href="#DejaVuSerif-63" transform="translate(4015.771484 0.015625)"/>
     <use xlink:href="#DejaVuSerif-61" transform="translate(4071.777344 0.015625)"/>
     <use xlink:href="#DejaVuSerif-6c" transform="translate(4131.396484 0.015625)"/>
     <use xlink:href="#DejaVuSerif-20" transform="translate(4163.378906 0.015625)"/>
     <use xlink:href="#DejaVuSerif-6d" transform="translate(4195.166016 0.015625)"/>
     <use xlink:href="#DejaVuSerif-61" transform="translate(4289.990234 0.015625)"/>
     <use xlink:href="#DejaVuSerif-78" transform="translate(4349.609375 0.015625)"/>
     <use xlink:href="#DejaVuSerif-69" transform="translate(4406.005859 0.015625)"/>
     <use xlink:href="#DejaVuSerif-6d" transform="translate(4437.988281 0.015625)"/>
     <use xlink:href="#DejaVuSerif-75" transform="translate(4532.8125 0.015625)"/>
     <use xlink:href="#DejaVuSerif-6d" transform="translate(4597.216797 0.015625)"/>
     <use xlink:href="#DejaVuSerif-20" transform="translate(4692.041016 0.015625)"/>
     <use xlink:href="#DejaVuSerif-6f" transform="translate(4723.828125 0.015625)"/>
     <use xlink:href="#DejaVuSerif-66" transform="translate(4784.033203 0.015625)"/>
     <use xlink:href="#DejaVuSerif-20" transform="translate(4821.044922 0.015625)"/>
     <use xlink:href="#DejaVuSerif-32" transform="translate(4852.832031 0.015625)"/>
     <use xlink:href="#DejaVuSerif-20" transform="translate(4916.455078 0.015625)"/>
     <use xlink:href="#DejaVuSerif-61" transform="translate(4948.242188 0.015625)"/>
     <use xlink:href="#DejaVuSerif-74" transform="translate(5007.861328 0.015625)"/>
     <use xlink:href="#DejaVuSerif-20" transform="translate(5048.046875 0.015625)"/>
     <use xlink:href="#Cmmi10-6b" transform="translate(5079.833984 0.015625)"/>
     <use xlink:href="#Cmr10-3d" transform="translate(5149.394531 0.015625)"/>
     <use xlink:href="#Cmr10-31" transform="translate(5244.638672 0.015625)"/>
     <use xlink:href="#DejaVuSerif-2c" transform="translate(5294.638672 0.015625)"/>
     <use xlink:href="#DejaVuSerif-20" transform="translate(5326.425781 0.015625)"/>
     <use xlink:href="#DejaVuSerif-61" transform="translate(5358.212891 0.015625)"/>
     <use xlink:href="#DejaVuSerif-6e" transform="translate(5417.832031 0.015625)"/>
     <use xlink:href="#DejaVuSerif-64" transform="translate(5482.236328 0.015625)"/>
     <use xlink:href="#DejaVuSerif-20" transform="translate(5546.25 0.015625)"/>
     <use xlink:href="#DejaVuSerif-61" transform="translate(5578.037109 0.015625)"/>
     <use xlink:href="#DejaVuSerif-20" transform="translate(5637.65625 0.015625)"/>
     <use xlink:href="#DejaVuSerif-6c" transform="translate(5669.443359 0.015625)"/>
     <use xlink:href="#DejaVuSerif-6f" transform="translate(5701.425781 0.015625)"/>
     <use xlink:href="#DejaVuSerif-63" transform="translate(5761.630859 0.015625)"/>
     <use xlink:href="#DejaVuSerif-61" transform="translate(5817.636719 0.015625)"/>
     <use xlink:href="#DejaVuSerif-6c" transform="translate(5877.255859 0.015625)"/>
     <use xlink:href="#DejaVuSerif-20" transform="translate(5909.238281 0.015625)"/>
     <use xlink:href="#DejaVuSerif-6d" transform="translate(5941.025391 0.015625)"/>
     <use xlink:href="#DejaVuSerif-61" transform="translate(6035.849609 0.015625)"/>
     <use xlink:href="#DejaVuSerif-78" transform="translate(6095.46875 0.015625)"/>
     <use xlink:href="#DejaVuSerif-69" transform="translate(6151.865234 0.015625)"/>
     <use xlink:href="#DejaVuSerif-6d" transform="translate(6183.847656 0.015625)"/>
     <use xlink:href="#DejaVuSerif-75" transform="translate(6278.671875 0.015625)"/>
     <use xlink:href="#DejaVuSerif-6d" transform="translate(6343.076172 0.015625)"/>
     <use xlink:href="#DejaVuSerif-20" transform="translate(6437.900391 0.015625)"/>
     <use xlink:href="#DejaVuSerif-6f" transform="translate(6469.6875 0.015625)"/>
     <use xlink:href="#DejaVuSerif-66" transform="translate(6529.892578 0.015625)"/>
     <use xlink:href="#DejaVuSerif-20" transform="translate(6566.904297 0.015625)"/>
     <use xlink:href="#DejaVuSerif-35" transform="translate(6598.691406 0.015625)"/>
     <use xlink:href="#DejaVuSerif-20" transform="translate(6662.314453 0.015625)"/>
     <use xlink:href="#DejaVuSerif-61" transform="translate(6694.101562 0.015625)"/>
     <use xlink:href="#DejaVuSerif-74" transform="translate(6753.720703 0.015625)"/>
     <use xlink:href="#DejaVuSerif-20" transform="translate(6793.90625 0.015625)"/>
     <use xlink:href="#Cmmi10-6b" transform="translate(6825.693359 0.015625)"/>
     <use xlink:href="#Cmr10-3d" transform="translate(6895.253906 0.015625)"/>
     <use xlink:href="#Cmr10-34" transform="translate(6990.498047 0.015625)"/>
     <use xlink:href="#DejaVuSerif-2e" transform="translate(7040.498047 0.015625)"/>
     <use xlink:href="#DejaVuSerif-29" transform="translate(7072.285156 0.015625)"/>
     <use xlink:href="#DejaVuSerif-20" transform="translate(7111.298828 0.015625)"/>
     <use xlink:href="#DejaVuSerif-57" transform="translate(7143.085938 0.015625)"/>
     <use xlink:href="#DejaVuSerif-68" transform="translate(7245.869141 0.015625)"/>
     <use xlink:href="#DejaVuSerif-61" transform="translate(7310.273438 0.015625)"/>
     <use xlink:href="#DejaVuSerif-74" transform="translate(7369.892578 0.015625)"/>
     <use xlink:href="#DejaVuSerif-20" transform="translate(7410.078125 0.015625)"/>
     <use xlink:href="#DejaVuSerif-69" transform="translate(7441.865234 0.015625)"/>
     <use xlink:href="#DejaVuSerif-73" transform="translate(7473.847656 0.015625)"/>
     <use xlink:href="#DejaVuSerif-20" transform="translate(7525.166016 0.015625)"/>
     <use xlink:href="#DejaVuSerif-74" transform="translate(7556.953125 0.015625)"/>
     <use xlink:href="#DejaVuSerif-68" transform="translate(7597.138672 0.015625)"/>
     <use xlink:href="#DejaVuSerif-65" transform="translate(7661.542969 0.015625)"/>
     <use xlink:href="#DejaVuSerif-20" transform="translate(7720.722656 0.015625)"/>
     <use xlink:href="#DejaVuSerif-61" transform="translate(7752.509766 0.015625)"/>
     <use xlink:href="#DejaVuSerif-76" transform="translate(7812.128906 0.015625)"/>
     <use xlink:href="#DejaVuSerif-65" transform="translate(7868.623047 0.015625)"/>
     <use xlink:href="#DejaVuSerif-72" transform="translate(7927.802734 0.015625)"/>
     <use xlink:href="#DejaVuSerif-61" transform="translate(7975.605469 0.015625)"/>
     <use xlink:href="#DejaVuSerif-67" transform="translate(8035.224609 0.015625)"/>
     <use xlink:href="#DejaVuSerif-65" transform="translate(8099.238281 0.015625)"/>
     <use xlink:href="#DejaVuSerif-20" transform="translate(8158.417969 0.015625)"/>
     <use xlink:href="#DejaVuSerif-6e" transform="translate(8190.205078 0.015625)"/>
     <use xlink:href="#DejaVuSerif-75" transform="translate(8254.609375 0.015625)"/>
     <use xlink:href="#DejaVuSerif-6d" transform="translate(8319.013672 0.015625)"/>
     <use xlink:href="#DejaVuSerif-62" transform="translate(8413.837891 0.015625)"/>
     <use xlink:href="#DejaVuSerif-65" transform="translate(8477.851562 0.015625)"/>
     <use xlink:href="#DejaVuSerif-72" transform="translate(8537.03125 0.015625)"/>
     <use xlink:href="#DejaVuSerif-20" transform="translate(8584.833984 0.015625)"/>
     <use xlink:href="#DejaVuSerif-6f" transform="translate(8616.621094 0.015625)"/>
     <use xlink:href="#DejaVuSerif-66" transform="translate(8676.826172 0.015625)"/>
     <use xlink:href="#DejaVuSerif-20" transform="translate(8713.837891 0.015625)"/>
     <use xlink:href="#DejaVuSerif-6c" transform="translate(8745.625 0.015625)"/>
     <use xlink:href="#DejaVuSerif-6f" transform="translate(8777.607422 0.015625)"/>
     <use xlink:href="#DejaVuSerif-63" transform="translate(8837.8125 0.015625)"/>
     <use xlink:href="#DejaVuSerif-61" transform="translate(8893.818359 0.015625)"/>
     <use xlink:href="#DejaVuSerif-6c" transform="translate(8953.4375 0.015625)"/>
     <use xlink:href="#DejaVuSerif-20" transform="translate(8985.419922 0.015625)"/>
     <use xlink:href="#DejaVuSerif-6d" transform="translate(9017.207031 0.015625)"/>
     <use xlink:href="#DejaVuSerif-61" transform="translate(9112.03125 0.015625)"/>
     <use xlink:href="#DejaVuSerif-78" transform="translate(9171.650391 0.015625)"/>
     <use xlink:href="#DejaVuSerif-69" transform="translate(9228.046875 0.015625)"/>
     <use xlink:href="#DejaVuSerif-6d" transform="translate(9260.029297 0.015625)"/>
     <use xlink:href="#DejaVuSerif-61" transform="translate(9354.853516 0.015625)"/>
     <use xlink:href="#DejaVuSerif-20" transform="translate(9414.472656 0.015625)"/>
     <use xlink:href="#DejaVuSerif-6f" transform="translate(9446.259766 0.015625)"/>
     <use xlink:href="#DejaVuSerif-66" transform="translate(9506.464844 0.015625)"/>
     <use xlink:href="#DejaVuSerif-20" transform="translate(9543.476562 0.015625)"/>
     <use xlink:href="#DejaVuSerif-61" transform="translate(9575.263672 0.015625)"/>
     <use xlink:href="#DejaVuSerif-20" transform="translate(9634.882812 0.015625)"/>
     <use xlink:href="#DejaVuSerif-70" transform="translate(9666.669922 0.015625)"/>
     <use xlink:href="#DejaVuSerif-65" transform="translate(9730.683594 0.015625)"/>
     <use xlink:href="#DejaVuSerif-72" transform="translate(9789.863281 0.015625)"/>
     <use xlink:href="#DejaVuSerif-6d" transform="translate(9837.666016 0.015625)"/>
     <use xlink:href="#DejaVuSerif-75" transform="translate(9932.490234 0.015625)"/>
     <use xlink:href="#DejaVuSerif-74" transform="translate(9996.894531 0.015625)"/>
     <use xlink:href="#DejaVuSerif-61" transform="translate(10037.080078 0.015625)"/>
     <use xlink:href="#DejaVuSerif-74" transform="translate(10096.699219 0.015625)"/>
     <use xlink:href="#DejaVuSerif-69" transform="translate(10136.884766 0.015625)"/>
     <use xlink:href="#DejaVuSerif-6f" transform="translate(10168.867188 0.015625)"/>
     <use xlink:href="#DejaVuSerif-6e" transform="translate(10229.072266 0.015625)"/>
     <use xlink:href="#DejaVuSerif-20" transform="translate(10293.476562 0.015625)"/>
     <use xlink:href="#DejaVuSerif-6f" transform="translate(10325.263672 0.015625)"/>
     <use xlink:href="#DejaVuSerif-66" transform="translate(10385.46875 0.015625)"/>
     <use xlink:href="#DejaVuSerif-20" transform="translate(10422.480469 0.015625)"/>
     <use xlink:href="#Cmmi10-53" transform="translate(10454.267578 0.015625)"/>
     <use xlink:href="#DejaVuSerif-2c" transform="translate(10515.546875 0.015625)"/>
     <use xlink:href="#DejaVuSerif-20" transform="translate(10547.333984 0.015625)"/>
     <use xlink:href="#DejaVuSerif-61" transform="translate(10579.121094 0.015625)"/>
     <use xlink:href="#DejaVuSerif-76" transform="translate(10638.740234 0.015625)"/>
     <use xlink:href="#DejaVuSerif-65" transform="translate(10695.234375 0.015625)"/>
     <use xlink:href="#DejaVuSerif-72" transform="translate(10754.414062 0.015625)"/>
     <use xlink:href="#DejaVuSerif-61" transform="translate(10802.216797 0.015625)"/>
     <use xlink:href="#DejaVuSerif-67" transform="translate(10861.835938 0.015625)"/>
     <use xlink:href="#DejaVuSerif-69" transform="translate(10925.849609 0.015625)"/>
     <use xlink:href="#DejaVuSerif-6e" transform="translate(10957.832031 0.015625)"/>
     <use xlink:href="#DejaVuSerif-67" transform="translate(11022.236328 0.015625)"/>
     <use xlink:href="#DejaVuSerif-20" transform="translate(11086.25 0.015625)"/>
     <use xlink:href="#DejaVuSerif-6f" transform="translate(11118.037109 0.015625)"/>
     <use xlink:href="#DejaVuSerif-76" transform="translate(11178.242188 0.015625)"/>
     <use xlink:href="#DejaVuSerif-65" transform="translate(11234.736328 0.015625)"/>
     <use xlink:href="#DejaVuSerif-72" transform="translate(11293.916016 0.015625)"/>
     <use xlink:href="#DejaVuSerif-20" transform="translate(11341.71875 0.015625)"/>
     <use xlink:href="#DejaVuSerif-61" transform="translate(11373.505859 0.015625)"/>
     <use xlink:href="#DejaVuSerif-6c" transform="translate(11433.125 0.015625)"/>
     <use xlink:href="#DejaVuSerif-6c" transform="translate(11465.107422 0.015625)"/>
     <use xlink:href="#DejaVuSerif-20" transform="translate(11497.089844 0.015625)"/>
     <use xlink:href="#DejaVuSerif-70" transform="translate(11528.876953 0.015625)"/>
     <use xlink:href="#DejaVuSerif-65" transform="translate(11592.890625 0.015625)"/>
     <use xlink:href="#DejaVuSerif-72" transform="translate(11652.070312 0.015625)"/>
     <use xlink:href="#DejaVuSerif-6d" transform="translate(11699.873047 0.015625)"/>
     <use xlink:href="#DejaVuSerif-75" transform="translate(11794.697266 0.015625)"/>
     <use xlink:href="#DejaVuSerif-74" transform="translate(11859.101562 0.015625)"/>
     <use xlink:href="#DejaVuSerif-61" transform="translate(11899.287109 0.015625)"/>
     <use xlink:href="#DejaVuSerif-74" transform="translate(11958.90625 0.015625)"/>
     <use xlink:href="#DejaVuSerif-69" transform="translate(11999.091797 0.015625)"/>
     <use xlink:href="#DejaVuSerif-6f" transform="translate(12031.074219 0.015625)"/>
     <use xlink:href="#DejaVuSerif-6e" transform="translate(12091.279297 0.015625)"/>
     <use xlink:href="#DejaVuSerif-73" transform="translate(12155.683594 0.015625)"/>
     <use xlink:href="#DejaVuSerif-20" transform="translate(12207.001953 0.015625)"/>
     <use xlink:href="#DejaVuSerif-6f" transform="translate(12238.789062 0.015625)"/>
     <use xlink:href="#DejaVuSerif-66" transform="translate(12298.994141 0.015625)"/>
     <use xlink:href="#DejaVuSerif-20" transform="translate(12336.005859 0.015625)"/>
     <use xlink:href="#Cmmi10-53" transform="translate(12367.792969 0.015625)"/>
     <use xlink:href="#DejaVuSerif-3f" transform="translate(12429.072266 0.015625)"/>
    </g>
   </g>
  </g>
 </g>
</svg>
