<?xml version="1.0" encoding="utf-8" standalone="no"?>
<!DOCTYPE svg PUBLIC "-//W3C//DTD SVG 1.1//EN"
  "http://www.w3.org/Graphics/SVG/1.1/DTD/svg11.dtd">
<svg xmlns:xlink="http://www.w3.org/1999/xlink" width="1378.92pt" height="180.72pt" viewBox="0 0 1378.92 180.72" xmlns="http://www.w3.org/2000/svg" version="1.1">
 <metadata>
  <rdf:RDF xmlns:dc="http://purl.org/dc/elements/1.1/" xmlns:cc="http://creativecommons.org/ns#" xmlns:rdf="http://www.w3.org/1999/02/22-rdf-syntax-ns#">
   <cc:Work>
    <dc:type rdf:resource="http://purl.org/dc/dcmitype/StillImage"/>
    <dc:date>2025-05-29T18:43:43.482157</dc:date>
    <dc:format>image/svg+xml</dc:format>
    <dc:creator>
     <cc:Agent>
      <dc:title>Matplotlib v3.10.3, https://matplotlib.org/</dc:title>
     </cc:Agent>
    </dc:creator>
   </cc:Work>
  </rdf:RDF>
 </metadata>
 <defs>
  <style type="text/css">*{stroke-linejoin: round; stroke-linecap: butt}</style>
 </defs>
 <g id="figure_1">
  <g id="patch_1">
   <path d="M 0 180.72 
L 1378.92 180.72 
L 1378.92 0 
L 0 0 
z
" style="fill: #ffffff"/>
  </g>
  <g id="axes_1">
   <g id="text_1">
    <!-- We call a function $f$ from $[0,1]$ to the reals to be supercontinuous on $[0,1]$ if the Cesaro-limit exists for the sequence $f(x_1), f(x_2), f(x_3), \dots$ whenever it does for the sequence $x_1, x_2, x_3 \dots$. Find all supercontinuous functions on $[0,1]$. -->
    <g transform="translate(7.2 93.42) scale(0.12 -0.12)">
     <defs>
      <path id="DejaVuSerif-57" d="M 4878 0 
L 4366 0 
L 3297 3794 
L 2228 0 
L 1716 0 
L 494 4331 
L 31 4331 
L 31 4666 
L 1734 4666 
L 1734 4331 
L 1153 4331 
L 2125 884 
L 3188 4666 
L 3694 4666 
L 4775 844 
L 5753 4331 
L 5216 4331 
L 5216 4666 
L 6559 4666 
L 6559 4331 
L 6100 4331 
L 4878 0 
z
" transform="scale(0.015625)"/>
      <path id="DejaVuSerif-65" d="M 3469 1600 
L 991 1600 
L 991 1575 
Q 991 903 1244 561 
Q 1497 219 1991 219 
Q 2369 219 2611 417 
Q 2853 616 2950 1006 
L 3413 1006 
Q 3275 459 2904 184 
Q 2534 -91 1931 -91 
Q 1203 -91 761 389 
Q 319 869 319 1663 
Q 319 2450 753 2931 
Q 1188 3413 1894 3413 
Q 2647 3413 3050 2948 
Q 3453 2484 3469 1600 
z
M 2791 1931 
Q 2772 2513 2545 2808 
Q 2319 3103 1894 3103 
Q 1497 3103 1269 2806 
Q 1041 2509 991 1931 
L 2791 1931 
z
" transform="scale(0.015625)"/>
      <path id="DejaVuSerif-20" transform="scale(0.015625)"/>
      <path id="DejaVuSerif-63" d="M 3291 997 
Q 3169 466 2822 187 
Q 2475 -91 1925 -91 
Q 1200 -91 759 389 
Q 319 869 319 1663 
Q 319 2459 759 2936 
Q 1200 3413 1925 3413 
Q 2241 3413 2553 3339 
Q 2866 3266 3181 3116 
L 3181 2266 
L 2847 2266 
Q 2781 2703 2561 2903 
Q 2341 3103 1931 3103 
Q 1466 3103 1228 2742 
Q 991 2381 991 1663 
Q 991 944 1227 581 
Q 1463 219 1931 219 
Q 2303 219 2525 412 
Q 2747 606 2828 997 
L 3291 997 
z
" transform="scale(0.015625)"/>
      <path id="DejaVuSerif-61" d="M 2547 1044 
L 2547 1747 
L 1806 1747 
Q 1378 1747 1168 1562 
Q 959 1378 959 997 
Q 959 650 1171 447 
Q 1384 244 1747 244 
Q 2106 244 2326 466 
Q 2547 688 2547 1044 
z
M 3122 2075 
L 3122 331 
L 3634 331 
L 3634 0 
L 2547 0 
L 2547 359 
Q 2356 128 2106 18 
Q 1856 -91 1522 -91 
Q 969 -91 644 203 
Q 319 497 319 997 
Q 319 1513 691 1797 
Q 1063 2081 1741 2081 
L 2547 2081 
L 2547 2309 
Q 2547 2688 2317 2895 
Q 2088 3103 1672 3103 
Q 1328 3103 1125 2947 
Q 922 2791 872 2484 
L 575 2484 
L 575 3156 
Q 875 3284 1158 3348 
Q 1441 3413 1709 3413 
Q 2400 3413 2761 3070 
Q 3122 2728 3122 2075 
z
" transform="scale(0.015625)"/>
      <path id="DejaVuSerif-6c" d="M 1313 331 
L 1856 331 
L 1856 0 
L 184 0 
L 184 331 
L 738 331 
L 738 4531 
L 184 4531 
L 184 4863 
L 1313 4863 
L 1313 331 
z
" transform="scale(0.015625)"/>
      <path id="DejaVuSerif-66" d="M 2753 4078 
L 2450 4078 
Q 2447 4313 2317 4434 
Q 2188 4556 1941 4556 
Q 1619 4556 1487 4379 
Q 1356 4203 1356 3750 
L 1356 3322 
L 2284 3322 
L 2284 2988 
L 1356 2988 
L 1356 331 
L 2094 331 
L 2094 0 
L 231 0 
L 231 331 
L 781 331 
L 781 2988 
L 231 2988 
L 231 3322 
L 781 3322 
L 781 3738 
Q 781 4294 1070 4578 
Q 1359 4863 1919 4863 
Q 2128 4863 2337 4825 
Q 2547 4788 2753 4709 
L 2753 4078 
z
" transform="scale(0.015625)"/>
      <path id="DejaVuSerif-75" d="M 2266 3322 
L 3341 3322 
L 3341 331 
L 3884 331 
L 3884 0 
L 2766 0 
L 2766 588 
Q 2606 256 2353 82 
Q 2100 -91 1766 -91 
Q 1213 -91 952 223 
Q 691 538 691 1209 
L 691 2988 
L 172 2988 
L 172 3322 
L 1269 3322 
L 1269 1388 
Q 1269 781 1417 556 
Q 1566 331 1947 331 
Q 2347 331 2556 625 
Q 2766 919 2766 1478 
L 2766 2988 
L 2266 2988 
L 2266 3322 
z
" transform="scale(0.015625)"/>
      <path id="DejaVuSerif-6e" d="M 263 0 
L 263 331 
L 781 331 
L 781 2988 
L 231 2988 
L 231 3322 
L 1356 3322 
L 1356 2731 
Q 1516 3069 1770 3241 
Q 2025 3413 2363 3413 
Q 2913 3413 3172 3097 
Q 3431 2781 3431 2113 
L 3431 331 
L 3944 331 
L 3944 0 
L 2356 0 
L 2356 331 
L 2853 331 
L 2853 1931 
Q 2853 2541 2703 2767 
Q 2553 2994 2175 2994 
Q 1775 2994 1565 2701 
Q 1356 2409 1356 1850 
L 1356 331 
L 1856 331 
L 1856 0 
L 263 0 
z
" transform="scale(0.015625)"/>
      <path id="DejaVuSerif-74" d="M 691 2988 
L 184 2988 
L 184 3322 
L 691 3322 
L 691 4353 
L 1269 4353 
L 1269 3322 
L 2350 3322 
L 2350 2988 
L 1269 2988 
L 1269 878 
Q 1269 456 1350 337 
Q 1431 219 1650 219 
Q 1875 219 1978 351 
Q 2081 484 2088 781 
L 2522 781 
Q 2497 328 2275 118 
Q 2053 -91 1600 -91 
Q 1103 -91 897 129 
Q 691 350 691 878 
L 691 2988 
z
" transform="scale(0.015625)"/>
      <path id="DejaVuSerif-69" d="M 622 4353 
Q 622 4497 726 4603 
Q 831 4709 978 4709 
Q 1122 4709 1226 4603 
Q 1331 4497 1331 4353 
Q 1331 4206 1228 4103 
Q 1125 4000 978 4000 
Q 831 4000 726 4103 
Q 622 4206 622 4353 
z
M 1356 331 
L 1900 331 
L 1900 0 
L 231 0 
L 231 331 
L 781 331 
L 781 2988 
L 231 2988 
L 231 3322 
L 1356 3322 
L 1356 331 
z
" transform="scale(0.015625)"/>
      <path id="DejaVuSerif-6f" d="M 1925 219 
Q 2388 219 2623 584 
Q 2859 950 2859 1663 
Q 2859 2375 2623 2739 
Q 2388 3103 1925 3103 
Q 1463 3103 1227 2739 
Q 991 2375 991 1663 
Q 991 950 1228 584 
Q 1466 219 1925 219 
z
M 1925 -91 
Q 1200 -91 759 389 
Q 319 869 319 1663 
Q 319 2456 758 2934 
Q 1197 3413 1925 3413 
Q 2653 3413 3092 2934 
Q 3531 2456 3531 1663 
Q 3531 869 3092 389 
Q 2653 -91 1925 -91 
z
" transform="scale(0.015625)"/>
      <path id="Cmmi10-66" d="M 622 -1056 
Q 741 -1147 909 -1147 
Q 1138 -1147 1281 -641 
Q 1341 -397 1606 966 
L 1900 2534 
L 1350 2534 
Q 1288 2534 1288 2619 
Q 1313 2759 1369 2759 
L 1941 2759 
L 2016 3175 
Q 2053 3369 2084 3508 
Q 2116 3647 2152 3765 
Q 2188 3884 2259 4031 
Q 2369 4241 2555 4377 
Q 2741 4513 2956 4513 
Q 3097 4513 3230 4461 
Q 3363 4409 3447 4306 
Q 3531 4203 3531 4063 
Q 3531 3900 3423 3779 
Q 3316 3659 3163 3659 
Q 3059 3659 2986 3723 
Q 2913 3788 2913 3891 
Q 2913 4031 3008 4136 
Q 3103 4241 3244 4256 
Q 3125 4347 2950 4347 
Q 2853 4347 2767 4256 
Q 2681 4166 2656 4063 
Q 2616 3900 2478 3181 
L 2400 2759 
L 3059 2759 
Q 3122 2759 3122 2675 
Q 3119 2659 3109 2620 
Q 3100 2581 3083 2557 
Q 3066 2534 3041 2534 
L 2356 2534 
L 2059 972 
Q 2003 631 1929 279 
Q 1856 -72 1723 -442 
Q 1591 -813 1384 -1063 
Q 1178 -1313 897 -1313 
Q 681 -1313 511 -1189 
Q 341 -1066 341 -863 
Q 341 -700 445 -579 
Q 550 -459 709 -459 
Q 816 -459 887 -523 
Q 959 -588 959 -691 
Q 959 -828 857 -942 
Q 756 -1056 622 -1056 
z
" transform="scale(0.015625)"/>
      <path id="DejaVuSerif-72" d="M 3059 3328 
L 3059 2497 
L 2728 2497 
Q 2713 2744 2591 2866 
Q 2469 2988 2234 2988 
Q 1809 2988 1582 2694 
Q 1356 2400 1356 1850 
L 1356 331 
L 2022 331 
L 2022 0 
L 263 0 
L 263 331 
L 781 331 
L 781 2994 
L 231 2994 
L 231 3322 
L 1356 3322 
L 1356 2731 
Q 1525 3078 1790 3245 
Q 2056 3413 2438 3413 
Q 2578 3413 2733 3391 
Q 2888 3369 3059 3328 
z
" transform="scale(0.015625)"/>
      <path id="DejaVuSerif-6d" d="M 3316 2675 
Q 3481 3041 3739 3227 
Q 3997 3413 4341 3413 
Q 4863 3413 5119 3089 
Q 5375 2766 5375 2113 
L 5375 331 
L 5894 331 
L 5894 0 
L 4300 0 
L 4300 331 
L 4800 331 
L 4800 2047 
Q 4800 2556 4650 2772 
Q 4500 2988 4153 2988 
Q 3769 2988 3567 2697 
Q 3366 2406 3366 1850 
L 3366 331 
L 3866 331 
L 3866 0 
L 2291 0 
L 2291 331 
L 2791 331 
L 2791 2069 
Q 2791 2566 2641 2777 
Q 2491 2988 2144 2988 
Q 1759 2988 1557 2697 
Q 1356 2406 1356 1850 
L 1356 331 
L 1856 331 
L 1856 0 
L 263 0 
L 263 331 
L 781 331 
L 781 2994 
L 231 2994 
L 231 3322 
L 1356 3322 
L 1356 2731 
Q 1516 3063 1762 3238 
Q 2009 3413 2322 3413 
Q 2709 3413 2968 3220 
Q 3228 3028 3316 2675 
z
" transform="scale(0.015625)"/>
      <path id="Cmr10-5b" d="M 756 -1600 
L 756 4800 
L 1631 4800 
L 1631 4544 
L 1013 4544 
L 1013 -1344 
L 1631 -1344 
L 1631 -1600 
L 756 -1600 
z
" transform="scale(0.015625)"/>
      <path id="Cmr10-30" d="M 1600 -141 
Q 816 -141 533 504 
Q 250 1150 250 2041 
Q 250 2597 351 3087 
Q 453 3578 754 3920 
Q 1056 4263 1600 4263 
Q 2022 4263 2290 4056 
Q 2559 3850 2700 3523 
Q 2841 3197 2892 2823 
Q 2944 2450 2944 2041 
Q 2944 1491 2842 1011 
Q 2741 531 2444 195 
Q 2147 -141 1600 -141 
z
M 1600 25 
Q 1956 25 2131 390 
Q 2306 756 2347 1200 
Q 2388 1644 2388 2144 
Q 2388 2625 2347 3031 
Q 2306 3438 2132 3767 
Q 1959 4097 1600 4097 
Q 1238 4097 1063 3765 
Q 888 3434 847 3029 
Q 806 2625 806 2144 
Q 806 1788 823 1472 
Q 841 1156 916 820 
Q 991 484 1158 254 
Q 1325 25 1600 25 
z
" transform="scale(0.015625)"/>
      <path id="Cmmi10-3b" d="M 634 -1153 
Q 634 -1125 659 -1100 
Q 891 -878 1019 -587 
Q 1147 -297 1147 25 
L 1147 103 
Q 1044 0 891 0 
Q 744 0 641 103 
Q 538 206 538 353 
Q 538 503 641 603 
Q 744 703 891 703 
Q 1119 703 1216 492 
Q 1313 281 1313 25 
Q 1313 -331 1170 -651 
Q 1028 -972 769 -1228 
Q 744 -1241 728 -1241 
Q 697 -1241 665 -1212 
Q 634 -1184 634 -1153 
z
" transform="scale(0.015625)"/>
      <path id="Cmr10-31" d="M 594 0 
L 594 225 
Q 1394 225 1394 428 
L 1394 3788 
Q 1063 3628 556 3628 
L 556 3853 
Q 1341 3853 1741 4263 
L 1831 4263 
Q 1853 4263 1873 4245 
Q 1894 4228 1894 4206 
L 1894 428 
Q 1894 225 2694 225 
L 2694 0 
L 594 0 
z
" transform="scale(0.015625)"/>
      <path id="Cmr10-5d" d="M 141 -1600 
L 141 -1344 
L 763 -1344 
L 763 4544 
L 141 4544 
L 141 4800 
L 1019 4800 
L 1019 -1600 
L 141 -1600 
z
" transform="scale(0.015625)"/>
      <path id="DejaVuSerif-68" d="M 263 0 
L 263 331 
L 781 331 
L 781 4531 
L 231 4531 
L 231 4863 
L 1356 4863 
L 1356 2731 
Q 1516 3069 1770 3241 
Q 2025 3413 2363 3413 
Q 2913 3413 3172 3097 
Q 3431 2781 3431 2113 
L 3431 331 
L 3944 331 
L 3944 0 
L 2356 0 
L 2356 331 
L 2853 331 
L 2853 1931 
Q 2853 2541 2704 2764 
Q 2556 2988 2175 2988 
Q 1775 2988 1565 2697 
Q 1356 2406 1356 1850 
L 1356 331 
L 1856 331 
L 1856 0 
L 263 0 
z
" transform="scale(0.015625)"/>
      <path id="DejaVuSerif-73" d="M 359 184 
L 359 959 
L 691 959 
Q 703 588 923 403 
Q 1144 219 1575 219 
Q 1963 219 2166 364 
Q 2369 509 2369 788 
Q 2369 1006 2220 1140 
Q 2072 1275 1594 1428 
L 1178 1569 
Q 750 1706 558 1912 
Q 366 2119 366 2438 
Q 366 2894 700 3153 
Q 1034 3413 1625 3413 
Q 1888 3413 2178 3344 
Q 2469 3275 2778 3144 
L 2778 2419 
L 2447 2419 
Q 2434 2741 2221 2922 
Q 2009 3103 1644 3103 
Q 1281 3103 1095 2975 
Q 909 2847 909 2591 
Q 909 2381 1050 2254 
Q 1191 2128 1613 1997 
L 2069 1856 
Q 2541 1709 2748 1489 
Q 2956 1269 2956 922 
Q 2956 450 2595 179 
Q 2234 -91 1600 -91 
Q 1278 -91 972 -22 
Q 666 47 359 184 
z
" transform="scale(0.015625)"/>
      <path id="DejaVuSerif-62" d="M 738 331 
L 738 4531 
L 184 4531 
L 184 4863 
L 1313 4863 
L 1313 2803 
Q 1481 3116 1742 3264 
Q 2003 3413 2388 3413 
Q 3000 3413 3387 2928 
Q 3775 2444 3775 1663 
Q 3775 881 3387 395 
Q 3000 -91 2388 -91 
Q 2003 -91 1742 57 
Q 1481 206 1313 519 
L 1313 0 
L 184 0 
L 184 331 
L 738 331 
z
M 1313 1497 
Q 1313 897 1542 583 
Q 1772 269 2209 269 
Q 2650 269 2876 622 
Q 3103 975 3103 1663 
Q 3103 2353 2876 2703 
Q 2650 3053 2209 3053 
Q 1772 3053 1542 2737 
Q 1313 2422 1313 1825 
L 1313 1497 
z
" transform="scale(0.015625)"/>
      <path id="DejaVuSerif-70" d="M 1313 1825 
L 1313 1497 
Q 1313 897 1542 583 
Q 1772 269 2209 269 
Q 2650 269 2876 622 
Q 3103 975 3103 1663 
Q 3103 2353 2876 2703 
Q 2650 3053 2209 3053 
Q 1772 3053 1542 2737 
Q 1313 2422 1313 1825 
z
M 738 2988 
L 184 2988 
L 184 3322 
L 1313 3322 
L 1313 2803 
Q 1481 3116 1742 3264 
Q 2003 3413 2388 3413 
Q 3000 3413 3387 2928 
Q 3775 2444 3775 1663 
Q 3775 881 3387 395 
Q 3000 -91 2388 -91 
Q 2003 -91 1742 57 
Q 1481 206 1313 519 
L 1313 -997 
L 1856 -997 
L 1856 -1331 
L 184 -1331 
L 184 -997 
L 738 -997 
L 738 2988 
z
" transform="scale(0.015625)"/>
      <path id="DejaVuSerif-43" d="M 4513 1234 
Q 4306 581 3820 245 
Q 3334 -91 2591 -91 
Q 2134 -91 1743 65 
Q 1353 222 1050 525 
Q 700 875 529 1320 
Q 359 1766 359 2328 
Q 359 3416 987 4083 
Q 1616 4750 2644 4750 
Q 3025 4750 3456 4650 
Q 3888 4550 4384 4347 
L 4384 3272 
L 4031 3272 
Q 3916 3859 3567 4137 
Q 3219 4416 2591 4416 
Q 1844 4416 1459 3886 
Q 1075 3356 1075 2328 
Q 1075 1303 1459 773 
Q 1844 244 2591 244 
Q 3113 244 3450 492 
Q 3788 741 3938 1234 
L 4513 1234 
z
" transform="scale(0.015625)"/>
      <path id="DejaVuSerif-2d" d="M 281 1959 
L 1881 1959 
L 1881 1472 
L 281 1472 
L 281 1959 
z
" transform="scale(0.015625)"/>
      <path id="DejaVuSerif-78" d="M 1863 2028 
L 2559 2988 
L 2113 2988 
L 2113 3322 
L 3391 3322 
L 3391 2988 
L 2950 2988 
L 2059 1759 
L 3097 331 
L 3531 331 
L 3531 0 
L 1997 0 
L 1997 331 
L 2419 331 
L 1697 1325 
L 972 331 
L 1403 331 
L 1403 0 
L 141 0 
L 141 331 
L 581 331 
L 1497 1594 
L 488 2988 
L 78 2988 
L 78 3322 
L 1563 3322 
L 1563 2988 
L 1166 2988 
L 1863 2028 
z
" transform="scale(0.015625)"/>
      <path id="DejaVuSerif-71" d="M 3359 2988 
L 3359 -997 
L 3909 -997 
L 3909 -1331 
L 2241 -1331 
L 2241 -997 
L 2784 -997 
L 2784 519 
Q 2616 206 2355 57 
Q 2094 -91 1709 -91 
Q 1097 -91 708 395 
Q 319 881 319 1663 
Q 319 2444 706 2928 
Q 1094 3413 1709 3413 
Q 2094 3413 2355 3264 
Q 2616 3116 2784 2803 
L 2784 3322 
L 3909 3322 
L 3909 2988 
L 3359 2988 
z
M 2784 1825 
Q 2784 2422 2554 2737 
Q 2325 3053 1888 3053 
Q 1444 3053 1217 2703 
Q 991 2353 991 1663 
Q 991 975 1217 622 
Q 1444 269 1888 269 
Q 2325 269 2554 583 
Q 2784 897 2784 1497 
L 2784 1825 
z
" transform="scale(0.015625)"/>
      <path id="Cmr10-28" d="M 1984 -1588 
Q 1628 -1306 1370 -942 
Q 1113 -578 948 -165 
Q 784 247 703 697 
Q 622 1147 622 1600 
Q 622 2059 703 2509 
Q 784 2959 951 3375 
Q 1119 3791 1378 4153 
Q 1638 4516 1984 4788 
Q 1984 4800 2016 4800 
L 2075 4800 
Q 2094 4800 2109 4783 
Q 2125 4766 2125 4744 
Q 2125 4716 2113 4703 
Q 1800 4397 1592 4047 
Q 1384 3697 1257 3301 
Q 1131 2906 1075 2482 
Q 1019 2059 1019 1600 
Q 1019 -434 2106 -1491 
Q 2125 -1509 2125 -1544 
Q 2125 -1559 2108 -1579 
Q 2091 -1600 2075 -1600 
L 2016 -1600 
Q 1984 -1600 1984 -1588 
z
" transform="scale(0.015625)"/>
      <path id="Cmmi10-78" d="M 500 184 
Q 613 97 819 97 
Q 1019 97 1172 289 
Q 1325 481 1381 709 
L 1672 1844 
Q 1741 2153 1741 2266 
Q 1741 2425 1652 2544 
Q 1563 2663 1403 2663 
Q 1200 2663 1022 2536 
Q 844 2409 722 2214 
Q 600 2019 550 1819 
Q 538 1778 500 1778 
L 422 1778 
Q 372 1778 372 1838 
L 372 1856 
Q 434 2094 584 2320 
Q 734 2547 951 2687 
Q 1169 2828 1416 2828 
Q 1650 2828 1839 2703 
Q 2028 2578 2106 2363 
Q 2216 2559 2386 2693 
Q 2556 2828 2759 2828 
Q 2897 2828 3040 2779 
Q 3184 2731 3275 2631 
Q 3366 2531 3366 2381 
Q 3366 2219 3261 2101 
Q 3156 1984 2994 1984 
Q 2891 1984 2822 2050 
Q 2753 2116 2753 2216 
Q 2753 2350 2845 2451 
Q 2938 2553 3066 2572 
Q 2950 2663 2747 2663 
Q 2541 2663 2389 2472 
Q 2238 2281 2175 2047 
L 1894 916 
Q 1825 659 1825 494 
Q 1825 331 1917 214 
Q 2009 97 2163 97 
Q 2463 97 2698 361 
Q 2934 625 3009 941 
Q 3022 978 3059 978 
L 3138 978 
Q 3163 978 3178 961 
Q 3194 944 3194 922 
Q 3194 916 3188 903 
Q 3097 522 2806 225 
Q 2516 -72 2150 -72 
Q 1916 -72 1727 54 
Q 1538 181 1459 397 
Q 1359 209 1182 68 
Q 1006 -72 806 -72 
Q 669 -72 523 -23 
Q 378 25 287 125 
Q 197 225 197 378 
Q 197 528 301 651 
Q 406 775 563 775 
Q 669 775 741 711 
Q 813 647 813 544 
Q 813 409 723 309 
Q 634 209 500 184 
z
" transform="scale(0.015625)"/>
      <path id="Cmr10-29" d="M 416 -1600 
Q 359 -1600 359 -1544 
Q 359 -1516 372 -1503 
Q 1466 -434 1466 1600 
Q 1466 3634 384 4691 
Q 359 4706 359 4744 
Q 359 4766 376 4783 
Q 394 4800 416 4800 
L 475 4800 
Q 494 4800 506 4788 
Q 966 4425 1272 3906 
Q 1578 3388 1720 2800 
Q 1863 2213 1863 1600 
Q 1863 1147 1786 708 
Q 1709 269 1542 -157 
Q 1375 -584 1119 -945 
Q 863 -1306 506 -1588 
Q 494 -1600 475 -1600 
L 416 -1600 
z
" transform="scale(0.015625)"/>
      <path id="Cmr10-32" d="M 319 0 
L 319 172 
Q 319 188 331 206 
L 1325 1306 
Q 1550 1550 1690 1715 
Q 1831 1881 1968 2097 
Q 2106 2313 2186 2536 
Q 2266 2759 2266 3009 
Q 2266 3272 2169 3511 
Q 2072 3750 1880 3894 
Q 1688 4038 1416 4038 
Q 1138 4038 916 3870 
Q 694 3703 603 3438 
Q 628 3444 672 3444 
Q 816 3444 917 3347 
Q 1019 3250 1019 3097 
Q 1019 2950 917 2848 
Q 816 2747 672 2747 
Q 522 2747 420 2851 
Q 319 2956 319 3097 
Q 319 3338 409 3548 
Q 500 3759 670 3923 
Q 841 4088 1055 4175 
Q 1269 4263 1509 4263 
Q 1875 4263 2190 4108 
Q 2506 3953 2690 3670 
Q 2875 3388 2875 3009 
Q 2875 2731 2753 2481 
Q 2631 2231 2440 2026 
Q 2250 1822 1953 1562 
Q 1656 1303 1563 1216 
L 838 519 
L 1453 519 
Q 1906 519 2211 526 
Q 2516 534 2534 550 
Q 2609 631 2688 1141 
L 2875 1141 
L 2694 0 
L 319 0 
z
" transform="scale(0.015625)"/>
      <path id="Cmr10-33" d="M 609 494 
Q 759 275 1012 169 
Q 1266 63 1556 63 
Q 1928 63 2084 380 
Q 2241 697 2241 1100 
Q 2241 1281 2208 1462 
Q 2175 1644 2097 1800 
Q 2019 1956 1883 2050 
Q 1747 2144 1550 2144 
L 1125 2144 
Q 1069 2144 1069 2203 
L 1069 2259 
Q 1069 2309 1125 2309 
L 1478 2338 
Q 1703 2338 1851 2506 
Q 2000 2675 2069 2917 
Q 2138 3159 2138 3378 
Q 2138 3684 1994 3881 
Q 1850 4078 1556 4078 
Q 1313 4078 1091 3986 
Q 869 3894 738 3706 
Q 750 3709 759 3711 
Q 769 3713 781 3713 
Q 925 3713 1022 3613 
Q 1119 3513 1119 3372 
Q 1119 3234 1022 3134 
Q 925 3034 781 3034 
Q 641 3034 541 3134 
Q 441 3234 441 3372 
Q 441 3647 606 3850 
Q 772 4053 1033 4158 
Q 1294 4263 1556 4263 
Q 1750 4263 1965 4205 
Q 2181 4147 2356 4039 
Q 2531 3931 2642 3762 
Q 2753 3594 2753 3378 
Q 2753 3109 2633 2881 
Q 2513 2653 2303 2487 
Q 2094 2322 1844 2241 
Q 2122 2188 2372 2031 
Q 2622 1875 2773 1631 
Q 2925 1388 2925 1106 
Q 2925 753 2731 467 
Q 2538 181 2222 20 
Q 1906 -141 1556 -141 
Q 1256 -141 954 -26 
Q 653 88 461 316 
Q 269 544 269 863 
Q 269 1022 375 1128 
Q 481 1234 641 1234 
Q 744 1234 830 1186 
Q 916 1138 964 1050 
Q 1013 963 1013 863 
Q 1013 706 903 600 
Q 794 494 641 494 
L 609 494 
z
" transform="scale(0.015625)"/>
      <path id="STIXGeneral-Regular-2026" d="M 5683 275 
Q 5683 134 5577 32 
Q 5472 -70 5325 -70 
Q 5178 -70 5075 32 
Q 4973 134 4973 281 
Q 4973 429 5078 534 
Q 5184 640 5331 640 
Q 5472 640 5577 531 
Q 5683 422 5683 275 
z
M 3552 275 
Q 3552 134 3446 32 
Q 3341 -70 3193 -70 
Q 3046 -70 2944 32 
Q 2842 134 2842 281 
Q 2842 429 2947 534 
Q 3053 640 3200 640 
Q 3341 640 3446 531 
Q 3552 422 3552 275 
z
M 1421 275 
Q 1421 134 1315 32 
Q 1210 -70 1062 -70 
Q 915 -70 812 32 
Q 710 134 710 281 
Q 710 429 816 534 
Q 922 640 1069 640 
Q 1210 640 1315 531 
Q 1421 422 1421 275 
z
" transform="scale(0.015625)"/>
      <path id="DejaVuSerif-77" d="M 3072 3322 
L 3922 728 
L 4672 2988 
L 4191 2988 
L 4191 3322 
L 5394 3322 
L 5394 2988 
L 5025 2988 
L 4038 0 
L 3559 0 
L 2741 2484 
L 1919 0 
L 1459 0 
L 475 2988 
L 103 2988 
L 103 3322 
L 1606 3322 
L 1606 2988 
L 1069 2988 
L 1813 728 
L 2669 3322 
L 3072 3322 
z
" transform="scale(0.015625)"/>
      <path id="DejaVuSerif-76" d="M 1581 0 
L 359 2988 
L -19 2988 
L -19 3322 
L 1509 3322 
L 1509 2988 
L 978 2988 
L 1913 703 
L 2847 2988 
L 2350 2988 
L 2350 3322 
L 3597 3322 
L 3597 2988 
L 3225 2988 
L 2003 0 
L 1581 0 
z
" transform="scale(0.015625)"/>
      <path id="DejaVuSerif-64" d="M 3359 331 
L 3909 331 
L 3909 0 
L 2784 0 
L 2784 519 
Q 2616 206 2355 57 
Q 2094 -91 1709 -91 
Q 1097 -91 708 395 
Q 319 881 319 1663 
Q 319 2444 706 2928 
Q 1094 3413 1709 3413 
Q 2094 3413 2355 3264 
Q 2616 3116 2784 2803 
L 2784 4531 
L 2241 4531 
L 2241 4863 
L 3359 4863 
L 3359 331 
z
M 2784 1497 
L 2784 1825 
Q 2784 2422 2554 2737 
Q 2325 3053 1888 3053 
Q 1444 3053 1217 2703 
Q 991 2353 991 1663 
Q 991 975 1217 622 
Q 1444 269 1888 269 
Q 2325 269 2554 583 
Q 2784 897 2784 1497 
z
" transform="scale(0.015625)"/>
      <path id="DejaVuSerif-2e" d="M 603 325 
Q 603 500 722 622 
Q 841 744 1019 744 
Q 1191 744 1312 622 
Q 1434 500 1434 325 
Q 1434 153 1312 31 
Q 1191 -91 1019 -91 
Q 841 -91 722 29 
Q 603 150 603 325 
z
" transform="scale(0.015625)"/>
      <path id="DejaVuSerif-46" d="M 353 0 
L 353 331 
L 947 331 
L 947 4331 
L 353 4331 
L 353 4666 
L 4172 4666 
L 4172 3628 
L 3788 3628 
L 3788 4281 
L 1581 4281 
L 1581 2719 
L 3175 2719 
L 3175 3303 
L 3559 3303 
L 3559 1753 
L 3175 1753 
L 3175 2338 
L 1581 2338 
L 1581 331 
L 2328 331 
L 2328 0 
L 353 0 
z
" transform="scale(0.015625)"/>
     </defs>
     <use xlink:href="#DejaVuSerif-57" transform="translate(0 0.015625)"/>
     <use xlink:href="#DejaVuSerif-65" transform="translate(102.783203 0.015625)"/>
     <use xlink:href="#DejaVuSerif-20" transform="translate(161.962891 0.015625)"/>
     <use xlink:href="#DejaVuSerif-63" transform="translate(193.75 0.015625)"/>
     <use xlink:href="#DejaVuSerif-61" transform="translate(249.755859 0.015625)"/>
     <use xlink:href="#DejaVuSerif-6c" transform="translate(309.375 0.015625)"/>
     <use xlink:href="#DejaVuSerif-6c" transform="translate(341.357422 0.015625)"/>
     <use xlink:href="#DejaVuSerif-20" transform="translate(373.339844 0.015625)"/>
     <use xlink:href="#DejaVuSerif-61" transform="translate(405.126953 0.015625)"/>
     <use xlink:href="#DejaVuSerif-20" transform="translate(464.746094 0.015625)"/>
     <use xlink:href="#DejaVuSerif-66" transform="translate(496.533203 0.015625)"/>
     <use xlink:href="#DejaVuSerif-75" transform="translate(533.544922 0.015625)"/>
     <use xlink:href="#DejaVuSerif-6e" transform="translate(597.949219 0.015625)"/>
     <use xlink:href="#DejaVuSerif-63" transform="translate(662.353516 0.015625)"/>
     <use xlink:href="#DejaVuSerif-74" transform="translate(718.359375 0.015625)"/>
     <use xlink:href="#DejaVuSerif-69" transform="translate(758.544922 0.015625)"/>
     <use xlink:href="#DejaVuSerif-6f" transform="translate(790.527344 0.015625)"/>
     <use xlink:href="#DejaVuSerif-6e" transform="translate(850.732422 0.015625)"/>
     <use xlink:href="#DejaVuSerif-20" transform="translate(915.136719 0.015625)"/>
     <use xlink:href="#Cmmi10-66" transform="translate(946.923828 0.015625)"/>
     <use xlink:href="#DejaVuSerif-20" transform="translate(995.800781 0.015625)"/>
     <use xlink:href="#DejaVuSerif-66" transform="translate(1027.587891 0.015625)"/>
     <use xlink:href="#DejaVuSerif-72" transform="translate(1064.599609 0.015625)"/>
     <use xlink:href="#DejaVuSerif-6f" transform="translate(1112.402344 0.015625)"/>
     <use xlink:href="#DejaVuSerif-6d" transform="translate(1172.607422 0.015625)"/>
     <use xlink:href="#DejaVuSerif-20" transform="translate(1267.431641 0.015625)"/>
     <use xlink:href="#Cmr10-5b" transform="translate(1299.21875 0.015625)"/>
     <use xlink:href="#Cmr10-30" transform="translate(1326.904297 0.015625)"/>
     <use xlink:href="#Cmmi10-3b" transform="translate(1376.904297 0.015625)"/>
     <use xlink:href="#Cmr10-31" transform="translate(1422.148438 0.015625)"/>
     <use xlink:href="#Cmr10-5d" transform="translate(1472.148438 0.015625)"/>
     <use xlink:href="#DejaVuSerif-20" transform="translate(1499.833984 0.015625)"/>
     <use xlink:href="#DejaVuSerif-74" transform="translate(1531.621094 0.015625)"/>
     <use xlink:href="#DejaVuSerif-6f" transform="translate(1571.806641 0.015625)"/>
     <use xlink:href="#DejaVuSerif-20" transform="translate(1632.011719 0.015625)"/>
     <use xlink:href="#DejaVuSerif-74" transform="translate(1663.798828 0.015625)"/>
     <use xlink:href="#DejaVuSerif-68" transform="translate(1703.984375 0.015625)"/>
     <use xlink:href="#DejaVuSerif-65" transform="translate(1768.388672 0.015625)"/>
     <use xlink:href="#DejaVuSerif-20" transform="translate(1827.568359 0.015625)"/>
     <use xlink:href="#DejaVuSerif-72" transform="translate(1859.355469 0.015625)"/>
     <use xlink:href="#DejaVuSerif-65" transform="translate(1907.158203 0.015625)"/>
     <use xlink:href="#DejaVuSerif-61" transform="translate(1966.337891 0.015625)"/>
     <use xlink:href="#DejaVuSerif-6c" transform="translate(2025.957031 0.015625)"/>
     <use xlink:href="#DejaVuSerif-73" transform="translate(2057.939453 0.015625)"/>
     <use xlink:href="#DejaVuSerif-20" transform="translate(2109.257812 0.015625)"/>
     <use xlink:href="#DejaVuSerif-74" transform="translate(2141.044922 0.015625)"/>
     <use xlink:href="#DejaVuSerif-6f" transform="translate(2181.230469 0.015625)"/>
     <use xlink:href="#DejaVuSerif-20" transform="translate(2241.435547 0.015625)"/>
     <use xlink:href="#DejaVuSerif-62" transform="translate(2273.222656 0.015625)"/>
     <use xlink:href="#DejaVuSerif-65" transform="translate(2337.236328 0.015625)"/>
     <use xlink:href="#DejaVuSerif-20" transform="translate(2396.416016 0.015625)"/>
     <use xlink:href="#DejaVuSerif-73" transform="translate(2428.203125 0.015625)"/>
     <use xlink:href="#DejaVuSerif-75" transform="translate(2479.521484 0.015625)"/>
     <use xlink:href="#DejaVuSerif-70" transform="translate(2543.925781 0.015625)"/>
     <use xlink:href="#DejaVuSerif-65" transform="translate(2607.939453 0.015625)"/>
     <use xlink:href="#DejaVuSerif-72" transform="translate(2667.119141 0.015625)"/>
     <use xlink:href="#DejaVuSerif-63" transform="translate(2714.921875 0.015625)"/>
     <use xlink:href="#DejaVuSerif-6f" transform="translate(2770.927734 0.015625)"/>
     <use xlink:href="#DejaVuSerif-6e" transform="translate(2831.132812 0.015625)"/>
     <use xlink:href="#DejaVuSerif-74" transform="translate(2895.537109 0.015625)"/>
     <use xlink:href="#DejaVuSerif-69" transform="translate(2935.722656 0.015625)"/>
     <use xlink:href="#DejaVuSerif-6e" transform="translate(2967.705078 0.015625)"/>
     <use xlink:href="#DejaVuSerif-75" transform="translate(3032.109375 0.015625)"/>
     <use xlink:href="#DejaVuSerif-6f" transform="translate(3096.513672 0.015625)"/>
     <use xlink:href="#DejaVuSerif-75" transform="translate(3156.71875 0.015625)"/>
     <use xlink:href="#DejaVuSerif-73" transform="translate(3221.123047 0.015625)"/>
     <use xlink:href="#DejaVuSerif-20" transform="translate(3272.441406 0.015625)"/>
     <use xlink:href="#DejaVuSerif-6f" transform="translate(3304.228516 0.015625)"/>
     <use xlink:href="#DejaVuSerif-6e" transform="translate(3364.433594 0.015625)"/>
     <use xlink:href="#DejaVuSerif-20" transform="translate(3428.837891 0.015625)"/>
     <use xlink:href="#Cmr10-5b" transform="translate(3460.625 0.015625)"/>
     <use xlink:href="#Cmr10-30" transform="translate(3488.310547 0.015625)"/>
     <use xlink:href="#Cmmi10-3b" transform="translate(3538.310547 0.015625)"/>
     <use xlink:href="#Cmr10-31" transform="translate(3583.554688 0.015625)"/>
     <use xlink:href="#Cmr10-5d" transform="translate(3633.554688 0.015625)"/>
     <use xlink:href="#DejaVuSerif-20" transform="translate(3661.240234 0.015625)"/>
     <use xlink:href="#DejaVuSerif-69" transform="translate(3693.027344 0.015625)"/>
     <use xlink:href="#DejaVuSerif-66" transform="translate(3725.009766 0.015625)"/>
     <use xlink:href="#DejaVuSerif-20" transform="translate(3762.021484 0.015625)"/>
     <use xlink:href="#DejaVuSerif-74" transform="translate(3793.808594 0.015625)"/>
     <use xlink:href="#DejaVuSerif-68" transform="translate(3833.994141 0.015625)"/>
     <use xlink:href="#DejaVuSerif-65" transform="translate(3898.398438 0.015625)"/>
     <use xlink:href="#DejaVuSerif-20" transform="translate(3957.578125 0.015625)"/>
     <use xlink:href="#DejaVuSerif-43" transform="translate(3989.365234 0.015625)"/>
     <use xlink:href="#DejaVuSerif-65" transform="translate(4065.878906 0.015625)"/>
     <use xlink:href="#DejaVuSerif-73" transform="translate(4125.058594 0.015625)"/>
     <use xlink:href="#DejaVuSerif-61" transform="translate(4176.376953 0.015625)"/>
     <use xlink:href="#DejaVuSerif-72" transform="translate(4235.996094 0.015625)"/>
     <use xlink:href="#DejaVuSerif-6f" transform="translate(4283.798828 0.015625)"/>
     <use xlink:href="#DejaVuSerif-2d" transform="translate(4344.003906 0.015625)"/>
     <use xlink:href="#DejaVuSerif-6c" transform="translate(4377.792969 0.015625)"/>
     <use xlink:href="#DejaVuSerif-69" transform="translate(4409.775391 0.015625)"/>
     <use xlink:href="#DejaVuSerif-6d" transform="translate(4441.757812 0.015625)"/>
     <use xlink:href="#DejaVuSerif-69" transform="translate(4536.582031 0.015625)"/>
     <use xlink:href="#DejaVuSerif-74" transform="translate(4568.564453 0.015625)"/>
     <use xlink:href="#DejaVuSerif-20" transform="translate(4608.75 0.015625)"/>
     <use xlink:href="#DejaVuSerif-65" transform="translate(4640.537109 0.015625)"/>
     <use xlink:href="#DejaVuSerif-78" transform="translate(4699.716797 0.015625)"/>
     <use xlink:href="#DejaVuSerif-69" transform="translate(4756.113281 0.015625)"/>
     <use xlink:href="#DejaVuSerif-73" transform="translate(4788.095703 0.015625)"/>
     <use xlink:href="#DejaVuSerif-74" transform="translate(4839.414062 0.015625)"/>
     <use xlink:href="#DejaVuSerif-73" transform="translate(4879.599609 0.015625)"/>
     <use xlink:href="#DejaVuSerif-20" transform="translate(4930.917969 0.015625)"/>
     <use xlink:href="#DejaVuSerif-66" transform="translate(4962.705078 0.015625)"/>
     <use xlink:href="#DejaVuSerif-6f" transform="translate(4999.716797 0.015625)"/>
     <use xlink:href="#DejaVuSerif-72" transform="translate(5059.921875 0.015625)"/>
     <use xlink:href="#DejaVuSerif-20" transform="translate(5107.724609 0.015625)"/>
     <use xlink:href="#DejaVuSerif-74" transform="translate(5139.511719 0.015625)"/>
     <use xlink:href="#DejaVuSerif-68" transform="translate(5179.697266 0.015625)"/>
     <use xlink:href="#DejaVuSerif-65" transform="translate(5244.101562 0.015625)"/>
     <use xlink:href="#DejaVuSerif-20" transform="translate(5303.28125 0.015625)"/>
     <use xlink:href="#DejaVuSerif-73" transform="translate(5335.068359 0.015625)"/>
     <use xlink:href="#DejaVuSerif-65" transform="translate(5386.386719 0.015625)"/>
     <use xlink:href="#DejaVuSerif-71" transform="translate(5445.566406 0.015625)"/>
     <use xlink:href="#DejaVuSerif-75" transform="translate(5509.580078 0.015625)"/>
     <use xlink:href="#DejaVuSerif-65" transform="translate(5573.984375 0.015625)"/>
     <use xlink:href="#DejaVuSerif-6e" transform="translate(5633.164062 0.015625)"/>
     <use xlink:href="#DejaVuSerif-63" transform="translate(5697.568359 0.015625)"/>
     <use xlink:href="#DejaVuSerif-65" transform="translate(5753.574219 0.015625)"/>
     <use xlink:href="#DejaVuSerif-20" transform="translate(5812.753906 0.015625)"/>
     <use xlink:href="#Cmmi10-66" transform="translate(5844.541016 0.015625)"/>
     <use xlink:href="#Cmr10-28" transform="translate(5893.417969 0.015625)"/>
     <use xlink:href="#Cmmi10-78" transform="translate(5932.236328 0.015625)"/>
     <use xlink:href="#Cmr10-31" transform="translate(5989.316406 -16.990625) scale(0.7)"/>
     <use xlink:href="#Cmr10-29" transform="translate(6030.69375 0.015625)"/>
     <use xlink:href="#Cmmi10-3b" transform="translate(6069.512109 0.015625)"/>
     <use xlink:href="#Cmmi10-66" transform="translate(6114.75625 0.015625)"/>
     <use xlink:href="#Cmr10-28" transform="translate(6163.633203 0.015625)"/>
     <use xlink:href="#Cmmi10-78" transform="translate(6202.451563 0.015625)"/>
     <use xlink:href="#Cmr10-32" transform="translate(6259.531641 -16.990625) scale(0.7)"/>
     <use xlink:href="#Cmr10-29" transform="translate(6300.908984 0.015625)"/>
     <use xlink:href="#Cmmi10-3b" transform="translate(6339.727344 0.015625)"/>
     <use xlink:href="#Cmmi10-66" transform="translate(6384.971484 0.015625)"/>
     <use xlink:href="#Cmr10-28" transform="translate(6433.848438 0.015625)"/>
     <use xlink:href="#Cmmi10-78" transform="translate(6472.666797 0.015625)"/>
     <use xlink:href="#Cmr10-33" transform="translate(6529.746875 -16.990625) scale(0.7)"/>
     <use xlink:href="#Cmr10-29" transform="translate(6571.124219 0.015625)"/>
     <use xlink:href="#Cmmi10-3b" transform="translate(6609.942578 0.015625)"/>
     <use xlink:href="#STIXGeneral-Regular-2026" transform="translate(6672.745313 0.015625)"/>
     <use xlink:href="#DejaVuSerif-20" transform="translate(6790.303891 0.015625)"/>
     <use xlink:href="#DejaVuSerif-77" transform="translate(6822.091 0.015625)"/>
     <use xlink:href="#DejaVuSerif-68" transform="translate(6907.686703 0.015625)"/>
     <use xlink:href="#DejaVuSerif-65" transform="translate(6972.091 0.015625)"/>
     <use xlink:href="#DejaVuSerif-6e" transform="translate(7031.270688 0.015625)"/>
     <use xlink:href="#DejaVuSerif-65" transform="translate(7095.674985 0.015625)"/>
     <use xlink:href="#DejaVuSerif-76" transform="translate(7154.854672 0.015625)"/>
     <use xlink:href="#DejaVuSerif-65" transform="translate(7211.348813 0.015625)"/>
     <use xlink:href="#DejaVuSerif-72" transform="translate(7270.5285 0.015625)"/>
     <use xlink:href="#DejaVuSerif-20" transform="translate(7318.331235 0.015625)"/>
     <use xlink:href="#DejaVuSerif-69" transform="translate(7350.118344 0.015625)"/>
     <use xlink:href="#DejaVuSerif-74" transform="translate(7382.100766 0.015625)"/>
     <use xlink:href="#DejaVuSerif-20" transform="translate(7422.286313 0.015625)"/>
     <use xlink:href="#DejaVuSerif-64" transform="translate(7454.073422 0.015625)"/>
     <use xlink:href="#DejaVuSerif-6f" transform="translate(7518.087094 0.015625)"/>
     <use xlink:href="#DejaVuSerif-65" transform="translate(7578.292172 0.015625)"/>
     <use xlink:href="#DejaVuSerif-73" transform="translate(7637.47186 0.015625)"/>
     <use xlink:href="#DejaVuSerif-20" transform="translate(7688.790219 0.015625)"/>
     <use xlink:href="#DejaVuSerif-66" transform="translate(7720.577328 0.015625)"/>
     <use xlink:href="#DejaVuSerif-6f" transform="translate(7757.589047 0.015625)"/>
     <use xlink:href="#DejaVuSerif-72" transform="translate(7817.794125 0.015625)"/>
     <use xlink:href="#DejaVuSerif-20" transform="translate(7865.59686 0.015625)"/>
     <use xlink:href="#DejaVuSerif-74" transform="translate(7897.383969 0.015625)"/>
     <use xlink:href="#DejaVuSerif-68" transform="translate(7937.569516 0.015625)"/>
     <use xlink:href="#DejaVuSerif-65" transform="translate(8001.973813 0.015625)"/>
     <use xlink:href="#DejaVuSerif-20" transform="translate(8061.1535 0.015625)"/>
     <use xlink:href="#DejaVuSerif-73" transform="translate(8092.94061 0.015625)"/>
     <use xlink:href="#DejaVuSerif-65" transform="translate(8144.258969 0.015625)"/>
     <use xlink:href="#DejaVuSerif-71" transform="translate(8203.438657 0.015625)"/>
     <use xlink:href="#DejaVuSerif-75" transform="translate(8267.452328 0.015625)"/>
     <use xlink:href="#DejaVuSerif-65" transform="translate(8331.856625 0.015625)"/>
     <use xlink:href="#DejaVuSerif-6e" transform="translate(8391.036313 0.015625)"/>
     <use xlink:href="#DejaVuSerif-63" transform="translate(8455.44061 0.015625)"/>
     <use xlink:href="#DejaVuSerif-65" transform="translate(8511.446469 0.015625)"/>
     <use xlink:href="#DejaVuSerif-20" transform="translate(8570.626157 0.015625)"/>
     <use xlink:href="#Cmmi10-78" transform="translate(8602.413266 0.015625)"/>
     <use xlink:href="#Cmr10-31" transform="translate(8659.493344 -16.990625) scale(0.7)"/>
     <use xlink:href="#Cmmi10-3b" transform="translate(8700.870688 0.015625)"/>
     <use xlink:href="#Cmmi10-78" transform="translate(8746.114828 0.015625)"/>
     <use xlink:href="#Cmr10-32" transform="translate(8803.194907 -16.990625) scale(0.7)"/>
     <use xlink:href="#Cmmi10-3b" transform="translate(8844.57225 0.015625)"/>
     <use xlink:href="#Cmmi10-78" transform="translate(8889.816391 0.015625)"/>
     <use xlink:href="#Cmr10-33" transform="translate(8946.896469 -16.990625) scale(0.7)"/>
     <use xlink:href="#STIXGeneral-Regular-2026" transform="translate(9005.832407 0.015625)"/>
     <use xlink:href="#DejaVuSerif-2e" transform="translate(9123.390985 0.015625)"/>
     <use xlink:href="#DejaVuSerif-20" transform="translate(9155.178094 0.015625)"/>
     <use xlink:href="#DejaVuSerif-46" transform="translate(9186.965204 0.015625)"/>
     <use xlink:href="#DejaVuSerif-69" transform="translate(9256.349969 0.015625)"/>
     <use xlink:href="#DejaVuSerif-6e" transform="translate(9288.332391 0.015625)"/>
     <use xlink:href="#DejaVuSerif-64" transform="translate(9352.736688 0.015625)"/>
     <use xlink:href="#DejaVuSerif-20" transform="translate(9416.75036 0.015625)"/>
     <use xlink:href="#DejaVuSerif-61" transform="translate(9448.537469 0.015625)"/>
     <use xlink:href="#DejaVuSerif-6c" transform="translate(9508.15661 0.015625)"/>
     <use xlink:href="#DejaVuSerif-6c" transform="translate(9540.139032 0.015625)"/>
     <use xlink:href="#DejaVuSerif-20" transform="translate(9572.121454 0.015625)"/>
     <use xlink:href="#DejaVuSerif-73" transform="translate(9603.908563 0.015625)"/>
     <use xlink:href="#DejaVuSerif-75" transform="translate(9655.226923 0.015625)"/>
     <use xlink:href="#DejaVuSerif-70" transform="translate(9719.631219 0.015625)"/>
     <use xlink:href="#DejaVuSerif-65" transform="translate(9783.644891 0.015625)"/>
     <use xlink:href="#DejaVuSerif-72" transform="translate(9842.824579 0.015625)"/>
     <use xlink:href="#DejaVuSerif-63" transform="translate(9890.627313 0.015625)"/>
     <use xlink:href="#DejaVuSerif-6f" transform="translate(9946.633173 0.015625)"/>
     <use xlink:href="#DejaVuSerif-6e" transform="translate(10006.838251 0.015625)"/>
     <use xlink:href="#DejaVuSerif-74" transform="translate(10071.242548 0.015625)"/>
     <use xlink:href="#DejaVuSerif-69" transform="translate(10111.428094 0.015625)"/>
     <use xlink:href="#DejaVuSerif-6e" transform="translate(10143.410516 0.015625)"/>
     <use xlink:href="#DejaVuSerif-75" transform="translate(10207.814813 0.015625)"/>
     <use xlink:href="#DejaVuSerif-6f" transform="translate(10272.21911 0.015625)"/>
     <use xlink:href="#DejaVuSerif-75" transform="translate(10332.424188 0.015625)"/>
     <use xlink:href="#DejaVuSerif-73" transform="translate(10396.828485 0.015625)"/>
     <use xlink:href="#DejaVuSerif-20" transform="translate(10448.146844 0.015625)"/>
     <use xlink:href="#DejaVuSerif-66" transform="translate(10479.933954 0.015625)"/>
     <use xlink:href="#DejaVuSerif-75" transform="translate(10516.945673 0.015625)"/>
     <use xlink:href="#DejaVuSerif-6e" transform="translate(10581.349969 0.015625)"/>
     <use xlink:href="#DejaVuSerif-63" transform="translate(10645.754266 0.015625)"/>
     <use xlink:href="#DejaVuSerif-74" transform="translate(10701.760126 0.015625)"/>
     <use xlink:href="#DejaVuSerif-69" transform="translate(10741.945673 0.015625)"/>
     <use xlink:href="#DejaVuSerif-6f" transform="translate(10773.928094 0.015625)"/>
     <use xlink:href="#DejaVuSerif-6e" transform="translate(10834.133173 0.015625)"/>
     <use xlink:href="#DejaVuSerif-73" transform="translate(10898.537469 0.015625)"/>
     <use xlink:href="#DejaVuSerif-20" transform="translate(10949.855829 0.015625)"/>
     <use xlink:href="#DejaVuSerif-6f" transform="translate(10981.642938 0.015625)"/>
     <use xlink:href="#DejaVuSerif-6e" transform="translate(11041.848016 0.015625)"/>
     <use xlink:href="#DejaVuSerif-20" transform="translate(11106.252313 0.015625)"/>
     <use xlink:href="#Cmr10-5b" transform="translate(11138.039423 0.015625)"/>
     <use xlink:href="#Cmr10-30" transform="translate(11165.724969 0.015625)"/>
     <use xlink:href="#Cmmi10-3b" transform="translate(11215.724969 0.015625)"/>
     <use xlink:href="#Cmr10-31" transform="translate(11260.96911 0.015625)"/>
     <use xlink:href="#Cmr10-5d" transform="translate(11310.96911 0.015625)"/>
     <use xlink:href="#DejaVuSerif-2e" transform="translate(11338.654657 0.015625)"/>
    </g>
   </g>
  </g>
 </g>
</svg>
