<?xml version="1.0" encoding="utf-8" standalone="no"?>
<!DOCTYPE svg PUBLIC "-//W3C//DTD SVG 1.1//EN"
  "http://www.w3.org/Graphics/SVG/1.1/DTD/svg11.dtd">
<svg xmlns:xlink="http://www.w3.org/1999/xlink" width="911.4pt" height="228.4pt" viewBox="0 0 911.4 228.4" xmlns="http://www.w3.org/2000/svg" version="1.1">
 <metadata>
  <rdf:RDF xmlns:dc="http://purl.org/dc/elements/1.1/" xmlns:cc="http://creativecommons.org/ns#" xmlns:rdf="http://www.w3.org/1999/02/22-rdf-syntax-ns#">
   <cc:Work>
    <dc:type rdf:resource="http://purl.org/dc/dcmitype/StillImage"/>
    <dc:date>2025-05-29T18:44:04.543029</dc:date>
    <dc:format>image/svg+xml</dc:format>
    <dc:creator>
     <cc:Agent>
      <dc:title>Matplotlib v3.10.3, https://matplotlib.org/</dc:title>
     </cc:Agent>
    </dc:creator>
   </cc:Work>
  </rdf:RDF>
 </metadata>
 <defs>
  <style type="text/css">*{stroke-linejoin: round; stroke-linecap: butt}</style>
 </defs>
 <g id="figure_1">
  <g id="patch_1">
   <path d="M 0 228.4 
L 911.4 228.4 
L 911.4 0 
L 0 0 
z
" style="fill: #ffffff"/>
  </g>
  <g id="axes_1">
   <g id="text_1">
    <!-- Find necessary and sufficient conditions on positive integers $m$ and $n$ so that \[\sum_{i=0}^{mn-1} (-1)^{\lfloor i/m \rfloor +\lfloor i/n\rfloor}=0.\] -->
    <g transform="translate(7.2 117.32) scale(0.12 -0.12)">
     <defs>
      <path id="DejaVuSerif-46" d="M 353 0 
L 353 331 
L 947 331 
L 947 4331 
L 353 4331 
L 353 4666 
L 4172 4666 
L 4172 3628 
L 3788 3628 
L 3788 4281 
L 1581 4281 
L 1581 2719 
L 3175 2719 
L 3175 3303 
L 3559 3303 
L 3559 1753 
L 3175 1753 
L 3175 2338 
L 1581 2338 
L 1581 331 
L 2328 331 
L 2328 0 
L 353 0 
z
" transform="scale(0.015625)"/>
      <path id="DejaVuSerif-69" d="M 622 4353 
Q 622 4497 726 4603 
Q 831 4709 978 4709 
Q 1122 4709 1226 4603 
Q 1331 4497 1331 4353 
Q 1331 4206 1228 4103 
Q 1125 4000 978 4000 
Q 831 4000 726 4103 
Q 622 4206 622 4353 
z
M 1356 331 
L 1900 331 
L 1900 0 
L 231 0 
L 231 331 
L 781 331 
L 781 2988 
L 231 2988 
L 231 3322 
L 1356 3322 
L 1356 331 
z
" transform="scale(0.015625)"/>
      <path id="DejaVuSerif-6e" d="M 263 0 
L 263 331 
L 781 331 
L 781 2988 
L 231 2988 
L 231 3322 
L 1356 3322 
L 1356 2731 
Q 1516 3069 1770 3241 
Q 2025 3413 2363 3413 
Q 2913 3413 3172 3097 
Q 3431 2781 3431 2113 
L 3431 331 
L 3944 331 
L 3944 0 
L 2356 0 
L 2356 331 
L 2853 331 
L 2853 1931 
Q 2853 2541 2703 2767 
Q 2553 2994 2175 2994 
Q 1775 2994 1565 2701 
Q 1356 2409 1356 1850 
L 1356 331 
L 1856 331 
L 1856 0 
L 263 0 
z
" transform="scale(0.015625)"/>
      <path id="DejaVuSerif-64" d="M 3359 331 
L 3909 331 
L 3909 0 
L 2784 0 
L 2784 519 
Q 2616 206 2355 57 
Q 2094 -91 1709 -91 
Q 1097 -91 708 395 
Q 319 881 319 1663 
Q 319 2444 706 2928 
Q 1094 3413 1709 3413 
Q 2094 3413 2355 3264 
Q 2616 3116 2784 2803 
L 2784 4531 
L 2241 4531 
L 2241 4863 
L 3359 4863 
L 3359 331 
z
M 2784 1497 
L 2784 1825 
Q 2784 2422 2554 2737 
Q 2325 3053 1888 3053 
Q 1444 3053 1217 2703 
Q 991 2353 991 1663 
Q 991 975 1217 622 
Q 1444 269 1888 269 
Q 2325 269 2554 583 
Q 2784 897 2784 1497 
z
" transform="scale(0.015625)"/>
      <path id="DejaVuSerif-20" transform="scale(0.015625)"/>
      <path id="DejaVuSerif-65" d="M 3469 1600 
L 991 1600 
L 991 1575 
Q 991 903 1244 561 
Q 1497 219 1991 219 
Q 2369 219 2611 417 
Q 2853 616 2950 1006 
L 3413 1006 
Q 3275 459 2904 184 
Q 2534 -91 1931 -91 
Q 1203 -91 761 389 
Q 319 869 319 1663 
Q 319 2450 753 2931 
Q 1188 3413 1894 3413 
Q 2647 3413 3050 2948 
Q 3453 2484 3469 1600 
z
M 2791 1931 
Q 2772 2513 2545 2808 
Q 2319 3103 1894 3103 
Q 1497 3103 1269 2806 
Q 1041 2509 991 1931 
L 2791 1931 
z
" transform="scale(0.015625)"/>
      <path id="DejaVuSerif-63" d="M 3291 997 
Q 3169 466 2822 187 
Q 2475 -91 1925 -91 
Q 1200 -91 759 389 
Q 319 869 319 1663 
Q 319 2459 759 2936 
Q 1200 3413 1925 3413 
Q 2241 3413 2553 3339 
Q 2866 3266 3181 3116 
L 3181 2266 
L 2847 2266 
Q 2781 2703 2561 2903 
Q 2341 3103 1931 3103 
Q 1466 3103 1228 2742 
Q 991 2381 991 1663 
Q 991 944 1227 581 
Q 1463 219 1931 219 
Q 2303 219 2525 412 
Q 2747 606 2828 997 
L 3291 997 
z
" transform="scale(0.015625)"/>
      <path id="DejaVuSerif-73" d="M 359 184 
L 359 959 
L 691 959 
Q 703 588 923 403 
Q 1144 219 1575 219 
Q 1963 219 2166 364 
Q 2369 509 2369 788 
Q 2369 1006 2220 1140 
Q 2072 1275 1594 1428 
L 1178 1569 
Q 750 1706 558 1912 
Q 366 2119 366 2438 
Q 366 2894 700 3153 
Q 1034 3413 1625 3413 
Q 1888 3413 2178 3344 
Q 2469 3275 2778 3144 
L 2778 2419 
L 2447 2419 
Q 2434 2741 2221 2922 
Q 2009 3103 1644 3103 
Q 1281 3103 1095 2975 
Q 909 2847 909 2591 
Q 909 2381 1050 2254 
Q 1191 2128 1613 1997 
L 2069 1856 
Q 2541 1709 2748 1489 
Q 2956 1269 2956 922 
Q 2956 450 2595 179 
Q 2234 -91 1600 -91 
Q 1278 -91 972 -22 
Q 666 47 359 184 
z
" transform="scale(0.015625)"/>
      <path id="DejaVuSerif-61" d="M 2547 1044 
L 2547 1747 
L 1806 1747 
Q 1378 1747 1168 1562 
Q 959 1378 959 997 
Q 959 650 1171 447 
Q 1384 244 1747 244 
Q 2106 244 2326 466 
Q 2547 688 2547 1044 
z
M 3122 2075 
L 3122 331 
L 3634 331 
L 3634 0 
L 2547 0 
L 2547 359 
Q 2356 128 2106 18 
Q 1856 -91 1522 -91 
Q 969 -91 644 203 
Q 319 497 319 997 
Q 319 1513 691 1797 
Q 1063 2081 1741 2081 
L 2547 2081 
L 2547 2309 
Q 2547 2688 2317 2895 
Q 2088 3103 1672 3103 
Q 1328 3103 1125 2947 
Q 922 2791 872 2484 
L 575 2484 
L 575 3156 
Q 875 3284 1158 3348 
Q 1441 3413 1709 3413 
Q 2400 3413 2761 3070 
Q 3122 2728 3122 2075 
z
" transform="scale(0.015625)"/>
      <path id="DejaVuSerif-72" d="M 3059 3328 
L 3059 2497 
L 2728 2497 
Q 2713 2744 2591 2866 
Q 2469 2988 2234 2988 
Q 1809 2988 1582 2694 
Q 1356 2400 1356 1850 
L 1356 331 
L 2022 331 
L 2022 0 
L 263 0 
L 263 331 
L 781 331 
L 781 2994 
L 231 2994 
L 231 3322 
L 1356 3322 
L 1356 2731 
Q 1525 3078 1790 3245 
Q 2056 3413 2438 3413 
Q 2578 3413 2733 3391 
Q 2888 3369 3059 3328 
z
" transform="scale(0.015625)"/>
      <path id="DejaVuSerif-79" d="M 1381 -609 
L 1600 -56 
L 359 2988 
L -19 2988 
L -19 3322 
L 1509 3322 
L 1509 2988 
L 978 2988 
L 1913 703 
L 2847 2988 
L 2350 2988 
L 2350 3322 
L 3597 3322 
L 3597 2988 
L 3225 2988 
L 1703 -750 
Q 1547 -1138 1356 -1280 
Q 1166 -1422 819 -1422 
Q 672 -1422 517 -1397 
Q 363 -1372 206 -1325 
L 206 -691 
L 500 -691 
Q 519 -903 608 -995 
Q 697 -1088 884 -1088 
Q 1056 -1088 1161 -992 
Q 1266 -897 1381 -609 
z
" transform="scale(0.015625)"/>
      <path id="DejaVuSerif-75" d="M 2266 3322 
L 3341 3322 
L 3341 331 
L 3884 331 
L 3884 0 
L 2766 0 
L 2766 588 
Q 2606 256 2353 82 
Q 2100 -91 1766 -91 
Q 1213 -91 952 223 
Q 691 538 691 1209 
L 691 2988 
L 172 2988 
L 172 3322 
L 1269 3322 
L 1269 1388 
Q 1269 781 1417 556 
Q 1566 331 1947 331 
Q 2347 331 2556 625 
Q 2766 919 2766 1478 
L 2766 2988 
L 2266 2988 
L 2266 3322 
z
" transform="scale(0.015625)"/>
      <path id="DejaVuSerif-66" d="M 2753 4078 
L 2450 4078 
Q 2447 4313 2317 4434 
Q 2188 4556 1941 4556 
Q 1619 4556 1487 4379 
Q 1356 4203 1356 3750 
L 1356 3322 
L 2284 3322 
L 2284 2988 
L 1356 2988 
L 1356 331 
L 2094 331 
L 2094 0 
L 231 0 
L 231 331 
L 781 331 
L 781 2988 
L 231 2988 
L 231 3322 
L 781 3322 
L 781 3738 
Q 781 4294 1070 4578 
Q 1359 4863 1919 4863 
Q 2128 4863 2337 4825 
Q 2547 4788 2753 4709 
L 2753 4078 
z
" transform="scale(0.015625)"/>
      <path id="DejaVuSerif-74" d="M 691 2988 
L 184 2988 
L 184 3322 
L 691 3322 
L 691 4353 
L 1269 4353 
L 1269 3322 
L 2350 3322 
L 2350 2988 
L 1269 2988 
L 1269 878 
Q 1269 456 1350 337 
Q 1431 219 1650 219 
Q 1875 219 1978 351 
Q 2081 484 2088 781 
L 2522 781 
Q 2497 328 2275 118 
Q 2053 -91 1600 -91 
Q 1103 -91 897 129 
Q 691 350 691 878 
L 691 2988 
z
" transform="scale(0.015625)"/>
      <path id="DejaVuSerif-6f" d="M 1925 219 
Q 2388 219 2623 584 
Q 2859 950 2859 1663 
Q 2859 2375 2623 2739 
Q 2388 3103 1925 3103 
Q 1463 3103 1227 2739 
Q 991 2375 991 1663 
Q 991 950 1228 584 
Q 1466 219 1925 219 
z
M 1925 -91 
Q 1200 -91 759 389 
Q 319 869 319 1663 
Q 319 2456 758 2934 
Q 1197 3413 1925 3413 
Q 2653 3413 3092 2934 
Q 3531 2456 3531 1663 
Q 3531 869 3092 389 
Q 2653 -91 1925 -91 
z
" transform="scale(0.015625)"/>
      <path id="DejaVuSerif-70" d="M 1313 1825 
L 1313 1497 
Q 1313 897 1542 583 
Q 1772 269 2209 269 
Q 2650 269 2876 622 
Q 3103 975 3103 1663 
Q 3103 2353 2876 2703 
Q 2650 3053 2209 3053 
Q 1772 3053 1542 2737 
Q 1313 2422 1313 1825 
z
M 738 2988 
L 184 2988 
L 184 3322 
L 1313 3322 
L 1313 2803 
Q 1481 3116 1742 3264 
Q 2003 3413 2388 3413 
Q 3000 3413 3387 2928 
Q 3775 2444 3775 1663 
Q 3775 881 3387 395 
Q 3000 -91 2388 -91 
Q 2003 -91 1742 57 
Q 1481 206 1313 519 
L 1313 -997 
L 1856 -997 
L 1856 -1331 
L 184 -1331 
L 184 -997 
L 738 -997 
L 738 2988 
z
" transform="scale(0.015625)"/>
      <path id="DejaVuSerif-76" d="M 1581 0 
L 359 2988 
L -19 2988 
L -19 3322 
L 1509 3322 
L 1509 2988 
L 978 2988 
L 1913 703 
L 2847 2988 
L 2350 2988 
L 2350 3322 
L 3597 3322 
L 3597 2988 
L 3225 2988 
L 2003 0 
L 1581 0 
z
" transform="scale(0.015625)"/>
      <path id="DejaVuSerif-67" d="M 3359 2988 
L 3359 72 
Q 3359 -644 2965 -1033 
Q 2572 -1422 1844 -1422 
Q 1516 -1422 1216 -1362 
Q 916 -1303 641 -1184 
L 641 -488 
L 941 -488 
Q 997 -813 1206 -963 
Q 1416 -1113 1806 -1113 
Q 2313 -1113 2548 -827 
Q 2784 -541 2784 72 
L 2784 519 
Q 2616 206 2355 57 
Q 2094 -91 1709 -91 
Q 1097 -91 708 395 
Q 319 881 319 1663 
Q 319 2444 706 2928 
Q 1094 3413 1709 3413 
Q 2094 3413 2355 3264 
Q 2616 3116 2784 2803 
L 2784 3322 
L 3909 3322 
L 3909 2988 
L 3359 2988 
z
M 2784 1825 
Q 2784 2422 2554 2737 
Q 2325 3053 1888 3053 
Q 1444 3053 1217 2703 
Q 991 2353 991 1663 
Q 991 975 1217 622 
Q 1444 269 1888 269 
Q 2325 269 2554 583 
Q 2784 897 2784 1497 
L 2784 1825 
z
" transform="scale(0.015625)"/>
      <path id="Cmmi10-6d" d="M 494 109 
Q 494 147 500 166 
L 978 2075 
Q 1025 2253 1025 2388 
Q 1025 2663 838 2663 
Q 638 2663 541 2423 
Q 444 2184 353 1819 
Q 353 1800 334 1789 
Q 316 1778 300 1778 
L 225 1778 
Q 203 1778 187 1801 
Q 172 1825 172 1844 
Q 241 2122 305 2315 
Q 369 2509 505 2668 
Q 641 2828 844 2828 
Q 1084 2828 1268 2676 
Q 1453 2525 1453 2291 
Q 1644 2541 1900 2684 
Q 2156 2828 2444 2828 
Q 2747 2828 2967 2673 
Q 3188 2519 3188 2234 
Q 3384 2513 3648 2670 
Q 3913 2828 4225 2828 
Q 4556 2828 4757 2648 
Q 4959 2469 4959 2138 
Q 4959 1875 4842 1503 
Q 4725 1131 4550 672 
Q 4459 450 4459 288 
Q 4459 97 4609 97 
Q 4859 97 5025 365 
Q 5191 634 5259 941 
Q 5278 978 5313 978 
L 5388 978 
Q 5413 978 5430 961 
Q 5447 944 5447 922 
Q 5447 916 5441 903 
Q 5353 541 5136 234 
Q 4919 -72 4594 -72 
Q 4369 -72 4209 83 
Q 4050 238 4050 459 
Q 4050 572 4103 709 
Q 4284 1191 4404 1569 
Q 4525 1947 4525 2234 
Q 4525 2413 4453 2538 
Q 4381 2663 4213 2663 
Q 3863 2663 3606 2448 
Q 3350 2234 3163 1881 
Q 3150 1819 3144 1784 
L 2731 141 
Q 2709 53 2632 -9 
Q 2556 -72 2463 -72 
Q 2388 -72 2330 -22 
Q 2272 28 2272 109 
Q 2272 147 2278 166 
L 2688 1797 
Q 2753 2059 2753 2234 
Q 2753 2413 2679 2538 
Q 2606 2663 2431 2663 
Q 2197 2663 2000 2559 
Q 1803 2456 1656 2286 
Q 1509 2116 1388 1881 
L 953 141 
Q 931 53 854 -9 
Q 778 -72 684 -72 
Q 606 -72 550 -22 
Q 494 28 494 109 
z
" transform="scale(0.015625)"/>
      <path id="Cmmi10-6e" d="M 494 109 
Q 494 147 500 166 
L 978 2075 
Q 1025 2253 1025 2388 
Q 1025 2663 838 2663 
Q 638 2663 541 2423 
Q 444 2184 353 1819 
Q 353 1800 334 1789 
Q 316 1778 300 1778 
L 225 1778 
Q 203 1778 187 1801 
Q 172 1825 172 1844 
Q 241 2122 305 2315 
Q 369 2509 505 2668 
Q 641 2828 844 2828 
Q 1084 2828 1268 2676 
Q 1453 2525 1453 2291 
Q 1644 2541 1900 2684 
Q 2156 2828 2444 2828 
Q 2672 2828 2837 2750 
Q 3003 2672 3095 2514 
Q 3188 2356 3188 2138 
Q 3188 1875 3070 1503 
Q 2953 1131 2778 672 
Q 2688 463 2688 288 
Q 2688 97 2834 97 
Q 3084 97 3251 365 
Q 3419 634 3488 941 
Q 3500 978 3541 978 
L 3616 978 
Q 3641 978 3658 962 
Q 3675 947 3675 922 
Q 3675 916 3669 903 
Q 3581 541 3364 234 
Q 3147 -72 2822 -72 
Q 2597 -72 2437 83 
Q 2278 238 2278 459 
Q 2278 578 2328 709 
Q 2409 919 2514 1209 
Q 2619 1500 2686 1765 
Q 2753 2031 2753 2234 
Q 2753 2413 2679 2538 
Q 2606 2663 2431 2663 
Q 2197 2663 2000 2559 
Q 1803 2456 1656 2286 
Q 1509 2116 1388 1881 
L 953 141 
Q 931 53 854 -9 
Q 778 -72 684 -72 
Q 606 -72 550 -22 
Q 494 28 494 109 
z
" transform="scale(0.015625)"/>
      <path id="DejaVuSerif-68" d="M 263 0 
L 263 331 
L 781 331 
L 781 4531 
L 231 4531 
L 231 4863 
L 1356 4863 
L 1356 2731 
Q 1516 3069 1770 3241 
Q 2025 3413 2363 3413 
Q 2913 3413 3172 3097 
Q 3431 2781 3431 2113 
L 3431 331 
L 3944 331 
L 3944 0 
L 2356 0 
L 2356 331 
L 2853 331 
L 2853 1931 
Q 2853 2541 2704 2764 
Q 2556 2988 2175 2988 
Q 1775 2988 1565 2697 
Q 1356 2406 1356 1850 
L 1356 331 
L 1856 331 
L 1856 0 
L 263 0 
z
" transform="scale(0.015625)"/>
      <path id="DejaVuSerif-5c" d="M 500 4666 
L 2156 -594 
L 1656 -594 
L 0 4666 
L 500 4666 
z
" transform="scale(0.015625)"/>
      <path id="DejaVuSerif-5b" d="M 550 4863 
L 2003 4863 
L 2003 4531 
L 1147 4531 
L 1147 -513 
L 2003 -513 
L 2003 -844 
L 550 -844 
L 550 4863 
z
" transform="scale(0.015625)"/>
      <path id="DejaVuSerif-6d" d="M 3316 2675 
Q 3481 3041 3739 3227 
Q 3997 3413 4341 3413 
Q 4863 3413 5119 3089 
Q 5375 2766 5375 2113 
L 5375 331 
L 5894 331 
L 5894 0 
L 4300 0 
L 4300 331 
L 4800 331 
L 4800 2047 
Q 4800 2556 4650 2772 
Q 4500 2988 4153 2988 
Q 3769 2988 3567 2697 
Q 3366 2406 3366 1850 
L 3366 331 
L 3866 331 
L 3866 0 
L 2291 0 
L 2291 331 
L 2791 331 
L 2791 2069 
Q 2791 2566 2641 2777 
Q 2491 2988 2144 2988 
Q 1759 2988 1557 2697 
Q 1356 2406 1356 1850 
L 1356 331 
L 1856 331 
L 1856 0 
L 263 0 
L 263 331 
L 781 331 
L 781 2994 
L 231 2994 
L 231 3322 
L 1356 3322 
L 1356 2731 
Q 1516 3063 1762 3238 
Q 2009 3413 2322 3413 
Q 2709 3413 2968 3220 
Q 3228 3028 3316 2675 
z
" transform="scale(0.015625)"/>
      <path id="DejaVuSerif-5f" d="M 3200 -1259 
L 3200 -1509 
L 0 -1509 
L 0 -1259 
L 3200 -1259 
z
" transform="scale(0.015625)"/>
      <path id="DejaVuSerif-7b" d="M 3272 -716 
L 3272 -1044 
L 3078 -1044 
Q 2300 -1044 2036 -812 
Q 1772 -581 1772 109 
L 1772 916 
Q 1772 1384 1603 1565 
Q 1434 1747 991 1747 
L 800 1747 
L 800 2075 
L 991 2075 
Q 1434 2075 1603 2256 
Q 1772 2438 1772 2906 
L 1772 3713 
Q 1772 4403 2036 4633 
Q 2300 4863 3078 4863 
L 3272 4863 
L 3272 4538 
L 3059 4538 
Q 2619 4538 2484 4400 
Q 2350 4263 2350 3822 
L 2350 2925 
Q 2350 2431 2194 2218 
Q 2038 2006 1631 1913 
Q 2044 1806 2197 1597 
Q 2350 1388 2350 897 
L 2350 0 
Q 2350 -441 2484 -578 
Q 2619 -716 3059 -716 
L 3272 -716 
z
" transform="scale(0.015625)"/>
      <path id="DejaVuSerif-3d" d="M 678 2894 
L 4684 2894 
L 4684 2394 
L 678 2394 
L 678 2894 
z
M 678 1619 
L 4684 1619 
L 4684 1119 
L 678 1119 
L 678 1619 
z
" transform="scale(0.015625)"/>
      <path id="DejaVuSerif-30" d="M 2034 219 
Q 2513 219 2750 744 
Q 2988 1269 2988 2328 
Q 2988 3391 2750 3916 
Q 2513 4441 2034 4441 
Q 1556 4441 1318 3916 
Q 1081 3391 1081 2328 
Q 1081 1269 1318 744 
Q 1556 219 2034 219 
z
M 2034 -91 
Q 1275 -91 848 546 
Q 422 1184 422 2328 
Q 422 3475 848 4112 
Q 1275 4750 2034 4750 
Q 2797 4750 3222 4112 
Q 3647 3475 3647 2328 
Q 3647 1184 3222 546 
Q 2797 -91 2034 -91 
z
" transform="scale(0.015625)"/>
      <path id="DejaVuSerif-7d" d="M 800 -716 
L 1019 -716 
Q 1456 -716 1589 -580 
Q 1722 -444 1722 0 
L 1722 897 
Q 1722 1388 1875 1597 
Q 2028 1806 2438 1913 
Q 2031 2006 1876 2218 
Q 1722 2431 1722 2925 
L 1722 3822 
Q 1722 4266 1589 4402 
Q 1456 4538 1019 4538 
L 800 4538 
L 800 4863 
L 997 4863 
Q 1775 4863 2036 4633 
Q 2297 4403 2297 3713 
L 2297 2906 
Q 2297 2438 2465 2256 
Q 2634 2075 3078 2075 
L 3272 2075 
L 3272 1747 
L 3078 1747 
Q 2634 1747 2465 1565 
Q 2297 1384 2297 916 
L 2297 109 
Q 2297 -581 2036 -812 
Q 1775 -1044 997 -1044 
L 800 -1044 
L 800 -716 
z
" transform="scale(0.015625)"/>
      <path id="DejaVuSerif-5e" d="M 2988 4666 
L 4684 2925 
L 4206 2925 
L 2681 4116 
L 1159 2925 
L 678 2925 
L 2375 4666 
L 2988 4666 
z
" transform="scale(0.015625)"/>
      <path id="DejaVuSerif-2d" d="M 281 1959 
L 1881 1959 
L 1881 1472 
L 281 1472 
L 281 1959 
z
" transform="scale(0.015625)"/>
      <path id="DejaVuSerif-31" d="M 909 0 
L 909 331 
L 1722 331 
L 1722 4213 
L 781 3603 
L 781 4013 
L 1919 4750 
L 2350 4750 
L 2350 331 
L 3163 331 
L 3163 0 
L 909 0 
z
" transform="scale(0.015625)"/>
      <path id="DejaVuSerif-28" d="M 2041 -997 
Q 1281 -656 893 83 
Q 506 822 506 1931 
Q 506 3044 893 3783 
Q 1281 4522 2041 4863 
L 2041 4556 
Q 1559 4225 1350 3623 
Q 1141 3022 1141 1931 
Q 1141 844 1350 242 
Q 1559 -359 2041 -691 
L 2041 -997 
z
" transform="scale(0.015625)"/>
      <path id="DejaVuSerif-29" d="M 453 -997 
L 453 -691 
Q 934 -359 1145 242 
Q 1356 844 1356 1931 
Q 1356 3022 1145 3623 
Q 934 4225 453 4556 
L 453 4863 
Q 1216 4522 1603 3783 
Q 1991 3044 1991 1931 
Q 1991 822 1603 83 
Q 1216 -656 453 -997 
z
" transform="scale(0.015625)"/>
      <path id="DejaVuSerif-6c" d="M 1313 331 
L 1856 331 
L 1856 0 
L 184 0 
L 184 331 
L 738 331 
L 738 4531 
L 184 4531 
L 184 4863 
L 1313 4863 
L 1313 331 
z
" transform="scale(0.015625)"/>
      <path id="DejaVuSerif-2f" d="M 1656 4666 
L 2156 4666 
L 500 -594 
L 0 -594 
L 1656 4666 
z
" transform="scale(0.015625)"/>
      <path id="DejaVuSerif-2b" d="M 2931 4013 
L 2931 2259 
L 4684 2259 
L 4684 1753 
L 2931 1753 
L 2931 0 
L 2431 0 
L 2431 1753 
L 678 1753 
L 678 2259 
L 2431 2259 
L 2431 4013 
L 2931 4013 
z
" transform="scale(0.015625)"/>
      <path id="DejaVuSerif-2e" d="M 603 325 
Q 603 500 722 622 
Q 841 744 1019 744 
Q 1191 744 1312 622 
Q 1434 500 1434 325 
Q 1434 153 1312 31 
Q 1191 -91 1019 -91 
Q 841 -91 722 29 
Q 603 150 603 325 
z
" transform="scale(0.015625)"/>
      <path id="DejaVuSerif-5d" d="M 1947 4863 
L 1947 -844 
L 494 -844 
L 494 -513 
L 1350 -513 
L 1350 4531 
L 494 4531 
L 494 4863 
L 1947 4863 
z
" transform="scale(0.015625)"/>
     </defs>
     <use xlink:href="#DejaVuSerif-46" transform="translate(0 0.015625)"/>
     <use xlink:href="#DejaVuSerif-69" transform="translate(69.384766 0.015625)"/>
     <use xlink:href="#DejaVuSerif-6e" transform="translate(101.367188 0.015625)"/>
     <use xlink:href="#DejaVuSerif-64" transform="translate(165.771484 0.015625)"/>
     <use xlink:href="#DejaVuSerif-20" transform="translate(229.785156 0.015625)"/>
     <use xlink:href="#DejaVuSerif-6e" transform="translate(261.572266 0.015625)"/>
     <use xlink:href="#DejaVuSerif-65" transform="translate(325.976562 0.015625)"/>
     <use xlink:href="#DejaVuSerif-63" transform="translate(385.15625 0.015625)"/>
     <use xlink:href="#DejaVuSerif-65" transform="translate(441.162109 0.015625)"/>
     <use xlink:href="#DejaVuSerif-73" transform="translate(500.341797 0.015625)"/>
     <use xlink:href="#DejaVuSerif-73" transform="translate(551.660156 0.015625)"/>
     <use xlink:href="#DejaVuSerif-61" transform="translate(602.978516 0.015625)"/>
     <use xlink:href="#DejaVuSerif-72" transform="translate(662.597656 0.015625)"/>
     <use xlink:href="#DejaVuSerif-79" transform="translate(710.400391 0.015625)"/>
     <use xlink:href="#DejaVuSerif-20" transform="translate(766.894531 0.015625)"/>
     <use xlink:href="#DejaVuSerif-61" transform="translate(798.681641 0.015625)"/>
     <use xlink:href="#DejaVuSerif-6e" transform="translate(858.300781 0.015625)"/>
     <use xlink:href="#DejaVuSerif-64" transform="translate(922.705078 0.015625)"/>
     <use xlink:href="#DejaVuSerif-20" transform="translate(986.71875 0.015625)"/>
     <use xlink:href="#DejaVuSerif-73" transform="translate(1018.505859 0.015625)"/>
     <use xlink:href="#DejaVuSerif-75" transform="translate(1069.824219 0.015625)"/>
     <use xlink:href="#DejaVuSerif-66" transform="translate(1134.228516 0.015625)"/>
     <use xlink:href="#DejaVuSerif-66" transform="translate(1171.240234 0.015625)"/>
     <use xlink:href="#DejaVuSerif-69" transform="translate(1208.251953 0.015625)"/>
     <use xlink:href="#DejaVuSerif-63" transform="translate(1240.234375 0.015625)"/>
     <use xlink:href="#DejaVuSerif-69" transform="translate(1296.240234 0.015625)"/>
     <use xlink:href="#DejaVuSerif-65" transform="translate(1328.222656 0.015625)"/>
     <use xlink:href="#DejaVuSerif-6e" transform="translate(1387.402344 0.015625)"/>
     <use xlink:href="#DejaVuSerif-74" transform="translate(1451.806641 0.015625)"/>
     <use xlink:href="#DejaVuSerif-20" transform="translate(1491.992188 0.015625)"/>
     <use xlink:href="#DejaVuSerif-63" transform="translate(1523.779297 0.015625)"/>
     <use xlink:href="#DejaVuSerif-6f" transform="translate(1579.785156 0.015625)"/>
     <use xlink:href="#DejaVuSerif-6e" transform="translate(1639.990234 0.015625)"/>
     <use xlink:href="#DejaVuSerif-64" transform="translate(1704.394531 0.015625)"/>
     <use xlink:href="#DejaVuSerif-69" transform="translate(1768.408203 0.015625)"/>
     <use xlink:href="#DejaVuSerif-74" transform="translate(1800.390625 0.015625)"/>
     <use xlink:href="#DejaVuSerif-69" transform="translate(1840.576172 0.015625)"/>
     <use xlink:href="#DejaVuSerif-6f" transform="translate(1872.558594 0.015625)"/>
     <use xlink:href="#DejaVuSerif-6e" transform="translate(1932.763672 0.015625)"/>
     <use xlink:href="#DejaVuSerif-73" transform="translate(1997.167969 0.015625)"/>
     <use xlink:href="#DejaVuSerif-20" transform="translate(2048.486328 0.015625)"/>
     <use xlink:href="#DejaVuSerif-6f" transform="translate(2080.273438 0.015625)"/>
     <use xlink:href="#DejaVuSerif-6e" transform="translate(2140.478516 0.015625)"/>
     <use xlink:href="#DejaVuSerif-20" transform="translate(2204.882812 0.015625)"/>
     <use xlink:href="#DejaVuSerif-70" transform="translate(2236.669922 0.015625)"/>
     <use xlink:href="#DejaVuSerif-6f" transform="translate(2300.683594 0.015625)"/>
     <use xlink:href="#DejaVuSerif-73" transform="translate(2360.888672 0.015625)"/>
     <use xlink:href="#DejaVuSerif-69" transform="translate(2412.207031 0.015625)"/>
     <use xlink:href="#DejaVuSerif-74" transform="translate(2444.189453 0.015625)"/>
     <use xlink:href="#DejaVuSerif-69" transform="translate(2484.375 0.015625)"/>
     <use xlink:href="#DejaVuSerif-76" transform="translate(2516.357422 0.015625)"/>
     <use xlink:href="#DejaVuSerif-65" transform="translate(2572.851562 0.015625)"/>
     <use xlink:href="#DejaVuSerif-20" transform="translate(2632.03125 0.015625)"/>
     <use xlink:href="#DejaVuSerif-69" transform="translate(2663.818359 0.015625)"/>
     <use xlink:href="#DejaVuSerif-6e" transform="translate(2695.800781 0.015625)"/>
     <use xlink:href="#DejaVuSerif-74" transform="translate(2760.205078 0.015625)"/>
     <use xlink:href="#DejaVuSerif-65" transform="translate(2800.390625 0.015625)"/>
     <use xlink:href="#DejaVuSerif-67" transform="translate(2859.570312 0.015625)"/>
     <use xlink:href="#DejaVuSerif-65" transform="translate(2923.583984 0.015625)"/>
     <use xlink:href="#DejaVuSerif-72" transform="translate(2982.763672 0.015625)"/>
     <use xlink:href="#DejaVuSerif-73" transform="translate(3030.566406 0.015625)"/>
     <use xlink:href="#DejaVuSerif-20" transform="translate(3081.884766 0.015625)"/>
     <use xlink:href="#Cmmi10-6d" transform="translate(3113.671875 0.015625)"/>
     <use xlink:href="#DejaVuSerif-20" transform="translate(3201.464844 0.015625)"/>
     <use xlink:href="#DejaVuSerif-61" transform="translate(3233.251953 0.015625)"/>
     <use xlink:href="#DejaVuSerif-6e" transform="translate(3292.871094 0.015625)"/>
     <use xlink:href="#DejaVuSerif-64" transform="translate(3357.275391 0.015625)"/>
     <use xlink:href="#DejaVuSerif-20" transform="translate(3421.289062 0.015625)"/>
     <use xlink:href="#Cmmi10-6e" transform="translate(3453.076172 0.015625)"/>
     <use xlink:href="#DejaVuSerif-20" transform="translate(3513.085938 0.015625)"/>
     <use xlink:href="#DejaVuSerif-73" transform="translate(3544.873047 0.015625)"/>
     <use xlink:href="#DejaVuSerif-6f" transform="translate(3596.191406 0.015625)"/>
     <use xlink:href="#DejaVuSerif-20" transform="translate(3656.396484 0.015625)"/>
     <use xlink:href="#DejaVuSerif-74" transform="translate(3688.183594 0.015625)"/>
     <use xlink:href="#DejaVuSerif-68" transform="translate(3728.369141 0.015625)"/>
     <use xlink:href="#DejaVuSerif-61" transform="translate(3792.773438 0.015625)"/>
     <use xlink:href="#DejaVuSerif-74" transform="translate(3852.392578 0.015625)"/>
     <use xlink:href="#DejaVuSerif-20" transform="translate(3892.578125 0.015625)"/>
     <use xlink:href="#DejaVuSerif-5c" transform="translate(3924.365234 0.015625)"/>
     <use xlink:href="#DejaVuSerif-5b" transform="translate(3958.056641 0.015625)"/>
     <use xlink:href="#DejaVuSerif-5c" transform="translate(3997.070312 0.015625)"/>
     <use xlink:href="#DejaVuSerif-73" transform="translate(4030.761719 0.015625)"/>
     <use xlink:href="#DejaVuSerif-75" transform="translate(4082.080078 0.015625)"/>
     <use xlink:href="#DejaVuSerif-6d" transform="translate(4146.484375 0.015625)"/>
     <use xlink:href="#DejaVuSerif-5f" transform="translate(4241.308594 0.015625)"/>
     <use xlink:href="#DejaVuSerif-7b" transform="translate(4291.308594 0.015625)"/>
     <use xlink:href="#DejaVuSerif-69" transform="translate(4354.931641 0.015625)"/>
     <use xlink:href="#DejaVuSerif-3d" transform="translate(4386.914062 0.015625)"/>
     <use xlink:href="#DejaVuSerif-30" transform="translate(4470.703125 0.015625)"/>
     <use xlink:href="#DejaVuSerif-7d" transform="translate(4534.326172 0.015625)"/>
     <use xlink:href="#DejaVuSerif-5e" transform="translate(4597.949219 0.015625)"/>
     <use xlink:href="#DejaVuSerif-7b" transform="translate(4681.738281 0.015625)"/>
     <use xlink:href="#DejaVuSerif-6d" transform="translate(4745.361328 0.015625)"/>
     <use xlink:href="#DejaVuSerif-6e" transform="translate(4840.185547 0.015625)"/>
     <use xlink:href="#DejaVuSerif-2d" transform="translate(4904.589844 0.015625)"/>
     <use xlink:href="#DejaVuSerif-31" transform="translate(4938.378906 0.015625)"/>
     <use xlink:href="#DejaVuSerif-7d" transform="translate(5002.001953 0.015625)"/>
     <use xlink:href="#DejaVuSerif-20" transform="translate(5065.625 0.015625)"/>
     <use xlink:href="#DejaVuSerif-28" transform="translate(5097.412109 0.015625)"/>
     <use xlink:href="#DejaVuSerif-2d" transform="translate(5136.425781 0.015625)"/>
     <use xlink:href="#DejaVuSerif-31" transform="translate(5170.214844 0.015625)"/>
     <use xlink:href="#DejaVuSerif-29" transform="translate(5233.837891 0.015625)"/>
     <use xlink:href="#DejaVuSerif-5e" transform="translate(5272.851562 0.015625)"/>
     <use xlink:href="#DejaVuSerif-7b" transform="translate(5356.640625 0.015625)"/>
     <use xlink:href="#DejaVuSerif-5c" transform="translate(5420.263672 0.015625)"/>
     <use xlink:href="#DejaVuSerif-6c" transform="translate(5453.955078 0.015625)"/>
     <use xlink:href="#DejaVuSerif-66" transform="translate(5485.9375 0.015625)"/>
     <use xlink:href="#DejaVuSerif-6c" transform="translate(5522.949219 0.015625)"/>
     <use xlink:href="#DejaVuSerif-6f" transform="translate(5554.931641 0.015625)"/>
     <use xlink:href="#DejaVuSerif-6f" transform="translate(5615.136719 0.015625)"/>
     <use xlink:href="#DejaVuSerif-72" transform="translate(5675.341797 0.015625)"/>
     <use xlink:href="#DejaVuSerif-20" transform="translate(5723.144531 0.015625)"/>
     <use xlink:href="#DejaVuSerif-69" transform="translate(5754.931641 0.015625)"/>
     <use xlink:href="#DejaVuSerif-2f" transform="translate(5786.914062 0.015625)"/>
     <use xlink:href="#DejaVuSerif-6d" transform="translate(5820.605469 0.015625)"/>
     <use xlink:href="#DejaVuSerif-20" transform="translate(5915.429688 0.015625)"/>
     <use xlink:href="#DejaVuSerif-5c" transform="translate(5947.216797 0.015625)"/>
     <use xlink:href="#DejaVuSerif-72" transform="translate(5980.908203 0.015625)"/>
     <use xlink:href="#DejaVuSerif-66" transform="translate(6028.710938 0.015625)"/>
     <use xlink:href="#DejaVuSerif-6c" transform="translate(6065.722656 0.015625)"/>
     <use xlink:href="#DejaVuSerif-6f" transform="translate(6097.705078 0.015625)"/>
     <use xlink:href="#DejaVuSerif-6f" transform="translate(6157.910156 0.015625)"/>
     <use xlink:href="#DejaVuSerif-72" transform="translate(6218.115234 0.015625)"/>
     <use xlink:href="#DejaVuSerif-20" transform="translate(6265.917969 0.015625)"/>
     <use xlink:href="#DejaVuSerif-2b" transform="translate(6297.705078 0.015625)"/>
     <use xlink:href="#DejaVuSerif-5c" transform="translate(6381.494141 0.015625)"/>
     <use xlink:href="#DejaVuSerif-6c" transform="translate(6415.185547 0.015625)"/>
     <use xlink:href="#DejaVuSerif-66" transform="translate(6447.167969 0.015625)"/>
     <use xlink:href="#DejaVuSerif-6c" transform="translate(6484.179688 0.015625)"/>
     <use xlink:href="#DejaVuSerif-6f" transform="translate(6516.162109 0.015625)"/>
     <use xlink:href="#DejaVuSerif-6f" transform="translate(6576.367188 0.015625)"/>
     <use xlink:href="#DejaVuSerif-72" transform="translate(6636.572266 0.015625)"/>
     <use xlink:href="#DejaVuSerif-20" transform="translate(6684.375 0.015625)"/>
     <use xlink:href="#DejaVuSerif-69" transform="translate(6716.162109 0.015625)"/>
     <use xlink:href="#DejaVuSerif-2f" transform="translate(6748.144531 0.015625)"/>
     <use xlink:href="#DejaVuSerif-6e" transform="translate(6781.835938 0.015625)"/>
     <use xlink:href="#DejaVuSerif-5c" transform="translate(6846.240234 0.015625)"/>
     <use xlink:href="#DejaVuSerif-72" transform="translate(6879.931641 0.015625)"/>
     <use xlink:href="#DejaVuSerif-66" transform="translate(6927.734375 0.015625)"/>
     <use xlink:href="#DejaVuSerif-6c" transform="translate(6964.746094 0.015625)"/>
     <use xlink:href="#DejaVuSerif-6f" transform="translate(6996.728516 0.015625)"/>
     <use xlink:href="#DejaVuSerif-6f" transform="translate(7056.933594 0.015625)"/>
     <use xlink:href="#DejaVuSerif-72" transform="translate(7117.138672 0.015625)"/>
     <use xlink:href="#DejaVuSerif-7d" transform="translate(7164.941406 0.015625)"/>
     <use xlink:href="#DejaVuSerif-3d" transform="translate(7228.564453 0.015625)"/>
     <use xlink:href="#DejaVuSerif-30" transform="translate(7312.353516 0.015625)"/>
     <use xlink:href="#DejaVuSerif-2e" transform="translate(7375.976562 0.015625)"/>
     <use xlink:href="#DejaVuSerif-5c" transform="translate(7401.388672 0.015625)"/>
     <use xlink:href="#DejaVuSerif-5d" transform="translate(7435.080078 0.015625)"/>
    </g>
   </g>
  </g>
 </g>
</svg>
