<?xml version="1.0" encoding="utf-8" standalone="no"?>
<!DOCTYPE svg PUBLIC "-//W3C//DTD SVG 1.1//EN"
  "http://www.w3.org/Graphics/SVG/1.1/DTD/svg11.dtd">
<svg xmlns:xlink="http://www.w3.org/1999/xlink" width="1108.92pt" height="180.72pt" viewBox="0 0 1108.92 180.72" xmlns="http://www.w3.org/2000/svg" version="1.1">
 <metadata>
  <rdf:RDF xmlns:dc="http://purl.org/dc/elements/1.1/" xmlns:cc="http://creativecommons.org/ns#" xmlns:rdf="http://www.w3.org/1999/02/22-rdf-syntax-ns#">
   <cc:Work>
    <dc:type rdf:resource="http://purl.org/dc/dcmitype/StillImage"/>
    <dc:date>2025-05-29T18:44:11.500956</dc:date>
    <dc:format>image/svg+xml</dc:format>
    <dc:creator>
     <cc:Agent>
      <dc:title>Matplotlib v3.10.3, https://matplotlib.org/</dc:title>
     </cc:Agent>
    </dc:creator>
   </cc:Work>
  </rdf:RDF>
 </metadata>
 <defs>
  <style type="text/css">*{stroke-linejoin: round; stroke-linecap: butt}</style>
 </defs>
 <g id="figure_1">
  <g id="patch_1">
   <path d="M 0 180.72 
L 1108.92 180.72 
L 1108.92 0 
L 0 0 
z
" style="fill: #ffffff"/>
  </g>
  <g id="axes_1">
   <g id="text_1">
    <!-- Given that $A$, $B$, and $C$ are noncollinear points in the plane with integer coordinates such that the distances $AB$, $AC$, and $BC$ are integers, what is the smallest possible value of $AB$? -->
    <g transform="translate(7.2 93.54) scale(0.12 -0.12)">
     <defs>
      <path id="DejaVuSerif-47" d="M 4097 3272 
Q 3988 3856 3641 4136 
Q 3294 4416 2675 4416 
Q 1869 4416 1472 3897 
Q 1075 3378 1075 2328 
Q 1075 1300 1484 772 
Q 1894 244 2688 244 
Q 3041 244 3362 331 
Q 3684 419 3975 594 
L 3975 1797 
L 3097 1797 
L 3097 2131 
L 4609 2131 
L 4609 391 
Q 4194 150 3714 29 
Q 3234 -91 2688 -91 
Q 1631 -91 995 570 
Q 359 1231 359 2328 
Q 359 3434 996 4092 
Q 1634 4750 2713 4750 
Q 3113 4750 3539 4658 
Q 3966 4566 4447 4378 
L 4447 3272 
L 4097 3272 
z
" transform="scale(0.015625)"/>
      <path id="DejaVuSerif-69" d="M 622 4353 
Q 622 4497 726 4603 
Q 831 4709 978 4709 
Q 1122 4709 1226 4603 
Q 1331 4497 1331 4353 
Q 1331 4206 1228 4103 
Q 1125 4000 978 4000 
Q 831 4000 726 4103 
Q 622 4206 622 4353 
z
M 1356 331 
L 1900 331 
L 1900 0 
L 231 0 
L 231 331 
L 781 331 
L 781 2988 
L 231 2988 
L 231 3322 
L 1356 3322 
L 1356 331 
z
" transform="scale(0.015625)"/>
      <path id="DejaVuSerif-76" d="M 1581 0 
L 359 2988 
L -19 2988 
L -19 3322 
L 1509 3322 
L 1509 2988 
L 978 2988 
L 1913 703 
L 2847 2988 
L 2350 2988 
L 2350 3322 
L 3597 3322 
L 3597 2988 
L 3225 2988 
L 2003 0 
L 1581 0 
z
" transform="scale(0.015625)"/>
      <path id="DejaVuSerif-65" d="M 3469 1600 
L 991 1600 
L 991 1575 
Q 991 903 1244 561 
Q 1497 219 1991 219 
Q 2369 219 2611 417 
Q 2853 616 2950 1006 
L 3413 1006 
Q 3275 459 2904 184 
Q 2534 -91 1931 -91 
Q 1203 -91 761 389 
Q 319 869 319 1663 
Q 319 2450 753 2931 
Q 1188 3413 1894 3413 
Q 2647 3413 3050 2948 
Q 3453 2484 3469 1600 
z
M 2791 1931 
Q 2772 2513 2545 2808 
Q 2319 3103 1894 3103 
Q 1497 3103 1269 2806 
Q 1041 2509 991 1931 
L 2791 1931 
z
" transform="scale(0.015625)"/>
      <path id="DejaVuSerif-6e" d="M 263 0 
L 263 331 
L 781 331 
L 781 2988 
L 231 2988 
L 231 3322 
L 1356 3322 
L 1356 2731 
Q 1516 3069 1770 3241 
Q 2025 3413 2363 3413 
Q 2913 3413 3172 3097 
Q 3431 2781 3431 2113 
L 3431 331 
L 3944 331 
L 3944 0 
L 2356 0 
L 2356 331 
L 2853 331 
L 2853 1931 
Q 2853 2541 2703 2767 
Q 2553 2994 2175 2994 
Q 1775 2994 1565 2701 
Q 1356 2409 1356 1850 
L 1356 331 
L 1856 331 
L 1856 0 
L 263 0 
z
" transform="scale(0.015625)"/>
      <path id="DejaVuSerif-20" transform="scale(0.015625)"/>
      <path id="DejaVuSerif-74" d="M 691 2988 
L 184 2988 
L 184 3322 
L 691 3322 
L 691 4353 
L 1269 4353 
L 1269 3322 
L 2350 3322 
L 2350 2988 
L 1269 2988 
L 1269 878 
Q 1269 456 1350 337 
Q 1431 219 1650 219 
Q 1875 219 1978 351 
Q 2081 484 2088 781 
L 2522 781 
Q 2497 328 2275 118 
Q 2053 -91 1600 -91 
Q 1103 -91 897 129 
Q 691 350 691 878 
L 691 2988 
z
" transform="scale(0.015625)"/>
      <path id="DejaVuSerif-68" d="M 263 0 
L 263 331 
L 781 331 
L 781 4531 
L 231 4531 
L 231 4863 
L 1356 4863 
L 1356 2731 
Q 1516 3069 1770 3241 
Q 2025 3413 2363 3413 
Q 2913 3413 3172 3097 
Q 3431 2781 3431 2113 
L 3431 331 
L 3944 331 
L 3944 0 
L 2356 0 
L 2356 331 
L 2853 331 
L 2853 1931 
Q 2853 2541 2704 2764 
Q 2556 2988 2175 2988 
Q 1775 2988 1565 2697 
Q 1356 2406 1356 1850 
L 1356 331 
L 1856 331 
L 1856 0 
L 263 0 
z
" transform="scale(0.015625)"/>
      <path id="DejaVuSerif-61" d="M 2547 1044 
L 2547 1747 
L 1806 1747 
Q 1378 1747 1168 1562 
Q 959 1378 959 997 
Q 959 650 1171 447 
Q 1384 244 1747 244 
Q 2106 244 2326 466 
Q 2547 688 2547 1044 
z
M 3122 2075 
L 3122 331 
L 3634 331 
L 3634 0 
L 2547 0 
L 2547 359 
Q 2356 128 2106 18 
Q 1856 -91 1522 -91 
Q 969 -91 644 203 
Q 319 497 319 997 
Q 319 1513 691 1797 
Q 1063 2081 1741 2081 
L 2547 2081 
L 2547 2309 
Q 2547 2688 2317 2895 
Q 2088 3103 1672 3103 
Q 1328 3103 1125 2947 
Q 922 2791 872 2484 
L 575 2484 
L 575 3156 
Q 875 3284 1158 3348 
Q 1441 3413 1709 3413 
Q 2400 3413 2761 3070 
Q 3122 2728 3122 2075 
z
" transform="scale(0.015625)"/>
      <path id="Cmmi10-41" d="M 288 0 
Q 225 0 225 84 
Q 250 225 306 225 
Q 566 225 755 328 
Q 944 431 1081 647 
Q 1094 659 1094 659 
L 3378 4513 
Q 3428 4581 3500 4581 
L 3584 4581 
Q 3603 4581 3622 4573 
Q 3641 4566 3655 4548 
Q 3669 4531 3669 4513 
L 4056 378 
Q 4056 350 4084 294 
Q 4147 225 4563 225 
Q 4628 225 4628 141 
Q 4606 56 4592 28 
Q 4578 0 4519 0 
L 2919 0 
Q 2859 0 2859 84 
Q 2894 225 2944 225 
Q 3450 225 3481 397 
L 3384 1453 
L 1806 1453 
L 1294 594 
Q 1247 525 1247 434 
Q 1247 322 1355 273 
Q 1463 225 1594 225 
Q 1656 225 1656 141 
Q 1634 50 1621 25 
Q 1609 0 1550 0 
L 288 0 
z
M 1931 1678 
L 3359 1678 
L 3169 3750 
L 1931 1678 
z
" transform="scale(0.015625)"/>
      <path id="DejaVuSerif-2c" d="M 231 -622 
Q 525 -406 662 -114 
Q 800 178 800 594 
L 800 709 
L 1416 709 
Q 1391 175 1164 -208 
Q 938 -591 481 -872 
L 231 -622 
z
" transform="scale(0.015625)"/>
      <path id="Cmmi10-42" d="M 319 0 
Q 256 0 256 84 
Q 259 100 268 137 
Q 278 175 293 200 
Q 309 225 341 225 
Q 522 225 656 234 
Q 791 244 884 269 
Q 959 297 1006 441 
L 1881 3956 
Q 1894 4019 1894 4044 
Q 1894 4113 1819 4122 
Q 1697 4147 1356 4147 
Q 1294 4147 1294 4231 
Q 1297 4247 1306 4286 
Q 1316 4325 1333 4348 
Q 1350 4372 1375 4372 
L 3669 4372 
Q 3878 4372 4083 4320 
Q 4288 4269 4461 4156 
Q 4634 4044 4736 3876 
Q 4838 3709 4838 3488 
Q 4838 3247 4714 3040 
Q 4591 2834 4395 2681 
Q 4200 2528 3973 2429 
Q 3747 2331 3500 2284 
Q 3675 2284 3854 2215 
Q 4034 2147 4175 2028 
Q 4316 1909 4402 1743 
Q 4488 1578 4488 1388 
Q 4488 1003 4219 684 
Q 3950 366 3542 183 
Q 3134 0 2753 0 
L 319 0 
z
M 1497 275 
Q 1497 225 1716 225 
L 2631 225 
Q 2944 225 3231 398 
Q 3519 572 3692 859 
Q 3866 1147 3866 1459 
Q 3866 1650 3786 1820 
Q 3706 1991 3556 2089 
Q 3406 2188 3213 2188 
L 1966 2188 
L 1522 416 
Q 1497 328 1497 275 
z
M 2009 2356 
L 2981 2356 
Q 3288 2356 3577 2512 
Q 3866 2669 4048 2937 
Q 4231 3206 4231 3506 
Q 4231 3784 4057 3965 
Q 3884 4147 3609 4147 
L 2731 4147 
Q 2559 4147 2500 4115 
Q 2441 4084 2400 3928 
L 2009 2356 
z
" transform="scale(0.015625)"/>
      <path id="DejaVuSerif-64" d="M 3359 331 
L 3909 331 
L 3909 0 
L 2784 0 
L 2784 519 
Q 2616 206 2355 57 
Q 2094 -91 1709 -91 
Q 1097 -91 708 395 
Q 319 881 319 1663 
Q 319 2444 706 2928 
Q 1094 3413 1709 3413 
Q 2094 3413 2355 3264 
Q 2616 3116 2784 2803 
L 2784 4531 
L 2241 4531 
L 2241 4863 
L 3359 4863 
L 3359 331 
z
M 2784 1497 
L 2784 1825 
Q 2784 2422 2554 2737 
Q 2325 3053 1888 3053 
Q 1444 3053 1217 2703 
Q 991 2353 991 1663 
Q 991 975 1217 622 
Q 1444 269 1888 269 
Q 2325 269 2554 583 
Q 2784 897 2784 1497 
z
" transform="scale(0.015625)"/>
      <path id="Cmmi10-43" d="M 934 1381 
Q 934 997 1082 705 
Q 1231 413 1514 248 
Q 1797 84 2181 84 
Q 2584 84 2957 290 
Q 3331 497 3595 842 
Q 3859 1188 3956 1575 
Q 3969 1613 4006 1613 
L 4084 1613 
Q 4109 1613 4125 1595 
Q 4141 1578 4141 1556 
Q 4141 1550 4134 1538 
Q 4025 1094 3711 705 
Q 3397 316 2959 87 
Q 2522 -141 2059 -141 
Q 1559 -141 1162 84 
Q 766 309 545 709 
Q 325 1109 325 1613 
Q 325 2150 565 2676 
Q 806 3203 1212 3614 
Q 1619 4025 2139 4269 
Q 2659 4513 3194 4513 
Q 3406 4513 3600 4448 
Q 3794 4384 3959 4253 
Q 4125 4122 4231 3950 
L 4738 4500 
Q 4738 4513 4769 4513 
L 4806 4513 
Q 4831 4513 4847 4491 
Q 4863 4469 4863 4447 
L 4428 2719 
Q 4428 2675 4378 2675 
L 4263 2675 
Q 4213 2675 4213 2747 
Q 4238 2888 4238 3084 
Q 4238 3397 4131 3673 
Q 4025 3950 3801 4119 
Q 3578 4288 3256 4288 
Q 2734 4288 2300 4025 
Q 1866 3763 1564 3336 
Q 1263 2909 1098 2389 
Q 934 1869 934 1381 
z
" transform="scale(0.015625)"/>
      <path id="DejaVuSerif-72" d="M 3059 3328 
L 3059 2497 
L 2728 2497 
Q 2713 2744 2591 2866 
Q 2469 2988 2234 2988 
Q 1809 2988 1582 2694 
Q 1356 2400 1356 1850 
L 1356 331 
L 2022 331 
L 2022 0 
L 263 0 
L 263 331 
L 781 331 
L 781 2994 
L 231 2994 
L 231 3322 
L 1356 3322 
L 1356 2731 
Q 1525 3078 1790 3245 
Q 2056 3413 2438 3413 
Q 2578 3413 2733 3391 
Q 2888 3369 3059 3328 
z
" transform="scale(0.015625)"/>
      <path id="DejaVuSerif-6f" d="M 1925 219 
Q 2388 219 2623 584 
Q 2859 950 2859 1663 
Q 2859 2375 2623 2739 
Q 2388 3103 1925 3103 
Q 1463 3103 1227 2739 
Q 991 2375 991 1663 
Q 991 950 1228 584 
Q 1466 219 1925 219 
z
M 1925 -91 
Q 1200 -91 759 389 
Q 319 869 319 1663 
Q 319 2456 758 2934 
Q 1197 3413 1925 3413 
Q 2653 3413 3092 2934 
Q 3531 2456 3531 1663 
Q 3531 869 3092 389 
Q 2653 -91 1925 -91 
z
" transform="scale(0.015625)"/>
      <path id="DejaVuSerif-63" d="M 3291 997 
Q 3169 466 2822 187 
Q 2475 -91 1925 -91 
Q 1200 -91 759 389 
Q 319 869 319 1663 
Q 319 2459 759 2936 
Q 1200 3413 1925 3413 
Q 2241 3413 2553 3339 
Q 2866 3266 3181 3116 
L 3181 2266 
L 2847 2266 
Q 2781 2703 2561 2903 
Q 2341 3103 1931 3103 
Q 1466 3103 1228 2742 
Q 991 2381 991 1663 
Q 991 944 1227 581 
Q 1463 219 1931 219 
Q 2303 219 2525 412 
Q 2747 606 2828 997 
L 3291 997 
z
" transform="scale(0.015625)"/>
      <path id="DejaVuSerif-6c" d="M 1313 331 
L 1856 331 
L 1856 0 
L 184 0 
L 184 331 
L 738 331 
L 738 4531 
L 184 4531 
L 184 4863 
L 1313 4863 
L 1313 331 
z
" transform="scale(0.015625)"/>
      <path id="DejaVuSerif-70" d="M 1313 1825 
L 1313 1497 
Q 1313 897 1542 583 
Q 1772 269 2209 269 
Q 2650 269 2876 622 
Q 3103 975 3103 1663 
Q 3103 2353 2876 2703 
Q 2650 3053 2209 3053 
Q 1772 3053 1542 2737 
Q 1313 2422 1313 1825 
z
M 738 2988 
L 184 2988 
L 184 3322 
L 1313 3322 
L 1313 2803 
Q 1481 3116 1742 3264 
Q 2003 3413 2388 3413 
Q 3000 3413 3387 2928 
Q 3775 2444 3775 1663 
Q 3775 881 3387 395 
Q 3000 -91 2388 -91 
Q 2003 -91 1742 57 
Q 1481 206 1313 519 
L 1313 -997 
L 1856 -997 
L 1856 -1331 
L 184 -1331 
L 184 -997 
L 738 -997 
L 738 2988 
z
" transform="scale(0.015625)"/>
      <path id="DejaVuSerif-73" d="M 359 184 
L 359 959 
L 691 959 
Q 703 588 923 403 
Q 1144 219 1575 219 
Q 1963 219 2166 364 
Q 2369 509 2369 788 
Q 2369 1006 2220 1140 
Q 2072 1275 1594 1428 
L 1178 1569 
Q 750 1706 558 1912 
Q 366 2119 366 2438 
Q 366 2894 700 3153 
Q 1034 3413 1625 3413 
Q 1888 3413 2178 3344 
Q 2469 3275 2778 3144 
L 2778 2419 
L 2447 2419 
Q 2434 2741 2221 2922 
Q 2009 3103 1644 3103 
Q 1281 3103 1095 2975 
Q 909 2847 909 2591 
Q 909 2381 1050 2254 
Q 1191 2128 1613 1997 
L 2069 1856 
Q 2541 1709 2748 1489 
Q 2956 1269 2956 922 
Q 2956 450 2595 179 
Q 2234 -91 1600 -91 
Q 1278 -91 972 -22 
Q 666 47 359 184 
z
" transform="scale(0.015625)"/>
      <path id="DejaVuSerif-77" d="M 3072 3322 
L 3922 728 
L 4672 2988 
L 4191 2988 
L 4191 3322 
L 5394 3322 
L 5394 2988 
L 5025 2988 
L 4038 0 
L 3559 0 
L 2741 2484 
L 1919 0 
L 1459 0 
L 475 2988 
L 103 2988 
L 103 3322 
L 1606 3322 
L 1606 2988 
L 1069 2988 
L 1813 728 
L 2669 3322 
L 3072 3322 
z
" transform="scale(0.015625)"/>
      <path id="DejaVuSerif-67" d="M 3359 2988 
L 3359 72 
Q 3359 -644 2965 -1033 
Q 2572 -1422 1844 -1422 
Q 1516 -1422 1216 -1362 
Q 916 -1303 641 -1184 
L 641 -488 
L 941 -488 
Q 997 -813 1206 -963 
Q 1416 -1113 1806 -1113 
Q 2313 -1113 2548 -827 
Q 2784 -541 2784 72 
L 2784 519 
Q 2616 206 2355 57 
Q 2094 -91 1709 -91 
Q 1097 -91 708 395 
Q 319 881 319 1663 
Q 319 2444 706 2928 
Q 1094 3413 1709 3413 
Q 2094 3413 2355 3264 
Q 2616 3116 2784 2803 
L 2784 3322 
L 3909 3322 
L 3909 2988 
L 3359 2988 
z
M 2784 1825 
Q 2784 2422 2554 2737 
Q 2325 3053 1888 3053 
Q 1444 3053 1217 2703 
Q 991 2353 991 1663 
Q 991 975 1217 622 
Q 1444 269 1888 269 
Q 2325 269 2554 583 
Q 2784 897 2784 1497 
L 2784 1825 
z
" transform="scale(0.015625)"/>
      <path id="DejaVuSerif-75" d="M 2266 3322 
L 3341 3322 
L 3341 331 
L 3884 331 
L 3884 0 
L 2766 0 
L 2766 588 
Q 2606 256 2353 82 
Q 2100 -91 1766 -91 
Q 1213 -91 952 223 
Q 691 538 691 1209 
L 691 2988 
L 172 2988 
L 172 3322 
L 1269 3322 
L 1269 1388 
Q 1269 781 1417 556 
Q 1566 331 1947 331 
Q 2347 331 2556 625 
Q 2766 919 2766 1478 
L 2766 2988 
L 2266 2988 
L 2266 3322 
z
" transform="scale(0.015625)"/>
      <path id="DejaVuSerif-6d" d="M 3316 2675 
Q 3481 3041 3739 3227 
Q 3997 3413 4341 3413 
Q 4863 3413 5119 3089 
Q 5375 2766 5375 2113 
L 5375 331 
L 5894 331 
L 5894 0 
L 4300 0 
L 4300 331 
L 4800 331 
L 4800 2047 
Q 4800 2556 4650 2772 
Q 4500 2988 4153 2988 
Q 3769 2988 3567 2697 
Q 3366 2406 3366 1850 
L 3366 331 
L 3866 331 
L 3866 0 
L 2291 0 
L 2291 331 
L 2791 331 
L 2791 2069 
Q 2791 2566 2641 2777 
Q 2491 2988 2144 2988 
Q 1759 2988 1557 2697 
Q 1356 2406 1356 1850 
L 1356 331 
L 1856 331 
L 1856 0 
L 263 0 
L 263 331 
L 781 331 
L 781 2994 
L 231 2994 
L 231 3322 
L 1356 3322 
L 1356 2731 
Q 1516 3063 1762 3238 
Q 2009 3413 2322 3413 
Q 2709 3413 2968 3220 
Q 3228 3028 3316 2675 
z
" transform="scale(0.015625)"/>
      <path id="DejaVuSerif-62" d="M 738 331 
L 738 4531 
L 184 4531 
L 184 4863 
L 1313 4863 
L 1313 2803 
Q 1481 3116 1742 3264 
Q 2003 3413 2388 3413 
Q 3000 3413 3387 2928 
Q 3775 2444 3775 1663 
Q 3775 881 3387 395 
Q 3000 -91 2388 -91 
Q 2003 -91 1742 57 
Q 1481 206 1313 519 
L 1313 0 
L 184 0 
L 184 331 
L 738 331 
z
M 1313 1497 
Q 1313 897 1542 583 
Q 1772 269 2209 269 
Q 2650 269 2876 622 
Q 3103 975 3103 1663 
Q 3103 2353 2876 2703 
Q 2650 3053 2209 3053 
Q 1772 3053 1542 2737 
Q 1313 2422 1313 1825 
L 1313 1497 
z
" transform="scale(0.015625)"/>
      <path id="DejaVuSerif-66" d="M 2753 4078 
L 2450 4078 
Q 2447 4313 2317 4434 
Q 2188 4556 1941 4556 
Q 1619 4556 1487 4379 
Q 1356 4203 1356 3750 
L 1356 3322 
L 2284 3322 
L 2284 2988 
L 1356 2988 
L 1356 331 
L 2094 331 
L 2094 0 
L 231 0 
L 231 331 
L 781 331 
L 781 2988 
L 231 2988 
L 231 3322 
L 781 3322 
L 781 3738 
Q 781 4294 1070 4578 
Q 1359 4863 1919 4863 
Q 2128 4863 2337 4825 
Q 2547 4788 2753 4709 
L 2753 4078 
z
" transform="scale(0.015625)"/>
      <path id="DejaVuSerif-3f" d="M 1125 325 
Q 1125 500 1245 622 
Q 1366 744 1544 744 
Q 1716 744 1837 622 
Q 1959 500 1959 325 
Q 1959 153 1837 31 
Q 1716 -91 1544 -91 
Q 1366 -91 1245 29 
Q 1125 150 1125 325 
z
M 434 4459 
Q 766 4606 1064 4678 
Q 1363 4750 1625 4750 
Q 2319 4750 2720 4415 
Q 3122 4081 3122 3513 
Q 3122 2931 2776 2562 
Q 2431 2194 1734 2034 
L 1734 1241 
L 1350 1241 
L 1350 2266 
Q 1903 2400 2183 2715 
Q 2463 3031 2463 3519 
Q 2463 3947 2234 4194 
Q 2006 4441 1613 4441 
Q 1256 4441 1029 4236 
Q 803 4031 738 3647 
L 434 3647 
L 434 4459 
z
" transform="scale(0.015625)"/>
     </defs>
     <use xlink:href="#DejaVuSerif-47" transform="translate(0 0.015625)"/>
     <use xlink:href="#DejaVuSerif-69" transform="translate(79.882812 0.015625)"/>
     <use xlink:href="#DejaVuSerif-76" transform="translate(111.865234 0.015625)"/>
     <use xlink:href="#DejaVuSerif-65" transform="translate(168.359375 0.015625)"/>
     <use xlink:href="#DejaVuSerif-6e" transform="translate(227.539062 0.015625)"/>
     <use xlink:href="#DejaVuSerif-20" transform="translate(291.943359 0.015625)"/>
     <use xlink:href="#DejaVuSerif-74" transform="translate(323.730469 0.015625)"/>
     <use xlink:href="#DejaVuSerif-68" transform="translate(363.916016 0.015625)"/>
     <use xlink:href="#DejaVuSerif-61" transform="translate(428.320312 0.015625)"/>
     <use xlink:href="#DejaVuSerif-74" transform="translate(487.939453 0.015625)"/>
     <use xlink:href="#DejaVuSerif-20" transform="translate(528.125 0.015625)"/>
     <use xlink:href="#Cmmi10-41" transform="translate(559.912109 0.015625)"/>
     <use xlink:href="#DejaVuSerif-2c" transform="translate(634.912109 0.015625)"/>
     <use xlink:href="#DejaVuSerif-20" transform="translate(666.699219 0.015625)"/>
     <use xlink:href="#Cmmi10-42" transform="translate(698.486328 0.015625)"/>
     <use xlink:href="#DejaVuSerif-2c" transform="translate(774.267578 0.015625)"/>
     <use xlink:href="#DejaVuSerif-20" transform="translate(806.054688 0.015625)"/>
     <use xlink:href="#DejaVuSerif-61" transform="translate(837.841797 0.015625)"/>
     <use xlink:href="#DejaVuSerif-6e" transform="translate(897.460938 0.015625)"/>
     <use xlink:href="#DejaVuSerif-64" transform="translate(961.865234 0.015625)"/>
     <use xlink:href="#DejaVuSerif-20" transform="translate(1025.878906 0.015625)"/>
     <use xlink:href="#Cmmi10-43" transform="translate(1057.666016 0.015625)"/>
     <use xlink:href="#DejaVuSerif-20" transform="translate(1129.052734 0.015625)"/>
     <use xlink:href="#DejaVuSerif-61" transform="translate(1160.839844 0.015625)"/>
     <use xlink:href="#DejaVuSerif-72" transform="translate(1220.458984 0.015625)"/>
     <use xlink:href="#DejaVuSerif-65" transform="translate(1268.261719 0.015625)"/>
     <use xlink:href="#DejaVuSerif-20" transform="translate(1327.441406 0.015625)"/>
     <use xlink:href="#DejaVuSerif-6e" transform="translate(1359.228516 0.015625)"/>
     <use xlink:href="#DejaVuSerif-6f" transform="translate(1423.632812 0.015625)"/>
     <use xlink:href="#DejaVuSerif-6e" transform="translate(1483.837891 0.015625)"/>
     <use xlink:href="#DejaVuSerif-63" transform="translate(1548.242188 0.015625)"/>
     <use xlink:href="#DejaVuSerif-6f" transform="translate(1604.248047 0.015625)"/>
     <use xlink:href="#DejaVuSerif-6c" transform="translate(1664.453125 0.015625)"/>
     <use xlink:href="#DejaVuSerif-6c" transform="translate(1696.435547 0.015625)"/>
     <use xlink:href="#DejaVuSerif-69" transform="translate(1728.417969 0.015625)"/>
     <use xlink:href="#DejaVuSerif-6e" transform="translate(1760.400391 0.015625)"/>
     <use xlink:href="#DejaVuSerif-65" transform="translate(1824.804688 0.015625)"/>
     <use xlink:href="#DejaVuSerif-61" transform="translate(1883.984375 0.015625)"/>
     <use xlink:href="#DejaVuSerif-72" transform="translate(1943.603516 0.015625)"/>
     <use xlink:href="#DejaVuSerif-20" transform="translate(1991.40625 0.015625)"/>
     <use xlink:href="#DejaVuSerif-70" transform="translate(2023.193359 0.015625)"/>
     <use xlink:href="#DejaVuSerif-6f" transform="translate(2087.207031 0.015625)"/>
     <use xlink:href="#DejaVuSerif-69" transform="translate(2147.412109 0.015625)"/>
     <use xlink:href="#DejaVuSerif-6e" transform="translate(2179.394531 0.015625)"/>
     <use xlink:href="#DejaVuSerif-74" transform="translate(2243.798828 0.015625)"/>
     <use xlink:href="#DejaVuSerif-73" transform="translate(2283.984375 0.015625)"/>
     <use xlink:href="#DejaVuSerif-20" transform="translate(2335.302734 0.015625)"/>
     <use xlink:href="#DejaVuSerif-69" transform="translate(2367.089844 0.015625)"/>
     <use xlink:href="#DejaVuSerif-6e" transform="translate(2399.072266 0.015625)"/>
     <use xlink:href="#DejaVuSerif-20" transform="translate(2463.476562 0.015625)"/>
     <use xlink:href="#DejaVuSerif-74" transform="translate(2495.263672 0.015625)"/>
     <use xlink:href="#DejaVuSerif-68" transform="translate(2535.449219 0.015625)"/>
     <use xlink:href="#DejaVuSerif-65" transform="translate(2599.853516 0.015625)"/>
     <use xlink:href="#DejaVuSerif-20" transform="translate(2659.033203 0.015625)"/>
     <use xlink:href="#DejaVuSerif-70" transform="translate(2690.820312 0.015625)"/>
     <use xlink:href="#DejaVuSerif-6c" transform="translate(2754.833984 0.015625)"/>
     <use xlink:href="#DejaVuSerif-61" transform="translate(2786.816406 0.015625)"/>
     <use xlink:href="#DejaVuSerif-6e" transform="translate(2846.435547 0.015625)"/>
     <use xlink:href="#DejaVuSerif-65" transform="translate(2910.839844 0.015625)"/>
     <use xlink:href="#DejaVuSerif-20" transform="translate(2970.019531 0.015625)"/>
     <use xlink:href="#DejaVuSerif-77" transform="translate(3001.806641 0.015625)"/>
     <use xlink:href="#DejaVuSerif-69" transform="translate(3087.402344 0.015625)"/>
     <use xlink:href="#DejaVuSerif-74" transform="translate(3119.384766 0.015625)"/>
     <use xlink:href="#DejaVuSerif-68" transform="translate(3159.570312 0.015625)"/>
     <use xlink:href="#DejaVuSerif-20" transform="translate(3223.974609 0.015625)"/>
     <use xlink:href="#DejaVuSerif-69" transform="translate(3255.761719 0.015625)"/>
     <use xlink:href="#DejaVuSerif-6e" transform="translate(3287.744141 0.015625)"/>
     <use xlink:href="#DejaVuSerif-74" transform="translate(3352.148438 0.015625)"/>
     <use xlink:href="#DejaVuSerif-65" transform="translate(3392.333984 0.015625)"/>
     <use xlink:href="#DejaVuSerif-67" transform="translate(3451.513672 0.015625)"/>
     <use xlink:href="#DejaVuSerif-65" transform="translate(3515.527344 0.015625)"/>
     <use xlink:href="#DejaVuSerif-72" transform="translate(3574.707031 0.015625)"/>
     <use xlink:href="#DejaVuSerif-20" transform="translate(3622.509766 0.015625)"/>
     <use xlink:href="#DejaVuSerif-63" transform="translate(3654.296875 0.015625)"/>
     <use xlink:href="#DejaVuSerif-6f" transform="translate(3710.302734 0.015625)"/>
     <use xlink:href="#DejaVuSerif-6f" transform="translate(3770.507812 0.015625)"/>
     <use xlink:href="#DejaVuSerif-72" transform="translate(3830.712891 0.015625)"/>
     <use xlink:href="#DejaVuSerif-64" transform="translate(3878.515625 0.015625)"/>
     <use xlink:href="#DejaVuSerif-69" transform="translate(3942.529297 0.015625)"/>
     <use xlink:href="#DejaVuSerif-6e" transform="translate(3974.511719 0.015625)"/>
     <use xlink:href="#DejaVuSerif-61" transform="translate(4038.916016 0.015625)"/>
     <use xlink:href="#DejaVuSerif-74" transform="translate(4098.535156 0.015625)"/>
     <use xlink:href="#DejaVuSerif-65" transform="translate(4138.720703 0.015625)"/>
     <use xlink:href="#DejaVuSerif-73" transform="translate(4197.900391 0.015625)"/>
     <use xlink:href="#DejaVuSerif-20" transform="translate(4249.21875 0.015625)"/>
     <use xlink:href="#DejaVuSerif-73" transform="translate(4281.005859 0.015625)"/>
     <use xlink:href="#DejaVuSerif-75" transform="translate(4332.324219 0.015625)"/>
     <use xlink:href="#DejaVuSerif-63" transform="translate(4396.728516 0.015625)"/>
     <use xlink:href="#DejaVuSerif-68" transform="translate(4452.734375 0.015625)"/>
     <use xlink:href="#DejaVuSerif-20" transform="translate(4517.138672 0.015625)"/>
     <use xlink:href="#DejaVuSerif-74" transform="translate(4548.925781 0.015625)"/>
     <use xlink:href="#DejaVuSerif-68" transform="translate(4589.111328 0.015625)"/>
     <use xlink:href="#DejaVuSerif-61" transform="translate(4653.515625 0.015625)"/>
     <use xlink:href="#DejaVuSerif-74" transform="translate(4713.134766 0.015625)"/>
     <use xlink:href="#DejaVuSerif-20" transform="translate(4753.320312 0.015625)"/>
     <use xlink:href="#DejaVuSerif-74" transform="translate(4785.107422 0.015625)"/>
     <use xlink:href="#DejaVuSerif-68" transform="translate(4825.292969 0.015625)"/>
     <use xlink:href="#DejaVuSerif-65" transform="translate(4889.697266 0.015625)"/>
     <use xlink:href="#DejaVuSerif-20" transform="translate(4948.876953 0.015625)"/>
     <use xlink:href="#DejaVuSerif-64" transform="translate(4980.664062 0.015625)"/>
     <use xlink:href="#DejaVuSerif-69" transform="translate(5044.677734 0.015625)"/>
     <use xlink:href="#DejaVuSerif-73" transform="translate(5076.660156 0.015625)"/>
     <use xlink:href="#DejaVuSerif-74" transform="translate(5127.978516 0.015625)"/>
     <use xlink:href="#DejaVuSerif-61" transform="translate(5168.164062 0.015625)"/>
     <use xlink:href="#DejaVuSerif-6e" transform="translate(5227.783203 0.015625)"/>
     <use xlink:href="#DejaVuSerif-63" transform="translate(5292.1875 0.015625)"/>
     <use xlink:href="#DejaVuSerif-65" transform="translate(5348.193359 0.015625)"/>
     <use xlink:href="#DejaVuSerif-73" transform="translate(5407.373047 0.015625)"/>
     <use xlink:href="#DejaVuSerif-20" transform="translate(5458.691406 0.015625)"/>
     <use xlink:href="#Cmmi10-41" transform="translate(5490.478516 0.015625)"/>
     <use xlink:href="#Cmmi10-42" transform="translate(5565.478516 0.015625)"/>
     <use xlink:href="#DejaVuSerif-2c" transform="translate(5641.259766 0.015625)"/>
     <use xlink:href="#DejaVuSerif-20" transform="translate(5673.046875 0.015625)"/>
     <use xlink:href="#Cmmi10-41" transform="translate(5704.833984 0.015625)"/>
     <use xlink:href="#Cmmi10-43" transform="translate(5779.833984 0.015625)"/>
     <use xlink:href="#DejaVuSerif-2c" transform="translate(5851.220703 0.015625)"/>
     <use xlink:href="#DejaVuSerif-20" transform="translate(5883.007812 0.015625)"/>
     <use xlink:href="#DejaVuSerif-61" transform="translate(5914.794922 0.015625)"/>
     <use xlink:href="#DejaVuSerif-6e" transform="translate(5974.414062 0.015625)"/>
     <use xlink:href="#DejaVuSerif-64" transform="translate(6038.818359 0.015625)"/>
     <use xlink:href="#DejaVuSerif-20" transform="translate(6102.832031 0.015625)"/>
     <use xlink:href="#Cmmi10-42" transform="translate(6134.619141 0.015625)"/>
     <use xlink:href="#Cmmi10-43" transform="translate(6210.400391 0.015625)"/>
     <use xlink:href="#DejaVuSerif-20" transform="translate(6281.787109 0.015625)"/>
     <use xlink:href="#DejaVuSerif-61" transform="translate(6313.574219 0.015625)"/>
     <use xlink:href="#DejaVuSerif-72" transform="translate(6373.193359 0.015625)"/>
     <use xlink:href="#DejaVuSerif-65" transform="translate(6420.996094 0.015625)"/>
     <use xlink:href="#DejaVuSerif-20" transform="translate(6480.175781 0.015625)"/>
     <use xlink:href="#DejaVuSerif-69" transform="translate(6511.962891 0.015625)"/>
     <use xlink:href="#DejaVuSerif-6e" transform="translate(6543.945312 0.015625)"/>
     <use xlink:href="#DejaVuSerif-74" transform="translate(6608.349609 0.015625)"/>
     <use xlink:href="#DejaVuSerif-65" transform="translate(6648.535156 0.015625)"/>
     <use xlink:href="#DejaVuSerif-67" transform="translate(6707.714844 0.015625)"/>
     <use xlink:href="#DejaVuSerif-65" transform="translate(6771.728516 0.015625)"/>
     <use xlink:href="#DejaVuSerif-72" transform="translate(6830.908203 0.015625)"/>
     <use xlink:href="#DejaVuSerif-73" transform="translate(6878.710938 0.015625)"/>
     <use xlink:href="#DejaVuSerif-2c" transform="translate(6930.029297 0.015625)"/>
     <use xlink:href="#DejaVuSerif-20" transform="translate(6961.816406 0.015625)"/>
     <use xlink:href="#DejaVuSerif-77" transform="translate(6993.603516 0.015625)"/>
     <use xlink:href="#DejaVuSerif-68" transform="translate(7079.199219 0.015625)"/>
     <use xlink:href="#DejaVuSerif-61" transform="translate(7143.603516 0.015625)"/>
     <use xlink:href="#DejaVuSerif-74" transform="translate(7203.222656 0.015625)"/>
     <use xlink:href="#DejaVuSerif-20" transform="translate(7243.408203 0.015625)"/>
     <use xlink:href="#DejaVuSerif-69" transform="translate(7275.195312 0.015625)"/>
     <use xlink:href="#DejaVuSerif-73" transform="translate(7307.177734 0.015625)"/>
     <use xlink:href="#DejaVuSerif-20" transform="translate(7358.496094 0.015625)"/>
     <use xlink:href="#DejaVuSerif-74" transform="translate(7390.283203 0.015625)"/>
     <use xlink:href="#DejaVuSerif-68" transform="translate(7430.46875 0.015625)"/>
     <use xlink:href="#DejaVuSerif-65" transform="translate(7494.873047 0.015625)"/>
     <use xlink:href="#DejaVuSerif-20" transform="translate(7554.052734 0.015625)"/>
     <use xlink:href="#DejaVuSerif-73" transform="translate(7585.839844 0.015625)"/>
     <use xlink:href="#DejaVuSerif-6d" transform="translate(7637.158203 0.015625)"/>
     <use xlink:href="#DejaVuSerif-61" transform="translate(7731.982422 0.015625)"/>
     <use xlink:href="#DejaVuSerif-6c" transform="translate(7791.601562 0.015625)"/>
     <use xlink:href="#DejaVuSerif-6c" transform="translate(7823.583984 0.015625)"/>
     <use xlink:href="#DejaVuSerif-65" transform="translate(7855.566406 0.015625)"/>
     <use xlink:href="#DejaVuSerif-73" transform="translate(7914.746094 0.015625)"/>
     <use xlink:href="#DejaVuSerif-74" transform="translate(7966.064453 0.015625)"/>
     <use xlink:href="#DejaVuSerif-20" transform="translate(8006.25 0.015625)"/>
     <use xlink:href="#DejaVuSerif-70" transform="translate(8038.037109 0.015625)"/>
     <use xlink:href="#DejaVuSerif-6f" transform="translate(8102.050781 0.015625)"/>
     <use xlink:href="#DejaVuSerif-73" transform="translate(8162.255859 0.015625)"/>
     <use xlink:href="#DejaVuSerif-73" transform="translate(8213.574219 0.015625)"/>
     <use xlink:href="#DejaVuSerif-69" transform="translate(8264.892578 0.015625)"/>
     <use xlink:href="#DejaVuSerif-62" transform="translate(8296.875 0.015625)"/>
     <use xlink:href="#DejaVuSerif-6c" transform="translate(8360.888672 0.015625)"/>
     <use xlink:href="#DejaVuSerif-65" transform="translate(8392.871094 0.015625)"/>
     <use xlink:href="#DejaVuSerif-20" transform="translate(8452.050781 0.015625)"/>
     <use xlink:href="#DejaVuSerif-76" transform="translate(8483.837891 0.015625)"/>
     <use xlink:href="#DejaVuSerif-61" transform="translate(8540.332031 0.015625)"/>
     <use xlink:href="#DejaVuSerif-6c" transform="translate(8599.951172 0.015625)"/>
     <use xlink:href="#DejaVuSerif-75" transform="translate(8631.933594 0.015625)"/>
     <use xlink:href="#DejaVuSerif-65" transform="translate(8696.337891 0.015625)"/>
     <use xlink:href="#DejaVuSerif-20" transform="translate(8755.517578 0.015625)"/>
     <use xlink:href="#DejaVuSerif-6f" transform="translate(8787.304688 0.015625)"/>
     <use xlink:href="#DejaVuSerif-66" transform="translate(8847.509766 0.015625)"/>
     <use xlink:href="#DejaVuSerif-20" transform="translate(8884.521484 0.015625)"/>
     <use xlink:href="#Cmmi10-41" transform="translate(8916.308594 0.015625)"/>
     <use xlink:href="#Cmmi10-42" transform="translate(8991.308594 0.015625)"/>
     <use xlink:href="#DejaVuSerif-3f" transform="translate(9067.089844 0.015625)"/>
    </g>
   </g>
  </g>
 </g>
</svg>
