<?xml version="1.0" encoding="utf-8" standalone="no"?>
<!DOCTYPE svg PUBLIC "-//W3C//DTD SVG 1.1//EN"
  "http://www.w3.org/Graphics/SVG/1.1/DTD/svg11.dtd">
<svg xmlns:xlink="http://www.w3.org/1999/xlink" width="1121.52pt" height="180.72pt" viewBox="0 0 1121.52 180.72" xmlns="http://www.w3.org/2000/svg" version="1.1">
 <metadata>
  <rdf:RDF xmlns:dc="http://purl.org/dc/elements/1.1/" xmlns:cc="http://creativecommons.org/ns#" xmlns:rdf="http://www.w3.org/1999/02/22-rdf-syntax-ns#">
   <cc:Work>
    <dc:type rdf:resource="http://purl.org/dc/dcmitype/StillImage"/>
    <dc:date>2025-05-29T18:43:48.848163</dc:date>
    <dc:format>image/svg+xml</dc:format>
    <dc:creator>
     <cc:Agent>
      <dc:title>Matplotlib v3.10.3, https://matplotlib.org/</dc:title>
     </cc:Agent>
    </dc:creator>
   </cc:Work>
  </rdf:RDF>
 </metadata>
 <defs>
  <style type="text/css">*{stroke-linejoin: round; stroke-linecap: butt}</style>
 </defs>
 <g id="figure_1">
  <g id="patch_1">
   <path d="M 0 180.72 
L 1121.52 180.72 
L 1121.52 0 
L 0 0 
z
" style="fill: #ffffff"/>
  </g>
  <g id="axes_1">
   <g id="text_1">
    <!-- For which real numbers $a$ does the sequence defined by the initial condition $u_0=a$ and the recursion $u_{n+1}=2u_n-n^2$ have $u_n&gt;0$ for all $n \geqq 0$? (Express the answer in the simplest form.) -->
    <g transform="translate(7.2 94.08) scale(0.12 -0.12)">
     <defs>
      <path id="DejaVuSerif-46" d="M 353 0 
L 353 331 
L 947 331 
L 947 4331 
L 353 4331 
L 353 4666 
L 4172 4666 
L 4172 3628 
L 3788 3628 
L 3788 4281 
L 1581 4281 
L 1581 2719 
L 3175 2719 
L 3175 3303 
L 3559 3303 
L 3559 1753 
L 3175 1753 
L 3175 2338 
L 1581 2338 
L 1581 331 
L 2328 331 
L 2328 0 
L 353 0 
z
" transform="scale(0.015625)"/>
      <path id="DejaVuSerif-6f" d="M 1925 219 
Q 2388 219 2623 584 
Q 2859 950 2859 1663 
Q 2859 2375 2623 2739 
Q 2388 3103 1925 3103 
Q 1463 3103 1227 2739 
Q 991 2375 991 1663 
Q 991 950 1228 584 
Q 1466 219 1925 219 
z
M 1925 -91 
Q 1200 -91 759 389 
Q 319 869 319 1663 
Q 319 2456 758 2934 
Q 1197 3413 1925 3413 
Q 2653 3413 3092 2934 
Q 3531 2456 3531 1663 
Q 3531 869 3092 389 
Q 2653 -91 1925 -91 
z
" transform="scale(0.015625)"/>
      <path id="DejaVuSerif-72" d="M 3059 3328 
L 3059 2497 
L 2728 2497 
Q 2713 2744 2591 2866 
Q 2469 2988 2234 2988 
Q 1809 2988 1582 2694 
Q 1356 2400 1356 1850 
L 1356 331 
L 2022 331 
L 2022 0 
L 263 0 
L 263 331 
L 781 331 
L 781 2994 
L 231 2994 
L 231 3322 
L 1356 3322 
L 1356 2731 
Q 1525 3078 1790 3245 
Q 2056 3413 2438 3413 
Q 2578 3413 2733 3391 
Q 2888 3369 3059 3328 
z
" transform="scale(0.015625)"/>
      <path id="DejaVuSerif-20" transform="scale(0.015625)"/>
      <path id="DejaVuSerif-77" d="M 3072 3322 
L 3922 728 
L 4672 2988 
L 4191 2988 
L 4191 3322 
L 5394 3322 
L 5394 2988 
L 5025 2988 
L 4038 0 
L 3559 0 
L 2741 2484 
L 1919 0 
L 1459 0 
L 475 2988 
L 103 2988 
L 103 3322 
L 1606 3322 
L 1606 2988 
L 1069 2988 
L 1813 728 
L 2669 3322 
L 3072 3322 
z
" transform="scale(0.015625)"/>
      <path id="DejaVuSerif-68" d="M 263 0 
L 263 331 
L 781 331 
L 781 4531 
L 231 4531 
L 231 4863 
L 1356 4863 
L 1356 2731 
Q 1516 3069 1770 3241 
Q 2025 3413 2363 3413 
Q 2913 3413 3172 3097 
Q 3431 2781 3431 2113 
L 3431 331 
L 3944 331 
L 3944 0 
L 2356 0 
L 2356 331 
L 2853 331 
L 2853 1931 
Q 2853 2541 2704 2764 
Q 2556 2988 2175 2988 
Q 1775 2988 1565 2697 
Q 1356 2406 1356 1850 
L 1356 331 
L 1856 331 
L 1856 0 
L 263 0 
z
" transform="scale(0.015625)"/>
      <path id="DejaVuSerif-69" d="M 622 4353 
Q 622 4497 726 4603 
Q 831 4709 978 4709 
Q 1122 4709 1226 4603 
Q 1331 4497 1331 4353 
Q 1331 4206 1228 4103 
Q 1125 4000 978 4000 
Q 831 4000 726 4103 
Q 622 4206 622 4353 
z
M 1356 331 
L 1900 331 
L 1900 0 
L 231 0 
L 231 331 
L 781 331 
L 781 2988 
L 231 2988 
L 231 3322 
L 1356 3322 
L 1356 331 
z
" transform="scale(0.015625)"/>
      <path id="DejaVuSerif-63" d="M 3291 997 
Q 3169 466 2822 187 
Q 2475 -91 1925 -91 
Q 1200 -91 759 389 
Q 319 869 319 1663 
Q 319 2459 759 2936 
Q 1200 3413 1925 3413 
Q 2241 3413 2553 3339 
Q 2866 3266 3181 3116 
L 3181 2266 
L 2847 2266 
Q 2781 2703 2561 2903 
Q 2341 3103 1931 3103 
Q 1466 3103 1228 2742 
Q 991 2381 991 1663 
Q 991 944 1227 581 
Q 1463 219 1931 219 
Q 2303 219 2525 412 
Q 2747 606 2828 997 
L 3291 997 
z
" transform="scale(0.015625)"/>
      <path id="DejaVuSerif-65" d="M 3469 1600 
L 991 1600 
L 991 1575 
Q 991 903 1244 561 
Q 1497 219 1991 219 
Q 2369 219 2611 417 
Q 2853 616 2950 1006 
L 3413 1006 
Q 3275 459 2904 184 
Q 2534 -91 1931 -91 
Q 1203 -91 761 389 
Q 319 869 319 1663 
Q 319 2450 753 2931 
Q 1188 3413 1894 3413 
Q 2647 3413 3050 2948 
Q 3453 2484 3469 1600 
z
M 2791 1931 
Q 2772 2513 2545 2808 
Q 2319 3103 1894 3103 
Q 1497 3103 1269 2806 
Q 1041 2509 991 1931 
L 2791 1931 
z
" transform="scale(0.015625)"/>
      <path id="DejaVuSerif-61" d="M 2547 1044 
L 2547 1747 
L 1806 1747 
Q 1378 1747 1168 1562 
Q 959 1378 959 997 
Q 959 650 1171 447 
Q 1384 244 1747 244 
Q 2106 244 2326 466 
Q 2547 688 2547 1044 
z
M 3122 2075 
L 3122 331 
L 3634 331 
L 3634 0 
L 2547 0 
L 2547 359 
Q 2356 128 2106 18 
Q 1856 -91 1522 -91 
Q 969 -91 644 203 
Q 319 497 319 997 
Q 319 1513 691 1797 
Q 1063 2081 1741 2081 
L 2547 2081 
L 2547 2309 
Q 2547 2688 2317 2895 
Q 2088 3103 1672 3103 
Q 1328 3103 1125 2947 
Q 922 2791 872 2484 
L 575 2484 
L 575 3156 
Q 875 3284 1158 3348 
Q 1441 3413 1709 3413 
Q 2400 3413 2761 3070 
Q 3122 2728 3122 2075 
z
" transform="scale(0.015625)"/>
      <path id="DejaVuSerif-6c" d="M 1313 331 
L 1856 331 
L 1856 0 
L 184 0 
L 184 331 
L 738 331 
L 738 4531 
L 184 4531 
L 184 4863 
L 1313 4863 
L 1313 331 
z
" transform="scale(0.015625)"/>
      <path id="DejaVuSerif-6e" d="M 263 0 
L 263 331 
L 781 331 
L 781 2988 
L 231 2988 
L 231 3322 
L 1356 3322 
L 1356 2731 
Q 1516 3069 1770 3241 
Q 2025 3413 2363 3413 
Q 2913 3413 3172 3097 
Q 3431 2781 3431 2113 
L 3431 331 
L 3944 331 
L 3944 0 
L 2356 0 
L 2356 331 
L 2853 331 
L 2853 1931 
Q 2853 2541 2703 2767 
Q 2553 2994 2175 2994 
Q 1775 2994 1565 2701 
Q 1356 2409 1356 1850 
L 1356 331 
L 1856 331 
L 1856 0 
L 263 0 
z
" transform="scale(0.015625)"/>
      <path id="DejaVuSerif-75" d="M 2266 3322 
L 3341 3322 
L 3341 331 
L 3884 331 
L 3884 0 
L 2766 0 
L 2766 588 
Q 2606 256 2353 82 
Q 2100 -91 1766 -91 
Q 1213 -91 952 223 
Q 691 538 691 1209 
L 691 2988 
L 172 2988 
L 172 3322 
L 1269 3322 
L 1269 1388 
Q 1269 781 1417 556 
Q 1566 331 1947 331 
Q 2347 331 2556 625 
Q 2766 919 2766 1478 
L 2766 2988 
L 2266 2988 
L 2266 3322 
z
" transform="scale(0.015625)"/>
      <path id="DejaVuSerif-6d" d="M 3316 2675 
Q 3481 3041 3739 3227 
Q 3997 3413 4341 3413 
Q 4863 3413 5119 3089 
Q 5375 2766 5375 2113 
L 5375 331 
L 5894 331 
L 5894 0 
L 4300 0 
L 4300 331 
L 4800 331 
L 4800 2047 
Q 4800 2556 4650 2772 
Q 4500 2988 4153 2988 
Q 3769 2988 3567 2697 
Q 3366 2406 3366 1850 
L 3366 331 
L 3866 331 
L 3866 0 
L 2291 0 
L 2291 331 
L 2791 331 
L 2791 2069 
Q 2791 2566 2641 2777 
Q 2491 2988 2144 2988 
Q 1759 2988 1557 2697 
Q 1356 2406 1356 1850 
L 1356 331 
L 1856 331 
L 1856 0 
L 263 0 
L 263 331 
L 781 331 
L 781 2994 
L 231 2994 
L 231 3322 
L 1356 3322 
L 1356 2731 
Q 1516 3063 1762 3238 
Q 2009 3413 2322 3413 
Q 2709 3413 2968 3220 
Q 3228 3028 3316 2675 
z
" transform="scale(0.015625)"/>
      <path id="DejaVuSerif-62" d="M 738 331 
L 738 4531 
L 184 4531 
L 184 4863 
L 1313 4863 
L 1313 2803 
Q 1481 3116 1742 3264 
Q 2003 3413 2388 3413 
Q 3000 3413 3387 2928 
Q 3775 2444 3775 1663 
Q 3775 881 3387 395 
Q 3000 -91 2388 -91 
Q 2003 -91 1742 57 
Q 1481 206 1313 519 
L 1313 0 
L 184 0 
L 184 331 
L 738 331 
z
M 1313 1497 
Q 1313 897 1542 583 
Q 1772 269 2209 269 
Q 2650 269 2876 622 
Q 3103 975 3103 1663 
Q 3103 2353 2876 2703 
Q 2650 3053 2209 3053 
Q 1772 3053 1542 2737 
Q 1313 2422 1313 1825 
L 1313 1497 
z
" transform="scale(0.015625)"/>
      <path id="DejaVuSerif-73" d="M 359 184 
L 359 959 
L 691 959 
Q 703 588 923 403 
Q 1144 219 1575 219 
Q 1963 219 2166 364 
Q 2369 509 2369 788 
Q 2369 1006 2220 1140 
Q 2072 1275 1594 1428 
L 1178 1569 
Q 750 1706 558 1912 
Q 366 2119 366 2438 
Q 366 2894 700 3153 
Q 1034 3413 1625 3413 
Q 1888 3413 2178 3344 
Q 2469 3275 2778 3144 
L 2778 2419 
L 2447 2419 
Q 2434 2741 2221 2922 
Q 2009 3103 1644 3103 
Q 1281 3103 1095 2975 
Q 909 2847 909 2591 
Q 909 2381 1050 2254 
Q 1191 2128 1613 1997 
L 2069 1856 
Q 2541 1709 2748 1489 
Q 2956 1269 2956 922 
Q 2956 450 2595 179 
Q 2234 -91 1600 -91 
Q 1278 -91 972 -22 
Q 666 47 359 184 
z
" transform="scale(0.015625)"/>
      <path id="Cmmi10-61" d="M 1113 -72 
Q 709 -72 476 233 
Q 244 538 244 953 
Q 244 1363 456 1803 
Q 669 2244 1030 2536 
Q 1391 2828 1806 2828 
Q 1997 2828 2147 2725 
Q 2297 2622 2381 2444 
Q 2453 2700 2663 2700 
Q 2744 2700 2798 2651 
Q 2853 2603 2853 2522 
Q 2853 2503 2851 2493 
Q 2850 2484 2847 2472 
L 2400 684 
Q 2356 494 2356 372 
Q 2356 97 2541 97 
Q 2741 97 2845 351 
Q 2950 606 3022 941 
Q 3034 978 3072 978 
L 3150 978 
Q 3175 978 3190 956 
Q 3206 934 3206 916 
Q 3094 469 2961 198 
Q 2828 -72 2528 -72 
Q 2313 -72 2147 54 
Q 1981 181 1941 391 
Q 1528 -72 1113 -72 
z
M 1119 97 
Q 1350 97 1567 270 
Q 1784 444 1941 678 
Q 1947 684 1947 697 
L 2291 2088 
L 2297 2106 
Q 2259 2334 2132 2498 
Q 2006 2663 1791 2663 
Q 1575 2663 1389 2486 
Q 1203 2309 1075 2069 
Q 950 1813 836 1366 
Q 722 919 722 672 
Q 722 450 817 273 
Q 913 97 1119 97 
z
" transform="scale(0.015625)"/>
      <path id="DejaVuSerif-64" d="M 3359 331 
L 3909 331 
L 3909 0 
L 2784 0 
L 2784 519 
Q 2616 206 2355 57 
Q 2094 -91 1709 -91 
Q 1097 -91 708 395 
Q 319 881 319 1663 
Q 319 2444 706 2928 
Q 1094 3413 1709 3413 
Q 2094 3413 2355 3264 
Q 2616 3116 2784 2803 
L 2784 4531 
L 2241 4531 
L 2241 4863 
L 3359 4863 
L 3359 331 
z
M 2784 1497 
L 2784 1825 
Q 2784 2422 2554 2737 
Q 2325 3053 1888 3053 
Q 1444 3053 1217 2703 
Q 991 2353 991 1663 
Q 991 975 1217 622 
Q 1444 269 1888 269 
Q 2325 269 2554 583 
Q 2784 897 2784 1497 
z
" transform="scale(0.015625)"/>
      <path id="DejaVuSerif-74" d="M 691 2988 
L 184 2988 
L 184 3322 
L 691 3322 
L 691 4353 
L 1269 4353 
L 1269 3322 
L 2350 3322 
L 2350 2988 
L 1269 2988 
L 1269 878 
Q 1269 456 1350 337 
Q 1431 219 1650 219 
Q 1875 219 1978 351 
Q 2081 484 2088 781 
L 2522 781 
Q 2497 328 2275 118 
Q 2053 -91 1600 -91 
Q 1103 -91 897 129 
Q 691 350 691 878 
L 691 2988 
z
" transform="scale(0.015625)"/>
      <path id="DejaVuSerif-71" d="M 3359 2988 
L 3359 -997 
L 3909 -997 
L 3909 -1331 
L 2241 -1331 
L 2241 -997 
L 2784 -997 
L 2784 519 
Q 2616 206 2355 57 
Q 2094 -91 1709 -91 
Q 1097 -91 708 395 
Q 319 881 319 1663 
Q 319 2444 706 2928 
Q 1094 3413 1709 3413 
Q 2094 3413 2355 3264 
Q 2616 3116 2784 2803 
L 2784 3322 
L 3909 3322 
L 3909 2988 
L 3359 2988 
z
M 2784 1825 
Q 2784 2422 2554 2737 
Q 2325 3053 1888 3053 
Q 1444 3053 1217 2703 
Q 991 2353 991 1663 
Q 991 975 1217 622 
Q 1444 269 1888 269 
Q 2325 269 2554 583 
Q 2784 897 2784 1497 
L 2784 1825 
z
" transform="scale(0.015625)"/>
      <path id="DejaVuSerif-66" d="M 2753 4078 
L 2450 4078 
Q 2447 4313 2317 4434 
Q 2188 4556 1941 4556 
Q 1619 4556 1487 4379 
Q 1356 4203 1356 3750 
L 1356 3322 
L 2284 3322 
L 2284 2988 
L 1356 2988 
L 1356 331 
L 2094 331 
L 2094 0 
L 231 0 
L 231 331 
L 781 331 
L 781 2988 
L 231 2988 
L 231 3322 
L 781 3322 
L 781 3738 
Q 781 4294 1070 4578 
Q 1359 4863 1919 4863 
Q 2128 4863 2337 4825 
Q 2547 4788 2753 4709 
L 2753 4078 
z
" transform="scale(0.015625)"/>
      <path id="DejaVuSerif-79" d="M 1381 -609 
L 1600 -56 
L 359 2988 
L -19 2988 
L -19 3322 
L 1509 3322 
L 1509 2988 
L 978 2988 
L 1913 703 
L 2847 2988 
L 2350 2988 
L 2350 3322 
L 3597 3322 
L 3597 2988 
L 3225 2988 
L 1703 -750 
Q 1547 -1138 1356 -1280 
Q 1166 -1422 819 -1422 
Q 672 -1422 517 -1397 
Q 363 -1372 206 -1325 
L 206 -691 
L 500 -691 
Q 519 -903 608 -995 
Q 697 -1088 884 -1088 
Q 1056 -1088 1161 -992 
Q 1266 -897 1381 -609 
z
" transform="scale(0.015625)"/>
      <path id="Cmmi10-75" d="M 678 697 
Q 678 906 734 1126 
Q 791 1347 892 1617 
Q 994 1888 1069 2088 
Q 1153 2322 1153 2472 
Q 1153 2663 1013 2663 
Q 759 2663 595 2402 
Q 431 2141 353 1819 
Q 341 1778 300 1778 
L 225 1778 
Q 172 1778 172 1838 
L 172 1856 
Q 275 2238 487 2533 
Q 700 2828 1025 2828 
Q 1253 2828 1411 2678 
Q 1569 2528 1569 2297 
Q 1569 2178 1516 2047 
Q 1488 1969 1388 1706 
Q 1288 1444 1234 1272 
Q 1181 1100 1147 934 
Q 1113 769 1113 603 
Q 1113 391 1203 244 
Q 1294 97 1497 97 
Q 1906 97 2216 603 
Q 2222 628 2226 651 
Q 2231 675 2234 697 
L 2694 2553 
Q 2716 2638 2794 2698 
Q 2872 2759 2963 2759 
Q 3041 2759 3098 2709 
Q 3156 2659 3156 2578 
Q 3156 2541 3150 2528 
L 2688 684 
Q 2644 494 2644 372 
Q 2644 97 2828 97 
Q 3034 97 3136 351 
Q 3238 606 3309 941 
Q 3322 978 3359 978 
L 3438 978 
Q 3463 978 3478 956 
Q 3494 934 3494 916 
Q 3425 641 3361 444 
Q 3297 247 3159 87 
Q 3022 -72 2816 -72 
Q 2613 -72 2452 39 
Q 2291 150 2234 341 
Q 2088 153 1894 40 
Q 1700 -72 1484 -72 
Q 1116 -72 897 129 
Q 678 331 678 697 
z
" transform="scale(0.015625)"/>
      <path id="Cmr10-30" d="M 1600 -141 
Q 816 -141 533 504 
Q 250 1150 250 2041 
Q 250 2597 351 3087 
Q 453 3578 754 3920 
Q 1056 4263 1600 4263 
Q 2022 4263 2290 4056 
Q 2559 3850 2700 3523 
Q 2841 3197 2892 2823 
Q 2944 2450 2944 2041 
Q 2944 1491 2842 1011 
Q 2741 531 2444 195 
Q 2147 -141 1600 -141 
z
M 1600 25 
Q 1956 25 2131 390 
Q 2306 756 2347 1200 
Q 2388 1644 2388 2144 
Q 2388 2625 2347 3031 
Q 2306 3438 2132 3767 
Q 1959 4097 1600 4097 
Q 1238 4097 1063 3765 
Q 888 3434 847 3029 
Q 806 2625 806 2144 
Q 806 1788 823 1472 
Q 841 1156 916 820 
Q 991 484 1158 254 
Q 1325 25 1600 25 
z
" transform="scale(0.015625)"/>
      <path id="Cmr10-3d" d="M 481 850 
Q 428 850 393 890 
Q 359 931 359 978 
Q 359 1031 393 1068 
Q 428 1106 481 1106 
L 4500 1106 
Q 4547 1106 4581 1068 
Q 4616 1031 4616 978 
Q 4616 931 4581 890 
Q 4547 850 4500 850 
L 481 850 
z
M 481 2094 
Q 428 2094 393 2131 
Q 359 2169 359 2222 
Q 359 2269 393 2309 
Q 428 2350 481 2350 
L 4500 2350 
Q 4547 2350 4581 2309 
Q 4616 2269 4616 2222 
Q 4616 2169 4581 2131 
Q 4547 2094 4500 2094 
L 481 2094 
z
" transform="scale(0.015625)"/>
      <path id="Cmmi10-6e" d="M 494 109 
Q 494 147 500 166 
L 978 2075 
Q 1025 2253 1025 2388 
Q 1025 2663 838 2663 
Q 638 2663 541 2423 
Q 444 2184 353 1819 
Q 353 1800 334 1789 
Q 316 1778 300 1778 
L 225 1778 
Q 203 1778 187 1801 
Q 172 1825 172 1844 
Q 241 2122 305 2315 
Q 369 2509 505 2668 
Q 641 2828 844 2828 
Q 1084 2828 1268 2676 
Q 1453 2525 1453 2291 
Q 1644 2541 1900 2684 
Q 2156 2828 2444 2828 
Q 2672 2828 2837 2750 
Q 3003 2672 3095 2514 
Q 3188 2356 3188 2138 
Q 3188 1875 3070 1503 
Q 2953 1131 2778 672 
Q 2688 463 2688 288 
Q 2688 97 2834 97 
Q 3084 97 3251 365 
Q 3419 634 3488 941 
Q 3500 978 3541 978 
L 3616 978 
Q 3641 978 3658 962 
Q 3675 947 3675 922 
Q 3675 916 3669 903 
Q 3581 541 3364 234 
Q 3147 -72 2822 -72 
Q 2597 -72 2437 83 
Q 2278 238 2278 459 
Q 2278 578 2328 709 
Q 2409 919 2514 1209 
Q 2619 1500 2686 1765 
Q 2753 2031 2753 2234 
Q 2753 2413 2679 2538 
Q 2606 2663 2431 2663 
Q 2197 2663 2000 2559 
Q 1803 2456 1656 2286 
Q 1509 2116 1388 1881 
L 953 141 
Q 931 53 854 -9 
Q 778 -72 684 -72 
Q 606 -72 550 -22 
Q 494 28 494 109 
z
" transform="scale(0.015625)"/>
      <path id="Cmr10-2b" d="M 481 1472 
Q 428 1472 393 1512 
Q 359 1553 359 1600 
Q 359 1647 393 1687 
Q 428 1728 481 1728 
L 2363 1728 
L 2363 3616 
Q 2363 3666 2400 3698 
Q 2438 3731 2491 3731 
Q 2538 3731 2578 3698 
Q 2619 3666 2619 3616 
L 2619 1728 
L 4500 1728 
Q 4547 1728 4581 1687 
Q 4616 1647 4616 1600 
Q 4616 1553 4581 1512 
Q 4547 1472 4500 1472 
L 2619 1472 
L 2619 -416 
Q 2619 -466 2578 -498 
Q 2538 -531 2491 -531 
Q 2438 -531 2400 -498 
Q 2363 -466 2363 -416 
L 2363 1472 
L 481 1472 
z
" transform="scale(0.015625)"/>
      <path id="Cmr10-31" d="M 594 0 
L 594 225 
Q 1394 225 1394 428 
L 1394 3788 
Q 1063 3628 556 3628 
L 556 3853 
Q 1341 3853 1741 4263 
L 1831 4263 
Q 1853 4263 1873 4245 
Q 1894 4228 1894 4206 
L 1894 428 
Q 1894 225 2694 225 
L 2694 0 
L 594 0 
z
" transform="scale(0.015625)"/>
      <path id="Cmr10-32" d="M 319 0 
L 319 172 
Q 319 188 331 206 
L 1325 1306 
Q 1550 1550 1690 1715 
Q 1831 1881 1968 2097 
Q 2106 2313 2186 2536 
Q 2266 2759 2266 3009 
Q 2266 3272 2169 3511 
Q 2072 3750 1880 3894 
Q 1688 4038 1416 4038 
Q 1138 4038 916 3870 
Q 694 3703 603 3438 
Q 628 3444 672 3444 
Q 816 3444 917 3347 
Q 1019 3250 1019 3097 
Q 1019 2950 917 2848 
Q 816 2747 672 2747 
Q 522 2747 420 2851 
Q 319 2956 319 3097 
Q 319 3338 409 3548 
Q 500 3759 670 3923 
Q 841 4088 1055 4175 
Q 1269 4263 1509 4263 
Q 1875 4263 2190 4108 
Q 2506 3953 2690 3670 
Q 2875 3388 2875 3009 
Q 2875 2731 2753 2481 
Q 2631 2231 2440 2026 
Q 2250 1822 1953 1562 
Q 1656 1303 1563 1216 
L 838 519 
L 1453 519 
Q 1906 519 2211 526 
Q 2516 534 2534 550 
Q 2609 631 2688 1141 
L 2875 1141 
L 2694 0 
L 319 0 
z
" transform="scale(0.015625)"/>
      <path id="Cmsy10-a1" d="M 653 1472 
Q 600 1472 565 1512 
Q 531 1553 531 1600 
Q 531 1647 565 1687 
Q 600 1728 653 1728 
L 4325 1728 
Q 4375 1728 4408 1687 
Q 4441 1647 4441 1600 
Q 4441 1553 4408 1512 
Q 4375 1472 4325 1472 
L 653 1472 
z
" transform="scale(0.015625)"/>
      <path id="DejaVuSerif-76" d="M 1581 0 
L 359 2988 
L -19 2988 
L -19 3322 
L 1509 3322 
L 1509 2988 
L 978 2988 
L 1913 703 
L 2847 2988 
L 2350 2988 
L 2350 3322 
L 3597 3322 
L 3597 2988 
L 3225 2988 
L 2003 0 
L 1581 0 
z
" transform="scale(0.015625)"/>
      <path id="Cmmi10-3e" d="M 531 -128 
Q 531 -47 616 -6 
L 4013 1600 
L 594 3219 
Q 531 3238 531 3328 
Q 531 3372 567 3414 
Q 603 3456 659 3456 
Q 672 3456 709 3444 
L 4384 1709 
Q 4441 1681 4441 1600 
Q 4441 1516 4366 1484 
L 709 -244 
Q 672 -256 659 -256 
Q 603 -256 567 -214 
Q 531 -172 531 -128 
z
" transform="scale(0.015625)"/>
      <path id="STIXGeneral-Regular-2267" d="M 3981 2771 
L 365 1024 
L 365 1427 
L 3130 2803 
L 365 4179 
L 365 4595 
L 3981 2835 
L 3981 2771 
z
M 3981 -77 
L 365 -77 
L 365 346 
L 3981 346 
L 3981 -77 
z
M 3981 -1350 
L 365 -1350 
L 365 -928 
L 3981 -928 
L 3981 -1350 
z
" transform="scale(0.015625)"/>
      <path id="DejaVuSerif-3f" d="M 1125 325 
Q 1125 500 1245 622 
Q 1366 744 1544 744 
Q 1716 744 1837 622 
Q 1959 500 1959 325 
Q 1959 153 1837 31 
Q 1716 -91 1544 -91 
Q 1366 -91 1245 29 
Q 1125 150 1125 325 
z
M 434 4459 
Q 766 4606 1064 4678 
Q 1363 4750 1625 4750 
Q 2319 4750 2720 4415 
Q 3122 4081 3122 3513 
Q 3122 2931 2776 2562 
Q 2431 2194 1734 2034 
L 1734 1241 
L 1350 1241 
L 1350 2266 
Q 1903 2400 2183 2715 
Q 2463 3031 2463 3519 
Q 2463 3947 2234 4194 
Q 2006 4441 1613 4441 
Q 1256 4441 1029 4236 
Q 803 4031 738 3647 
L 434 3647 
L 434 4459 
z
" transform="scale(0.015625)"/>
      <path id="DejaVuSerif-28" d="M 2041 -997 
Q 1281 -656 893 83 
Q 506 822 506 1931 
Q 506 3044 893 3783 
Q 1281 4522 2041 4863 
L 2041 4556 
Q 1559 4225 1350 3623 
Q 1141 3022 1141 1931 
Q 1141 844 1350 242 
Q 1559 -359 2041 -691 
L 2041 -997 
z
" transform="scale(0.015625)"/>
      <path id="DejaVuSerif-45" d="M 353 0 
L 353 331 
L 947 331 
L 947 4331 
L 353 4331 
L 353 4666 
L 4109 4666 
L 4109 3628 
L 3725 3628 
L 3725 4281 
L 1581 4281 
L 1581 2719 
L 3109 2719 
L 3109 3303 
L 3494 3303 
L 3494 1753 
L 3109 1753 
L 3109 2338 
L 1581 2338 
L 1581 384 
L 3775 384 
L 3775 1038 
L 4159 1038 
L 4159 0 
L 353 0 
z
" transform="scale(0.015625)"/>
      <path id="DejaVuSerif-78" d="M 1863 2028 
L 2559 2988 
L 2113 2988 
L 2113 3322 
L 3391 3322 
L 3391 2988 
L 2950 2988 
L 2059 1759 
L 3097 331 
L 3531 331 
L 3531 0 
L 1997 0 
L 1997 331 
L 2419 331 
L 1697 1325 
L 972 331 
L 1403 331 
L 1403 0 
L 141 0 
L 141 331 
L 581 331 
L 1497 1594 
L 488 2988 
L 78 2988 
L 78 3322 
L 1563 3322 
L 1563 2988 
L 1166 2988 
L 1863 2028 
z
" transform="scale(0.015625)"/>
      <path id="DejaVuSerif-70" d="M 1313 1825 
L 1313 1497 
Q 1313 897 1542 583 
Q 1772 269 2209 269 
Q 2650 269 2876 622 
Q 3103 975 3103 1663 
Q 3103 2353 2876 2703 
Q 2650 3053 2209 3053 
Q 1772 3053 1542 2737 
Q 1313 2422 1313 1825 
z
M 738 2988 
L 184 2988 
L 184 3322 
L 1313 3322 
L 1313 2803 
Q 1481 3116 1742 3264 
Q 2003 3413 2388 3413 
Q 3000 3413 3387 2928 
Q 3775 2444 3775 1663 
Q 3775 881 3387 395 
Q 3000 -91 2388 -91 
Q 2003 -91 1742 57 
Q 1481 206 1313 519 
L 1313 -997 
L 1856 -997 
L 1856 -1331 
L 184 -1331 
L 184 -997 
L 738 -997 
L 738 2988 
z
" transform="scale(0.015625)"/>
      <path id="DejaVuSerif-2e" d="M 603 325 
Q 603 500 722 622 
Q 841 744 1019 744 
Q 1191 744 1312 622 
Q 1434 500 1434 325 
Q 1434 153 1312 31 
Q 1191 -91 1019 -91 
Q 841 -91 722 29 
Q 603 150 603 325 
z
" transform="scale(0.015625)"/>
      <path id="DejaVuSerif-29" d="M 453 -997 
L 453 -691 
Q 934 -359 1145 242 
Q 1356 844 1356 1931 
Q 1356 3022 1145 3623 
Q 934 4225 453 4556 
L 453 4863 
Q 1216 4522 1603 3783 
Q 1991 3044 1991 1931 
Q 1991 822 1603 83 
Q 1216 -656 453 -997 
z
" transform="scale(0.015625)"/>
     </defs>
     <use xlink:href="#DejaVuSerif-46" transform="translate(0 0.109375)"/>
     <use xlink:href="#DejaVuSerif-6f" transform="translate(69.384766 0.109375)"/>
     <use xlink:href="#DejaVuSerif-72" transform="translate(129.589844 0.109375)"/>
     <use xlink:href="#DejaVuSerif-20" transform="translate(177.392578 0.109375)"/>
     <use xlink:href="#DejaVuSerif-77" transform="translate(209.179688 0.109375)"/>
     <use xlink:href="#DejaVuSerif-68" transform="translate(294.775391 0.109375)"/>
     <use xlink:href="#DejaVuSerif-69" transform="translate(359.179688 0.109375)"/>
     <use xlink:href="#DejaVuSerif-63" transform="translate(391.162109 0.109375)"/>
     <use xlink:href="#DejaVuSerif-68" transform="translate(447.167969 0.109375)"/>
     <use xlink:href="#DejaVuSerif-20" transform="translate(511.572266 0.109375)"/>
     <use xlink:href="#DejaVuSerif-72" transform="translate(543.359375 0.109375)"/>
     <use xlink:href="#DejaVuSerif-65" transform="translate(591.162109 0.109375)"/>
     <use xlink:href="#DejaVuSerif-61" transform="translate(650.341797 0.109375)"/>
     <use xlink:href="#DejaVuSerif-6c" transform="translate(709.960938 0.109375)"/>
     <use xlink:href="#DejaVuSerif-20" transform="translate(741.943359 0.109375)"/>
     <use xlink:href="#DejaVuSerif-6e" transform="translate(773.730469 0.109375)"/>
     <use xlink:href="#DejaVuSerif-75" transform="translate(838.134766 0.109375)"/>
     <use xlink:href="#DejaVuSerif-6d" transform="translate(902.539062 0.109375)"/>
     <use xlink:href="#DejaVuSerif-62" transform="translate(997.363281 0.109375)"/>
     <use xlink:href="#DejaVuSerif-65" transform="translate(1061.376953 0.109375)"/>
     <use xlink:href="#DejaVuSerif-72" transform="translate(1120.556641 0.109375)"/>
     <use xlink:href="#DejaVuSerif-73" transform="translate(1168.359375 0.109375)"/>
     <use xlink:href="#DejaVuSerif-20" transform="translate(1219.677734 0.109375)"/>
     <use xlink:href="#Cmmi10-61" transform="translate(1251.464844 0.109375)"/>
     <use xlink:href="#DejaVuSerif-20" transform="translate(1304.248047 0.109375)"/>
     <use xlink:href="#DejaVuSerif-64" transform="translate(1336.035156 0.109375)"/>
     <use xlink:href="#DejaVuSerif-6f" transform="translate(1400.048828 0.109375)"/>
     <use xlink:href="#DejaVuSerif-65" transform="translate(1460.253906 0.109375)"/>
     <use xlink:href="#DejaVuSerif-73" transform="translate(1519.433594 0.109375)"/>
     <use xlink:href="#DejaVuSerif-20" transform="translate(1570.751953 0.109375)"/>
     <use xlink:href="#DejaVuSerif-74" transform="translate(1602.539062 0.109375)"/>
     <use xlink:href="#DejaVuSerif-68" transform="translate(1642.724609 0.109375)"/>
     <use xlink:href="#DejaVuSerif-65" transform="translate(1707.128906 0.109375)"/>
     <use xlink:href="#DejaVuSerif-20" transform="translate(1766.308594 0.109375)"/>
     <use xlink:href="#DejaVuSerif-73" transform="translate(1798.095703 0.109375)"/>
     <use xlink:href="#DejaVuSerif-65" transform="translate(1849.414062 0.109375)"/>
     <use xlink:href="#DejaVuSerif-71" transform="translate(1908.59375 0.109375)"/>
     <use xlink:href="#DejaVuSerif-75" transform="translate(1972.607422 0.109375)"/>
     <use xlink:href="#DejaVuSerif-65" transform="translate(2037.011719 0.109375)"/>
     <use xlink:href="#DejaVuSerif-6e" transform="translate(2096.191406 0.109375)"/>
     <use xlink:href="#DejaVuSerif-63" transform="translate(2160.595703 0.109375)"/>
     <use xlink:href="#DejaVuSerif-65" transform="translate(2216.601562 0.109375)"/>
     <use xlink:href="#DejaVuSerif-20" transform="translate(2275.78125 0.109375)"/>
     <use xlink:href="#DejaVuSerif-64" transform="translate(2307.568359 0.109375)"/>
     <use xlink:href="#DejaVuSerif-65" transform="translate(2371.582031 0.109375)"/>
     <use xlink:href="#DejaVuSerif-66" transform="translate(2430.761719 0.109375)"/>
     <use xlink:href="#DejaVuSerif-69" transform="translate(2467.773438 0.109375)"/>
     <use xlink:href="#DejaVuSerif-6e" transform="translate(2499.755859 0.109375)"/>
     <use xlink:href="#DejaVuSerif-65" transform="translate(2564.160156 0.109375)"/>
     <use xlink:href="#DejaVuSerif-64" transform="translate(2623.339844 0.109375)"/>
     <use xlink:href="#DejaVuSerif-20" transform="translate(2687.353516 0.109375)"/>
     <use xlink:href="#DejaVuSerif-62" transform="translate(2719.140625 0.109375)"/>
     <use xlink:href="#DejaVuSerif-79" transform="translate(2783.154297 0.109375)"/>
     <use xlink:href="#DejaVuSerif-20" transform="translate(2839.648438 0.109375)"/>
     <use xlink:href="#DejaVuSerif-74" transform="translate(2871.435547 0.109375)"/>
     <use xlink:href="#DejaVuSerif-68" transform="translate(2911.621094 0.109375)"/>
     <use xlink:href="#DejaVuSerif-65" transform="translate(2976.025391 0.109375)"/>
     <use xlink:href="#DejaVuSerif-20" transform="translate(3035.205078 0.109375)"/>
     <use xlink:href="#DejaVuSerif-69" transform="translate(3066.992188 0.109375)"/>
     <use xlink:href="#DejaVuSerif-6e" transform="translate(3098.974609 0.109375)"/>
     <use xlink:href="#DejaVuSerif-69" transform="translate(3163.378906 0.109375)"/>
     <use xlink:href="#DejaVuSerif-74" transform="translate(3195.361328 0.109375)"/>
     <use xlink:href="#DejaVuSerif-69" transform="translate(3235.546875 0.109375)"/>
     <use xlink:href="#DejaVuSerif-61" transform="translate(3267.529297 0.109375)"/>
     <use xlink:href="#DejaVuSerif-6c" transform="translate(3327.148438 0.109375)"/>
     <use xlink:href="#DejaVuSerif-20" transform="translate(3359.130859 0.109375)"/>
     <use xlink:href="#DejaVuSerif-63" transform="translate(3390.917969 0.109375)"/>
     <use xlink:href="#DejaVuSerif-6f" transform="translate(3446.923828 0.109375)"/>
     <use xlink:href="#DejaVuSerif-6e" transform="translate(3507.128906 0.109375)"/>
     <use xlink:href="#DejaVuSerif-64" transform="translate(3571.533203 0.109375)"/>
     <use xlink:href="#DejaVuSerif-69" transform="translate(3635.546875 0.109375)"/>
     <use xlink:href="#DejaVuSerif-74" transform="translate(3667.529297 0.109375)"/>
     <use xlink:href="#DejaVuSerif-69" transform="translate(3707.714844 0.109375)"/>
     <use xlink:href="#DejaVuSerif-6f" transform="translate(3739.697266 0.109375)"/>
     <use xlink:href="#DejaVuSerif-6e" transform="translate(3799.902344 0.109375)"/>
     <use xlink:href="#DejaVuSerif-20" transform="translate(3864.306641 0.109375)"/>
     <use xlink:href="#Cmmi10-75" transform="translate(3896.09375 0.109375)"/>
     <use xlink:href="#Cmr10-30" transform="translate(3953.271484 -16.896875) scale(0.7)"/>
     <use xlink:href="#Cmr10-3d" transform="translate(4012.207422 0.109375)"/>
     <use xlink:href="#Cmmi10-61" transform="translate(4107.451563 0.109375)"/>
     <use xlink:href="#DejaVuSerif-20" transform="translate(4160.234766 0.109375)"/>
     <use xlink:href="#DejaVuSerif-61" transform="translate(4192.021875 0.109375)"/>
     <use xlink:href="#DejaVuSerif-6e" transform="translate(4251.641016 0.109375)"/>
     <use xlink:href="#DejaVuSerif-64" transform="translate(4316.045313 0.109375)"/>
     <use xlink:href="#DejaVuSerif-20" transform="translate(4380.058984 0.109375)"/>
     <use xlink:href="#DejaVuSerif-74" transform="translate(4411.846094 0.109375)"/>
     <use xlink:href="#DejaVuSerif-68" transform="translate(4452.031641 0.109375)"/>
     <use xlink:href="#DejaVuSerif-65" transform="translate(4516.435938 0.109375)"/>
     <use xlink:href="#DejaVuSerif-20" transform="translate(4575.615625 0.109375)"/>
     <use xlink:href="#DejaVuSerif-72" transform="translate(4607.402734 0.109375)"/>
     <use xlink:href="#DejaVuSerif-65" transform="translate(4655.205469 0.109375)"/>
     <use xlink:href="#DejaVuSerif-63" transform="translate(4714.385156 0.109375)"/>
     <use xlink:href="#DejaVuSerif-75" transform="translate(4770.391016 0.109375)"/>
     <use xlink:href="#DejaVuSerif-72" transform="translate(4834.795313 0.109375)"/>
     <use xlink:href="#DejaVuSerif-73" transform="translate(4882.598047 0.109375)"/>
     <use xlink:href="#DejaVuSerif-69" transform="translate(4933.916406 0.109375)"/>
     <use xlink:href="#DejaVuSerif-6f" transform="translate(4965.898828 0.109375)"/>
     <use xlink:href="#DejaVuSerif-6e" transform="translate(5026.103906 0.109375)"/>
     <use xlink:href="#DejaVuSerif-20" transform="translate(5090.508203 0.109375)"/>
     <use xlink:href="#Cmmi10-75" transform="translate(5122.295313 0.109375)"/>
     <use xlink:href="#Cmmi10-6e" transform="translate(5179.473047 -16.896875) scale(0.7)"/>
     <use xlink:href="#Cmr10-2b" transform="translate(5233.770898 -16.896875) scale(0.7)"/>
     <use xlink:href="#Cmr10-31" transform="translate(5300.441797 -16.896875) scale(0.7)"/>
     <use xlink:href="#Cmr10-3d" transform="translate(5359.377734 0.109375)"/>
     <use xlink:href="#Cmr10-32" transform="translate(5454.621875 0.109375)"/>
     <use xlink:href="#Cmmi10-75" transform="translate(5504.621875 0.109375)"/>
     <use xlink:href="#Cmmi10-6e" transform="translate(5561.799609 -16.896875) scale(0.7)"/>
     <use xlink:href="#Cmsy10-a1" transform="translate(5627.742383 0.109375)"/>
     <use xlink:href="#Cmmi10-6e" transform="translate(5722.986523 0.109375)"/>
     <use xlink:href="#Cmr10-32" transform="translate(5789.29957 38.373438) scale(0.7)"/>
     <use xlink:href="#DejaVuSerif-20" transform="translate(5830.676914 0.109375)"/>
     <use xlink:href="#DejaVuSerif-68" transform="translate(5862.464023 0.109375)"/>
     <use xlink:href="#DejaVuSerif-61" transform="translate(5926.86832 0.109375)"/>
     <use xlink:href="#DejaVuSerif-76" transform="translate(5986.487461 0.109375)"/>
     <use xlink:href="#DejaVuSerif-65" transform="translate(6042.981602 0.109375)"/>
     <use xlink:href="#DejaVuSerif-20" transform="translate(6102.161289 0.109375)"/>
     <use xlink:href="#Cmmi10-75" transform="translate(6133.948398 0.109375)"/>
     <use xlink:href="#Cmmi10-6e" transform="translate(6191.126133 -16.896875) scale(0.7)"/>
     <use xlink:href="#Cmmi10-3e" transform="translate(6257.068906 0.109375)"/>
     <use xlink:href="#Cmr10-30" transform="translate(6352.313047 0.109375)"/>
     <use xlink:href="#DejaVuSerif-20" transform="translate(6402.313047 0.109375)"/>
     <use xlink:href="#DejaVuSerif-66" transform="translate(6434.100156 0.109375)"/>
     <use xlink:href="#DejaVuSerif-6f" transform="translate(6471.111875 0.109375)"/>
     <use xlink:href="#DejaVuSerif-72" transform="translate(6531.316953 0.109375)"/>
     <use xlink:href="#DejaVuSerif-20" transform="translate(6579.119688 0.109375)"/>
     <use xlink:href="#DejaVuSerif-61" transform="translate(6610.906797 0.109375)"/>
     <use xlink:href="#DejaVuSerif-6c" transform="translate(6670.525938 0.109375)"/>
     <use xlink:href="#DejaVuSerif-6c" transform="translate(6702.508359 0.109375)"/>
     <use xlink:href="#DejaVuSerif-20" transform="translate(6734.490781 0.109375)"/>
     <use xlink:href="#Cmmi10-6e" transform="translate(6766.277891 0.109375)"/>
     <use xlink:href="#STIXGeneral-Regular-2267" transform="translate(6843.84625 0.109375)"/>
     <use xlink:href="#Cmr10-30" transform="translate(6929.904828 0.109375)"/>
     <use xlink:href="#DejaVuSerif-3f" transform="translate(6979.904828 0.109375)"/>
     <use xlink:href="#DejaVuSerif-20" transform="translate(7033.51811 0.109375)"/>
     <use xlink:href="#DejaVuSerif-28" transform="translate(7065.305219 0.109375)"/>
     <use xlink:href="#DejaVuSerif-45" transform="translate(7104.318891 0.109375)"/>
     <use xlink:href="#DejaVuSerif-78" transform="translate(7177.316938 0.109375)"/>
     <use xlink:href="#DejaVuSerif-70" transform="translate(7233.713422 0.109375)"/>
     <use xlink:href="#DejaVuSerif-72" transform="translate(7297.727094 0.109375)"/>
     <use xlink:href="#DejaVuSerif-65" transform="translate(7345.529828 0.109375)"/>
     <use xlink:href="#DejaVuSerif-73" transform="translate(7404.709516 0.109375)"/>
     <use xlink:href="#DejaVuSerif-73" transform="translate(7456.027875 0.109375)"/>
     <use xlink:href="#DejaVuSerif-20" transform="translate(7507.346235 0.109375)"/>
     <use xlink:href="#DejaVuSerif-74" transform="translate(7539.133344 0.109375)"/>
     <use xlink:href="#DejaVuSerif-68" transform="translate(7579.318891 0.109375)"/>
     <use xlink:href="#DejaVuSerif-65" transform="translate(7643.723188 0.109375)"/>
     <use xlink:href="#DejaVuSerif-20" transform="translate(7702.902875 0.109375)"/>
     <use xlink:href="#DejaVuSerif-61" transform="translate(7734.689985 0.109375)"/>
     <use xlink:href="#DejaVuSerif-6e" transform="translate(7794.309125 0.109375)"/>
     <use xlink:href="#DejaVuSerif-73" transform="translate(7858.713422 0.109375)"/>
     <use xlink:href="#DejaVuSerif-77" transform="translate(7910.031782 0.109375)"/>
     <use xlink:href="#DejaVuSerif-65" transform="translate(7995.627485 0.109375)"/>
     <use xlink:href="#DejaVuSerif-72" transform="translate(8054.807172 0.109375)"/>
     <use xlink:href="#DejaVuSerif-20" transform="translate(8102.609907 0.109375)"/>
     <use xlink:href="#DejaVuSerif-69" transform="translate(8134.397016 0.109375)"/>
     <use xlink:href="#DejaVuSerif-6e" transform="translate(8166.379438 0.109375)"/>
     <use xlink:href="#DejaVuSerif-20" transform="translate(8230.783735 0.109375)"/>
     <use xlink:href="#DejaVuSerif-74" transform="translate(8262.570844 0.109375)"/>
     <use xlink:href="#DejaVuSerif-68" transform="translate(8302.756391 0.109375)"/>
     <use xlink:href="#DejaVuSerif-65" transform="translate(8367.160688 0.109375)"/>
     <use xlink:href="#DejaVuSerif-20" transform="translate(8426.340375 0.109375)"/>
     <use xlink:href="#DejaVuSerif-73" transform="translate(8458.127485 0.109375)"/>
     <use xlink:href="#DejaVuSerif-69" transform="translate(8509.445844 0.109375)"/>
     <use xlink:href="#DejaVuSerif-6d" transform="translate(8541.428266 0.109375)"/>
     <use xlink:href="#DejaVuSerif-70" transform="translate(8636.252485 0.109375)"/>
     <use xlink:href="#DejaVuSerif-6c" transform="translate(8700.266157 0.109375)"/>
     <use xlink:href="#DejaVuSerif-65" transform="translate(8732.248578 0.109375)"/>
     <use xlink:href="#DejaVuSerif-73" transform="translate(8791.428266 0.109375)"/>
     <use xlink:href="#DejaVuSerif-74" transform="translate(8842.746625 0.109375)"/>
     <use xlink:href="#DejaVuSerif-20" transform="translate(8882.932172 0.109375)"/>
     <use xlink:href="#DejaVuSerif-66" transform="translate(8914.719282 0.109375)"/>
     <use xlink:href="#DejaVuSerif-6f" transform="translate(8951.731 0.109375)"/>
     <use xlink:href="#DejaVuSerif-72" transform="translate(9011.936078 0.109375)"/>
     <use xlink:href="#DejaVuSerif-6d" transform="translate(9059.738813 0.109375)"/>
     <use xlink:href="#DejaVuSerif-2e" transform="translate(9154.563032 0.109375)"/>
     <use xlink:href="#DejaVuSerif-29" transform="translate(9186.350141 0.109375)"/>
    </g>
   </g>
  </g>
 </g>
</svg>
