<?xml version="1.0" encoding="utf-8" standalone="no"?>
<!DOCTYPE svg PUBLIC "-//W3C//DTD SVG 1.1//EN"
  "http://www.w3.org/Graphics/SVG/1.1/DTD/svg11.dtd">
<svg xmlns:xlink="http://www.w3.org/1999/xlink" width="847.08pt" height="228.4pt" viewBox="0 0 847.08 228.4" xmlns="http://www.w3.org/2000/svg" version="1.1">
 <metadata>
  <rdf:RDF xmlns:dc="http://purl.org/dc/elements/1.1/" xmlns:cc="http://creativecommons.org/ns#" xmlns:rdf="http://www.w3.org/1999/02/22-rdf-syntax-ns#">
   <cc:Work>
    <dc:type rdf:resource="http://purl.org/dc/dcmitype/StillImage"/>
    <dc:date>2025-05-29T18:43:54.890159</dc:date>
    <dc:format>image/svg+xml</dc:format>
    <dc:creator>
     <cc:Agent>
      <dc:title>Matplotlib v3.10.3, https://matplotlib.org/</dc:title>
     </cc:Agent>
    </dc:creator>
   </cc:Work>
  </rdf:RDF>
 </metadata>
 <defs>
  <style type="text/css">*{stroke-linejoin: round; stroke-linecap: butt}</style>
 </defs>
 <g id="figure_1">
  <g id="patch_1">
   <path d="M 0 228.4 
L 847.08 228.4 
L 847.08 0 
L 0 0 
z
" style="fill: #ffffff"/>
  </g>
  <g id="axes_1">
   <g id="text_1">
    <!-- Let $P$ be a polynomial, with real coefficients, in three variables and $F$ be a function of two variables such that -->
    <g transform="translate(91.02 90.118625) scale(0.12 -0.12)">
     <defs>
      <path id="DejaVuSerif-4c" d="M 353 0 
L 353 331 
L 947 331 
L 947 4331 
L 353 4331 
L 353 4666 
L 2175 4666 
L 2175 4331 
L 1581 4331 
L 1581 384 
L 3713 384 
L 3713 1166 
L 4097 1166 
L 4097 0 
L 353 0 
z
" transform="scale(0.015625)"/>
      <path id="DejaVuSerif-65" d="M 3469 1600 
L 991 1600 
L 991 1575 
Q 991 903 1244 561 
Q 1497 219 1991 219 
Q 2369 219 2611 417 
Q 2853 616 2950 1006 
L 3413 1006 
Q 3275 459 2904 184 
Q 2534 -91 1931 -91 
Q 1203 -91 761 389 
Q 319 869 319 1663 
Q 319 2450 753 2931 
Q 1188 3413 1894 3413 
Q 2647 3413 3050 2948 
Q 3453 2484 3469 1600 
z
M 2791 1931 
Q 2772 2513 2545 2808 
Q 2319 3103 1894 3103 
Q 1497 3103 1269 2806 
Q 1041 2509 991 1931 
L 2791 1931 
z
" transform="scale(0.015625)"/>
      <path id="DejaVuSerif-74" d="M 691 2988 
L 184 2988 
L 184 3322 
L 691 3322 
L 691 4353 
L 1269 4353 
L 1269 3322 
L 2350 3322 
L 2350 2988 
L 1269 2988 
L 1269 878 
Q 1269 456 1350 337 
Q 1431 219 1650 219 
Q 1875 219 1978 351 
Q 2081 484 2088 781 
L 2522 781 
Q 2497 328 2275 118 
Q 2053 -91 1600 -91 
Q 1103 -91 897 129 
Q 691 350 691 878 
L 691 2988 
z
" transform="scale(0.015625)"/>
      <path id="DejaVuSerif-20" transform="scale(0.015625)"/>
      <path id="Cmmi10-50" d="M 313 0 
Q 250 0 250 84 
Q 253 100 262 139 
Q 272 178 289 201 
Q 306 225 331 225 
Q 722 225 878 269 
Q 959 297 997 441 
L 1875 3956 
Q 1888 4019 1888 4044 
Q 1888 4113 1813 4122 
Q 1691 4147 1350 4147 
Q 1288 4147 1288 4231 
Q 1291 4247 1300 4286 
Q 1309 4325 1326 4348 
Q 1344 4372 1369 4372 
L 3578 4372 
Q 3881 4372 4165 4264 
Q 4450 4156 4631 3934 
Q 4813 3713 4813 3397 
Q 4813 2991 4527 2672 
Q 4241 2353 3814 2175 
Q 3388 1997 2988 1997 
L 1947 1997 
L 1556 416 
Q 1544 353 1544 325 
Q 1544 300 1551 283 
Q 1559 266 1573 261 
Q 1588 256 1619 250 
Q 1741 225 2081 225 
Q 2144 225 2144 141 
Q 2122 50 2109 25 
Q 2097 0 2034 0 
L 313 0 
z
M 1978 2188 
L 2875 2188 
Q 3497 2188 3822 2522 
Q 3988 2688 4092 3000 
Q 4197 3313 4197 3566 
Q 4197 3881 3956 4014 
Q 3716 4147 3359 4147 
L 2747 4147 
Q 2572 4147 2515 4117 
Q 2459 4088 2413 3928 
L 1978 2188 
z
" transform="scale(0.015625)"/>
      <path id="DejaVuSerif-62" d="M 738 331 
L 738 4531 
L 184 4531 
L 184 4863 
L 1313 4863 
L 1313 2803 
Q 1481 3116 1742 3264 
Q 2003 3413 2388 3413 
Q 3000 3413 3387 2928 
Q 3775 2444 3775 1663 
Q 3775 881 3387 395 
Q 3000 -91 2388 -91 
Q 2003 -91 1742 57 
Q 1481 206 1313 519 
L 1313 0 
L 184 0 
L 184 331 
L 738 331 
z
M 1313 1497 
Q 1313 897 1542 583 
Q 1772 269 2209 269 
Q 2650 269 2876 622 
Q 3103 975 3103 1663 
Q 3103 2353 2876 2703 
Q 2650 3053 2209 3053 
Q 1772 3053 1542 2737 
Q 1313 2422 1313 1825 
L 1313 1497 
z
" transform="scale(0.015625)"/>
      <path id="DejaVuSerif-61" d="M 2547 1044 
L 2547 1747 
L 1806 1747 
Q 1378 1747 1168 1562 
Q 959 1378 959 997 
Q 959 650 1171 447 
Q 1384 244 1747 244 
Q 2106 244 2326 466 
Q 2547 688 2547 1044 
z
M 3122 2075 
L 3122 331 
L 3634 331 
L 3634 0 
L 2547 0 
L 2547 359 
Q 2356 128 2106 18 
Q 1856 -91 1522 -91 
Q 969 -91 644 203 
Q 319 497 319 997 
Q 319 1513 691 1797 
Q 1063 2081 1741 2081 
L 2547 2081 
L 2547 2309 
Q 2547 2688 2317 2895 
Q 2088 3103 1672 3103 
Q 1328 3103 1125 2947 
Q 922 2791 872 2484 
L 575 2484 
L 575 3156 
Q 875 3284 1158 3348 
Q 1441 3413 1709 3413 
Q 2400 3413 2761 3070 
Q 3122 2728 3122 2075 
z
" transform="scale(0.015625)"/>
      <path id="DejaVuSerif-70" d="M 1313 1825 
L 1313 1497 
Q 1313 897 1542 583 
Q 1772 269 2209 269 
Q 2650 269 2876 622 
Q 3103 975 3103 1663 
Q 3103 2353 2876 2703 
Q 2650 3053 2209 3053 
Q 1772 3053 1542 2737 
Q 1313 2422 1313 1825 
z
M 738 2988 
L 184 2988 
L 184 3322 
L 1313 3322 
L 1313 2803 
Q 1481 3116 1742 3264 
Q 2003 3413 2388 3413 
Q 3000 3413 3387 2928 
Q 3775 2444 3775 1663 
Q 3775 881 3387 395 
Q 3000 -91 2388 -91 
Q 2003 -91 1742 57 
Q 1481 206 1313 519 
L 1313 -997 
L 1856 -997 
L 1856 -1331 
L 184 -1331 
L 184 -997 
L 738 -997 
L 738 2988 
z
" transform="scale(0.015625)"/>
      <path id="DejaVuSerif-6f" d="M 1925 219 
Q 2388 219 2623 584 
Q 2859 950 2859 1663 
Q 2859 2375 2623 2739 
Q 2388 3103 1925 3103 
Q 1463 3103 1227 2739 
Q 991 2375 991 1663 
Q 991 950 1228 584 
Q 1466 219 1925 219 
z
M 1925 -91 
Q 1200 -91 759 389 
Q 319 869 319 1663 
Q 319 2456 758 2934 
Q 1197 3413 1925 3413 
Q 2653 3413 3092 2934 
Q 3531 2456 3531 1663 
Q 3531 869 3092 389 
Q 2653 -91 1925 -91 
z
" transform="scale(0.015625)"/>
      <path id="DejaVuSerif-6c" d="M 1313 331 
L 1856 331 
L 1856 0 
L 184 0 
L 184 331 
L 738 331 
L 738 4531 
L 184 4531 
L 184 4863 
L 1313 4863 
L 1313 331 
z
" transform="scale(0.015625)"/>
      <path id="DejaVuSerif-79" d="M 1381 -609 
L 1600 -56 
L 359 2988 
L -19 2988 
L -19 3322 
L 1509 3322 
L 1509 2988 
L 978 2988 
L 1913 703 
L 2847 2988 
L 2350 2988 
L 2350 3322 
L 3597 3322 
L 3597 2988 
L 3225 2988 
L 1703 -750 
Q 1547 -1138 1356 -1280 
Q 1166 -1422 819 -1422 
Q 672 -1422 517 -1397 
Q 363 -1372 206 -1325 
L 206 -691 
L 500 -691 
Q 519 -903 608 -995 
Q 697 -1088 884 -1088 
Q 1056 -1088 1161 -992 
Q 1266 -897 1381 -609 
z
" transform="scale(0.015625)"/>
      <path id="DejaVuSerif-6e" d="M 263 0 
L 263 331 
L 781 331 
L 781 2988 
L 231 2988 
L 231 3322 
L 1356 3322 
L 1356 2731 
Q 1516 3069 1770 3241 
Q 2025 3413 2363 3413 
Q 2913 3413 3172 3097 
Q 3431 2781 3431 2113 
L 3431 331 
L 3944 331 
L 3944 0 
L 2356 0 
L 2356 331 
L 2853 331 
L 2853 1931 
Q 2853 2541 2703 2767 
Q 2553 2994 2175 2994 
Q 1775 2994 1565 2701 
Q 1356 2409 1356 1850 
L 1356 331 
L 1856 331 
L 1856 0 
L 263 0 
z
" transform="scale(0.015625)"/>
      <path id="DejaVuSerif-6d" d="M 3316 2675 
Q 3481 3041 3739 3227 
Q 3997 3413 4341 3413 
Q 4863 3413 5119 3089 
Q 5375 2766 5375 2113 
L 5375 331 
L 5894 331 
L 5894 0 
L 4300 0 
L 4300 331 
L 4800 331 
L 4800 2047 
Q 4800 2556 4650 2772 
Q 4500 2988 4153 2988 
Q 3769 2988 3567 2697 
Q 3366 2406 3366 1850 
L 3366 331 
L 3866 331 
L 3866 0 
L 2291 0 
L 2291 331 
L 2791 331 
L 2791 2069 
Q 2791 2566 2641 2777 
Q 2491 2988 2144 2988 
Q 1759 2988 1557 2697 
Q 1356 2406 1356 1850 
L 1356 331 
L 1856 331 
L 1856 0 
L 263 0 
L 263 331 
L 781 331 
L 781 2994 
L 231 2994 
L 231 3322 
L 1356 3322 
L 1356 2731 
Q 1516 3063 1762 3238 
Q 2009 3413 2322 3413 
Q 2709 3413 2968 3220 
Q 3228 3028 3316 2675 
z
" transform="scale(0.015625)"/>
      <path id="DejaVuSerif-69" d="M 622 4353 
Q 622 4497 726 4603 
Q 831 4709 978 4709 
Q 1122 4709 1226 4603 
Q 1331 4497 1331 4353 
Q 1331 4206 1228 4103 
Q 1125 4000 978 4000 
Q 831 4000 726 4103 
Q 622 4206 622 4353 
z
M 1356 331 
L 1900 331 
L 1900 0 
L 231 0 
L 231 331 
L 781 331 
L 781 2988 
L 231 2988 
L 231 3322 
L 1356 3322 
L 1356 331 
z
" transform="scale(0.015625)"/>
      <path id="DejaVuSerif-2c" d="M 231 -622 
Q 525 -406 662 -114 
Q 800 178 800 594 
L 800 709 
L 1416 709 
Q 1391 175 1164 -208 
Q 938 -591 481 -872 
L 231 -622 
z
" transform="scale(0.015625)"/>
      <path id="DejaVuSerif-77" d="M 3072 3322 
L 3922 728 
L 4672 2988 
L 4191 2988 
L 4191 3322 
L 5394 3322 
L 5394 2988 
L 5025 2988 
L 4038 0 
L 3559 0 
L 2741 2484 
L 1919 0 
L 1459 0 
L 475 2988 
L 103 2988 
L 103 3322 
L 1606 3322 
L 1606 2988 
L 1069 2988 
L 1813 728 
L 2669 3322 
L 3072 3322 
z
" transform="scale(0.015625)"/>
      <path id="DejaVuSerif-68" d="M 263 0 
L 263 331 
L 781 331 
L 781 4531 
L 231 4531 
L 231 4863 
L 1356 4863 
L 1356 2731 
Q 1516 3069 1770 3241 
Q 2025 3413 2363 3413 
Q 2913 3413 3172 3097 
Q 3431 2781 3431 2113 
L 3431 331 
L 3944 331 
L 3944 0 
L 2356 0 
L 2356 331 
L 2853 331 
L 2853 1931 
Q 2853 2541 2704 2764 
Q 2556 2988 2175 2988 
Q 1775 2988 1565 2697 
Q 1356 2406 1356 1850 
L 1356 331 
L 1856 331 
L 1856 0 
L 263 0 
z
" transform="scale(0.015625)"/>
      <path id="DejaVuSerif-72" d="M 3059 3328 
L 3059 2497 
L 2728 2497 
Q 2713 2744 2591 2866 
Q 2469 2988 2234 2988 
Q 1809 2988 1582 2694 
Q 1356 2400 1356 1850 
L 1356 331 
L 2022 331 
L 2022 0 
L 263 0 
L 263 331 
L 781 331 
L 781 2994 
L 231 2994 
L 231 3322 
L 1356 3322 
L 1356 2731 
Q 1525 3078 1790 3245 
Q 2056 3413 2438 3413 
Q 2578 3413 2733 3391 
Q 2888 3369 3059 3328 
z
" transform="scale(0.015625)"/>
      <path id="DejaVuSerif-63" d="M 3291 997 
Q 3169 466 2822 187 
Q 2475 -91 1925 -91 
Q 1200 -91 759 389 
Q 319 869 319 1663 
Q 319 2459 759 2936 
Q 1200 3413 1925 3413 
Q 2241 3413 2553 3339 
Q 2866 3266 3181 3116 
L 3181 2266 
L 2847 2266 
Q 2781 2703 2561 2903 
Q 2341 3103 1931 3103 
Q 1466 3103 1228 2742 
Q 991 2381 991 1663 
Q 991 944 1227 581 
Q 1463 219 1931 219 
Q 2303 219 2525 412 
Q 2747 606 2828 997 
L 3291 997 
z
" transform="scale(0.015625)"/>
      <path id="DejaVuSerif-66" d="M 2753 4078 
L 2450 4078 
Q 2447 4313 2317 4434 
Q 2188 4556 1941 4556 
Q 1619 4556 1487 4379 
Q 1356 4203 1356 3750 
L 1356 3322 
L 2284 3322 
L 2284 2988 
L 1356 2988 
L 1356 331 
L 2094 331 
L 2094 0 
L 231 0 
L 231 331 
L 781 331 
L 781 2988 
L 231 2988 
L 231 3322 
L 781 3322 
L 781 3738 
Q 781 4294 1070 4578 
Q 1359 4863 1919 4863 
Q 2128 4863 2337 4825 
Q 2547 4788 2753 4709 
L 2753 4078 
z
" transform="scale(0.015625)"/>
      <path id="DejaVuSerif-73" d="M 359 184 
L 359 959 
L 691 959 
Q 703 588 923 403 
Q 1144 219 1575 219 
Q 1963 219 2166 364 
Q 2369 509 2369 788 
Q 2369 1006 2220 1140 
Q 2072 1275 1594 1428 
L 1178 1569 
Q 750 1706 558 1912 
Q 366 2119 366 2438 
Q 366 2894 700 3153 
Q 1034 3413 1625 3413 
Q 1888 3413 2178 3344 
Q 2469 3275 2778 3144 
L 2778 2419 
L 2447 2419 
Q 2434 2741 2221 2922 
Q 2009 3103 1644 3103 
Q 1281 3103 1095 2975 
Q 909 2847 909 2591 
Q 909 2381 1050 2254 
Q 1191 2128 1613 1997 
L 2069 1856 
Q 2541 1709 2748 1489 
Q 2956 1269 2956 922 
Q 2956 450 2595 179 
Q 2234 -91 1600 -91 
Q 1278 -91 972 -22 
Q 666 47 359 184 
z
" transform="scale(0.015625)"/>
      <path id="DejaVuSerif-76" d="M 1581 0 
L 359 2988 
L -19 2988 
L -19 3322 
L 1509 3322 
L 1509 2988 
L 978 2988 
L 1913 703 
L 2847 2988 
L 2350 2988 
L 2350 3322 
L 3597 3322 
L 3597 2988 
L 3225 2988 
L 2003 0 
L 1581 0 
z
" transform="scale(0.015625)"/>
      <path id="DejaVuSerif-64" d="M 3359 331 
L 3909 331 
L 3909 0 
L 2784 0 
L 2784 519 
Q 2616 206 2355 57 
Q 2094 -91 1709 -91 
Q 1097 -91 708 395 
Q 319 881 319 1663 
Q 319 2444 706 2928 
Q 1094 3413 1709 3413 
Q 2094 3413 2355 3264 
Q 2616 3116 2784 2803 
L 2784 4531 
L 2241 4531 
L 2241 4863 
L 3359 4863 
L 3359 331 
z
M 2784 1497 
L 2784 1825 
Q 2784 2422 2554 2737 
Q 2325 3053 1888 3053 
Q 1444 3053 1217 2703 
Q 991 2353 991 1663 
Q 991 975 1217 622 
Q 1444 269 1888 269 
Q 2325 269 2554 583 
Q 2784 897 2784 1497 
z
" transform="scale(0.015625)"/>
      <path id="Cmmi10-46" d="M 300 0 
Q 238 0 238 84 
Q 241 100 250 139 
Q 259 178 276 201 
Q 294 225 319 225 
Q 709 225 863 269 
Q 947 297 984 441 
L 1863 3956 
Q 1875 4019 1875 4044 
Q 1875 4113 1797 4122 
Q 1678 4147 1338 4147 
Q 1275 4147 1275 4231 
Q 1278 4247 1287 4286 
Q 1297 4325 1314 4348 
Q 1331 4372 1356 4372 
L 4738 4372 
Q 4800 4372 4800 4288 
L 4647 2963 
Q 4647 2944 4625 2925 
Q 4603 2906 4581 2906 
L 4525 2906 
Q 4459 2906 4459 2988 
Q 4500 3278 4500 3463 
Q 4500 3781 4362 3931 
Q 4225 4081 4015 4114 
Q 3806 4147 3438 4147 
L 2753 4147 
Q 2578 4147 2522 4117 
Q 2466 4088 2419 3928 
L 2009 2297 
L 2491 2297 
Q 2728 2297 2875 2322 
Q 3022 2347 3119 2419 
Q 3216 2491 3280 2627 
Q 3344 2763 3397 2988 
Q 3416 3047 3463 3047 
L 3519 3047 
Q 3584 3047 3584 2963 
L 3194 1381 
Q 3166 1325 3128 1325 
L 3072 1325 
Q 3009 1325 3009 1409 
Q 3025 1475 3034 1519 
Q 3044 1563 3058 1645 
Q 3072 1728 3072 1791 
Q 3072 1975 2909 2025 
Q 2747 2075 2484 2075 
L 1959 2075 
L 1544 416 
Q 1528 353 1528 353 
Q 1528 278 1575 269 
Q 1741 225 2228 225 
Q 2291 225 2291 141 
Q 2269 50 2256 25 
Q 2244 0 2181 0 
L 300 0 
z
" transform="scale(0.015625)"/>
      <path id="DejaVuSerif-75" d="M 2266 3322 
L 3341 3322 
L 3341 331 
L 3884 331 
L 3884 0 
L 2766 0 
L 2766 588 
Q 2606 256 2353 82 
Q 2100 -91 1766 -91 
Q 1213 -91 952 223 
Q 691 538 691 1209 
L 691 2988 
L 172 2988 
L 172 3322 
L 1269 3322 
L 1269 1388 
Q 1269 781 1417 556 
Q 1566 331 1947 331 
Q 2347 331 2556 625 
Q 2766 919 2766 1478 
L 2766 2988 
L 2266 2988 
L 2266 3322 
z
" transform="scale(0.015625)"/>
     </defs>
     <use xlink:href="#DejaVuSerif-4c" transform="translate(0 0.015625)"/>
     <use xlink:href="#DejaVuSerif-65" transform="translate(66.40625 0.015625)"/>
     <use xlink:href="#DejaVuSerif-74" transform="translate(125.585938 0.015625)"/>
     <use xlink:href="#DejaVuSerif-20" transform="translate(165.771484 0.015625)"/>
     <use xlink:href="#Cmmi10-50" transform="translate(197.558594 0.015625)"/>
     <use xlink:href="#DejaVuSerif-20" transform="translate(261.767578 0.015625)"/>
     <use xlink:href="#DejaVuSerif-62" transform="translate(293.554688 0.015625)"/>
     <use xlink:href="#DejaVuSerif-65" transform="translate(357.568359 0.015625)"/>
     <use xlink:href="#DejaVuSerif-20" transform="translate(416.748047 0.015625)"/>
     <use xlink:href="#DejaVuSerif-61" transform="translate(448.535156 0.015625)"/>
     <use xlink:href="#DejaVuSerif-20" transform="translate(508.154297 0.015625)"/>
     <use xlink:href="#DejaVuSerif-70" transform="translate(539.941406 0.015625)"/>
     <use xlink:href="#DejaVuSerif-6f" transform="translate(603.955078 0.015625)"/>
     <use xlink:href="#DejaVuSerif-6c" transform="translate(664.160156 0.015625)"/>
     <use xlink:href="#DejaVuSerif-79" transform="translate(696.142578 0.015625)"/>
     <use xlink:href="#DejaVuSerif-6e" transform="translate(752.636719 0.015625)"/>
     <use xlink:href="#DejaVuSerif-6f" transform="translate(817.041016 0.015625)"/>
     <use xlink:href="#DejaVuSerif-6d" transform="translate(877.246094 0.015625)"/>
     <use xlink:href="#DejaVuSerif-69" transform="translate(972.070312 0.015625)"/>
     <use xlink:href="#DejaVuSerif-61" transform="translate(1004.052734 0.015625)"/>
     <use xlink:href="#DejaVuSerif-6c" transform="translate(1063.671875 0.015625)"/>
     <use xlink:href="#DejaVuSerif-2c" transform="translate(1095.654297 0.015625)"/>
     <use xlink:href="#DejaVuSerif-20" transform="translate(1127.441406 0.015625)"/>
     <use xlink:href="#DejaVuSerif-77" transform="translate(1159.228516 0.015625)"/>
     <use xlink:href="#DejaVuSerif-69" transform="translate(1244.824219 0.015625)"/>
     <use xlink:href="#DejaVuSerif-74" transform="translate(1276.806641 0.015625)"/>
     <use xlink:href="#DejaVuSerif-68" transform="translate(1316.992188 0.015625)"/>
     <use xlink:href="#DejaVuSerif-20" transform="translate(1381.396484 0.015625)"/>
     <use xlink:href="#DejaVuSerif-72" transform="translate(1413.183594 0.015625)"/>
     <use xlink:href="#DejaVuSerif-65" transform="translate(1460.986328 0.015625)"/>
     <use xlink:href="#DejaVuSerif-61" transform="translate(1520.166016 0.015625)"/>
     <use xlink:href="#DejaVuSerif-6c" transform="translate(1579.785156 0.015625)"/>
     <use xlink:href="#DejaVuSerif-20" transform="translate(1611.767578 0.015625)"/>
     <use xlink:href="#DejaVuSerif-63" transform="translate(1643.554688 0.015625)"/>
     <use xlink:href="#DejaVuSerif-6f" transform="translate(1699.560547 0.015625)"/>
     <use xlink:href="#DejaVuSerif-65" transform="translate(1759.765625 0.015625)"/>
     <use xlink:href="#DejaVuSerif-66" transform="translate(1818.945312 0.015625)"/>
     <use xlink:href="#DejaVuSerif-66" transform="translate(1855.957031 0.015625)"/>
     <use xlink:href="#DejaVuSerif-69" transform="translate(1892.96875 0.015625)"/>
     <use xlink:href="#DejaVuSerif-63" transform="translate(1924.951172 0.015625)"/>
     <use xlink:href="#DejaVuSerif-69" transform="translate(1980.957031 0.015625)"/>
     <use xlink:href="#DejaVuSerif-65" transform="translate(2012.939453 0.015625)"/>
     <use xlink:href="#DejaVuSerif-6e" transform="translate(2072.119141 0.015625)"/>
     <use xlink:href="#DejaVuSerif-74" transform="translate(2136.523438 0.015625)"/>
     <use xlink:href="#DejaVuSerif-73" transform="translate(2176.708984 0.015625)"/>
     <use xlink:href="#DejaVuSerif-2c" transform="translate(2228.027344 0.015625)"/>
     <use xlink:href="#DejaVuSerif-20" transform="translate(2259.814453 0.015625)"/>
     <use xlink:href="#DejaVuSerif-69" transform="translate(2291.601562 0.015625)"/>
     <use xlink:href="#DejaVuSerif-6e" transform="translate(2323.583984 0.015625)"/>
     <use xlink:href="#DejaVuSerif-20" transform="translate(2387.988281 0.015625)"/>
     <use xlink:href="#DejaVuSerif-74" transform="translate(2419.775391 0.015625)"/>
     <use xlink:href="#DejaVuSerif-68" transform="translate(2459.960938 0.015625)"/>
     <use xlink:href="#DejaVuSerif-72" transform="translate(2524.365234 0.015625)"/>
     <use xlink:href="#DejaVuSerif-65" transform="translate(2572.167969 0.015625)"/>
     <use xlink:href="#DejaVuSerif-65" transform="translate(2631.347656 0.015625)"/>
     <use xlink:href="#DejaVuSerif-20" transform="translate(2690.527344 0.015625)"/>
     <use xlink:href="#DejaVuSerif-76" transform="translate(2722.314453 0.015625)"/>
     <use xlink:href="#DejaVuSerif-61" transform="translate(2778.808594 0.015625)"/>
     <use xlink:href="#DejaVuSerif-72" transform="translate(2838.427734 0.015625)"/>
     <use xlink:href="#DejaVuSerif-69" transform="translate(2886.230469 0.015625)"/>
     <use xlink:href="#DejaVuSerif-61" transform="translate(2918.212891 0.015625)"/>
     <use xlink:href="#DejaVuSerif-62" transform="translate(2977.832031 0.015625)"/>
     <use xlink:href="#DejaVuSerif-6c" transform="translate(3041.845703 0.015625)"/>
     <use xlink:href="#DejaVuSerif-65" transform="translate(3073.828125 0.015625)"/>
     <use xlink:href="#DejaVuSerif-73" transform="translate(3133.007812 0.015625)"/>
     <use xlink:href="#DejaVuSerif-20" transform="translate(3184.326172 0.015625)"/>
     <use xlink:href="#DejaVuSerif-61" transform="translate(3216.113281 0.015625)"/>
     <use xlink:href="#DejaVuSerif-6e" transform="translate(3275.732422 0.015625)"/>
     <use xlink:href="#DejaVuSerif-64" transform="translate(3340.136719 0.015625)"/>
     <use xlink:href="#DejaVuSerif-20" transform="translate(3404.150391 0.015625)"/>
     <use xlink:href="#Cmmi10-46" transform="translate(3435.9375 0.015625)"/>
     <use xlink:href="#DejaVuSerif-20" transform="translate(3500.244141 0.015625)"/>
     <use xlink:href="#DejaVuSerif-62" transform="translate(3532.03125 0.015625)"/>
     <use xlink:href="#DejaVuSerif-65" transform="translate(3596.044922 0.015625)"/>
     <use xlink:href="#DejaVuSerif-20" transform="translate(3655.224609 0.015625)"/>
     <use xlink:href="#DejaVuSerif-61" transform="translate(3687.011719 0.015625)"/>
     <use xlink:href="#DejaVuSerif-20" transform="translate(3746.630859 0.015625)"/>
     <use xlink:href="#DejaVuSerif-66" transform="translate(3778.417969 0.015625)"/>
     <use xlink:href="#DejaVuSerif-75" transform="translate(3815.429688 0.015625)"/>
     <use xlink:href="#DejaVuSerif-6e" transform="translate(3879.833984 0.015625)"/>
     <use xlink:href="#DejaVuSerif-63" transform="translate(3944.238281 0.015625)"/>
     <use xlink:href="#DejaVuSerif-74" transform="translate(4000.244141 0.015625)"/>
     <use xlink:href="#DejaVuSerif-69" transform="translate(4040.429688 0.015625)"/>
     <use xlink:href="#DejaVuSerif-6f" transform="translate(4072.412109 0.015625)"/>
     <use xlink:href="#DejaVuSerif-6e" transform="translate(4132.617188 0.015625)"/>
     <use xlink:href="#DejaVuSerif-20" transform="translate(4197.021484 0.015625)"/>
     <use xlink:href="#DejaVuSerif-6f" transform="translate(4228.808594 0.015625)"/>
     <use xlink:href="#DejaVuSerif-66" transform="translate(4289.013672 0.015625)"/>
     <use xlink:href="#DejaVuSerif-20" transform="translate(4326.025391 0.015625)"/>
     <use xlink:href="#DejaVuSerif-74" transform="translate(4357.8125 0.015625)"/>
     <use xlink:href="#DejaVuSerif-77" transform="translate(4397.998047 0.015625)"/>
     <use xlink:href="#DejaVuSerif-6f" transform="translate(4483.59375 0.015625)"/>
     <use xlink:href="#DejaVuSerif-20" transform="translate(4543.798828 0.015625)"/>
     <use xlink:href="#DejaVuSerif-76" transform="translate(4575.585938 0.015625)"/>
     <use xlink:href="#DejaVuSerif-61" transform="translate(4632.080078 0.015625)"/>
     <use xlink:href="#DejaVuSerif-72" transform="translate(4691.699219 0.015625)"/>
     <use xlink:href="#DejaVuSerif-69" transform="translate(4739.501953 0.015625)"/>
     <use xlink:href="#DejaVuSerif-61" transform="translate(4771.484375 0.015625)"/>
     <use xlink:href="#DejaVuSerif-62" transform="translate(4831.103516 0.015625)"/>
     <use xlink:href="#DejaVuSerif-6c" transform="translate(4895.117188 0.015625)"/>
     <use xlink:href="#DejaVuSerif-65" transform="translate(4927.099609 0.015625)"/>
     <use xlink:href="#DejaVuSerif-73" transform="translate(4986.279297 0.015625)"/>
     <use xlink:href="#DejaVuSerif-20" transform="translate(5037.597656 0.015625)"/>
     <use xlink:href="#DejaVuSerif-73" transform="translate(5069.384766 0.015625)"/>
     <use xlink:href="#DejaVuSerif-75" transform="translate(5120.703125 0.015625)"/>
     <use xlink:href="#DejaVuSerif-63" transform="translate(5185.107422 0.015625)"/>
     <use xlink:href="#DejaVuSerif-68" transform="translate(5241.113281 0.015625)"/>
     <use xlink:href="#DejaVuSerif-20" transform="translate(5305.517578 0.015625)"/>
     <use xlink:href="#DejaVuSerif-74" transform="translate(5337.304688 0.015625)"/>
     <use xlink:href="#DejaVuSerif-68" transform="translate(5377.490234 0.015625)"/>
     <use xlink:href="#DejaVuSerif-61" transform="translate(5441.894531 0.015625)"/>
     <use xlink:href="#DejaVuSerif-74" transform="translate(5501.513672 0.015625)"/>
    </g>
    <!-- \[ -->
    <g transform="translate(419.177812 103.820375) scale(0.12 -0.12)">
     <defs>
      <path id="DejaVuSerif-5c" d="M 500 4666 
L 2156 -594 
L 1656 -594 
L 0 4666 
L 500 4666 
z
" transform="scale(0.015625)"/>
      <path id="DejaVuSerif-5b" d="M 550 4863 
L 2003 4863 
L 2003 4531 
L 1147 4531 
L 1147 -513 
L 2003 -513 
L 2003 -844 
L 550 -844 
L 550 4863 
z
" transform="scale(0.015625)"/>
     </defs>
     <use xlink:href="#DejaVuSerif-5c"/>
     <use xlink:href="#DejaVuSerif-5b" transform="translate(33.691406 0)"/>
    </g>
    <!-- P(ux, uy, uz) = u^2 F(y-x,z-x) \quad \mbox{for all real $x,y,z,u$}, -->
    <g transform="translate(230.52 117.26) scale(0.12 -0.12)">
     <defs>
      <path id="DejaVuSerif-50" d="M 1581 2375 
L 2406 2375 
Q 2872 2375 3115 2626 
Q 3359 2878 3359 3353 
Q 3359 3831 3115 4081 
Q 2872 4331 2406 4331 
L 1581 4331 
L 1581 2375 
z
M 353 0 
L 353 331 
L 947 331 
L 947 4331 
L 353 4331 
L 353 4666 
L 2559 4666 
Q 3259 4666 3668 4311 
Q 4078 3956 4078 3353 
Q 4078 2753 3668 2397 
Q 3259 2041 2559 2041 
L 1581 2041 
L 1581 331 
L 2303 331 
L 2303 0 
L 353 0 
z
" transform="scale(0.015625)"/>
      <path id="DejaVuSerif-28" d="M 2041 -997 
Q 1281 -656 893 83 
Q 506 822 506 1931 
Q 506 3044 893 3783 
Q 1281 4522 2041 4863 
L 2041 4556 
Q 1559 4225 1350 3623 
Q 1141 3022 1141 1931 
Q 1141 844 1350 242 
Q 1559 -359 2041 -691 
L 2041 -997 
z
" transform="scale(0.015625)"/>
      <path id="DejaVuSerif-78" d="M 1863 2028 
L 2559 2988 
L 2113 2988 
L 2113 3322 
L 3391 3322 
L 3391 2988 
L 2950 2988 
L 2059 1759 
L 3097 331 
L 3531 331 
L 3531 0 
L 1997 0 
L 1997 331 
L 2419 331 
L 1697 1325 
L 972 331 
L 1403 331 
L 1403 0 
L 141 0 
L 141 331 
L 581 331 
L 1497 1594 
L 488 2988 
L 78 2988 
L 78 3322 
L 1563 3322 
L 1563 2988 
L 1166 2988 
L 1863 2028 
z
" transform="scale(0.015625)"/>
      <path id="DejaVuSerif-7a" d="M 256 0 
L 256 269 
L 2338 2988 
L 691 2988 
L 691 2413 
L 359 2413 
L 359 3322 
L 3078 3322 
L 3078 3053 
L 997 331 
L 2803 331 
L 2803 934 
L 3138 934 
L 3138 0 
L 256 0 
z
" transform="scale(0.015625)"/>
      <path id="DejaVuSerif-29" d="M 453 -997 
L 453 -691 
Q 934 -359 1145 242 
Q 1356 844 1356 1931 
Q 1356 3022 1145 3623 
Q 934 4225 453 4556 
L 453 4863 
Q 1216 4522 1603 3783 
Q 1991 3044 1991 1931 
Q 1991 822 1603 83 
Q 1216 -656 453 -997 
z
" transform="scale(0.015625)"/>
      <path id="DejaVuSerif-3d" d="M 678 2894 
L 4684 2894 
L 4684 2394 
L 678 2394 
L 678 2894 
z
M 678 1619 
L 4684 1619 
L 4684 1119 
L 678 1119 
L 678 1619 
z
" transform="scale(0.015625)"/>
      <path id="DejaVuSerif-5e" d="M 2988 4666 
L 4684 2925 
L 4206 2925 
L 2681 4116 
L 1159 2925 
L 678 2925 
L 2375 4666 
L 2988 4666 
z
" transform="scale(0.015625)"/>
      <path id="DejaVuSerif-32" d="M 819 3553 
L 469 3553 
L 469 4384 
Q 803 4563 1142 4656 
Q 1481 4750 1806 4750 
Q 2534 4750 2956 4397 
Q 3378 4044 3378 3438 
Q 3378 2753 2422 1800 
Q 2347 1728 2309 1691 
L 1131 513 
L 3078 513 
L 3078 1088 
L 3444 1088 
L 3444 0 
L 434 0 
L 434 341 
L 1850 1753 
Q 2319 2222 2519 2614 
Q 2719 3006 2719 3438 
Q 2719 3909 2473 4175 
Q 2228 4441 1797 4441 
Q 1350 4441 1106 4219 
Q 863 3997 819 3553 
z
" transform="scale(0.015625)"/>
      <path id="DejaVuSerif-46" d="M 353 0 
L 353 331 
L 947 331 
L 947 4331 
L 353 4331 
L 353 4666 
L 4172 4666 
L 4172 3628 
L 3788 3628 
L 3788 4281 
L 1581 4281 
L 1581 2719 
L 3175 2719 
L 3175 3303 
L 3559 3303 
L 3559 1753 
L 3175 1753 
L 3175 2338 
L 1581 2338 
L 1581 331 
L 2328 331 
L 2328 0 
L 353 0 
z
" transform="scale(0.015625)"/>
      <path id="DejaVuSerif-2d" d="M 281 1959 
L 1881 1959 
L 1881 1472 
L 281 1472 
L 281 1959 
z
" transform="scale(0.015625)"/>
      <path id="DejaVuSerif-71" d="M 3359 2988 
L 3359 -997 
L 3909 -997 
L 3909 -1331 
L 2241 -1331 
L 2241 -997 
L 2784 -997 
L 2784 519 
Q 2616 206 2355 57 
Q 2094 -91 1709 -91 
Q 1097 -91 708 395 
Q 319 881 319 1663 
Q 319 2444 706 2928 
Q 1094 3413 1709 3413 
Q 2094 3413 2355 3264 
Q 2616 3116 2784 2803 
L 2784 3322 
L 3909 3322 
L 3909 2988 
L 3359 2988 
z
M 2784 1825 
Q 2784 2422 2554 2737 
Q 2325 3053 1888 3053 
Q 1444 3053 1217 2703 
Q 991 2353 991 1663 
Q 991 975 1217 622 
Q 1444 269 1888 269 
Q 2325 269 2554 583 
Q 2784 897 2784 1497 
L 2784 1825 
z
" transform="scale(0.015625)"/>
      <path id="DejaVuSerif-7b" d="M 3272 -716 
L 3272 -1044 
L 3078 -1044 
Q 2300 -1044 2036 -812 
Q 1772 -581 1772 109 
L 1772 916 
Q 1772 1384 1603 1565 
Q 1434 1747 991 1747 
L 800 1747 
L 800 2075 
L 991 2075 
Q 1434 2075 1603 2256 
Q 1772 2438 1772 2906 
L 1772 3713 
Q 1772 4403 2036 4633 
Q 2300 4863 3078 4863 
L 3272 4863 
L 3272 4538 
L 3059 4538 
Q 2619 4538 2484 4400 
Q 2350 4263 2350 3822 
L 2350 2925 
Q 2350 2431 2194 2218 
Q 2038 2006 1631 1913 
Q 2044 1806 2197 1597 
Q 2350 1388 2350 897 
L 2350 0 
Q 2350 -441 2484 -578 
Q 2619 -716 3059 -716 
L 3272 -716 
z
" transform="scale(0.015625)"/>
      <path id="Cmmi10-78" d="M 500 184 
Q 613 97 819 97 
Q 1019 97 1172 289 
Q 1325 481 1381 709 
L 1672 1844 
Q 1741 2153 1741 2266 
Q 1741 2425 1652 2544 
Q 1563 2663 1403 2663 
Q 1200 2663 1022 2536 
Q 844 2409 722 2214 
Q 600 2019 550 1819 
Q 538 1778 500 1778 
L 422 1778 
Q 372 1778 372 1838 
L 372 1856 
Q 434 2094 584 2320 
Q 734 2547 951 2687 
Q 1169 2828 1416 2828 
Q 1650 2828 1839 2703 
Q 2028 2578 2106 2363 
Q 2216 2559 2386 2693 
Q 2556 2828 2759 2828 
Q 2897 2828 3040 2779 
Q 3184 2731 3275 2631 
Q 3366 2531 3366 2381 
Q 3366 2219 3261 2101 
Q 3156 1984 2994 1984 
Q 2891 1984 2822 2050 
Q 2753 2116 2753 2216 
Q 2753 2350 2845 2451 
Q 2938 2553 3066 2572 
Q 2950 2663 2747 2663 
Q 2541 2663 2389 2472 
Q 2238 2281 2175 2047 
L 1894 916 
Q 1825 659 1825 494 
Q 1825 331 1917 214 
Q 2009 97 2163 97 
Q 2463 97 2698 361 
Q 2934 625 3009 941 
Q 3022 978 3059 978 
L 3138 978 
Q 3163 978 3178 961 
Q 3194 944 3194 922 
Q 3194 916 3188 903 
Q 3097 522 2806 225 
Q 2516 -72 2150 -72 
Q 1916 -72 1727 54 
Q 1538 181 1459 397 
Q 1359 209 1182 68 
Q 1006 -72 806 -72 
Q 669 -72 523 -23 
Q 378 25 287 125 
Q 197 225 197 378 
Q 197 528 301 651 
Q 406 775 563 775 
Q 669 775 741 711 
Q 813 647 813 544 
Q 813 409 723 309 
Q 634 209 500 184 
z
" transform="scale(0.015625)"/>
      <path id="Cmmi10-3b" d="M 634 -1153 
Q 634 -1125 659 -1100 
Q 891 -878 1019 -587 
Q 1147 -297 1147 25 
L 1147 103 
Q 1044 0 891 0 
Q 744 0 641 103 
Q 538 206 538 353 
Q 538 503 641 603 
Q 744 703 891 703 
Q 1119 703 1216 492 
Q 1313 281 1313 25 
Q 1313 -331 1170 -651 
Q 1028 -972 769 -1228 
Q 744 -1241 728 -1241 
Q 697 -1241 665 -1212 
Q 634 -1184 634 -1153 
z
" transform="scale(0.015625)"/>
      <path id="Cmmi10-79" d="M 538 -916 
Q 672 -1147 1006 -1147 
Q 1309 -1147 1531 -934 
Q 1753 -722 1889 -420 
Q 2025 -119 2100 197 
Q 1816 -72 1484 -72 
Q 1231 -72 1053 15 
Q 875 103 776 276 
Q 678 450 678 697 
Q 678 906 734 1126 
Q 791 1347 892 1617 
Q 994 1888 1069 2088 
Q 1153 2322 1153 2472 
Q 1153 2663 1013 2663 
Q 759 2663 595 2402 
Q 431 2141 353 1819 
Q 341 1778 300 1778 
L 225 1778 
Q 172 1778 172 1838 
L 172 1856 
Q 275 2238 487 2533 
Q 700 2828 1025 2828 
Q 1253 2828 1411 2678 
Q 1569 2528 1569 2297 
Q 1569 2178 1516 2047 
Q 1488 1969 1388 1706 
Q 1288 1444 1234 1272 
Q 1181 1100 1147 934 
Q 1113 769 1113 603 
Q 1113 391 1203 244 
Q 1294 97 1491 97 
Q 1888 97 2203 581 
L 2688 2553 
Q 2709 2638 2787 2698 
Q 2866 2759 2956 2759 
Q 3034 2759 3092 2709 
Q 3150 2659 3150 2578 
Q 3150 2541 3144 2528 
L 2509 -19 
Q 2425 -347 2200 -647 
Q 1975 -947 1658 -1130 
Q 1341 -1313 997 -1313 
Q 831 -1313 668 -1248 
Q 506 -1184 406 -1056 
Q 306 -928 306 -756 
Q 306 -581 409 -453 
Q 513 -325 684 -325 
Q 788 -325 858 -389 
Q 928 -453 928 -556 
Q 928 -703 818 -812 
Q 709 -922 563 -922 
Q 556 -919 550 -917 
Q 544 -916 538 -916 
z
" transform="scale(0.015625)"/>
      <path id="Cmmi10-7a" d="M 313 -72 
Q 263 -72 263 -13 
Q 263 19 275 31 
Q 447 328 689 598 
Q 931 869 1239 1145 
Q 1547 1422 1858 1700 
Q 2169 1978 2363 2194 
L 2338 2194 
Q 2197 2194 1925 2284 
Q 1653 2375 1497 2375 
Q 1328 2375 1168 2301 
Q 1009 2228 966 2075 
Q 956 2028 916 2028 
L 838 2028 
Q 788 2028 788 2094 
L 788 2113 
Q 838 2300 952 2462 
Q 1066 2625 1233 2726 
Q 1400 2828 1581 2828 
Q 1709 2828 1793 2770 
Q 1878 2713 1990 2591 
Q 2103 2469 2173 2416 
Q 2244 2363 2350 2363 
Q 2491 2363 2602 2491 
Q 2713 2619 2822 2809 
Q 2841 2828 2869 2828 
L 2944 2828 
Q 2966 2828 2980 2812 
Q 2994 2797 2994 2772 
Q 2994 2750 2981 2731 
Q 2809 2434 2579 2176 
Q 2350 1919 1979 1586 
Q 1609 1253 1354 1023 
Q 1100 794 878 550 
Q 928 563 1013 563 
Q 1169 563 1439 473 
Q 1709 384 1856 384 
Q 2016 384 2178 453 
Q 2341 522 2459 647 
Q 2578 772 2619 934 
Q 2634 978 2669 978 
L 2747 978 
Q 2772 978 2787 958 
Q 2803 938 2803 916 
Q 2803 909 2797 897 
Q 2738 653 2591 433 
Q 2444 213 2230 70 
Q 2016 -72 1772 -72 
Q 1650 -72 1565 -15 
Q 1481 41 1367 164 
Q 1253 288 1181 342 
Q 1109 397 1006 397 
Q 688 397 434 -50 
Q 413 -72 391 -72 
L 313 -72 
z
" transform="scale(0.015625)"/>
      <path id="Cmmi10-75" d="M 678 697 
Q 678 906 734 1126 
Q 791 1347 892 1617 
Q 994 1888 1069 2088 
Q 1153 2322 1153 2472 
Q 1153 2663 1013 2663 
Q 759 2663 595 2402 
Q 431 2141 353 1819 
Q 341 1778 300 1778 
L 225 1778 
Q 172 1778 172 1838 
L 172 1856 
Q 275 2238 487 2533 
Q 700 2828 1025 2828 
Q 1253 2828 1411 2678 
Q 1569 2528 1569 2297 
Q 1569 2178 1516 2047 
Q 1488 1969 1388 1706 
Q 1288 1444 1234 1272 
Q 1181 1100 1147 934 
Q 1113 769 1113 603 
Q 1113 391 1203 244 
Q 1294 97 1497 97 
Q 1906 97 2216 603 
Q 2222 628 2226 651 
Q 2231 675 2234 697 
L 2694 2553 
Q 2716 2638 2794 2698 
Q 2872 2759 2963 2759 
Q 3041 2759 3098 2709 
Q 3156 2659 3156 2578 
Q 3156 2541 3150 2528 
L 2688 684 
Q 2644 494 2644 372 
Q 2644 97 2828 97 
Q 3034 97 3136 351 
Q 3238 606 3309 941 
Q 3322 978 3359 978 
L 3438 978 
Q 3463 978 3478 956 
Q 3494 934 3494 916 
Q 3425 641 3361 444 
Q 3297 247 3159 87 
Q 3022 -72 2816 -72 
Q 2613 -72 2452 39 
Q 2291 150 2234 341 
Q 2088 153 1894 40 
Q 1700 -72 1484 -72 
Q 1116 -72 897 129 
Q 678 331 678 697 
z
" transform="scale(0.015625)"/>
      <path id="DejaVuSerif-7d" d="M 800 -716 
L 1019 -716 
Q 1456 -716 1589 -580 
Q 1722 -444 1722 0 
L 1722 897 
Q 1722 1388 1875 1597 
Q 2028 1806 2438 1913 
Q 2031 2006 1876 2218 
Q 1722 2431 1722 2925 
L 1722 3822 
Q 1722 4266 1589 4402 
Q 1456 4538 1019 4538 
L 800 4538 
L 800 4863 
L 997 4863 
Q 1775 4863 2036 4633 
Q 2297 4403 2297 3713 
L 2297 2906 
Q 2297 2438 2465 2256 
Q 2634 2075 3078 2075 
L 3272 2075 
L 3272 1747 
L 3078 1747 
Q 2634 1747 2465 1565 
Q 2297 1384 2297 916 
L 2297 109 
Q 2297 -581 2036 -812 
Q 1775 -1044 997 -1044 
L 800 -1044 
L 800 -716 
z
" transform="scale(0.015625)"/>
     </defs>
     <use xlink:href="#DejaVuSerif-50" transform="translate(0 0.015625)"/>
     <use xlink:href="#DejaVuSerif-28" transform="translate(67.285156 0.015625)"/>
     <use xlink:href="#DejaVuSerif-75" transform="translate(106.298828 0.015625)"/>
     <use xlink:href="#DejaVuSerif-78" transform="translate(170.703125 0.015625)"/>
     <use xlink:href="#DejaVuSerif-2c" transform="translate(227.099609 0.015625)"/>
     <use xlink:href="#DejaVuSerif-20" transform="translate(258.886719 0.015625)"/>
     <use xlink:href="#DejaVuSerif-75" transform="translate(290.673828 0.015625)"/>
     <use xlink:href="#DejaVuSerif-79" transform="translate(355.078125 0.015625)"/>
     <use xlink:href="#DejaVuSerif-2c" transform="translate(411.572266 0.015625)"/>
     <use xlink:href="#DejaVuSerif-20" transform="translate(443.359375 0.015625)"/>
     <use xlink:href="#DejaVuSerif-75" transform="translate(475.146484 0.015625)"/>
     <use xlink:href="#DejaVuSerif-7a" transform="translate(539.550781 0.015625)"/>
     <use xlink:href="#DejaVuSerif-29" transform="translate(592.236328 0.015625)"/>
     <use xlink:href="#DejaVuSerif-20" transform="translate(631.25 0.015625)"/>
     <use xlink:href="#DejaVuSerif-3d" transform="translate(663.037109 0.015625)"/>
     <use xlink:href="#DejaVuSerif-20" transform="translate(746.826172 0.015625)"/>
     <use xlink:href="#DejaVuSerif-75" transform="translate(778.613281 0.015625)"/>
     <use xlink:href="#DejaVuSerif-5e" transform="translate(843.017578 0.015625)"/>
     <use xlink:href="#DejaVuSerif-32" transform="translate(926.806641 0.015625)"/>
     <use xlink:href="#DejaVuSerif-20" transform="translate(990.429688 0.015625)"/>
     <use xlink:href="#DejaVuSerif-46" transform="translate(1022.216797 0.015625)"/>
     <use xlink:href="#DejaVuSerif-28" transform="translate(1091.601562 0.015625)"/>
     <use xlink:href="#DejaVuSerif-79" transform="translate(1130.615234 0.015625)"/>
     <use xlink:href="#DejaVuSerif-2d" transform="translate(1187.109375 0.015625)"/>
     <use xlink:href="#DejaVuSerif-78" transform="translate(1220.898438 0.015625)"/>
     <use xlink:href="#DejaVuSerif-2c" transform="translate(1277.294922 0.015625)"/>
     <use xlink:href="#DejaVuSerif-7a" transform="translate(1309.082031 0.015625)"/>
     <use xlink:href="#DejaVuSerif-2d" transform="translate(1361.767578 0.015625)"/>
     <use xlink:href="#DejaVuSerif-78" transform="translate(1395.556641 0.015625)"/>
     <use xlink:href="#DejaVuSerif-29" transform="translate(1451.953125 0.015625)"/>
     <use xlink:href="#DejaVuSerif-20" transform="translate(1490.966797 0.015625)"/>
     <use xlink:href="#DejaVuSerif-5c" transform="translate(1522.753906 0.015625)"/>
     <use xlink:href="#DejaVuSerif-71" transform="translate(1556.445312 0.015625)"/>
     <use xlink:href="#DejaVuSerif-75" transform="translate(1620.458984 0.015625)"/>
     <use xlink:href="#DejaVuSerif-61" transform="translate(1684.863281 0.015625)"/>
     <use xlink:href="#DejaVuSerif-64" transform="translate(1744.482422 0.015625)"/>
     <use xlink:href="#DejaVuSerif-20" transform="translate(1808.496094 0.015625)"/>
     <use xlink:href="#DejaVuSerif-5c" transform="translate(1840.283203 0.015625)"/>
     <use xlink:href="#DejaVuSerif-6d" transform="translate(1873.974609 0.015625)"/>
     <use xlink:href="#DejaVuSerif-62" transform="translate(1968.798828 0.015625)"/>
     <use xlink:href="#DejaVuSerif-6f" transform="translate(2032.8125 0.015625)"/>
     <use xlink:href="#DejaVuSerif-78" transform="translate(2093.017578 0.015625)"/>
     <use xlink:href="#DejaVuSerif-7b" transform="translate(2149.414062 0.015625)"/>
     <use xlink:href="#DejaVuSerif-66" transform="translate(2213.037109 0.015625)"/>
     <use xlink:href="#DejaVuSerif-6f" transform="translate(2250.048828 0.015625)"/>
     <use xlink:href="#DejaVuSerif-72" transform="translate(2310.253906 0.015625)"/>
     <use xlink:href="#DejaVuSerif-20" transform="translate(2358.056641 0.015625)"/>
     <use xlink:href="#DejaVuSerif-61" transform="translate(2389.84375 0.015625)"/>
     <use xlink:href="#DejaVuSerif-6c" transform="translate(2449.462891 0.015625)"/>
     <use xlink:href="#DejaVuSerif-6c" transform="translate(2481.445312 0.015625)"/>
     <use xlink:href="#DejaVuSerif-20" transform="translate(2513.427734 0.015625)"/>
     <use xlink:href="#DejaVuSerif-72" transform="translate(2545.214844 0.015625)"/>
     <use xlink:href="#DejaVuSerif-65" transform="translate(2593.017578 0.015625)"/>
     <use xlink:href="#DejaVuSerif-61" transform="translate(2652.197266 0.015625)"/>
     <use xlink:href="#DejaVuSerif-6c" transform="translate(2711.816406 0.015625)"/>
     <use xlink:href="#DejaVuSerif-20" transform="translate(2743.798828 0.015625)"/>
     <use xlink:href="#Cmmi10-78" transform="translate(2775.585938 0.015625)"/>
     <use xlink:href="#Cmmi10-3b" transform="translate(2832.666016 0.015625)"/>
     <use xlink:href="#Cmmi10-79" transform="translate(2877.910156 0.015625)"/>
     <use xlink:href="#Cmmi10-3b" transform="translate(2926.933594 0.015625)"/>
     <use xlink:href="#Cmmi10-7a" transform="translate(2972.177734 0.015625)"/>
     <use xlink:href="#Cmmi10-3b" transform="translate(3018.662109 0.015625)"/>
     <use xlink:href="#Cmmi10-75" transform="translate(3063.90625 0.015625)"/>
     <use xlink:href="#DejaVuSerif-7d" transform="translate(3121.083984 0.015625)"/>
     <use xlink:href="#DejaVuSerif-2c" transform="translate(3184.707031 0.015625)"/>
    </g>
    <!-- \] -->
    <g transform="translate(419.177812 130.96175) scale(0.12 -0.12)">
     <defs>
      <path id="DejaVuSerif-5d" d="M 1947 4863 
L 1947 -844 
L 494 -844 
L 494 -513 
L 1350 -513 
L 1350 4531 
L 494 4531 
L 494 4863 
L 1947 4863 
z
" transform="scale(0.015625)"/>
     </defs>
     <use xlink:href="#DejaVuSerif-5c"/>
     <use xlink:href="#DejaVuSerif-5d" transform="translate(33.691406 0)"/>
    </g>
    <!-- and such that $P(1,0,0)=4$, $P(0,1,0)=5$, and $P(0,0,1)=6$. Also let $A,B,C$ be complex numbers with $P(A,B,C)=0$ and $|B-A|=10$. Find $|C-A|$. -->
    <g transform="translate(7.2 144.401375) scale(0.12 -0.12)">
     <defs>
      <path id="Cmr10-28" d="M 1984 -1588 
Q 1628 -1306 1370 -942 
Q 1113 -578 948 -165 
Q 784 247 703 697 
Q 622 1147 622 1600 
Q 622 2059 703 2509 
Q 784 2959 951 3375 
Q 1119 3791 1378 4153 
Q 1638 4516 1984 4788 
Q 1984 4800 2016 4800 
L 2075 4800 
Q 2094 4800 2109 4783 
Q 2125 4766 2125 4744 
Q 2125 4716 2113 4703 
Q 1800 4397 1592 4047 
Q 1384 3697 1257 3301 
Q 1131 2906 1075 2482 
Q 1019 2059 1019 1600 
Q 1019 -434 2106 -1491 
Q 2125 -1509 2125 -1544 
Q 2125 -1559 2108 -1579 
Q 2091 -1600 2075 -1600 
L 2016 -1600 
Q 1984 -1600 1984 -1588 
z
" transform="scale(0.015625)"/>
      <path id="Cmr10-31" d="M 594 0 
L 594 225 
Q 1394 225 1394 428 
L 1394 3788 
Q 1063 3628 556 3628 
L 556 3853 
Q 1341 3853 1741 4263 
L 1831 4263 
Q 1853 4263 1873 4245 
Q 1894 4228 1894 4206 
L 1894 428 
Q 1894 225 2694 225 
L 2694 0 
L 594 0 
z
" transform="scale(0.015625)"/>
      <path id="Cmr10-30" d="M 1600 -141 
Q 816 -141 533 504 
Q 250 1150 250 2041 
Q 250 2597 351 3087 
Q 453 3578 754 3920 
Q 1056 4263 1600 4263 
Q 2022 4263 2290 4056 
Q 2559 3850 2700 3523 
Q 2841 3197 2892 2823 
Q 2944 2450 2944 2041 
Q 2944 1491 2842 1011 
Q 2741 531 2444 195 
Q 2147 -141 1600 -141 
z
M 1600 25 
Q 1956 25 2131 390 
Q 2306 756 2347 1200 
Q 2388 1644 2388 2144 
Q 2388 2625 2347 3031 
Q 2306 3438 2132 3767 
Q 1959 4097 1600 4097 
Q 1238 4097 1063 3765 
Q 888 3434 847 3029 
Q 806 2625 806 2144 
Q 806 1788 823 1472 
Q 841 1156 916 820 
Q 991 484 1158 254 
Q 1325 25 1600 25 
z
" transform="scale(0.015625)"/>
      <path id="Cmr10-29" d="M 416 -1600 
Q 359 -1600 359 -1544 
Q 359 -1516 372 -1503 
Q 1466 -434 1466 1600 
Q 1466 3634 384 4691 
Q 359 4706 359 4744 
Q 359 4766 376 4783 
Q 394 4800 416 4800 
L 475 4800 
Q 494 4800 506 4788 
Q 966 4425 1272 3906 
Q 1578 3388 1720 2800 
Q 1863 2213 1863 1600 
Q 1863 1147 1786 708 
Q 1709 269 1542 -157 
Q 1375 -584 1119 -945 
Q 863 -1306 506 -1588 
Q 494 -1600 475 -1600 
L 416 -1600 
z
" transform="scale(0.015625)"/>
      <path id="Cmr10-3d" d="M 481 850 
Q 428 850 393 890 
Q 359 931 359 978 
Q 359 1031 393 1068 
Q 428 1106 481 1106 
L 4500 1106 
Q 4547 1106 4581 1068 
Q 4616 1031 4616 978 
Q 4616 931 4581 890 
Q 4547 850 4500 850 
L 481 850 
z
M 481 2094 
Q 428 2094 393 2131 
Q 359 2169 359 2222 
Q 359 2269 393 2309 
Q 428 2350 481 2350 
L 4500 2350 
Q 4547 2350 4581 2309 
Q 4616 2269 4616 2222 
Q 4616 2169 4581 2131 
Q 4547 2094 4500 2094 
L 481 2094 
z
" transform="scale(0.015625)"/>
      <path id="Cmr10-34" d="M 178 1056 
L 178 1281 
L 2156 4231 
Q 2178 4263 2222 4263 
L 2316 4263 
Q 2388 4263 2388 4191 
L 2388 1281 
L 3016 1281 
L 3016 1056 
L 2388 1056 
L 2388 428 
Q 2388 297 2575 261 
Q 2763 225 3009 225 
L 3009 0 
L 1247 0 
L 1247 225 
Q 1494 225 1681 261 
Q 1869 297 1869 428 
L 1869 1056 
L 178 1056 
z
M 391 1281 
L 1906 1281 
L 1906 3547 
L 391 1281 
z
" transform="scale(0.015625)"/>
      <path id="Cmr10-35" d="M 556 728 
Q 622 541 758 387 
Q 894 234 1080 148 
Q 1266 63 1466 63 
Q 1928 63 2103 422 
Q 2278 781 2278 1294 
Q 2278 1516 2270 1667 
Q 2263 1819 2228 1959 
Q 2169 2184 2020 2353 
Q 1872 2522 1656 2522 
Q 1441 2522 1286 2456 
Q 1131 2391 1034 2303 
Q 938 2216 863 2119 
Q 788 2022 769 2016 
L 697 2016 
Q 681 2016 657 2036 
Q 634 2056 634 2075 
L 634 4213 
Q 634 4228 654 4245 
Q 675 4263 697 4263 
L 716 4263 
Q 1147 4056 1631 4056 
Q 2106 4056 2547 4263 
L 2566 4263 
Q 2588 4263 2606 4247 
Q 2625 4231 2625 4213 
L 2625 4153 
Q 2625 4122 2613 4122 
Q 2394 3831 2064 3668 
Q 1734 3506 1381 3506 
Q 1125 3506 856 3578 
L 856 2369 
Q 1069 2541 1236 2614 
Q 1403 2688 1663 2688 
Q 2016 2688 2295 2484 
Q 2575 2281 2725 1954 
Q 2875 1628 2875 1288 
Q 2875 903 2686 575 
Q 2497 247 2172 53 
Q 1847 -141 1466 -141 
Q 1150 -141 886 21 
Q 622 184 470 459 
Q 319 734 319 1044 
Q 319 1188 412 1278 
Q 506 1369 647 1369 
Q 788 1369 883 1276 
Q 978 1184 978 1044 
Q 978 906 883 811 
Q 788 716 647 716 
Q 625 716 597 720 
Q 569 725 556 728 
z
" transform="scale(0.015625)"/>
      <path id="Cmr10-36" d="M 1600 -141 
Q 1203 -141 937 70 
Q 672 281 526 617 
Q 381 953 325 1322 
Q 269 1691 269 2069 
Q 269 2575 466 3084 
Q 663 3594 1045 3928 
Q 1428 4263 1953 4263 
Q 2172 4263 2361 4180 
Q 2550 4097 2658 3936 
Q 2766 3775 2766 3547 
Q 2766 3416 2677 3327 
Q 2588 3238 2456 3238 
Q 2331 3238 2240 3328 
Q 2150 3419 2150 3547 
Q 2150 3672 2240 3762 
Q 2331 3853 2456 3853 
L 2491 3853 
Q 2409 3969 2261 4023 
Q 2113 4078 1953 4078 
Q 1759 4078 1595 3993 
Q 1431 3909 1300 3765 
Q 1169 3622 1081 3448 
Q 994 3275 945 3053 
Q 897 2831 884 2637 
Q 872 2444 872 2150 
Q 984 2413 1190 2580 
Q 1397 2747 1656 2747 
Q 1941 2747 2175 2631 
Q 2409 2516 2578 2311 
Q 2747 2106 2836 1843 
Q 2925 1581 2925 1313 
Q 2925 938 2758 598 
Q 2591 259 2287 59 
Q 1984 -141 1600 -141 
z
M 1600 63 
Q 1847 63 1997 175 
Q 2147 288 2217 473 
Q 2288 659 2305 848 
Q 2322 1038 2322 1313 
Q 2322 1675 2287 1931 
Q 2253 2188 2100 2383 
Q 1947 2578 1631 2578 
Q 1372 2578 1205 2403 
Q 1038 2228 961 1961 
Q 884 1694 884 1447 
Q 884 1363 891 1319 
Q 891 1309 889 1303 
Q 888 1297 884 1288 
Q 884 1013 940 731 
Q 997 450 1156 256 
Q 1316 63 1600 63 
z
" transform="scale(0.015625)"/>
      <path id="DejaVuSerif-2e" d="M 603 325 
Q 603 500 722 622 
Q 841 744 1019 744 
Q 1191 744 1312 622 
Q 1434 500 1434 325 
Q 1434 153 1312 31 
Q 1191 -91 1019 -91 
Q 841 -91 722 29 
Q 603 150 603 325 
z
" transform="scale(0.015625)"/>
      <path id="DejaVuSerif-41" d="M 1281 1691 
L 2994 1691 
L 2138 3909 
L 1281 1691 
z
M -38 0 
L -38 331 
L 372 331 
L 2034 4666 
L 2559 4666 
L 4225 331 
L 4684 331 
L 4684 0 
L 2988 0 
L 2988 331 
L 3506 331 
L 3116 1356 
L 1153 1356 
L 763 331 
L 1275 331 
L 1275 0 
L -38 0 
z
" transform="scale(0.015625)"/>
      <path id="Cmmi10-41" d="M 288 0 
Q 225 0 225 84 
Q 250 225 306 225 
Q 566 225 755 328 
Q 944 431 1081 647 
Q 1094 659 1094 659 
L 3378 4513 
Q 3428 4581 3500 4581 
L 3584 4581 
Q 3603 4581 3622 4573 
Q 3641 4566 3655 4548 
Q 3669 4531 3669 4513 
L 4056 378 
Q 4056 350 4084 294 
Q 4147 225 4563 225 
Q 4628 225 4628 141 
Q 4606 56 4592 28 
Q 4578 0 4519 0 
L 2919 0 
Q 2859 0 2859 84 
Q 2894 225 2944 225 
Q 3450 225 3481 397 
L 3384 1453 
L 1806 1453 
L 1294 594 
Q 1247 525 1247 434 
Q 1247 322 1355 273 
Q 1463 225 1594 225 
Q 1656 225 1656 141 
Q 1634 50 1621 25 
Q 1609 0 1550 0 
L 288 0 
z
M 1931 1678 
L 3359 1678 
L 3169 3750 
L 1931 1678 
z
" transform="scale(0.015625)"/>
      <path id="Cmmi10-42" d="M 319 0 
Q 256 0 256 84 
Q 259 100 268 137 
Q 278 175 293 200 
Q 309 225 341 225 
Q 522 225 656 234 
Q 791 244 884 269 
Q 959 297 1006 441 
L 1881 3956 
Q 1894 4019 1894 4044 
Q 1894 4113 1819 4122 
Q 1697 4147 1356 4147 
Q 1294 4147 1294 4231 
Q 1297 4247 1306 4286 
Q 1316 4325 1333 4348 
Q 1350 4372 1375 4372 
L 3669 4372 
Q 3878 4372 4083 4320 
Q 4288 4269 4461 4156 
Q 4634 4044 4736 3876 
Q 4838 3709 4838 3488 
Q 4838 3247 4714 3040 
Q 4591 2834 4395 2681 
Q 4200 2528 3973 2429 
Q 3747 2331 3500 2284 
Q 3675 2284 3854 2215 
Q 4034 2147 4175 2028 
Q 4316 1909 4402 1743 
Q 4488 1578 4488 1388 
Q 4488 1003 4219 684 
Q 3950 366 3542 183 
Q 3134 0 2753 0 
L 319 0 
z
M 1497 275 
Q 1497 225 1716 225 
L 2631 225 
Q 2944 225 3231 398 
Q 3519 572 3692 859 
Q 3866 1147 3866 1459 
Q 3866 1650 3786 1820 
Q 3706 1991 3556 2089 
Q 3406 2188 3213 2188 
L 1966 2188 
L 1522 416 
Q 1497 328 1497 275 
z
M 2009 2356 
L 2981 2356 
Q 3288 2356 3577 2512 
Q 3866 2669 4048 2937 
Q 4231 3206 4231 3506 
Q 4231 3784 4057 3965 
Q 3884 4147 3609 4147 
L 2731 4147 
Q 2559 4147 2500 4115 
Q 2441 4084 2400 3928 
L 2009 2356 
z
" transform="scale(0.015625)"/>
      <path id="Cmmi10-43" d="M 934 1381 
Q 934 997 1082 705 
Q 1231 413 1514 248 
Q 1797 84 2181 84 
Q 2584 84 2957 290 
Q 3331 497 3595 842 
Q 3859 1188 3956 1575 
Q 3969 1613 4006 1613 
L 4084 1613 
Q 4109 1613 4125 1595 
Q 4141 1578 4141 1556 
Q 4141 1550 4134 1538 
Q 4025 1094 3711 705 
Q 3397 316 2959 87 
Q 2522 -141 2059 -141 
Q 1559 -141 1162 84 
Q 766 309 545 709 
Q 325 1109 325 1613 
Q 325 2150 565 2676 
Q 806 3203 1212 3614 
Q 1619 4025 2139 4269 
Q 2659 4513 3194 4513 
Q 3406 4513 3600 4448 
Q 3794 4384 3959 4253 
Q 4125 4122 4231 3950 
L 4738 4500 
Q 4738 4513 4769 4513 
L 4806 4513 
Q 4831 4513 4847 4491 
Q 4863 4469 4863 4447 
L 4428 2719 
Q 4428 2675 4378 2675 
L 4263 2675 
Q 4213 2675 4213 2747 
Q 4238 2888 4238 3084 
Q 4238 3397 4131 3673 
Q 4025 3950 3801 4119 
Q 3578 4288 3256 4288 
Q 2734 4288 2300 4025 
Q 1866 3763 1564 3336 
Q 1263 2909 1098 2389 
Q 934 1869 934 1381 
z
" transform="scale(0.015625)"/>
      <path id="Cmsy10-6a" d="M 763 -1484 
L 763 4684 
Q 763 4734 800 4767 
Q 838 4800 891 4800 
Q 938 4800 978 4767 
Q 1019 4734 1019 4684 
L 1019 -1484 
Q 1019 -1534 978 -1567 
Q 938 -1600 891 -1600 
Q 838 -1600 800 -1567 
Q 763 -1534 763 -1484 
z
" transform="scale(0.015625)"/>
      <path id="Cmsy10-a1" d="M 653 1472 
Q 600 1472 565 1512 
Q 531 1553 531 1600 
Q 531 1647 565 1687 
Q 600 1728 653 1728 
L 4325 1728 
Q 4375 1728 4408 1687 
Q 4441 1647 4441 1600 
Q 4441 1553 4408 1512 
Q 4375 1472 4325 1472 
L 653 1472 
z
" transform="scale(0.015625)"/>
     </defs>
     <use xlink:href="#DejaVuSerif-61" transform="translate(0 0.015625)"/>
     <use xlink:href="#DejaVuSerif-6e" transform="translate(59.619141 0.015625)"/>
     <use xlink:href="#DejaVuSerif-64" transform="translate(124.023438 0.015625)"/>
     <use xlink:href="#DejaVuSerif-20" transform="translate(188.037109 0.015625)"/>
     <use xlink:href="#DejaVuSerif-73" transform="translate(219.824219 0.015625)"/>
     <use xlink:href="#DejaVuSerif-75" transform="translate(271.142578 0.015625)"/>
     <use xlink:href="#DejaVuSerif-63" transform="translate(335.546875 0.015625)"/>
     <use xlink:href="#DejaVuSerif-68" transform="translate(391.552734 0.015625)"/>
     <use xlink:href="#DejaVuSerif-20" transform="translate(455.957031 0.015625)"/>
     <use xlink:href="#DejaVuSerif-74" transform="translate(487.744141 0.015625)"/>
     <use xlink:href="#DejaVuSerif-68" transform="translate(527.929688 0.015625)"/>
     <use xlink:href="#DejaVuSerif-61" transform="translate(592.333984 0.015625)"/>
     <use xlink:href="#DejaVuSerif-74" transform="translate(651.953125 0.015625)"/>
     <use xlink:href="#DejaVuSerif-20" transform="translate(692.138672 0.015625)"/>
     <use xlink:href="#Cmmi10-50" transform="translate(723.925781 0.015625)"/>
     <use xlink:href="#Cmr10-28" transform="translate(788.134766 0.015625)"/>
     <use xlink:href="#Cmr10-31" transform="translate(826.953125 0.015625)"/>
     <use xlink:href="#Cmmi10-3b" transform="translate(876.953125 0.015625)"/>
     <use xlink:href="#Cmr10-30" transform="translate(922.197266 0.015625)"/>
     <use xlink:href="#Cmmi10-3b" transform="translate(972.197266 0.015625)"/>
     <use xlink:href="#Cmr10-30" transform="translate(1017.441406 0.015625)"/>
     <use xlink:href="#Cmr10-29" transform="translate(1067.441406 0.015625)"/>
     <use xlink:href="#Cmr10-3d" transform="translate(1123.818359 0.015625)"/>
     <use xlink:href="#Cmr10-34" transform="translate(1219.0625 0.015625)"/>
     <use xlink:href="#DejaVuSerif-2c" transform="translate(1269.0625 0.015625)"/>
     <use xlink:href="#DejaVuSerif-20" transform="translate(1300.849609 0.015625)"/>
     <use xlink:href="#Cmmi10-50" transform="translate(1332.636719 0.015625)"/>
     <use xlink:href="#Cmr10-28" transform="translate(1396.845703 0.015625)"/>
     <use xlink:href="#Cmr10-30" transform="translate(1435.664062 0.015625)"/>
     <use xlink:href="#Cmmi10-3b" transform="translate(1485.664062 0.015625)"/>
     <use xlink:href="#Cmr10-31" transform="translate(1530.908203 0.015625)"/>
     <use xlink:href="#Cmmi10-3b" transform="translate(1580.908203 0.015625)"/>
     <use xlink:href="#Cmr10-30" transform="translate(1626.152344 0.015625)"/>
     <use xlink:href="#Cmr10-29" transform="translate(1676.152344 0.015625)"/>
     <use xlink:href="#Cmr10-3d" transform="translate(1732.529297 0.015625)"/>
     <use xlink:href="#Cmr10-35" transform="translate(1827.773438 0.015625)"/>
     <use xlink:href="#DejaVuSerif-2c" transform="translate(1877.773438 0.015625)"/>
     <use xlink:href="#DejaVuSerif-20" transform="translate(1909.560547 0.015625)"/>
     <use xlink:href="#DejaVuSerif-61" transform="translate(1941.347656 0.015625)"/>
     <use xlink:href="#DejaVuSerif-6e" transform="translate(2000.966797 0.015625)"/>
     <use xlink:href="#DejaVuSerif-64" transform="translate(2065.371094 0.015625)"/>
     <use xlink:href="#DejaVuSerif-20" transform="translate(2129.384766 0.015625)"/>
     <use xlink:href="#Cmmi10-50" transform="translate(2161.171875 0.015625)"/>
     <use xlink:href="#Cmr10-28" transform="translate(2225.380859 0.015625)"/>
     <use xlink:href="#Cmr10-30" transform="translate(2264.199219 0.015625)"/>
     <use xlink:href="#Cmmi10-3b" transform="translate(2314.199219 0.015625)"/>
     <use xlink:href="#Cmr10-30" transform="translate(2359.443359 0.015625)"/>
     <use xlink:href="#Cmmi10-3b" transform="translate(2409.443359 0.015625)"/>
     <use xlink:href="#Cmr10-31" transform="translate(2454.6875 0.015625)"/>
     <use xlink:href="#Cmr10-29" transform="translate(2504.6875 0.015625)"/>
     <use xlink:href="#Cmr10-3d" transform="translate(2561.064453 0.015625)"/>
     <use xlink:href="#Cmr10-36" transform="translate(2656.308594 0.015625)"/>
     <use xlink:href="#DejaVuSerif-2e" transform="translate(2706.308594 0.015625)"/>
     <use xlink:href="#DejaVuSerif-20" transform="translate(2738.095703 0.015625)"/>
     <use xlink:href="#DejaVuSerif-41" transform="translate(2769.882812 0.015625)"/>
     <use xlink:href="#DejaVuSerif-6c" transform="translate(2842.099609 0.015625)"/>
     <use xlink:href="#DejaVuSerif-73" transform="translate(2874.082031 0.015625)"/>
     <use xlink:href="#DejaVuSerif-6f" transform="translate(2925.400391 0.015625)"/>
     <use xlink:href="#DejaVuSerif-20" transform="translate(2985.605469 0.015625)"/>
     <use xlink:href="#DejaVuSerif-6c" transform="translate(3017.392578 0.015625)"/>
     <use xlink:href="#DejaVuSerif-65" transform="translate(3049.375 0.015625)"/>
     <use xlink:href="#DejaVuSerif-74" transform="translate(3108.554688 0.015625)"/>
     <use xlink:href="#DejaVuSerif-20" transform="translate(3148.740234 0.015625)"/>
     <use xlink:href="#Cmmi10-41" transform="translate(3180.527344 0.015625)"/>
     <use xlink:href="#Cmmi10-3b" transform="translate(3255.527344 0.015625)"/>
     <use xlink:href="#Cmmi10-42" transform="translate(3300.771484 0.015625)"/>
     <use xlink:href="#Cmmi10-3b" transform="translate(3376.552734 0.015625)"/>
     <use xlink:href="#Cmmi10-43" transform="translate(3421.796875 0.015625)"/>
     <use xlink:href="#DejaVuSerif-20" transform="translate(3493.183594 0.015625)"/>
     <use xlink:href="#DejaVuSerif-62" transform="translate(3524.970703 0.015625)"/>
     <use xlink:href="#DejaVuSerif-65" transform="translate(3588.984375 0.015625)"/>
     <use xlink:href="#DejaVuSerif-20" transform="translate(3648.164062 0.015625)"/>
     <use xlink:href="#DejaVuSerif-63" transform="translate(3679.951172 0.015625)"/>
     <use xlink:href="#DejaVuSerif-6f" transform="translate(3735.957031 0.015625)"/>
     <use xlink:href="#DejaVuSerif-6d" transform="translate(3796.162109 0.015625)"/>
     <use xlink:href="#DejaVuSerif-70" transform="translate(3890.986328 0.015625)"/>
     <use xlink:href="#DejaVuSerif-6c" transform="translate(3955 0.015625)"/>
     <use xlink:href="#DejaVuSerif-65" transform="translate(3986.982422 0.015625)"/>
     <use xlink:href="#DejaVuSerif-78" transform="translate(4046.162109 0.015625)"/>
     <use xlink:href="#DejaVuSerif-20" transform="translate(4102.558594 0.015625)"/>
     <use xlink:href="#DejaVuSerif-6e" transform="translate(4134.345703 0.015625)"/>
     <use xlink:href="#DejaVuSerif-75" transform="translate(4198.75 0.015625)"/>
     <use xlink:href="#DejaVuSerif-6d" transform="translate(4263.154297 0.015625)"/>
     <use xlink:href="#DejaVuSerif-62" transform="translate(4357.978516 0.015625)"/>
     <use xlink:href="#DejaVuSerif-65" transform="translate(4421.992188 0.015625)"/>
     <use xlink:href="#DejaVuSerif-72" transform="translate(4481.171875 0.015625)"/>
     <use xlink:href="#DejaVuSerif-73" transform="translate(4528.974609 0.015625)"/>
     <use xlink:href="#DejaVuSerif-20" transform="translate(4580.292969 0.015625)"/>
     <use xlink:href="#DejaVuSerif-77" transform="translate(4612.080078 0.015625)"/>
     <use xlink:href="#DejaVuSerif-69" transform="translate(4697.675781 0.015625)"/>
     <use xlink:href="#DejaVuSerif-74" transform="translate(4729.658203 0.015625)"/>
     <use xlink:href="#DejaVuSerif-68" transform="translate(4769.84375 0.015625)"/>
     <use xlink:href="#DejaVuSerif-20" transform="translate(4834.248047 0.015625)"/>
     <use xlink:href="#Cmmi10-50" transform="translate(4866.035156 0.015625)"/>
     <use xlink:href="#Cmr10-28" transform="translate(4930.244141 0.015625)"/>
     <use xlink:href="#Cmmi10-41" transform="translate(4969.0625 0.015625)"/>
     <use xlink:href="#Cmmi10-3b" transform="translate(5044.0625 0.015625)"/>
     <use xlink:href="#Cmmi10-42" transform="translate(5089.306641 0.015625)"/>
     <use xlink:href="#Cmmi10-3b" transform="translate(5165.087891 0.015625)"/>
     <use xlink:href="#Cmmi10-43" transform="translate(5210.332031 0.015625)"/>
     <use xlink:href="#Cmr10-29" transform="translate(5281.71875 0.015625)"/>
     <use xlink:href="#Cmr10-3d" transform="translate(5338.095703 0.015625)"/>
     <use xlink:href="#Cmr10-30" transform="translate(5433.339844 0.015625)"/>
     <use xlink:href="#DejaVuSerif-20" transform="translate(5483.339844 0.015625)"/>
     <use xlink:href="#DejaVuSerif-61" transform="translate(5515.126953 0.015625)"/>
     <use xlink:href="#DejaVuSerif-6e" transform="translate(5574.746094 0.015625)"/>
     <use xlink:href="#DejaVuSerif-64" transform="translate(5639.150391 0.015625)"/>
     <use xlink:href="#DejaVuSerif-20" transform="translate(5703.164062 0.015625)"/>
     <use xlink:href="#Cmsy10-6a" transform="translate(5734.951172 0.015625)"/>
     <use xlink:href="#Cmmi10-42" transform="translate(5762.636719 0.015625)"/>
     <use xlink:href="#Cmsy10-a1" transform="translate(5855.976562 0.015625)"/>
     <use xlink:href="#Cmmi10-41" transform="translate(5951.220703 0.015625)"/>
     <use xlink:href="#Cmsy10-6a" transform="translate(6026.220703 0.015625)"/>
     <use xlink:href="#Cmr10-3d" transform="translate(6071.464844 0.015625)"/>
     <use xlink:href="#Cmr10-31" transform="translate(6166.708984 0.015625)"/>
     <use xlink:href="#Cmr10-30" transform="translate(6216.708984 0.015625)"/>
     <use xlink:href="#DejaVuSerif-2e" transform="translate(6266.708984 0.015625)"/>
     <use xlink:href="#DejaVuSerif-20" transform="translate(6298.496094 0.015625)"/>
     <use xlink:href="#DejaVuSerif-46" transform="translate(6330.283203 0.015625)"/>
     <use xlink:href="#DejaVuSerif-69" transform="translate(6399.667969 0.015625)"/>
     <use xlink:href="#DejaVuSerif-6e" transform="translate(6431.650391 0.015625)"/>
     <use xlink:href="#DejaVuSerif-64" transform="translate(6496.054688 0.015625)"/>
     <use xlink:href="#DejaVuSerif-20" transform="translate(6560.068359 0.015625)"/>
     <use xlink:href="#Cmsy10-6a" transform="translate(6591.855469 0.015625)"/>
     <use xlink:href="#Cmmi10-43" transform="translate(6619.541016 0.015625)"/>
     <use xlink:href="#Cmsy10-a1" transform="translate(6708.486328 0.015625)"/>
     <use xlink:href="#Cmmi10-41" transform="translate(6803.730469 0.015625)"/>
     <use xlink:href="#Cmsy10-6a" transform="translate(6878.730469 0.015625)"/>
     <use xlink:href="#DejaVuSerif-2e" transform="translate(6906.416016 0.015625)"/>
    </g>
   </g>
  </g>
 </g>
</svg>
