<?xml version="1.0" encoding="utf-8" standalone="no"?>
<!DOCTYPE svg PUBLIC "-//W3C//DTD SVG 1.1//EN"
  "http://www.w3.org/Graphics/SVG/1.1/DTD/svg11.dtd">
<svg xmlns:xlink="http://www.w3.org/1999/xlink" width="2346.36pt" height="180.72pt" viewBox="0 0 2346.36 180.72" xmlns="http://www.w3.org/2000/svg" version="1.1">
 <metadata>
  <rdf:RDF xmlns:dc="http://purl.org/dc/elements/1.1/" xmlns:cc="http://creativecommons.org/ns#" xmlns:rdf="http://www.w3.org/1999/02/22-rdf-syntax-ns#">
   <cc:Work>
    <dc:type rdf:resource="http://purl.org/dc/dcmitype/StillImage"/>
    <dc:date>2025-05-29T18:44:10.875456</dc:date>
    <dc:format>image/svg+xml</dc:format>
    <dc:creator>
     <cc:Agent>
      <dc:title>Matplotlib v3.10.3, https://matplotlib.org/</dc:title>
     </cc:Agent>
    </dc:creator>
   </cc:Work>
  </rdf:RDF>
 </metadata>
 <defs>
  <style type="text/css">*{stroke-linejoin: round; stroke-linecap: butt}</style>
 </defs>
 <g id="figure_1">
  <g id="patch_1">
   <path d="M -0 180.72 
L 2346.36 180.72 
L 2346.36 0 
L -0 0 
z
" style="fill: #ffffff"/>
  </g>
  <g id="axes_1">
   <g id="text_1">
    <!-- Call a subset $S$ of $\{1, 2, \dots, n\}$ \emph{mediocre} if it has the following property: Whenever $a$ and $b$ are elements of $S$ whose average is an integer, that average is also an element of $S$. Let $A(n)$ be the number of mediocre subsets of $\{1,2,\dots,n\}$. [For instance, every subset of $\{1,2,3\}$ except $\{1,3\}$ is mediocre, so $A(3) = 7$.] Find all positive integers $n$ such that $A(n+2) - 2A(n+1) + A(n) = 1$. -->
    <g transform="translate(7.2 94.74) scale(0.12 -0.12)">
     <defs>
      <path id="DejaVuSerif-43" d="M 4513 1234 
Q 4306 581 3820 245 
Q 3334 -91 2591 -91 
Q 2134 -91 1743 65 
Q 1353 222 1050 525 
Q 700 875 529 1320 
Q 359 1766 359 2328 
Q 359 3416 987 4083 
Q 1616 4750 2644 4750 
Q 3025 4750 3456 4650 
Q 3888 4550 4384 4347 
L 4384 3272 
L 4031 3272 
Q 3916 3859 3567 4137 
Q 3219 4416 2591 4416 
Q 1844 4416 1459 3886 
Q 1075 3356 1075 2328 
Q 1075 1303 1459 773 
Q 1844 244 2591 244 
Q 3113 244 3450 492 
Q 3788 741 3938 1234 
L 4513 1234 
z
" transform="scale(0.015625)"/>
      <path id="DejaVuSerif-61" d="M 2547 1044 
L 2547 1747 
L 1806 1747 
Q 1378 1747 1168 1562 
Q 959 1378 959 997 
Q 959 650 1171 447 
Q 1384 244 1747 244 
Q 2106 244 2326 466 
Q 2547 688 2547 1044 
z
M 3122 2075 
L 3122 331 
L 3634 331 
L 3634 0 
L 2547 0 
L 2547 359 
Q 2356 128 2106 18 
Q 1856 -91 1522 -91 
Q 969 -91 644 203 
Q 319 497 319 997 
Q 319 1513 691 1797 
Q 1063 2081 1741 2081 
L 2547 2081 
L 2547 2309 
Q 2547 2688 2317 2895 
Q 2088 3103 1672 3103 
Q 1328 3103 1125 2947 
Q 922 2791 872 2484 
L 575 2484 
L 575 3156 
Q 875 3284 1158 3348 
Q 1441 3413 1709 3413 
Q 2400 3413 2761 3070 
Q 3122 2728 3122 2075 
z
" transform="scale(0.015625)"/>
      <path id="DejaVuSerif-6c" d="M 1313 331 
L 1856 331 
L 1856 0 
L 184 0 
L 184 331 
L 738 331 
L 738 4531 
L 184 4531 
L 184 4863 
L 1313 4863 
L 1313 331 
z
" transform="scale(0.015625)"/>
      <path id="DejaVuSerif-20" transform="scale(0.015625)"/>
      <path id="DejaVuSerif-73" d="M 359 184 
L 359 959 
L 691 959 
Q 703 588 923 403 
Q 1144 219 1575 219 
Q 1963 219 2166 364 
Q 2369 509 2369 788 
Q 2369 1006 2220 1140 
Q 2072 1275 1594 1428 
L 1178 1569 
Q 750 1706 558 1912 
Q 366 2119 366 2438 
Q 366 2894 700 3153 
Q 1034 3413 1625 3413 
Q 1888 3413 2178 3344 
Q 2469 3275 2778 3144 
L 2778 2419 
L 2447 2419 
Q 2434 2741 2221 2922 
Q 2009 3103 1644 3103 
Q 1281 3103 1095 2975 
Q 909 2847 909 2591 
Q 909 2381 1050 2254 
Q 1191 2128 1613 1997 
L 2069 1856 
Q 2541 1709 2748 1489 
Q 2956 1269 2956 922 
Q 2956 450 2595 179 
Q 2234 -91 1600 -91 
Q 1278 -91 972 -22 
Q 666 47 359 184 
z
" transform="scale(0.015625)"/>
      <path id="DejaVuSerif-75" d="M 2266 3322 
L 3341 3322 
L 3341 331 
L 3884 331 
L 3884 0 
L 2766 0 
L 2766 588 
Q 2606 256 2353 82 
Q 2100 -91 1766 -91 
Q 1213 -91 952 223 
Q 691 538 691 1209 
L 691 2988 
L 172 2988 
L 172 3322 
L 1269 3322 
L 1269 1388 
Q 1269 781 1417 556 
Q 1566 331 1947 331 
Q 2347 331 2556 625 
Q 2766 919 2766 1478 
L 2766 2988 
L 2266 2988 
L 2266 3322 
z
" transform="scale(0.015625)"/>
      <path id="DejaVuSerif-62" d="M 738 331 
L 738 4531 
L 184 4531 
L 184 4863 
L 1313 4863 
L 1313 2803 
Q 1481 3116 1742 3264 
Q 2003 3413 2388 3413 
Q 3000 3413 3387 2928 
Q 3775 2444 3775 1663 
Q 3775 881 3387 395 
Q 3000 -91 2388 -91 
Q 2003 -91 1742 57 
Q 1481 206 1313 519 
L 1313 0 
L 184 0 
L 184 331 
L 738 331 
z
M 1313 1497 
Q 1313 897 1542 583 
Q 1772 269 2209 269 
Q 2650 269 2876 622 
Q 3103 975 3103 1663 
Q 3103 2353 2876 2703 
Q 2650 3053 2209 3053 
Q 1772 3053 1542 2737 
Q 1313 2422 1313 1825 
L 1313 1497 
z
" transform="scale(0.015625)"/>
      <path id="DejaVuSerif-65" d="M 3469 1600 
L 991 1600 
L 991 1575 
Q 991 903 1244 561 
Q 1497 219 1991 219 
Q 2369 219 2611 417 
Q 2853 616 2950 1006 
L 3413 1006 
Q 3275 459 2904 184 
Q 2534 -91 1931 -91 
Q 1203 -91 761 389 
Q 319 869 319 1663 
Q 319 2450 753 2931 
Q 1188 3413 1894 3413 
Q 2647 3413 3050 2948 
Q 3453 2484 3469 1600 
z
M 2791 1931 
Q 2772 2513 2545 2808 
Q 2319 3103 1894 3103 
Q 1497 3103 1269 2806 
Q 1041 2509 991 1931 
L 2791 1931 
z
" transform="scale(0.015625)"/>
      <path id="DejaVuSerif-74" d="M 691 2988 
L 184 2988 
L 184 3322 
L 691 3322 
L 691 4353 
L 1269 4353 
L 1269 3322 
L 2350 3322 
L 2350 2988 
L 1269 2988 
L 1269 878 
Q 1269 456 1350 337 
Q 1431 219 1650 219 
Q 1875 219 1978 351 
Q 2081 484 2088 781 
L 2522 781 
Q 2497 328 2275 118 
Q 2053 -91 1600 -91 
Q 1103 -91 897 129 
Q 691 350 691 878 
L 691 2988 
z
" transform="scale(0.015625)"/>
      <path id="Cmmi10-53" d="M 391 -141 
Q 372 -141 356 -119 
Q 341 -97 341 -78 
L 709 1416 
Q 722 1453 763 1453 
L 838 1453 
Q 863 1453 877 1434 
Q 891 1416 891 1388 
Q 838 1169 838 997 
Q 838 534 1156 309 
Q 1475 84 1959 84 
Q 2169 84 2372 187 
Q 2575 291 2726 456 
Q 2878 622 2968 826 
Q 3059 1031 3059 1241 
Q 3059 1466 2940 1642 
Q 2822 1819 2613 1869 
L 1831 2075 
Q 1516 2159 1328 2414 
Q 1141 2669 1141 2988 
Q 1141 3372 1369 3728 
Q 1597 4084 1964 4298 
Q 2331 4513 2713 4513 
Q 3006 4513 3251 4405 
Q 3497 4297 3628 4063 
L 3994 4494 
Q 4031 4513 4038 4513 
L 4078 4513 
Q 4103 4513 4118 4491 
Q 4134 4469 4134 4447 
L 3763 2963 
Q 3753 2919 3713 2919 
L 3634 2919 
Q 3578 2919 3578 2988 
Q 3609 3191 3609 3341 
Q 3609 3638 3507 3858 
Q 3406 4078 3201 4192 
Q 2997 4306 2694 4306 
Q 2438 4306 2184 4159 
Q 1931 4013 1775 3769 
Q 1619 3525 1619 3263 
Q 1619 3056 1739 2897 
Q 1859 2738 2059 2681 
L 2841 2478 
Q 3053 2422 3211 2280 
Q 3369 2138 3450 1942 
Q 3531 1747 3531 1516 
Q 3531 1213 3403 917 
Q 3275 622 3045 378 
Q 2816 134 2525 -3 
Q 2234 -141 1931 -141 
Q 1169 -141 838 306 
L 481 -122 
Q 444 -141 434 -141 
L 391 -141 
z
" transform="scale(0.015625)"/>
      <path id="DejaVuSerif-6f" d="M 1925 219 
Q 2388 219 2623 584 
Q 2859 950 2859 1663 
Q 2859 2375 2623 2739 
Q 2388 3103 1925 3103 
Q 1463 3103 1227 2739 
Q 991 2375 991 1663 
Q 991 950 1228 584 
Q 1466 219 1925 219 
z
M 1925 -91 
Q 1200 -91 759 389 
Q 319 869 319 1663 
Q 319 2456 758 2934 
Q 1197 3413 1925 3413 
Q 2653 3413 3092 2934 
Q 3531 2456 3531 1663 
Q 3531 869 3092 389 
Q 2653 -91 1925 -91 
z
" transform="scale(0.015625)"/>
      <path id="DejaVuSerif-66" d="M 2753 4078 
L 2450 4078 
Q 2447 4313 2317 4434 
Q 2188 4556 1941 4556 
Q 1619 4556 1487 4379 
Q 1356 4203 1356 3750 
L 1356 3322 
L 2284 3322 
L 2284 2988 
L 1356 2988 
L 1356 331 
L 2094 331 
L 2094 0 
L 231 0 
L 231 331 
L 781 331 
L 781 2988 
L 231 2988 
L 231 3322 
L 781 3322 
L 781 3738 
Q 781 4294 1070 4578 
Q 1359 4863 1919 4863 
Q 2128 4863 2337 4825 
Q 2547 4788 2753 4709 
L 2753 4078 
z
" transform="scale(0.015625)"/>
      <path id="Cmex10-a9" d="M 1631 -6425 
L 1631 -4556 
Q 1631 -4338 1503 -4159 
Q 1375 -3981 1184 -3867 
Q 994 -3753 756 -3675 
Q 709 -3650 709 -3622 
L 709 -3547 
Q 709 -3503 756 -3494 
Q 1128 -3366 1379 -3150 
Q 1631 -2934 1631 -2606 
L 1631 -738 
Q 1631 -325 2004 -95 
Q 2378 134 2888 256 
L 2963 256 
Q 2981 256 2998 242 
Q 3016 228 3016 206 
L 3016 128 
Q 3016 91 2975 78 
Q 2619 -31 2359 -232 
Q 2100 -434 2100 -750 
L 2100 -2619 
Q 2100 -2994 1804 -3214 
Q 1509 -3434 1056 -3584 
Q 1497 -3716 1798 -3939 
Q 2100 -4163 2100 -4544 
L 2100 -6413 
Q 2100 -6628 2231 -6790 
Q 2363 -6953 2556 -7059 
Q 2750 -7166 2975 -7238 
Q 3016 -7250 3016 -7291 
L 3016 -7366 
Q 3016 -7384 2998 -7401 
Q 2981 -7419 2963 -7419 
L 2888 -7419 
Q 2559 -7338 2292 -7227 
Q 2025 -7116 1828 -6914 
Q 1631 -6713 1631 -6425 
z
" transform="scale(0.015625)"/>
      <path id="Cmr10-31" d="M 594 0 
L 594 225 
Q 1394 225 1394 428 
L 1394 3788 
Q 1063 3628 556 3628 
L 556 3853 
Q 1341 3853 1741 4263 
L 1831 4263 
Q 1853 4263 1873 4245 
Q 1894 4228 1894 4206 
L 1894 428 
Q 1894 225 2694 225 
L 2694 0 
L 594 0 
z
" transform="scale(0.015625)"/>
      <path id="Cmmi10-3b" d="M 634 -1153 
Q 634 -1125 659 -1100 
Q 891 -878 1019 -587 
Q 1147 -297 1147 25 
L 1147 103 
Q 1044 0 891 0 
Q 744 0 641 103 
Q 538 206 538 353 
Q 538 503 641 603 
Q 744 703 891 703 
Q 1119 703 1216 492 
Q 1313 281 1313 25 
Q 1313 -331 1170 -651 
Q 1028 -972 769 -1228 
Q 744 -1241 728 -1241 
Q 697 -1241 665 -1212 
Q 634 -1184 634 -1153 
z
" transform="scale(0.015625)"/>
      <path id="Cmr10-32" d="M 319 0 
L 319 172 
Q 319 188 331 206 
L 1325 1306 
Q 1550 1550 1690 1715 
Q 1831 1881 1968 2097 
Q 2106 2313 2186 2536 
Q 2266 2759 2266 3009 
Q 2266 3272 2169 3511 
Q 2072 3750 1880 3894 
Q 1688 4038 1416 4038 
Q 1138 4038 916 3870 
Q 694 3703 603 3438 
Q 628 3444 672 3444 
Q 816 3444 917 3347 
Q 1019 3250 1019 3097 
Q 1019 2950 917 2848 
Q 816 2747 672 2747 
Q 522 2747 420 2851 
Q 319 2956 319 3097 
Q 319 3338 409 3548 
Q 500 3759 670 3923 
Q 841 4088 1055 4175 
Q 1269 4263 1509 4263 
Q 1875 4263 2190 4108 
Q 2506 3953 2690 3670 
Q 2875 3388 2875 3009 
Q 2875 2731 2753 2481 
Q 2631 2231 2440 2026 
Q 2250 1822 1953 1562 
Q 1656 1303 1563 1216 
L 838 519 
L 1453 519 
Q 1906 519 2211 526 
Q 2516 534 2534 550 
Q 2609 631 2688 1141 
L 2875 1141 
L 2694 0 
L 319 0 
z
" transform="scale(0.015625)"/>
      <path id="STIXGeneral-Regular-2026" d="M 5683 275 
Q 5683 134 5577 32 
Q 5472 -70 5325 -70 
Q 5178 -70 5075 32 
Q 4973 134 4973 281 
Q 4973 429 5078 534 
Q 5184 640 5331 640 
Q 5472 640 5577 531 
Q 5683 422 5683 275 
z
M 3552 275 
Q 3552 134 3446 32 
Q 3341 -70 3193 -70 
Q 3046 -70 2944 32 
Q 2842 134 2842 281 
Q 2842 429 2947 534 
Q 3053 640 3200 640 
Q 3341 640 3446 531 
Q 3552 422 3552 275 
z
M 1421 275 
Q 1421 134 1315 32 
Q 1210 -70 1062 -70 
Q 915 -70 812 32 
Q 710 134 710 281 
Q 710 429 816 534 
Q 922 640 1069 640 
Q 1210 640 1315 531 
Q 1421 422 1421 275 
z
" transform="scale(0.015625)"/>
      <path id="Cmmi10-6e" d="M 494 109 
Q 494 147 500 166 
L 978 2075 
Q 1025 2253 1025 2388 
Q 1025 2663 838 2663 
Q 638 2663 541 2423 
Q 444 2184 353 1819 
Q 353 1800 334 1789 
Q 316 1778 300 1778 
L 225 1778 
Q 203 1778 187 1801 
Q 172 1825 172 1844 
Q 241 2122 305 2315 
Q 369 2509 505 2668 
Q 641 2828 844 2828 
Q 1084 2828 1268 2676 
Q 1453 2525 1453 2291 
Q 1644 2541 1900 2684 
Q 2156 2828 2444 2828 
Q 2672 2828 2837 2750 
Q 3003 2672 3095 2514 
Q 3188 2356 3188 2138 
Q 3188 1875 3070 1503 
Q 2953 1131 2778 672 
Q 2688 463 2688 288 
Q 2688 97 2834 97 
Q 3084 97 3251 365 
Q 3419 634 3488 941 
Q 3500 978 3541 978 
L 3616 978 
Q 3641 978 3658 962 
Q 3675 947 3675 922 
Q 3675 916 3669 903 
Q 3581 541 3364 234 
Q 3147 -72 2822 -72 
Q 2597 -72 2437 83 
Q 2278 238 2278 459 
Q 2278 578 2328 709 
Q 2409 919 2514 1209 
Q 2619 1500 2686 1765 
Q 2753 2031 2753 2234 
Q 2753 2413 2679 2538 
Q 2606 2663 2431 2663 
Q 2197 2663 2000 2559 
Q 1803 2456 1656 2286 
Q 1509 2116 1388 1881 
L 953 141 
Q 931 53 854 -9 
Q 778 -72 684 -72 
Q 606 -72 550 -22 
Q 494 28 494 109 
z
" transform="scale(0.015625)"/>
      <path id="Cmex10-aa" d="M 709 -7366 
L 709 -7291 
Q 709 -7247 756 -7238 
Q 1631 -6953 1631 -6413 
L 1631 -4544 
Q 1631 -3909 2669 -3584 
Q 2219 -3431 1925 -3209 
Q 1631 -2988 1631 -2619 
L 1631 -750 
Q 1631 -206 756 78 
Q 709 88 709 128 
L 709 206 
Q 709 256 769 256 
L 844 256 
Q 1359 131 1729 -97 
Q 2100 -325 2100 -738 
L 2100 -2606 
Q 2100 -2925 2354 -3142 
Q 2609 -3359 2975 -3494 
Q 3016 -3506 3016 -3547 
L 3016 -3622 
Q 3016 -3641 2975 -3675 
Q 2769 -3744 2566 -3864 
Q 2363 -3984 2231 -4161 
Q 2100 -4338 2100 -4556 
L 2100 -6425 
Q 2100 -6713 1901 -6914 
Q 1703 -7116 1437 -7227 
Q 1172 -7338 844 -7419 
L 769 -7419 
Q 744 -7419 726 -7401 
Q 709 -7384 709 -7366 
z
" transform="scale(0.015625)"/>
      <path id="DejaVuSerif-5c" d="M 500 4666 
L 2156 -594 
L 1656 -594 
L 0 4666 
L 500 4666 
z
" transform="scale(0.015625)"/>
      <path id="DejaVuSerif-6d" d="M 3316 2675 
Q 3481 3041 3739 3227 
Q 3997 3413 4341 3413 
Q 4863 3413 5119 3089 
Q 5375 2766 5375 2113 
L 5375 331 
L 5894 331 
L 5894 0 
L 4300 0 
L 4300 331 
L 4800 331 
L 4800 2047 
Q 4800 2556 4650 2772 
Q 4500 2988 4153 2988 
Q 3769 2988 3567 2697 
Q 3366 2406 3366 1850 
L 3366 331 
L 3866 331 
L 3866 0 
L 2291 0 
L 2291 331 
L 2791 331 
L 2791 2069 
Q 2791 2566 2641 2777 
Q 2491 2988 2144 2988 
Q 1759 2988 1557 2697 
Q 1356 2406 1356 1850 
L 1356 331 
L 1856 331 
L 1856 0 
L 263 0 
L 263 331 
L 781 331 
L 781 2994 
L 231 2994 
L 231 3322 
L 1356 3322 
L 1356 2731 
Q 1516 3063 1762 3238 
Q 2009 3413 2322 3413 
Q 2709 3413 2968 3220 
Q 3228 3028 3316 2675 
z
" transform="scale(0.015625)"/>
      <path id="DejaVuSerif-70" d="M 1313 1825 
L 1313 1497 
Q 1313 897 1542 583 
Q 1772 269 2209 269 
Q 2650 269 2876 622 
Q 3103 975 3103 1663 
Q 3103 2353 2876 2703 
Q 2650 3053 2209 3053 
Q 1772 3053 1542 2737 
Q 1313 2422 1313 1825 
z
M 738 2988 
L 184 2988 
L 184 3322 
L 1313 3322 
L 1313 2803 
Q 1481 3116 1742 3264 
Q 2003 3413 2388 3413 
Q 3000 3413 3387 2928 
Q 3775 2444 3775 1663 
Q 3775 881 3387 395 
Q 3000 -91 2388 -91 
Q 2003 -91 1742 57 
Q 1481 206 1313 519 
L 1313 -997 
L 1856 -997 
L 1856 -1331 
L 184 -1331 
L 184 -997 
L 738 -997 
L 738 2988 
z
" transform="scale(0.015625)"/>
      <path id="DejaVuSerif-68" d="M 263 0 
L 263 331 
L 781 331 
L 781 4531 
L 231 4531 
L 231 4863 
L 1356 4863 
L 1356 2731 
Q 1516 3069 1770 3241 
Q 2025 3413 2363 3413 
Q 2913 3413 3172 3097 
Q 3431 2781 3431 2113 
L 3431 331 
L 3944 331 
L 3944 0 
L 2356 0 
L 2356 331 
L 2853 331 
L 2853 1931 
Q 2853 2541 2704 2764 
Q 2556 2988 2175 2988 
Q 1775 2988 1565 2697 
Q 1356 2406 1356 1850 
L 1356 331 
L 1856 331 
L 1856 0 
L 263 0 
z
" transform="scale(0.015625)"/>
      <path id="DejaVuSerif-7b" d="M 3272 -716 
L 3272 -1044 
L 3078 -1044 
Q 2300 -1044 2036 -812 
Q 1772 -581 1772 109 
L 1772 916 
Q 1772 1384 1603 1565 
Q 1434 1747 991 1747 
L 800 1747 
L 800 2075 
L 991 2075 
Q 1434 2075 1603 2256 
Q 1772 2438 1772 2906 
L 1772 3713 
Q 1772 4403 2036 4633 
Q 2300 4863 3078 4863 
L 3272 4863 
L 3272 4538 
L 3059 4538 
Q 2619 4538 2484 4400 
Q 2350 4263 2350 3822 
L 2350 2925 
Q 2350 2431 2194 2218 
Q 2038 2006 1631 1913 
Q 2044 1806 2197 1597 
Q 2350 1388 2350 897 
L 2350 0 
Q 2350 -441 2484 -578 
Q 2619 -716 3059 -716 
L 3272 -716 
z
" transform="scale(0.015625)"/>
      <path id="DejaVuSerif-64" d="M 3359 331 
L 3909 331 
L 3909 0 
L 2784 0 
L 2784 519 
Q 2616 206 2355 57 
Q 2094 -91 1709 -91 
Q 1097 -91 708 395 
Q 319 881 319 1663 
Q 319 2444 706 2928 
Q 1094 3413 1709 3413 
Q 2094 3413 2355 3264 
Q 2616 3116 2784 2803 
L 2784 4531 
L 2241 4531 
L 2241 4863 
L 3359 4863 
L 3359 331 
z
M 2784 1497 
L 2784 1825 
Q 2784 2422 2554 2737 
Q 2325 3053 1888 3053 
Q 1444 3053 1217 2703 
Q 991 2353 991 1663 
Q 991 975 1217 622 
Q 1444 269 1888 269 
Q 2325 269 2554 583 
Q 2784 897 2784 1497 
z
" transform="scale(0.015625)"/>
      <path id="DejaVuSerif-69" d="M 622 4353 
Q 622 4497 726 4603 
Q 831 4709 978 4709 
Q 1122 4709 1226 4603 
Q 1331 4497 1331 4353 
Q 1331 4206 1228 4103 
Q 1125 4000 978 4000 
Q 831 4000 726 4103 
Q 622 4206 622 4353 
z
M 1356 331 
L 1900 331 
L 1900 0 
L 231 0 
L 231 331 
L 781 331 
L 781 2988 
L 231 2988 
L 231 3322 
L 1356 3322 
L 1356 331 
z
" transform="scale(0.015625)"/>
      <path id="DejaVuSerif-63" d="M 3291 997 
Q 3169 466 2822 187 
Q 2475 -91 1925 -91 
Q 1200 -91 759 389 
Q 319 869 319 1663 
Q 319 2459 759 2936 
Q 1200 3413 1925 3413 
Q 2241 3413 2553 3339 
Q 2866 3266 3181 3116 
L 3181 2266 
L 2847 2266 
Q 2781 2703 2561 2903 
Q 2341 3103 1931 3103 
Q 1466 3103 1228 2742 
Q 991 2381 991 1663 
Q 991 944 1227 581 
Q 1463 219 1931 219 
Q 2303 219 2525 412 
Q 2747 606 2828 997 
L 3291 997 
z
" transform="scale(0.015625)"/>
      <path id="DejaVuSerif-72" d="M 3059 3328 
L 3059 2497 
L 2728 2497 
Q 2713 2744 2591 2866 
Q 2469 2988 2234 2988 
Q 1809 2988 1582 2694 
Q 1356 2400 1356 1850 
L 1356 331 
L 2022 331 
L 2022 0 
L 263 0 
L 263 331 
L 781 331 
L 781 2994 
L 231 2994 
L 231 3322 
L 1356 3322 
L 1356 2731 
Q 1525 3078 1790 3245 
Q 2056 3413 2438 3413 
Q 2578 3413 2733 3391 
Q 2888 3369 3059 3328 
z
" transform="scale(0.015625)"/>
      <path id="DejaVuSerif-7d" d="M 800 -716 
L 1019 -716 
Q 1456 -716 1589 -580 
Q 1722 -444 1722 0 
L 1722 897 
Q 1722 1388 1875 1597 
Q 2028 1806 2438 1913 
Q 2031 2006 1876 2218 
Q 1722 2431 1722 2925 
L 1722 3822 
Q 1722 4266 1589 4402 
Q 1456 4538 1019 4538 
L 800 4538 
L 800 4863 
L 997 4863 
Q 1775 4863 2036 4633 
Q 2297 4403 2297 3713 
L 2297 2906 
Q 2297 2438 2465 2256 
Q 2634 2075 3078 2075 
L 3272 2075 
L 3272 1747 
L 3078 1747 
Q 2634 1747 2465 1565 
Q 2297 1384 2297 916 
L 2297 109 
Q 2297 -581 2036 -812 
Q 1775 -1044 997 -1044 
L 800 -1044 
L 800 -716 
z
" transform="scale(0.015625)"/>
      <path id="DejaVuSerif-77" d="M 3072 3322 
L 3922 728 
L 4672 2988 
L 4191 2988 
L 4191 3322 
L 5394 3322 
L 5394 2988 
L 5025 2988 
L 4038 0 
L 3559 0 
L 2741 2484 
L 1919 0 
L 1459 0 
L 475 2988 
L 103 2988 
L 103 3322 
L 1606 3322 
L 1606 2988 
L 1069 2988 
L 1813 728 
L 2669 3322 
L 3072 3322 
z
" transform="scale(0.015625)"/>
      <path id="DejaVuSerif-6e" d="M 263 0 
L 263 331 
L 781 331 
L 781 2988 
L 231 2988 
L 231 3322 
L 1356 3322 
L 1356 2731 
Q 1516 3069 1770 3241 
Q 2025 3413 2363 3413 
Q 2913 3413 3172 3097 
Q 3431 2781 3431 2113 
L 3431 331 
L 3944 331 
L 3944 0 
L 2356 0 
L 2356 331 
L 2853 331 
L 2853 1931 
Q 2853 2541 2703 2767 
Q 2553 2994 2175 2994 
Q 1775 2994 1565 2701 
Q 1356 2409 1356 1850 
L 1356 331 
L 1856 331 
L 1856 0 
L 263 0 
z
" transform="scale(0.015625)"/>
      <path id="DejaVuSerif-67" d="M 3359 2988 
L 3359 72 
Q 3359 -644 2965 -1033 
Q 2572 -1422 1844 -1422 
Q 1516 -1422 1216 -1362 
Q 916 -1303 641 -1184 
L 641 -488 
L 941 -488 
Q 997 -813 1206 -963 
Q 1416 -1113 1806 -1113 
Q 2313 -1113 2548 -827 
Q 2784 -541 2784 72 
L 2784 519 
Q 2616 206 2355 57 
Q 2094 -91 1709 -91 
Q 1097 -91 708 395 
Q 319 881 319 1663 
Q 319 2444 706 2928 
Q 1094 3413 1709 3413 
Q 2094 3413 2355 3264 
Q 2616 3116 2784 2803 
L 2784 3322 
L 3909 3322 
L 3909 2988 
L 3359 2988 
z
M 2784 1825 
Q 2784 2422 2554 2737 
Q 2325 3053 1888 3053 
Q 1444 3053 1217 2703 
Q 991 2353 991 1663 
Q 991 975 1217 622 
Q 1444 269 1888 269 
Q 2325 269 2554 583 
Q 2784 897 2784 1497 
L 2784 1825 
z
" transform="scale(0.015625)"/>
      <path id="DejaVuSerif-79" d="M 1381 -609 
L 1600 -56 
L 359 2988 
L -19 2988 
L -19 3322 
L 1509 3322 
L 1509 2988 
L 978 2988 
L 1913 703 
L 2847 2988 
L 2350 2988 
L 2350 3322 
L 3597 3322 
L 3597 2988 
L 3225 2988 
L 1703 -750 
Q 1547 -1138 1356 -1280 
Q 1166 -1422 819 -1422 
Q 672 -1422 517 -1397 
Q 363 -1372 206 -1325 
L 206 -691 
L 500 -691 
Q 519 -903 608 -995 
Q 697 -1088 884 -1088 
Q 1056 -1088 1161 -992 
Q 1266 -897 1381 -609 
z
" transform="scale(0.015625)"/>
      <path id="DejaVuSerif-3a" d="M 666 325 
Q 666 500 786 622 
Q 906 744 1081 744 
Q 1256 744 1376 622 
Q 1497 500 1497 325 
Q 1497 150 1378 29 
Q 1259 -91 1081 -91 
Q 903 -91 784 29 
Q 666 150 666 325 
z
M 666 2363 
Q 666 2538 786 2658 
Q 906 2778 1081 2778 
Q 1259 2778 1378 2659 
Q 1497 2541 1497 2363 
Q 1497 2184 1378 2065 
Q 1259 1947 1081 1947 
Q 906 1947 786 2067 
Q 666 2188 666 2363 
z
" transform="scale(0.015625)"/>
      <path id="DejaVuSerif-57" d="M 4878 0 
L 4366 0 
L 3297 3794 
L 2228 0 
L 1716 0 
L 494 4331 
L 31 4331 
L 31 4666 
L 1734 4666 
L 1734 4331 
L 1153 4331 
L 2125 884 
L 3188 4666 
L 3694 4666 
L 4775 844 
L 5753 4331 
L 5216 4331 
L 5216 4666 
L 6559 4666 
L 6559 4331 
L 6100 4331 
L 4878 0 
z
" transform="scale(0.015625)"/>
      <path id="DejaVuSerif-76" d="M 1581 0 
L 359 2988 
L -19 2988 
L -19 3322 
L 1509 3322 
L 1509 2988 
L 978 2988 
L 1913 703 
L 2847 2988 
L 2350 2988 
L 2350 3322 
L 3597 3322 
L 3597 2988 
L 3225 2988 
L 2003 0 
L 1581 0 
z
" transform="scale(0.015625)"/>
      <path id="Cmmi10-61" d="M 1113 -72 
Q 709 -72 476 233 
Q 244 538 244 953 
Q 244 1363 456 1803 
Q 669 2244 1030 2536 
Q 1391 2828 1806 2828 
Q 1997 2828 2147 2725 
Q 2297 2622 2381 2444 
Q 2453 2700 2663 2700 
Q 2744 2700 2798 2651 
Q 2853 2603 2853 2522 
Q 2853 2503 2851 2493 
Q 2850 2484 2847 2472 
L 2400 684 
Q 2356 494 2356 372 
Q 2356 97 2541 97 
Q 2741 97 2845 351 
Q 2950 606 3022 941 
Q 3034 978 3072 978 
L 3150 978 
Q 3175 978 3190 956 
Q 3206 934 3206 916 
Q 3094 469 2961 198 
Q 2828 -72 2528 -72 
Q 2313 -72 2147 54 
Q 1981 181 1941 391 
Q 1528 -72 1113 -72 
z
M 1119 97 
Q 1350 97 1567 270 
Q 1784 444 1941 678 
Q 1947 684 1947 697 
L 2291 2088 
L 2297 2106 
Q 2259 2334 2132 2498 
Q 2006 2663 1791 2663 
Q 1575 2663 1389 2486 
Q 1203 2309 1075 2069 
Q 950 1813 836 1366 
Q 722 919 722 672 
Q 722 450 817 273 
Q 913 97 1119 97 
z
" transform="scale(0.015625)"/>
      <path id="Cmmi10-62" d="M 1106 -72 
Q 719 -72 503 231 
Q 288 534 288 941 
Q 288 1000 317 1173 
Q 347 1347 347 1388 
L 966 3872 
Q 991 3981 997 4044 
Q 997 4147 581 4147 
Q 519 4147 519 4231 
Q 522 4247 533 4287 
Q 544 4328 561 4350 
Q 578 4372 609 4372 
L 1472 4441 
Q 1550 4441 1550 4359 
L 1075 2472 
Q 1438 2828 1806 2828 
Q 2078 2828 2273 2684 
Q 2469 2541 2566 2306 
Q 2663 2072 2663 1806 
Q 2663 1497 2542 1167 
Q 2422 838 2209 555 
Q 1997 272 1712 100 
Q 1428 -72 1106 -72 
z
M 1119 97 
Q 1338 97 1528 280 
Q 1719 463 1838 691 
Q 1966 947 2077 1386 
Q 2188 1825 2188 2088 
Q 2188 2316 2092 2489 
Q 1997 2663 1791 2663 
Q 1559 2663 1348 2492 
Q 1138 2322 978 2088 
L 800 1363 
Q 697 959 691 716 
Q 691 475 795 286 
Q 900 97 1119 97 
z
" transform="scale(0.015625)"/>
      <path id="DejaVuSerif-2c" d="M 231 -622 
Q 525 -406 662 -114 
Q 800 178 800 594 
L 800 709 
L 1416 709 
Q 1391 175 1164 -208 
Q 938 -591 481 -872 
L 231 -622 
z
" transform="scale(0.015625)"/>
      <path id="DejaVuSerif-2e" d="M 603 325 
Q 603 500 722 622 
Q 841 744 1019 744 
Q 1191 744 1312 622 
Q 1434 500 1434 325 
Q 1434 153 1312 31 
Q 1191 -91 1019 -91 
Q 841 -91 722 29 
Q 603 150 603 325 
z
" transform="scale(0.015625)"/>
      <path id="DejaVuSerif-4c" d="M 353 0 
L 353 331 
L 947 331 
L 947 4331 
L 353 4331 
L 353 4666 
L 2175 4666 
L 2175 4331 
L 1581 4331 
L 1581 384 
L 3713 384 
L 3713 1166 
L 4097 1166 
L 4097 0 
L 353 0 
z
" transform="scale(0.015625)"/>
      <path id="Cmmi10-41" d="M 288 0 
Q 225 0 225 84 
Q 250 225 306 225 
Q 566 225 755 328 
Q 944 431 1081 647 
Q 1094 659 1094 659 
L 3378 4513 
Q 3428 4581 3500 4581 
L 3584 4581 
Q 3603 4581 3622 4573 
Q 3641 4566 3655 4548 
Q 3669 4531 3669 4513 
L 4056 378 
Q 4056 350 4084 294 
Q 4147 225 4563 225 
Q 4628 225 4628 141 
Q 4606 56 4592 28 
Q 4578 0 4519 0 
L 2919 0 
Q 2859 0 2859 84 
Q 2894 225 2944 225 
Q 3450 225 3481 397 
L 3384 1453 
L 1806 1453 
L 1294 594 
Q 1247 525 1247 434 
Q 1247 322 1355 273 
Q 1463 225 1594 225 
Q 1656 225 1656 141 
Q 1634 50 1621 25 
Q 1609 0 1550 0 
L 288 0 
z
M 1931 1678 
L 3359 1678 
L 3169 3750 
L 1931 1678 
z
" transform="scale(0.015625)"/>
      <path id="Cmr10-28" d="M 1984 -1588 
Q 1628 -1306 1370 -942 
Q 1113 -578 948 -165 
Q 784 247 703 697 
Q 622 1147 622 1600 
Q 622 2059 703 2509 
Q 784 2959 951 3375 
Q 1119 3791 1378 4153 
Q 1638 4516 1984 4788 
Q 1984 4800 2016 4800 
L 2075 4800 
Q 2094 4800 2109 4783 
Q 2125 4766 2125 4744 
Q 2125 4716 2113 4703 
Q 1800 4397 1592 4047 
Q 1384 3697 1257 3301 
Q 1131 2906 1075 2482 
Q 1019 2059 1019 1600 
Q 1019 -434 2106 -1491 
Q 2125 -1509 2125 -1544 
Q 2125 -1559 2108 -1579 
Q 2091 -1600 2075 -1600 
L 2016 -1600 
Q 1984 -1600 1984 -1588 
z
" transform="scale(0.015625)"/>
      <path id="Cmr10-29" d="M 416 -1600 
Q 359 -1600 359 -1544 
Q 359 -1516 372 -1503 
Q 1466 -434 1466 1600 
Q 1466 3634 384 4691 
Q 359 4706 359 4744 
Q 359 4766 376 4783 
Q 394 4800 416 4800 
L 475 4800 
Q 494 4800 506 4788 
Q 966 4425 1272 3906 
Q 1578 3388 1720 2800 
Q 1863 2213 1863 1600 
Q 1863 1147 1786 708 
Q 1709 269 1542 -157 
Q 1375 -584 1119 -945 
Q 863 -1306 506 -1588 
Q 494 -1600 475 -1600 
L 416 -1600 
z
" transform="scale(0.015625)"/>
      <path id="DejaVuSerif-5b" d="M 550 4863 
L 2003 4863 
L 2003 4531 
L 1147 4531 
L 1147 -513 
L 2003 -513 
L 2003 -844 
L 550 -844 
L 550 4863 
z
" transform="scale(0.015625)"/>
      <path id="DejaVuSerif-46" d="M 353 0 
L 353 331 
L 947 331 
L 947 4331 
L 353 4331 
L 353 4666 
L 4172 4666 
L 4172 3628 
L 3788 3628 
L 3788 4281 
L 1581 4281 
L 1581 2719 
L 3175 2719 
L 3175 3303 
L 3559 3303 
L 3559 1753 
L 3175 1753 
L 3175 2338 
L 1581 2338 
L 1581 331 
L 2328 331 
L 2328 0 
L 353 0 
z
" transform="scale(0.015625)"/>
      <path id="Cmr10-33" d="M 609 494 
Q 759 275 1012 169 
Q 1266 63 1556 63 
Q 1928 63 2084 380 
Q 2241 697 2241 1100 
Q 2241 1281 2208 1462 
Q 2175 1644 2097 1800 
Q 2019 1956 1883 2050 
Q 1747 2144 1550 2144 
L 1125 2144 
Q 1069 2144 1069 2203 
L 1069 2259 
Q 1069 2309 1125 2309 
L 1478 2338 
Q 1703 2338 1851 2506 
Q 2000 2675 2069 2917 
Q 2138 3159 2138 3378 
Q 2138 3684 1994 3881 
Q 1850 4078 1556 4078 
Q 1313 4078 1091 3986 
Q 869 3894 738 3706 
Q 750 3709 759 3711 
Q 769 3713 781 3713 
Q 925 3713 1022 3613 
Q 1119 3513 1119 3372 
Q 1119 3234 1022 3134 
Q 925 3034 781 3034 
Q 641 3034 541 3134 
Q 441 3234 441 3372 
Q 441 3647 606 3850 
Q 772 4053 1033 4158 
Q 1294 4263 1556 4263 
Q 1750 4263 1965 4205 
Q 2181 4147 2356 4039 
Q 2531 3931 2642 3762 
Q 2753 3594 2753 3378 
Q 2753 3109 2633 2881 
Q 2513 2653 2303 2487 
Q 2094 2322 1844 2241 
Q 2122 2188 2372 2031 
Q 2622 1875 2773 1631 
Q 2925 1388 2925 1106 
Q 2925 753 2731 467 
Q 2538 181 2222 20 
Q 1906 -141 1556 -141 
Q 1256 -141 954 -26 
Q 653 88 461 316 
Q 269 544 269 863 
Q 269 1022 375 1128 
Q 481 1234 641 1234 
Q 744 1234 830 1186 
Q 916 1138 964 1050 
Q 1013 963 1013 863 
Q 1013 706 903 600 
Q 794 494 641 494 
L 609 494 
z
" transform="scale(0.015625)"/>
      <path id="DejaVuSerif-78" d="M 1863 2028 
L 2559 2988 
L 2113 2988 
L 2113 3322 
L 3391 3322 
L 3391 2988 
L 2950 2988 
L 2059 1759 
L 3097 331 
L 3531 331 
L 3531 0 
L 1997 0 
L 1997 331 
L 2419 331 
L 1697 1325 
L 972 331 
L 1403 331 
L 1403 0 
L 141 0 
L 141 331 
L 581 331 
L 1497 1594 
L 488 2988 
L 78 2988 
L 78 3322 
L 1563 3322 
L 1563 2988 
L 1166 2988 
L 1863 2028 
z
" transform="scale(0.015625)"/>
      <path id="Cmr10-3d" d="M 481 850 
Q 428 850 393 890 
Q 359 931 359 978 
Q 359 1031 393 1068 
Q 428 1106 481 1106 
L 4500 1106 
Q 4547 1106 4581 1068 
Q 4616 1031 4616 978 
Q 4616 931 4581 890 
Q 4547 850 4500 850 
L 481 850 
z
M 481 2094 
Q 428 2094 393 2131 
Q 359 2169 359 2222 
Q 359 2269 393 2309 
Q 428 2350 481 2350 
L 4500 2350 
Q 4547 2350 4581 2309 
Q 4616 2269 4616 2222 
Q 4616 2169 4581 2131 
Q 4547 2094 4500 2094 
L 481 2094 
z
" transform="scale(0.015625)"/>
      <path id="Cmr10-37" d="M 1113 166 
Q 1113 522 1175 862 
Q 1238 1203 1358 1536 
Q 1478 1869 1648 2189 
Q 1819 2509 2022 2791 
L 2606 3603 
L 1875 3603 
Q 738 3603 703 3572 
Q 619 3469 544 2981 
L 359 2981 
L 569 4325 
L 756 4325 
L 756 4306 
Q 756 4191 1147 4156 
Q 1538 4122 1913 4122 
L 3103 4122 
L 3103 3956 
Q 3103 3950 3101 3947 
Q 3100 3944 3097 3938 
L 2216 2700 
Q 1891 2219 1809 1631 
Q 1728 1044 1728 166 
Q 1728 41 1637 -50 
Q 1547 -141 1422 -141 
Q 1294 -141 1203 -50 
Q 1113 41 1113 166 
z
" transform="scale(0.015625)"/>
      <path id="DejaVuSerif-5d" d="M 1947 4863 
L 1947 -844 
L 494 -844 
L 494 -513 
L 1350 -513 
L 1350 4531 
L 494 4531 
L 494 4863 
L 1947 4863 
z
" transform="scale(0.015625)"/>
      <path id="Cmr10-2b" d="M 481 1472 
Q 428 1472 393 1512 
Q 359 1553 359 1600 
Q 359 1647 393 1687 
Q 428 1728 481 1728 
L 2363 1728 
L 2363 3616 
Q 2363 3666 2400 3698 
Q 2438 3731 2491 3731 
Q 2538 3731 2578 3698 
Q 2619 3666 2619 3616 
L 2619 1728 
L 4500 1728 
Q 4547 1728 4581 1687 
Q 4616 1647 4616 1600 
Q 4616 1553 4581 1512 
Q 4547 1472 4500 1472 
L 2619 1472 
L 2619 -416 
Q 2619 -466 2578 -498 
Q 2538 -531 2491 -531 
Q 2438 -531 2400 -498 
Q 2363 -466 2363 -416 
L 2363 1472 
L 481 1472 
z
" transform="scale(0.015625)"/>
      <path id="Cmsy10-a1" d="M 653 1472 
Q 600 1472 565 1512 
Q 531 1553 531 1600 
Q 531 1647 565 1687 
Q 600 1728 653 1728 
L 4325 1728 
Q 4375 1728 4408 1687 
Q 4441 1647 4441 1600 
Q 4441 1553 4408 1512 
Q 4375 1472 4325 1472 
L 653 1472 
z
" transform="scale(0.015625)"/>
     </defs>
     <use xlink:href="#DejaVuSerif-43" transform="translate(0 0.705729)"/>
     <use xlink:href="#DejaVuSerif-61" transform="translate(76.513672 0.705729)"/>
     <use xlink:href="#DejaVuSerif-6c" transform="translate(136.132812 0.705729)"/>
     <use xlink:href="#DejaVuSerif-6c" transform="translate(168.115234 0.705729)"/>
     <use xlink:href="#DejaVuSerif-20" transform="translate(200.097656 0.705729)"/>
     <use xlink:href="#DejaVuSerif-61" transform="translate(231.884766 0.705729)"/>
     <use xlink:href="#DejaVuSerif-20" transform="translate(291.503906 0.705729)"/>
     <use xlink:href="#DejaVuSerif-73" transform="translate(323.291016 0.705729)"/>
     <use xlink:href="#DejaVuSerif-75" transform="translate(374.609375 0.705729)"/>
     <use xlink:href="#DejaVuSerif-62" transform="translate(439.013672 0.705729)"/>
     <use xlink:href="#DejaVuSerif-73" transform="translate(503.027344 0.705729)"/>
     <use xlink:href="#DejaVuSerif-65" transform="translate(554.345703 0.705729)"/>
     <use xlink:href="#DejaVuSerif-74" transform="translate(613.525391 0.705729)"/>
     <use xlink:href="#DejaVuSerif-20" transform="translate(653.710938 0.705729)"/>
     <use xlink:href="#Cmmi10-53" transform="translate(685.498047 0.705729)"/>
     <use xlink:href="#DejaVuSerif-20" transform="translate(746.777344 0.705729)"/>
     <use xlink:href="#DejaVuSerif-6f" transform="translate(778.564453 0.705729)"/>
     <use xlink:href="#DejaVuSerif-66" transform="translate(838.769531 0.705729)"/>
     <use xlink:href="#DejaVuSerif-20" transform="translate(875.78125 0.705729)"/>
     <use xlink:href="#Cmex10-a9" transform="translate(907.568359 94)"/>
     <use xlink:href="#Cmr10-31" transform="translate(965.869141 0.705729)"/>
     <use xlink:href="#Cmmi10-3b" transform="translate(1015.869141 0.705729)"/>
     <use xlink:href="#Cmr10-32" transform="translate(1061.113281 0.705729)"/>
     <use xlink:href="#Cmmi10-3b" transform="translate(1111.113281 0.705729)"/>
     <use xlink:href="#STIXGeneral-Regular-2026" transform="translate(1173.916016 0.705729)"/>
     <use xlink:href="#Cmmi10-3b" transform="translate(1291.474594 0.705729)"/>
     <use xlink:href="#Cmmi10-6e" transform="translate(1336.718735 0.705729)"/>
     <use xlink:href="#Cmex10-aa" transform="translate(1396.7285 94)"/>
     <use xlink:href="#DejaVuSerif-20" transform="translate(1455.029282 0.705729)"/>
     <use xlink:href="#DejaVuSerif-5c" transform="translate(1486.816391 0.705729)"/>
     <use xlink:href="#DejaVuSerif-65" transform="translate(1520.507797 0.705729)"/>
     <use xlink:href="#DejaVuSerif-6d" transform="translate(1579.687485 0.705729)"/>
     <use xlink:href="#DejaVuSerif-70" transform="translate(1674.511703 0.705729)"/>
     <use xlink:href="#DejaVuSerif-68" transform="translate(1738.525375 0.705729)"/>
     <use xlink:href="#DejaVuSerif-7b" transform="translate(1802.929672 0.705729)"/>
     <use xlink:href="#DejaVuSerif-6d" transform="translate(1866.552719 0.705729)"/>
     <use xlink:href="#DejaVuSerif-65" transform="translate(1961.376938 0.705729)"/>
     <use xlink:href="#DejaVuSerif-64" transform="translate(2020.556625 0.705729)"/>
     <use xlink:href="#DejaVuSerif-69" transform="translate(2084.570297 0.705729)"/>
     <use xlink:href="#DejaVuSerif-6f" transform="translate(2116.552719 0.705729)"/>
     <use xlink:href="#DejaVuSerif-63" transform="translate(2176.757797 0.705729)"/>
     <use xlink:href="#DejaVuSerif-72" transform="translate(2232.763657 0.705729)"/>
     <use xlink:href="#DejaVuSerif-65" transform="translate(2280.566391 0.705729)"/>
     <use xlink:href="#DejaVuSerif-7d" transform="translate(2339.746078 0.705729)"/>
     <use xlink:href="#DejaVuSerif-20" transform="translate(2403.369125 0.705729)"/>
     <use xlink:href="#DejaVuSerif-69" transform="translate(2435.156235 0.705729)"/>
     <use xlink:href="#DejaVuSerif-66" transform="translate(2467.138657 0.705729)"/>
     <use xlink:href="#DejaVuSerif-20" transform="translate(2504.150375 0.705729)"/>
     <use xlink:href="#DejaVuSerif-69" transform="translate(2535.937485 0.705729)"/>
     <use xlink:href="#DejaVuSerif-74" transform="translate(2567.919907 0.705729)"/>
     <use xlink:href="#DejaVuSerif-20" transform="translate(2608.105453 0.705729)"/>
     <use xlink:href="#DejaVuSerif-68" transform="translate(2639.892563 0.705729)"/>
     <use xlink:href="#DejaVuSerif-61" transform="translate(2704.29686 0.705729)"/>
     <use xlink:href="#DejaVuSerif-73" transform="translate(2763.916 0.705729)"/>
     <use xlink:href="#DejaVuSerif-20" transform="translate(2815.23436 0.705729)"/>
     <use xlink:href="#DejaVuSerif-74" transform="translate(2847.021469 0.705729)"/>
     <use xlink:href="#DejaVuSerif-68" transform="translate(2887.207016 0.705729)"/>
     <use xlink:href="#DejaVuSerif-65" transform="translate(2951.611313 0.705729)"/>
     <use xlink:href="#DejaVuSerif-20" transform="translate(3010.791 0.705729)"/>
     <use xlink:href="#DejaVuSerif-66" transform="translate(3042.57811 0.705729)"/>
     <use xlink:href="#DejaVuSerif-6f" transform="translate(3079.589828 0.705729)"/>
     <use xlink:href="#DejaVuSerif-6c" transform="translate(3139.794907 0.705729)"/>
     <use xlink:href="#DejaVuSerif-6c" transform="translate(3171.777328 0.705729)"/>
     <use xlink:href="#DejaVuSerif-6f" transform="translate(3203.75975 0.705729)"/>
     <use xlink:href="#DejaVuSerif-77" transform="translate(3263.964828 0.705729)"/>
     <use xlink:href="#DejaVuSerif-69" transform="translate(3349.560532 0.705729)"/>
     <use xlink:href="#DejaVuSerif-6e" transform="translate(3381.542953 0.705729)"/>
     <use xlink:href="#DejaVuSerif-67" transform="translate(3445.94725 0.705729)"/>
     <use xlink:href="#DejaVuSerif-20" transform="translate(3509.960922 0.705729)"/>
     <use xlink:href="#DejaVuSerif-70" transform="translate(3541.748032 0.705729)"/>
     <use xlink:href="#DejaVuSerif-72" transform="translate(3605.761703 0.705729)"/>
     <use xlink:href="#DejaVuSerif-6f" transform="translate(3653.564438 0.705729)"/>
     <use xlink:href="#DejaVuSerif-70" transform="translate(3713.769516 0.705729)"/>
     <use xlink:href="#DejaVuSerif-65" transform="translate(3777.783188 0.705729)"/>
     <use xlink:href="#DejaVuSerif-72" transform="translate(3836.962875 0.705729)"/>
     <use xlink:href="#DejaVuSerif-74" transform="translate(3884.76561 0.705729)"/>
     <use xlink:href="#DejaVuSerif-79" transform="translate(3924.951157 0.705729)"/>
     <use xlink:href="#DejaVuSerif-3a" transform="translate(3981.445297 0.705729)"/>
     <use xlink:href="#DejaVuSerif-20" transform="translate(4015.136703 0.705729)"/>
     <use xlink:href="#DejaVuSerif-57" transform="translate(4046.923813 0.705729)"/>
     <use xlink:href="#DejaVuSerif-68" transform="translate(4149.707016 0.705729)"/>
     <use xlink:href="#DejaVuSerif-65" transform="translate(4214.111313 0.705729)"/>
     <use xlink:href="#DejaVuSerif-6e" transform="translate(4273.291 0.705729)"/>
     <use xlink:href="#DejaVuSerif-65" transform="translate(4337.695297 0.705729)"/>
     <use xlink:href="#DejaVuSerif-76" transform="translate(4396.874985 0.705729)"/>
     <use xlink:href="#DejaVuSerif-65" transform="translate(4453.369125 0.705729)"/>
     <use xlink:href="#DejaVuSerif-72" transform="translate(4512.548813 0.705729)"/>
     <use xlink:href="#DejaVuSerif-20" transform="translate(4560.351547 0.705729)"/>
     <use xlink:href="#Cmmi10-61" transform="translate(4592.138657 0.705729)"/>
     <use xlink:href="#DejaVuSerif-20" transform="translate(4644.92186 0.705729)"/>
     <use xlink:href="#DejaVuSerif-61" transform="translate(4676.708969 0.705729)"/>
     <use xlink:href="#DejaVuSerif-6e" transform="translate(4736.32811 0.705729)"/>
     <use xlink:href="#DejaVuSerif-64" transform="translate(4800.732407 0.705729)"/>
     <use xlink:href="#DejaVuSerif-20" transform="translate(4864.746078 0.705729)"/>
     <use xlink:href="#Cmmi10-62" transform="translate(4896.533188 0.705729)"/>
     <use xlink:href="#DejaVuSerif-20" transform="translate(4939.45311 0.705729)"/>
     <use xlink:href="#DejaVuSerif-61" transform="translate(4971.240219 0.705729)"/>
     <use xlink:href="#DejaVuSerif-72" transform="translate(5030.85936 0.705729)"/>
     <use xlink:href="#DejaVuSerif-65" transform="translate(5078.662094 0.705729)"/>
     <use xlink:href="#DejaVuSerif-20" transform="translate(5137.841782 0.705729)"/>
     <use xlink:href="#DejaVuSerif-65" transform="translate(5169.628891 0.705729)"/>
     <use xlink:href="#DejaVuSerif-6c" transform="translate(5228.808578 0.705729)"/>
     <use xlink:href="#DejaVuSerif-65" transform="translate(5260.791 0.705729)"/>
     <use xlink:href="#DejaVuSerif-6d" transform="translate(5319.970688 0.705729)"/>
     <use xlink:href="#DejaVuSerif-65" transform="translate(5414.794907 0.705729)"/>
     <use xlink:href="#DejaVuSerif-6e" transform="translate(5473.974594 0.705729)"/>
     <use xlink:href="#DejaVuSerif-74" transform="translate(5538.378891 0.705729)"/>
     <use xlink:href="#DejaVuSerif-73" transform="translate(5578.564438 0.705729)"/>
     <use xlink:href="#DejaVuSerif-20" transform="translate(5629.882797 0.705729)"/>
     <use xlink:href="#DejaVuSerif-6f" transform="translate(5661.669907 0.705729)"/>
     <use xlink:href="#DejaVuSerif-66" transform="translate(5721.874985 0.705729)"/>
     <use xlink:href="#DejaVuSerif-20" transform="translate(5758.886703 0.705729)"/>
     <use xlink:href="#Cmmi10-53" transform="translate(5790.673813 0.705729)"/>
     <use xlink:href="#DejaVuSerif-20" transform="translate(5851.95311 0.705729)"/>
     <use xlink:href="#DejaVuSerif-77" transform="translate(5883.740219 0.705729)"/>
     <use xlink:href="#DejaVuSerif-68" transform="translate(5969.335922 0.705729)"/>
     <use xlink:href="#DejaVuSerif-6f" transform="translate(6033.740219 0.705729)"/>
     <use xlink:href="#DejaVuSerif-73" transform="translate(6093.945297 0.705729)"/>
     <use xlink:href="#DejaVuSerif-65" transform="translate(6145.263657 0.705729)"/>
     <use xlink:href="#DejaVuSerif-20" transform="translate(6204.443344 0.705729)"/>
     <use xlink:href="#DejaVuSerif-61" transform="translate(6236.230453 0.705729)"/>
     <use xlink:href="#DejaVuSerif-76" transform="translate(6295.849594 0.705729)"/>
     <use xlink:href="#DejaVuSerif-65" transform="translate(6352.343735 0.705729)"/>
     <use xlink:href="#DejaVuSerif-72" transform="translate(6411.523422 0.705729)"/>
     <use xlink:href="#DejaVuSerif-61" transform="translate(6459.326157 0.705729)"/>
     <use xlink:href="#DejaVuSerif-67" transform="translate(6518.945297 0.705729)"/>
     <use xlink:href="#DejaVuSerif-65" transform="translate(6582.958969 0.705729)"/>
     <use xlink:href="#DejaVuSerif-20" transform="translate(6642.138657 0.705729)"/>
     <use xlink:href="#DejaVuSerif-69" transform="translate(6673.925766 0.705729)"/>
     <use xlink:href="#DejaVuSerif-73" transform="translate(6705.908188 0.705729)"/>
     <use xlink:href="#DejaVuSerif-20" transform="translate(6757.226547 0.705729)"/>
     <use xlink:href="#DejaVuSerif-61" transform="translate(6789.013657 0.705729)"/>
     <use xlink:href="#DejaVuSerif-6e" transform="translate(6848.632797 0.705729)"/>
     <use xlink:href="#DejaVuSerif-20" transform="translate(6913.037094 0.705729)"/>
     <use xlink:href="#DejaVuSerif-69" transform="translate(6944.824203 0.705729)"/>
     <use xlink:href="#DejaVuSerif-6e" transform="translate(6976.806625 0.705729)"/>
     <use xlink:href="#DejaVuSerif-74" transform="translate(7041.210922 0.705729)"/>
     <use xlink:href="#DejaVuSerif-65" transform="translate(7081.396469 0.705729)"/>
     <use xlink:href="#DejaVuSerif-67" transform="translate(7140.576157 0.705729)"/>
     <use xlink:href="#DejaVuSerif-65" transform="translate(7204.589828 0.705729)"/>
     <use xlink:href="#DejaVuSerif-72" transform="translate(7263.769516 0.705729)"/>
     <use xlink:href="#DejaVuSerif-2c" transform="translate(7311.57225 0.705729)"/>
     <use xlink:href="#DejaVuSerif-20" transform="translate(7343.35936 0.705729)"/>
     <use xlink:href="#DejaVuSerif-74" transform="translate(7375.146469 0.705729)"/>
     <use xlink:href="#DejaVuSerif-68" transform="translate(7415.332016 0.705729)"/>
     <use xlink:href="#DejaVuSerif-61" transform="translate(7479.736313 0.705729)"/>
     <use xlink:href="#DejaVuSerif-74" transform="translate(7539.355453 0.705729)"/>
     <use xlink:href="#DejaVuSerif-20" transform="translate(7579.541 0.705729)"/>
     <use xlink:href="#DejaVuSerif-61" transform="translate(7611.32811 0.705729)"/>
     <use xlink:href="#DejaVuSerif-76" transform="translate(7670.94725 0.705729)"/>
     <use xlink:href="#DejaVuSerif-65" transform="translate(7727.441391 0.705729)"/>
     <use xlink:href="#DejaVuSerif-72" transform="translate(7786.621078 0.705729)"/>
     <use xlink:href="#DejaVuSerif-61" transform="translate(7834.423813 0.705729)"/>
     <use xlink:href="#DejaVuSerif-67" transform="translate(7894.042953 0.705729)"/>
     <use xlink:href="#DejaVuSerif-65" transform="translate(7958.056625 0.705729)"/>
     <use xlink:href="#DejaVuSerif-20" transform="translate(8017.236313 0.705729)"/>
     <use xlink:href="#DejaVuSerif-69" transform="translate(8049.023422 0.705729)"/>
     <use xlink:href="#DejaVuSerif-73" transform="translate(8081.005844 0.705729)"/>
     <use xlink:href="#DejaVuSerif-20" transform="translate(8132.324203 0.705729)"/>
     <use xlink:href="#DejaVuSerif-61" transform="translate(8164.111313 0.705729)"/>
     <use xlink:href="#DejaVuSerif-6c" transform="translate(8223.730453 0.705729)"/>
     <use xlink:href="#DejaVuSerif-73" transform="translate(8255.712875 0.705729)"/>
     <use xlink:href="#DejaVuSerif-6f" transform="translate(8307.031235 0.705729)"/>
     <use xlink:href="#DejaVuSerif-20" transform="translate(8367.236313 0.705729)"/>
     <use xlink:href="#DejaVuSerif-61" transform="translate(8399.023422 0.705729)"/>
     <use xlink:href="#DejaVuSerif-6e" transform="translate(8458.642563 0.705729)"/>
     <use xlink:href="#DejaVuSerif-20" transform="translate(8523.04686 0.705729)"/>
     <use xlink:href="#DejaVuSerif-65" transform="translate(8554.833969 0.705729)"/>
     <use xlink:href="#DejaVuSerif-6c" transform="translate(8614.013657 0.705729)"/>
     <use xlink:href="#DejaVuSerif-65" transform="translate(8645.996078 0.705729)"/>
     <use xlink:href="#DejaVuSerif-6d" transform="translate(8705.175766 0.705729)"/>
     <use xlink:href="#DejaVuSerif-65" transform="translate(8799.999985 0.705729)"/>
     <use xlink:href="#DejaVuSerif-6e" transform="translate(8859.179672 0.705729)"/>
     <use xlink:href="#DejaVuSerif-74" transform="translate(8923.583969 0.705729)"/>
     <use xlink:href="#DejaVuSerif-20" transform="translate(8963.769516 0.705729)"/>
     <use xlink:href="#DejaVuSerif-6f" transform="translate(8995.556625 0.705729)"/>
     <use xlink:href="#DejaVuSerif-66" transform="translate(9055.761703 0.705729)"/>
     <use xlink:href="#DejaVuSerif-20" transform="translate(9092.773422 0.705729)"/>
     <use xlink:href="#Cmmi10-53" transform="translate(9124.560532 0.705729)"/>
     <use xlink:href="#DejaVuSerif-2e" transform="translate(9185.839828 0.705729)"/>
     <use xlink:href="#DejaVuSerif-20" transform="translate(9217.626938 0.705729)"/>
     <use xlink:href="#DejaVuSerif-4c" transform="translate(9249.414047 0.705729)"/>
     <use xlink:href="#DejaVuSerif-65" transform="translate(9315.820297 0.705729)"/>
     <use xlink:href="#DejaVuSerif-74" transform="translate(9374.999985 0.705729)"/>
     <use xlink:href="#DejaVuSerif-20" transform="translate(9415.185532 0.705729)"/>
     <use xlink:href="#Cmmi10-41" transform="translate(9446.972641 0.705729)"/>
     <use xlink:href="#Cmr10-28" transform="translate(9521.972641 0.705729)"/>
     <use xlink:href="#Cmmi10-6e" transform="translate(9560.791 0.705729)"/>
     <use xlink:href="#Cmr10-29" transform="translate(9620.800766 0.705729)"/>
     <use xlink:href="#DejaVuSerif-20" transform="translate(9659.619125 0.705729)"/>
     <use xlink:href="#DejaVuSerif-62" transform="translate(9691.406235 0.705729)"/>
     <use xlink:href="#DejaVuSerif-65" transform="translate(9755.419907 0.705729)"/>
     <use xlink:href="#DejaVuSerif-20" transform="translate(9814.599594 0.705729)"/>
     <use xlink:href="#DejaVuSerif-74" transform="translate(9846.386703 0.705729)"/>
     <use xlink:href="#DejaVuSerif-68" transform="translate(9886.57225 0.705729)"/>
     <use xlink:href="#DejaVuSerif-65" transform="translate(9950.976547 0.705729)"/>
     <use xlink:href="#DejaVuSerif-20" transform="translate(10010.156235 0.705729)"/>
     <use xlink:href="#DejaVuSerif-6e" transform="translate(10041.943344 0.705729)"/>
     <use xlink:href="#DejaVuSerif-75" transform="translate(10106.347641 0.705729)"/>
     <use xlink:href="#DejaVuSerif-6d" transform="translate(10170.751938 0.705729)"/>
     <use xlink:href="#DejaVuSerif-62" transform="translate(10265.576157 0.705729)"/>
     <use xlink:href="#DejaVuSerif-65" transform="translate(10329.589828 0.705729)"/>
     <use xlink:href="#DejaVuSerif-72" transform="translate(10388.769516 0.705729)"/>
     <use xlink:href="#DejaVuSerif-20" transform="translate(10436.57225 0.705729)"/>
     <use xlink:href="#DejaVuSerif-6f" transform="translate(10468.35936 0.705729)"/>
     <use xlink:href="#DejaVuSerif-66" transform="translate(10528.564438 0.705729)"/>
     <use xlink:href="#DejaVuSerif-20" transform="translate(10565.576157 0.705729)"/>
     <use xlink:href="#DejaVuSerif-6d" transform="translate(10597.363266 0.705729)"/>
     <use xlink:href="#DejaVuSerif-65" transform="translate(10692.187485 0.705729)"/>
     <use xlink:href="#DejaVuSerif-64" transform="translate(10751.367172 0.705729)"/>
     <use xlink:href="#DejaVuSerif-69" transform="translate(10815.380844 0.705729)"/>
     <use xlink:href="#DejaVuSerif-6f" transform="translate(10847.363266 0.705729)"/>
     <use xlink:href="#DejaVuSerif-63" transform="translate(10907.568344 0.705729)"/>
     <use xlink:href="#DejaVuSerif-72" transform="translate(10963.574203 0.705729)"/>
     <use xlink:href="#DejaVuSerif-65" transform="translate(11011.376938 0.705729)"/>
     <use xlink:href="#DejaVuSerif-20" transform="translate(11070.556625 0.705729)"/>
     <use xlink:href="#DejaVuSerif-73" transform="translate(11102.343735 0.705729)"/>
     <use xlink:href="#DejaVuSerif-75" transform="translate(11153.662094 0.705729)"/>
     <use xlink:href="#DejaVuSerif-62" transform="translate(11218.066391 0.705729)"/>
     <use xlink:href="#DejaVuSerif-73" transform="translate(11282.080063 0.705729)"/>
     <use xlink:href="#DejaVuSerif-65" transform="translate(11333.398422 0.705729)"/>
     <use xlink:href="#DejaVuSerif-74" transform="translate(11392.57811 0.705729)"/>
     <use xlink:href="#DejaVuSerif-73" transform="translate(11432.763657 0.705729)"/>
     <use xlink:href="#DejaVuSerif-20" transform="translate(11484.082016 0.705729)"/>
     <use xlink:href="#DejaVuSerif-6f" transform="translate(11515.869125 0.705729)"/>
     <use xlink:href="#DejaVuSerif-66" transform="translate(11576.074203 0.705729)"/>
     <use xlink:href="#DejaVuSerif-20" transform="translate(11613.085922 0.705729)"/>
     <use xlink:href="#Cmex10-a9" transform="translate(11644.873032 94)"/>
     <use xlink:href="#Cmr10-31" transform="translate(11703.173813 0.705729)"/>
     <use xlink:href="#Cmmi10-3b" transform="translate(11753.173813 0.705729)"/>
     <use xlink:href="#Cmr10-32" transform="translate(11798.417953 0.705729)"/>
     <use xlink:href="#Cmmi10-3b" transform="translate(11848.417953 0.705729)"/>
     <use xlink:href="#STIXGeneral-Regular-2026" transform="translate(11911.220688 0.705729)"/>
     <use xlink:href="#Cmmi10-3b" transform="translate(12028.779266 0.705729)"/>
     <use xlink:href="#Cmmi10-6e" transform="translate(12074.023407 0.705729)"/>
     <use xlink:href="#Cmex10-aa" transform="translate(12134.033173 94)"/>
     <use xlink:href="#DejaVuSerif-2e" transform="translate(12192.333954 0.705729)"/>
     <use xlink:href="#DejaVuSerif-20" transform="translate(12224.121063 0.705729)"/>
     <use xlink:href="#DejaVuSerif-5b" transform="translate(12255.908173 0.705729)"/>
     <use xlink:href="#DejaVuSerif-46" transform="translate(12294.921844 0.705729)"/>
     <use xlink:href="#DejaVuSerif-6f" transform="translate(12364.30661 0.705729)"/>
     <use xlink:href="#DejaVuSerif-72" transform="translate(12424.511688 0.705729)"/>
     <use xlink:href="#DejaVuSerif-20" transform="translate(12472.314423 0.705729)"/>
     <use xlink:href="#DejaVuSerif-69" transform="translate(12504.101532 0.705729)"/>
     <use xlink:href="#DejaVuSerif-6e" transform="translate(12536.083954 0.705729)"/>
     <use xlink:href="#DejaVuSerif-73" transform="translate(12600.488251 0.705729)"/>
     <use xlink:href="#DejaVuSerif-74" transform="translate(12651.80661 0.705729)"/>
     <use xlink:href="#DejaVuSerif-61" transform="translate(12691.992157 0.705729)"/>
     <use xlink:href="#DejaVuSerif-6e" transform="translate(12751.611298 0.705729)"/>
     <use xlink:href="#DejaVuSerif-63" transform="translate(12816.015594 0.705729)"/>
     <use xlink:href="#DejaVuSerif-65" transform="translate(12872.021454 0.705729)"/>
     <use xlink:href="#DejaVuSerif-2c" transform="translate(12931.201141 0.705729)"/>
     <use xlink:href="#DejaVuSerif-20" transform="translate(12962.988251 0.705729)"/>
     <use xlink:href="#DejaVuSerif-65" transform="translate(12994.77536 0.705729)"/>
     <use xlink:href="#DejaVuSerif-76" transform="translate(13053.955048 0.705729)"/>
     <use xlink:href="#DejaVuSerif-65" transform="translate(13110.449188 0.705729)"/>
     <use xlink:href="#DejaVuSerif-72" transform="translate(13169.628876 0.705729)"/>
     <use xlink:href="#DejaVuSerif-79" transform="translate(13217.43161 0.705729)"/>
     <use xlink:href="#DejaVuSerif-20" transform="translate(13273.925751 0.705729)"/>
     <use xlink:href="#DejaVuSerif-73" transform="translate(13305.71286 0.705729)"/>
     <use xlink:href="#DejaVuSerif-75" transform="translate(13357.031219 0.705729)"/>
     <use xlink:href="#DejaVuSerif-62" transform="translate(13421.435516 0.705729)"/>
     <use xlink:href="#DejaVuSerif-73" transform="translate(13485.449188 0.705729)"/>
     <use xlink:href="#DejaVuSerif-65" transform="translate(13536.767548 0.705729)"/>
     <use xlink:href="#DejaVuSerif-74" transform="translate(13595.947235 0.705729)"/>
     <use xlink:href="#DejaVuSerif-20" transform="translate(13636.132782 0.705729)"/>
     <use xlink:href="#DejaVuSerif-6f" transform="translate(13667.919891 0.705729)"/>
     <use xlink:href="#DejaVuSerif-66" transform="translate(13728.124969 0.705729)"/>
     <use xlink:href="#DejaVuSerif-20" transform="translate(13765.136688 0.705729)"/>
     <use xlink:href="#Cmex10-a9" transform="translate(13796.923798 94)"/>
     <use xlink:href="#Cmr10-31" transform="translate(13855.224579 0.705729)"/>
     <use xlink:href="#Cmmi10-3b" transform="translate(13905.224579 0.705729)"/>
     <use xlink:href="#Cmr10-32" transform="translate(13950.468719 0.705729)"/>
     <use xlink:href="#Cmmi10-3b" transform="translate(14000.468719 0.705729)"/>
     <use xlink:href="#Cmr10-33" transform="translate(14045.71286 0.705729)"/>
     <use xlink:href="#Cmex10-aa" transform="translate(14095.71286 94)"/>
     <use xlink:href="#DejaVuSerif-20" transform="translate(14154.013641 0.705729)"/>
     <use xlink:href="#DejaVuSerif-65" transform="translate(14185.800751 0.705729)"/>
     <use xlink:href="#DejaVuSerif-78" transform="translate(14244.980438 0.705729)"/>
     <use xlink:href="#DejaVuSerif-63" transform="translate(14301.376923 0.705729)"/>
     <use xlink:href="#DejaVuSerif-65" transform="translate(14357.382782 0.705729)"/>
     <use xlink:href="#DejaVuSerif-70" transform="translate(14416.562469 0.705729)"/>
     <use xlink:href="#DejaVuSerif-74" transform="translate(14480.576141 0.705729)"/>
     <use xlink:href="#DejaVuSerif-20" transform="translate(14520.761688 0.705729)"/>
     <use xlink:href="#Cmex10-a9" transform="translate(14552.548798 94)"/>
     <use xlink:href="#Cmr10-31" transform="translate(14610.849579 0.705729)"/>
     <use xlink:href="#Cmmi10-3b" transform="translate(14660.849579 0.705729)"/>
     <use xlink:href="#Cmr10-33" transform="translate(14706.093719 0.705729)"/>
     <use xlink:href="#Cmex10-aa" transform="translate(14756.093719 94)"/>
     <use xlink:href="#DejaVuSerif-20" transform="translate(14814.394501 0.705729)"/>
     <use xlink:href="#DejaVuSerif-69" transform="translate(14846.18161 0.705729)"/>
     <use xlink:href="#DejaVuSerif-73" transform="translate(14878.164032 0.705729)"/>
     <use xlink:href="#DejaVuSerif-20" transform="translate(14929.482391 0.705729)"/>
     <use xlink:href="#DejaVuSerif-6d" transform="translate(14961.269501 0.705729)"/>
     <use xlink:href="#DejaVuSerif-65" transform="translate(15056.093719 0.705729)"/>
     <use xlink:href="#DejaVuSerif-64" transform="translate(15115.273407 0.705729)"/>
     <use xlink:href="#DejaVuSerif-69" transform="translate(15179.287079 0.705729)"/>
     <use xlink:href="#DejaVuSerif-6f" transform="translate(15211.269501 0.705729)"/>
     <use xlink:href="#DejaVuSerif-63" transform="translate(15271.474579 0.705729)"/>
     <use xlink:href="#DejaVuSerif-72" transform="translate(15327.480438 0.705729)"/>
     <use xlink:href="#DejaVuSerif-65" transform="translate(15375.283173 0.705729)"/>
     <use xlink:href="#DejaVuSerif-2c" transform="translate(15434.46286 0.705729)"/>
     <use xlink:href="#DejaVuSerif-20" transform="translate(15466.249969 0.705729)"/>
     <use xlink:href="#DejaVuSerif-73" transform="translate(15498.037079 0.705729)"/>
     <use xlink:href="#DejaVuSerif-6f" transform="translate(15549.355438 0.705729)"/>
     <use xlink:href="#DejaVuSerif-20" transform="translate(15609.560516 0.705729)"/>
     <use xlink:href="#Cmmi10-41" transform="translate(15641.347626 0.705729)"/>
     <use xlink:href="#Cmr10-28" transform="translate(15716.347626 0.705729)"/>
     <use xlink:href="#Cmr10-33" transform="translate(15755.165985 0.705729)"/>
     <use xlink:href="#Cmr10-29" transform="translate(15805.165985 0.705729)"/>
     <use xlink:href="#Cmr10-3d" transform="translate(15861.542938 0.705729)"/>
     <use xlink:href="#Cmr10-37" transform="translate(15956.787079 0.705729)"/>
     <use xlink:href="#DejaVuSerif-2e" transform="translate(16006.787079 0.705729)"/>
     <use xlink:href="#DejaVuSerif-5d" transform="translate(16038.574188 0.705729)"/>
     <use xlink:href="#DejaVuSerif-20" transform="translate(16077.58786 0.705729)"/>
     <use xlink:href="#DejaVuSerif-46" transform="translate(16109.374969 0.705729)"/>
     <use xlink:href="#DejaVuSerif-69" transform="translate(16178.759735 0.705729)"/>
     <use xlink:href="#DejaVuSerif-6e" transform="translate(16210.742157 0.705729)"/>
     <use xlink:href="#DejaVuSerif-64" transform="translate(16275.146454 0.705729)"/>
     <use xlink:href="#DejaVuSerif-20" transform="translate(16339.160126 0.705729)"/>
     <use xlink:href="#DejaVuSerif-61" transform="translate(16370.947235 0.705729)"/>
     <use xlink:href="#DejaVuSerif-6c" transform="translate(16430.566376 0.705729)"/>
     <use xlink:href="#DejaVuSerif-6c" transform="translate(16462.548798 0.705729)"/>
     <use xlink:href="#DejaVuSerif-20" transform="translate(16494.531219 0.705729)"/>
     <use xlink:href="#DejaVuSerif-70" transform="translate(16526.318329 0.705729)"/>
     <use xlink:href="#DejaVuSerif-6f" transform="translate(16590.332001 0.705729)"/>
     <use xlink:href="#DejaVuSerif-73" transform="translate(16650.537079 0.705729)"/>
     <use xlink:href="#DejaVuSerif-69" transform="translate(16701.855438 0.705729)"/>
     <use xlink:href="#DejaVuSerif-74" transform="translate(16733.83786 0.705729)"/>
     <use xlink:href="#DejaVuSerif-69" transform="translate(16774.023407 0.705729)"/>
     <use xlink:href="#DejaVuSerif-76" transform="translate(16806.005829 0.705729)"/>
     <use xlink:href="#DejaVuSerif-65" transform="translate(16862.499969 0.705729)"/>
     <use xlink:href="#DejaVuSerif-20" transform="translate(16921.679657 0.705729)"/>
     <use xlink:href="#DejaVuSerif-69" transform="translate(16953.466766 0.705729)"/>
     <use xlink:href="#DejaVuSerif-6e" transform="translate(16985.449188 0.705729)"/>
     <use xlink:href="#DejaVuSerif-74" transform="translate(17049.853485 0.705729)"/>
     <use xlink:href="#DejaVuSerif-65" transform="translate(17090.039032 0.705729)"/>
     <use xlink:href="#DejaVuSerif-67" transform="translate(17149.218719 0.705729)"/>
     <use xlink:href="#DejaVuSerif-65" transform="translate(17213.232391 0.705729)"/>
     <use xlink:href="#DejaVuSerif-72" transform="translate(17272.412079 0.705729)"/>
     <use xlink:href="#DejaVuSerif-73" transform="translate(17320.214813 0.705729)"/>
     <use xlink:href="#DejaVuSerif-20" transform="translate(17371.533173 0.705729)"/>
     <use xlink:href="#Cmmi10-6e" transform="translate(17403.320282 0.705729)"/>
     <use xlink:href="#DejaVuSerif-20" transform="translate(17463.330048 0.705729)"/>
     <use xlink:href="#DejaVuSerif-73" transform="translate(17495.117157 0.705729)"/>
     <use xlink:href="#DejaVuSerif-75" transform="translate(17546.435516 0.705729)"/>
     <use xlink:href="#DejaVuSerif-63" transform="translate(17610.839813 0.705729)"/>
     <use xlink:href="#DejaVuSerif-68" transform="translate(17666.845673 0.705729)"/>
     <use xlink:href="#DejaVuSerif-20" transform="translate(17731.249969 0.705729)"/>
     <use xlink:href="#DejaVuSerif-74" transform="translate(17763.037079 0.705729)"/>
     <use xlink:href="#DejaVuSerif-68" transform="translate(17803.222626 0.705729)"/>
     <use xlink:href="#DejaVuSerif-61" transform="translate(17867.626923 0.705729)"/>
     <use xlink:href="#DejaVuSerif-74" transform="translate(17927.246063 0.705729)"/>
     <use xlink:href="#DejaVuSerif-20" transform="translate(17967.43161 0.705729)"/>
     <use xlink:href="#Cmmi10-41" transform="translate(17999.218719 0.705729)"/>
     <use xlink:href="#Cmr10-28" transform="translate(18074.218719 0.705729)"/>
     <use xlink:href="#Cmmi10-6e" transform="translate(18113.037079 0.705729)"/>
     <use xlink:href="#Cmr10-2b" transform="translate(18190.605438 0.705729)"/>
     <use xlink:href="#Cmr10-32" transform="translate(18285.849579 0.705729)"/>
     <use xlink:href="#Cmr10-29" transform="translate(18335.849579 0.705729)"/>
     <use xlink:href="#Cmsy10-a1" transform="translate(18392.226532 0.705729)"/>
     <use xlink:href="#Cmr10-32" transform="translate(18487.470673 0.705729)"/>
     <use xlink:href="#Cmmi10-41" transform="translate(18537.470673 0.705729)"/>
     <use xlink:href="#Cmr10-28" transform="translate(18612.470673 0.705729)"/>
     <use xlink:href="#Cmmi10-6e" transform="translate(18651.289032 0.705729)"/>
     <use xlink:href="#Cmr10-2b" transform="translate(18728.857391 0.705729)"/>
     <use xlink:href="#Cmr10-31" transform="translate(18824.101532 0.705729)"/>
     <use xlink:href="#Cmr10-29" transform="translate(18874.101532 0.705729)"/>
     <use xlink:href="#Cmr10-2b" transform="translate(18930.478485 0.705729)"/>
     <use xlink:href="#Cmmi10-41" transform="translate(19025.722626 0.705729)"/>
     <use xlink:href="#Cmr10-28" transform="translate(19100.722626 0.705729)"/>
     <use xlink:href="#Cmmi10-6e" transform="translate(19139.540985 0.705729)"/>
     <use xlink:href="#Cmr10-29" transform="translate(19199.550751 0.705729)"/>
     <use xlink:href="#Cmr10-3d" transform="translate(19255.927704 0.705729)"/>
     <use xlink:href="#Cmr10-31" transform="translate(19351.171844 0.705729)"/>
     <use xlink:href="#DejaVuSerif-2e" transform="translate(19401.171844 0.705729)"/>
    </g>
   </g>
  </g>
 </g>
</svg>
