<?xml version="1.0" encoding="utf-8" standalone="no"?>
<!DOCTYPE svg PUBLIC "-//W3C//DTD SVG 1.1//EN"
  "http://www.w3.org/Graphics/SVG/1.1/DTD/svg11.dtd">
<svg xmlns:xlink="http://www.w3.org/1999/xlink" width="1568.28pt" height="180.72pt" viewBox="0 0 1568.28 180.72" xmlns="http://www.w3.org/2000/svg" version="1.1">
 <metadata>
  <rdf:RDF xmlns:dc="http://purl.org/dc/elements/1.1/" xmlns:cc="http://creativecommons.org/ns#" xmlns:rdf="http://www.w3.org/1999/02/22-rdf-syntax-ns#">
   <cc:Work>
    <dc:type rdf:resource="http://purl.org/dc/dcmitype/StillImage"/>
    <dc:date>2025-05-29T18:43:54.148335</dc:date>
    <dc:format>image/svg+xml</dc:format>
    <dc:creator>
     <cc:Agent>
      <dc:title>Matplotlib v3.10.3, https://matplotlib.org/</dc:title>
     </cc:Agent>
    </dc:creator>
   </cc:Work>
  </rdf:RDF>
 </metadata>
 <defs>
  <style type="text/css">*{stroke-linejoin: round; stroke-linecap: butt}</style>
 </defs>
 <g id="figure_1">
  <g id="patch_1">
   <path d="M 0 180.72 
L 1568.28 180.72 
L 1568.28 0 
L 0 0 
z
" style="fill: #ffffff"/>
  </g>
  <g id="axes_1">
   <g id="text_1">
    <!-- Inscribe a rectangle of base $b$ and height $h$ and an isosceles triangle of base $b$ (against a corresponding side of the rectangle and pointed in the other direction) in a circle of radius one. For what value of $h$ do the rectangle and triangle have the same area? -->
    <g transform="translate(7.2 93.54) scale(0.12 -0.12)">
     <defs>
      <path id="DejaVuSerif-49" d="M 1581 331 
L 2175 331 
L 2175 0 
L 353 0 
L 353 331 
L 947 331 
L 947 4331 
L 353 4331 
L 353 4666 
L 2175 4666 
L 2175 4331 
L 1581 4331 
L 1581 331 
z
" transform="scale(0.015625)"/>
      <path id="DejaVuSerif-6e" d="M 263 0 
L 263 331 
L 781 331 
L 781 2988 
L 231 2988 
L 231 3322 
L 1356 3322 
L 1356 2731 
Q 1516 3069 1770 3241 
Q 2025 3413 2363 3413 
Q 2913 3413 3172 3097 
Q 3431 2781 3431 2113 
L 3431 331 
L 3944 331 
L 3944 0 
L 2356 0 
L 2356 331 
L 2853 331 
L 2853 1931 
Q 2853 2541 2703 2767 
Q 2553 2994 2175 2994 
Q 1775 2994 1565 2701 
Q 1356 2409 1356 1850 
L 1356 331 
L 1856 331 
L 1856 0 
L 263 0 
z
" transform="scale(0.015625)"/>
      <path id="DejaVuSerif-73" d="M 359 184 
L 359 959 
L 691 959 
Q 703 588 923 403 
Q 1144 219 1575 219 
Q 1963 219 2166 364 
Q 2369 509 2369 788 
Q 2369 1006 2220 1140 
Q 2072 1275 1594 1428 
L 1178 1569 
Q 750 1706 558 1912 
Q 366 2119 366 2438 
Q 366 2894 700 3153 
Q 1034 3413 1625 3413 
Q 1888 3413 2178 3344 
Q 2469 3275 2778 3144 
L 2778 2419 
L 2447 2419 
Q 2434 2741 2221 2922 
Q 2009 3103 1644 3103 
Q 1281 3103 1095 2975 
Q 909 2847 909 2591 
Q 909 2381 1050 2254 
Q 1191 2128 1613 1997 
L 2069 1856 
Q 2541 1709 2748 1489 
Q 2956 1269 2956 922 
Q 2956 450 2595 179 
Q 2234 -91 1600 -91 
Q 1278 -91 972 -22 
Q 666 47 359 184 
z
" transform="scale(0.015625)"/>
      <path id="DejaVuSerif-63" d="M 3291 997 
Q 3169 466 2822 187 
Q 2475 -91 1925 -91 
Q 1200 -91 759 389 
Q 319 869 319 1663 
Q 319 2459 759 2936 
Q 1200 3413 1925 3413 
Q 2241 3413 2553 3339 
Q 2866 3266 3181 3116 
L 3181 2266 
L 2847 2266 
Q 2781 2703 2561 2903 
Q 2341 3103 1931 3103 
Q 1466 3103 1228 2742 
Q 991 2381 991 1663 
Q 991 944 1227 581 
Q 1463 219 1931 219 
Q 2303 219 2525 412 
Q 2747 606 2828 997 
L 3291 997 
z
" transform="scale(0.015625)"/>
      <path id="DejaVuSerif-72" d="M 3059 3328 
L 3059 2497 
L 2728 2497 
Q 2713 2744 2591 2866 
Q 2469 2988 2234 2988 
Q 1809 2988 1582 2694 
Q 1356 2400 1356 1850 
L 1356 331 
L 2022 331 
L 2022 0 
L 263 0 
L 263 331 
L 781 331 
L 781 2994 
L 231 2994 
L 231 3322 
L 1356 3322 
L 1356 2731 
Q 1525 3078 1790 3245 
Q 2056 3413 2438 3413 
Q 2578 3413 2733 3391 
Q 2888 3369 3059 3328 
z
" transform="scale(0.015625)"/>
      <path id="DejaVuSerif-69" d="M 622 4353 
Q 622 4497 726 4603 
Q 831 4709 978 4709 
Q 1122 4709 1226 4603 
Q 1331 4497 1331 4353 
Q 1331 4206 1228 4103 
Q 1125 4000 978 4000 
Q 831 4000 726 4103 
Q 622 4206 622 4353 
z
M 1356 331 
L 1900 331 
L 1900 0 
L 231 0 
L 231 331 
L 781 331 
L 781 2988 
L 231 2988 
L 231 3322 
L 1356 3322 
L 1356 331 
z
" transform="scale(0.015625)"/>
      <path id="DejaVuSerif-62" d="M 738 331 
L 738 4531 
L 184 4531 
L 184 4863 
L 1313 4863 
L 1313 2803 
Q 1481 3116 1742 3264 
Q 2003 3413 2388 3413 
Q 3000 3413 3387 2928 
Q 3775 2444 3775 1663 
Q 3775 881 3387 395 
Q 3000 -91 2388 -91 
Q 2003 -91 1742 57 
Q 1481 206 1313 519 
L 1313 0 
L 184 0 
L 184 331 
L 738 331 
z
M 1313 1497 
Q 1313 897 1542 583 
Q 1772 269 2209 269 
Q 2650 269 2876 622 
Q 3103 975 3103 1663 
Q 3103 2353 2876 2703 
Q 2650 3053 2209 3053 
Q 1772 3053 1542 2737 
Q 1313 2422 1313 1825 
L 1313 1497 
z
" transform="scale(0.015625)"/>
      <path id="DejaVuSerif-65" d="M 3469 1600 
L 991 1600 
L 991 1575 
Q 991 903 1244 561 
Q 1497 219 1991 219 
Q 2369 219 2611 417 
Q 2853 616 2950 1006 
L 3413 1006 
Q 3275 459 2904 184 
Q 2534 -91 1931 -91 
Q 1203 -91 761 389 
Q 319 869 319 1663 
Q 319 2450 753 2931 
Q 1188 3413 1894 3413 
Q 2647 3413 3050 2948 
Q 3453 2484 3469 1600 
z
M 2791 1931 
Q 2772 2513 2545 2808 
Q 2319 3103 1894 3103 
Q 1497 3103 1269 2806 
Q 1041 2509 991 1931 
L 2791 1931 
z
" transform="scale(0.015625)"/>
      <path id="DejaVuSerif-20" transform="scale(0.015625)"/>
      <path id="DejaVuSerif-61" d="M 2547 1044 
L 2547 1747 
L 1806 1747 
Q 1378 1747 1168 1562 
Q 959 1378 959 997 
Q 959 650 1171 447 
Q 1384 244 1747 244 
Q 2106 244 2326 466 
Q 2547 688 2547 1044 
z
M 3122 2075 
L 3122 331 
L 3634 331 
L 3634 0 
L 2547 0 
L 2547 359 
Q 2356 128 2106 18 
Q 1856 -91 1522 -91 
Q 969 -91 644 203 
Q 319 497 319 997 
Q 319 1513 691 1797 
Q 1063 2081 1741 2081 
L 2547 2081 
L 2547 2309 
Q 2547 2688 2317 2895 
Q 2088 3103 1672 3103 
Q 1328 3103 1125 2947 
Q 922 2791 872 2484 
L 575 2484 
L 575 3156 
Q 875 3284 1158 3348 
Q 1441 3413 1709 3413 
Q 2400 3413 2761 3070 
Q 3122 2728 3122 2075 
z
" transform="scale(0.015625)"/>
      <path id="DejaVuSerif-74" d="M 691 2988 
L 184 2988 
L 184 3322 
L 691 3322 
L 691 4353 
L 1269 4353 
L 1269 3322 
L 2350 3322 
L 2350 2988 
L 1269 2988 
L 1269 878 
Q 1269 456 1350 337 
Q 1431 219 1650 219 
Q 1875 219 1978 351 
Q 2081 484 2088 781 
L 2522 781 
Q 2497 328 2275 118 
Q 2053 -91 1600 -91 
Q 1103 -91 897 129 
Q 691 350 691 878 
L 691 2988 
z
" transform="scale(0.015625)"/>
      <path id="DejaVuSerif-67" d="M 3359 2988 
L 3359 72 
Q 3359 -644 2965 -1033 
Q 2572 -1422 1844 -1422 
Q 1516 -1422 1216 -1362 
Q 916 -1303 641 -1184 
L 641 -488 
L 941 -488 
Q 997 -813 1206 -963 
Q 1416 -1113 1806 -1113 
Q 2313 -1113 2548 -827 
Q 2784 -541 2784 72 
L 2784 519 
Q 2616 206 2355 57 
Q 2094 -91 1709 -91 
Q 1097 -91 708 395 
Q 319 881 319 1663 
Q 319 2444 706 2928 
Q 1094 3413 1709 3413 
Q 2094 3413 2355 3264 
Q 2616 3116 2784 2803 
L 2784 3322 
L 3909 3322 
L 3909 2988 
L 3359 2988 
z
M 2784 1825 
Q 2784 2422 2554 2737 
Q 2325 3053 1888 3053 
Q 1444 3053 1217 2703 
Q 991 2353 991 1663 
Q 991 975 1217 622 
Q 1444 269 1888 269 
Q 2325 269 2554 583 
Q 2784 897 2784 1497 
L 2784 1825 
z
" transform="scale(0.015625)"/>
      <path id="DejaVuSerif-6c" d="M 1313 331 
L 1856 331 
L 1856 0 
L 184 0 
L 184 331 
L 738 331 
L 738 4531 
L 184 4531 
L 184 4863 
L 1313 4863 
L 1313 331 
z
" transform="scale(0.015625)"/>
      <path id="DejaVuSerif-6f" d="M 1925 219 
Q 2388 219 2623 584 
Q 2859 950 2859 1663 
Q 2859 2375 2623 2739 
Q 2388 3103 1925 3103 
Q 1463 3103 1227 2739 
Q 991 2375 991 1663 
Q 991 950 1228 584 
Q 1466 219 1925 219 
z
M 1925 -91 
Q 1200 -91 759 389 
Q 319 869 319 1663 
Q 319 2456 758 2934 
Q 1197 3413 1925 3413 
Q 2653 3413 3092 2934 
Q 3531 2456 3531 1663 
Q 3531 869 3092 389 
Q 2653 -91 1925 -91 
z
" transform="scale(0.015625)"/>
      <path id="DejaVuSerif-66" d="M 2753 4078 
L 2450 4078 
Q 2447 4313 2317 4434 
Q 2188 4556 1941 4556 
Q 1619 4556 1487 4379 
Q 1356 4203 1356 3750 
L 1356 3322 
L 2284 3322 
L 2284 2988 
L 1356 2988 
L 1356 331 
L 2094 331 
L 2094 0 
L 231 0 
L 231 331 
L 781 331 
L 781 2988 
L 231 2988 
L 231 3322 
L 781 3322 
L 781 3738 
Q 781 4294 1070 4578 
Q 1359 4863 1919 4863 
Q 2128 4863 2337 4825 
Q 2547 4788 2753 4709 
L 2753 4078 
z
" transform="scale(0.015625)"/>
      <path id="Cmmi10-62" d="M 1106 -72 
Q 719 -72 503 231 
Q 288 534 288 941 
Q 288 1000 317 1173 
Q 347 1347 347 1388 
L 966 3872 
Q 991 3981 997 4044 
Q 997 4147 581 4147 
Q 519 4147 519 4231 
Q 522 4247 533 4287 
Q 544 4328 561 4350 
Q 578 4372 609 4372 
L 1472 4441 
Q 1550 4441 1550 4359 
L 1075 2472 
Q 1438 2828 1806 2828 
Q 2078 2828 2273 2684 
Q 2469 2541 2566 2306 
Q 2663 2072 2663 1806 
Q 2663 1497 2542 1167 
Q 2422 838 2209 555 
Q 1997 272 1712 100 
Q 1428 -72 1106 -72 
z
M 1119 97 
Q 1338 97 1528 280 
Q 1719 463 1838 691 
Q 1966 947 2077 1386 
Q 2188 1825 2188 2088 
Q 2188 2316 2092 2489 
Q 1997 2663 1791 2663 
Q 1559 2663 1348 2492 
Q 1138 2322 978 2088 
L 800 1363 
Q 697 959 691 716 
Q 691 475 795 286 
Q 900 97 1119 97 
z
" transform="scale(0.015625)"/>
      <path id="DejaVuSerif-64" d="M 3359 331 
L 3909 331 
L 3909 0 
L 2784 0 
L 2784 519 
Q 2616 206 2355 57 
Q 2094 -91 1709 -91 
Q 1097 -91 708 395 
Q 319 881 319 1663 
Q 319 2444 706 2928 
Q 1094 3413 1709 3413 
Q 2094 3413 2355 3264 
Q 2616 3116 2784 2803 
L 2784 4531 
L 2241 4531 
L 2241 4863 
L 3359 4863 
L 3359 331 
z
M 2784 1497 
L 2784 1825 
Q 2784 2422 2554 2737 
Q 2325 3053 1888 3053 
Q 1444 3053 1217 2703 
Q 991 2353 991 1663 
Q 991 975 1217 622 
Q 1444 269 1888 269 
Q 2325 269 2554 583 
Q 2784 897 2784 1497 
z
" transform="scale(0.015625)"/>
      <path id="DejaVuSerif-68" d="M 263 0 
L 263 331 
L 781 331 
L 781 4531 
L 231 4531 
L 231 4863 
L 1356 4863 
L 1356 2731 
Q 1516 3069 1770 3241 
Q 2025 3413 2363 3413 
Q 2913 3413 3172 3097 
Q 3431 2781 3431 2113 
L 3431 331 
L 3944 331 
L 3944 0 
L 2356 0 
L 2356 331 
L 2853 331 
L 2853 1931 
Q 2853 2541 2704 2764 
Q 2556 2988 2175 2988 
Q 1775 2988 1565 2697 
Q 1356 2406 1356 1850 
L 1356 331 
L 1856 331 
L 1856 0 
L 263 0 
z
" transform="scale(0.015625)"/>
      <path id="Cmmi10-68" d="M 341 116 
Q 341 153 347 172 
L 1275 3872 
Q 1300 3981 1306 4044 
Q 1306 4147 891 4147 
Q 825 4147 825 4231 
Q 828 4247 839 4287 
Q 850 4328 867 4350 
Q 884 4372 916 4372 
L 1778 4441 
L 1797 4441 
Q 1797 4434 1819 4423 
Q 1841 4413 1844 4409 
Q 1856 4378 1856 4359 
L 1356 2363 
Q 1750 2828 2291 2828 
Q 2516 2828 2680 2750 
Q 2844 2672 2936 2514 
Q 3028 2356 3028 2138 
Q 3028 1875 2911 1503 
Q 2794 1131 2619 672 
Q 2528 463 2528 288 
Q 2528 97 2675 97 
Q 2925 97 3092 364 
Q 3259 631 3328 941 
Q 3341 978 3378 978 
L 3456 978 
Q 3481 978 3497 961 
Q 3513 944 3513 922 
Q 3513 916 3506 903 
Q 3450 672 3339 448 
Q 3228 225 3059 76 
Q 2891 -72 2663 -72 
Q 2438 -72 2278 83 
Q 2119 238 2119 459 
Q 2119 578 2169 709 
Q 2350 1191 2470 1569 
Q 2591 1947 2591 2234 
Q 2591 2419 2519 2541 
Q 2447 2663 2278 2663 
Q 1934 2663 1678 2452 
Q 1422 2241 1234 1894 
L 800 147 
Q 775 50 703 -11 
Q 631 -72 538 -72 
Q 456 -72 398 -17 
Q 341 38 341 116 
z
" transform="scale(0.015625)"/>
      <path id="DejaVuSerif-28" d="M 2041 -997 
Q 1281 -656 893 83 
Q 506 822 506 1931 
Q 506 3044 893 3783 
Q 1281 4522 2041 4863 
L 2041 4556 
Q 1559 4225 1350 3623 
Q 1141 3022 1141 1931 
Q 1141 844 1350 242 
Q 1559 -359 2041 -691 
L 2041 -997 
z
" transform="scale(0.015625)"/>
      <path id="DejaVuSerif-70" d="M 1313 1825 
L 1313 1497 
Q 1313 897 1542 583 
Q 1772 269 2209 269 
Q 2650 269 2876 622 
Q 3103 975 3103 1663 
Q 3103 2353 2876 2703 
Q 2650 3053 2209 3053 
Q 1772 3053 1542 2737 
Q 1313 2422 1313 1825 
z
M 738 2988 
L 184 2988 
L 184 3322 
L 1313 3322 
L 1313 2803 
Q 1481 3116 1742 3264 
Q 2003 3413 2388 3413 
Q 3000 3413 3387 2928 
Q 3775 2444 3775 1663 
Q 3775 881 3387 395 
Q 3000 -91 2388 -91 
Q 2003 -91 1742 57 
Q 1481 206 1313 519 
L 1313 -997 
L 1856 -997 
L 1856 -1331 
L 184 -1331 
L 184 -997 
L 738 -997 
L 738 2988 
z
" transform="scale(0.015625)"/>
      <path id="DejaVuSerif-29" d="M 453 -997 
L 453 -691 
Q 934 -359 1145 242 
Q 1356 844 1356 1931 
Q 1356 3022 1145 3623 
Q 934 4225 453 4556 
L 453 4863 
Q 1216 4522 1603 3783 
Q 1991 3044 1991 1931 
Q 1991 822 1603 83 
Q 1216 -656 453 -997 
z
" transform="scale(0.015625)"/>
      <path id="DejaVuSerif-75" d="M 2266 3322 
L 3341 3322 
L 3341 331 
L 3884 331 
L 3884 0 
L 2766 0 
L 2766 588 
Q 2606 256 2353 82 
Q 2100 -91 1766 -91 
Q 1213 -91 952 223 
Q 691 538 691 1209 
L 691 2988 
L 172 2988 
L 172 3322 
L 1269 3322 
L 1269 1388 
Q 1269 781 1417 556 
Q 1566 331 1947 331 
Q 2347 331 2556 625 
Q 2766 919 2766 1478 
L 2766 2988 
L 2266 2988 
L 2266 3322 
z
" transform="scale(0.015625)"/>
      <path id="DejaVuSerif-2e" d="M 603 325 
Q 603 500 722 622 
Q 841 744 1019 744 
Q 1191 744 1312 622 
Q 1434 500 1434 325 
Q 1434 153 1312 31 
Q 1191 -91 1019 -91 
Q 841 -91 722 29 
Q 603 150 603 325 
z
" transform="scale(0.015625)"/>
      <path id="DejaVuSerif-46" d="M 353 0 
L 353 331 
L 947 331 
L 947 4331 
L 353 4331 
L 353 4666 
L 4172 4666 
L 4172 3628 
L 3788 3628 
L 3788 4281 
L 1581 4281 
L 1581 2719 
L 3175 2719 
L 3175 3303 
L 3559 3303 
L 3559 1753 
L 3175 1753 
L 3175 2338 
L 1581 2338 
L 1581 331 
L 2328 331 
L 2328 0 
L 353 0 
z
" transform="scale(0.015625)"/>
      <path id="DejaVuSerif-77" d="M 3072 3322 
L 3922 728 
L 4672 2988 
L 4191 2988 
L 4191 3322 
L 5394 3322 
L 5394 2988 
L 5025 2988 
L 4038 0 
L 3559 0 
L 2741 2484 
L 1919 0 
L 1459 0 
L 475 2988 
L 103 2988 
L 103 3322 
L 1606 3322 
L 1606 2988 
L 1069 2988 
L 1813 728 
L 2669 3322 
L 3072 3322 
z
" transform="scale(0.015625)"/>
      <path id="DejaVuSerif-76" d="M 1581 0 
L 359 2988 
L -19 2988 
L -19 3322 
L 1509 3322 
L 1509 2988 
L 978 2988 
L 1913 703 
L 2847 2988 
L 2350 2988 
L 2350 3322 
L 3597 3322 
L 3597 2988 
L 3225 2988 
L 2003 0 
L 1581 0 
z
" transform="scale(0.015625)"/>
      <path id="DejaVuSerif-6d" d="M 3316 2675 
Q 3481 3041 3739 3227 
Q 3997 3413 4341 3413 
Q 4863 3413 5119 3089 
Q 5375 2766 5375 2113 
L 5375 331 
L 5894 331 
L 5894 0 
L 4300 0 
L 4300 331 
L 4800 331 
L 4800 2047 
Q 4800 2556 4650 2772 
Q 4500 2988 4153 2988 
Q 3769 2988 3567 2697 
Q 3366 2406 3366 1850 
L 3366 331 
L 3866 331 
L 3866 0 
L 2291 0 
L 2291 331 
L 2791 331 
L 2791 2069 
Q 2791 2566 2641 2777 
Q 2491 2988 2144 2988 
Q 1759 2988 1557 2697 
Q 1356 2406 1356 1850 
L 1356 331 
L 1856 331 
L 1856 0 
L 263 0 
L 263 331 
L 781 331 
L 781 2994 
L 231 2994 
L 231 3322 
L 1356 3322 
L 1356 2731 
Q 1516 3063 1762 3238 
Q 2009 3413 2322 3413 
Q 2709 3413 2968 3220 
Q 3228 3028 3316 2675 
z
" transform="scale(0.015625)"/>
      <path id="DejaVuSerif-3f" d="M 1125 325 
Q 1125 500 1245 622 
Q 1366 744 1544 744 
Q 1716 744 1837 622 
Q 1959 500 1959 325 
Q 1959 153 1837 31 
Q 1716 -91 1544 -91 
Q 1366 -91 1245 29 
Q 1125 150 1125 325 
z
M 434 4459 
Q 766 4606 1064 4678 
Q 1363 4750 1625 4750 
Q 2319 4750 2720 4415 
Q 3122 4081 3122 3513 
Q 3122 2931 2776 2562 
Q 2431 2194 1734 2034 
L 1734 1241 
L 1350 1241 
L 1350 2266 
Q 1903 2400 2183 2715 
Q 2463 3031 2463 3519 
Q 2463 3947 2234 4194 
Q 2006 4441 1613 4441 
Q 1256 4441 1029 4236 
Q 803 4031 738 3647 
L 434 3647 
L 434 4459 
z
" transform="scale(0.015625)"/>
     </defs>
     <use xlink:href="#DejaVuSerif-49" transform="translate(0 0.015625)"/>
     <use xlink:href="#DejaVuSerif-6e" transform="translate(39.501953 0.015625)"/>
     <use xlink:href="#DejaVuSerif-73" transform="translate(103.90625 0.015625)"/>
     <use xlink:href="#DejaVuSerif-63" transform="translate(155.224609 0.015625)"/>
     <use xlink:href="#DejaVuSerif-72" transform="translate(211.230469 0.015625)"/>
     <use xlink:href="#DejaVuSerif-69" transform="translate(259.033203 0.015625)"/>
     <use xlink:href="#DejaVuSerif-62" transform="translate(291.015625 0.015625)"/>
     <use xlink:href="#DejaVuSerif-65" transform="translate(355.029297 0.015625)"/>
     <use xlink:href="#DejaVuSerif-20" transform="translate(414.208984 0.015625)"/>
     <use xlink:href="#DejaVuSerif-61" transform="translate(445.996094 0.015625)"/>
     <use xlink:href="#DejaVuSerif-20" transform="translate(505.615234 0.015625)"/>
     <use xlink:href="#DejaVuSerif-72" transform="translate(537.402344 0.015625)"/>
     <use xlink:href="#DejaVuSerif-65" transform="translate(585.205078 0.015625)"/>
     <use xlink:href="#DejaVuSerif-63" transform="translate(644.384766 0.015625)"/>
     <use xlink:href="#DejaVuSerif-74" transform="translate(700.390625 0.015625)"/>
     <use xlink:href="#DejaVuSerif-61" transform="translate(740.576172 0.015625)"/>
     <use xlink:href="#DejaVuSerif-6e" transform="translate(800.195312 0.015625)"/>
     <use xlink:href="#DejaVuSerif-67" transform="translate(864.599609 0.015625)"/>
     <use xlink:href="#DejaVuSerif-6c" transform="translate(928.613281 0.015625)"/>
     <use xlink:href="#DejaVuSerif-65" transform="translate(960.595703 0.015625)"/>
     <use xlink:href="#DejaVuSerif-20" transform="translate(1019.775391 0.015625)"/>
     <use xlink:href="#DejaVuSerif-6f" transform="translate(1051.5625 0.015625)"/>
     <use xlink:href="#DejaVuSerif-66" transform="translate(1111.767578 0.015625)"/>
     <use xlink:href="#DejaVuSerif-20" transform="translate(1148.779297 0.015625)"/>
     <use xlink:href="#DejaVuSerif-62" transform="translate(1180.566406 0.015625)"/>
     <use xlink:href="#DejaVuSerif-61" transform="translate(1244.580078 0.015625)"/>
     <use xlink:href="#DejaVuSerif-73" transform="translate(1304.199219 0.015625)"/>
     <use xlink:href="#DejaVuSerif-65" transform="translate(1355.517578 0.015625)"/>
     <use xlink:href="#DejaVuSerif-20" transform="translate(1414.697266 0.015625)"/>
     <use xlink:href="#Cmmi10-62" transform="translate(1446.484375 0.015625)"/>
     <use xlink:href="#DejaVuSerif-20" transform="translate(1489.404297 0.015625)"/>
     <use xlink:href="#DejaVuSerif-61" transform="translate(1521.191406 0.015625)"/>
     <use xlink:href="#DejaVuSerif-6e" transform="translate(1580.810547 0.015625)"/>
     <use xlink:href="#DejaVuSerif-64" transform="translate(1645.214844 0.015625)"/>
     <use xlink:href="#DejaVuSerif-20" transform="translate(1709.228516 0.015625)"/>
     <use xlink:href="#DejaVuSerif-68" transform="translate(1741.015625 0.015625)"/>
     <use xlink:href="#DejaVuSerif-65" transform="translate(1805.419922 0.015625)"/>
     <use xlink:href="#DejaVuSerif-69" transform="translate(1864.599609 0.015625)"/>
     <use xlink:href="#DejaVuSerif-67" transform="translate(1896.582031 0.015625)"/>
     <use xlink:href="#DejaVuSerif-68" transform="translate(1960.595703 0.015625)"/>
     <use xlink:href="#DejaVuSerif-74" transform="translate(2025 0.015625)"/>
     <use xlink:href="#DejaVuSerif-20" transform="translate(2065.185547 0.015625)"/>
     <use xlink:href="#Cmmi10-68" transform="translate(2096.972656 0.015625)"/>
     <use xlink:href="#DejaVuSerif-20" transform="translate(2154.589844 0.015625)"/>
     <use xlink:href="#DejaVuSerif-61" transform="translate(2186.376953 0.015625)"/>
     <use xlink:href="#DejaVuSerif-6e" transform="translate(2245.996094 0.015625)"/>
     <use xlink:href="#DejaVuSerif-64" transform="translate(2310.400391 0.015625)"/>
     <use xlink:href="#DejaVuSerif-20" transform="translate(2374.414062 0.015625)"/>
     <use xlink:href="#DejaVuSerif-61" transform="translate(2406.201172 0.015625)"/>
     <use xlink:href="#DejaVuSerif-6e" transform="translate(2465.820312 0.015625)"/>
     <use xlink:href="#DejaVuSerif-20" transform="translate(2530.224609 0.015625)"/>
     <use xlink:href="#DejaVuSerif-69" transform="translate(2562.011719 0.015625)"/>
     <use xlink:href="#DejaVuSerif-73" transform="translate(2593.994141 0.015625)"/>
     <use xlink:href="#DejaVuSerif-6f" transform="translate(2645.3125 0.015625)"/>
     <use xlink:href="#DejaVuSerif-73" transform="translate(2705.517578 0.015625)"/>
     <use xlink:href="#DejaVuSerif-63" transform="translate(2756.835938 0.015625)"/>
     <use xlink:href="#DejaVuSerif-65" transform="translate(2812.841797 0.015625)"/>
     <use xlink:href="#DejaVuSerif-6c" transform="translate(2872.021484 0.015625)"/>
     <use xlink:href="#DejaVuSerif-65" transform="translate(2904.003906 0.015625)"/>
     <use xlink:href="#DejaVuSerif-73" transform="translate(2963.183594 0.015625)"/>
     <use xlink:href="#DejaVuSerif-20" transform="translate(3014.501953 0.015625)"/>
     <use xlink:href="#DejaVuSerif-74" transform="translate(3046.289062 0.015625)"/>
     <use xlink:href="#DejaVuSerif-72" transform="translate(3086.474609 0.015625)"/>
     <use xlink:href="#DejaVuSerif-69" transform="translate(3134.277344 0.015625)"/>
     <use xlink:href="#DejaVuSerif-61" transform="translate(3166.259766 0.015625)"/>
     <use xlink:href="#DejaVuSerif-6e" transform="translate(3225.878906 0.015625)"/>
     <use xlink:href="#DejaVuSerif-67" transform="translate(3290.283203 0.015625)"/>
     <use xlink:href="#DejaVuSerif-6c" transform="translate(3354.296875 0.015625)"/>
     <use xlink:href="#DejaVuSerif-65" transform="translate(3386.279297 0.015625)"/>
     <use xlink:href="#DejaVuSerif-20" transform="translate(3445.458984 0.015625)"/>
     <use xlink:href="#DejaVuSerif-6f" transform="translate(3477.246094 0.015625)"/>
     <use xlink:href="#DejaVuSerif-66" transform="translate(3537.451172 0.015625)"/>
     <use xlink:href="#DejaVuSerif-20" transform="translate(3574.462891 0.015625)"/>
     <use xlink:href="#DejaVuSerif-62" transform="translate(3606.25 0.015625)"/>
     <use xlink:href="#DejaVuSerif-61" transform="translate(3670.263672 0.015625)"/>
     <use xlink:href="#DejaVuSerif-73" transform="translate(3729.882812 0.015625)"/>
     <use xlink:href="#DejaVuSerif-65" transform="translate(3781.201172 0.015625)"/>
     <use xlink:href="#DejaVuSerif-20" transform="translate(3840.380859 0.015625)"/>
     <use xlink:href="#Cmmi10-62" transform="translate(3872.167969 0.015625)"/>
     <use xlink:href="#DejaVuSerif-20" transform="translate(3915.087891 0.015625)"/>
     <use xlink:href="#DejaVuSerif-28" transform="translate(3946.875 0.015625)"/>
     <use xlink:href="#DejaVuSerif-61" transform="translate(3985.888672 0.015625)"/>
     <use xlink:href="#DejaVuSerif-67" transform="translate(4045.507812 0.015625)"/>
     <use xlink:href="#DejaVuSerif-61" transform="translate(4109.521484 0.015625)"/>
     <use xlink:href="#DejaVuSerif-69" transform="translate(4169.140625 0.015625)"/>
     <use xlink:href="#DejaVuSerif-6e" transform="translate(4201.123047 0.015625)"/>
     <use xlink:href="#DejaVuSerif-73" transform="translate(4265.527344 0.015625)"/>
     <use xlink:href="#DejaVuSerif-74" transform="translate(4316.845703 0.015625)"/>
     <use xlink:href="#DejaVuSerif-20" transform="translate(4357.03125 0.015625)"/>
     <use xlink:href="#DejaVuSerif-61" transform="translate(4388.818359 0.015625)"/>
     <use xlink:href="#DejaVuSerif-20" transform="translate(4448.4375 0.015625)"/>
     <use xlink:href="#DejaVuSerif-63" transform="translate(4480.224609 0.015625)"/>
     <use xlink:href="#DejaVuSerif-6f" transform="translate(4536.230469 0.015625)"/>
     <use xlink:href="#DejaVuSerif-72" transform="translate(4596.435547 0.015625)"/>
     <use xlink:href="#DejaVuSerif-72" transform="translate(4644.238281 0.015625)"/>
     <use xlink:href="#DejaVuSerif-65" transform="translate(4692.041016 0.015625)"/>
     <use xlink:href="#DejaVuSerif-73" transform="translate(4751.220703 0.015625)"/>
     <use xlink:href="#DejaVuSerif-70" transform="translate(4802.539062 0.015625)"/>
     <use xlink:href="#DejaVuSerif-6f" transform="translate(4866.552734 0.015625)"/>
     <use xlink:href="#DejaVuSerif-6e" transform="translate(4926.757812 0.015625)"/>
     <use xlink:href="#DejaVuSerif-64" transform="translate(4991.162109 0.015625)"/>
     <use xlink:href="#DejaVuSerif-69" transform="translate(5055.175781 0.015625)"/>
     <use xlink:href="#DejaVuSerif-6e" transform="translate(5087.158203 0.015625)"/>
     <use xlink:href="#DejaVuSerif-67" transform="translate(5151.5625 0.015625)"/>
     <use xlink:href="#DejaVuSerif-20" transform="translate(5215.576172 0.015625)"/>
     <use xlink:href="#DejaVuSerif-73" transform="translate(5247.363281 0.015625)"/>
     <use xlink:href="#DejaVuSerif-69" transform="translate(5298.681641 0.015625)"/>
     <use xlink:href="#DejaVuSerif-64" transform="translate(5330.664062 0.015625)"/>
     <use xlink:href="#DejaVuSerif-65" transform="translate(5394.677734 0.015625)"/>
     <use xlink:href="#DejaVuSerif-20" transform="translate(5453.857422 0.015625)"/>
     <use xlink:href="#DejaVuSerif-6f" transform="translate(5485.644531 0.015625)"/>
     <use xlink:href="#DejaVuSerif-66" transform="translate(5545.849609 0.015625)"/>
     <use xlink:href="#DejaVuSerif-20" transform="translate(5582.861328 0.015625)"/>
     <use xlink:href="#DejaVuSerif-74" transform="translate(5614.648438 0.015625)"/>
     <use xlink:href="#DejaVuSerif-68" transform="translate(5654.833984 0.015625)"/>
     <use xlink:href="#DejaVuSerif-65" transform="translate(5719.238281 0.015625)"/>
     <use xlink:href="#DejaVuSerif-20" transform="translate(5778.417969 0.015625)"/>
     <use xlink:href="#DejaVuSerif-72" transform="translate(5810.205078 0.015625)"/>
     <use xlink:href="#DejaVuSerif-65" transform="translate(5858.007812 0.015625)"/>
     <use xlink:href="#DejaVuSerif-63" transform="translate(5917.1875 0.015625)"/>
     <use xlink:href="#DejaVuSerif-74" transform="translate(5973.193359 0.015625)"/>
     <use xlink:href="#DejaVuSerif-61" transform="translate(6013.378906 0.015625)"/>
     <use xlink:href="#DejaVuSerif-6e" transform="translate(6072.998047 0.015625)"/>
     <use xlink:href="#DejaVuSerif-67" transform="translate(6137.402344 0.015625)"/>
     <use xlink:href="#DejaVuSerif-6c" transform="translate(6201.416016 0.015625)"/>
     <use xlink:href="#DejaVuSerif-65" transform="translate(6233.398438 0.015625)"/>
     <use xlink:href="#DejaVuSerif-20" transform="translate(6292.578125 0.015625)"/>
     <use xlink:href="#DejaVuSerif-61" transform="translate(6324.365234 0.015625)"/>
     <use xlink:href="#DejaVuSerif-6e" transform="translate(6383.984375 0.015625)"/>
     <use xlink:href="#DejaVuSerif-64" transform="translate(6448.388672 0.015625)"/>
     <use xlink:href="#DejaVuSerif-20" transform="translate(6512.402344 0.015625)"/>
     <use xlink:href="#DejaVuSerif-70" transform="translate(6544.189453 0.015625)"/>
     <use xlink:href="#DejaVuSerif-6f" transform="translate(6608.203125 0.015625)"/>
     <use xlink:href="#DejaVuSerif-69" transform="translate(6668.408203 0.015625)"/>
     <use xlink:href="#DejaVuSerif-6e" transform="translate(6700.390625 0.015625)"/>
     <use xlink:href="#DejaVuSerif-74" transform="translate(6764.794922 0.015625)"/>
     <use xlink:href="#DejaVuSerif-65" transform="translate(6804.980469 0.015625)"/>
     <use xlink:href="#DejaVuSerif-64" transform="translate(6864.160156 0.015625)"/>
     <use xlink:href="#DejaVuSerif-20" transform="translate(6928.173828 0.015625)"/>
     <use xlink:href="#DejaVuSerif-69" transform="translate(6959.960938 0.015625)"/>
     <use xlink:href="#DejaVuSerif-6e" transform="translate(6991.943359 0.015625)"/>
     <use xlink:href="#DejaVuSerif-20" transform="translate(7056.347656 0.015625)"/>
     <use xlink:href="#DejaVuSerif-74" transform="translate(7088.134766 0.015625)"/>
     <use xlink:href="#DejaVuSerif-68" transform="translate(7128.320312 0.015625)"/>
     <use xlink:href="#DejaVuSerif-65" transform="translate(7192.724609 0.015625)"/>
     <use xlink:href="#DejaVuSerif-20" transform="translate(7251.904297 0.015625)"/>
     <use xlink:href="#DejaVuSerif-6f" transform="translate(7283.691406 0.015625)"/>
     <use xlink:href="#DejaVuSerif-74" transform="translate(7343.896484 0.015625)"/>
     <use xlink:href="#DejaVuSerif-68" transform="translate(7384.082031 0.015625)"/>
     <use xlink:href="#DejaVuSerif-65" transform="translate(7448.486328 0.015625)"/>
     <use xlink:href="#DejaVuSerif-72" transform="translate(7507.666016 0.015625)"/>
     <use xlink:href="#DejaVuSerif-20" transform="translate(7555.46875 0.015625)"/>
     <use xlink:href="#DejaVuSerif-64" transform="translate(7587.255859 0.015625)"/>
     <use xlink:href="#DejaVuSerif-69" transform="translate(7651.269531 0.015625)"/>
     <use xlink:href="#DejaVuSerif-72" transform="translate(7683.251953 0.015625)"/>
     <use xlink:href="#DejaVuSerif-65" transform="translate(7731.054688 0.015625)"/>
     <use xlink:href="#DejaVuSerif-63" transform="translate(7790.234375 0.015625)"/>
     <use xlink:href="#DejaVuSerif-74" transform="translate(7846.240234 0.015625)"/>
     <use xlink:href="#DejaVuSerif-69" transform="translate(7886.425781 0.015625)"/>
     <use xlink:href="#DejaVuSerif-6f" transform="translate(7918.408203 0.015625)"/>
     <use xlink:href="#DejaVuSerif-6e" transform="translate(7978.613281 0.015625)"/>
     <use xlink:href="#DejaVuSerif-29" transform="translate(8043.017578 0.015625)"/>
     <use xlink:href="#DejaVuSerif-20" transform="translate(8082.03125 0.015625)"/>
     <use xlink:href="#DejaVuSerif-69" transform="translate(8113.818359 0.015625)"/>
     <use xlink:href="#DejaVuSerif-6e" transform="translate(8145.800781 0.015625)"/>
     <use xlink:href="#DejaVuSerif-20" transform="translate(8210.205078 0.015625)"/>
     <use xlink:href="#DejaVuSerif-61" transform="translate(8241.992188 0.015625)"/>
     <use xlink:href="#DejaVuSerif-20" transform="translate(8301.611328 0.015625)"/>
     <use xlink:href="#DejaVuSerif-63" transform="translate(8333.398438 0.015625)"/>
     <use xlink:href="#DejaVuSerif-69" transform="translate(8389.404297 0.015625)"/>
     <use xlink:href="#DejaVuSerif-72" transform="translate(8421.386719 0.015625)"/>
     <use xlink:href="#DejaVuSerif-63" transform="translate(8469.189453 0.015625)"/>
     <use xlink:href="#DejaVuSerif-6c" transform="translate(8525.195312 0.015625)"/>
     <use xlink:href="#DejaVuSerif-65" transform="translate(8557.177734 0.015625)"/>
     <use xlink:href="#DejaVuSerif-20" transform="translate(8616.357422 0.015625)"/>
     <use xlink:href="#DejaVuSerif-6f" transform="translate(8648.144531 0.015625)"/>
     <use xlink:href="#DejaVuSerif-66" transform="translate(8708.349609 0.015625)"/>
     <use xlink:href="#DejaVuSerif-20" transform="translate(8745.361328 0.015625)"/>
     <use xlink:href="#DejaVuSerif-72" transform="translate(8777.148438 0.015625)"/>
     <use xlink:href="#DejaVuSerif-61" transform="translate(8824.951172 0.015625)"/>
     <use xlink:href="#DejaVuSerif-64" transform="translate(8884.570312 0.015625)"/>
     <use xlink:href="#DejaVuSerif-69" transform="translate(8948.583984 0.015625)"/>
     <use xlink:href="#DejaVuSerif-75" transform="translate(8980.566406 0.015625)"/>
     <use xlink:href="#DejaVuSerif-73" transform="translate(9044.970703 0.015625)"/>
     <use xlink:href="#DejaVuSerif-20" transform="translate(9096.289062 0.015625)"/>
     <use xlink:href="#DejaVuSerif-6f" transform="translate(9128.076172 0.015625)"/>
     <use xlink:href="#DejaVuSerif-6e" transform="translate(9188.28125 0.015625)"/>
     <use xlink:href="#DejaVuSerif-65" transform="translate(9252.685547 0.015625)"/>
     <use xlink:href="#DejaVuSerif-2e" transform="translate(9311.865234 0.015625)"/>
     <use xlink:href="#DejaVuSerif-20" transform="translate(9343.652344 0.015625)"/>
     <use xlink:href="#DejaVuSerif-46" transform="translate(9375.439453 0.015625)"/>
     <use xlink:href="#DejaVuSerif-6f" transform="translate(9444.824219 0.015625)"/>
     <use xlink:href="#DejaVuSerif-72" transform="translate(9505.029297 0.015625)"/>
     <use xlink:href="#DejaVuSerif-20" transform="translate(9552.832031 0.015625)"/>
     <use xlink:href="#DejaVuSerif-77" transform="translate(9584.619141 0.015625)"/>
     <use xlink:href="#DejaVuSerif-68" transform="translate(9670.214844 0.015625)"/>
     <use xlink:href="#DejaVuSerif-61" transform="translate(9734.619141 0.015625)"/>
     <use xlink:href="#DejaVuSerif-74" transform="translate(9794.238281 0.015625)"/>
     <use xlink:href="#DejaVuSerif-20" transform="translate(9834.423828 0.015625)"/>
     <use xlink:href="#DejaVuSerif-76" transform="translate(9866.210938 0.015625)"/>
     <use xlink:href="#DejaVuSerif-61" transform="translate(9922.705078 0.015625)"/>
     <use xlink:href="#DejaVuSerif-6c" transform="translate(9982.324219 0.015625)"/>
     <use xlink:href="#DejaVuSerif-75" transform="translate(10014.306641 0.015625)"/>
     <use xlink:href="#DejaVuSerif-65" transform="translate(10078.710938 0.015625)"/>
     <use xlink:href="#DejaVuSerif-20" transform="translate(10137.890625 0.015625)"/>
     <use xlink:href="#DejaVuSerif-6f" transform="translate(10169.677734 0.015625)"/>
     <use xlink:href="#DejaVuSerif-66" transform="translate(10229.882812 0.015625)"/>
     <use xlink:href="#DejaVuSerif-20" transform="translate(10266.894531 0.015625)"/>
     <use xlink:href="#Cmmi10-68" transform="translate(10298.681641 0.015625)"/>
     <use xlink:href="#DejaVuSerif-20" transform="translate(10356.298828 0.015625)"/>
     <use xlink:href="#DejaVuSerif-64" transform="translate(10388.085938 0.015625)"/>
     <use xlink:href="#DejaVuSerif-6f" transform="translate(10452.099609 0.015625)"/>
     <use xlink:href="#DejaVuSerif-20" transform="translate(10512.304688 0.015625)"/>
     <use xlink:href="#DejaVuSerif-74" transform="translate(10544.091797 0.015625)"/>
     <use xlink:href="#DejaVuSerif-68" transform="translate(10584.277344 0.015625)"/>
     <use xlink:href="#DejaVuSerif-65" transform="translate(10648.681641 0.015625)"/>
     <use xlink:href="#DejaVuSerif-20" transform="translate(10707.861328 0.015625)"/>
     <use xlink:href="#DejaVuSerif-72" transform="translate(10739.648438 0.015625)"/>
     <use xlink:href="#DejaVuSerif-65" transform="translate(10787.451172 0.015625)"/>
     <use xlink:href="#DejaVuSerif-63" transform="translate(10846.630859 0.015625)"/>
     <use xlink:href="#DejaVuSerif-74" transform="translate(10902.636719 0.015625)"/>
     <use xlink:href="#DejaVuSerif-61" transform="translate(10942.822266 0.015625)"/>
     <use xlink:href="#DejaVuSerif-6e" transform="translate(11002.441406 0.015625)"/>
     <use xlink:href="#DejaVuSerif-67" transform="translate(11066.845703 0.015625)"/>
     <use xlink:href="#DejaVuSerif-6c" transform="translate(11130.859375 0.015625)"/>
     <use xlink:href="#DejaVuSerif-65" transform="translate(11162.841797 0.015625)"/>
     <use xlink:href="#DejaVuSerif-20" transform="translate(11222.021484 0.015625)"/>
     <use xlink:href="#DejaVuSerif-61" transform="translate(11253.808594 0.015625)"/>
     <use xlink:href="#DejaVuSerif-6e" transform="translate(11313.427734 0.015625)"/>
     <use xlink:href="#DejaVuSerif-64" transform="translate(11377.832031 0.015625)"/>
     <use xlink:href="#DejaVuSerif-20" transform="translate(11441.845703 0.015625)"/>
     <use xlink:href="#DejaVuSerif-74" transform="translate(11473.632812 0.015625)"/>
     <use xlink:href="#DejaVuSerif-72" transform="translate(11513.818359 0.015625)"/>
     <use xlink:href="#DejaVuSerif-69" transform="translate(11561.621094 0.015625)"/>
     <use xlink:href="#DejaVuSerif-61" transform="translate(11593.603516 0.015625)"/>
     <use xlink:href="#DejaVuSerif-6e" transform="translate(11653.222656 0.015625)"/>
     <use xlink:href="#DejaVuSerif-67" transform="translate(11717.626953 0.015625)"/>
     <use xlink:href="#DejaVuSerif-6c" transform="translate(11781.640625 0.015625)"/>
     <use xlink:href="#DejaVuSerif-65" transform="translate(11813.623047 0.015625)"/>
     <use xlink:href="#DejaVuSerif-20" transform="translate(11872.802734 0.015625)"/>
     <use xlink:href="#DejaVuSerif-68" transform="translate(11904.589844 0.015625)"/>
     <use xlink:href="#DejaVuSerif-61" transform="translate(11968.994141 0.015625)"/>
     <use xlink:href="#DejaVuSerif-76" transform="translate(12028.613281 0.015625)"/>
     <use xlink:href="#DejaVuSerif-65" transform="translate(12085.107422 0.015625)"/>
     <use xlink:href="#DejaVuSerif-20" transform="translate(12144.287109 0.015625)"/>
     <use xlink:href="#DejaVuSerif-74" transform="translate(12176.074219 0.015625)"/>
     <use xlink:href="#DejaVuSerif-68" transform="translate(12216.259766 0.015625)"/>
     <use xlink:href="#DejaVuSerif-65" transform="translate(12280.664062 0.015625)"/>
     <use xlink:href="#DejaVuSerif-20" transform="translate(12339.84375 0.015625)"/>
     <use xlink:href="#DejaVuSerif-73" transform="translate(12371.630859 0.015625)"/>
     <use xlink:href="#DejaVuSerif-61" transform="translate(12422.949219 0.015625)"/>
     <use xlink:href="#DejaVuSerif-6d" transform="translate(12482.568359 0.015625)"/>
     <use xlink:href="#DejaVuSerif-65" transform="translate(12577.392578 0.015625)"/>
     <use xlink:href="#DejaVuSerif-20" transform="translate(12636.572266 0.015625)"/>
     <use xlink:href="#DejaVuSerif-61" transform="translate(12668.359375 0.015625)"/>
     <use xlink:href="#DejaVuSerif-72" transform="translate(12727.978516 0.015625)"/>
     <use xlink:href="#DejaVuSerif-65" transform="translate(12775.78125 0.015625)"/>
     <use xlink:href="#DejaVuSerif-61" transform="translate(12834.960938 0.015625)"/>
     <use xlink:href="#DejaVuSerif-3f" transform="translate(12894.580078 0.015625)"/>
    </g>
   </g>
  </g>
 </g>
</svg>
