<?xml version="1.0" encoding="utf-8" standalone="no"?>
<!DOCTYPE svg PUBLIC "-//W3C//DTD SVG 1.1//EN"
  "http://www.w3.org/Graphics/SVG/1.1/DTD/svg11.dtd">
<svg xmlns:xlink="http://www.w3.org/1999/xlink" width="1630.44pt" height="180.72pt" viewBox="0 0 1630.44 180.72" xmlns="http://www.w3.org/2000/svg" version="1.1">
 <metadata>
  <rdf:RDF xmlns:dc="http://purl.org/dc/elements/1.1/" xmlns:cc="http://creativecommons.org/ns#" xmlns:rdf="http://www.w3.org/1999/02/22-rdf-syntax-ns#">
   <cc:Work>
    <dc:type rdf:resource="http://purl.org/dc/dcmitype/StillImage"/>
    <dc:date>2025-05-29T18:43:45.133489</dc:date>
    <dc:format>image/svg+xml</dc:format>
    <dc:creator>
     <cc:Agent>
      <dc:title>Matplotlib v3.10.3, https://matplotlib.org/</dc:title>
     </cc:Agent>
    </dc:creator>
   </cc:Work>
  </rdf:RDF>
 </metadata>
 <defs>
  <style type="text/css">*{stroke-linejoin: round; stroke-linecap: butt}</style>
 </defs>
 <g id="figure_1">
  <g id="patch_1">
   <path d="M -0 180.72 
L 1630.44 180.72 
L 1630.44 0 
L -0 0 
z
" style="fill: #ffffff"/>
  </g>
  <g id="axes_1">
   <g id="text_1">
    <!-- Let $H$ be a subgroup of the additive group of ordered pairs of integers under componentwise addition. If $H$ is generated by the elements $(3, 8)$, $(4, -1)$, and $(5, 4)$, then $H$ is also generated by two elements $(1, b)$ and $(0, a)$ for some integer $b$ and positive integer $a$. Find $a$. -->
    <g transform="translate(7.2 93.42) scale(0.12 -0.12)">
     <defs>
      <path id="DejaVuSerif-4c" d="M 353 0 
L 353 331 
L 947 331 
L 947 4331 
L 353 4331 
L 353 4666 
L 2175 4666 
L 2175 4331 
L 1581 4331 
L 1581 384 
L 3713 384 
L 3713 1166 
L 4097 1166 
L 4097 0 
L 353 0 
z
" transform="scale(0.015625)"/>
      <path id="DejaVuSerif-65" d="M 3469 1600 
L 991 1600 
L 991 1575 
Q 991 903 1244 561 
Q 1497 219 1991 219 
Q 2369 219 2611 417 
Q 2853 616 2950 1006 
L 3413 1006 
Q 3275 459 2904 184 
Q 2534 -91 1931 -91 
Q 1203 -91 761 389 
Q 319 869 319 1663 
Q 319 2450 753 2931 
Q 1188 3413 1894 3413 
Q 2647 3413 3050 2948 
Q 3453 2484 3469 1600 
z
M 2791 1931 
Q 2772 2513 2545 2808 
Q 2319 3103 1894 3103 
Q 1497 3103 1269 2806 
Q 1041 2509 991 1931 
L 2791 1931 
z
" transform="scale(0.015625)"/>
      <path id="DejaVuSerif-74" d="M 691 2988 
L 184 2988 
L 184 3322 
L 691 3322 
L 691 4353 
L 1269 4353 
L 1269 3322 
L 2350 3322 
L 2350 2988 
L 1269 2988 
L 1269 878 
Q 1269 456 1350 337 
Q 1431 219 1650 219 
Q 1875 219 1978 351 
Q 2081 484 2088 781 
L 2522 781 
Q 2497 328 2275 118 
Q 2053 -91 1600 -91 
Q 1103 -91 897 129 
Q 691 350 691 878 
L 691 2988 
z
" transform="scale(0.015625)"/>
      <path id="DejaVuSerif-20" transform="scale(0.015625)"/>
      <path id="Cmmi10-48" d="M 300 0 
Q 238 0 238 84 
Q 241 100 250 139 
Q 259 178 276 201 
Q 294 225 319 225 
Q 709 225 863 269 
Q 947 297 984 441 
L 1863 3956 
Q 1875 4019 1875 4044 
Q 1875 4113 1797 4122 
Q 1678 4147 1338 4147 
Q 1275 4147 1275 4231 
Q 1297 4313 1309 4342 
Q 1322 4372 1381 4372 
L 3103 4372 
Q 3169 4372 3169 4288 
Q 3166 4272 3156 4234 
Q 3147 4197 3131 4172 
Q 3116 4147 3084 4147 
Q 2694 4147 2541 4103 
Q 2456 4072 2419 3928 
L 2034 2388 
L 3956 2388 
L 4347 3956 
Q 4359 4019 4359 4044 
Q 4359 4113 4281 4122 
Q 4159 4147 3822 4147 
Q 3756 4147 3756 4231 
Q 3778 4313 3790 4342 
Q 3803 4372 3866 4372 
L 5588 4372 
Q 5650 4372 5650 4288 
Q 5647 4272 5637 4233 
Q 5628 4194 5611 4170 
Q 5594 4147 5569 4147 
Q 5178 4147 5025 4103 
Q 4941 4075 4903 3928 
L 4025 416 
Q 4013 353 4013 325 
Q 4013 259 4091 250 
Q 4213 225 4550 225 
Q 4616 225 4616 141 
Q 4597 66 4578 33 
Q 4559 0 4506 0 
L 2784 0 
Q 2719 0 2719 84 
Q 2731 131 2737 153 
Q 2744 175 2761 200 
Q 2778 225 2803 225 
Q 3194 225 3347 269 
Q 3431 297 3469 441 
L 3897 2163 
L 1978 2163 
L 1544 416 
Q 1528 338 1528 325 
Q 1528 259 1606 250 
Q 1728 225 2069 225 
Q 2131 225 2131 141 
Q 2109 56 2095 28 
Q 2081 0 2022 0 
L 300 0 
z
" transform="scale(0.015625)"/>
      <path id="DejaVuSerif-62" d="M 738 331 
L 738 4531 
L 184 4531 
L 184 4863 
L 1313 4863 
L 1313 2803 
Q 1481 3116 1742 3264 
Q 2003 3413 2388 3413 
Q 3000 3413 3387 2928 
Q 3775 2444 3775 1663 
Q 3775 881 3387 395 
Q 3000 -91 2388 -91 
Q 2003 -91 1742 57 
Q 1481 206 1313 519 
L 1313 0 
L 184 0 
L 184 331 
L 738 331 
z
M 1313 1497 
Q 1313 897 1542 583 
Q 1772 269 2209 269 
Q 2650 269 2876 622 
Q 3103 975 3103 1663 
Q 3103 2353 2876 2703 
Q 2650 3053 2209 3053 
Q 1772 3053 1542 2737 
Q 1313 2422 1313 1825 
L 1313 1497 
z
" transform="scale(0.015625)"/>
      <path id="DejaVuSerif-61" d="M 2547 1044 
L 2547 1747 
L 1806 1747 
Q 1378 1747 1168 1562 
Q 959 1378 959 997 
Q 959 650 1171 447 
Q 1384 244 1747 244 
Q 2106 244 2326 466 
Q 2547 688 2547 1044 
z
M 3122 2075 
L 3122 331 
L 3634 331 
L 3634 0 
L 2547 0 
L 2547 359 
Q 2356 128 2106 18 
Q 1856 -91 1522 -91 
Q 969 -91 644 203 
Q 319 497 319 997 
Q 319 1513 691 1797 
Q 1063 2081 1741 2081 
L 2547 2081 
L 2547 2309 
Q 2547 2688 2317 2895 
Q 2088 3103 1672 3103 
Q 1328 3103 1125 2947 
Q 922 2791 872 2484 
L 575 2484 
L 575 3156 
Q 875 3284 1158 3348 
Q 1441 3413 1709 3413 
Q 2400 3413 2761 3070 
Q 3122 2728 3122 2075 
z
" transform="scale(0.015625)"/>
      <path id="DejaVuSerif-73" d="M 359 184 
L 359 959 
L 691 959 
Q 703 588 923 403 
Q 1144 219 1575 219 
Q 1963 219 2166 364 
Q 2369 509 2369 788 
Q 2369 1006 2220 1140 
Q 2072 1275 1594 1428 
L 1178 1569 
Q 750 1706 558 1912 
Q 366 2119 366 2438 
Q 366 2894 700 3153 
Q 1034 3413 1625 3413 
Q 1888 3413 2178 3344 
Q 2469 3275 2778 3144 
L 2778 2419 
L 2447 2419 
Q 2434 2741 2221 2922 
Q 2009 3103 1644 3103 
Q 1281 3103 1095 2975 
Q 909 2847 909 2591 
Q 909 2381 1050 2254 
Q 1191 2128 1613 1997 
L 2069 1856 
Q 2541 1709 2748 1489 
Q 2956 1269 2956 922 
Q 2956 450 2595 179 
Q 2234 -91 1600 -91 
Q 1278 -91 972 -22 
Q 666 47 359 184 
z
" transform="scale(0.015625)"/>
      <path id="DejaVuSerif-75" d="M 2266 3322 
L 3341 3322 
L 3341 331 
L 3884 331 
L 3884 0 
L 2766 0 
L 2766 588 
Q 2606 256 2353 82 
Q 2100 -91 1766 -91 
Q 1213 -91 952 223 
Q 691 538 691 1209 
L 691 2988 
L 172 2988 
L 172 3322 
L 1269 3322 
L 1269 1388 
Q 1269 781 1417 556 
Q 1566 331 1947 331 
Q 2347 331 2556 625 
Q 2766 919 2766 1478 
L 2766 2988 
L 2266 2988 
L 2266 3322 
z
" transform="scale(0.015625)"/>
      <path id="DejaVuSerif-67" d="M 3359 2988 
L 3359 72 
Q 3359 -644 2965 -1033 
Q 2572 -1422 1844 -1422 
Q 1516 -1422 1216 -1362 
Q 916 -1303 641 -1184 
L 641 -488 
L 941 -488 
Q 997 -813 1206 -963 
Q 1416 -1113 1806 -1113 
Q 2313 -1113 2548 -827 
Q 2784 -541 2784 72 
L 2784 519 
Q 2616 206 2355 57 
Q 2094 -91 1709 -91 
Q 1097 -91 708 395 
Q 319 881 319 1663 
Q 319 2444 706 2928 
Q 1094 3413 1709 3413 
Q 2094 3413 2355 3264 
Q 2616 3116 2784 2803 
L 2784 3322 
L 3909 3322 
L 3909 2988 
L 3359 2988 
z
M 2784 1825 
Q 2784 2422 2554 2737 
Q 2325 3053 1888 3053 
Q 1444 3053 1217 2703 
Q 991 2353 991 1663 
Q 991 975 1217 622 
Q 1444 269 1888 269 
Q 2325 269 2554 583 
Q 2784 897 2784 1497 
L 2784 1825 
z
" transform="scale(0.015625)"/>
      <path id="DejaVuSerif-72" d="M 3059 3328 
L 3059 2497 
L 2728 2497 
Q 2713 2744 2591 2866 
Q 2469 2988 2234 2988 
Q 1809 2988 1582 2694 
Q 1356 2400 1356 1850 
L 1356 331 
L 2022 331 
L 2022 0 
L 263 0 
L 263 331 
L 781 331 
L 781 2994 
L 231 2994 
L 231 3322 
L 1356 3322 
L 1356 2731 
Q 1525 3078 1790 3245 
Q 2056 3413 2438 3413 
Q 2578 3413 2733 3391 
Q 2888 3369 3059 3328 
z
" transform="scale(0.015625)"/>
      <path id="DejaVuSerif-6f" d="M 1925 219 
Q 2388 219 2623 584 
Q 2859 950 2859 1663 
Q 2859 2375 2623 2739 
Q 2388 3103 1925 3103 
Q 1463 3103 1227 2739 
Q 991 2375 991 1663 
Q 991 950 1228 584 
Q 1466 219 1925 219 
z
M 1925 -91 
Q 1200 -91 759 389 
Q 319 869 319 1663 
Q 319 2456 758 2934 
Q 1197 3413 1925 3413 
Q 2653 3413 3092 2934 
Q 3531 2456 3531 1663 
Q 3531 869 3092 389 
Q 2653 -91 1925 -91 
z
" transform="scale(0.015625)"/>
      <path id="DejaVuSerif-70" d="M 1313 1825 
L 1313 1497 
Q 1313 897 1542 583 
Q 1772 269 2209 269 
Q 2650 269 2876 622 
Q 3103 975 3103 1663 
Q 3103 2353 2876 2703 
Q 2650 3053 2209 3053 
Q 1772 3053 1542 2737 
Q 1313 2422 1313 1825 
z
M 738 2988 
L 184 2988 
L 184 3322 
L 1313 3322 
L 1313 2803 
Q 1481 3116 1742 3264 
Q 2003 3413 2388 3413 
Q 3000 3413 3387 2928 
Q 3775 2444 3775 1663 
Q 3775 881 3387 395 
Q 3000 -91 2388 -91 
Q 2003 -91 1742 57 
Q 1481 206 1313 519 
L 1313 -997 
L 1856 -997 
L 1856 -1331 
L 184 -1331 
L 184 -997 
L 738 -997 
L 738 2988 
z
" transform="scale(0.015625)"/>
      <path id="DejaVuSerif-66" d="M 2753 4078 
L 2450 4078 
Q 2447 4313 2317 4434 
Q 2188 4556 1941 4556 
Q 1619 4556 1487 4379 
Q 1356 4203 1356 3750 
L 1356 3322 
L 2284 3322 
L 2284 2988 
L 1356 2988 
L 1356 331 
L 2094 331 
L 2094 0 
L 231 0 
L 231 331 
L 781 331 
L 781 2988 
L 231 2988 
L 231 3322 
L 781 3322 
L 781 3738 
Q 781 4294 1070 4578 
Q 1359 4863 1919 4863 
Q 2128 4863 2337 4825 
Q 2547 4788 2753 4709 
L 2753 4078 
z
" transform="scale(0.015625)"/>
      <path id="DejaVuSerif-68" d="M 263 0 
L 263 331 
L 781 331 
L 781 4531 
L 231 4531 
L 231 4863 
L 1356 4863 
L 1356 2731 
Q 1516 3069 1770 3241 
Q 2025 3413 2363 3413 
Q 2913 3413 3172 3097 
Q 3431 2781 3431 2113 
L 3431 331 
L 3944 331 
L 3944 0 
L 2356 0 
L 2356 331 
L 2853 331 
L 2853 1931 
Q 2853 2541 2704 2764 
Q 2556 2988 2175 2988 
Q 1775 2988 1565 2697 
Q 1356 2406 1356 1850 
L 1356 331 
L 1856 331 
L 1856 0 
L 263 0 
z
" transform="scale(0.015625)"/>
      <path id="DejaVuSerif-64" d="M 3359 331 
L 3909 331 
L 3909 0 
L 2784 0 
L 2784 519 
Q 2616 206 2355 57 
Q 2094 -91 1709 -91 
Q 1097 -91 708 395 
Q 319 881 319 1663 
Q 319 2444 706 2928 
Q 1094 3413 1709 3413 
Q 2094 3413 2355 3264 
Q 2616 3116 2784 2803 
L 2784 4531 
L 2241 4531 
L 2241 4863 
L 3359 4863 
L 3359 331 
z
M 2784 1497 
L 2784 1825 
Q 2784 2422 2554 2737 
Q 2325 3053 1888 3053 
Q 1444 3053 1217 2703 
Q 991 2353 991 1663 
Q 991 975 1217 622 
Q 1444 269 1888 269 
Q 2325 269 2554 583 
Q 2784 897 2784 1497 
z
" transform="scale(0.015625)"/>
      <path id="DejaVuSerif-69" d="M 622 4353 
Q 622 4497 726 4603 
Q 831 4709 978 4709 
Q 1122 4709 1226 4603 
Q 1331 4497 1331 4353 
Q 1331 4206 1228 4103 
Q 1125 4000 978 4000 
Q 831 4000 726 4103 
Q 622 4206 622 4353 
z
M 1356 331 
L 1900 331 
L 1900 0 
L 231 0 
L 231 331 
L 781 331 
L 781 2988 
L 231 2988 
L 231 3322 
L 1356 3322 
L 1356 331 
z
" transform="scale(0.015625)"/>
      <path id="DejaVuSerif-76" d="M 1581 0 
L 359 2988 
L -19 2988 
L -19 3322 
L 1509 3322 
L 1509 2988 
L 978 2988 
L 1913 703 
L 2847 2988 
L 2350 2988 
L 2350 3322 
L 3597 3322 
L 3597 2988 
L 3225 2988 
L 2003 0 
L 1581 0 
z
" transform="scale(0.015625)"/>
      <path id="DejaVuSerif-6e" d="M 263 0 
L 263 331 
L 781 331 
L 781 2988 
L 231 2988 
L 231 3322 
L 1356 3322 
L 1356 2731 
Q 1516 3069 1770 3241 
Q 2025 3413 2363 3413 
Q 2913 3413 3172 3097 
Q 3431 2781 3431 2113 
L 3431 331 
L 3944 331 
L 3944 0 
L 2356 0 
L 2356 331 
L 2853 331 
L 2853 1931 
Q 2853 2541 2703 2767 
Q 2553 2994 2175 2994 
Q 1775 2994 1565 2701 
Q 1356 2409 1356 1850 
L 1356 331 
L 1856 331 
L 1856 0 
L 263 0 
z
" transform="scale(0.015625)"/>
      <path id="DejaVuSerif-63" d="M 3291 997 
Q 3169 466 2822 187 
Q 2475 -91 1925 -91 
Q 1200 -91 759 389 
Q 319 869 319 1663 
Q 319 2459 759 2936 
Q 1200 3413 1925 3413 
Q 2241 3413 2553 3339 
Q 2866 3266 3181 3116 
L 3181 2266 
L 2847 2266 
Q 2781 2703 2561 2903 
Q 2341 3103 1931 3103 
Q 1466 3103 1228 2742 
Q 991 2381 991 1663 
Q 991 944 1227 581 
Q 1463 219 1931 219 
Q 2303 219 2525 412 
Q 2747 606 2828 997 
L 3291 997 
z
" transform="scale(0.015625)"/>
      <path id="DejaVuSerif-6d" d="M 3316 2675 
Q 3481 3041 3739 3227 
Q 3997 3413 4341 3413 
Q 4863 3413 5119 3089 
Q 5375 2766 5375 2113 
L 5375 331 
L 5894 331 
L 5894 0 
L 4300 0 
L 4300 331 
L 4800 331 
L 4800 2047 
Q 4800 2556 4650 2772 
Q 4500 2988 4153 2988 
Q 3769 2988 3567 2697 
Q 3366 2406 3366 1850 
L 3366 331 
L 3866 331 
L 3866 0 
L 2291 0 
L 2291 331 
L 2791 331 
L 2791 2069 
Q 2791 2566 2641 2777 
Q 2491 2988 2144 2988 
Q 1759 2988 1557 2697 
Q 1356 2406 1356 1850 
L 1356 331 
L 1856 331 
L 1856 0 
L 263 0 
L 263 331 
L 781 331 
L 781 2994 
L 231 2994 
L 231 3322 
L 1356 3322 
L 1356 2731 
Q 1516 3063 1762 3238 
Q 2009 3413 2322 3413 
Q 2709 3413 2968 3220 
Q 3228 3028 3316 2675 
z
" transform="scale(0.015625)"/>
      <path id="DejaVuSerif-77" d="M 3072 3322 
L 3922 728 
L 4672 2988 
L 4191 2988 
L 4191 3322 
L 5394 3322 
L 5394 2988 
L 5025 2988 
L 4038 0 
L 3559 0 
L 2741 2484 
L 1919 0 
L 1459 0 
L 475 2988 
L 103 2988 
L 103 3322 
L 1606 3322 
L 1606 2988 
L 1069 2988 
L 1813 728 
L 2669 3322 
L 3072 3322 
z
" transform="scale(0.015625)"/>
      <path id="DejaVuSerif-2e" d="M 603 325 
Q 603 500 722 622 
Q 841 744 1019 744 
Q 1191 744 1312 622 
Q 1434 500 1434 325 
Q 1434 153 1312 31 
Q 1191 -91 1019 -91 
Q 841 -91 722 29 
Q 603 150 603 325 
z
" transform="scale(0.015625)"/>
      <path id="DejaVuSerif-49" d="M 1581 331 
L 2175 331 
L 2175 0 
L 353 0 
L 353 331 
L 947 331 
L 947 4331 
L 353 4331 
L 353 4666 
L 2175 4666 
L 2175 4331 
L 1581 4331 
L 1581 331 
z
" transform="scale(0.015625)"/>
      <path id="DejaVuSerif-79" d="M 1381 -609 
L 1600 -56 
L 359 2988 
L -19 2988 
L -19 3322 
L 1509 3322 
L 1509 2988 
L 978 2988 
L 1913 703 
L 2847 2988 
L 2350 2988 
L 2350 3322 
L 3597 3322 
L 3597 2988 
L 3225 2988 
L 1703 -750 
Q 1547 -1138 1356 -1280 
Q 1166 -1422 819 -1422 
Q 672 -1422 517 -1397 
Q 363 -1372 206 -1325 
L 206 -691 
L 500 -691 
Q 519 -903 608 -995 
Q 697 -1088 884 -1088 
Q 1056 -1088 1161 -992 
Q 1266 -897 1381 -609 
z
" transform="scale(0.015625)"/>
      <path id="DejaVuSerif-6c" d="M 1313 331 
L 1856 331 
L 1856 0 
L 184 0 
L 184 331 
L 738 331 
L 738 4531 
L 184 4531 
L 184 4863 
L 1313 4863 
L 1313 331 
z
" transform="scale(0.015625)"/>
      <path id="Cmr10-28" d="M 1984 -1588 
Q 1628 -1306 1370 -942 
Q 1113 -578 948 -165 
Q 784 247 703 697 
Q 622 1147 622 1600 
Q 622 2059 703 2509 
Q 784 2959 951 3375 
Q 1119 3791 1378 4153 
Q 1638 4516 1984 4788 
Q 1984 4800 2016 4800 
L 2075 4800 
Q 2094 4800 2109 4783 
Q 2125 4766 2125 4744 
Q 2125 4716 2113 4703 
Q 1800 4397 1592 4047 
Q 1384 3697 1257 3301 
Q 1131 2906 1075 2482 
Q 1019 2059 1019 1600 
Q 1019 -434 2106 -1491 
Q 2125 -1509 2125 -1544 
Q 2125 -1559 2108 -1579 
Q 2091 -1600 2075 -1600 
L 2016 -1600 
Q 1984 -1600 1984 -1588 
z
" transform="scale(0.015625)"/>
      <path id="Cmr10-33" d="M 609 494 
Q 759 275 1012 169 
Q 1266 63 1556 63 
Q 1928 63 2084 380 
Q 2241 697 2241 1100 
Q 2241 1281 2208 1462 
Q 2175 1644 2097 1800 
Q 2019 1956 1883 2050 
Q 1747 2144 1550 2144 
L 1125 2144 
Q 1069 2144 1069 2203 
L 1069 2259 
Q 1069 2309 1125 2309 
L 1478 2338 
Q 1703 2338 1851 2506 
Q 2000 2675 2069 2917 
Q 2138 3159 2138 3378 
Q 2138 3684 1994 3881 
Q 1850 4078 1556 4078 
Q 1313 4078 1091 3986 
Q 869 3894 738 3706 
Q 750 3709 759 3711 
Q 769 3713 781 3713 
Q 925 3713 1022 3613 
Q 1119 3513 1119 3372 
Q 1119 3234 1022 3134 
Q 925 3034 781 3034 
Q 641 3034 541 3134 
Q 441 3234 441 3372 
Q 441 3647 606 3850 
Q 772 4053 1033 4158 
Q 1294 4263 1556 4263 
Q 1750 4263 1965 4205 
Q 2181 4147 2356 4039 
Q 2531 3931 2642 3762 
Q 2753 3594 2753 3378 
Q 2753 3109 2633 2881 
Q 2513 2653 2303 2487 
Q 2094 2322 1844 2241 
Q 2122 2188 2372 2031 
Q 2622 1875 2773 1631 
Q 2925 1388 2925 1106 
Q 2925 753 2731 467 
Q 2538 181 2222 20 
Q 1906 -141 1556 -141 
Q 1256 -141 954 -26 
Q 653 88 461 316 
Q 269 544 269 863 
Q 269 1022 375 1128 
Q 481 1234 641 1234 
Q 744 1234 830 1186 
Q 916 1138 964 1050 
Q 1013 963 1013 863 
Q 1013 706 903 600 
Q 794 494 641 494 
L 609 494 
z
" transform="scale(0.015625)"/>
      <path id="Cmmi10-3b" d="M 634 -1153 
Q 634 -1125 659 -1100 
Q 891 -878 1019 -587 
Q 1147 -297 1147 25 
L 1147 103 
Q 1044 0 891 0 
Q 744 0 641 103 
Q 538 206 538 353 
Q 538 503 641 603 
Q 744 703 891 703 
Q 1119 703 1216 492 
Q 1313 281 1313 25 
Q 1313 -331 1170 -651 
Q 1028 -972 769 -1228 
Q 744 -1241 728 -1241 
Q 697 -1241 665 -1212 
Q 634 -1184 634 -1153 
z
" transform="scale(0.015625)"/>
      <path id="Cmr10-38" d="M 269 972 
Q 269 1356 522 1651 
Q 775 1947 1172 2144 
L 934 2297 
Q 716 2441 578 2680 
Q 441 2919 441 3181 
Q 441 3488 602 3734 
Q 763 3981 1030 4122 
Q 1297 4263 1600 4263 
Q 1884 4263 2148 4147 
Q 2413 4031 2583 3815 
Q 2753 3600 2753 3303 
Q 2753 3088 2651 2903 
Q 2550 2719 2373 2572 
Q 2197 2425 1997 2322 
L 2363 2088 
Q 2616 1922 2770 1653 
Q 2925 1384 2925 1088 
Q 2925 741 2739 456 
Q 2553 172 2247 15 
Q 1941 -141 1600 -141 
Q 1269 -141 961 -6 
Q 653 128 461 383 
Q 269 638 269 972 
z
M 616 972 
Q 616 719 755 509 
Q 894 300 1122 181 
Q 1350 63 1600 63 
Q 1972 63 2275 280 
Q 2578 497 2578 856 
Q 2578 978 2529 1098 
Q 2481 1219 2395 1317 
Q 2309 1416 2203 1478 
L 1344 2034 
Q 1144 1928 976 1765 
Q 809 1603 712 1400 
Q 616 1197 616 972 
z
M 1056 2925 
L 1831 2425 
Q 2100 2581 2272 2803 
Q 2444 3025 2444 3303 
Q 2444 3519 2323 3698 
Q 2203 3878 2009 3978 
Q 1816 4078 1594 4078 
Q 1400 4078 1203 4003 
Q 1006 3928 878 3779 
Q 750 3631 750 3431 
Q 750 3131 1056 2925 
z
" transform="scale(0.015625)"/>
      <path id="Cmr10-29" d="M 416 -1600 
Q 359 -1600 359 -1544 
Q 359 -1516 372 -1503 
Q 1466 -434 1466 1600 
Q 1466 3634 384 4691 
Q 359 4706 359 4744 
Q 359 4766 376 4783 
Q 394 4800 416 4800 
L 475 4800 
Q 494 4800 506 4788 
Q 966 4425 1272 3906 
Q 1578 3388 1720 2800 
Q 1863 2213 1863 1600 
Q 1863 1147 1786 708 
Q 1709 269 1542 -157 
Q 1375 -584 1119 -945 
Q 863 -1306 506 -1588 
Q 494 -1600 475 -1600 
L 416 -1600 
z
" transform="scale(0.015625)"/>
      <path id="DejaVuSerif-2c" d="M 231 -622 
Q 525 -406 662 -114 
Q 800 178 800 594 
L 800 709 
L 1416 709 
Q 1391 175 1164 -208 
Q 938 -591 481 -872 
L 231 -622 
z
" transform="scale(0.015625)"/>
      <path id="Cmr10-34" d="M 178 1056 
L 178 1281 
L 2156 4231 
Q 2178 4263 2222 4263 
L 2316 4263 
Q 2388 4263 2388 4191 
L 2388 1281 
L 3016 1281 
L 3016 1056 
L 2388 1056 
L 2388 428 
Q 2388 297 2575 261 
Q 2763 225 3009 225 
L 3009 0 
L 1247 0 
L 1247 225 
Q 1494 225 1681 261 
Q 1869 297 1869 428 
L 1869 1056 
L 178 1056 
z
M 391 1281 
L 1906 1281 
L 1906 3547 
L 391 1281 
z
" transform="scale(0.015625)"/>
      <path id="Cmsy10-a1" d="M 653 1472 
Q 600 1472 565 1512 
Q 531 1553 531 1600 
Q 531 1647 565 1687 
Q 600 1728 653 1728 
L 4325 1728 
Q 4375 1728 4408 1687 
Q 4441 1647 4441 1600 
Q 4441 1553 4408 1512 
Q 4375 1472 4325 1472 
L 653 1472 
z
" transform="scale(0.015625)"/>
      <path id="Cmr10-31" d="M 594 0 
L 594 225 
Q 1394 225 1394 428 
L 1394 3788 
Q 1063 3628 556 3628 
L 556 3853 
Q 1341 3853 1741 4263 
L 1831 4263 
Q 1853 4263 1873 4245 
Q 1894 4228 1894 4206 
L 1894 428 
Q 1894 225 2694 225 
L 2694 0 
L 594 0 
z
" transform="scale(0.015625)"/>
      <path id="Cmr10-35" d="M 556 728 
Q 622 541 758 387 
Q 894 234 1080 148 
Q 1266 63 1466 63 
Q 1928 63 2103 422 
Q 2278 781 2278 1294 
Q 2278 1516 2270 1667 
Q 2263 1819 2228 1959 
Q 2169 2184 2020 2353 
Q 1872 2522 1656 2522 
Q 1441 2522 1286 2456 
Q 1131 2391 1034 2303 
Q 938 2216 863 2119 
Q 788 2022 769 2016 
L 697 2016 
Q 681 2016 657 2036 
Q 634 2056 634 2075 
L 634 4213 
Q 634 4228 654 4245 
Q 675 4263 697 4263 
L 716 4263 
Q 1147 4056 1631 4056 
Q 2106 4056 2547 4263 
L 2566 4263 
Q 2588 4263 2606 4247 
Q 2625 4231 2625 4213 
L 2625 4153 
Q 2625 4122 2613 4122 
Q 2394 3831 2064 3668 
Q 1734 3506 1381 3506 
Q 1125 3506 856 3578 
L 856 2369 
Q 1069 2541 1236 2614 
Q 1403 2688 1663 2688 
Q 2016 2688 2295 2484 
Q 2575 2281 2725 1954 
Q 2875 1628 2875 1288 
Q 2875 903 2686 575 
Q 2497 247 2172 53 
Q 1847 -141 1466 -141 
Q 1150 -141 886 21 
Q 622 184 470 459 
Q 319 734 319 1044 
Q 319 1188 412 1278 
Q 506 1369 647 1369 
Q 788 1369 883 1276 
Q 978 1184 978 1044 
Q 978 906 883 811 
Q 788 716 647 716 
Q 625 716 597 720 
Q 569 725 556 728 
z
" transform="scale(0.015625)"/>
      <path id="Cmmi10-62" d="M 1106 -72 
Q 719 -72 503 231 
Q 288 534 288 941 
Q 288 1000 317 1173 
Q 347 1347 347 1388 
L 966 3872 
Q 991 3981 997 4044 
Q 997 4147 581 4147 
Q 519 4147 519 4231 
Q 522 4247 533 4287 
Q 544 4328 561 4350 
Q 578 4372 609 4372 
L 1472 4441 
Q 1550 4441 1550 4359 
L 1075 2472 
Q 1438 2828 1806 2828 
Q 2078 2828 2273 2684 
Q 2469 2541 2566 2306 
Q 2663 2072 2663 1806 
Q 2663 1497 2542 1167 
Q 2422 838 2209 555 
Q 1997 272 1712 100 
Q 1428 -72 1106 -72 
z
M 1119 97 
Q 1338 97 1528 280 
Q 1719 463 1838 691 
Q 1966 947 2077 1386 
Q 2188 1825 2188 2088 
Q 2188 2316 2092 2489 
Q 1997 2663 1791 2663 
Q 1559 2663 1348 2492 
Q 1138 2322 978 2088 
L 800 1363 
Q 697 959 691 716 
Q 691 475 795 286 
Q 900 97 1119 97 
z
" transform="scale(0.015625)"/>
      <path id="Cmr10-30" d="M 1600 -141 
Q 816 -141 533 504 
Q 250 1150 250 2041 
Q 250 2597 351 3087 
Q 453 3578 754 3920 
Q 1056 4263 1600 4263 
Q 2022 4263 2290 4056 
Q 2559 3850 2700 3523 
Q 2841 3197 2892 2823 
Q 2944 2450 2944 2041 
Q 2944 1491 2842 1011 
Q 2741 531 2444 195 
Q 2147 -141 1600 -141 
z
M 1600 25 
Q 1956 25 2131 390 
Q 2306 756 2347 1200 
Q 2388 1644 2388 2144 
Q 2388 2625 2347 3031 
Q 2306 3438 2132 3767 
Q 1959 4097 1600 4097 
Q 1238 4097 1063 3765 
Q 888 3434 847 3029 
Q 806 2625 806 2144 
Q 806 1788 823 1472 
Q 841 1156 916 820 
Q 991 484 1158 254 
Q 1325 25 1600 25 
z
" transform="scale(0.015625)"/>
      <path id="Cmmi10-61" d="M 1113 -72 
Q 709 -72 476 233 
Q 244 538 244 953 
Q 244 1363 456 1803 
Q 669 2244 1030 2536 
Q 1391 2828 1806 2828 
Q 1997 2828 2147 2725 
Q 2297 2622 2381 2444 
Q 2453 2700 2663 2700 
Q 2744 2700 2798 2651 
Q 2853 2603 2853 2522 
Q 2853 2503 2851 2493 
Q 2850 2484 2847 2472 
L 2400 684 
Q 2356 494 2356 372 
Q 2356 97 2541 97 
Q 2741 97 2845 351 
Q 2950 606 3022 941 
Q 3034 978 3072 978 
L 3150 978 
Q 3175 978 3190 956 
Q 3206 934 3206 916 
Q 3094 469 2961 198 
Q 2828 -72 2528 -72 
Q 2313 -72 2147 54 
Q 1981 181 1941 391 
Q 1528 -72 1113 -72 
z
M 1119 97 
Q 1350 97 1567 270 
Q 1784 444 1941 678 
Q 1947 684 1947 697 
L 2291 2088 
L 2297 2106 
Q 2259 2334 2132 2498 
Q 2006 2663 1791 2663 
Q 1575 2663 1389 2486 
Q 1203 2309 1075 2069 
Q 950 1813 836 1366 
Q 722 919 722 672 
Q 722 450 817 273 
Q 913 97 1119 97 
z
" transform="scale(0.015625)"/>
      <path id="DejaVuSerif-46" d="M 353 0 
L 353 331 
L 947 331 
L 947 4331 
L 353 4331 
L 353 4666 
L 4172 4666 
L 4172 3628 
L 3788 3628 
L 3788 4281 
L 1581 4281 
L 1581 2719 
L 3175 2719 
L 3175 3303 
L 3559 3303 
L 3559 1753 
L 3175 1753 
L 3175 2338 
L 1581 2338 
L 1581 331 
L 2328 331 
L 2328 0 
L 353 0 
z
" transform="scale(0.015625)"/>
     </defs>
     <use xlink:href="#DejaVuSerif-4c" transform="translate(0 0.015625)"/>
     <use xlink:href="#DejaVuSerif-65" transform="translate(66.40625 0.015625)"/>
     <use xlink:href="#DejaVuSerif-74" transform="translate(125.585938 0.015625)"/>
     <use xlink:href="#DejaVuSerif-20" transform="translate(165.771484 0.015625)"/>
     <use xlink:href="#Cmmi10-48" transform="translate(197.558594 0.015625)"/>
     <use xlink:href="#DejaVuSerif-20" transform="translate(280.664062 0.015625)"/>
     <use xlink:href="#DejaVuSerif-62" transform="translate(312.451172 0.015625)"/>
     <use xlink:href="#DejaVuSerif-65" transform="translate(376.464844 0.015625)"/>
     <use xlink:href="#DejaVuSerif-20" transform="translate(435.644531 0.015625)"/>
     <use xlink:href="#DejaVuSerif-61" transform="translate(467.431641 0.015625)"/>
     <use xlink:href="#DejaVuSerif-20" transform="translate(527.050781 0.015625)"/>
     <use xlink:href="#DejaVuSerif-73" transform="translate(558.837891 0.015625)"/>
     <use xlink:href="#DejaVuSerif-75" transform="translate(610.15625 0.015625)"/>
     <use xlink:href="#DejaVuSerif-62" transform="translate(674.560547 0.015625)"/>
     <use xlink:href="#DejaVuSerif-67" transform="translate(738.574219 0.015625)"/>
     <use xlink:href="#DejaVuSerif-72" transform="translate(802.587891 0.015625)"/>
     <use xlink:href="#DejaVuSerif-6f" transform="translate(850.390625 0.015625)"/>
     <use xlink:href="#DejaVuSerif-75" transform="translate(910.595703 0.015625)"/>
     <use xlink:href="#DejaVuSerif-70" transform="translate(975 0.015625)"/>
     <use xlink:href="#DejaVuSerif-20" transform="translate(1039.013672 0.015625)"/>
     <use xlink:href="#DejaVuSerif-6f" transform="translate(1070.800781 0.015625)"/>
     <use xlink:href="#DejaVuSerif-66" transform="translate(1131.005859 0.015625)"/>
     <use xlink:href="#DejaVuSerif-20" transform="translate(1168.017578 0.015625)"/>
     <use xlink:href="#DejaVuSerif-74" transform="translate(1199.804688 0.015625)"/>
     <use xlink:href="#DejaVuSerif-68" transform="translate(1239.990234 0.015625)"/>
     <use xlink:href="#DejaVuSerif-65" transform="translate(1304.394531 0.015625)"/>
     <use xlink:href="#DejaVuSerif-20" transform="translate(1363.574219 0.015625)"/>
     <use xlink:href="#DejaVuSerif-61" transform="translate(1395.361328 0.015625)"/>
     <use xlink:href="#DejaVuSerif-64" transform="translate(1454.980469 0.015625)"/>
     <use xlink:href="#DejaVuSerif-64" transform="translate(1518.994141 0.015625)"/>
     <use xlink:href="#DejaVuSerif-69" transform="translate(1583.007812 0.015625)"/>
     <use xlink:href="#DejaVuSerif-74" transform="translate(1614.990234 0.015625)"/>
     <use xlink:href="#DejaVuSerif-69" transform="translate(1655.175781 0.015625)"/>
     <use xlink:href="#DejaVuSerif-76" transform="translate(1687.158203 0.015625)"/>
     <use xlink:href="#DejaVuSerif-65" transform="translate(1743.652344 0.015625)"/>
     <use xlink:href="#DejaVuSerif-20" transform="translate(1802.832031 0.015625)"/>
     <use xlink:href="#DejaVuSerif-67" transform="translate(1834.619141 0.015625)"/>
     <use xlink:href="#DejaVuSerif-72" transform="translate(1898.632812 0.015625)"/>
     <use xlink:href="#DejaVuSerif-6f" transform="translate(1946.435547 0.015625)"/>
     <use xlink:href="#DejaVuSerif-75" transform="translate(2006.640625 0.015625)"/>
     <use xlink:href="#DejaVuSerif-70" transform="translate(2071.044922 0.015625)"/>
     <use xlink:href="#DejaVuSerif-20" transform="translate(2135.058594 0.015625)"/>
     <use xlink:href="#DejaVuSerif-6f" transform="translate(2166.845703 0.015625)"/>
     <use xlink:href="#DejaVuSerif-66" transform="translate(2227.050781 0.015625)"/>
     <use xlink:href="#DejaVuSerif-20" transform="translate(2264.0625 0.015625)"/>
     <use xlink:href="#DejaVuSerif-6f" transform="translate(2295.849609 0.015625)"/>
     <use xlink:href="#DejaVuSerif-72" transform="translate(2356.054688 0.015625)"/>
     <use xlink:href="#DejaVuSerif-64" transform="translate(2403.857422 0.015625)"/>
     <use xlink:href="#DejaVuSerif-65" transform="translate(2467.871094 0.015625)"/>
     <use xlink:href="#DejaVuSerif-72" transform="translate(2527.050781 0.015625)"/>
     <use xlink:href="#DejaVuSerif-65" transform="translate(2574.853516 0.015625)"/>
     <use xlink:href="#DejaVuSerif-64" transform="translate(2634.033203 0.015625)"/>
     <use xlink:href="#DejaVuSerif-20" transform="translate(2698.046875 0.015625)"/>
     <use xlink:href="#DejaVuSerif-70" transform="translate(2729.833984 0.015625)"/>
     <use xlink:href="#DejaVuSerif-61" transform="translate(2793.847656 0.015625)"/>
     <use xlink:href="#DejaVuSerif-69" transform="translate(2853.466797 0.015625)"/>
     <use xlink:href="#DejaVuSerif-72" transform="translate(2885.449219 0.015625)"/>
     <use xlink:href="#DejaVuSerif-73" transform="translate(2933.251953 0.015625)"/>
     <use xlink:href="#DejaVuSerif-20" transform="translate(2984.570312 0.015625)"/>
     <use xlink:href="#DejaVuSerif-6f" transform="translate(3016.357422 0.015625)"/>
     <use xlink:href="#DejaVuSerif-66" transform="translate(3076.5625 0.015625)"/>
     <use xlink:href="#DejaVuSerif-20" transform="translate(3113.574219 0.015625)"/>
     <use xlink:href="#DejaVuSerif-69" transform="translate(3145.361328 0.015625)"/>
     <use xlink:href="#DejaVuSerif-6e" transform="translate(3177.34375 0.015625)"/>
     <use xlink:href="#DejaVuSerif-74" transform="translate(3241.748047 0.015625)"/>
     <use xlink:href="#DejaVuSerif-65" transform="translate(3281.933594 0.015625)"/>
     <use xlink:href="#DejaVuSerif-67" transform="translate(3341.113281 0.015625)"/>
     <use xlink:href="#DejaVuSerif-65" transform="translate(3405.126953 0.015625)"/>
     <use xlink:href="#DejaVuSerif-72" transform="translate(3464.306641 0.015625)"/>
     <use xlink:href="#DejaVuSerif-73" transform="translate(3512.109375 0.015625)"/>
     <use xlink:href="#DejaVuSerif-20" transform="translate(3563.427734 0.015625)"/>
     <use xlink:href="#DejaVuSerif-75" transform="translate(3595.214844 0.015625)"/>
     <use xlink:href="#DejaVuSerif-6e" transform="translate(3659.619141 0.015625)"/>
     <use xlink:href="#DejaVuSerif-64" transform="translate(3724.023438 0.015625)"/>
     <use xlink:href="#DejaVuSerif-65" transform="translate(3788.037109 0.015625)"/>
     <use xlink:href="#DejaVuSerif-72" transform="translate(3847.216797 0.015625)"/>
     <use xlink:href="#DejaVuSerif-20" transform="translate(3895.019531 0.015625)"/>
     <use xlink:href="#DejaVuSerif-63" transform="translate(3926.806641 0.015625)"/>
     <use xlink:href="#DejaVuSerif-6f" transform="translate(3982.8125 0.015625)"/>
     <use xlink:href="#DejaVuSerif-6d" transform="translate(4043.017578 0.015625)"/>
     <use xlink:href="#DejaVuSerif-70" transform="translate(4137.841797 0.015625)"/>
     <use xlink:href="#DejaVuSerif-6f" transform="translate(4201.855469 0.015625)"/>
     <use xlink:href="#DejaVuSerif-6e" transform="translate(4262.060547 0.015625)"/>
     <use xlink:href="#DejaVuSerif-65" transform="translate(4326.464844 0.015625)"/>
     <use xlink:href="#DejaVuSerif-6e" transform="translate(4385.644531 0.015625)"/>
     <use xlink:href="#DejaVuSerif-74" transform="translate(4450.048828 0.015625)"/>
     <use xlink:href="#DejaVuSerif-77" transform="translate(4490.234375 0.015625)"/>
     <use xlink:href="#DejaVuSerif-69" transform="translate(4575.830078 0.015625)"/>
     <use xlink:href="#DejaVuSerif-73" transform="translate(4607.8125 0.015625)"/>
     <use xlink:href="#DejaVuSerif-65" transform="translate(4659.130859 0.015625)"/>
     <use xlink:href="#DejaVuSerif-20" transform="translate(4718.310547 0.015625)"/>
     <use xlink:href="#DejaVuSerif-61" transform="translate(4750.097656 0.015625)"/>
     <use xlink:href="#DejaVuSerif-64" transform="translate(4809.716797 0.015625)"/>
     <use xlink:href="#DejaVuSerif-64" transform="translate(4873.730469 0.015625)"/>
     <use xlink:href="#DejaVuSerif-69" transform="translate(4937.744141 0.015625)"/>
     <use xlink:href="#DejaVuSerif-74" transform="translate(4969.726562 0.015625)"/>
     <use xlink:href="#DejaVuSerif-69" transform="translate(5009.912109 0.015625)"/>
     <use xlink:href="#DejaVuSerif-6f" transform="translate(5041.894531 0.015625)"/>
     <use xlink:href="#DejaVuSerif-6e" transform="translate(5102.099609 0.015625)"/>
     <use xlink:href="#DejaVuSerif-2e" transform="translate(5166.503906 0.015625)"/>
     <use xlink:href="#DejaVuSerif-20" transform="translate(5198.291016 0.015625)"/>
     <use xlink:href="#DejaVuSerif-49" transform="translate(5230.078125 0.015625)"/>
     <use xlink:href="#DejaVuSerif-66" transform="translate(5269.580078 0.015625)"/>
     <use xlink:href="#DejaVuSerif-20" transform="translate(5306.591797 0.015625)"/>
     <use xlink:href="#Cmmi10-48" transform="translate(5338.378906 0.015625)"/>
     <use xlink:href="#DejaVuSerif-20" transform="translate(5421.484375 0.015625)"/>
     <use xlink:href="#DejaVuSerif-69" transform="translate(5453.271484 0.015625)"/>
     <use xlink:href="#DejaVuSerif-73" transform="translate(5485.253906 0.015625)"/>
     <use xlink:href="#DejaVuSerif-20" transform="translate(5536.572266 0.015625)"/>
     <use xlink:href="#DejaVuSerif-67" transform="translate(5568.359375 0.015625)"/>
     <use xlink:href="#DejaVuSerif-65" transform="translate(5632.373047 0.015625)"/>
     <use xlink:href="#DejaVuSerif-6e" transform="translate(5691.552734 0.015625)"/>
     <use xlink:href="#DejaVuSerif-65" transform="translate(5755.957031 0.015625)"/>
     <use xlink:href="#DejaVuSerif-72" transform="translate(5815.136719 0.015625)"/>
     <use xlink:href="#DejaVuSerif-61" transform="translate(5862.939453 0.015625)"/>
     <use xlink:href="#DejaVuSerif-74" transform="translate(5922.558594 0.015625)"/>
     <use xlink:href="#DejaVuSerif-65" transform="translate(5962.744141 0.015625)"/>
     <use xlink:href="#DejaVuSerif-64" transform="translate(6021.923828 0.015625)"/>
     <use xlink:href="#DejaVuSerif-20" transform="translate(6085.9375 0.015625)"/>
     <use xlink:href="#DejaVuSerif-62" transform="translate(6117.724609 0.015625)"/>
     <use xlink:href="#DejaVuSerif-79" transform="translate(6181.738281 0.015625)"/>
     <use xlink:href="#DejaVuSerif-20" transform="translate(6238.232422 0.015625)"/>
     <use xlink:href="#DejaVuSerif-74" transform="translate(6270.019531 0.015625)"/>
     <use xlink:href="#DejaVuSerif-68" transform="translate(6310.205078 0.015625)"/>
     <use xlink:href="#DejaVuSerif-65" transform="translate(6374.609375 0.015625)"/>
     <use xlink:href="#DejaVuSerif-20" transform="translate(6433.789062 0.015625)"/>
     <use xlink:href="#DejaVuSerif-65" transform="translate(6465.576172 0.015625)"/>
     <use xlink:href="#DejaVuSerif-6c" transform="translate(6524.755859 0.015625)"/>
     <use xlink:href="#DejaVuSerif-65" transform="translate(6556.738281 0.015625)"/>
     <use xlink:href="#DejaVuSerif-6d" transform="translate(6615.917969 0.015625)"/>
     <use xlink:href="#DejaVuSerif-65" transform="translate(6710.742188 0.015625)"/>
     <use xlink:href="#DejaVuSerif-6e" transform="translate(6769.921875 0.015625)"/>
     <use xlink:href="#DejaVuSerif-74" transform="translate(6834.326172 0.015625)"/>
     <use xlink:href="#DejaVuSerif-73" transform="translate(6874.511719 0.015625)"/>
     <use xlink:href="#DejaVuSerif-20" transform="translate(6925.830078 0.015625)"/>
     <use xlink:href="#Cmr10-28" transform="translate(6957.617188 0.015625)"/>
     <use xlink:href="#Cmr10-33" transform="translate(6996.435547 0.015625)"/>
     <use xlink:href="#Cmmi10-3b" transform="translate(7046.435547 0.015625)"/>
     <use xlink:href="#Cmr10-38" transform="translate(7091.679688 0.015625)"/>
     <use xlink:href="#Cmr10-29" transform="translate(7141.679688 0.015625)"/>
     <use xlink:href="#DejaVuSerif-2c" transform="translate(7180.498047 0.015625)"/>
     <use xlink:href="#DejaVuSerif-20" transform="translate(7212.285156 0.015625)"/>
     <use xlink:href="#Cmr10-28" transform="translate(7244.072266 0.015625)"/>
     <use xlink:href="#Cmr10-34" transform="translate(7282.890625 0.015625)"/>
     <use xlink:href="#Cmmi10-3b" transform="translate(7332.890625 0.015625)"/>
     <use xlink:href="#Cmsy10-a1" transform="translate(7395.693359 0.015625)"/>
     <use xlink:href="#Cmr10-31" transform="translate(7490.9375 0.015625)"/>
     <use xlink:href="#Cmr10-29" transform="translate(7540.9375 0.015625)"/>
     <use xlink:href="#DejaVuSerif-2c" transform="translate(7579.755859 0.015625)"/>
     <use xlink:href="#DejaVuSerif-20" transform="translate(7611.542969 0.015625)"/>
     <use xlink:href="#DejaVuSerif-61" transform="translate(7643.330078 0.015625)"/>
     <use xlink:href="#DejaVuSerif-6e" transform="translate(7702.949219 0.015625)"/>
     <use xlink:href="#DejaVuSerif-64" transform="translate(7767.353516 0.015625)"/>
     <use xlink:href="#DejaVuSerif-20" transform="translate(7831.367188 0.015625)"/>
     <use xlink:href="#Cmr10-28" transform="translate(7863.154297 0.015625)"/>
     <use xlink:href="#Cmr10-35" transform="translate(7901.972656 0.015625)"/>
     <use xlink:href="#Cmmi10-3b" transform="translate(7951.972656 0.015625)"/>
     <use xlink:href="#Cmr10-34" transform="translate(7997.216797 0.015625)"/>
     <use xlink:href="#Cmr10-29" transform="translate(8047.216797 0.015625)"/>
     <use xlink:href="#DejaVuSerif-2c" transform="translate(8086.035156 0.015625)"/>
     <use xlink:href="#DejaVuSerif-20" transform="translate(8117.822266 0.015625)"/>
     <use xlink:href="#DejaVuSerif-74" transform="translate(8149.609375 0.015625)"/>
     <use xlink:href="#DejaVuSerif-68" transform="translate(8189.794922 0.015625)"/>
     <use xlink:href="#DejaVuSerif-65" transform="translate(8254.199219 0.015625)"/>
     <use xlink:href="#DejaVuSerif-6e" transform="translate(8313.378906 0.015625)"/>
     <use xlink:href="#DejaVuSerif-20" transform="translate(8377.783203 0.015625)"/>
     <use xlink:href="#Cmmi10-48" transform="translate(8409.570312 0.015625)"/>
     <use xlink:href="#DejaVuSerif-20" transform="translate(8492.675781 0.015625)"/>
     <use xlink:href="#DejaVuSerif-69" transform="translate(8524.462891 0.015625)"/>
     <use xlink:href="#DejaVuSerif-73" transform="translate(8556.445312 0.015625)"/>
     <use xlink:href="#DejaVuSerif-20" transform="translate(8607.763672 0.015625)"/>
     <use xlink:href="#DejaVuSerif-61" transform="translate(8639.550781 0.015625)"/>
     <use xlink:href="#DejaVuSerif-6c" transform="translate(8699.169922 0.015625)"/>
     <use xlink:href="#DejaVuSerif-73" transform="translate(8731.152344 0.015625)"/>
     <use xlink:href="#DejaVuSerif-6f" transform="translate(8782.470703 0.015625)"/>
     <use xlink:href="#DejaVuSerif-20" transform="translate(8842.675781 0.015625)"/>
     <use xlink:href="#DejaVuSerif-67" transform="translate(8874.462891 0.015625)"/>
     <use xlink:href="#DejaVuSerif-65" transform="translate(8938.476562 0.015625)"/>
     <use xlink:href="#DejaVuSerif-6e" transform="translate(8997.65625 0.015625)"/>
     <use xlink:href="#DejaVuSerif-65" transform="translate(9062.060547 0.015625)"/>
     <use xlink:href="#DejaVuSerif-72" transform="translate(9121.240234 0.015625)"/>
     <use xlink:href="#DejaVuSerif-61" transform="translate(9169.042969 0.015625)"/>
     <use xlink:href="#DejaVuSerif-74" transform="translate(9228.662109 0.015625)"/>
     <use xlink:href="#DejaVuSerif-65" transform="translate(9268.847656 0.015625)"/>
     <use xlink:href="#DejaVuSerif-64" transform="translate(9328.027344 0.015625)"/>
     <use xlink:href="#DejaVuSerif-20" transform="translate(9392.041016 0.015625)"/>
     <use xlink:href="#DejaVuSerif-62" transform="translate(9423.828125 0.015625)"/>
     <use xlink:href="#DejaVuSerif-79" transform="translate(9487.841797 0.015625)"/>
     <use xlink:href="#DejaVuSerif-20" transform="translate(9544.335938 0.015625)"/>
     <use xlink:href="#DejaVuSerif-74" transform="translate(9576.123047 0.015625)"/>
     <use xlink:href="#DejaVuSerif-77" transform="translate(9616.308594 0.015625)"/>
     <use xlink:href="#DejaVuSerif-6f" transform="translate(9701.904297 0.015625)"/>
     <use xlink:href="#DejaVuSerif-20" transform="translate(9762.109375 0.015625)"/>
     <use xlink:href="#DejaVuSerif-65" transform="translate(9793.896484 0.015625)"/>
     <use xlink:href="#DejaVuSerif-6c" transform="translate(9853.076172 0.015625)"/>
     <use xlink:href="#DejaVuSerif-65" transform="translate(9885.058594 0.015625)"/>
     <use xlink:href="#DejaVuSerif-6d" transform="translate(9944.238281 0.015625)"/>
     <use xlink:href="#DejaVuSerif-65" transform="translate(10039.0625 0.015625)"/>
     <use xlink:href="#DejaVuSerif-6e" transform="translate(10098.242188 0.015625)"/>
     <use xlink:href="#DejaVuSerif-74" transform="translate(10162.646484 0.015625)"/>
     <use xlink:href="#DejaVuSerif-73" transform="translate(10202.832031 0.015625)"/>
     <use xlink:href="#DejaVuSerif-20" transform="translate(10254.150391 0.015625)"/>
     <use xlink:href="#Cmr10-28" transform="translate(10285.9375 0.015625)"/>
     <use xlink:href="#Cmr10-31" transform="translate(10324.755859 0.015625)"/>
     <use xlink:href="#Cmmi10-3b" transform="translate(10374.755859 0.015625)"/>
     <use xlink:href="#Cmmi10-62" transform="translate(10420 0.015625)"/>
     <use xlink:href="#Cmr10-29" transform="translate(10462.919922 0.015625)"/>
     <use xlink:href="#DejaVuSerif-20" transform="translate(10501.738281 0.015625)"/>
     <use xlink:href="#DejaVuSerif-61" transform="translate(10533.525391 0.015625)"/>
     <use xlink:href="#DejaVuSerif-6e" transform="translate(10593.144531 0.015625)"/>
     <use xlink:href="#DejaVuSerif-64" transform="translate(10657.548828 0.015625)"/>
     <use xlink:href="#DejaVuSerif-20" transform="translate(10721.5625 0.015625)"/>
     <use xlink:href="#Cmr10-28" transform="translate(10753.349609 0.015625)"/>
     <use xlink:href="#Cmr10-30" transform="translate(10792.167969 0.015625)"/>
     <use xlink:href="#Cmmi10-3b" transform="translate(10842.167969 0.015625)"/>
     <use xlink:href="#Cmmi10-61" transform="translate(10887.412109 0.015625)"/>
     <use xlink:href="#Cmr10-29" transform="translate(10940.195312 0.015625)"/>
     <use xlink:href="#DejaVuSerif-20" transform="translate(10979.013672 0.015625)"/>
     <use xlink:href="#DejaVuSerif-66" transform="translate(11010.800781 0.015625)"/>
     <use xlink:href="#DejaVuSerif-6f" transform="translate(11047.8125 0.015625)"/>
     <use xlink:href="#DejaVuSerif-72" transform="translate(11108.017578 0.015625)"/>
     <use xlink:href="#DejaVuSerif-20" transform="translate(11155.820312 0.015625)"/>
     <use xlink:href="#DejaVuSerif-73" transform="translate(11187.607422 0.015625)"/>
     <use xlink:href="#DejaVuSerif-6f" transform="translate(11238.925781 0.015625)"/>
     <use xlink:href="#DejaVuSerif-6d" transform="translate(11299.130859 0.015625)"/>
     <use xlink:href="#DejaVuSerif-65" transform="translate(11393.955078 0.015625)"/>
     <use xlink:href="#DejaVuSerif-20" transform="translate(11453.134766 0.015625)"/>
     <use xlink:href="#DejaVuSerif-69" transform="translate(11484.921875 0.015625)"/>
     <use xlink:href="#DejaVuSerif-6e" transform="translate(11516.904297 0.015625)"/>
     <use xlink:href="#DejaVuSerif-74" transform="translate(11581.308594 0.015625)"/>
     <use xlink:href="#DejaVuSerif-65" transform="translate(11621.494141 0.015625)"/>
     <use xlink:href="#DejaVuSerif-67" transform="translate(11680.673828 0.015625)"/>
     <use xlink:href="#DejaVuSerif-65" transform="translate(11744.6875 0.015625)"/>
     <use xlink:href="#DejaVuSerif-72" transform="translate(11803.867188 0.015625)"/>
     <use xlink:href="#DejaVuSerif-20" transform="translate(11851.669922 0.015625)"/>
     <use xlink:href="#Cmmi10-62" transform="translate(11883.457031 0.015625)"/>
     <use xlink:href="#DejaVuSerif-20" transform="translate(11926.376953 0.015625)"/>
     <use xlink:href="#DejaVuSerif-61" transform="translate(11958.164062 0.015625)"/>
     <use xlink:href="#DejaVuSerif-6e" transform="translate(12017.783203 0.015625)"/>
     <use xlink:href="#DejaVuSerif-64" transform="translate(12082.1875 0.015625)"/>
     <use xlink:href="#DejaVuSerif-20" transform="translate(12146.201172 0.015625)"/>
     <use xlink:href="#DejaVuSerif-70" transform="translate(12177.988281 0.015625)"/>
     <use xlink:href="#DejaVuSerif-6f" transform="translate(12242.001953 0.015625)"/>
     <use xlink:href="#DejaVuSerif-73" transform="translate(12302.207031 0.015625)"/>
     <use xlink:href="#DejaVuSerif-69" transform="translate(12353.525391 0.015625)"/>
     <use xlink:href="#DejaVuSerif-74" transform="translate(12385.507812 0.015625)"/>
     <use xlink:href="#DejaVuSerif-69" transform="translate(12425.693359 0.015625)"/>
     <use xlink:href="#DejaVuSerif-76" transform="translate(12457.675781 0.015625)"/>
     <use xlink:href="#DejaVuSerif-65" transform="translate(12514.169922 0.015625)"/>
     <use xlink:href="#DejaVuSerif-20" transform="translate(12573.349609 0.015625)"/>
     <use xlink:href="#DejaVuSerif-69" transform="translate(12605.136719 0.015625)"/>
     <use xlink:href="#DejaVuSerif-6e" transform="translate(12637.119141 0.015625)"/>
     <use xlink:href="#DejaVuSerif-74" transform="translate(12701.523438 0.015625)"/>
     <use xlink:href="#DejaVuSerif-65" transform="translate(12741.708984 0.015625)"/>
     <use xlink:href="#DejaVuSerif-67" transform="translate(12800.888672 0.015625)"/>
     <use xlink:href="#DejaVuSerif-65" transform="translate(12864.902344 0.015625)"/>
     <use xlink:href="#DejaVuSerif-72" transform="translate(12924.082031 0.015625)"/>
     <use xlink:href="#DejaVuSerif-20" transform="translate(12971.884766 0.015625)"/>
     <use xlink:href="#Cmmi10-61" transform="translate(13003.671875 0.015625)"/>
     <use xlink:href="#DejaVuSerif-2e" transform="translate(13056.455078 0.015625)"/>
     <use xlink:href="#DejaVuSerif-20" transform="translate(13088.242188 0.015625)"/>
     <use xlink:href="#DejaVuSerif-46" transform="translate(13120.029297 0.015625)"/>
     <use xlink:href="#DejaVuSerif-69" transform="translate(13189.414062 0.015625)"/>
     <use xlink:href="#DejaVuSerif-6e" transform="translate(13221.396484 0.015625)"/>
     <use xlink:href="#DejaVuSerif-64" transform="translate(13285.800781 0.015625)"/>
     <use xlink:href="#DejaVuSerif-20" transform="translate(13349.814453 0.015625)"/>
     <use xlink:href="#Cmmi10-61" transform="translate(13381.601562 0.015625)"/>
     <use xlink:href="#DejaVuSerif-2e" transform="translate(13434.384766 0.015625)"/>
    </g>
   </g>
  </g>
 </g>
</svg>
