<?xml version="1.0" encoding="utf-8" standalone="no"?>
<!DOCTYPE svg PUBLIC "-//W3C//DTD SVG 1.1//EN"
  "http://www.w3.org/Graphics/SVG/1.1/DTD/svg11.dtd">
<svg xmlns:xlink="http://www.w3.org/1999/xlink" width="1305.24pt" height="180.72pt" viewBox="0 0 1305.24 180.72" xmlns="http://www.w3.org/2000/svg" version="1.1">
 <metadata>
  <rdf:RDF xmlns:dc="http://purl.org/dc/elements/1.1/" xmlns:cc="http://creativecommons.org/ns#" xmlns:rdf="http://www.w3.org/1999/02/22-rdf-syntax-ns#">
   <cc:Work>
    <dc:type rdf:resource="http://purl.org/dc/dcmitype/StillImage"/>
    <dc:date>2025-05-29T18:43:44.868531</dc:date>
    <dc:format>image/svg+xml</dc:format>
    <dc:creator>
     <cc:Agent>
      <dc:title>Matplotlib v3.10.3, https://matplotlib.org/</dc:title>
     </cc:Agent>
    </dc:creator>
   </cc:Work>
  </rdf:RDF>
 </metadata>
 <defs>
  <style type="text/css">*{stroke-linejoin: round; stroke-linecap: butt}</style>
 </defs>
 <g id="figure_1">
  <g id="patch_1">
   <path d="M 0 180.72 
L 1305.24 180.72 
L 1305.24 0 
L 0 0 
z
" style="fill: #ffffff"/>
  </g>
  <g id="axes_1">
   <g id="text_1">
    <!-- Let $n = 2m$, where $m$ is an odd integer greater than 1. Let $\theta = e^{2\pi i/n}$. Expression $(1 - \theta)^{-1}$ explicitly as a polynomial in $\theta$ \[ a_k \theta^k  + a_{k-1}\theta^{k-1} + \dots + a_1\theta + a_0\], with integer coefficients $a_i$. -->
    <g transform="translate(7.2 94.32) scale(0.12 -0.12)">
     <defs>
      <path id="DejaVuSerif-4c" d="M 353 0 
L 353 331 
L 947 331 
L 947 4331 
L 353 4331 
L 353 4666 
L 2175 4666 
L 2175 4331 
L 1581 4331 
L 1581 384 
L 3713 384 
L 3713 1166 
L 4097 1166 
L 4097 0 
L 353 0 
z
" transform="scale(0.015625)"/>
      <path id="DejaVuSerif-65" d="M 3469 1600 
L 991 1600 
L 991 1575 
Q 991 903 1244 561 
Q 1497 219 1991 219 
Q 2369 219 2611 417 
Q 2853 616 2950 1006 
L 3413 1006 
Q 3275 459 2904 184 
Q 2534 -91 1931 -91 
Q 1203 -91 761 389 
Q 319 869 319 1663 
Q 319 2450 753 2931 
Q 1188 3413 1894 3413 
Q 2647 3413 3050 2948 
Q 3453 2484 3469 1600 
z
M 2791 1931 
Q 2772 2513 2545 2808 
Q 2319 3103 1894 3103 
Q 1497 3103 1269 2806 
Q 1041 2509 991 1931 
L 2791 1931 
z
" transform="scale(0.015625)"/>
      <path id="DejaVuSerif-74" d="M 691 2988 
L 184 2988 
L 184 3322 
L 691 3322 
L 691 4353 
L 1269 4353 
L 1269 3322 
L 2350 3322 
L 2350 2988 
L 1269 2988 
L 1269 878 
Q 1269 456 1350 337 
Q 1431 219 1650 219 
Q 1875 219 1978 351 
Q 2081 484 2088 781 
L 2522 781 
Q 2497 328 2275 118 
Q 2053 -91 1600 -91 
Q 1103 -91 897 129 
Q 691 350 691 878 
L 691 2988 
z
" transform="scale(0.015625)"/>
      <path id="DejaVuSerif-20" transform="scale(0.015625)"/>
      <path id="Cmmi10-6e" d="M 494 109 
Q 494 147 500 166 
L 978 2075 
Q 1025 2253 1025 2388 
Q 1025 2663 838 2663 
Q 638 2663 541 2423 
Q 444 2184 353 1819 
Q 353 1800 334 1789 
Q 316 1778 300 1778 
L 225 1778 
Q 203 1778 187 1801 
Q 172 1825 172 1844 
Q 241 2122 305 2315 
Q 369 2509 505 2668 
Q 641 2828 844 2828 
Q 1084 2828 1268 2676 
Q 1453 2525 1453 2291 
Q 1644 2541 1900 2684 
Q 2156 2828 2444 2828 
Q 2672 2828 2837 2750 
Q 3003 2672 3095 2514 
Q 3188 2356 3188 2138 
Q 3188 1875 3070 1503 
Q 2953 1131 2778 672 
Q 2688 463 2688 288 
Q 2688 97 2834 97 
Q 3084 97 3251 365 
Q 3419 634 3488 941 
Q 3500 978 3541 978 
L 3616 978 
Q 3641 978 3658 962 
Q 3675 947 3675 922 
Q 3675 916 3669 903 
Q 3581 541 3364 234 
Q 3147 -72 2822 -72 
Q 2597 -72 2437 83 
Q 2278 238 2278 459 
Q 2278 578 2328 709 
Q 2409 919 2514 1209 
Q 2619 1500 2686 1765 
Q 2753 2031 2753 2234 
Q 2753 2413 2679 2538 
Q 2606 2663 2431 2663 
Q 2197 2663 2000 2559 
Q 1803 2456 1656 2286 
Q 1509 2116 1388 1881 
L 953 141 
Q 931 53 854 -9 
Q 778 -72 684 -72 
Q 606 -72 550 -22 
Q 494 28 494 109 
z
" transform="scale(0.015625)"/>
      <path id="Cmr10-3d" d="M 481 850 
Q 428 850 393 890 
Q 359 931 359 978 
Q 359 1031 393 1068 
Q 428 1106 481 1106 
L 4500 1106 
Q 4547 1106 4581 1068 
Q 4616 1031 4616 978 
Q 4616 931 4581 890 
Q 4547 850 4500 850 
L 481 850 
z
M 481 2094 
Q 428 2094 393 2131 
Q 359 2169 359 2222 
Q 359 2269 393 2309 
Q 428 2350 481 2350 
L 4500 2350 
Q 4547 2350 4581 2309 
Q 4616 2269 4616 2222 
Q 4616 2169 4581 2131 
Q 4547 2094 4500 2094 
L 481 2094 
z
" transform="scale(0.015625)"/>
      <path id="Cmr10-32" d="M 319 0 
L 319 172 
Q 319 188 331 206 
L 1325 1306 
Q 1550 1550 1690 1715 
Q 1831 1881 1968 2097 
Q 2106 2313 2186 2536 
Q 2266 2759 2266 3009 
Q 2266 3272 2169 3511 
Q 2072 3750 1880 3894 
Q 1688 4038 1416 4038 
Q 1138 4038 916 3870 
Q 694 3703 603 3438 
Q 628 3444 672 3444 
Q 816 3444 917 3347 
Q 1019 3250 1019 3097 
Q 1019 2950 917 2848 
Q 816 2747 672 2747 
Q 522 2747 420 2851 
Q 319 2956 319 3097 
Q 319 3338 409 3548 
Q 500 3759 670 3923 
Q 841 4088 1055 4175 
Q 1269 4263 1509 4263 
Q 1875 4263 2190 4108 
Q 2506 3953 2690 3670 
Q 2875 3388 2875 3009 
Q 2875 2731 2753 2481 
Q 2631 2231 2440 2026 
Q 2250 1822 1953 1562 
Q 1656 1303 1563 1216 
L 838 519 
L 1453 519 
Q 1906 519 2211 526 
Q 2516 534 2534 550 
Q 2609 631 2688 1141 
L 2875 1141 
L 2694 0 
L 319 0 
z
" transform="scale(0.015625)"/>
      <path id="Cmmi10-6d" d="M 494 109 
Q 494 147 500 166 
L 978 2075 
Q 1025 2253 1025 2388 
Q 1025 2663 838 2663 
Q 638 2663 541 2423 
Q 444 2184 353 1819 
Q 353 1800 334 1789 
Q 316 1778 300 1778 
L 225 1778 
Q 203 1778 187 1801 
Q 172 1825 172 1844 
Q 241 2122 305 2315 
Q 369 2509 505 2668 
Q 641 2828 844 2828 
Q 1084 2828 1268 2676 
Q 1453 2525 1453 2291 
Q 1644 2541 1900 2684 
Q 2156 2828 2444 2828 
Q 2747 2828 2967 2673 
Q 3188 2519 3188 2234 
Q 3384 2513 3648 2670 
Q 3913 2828 4225 2828 
Q 4556 2828 4757 2648 
Q 4959 2469 4959 2138 
Q 4959 1875 4842 1503 
Q 4725 1131 4550 672 
Q 4459 450 4459 288 
Q 4459 97 4609 97 
Q 4859 97 5025 365 
Q 5191 634 5259 941 
Q 5278 978 5313 978 
L 5388 978 
Q 5413 978 5430 961 
Q 5447 944 5447 922 
Q 5447 916 5441 903 
Q 5353 541 5136 234 
Q 4919 -72 4594 -72 
Q 4369 -72 4209 83 
Q 4050 238 4050 459 
Q 4050 572 4103 709 
Q 4284 1191 4404 1569 
Q 4525 1947 4525 2234 
Q 4525 2413 4453 2538 
Q 4381 2663 4213 2663 
Q 3863 2663 3606 2448 
Q 3350 2234 3163 1881 
Q 3150 1819 3144 1784 
L 2731 141 
Q 2709 53 2632 -9 
Q 2556 -72 2463 -72 
Q 2388 -72 2330 -22 
Q 2272 28 2272 109 
Q 2272 147 2278 166 
L 2688 1797 
Q 2753 2059 2753 2234 
Q 2753 2413 2679 2538 
Q 2606 2663 2431 2663 
Q 2197 2663 2000 2559 
Q 1803 2456 1656 2286 
Q 1509 2116 1388 1881 
L 953 141 
Q 931 53 854 -9 
Q 778 -72 684 -72 
Q 606 -72 550 -22 
Q 494 28 494 109 
z
" transform="scale(0.015625)"/>
      <path id="DejaVuSerif-2c" d="M 231 -622 
Q 525 -406 662 -114 
Q 800 178 800 594 
L 800 709 
L 1416 709 
Q 1391 175 1164 -208 
Q 938 -591 481 -872 
L 231 -622 
z
" transform="scale(0.015625)"/>
      <path id="DejaVuSerif-77" d="M 3072 3322 
L 3922 728 
L 4672 2988 
L 4191 2988 
L 4191 3322 
L 5394 3322 
L 5394 2988 
L 5025 2988 
L 4038 0 
L 3559 0 
L 2741 2484 
L 1919 0 
L 1459 0 
L 475 2988 
L 103 2988 
L 103 3322 
L 1606 3322 
L 1606 2988 
L 1069 2988 
L 1813 728 
L 2669 3322 
L 3072 3322 
z
" transform="scale(0.015625)"/>
      <path id="DejaVuSerif-68" d="M 263 0 
L 263 331 
L 781 331 
L 781 4531 
L 231 4531 
L 231 4863 
L 1356 4863 
L 1356 2731 
Q 1516 3069 1770 3241 
Q 2025 3413 2363 3413 
Q 2913 3413 3172 3097 
Q 3431 2781 3431 2113 
L 3431 331 
L 3944 331 
L 3944 0 
L 2356 0 
L 2356 331 
L 2853 331 
L 2853 1931 
Q 2853 2541 2704 2764 
Q 2556 2988 2175 2988 
Q 1775 2988 1565 2697 
Q 1356 2406 1356 1850 
L 1356 331 
L 1856 331 
L 1856 0 
L 263 0 
z
" transform="scale(0.015625)"/>
      <path id="DejaVuSerif-72" d="M 3059 3328 
L 3059 2497 
L 2728 2497 
Q 2713 2744 2591 2866 
Q 2469 2988 2234 2988 
Q 1809 2988 1582 2694 
Q 1356 2400 1356 1850 
L 1356 331 
L 2022 331 
L 2022 0 
L 263 0 
L 263 331 
L 781 331 
L 781 2994 
L 231 2994 
L 231 3322 
L 1356 3322 
L 1356 2731 
Q 1525 3078 1790 3245 
Q 2056 3413 2438 3413 
Q 2578 3413 2733 3391 
Q 2888 3369 3059 3328 
z
" transform="scale(0.015625)"/>
      <path id="DejaVuSerif-69" d="M 622 4353 
Q 622 4497 726 4603 
Q 831 4709 978 4709 
Q 1122 4709 1226 4603 
Q 1331 4497 1331 4353 
Q 1331 4206 1228 4103 
Q 1125 4000 978 4000 
Q 831 4000 726 4103 
Q 622 4206 622 4353 
z
M 1356 331 
L 1900 331 
L 1900 0 
L 231 0 
L 231 331 
L 781 331 
L 781 2988 
L 231 2988 
L 231 3322 
L 1356 3322 
L 1356 331 
z
" transform="scale(0.015625)"/>
      <path id="DejaVuSerif-73" d="M 359 184 
L 359 959 
L 691 959 
Q 703 588 923 403 
Q 1144 219 1575 219 
Q 1963 219 2166 364 
Q 2369 509 2369 788 
Q 2369 1006 2220 1140 
Q 2072 1275 1594 1428 
L 1178 1569 
Q 750 1706 558 1912 
Q 366 2119 366 2438 
Q 366 2894 700 3153 
Q 1034 3413 1625 3413 
Q 1888 3413 2178 3344 
Q 2469 3275 2778 3144 
L 2778 2419 
L 2447 2419 
Q 2434 2741 2221 2922 
Q 2009 3103 1644 3103 
Q 1281 3103 1095 2975 
Q 909 2847 909 2591 
Q 909 2381 1050 2254 
Q 1191 2128 1613 1997 
L 2069 1856 
Q 2541 1709 2748 1489 
Q 2956 1269 2956 922 
Q 2956 450 2595 179 
Q 2234 -91 1600 -91 
Q 1278 -91 972 -22 
Q 666 47 359 184 
z
" transform="scale(0.015625)"/>
      <path id="DejaVuSerif-61" d="M 2547 1044 
L 2547 1747 
L 1806 1747 
Q 1378 1747 1168 1562 
Q 959 1378 959 997 
Q 959 650 1171 447 
Q 1384 244 1747 244 
Q 2106 244 2326 466 
Q 2547 688 2547 1044 
z
M 3122 2075 
L 3122 331 
L 3634 331 
L 3634 0 
L 2547 0 
L 2547 359 
Q 2356 128 2106 18 
Q 1856 -91 1522 -91 
Q 969 -91 644 203 
Q 319 497 319 997 
Q 319 1513 691 1797 
Q 1063 2081 1741 2081 
L 2547 2081 
L 2547 2309 
Q 2547 2688 2317 2895 
Q 2088 3103 1672 3103 
Q 1328 3103 1125 2947 
Q 922 2791 872 2484 
L 575 2484 
L 575 3156 
Q 875 3284 1158 3348 
Q 1441 3413 1709 3413 
Q 2400 3413 2761 3070 
Q 3122 2728 3122 2075 
z
" transform="scale(0.015625)"/>
      <path id="DejaVuSerif-6e" d="M 263 0 
L 263 331 
L 781 331 
L 781 2988 
L 231 2988 
L 231 3322 
L 1356 3322 
L 1356 2731 
Q 1516 3069 1770 3241 
Q 2025 3413 2363 3413 
Q 2913 3413 3172 3097 
Q 3431 2781 3431 2113 
L 3431 331 
L 3944 331 
L 3944 0 
L 2356 0 
L 2356 331 
L 2853 331 
L 2853 1931 
Q 2853 2541 2703 2767 
Q 2553 2994 2175 2994 
Q 1775 2994 1565 2701 
Q 1356 2409 1356 1850 
L 1356 331 
L 1856 331 
L 1856 0 
L 263 0 
z
" transform="scale(0.015625)"/>
      <path id="DejaVuSerif-6f" d="M 1925 219 
Q 2388 219 2623 584 
Q 2859 950 2859 1663 
Q 2859 2375 2623 2739 
Q 2388 3103 1925 3103 
Q 1463 3103 1227 2739 
Q 991 2375 991 1663 
Q 991 950 1228 584 
Q 1466 219 1925 219 
z
M 1925 -91 
Q 1200 -91 759 389 
Q 319 869 319 1663 
Q 319 2456 758 2934 
Q 1197 3413 1925 3413 
Q 2653 3413 3092 2934 
Q 3531 2456 3531 1663 
Q 3531 869 3092 389 
Q 2653 -91 1925 -91 
z
" transform="scale(0.015625)"/>
      <path id="DejaVuSerif-64" d="M 3359 331 
L 3909 331 
L 3909 0 
L 2784 0 
L 2784 519 
Q 2616 206 2355 57 
Q 2094 -91 1709 -91 
Q 1097 -91 708 395 
Q 319 881 319 1663 
Q 319 2444 706 2928 
Q 1094 3413 1709 3413 
Q 2094 3413 2355 3264 
Q 2616 3116 2784 2803 
L 2784 4531 
L 2241 4531 
L 2241 4863 
L 3359 4863 
L 3359 331 
z
M 2784 1497 
L 2784 1825 
Q 2784 2422 2554 2737 
Q 2325 3053 1888 3053 
Q 1444 3053 1217 2703 
Q 991 2353 991 1663 
Q 991 975 1217 622 
Q 1444 269 1888 269 
Q 2325 269 2554 583 
Q 2784 897 2784 1497 
z
" transform="scale(0.015625)"/>
      <path id="DejaVuSerif-67" d="M 3359 2988 
L 3359 72 
Q 3359 -644 2965 -1033 
Q 2572 -1422 1844 -1422 
Q 1516 -1422 1216 -1362 
Q 916 -1303 641 -1184 
L 641 -488 
L 941 -488 
Q 997 -813 1206 -963 
Q 1416 -1113 1806 -1113 
Q 2313 -1113 2548 -827 
Q 2784 -541 2784 72 
L 2784 519 
Q 2616 206 2355 57 
Q 2094 -91 1709 -91 
Q 1097 -91 708 395 
Q 319 881 319 1663 
Q 319 2444 706 2928 
Q 1094 3413 1709 3413 
Q 2094 3413 2355 3264 
Q 2616 3116 2784 2803 
L 2784 3322 
L 3909 3322 
L 3909 2988 
L 3359 2988 
z
M 2784 1825 
Q 2784 2422 2554 2737 
Q 2325 3053 1888 3053 
Q 1444 3053 1217 2703 
Q 991 2353 991 1663 
Q 991 975 1217 622 
Q 1444 269 1888 269 
Q 2325 269 2554 583 
Q 2784 897 2784 1497 
L 2784 1825 
z
" transform="scale(0.015625)"/>
      <path id="DejaVuSerif-31" d="M 909 0 
L 909 331 
L 1722 331 
L 1722 4213 
L 781 3603 
L 781 4013 
L 1919 4750 
L 2350 4750 
L 2350 331 
L 3163 331 
L 3163 0 
L 909 0 
z
" transform="scale(0.015625)"/>
      <path id="DejaVuSerif-2e" d="M 603 325 
Q 603 500 722 622 
Q 841 744 1019 744 
Q 1191 744 1312 622 
Q 1434 500 1434 325 
Q 1434 153 1312 31 
Q 1191 -91 1019 -91 
Q 841 -91 722 29 
Q 603 150 603 325 
z
" transform="scale(0.015625)"/>
      <path id="Cmmi10-b5" d="M 1031 -72 
Q 741 -72 566 140 
Q 391 353 323 653 
Q 256 953 256 1247 
L 256 1253 
Q 256 1572 317 1915 
Q 378 2259 493 2601 
Q 609 2944 744 3213 
Q 838 3400 986 3631 
Q 1134 3863 1317 4064 
Q 1500 4266 1711 4389 
Q 1922 4513 2138 4513 
L 2144 4513 
Q 2375 4513 2529 4384 
Q 2684 4256 2770 4056 
Q 2856 3856 2890 3628 
Q 2925 3400 2925 3194 
Q 2925 2709 2794 2204 
Q 2663 1700 2431 1228 
Q 2344 1050 2189 809 
Q 2034 569 1861 378 
Q 1688 188 1472 58 
Q 1256 -72 1038 -72 
L 1031 -72 
z
M 1044 97 
Q 1256 97 1451 323 
Q 1647 550 1794 873 
Q 1941 1197 2052 1536 
Q 2163 1875 2216 2113 
L 909 2113 
Q 809 1709 753 1417 
Q 697 1125 697 844 
Q 697 97 1044 97 
z
M 959 2338 
L 2272 2338 
Q 2341 2619 2381 2808 
Q 2422 2997 2450 3206 
Q 2478 3416 2478 3597 
Q 2478 4347 2138 4347 
Q 1731 4347 1436 3692 
Q 1141 3038 959 2338 
z
" transform="scale(0.015625)"/>
      <path id="Cmmi10-65" d="M 1288 -72 
Q 981 -72 751 87 
Q 522 247 401 517 
Q 281 788 281 1088 
Q 281 1544 511 1945 
Q 741 2347 1134 2587 
Q 1528 2828 1978 2828 
Q 2253 2828 2458 2686 
Q 2663 2544 2663 2278 
Q 2663 1909 2369 1729 
Q 2075 1550 1706 1508 
Q 1338 1466 891 1466 
L 872 1466 
Q 769 1084 769 813 
Q 769 528 900 312 
Q 1031 97 1300 97 
Q 1681 97 2032 272 
Q 2384 447 2606 756 
Q 2625 775 2656 775 
Q 2688 775 2720 739 
Q 2753 703 2753 672 
Q 2753 647 2741 634 
Q 2506 306 2109 117 
Q 1713 -72 1288 -72 
z
M 909 1631 
Q 1281 1631 1597 1665 
Q 1913 1700 2169 1839 
Q 2425 1978 2425 2272 
Q 2425 2391 2359 2480 
Q 2294 2569 2189 2616 
Q 2084 2663 1972 2663 
Q 1700 2663 1483 2516 
Q 1266 2369 1125 2133 
Q 984 1897 909 1631 
z
" transform="scale(0.015625)"/>
      <path id="Cmmi10-bc" d="M 647 109 
Q 647 144 672 213 
Q 850 584 1004 942 
Q 1159 1300 1282 1639 
Q 1406 1978 1509 2363 
L 1100 2363 
Q 866 2363 662 2216 
Q 459 2069 325 1844 
Q 313 1819 288 1819 
L 213 1819 
Q 153 1819 153 1881 
Q 153 1894 166 1919 
Q 375 2275 614 2517 
Q 853 2759 1153 2759 
L 3475 2759 
Q 3541 2759 3587 2715 
Q 3634 2672 3634 2597 
Q 3634 2503 3567 2433 
Q 3500 2363 3406 2363 
L 2591 2363 
Q 2488 1859 2478 1381 
Q 2478 766 2694 269 
Q 2713 231 2713 191 
Q 2713 122 2672 62 
Q 2631 3 2567 -34 
Q 2503 -72 2431 -72 
Q 2263 -72 2200 203 
Q 2138 478 2138 738 
Q 2138 1103 2200 1442 
Q 2263 1781 2400 2363 
L 1703 2363 
Q 1197 313 1094 103 
Q 1003 -72 844 -72 
Q 766 -72 706 -20 
Q 647 31 647 109 
z
" transform="scale(0.015625)"/>
      <path id="Cmmi10-69" d="M 500 459 
Q 500 578 550 709 
L 1069 2088 
Q 1153 2322 1153 2472 
Q 1153 2663 1013 2663 
Q 759 2663 595 2402 
Q 431 2141 353 1819 
Q 341 1778 300 1778 
L 225 1778 
Q 172 1778 172 1838 
L 172 1856 
Q 275 2238 487 2533 
Q 700 2828 1025 2828 
Q 1253 2828 1411 2678 
Q 1569 2528 1569 2297 
Q 1569 2178 1516 2047 
L 997 672 
Q 909 459 909 288 
Q 909 97 1056 97 
Q 1306 97 1473 364 
Q 1641 631 1709 941 
Q 1722 978 1759 978 
L 1838 978 
Q 1863 978 1878 961 
Q 1894 944 1894 922 
Q 1894 916 1888 903 
Q 1800 541 1583 234 
Q 1366 -72 1044 -72 
Q 819 -72 659 83 
Q 500 238 500 459 
z
M 1222 3878 
Q 1222 4013 1334 4122 
Q 1447 4231 1581 4231 
Q 1691 4231 1761 4164 
Q 1831 4097 1831 3994 
Q 1831 3850 1717 3742 
Q 1603 3634 1466 3634 
Q 1363 3634 1292 3704 
Q 1222 3775 1222 3878 
z
" transform="scale(0.015625)"/>
      <path id="Cmmi10-3d" d="M 359 -1472 
Q 359 -1453 366 -1447 
L 2591 4722 
Q 2603 4759 2634 4779 
Q 2666 4800 2706 4800 
Q 2763 4800 2798 4765 
Q 2834 4731 2834 4672 
L 2834 4647 
L 609 -1522 
Q 572 -1600 488 -1600 
Q 434 -1600 396 -1562 
Q 359 -1525 359 -1472 
z
" transform="scale(0.015625)"/>
      <path id="DejaVuSerif-45" d="M 353 0 
L 353 331 
L 947 331 
L 947 4331 
L 353 4331 
L 353 4666 
L 4109 4666 
L 4109 3628 
L 3725 3628 
L 3725 4281 
L 1581 4281 
L 1581 2719 
L 3109 2719 
L 3109 3303 
L 3494 3303 
L 3494 1753 
L 3109 1753 
L 3109 2338 
L 1581 2338 
L 1581 384 
L 3775 384 
L 3775 1038 
L 4159 1038 
L 4159 0 
L 353 0 
z
" transform="scale(0.015625)"/>
      <path id="DejaVuSerif-78" d="M 1863 2028 
L 2559 2988 
L 2113 2988 
L 2113 3322 
L 3391 3322 
L 3391 2988 
L 2950 2988 
L 2059 1759 
L 3097 331 
L 3531 331 
L 3531 0 
L 1997 0 
L 1997 331 
L 2419 331 
L 1697 1325 
L 972 331 
L 1403 331 
L 1403 0 
L 141 0 
L 141 331 
L 581 331 
L 1497 1594 
L 488 2988 
L 78 2988 
L 78 3322 
L 1563 3322 
L 1563 2988 
L 1166 2988 
L 1863 2028 
z
" transform="scale(0.015625)"/>
      <path id="DejaVuSerif-70" d="M 1313 1825 
L 1313 1497 
Q 1313 897 1542 583 
Q 1772 269 2209 269 
Q 2650 269 2876 622 
Q 3103 975 3103 1663 
Q 3103 2353 2876 2703 
Q 2650 3053 2209 3053 
Q 1772 3053 1542 2737 
Q 1313 2422 1313 1825 
z
M 738 2988 
L 184 2988 
L 184 3322 
L 1313 3322 
L 1313 2803 
Q 1481 3116 1742 3264 
Q 2003 3413 2388 3413 
Q 3000 3413 3387 2928 
Q 3775 2444 3775 1663 
Q 3775 881 3387 395 
Q 3000 -91 2388 -91 
Q 2003 -91 1742 57 
Q 1481 206 1313 519 
L 1313 -997 
L 1856 -997 
L 1856 -1331 
L 184 -1331 
L 184 -997 
L 738 -997 
L 738 2988 
z
" transform="scale(0.015625)"/>
      <path id="Cmr10-28" d="M 1984 -1588 
Q 1628 -1306 1370 -942 
Q 1113 -578 948 -165 
Q 784 247 703 697 
Q 622 1147 622 1600 
Q 622 2059 703 2509 
Q 784 2959 951 3375 
Q 1119 3791 1378 4153 
Q 1638 4516 1984 4788 
Q 1984 4800 2016 4800 
L 2075 4800 
Q 2094 4800 2109 4783 
Q 2125 4766 2125 4744 
Q 2125 4716 2113 4703 
Q 1800 4397 1592 4047 
Q 1384 3697 1257 3301 
Q 1131 2906 1075 2482 
Q 1019 2059 1019 1600 
Q 1019 -434 2106 -1491 
Q 2125 -1509 2125 -1544 
Q 2125 -1559 2108 -1579 
Q 2091 -1600 2075 -1600 
L 2016 -1600 
Q 1984 -1600 1984 -1588 
z
" transform="scale(0.015625)"/>
      <path id="Cmr10-31" d="M 594 0 
L 594 225 
Q 1394 225 1394 428 
L 1394 3788 
Q 1063 3628 556 3628 
L 556 3853 
Q 1341 3853 1741 4263 
L 1831 4263 
Q 1853 4263 1873 4245 
Q 1894 4228 1894 4206 
L 1894 428 
Q 1894 225 2694 225 
L 2694 0 
L 594 0 
z
" transform="scale(0.015625)"/>
      <path id="Cmsy10-a1" d="M 653 1472 
Q 600 1472 565 1512 
Q 531 1553 531 1600 
Q 531 1647 565 1687 
Q 600 1728 653 1728 
L 4325 1728 
Q 4375 1728 4408 1687 
Q 4441 1647 4441 1600 
Q 4441 1553 4408 1512 
Q 4375 1472 4325 1472 
L 653 1472 
z
" transform="scale(0.015625)"/>
      <path id="Cmr10-29" d="M 416 -1600 
Q 359 -1600 359 -1544 
Q 359 -1516 372 -1503 
Q 1466 -434 1466 1600 
Q 1466 3634 384 4691 
Q 359 4706 359 4744 
Q 359 4766 376 4783 
Q 394 4800 416 4800 
L 475 4800 
Q 494 4800 506 4788 
Q 966 4425 1272 3906 
Q 1578 3388 1720 2800 
Q 1863 2213 1863 1600 
Q 1863 1147 1786 708 
Q 1709 269 1542 -157 
Q 1375 -584 1119 -945 
Q 863 -1306 506 -1588 
Q 494 -1600 475 -1600 
L 416 -1600 
z
" transform="scale(0.015625)"/>
      <path id="DejaVuSerif-6c" d="M 1313 331 
L 1856 331 
L 1856 0 
L 184 0 
L 184 331 
L 738 331 
L 738 4531 
L 184 4531 
L 184 4863 
L 1313 4863 
L 1313 331 
z
" transform="scale(0.015625)"/>
      <path id="DejaVuSerif-63" d="M 3291 997 
Q 3169 466 2822 187 
Q 2475 -91 1925 -91 
Q 1200 -91 759 389 
Q 319 869 319 1663 
Q 319 2459 759 2936 
Q 1200 3413 1925 3413 
Q 2241 3413 2553 3339 
Q 2866 3266 3181 3116 
L 3181 2266 
L 2847 2266 
Q 2781 2703 2561 2903 
Q 2341 3103 1931 3103 
Q 1466 3103 1228 2742 
Q 991 2381 991 1663 
Q 991 944 1227 581 
Q 1463 219 1931 219 
Q 2303 219 2525 412 
Q 2747 606 2828 997 
L 3291 997 
z
" transform="scale(0.015625)"/>
      <path id="DejaVuSerif-79" d="M 1381 -609 
L 1600 -56 
L 359 2988 
L -19 2988 
L -19 3322 
L 1509 3322 
L 1509 2988 
L 978 2988 
L 1913 703 
L 2847 2988 
L 2350 2988 
L 2350 3322 
L 3597 3322 
L 3597 2988 
L 3225 2988 
L 1703 -750 
Q 1547 -1138 1356 -1280 
Q 1166 -1422 819 -1422 
Q 672 -1422 517 -1397 
Q 363 -1372 206 -1325 
L 206 -691 
L 500 -691 
Q 519 -903 608 -995 
Q 697 -1088 884 -1088 
Q 1056 -1088 1161 -992 
Q 1266 -897 1381 -609 
z
" transform="scale(0.015625)"/>
      <path id="DejaVuSerif-6d" d="M 3316 2675 
Q 3481 3041 3739 3227 
Q 3997 3413 4341 3413 
Q 4863 3413 5119 3089 
Q 5375 2766 5375 2113 
L 5375 331 
L 5894 331 
L 5894 0 
L 4300 0 
L 4300 331 
L 4800 331 
L 4800 2047 
Q 4800 2556 4650 2772 
Q 4500 2988 4153 2988 
Q 3769 2988 3567 2697 
Q 3366 2406 3366 1850 
L 3366 331 
L 3866 331 
L 3866 0 
L 2291 0 
L 2291 331 
L 2791 331 
L 2791 2069 
Q 2791 2566 2641 2777 
Q 2491 2988 2144 2988 
Q 1759 2988 1557 2697 
Q 1356 2406 1356 1850 
L 1356 331 
L 1856 331 
L 1856 0 
L 263 0 
L 263 331 
L 781 331 
L 781 2994 
L 231 2994 
L 231 3322 
L 1356 3322 
L 1356 2731 
Q 1516 3063 1762 3238 
Q 2009 3413 2322 3413 
Q 2709 3413 2968 3220 
Q 3228 3028 3316 2675 
z
" transform="scale(0.015625)"/>
      <path id="DejaVuSerif-5c" d="M 500 4666 
L 2156 -594 
L 1656 -594 
L 0 4666 
L 500 4666 
z
" transform="scale(0.015625)"/>
      <path id="DejaVuSerif-5b" d="M 550 4863 
L 2003 4863 
L 2003 4531 
L 1147 4531 
L 1147 -513 
L 2003 -513 
L 2003 -844 
L 550 -844 
L 550 4863 
z
" transform="scale(0.015625)"/>
      <path id="DejaVuSerif-5f" d="M 3200 -1259 
L 3200 -1509 
L 0 -1509 
L 0 -1259 
L 3200 -1259 
z
" transform="scale(0.015625)"/>
      <path id="DejaVuSerif-6b" d="M 1831 0 
L 219 0 
L 219 331 
L 738 331 
L 738 4531 
L 184 4531 
L 184 4863 
L 1313 4863 
L 1313 1697 
L 2713 2988 
L 2234 2988 
L 2234 3322 
L 3738 3322 
L 3738 2988 
L 3169 2988 
L 2181 2075 
L 3444 331 
L 3922 331 
L 3922 0 
L 2284 0 
L 2284 331 
L 2759 331 
L 1766 1697 
L 1313 1275 
L 1313 331 
L 1831 331 
L 1831 0 
z
" transform="scale(0.015625)"/>
      <path id="DejaVuSerif-5e" d="M 2988 4666 
L 4684 2925 
L 4206 2925 
L 2681 4116 
L 1159 2925 
L 678 2925 
L 2375 4666 
L 2988 4666 
z
" transform="scale(0.015625)"/>
      <path id="DejaVuSerif-2b" d="M 2931 4013 
L 2931 2259 
L 4684 2259 
L 4684 1753 
L 2931 1753 
L 2931 0 
L 2431 0 
L 2431 1753 
L 678 1753 
L 678 2259 
L 2431 2259 
L 2431 4013 
L 2931 4013 
z
" transform="scale(0.015625)"/>
      <path id="DejaVuSerif-7b" d="M 3272 -716 
L 3272 -1044 
L 3078 -1044 
Q 2300 -1044 2036 -812 
Q 1772 -581 1772 109 
L 1772 916 
Q 1772 1384 1603 1565 
Q 1434 1747 991 1747 
L 800 1747 
L 800 2075 
L 991 2075 
Q 1434 2075 1603 2256 
Q 1772 2438 1772 2906 
L 1772 3713 
Q 1772 4403 2036 4633 
Q 2300 4863 3078 4863 
L 3272 4863 
L 3272 4538 
L 3059 4538 
Q 2619 4538 2484 4400 
Q 2350 4263 2350 3822 
L 2350 2925 
Q 2350 2431 2194 2218 
Q 2038 2006 1631 1913 
Q 2044 1806 2197 1597 
Q 2350 1388 2350 897 
L 2350 0 
Q 2350 -441 2484 -578 
Q 2619 -716 3059 -716 
L 3272 -716 
z
" transform="scale(0.015625)"/>
      <path id="DejaVuSerif-2d" d="M 281 1959 
L 1881 1959 
L 1881 1472 
L 281 1472 
L 281 1959 
z
" transform="scale(0.015625)"/>
      <path id="DejaVuSerif-7d" d="M 800 -716 
L 1019 -716 
Q 1456 -716 1589 -580 
Q 1722 -444 1722 0 
L 1722 897 
Q 1722 1388 1875 1597 
Q 2028 1806 2438 1913 
Q 2031 2006 1876 2218 
Q 1722 2431 1722 2925 
L 1722 3822 
Q 1722 4266 1589 4402 
Q 1456 4538 1019 4538 
L 800 4538 
L 800 4863 
L 997 4863 
Q 1775 4863 2036 4633 
Q 2297 4403 2297 3713 
L 2297 2906 
Q 2297 2438 2465 2256 
Q 2634 2075 3078 2075 
L 3272 2075 
L 3272 1747 
L 3078 1747 
Q 2634 1747 2465 1565 
Q 2297 1384 2297 916 
L 2297 109 
Q 2297 -581 2036 -812 
Q 1775 -1044 997 -1044 
L 800 -1044 
L 800 -716 
z
" transform="scale(0.015625)"/>
      <path id="DejaVuSerif-30" d="M 2034 219 
Q 2513 219 2750 744 
Q 2988 1269 2988 2328 
Q 2988 3391 2750 3916 
Q 2513 4441 2034 4441 
Q 1556 4441 1318 3916 
Q 1081 3391 1081 2328 
Q 1081 1269 1318 744 
Q 1556 219 2034 219 
z
M 2034 -91 
Q 1275 -91 848 546 
Q 422 1184 422 2328 
Q 422 3475 848 4112 
Q 1275 4750 2034 4750 
Q 2797 4750 3222 4112 
Q 3647 3475 3647 2328 
Q 3647 1184 3222 546 
Q 2797 -91 2034 -91 
z
" transform="scale(0.015625)"/>
      <path id="DejaVuSerif-5d" d="M 1947 4863 
L 1947 -844 
L 494 -844 
L 494 -513 
L 1350 -513 
L 1350 4531 
L 494 4531 
L 494 4863 
L 1947 4863 
z
" transform="scale(0.015625)"/>
      <path id="DejaVuSerif-66" d="M 2753 4078 
L 2450 4078 
Q 2447 4313 2317 4434 
Q 2188 4556 1941 4556 
Q 1619 4556 1487 4379 
Q 1356 4203 1356 3750 
L 1356 3322 
L 2284 3322 
L 2284 2988 
L 1356 2988 
L 1356 331 
L 2094 331 
L 2094 0 
L 231 0 
L 231 331 
L 781 331 
L 781 2988 
L 231 2988 
L 231 3322 
L 781 3322 
L 781 3738 
Q 781 4294 1070 4578 
Q 1359 4863 1919 4863 
Q 2128 4863 2337 4825 
Q 2547 4788 2753 4709 
L 2753 4078 
z
" transform="scale(0.015625)"/>
      <path id="Cmmi10-61" d="M 1113 -72 
Q 709 -72 476 233 
Q 244 538 244 953 
Q 244 1363 456 1803 
Q 669 2244 1030 2536 
Q 1391 2828 1806 2828 
Q 1997 2828 2147 2725 
Q 2297 2622 2381 2444 
Q 2453 2700 2663 2700 
Q 2744 2700 2798 2651 
Q 2853 2603 2853 2522 
Q 2853 2503 2851 2493 
Q 2850 2484 2847 2472 
L 2400 684 
Q 2356 494 2356 372 
Q 2356 97 2541 97 
Q 2741 97 2845 351 
Q 2950 606 3022 941 
Q 3034 978 3072 978 
L 3150 978 
Q 3175 978 3190 956 
Q 3206 934 3206 916 
Q 3094 469 2961 198 
Q 2828 -72 2528 -72 
Q 2313 -72 2147 54 
Q 1981 181 1941 391 
Q 1528 -72 1113 -72 
z
M 1119 97 
Q 1350 97 1567 270 
Q 1784 444 1941 678 
Q 1947 684 1947 697 
L 2291 2088 
L 2297 2106 
Q 2259 2334 2132 2498 
Q 2006 2663 1791 2663 
Q 1575 2663 1389 2486 
Q 1203 2309 1075 2069 
Q 950 1813 836 1366 
Q 722 919 722 672 
Q 722 450 817 273 
Q 913 97 1119 97 
z
" transform="scale(0.015625)"/>
     </defs>
     <use xlink:href="#DejaVuSerif-4c" transform="translate(0 0.235938)"/>
     <use xlink:href="#DejaVuSerif-65" transform="translate(66.40625 0.235938)"/>
     <use xlink:href="#DejaVuSerif-74" transform="translate(125.585938 0.235938)"/>
     <use xlink:href="#DejaVuSerif-20" transform="translate(165.771484 0.235938)"/>
     <use xlink:href="#Cmmi10-6e" transform="translate(197.558594 0.235938)"/>
     <use xlink:href="#Cmr10-3d" transform="translate(275.126953 0.235938)"/>
     <use xlink:href="#Cmr10-32" transform="translate(370.371094 0.235938)"/>
     <use xlink:href="#Cmmi10-6d" transform="translate(420.371094 0.235938)"/>
     <use xlink:href="#DejaVuSerif-2c" transform="translate(508.164062 0.235938)"/>
     <use xlink:href="#DejaVuSerif-20" transform="translate(539.951172 0.235938)"/>
     <use xlink:href="#DejaVuSerif-77" transform="translate(571.738281 0.235938)"/>
     <use xlink:href="#DejaVuSerif-68" transform="translate(657.333984 0.235938)"/>
     <use xlink:href="#DejaVuSerif-65" transform="translate(721.738281 0.235938)"/>
     <use xlink:href="#DejaVuSerif-72" transform="translate(780.917969 0.235938)"/>
     <use xlink:href="#DejaVuSerif-65" transform="translate(828.720703 0.235938)"/>
     <use xlink:href="#DejaVuSerif-20" transform="translate(887.900391 0.235938)"/>
     <use xlink:href="#Cmmi10-6d" transform="translate(919.6875 0.235938)"/>
     <use xlink:href="#DejaVuSerif-20" transform="translate(1007.480469 0.235938)"/>
     <use xlink:href="#DejaVuSerif-69" transform="translate(1039.267578 0.235938)"/>
     <use xlink:href="#DejaVuSerif-73" transform="translate(1071.25 0.235938)"/>
     <use xlink:href="#DejaVuSerif-20" transform="translate(1122.568359 0.235938)"/>
     <use xlink:href="#DejaVuSerif-61" transform="translate(1154.355469 0.235938)"/>
     <use xlink:href="#DejaVuSerif-6e" transform="translate(1213.974609 0.235938)"/>
     <use xlink:href="#DejaVuSerif-20" transform="translate(1278.378906 0.235938)"/>
     <use xlink:href="#DejaVuSerif-6f" transform="translate(1310.166016 0.235938)"/>
     <use xlink:href="#DejaVuSerif-64" transform="translate(1370.371094 0.235938)"/>
     <use xlink:href="#DejaVuSerif-64" transform="translate(1434.384766 0.235938)"/>
     <use xlink:href="#DejaVuSerif-20" transform="translate(1498.398438 0.235938)"/>
     <use xlink:href="#DejaVuSerif-69" transform="translate(1530.185547 0.235938)"/>
     <use xlink:href="#DejaVuSerif-6e" transform="translate(1562.167969 0.235938)"/>
     <use xlink:href="#DejaVuSerif-74" transform="translate(1626.572266 0.235938)"/>
     <use xlink:href="#DejaVuSerif-65" transform="translate(1666.757812 0.235938)"/>
     <use xlink:href="#DejaVuSerif-67" transform="translate(1725.9375 0.235938)"/>
     <use xlink:href="#DejaVuSerif-65" transform="translate(1789.951172 0.235938)"/>
     <use xlink:href="#DejaVuSerif-72" transform="translate(1849.130859 0.235938)"/>
     <use xlink:href="#DejaVuSerif-20" transform="translate(1896.933594 0.235938)"/>
     <use xlink:href="#DejaVuSerif-67" transform="translate(1928.720703 0.235938)"/>
     <use xlink:href="#DejaVuSerif-72" transform="translate(1992.734375 0.235938)"/>
     <use xlink:href="#DejaVuSerif-65" transform="translate(2040.537109 0.235938)"/>
     <use xlink:href="#DejaVuSerif-61" transform="translate(2099.716797 0.235938)"/>
     <use xlink:href="#DejaVuSerif-74" transform="translate(2159.335938 0.235938)"/>
     <use xlink:href="#DejaVuSerif-65" transform="translate(2199.521484 0.235938)"/>
     <use xlink:href="#DejaVuSerif-72" transform="translate(2258.701172 0.235938)"/>
     <use xlink:href="#DejaVuSerif-20" transform="translate(2306.503906 0.235938)"/>
     <use xlink:href="#DejaVuSerif-74" transform="translate(2338.291016 0.235938)"/>
     <use xlink:href="#DejaVuSerif-68" transform="translate(2378.476562 0.235938)"/>
     <use xlink:href="#DejaVuSerif-61" transform="translate(2442.880859 0.235938)"/>
     <use xlink:href="#DejaVuSerif-6e" transform="translate(2502.5 0.235938)"/>
     <use xlink:href="#DejaVuSerif-20" transform="translate(2566.904297 0.235938)"/>
     <use xlink:href="#DejaVuSerif-31" transform="translate(2598.691406 0.235938)"/>
     <use xlink:href="#DejaVuSerif-2e" transform="translate(2662.314453 0.235938)"/>
     <use xlink:href="#DejaVuSerif-20" transform="translate(2694.101562 0.235938)"/>
     <use xlink:href="#DejaVuSerif-4c" transform="translate(2725.888672 0.235938)"/>
     <use xlink:href="#DejaVuSerif-65" transform="translate(2792.294922 0.235938)"/>
     <use xlink:href="#DejaVuSerif-74" transform="translate(2851.474609 0.235938)"/>
     <use xlink:href="#DejaVuSerif-20" transform="translate(2891.660156 0.235938)"/>
     <use xlink:href="#Cmmi10-b5" transform="translate(2923.447266 0.235938)"/>
     <use xlink:href="#Cmr10-3d" transform="translate(2987.929688 0.235938)"/>
     <use xlink:href="#Cmmi10-65" transform="translate(3083.173828 0.235938)"/>
     <use xlink:href="#Cmr10-32" transform="translate(3135.961484 38.5) scale(0.7)"/>
     <use xlink:href="#Cmmi10-bc" transform="translate(3170.961484 38.5) scale(0.7)"/>
     <use xlink:href="#Cmmi10-69" transform="translate(3210.84918 38.5) scale(0.7)"/>
     <use xlink:href="#Cmmi10-3d" transform="translate(3234.945859 38.5) scale(0.7)"/>
     <use xlink:href="#Cmmi10-6e" transform="translate(3269.945859 38.5) scale(0.7)"/>
     <use xlink:href="#DejaVuSerif-2e" transform="translate(3318.330039 0.235938)"/>
     <use xlink:href="#DejaVuSerif-20" transform="translate(3350.117148 0.235938)"/>
     <use xlink:href="#DejaVuSerif-45" transform="translate(3381.904258 0.235938)"/>
     <use xlink:href="#DejaVuSerif-78" transform="translate(3454.902305 0.235938)"/>
     <use xlink:href="#DejaVuSerif-70" transform="translate(3511.298789 0.235938)"/>
     <use xlink:href="#DejaVuSerif-72" transform="translate(3575.312461 0.235938)"/>
     <use xlink:href="#DejaVuSerif-65" transform="translate(3623.115195 0.235938)"/>
     <use xlink:href="#DejaVuSerif-73" transform="translate(3682.294883 0.235938)"/>
     <use xlink:href="#DejaVuSerif-73" transform="translate(3733.613242 0.235938)"/>
     <use xlink:href="#DejaVuSerif-69" transform="translate(3784.931602 0.235938)"/>
     <use xlink:href="#DejaVuSerif-6f" transform="translate(3816.914023 0.235938)"/>
     <use xlink:href="#DejaVuSerif-6e" transform="translate(3877.119102 0.235938)"/>
     <use xlink:href="#DejaVuSerif-20" transform="translate(3941.523398 0.235938)"/>
     <use xlink:href="#Cmr10-28" transform="translate(3973.310508 0.235938)"/>
     <use xlink:href="#Cmr10-31" transform="translate(4012.128867 0.235938)"/>
     <use xlink:href="#Cmsy10-a1" transform="translate(4079.687461 0.235938)"/>
     <use xlink:href="#Cmmi10-b5" transform="translate(4174.931602 0.235938)"/>
     <use xlink:href="#Cmr10-29" transform="translate(4221.85543 0.235938)"/>
     <use xlink:href="#Cmsy10-a1" transform="translate(4265.13793 38.5) scale(0.7)"/>
     <use xlink:href="#Cmr10-31" transform="translate(4319.517813 38.5) scale(0.7)"/>
     <use xlink:href="#DejaVuSerif-20" transform="translate(4360.895156 0.235938)"/>
     <use xlink:href="#DejaVuSerif-65" transform="translate(4392.682266 0.235938)"/>
     <use xlink:href="#DejaVuSerif-78" transform="translate(4451.861953 0.235938)"/>
     <use xlink:href="#DejaVuSerif-70" transform="translate(4508.258437 0.235938)"/>
     <use xlink:href="#DejaVuSerif-6c" transform="translate(4572.272109 0.235938)"/>
     <use xlink:href="#DejaVuSerif-69" transform="translate(4604.254531 0.235938)"/>
     <use xlink:href="#DejaVuSerif-63" transform="translate(4636.236953 0.235938)"/>
     <use xlink:href="#DejaVuSerif-69" transform="translate(4692.242812 0.235938)"/>
     <use xlink:href="#DejaVuSerif-74" transform="translate(4724.225234 0.235938)"/>
     <use xlink:href="#DejaVuSerif-6c" transform="translate(4764.410781 0.235938)"/>
     <use xlink:href="#DejaVuSerif-79" transform="translate(4796.393203 0.235938)"/>
     <use xlink:href="#DejaVuSerif-20" transform="translate(4852.887344 0.235938)"/>
     <use xlink:href="#DejaVuSerif-61" transform="translate(4884.674453 0.235938)"/>
     <use xlink:href="#DejaVuSerif-73" transform="translate(4944.293594 0.235938)"/>
     <use xlink:href="#DejaVuSerif-20" transform="translate(4995.611953 0.235938)"/>
     <use xlink:href="#DejaVuSerif-61" transform="translate(5027.399062 0.235938)"/>
     <use xlink:href="#DejaVuSerif-20" transform="translate(5087.018203 0.235938)"/>
     <use xlink:href="#DejaVuSerif-70" transform="translate(5118.805312 0.235938)"/>
     <use xlink:href="#DejaVuSerif-6f" transform="translate(5182.818984 0.235938)"/>
     <use xlink:href="#DejaVuSerif-6c" transform="translate(5243.024062 0.235938)"/>
     <use xlink:href="#DejaVuSerif-79" transform="translate(5275.006484 0.235938)"/>
     <use xlink:href="#DejaVuSerif-6e" transform="translate(5331.500625 0.235938)"/>
     <use xlink:href="#DejaVuSerif-6f" transform="translate(5395.904922 0.235938)"/>
     <use xlink:href="#DejaVuSerif-6d" transform="translate(5456.11 0.235938)"/>
     <use xlink:href="#DejaVuSerif-69" transform="translate(5550.934219 0.235938)"/>
     <use xlink:href="#DejaVuSerif-61" transform="translate(5582.916641 0.235938)"/>
     <use xlink:href="#DejaVuSerif-6c" transform="translate(5642.535781 0.235938)"/>
     <use xlink:href="#DejaVuSerif-20" transform="translate(5674.518203 0.235938)"/>
     <use xlink:href="#DejaVuSerif-69" transform="translate(5706.305312 0.235938)"/>
     <use xlink:href="#DejaVuSerif-6e" transform="translate(5738.287734 0.235938)"/>
     <use xlink:href="#DejaVuSerif-20" transform="translate(5802.692031 0.235938)"/>
     <use xlink:href="#Cmmi10-b5" transform="translate(5834.479141 0.235938)"/>
     <use xlink:href="#DejaVuSerif-20" transform="translate(5881.402969 0.235938)"/>
     <use xlink:href="#DejaVuSerif-5c" transform="translate(5913.190078 0.235938)"/>
     <use xlink:href="#DejaVuSerif-5b" transform="translate(5946.881484 0.235938)"/>
     <use xlink:href="#DejaVuSerif-20" transform="translate(5985.895156 0.235938)"/>
     <use xlink:href="#DejaVuSerif-61" transform="translate(6017.682266 0.235938)"/>
     <use xlink:href="#DejaVuSerif-5f" transform="translate(6077.301406 0.235938)"/>
     <use xlink:href="#DejaVuSerif-6b" transform="translate(6127.301406 0.235938)"/>
     <use xlink:href="#DejaVuSerif-20" transform="translate(6187.897109 0.235938)"/>
     <use xlink:href="#DejaVuSerif-5c" transform="translate(6219.684219 0.235938)"/>
     <use xlink:href="#DejaVuSerif-74" transform="translate(6253.375625 0.235938)"/>
     <use xlink:href="#DejaVuSerif-68" transform="translate(6293.561172 0.235938)"/>
     <use xlink:href="#DejaVuSerif-65" transform="translate(6357.965469 0.235938)"/>
     <use xlink:href="#DejaVuSerif-74" transform="translate(6417.145156 0.235938)"/>
     <use xlink:href="#DejaVuSerif-61" transform="translate(6457.330703 0.235938)"/>
     <use xlink:href="#DejaVuSerif-5e" transform="translate(6516.949844 0.235938)"/>
     <use xlink:href="#DejaVuSerif-6b" transform="translate(6600.738906 0.235938)"/>
     <use xlink:href="#DejaVuSerif-20" transform="translate(6661.334609 0.235938)"/>
     <use xlink:href="#DejaVuSerif-20" transform="translate(6693.121719 0.235938)"/>
     <use xlink:href="#DejaVuSerif-2b" transform="translate(6724.908828 0.235938)"/>
     <use xlink:href="#DejaVuSerif-20" transform="translate(6808.697891 0.235938)"/>
     <use xlink:href="#DejaVuSerif-61" transform="translate(6840.485 0.235938)"/>
     <use xlink:href="#DejaVuSerif-5f" transform="translate(6900.104141 0.235938)"/>
     <use xlink:href="#DejaVuSerif-7b" transform="translate(6950.104141 0.235938)"/>
     <use xlink:href="#DejaVuSerif-6b" transform="translate(7013.727187 0.235938)"/>
     <use xlink:href="#DejaVuSerif-2d" transform="translate(7074.322891 0.235938)"/>
     <use xlink:href="#DejaVuSerif-31" transform="translate(7108.111953 0.235938)"/>
     <use xlink:href="#DejaVuSerif-7d" transform="translate(7171.735 0.235938)"/>
     <use xlink:href="#DejaVuSerif-5c" transform="translate(7235.358047 0.235938)"/>
     <use xlink:href="#DejaVuSerif-74" transform="translate(7269.049453 0.235938)"/>
     <use xlink:href="#DejaVuSerif-68" transform="translate(7309.235 0.235938)"/>
     <use xlink:href="#DejaVuSerif-65" transform="translate(7373.639297 0.235938)"/>
     <use xlink:href="#DejaVuSerif-74" transform="translate(7432.818984 0.235938)"/>
     <use xlink:href="#DejaVuSerif-61" transform="translate(7473.004531 0.235938)"/>
     <use xlink:href="#DejaVuSerif-5e" transform="translate(7532.623672 0.235938)"/>
     <use xlink:href="#DejaVuSerif-7b" transform="translate(7616.412734 0.235938)"/>
     <use xlink:href="#DejaVuSerif-6b" transform="translate(7680.035781 0.235938)"/>
     <use xlink:href="#DejaVuSerif-2d" transform="translate(7740.631484 0.235938)"/>
     <use xlink:href="#DejaVuSerif-31" transform="translate(7774.420547 0.235938)"/>
     <use xlink:href="#DejaVuSerif-7d" transform="translate(7838.043594 0.235938)"/>
     <use xlink:href="#DejaVuSerif-20" transform="translate(7901.666641 0.235938)"/>
     <use xlink:href="#DejaVuSerif-2b" transform="translate(7933.45375 0.235938)"/>
     <use xlink:href="#DejaVuSerif-20" transform="translate(8017.242812 0.235938)"/>
     <use xlink:href="#DejaVuSerif-5c" transform="translate(8049.029922 0.235938)"/>
     <use xlink:href="#DejaVuSerif-64" transform="translate(8082.721328 0.235938)"/>
     <use xlink:href="#DejaVuSerif-6f" transform="translate(8146.735 0.235938)"/>
     <use xlink:href="#DejaVuSerif-74" transform="translate(8206.940078 0.235938)"/>
     <use xlink:href="#DejaVuSerif-73" transform="translate(8247.125625 0.235938)"/>
     <use xlink:href="#DejaVuSerif-20" transform="translate(8298.443984 0.235938)"/>
     <use xlink:href="#DejaVuSerif-2b" transform="translate(8330.231094 0.235938)"/>
     <use xlink:href="#DejaVuSerif-20" transform="translate(8414.020156 0.235938)"/>
     <use xlink:href="#DejaVuSerif-61" transform="translate(8445.807266 0.235938)"/>
     <use xlink:href="#DejaVuSerif-5f" transform="translate(8505.426406 0.235938)"/>
     <use xlink:href="#DejaVuSerif-31" transform="translate(8555.426406 0.235938)"/>
     <use xlink:href="#DejaVuSerif-5c" transform="translate(8619.049453 0.235938)"/>
     <use xlink:href="#DejaVuSerif-74" transform="translate(8652.740859 0.235938)"/>
     <use xlink:href="#DejaVuSerif-68" transform="translate(8692.926406 0.235938)"/>
     <use xlink:href="#DejaVuSerif-65" transform="translate(8757.330703 0.235938)"/>
     <use xlink:href="#DejaVuSerif-74" transform="translate(8816.510391 0.235938)"/>
     <use xlink:href="#DejaVuSerif-61" transform="translate(8856.695938 0.235938)"/>
     <use xlink:href="#DejaVuSerif-20" transform="translate(8916.315078 0.235938)"/>
     <use xlink:href="#DejaVuSerif-2b" transform="translate(8948.102188 0.235938)"/>
     <use xlink:href="#DejaVuSerif-20" transform="translate(9031.89125 0.235938)"/>
     <use xlink:href="#DejaVuSerif-61" transform="translate(9063.678359 0.235938)"/>
     <use xlink:href="#DejaVuSerif-5f" transform="translate(9123.2975 0.235938)"/>
     <use xlink:href="#DejaVuSerif-30" transform="translate(9173.2975 0.235938)"/>
     <use xlink:href="#DejaVuSerif-5c" transform="translate(9236.920547 0.235938)"/>
     <use xlink:href="#DejaVuSerif-5d" transform="translate(9270.611953 0.235938)"/>
     <use xlink:href="#DejaVuSerif-2c" transform="translate(9309.625625 0.235938)"/>
     <use xlink:href="#DejaVuSerif-20" transform="translate(9341.412734 0.235938)"/>
     <use xlink:href="#DejaVuSerif-77" transform="translate(9373.199844 0.235938)"/>
     <use xlink:href="#DejaVuSerif-69" transform="translate(9458.795547 0.235938)"/>
     <use xlink:href="#DejaVuSerif-74" transform="translate(9490.777969 0.235938)"/>
     <use xlink:href="#DejaVuSerif-68" transform="translate(9530.963516 0.235938)"/>
     <use xlink:href="#DejaVuSerif-20" transform="translate(9595.367813 0.235938)"/>
     <use xlink:href="#DejaVuSerif-69" transform="translate(9627.154922 0.235938)"/>
     <use xlink:href="#DejaVuSerif-6e" transform="translate(9659.137344 0.235938)"/>
     <use xlink:href="#DejaVuSerif-74" transform="translate(9723.541641 0.235938)"/>
     <use xlink:href="#DejaVuSerif-65" transform="translate(9763.727188 0.235938)"/>
     <use xlink:href="#DejaVuSerif-67" transform="translate(9822.906875 0.235938)"/>
     <use xlink:href="#DejaVuSerif-65" transform="translate(9886.920547 0.235938)"/>
     <use xlink:href="#DejaVuSerif-72" transform="translate(9946.100234 0.235938)"/>
     <use xlink:href="#DejaVuSerif-20" transform="translate(9993.902969 0.235938)"/>
     <use xlink:href="#DejaVuSerif-63" transform="translate(10025.690078 0.235938)"/>
     <use xlink:href="#DejaVuSerif-6f" transform="translate(10081.695938 0.235938)"/>
     <use xlink:href="#DejaVuSerif-65" transform="translate(10141.901016 0.235938)"/>
     <use xlink:href="#DejaVuSerif-66" transform="translate(10201.080703 0.235938)"/>
     <use xlink:href="#DejaVuSerif-66" transform="translate(10238.092422 0.235938)"/>
     <use xlink:href="#DejaVuSerif-69" transform="translate(10275.104141 0.235938)"/>
     <use xlink:href="#DejaVuSerif-63" transform="translate(10307.086563 0.235938)"/>
     <use xlink:href="#DejaVuSerif-69" transform="translate(10363.092422 0.235938)"/>
     <use xlink:href="#DejaVuSerif-65" transform="translate(10395.074844 0.235938)"/>
     <use xlink:href="#DejaVuSerif-6e" transform="translate(10454.254531 0.235938)"/>
     <use xlink:href="#DejaVuSerif-74" transform="translate(10518.658828 0.235938)"/>
     <use xlink:href="#DejaVuSerif-73" transform="translate(10558.844375 0.235938)"/>
     <use xlink:href="#DejaVuSerif-20" transform="translate(10610.162734 0.235938)"/>
     <use xlink:href="#Cmmi10-61" transform="translate(10641.949844 0.235938)"/>
     <use xlink:href="#Cmmi10-69" transform="translate(10694.733047 -16.770312) scale(0.7)"/>
     <use xlink:href="#DejaVuSerif-2e" transform="translate(10725.20707 0.235938)"/>
    </g>
   </g>
  </g>
 </g>
</svg>
