<?xml version="1.0" encoding="utf-8" standalone="no"?>
<!DOCTYPE svg PUBLIC "-//W3C//DTD SVG 1.1//EN"
  "http://www.w3.org/Graphics/SVG/1.1/DTD/svg11.dtd">
<svg xmlns:xlink="http://www.w3.org/1999/xlink" width="1218.96pt" height="180.72pt" viewBox="0 0 1218.96 180.72" xmlns="http://www.w3.org/2000/svg" version="1.1">
 <metadata>
  <rdf:RDF xmlns:dc="http://purl.org/dc/elements/1.1/" xmlns:cc="http://creativecommons.org/ns#" xmlns:rdf="http://www.w3.org/1999/02/22-rdf-syntax-ns#">
   <cc:Work>
    <dc:type rdf:resource="http://purl.org/dc/dcmitype/StillImage"/>
    <dc:date>2025-05-29T18:43:50.953952</dc:date>
    <dc:format>image/svg+xml</dc:format>
    <dc:creator>
     <cc:Agent>
      <dc:title>Matplotlib v3.10.3, https://matplotlib.org/</dc:title>
     </cc:Agent>
    </dc:creator>
   </cc:Work>
  </rdf:RDF>
 </metadata>
 <defs>
  <style type="text/css">*{stroke-linejoin: round; stroke-linecap: butt}</style>
 </defs>
 <g id="figure_1">
  <g id="patch_1">
   <path d="M 0 180.72 
L 1218.96 180.72 
L 1218.96 0 
L 0 0 
z
" style="fill: #ffffff"/>
  </g>
  <g id="axes_1">
   <g id="text_1">
    <!-- Let $n$ be a positive integer, and let $f(n)$ denote the last nonzero digit in the decimal expansion of $n!$. For instance, $f(5)=2$. -->
    <g transform="translate(240.24 65.953313) scale(0.12 -0.12)">
     <defs>
      <path id="DejaVuSerif-4c" d="M 353 0 
L 353 331 
L 947 331 
L 947 4331 
L 353 4331 
L 353 4666 
L 2175 4666 
L 2175 4331 
L 1581 4331 
L 1581 384 
L 3713 384 
L 3713 1166 
L 4097 1166 
L 4097 0 
L 353 0 
z
" transform="scale(0.015625)"/>
      <path id="DejaVuSerif-65" d="M 3469 1600 
L 991 1600 
L 991 1575 
Q 991 903 1244 561 
Q 1497 219 1991 219 
Q 2369 219 2611 417 
Q 2853 616 2950 1006 
L 3413 1006 
Q 3275 459 2904 184 
Q 2534 -91 1931 -91 
Q 1203 -91 761 389 
Q 319 869 319 1663 
Q 319 2450 753 2931 
Q 1188 3413 1894 3413 
Q 2647 3413 3050 2948 
Q 3453 2484 3469 1600 
z
M 2791 1931 
Q 2772 2513 2545 2808 
Q 2319 3103 1894 3103 
Q 1497 3103 1269 2806 
Q 1041 2509 991 1931 
L 2791 1931 
z
" transform="scale(0.015625)"/>
      <path id="DejaVuSerif-74" d="M 691 2988 
L 184 2988 
L 184 3322 
L 691 3322 
L 691 4353 
L 1269 4353 
L 1269 3322 
L 2350 3322 
L 2350 2988 
L 1269 2988 
L 1269 878 
Q 1269 456 1350 337 
Q 1431 219 1650 219 
Q 1875 219 1978 351 
Q 2081 484 2088 781 
L 2522 781 
Q 2497 328 2275 118 
Q 2053 -91 1600 -91 
Q 1103 -91 897 129 
Q 691 350 691 878 
L 691 2988 
z
" transform="scale(0.015625)"/>
      <path id="DejaVuSerif-20" transform="scale(0.015625)"/>
      <path id="Cmmi10-6e" d="M 494 109 
Q 494 147 500 166 
L 978 2075 
Q 1025 2253 1025 2388 
Q 1025 2663 838 2663 
Q 638 2663 541 2423 
Q 444 2184 353 1819 
Q 353 1800 334 1789 
Q 316 1778 300 1778 
L 225 1778 
Q 203 1778 187 1801 
Q 172 1825 172 1844 
Q 241 2122 305 2315 
Q 369 2509 505 2668 
Q 641 2828 844 2828 
Q 1084 2828 1268 2676 
Q 1453 2525 1453 2291 
Q 1644 2541 1900 2684 
Q 2156 2828 2444 2828 
Q 2672 2828 2837 2750 
Q 3003 2672 3095 2514 
Q 3188 2356 3188 2138 
Q 3188 1875 3070 1503 
Q 2953 1131 2778 672 
Q 2688 463 2688 288 
Q 2688 97 2834 97 
Q 3084 97 3251 365 
Q 3419 634 3488 941 
Q 3500 978 3541 978 
L 3616 978 
Q 3641 978 3658 962 
Q 3675 947 3675 922 
Q 3675 916 3669 903 
Q 3581 541 3364 234 
Q 3147 -72 2822 -72 
Q 2597 -72 2437 83 
Q 2278 238 2278 459 
Q 2278 578 2328 709 
Q 2409 919 2514 1209 
Q 2619 1500 2686 1765 
Q 2753 2031 2753 2234 
Q 2753 2413 2679 2538 
Q 2606 2663 2431 2663 
Q 2197 2663 2000 2559 
Q 1803 2456 1656 2286 
Q 1509 2116 1388 1881 
L 953 141 
Q 931 53 854 -9 
Q 778 -72 684 -72 
Q 606 -72 550 -22 
Q 494 28 494 109 
z
" transform="scale(0.015625)"/>
      <path id="DejaVuSerif-62" d="M 738 331 
L 738 4531 
L 184 4531 
L 184 4863 
L 1313 4863 
L 1313 2803 
Q 1481 3116 1742 3264 
Q 2003 3413 2388 3413 
Q 3000 3413 3387 2928 
Q 3775 2444 3775 1663 
Q 3775 881 3387 395 
Q 3000 -91 2388 -91 
Q 2003 -91 1742 57 
Q 1481 206 1313 519 
L 1313 0 
L 184 0 
L 184 331 
L 738 331 
z
M 1313 1497 
Q 1313 897 1542 583 
Q 1772 269 2209 269 
Q 2650 269 2876 622 
Q 3103 975 3103 1663 
Q 3103 2353 2876 2703 
Q 2650 3053 2209 3053 
Q 1772 3053 1542 2737 
Q 1313 2422 1313 1825 
L 1313 1497 
z
" transform="scale(0.015625)"/>
      <path id="DejaVuSerif-61" d="M 2547 1044 
L 2547 1747 
L 1806 1747 
Q 1378 1747 1168 1562 
Q 959 1378 959 997 
Q 959 650 1171 447 
Q 1384 244 1747 244 
Q 2106 244 2326 466 
Q 2547 688 2547 1044 
z
M 3122 2075 
L 3122 331 
L 3634 331 
L 3634 0 
L 2547 0 
L 2547 359 
Q 2356 128 2106 18 
Q 1856 -91 1522 -91 
Q 969 -91 644 203 
Q 319 497 319 997 
Q 319 1513 691 1797 
Q 1063 2081 1741 2081 
L 2547 2081 
L 2547 2309 
Q 2547 2688 2317 2895 
Q 2088 3103 1672 3103 
Q 1328 3103 1125 2947 
Q 922 2791 872 2484 
L 575 2484 
L 575 3156 
Q 875 3284 1158 3348 
Q 1441 3413 1709 3413 
Q 2400 3413 2761 3070 
Q 3122 2728 3122 2075 
z
" transform="scale(0.015625)"/>
      <path id="DejaVuSerif-70" d="M 1313 1825 
L 1313 1497 
Q 1313 897 1542 583 
Q 1772 269 2209 269 
Q 2650 269 2876 622 
Q 3103 975 3103 1663 
Q 3103 2353 2876 2703 
Q 2650 3053 2209 3053 
Q 1772 3053 1542 2737 
Q 1313 2422 1313 1825 
z
M 738 2988 
L 184 2988 
L 184 3322 
L 1313 3322 
L 1313 2803 
Q 1481 3116 1742 3264 
Q 2003 3413 2388 3413 
Q 3000 3413 3387 2928 
Q 3775 2444 3775 1663 
Q 3775 881 3387 395 
Q 3000 -91 2388 -91 
Q 2003 -91 1742 57 
Q 1481 206 1313 519 
L 1313 -997 
L 1856 -997 
L 1856 -1331 
L 184 -1331 
L 184 -997 
L 738 -997 
L 738 2988 
z
" transform="scale(0.015625)"/>
      <path id="DejaVuSerif-6f" d="M 1925 219 
Q 2388 219 2623 584 
Q 2859 950 2859 1663 
Q 2859 2375 2623 2739 
Q 2388 3103 1925 3103 
Q 1463 3103 1227 2739 
Q 991 2375 991 1663 
Q 991 950 1228 584 
Q 1466 219 1925 219 
z
M 1925 -91 
Q 1200 -91 759 389 
Q 319 869 319 1663 
Q 319 2456 758 2934 
Q 1197 3413 1925 3413 
Q 2653 3413 3092 2934 
Q 3531 2456 3531 1663 
Q 3531 869 3092 389 
Q 2653 -91 1925 -91 
z
" transform="scale(0.015625)"/>
      <path id="DejaVuSerif-73" d="M 359 184 
L 359 959 
L 691 959 
Q 703 588 923 403 
Q 1144 219 1575 219 
Q 1963 219 2166 364 
Q 2369 509 2369 788 
Q 2369 1006 2220 1140 
Q 2072 1275 1594 1428 
L 1178 1569 
Q 750 1706 558 1912 
Q 366 2119 366 2438 
Q 366 2894 700 3153 
Q 1034 3413 1625 3413 
Q 1888 3413 2178 3344 
Q 2469 3275 2778 3144 
L 2778 2419 
L 2447 2419 
Q 2434 2741 2221 2922 
Q 2009 3103 1644 3103 
Q 1281 3103 1095 2975 
Q 909 2847 909 2591 
Q 909 2381 1050 2254 
Q 1191 2128 1613 1997 
L 2069 1856 
Q 2541 1709 2748 1489 
Q 2956 1269 2956 922 
Q 2956 450 2595 179 
Q 2234 -91 1600 -91 
Q 1278 -91 972 -22 
Q 666 47 359 184 
z
" transform="scale(0.015625)"/>
      <path id="DejaVuSerif-69" d="M 622 4353 
Q 622 4497 726 4603 
Q 831 4709 978 4709 
Q 1122 4709 1226 4603 
Q 1331 4497 1331 4353 
Q 1331 4206 1228 4103 
Q 1125 4000 978 4000 
Q 831 4000 726 4103 
Q 622 4206 622 4353 
z
M 1356 331 
L 1900 331 
L 1900 0 
L 231 0 
L 231 331 
L 781 331 
L 781 2988 
L 231 2988 
L 231 3322 
L 1356 3322 
L 1356 331 
z
" transform="scale(0.015625)"/>
      <path id="DejaVuSerif-76" d="M 1581 0 
L 359 2988 
L -19 2988 
L -19 3322 
L 1509 3322 
L 1509 2988 
L 978 2988 
L 1913 703 
L 2847 2988 
L 2350 2988 
L 2350 3322 
L 3597 3322 
L 3597 2988 
L 3225 2988 
L 2003 0 
L 1581 0 
z
" transform="scale(0.015625)"/>
      <path id="DejaVuSerif-6e" d="M 263 0 
L 263 331 
L 781 331 
L 781 2988 
L 231 2988 
L 231 3322 
L 1356 3322 
L 1356 2731 
Q 1516 3069 1770 3241 
Q 2025 3413 2363 3413 
Q 2913 3413 3172 3097 
Q 3431 2781 3431 2113 
L 3431 331 
L 3944 331 
L 3944 0 
L 2356 0 
L 2356 331 
L 2853 331 
L 2853 1931 
Q 2853 2541 2703 2767 
Q 2553 2994 2175 2994 
Q 1775 2994 1565 2701 
Q 1356 2409 1356 1850 
L 1356 331 
L 1856 331 
L 1856 0 
L 263 0 
z
" transform="scale(0.015625)"/>
      <path id="DejaVuSerif-67" d="M 3359 2988 
L 3359 72 
Q 3359 -644 2965 -1033 
Q 2572 -1422 1844 -1422 
Q 1516 -1422 1216 -1362 
Q 916 -1303 641 -1184 
L 641 -488 
L 941 -488 
Q 997 -813 1206 -963 
Q 1416 -1113 1806 -1113 
Q 2313 -1113 2548 -827 
Q 2784 -541 2784 72 
L 2784 519 
Q 2616 206 2355 57 
Q 2094 -91 1709 -91 
Q 1097 -91 708 395 
Q 319 881 319 1663 
Q 319 2444 706 2928 
Q 1094 3413 1709 3413 
Q 2094 3413 2355 3264 
Q 2616 3116 2784 2803 
L 2784 3322 
L 3909 3322 
L 3909 2988 
L 3359 2988 
z
M 2784 1825 
Q 2784 2422 2554 2737 
Q 2325 3053 1888 3053 
Q 1444 3053 1217 2703 
Q 991 2353 991 1663 
Q 991 975 1217 622 
Q 1444 269 1888 269 
Q 2325 269 2554 583 
Q 2784 897 2784 1497 
L 2784 1825 
z
" transform="scale(0.015625)"/>
      <path id="DejaVuSerif-72" d="M 3059 3328 
L 3059 2497 
L 2728 2497 
Q 2713 2744 2591 2866 
Q 2469 2988 2234 2988 
Q 1809 2988 1582 2694 
Q 1356 2400 1356 1850 
L 1356 331 
L 2022 331 
L 2022 0 
L 263 0 
L 263 331 
L 781 331 
L 781 2994 
L 231 2994 
L 231 3322 
L 1356 3322 
L 1356 2731 
Q 1525 3078 1790 3245 
Q 2056 3413 2438 3413 
Q 2578 3413 2733 3391 
Q 2888 3369 3059 3328 
z
" transform="scale(0.015625)"/>
      <path id="DejaVuSerif-2c" d="M 231 -622 
Q 525 -406 662 -114 
Q 800 178 800 594 
L 800 709 
L 1416 709 
Q 1391 175 1164 -208 
Q 938 -591 481 -872 
L 231 -622 
z
" transform="scale(0.015625)"/>
      <path id="DejaVuSerif-64" d="M 3359 331 
L 3909 331 
L 3909 0 
L 2784 0 
L 2784 519 
Q 2616 206 2355 57 
Q 2094 -91 1709 -91 
Q 1097 -91 708 395 
Q 319 881 319 1663 
Q 319 2444 706 2928 
Q 1094 3413 1709 3413 
Q 2094 3413 2355 3264 
Q 2616 3116 2784 2803 
L 2784 4531 
L 2241 4531 
L 2241 4863 
L 3359 4863 
L 3359 331 
z
M 2784 1497 
L 2784 1825 
Q 2784 2422 2554 2737 
Q 2325 3053 1888 3053 
Q 1444 3053 1217 2703 
Q 991 2353 991 1663 
Q 991 975 1217 622 
Q 1444 269 1888 269 
Q 2325 269 2554 583 
Q 2784 897 2784 1497 
z
" transform="scale(0.015625)"/>
      <path id="DejaVuSerif-6c" d="M 1313 331 
L 1856 331 
L 1856 0 
L 184 0 
L 184 331 
L 738 331 
L 738 4531 
L 184 4531 
L 184 4863 
L 1313 4863 
L 1313 331 
z
" transform="scale(0.015625)"/>
      <path id="Cmmi10-66" d="M 622 -1056 
Q 741 -1147 909 -1147 
Q 1138 -1147 1281 -641 
Q 1341 -397 1606 966 
L 1900 2534 
L 1350 2534 
Q 1288 2534 1288 2619 
Q 1313 2759 1369 2759 
L 1941 2759 
L 2016 3175 
Q 2053 3369 2084 3508 
Q 2116 3647 2152 3765 
Q 2188 3884 2259 4031 
Q 2369 4241 2555 4377 
Q 2741 4513 2956 4513 
Q 3097 4513 3230 4461 
Q 3363 4409 3447 4306 
Q 3531 4203 3531 4063 
Q 3531 3900 3423 3779 
Q 3316 3659 3163 3659 
Q 3059 3659 2986 3723 
Q 2913 3788 2913 3891 
Q 2913 4031 3008 4136 
Q 3103 4241 3244 4256 
Q 3125 4347 2950 4347 
Q 2853 4347 2767 4256 
Q 2681 4166 2656 4063 
Q 2616 3900 2478 3181 
L 2400 2759 
L 3059 2759 
Q 3122 2759 3122 2675 
Q 3119 2659 3109 2620 
Q 3100 2581 3083 2557 
Q 3066 2534 3041 2534 
L 2356 2534 
L 2059 972 
Q 2003 631 1929 279 
Q 1856 -72 1723 -442 
Q 1591 -813 1384 -1063 
Q 1178 -1313 897 -1313 
Q 681 -1313 511 -1189 
Q 341 -1066 341 -863 
Q 341 -700 445 -579 
Q 550 -459 709 -459 
Q 816 -459 887 -523 
Q 959 -588 959 -691 
Q 959 -828 857 -942 
Q 756 -1056 622 -1056 
z
" transform="scale(0.015625)"/>
      <path id="Cmr10-28" d="M 1984 -1588 
Q 1628 -1306 1370 -942 
Q 1113 -578 948 -165 
Q 784 247 703 697 
Q 622 1147 622 1600 
Q 622 2059 703 2509 
Q 784 2959 951 3375 
Q 1119 3791 1378 4153 
Q 1638 4516 1984 4788 
Q 1984 4800 2016 4800 
L 2075 4800 
Q 2094 4800 2109 4783 
Q 2125 4766 2125 4744 
Q 2125 4716 2113 4703 
Q 1800 4397 1592 4047 
Q 1384 3697 1257 3301 
Q 1131 2906 1075 2482 
Q 1019 2059 1019 1600 
Q 1019 -434 2106 -1491 
Q 2125 -1509 2125 -1544 
Q 2125 -1559 2108 -1579 
Q 2091 -1600 2075 -1600 
L 2016 -1600 
Q 1984 -1600 1984 -1588 
z
" transform="scale(0.015625)"/>
      <path id="Cmr10-29" d="M 416 -1600 
Q 359 -1600 359 -1544 
Q 359 -1516 372 -1503 
Q 1466 -434 1466 1600 
Q 1466 3634 384 4691 
Q 359 4706 359 4744 
Q 359 4766 376 4783 
Q 394 4800 416 4800 
L 475 4800 
Q 494 4800 506 4788 
Q 966 4425 1272 3906 
Q 1578 3388 1720 2800 
Q 1863 2213 1863 1600 
Q 1863 1147 1786 708 
Q 1709 269 1542 -157 
Q 1375 -584 1119 -945 
Q 863 -1306 506 -1588 
Q 494 -1600 475 -1600 
L 416 -1600 
z
" transform="scale(0.015625)"/>
      <path id="DejaVuSerif-68" d="M 263 0 
L 263 331 
L 781 331 
L 781 4531 
L 231 4531 
L 231 4863 
L 1356 4863 
L 1356 2731 
Q 1516 3069 1770 3241 
Q 2025 3413 2363 3413 
Q 2913 3413 3172 3097 
Q 3431 2781 3431 2113 
L 3431 331 
L 3944 331 
L 3944 0 
L 2356 0 
L 2356 331 
L 2853 331 
L 2853 1931 
Q 2853 2541 2704 2764 
Q 2556 2988 2175 2988 
Q 1775 2988 1565 2697 
Q 1356 2406 1356 1850 
L 1356 331 
L 1856 331 
L 1856 0 
L 263 0 
z
" transform="scale(0.015625)"/>
      <path id="DejaVuSerif-7a" d="M 256 0 
L 256 269 
L 2338 2988 
L 691 2988 
L 691 2413 
L 359 2413 
L 359 3322 
L 3078 3322 
L 3078 3053 
L 997 331 
L 2803 331 
L 2803 934 
L 3138 934 
L 3138 0 
L 256 0 
z
" transform="scale(0.015625)"/>
      <path id="DejaVuSerif-63" d="M 3291 997 
Q 3169 466 2822 187 
Q 2475 -91 1925 -91 
Q 1200 -91 759 389 
Q 319 869 319 1663 
Q 319 2459 759 2936 
Q 1200 3413 1925 3413 
Q 2241 3413 2553 3339 
Q 2866 3266 3181 3116 
L 3181 2266 
L 2847 2266 
Q 2781 2703 2561 2903 
Q 2341 3103 1931 3103 
Q 1466 3103 1228 2742 
Q 991 2381 991 1663 
Q 991 944 1227 581 
Q 1463 219 1931 219 
Q 2303 219 2525 412 
Q 2747 606 2828 997 
L 3291 997 
z
" transform="scale(0.015625)"/>
      <path id="DejaVuSerif-6d" d="M 3316 2675 
Q 3481 3041 3739 3227 
Q 3997 3413 4341 3413 
Q 4863 3413 5119 3089 
Q 5375 2766 5375 2113 
L 5375 331 
L 5894 331 
L 5894 0 
L 4300 0 
L 4300 331 
L 4800 331 
L 4800 2047 
Q 4800 2556 4650 2772 
Q 4500 2988 4153 2988 
Q 3769 2988 3567 2697 
Q 3366 2406 3366 1850 
L 3366 331 
L 3866 331 
L 3866 0 
L 2291 0 
L 2291 331 
L 2791 331 
L 2791 2069 
Q 2791 2566 2641 2777 
Q 2491 2988 2144 2988 
Q 1759 2988 1557 2697 
Q 1356 2406 1356 1850 
L 1356 331 
L 1856 331 
L 1856 0 
L 263 0 
L 263 331 
L 781 331 
L 781 2994 
L 231 2994 
L 231 3322 
L 1356 3322 
L 1356 2731 
Q 1516 3063 1762 3238 
Q 2009 3413 2322 3413 
Q 2709 3413 2968 3220 
Q 3228 3028 3316 2675 
z
" transform="scale(0.015625)"/>
      <path id="DejaVuSerif-78" d="M 1863 2028 
L 2559 2988 
L 2113 2988 
L 2113 3322 
L 3391 3322 
L 3391 2988 
L 2950 2988 
L 2059 1759 
L 3097 331 
L 3531 331 
L 3531 0 
L 1997 0 
L 1997 331 
L 2419 331 
L 1697 1325 
L 972 331 
L 1403 331 
L 1403 0 
L 141 0 
L 141 331 
L 581 331 
L 1497 1594 
L 488 2988 
L 78 2988 
L 78 3322 
L 1563 3322 
L 1563 2988 
L 1166 2988 
L 1863 2028 
z
" transform="scale(0.015625)"/>
      <path id="DejaVuSerif-66" d="M 2753 4078 
L 2450 4078 
Q 2447 4313 2317 4434 
Q 2188 4556 1941 4556 
Q 1619 4556 1487 4379 
Q 1356 4203 1356 3750 
L 1356 3322 
L 2284 3322 
L 2284 2988 
L 1356 2988 
L 1356 331 
L 2094 331 
L 2094 0 
L 231 0 
L 231 331 
L 781 331 
L 781 2988 
L 231 2988 
L 231 3322 
L 781 3322 
L 781 3738 
Q 781 4294 1070 4578 
Q 1359 4863 1919 4863 
Q 2128 4863 2337 4825 
Q 2547 4788 2753 4709 
L 2753 4078 
z
" transform="scale(0.015625)"/>
      <path id="Cmr10-21" d="M 538 353 
Q 538 497 644 600 
Q 750 703 891 703 
Q 978 703 1062 656 
Q 1147 609 1194 525 
Q 1241 441 1241 353 
Q 1241 213 1137 106 
Q 1034 0 891 0 
Q 750 0 644 106 
Q 538 213 538 353 
z
M 800 1275 
L 538 4225 
L 538 4263 
Q 538 4397 645 4489 
Q 753 4581 891 4581 
Q 1031 4581 1136 4489 
Q 1241 4397 1241 4263 
L 1241 4225 
L 984 1275 
Q 984 1253 965 1234 
Q 947 1216 928 1216 
L 850 1216 
Q 834 1216 817 1236 
Q 800 1256 800 1275 
z
" transform="scale(0.015625)"/>
      <path id="DejaVuSerif-2e" d="M 603 325 
Q 603 500 722 622 
Q 841 744 1019 744 
Q 1191 744 1312 622 
Q 1434 500 1434 325 
Q 1434 153 1312 31 
Q 1191 -91 1019 -91 
Q 841 -91 722 29 
Q 603 150 603 325 
z
" transform="scale(0.015625)"/>
      <path id="DejaVuSerif-46" d="M 353 0 
L 353 331 
L 947 331 
L 947 4331 
L 353 4331 
L 353 4666 
L 4172 4666 
L 4172 3628 
L 3788 3628 
L 3788 4281 
L 1581 4281 
L 1581 2719 
L 3175 2719 
L 3175 3303 
L 3559 3303 
L 3559 1753 
L 3175 1753 
L 3175 2338 
L 1581 2338 
L 1581 331 
L 2328 331 
L 2328 0 
L 353 0 
z
" transform="scale(0.015625)"/>
      <path id="Cmr10-35" d="M 556 728 
Q 622 541 758 387 
Q 894 234 1080 148 
Q 1266 63 1466 63 
Q 1928 63 2103 422 
Q 2278 781 2278 1294 
Q 2278 1516 2270 1667 
Q 2263 1819 2228 1959 
Q 2169 2184 2020 2353 
Q 1872 2522 1656 2522 
Q 1441 2522 1286 2456 
Q 1131 2391 1034 2303 
Q 938 2216 863 2119 
Q 788 2022 769 2016 
L 697 2016 
Q 681 2016 657 2036 
Q 634 2056 634 2075 
L 634 4213 
Q 634 4228 654 4245 
Q 675 4263 697 4263 
L 716 4263 
Q 1147 4056 1631 4056 
Q 2106 4056 2547 4263 
L 2566 4263 
Q 2588 4263 2606 4247 
Q 2625 4231 2625 4213 
L 2625 4153 
Q 2625 4122 2613 4122 
Q 2394 3831 2064 3668 
Q 1734 3506 1381 3506 
Q 1125 3506 856 3578 
L 856 2369 
Q 1069 2541 1236 2614 
Q 1403 2688 1663 2688 
Q 2016 2688 2295 2484 
Q 2575 2281 2725 1954 
Q 2875 1628 2875 1288 
Q 2875 903 2686 575 
Q 2497 247 2172 53 
Q 1847 -141 1466 -141 
Q 1150 -141 886 21 
Q 622 184 470 459 
Q 319 734 319 1044 
Q 319 1188 412 1278 
Q 506 1369 647 1369 
Q 788 1369 883 1276 
Q 978 1184 978 1044 
Q 978 906 883 811 
Q 788 716 647 716 
Q 625 716 597 720 
Q 569 725 556 728 
z
" transform="scale(0.015625)"/>
      <path id="Cmr10-3d" d="M 481 850 
Q 428 850 393 890 
Q 359 931 359 978 
Q 359 1031 393 1068 
Q 428 1106 481 1106 
L 4500 1106 
Q 4547 1106 4581 1068 
Q 4616 1031 4616 978 
Q 4616 931 4581 890 
Q 4547 850 4500 850 
L 481 850 
z
M 481 2094 
Q 428 2094 393 2131 
Q 359 2169 359 2222 
Q 359 2269 393 2309 
Q 428 2350 481 2350 
L 4500 2350 
Q 4547 2350 4581 2309 
Q 4616 2269 4616 2222 
Q 4616 2169 4581 2131 
Q 4547 2094 4500 2094 
L 481 2094 
z
" transform="scale(0.015625)"/>
      <path id="Cmr10-32" d="M 319 0 
L 319 172 
Q 319 188 331 206 
L 1325 1306 
Q 1550 1550 1690 1715 
Q 1831 1881 1968 2097 
Q 2106 2313 2186 2536 
Q 2266 2759 2266 3009 
Q 2266 3272 2169 3511 
Q 2072 3750 1880 3894 
Q 1688 4038 1416 4038 
Q 1138 4038 916 3870 
Q 694 3703 603 3438 
Q 628 3444 672 3444 
Q 816 3444 917 3347 
Q 1019 3250 1019 3097 
Q 1019 2950 917 2848 
Q 816 2747 672 2747 
Q 522 2747 420 2851 
Q 319 2956 319 3097 
Q 319 3338 409 3548 
Q 500 3759 670 3923 
Q 841 4088 1055 4175 
Q 1269 4263 1509 4263 
Q 1875 4263 2190 4108 
Q 2506 3953 2690 3670 
Q 2875 3388 2875 3009 
Q 2875 2731 2753 2481 
Q 2631 2231 2440 2026 
Q 2250 1822 1953 1562 
Q 1656 1303 1563 1216 
L 838 519 
L 1453 519 
Q 1906 519 2211 526 
Q 2516 534 2534 550 
Q 2609 631 2688 1141 
L 2875 1141 
L 2694 0 
L 319 0 
z
" transform="scale(0.015625)"/>
     </defs>
     <use xlink:href="#DejaVuSerif-4c" transform="translate(0 0.015625)"/>
     <use xlink:href="#DejaVuSerif-65" transform="translate(66.40625 0.015625)"/>
     <use xlink:href="#DejaVuSerif-74" transform="translate(125.585938 0.015625)"/>
     <use xlink:href="#DejaVuSerif-20" transform="translate(165.771484 0.015625)"/>
     <use xlink:href="#Cmmi10-6e" transform="translate(197.558594 0.015625)"/>
     <use xlink:href="#DejaVuSerif-20" transform="translate(257.568359 0.015625)"/>
     <use xlink:href="#DejaVuSerif-62" transform="translate(289.355469 0.015625)"/>
     <use xlink:href="#DejaVuSerif-65" transform="translate(353.369141 0.015625)"/>
     <use xlink:href="#DejaVuSerif-20" transform="translate(412.548828 0.015625)"/>
     <use xlink:href="#DejaVuSerif-61" transform="translate(444.335938 0.015625)"/>
     <use xlink:href="#DejaVuSerif-20" transform="translate(503.955078 0.015625)"/>
     <use xlink:href="#DejaVuSerif-70" transform="translate(535.742188 0.015625)"/>
     <use xlink:href="#DejaVuSerif-6f" transform="translate(599.755859 0.015625)"/>
     <use xlink:href="#DejaVuSerif-73" transform="translate(659.960938 0.015625)"/>
     <use xlink:href="#DejaVuSerif-69" transform="translate(711.279297 0.015625)"/>
     <use xlink:href="#DejaVuSerif-74" transform="translate(743.261719 0.015625)"/>
     <use xlink:href="#DejaVuSerif-69" transform="translate(783.447266 0.015625)"/>
     <use xlink:href="#DejaVuSerif-76" transform="translate(815.429688 0.015625)"/>
     <use xlink:href="#DejaVuSerif-65" transform="translate(871.923828 0.015625)"/>
     <use xlink:href="#DejaVuSerif-20" transform="translate(931.103516 0.015625)"/>
     <use xlink:href="#DejaVuSerif-69" transform="translate(962.890625 0.015625)"/>
     <use xlink:href="#DejaVuSerif-6e" transform="translate(994.873047 0.015625)"/>
     <use xlink:href="#DejaVuSerif-74" transform="translate(1059.277344 0.015625)"/>
     <use xlink:href="#DejaVuSerif-65" transform="translate(1099.462891 0.015625)"/>
     <use xlink:href="#DejaVuSerif-67" transform="translate(1158.642578 0.015625)"/>
     <use xlink:href="#DejaVuSerif-65" transform="translate(1222.65625 0.015625)"/>
     <use xlink:href="#DejaVuSerif-72" transform="translate(1281.835938 0.015625)"/>
     <use xlink:href="#DejaVuSerif-2c" transform="translate(1329.638672 0.015625)"/>
     <use xlink:href="#DejaVuSerif-20" transform="translate(1361.425781 0.015625)"/>
     <use xlink:href="#DejaVuSerif-61" transform="translate(1393.212891 0.015625)"/>
     <use xlink:href="#DejaVuSerif-6e" transform="translate(1452.832031 0.015625)"/>
     <use xlink:href="#DejaVuSerif-64" transform="translate(1517.236328 0.015625)"/>
     <use xlink:href="#DejaVuSerif-20" transform="translate(1581.25 0.015625)"/>
     <use xlink:href="#DejaVuSerif-6c" transform="translate(1613.037109 0.015625)"/>
     <use xlink:href="#DejaVuSerif-65" transform="translate(1645.019531 0.015625)"/>
     <use xlink:href="#DejaVuSerif-74" transform="translate(1704.199219 0.015625)"/>
     <use xlink:href="#DejaVuSerif-20" transform="translate(1744.384766 0.015625)"/>
     <use xlink:href="#Cmmi10-66" transform="translate(1776.171875 0.015625)"/>
     <use xlink:href="#Cmr10-28" transform="translate(1825.048828 0.015625)"/>
     <use xlink:href="#Cmmi10-6e" transform="translate(1863.867188 0.015625)"/>
     <use xlink:href="#Cmr10-29" transform="translate(1923.876953 0.015625)"/>
     <use xlink:href="#DejaVuSerif-20" transform="translate(1962.695312 0.015625)"/>
     <use xlink:href="#DejaVuSerif-64" transform="translate(1994.482422 0.015625)"/>
     <use xlink:href="#DejaVuSerif-65" transform="translate(2058.496094 0.015625)"/>
     <use xlink:href="#DejaVuSerif-6e" transform="translate(2117.675781 0.015625)"/>
     <use xlink:href="#DejaVuSerif-6f" transform="translate(2182.080078 0.015625)"/>
     <use xlink:href="#DejaVuSerif-74" transform="translate(2242.285156 0.015625)"/>
     <use xlink:href="#DejaVuSerif-65" transform="translate(2282.470703 0.015625)"/>
     <use xlink:href="#DejaVuSerif-20" transform="translate(2341.650391 0.015625)"/>
     <use xlink:href="#DejaVuSerif-74" transform="translate(2373.4375 0.015625)"/>
     <use xlink:href="#DejaVuSerif-68" transform="translate(2413.623047 0.015625)"/>
     <use xlink:href="#DejaVuSerif-65" transform="translate(2478.027344 0.015625)"/>
     <use xlink:href="#DejaVuSerif-20" transform="translate(2537.207031 0.015625)"/>
     <use xlink:href="#DejaVuSerif-6c" transform="translate(2568.994141 0.015625)"/>
     <use xlink:href="#DejaVuSerif-61" transform="translate(2600.976562 0.015625)"/>
     <use xlink:href="#DejaVuSerif-73" transform="translate(2660.595703 0.015625)"/>
     <use xlink:href="#DejaVuSerif-74" transform="translate(2711.914062 0.015625)"/>
     <use xlink:href="#DejaVuSerif-20" transform="translate(2752.099609 0.015625)"/>
     <use xlink:href="#DejaVuSerif-6e" transform="translate(2783.886719 0.015625)"/>
     <use xlink:href="#DejaVuSerif-6f" transform="translate(2848.291016 0.015625)"/>
     <use xlink:href="#DejaVuSerif-6e" transform="translate(2908.496094 0.015625)"/>
     <use xlink:href="#DejaVuSerif-7a" transform="translate(2972.900391 0.015625)"/>
     <use xlink:href="#DejaVuSerif-65" transform="translate(3025.585938 0.015625)"/>
     <use xlink:href="#DejaVuSerif-72" transform="translate(3084.765625 0.015625)"/>
     <use xlink:href="#DejaVuSerif-6f" transform="translate(3132.568359 0.015625)"/>
     <use xlink:href="#DejaVuSerif-20" transform="translate(3192.773438 0.015625)"/>
     <use xlink:href="#DejaVuSerif-64" transform="translate(3224.560547 0.015625)"/>
     <use xlink:href="#DejaVuSerif-69" transform="translate(3288.574219 0.015625)"/>
     <use xlink:href="#DejaVuSerif-67" transform="translate(3320.556641 0.015625)"/>
     <use xlink:href="#DejaVuSerif-69" transform="translate(3384.570312 0.015625)"/>
     <use xlink:href="#DejaVuSerif-74" transform="translate(3416.552734 0.015625)"/>
     <use xlink:href="#DejaVuSerif-20" transform="translate(3456.738281 0.015625)"/>
     <use xlink:href="#DejaVuSerif-69" transform="translate(3488.525391 0.015625)"/>
     <use xlink:href="#DejaVuSerif-6e" transform="translate(3520.507812 0.015625)"/>
     <use xlink:href="#DejaVuSerif-20" transform="translate(3584.912109 0.015625)"/>
     <use xlink:href="#DejaVuSerif-74" transform="translate(3616.699219 0.015625)"/>
     <use xlink:href="#DejaVuSerif-68" transform="translate(3656.884766 0.015625)"/>
     <use xlink:href="#DejaVuSerif-65" transform="translate(3721.289062 0.015625)"/>
     <use xlink:href="#DejaVuSerif-20" transform="translate(3780.46875 0.015625)"/>
     <use xlink:href="#DejaVuSerif-64" transform="translate(3812.255859 0.015625)"/>
     <use xlink:href="#DejaVuSerif-65" transform="translate(3876.269531 0.015625)"/>
     <use xlink:href="#DejaVuSerif-63" transform="translate(3935.449219 0.015625)"/>
     <use xlink:href="#DejaVuSerif-69" transform="translate(3991.455078 0.015625)"/>
     <use xlink:href="#DejaVuSerif-6d" transform="translate(4023.4375 0.015625)"/>
     <use xlink:href="#DejaVuSerif-61" transform="translate(4118.261719 0.015625)"/>
     <use xlink:href="#DejaVuSerif-6c" transform="translate(4177.880859 0.015625)"/>
     <use xlink:href="#DejaVuSerif-20" transform="translate(4209.863281 0.015625)"/>
     <use xlink:href="#DejaVuSerif-65" transform="translate(4241.650391 0.015625)"/>
     <use xlink:href="#DejaVuSerif-78" transform="translate(4300.830078 0.015625)"/>
     <use xlink:href="#DejaVuSerif-70" transform="translate(4357.226562 0.015625)"/>
     <use xlink:href="#DejaVuSerif-61" transform="translate(4421.240234 0.015625)"/>
     <use xlink:href="#DejaVuSerif-6e" transform="translate(4480.859375 0.015625)"/>
     <use xlink:href="#DejaVuSerif-73" transform="translate(4545.263672 0.015625)"/>
     <use xlink:href="#DejaVuSerif-69" transform="translate(4596.582031 0.015625)"/>
     <use xlink:href="#DejaVuSerif-6f" transform="translate(4628.564453 0.015625)"/>
     <use xlink:href="#DejaVuSerif-6e" transform="translate(4688.769531 0.015625)"/>
     <use xlink:href="#DejaVuSerif-20" transform="translate(4753.173828 0.015625)"/>
     <use xlink:href="#DejaVuSerif-6f" transform="translate(4784.960938 0.015625)"/>
     <use xlink:href="#DejaVuSerif-66" transform="translate(4845.166016 0.015625)"/>
     <use xlink:href="#DejaVuSerif-20" transform="translate(4882.177734 0.015625)"/>
     <use xlink:href="#Cmmi10-6e" transform="translate(4913.964844 0.015625)"/>
     <use xlink:href="#Cmr10-21" transform="translate(4973.974609 0.015625)"/>
     <use xlink:href="#DejaVuSerif-2e" transform="translate(5019.21875 0.015625)"/>
     <use xlink:href="#DejaVuSerif-20" transform="translate(5051.005859 0.015625)"/>
     <use xlink:href="#DejaVuSerif-46" transform="translate(5082.792969 0.015625)"/>
     <use xlink:href="#DejaVuSerif-6f" transform="translate(5152.177734 0.015625)"/>
     <use xlink:href="#DejaVuSerif-72" transform="translate(5212.382812 0.015625)"/>
     <use xlink:href="#DejaVuSerif-20" transform="translate(5260.185547 0.015625)"/>
     <use xlink:href="#DejaVuSerif-69" transform="translate(5291.972656 0.015625)"/>
     <use xlink:href="#DejaVuSerif-6e" transform="translate(5323.955078 0.015625)"/>
     <use xlink:href="#DejaVuSerif-73" transform="translate(5388.359375 0.015625)"/>
     <use xlink:href="#DejaVuSerif-74" transform="translate(5439.677734 0.015625)"/>
     <use xlink:href="#DejaVuSerif-61" transform="translate(5479.863281 0.015625)"/>
     <use xlink:href="#DejaVuSerif-6e" transform="translate(5539.482422 0.015625)"/>
     <use xlink:href="#DejaVuSerif-63" transform="translate(5603.886719 0.015625)"/>
     <use xlink:href="#DejaVuSerif-65" transform="translate(5659.892578 0.015625)"/>
     <use xlink:href="#DejaVuSerif-2c" transform="translate(5719.072266 0.015625)"/>
     <use xlink:href="#DejaVuSerif-20" transform="translate(5750.859375 0.015625)"/>
     <use xlink:href="#Cmmi10-66" transform="translate(5782.646484 0.015625)"/>
     <use xlink:href="#Cmr10-28" transform="translate(5831.523438 0.015625)"/>
     <use xlink:href="#Cmr10-35" transform="translate(5870.341797 0.015625)"/>
     <use xlink:href="#Cmr10-29" transform="translate(5920.341797 0.015625)"/>
     <use xlink:href="#Cmr10-3d" transform="translate(5976.71875 0.015625)"/>
     <use xlink:href="#Cmr10-32" transform="translate(6071.962891 0.015625)"/>
     <use xlink:href="#DejaVuSerif-2e" transform="translate(6121.962891 0.015625)"/>
    </g>
    <!-- \begin{enumerate} -->
    <g transform="translate(549.878438 79.895063) scale(0.12 -0.12)">
     <defs>
      <path id="DejaVuSerif-5c" d="M 500 4666 
L 2156 -594 
L 1656 -594 
L 0 4666 
L 500 4666 
z
" transform="scale(0.015625)"/>
      <path id="DejaVuSerif-7b" d="M 3272 -716 
L 3272 -1044 
L 3078 -1044 
Q 2300 -1044 2036 -812 
Q 1772 -581 1772 109 
L 1772 916 
Q 1772 1384 1603 1565 
Q 1434 1747 991 1747 
L 800 1747 
L 800 2075 
L 991 2075 
Q 1434 2075 1603 2256 
Q 1772 2438 1772 2906 
L 1772 3713 
Q 1772 4403 2036 4633 
Q 2300 4863 3078 4863 
L 3272 4863 
L 3272 4538 
L 3059 4538 
Q 2619 4538 2484 4400 
Q 2350 4263 2350 3822 
L 2350 2925 
Q 2350 2431 2194 2218 
Q 2038 2006 1631 1913 
Q 2044 1806 2197 1597 
Q 2350 1388 2350 897 
L 2350 0 
Q 2350 -441 2484 -578 
Q 2619 -716 3059 -716 
L 3272 -716 
z
" transform="scale(0.015625)"/>
      <path id="DejaVuSerif-75" d="M 2266 3322 
L 3341 3322 
L 3341 331 
L 3884 331 
L 3884 0 
L 2766 0 
L 2766 588 
Q 2606 256 2353 82 
Q 2100 -91 1766 -91 
Q 1213 -91 952 223 
Q 691 538 691 1209 
L 691 2988 
L 172 2988 
L 172 3322 
L 1269 3322 
L 1269 1388 
Q 1269 781 1417 556 
Q 1566 331 1947 331 
Q 2347 331 2556 625 
Q 2766 919 2766 1478 
L 2766 2988 
L 2266 2988 
L 2266 3322 
z
" transform="scale(0.015625)"/>
      <path id="DejaVuSerif-7d" d="M 800 -716 
L 1019 -716 
Q 1456 -716 1589 -580 
Q 1722 -444 1722 0 
L 1722 897 
Q 1722 1388 1875 1597 
Q 2028 1806 2438 1913 
Q 2031 2006 1876 2218 
Q 1722 2431 1722 2925 
L 1722 3822 
Q 1722 4266 1589 4402 
Q 1456 4538 1019 4538 
L 800 4538 
L 800 4863 
L 997 4863 
Q 1775 4863 2036 4633 
Q 2297 4403 2297 3713 
L 2297 2906 
Q 2297 2438 2465 2256 
Q 2634 2075 3078 2075 
L 3272 2075 
L 3272 1747 
L 3078 1747 
Q 2634 1747 2465 1565 
Q 2297 1384 2297 916 
L 2297 109 
Q 2297 -581 2036 -812 
Q 1775 -1044 997 -1044 
L 800 -1044 
L 800 -716 
z
" transform="scale(0.015625)"/>
     </defs>
     <use xlink:href="#DejaVuSerif-5c"/>
     <use xlink:href="#DejaVuSerif-62" transform="translate(33.691406 0)"/>
     <use xlink:href="#DejaVuSerif-65" transform="translate(97.705078 0)"/>
     <use xlink:href="#DejaVuSerif-67" transform="translate(156.884766 0)"/>
     <use xlink:href="#DejaVuSerif-69" transform="translate(220.898438 0)"/>
     <use xlink:href="#DejaVuSerif-6e" transform="translate(252.880859 0)"/>
     <use xlink:href="#DejaVuSerif-7b" transform="translate(317.285156 0)"/>
     <use xlink:href="#DejaVuSerif-65" transform="translate(380.908203 0)"/>
     <use xlink:href="#DejaVuSerif-6e" transform="translate(440.087891 0)"/>
     <use xlink:href="#DejaVuSerif-75" transform="translate(504.492188 0)"/>
     <use xlink:href="#DejaVuSerif-6d" transform="translate(568.896484 0)"/>
     <use xlink:href="#DejaVuSerif-65" transform="translate(663.720703 0)"/>
     <use xlink:href="#DejaVuSerif-72" transform="translate(722.900391 0)"/>
     <use xlink:href="#DejaVuSerif-61" transform="translate(770.703125 0)"/>
     <use xlink:href="#DejaVuSerif-74" transform="translate(830.322266 0)"/>
     <use xlink:href="#DejaVuSerif-65" transform="translate(870.507812 0)"/>
     <use xlink:href="#DejaVuSerif-7d" transform="translate(929.6875 0)"/>
    </g>
    <!-- \item[(a)] Show that if $a_1,a_2,\dots,a_k$ are \emph{distinct} nonnegative integers, then $f(5^{a_1}+5^{a_2}+\dots+5^{a_k})$ depends only on the sum $a_1+a_2+\dots+a_k$. -->
    <g transform="translate(171.96 93.505313) scale(0.12 -0.12)">
     <defs>
      <path id="DejaVuSerif-5b" d="M 550 4863 
L 2003 4863 
L 2003 4531 
L 1147 4531 
L 1147 -513 
L 2003 -513 
L 2003 -844 
L 550 -844 
L 550 4863 
z
" transform="scale(0.015625)"/>
      <path id="DejaVuSerif-28" d="M 2041 -997 
Q 1281 -656 893 83 
Q 506 822 506 1931 
Q 506 3044 893 3783 
Q 1281 4522 2041 4863 
L 2041 4556 
Q 1559 4225 1350 3623 
Q 1141 3022 1141 1931 
Q 1141 844 1350 242 
Q 1559 -359 2041 -691 
L 2041 -997 
z
" transform="scale(0.015625)"/>
      <path id="DejaVuSerif-29" d="M 453 -997 
L 453 -691 
Q 934 -359 1145 242 
Q 1356 844 1356 1931 
Q 1356 3022 1145 3623 
Q 934 4225 453 4556 
L 453 4863 
Q 1216 4522 1603 3783 
Q 1991 3044 1991 1931 
Q 1991 822 1603 83 
Q 1216 -656 453 -997 
z
" transform="scale(0.015625)"/>
      <path id="DejaVuSerif-5d" d="M 1947 4863 
L 1947 -844 
L 494 -844 
L 494 -513 
L 1350 -513 
L 1350 4531 
L 494 4531 
L 494 4863 
L 1947 4863 
z
" transform="scale(0.015625)"/>
      <path id="DejaVuSerif-53" d="M 594 225 
L 594 1288 
L 953 1284 
Q 969 753 1261 498 
Q 1553 244 2150 244 
Q 2706 244 2998 464 
Q 3291 684 3291 1106 
Q 3291 1444 3114 1625 
Q 2938 1806 2369 1978 
L 1753 2163 
Q 1084 2366 811 2669 
Q 538 2972 538 3500 
Q 538 4094 959 4422 
Q 1381 4750 2144 4750 
Q 2469 4750 2856 4679 
Q 3244 4609 3681 4475 
L 3681 3481 
L 3328 3481 
Q 3275 3975 2998 4195 
Q 2722 4416 2156 4416 
Q 1663 4416 1405 4214 
Q 1147 4013 1147 3628 
Q 1147 3294 1340 3103 
Q 1534 2913 2163 2725 
L 2741 2553 
Q 3375 2363 3645 2067 
Q 3916 1772 3916 1275 
Q 3916 597 3481 253 
Q 3047 -91 2188 -91 
Q 1803 -91 1404 -12 
Q 1006 66 594 225 
z
" transform="scale(0.015625)"/>
      <path id="DejaVuSerif-77" d="M 3072 3322 
L 3922 728 
L 4672 2988 
L 4191 2988 
L 4191 3322 
L 5394 3322 
L 5394 2988 
L 5025 2988 
L 4038 0 
L 3559 0 
L 2741 2484 
L 1919 0 
L 1459 0 
L 475 2988 
L 103 2988 
L 103 3322 
L 1606 3322 
L 1606 2988 
L 1069 2988 
L 1813 728 
L 2669 3322 
L 3072 3322 
z
" transform="scale(0.015625)"/>
      <path id="Cmmi10-61" d="M 1113 -72 
Q 709 -72 476 233 
Q 244 538 244 953 
Q 244 1363 456 1803 
Q 669 2244 1030 2536 
Q 1391 2828 1806 2828 
Q 1997 2828 2147 2725 
Q 2297 2622 2381 2444 
Q 2453 2700 2663 2700 
Q 2744 2700 2798 2651 
Q 2853 2603 2853 2522 
Q 2853 2503 2851 2493 
Q 2850 2484 2847 2472 
L 2400 684 
Q 2356 494 2356 372 
Q 2356 97 2541 97 
Q 2741 97 2845 351 
Q 2950 606 3022 941 
Q 3034 978 3072 978 
L 3150 978 
Q 3175 978 3190 956 
Q 3206 934 3206 916 
Q 3094 469 2961 198 
Q 2828 -72 2528 -72 
Q 2313 -72 2147 54 
Q 1981 181 1941 391 
Q 1528 -72 1113 -72 
z
M 1119 97 
Q 1350 97 1567 270 
Q 1784 444 1941 678 
Q 1947 684 1947 697 
L 2291 2088 
L 2297 2106 
Q 2259 2334 2132 2498 
Q 2006 2663 1791 2663 
Q 1575 2663 1389 2486 
Q 1203 2309 1075 2069 
Q 950 1813 836 1366 
Q 722 919 722 672 
Q 722 450 817 273 
Q 913 97 1119 97 
z
" transform="scale(0.015625)"/>
      <path id="Cmr10-31" d="M 594 0 
L 594 225 
Q 1394 225 1394 428 
L 1394 3788 
Q 1063 3628 556 3628 
L 556 3853 
Q 1341 3853 1741 4263 
L 1831 4263 
Q 1853 4263 1873 4245 
Q 1894 4228 1894 4206 
L 1894 428 
Q 1894 225 2694 225 
L 2694 0 
L 594 0 
z
" transform="scale(0.015625)"/>
      <path id="Cmmi10-3b" d="M 634 -1153 
Q 634 -1125 659 -1100 
Q 891 -878 1019 -587 
Q 1147 -297 1147 25 
L 1147 103 
Q 1044 0 891 0 
Q 744 0 641 103 
Q 538 206 538 353 
Q 538 503 641 603 
Q 744 703 891 703 
Q 1119 703 1216 492 
Q 1313 281 1313 25 
Q 1313 -331 1170 -651 
Q 1028 -972 769 -1228 
Q 744 -1241 728 -1241 
Q 697 -1241 665 -1212 
Q 634 -1184 634 -1153 
z
" transform="scale(0.015625)"/>
      <path id="STIXGeneral-Regular-2026" d="M 5683 275 
Q 5683 134 5577 32 
Q 5472 -70 5325 -70 
Q 5178 -70 5075 32 
Q 4973 134 4973 281 
Q 4973 429 5078 534 
Q 5184 640 5331 640 
Q 5472 640 5577 531 
Q 5683 422 5683 275 
z
M 3552 275 
Q 3552 134 3446 32 
Q 3341 -70 3193 -70 
Q 3046 -70 2944 32 
Q 2842 134 2842 281 
Q 2842 429 2947 534 
Q 3053 640 3200 640 
Q 3341 640 3446 531 
Q 3552 422 3552 275 
z
M 1421 275 
Q 1421 134 1315 32 
Q 1210 -70 1062 -70 
Q 915 -70 812 32 
Q 710 134 710 281 
Q 710 429 816 534 
Q 922 640 1069 640 
Q 1210 640 1315 531 
Q 1421 422 1421 275 
z
" transform="scale(0.015625)"/>
      <path id="Cmmi10-6b" d="M 341 116 
Q 341 153 347 172 
L 1275 3872 
Q 1300 3981 1306 4044 
Q 1306 4147 891 4147 
Q 825 4147 825 4231 
Q 828 4247 839 4287 
Q 850 4328 867 4350 
Q 884 4372 916 4372 
L 1778 4441 
L 1797 4441 
Q 1797 4434 1819 4423 
Q 1841 4413 1844 4409 
Q 1856 4378 1856 4359 
L 1184 1684 
Q 1416 1781 1767 2145 
Q 2119 2509 2317 2668 
Q 2516 2828 2816 2828 
Q 2994 2828 3119 2706 
Q 3244 2584 3244 2406 
Q 3244 2294 3197 2198 
Q 3150 2103 3065 2043 
Q 2981 1984 2869 1984 
Q 2766 1984 2695 2048 
Q 2625 2113 2625 2216 
Q 2625 2369 2733 2473 
Q 2841 2578 2994 2578 
Q 2931 2663 2803 2663 
Q 2613 2663 2436 2553 
Q 2259 2444 2054 2239 
Q 1850 2034 1681 1864 
Q 1513 1694 1369 1606 
Q 1747 1563 2025 1408 
Q 2303 1253 2303 934 
Q 2303 869 2278 769 
Q 2222 528 2222 384 
Q 2222 97 2419 97 
Q 2650 97 2770 350 
Q 2891 603 2969 941 
Q 2981 978 3022 978 
L 3097 978 
Q 3122 978 3139 962 
Q 3156 947 3156 922 
Q 3156 916 3150 903 
Q 2909 -72 2406 -72 
Q 2225 -72 2086 12 
Q 1947 97 1872 242 
Q 1797 388 1797 569 
Q 1797 672 1825 781 
Q 1844 856 1844 922 
Q 1844 1169 1625 1297 
Q 1406 1425 1125 1453 
L 800 147 
Q 775 50 703 -11 
Q 631 -72 538 -72 
Q 456 -72 398 -17 
Q 341 38 341 116 
z
" transform="scale(0.015625)"/>
      <path id="Cmr10-2b" d="M 481 1472 
Q 428 1472 393 1512 
Q 359 1553 359 1600 
Q 359 1647 393 1687 
Q 428 1728 481 1728 
L 2363 1728 
L 2363 3616 
Q 2363 3666 2400 3698 
Q 2438 3731 2491 3731 
Q 2538 3731 2578 3698 
Q 2619 3666 2619 3616 
L 2619 1728 
L 4500 1728 
Q 4547 1728 4581 1687 
Q 4616 1647 4616 1600 
Q 4616 1553 4581 1512 
Q 4547 1472 4500 1472 
L 2619 1472 
L 2619 -416 
Q 2619 -466 2578 -498 
Q 2538 -531 2491 -531 
Q 2438 -531 2400 -498 
Q 2363 -466 2363 -416 
L 2363 1472 
L 481 1472 
z
" transform="scale(0.015625)"/>
      <path id="DejaVuSerif-79" d="M 1381 -609 
L 1600 -56 
L 359 2988 
L -19 2988 
L -19 3322 
L 1509 3322 
L 1509 2988 
L 978 2988 
L 1913 703 
L 2847 2988 
L 2350 2988 
L 2350 3322 
L 3597 3322 
L 3597 2988 
L 3225 2988 
L 1703 -750 
Q 1547 -1138 1356 -1280 
Q 1166 -1422 819 -1422 
Q 672 -1422 517 -1397 
Q 363 -1372 206 -1325 
L 206 -691 
L 500 -691 
Q 519 -903 608 -995 
Q 697 -1088 884 -1088 
Q 1056 -1088 1161 -992 
Q 1266 -897 1381 -609 
z
" transform="scale(0.015625)"/>
     </defs>
     <use xlink:href="#DejaVuSerif-5c" transform="translate(0 0.015625)"/>
     <use xlink:href="#DejaVuSerif-69" transform="translate(33.691406 0.015625)"/>
     <use xlink:href="#DejaVuSerif-74" transform="translate(65.673828 0.015625)"/>
     <use xlink:href="#DejaVuSerif-65" transform="translate(105.859375 0.015625)"/>
     <use xlink:href="#DejaVuSerif-6d" transform="translate(165.039062 0.015625)"/>
     <use xlink:href="#DejaVuSerif-5b" transform="translate(259.863281 0.015625)"/>
     <use xlink:href="#DejaVuSerif-28" transform="translate(298.876953 0.015625)"/>
     <use xlink:href="#DejaVuSerif-61" transform="translate(337.890625 0.015625)"/>
     <use xlink:href="#DejaVuSerif-29" transform="translate(397.509766 0.015625)"/>
     <use xlink:href="#DejaVuSerif-5d" transform="translate(436.523438 0.015625)"/>
     <use xlink:href="#DejaVuSerif-20" transform="translate(475.537109 0.015625)"/>
     <use xlink:href="#DejaVuSerif-53" transform="translate(507.324219 0.015625)"/>
     <use xlink:href="#DejaVuSerif-68" transform="translate(575.830078 0.015625)"/>
     <use xlink:href="#DejaVuSerif-6f" transform="translate(640.234375 0.015625)"/>
     <use xlink:href="#DejaVuSerif-77" transform="translate(700.439453 0.015625)"/>
     <use xlink:href="#DejaVuSerif-20" transform="translate(786.035156 0.015625)"/>
     <use xlink:href="#DejaVuSerif-74" transform="translate(817.822266 0.015625)"/>
     <use xlink:href="#DejaVuSerif-68" transform="translate(858.007812 0.015625)"/>
     <use xlink:href="#DejaVuSerif-61" transform="translate(922.412109 0.015625)"/>
     <use xlink:href="#DejaVuSerif-74" transform="translate(982.03125 0.015625)"/>
     <use xlink:href="#DejaVuSerif-20" transform="translate(1022.216797 0.015625)"/>
     <use xlink:href="#DejaVuSerif-69" transform="translate(1054.003906 0.015625)"/>
     <use xlink:href="#DejaVuSerif-66" transform="translate(1085.986328 0.015625)"/>
     <use xlink:href="#DejaVuSerif-20" transform="translate(1122.998047 0.015625)"/>
     <use xlink:href="#Cmmi10-61" transform="translate(1154.785156 0.015625)"/>
     <use xlink:href="#Cmr10-31" transform="translate(1207.568359 -16.990625) scale(0.7)"/>
     <use xlink:href="#Cmmi10-3b" transform="translate(1248.945703 0.015625)"/>
     <use xlink:href="#Cmmi10-61" transform="translate(1294.189844 0.015625)"/>
     <use xlink:href="#Cmr10-32" transform="translate(1346.973047 -16.990625) scale(0.7)"/>
     <use xlink:href="#Cmmi10-3b" transform="translate(1388.350391 0.015625)"/>
     <use xlink:href="#STIXGeneral-Regular-2026" transform="translate(1451.153125 0.015625)"/>
     <use xlink:href="#Cmmi10-3b" transform="translate(1568.711703 0.015625)"/>
     <use xlink:href="#Cmmi10-61" transform="translate(1613.955844 0.015625)"/>
     <use xlink:href="#Cmmi10-6b" transform="translate(1666.739047 -16.990625) scale(0.7)"/>
     <use xlink:href="#DejaVuSerif-20" transform="translate(1709.517758 0.015625)"/>
     <use xlink:href="#DejaVuSerif-61" transform="translate(1741.304868 0.015625)"/>
     <use xlink:href="#DejaVuSerif-72" transform="translate(1800.924008 0.015625)"/>
     <use xlink:href="#DejaVuSerif-65" transform="translate(1848.726743 0.015625)"/>
     <use xlink:href="#DejaVuSerif-20" transform="translate(1907.90643 0.015625)"/>
     <use xlink:href="#DejaVuSerif-5c" transform="translate(1939.693539 0.015625)"/>
     <use xlink:href="#DejaVuSerif-65" transform="translate(1973.384946 0.015625)"/>
     <use xlink:href="#DejaVuSerif-6d" transform="translate(2032.564633 0.015625)"/>
     <use xlink:href="#DejaVuSerif-70" transform="translate(2127.388852 0.015625)"/>
     <use xlink:href="#DejaVuSerif-68" transform="translate(2191.402524 0.015625)"/>
     <use xlink:href="#DejaVuSerif-7b" transform="translate(2255.806821 0.015625)"/>
     <use xlink:href="#DejaVuSerif-64" transform="translate(2319.429868 0.015625)"/>
     <use xlink:href="#DejaVuSerif-69" transform="translate(2383.443539 0.015625)"/>
     <use xlink:href="#DejaVuSerif-73" transform="translate(2415.425961 0.015625)"/>
     <use xlink:href="#DejaVuSerif-74" transform="translate(2466.744321 0.015625)"/>
     <use xlink:href="#DejaVuSerif-69" transform="translate(2506.929868 0.015625)"/>
     <use xlink:href="#DejaVuSerif-6e" transform="translate(2538.912289 0.015625)"/>
     <use xlink:href="#DejaVuSerif-63" transform="translate(2603.316586 0.015625)"/>
     <use xlink:href="#DejaVuSerif-74" transform="translate(2659.322446 0.015625)"/>
     <use xlink:href="#DejaVuSerif-7d" transform="translate(2699.507993 0.015625)"/>
     <use xlink:href="#DejaVuSerif-20" transform="translate(2763.131039 0.015625)"/>
     <use xlink:href="#DejaVuSerif-6e" transform="translate(2794.918149 0.015625)"/>
     <use xlink:href="#DejaVuSerif-6f" transform="translate(2859.322446 0.015625)"/>
     <use xlink:href="#DejaVuSerif-6e" transform="translate(2919.527524 0.015625)"/>
     <use xlink:href="#DejaVuSerif-6e" transform="translate(2983.931821 0.015625)"/>
     <use xlink:href="#DejaVuSerif-65" transform="translate(3048.336118 0.015625)"/>
     <use xlink:href="#DejaVuSerif-67" transform="translate(3107.515805 0.015625)"/>
     <use xlink:href="#DejaVuSerif-61" transform="translate(3171.529477 0.015625)"/>
     <use xlink:href="#DejaVuSerif-74" transform="translate(3231.148618 0.015625)"/>
     <use xlink:href="#DejaVuSerif-69" transform="translate(3271.334164 0.015625)"/>
     <use xlink:href="#DejaVuSerif-76" transform="translate(3303.316586 0.015625)"/>
     <use xlink:href="#DejaVuSerif-65" transform="translate(3359.810727 0.015625)"/>
     <use xlink:href="#DejaVuSerif-20" transform="translate(3418.990414 0.015625)"/>
     <use xlink:href="#DejaVuSerif-69" transform="translate(3450.777524 0.015625)"/>
     <use xlink:href="#DejaVuSerif-6e" transform="translate(3482.759946 0.015625)"/>
     <use xlink:href="#DejaVuSerif-74" transform="translate(3547.164243 0.015625)"/>
     <use xlink:href="#DejaVuSerif-65" transform="translate(3587.349789 0.015625)"/>
     <use xlink:href="#DejaVuSerif-67" transform="translate(3646.529477 0.015625)"/>
     <use xlink:href="#DejaVuSerif-65" transform="translate(3710.543149 0.015625)"/>
     <use xlink:href="#DejaVuSerif-72" transform="translate(3769.722836 0.015625)"/>
     <use xlink:href="#DejaVuSerif-73" transform="translate(3817.525571 0.015625)"/>
     <use xlink:href="#DejaVuSerif-2c" transform="translate(3868.84393 0.015625)"/>
     <use xlink:href="#DejaVuSerif-20" transform="translate(3900.631039 0.015625)"/>
     <use xlink:href="#DejaVuSerif-74" transform="translate(3932.418149 0.015625)"/>
     <use xlink:href="#DejaVuSerif-68" transform="translate(3972.603696 0.015625)"/>
     <use xlink:href="#DejaVuSerif-65" transform="translate(4037.007993 0.015625)"/>
     <use xlink:href="#DejaVuSerif-6e" transform="translate(4096.18768 0.015625)"/>
     <use xlink:href="#DejaVuSerif-20" transform="translate(4160.591977 0.015625)"/>
     <use xlink:href="#Cmmi10-66" transform="translate(4192.379086 0.015625)"/>
     <use xlink:href="#Cmr10-28" transform="translate(4241.256039 0.015625)"/>
     <use xlink:href="#Cmr10-35" transform="translate(4280.074399 0.015625)"/>
     <use xlink:href="#Cmmi10-61" transform="translate(4334.538539 38.279688) scale(0.7)"/>
     <use xlink:href="#Cmr10-31" transform="translate(4371.486782 26.375312) scale(0.49)"/>
     <use xlink:href="#Cmr10-2b" transform="translate(4424.38686 0.015625)"/>
     <use xlink:href="#Cmr10-35" transform="translate(4519.631 0.015625)"/>
     <use xlink:href="#Cmmi10-61" transform="translate(4574.095141 38.279688) scale(0.7)"/>
     <use xlink:href="#Cmr10-32" transform="translate(4611.043383 26.375312) scale(0.49)"/>
     <use xlink:href="#Cmr10-2b" transform="translate(4663.943461 0.015625)"/>
     <use xlink:href="#STIXGeneral-Regular-2026" transform="translate(4776.746196 0.015625)"/>
     <use xlink:href="#Cmr10-2b" transform="translate(4911.863368 0.015625)"/>
     <use xlink:href="#Cmr10-35" transform="translate(5007.107509 0.015625)"/>
     <use xlink:href="#Cmmi10-61" transform="translate(5061.571649 38.279688) scale(0.7)"/>
     <use xlink:href="#Cmmi10-6b" transform="translate(5098.519891 26.375312) scale(0.49)"/>
     <use xlink:href="#Cmr10-29" transform="translate(5134.842333 0.015625)"/>
     <use xlink:href="#DejaVuSerif-20" transform="translate(5173.660692 0.015625)"/>
     <use xlink:href="#DejaVuSerif-64" transform="translate(5205.447802 0.015625)"/>
     <use xlink:href="#DejaVuSerif-65" transform="translate(5269.461473 0.015625)"/>
     <use xlink:href="#DejaVuSerif-70" transform="translate(5328.641161 0.015625)"/>
     <use xlink:href="#DejaVuSerif-65" transform="translate(5392.654833 0.015625)"/>
     <use xlink:href="#DejaVuSerif-6e" transform="translate(5451.83452 0.015625)"/>
     <use xlink:href="#DejaVuSerif-64" transform="translate(5516.238817 0.015625)"/>
     <use xlink:href="#DejaVuSerif-73" transform="translate(5580.252489 0.015625)"/>
     <use xlink:href="#DejaVuSerif-20" transform="translate(5631.570848 0.015625)"/>
     <use xlink:href="#DejaVuSerif-6f" transform="translate(5663.357958 0.015625)"/>
     <use xlink:href="#DejaVuSerif-6e" transform="translate(5723.563036 0.015625)"/>
     <use xlink:href="#DejaVuSerif-6c" transform="translate(5787.967333 0.015625)"/>
     <use xlink:href="#DejaVuSerif-79" transform="translate(5819.949755 0.015625)"/>
     <use xlink:href="#DejaVuSerif-20" transform="translate(5876.443895 0.015625)"/>
     <use xlink:href="#DejaVuSerif-6f" transform="translate(5908.231005 0.015625)"/>
     <use xlink:href="#DejaVuSerif-6e" transform="translate(5968.436083 0.015625)"/>
     <use xlink:href="#DejaVuSerif-20" transform="translate(6032.84038 0.015625)"/>
     <use xlink:href="#DejaVuSerif-74" transform="translate(6064.627489 0.015625)"/>
     <use xlink:href="#DejaVuSerif-68" transform="translate(6104.813036 0.015625)"/>
     <use xlink:href="#DejaVuSerif-65" transform="translate(6169.217333 0.015625)"/>
     <use xlink:href="#DejaVuSerif-20" transform="translate(6228.39702 0.015625)"/>
     <use xlink:href="#DejaVuSerif-73" transform="translate(6260.18413 0.015625)"/>
     <use xlink:href="#DejaVuSerif-75" transform="translate(6311.502489 0.015625)"/>
     <use xlink:href="#DejaVuSerif-6d" transform="translate(6375.906786 0.015625)"/>
     <use xlink:href="#DejaVuSerif-20" transform="translate(6470.731005 0.015625)"/>
     <use xlink:href="#Cmmi10-61" transform="translate(6502.518114 0.015625)"/>
     <use xlink:href="#Cmr10-31" transform="translate(6555.301317 -16.990625) scale(0.7)"/>
     <use xlink:href="#Cmr10-2b" transform="translate(6614.237255 0.015625)"/>
     <use xlink:href="#Cmmi10-61" transform="translate(6709.481395 0.015625)"/>
     <use xlink:href="#Cmr10-32" transform="translate(6762.264598 -16.990625) scale(0.7)"/>
     <use xlink:href="#Cmr10-2b" transform="translate(6821.200536 0.015625)"/>
     <use xlink:href="#STIXGeneral-Regular-2026" transform="translate(6934.00327 0.015625)"/>
     <use xlink:href="#Cmr10-2b" transform="translate(7069.120443 0.015625)"/>
     <use xlink:href="#Cmmi10-61" transform="translate(7164.364583 0.015625)"/>
     <use xlink:href="#Cmmi10-6b" transform="translate(7217.147786 -16.990625) scale(0.7)"/>
     <use xlink:href="#DejaVuSerif-2e" transform="translate(7259.926497 0.015625)"/>
    </g>
    <!-- \item[(b)] Assuming part (a), we can define $g(s)=f(5^{a_1}+5^{a_2}+\dots+5^{a_k})$, where $s=a_1+a_2+\dots+a_k$. Find the least positive integer $p$ for which $g(s)=g(s + p)$, for all $s \geqq 1$, or else show that no such $p$ exists. -->
    <g transform="translate(7.2 107.449313) scale(0.12 -0.12)">
     <defs>
      <path id="DejaVuSerif-41" d="M 1281 1691 
L 2994 1691 
L 2138 3909 
L 1281 1691 
z
M -38 0 
L -38 331 
L 372 331 
L 2034 4666 
L 2559 4666 
L 4225 331 
L 4684 331 
L 4684 0 
L 2988 0 
L 2988 331 
L 3506 331 
L 3116 1356 
L 1153 1356 
L 763 331 
L 1275 331 
L 1275 0 
L -38 0 
z
" transform="scale(0.015625)"/>
      <path id="Cmmi10-67" d="M 91 -916 
Q 91 -759 198 -642 
Q 306 -525 459 -525 
Q 563 -525 633 -589 
Q 703 -653 703 -756 
Q 703 -872 637 -964 
Q 572 -1056 469 -1094 
Q 641 -1147 1006 -1147 
Q 1300 -1147 1544 -920 
Q 1788 -694 1863 -397 
L 2047 353 
Q 1700 0 1325 0 
Q 1050 0 854 140 
Q 659 281 556 515 
Q 453 750 453 1013 
Q 453 1306 573 1628 
Q 694 1950 911 2225 
Q 1128 2500 1409 2664 
Q 1691 2828 2003 2828 
Q 2191 2828 2341 2725 
Q 2491 2622 2578 2450 
Q 2641 2700 2853 2700 
Q 2934 2700 2990 2651 
Q 3047 2603 3047 2522 
Q 3047 2503 3045 2493 
Q 3044 2484 3041 2472 
L 2309 -434 
Q 2259 -634 2125 -800 
Q 1991 -966 1809 -1077 
Q 1628 -1188 1412 -1250 
Q 1197 -1313 997 -1313 
Q 631 -1313 361 -1242 
Q 91 -1172 91 -916 
z
M 1338 166 
Q 1747 166 2144 728 
L 2497 2125 
Q 2453 2347 2322 2505 
Q 2191 2663 1991 2663 
Q 1778 2663 1589 2489 
Q 1400 2316 1275 2075 
Q 1156 1844 1045 1411 
Q 934 978 934 728 
Q 934 509 1034 337 
Q 1134 166 1338 166 
z
" transform="scale(0.015625)"/>
      <path id="Cmmi10-73" d="M 556 391 
Q 728 97 1247 97 
Q 1472 97 1675 173 
Q 1878 250 2011 403 
Q 2144 556 2144 775 
Q 2144 941 2025 1047 
Q 1906 1153 1734 1191 
L 1388 1259 
Q 1150 1319 997 1481 
Q 844 1644 844 1875 
Q 844 2159 998 2378 
Q 1153 2597 1406 2712 
Q 1659 2828 1931 2828 
Q 2222 2828 2451 2689 
Q 2681 2550 2681 2278 
Q 2681 2131 2598 2018 
Q 2516 1906 2369 1906 
Q 2284 1906 2223 1961 
Q 2163 2016 2163 2100 
Q 2163 2175 2205 2245 
Q 2247 2316 2317 2358 
Q 2388 2400 2463 2400 
Q 2406 2538 2251 2600 
Q 2097 2663 1919 2663 
Q 1756 2663 1593 2597 
Q 1431 2531 1332 2404 
Q 1234 2278 1234 2106 
Q 1234 1991 1315 1903 
Q 1397 1816 1516 1778 
L 1888 1703 
Q 2066 1666 2214 1570 
Q 2363 1475 2448 1329 
Q 2534 1184 2534 997 
Q 2534 759 2401 528 
Q 2269 297 2075 159 
Q 1734 -72 1241 -72 
Q 900 -72 615 84 
Q 331 241 331 550 
Q 331 725 432 854 
Q 534 984 709 984 
Q 813 984 883 921 
Q 953 859 953 756 
Q 953 609 843 500 
Q 734 391 588 391 
L 556 391 
z
" transform="scale(0.015625)"/>
      <path id="Cmmi10-70" d="M -159 -1241 
Q -219 -1241 -219 -1159 
Q -197 -1019 -134 -1019 
Q 66 -1019 145 -983 
Q 225 -947 269 -800 
L 991 2081 
Q 1038 2200 1038 2388 
Q 1038 2663 850 2663 
Q 650 2663 553 2423 
Q 456 2184 366 1819 
Q 366 1778 313 1778 
L 238 1778 
Q 222 1778 203 1801 
Q 184 1825 184 1844 
Q 253 2122 317 2315 
Q 381 2509 517 2668 
Q 653 2828 856 2828 
Q 1075 2828 1240 2704 
Q 1406 2581 1453 2369 
Q 1628 2572 1840 2700 
Q 2053 2828 2278 2828 
Q 2547 2828 2745 2684 
Q 2944 2541 3044 2308 
Q 3144 2075 3144 1806 
Q 3144 1394 2933 953 
Q 2722 513 2361 220 
Q 2000 -72 1588 -72 
Q 1400 -72 1248 34 
Q 1097 141 1013 313 
L 722 -825 
Q 706 -919 703 -934 
Q 703 -1019 1125 -1019 
Q 1191 -1019 1191 -1100 
Q 1169 -1184 1155 -1212 
Q 1141 -1241 1081 -1241 
L -159 -1241 
z
M 1594 97 
Q 1816 97 2006 280 
Q 2197 463 2316 691 
Q 2403 863 2479 1111 
Q 2556 1359 2612 1640 
Q 2669 1922 2669 2088 
Q 2669 2234 2630 2362 
Q 2591 2491 2502 2577 
Q 2413 2663 2266 2663 
Q 2031 2663 1823 2495 
Q 1616 2328 1447 2081 
L 1447 2059 
L 1094 647 
Q 1138 419 1263 258 
Q 1388 97 1594 97 
z
" transform="scale(0.015625)"/>
      <path id="STIXGeneral-Regular-2267" d="M 3981 2771 
L 365 1024 
L 365 1427 
L 3130 2803 
L 365 4179 
L 365 4595 
L 3981 2835 
L 3981 2771 
z
M 3981 -77 
L 365 -77 
L 365 346 
L 3981 346 
L 3981 -77 
z
M 3981 -1350 
L 365 -1350 
L 365 -928 
L 3981 -928 
L 3981 -1350 
z
" transform="scale(0.015625)"/>
     </defs>
     <use xlink:href="#DejaVuSerif-5c" transform="translate(0 0.015625)"/>
     <use xlink:href="#DejaVuSerif-69" transform="translate(33.691406 0.015625)"/>
     <use xlink:href="#DejaVuSerif-74" transform="translate(65.673828 0.015625)"/>
     <use xlink:href="#DejaVuSerif-65" transform="translate(105.859375 0.015625)"/>
     <use xlink:href="#DejaVuSerif-6d" transform="translate(165.039062 0.015625)"/>
     <use xlink:href="#DejaVuSerif-5b" transform="translate(259.863281 0.015625)"/>
     <use xlink:href="#DejaVuSerif-28" transform="translate(298.876953 0.015625)"/>
     <use xlink:href="#DejaVuSerif-62" transform="translate(337.890625 0.015625)"/>
     <use xlink:href="#DejaVuSerif-29" transform="translate(401.904297 0.015625)"/>
     <use xlink:href="#DejaVuSerif-5d" transform="translate(440.917969 0.015625)"/>
     <use xlink:href="#DejaVuSerif-20" transform="translate(479.931641 0.015625)"/>
     <use xlink:href="#DejaVuSerif-41" transform="translate(511.71875 0.015625)"/>
     <use xlink:href="#DejaVuSerif-73" transform="translate(583.935547 0.015625)"/>
     <use xlink:href="#DejaVuSerif-73" transform="translate(635.253906 0.015625)"/>
     <use xlink:href="#DejaVuSerif-75" transform="translate(686.572266 0.015625)"/>
     <use xlink:href="#DejaVuSerif-6d" transform="translate(750.976562 0.015625)"/>
     <use xlink:href="#DejaVuSerif-69" transform="translate(845.800781 0.015625)"/>
     <use xlink:href="#DejaVuSerif-6e" transform="translate(877.783203 0.015625)"/>
     <use xlink:href="#DejaVuSerif-67" transform="translate(942.1875 0.015625)"/>
     <use xlink:href="#DejaVuSerif-20" transform="translate(1006.201172 0.015625)"/>
     <use xlink:href="#DejaVuSerif-70" transform="translate(1037.988281 0.015625)"/>
     <use xlink:href="#DejaVuSerif-61" transform="translate(1102.001953 0.015625)"/>
     <use xlink:href="#DejaVuSerif-72" transform="translate(1161.621094 0.015625)"/>
     <use xlink:href="#DejaVuSerif-74" transform="translate(1209.423828 0.015625)"/>
     <use xlink:href="#DejaVuSerif-20" transform="translate(1249.609375 0.015625)"/>
     <use xlink:href="#DejaVuSerif-28" transform="translate(1281.396484 0.015625)"/>
     <use xlink:href="#DejaVuSerif-61" transform="translate(1320.410156 0.015625)"/>
     <use xlink:href="#DejaVuSerif-29" transform="translate(1380.029297 0.015625)"/>
     <use xlink:href="#DejaVuSerif-2c" transform="translate(1419.042969 0.015625)"/>
     <use xlink:href="#DejaVuSerif-20" transform="translate(1450.830078 0.015625)"/>
     <use xlink:href="#DejaVuSerif-77" transform="translate(1482.617188 0.015625)"/>
     <use xlink:href="#DejaVuSerif-65" transform="translate(1568.212891 0.015625)"/>
     <use xlink:href="#DejaVuSerif-20" transform="translate(1627.392578 0.015625)"/>
     <use xlink:href="#DejaVuSerif-63" transform="translate(1659.179688 0.015625)"/>
     <use xlink:href="#DejaVuSerif-61" transform="translate(1715.185547 0.015625)"/>
     <use xlink:href="#DejaVuSerif-6e" transform="translate(1774.804688 0.015625)"/>
     <use xlink:href="#DejaVuSerif-20" transform="translate(1839.208984 0.015625)"/>
     <use xlink:href="#DejaVuSerif-64" transform="translate(1870.996094 0.015625)"/>
     <use xlink:href="#DejaVuSerif-65" transform="translate(1935.009766 0.015625)"/>
     <use xlink:href="#DejaVuSerif-66" transform="translate(1994.189453 0.015625)"/>
     <use xlink:href="#DejaVuSerif-69" transform="translate(2031.201172 0.015625)"/>
     <use xlink:href="#DejaVuSerif-6e" transform="translate(2063.183594 0.015625)"/>
     <use xlink:href="#DejaVuSerif-65" transform="translate(2127.587891 0.015625)"/>
     <use xlink:href="#DejaVuSerif-20" transform="translate(2186.767578 0.015625)"/>
     <use xlink:href="#Cmmi10-67" transform="translate(2218.554688 0.015625)"/>
     <use xlink:href="#Cmr10-28" transform="translate(2266.259766 0.015625)"/>
     <use xlink:href="#Cmmi10-73" transform="translate(2305.078125 0.015625)"/>
     <use xlink:href="#Cmr10-29" transform="translate(2351.855469 0.015625)"/>
     <use xlink:href="#Cmr10-3d" transform="translate(2408.232422 0.015625)"/>
     <use xlink:href="#Cmmi10-66" transform="translate(2503.476562 0.015625)"/>
     <use xlink:href="#Cmr10-28" transform="translate(2552.353516 0.015625)"/>
     <use xlink:href="#Cmr10-35" transform="translate(2591.171875 0.015625)"/>
     <use xlink:href="#Cmmi10-61" transform="translate(2645.636016 38.279688) scale(0.7)"/>
     <use xlink:href="#Cmr10-31" transform="translate(2682.584258 26.375312) scale(0.49)"/>
     <use xlink:href="#Cmr10-2b" transform="translate(2735.484336 0.015625)"/>
     <use xlink:href="#Cmr10-35" transform="translate(2830.728477 0.015625)"/>
     <use xlink:href="#Cmmi10-61" transform="translate(2885.192617 38.279688) scale(0.7)"/>
     <use xlink:href="#Cmr10-32" transform="translate(2922.140859 26.375312) scale(0.49)"/>
     <use xlink:href="#Cmr10-2b" transform="translate(2975.040937 0.015625)"/>
     <use xlink:href="#STIXGeneral-Regular-2026" transform="translate(3087.843672 0.015625)"/>
     <use xlink:href="#Cmr10-2b" transform="translate(3222.960844 0.015625)"/>
     <use xlink:href="#Cmr10-35" transform="translate(3318.204985 0.015625)"/>
     <use xlink:href="#Cmmi10-61" transform="translate(3372.669125 38.279688) scale(0.7)"/>
     <use xlink:href="#Cmmi10-6b" transform="translate(3409.617368 26.375312) scale(0.49)"/>
     <use xlink:href="#Cmr10-29" transform="translate(3445.939809 0.015625)"/>
     <use xlink:href="#DejaVuSerif-2c" transform="translate(3484.758168 0.015625)"/>
     <use xlink:href="#DejaVuSerif-20" transform="translate(3516.545278 0.015625)"/>
     <use xlink:href="#DejaVuSerif-77" transform="translate(3548.332387 0.015625)"/>
     <use xlink:href="#DejaVuSerif-68" transform="translate(3633.92809 0.015625)"/>
     <use xlink:href="#DejaVuSerif-65" transform="translate(3698.332387 0.015625)"/>
     <use xlink:href="#DejaVuSerif-72" transform="translate(3757.512075 0.015625)"/>
     <use xlink:href="#DejaVuSerif-65" transform="translate(3805.314809 0.015625)"/>
     <use xlink:href="#DejaVuSerif-20" transform="translate(3864.494496 0.015625)"/>
     <use xlink:href="#Cmmi10-73" transform="translate(3896.281606 0.015625)"/>
     <use xlink:href="#Cmr10-3d" transform="translate(3960.617543 0.015625)"/>
     <use xlink:href="#Cmmi10-61" transform="translate(4055.861684 0.015625)"/>
     <use xlink:href="#Cmr10-31" transform="translate(4108.644887 -16.990625) scale(0.7)"/>
     <use xlink:href="#Cmr10-2b" transform="translate(4167.580825 0.015625)"/>
     <use xlink:href="#Cmmi10-61" transform="translate(4262.824965 0.015625)"/>
     <use xlink:href="#Cmr10-32" transform="translate(4315.608168 -16.990625) scale(0.7)"/>
     <use xlink:href="#Cmr10-2b" transform="translate(4374.544106 0.015625)"/>
     <use xlink:href="#STIXGeneral-Regular-2026" transform="translate(4487.34684 0.015625)"/>
     <use xlink:href="#Cmr10-2b" transform="translate(4622.464012 0.015625)"/>
     <use xlink:href="#Cmmi10-61" transform="translate(4717.708153 0.015625)"/>
     <use xlink:href="#Cmmi10-6b" transform="translate(4770.491356 -16.990625) scale(0.7)"/>
     <use xlink:href="#DejaVuSerif-2e" transform="translate(4813.270067 0.015625)"/>
     <use xlink:href="#DejaVuSerif-20" transform="translate(4845.057177 0.015625)"/>
     <use xlink:href="#DejaVuSerif-46" transform="translate(4876.844286 0.015625)"/>
     <use xlink:href="#DejaVuSerif-69" transform="translate(4946.229052 0.015625)"/>
     <use xlink:href="#DejaVuSerif-6e" transform="translate(4978.211473 0.015625)"/>
     <use xlink:href="#DejaVuSerif-64" transform="translate(5042.61577 0.015625)"/>
     <use xlink:href="#DejaVuSerif-20" transform="translate(5106.629442 0.015625)"/>
     <use xlink:href="#DejaVuSerif-74" transform="translate(5138.416552 0.015625)"/>
     <use xlink:href="#DejaVuSerif-68" transform="translate(5178.602098 0.015625)"/>
     <use xlink:href="#DejaVuSerif-65" transform="translate(5243.006395 0.015625)"/>
     <use xlink:href="#DejaVuSerif-20" transform="translate(5302.186083 0.015625)"/>
     <use xlink:href="#DejaVuSerif-6c" transform="translate(5333.973192 0.015625)"/>
     <use xlink:href="#DejaVuSerif-65" transform="translate(5365.955614 0.015625)"/>
     <use xlink:href="#DejaVuSerif-61" transform="translate(5425.135302 0.015625)"/>
     <use xlink:href="#DejaVuSerif-73" transform="translate(5484.754442 0.015625)"/>
     <use xlink:href="#DejaVuSerif-74" transform="translate(5536.072802 0.015625)"/>
     <use xlink:href="#DejaVuSerif-20" transform="translate(5576.258348 0.015625)"/>
     <use xlink:href="#DejaVuSerif-70" transform="translate(5608.045458 0.015625)"/>
     <use xlink:href="#DejaVuSerif-6f" transform="translate(5672.05913 0.015625)"/>
     <use xlink:href="#DejaVuSerif-73" transform="translate(5732.264208 0.015625)"/>
     <use xlink:href="#DejaVuSerif-69" transform="translate(5783.582567 0.015625)"/>
     <use xlink:href="#DejaVuSerif-74" transform="translate(5815.564989 0.015625)"/>
     <use xlink:href="#DejaVuSerif-69" transform="translate(5855.750536 0.015625)"/>
     <use xlink:href="#DejaVuSerif-76" transform="translate(5887.732958 0.015625)"/>
     <use xlink:href="#DejaVuSerif-65" transform="translate(5944.227098 0.015625)"/>
     <use xlink:href="#DejaVuSerif-20" transform="translate(6003.406786 0.015625)"/>
     <use xlink:href="#DejaVuSerif-69" transform="translate(6035.193895 0.015625)"/>
     <use xlink:href="#DejaVuSerif-6e" transform="translate(6067.176317 0.015625)"/>
     <use xlink:href="#DejaVuSerif-74" transform="translate(6131.580614 0.015625)"/>
     <use xlink:href="#DejaVuSerif-65" transform="translate(6171.766161 0.015625)"/>
     <use xlink:href="#DejaVuSerif-67" transform="translate(6230.945848 0.015625)"/>
     <use xlink:href="#DejaVuSerif-65" transform="translate(6294.95952 0.015625)"/>
     <use xlink:href="#DejaVuSerif-72" transform="translate(6354.139208 0.015625)"/>
     <use xlink:href="#DejaVuSerif-20" transform="translate(6401.941942 0.015625)"/>
     <use xlink:href="#Cmmi10-70" transform="translate(6433.729052 0.015625)"/>
     <use xlink:href="#DejaVuSerif-20" transform="translate(6484.02202 0.015625)"/>
     <use xlink:href="#DejaVuSerif-66" transform="translate(6515.80913 0.015625)"/>
     <use xlink:href="#DejaVuSerif-6f" transform="translate(6552.820848 0.015625)"/>
     <use xlink:href="#DejaVuSerif-72" transform="translate(6613.025927 0.015625)"/>
     <use xlink:href="#DejaVuSerif-20" transform="translate(6660.828661 0.015625)"/>
     <use xlink:href="#DejaVuSerif-77" transform="translate(6692.61577 0.015625)"/>
     <use xlink:href="#DejaVuSerif-68" transform="translate(6778.211473 0.015625)"/>
     <use xlink:href="#DejaVuSerif-69" transform="translate(6842.61577 0.015625)"/>
     <use xlink:href="#DejaVuSerif-63" transform="translate(6874.598192 0.015625)"/>
     <use xlink:href="#DejaVuSerif-68" transform="translate(6930.604052 0.015625)"/>
     <use xlink:href="#DejaVuSerif-20" transform="translate(6995.008348 0.015625)"/>
     <use xlink:href="#Cmmi10-67" transform="translate(7026.795458 0.015625)"/>
     <use xlink:href="#Cmr10-28" transform="translate(7074.500536 0.015625)"/>
     <use xlink:href="#Cmmi10-73" transform="translate(7113.318895 0.015625)"/>
     <use xlink:href="#Cmr10-29" transform="translate(7160.096239 0.015625)"/>
     <use xlink:href="#Cmr10-3d" transform="translate(7216.473192 0.015625)"/>
     <use xlink:href="#Cmmi10-67" transform="translate(7311.717333 0.015625)"/>
     <use xlink:href="#Cmr10-28" transform="translate(7359.422411 0.015625)"/>
     <use xlink:href="#Cmmi10-73" transform="translate(7398.24077 0.015625)"/>
     <use xlink:href="#Cmr10-2b" transform="translate(7462.576708 0.015625)"/>
     <use xlink:href="#Cmmi10-70" transform="translate(7557.820848 0.015625)"/>
     <use xlink:href="#Cmr10-29" transform="translate(7608.113817 0.015625)"/>
     <use xlink:href="#DejaVuSerif-2c" transform="translate(7646.932177 0.015625)"/>
     <use xlink:href="#DejaVuSerif-20" transform="translate(7678.719286 0.015625)"/>
     <use xlink:href="#DejaVuSerif-66" transform="translate(7710.506395 0.015625)"/>
     <use xlink:href="#DejaVuSerif-6f" transform="translate(7747.518114 0.015625)"/>
     <use xlink:href="#DejaVuSerif-72" transform="translate(7807.723192 0.015625)"/>
     <use xlink:href="#DejaVuSerif-20" transform="translate(7855.525927 0.015625)"/>
     <use xlink:href="#DejaVuSerif-61" transform="translate(7887.313036 0.015625)"/>
     <use xlink:href="#DejaVuSerif-6c" transform="translate(7946.932177 0.015625)"/>
     <use xlink:href="#DejaVuSerif-6c" transform="translate(7978.914598 0.015625)"/>
     <use xlink:href="#DejaVuSerif-20" transform="translate(8010.89702 0.015625)"/>
     <use xlink:href="#Cmmi10-73" transform="translate(8042.68413 0.015625)"/>
     <use xlink:href="#STIXGeneral-Regular-2267" transform="translate(8107.020067 0.015625)"/>
     <use xlink:href="#Cmr10-31" transform="translate(8193.078646 0.015625)"/>
     <use xlink:href="#DejaVuSerif-2c" transform="translate(8243.078646 0.015625)"/>
     <use xlink:href="#DejaVuSerif-20" transform="translate(8274.865755 0.015625)"/>
     <use xlink:href="#DejaVuSerif-6f" transform="translate(8306.652864 0.015625)"/>
     <use xlink:href="#DejaVuSerif-72" transform="translate(8366.857943 0.015625)"/>
     <use xlink:href="#DejaVuSerif-20" transform="translate(8414.660677 0.015625)"/>
     <use xlink:href="#DejaVuSerif-65" transform="translate(8446.447786 0.015625)"/>
     <use xlink:href="#DejaVuSerif-6c" transform="translate(8505.627474 0.015625)"/>
     <use xlink:href="#DejaVuSerif-73" transform="translate(8537.609896 0.015625)"/>
     <use xlink:href="#DejaVuSerif-65" transform="translate(8588.928255 0.015625)"/>
     <use xlink:href="#DejaVuSerif-20" transform="translate(8648.107943 0.015625)"/>
     <use xlink:href="#DejaVuSerif-73" transform="translate(8679.895052 0.015625)"/>
     <use xlink:href="#DejaVuSerif-68" transform="translate(8731.213411 0.015625)"/>
     <use xlink:href="#DejaVuSerif-6f" transform="translate(8795.617708 0.015625)"/>
     <use xlink:href="#DejaVuSerif-77" transform="translate(8855.822786 0.015625)"/>
     <use xlink:href="#DejaVuSerif-20" transform="translate(8941.418489 0.015625)"/>
     <use xlink:href="#DejaVuSerif-74" transform="translate(8973.205599 0.015625)"/>
     <use xlink:href="#DejaVuSerif-68" transform="translate(9013.391146 0.015625)"/>
     <use xlink:href="#DejaVuSerif-61" transform="translate(9077.795443 0.015625)"/>
     <use xlink:href="#DejaVuSerif-74" transform="translate(9137.414583 0.015625)"/>
     <use xlink:href="#DejaVuSerif-20" transform="translate(9177.60013 0.015625)"/>
     <use xlink:href="#DejaVuSerif-6e" transform="translate(9209.387239 0.015625)"/>
     <use xlink:href="#DejaVuSerif-6f" transform="translate(9273.791536 0.015625)"/>
     <use xlink:href="#DejaVuSerif-20" transform="translate(9333.996614 0.015625)"/>
     <use xlink:href="#DejaVuSerif-73" transform="translate(9365.783724 0.015625)"/>
     <use xlink:href="#DejaVuSerif-75" transform="translate(9417.102083 0.015625)"/>
     <use xlink:href="#DejaVuSerif-63" transform="translate(9481.50638 0.015625)"/>
     <use xlink:href="#DejaVuSerif-68" transform="translate(9537.512239 0.015625)"/>
     <use xlink:href="#DejaVuSerif-20" transform="translate(9601.916536 0.015625)"/>
     <use xlink:href="#Cmmi10-70" transform="translate(9633.703646 0.015625)"/>
     <use xlink:href="#DejaVuSerif-20" transform="translate(9683.996614 0.015625)"/>
     <use xlink:href="#DejaVuSerif-65" transform="translate(9715.783724 0.015625)"/>
     <use xlink:href="#DejaVuSerif-78" transform="translate(9774.963411 0.015625)"/>
     <use xlink:href="#DejaVuSerif-69" transform="translate(9831.359896 0.015625)"/>
     <use xlink:href="#DejaVuSerif-73" transform="translate(9863.342318 0.015625)"/>
     <use xlink:href="#DejaVuSerif-74" transform="translate(9914.660677 0.015625)"/>
     <use xlink:href="#DejaVuSerif-73" transform="translate(9954.846224 0.015625)"/>
     <use xlink:href="#DejaVuSerif-2e" transform="translate(10006.164583 0.015625)"/>
    </g>
    <!-- \end{enumerate} -->
    <g transform="translate(555.638438 121.391063) scale(0.12 -0.12)">
     <use xlink:href="#DejaVuSerif-5c"/>
     <use xlink:href="#DejaVuSerif-65" transform="translate(33.691406 0)"/>
     <use xlink:href="#DejaVuSerif-6e" transform="translate(92.871094 0)"/>
     <use xlink:href="#DejaVuSerif-64" transform="translate(157.275391 0)"/>
     <use xlink:href="#DejaVuSerif-7b" transform="translate(221.289062 0)"/>
     <use xlink:href="#DejaVuSerif-65" transform="translate(284.912109 0)"/>
     <use xlink:href="#DejaVuSerif-6e" transform="translate(344.091797 0)"/>
     <use xlink:href="#DejaVuSerif-75" transform="translate(408.496094 0)"/>
     <use xlink:href="#DejaVuSerif-6d" transform="translate(472.900391 0)"/>
     <use xlink:href="#DejaVuSerif-65" transform="translate(567.724609 0)"/>
     <use xlink:href="#DejaVuSerif-72" transform="translate(626.904297 0)"/>
     <use xlink:href="#DejaVuSerif-61" transform="translate(674.707031 0)"/>
     <use xlink:href="#DejaVuSerif-74" transform="translate(734.326172 0)"/>
     <use xlink:href="#DejaVuSerif-65" transform="translate(774.511719 0)"/>
     <use xlink:href="#DejaVuSerif-7d" transform="translate(833.691406 0)"/>
    </g>
   </g>
  </g>
 </g>
</svg>
