<?xml version="1.0" encoding="utf-8" standalone="no"?>
<!DOCTYPE svg PUBLIC "-//W3C//DTD SVG 1.1//EN"
  "http://www.w3.org/Graphics/SVG/1.1/DTD/svg11.dtd">
<svg xmlns:xlink="http://www.w3.org/1999/xlink" width="897.72pt" height="228.4pt" viewBox="0 0 897.72 228.4" xmlns="http://www.w3.org/2000/svg" version="1.1">
 <metadata>
  <rdf:RDF xmlns:dc="http://purl.org/dc/elements/1.1/" xmlns:cc="http://creativecommons.org/ns#" xmlns:rdf="http://www.w3.org/1999/02/22-rdf-syntax-ns#">
   <cc:Work>
    <dc:type rdf:resource="http://purl.org/dc/dcmitype/StillImage"/>
    <dc:date>2025-05-29T18:44:02.014334</dc:date>
    <dc:format>image/svg+xml</dc:format>
    <dc:creator>
     <cc:Agent>
      <dc:title>Matplotlib v3.10.3, https://matplotlib.org/</dc:title>
     </cc:Agent>
    </dc:creator>
   </cc:Work>
  </rdf:RDF>
 </metadata>
 <defs>
  <style type="text/css">*{stroke-linejoin: round; stroke-linecap: butt}</style>
 </defs>
 <g id="figure_1">
  <g id="patch_1">
   <path d="M 0 228.4 
L 897.72 228.4 
L 897.72 0 
L 0 0 
z
" style="fill: #ffffff"/>
  </g>
  <g id="axes_1">
   <g id="text_1">
    <!-- Let $c&gt;0$ be a constant. Give a complete description, with proof, of the set of all continuous functions $f:\mathbb{R} \rightarrow \mathbb{R}$ such that $f(x)=f(x^2+c)$ for all $x \in \mathbb{R}$. -->
    <g transform="translate(7.2 117.8) scale(0.12 -0.12)">
     <defs>
      <path id="DejaVuSerif-4c" d="M 353 0 
L 353 331 
L 947 331 
L 947 4331 
L 353 4331 
L 353 4666 
L 2175 4666 
L 2175 4331 
L 1581 4331 
L 1581 384 
L 3713 384 
L 3713 1166 
L 4097 1166 
L 4097 0 
L 353 0 
z
" transform="scale(0.015625)"/>
      <path id="DejaVuSerif-65" d="M 3469 1600 
L 991 1600 
L 991 1575 
Q 991 903 1244 561 
Q 1497 219 1991 219 
Q 2369 219 2611 417 
Q 2853 616 2950 1006 
L 3413 1006 
Q 3275 459 2904 184 
Q 2534 -91 1931 -91 
Q 1203 -91 761 389 
Q 319 869 319 1663 
Q 319 2450 753 2931 
Q 1188 3413 1894 3413 
Q 2647 3413 3050 2948 
Q 3453 2484 3469 1600 
z
M 2791 1931 
Q 2772 2513 2545 2808 
Q 2319 3103 1894 3103 
Q 1497 3103 1269 2806 
Q 1041 2509 991 1931 
L 2791 1931 
z
" transform="scale(0.015625)"/>
      <path id="DejaVuSerif-74" d="M 691 2988 
L 184 2988 
L 184 3322 
L 691 3322 
L 691 4353 
L 1269 4353 
L 1269 3322 
L 2350 3322 
L 2350 2988 
L 1269 2988 
L 1269 878 
Q 1269 456 1350 337 
Q 1431 219 1650 219 
Q 1875 219 1978 351 
Q 2081 484 2088 781 
L 2522 781 
Q 2497 328 2275 118 
Q 2053 -91 1600 -91 
Q 1103 -91 897 129 
Q 691 350 691 878 
L 691 2988 
z
" transform="scale(0.015625)"/>
      <path id="DejaVuSerif-20" transform="scale(0.015625)"/>
      <path id="Cmmi10-63" d="M 750 763 
Q 750 484 892 290 
Q 1034 97 1300 97 
Q 1681 97 2032 272 
Q 2384 447 2606 756 
Q 2625 775 2656 775 
Q 2688 775 2720 739 
Q 2753 703 2753 672 
Q 2753 647 2741 634 
Q 2506 306 2109 117 
Q 1713 -72 1288 -72 
Q 981 -72 747 73 
Q 513 219 384 462 
Q 256 706 256 1013 
Q 256 1444 497 1869 
Q 738 2294 1138 2561 
Q 1538 2828 1978 2828 
Q 2266 2828 2495 2689 
Q 2725 2550 2725 2278 
Q 2725 2103 2623 1979 
Q 2522 1856 2350 1856 
Q 2247 1856 2176 1920 
Q 2106 1984 2106 2088 
Q 2106 2238 2215 2344 
Q 2325 2450 2472 2450 
L 2484 2450 
Q 2409 2559 2267 2611 
Q 2125 2663 1972 2663 
Q 1597 2663 1315 2342 
Q 1034 2022 892 1576 
Q 750 1131 750 763 
z
" transform="scale(0.015625)"/>
      <path id="Cmmi10-3e" d="M 531 -128 
Q 531 -47 616 -6 
L 4013 1600 
L 594 3219 
Q 531 3238 531 3328 
Q 531 3372 567 3414 
Q 603 3456 659 3456 
Q 672 3456 709 3444 
L 4384 1709 
Q 4441 1681 4441 1600 
Q 4441 1516 4366 1484 
L 709 -244 
Q 672 -256 659 -256 
Q 603 -256 567 -214 
Q 531 -172 531 -128 
z
" transform="scale(0.015625)"/>
      <path id="Cmr10-30" d="M 1600 -141 
Q 816 -141 533 504 
Q 250 1150 250 2041 
Q 250 2597 351 3087 
Q 453 3578 754 3920 
Q 1056 4263 1600 4263 
Q 2022 4263 2290 4056 
Q 2559 3850 2700 3523 
Q 2841 3197 2892 2823 
Q 2944 2450 2944 2041 
Q 2944 1491 2842 1011 
Q 2741 531 2444 195 
Q 2147 -141 1600 -141 
z
M 1600 25 
Q 1956 25 2131 390 
Q 2306 756 2347 1200 
Q 2388 1644 2388 2144 
Q 2388 2625 2347 3031 
Q 2306 3438 2132 3767 
Q 1959 4097 1600 4097 
Q 1238 4097 1063 3765 
Q 888 3434 847 3029 
Q 806 2625 806 2144 
Q 806 1788 823 1472 
Q 841 1156 916 820 
Q 991 484 1158 254 
Q 1325 25 1600 25 
z
" transform="scale(0.015625)"/>
      <path id="DejaVuSerif-62" d="M 738 331 
L 738 4531 
L 184 4531 
L 184 4863 
L 1313 4863 
L 1313 2803 
Q 1481 3116 1742 3264 
Q 2003 3413 2388 3413 
Q 3000 3413 3387 2928 
Q 3775 2444 3775 1663 
Q 3775 881 3387 395 
Q 3000 -91 2388 -91 
Q 2003 -91 1742 57 
Q 1481 206 1313 519 
L 1313 0 
L 184 0 
L 184 331 
L 738 331 
z
M 1313 1497 
Q 1313 897 1542 583 
Q 1772 269 2209 269 
Q 2650 269 2876 622 
Q 3103 975 3103 1663 
Q 3103 2353 2876 2703 
Q 2650 3053 2209 3053 
Q 1772 3053 1542 2737 
Q 1313 2422 1313 1825 
L 1313 1497 
z
" transform="scale(0.015625)"/>
      <path id="DejaVuSerif-61" d="M 2547 1044 
L 2547 1747 
L 1806 1747 
Q 1378 1747 1168 1562 
Q 959 1378 959 997 
Q 959 650 1171 447 
Q 1384 244 1747 244 
Q 2106 244 2326 466 
Q 2547 688 2547 1044 
z
M 3122 2075 
L 3122 331 
L 3634 331 
L 3634 0 
L 2547 0 
L 2547 359 
Q 2356 128 2106 18 
Q 1856 -91 1522 -91 
Q 969 -91 644 203 
Q 319 497 319 997 
Q 319 1513 691 1797 
Q 1063 2081 1741 2081 
L 2547 2081 
L 2547 2309 
Q 2547 2688 2317 2895 
Q 2088 3103 1672 3103 
Q 1328 3103 1125 2947 
Q 922 2791 872 2484 
L 575 2484 
L 575 3156 
Q 875 3284 1158 3348 
Q 1441 3413 1709 3413 
Q 2400 3413 2761 3070 
Q 3122 2728 3122 2075 
z
" transform="scale(0.015625)"/>
      <path id="DejaVuSerif-63" d="M 3291 997 
Q 3169 466 2822 187 
Q 2475 -91 1925 -91 
Q 1200 -91 759 389 
Q 319 869 319 1663 
Q 319 2459 759 2936 
Q 1200 3413 1925 3413 
Q 2241 3413 2553 3339 
Q 2866 3266 3181 3116 
L 3181 2266 
L 2847 2266 
Q 2781 2703 2561 2903 
Q 2341 3103 1931 3103 
Q 1466 3103 1228 2742 
Q 991 2381 991 1663 
Q 991 944 1227 581 
Q 1463 219 1931 219 
Q 2303 219 2525 412 
Q 2747 606 2828 997 
L 3291 997 
z
" transform="scale(0.015625)"/>
      <path id="DejaVuSerif-6f" d="M 1925 219 
Q 2388 219 2623 584 
Q 2859 950 2859 1663 
Q 2859 2375 2623 2739 
Q 2388 3103 1925 3103 
Q 1463 3103 1227 2739 
Q 991 2375 991 1663 
Q 991 950 1228 584 
Q 1466 219 1925 219 
z
M 1925 -91 
Q 1200 -91 759 389 
Q 319 869 319 1663 
Q 319 2456 758 2934 
Q 1197 3413 1925 3413 
Q 2653 3413 3092 2934 
Q 3531 2456 3531 1663 
Q 3531 869 3092 389 
Q 2653 -91 1925 -91 
z
" transform="scale(0.015625)"/>
      <path id="DejaVuSerif-6e" d="M 263 0 
L 263 331 
L 781 331 
L 781 2988 
L 231 2988 
L 231 3322 
L 1356 3322 
L 1356 2731 
Q 1516 3069 1770 3241 
Q 2025 3413 2363 3413 
Q 2913 3413 3172 3097 
Q 3431 2781 3431 2113 
L 3431 331 
L 3944 331 
L 3944 0 
L 2356 0 
L 2356 331 
L 2853 331 
L 2853 1931 
Q 2853 2541 2703 2767 
Q 2553 2994 2175 2994 
Q 1775 2994 1565 2701 
Q 1356 2409 1356 1850 
L 1356 331 
L 1856 331 
L 1856 0 
L 263 0 
z
" transform="scale(0.015625)"/>
      <path id="DejaVuSerif-73" d="M 359 184 
L 359 959 
L 691 959 
Q 703 588 923 403 
Q 1144 219 1575 219 
Q 1963 219 2166 364 
Q 2369 509 2369 788 
Q 2369 1006 2220 1140 
Q 2072 1275 1594 1428 
L 1178 1569 
Q 750 1706 558 1912 
Q 366 2119 366 2438 
Q 366 2894 700 3153 
Q 1034 3413 1625 3413 
Q 1888 3413 2178 3344 
Q 2469 3275 2778 3144 
L 2778 2419 
L 2447 2419 
Q 2434 2741 2221 2922 
Q 2009 3103 1644 3103 
Q 1281 3103 1095 2975 
Q 909 2847 909 2591 
Q 909 2381 1050 2254 
Q 1191 2128 1613 1997 
L 2069 1856 
Q 2541 1709 2748 1489 
Q 2956 1269 2956 922 
Q 2956 450 2595 179 
Q 2234 -91 1600 -91 
Q 1278 -91 972 -22 
Q 666 47 359 184 
z
" transform="scale(0.015625)"/>
      <path id="DejaVuSerif-2e" d="M 603 325 
Q 603 500 722 622 
Q 841 744 1019 744 
Q 1191 744 1312 622 
Q 1434 500 1434 325 
Q 1434 153 1312 31 
Q 1191 -91 1019 -91 
Q 841 -91 722 29 
Q 603 150 603 325 
z
" transform="scale(0.015625)"/>
      <path id="DejaVuSerif-47" d="M 4097 3272 
Q 3988 3856 3641 4136 
Q 3294 4416 2675 4416 
Q 1869 4416 1472 3897 
Q 1075 3378 1075 2328 
Q 1075 1300 1484 772 
Q 1894 244 2688 244 
Q 3041 244 3362 331 
Q 3684 419 3975 594 
L 3975 1797 
L 3097 1797 
L 3097 2131 
L 4609 2131 
L 4609 391 
Q 4194 150 3714 29 
Q 3234 -91 2688 -91 
Q 1631 -91 995 570 
Q 359 1231 359 2328 
Q 359 3434 996 4092 
Q 1634 4750 2713 4750 
Q 3113 4750 3539 4658 
Q 3966 4566 4447 4378 
L 4447 3272 
L 4097 3272 
z
" transform="scale(0.015625)"/>
      <path id="DejaVuSerif-69" d="M 622 4353 
Q 622 4497 726 4603 
Q 831 4709 978 4709 
Q 1122 4709 1226 4603 
Q 1331 4497 1331 4353 
Q 1331 4206 1228 4103 
Q 1125 4000 978 4000 
Q 831 4000 726 4103 
Q 622 4206 622 4353 
z
M 1356 331 
L 1900 331 
L 1900 0 
L 231 0 
L 231 331 
L 781 331 
L 781 2988 
L 231 2988 
L 231 3322 
L 1356 3322 
L 1356 331 
z
" transform="scale(0.015625)"/>
      <path id="DejaVuSerif-76" d="M 1581 0 
L 359 2988 
L -19 2988 
L -19 3322 
L 1509 3322 
L 1509 2988 
L 978 2988 
L 1913 703 
L 2847 2988 
L 2350 2988 
L 2350 3322 
L 3597 3322 
L 3597 2988 
L 3225 2988 
L 2003 0 
L 1581 0 
z
" transform="scale(0.015625)"/>
      <path id="DejaVuSerif-6d" d="M 3316 2675 
Q 3481 3041 3739 3227 
Q 3997 3413 4341 3413 
Q 4863 3413 5119 3089 
Q 5375 2766 5375 2113 
L 5375 331 
L 5894 331 
L 5894 0 
L 4300 0 
L 4300 331 
L 4800 331 
L 4800 2047 
Q 4800 2556 4650 2772 
Q 4500 2988 4153 2988 
Q 3769 2988 3567 2697 
Q 3366 2406 3366 1850 
L 3366 331 
L 3866 331 
L 3866 0 
L 2291 0 
L 2291 331 
L 2791 331 
L 2791 2069 
Q 2791 2566 2641 2777 
Q 2491 2988 2144 2988 
Q 1759 2988 1557 2697 
Q 1356 2406 1356 1850 
L 1356 331 
L 1856 331 
L 1856 0 
L 263 0 
L 263 331 
L 781 331 
L 781 2994 
L 231 2994 
L 231 3322 
L 1356 3322 
L 1356 2731 
Q 1516 3063 1762 3238 
Q 2009 3413 2322 3413 
Q 2709 3413 2968 3220 
Q 3228 3028 3316 2675 
z
" transform="scale(0.015625)"/>
      <path id="DejaVuSerif-70" d="M 1313 1825 
L 1313 1497 
Q 1313 897 1542 583 
Q 1772 269 2209 269 
Q 2650 269 2876 622 
Q 3103 975 3103 1663 
Q 3103 2353 2876 2703 
Q 2650 3053 2209 3053 
Q 1772 3053 1542 2737 
Q 1313 2422 1313 1825 
z
M 738 2988 
L 184 2988 
L 184 3322 
L 1313 3322 
L 1313 2803 
Q 1481 3116 1742 3264 
Q 2003 3413 2388 3413 
Q 3000 3413 3387 2928 
Q 3775 2444 3775 1663 
Q 3775 881 3387 395 
Q 3000 -91 2388 -91 
Q 2003 -91 1742 57 
Q 1481 206 1313 519 
L 1313 -997 
L 1856 -997 
L 1856 -1331 
L 184 -1331 
L 184 -997 
L 738 -997 
L 738 2988 
z
" transform="scale(0.015625)"/>
      <path id="DejaVuSerif-6c" d="M 1313 331 
L 1856 331 
L 1856 0 
L 184 0 
L 184 331 
L 738 331 
L 738 4531 
L 184 4531 
L 184 4863 
L 1313 4863 
L 1313 331 
z
" transform="scale(0.015625)"/>
      <path id="DejaVuSerif-64" d="M 3359 331 
L 3909 331 
L 3909 0 
L 2784 0 
L 2784 519 
Q 2616 206 2355 57 
Q 2094 -91 1709 -91 
Q 1097 -91 708 395 
Q 319 881 319 1663 
Q 319 2444 706 2928 
Q 1094 3413 1709 3413 
Q 2094 3413 2355 3264 
Q 2616 3116 2784 2803 
L 2784 4531 
L 2241 4531 
L 2241 4863 
L 3359 4863 
L 3359 331 
z
M 2784 1497 
L 2784 1825 
Q 2784 2422 2554 2737 
Q 2325 3053 1888 3053 
Q 1444 3053 1217 2703 
Q 991 2353 991 1663 
Q 991 975 1217 622 
Q 1444 269 1888 269 
Q 2325 269 2554 583 
Q 2784 897 2784 1497 
z
" transform="scale(0.015625)"/>
      <path id="DejaVuSerif-72" d="M 3059 3328 
L 3059 2497 
L 2728 2497 
Q 2713 2744 2591 2866 
Q 2469 2988 2234 2988 
Q 1809 2988 1582 2694 
Q 1356 2400 1356 1850 
L 1356 331 
L 2022 331 
L 2022 0 
L 263 0 
L 263 331 
L 781 331 
L 781 2994 
L 231 2994 
L 231 3322 
L 1356 3322 
L 1356 2731 
Q 1525 3078 1790 3245 
Q 2056 3413 2438 3413 
Q 2578 3413 2733 3391 
Q 2888 3369 3059 3328 
z
" transform="scale(0.015625)"/>
      <path id="DejaVuSerif-2c" d="M 231 -622 
Q 525 -406 662 -114 
Q 800 178 800 594 
L 800 709 
L 1416 709 
Q 1391 175 1164 -208 
Q 938 -591 481 -872 
L 231 -622 
z
" transform="scale(0.015625)"/>
      <path id="DejaVuSerif-77" d="M 3072 3322 
L 3922 728 
L 4672 2988 
L 4191 2988 
L 4191 3322 
L 5394 3322 
L 5394 2988 
L 5025 2988 
L 4038 0 
L 3559 0 
L 2741 2484 
L 1919 0 
L 1459 0 
L 475 2988 
L 103 2988 
L 103 3322 
L 1606 3322 
L 1606 2988 
L 1069 2988 
L 1813 728 
L 2669 3322 
L 3072 3322 
z
" transform="scale(0.015625)"/>
      <path id="DejaVuSerif-68" d="M 263 0 
L 263 331 
L 781 331 
L 781 4531 
L 231 4531 
L 231 4863 
L 1356 4863 
L 1356 2731 
Q 1516 3069 1770 3241 
Q 2025 3413 2363 3413 
Q 2913 3413 3172 3097 
Q 3431 2781 3431 2113 
L 3431 331 
L 3944 331 
L 3944 0 
L 2356 0 
L 2356 331 
L 2853 331 
L 2853 1931 
Q 2853 2541 2704 2764 
Q 2556 2988 2175 2988 
Q 1775 2988 1565 2697 
Q 1356 2406 1356 1850 
L 1356 331 
L 1856 331 
L 1856 0 
L 263 0 
z
" transform="scale(0.015625)"/>
      <path id="DejaVuSerif-66" d="M 2753 4078 
L 2450 4078 
Q 2447 4313 2317 4434 
Q 2188 4556 1941 4556 
Q 1619 4556 1487 4379 
Q 1356 4203 1356 3750 
L 1356 3322 
L 2284 3322 
L 2284 2988 
L 1356 2988 
L 1356 331 
L 2094 331 
L 2094 0 
L 231 0 
L 231 331 
L 781 331 
L 781 2988 
L 231 2988 
L 231 3322 
L 781 3322 
L 781 3738 
Q 781 4294 1070 4578 
Q 1359 4863 1919 4863 
Q 2128 4863 2337 4825 
Q 2547 4788 2753 4709 
L 2753 4078 
z
" transform="scale(0.015625)"/>
      <path id="DejaVuSerif-75" d="M 2266 3322 
L 3341 3322 
L 3341 331 
L 3884 331 
L 3884 0 
L 2766 0 
L 2766 588 
Q 2606 256 2353 82 
Q 2100 -91 1766 -91 
Q 1213 -91 952 223 
Q 691 538 691 1209 
L 691 2988 
L 172 2988 
L 172 3322 
L 1269 3322 
L 1269 1388 
Q 1269 781 1417 556 
Q 1566 331 1947 331 
Q 2347 331 2556 625 
Q 2766 919 2766 1478 
L 2766 2988 
L 2266 2988 
L 2266 3322 
z
" transform="scale(0.015625)"/>
      <path id="Cmmi10-66" d="M 622 -1056 
Q 741 -1147 909 -1147 
Q 1138 -1147 1281 -641 
Q 1341 -397 1606 966 
L 1900 2534 
L 1350 2534 
Q 1288 2534 1288 2619 
Q 1313 2759 1369 2759 
L 1941 2759 
L 2016 3175 
Q 2053 3369 2084 3508 
Q 2116 3647 2152 3765 
Q 2188 3884 2259 4031 
Q 2369 4241 2555 4377 
Q 2741 4513 2956 4513 
Q 3097 4513 3230 4461 
Q 3363 4409 3447 4306 
Q 3531 4203 3531 4063 
Q 3531 3900 3423 3779 
Q 3316 3659 3163 3659 
Q 3059 3659 2986 3723 
Q 2913 3788 2913 3891 
Q 2913 4031 3008 4136 
Q 3103 4241 3244 4256 
Q 3125 4347 2950 4347 
Q 2853 4347 2767 4256 
Q 2681 4166 2656 4063 
Q 2616 3900 2478 3181 
L 2400 2759 
L 3059 2759 
Q 3122 2759 3122 2675 
Q 3119 2659 3109 2620 
Q 3100 2581 3083 2557 
Q 3066 2534 3041 2534 
L 2356 2534 
L 2059 972 
Q 2003 631 1929 279 
Q 1856 -72 1723 -442 
Q 1591 -813 1384 -1063 
Q 1178 -1313 897 -1313 
Q 681 -1313 511 -1189 
Q 341 -1066 341 -863 
Q 341 -700 445 -579 
Q 550 -459 709 -459 
Q 816 -459 887 -523 
Q 959 -588 959 -691 
Q 959 -828 857 -942 
Q 756 -1056 622 -1056 
z
" transform="scale(0.015625)"/>
      <path id="Cmr10-3a" d="M 538 353 
Q 538 497 644 600 
Q 750 703 891 703 
Q 978 703 1062 656 
Q 1147 609 1194 525 
Q 1241 441 1241 353 
Q 1241 213 1137 106 
Q 1034 0 891 0 
Q 750 0 644 106 
Q 538 213 538 353 
z
M 538 2406 
Q 538 2497 584 2578 
Q 631 2659 714 2709 
Q 797 2759 891 2759 
Q 981 2759 1064 2709 
Q 1147 2659 1194 2578 
Q 1241 2497 1241 2406 
Q 1241 2263 1139 2158 
Q 1038 2053 891 2053 
Q 747 2053 642 2158 
Q 538 2263 538 2406 
z
" transform="scale(0.015625)"/>
      <path id="STIXGeneral-Italic-211d" d="M 1229 4179 
L 3360 4179 
Q 3827 4179 4108 3894 
Q 4390 3610 4390 3142 
Q 4390 2554 4060 2186 
Q 3731 1818 3149 1715 
L 4026 0 
L 2925 0 
L 2125 1690 
L 1549 1690 
L 1094 0 
L 109 0 
L 1229 4179 
z
M 3866 3821 
L 3392 2022 
Q 3770 2144 3962 2438 
Q 4154 2733 4154 3136 
Q 4154 3584 3866 3821 
z
M 3142 1978 
L 3648 3872 
Q 3450 3942 3296 3942 
L 2150 3942 
L 1613 1926 
L 2630 1926 
Q 2957 1926 3142 1978 
z
M 3629 237 
L 2899 1696 
Q 2829 1683 2682 1683 
Q 2630 1683 2531 1686 
Q 2432 1690 2387 1690 
L 3072 237 
L 3629 237 
z
M 1907 3942 
L 1408 3942 
L 416 237 
L 915 237 
L 1907 3942 
z
" transform="scale(0.015625)"/>
      <path id="Cmsy10-21" d="M 481 1472 
Q 428 1472 393 1512 
Q 359 1553 359 1600 
Q 359 1647 393 1687 
Q 428 1728 481 1728 
L 5338 1728 
Q 5094 1903 4906 2133 
Q 4719 2363 4594 2627 
Q 4469 2891 4416 3188 
Q 4416 3272 4481 3272 
L 4609 3272 
Q 4631 3272 4648 3253 
Q 4666 3234 4672 3213 
Q 4725 2938 4839 2702 
Q 4953 2466 5125 2262 
Q 5297 2059 5509 1912 
Q 5722 1766 5991 1672 
Q 6034 1644 6034 1600 
Q 6034 1550 5991 1538 
Q 5656 1422 5378 1192 
Q 5100 963 4919 652 
Q 4738 341 4672 -13 
Q 4666 -34 4647 -53 
Q 4628 -72 4609 -72 
L 4481 -72 
Q 4416 -72 4416 13 
Q 4497 450 4740 836 
Q 4984 1222 5338 1472 
L 481 1472 
z
" transform="scale(0.015625)"/>
      <path id="Cmr10-28" d="M 1984 -1588 
Q 1628 -1306 1370 -942 
Q 1113 -578 948 -165 
Q 784 247 703 697 
Q 622 1147 622 1600 
Q 622 2059 703 2509 
Q 784 2959 951 3375 
Q 1119 3791 1378 4153 
Q 1638 4516 1984 4788 
Q 1984 4800 2016 4800 
L 2075 4800 
Q 2094 4800 2109 4783 
Q 2125 4766 2125 4744 
Q 2125 4716 2113 4703 
Q 1800 4397 1592 4047 
Q 1384 3697 1257 3301 
Q 1131 2906 1075 2482 
Q 1019 2059 1019 1600 
Q 1019 -434 2106 -1491 
Q 2125 -1509 2125 -1544 
Q 2125 -1559 2108 -1579 
Q 2091 -1600 2075 -1600 
L 2016 -1600 
Q 1984 -1600 1984 -1588 
z
" transform="scale(0.015625)"/>
      <path id="Cmmi10-78" d="M 500 184 
Q 613 97 819 97 
Q 1019 97 1172 289 
Q 1325 481 1381 709 
L 1672 1844 
Q 1741 2153 1741 2266 
Q 1741 2425 1652 2544 
Q 1563 2663 1403 2663 
Q 1200 2663 1022 2536 
Q 844 2409 722 2214 
Q 600 2019 550 1819 
Q 538 1778 500 1778 
L 422 1778 
Q 372 1778 372 1838 
L 372 1856 
Q 434 2094 584 2320 
Q 734 2547 951 2687 
Q 1169 2828 1416 2828 
Q 1650 2828 1839 2703 
Q 2028 2578 2106 2363 
Q 2216 2559 2386 2693 
Q 2556 2828 2759 2828 
Q 2897 2828 3040 2779 
Q 3184 2731 3275 2631 
Q 3366 2531 3366 2381 
Q 3366 2219 3261 2101 
Q 3156 1984 2994 1984 
Q 2891 1984 2822 2050 
Q 2753 2116 2753 2216 
Q 2753 2350 2845 2451 
Q 2938 2553 3066 2572 
Q 2950 2663 2747 2663 
Q 2541 2663 2389 2472 
Q 2238 2281 2175 2047 
L 1894 916 
Q 1825 659 1825 494 
Q 1825 331 1917 214 
Q 2009 97 2163 97 
Q 2463 97 2698 361 
Q 2934 625 3009 941 
Q 3022 978 3059 978 
L 3138 978 
Q 3163 978 3178 961 
Q 3194 944 3194 922 
Q 3194 916 3188 903 
Q 3097 522 2806 225 
Q 2516 -72 2150 -72 
Q 1916 -72 1727 54 
Q 1538 181 1459 397 
Q 1359 209 1182 68 
Q 1006 -72 806 -72 
Q 669 -72 523 -23 
Q 378 25 287 125 
Q 197 225 197 378 
Q 197 528 301 651 
Q 406 775 563 775 
Q 669 775 741 711 
Q 813 647 813 544 
Q 813 409 723 309 
Q 634 209 500 184 
z
" transform="scale(0.015625)"/>
      <path id="Cmr10-29" d="M 416 -1600 
Q 359 -1600 359 -1544 
Q 359 -1516 372 -1503 
Q 1466 -434 1466 1600 
Q 1466 3634 384 4691 
Q 359 4706 359 4744 
Q 359 4766 376 4783 
Q 394 4800 416 4800 
L 475 4800 
Q 494 4800 506 4788 
Q 966 4425 1272 3906 
Q 1578 3388 1720 2800 
Q 1863 2213 1863 1600 
Q 1863 1147 1786 708 
Q 1709 269 1542 -157 
Q 1375 -584 1119 -945 
Q 863 -1306 506 -1588 
Q 494 -1600 475 -1600 
L 416 -1600 
z
" transform="scale(0.015625)"/>
      <path id="Cmr10-3d" d="M 481 850 
Q 428 850 393 890 
Q 359 931 359 978 
Q 359 1031 393 1068 
Q 428 1106 481 1106 
L 4500 1106 
Q 4547 1106 4581 1068 
Q 4616 1031 4616 978 
Q 4616 931 4581 890 
Q 4547 850 4500 850 
L 481 850 
z
M 481 2094 
Q 428 2094 393 2131 
Q 359 2169 359 2222 
Q 359 2269 393 2309 
Q 428 2350 481 2350 
L 4500 2350 
Q 4547 2350 4581 2309 
Q 4616 2269 4616 2222 
Q 4616 2169 4581 2131 
Q 4547 2094 4500 2094 
L 481 2094 
z
" transform="scale(0.015625)"/>
      <path id="Cmr10-32" d="M 319 0 
L 319 172 
Q 319 188 331 206 
L 1325 1306 
Q 1550 1550 1690 1715 
Q 1831 1881 1968 2097 
Q 2106 2313 2186 2536 
Q 2266 2759 2266 3009 
Q 2266 3272 2169 3511 
Q 2072 3750 1880 3894 
Q 1688 4038 1416 4038 
Q 1138 4038 916 3870 
Q 694 3703 603 3438 
Q 628 3444 672 3444 
Q 816 3444 917 3347 
Q 1019 3250 1019 3097 
Q 1019 2950 917 2848 
Q 816 2747 672 2747 
Q 522 2747 420 2851 
Q 319 2956 319 3097 
Q 319 3338 409 3548 
Q 500 3759 670 3923 
Q 841 4088 1055 4175 
Q 1269 4263 1509 4263 
Q 1875 4263 2190 4108 
Q 2506 3953 2690 3670 
Q 2875 3388 2875 3009 
Q 2875 2731 2753 2481 
Q 2631 2231 2440 2026 
Q 2250 1822 1953 1562 
Q 1656 1303 1563 1216 
L 838 519 
L 1453 519 
Q 1906 519 2211 526 
Q 2516 534 2534 550 
Q 2609 631 2688 1141 
L 2875 1141 
L 2694 0 
L 319 0 
z
" transform="scale(0.015625)"/>
      <path id="Cmr10-2b" d="M 481 1472 
Q 428 1472 393 1512 
Q 359 1553 359 1600 
Q 359 1647 393 1687 
Q 428 1728 481 1728 
L 2363 1728 
L 2363 3616 
Q 2363 3666 2400 3698 
Q 2438 3731 2491 3731 
Q 2538 3731 2578 3698 
Q 2619 3666 2619 3616 
L 2619 1728 
L 4500 1728 
Q 4547 1728 4581 1687 
Q 4616 1647 4616 1600 
Q 4616 1553 4581 1512 
Q 4547 1472 4500 1472 
L 2619 1472 
L 2619 -416 
Q 2619 -466 2578 -498 
Q 2538 -531 2491 -531 
Q 2438 -531 2400 -498 
Q 2363 -466 2363 -416 
L 2363 1472 
L 481 1472 
z
" transform="scale(0.015625)"/>
      <path id="Cmsy10-32" d="M 1356 403 
Q 1838 0 2497 0 
L 3616 0 
Q 3666 0 3698 -37 
Q 3731 -75 3731 -128 
Q 3731 -175 3698 -215 
Q 3666 -256 3616 -256 
L 2478 -256 
Q 1969 -256 1519 -12 
Q 1069 231 800 657 
Q 531 1084 531 1600 
Q 531 2116 800 2542 
Q 1069 2969 1519 3212 
Q 1969 3456 2478 3456 
L 3616 3456 
Q 3666 3456 3698 3415 
Q 3731 3375 3731 3328 
Q 3731 3275 3698 3237 
Q 3666 3200 3616 3200 
L 2497 3200 
Q 2184 3200 1889 3097 
Q 1594 2994 1356 2797 
Q 1122 2600 958 2304 
Q 794 2009 794 1728 
L 3616 1728 
Q 3666 1728 3698 1687 
Q 3731 1647 3731 1600 
Q 3731 1553 3698 1512 
Q 3666 1472 3616 1472 
L 794 1472 
Q 794 1194 958 897 
Q 1122 600 1356 403 
z
" transform="scale(0.015625)"/>
     </defs>
     <use xlink:href="#DejaVuSerif-4c" transform="translate(0 0.109375)"/>
     <use xlink:href="#DejaVuSerif-65" transform="translate(66.40625 0.109375)"/>
     <use xlink:href="#DejaVuSerif-74" transform="translate(125.585938 0.109375)"/>
     <use xlink:href="#DejaVuSerif-20" transform="translate(165.771484 0.109375)"/>
     <use xlink:href="#Cmmi10-63" transform="translate(197.558594 0.109375)"/>
     <use xlink:href="#Cmmi10-3e" transform="translate(258.330078 0.109375)"/>
     <use xlink:href="#Cmr10-30" transform="translate(353.574219 0.109375)"/>
     <use xlink:href="#DejaVuSerif-20" transform="translate(403.574219 0.109375)"/>
     <use xlink:href="#DejaVuSerif-62" transform="translate(435.361328 0.109375)"/>
     <use xlink:href="#DejaVuSerif-65" transform="translate(499.375 0.109375)"/>
     <use xlink:href="#DejaVuSerif-20" transform="translate(558.554688 0.109375)"/>
     <use xlink:href="#DejaVuSerif-61" transform="translate(590.341797 0.109375)"/>
     <use xlink:href="#DejaVuSerif-20" transform="translate(649.960938 0.109375)"/>
     <use xlink:href="#DejaVuSerif-63" transform="translate(681.748047 0.109375)"/>
     <use xlink:href="#DejaVuSerif-6f" transform="translate(737.753906 0.109375)"/>
     <use xlink:href="#DejaVuSerif-6e" transform="translate(797.958984 0.109375)"/>
     <use xlink:href="#DejaVuSerif-73" transform="translate(862.363281 0.109375)"/>
     <use xlink:href="#DejaVuSerif-74" transform="translate(913.681641 0.109375)"/>
     <use xlink:href="#DejaVuSerif-61" transform="translate(953.867188 0.109375)"/>
     <use xlink:href="#DejaVuSerif-6e" transform="translate(1013.486328 0.109375)"/>
     <use xlink:href="#DejaVuSerif-74" transform="translate(1077.890625 0.109375)"/>
     <use xlink:href="#DejaVuSerif-2e" transform="translate(1118.076172 0.109375)"/>
     <use xlink:href="#DejaVuSerif-20" transform="translate(1149.863281 0.109375)"/>
     <use xlink:href="#DejaVuSerif-47" transform="translate(1181.650391 0.109375)"/>
     <use xlink:href="#DejaVuSerif-69" transform="translate(1261.533203 0.109375)"/>
     <use xlink:href="#DejaVuSerif-76" transform="translate(1293.515625 0.109375)"/>
     <use xlink:href="#DejaVuSerif-65" transform="translate(1350.009766 0.109375)"/>
     <use xlink:href="#DejaVuSerif-20" transform="translate(1409.189453 0.109375)"/>
     <use xlink:href="#DejaVuSerif-61" transform="translate(1440.976562 0.109375)"/>
     <use xlink:href="#DejaVuSerif-20" transform="translate(1500.595703 0.109375)"/>
     <use xlink:href="#DejaVuSerif-63" transform="translate(1532.382812 0.109375)"/>
     <use xlink:href="#DejaVuSerif-6f" transform="translate(1588.388672 0.109375)"/>
     <use xlink:href="#DejaVuSerif-6d" transform="translate(1648.59375 0.109375)"/>
     <use xlink:href="#DejaVuSerif-70" transform="translate(1743.417969 0.109375)"/>
     <use xlink:href="#DejaVuSerif-6c" transform="translate(1807.431641 0.109375)"/>
     <use xlink:href="#DejaVuSerif-65" transform="translate(1839.414062 0.109375)"/>
     <use xlink:href="#DejaVuSerif-74" transform="translate(1898.59375 0.109375)"/>
     <use xlink:href="#DejaVuSerif-65" transform="translate(1938.779297 0.109375)"/>
     <use xlink:href="#DejaVuSerif-20" transform="translate(1997.958984 0.109375)"/>
     <use xlink:href="#DejaVuSerif-64" transform="translate(2029.746094 0.109375)"/>
     <use xlink:href="#DejaVuSerif-65" transform="translate(2093.759766 0.109375)"/>
     <use xlink:href="#DejaVuSerif-73" transform="translate(2152.939453 0.109375)"/>
     <use xlink:href="#DejaVuSerif-63" transform="translate(2204.257812 0.109375)"/>
     <use xlink:href="#DejaVuSerif-72" transform="translate(2260.263672 0.109375)"/>
     <use xlink:href="#DejaVuSerif-69" transform="translate(2308.066406 0.109375)"/>
     <use xlink:href="#DejaVuSerif-70" transform="translate(2340.048828 0.109375)"/>
     <use xlink:href="#DejaVuSerif-74" transform="translate(2404.0625 0.109375)"/>
     <use xlink:href="#DejaVuSerif-69" transform="translate(2444.248047 0.109375)"/>
     <use xlink:href="#DejaVuSerif-6f" transform="translate(2476.230469 0.109375)"/>
     <use xlink:href="#DejaVuSerif-6e" transform="translate(2536.435547 0.109375)"/>
     <use xlink:href="#DejaVuSerif-2c" transform="translate(2600.839844 0.109375)"/>
     <use xlink:href="#DejaVuSerif-20" transform="translate(2632.626953 0.109375)"/>
     <use xlink:href="#DejaVuSerif-77" transform="translate(2664.414062 0.109375)"/>
     <use xlink:href="#DejaVuSerif-69" transform="translate(2750.009766 0.109375)"/>
     <use xlink:href="#DejaVuSerif-74" transform="translate(2781.992188 0.109375)"/>
     <use xlink:href="#DejaVuSerif-68" transform="translate(2822.177734 0.109375)"/>
     <use xlink:href="#DejaVuSerif-20" transform="translate(2886.582031 0.109375)"/>
     <use xlink:href="#DejaVuSerif-70" transform="translate(2918.369141 0.109375)"/>
     <use xlink:href="#DejaVuSerif-72" transform="translate(2982.382812 0.109375)"/>
     <use xlink:href="#DejaVuSerif-6f" transform="translate(3030.185547 0.109375)"/>
     <use xlink:href="#DejaVuSerif-6f" transform="translate(3090.390625 0.109375)"/>
     <use xlink:href="#DejaVuSerif-66" transform="translate(3150.595703 0.109375)"/>
     <use xlink:href="#DejaVuSerif-2c" transform="translate(3187.607422 0.109375)"/>
     <use xlink:href="#DejaVuSerif-20" transform="translate(3219.394531 0.109375)"/>
     <use xlink:href="#DejaVuSerif-6f" transform="translate(3251.181641 0.109375)"/>
     <use xlink:href="#DejaVuSerif-66" transform="translate(3311.386719 0.109375)"/>
     <use xlink:href="#DejaVuSerif-20" transform="translate(3348.398438 0.109375)"/>
     <use xlink:href="#DejaVuSerif-74" transform="translate(3380.185547 0.109375)"/>
     <use xlink:href="#DejaVuSerif-68" transform="translate(3420.371094 0.109375)"/>
     <use xlink:href="#DejaVuSerif-65" transform="translate(3484.775391 0.109375)"/>
     <use xlink:href="#DejaVuSerif-20" transform="translate(3543.955078 0.109375)"/>
     <use xlink:href="#DejaVuSerif-73" transform="translate(3575.742188 0.109375)"/>
     <use xlink:href="#DejaVuSerif-65" transform="translate(3627.060547 0.109375)"/>
     <use xlink:href="#DejaVuSerif-74" transform="translate(3686.240234 0.109375)"/>
     <use xlink:href="#DejaVuSerif-20" transform="translate(3726.425781 0.109375)"/>
     <use xlink:href="#DejaVuSerif-6f" transform="translate(3758.212891 0.109375)"/>
     <use xlink:href="#DejaVuSerif-66" transform="translate(3818.417969 0.109375)"/>
     <use xlink:href="#DejaVuSerif-20" transform="translate(3855.429688 0.109375)"/>
     <use xlink:href="#DejaVuSerif-61" transform="translate(3887.216797 0.109375)"/>
     <use xlink:href="#DejaVuSerif-6c" transform="translate(3946.835938 0.109375)"/>
     <use xlink:href="#DejaVuSerif-6c" transform="translate(3978.818359 0.109375)"/>
     <use xlink:href="#DejaVuSerif-20" transform="translate(4010.800781 0.109375)"/>
     <use xlink:href="#DejaVuSerif-63" transform="translate(4042.587891 0.109375)"/>
     <use xlink:href="#DejaVuSerif-6f" transform="translate(4098.59375 0.109375)"/>
     <use xlink:href="#DejaVuSerif-6e" transform="translate(4158.798828 0.109375)"/>
     <use xlink:href="#DejaVuSerif-74" transform="translate(4223.203125 0.109375)"/>
     <use xlink:href="#DejaVuSerif-69" transform="translate(4263.388672 0.109375)"/>
     <use xlink:href="#DejaVuSerif-6e" transform="translate(4295.371094 0.109375)"/>
     <use xlink:href="#DejaVuSerif-75" transform="translate(4359.775391 0.109375)"/>
     <use xlink:href="#DejaVuSerif-6f" transform="translate(4424.179688 0.109375)"/>
     <use xlink:href="#DejaVuSerif-75" transform="translate(4484.384766 0.109375)"/>
     <use xlink:href="#DejaVuSerif-73" transform="translate(4548.789062 0.109375)"/>
     <use xlink:href="#DejaVuSerif-20" transform="translate(4600.107422 0.109375)"/>
     <use xlink:href="#DejaVuSerif-66" transform="translate(4631.894531 0.109375)"/>
     <use xlink:href="#DejaVuSerif-75" transform="translate(4668.90625 0.109375)"/>
     <use xlink:href="#DejaVuSerif-6e" transform="translate(4733.310547 0.109375)"/>
     <use xlink:href="#DejaVuSerif-63" transform="translate(4797.714844 0.109375)"/>
     <use xlink:href="#DejaVuSerif-74" transform="translate(4853.720703 0.109375)"/>
     <use xlink:href="#DejaVuSerif-69" transform="translate(4893.90625 0.109375)"/>
     <use xlink:href="#DejaVuSerif-6f" transform="translate(4925.888672 0.109375)"/>
     <use xlink:href="#DejaVuSerif-6e" transform="translate(4986.09375 0.109375)"/>
     <use xlink:href="#DejaVuSerif-73" transform="translate(5050.498047 0.109375)"/>
     <use xlink:href="#DejaVuSerif-20" transform="translate(5101.816406 0.109375)"/>
     <use xlink:href="#Cmmi10-66" transform="translate(5133.603516 0.109375)"/>
     <use xlink:href="#Cmr10-3a" transform="translate(5200.039062 0.109375)"/>
     <use xlink:href="#STIXGeneral-Italic-211d" transform="translate(5245.283203 0.109375)"/>
     <use xlink:href="#Cmsy10-21" transform="translate(5331.541779 0.109375)"/>
     <use xlink:href="#STIXGeneral-Italic-211d" transform="translate(5449.100372 0.109375)"/>
     <use xlink:href="#DejaVuSerif-20" transform="translate(5517.800354 0.109375)"/>
     <use xlink:href="#DejaVuSerif-73" transform="translate(5549.587463 0.109375)"/>
     <use xlink:href="#DejaVuSerif-75" transform="translate(5600.905823 0.109375)"/>
     <use xlink:href="#DejaVuSerif-63" transform="translate(5665.31012 0.109375)"/>
     <use xlink:href="#DejaVuSerif-68" transform="translate(5721.315979 0.109375)"/>
     <use xlink:href="#DejaVuSerif-20" transform="translate(5785.720276 0.109375)"/>
     <use xlink:href="#DejaVuSerif-74" transform="translate(5817.507385 0.109375)"/>
     <use xlink:href="#DejaVuSerif-68" transform="translate(5857.692932 0.109375)"/>
     <use xlink:href="#DejaVuSerif-61" transform="translate(5922.097229 0.109375)"/>
     <use xlink:href="#DejaVuSerif-74" transform="translate(5981.71637 0.109375)"/>
     <use xlink:href="#DejaVuSerif-20" transform="translate(6021.901917 0.109375)"/>
     <use xlink:href="#Cmmi10-66" transform="translate(6053.689026 0.109375)"/>
     <use xlink:href="#Cmr10-28" transform="translate(6102.565979 0.109375)"/>
     <use xlink:href="#Cmmi10-78" transform="translate(6141.384338 0.109375)"/>
     <use xlink:href="#Cmr10-29" transform="translate(6198.464417 0.109375)"/>
     <use xlink:href="#Cmr10-3d" transform="translate(6254.84137 0.109375)"/>
     <use xlink:href="#Cmmi10-66" transform="translate(6350.08551 0.109375)"/>
     <use xlink:href="#Cmr10-28" transform="translate(6398.962463 0.109375)"/>
     <use xlink:href="#Cmmi10-78" transform="translate(6437.780823 0.109375)"/>
     <use xlink:href="#Cmr10-32" transform="translate(6501.164182 38.373438) scale(0.7)"/>
     <use xlink:href="#Cmr10-2b" transform="translate(6560.10012 0.109375)"/>
     <use xlink:href="#Cmmi10-63" transform="translate(6655.34426 0.109375)"/>
     <use xlink:href="#Cmr10-29" transform="translate(6698.557151 0.109375)"/>
     <use xlink:href="#DejaVuSerif-20" transform="translate(6737.37551 0.109375)"/>
     <use xlink:href="#DejaVuSerif-66" transform="translate(6769.16262 0.109375)"/>
     <use xlink:href="#DejaVuSerif-6f" transform="translate(6806.174338 0.109375)"/>
     <use xlink:href="#DejaVuSerif-72" transform="translate(6866.379417 0.109375)"/>
     <use xlink:href="#DejaVuSerif-20" transform="translate(6914.182151 0.109375)"/>
     <use xlink:href="#DejaVuSerif-61" transform="translate(6945.96926 0.109375)"/>
     <use xlink:href="#DejaVuSerif-6c" transform="translate(7005.588401 0.109375)"/>
     <use xlink:href="#DejaVuSerif-6c" transform="translate(7037.570823 0.109375)"/>
     <use xlink:href="#DejaVuSerif-20" transform="translate(7069.553245 0.109375)"/>
     <use xlink:href="#Cmmi10-78" transform="translate(7101.340354 0.109375)"/>
     <use xlink:href="#Cmsy10-32" transform="translate(7175.979026 0.109375)"/>
     <use xlink:href="#STIXGeneral-Italic-211d" transform="translate(7260.139182 0.109375)"/>
     <use xlink:href="#DejaVuSerif-2e" transform="translate(7328.839164 0.109375)"/>
    </g>
   </g>
  </g>
 </g>
</svg>
