<?xml version="1.0" encoding="utf-8" standalone="no"?>
<!DOCTYPE svg PUBLIC "-//W3C//DTD SVG 1.1//EN"
  "http://www.w3.org/Graphics/SVG/1.1/DTD/svg11.dtd">
<svg xmlns:xlink="http://www.w3.org/1999/xlink" width="1059.84pt" height="180.72pt" viewBox="0 0 1059.84 180.72" xmlns="http://www.w3.org/2000/svg" version="1.1">
 <metadata>
  <rdf:RDF xmlns:dc="http://purl.org/dc/elements/1.1/" xmlns:cc="http://creativecommons.org/ns#" xmlns:rdf="http://www.w3.org/1999/02/22-rdf-syntax-ns#">
   <cc:Work>
    <dc:type rdf:resource="http://purl.org/dc/dcmitype/StillImage"/>
    <dc:date>2025-05-29T18:43:54.344996</dc:date>
    <dc:format>image/svg+xml</dc:format>
    <dc:creator>
     <cc:Agent>
      <dc:title>Matplotlib v3.10.3, https://matplotlib.org/</dc:title>
     </cc:Agent>
    </dc:creator>
   </cc:Work>
  </rdf:RDF>
 </metadata>
 <defs>
  <style type="text/css">*{stroke-linejoin: round; stroke-linecap: butt}</style>
 </defs>
 <g id="figure_1">
  <g id="patch_1">
   <path d="M 0 180.72 
L 1059.84 180.72 
L 1059.84 0 
L 0 0 
z
" style="fill: #ffffff"/>
  </g>
  <g id="axes_1">
   <g id="text_1">
    <!-- Prove that there are only a finite number of possibilities for the ordered triple $T=(x-y,y-z,z-x)$, where $x,y,z$ are complex numbers satisfying the simultaneous equations -->
    <g transform="translate(7.2 66.446625) scale(0.12 -0.12)">
     <defs>
      <path id="DejaVuSerif-50" d="M 1581 2375 
L 2406 2375 
Q 2872 2375 3115 2626 
Q 3359 2878 3359 3353 
Q 3359 3831 3115 4081 
Q 2872 4331 2406 4331 
L 1581 4331 
L 1581 2375 
z
M 353 0 
L 353 331 
L 947 331 
L 947 4331 
L 353 4331 
L 353 4666 
L 2559 4666 
Q 3259 4666 3668 4311 
Q 4078 3956 4078 3353 
Q 4078 2753 3668 2397 
Q 3259 2041 2559 2041 
L 1581 2041 
L 1581 331 
L 2303 331 
L 2303 0 
L 353 0 
z
" transform="scale(0.015625)"/>
      <path id="DejaVuSerif-72" d="M 3059 3328 
L 3059 2497 
L 2728 2497 
Q 2713 2744 2591 2866 
Q 2469 2988 2234 2988 
Q 1809 2988 1582 2694 
Q 1356 2400 1356 1850 
L 1356 331 
L 2022 331 
L 2022 0 
L 263 0 
L 263 331 
L 781 331 
L 781 2994 
L 231 2994 
L 231 3322 
L 1356 3322 
L 1356 2731 
Q 1525 3078 1790 3245 
Q 2056 3413 2438 3413 
Q 2578 3413 2733 3391 
Q 2888 3369 3059 3328 
z
" transform="scale(0.015625)"/>
      <path id="DejaVuSerif-6f" d="M 1925 219 
Q 2388 219 2623 584 
Q 2859 950 2859 1663 
Q 2859 2375 2623 2739 
Q 2388 3103 1925 3103 
Q 1463 3103 1227 2739 
Q 991 2375 991 1663 
Q 991 950 1228 584 
Q 1466 219 1925 219 
z
M 1925 -91 
Q 1200 -91 759 389 
Q 319 869 319 1663 
Q 319 2456 758 2934 
Q 1197 3413 1925 3413 
Q 2653 3413 3092 2934 
Q 3531 2456 3531 1663 
Q 3531 869 3092 389 
Q 2653 -91 1925 -91 
z
" transform="scale(0.015625)"/>
      <path id="DejaVuSerif-76" d="M 1581 0 
L 359 2988 
L -19 2988 
L -19 3322 
L 1509 3322 
L 1509 2988 
L 978 2988 
L 1913 703 
L 2847 2988 
L 2350 2988 
L 2350 3322 
L 3597 3322 
L 3597 2988 
L 3225 2988 
L 2003 0 
L 1581 0 
z
" transform="scale(0.015625)"/>
      <path id="DejaVuSerif-65" d="M 3469 1600 
L 991 1600 
L 991 1575 
Q 991 903 1244 561 
Q 1497 219 1991 219 
Q 2369 219 2611 417 
Q 2853 616 2950 1006 
L 3413 1006 
Q 3275 459 2904 184 
Q 2534 -91 1931 -91 
Q 1203 -91 761 389 
Q 319 869 319 1663 
Q 319 2450 753 2931 
Q 1188 3413 1894 3413 
Q 2647 3413 3050 2948 
Q 3453 2484 3469 1600 
z
M 2791 1931 
Q 2772 2513 2545 2808 
Q 2319 3103 1894 3103 
Q 1497 3103 1269 2806 
Q 1041 2509 991 1931 
L 2791 1931 
z
" transform="scale(0.015625)"/>
      <path id="DejaVuSerif-20" transform="scale(0.015625)"/>
      <path id="DejaVuSerif-74" d="M 691 2988 
L 184 2988 
L 184 3322 
L 691 3322 
L 691 4353 
L 1269 4353 
L 1269 3322 
L 2350 3322 
L 2350 2988 
L 1269 2988 
L 1269 878 
Q 1269 456 1350 337 
Q 1431 219 1650 219 
Q 1875 219 1978 351 
Q 2081 484 2088 781 
L 2522 781 
Q 2497 328 2275 118 
Q 2053 -91 1600 -91 
Q 1103 -91 897 129 
Q 691 350 691 878 
L 691 2988 
z
" transform="scale(0.015625)"/>
      <path id="DejaVuSerif-68" d="M 263 0 
L 263 331 
L 781 331 
L 781 4531 
L 231 4531 
L 231 4863 
L 1356 4863 
L 1356 2731 
Q 1516 3069 1770 3241 
Q 2025 3413 2363 3413 
Q 2913 3413 3172 3097 
Q 3431 2781 3431 2113 
L 3431 331 
L 3944 331 
L 3944 0 
L 2356 0 
L 2356 331 
L 2853 331 
L 2853 1931 
Q 2853 2541 2704 2764 
Q 2556 2988 2175 2988 
Q 1775 2988 1565 2697 
Q 1356 2406 1356 1850 
L 1356 331 
L 1856 331 
L 1856 0 
L 263 0 
z
" transform="scale(0.015625)"/>
      <path id="DejaVuSerif-61" d="M 2547 1044 
L 2547 1747 
L 1806 1747 
Q 1378 1747 1168 1562 
Q 959 1378 959 997 
Q 959 650 1171 447 
Q 1384 244 1747 244 
Q 2106 244 2326 466 
Q 2547 688 2547 1044 
z
M 3122 2075 
L 3122 331 
L 3634 331 
L 3634 0 
L 2547 0 
L 2547 359 
Q 2356 128 2106 18 
Q 1856 -91 1522 -91 
Q 969 -91 644 203 
Q 319 497 319 997 
Q 319 1513 691 1797 
Q 1063 2081 1741 2081 
L 2547 2081 
L 2547 2309 
Q 2547 2688 2317 2895 
Q 2088 3103 1672 3103 
Q 1328 3103 1125 2947 
Q 922 2791 872 2484 
L 575 2484 
L 575 3156 
Q 875 3284 1158 3348 
Q 1441 3413 1709 3413 
Q 2400 3413 2761 3070 
Q 3122 2728 3122 2075 
z
" transform="scale(0.015625)"/>
      <path id="DejaVuSerif-6e" d="M 263 0 
L 263 331 
L 781 331 
L 781 2988 
L 231 2988 
L 231 3322 
L 1356 3322 
L 1356 2731 
Q 1516 3069 1770 3241 
Q 2025 3413 2363 3413 
Q 2913 3413 3172 3097 
Q 3431 2781 3431 2113 
L 3431 331 
L 3944 331 
L 3944 0 
L 2356 0 
L 2356 331 
L 2853 331 
L 2853 1931 
Q 2853 2541 2703 2767 
Q 2553 2994 2175 2994 
Q 1775 2994 1565 2701 
Q 1356 2409 1356 1850 
L 1356 331 
L 1856 331 
L 1856 0 
L 263 0 
z
" transform="scale(0.015625)"/>
      <path id="DejaVuSerif-6c" d="M 1313 331 
L 1856 331 
L 1856 0 
L 184 0 
L 184 331 
L 738 331 
L 738 4531 
L 184 4531 
L 184 4863 
L 1313 4863 
L 1313 331 
z
" transform="scale(0.015625)"/>
      <path id="DejaVuSerif-79" d="M 1381 -609 
L 1600 -56 
L 359 2988 
L -19 2988 
L -19 3322 
L 1509 3322 
L 1509 2988 
L 978 2988 
L 1913 703 
L 2847 2988 
L 2350 2988 
L 2350 3322 
L 3597 3322 
L 3597 2988 
L 3225 2988 
L 1703 -750 
Q 1547 -1138 1356 -1280 
Q 1166 -1422 819 -1422 
Q 672 -1422 517 -1397 
Q 363 -1372 206 -1325 
L 206 -691 
L 500 -691 
Q 519 -903 608 -995 
Q 697 -1088 884 -1088 
Q 1056 -1088 1161 -992 
Q 1266 -897 1381 -609 
z
" transform="scale(0.015625)"/>
      <path id="DejaVuSerif-66" d="M 2753 4078 
L 2450 4078 
Q 2447 4313 2317 4434 
Q 2188 4556 1941 4556 
Q 1619 4556 1487 4379 
Q 1356 4203 1356 3750 
L 1356 3322 
L 2284 3322 
L 2284 2988 
L 1356 2988 
L 1356 331 
L 2094 331 
L 2094 0 
L 231 0 
L 231 331 
L 781 331 
L 781 2988 
L 231 2988 
L 231 3322 
L 781 3322 
L 781 3738 
Q 781 4294 1070 4578 
Q 1359 4863 1919 4863 
Q 2128 4863 2337 4825 
Q 2547 4788 2753 4709 
L 2753 4078 
z
" transform="scale(0.015625)"/>
      <path id="DejaVuSerif-69" d="M 622 4353 
Q 622 4497 726 4603 
Q 831 4709 978 4709 
Q 1122 4709 1226 4603 
Q 1331 4497 1331 4353 
Q 1331 4206 1228 4103 
Q 1125 4000 978 4000 
Q 831 4000 726 4103 
Q 622 4206 622 4353 
z
M 1356 331 
L 1900 331 
L 1900 0 
L 231 0 
L 231 331 
L 781 331 
L 781 2988 
L 231 2988 
L 231 3322 
L 1356 3322 
L 1356 331 
z
" transform="scale(0.015625)"/>
      <path id="DejaVuSerif-75" d="M 2266 3322 
L 3341 3322 
L 3341 331 
L 3884 331 
L 3884 0 
L 2766 0 
L 2766 588 
Q 2606 256 2353 82 
Q 2100 -91 1766 -91 
Q 1213 -91 952 223 
Q 691 538 691 1209 
L 691 2988 
L 172 2988 
L 172 3322 
L 1269 3322 
L 1269 1388 
Q 1269 781 1417 556 
Q 1566 331 1947 331 
Q 2347 331 2556 625 
Q 2766 919 2766 1478 
L 2766 2988 
L 2266 2988 
L 2266 3322 
z
" transform="scale(0.015625)"/>
      <path id="DejaVuSerif-6d" d="M 3316 2675 
Q 3481 3041 3739 3227 
Q 3997 3413 4341 3413 
Q 4863 3413 5119 3089 
Q 5375 2766 5375 2113 
L 5375 331 
L 5894 331 
L 5894 0 
L 4300 0 
L 4300 331 
L 4800 331 
L 4800 2047 
Q 4800 2556 4650 2772 
Q 4500 2988 4153 2988 
Q 3769 2988 3567 2697 
Q 3366 2406 3366 1850 
L 3366 331 
L 3866 331 
L 3866 0 
L 2291 0 
L 2291 331 
L 2791 331 
L 2791 2069 
Q 2791 2566 2641 2777 
Q 2491 2988 2144 2988 
Q 1759 2988 1557 2697 
Q 1356 2406 1356 1850 
L 1356 331 
L 1856 331 
L 1856 0 
L 263 0 
L 263 331 
L 781 331 
L 781 2994 
L 231 2994 
L 231 3322 
L 1356 3322 
L 1356 2731 
Q 1516 3063 1762 3238 
Q 2009 3413 2322 3413 
Q 2709 3413 2968 3220 
Q 3228 3028 3316 2675 
z
" transform="scale(0.015625)"/>
      <path id="DejaVuSerif-62" d="M 738 331 
L 738 4531 
L 184 4531 
L 184 4863 
L 1313 4863 
L 1313 2803 
Q 1481 3116 1742 3264 
Q 2003 3413 2388 3413 
Q 3000 3413 3387 2928 
Q 3775 2444 3775 1663 
Q 3775 881 3387 395 
Q 3000 -91 2388 -91 
Q 2003 -91 1742 57 
Q 1481 206 1313 519 
L 1313 0 
L 184 0 
L 184 331 
L 738 331 
z
M 1313 1497 
Q 1313 897 1542 583 
Q 1772 269 2209 269 
Q 2650 269 2876 622 
Q 3103 975 3103 1663 
Q 3103 2353 2876 2703 
Q 2650 3053 2209 3053 
Q 1772 3053 1542 2737 
Q 1313 2422 1313 1825 
L 1313 1497 
z
" transform="scale(0.015625)"/>
      <path id="DejaVuSerif-70" d="M 1313 1825 
L 1313 1497 
Q 1313 897 1542 583 
Q 1772 269 2209 269 
Q 2650 269 2876 622 
Q 3103 975 3103 1663 
Q 3103 2353 2876 2703 
Q 2650 3053 2209 3053 
Q 1772 3053 1542 2737 
Q 1313 2422 1313 1825 
z
M 738 2988 
L 184 2988 
L 184 3322 
L 1313 3322 
L 1313 2803 
Q 1481 3116 1742 3264 
Q 2003 3413 2388 3413 
Q 3000 3413 3387 2928 
Q 3775 2444 3775 1663 
Q 3775 881 3387 395 
Q 3000 -91 2388 -91 
Q 2003 -91 1742 57 
Q 1481 206 1313 519 
L 1313 -997 
L 1856 -997 
L 1856 -1331 
L 184 -1331 
L 184 -997 
L 738 -997 
L 738 2988 
z
" transform="scale(0.015625)"/>
      <path id="DejaVuSerif-73" d="M 359 184 
L 359 959 
L 691 959 
Q 703 588 923 403 
Q 1144 219 1575 219 
Q 1963 219 2166 364 
Q 2369 509 2369 788 
Q 2369 1006 2220 1140 
Q 2072 1275 1594 1428 
L 1178 1569 
Q 750 1706 558 1912 
Q 366 2119 366 2438 
Q 366 2894 700 3153 
Q 1034 3413 1625 3413 
Q 1888 3413 2178 3344 
Q 2469 3275 2778 3144 
L 2778 2419 
L 2447 2419 
Q 2434 2741 2221 2922 
Q 2009 3103 1644 3103 
Q 1281 3103 1095 2975 
Q 909 2847 909 2591 
Q 909 2381 1050 2254 
Q 1191 2128 1613 1997 
L 2069 1856 
Q 2541 1709 2748 1489 
Q 2956 1269 2956 922 
Q 2956 450 2595 179 
Q 2234 -91 1600 -91 
Q 1278 -91 972 -22 
Q 666 47 359 184 
z
" transform="scale(0.015625)"/>
      <path id="DejaVuSerif-64" d="M 3359 331 
L 3909 331 
L 3909 0 
L 2784 0 
L 2784 519 
Q 2616 206 2355 57 
Q 2094 -91 1709 -91 
Q 1097 -91 708 395 
Q 319 881 319 1663 
Q 319 2444 706 2928 
Q 1094 3413 1709 3413 
Q 2094 3413 2355 3264 
Q 2616 3116 2784 2803 
L 2784 4531 
L 2241 4531 
L 2241 4863 
L 3359 4863 
L 3359 331 
z
M 2784 1497 
L 2784 1825 
Q 2784 2422 2554 2737 
Q 2325 3053 1888 3053 
Q 1444 3053 1217 2703 
Q 991 2353 991 1663 
Q 991 975 1217 622 
Q 1444 269 1888 269 
Q 2325 269 2554 583 
Q 2784 897 2784 1497 
z
" transform="scale(0.015625)"/>
      <path id="Cmmi10-54" d="M 294 84 
Q 297 100 308 140 
Q 319 181 336 203 
Q 353 225 384 225 
Q 934 225 1113 256 
Q 1284 300 1319 441 
L 2194 3956 
Q 2222 4034 2222 4097 
Q 2222 4147 1997 4147 
L 1625 4147 
Q 1197 4147 964 4015 
Q 731 3884 622 3668 
Q 513 3453 341 2963 
Q 319 2906 275 2906 
L 219 2906 
Q 153 2906 153 2988 
L 609 4313 
Q 622 4372 672 4372 
L 4453 4372 
Q 4519 4372 4519 4288 
L 4306 2963 
Q 4306 2944 4284 2925 
Q 4263 2906 4244 2906 
L 4184 2906 
Q 4122 2906 4122 2988 
Q 4191 3441 4191 3628 
Q 4191 3853 4097 3968 
Q 4003 4084 3853 4115 
Q 3703 4147 3463 4147 
L 3084 4147 
Q 2913 4147 2853 4115 
Q 2794 4084 2753 3928 
L 1875 416 
Q 1872 403 1870 390 
Q 1869 378 1863 359 
Q 1863 278 1959 256 
Q 2125 225 2669 225 
Q 2731 225 2731 141 
Q 2709 50 2696 25 
Q 2684 0 2625 0 
L 359 0 
Q 294 0 294 84 
z
" transform="scale(0.015625)"/>
      <path id="Cmr10-3d" d="M 481 850 
Q 428 850 393 890 
Q 359 931 359 978 
Q 359 1031 393 1068 
Q 428 1106 481 1106 
L 4500 1106 
Q 4547 1106 4581 1068 
Q 4616 1031 4616 978 
Q 4616 931 4581 890 
Q 4547 850 4500 850 
L 481 850 
z
M 481 2094 
Q 428 2094 393 2131 
Q 359 2169 359 2222 
Q 359 2269 393 2309 
Q 428 2350 481 2350 
L 4500 2350 
Q 4547 2350 4581 2309 
Q 4616 2269 4616 2222 
Q 4616 2169 4581 2131 
Q 4547 2094 4500 2094 
L 481 2094 
z
" transform="scale(0.015625)"/>
      <path id="Cmr10-28" d="M 1984 -1588 
Q 1628 -1306 1370 -942 
Q 1113 -578 948 -165 
Q 784 247 703 697 
Q 622 1147 622 1600 
Q 622 2059 703 2509 
Q 784 2959 951 3375 
Q 1119 3791 1378 4153 
Q 1638 4516 1984 4788 
Q 1984 4800 2016 4800 
L 2075 4800 
Q 2094 4800 2109 4783 
Q 2125 4766 2125 4744 
Q 2125 4716 2113 4703 
Q 1800 4397 1592 4047 
Q 1384 3697 1257 3301 
Q 1131 2906 1075 2482 
Q 1019 2059 1019 1600 
Q 1019 -434 2106 -1491 
Q 2125 -1509 2125 -1544 
Q 2125 -1559 2108 -1579 
Q 2091 -1600 2075 -1600 
L 2016 -1600 
Q 1984 -1600 1984 -1588 
z
" transform="scale(0.015625)"/>
      <path id="Cmmi10-78" d="M 500 184 
Q 613 97 819 97 
Q 1019 97 1172 289 
Q 1325 481 1381 709 
L 1672 1844 
Q 1741 2153 1741 2266 
Q 1741 2425 1652 2544 
Q 1563 2663 1403 2663 
Q 1200 2663 1022 2536 
Q 844 2409 722 2214 
Q 600 2019 550 1819 
Q 538 1778 500 1778 
L 422 1778 
Q 372 1778 372 1838 
L 372 1856 
Q 434 2094 584 2320 
Q 734 2547 951 2687 
Q 1169 2828 1416 2828 
Q 1650 2828 1839 2703 
Q 2028 2578 2106 2363 
Q 2216 2559 2386 2693 
Q 2556 2828 2759 2828 
Q 2897 2828 3040 2779 
Q 3184 2731 3275 2631 
Q 3366 2531 3366 2381 
Q 3366 2219 3261 2101 
Q 3156 1984 2994 1984 
Q 2891 1984 2822 2050 
Q 2753 2116 2753 2216 
Q 2753 2350 2845 2451 
Q 2938 2553 3066 2572 
Q 2950 2663 2747 2663 
Q 2541 2663 2389 2472 
Q 2238 2281 2175 2047 
L 1894 916 
Q 1825 659 1825 494 
Q 1825 331 1917 214 
Q 2009 97 2163 97 
Q 2463 97 2698 361 
Q 2934 625 3009 941 
Q 3022 978 3059 978 
L 3138 978 
Q 3163 978 3178 961 
Q 3194 944 3194 922 
Q 3194 916 3188 903 
Q 3097 522 2806 225 
Q 2516 -72 2150 -72 
Q 1916 -72 1727 54 
Q 1538 181 1459 397 
Q 1359 209 1182 68 
Q 1006 -72 806 -72 
Q 669 -72 523 -23 
Q 378 25 287 125 
Q 197 225 197 378 
Q 197 528 301 651 
Q 406 775 563 775 
Q 669 775 741 711 
Q 813 647 813 544 
Q 813 409 723 309 
Q 634 209 500 184 
z
" transform="scale(0.015625)"/>
      <path id="Cmsy10-a1" d="M 653 1472 
Q 600 1472 565 1512 
Q 531 1553 531 1600 
Q 531 1647 565 1687 
Q 600 1728 653 1728 
L 4325 1728 
Q 4375 1728 4408 1687 
Q 4441 1647 4441 1600 
Q 4441 1553 4408 1512 
Q 4375 1472 4325 1472 
L 653 1472 
z
" transform="scale(0.015625)"/>
      <path id="Cmmi10-79" d="M 538 -916 
Q 672 -1147 1006 -1147 
Q 1309 -1147 1531 -934 
Q 1753 -722 1889 -420 
Q 2025 -119 2100 197 
Q 1816 -72 1484 -72 
Q 1231 -72 1053 15 
Q 875 103 776 276 
Q 678 450 678 697 
Q 678 906 734 1126 
Q 791 1347 892 1617 
Q 994 1888 1069 2088 
Q 1153 2322 1153 2472 
Q 1153 2663 1013 2663 
Q 759 2663 595 2402 
Q 431 2141 353 1819 
Q 341 1778 300 1778 
L 225 1778 
Q 172 1778 172 1838 
L 172 1856 
Q 275 2238 487 2533 
Q 700 2828 1025 2828 
Q 1253 2828 1411 2678 
Q 1569 2528 1569 2297 
Q 1569 2178 1516 2047 
Q 1488 1969 1388 1706 
Q 1288 1444 1234 1272 
Q 1181 1100 1147 934 
Q 1113 769 1113 603 
Q 1113 391 1203 244 
Q 1294 97 1491 97 
Q 1888 97 2203 581 
L 2688 2553 
Q 2709 2638 2787 2698 
Q 2866 2759 2956 2759 
Q 3034 2759 3092 2709 
Q 3150 2659 3150 2578 
Q 3150 2541 3144 2528 
L 2509 -19 
Q 2425 -347 2200 -647 
Q 1975 -947 1658 -1130 
Q 1341 -1313 997 -1313 
Q 831 -1313 668 -1248 
Q 506 -1184 406 -1056 
Q 306 -928 306 -756 
Q 306 -581 409 -453 
Q 513 -325 684 -325 
Q 788 -325 858 -389 
Q 928 -453 928 -556 
Q 928 -703 818 -812 
Q 709 -922 563 -922 
Q 556 -919 550 -917 
Q 544 -916 538 -916 
z
" transform="scale(0.015625)"/>
      <path id="Cmmi10-3b" d="M 634 -1153 
Q 634 -1125 659 -1100 
Q 891 -878 1019 -587 
Q 1147 -297 1147 25 
L 1147 103 
Q 1044 0 891 0 
Q 744 0 641 103 
Q 538 206 538 353 
Q 538 503 641 603 
Q 744 703 891 703 
Q 1119 703 1216 492 
Q 1313 281 1313 25 
Q 1313 -331 1170 -651 
Q 1028 -972 769 -1228 
Q 744 -1241 728 -1241 
Q 697 -1241 665 -1212 
Q 634 -1184 634 -1153 
z
" transform="scale(0.015625)"/>
      <path id="Cmmi10-7a" d="M 313 -72 
Q 263 -72 263 -13 
Q 263 19 275 31 
Q 447 328 689 598 
Q 931 869 1239 1145 
Q 1547 1422 1858 1700 
Q 2169 1978 2363 2194 
L 2338 2194 
Q 2197 2194 1925 2284 
Q 1653 2375 1497 2375 
Q 1328 2375 1168 2301 
Q 1009 2228 966 2075 
Q 956 2028 916 2028 
L 838 2028 
Q 788 2028 788 2094 
L 788 2113 
Q 838 2300 952 2462 
Q 1066 2625 1233 2726 
Q 1400 2828 1581 2828 
Q 1709 2828 1793 2770 
Q 1878 2713 1990 2591 
Q 2103 2469 2173 2416 
Q 2244 2363 2350 2363 
Q 2491 2363 2602 2491 
Q 2713 2619 2822 2809 
Q 2841 2828 2869 2828 
L 2944 2828 
Q 2966 2828 2980 2812 
Q 2994 2797 2994 2772 
Q 2994 2750 2981 2731 
Q 2809 2434 2579 2176 
Q 2350 1919 1979 1586 
Q 1609 1253 1354 1023 
Q 1100 794 878 550 
Q 928 563 1013 563 
Q 1169 563 1439 473 
Q 1709 384 1856 384 
Q 2016 384 2178 453 
Q 2341 522 2459 647 
Q 2578 772 2619 934 
Q 2634 978 2669 978 
L 2747 978 
Q 2772 978 2787 958 
Q 2803 938 2803 916 
Q 2803 909 2797 897 
Q 2738 653 2591 433 
Q 2444 213 2230 70 
Q 2016 -72 1772 -72 
Q 1650 -72 1565 -15 
Q 1481 41 1367 164 
Q 1253 288 1181 342 
Q 1109 397 1006 397 
Q 688 397 434 -50 
Q 413 -72 391 -72 
L 313 -72 
z
" transform="scale(0.015625)"/>
      <path id="Cmr10-29" d="M 416 -1600 
Q 359 -1600 359 -1544 
Q 359 -1516 372 -1503 
Q 1466 -434 1466 1600 
Q 1466 3634 384 4691 
Q 359 4706 359 4744 
Q 359 4766 376 4783 
Q 394 4800 416 4800 
L 475 4800 
Q 494 4800 506 4788 
Q 966 4425 1272 3906 
Q 1578 3388 1720 2800 
Q 1863 2213 1863 1600 
Q 1863 1147 1786 708 
Q 1709 269 1542 -157 
Q 1375 -584 1119 -945 
Q 863 -1306 506 -1588 
Q 494 -1600 475 -1600 
L 416 -1600 
z
" transform="scale(0.015625)"/>
      <path id="DejaVuSerif-2c" d="M 231 -622 
Q 525 -406 662 -114 
Q 800 178 800 594 
L 800 709 
L 1416 709 
Q 1391 175 1164 -208 
Q 938 -591 481 -872 
L 231 -622 
z
" transform="scale(0.015625)"/>
      <path id="DejaVuSerif-77" d="M 3072 3322 
L 3922 728 
L 4672 2988 
L 4191 2988 
L 4191 3322 
L 5394 3322 
L 5394 2988 
L 5025 2988 
L 4038 0 
L 3559 0 
L 2741 2484 
L 1919 0 
L 1459 0 
L 475 2988 
L 103 2988 
L 103 3322 
L 1606 3322 
L 1606 2988 
L 1069 2988 
L 1813 728 
L 2669 3322 
L 3072 3322 
z
" transform="scale(0.015625)"/>
      <path id="DejaVuSerif-63" d="M 3291 997 
Q 3169 466 2822 187 
Q 2475 -91 1925 -91 
Q 1200 -91 759 389 
Q 319 869 319 1663 
Q 319 2459 759 2936 
Q 1200 3413 1925 3413 
Q 2241 3413 2553 3339 
Q 2866 3266 3181 3116 
L 3181 2266 
L 2847 2266 
Q 2781 2703 2561 2903 
Q 2341 3103 1931 3103 
Q 1466 3103 1228 2742 
Q 991 2381 991 1663 
Q 991 944 1227 581 
Q 1463 219 1931 219 
Q 2303 219 2525 412 
Q 2747 606 2828 997 
L 3291 997 
z
" transform="scale(0.015625)"/>
      <path id="DejaVuSerif-78" d="M 1863 2028 
L 2559 2988 
L 2113 2988 
L 2113 3322 
L 3391 3322 
L 3391 2988 
L 2950 2988 
L 2059 1759 
L 3097 331 
L 3531 331 
L 3531 0 
L 1997 0 
L 1997 331 
L 2419 331 
L 1697 1325 
L 972 331 
L 1403 331 
L 1403 0 
L 141 0 
L 141 331 
L 581 331 
L 1497 1594 
L 488 2988 
L 78 2988 
L 78 3322 
L 1563 3322 
L 1563 2988 
L 1166 2988 
L 1863 2028 
z
" transform="scale(0.015625)"/>
      <path id="DejaVuSerif-67" d="M 3359 2988 
L 3359 72 
Q 3359 -644 2965 -1033 
Q 2572 -1422 1844 -1422 
Q 1516 -1422 1216 -1362 
Q 916 -1303 641 -1184 
L 641 -488 
L 941 -488 
Q 997 -813 1206 -963 
Q 1416 -1113 1806 -1113 
Q 2313 -1113 2548 -827 
Q 2784 -541 2784 72 
L 2784 519 
Q 2616 206 2355 57 
Q 2094 -91 1709 -91 
Q 1097 -91 708 395 
Q 319 881 319 1663 
Q 319 2444 706 2928 
Q 1094 3413 1709 3413 
Q 2094 3413 2355 3264 
Q 2616 3116 2784 2803 
L 2784 3322 
L 3909 3322 
L 3909 2988 
L 3359 2988 
z
M 2784 1825 
Q 2784 2422 2554 2737 
Q 2325 3053 1888 3053 
Q 1444 3053 1217 2703 
Q 991 2353 991 1663 
Q 991 975 1217 622 
Q 1444 269 1888 269 
Q 2325 269 2554 583 
Q 2784 897 2784 1497 
L 2784 1825 
z
" transform="scale(0.015625)"/>
      <path id="DejaVuSerif-71" d="M 3359 2988 
L 3359 -997 
L 3909 -997 
L 3909 -1331 
L 2241 -1331 
L 2241 -997 
L 2784 -997 
L 2784 519 
Q 2616 206 2355 57 
Q 2094 -91 1709 -91 
Q 1097 -91 708 395 
Q 319 881 319 1663 
Q 319 2444 706 2928 
Q 1094 3413 1709 3413 
Q 2094 3413 2355 3264 
Q 2616 3116 2784 2803 
L 2784 3322 
L 3909 3322 
L 3909 2988 
L 3359 2988 
z
M 2784 1825 
Q 2784 2422 2554 2737 
Q 2325 3053 1888 3053 
Q 1444 3053 1217 2703 
Q 991 2353 991 1663 
Q 991 975 1217 622 
Q 1444 269 1888 269 
Q 2325 269 2554 583 
Q 2784 897 2784 1497 
L 2784 1825 
z
" transform="scale(0.015625)"/>
     </defs>
     <use xlink:href="#DejaVuSerif-50" transform="translate(0 0.015625)"/>
     <use xlink:href="#DejaVuSerif-72" transform="translate(67.285156 0.015625)"/>
     <use xlink:href="#DejaVuSerif-6f" transform="translate(115.087891 0.015625)"/>
     <use xlink:href="#DejaVuSerif-76" transform="translate(175.292969 0.015625)"/>
     <use xlink:href="#DejaVuSerif-65" transform="translate(231.787109 0.015625)"/>
     <use xlink:href="#DejaVuSerif-20" transform="translate(290.966797 0.015625)"/>
     <use xlink:href="#DejaVuSerif-74" transform="translate(322.753906 0.015625)"/>
     <use xlink:href="#DejaVuSerif-68" transform="translate(362.939453 0.015625)"/>
     <use xlink:href="#DejaVuSerif-61" transform="translate(427.34375 0.015625)"/>
     <use xlink:href="#DejaVuSerif-74" transform="translate(486.962891 0.015625)"/>
     <use xlink:href="#DejaVuSerif-20" transform="translate(527.148438 0.015625)"/>
     <use xlink:href="#DejaVuSerif-74" transform="translate(558.935547 0.015625)"/>
     <use xlink:href="#DejaVuSerif-68" transform="translate(599.121094 0.015625)"/>
     <use xlink:href="#DejaVuSerif-65" transform="translate(663.525391 0.015625)"/>
     <use xlink:href="#DejaVuSerif-72" transform="translate(722.705078 0.015625)"/>
     <use xlink:href="#DejaVuSerif-65" transform="translate(770.507812 0.015625)"/>
     <use xlink:href="#DejaVuSerif-20" transform="translate(829.6875 0.015625)"/>
     <use xlink:href="#DejaVuSerif-61" transform="translate(861.474609 0.015625)"/>
     <use xlink:href="#DejaVuSerif-72" transform="translate(921.09375 0.015625)"/>
     <use xlink:href="#DejaVuSerif-65" transform="translate(968.896484 0.015625)"/>
     <use xlink:href="#DejaVuSerif-20" transform="translate(1028.076172 0.015625)"/>
     <use xlink:href="#DejaVuSerif-6f" transform="translate(1059.863281 0.015625)"/>
     <use xlink:href="#DejaVuSerif-6e" transform="translate(1120.068359 0.015625)"/>
     <use xlink:href="#DejaVuSerif-6c" transform="translate(1184.472656 0.015625)"/>
     <use xlink:href="#DejaVuSerif-79" transform="translate(1216.455078 0.015625)"/>
     <use xlink:href="#DejaVuSerif-20" transform="translate(1272.949219 0.015625)"/>
     <use xlink:href="#DejaVuSerif-61" transform="translate(1304.736328 0.015625)"/>
     <use xlink:href="#DejaVuSerif-20" transform="translate(1364.355469 0.015625)"/>
     <use xlink:href="#DejaVuSerif-66" transform="translate(1396.142578 0.015625)"/>
     <use xlink:href="#DejaVuSerif-69" transform="translate(1433.154297 0.015625)"/>
     <use xlink:href="#DejaVuSerif-6e" transform="translate(1465.136719 0.015625)"/>
     <use xlink:href="#DejaVuSerif-69" transform="translate(1529.541016 0.015625)"/>
     <use xlink:href="#DejaVuSerif-74" transform="translate(1561.523438 0.015625)"/>
     <use xlink:href="#DejaVuSerif-65" transform="translate(1601.708984 0.015625)"/>
     <use xlink:href="#DejaVuSerif-20" transform="translate(1660.888672 0.015625)"/>
     <use xlink:href="#DejaVuSerif-6e" transform="translate(1692.675781 0.015625)"/>
     <use xlink:href="#DejaVuSerif-75" transform="translate(1757.080078 0.015625)"/>
     <use xlink:href="#DejaVuSerif-6d" transform="translate(1821.484375 0.015625)"/>
     <use xlink:href="#DejaVuSerif-62" transform="translate(1916.308594 0.015625)"/>
     <use xlink:href="#DejaVuSerif-65" transform="translate(1980.322266 0.015625)"/>
     <use xlink:href="#DejaVuSerif-72" transform="translate(2039.501953 0.015625)"/>
     <use xlink:href="#DejaVuSerif-20" transform="translate(2087.304688 0.015625)"/>
     <use xlink:href="#DejaVuSerif-6f" transform="translate(2119.091797 0.015625)"/>
     <use xlink:href="#DejaVuSerif-66" transform="translate(2179.296875 0.015625)"/>
     <use xlink:href="#DejaVuSerif-20" transform="translate(2216.308594 0.015625)"/>
     <use xlink:href="#DejaVuSerif-70" transform="translate(2248.095703 0.015625)"/>
     <use xlink:href="#DejaVuSerif-6f" transform="translate(2312.109375 0.015625)"/>
     <use xlink:href="#DejaVuSerif-73" transform="translate(2372.314453 0.015625)"/>
     <use xlink:href="#DejaVuSerif-73" transform="translate(2423.632812 0.015625)"/>
     <use xlink:href="#DejaVuSerif-69" transform="translate(2474.951172 0.015625)"/>
     <use xlink:href="#DejaVuSerif-62" transform="translate(2506.933594 0.015625)"/>
     <use xlink:href="#DejaVuSerif-69" transform="translate(2570.947266 0.015625)"/>
     <use xlink:href="#DejaVuSerif-6c" transform="translate(2602.929688 0.015625)"/>
     <use xlink:href="#DejaVuSerif-69" transform="translate(2634.912109 0.015625)"/>
     <use xlink:href="#DejaVuSerif-74" transform="translate(2666.894531 0.015625)"/>
     <use xlink:href="#DejaVuSerif-69" transform="translate(2707.080078 0.015625)"/>
     <use xlink:href="#DejaVuSerif-65" transform="translate(2739.0625 0.015625)"/>
     <use xlink:href="#DejaVuSerif-73" transform="translate(2798.242188 0.015625)"/>
     <use xlink:href="#DejaVuSerif-20" transform="translate(2849.560547 0.015625)"/>
     <use xlink:href="#DejaVuSerif-66" transform="translate(2881.347656 0.015625)"/>
     <use xlink:href="#DejaVuSerif-6f" transform="translate(2918.359375 0.015625)"/>
     <use xlink:href="#DejaVuSerif-72" transform="translate(2978.564453 0.015625)"/>
     <use xlink:href="#DejaVuSerif-20" transform="translate(3026.367188 0.015625)"/>
     <use xlink:href="#DejaVuSerif-74" transform="translate(3058.154297 0.015625)"/>
     <use xlink:href="#DejaVuSerif-68" transform="translate(3098.339844 0.015625)"/>
     <use xlink:href="#DejaVuSerif-65" transform="translate(3162.744141 0.015625)"/>
     <use xlink:href="#DejaVuSerif-20" transform="translate(3221.923828 0.015625)"/>
     <use xlink:href="#DejaVuSerif-6f" transform="translate(3253.710938 0.015625)"/>
     <use xlink:href="#DejaVuSerif-72" transform="translate(3313.916016 0.015625)"/>
     <use xlink:href="#DejaVuSerif-64" transform="translate(3361.71875 0.015625)"/>
     <use xlink:href="#DejaVuSerif-65" transform="translate(3425.732422 0.015625)"/>
     <use xlink:href="#DejaVuSerif-72" transform="translate(3484.912109 0.015625)"/>
     <use xlink:href="#DejaVuSerif-65" transform="translate(3532.714844 0.015625)"/>
     <use xlink:href="#DejaVuSerif-64" transform="translate(3591.894531 0.015625)"/>
     <use xlink:href="#DejaVuSerif-20" transform="translate(3655.908203 0.015625)"/>
     <use xlink:href="#DejaVuSerif-74" transform="translate(3687.695312 0.015625)"/>
     <use xlink:href="#DejaVuSerif-72" transform="translate(3727.880859 0.015625)"/>
     <use xlink:href="#DejaVuSerif-69" transform="translate(3775.683594 0.015625)"/>
     <use xlink:href="#DejaVuSerif-70" transform="translate(3807.666016 0.015625)"/>
     <use xlink:href="#DejaVuSerif-6c" transform="translate(3871.679688 0.015625)"/>
     <use xlink:href="#DejaVuSerif-65" transform="translate(3903.662109 0.015625)"/>
     <use xlink:href="#DejaVuSerif-20" transform="translate(3962.841797 0.015625)"/>
     <use xlink:href="#Cmmi10-54" transform="translate(3994.628906 0.015625)"/>
     <use xlink:href="#Cmr10-3d" transform="translate(4070.585938 0.015625)"/>
     <use xlink:href="#Cmr10-28" transform="translate(4165.830078 0.015625)"/>
     <use xlink:href="#Cmmi10-78" transform="translate(4204.648438 0.015625)"/>
     <use xlink:href="#Cmsy10-a1" transform="translate(4279.287109 0.015625)"/>
     <use xlink:href="#Cmmi10-79" transform="translate(4374.53125 0.015625)"/>
     <use xlink:href="#Cmmi10-3b" transform="translate(4423.554688 0.015625)"/>
     <use xlink:href="#Cmmi10-79" transform="translate(4468.798828 0.015625)"/>
     <use xlink:href="#Cmsy10-a1" transform="translate(4535.380859 0.015625)"/>
     <use xlink:href="#Cmmi10-7a" transform="translate(4630.625 0.015625)"/>
     <use xlink:href="#Cmmi10-3b" transform="translate(4677.109375 0.015625)"/>
     <use xlink:href="#Cmmi10-7a" transform="translate(4722.353516 0.015625)"/>
     <use xlink:href="#Cmsy10-a1" transform="translate(4786.396484 0.015625)"/>
     <use xlink:href="#Cmmi10-78" transform="translate(4881.640625 0.015625)"/>
     <use xlink:href="#Cmr10-29" transform="translate(4938.720703 0.015625)"/>
     <use xlink:href="#DejaVuSerif-2c" transform="translate(4977.539062 0.015625)"/>
     <use xlink:href="#DejaVuSerif-20" transform="translate(5009.326172 0.015625)"/>
     <use xlink:href="#DejaVuSerif-77" transform="translate(5041.113281 0.015625)"/>
     <use xlink:href="#DejaVuSerif-68" transform="translate(5126.708984 0.015625)"/>
     <use xlink:href="#DejaVuSerif-65" transform="translate(5191.113281 0.015625)"/>
     <use xlink:href="#DejaVuSerif-72" transform="translate(5250.292969 0.015625)"/>
     <use xlink:href="#DejaVuSerif-65" transform="translate(5298.095703 0.015625)"/>
     <use xlink:href="#DejaVuSerif-20" transform="translate(5357.275391 0.015625)"/>
     <use xlink:href="#Cmmi10-78" transform="translate(5389.0625 0.015625)"/>
     <use xlink:href="#Cmmi10-3b" transform="translate(5446.142578 0.015625)"/>
     <use xlink:href="#Cmmi10-79" transform="translate(5491.386719 0.015625)"/>
     <use xlink:href="#Cmmi10-3b" transform="translate(5540.410156 0.015625)"/>
     <use xlink:href="#Cmmi10-7a" transform="translate(5585.654297 0.015625)"/>
     <use xlink:href="#DejaVuSerif-20" transform="translate(5632.138672 0.015625)"/>
     <use xlink:href="#DejaVuSerif-61" transform="translate(5663.925781 0.015625)"/>
     <use xlink:href="#DejaVuSerif-72" transform="translate(5723.544922 0.015625)"/>
     <use xlink:href="#DejaVuSerif-65" transform="translate(5771.347656 0.015625)"/>
     <use xlink:href="#DejaVuSerif-20" transform="translate(5830.527344 0.015625)"/>
     <use xlink:href="#DejaVuSerif-63" transform="translate(5862.314453 0.015625)"/>
     <use xlink:href="#DejaVuSerif-6f" transform="translate(5918.320312 0.015625)"/>
     <use xlink:href="#DejaVuSerif-6d" transform="translate(5978.525391 0.015625)"/>
     <use xlink:href="#DejaVuSerif-70" transform="translate(6073.349609 0.015625)"/>
     <use xlink:href="#DejaVuSerif-6c" transform="translate(6137.363281 0.015625)"/>
     <use xlink:href="#DejaVuSerif-65" transform="translate(6169.345703 0.015625)"/>
     <use xlink:href="#DejaVuSerif-78" transform="translate(6228.525391 0.015625)"/>
     <use xlink:href="#DejaVuSerif-20" transform="translate(6284.921875 0.015625)"/>
     <use xlink:href="#DejaVuSerif-6e" transform="translate(6316.708984 0.015625)"/>
     <use xlink:href="#DejaVuSerif-75" transform="translate(6381.113281 0.015625)"/>
     <use xlink:href="#DejaVuSerif-6d" transform="translate(6445.517578 0.015625)"/>
     <use xlink:href="#DejaVuSerif-62" transform="translate(6540.341797 0.015625)"/>
     <use xlink:href="#DejaVuSerif-65" transform="translate(6604.355469 0.015625)"/>
     <use xlink:href="#DejaVuSerif-72" transform="translate(6663.535156 0.015625)"/>
     <use xlink:href="#DejaVuSerif-73" transform="translate(6711.337891 0.015625)"/>
     <use xlink:href="#DejaVuSerif-20" transform="translate(6762.65625 0.015625)"/>
     <use xlink:href="#DejaVuSerif-73" transform="translate(6794.443359 0.015625)"/>
     <use xlink:href="#DejaVuSerif-61" transform="translate(6845.761719 0.015625)"/>
     <use xlink:href="#DejaVuSerif-74" transform="translate(6905.380859 0.015625)"/>
     <use xlink:href="#DejaVuSerif-69" transform="translate(6945.566406 0.015625)"/>
     <use xlink:href="#DejaVuSerif-73" transform="translate(6977.548828 0.015625)"/>
     <use xlink:href="#DejaVuSerif-66" transform="translate(7028.867188 0.015625)"/>
     <use xlink:href="#DejaVuSerif-79" transform="translate(7065.878906 0.015625)"/>
     <use xlink:href="#DejaVuSerif-69" transform="translate(7122.373047 0.015625)"/>
     <use xlink:href="#DejaVuSerif-6e" transform="translate(7154.355469 0.015625)"/>
     <use xlink:href="#DejaVuSerif-67" transform="translate(7218.759766 0.015625)"/>
     <use xlink:href="#DejaVuSerif-20" transform="translate(7282.773438 0.015625)"/>
     <use xlink:href="#DejaVuSerif-74" transform="translate(7314.560547 0.015625)"/>
     <use xlink:href="#DejaVuSerif-68" transform="translate(7354.746094 0.015625)"/>
     <use xlink:href="#DejaVuSerif-65" transform="translate(7419.150391 0.015625)"/>
     <use xlink:href="#DejaVuSerif-20" transform="translate(7478.330078 0.015625)"/>
     <use xlink:href="#DejaVuSerif-73" transform="translate(7510.117188 0.015625)"/>
     <use xlink:href="#DejaVuSerif-69" transform="translate(7561.435547 0.015625)"/>
     <use xlink:href="#DejaVuSerif-6d" transform="translate(7593.417969 0.015625)"/>
     <use xlink:href="#DejaVuSerif-75" transform="translate(7688.242188 0.015625)"/>
     <use xlink:href="#DejaVuSerif-6c" transform="translate(7752.646484 0.015625)"/>
     <use xlink:href="#DejaVuSerif-74" transform="translate(7784.628906 0.015625)"/>
     <use xlink:href="#DejaVuSerif-61" transform="translate(7824.814453 0.015625)"/>
     <use xlink:href="#DejaVuSerif-6e" transform="translate(7884.433594 0.015625)"/>
     <use xlink:href="#DejaVuSerif-65" transform="translate(7948.837891 0.015625)"/>
     <use xlink:href="#DejaVuSerif-6f" transform="translate(8008.017578 0.015625)"/>
     <use xlink:href="#DejaVuSerif-75" transform="translate(8068.222656 0.015625)"/>
     <use xlink:href="#DejaVuSerif-73" transform="translate(8132.626953 0.015625)"/>
     <use xlink:href="#DejaVuSerif-20" transform="translate(8183.945312 0.015625)"/>
     <use xlink:href="#DejaVuSerif-65" transform="translate(8215.732422 0.015625)"/>
     <use xlink:href="#DejaVuSerif-71" transform="translate(8274.912109 0.015625)"/>
     <use xlink:href="#DejaVuSerif-75" transform="translate(8338.925781 0.015625)"/>
     <use xlink:href="#DejaVuSerif-61" transform="translate(8403.330078 0.015625)"/>
     <use xlink:href="#DejaVuSerif-74" transform="translate(8462.949219 0.015625)"/>
     <use xlink:href="#DejaVuSerif-69" transform="translate(8503.134766 0.015625)"/>
     <use xlink:href="#DejaVuSerif-6f" transform="translate(8535.117188 0.015625)"/>
     <use xlink:href="#DejaVuSerif-6e" transform="translate(8595.322266 0.015625)"/>
     <use xlink:href="#DejaVuSerif-73" transform="translate(8659.726562 0.015625)"/>
    </g>
    <!-- \[ -->
    <g transform="translate(525.557813 80.388375) scale(0.12 -0.12)">
     <defs>
      <path id="DejaVuSerif-5c" d="M 500 4666 
L 2156 -594 
L 1656 -594 
L 0 4666 
L 500 4666 
z
" transform="scale(0.015625)"/>
      <path id="DejaVuSerif-5b" d="M 550 4863 
L 2003 4863 
L 2003 4531 
L 1147 4531 
L 1147 -513 
L 2003 -513 
L 2003 -844 
L 550 -844 
L 550 4863 
z
" transform="scale(0.015625)"/>
     </defs>
     <use xlink:href="#DejaVuSerif-5c"/>
     <use xlink:href="#DejaVuSerif-5b" transform="translate(33.691406 0)"/>
    </g>
    <!-- x(x-1)+2yz = y(y-1)+2zx = z(z-1)+2xy, -->
    <g transform="translate(413.37375 93.82575) scale(0.12 -0.12)">
     <defs>
      <path id="DejaVuSerif-28" d="M 2041 -997 
Q 1281 -656 893 83 
Q 506 822 506 1931 
Q 506 3044 893 3783 
Q 1281 4522 2041 4863 
L 2041 4556 
Q 1559 4225 1350 3623 
Q 1141 3022 1141 1931 
Q 1141 844 1350 242 
Q 1559 -359 2041 -691 
L 2041 -997 
z
" transform="scale(0.015625)"/>
      <path id="DejaVuSerif-2d" d="M 281 1959 
L 1881 1959 
L 1881 1472 
L 281 1472 
L 281 1959 
z
" transform="scale(0.015625)"/>
      <path id="DejaVuSerif-31" d="M 909 0 
L 909 331 
L 1722 331 
L 1722 4213 
L 781 3603 
L 781 4013 
L 1919 4750 
L 2350 4750 
L 2350 331 
L 3163 331 
L 3163 0 
L 909 0 
z
" transform="scale(0.015625)"/>
      <path id="DejaVuSerif-29" d="M 453 -997 
L 453 -691 
Q 934 -359 1145 242 
Q 1356 844 1356 1931 
Q 1356 3022 1145 3623 
Q 934 4225 453 4556 
L 453 4863 
Q 1216 4522 1603 3783 
Q 1991 3044 1991 1931 
Q 1991 822 1603 83 
Q 1216 -656 453 -997 
z
" transform="scale(0.015625)"/>
      <path id="DejaVuSerif-2b" d="M 2931 4013 
L 2931 2259 
L 4684 2259 
L 4684 1753 
L 2931 1753 
L 2931 0 
L 2431 0 
L 2431 1753 
L 678 1753 
L 678 2259 
L 2431 2259 
L 2431 4013 
L 2931 4013 
z
" transform="scale(0.015625)"/>
      <path id="DejaVuSerif-32" d="M 819 3553 
L 469 3553 
L 469 4384 
Q 803 4563 1142 4656 
Q 1481 4750 1806 4750 
Q 2534 4750 2956 4397 
Q 3378 4044 3378 3438 
Q 3378 2753 2422 1800 
Q 2347 1728 2309 1691 
L 1131 513 
L 3078 513 
L 3078 1088 
L 3444 1088 
L 3444 0 
L 434 0 
L 434 341 
L 1850 1753 
Q 2319 2222 2519 2614 
Q 2719 3006 2719 3438 
Q 2719 3909 2473 4175 
Q 2228 4441 1797 4441 
Q 1350 4441 1106 4219 
Q 863 3997 819 3553 
z
" transform="scale(0.015625)"/>
      <path id="DejaVuSerif-7a" d="M 256 0 
L 256 269 
L 2338 2988 
L 691 2988 
L 691 2413 
L 359 2413 
L 359 3322 
L 3078 3322 
L 3078 3053 
L 997 331 
L 2803 331 
L 2803 934 
L 3138 934 
L 3138 0 
L 256 0 
z
" transform="scale(0.015625)"/>
      <path id="DejaVuSerif-3d" d="M 678 2894 
L 4684 2894 
L 4684 2394 
L 678 2394 
L 678 2894 
z
M 678 1619 
L 4684 1619 
L 4684 1119 
L 678 1119 
L 678 1619 
z
" transform="scale(0.015625)"/>
     </defs>
     <use xlink:href="#DejaVuSerif-78"/>
     <use xlink:href="#DejaVuSerif-28" transform="translate(56.396484 0)"/>
     <use xlink:href="#DejaVuSerif-78" transform="translate(95.410156 0)"/>
     <use xlink:href="#DejaVuSerif-2d" transform="translate(150.056641 0)"/>
     <use xlink:href="#DejaVuSerif-31" transform="translate(183.845703 0)"/>
     <use xlink:href="#DejaVuSerif-29" transform="translate(247.46875 0)"/>
     <use xlink:href="#DejaVuSerif-2b" transform="translate(286.482422 0)"/>
     <use xlink:href="#DejaVuSerif-32" transform="translate(370.271484 0)"/>
     <use xlink:href="#DejaVuSerif-79" transform="translate(433.894531 0)"/>
     <use xlink:href="#DejaVuSerif-7a" transform="translate(490.388672 0)"/>
     <use xlink:href="#DejaVuSerif-20" transform="translate(543.074219 0)"/>
     <use xlink:href="#DejaVuSerif-3d" transform="translate(574.861328 0)"/>
     <use xlink:href="#DejaVuSerif-20" transform="translate(658.650391 0)"/>
     <use xlink:href="#DejaVuSerif-79" transform="translate(690.4375 0)"/>
     <use xlink:href="#DejaVuSerif-28" transform="translate(746.931641 0)"/>
     <use xlink:href="#DejaVuSerif-79" transform="translate(785.945312 0)"/>
     <use xlink:href="#DejaVuSerif-2d" transform="translate(842.439453 0)"/>
     <use xlink:href="#DejaVuSerif-31" transform="translate(876.228516 0)"/>
     <use xlink:href="#DejaVuSerif-29" transform="translate(939.851562 0)"/>
     <use xlink:href="#DejaVuSerif-2b" transform="translate(978.865234 0)"/>
     <use xlink:href="#DejaVuSerif-32" transform="translate(1062.654297 0)"/>
     <use xlink:href="#DejaVuSerif-7a" transform="translate(1126.277344 0)"/>
     <use xlink:href="#DejaVuSerif-78" transform="translate(1178.962891 0)"/>
     <use xlink:href="#DejaVuSerif-20" transform="translate(1235.359375 0)"/>
     <use xlink:href="#DejaVuSerif-3d" transform="translate(1267.146484 0)"/>
     <use xlink:href="#DejaVuSerif-20" transform="translate(1350.935547 0)"/>
     <use xlink:href="#DejaVuSerif-7a" transform="translate(1382.722656 0)"/>
     <use xlink:href="#DejaVuSerif-28" transform="translate(1435.408203 0)"/>
     <use xlink:href="#DejaVuSerif-7a" transform="translate(1474.421875 0)"/>
     <use xlink:href="#DejaVuSerif-2d" transform="translate(1527.107422 0)"/>
     <use xlink:href="#DejaVuSerif-31" transform="translate(1560.896484 0)"/>
     <use xlink:href="#DejaVuSerif-29" transform="translate(1624.519531 0)"/>
     <use xlink:href="#DejaVuSerif-2b" transform="translate(1663.533203 0)"/>
     <use xlink:href="#DejaVuSerif-32" transform="translate(1747.322266 0)"/>
     <use xlink:href="#DejaVuSerif-78" transform="translate(1810.945312 0)"/>
     <use xlink:href="#DejaVuSerif-79" transform="translate(1867.341797 0)"/>
     <use xlink:href="#DejaVuSerif-2c" transform="translate(1910.585938 0)"/>
    </g>
    <!-- \] -->
    <g transform="translate(525.557813 107.43375) scale(0.12 -0.12)">
     <defs>
      <path id="DejaVuSerif-5d" d="M 1947 4863 
L 1947 -844 
L 494 -844 
L 494 -513 
L 1350 -513 
L 1350 4531 
L 494 4531 
L 494 4863 
L 1947 4863 
z
" transform="scale(0.015625)"/>
     </defs>
     <use xlink:href="#DejaVuSerif-5c"/>
     <use xlink:href="#DejaVuSerif-5d" transform="translate(33.691406 0)"/>
    </g>
    <!-- and list all such triples $T$. -->
    <g transform="translate(453.18 120.873375) scale(0.12 -0.12)">
     <defs>
      <path id="DejaVuSerif-2e" d="M 603 325 
Q 603 500 722 622 
Q 841 744 1019 744 
Q 1191 744 1312 622 
Q 1434 500 1434 325 
Q 1434 153 1312 31 
Q 1191 -91 1019 -91 
Q 841 -91 722 29 
Q 603 150 603 325 
z
" transform="scale(0.015625)"/>
     </defs>
     <use xlink:href="#DejaVuSerif-61" transform="translate(0 0.015625)"/>
     <use xlink:href="#DejaVuSerif-6e" transform="translate(59.619141 0.015625)"/>
     <use xlink:href="#DejaVuSerif-64" transform="translate(124.023438 0.015625)"/>
     <use xlink:href="#DejaVuSerif-20" transform="translate(188.037109 0.015625)"/>
     <use xlink:href="#DejaVuSerif-6c" transform="translate(219.824219 0.015625)"/>
     <use xlink:href="#DejaVuSerif-69" transform="translate(251.806641 0.015625)"/>
     <use xlink:href="#DejaVuSerif-73" transform="translate(283.789062 0.015625)"/>
     <use xlink:href="#DejaVuSerif-74" transform="translate(335.107422 0.015625)"/>
     <use xlink:href="#DejaVuSerif-20" transform="translate(375.292969 0.015625)"/>
     <use xlink:href="#DejaVuSerif-61" transform="translate(407.080078 0.015625)"/>
     <use xlink:href="#DejaVuSerif-6c" transform="translate(466.699219 0.015625)"/>
     <use xlink:href="#DejaVuSerif-6c" transform="translate(498.681641 0.015625)"/>
     <use xlink:href="#DejaVuSerif-20" transform="translate(530.664062 0.015625)"/>
     <use xlink:href="#DejaVuSerif-73" transform="translate(562.451172 0.015625)"/>
     <use xlink:href="#DejaVuSerif-75" transform="translate(613.769531 0.015625)"/>
     <use xlink:href="#DejaVuSerif-63" transform="translate(678.173828 0.015625)"/>
     <use xlink:href="#DejaVuSerif-68" transform="translate(734.179688 0.015625)"/>
     <use xlink:href="#DejaVuSerif-20" transform="translate(798.583984 0.015625)"/>
     <use xlink:href="#DejaVuSerif-74" transform="translate(830.371094 0.015625)"/>
     <use xlink:href="#DejaVuSerif-72" transform="translate(870.556641 0.015625)"/>
     <use xlink:href="#DejaVuSerif-69" transform="translate(918.359375 0.015625)"/>
     <use xlink:href="#DejaVuSerif-70" transform="translate(950.341797 0.015625)"/>
     <use xlink:href="#DejaVuSerif-6c" transform="translate(1014.355469 0.015625)"/>
     <use xlink:href="#DejaVuSerif-65" transform="translate(1046.337891 0.015625)"/>
     <use xlink:href="#DejaVuSerif-73" transform="translate(1105.517578 0.015625)"/>
     <use xlink:href="#DejaVuSerif-20" transform="translate(1156.835938 0.015625)"/>
     <use xlink:href="#Cmmi10-54" transform="translate(1188.623047 0.015625)"/>
     <use xlink:href="#DejaVuSerif-2e" transform="translate(1247.021484 0.015625)"/>
    </g>
   </g>
  </g>
 </g>
</svg>
