<?xml version="1.0" encoding="utf-8" standalone="no"?>
<!DOCTYPE svg PUBLIC "-//W3C//DTD SVG 1.1//EN"
  "http://www.w3.org/Graphics/SVG/1.1/DTD/svg11.dtd">
<svg xmlns:xlink="http://www.w3.org/1999/xlink" width="1318.68pt" height="180.72pt" viewBox="0 0 1318.68 180.72" xmlns="http://www.w3.org/2000/svg" version="1.1">
 <metadata>
  <rdf:RDF xmlns:dc="http://purl.org/dc/elements/1.1/" xmlns:cc="http://creativecommons.org/ns#" xmlns:rdf="http://www.w3.org/1999/02/22-rdf-syntax-ns#">
   <cc:Work>
    <dc:type rdf:resource="http://purl.org/dc/dcmitype/StillImage"/>
    <dc:date>2025-05-29T18:44:20.529761</dc:date>
    <dc:format>image/svg+xml</dc:format>
    <dc:creator>
     <cc:Agent>
      <dc:title>Matplotlib v3.10.3, https://matplotlib.org/</dc:title>
     </cc:Agent>
    </dc:creator>
   </cc:Work>
  </rdf:RDF>
 </metadata>
 <defs>
  <style type="text/css">*{stroke-linejoin: round; stroke-linecap: butt}</style>
 </defs>
 <g id="figure_1">
  <g id="patch_1">
   <path d="M 0 180.72 
L 1318.68 180.72 
L 1318.68 0 
L 0 0 
z
" style="fill: #ffffff"/>
  </g>
  <g id="axes_1">
   <g id="text_1">
    <!-- Find the number of positive integers $N$ satisfying: (i) $N$ is divisible by $2020$, (ii) $N$ has at most $2020$ decimal digits, (iii) The decimal digits of $N$ are a string of consecutive ones followed by a string of consecutive zeros. -->
    <g transform="translate(7.2 93.54) scale(0.12 -0.12)">
     <defs>
      <path id="DejaVuSerif-46" d="M 353 0 
L 353 331 
L 947 331 
L 947 4331 
L 353 4331 
L 353 4666 
L 4172 4666 
L 4172 3628 
L 3788 3628 
L 3788 4281 
L 1581 4281 
L 1581 2719 
L 3175 2719 
L 3175 3303 
L 3559 3303 
L 3559 1753 
L 3175 1753 
L 3175 2338 
L 1581 2338 
L 1581 331 
L 2328 331 
L 2328 0 
L 353 0 
z
" transform="scale(0.015625)"/>
      <path id="DejaVuSerif-69" d="M 622 4353 
Q 622 4497 726 4603 
Q 831 4709 978 4709 
Q 1122 4709 1226 4603 
Q 1331 4497 1331 4353 
Q 1331 4206 1228 4103 
Q 1125 4000 978 4000 
Q 831 4000 726 4103 
Q 622 4206 622 4353 
z
M 1356 331 
L 1900 331 
L 1900 0 
L 231 0 
L 231 331 
L 781 331 
L 781 2988 
L 231 2988 
L 231 3322 
L 1356 3322 
L 1356 331 
z
" transform="scale(0.015625)"/>
      <path id="DejaVuSerif-6e" d="M 263 0 
L 263 331 
L 781 331 
L 781 2988 
L 231 2988 
L 231 3322 
L 1356 3322 
L 1356 2731 
Q 1516 3069 1770 3241 
Q 2025 3413 2363 3413 
Q 2913 3413 3172 3097 
Q 3431 2781 3431 2113 
L 3431 331 
L 3944 331 
L 3944 0 
L 2356 0 
L 2356 331 
L 2853 331 
L 2853 1931 
Q 2853 2541 2703 2767 
Q 2553 2994 2175 2994 
Q 1775 2994 1565 2701 
Q 1356 2409 1356 1850 
L 1356 331 
L 1856 331 
L 1856 0 
L 263 0 
z
" transform="scale(0.015625)"/>
      <path id="DejaVuSerif-64" d="M 3359 331 
L 3909 331 
L 3909 0 
L 2784 0 
L 2784 519 
Q 2616 206 2355 57 
Q 2094 -91 1709 -91 
Q 1097 -91 708 395 
Q 319 881 319 1663 
Q 319 2444 706 2928 
Q 1094 3413 1709 3413 
Q 2094 3413 2355 3264 
Q 2616 3116 2784 2803 
L 2784 4531 
L 2241 4531 
L 2241 4863 
L 3359 4863 
L 3359 331 
z
M 2784 1497 
L 2784 1825 
Q 2784 2422 2554 2737 
Q 2325 3053 1888 3053 
Q 1444 3053 1217 2703 
Q 991 2353 991 1663 
Q 991 975 1217 622 
Q 1444 269 1888 269 
Q 2325 269 2554 583 
Q 2784 897 2784 1497 
z
" transform="scale(0.015625)"/>
      <path id="DejaVuSerif-20" transform="scale(0.015625)"/>
      <path id="DejaVuSerif-74" d="M 691 2988 
L 184 2988 
L 184 3322 
L 691 3322 
L 691 4353 
L 1269 4353 
L 1269 3322 
L 2350 3322 
L 2350 2988 
L 1269 2988 
L 1269 878 
Q 1269 456 1350 337 
Q 1431 219 1650 219 
Q 1875 219 1978 351 
Q 2081 484 2088 781 
L 2522 781 
Q 2497 328 2275 118 
Q 2053 -91 1600 -91 
Q 1103 -91 897 129 
Q 691 350 691 878 
L 691 2988 
z
" transform="scale(0.015625)"/>
      <path id="DejaVuSerif-68" d="M 263 0 
L 263 331 
L 781 331 
L 781 4531 
L 231 4531 
L 231 4863 
L 1356 4863 
L 1356 2731 
Q 1516 3069 1770 3241 
Q 2025 3413 2363 3413 
Q 2913 3413 3172 3097 
Q 3431 2781 3431 2113 
L 3431 331 
L 3944 331 
L 3944 0 
L 2356 0 
L 2356 331 
L 2853 331 
L 2853 1931 
Q 2853 2541 2704 2764 
Q 2556 2988 2175 2988 
Q 1775 2988 1565 2697 
Q 1356 2406 1356 1850 
L 1356 331 
L 1856 331 
L 1856 0 
L 263 0 
z
" transform="scale(0.015625)"/>
      <path id="DejaVuSerif-65" d="M 3469 1600 
L 991 1600 
L 991 1575 
Q 991 903 1244 561 
Q 1497 219 1991 219 
Q 2369 219 2611 417 
Q 2853 616 2950 1006 
L 3413 1006 
Q 3275 459 2904 184 
Q 2534 -91 1931 -91 
Q 1203 -91 761 389 
Q 319 869 319 1663 
Q 319 2450 753 2931 
Q 1188 3413 1894 3413 
Q 2647 3413 3050 2948 
Q 3453 2484 3469 1600 
z
M 2791 1931 
Q 2772 2513 2545 2808 
Q 2319 3103 1894 3103 
Q 1497 3103 1269 2806 
Q 1041 2509 991 1931 
L 2791 1931 
z
" transform="scale(0.015625)"/>
      <path id="DejaVuSerif-75" d="M 2266 3322 
L 3341 3322 
L 3341 331 
L 3884 331 
L 3884 0 
L 2766 0 
L 2766 588 
Q 2606 256 2353 82 
Q 2100 -91 1766 -91 
Q 1213 -91 952 223 
Q 691 538 691 1209 
L 691 2988 
L 172 2988 
L 172 3322 
L 1269 3322 
L 1269 1388 
Q 1269 781 1417 556 
Q 1566 331 1947 331 
Q 2347 331 2556 625 
Q 2766 919 2766 1478 
L 2766 2988 
L 2266 2988 
L 2266 3322 
z
" transform="scale(0.015625)"/>
      <path id="DejaVuSerif-6d" d="M 3316 2675 
Q 3481 3041 3739 3227 
Q 3997 3413 4341 3413 
Q 4863 3413 5119 3089 
Q 5375 2766 5375 2113 
L 5375 331 
L 5894 331 
L 5894 0 
L 4300 0 
L 4300 331 
L 4800 331 
L 4800 2047 
Q 4800 2556 4650 2772 
Q 4500 2988 4153 2988 
Q 3769 2988 3567 2697 
Q 3366 2406 3366 1850 
L 3366 331 
L 3866 331 
L 3866 0 
L 2291 0 
L 2291 331 
L 2791 331 
L 2791 2069 
Q 2791 2566 2641 2777 
Q 2491 2988 2144 2988 
Q 1759 2988 1557 2697 
Q 1356 2406 1356 1850 
L 1356 331 
L 1856 331 
L 1856 0 
L 263 0 
L 263 331 
L 781 331 
L 781 2994 
L 231 2994 
L 231 3322 
L 1356 3322 
L 1356 2731 
Q 1516 3063 1762 3238 
Q 2009 3413 2322 3413 
Q 2709 3413 2968 3220 
Q 3228 3028 3316 2675 
z
" transform="scale(0.015625)"/>
      <path id="DejaVuSerif-62" d="M 738 331 
L 738 4531 
L 184 4531 
L 184 4863 
L 1313 4863 
L 1313 2803 
Q 1481 3116 1742 3264 
Q 2003 3413 2388 3413 
Q 3000 3413 3387 2928 
Q 3775 2444 3775 1663 
Q 3775 881 3387 395 
Q 3000 -91 2388 -91 
Q 2003 -91 1742 57 
Q 1481 206 1313 519 
L 1313 0 
L 184 0 
L 184 331 
L 738 331 
z
M 1313 1497 
Q 1313 897 1542 583 
Q 1772 269 2209 269 
Q 2650 269 2876 622 
Q 3103 975 3103 1663 
Q 3103 2353 2876 2703 
Q 2650 3053 2209 3053 
Q 1772 3053 1542 2737 
Q 1313 2422 1313 1825 
L 1313 1497 
z
" transform="scale(0.015625)"/>
      <path id="DejaVuSerif-72" d="M 3059 3328 
L 3059 2497 
L 2728 2497 
Q 2713 2744 2591 2866 
Q 2469 2988 2234 2988 
Q 1809 2988 1582 2694 
Q 1356 2400 1356 1850 
L 1356 331 
L 2022 331 
L 2022 0 
L 263 0 
L 263 331 
L 781 331 
L 781 2994 
L 231 2994 
L 231 3322 
L 1356 3322 
L 1356 2731 
Q 1525 3078 1790 3245 
Q 2056 3413 2438 3413 
Q 2578 3413 2733 3391 
Q 2888 3369 3059 3328 
z
" transform="scale(0.015625)"/>
      <path id="DejaVuSerif-6f" d="M 1925 219 
Q 2388 219 2623 584 
Q 2859 950 2859 1663 
Q 2859 2375 2623 2739 
Q 2388 3103 1925 3103 
Q 1463 3103 1227 2739 
Q 991 2375 991 1663 
Q 991 950 1228 584 
Q 1466 219 1925 219 
z
M 1925 -91 
Q 1200 -91 759 389 
Q 319 869 319 1663 
Q 319 2456 758 2934 
Q 1197 3413 1925 3413 
Q 2653 3413 3092 2934 
Q 3531 2456 3531 1663 
Q 3531 869 3092 389 
Q 2653 -91 1925 -91 
z
" transform="scale(0.015625)"/>
      <path id="DejaVuSerif-66" d="M 2753 4078 
L 2450 4078 
Q 2447 4313 2317 4434 
Q 2188 4556 1941 4556 
Q 1619 4556 1487 4379 
Q 1356 4203 1356 3750 
L 1356 3322 
L 2284 3322 
L 2284 2988 
L 1356 2988 
L 1356 331 
L 2094 331 
L 2094 0 
L 231 0 
L 231 331 
L 781 331 
L 781 2988 
L 231 2988 
L 231 3322 
L 781 3322 
L 781 3738 
Q 781 4294 1070 4578 
Q 1359 4863 1919 4863 
Q 2128 4863 2337 4825 
Q 2547 4788 2753 4709 
L 2753 4078 
z
" transform="scale(0.015625)"/>
      <path id="DejaVuSerif-70" d="M 1313 1825 
L 1313 1497 
Q 1313 897 1542 583 
Q 1772 269 2209 269 
Q 2650 269 2876 622 
Q 3103 975 3103 1663 
Q 3103 2353 2876 2703 
Q 2650 3053 2209 3053 
Q 1772 3053 1542 2737 
Q 1313 2422 1313 1825 
z
M 738 2988 
L 184 2988 
L 184 3322 
L 1313 3322 
L 1313 2803 
Q 1481 3116 1742 3264 
Q 2003 3413 2388 3413 
Q 3000 3413 3387 2928 
Q 3775 2444 3775 1663 
Q 3775 881 3387 395 
Q 3000 -91 2388 -91 
Q 2003 -91 1742 57 
Q 1481 206 1313 519 
L 1313 -997 
L 1856 -997 
L 1856 -1331 
L 184 -1331 
L 184 -997 
L 738 -997 
L 738 2988 
z
" transform="scale(0.015625)"/>
      <path id="DejaVuSerif-73" d="M 359 184 
L 359 959 
L 691 959 
Q 703 588 923 403 
Q 1144 219 1575 219 
Q 1963 219 2166 364 
Q 2369 509 2369 788 
Q 2369 1006 2220 1140 
Q 2072 1275 1594 1428 
L 1178 1569 
Q 750 1706 558 1912 
Q 366 2119 366 2438 
Q 366 2894 700 3153 
Q 1034 3413 1625 3413 
Q 1888 3413 2178 3344 
Q 2469 3275 2778 3144 
L 2778 2419 
L 2447 2419 
Q 2434 2741 2221 2922 
Q 2009 3103 1644 3103 
Q 1281 3103 1095 2975 
Q 909 2847 909 2591 
Q 909 2381 1050 2254 
Q 1191 2128 1613 1997 
L 2069 1856 
Q 2541 1709 2748 1489 
Q 2956 1269 2956 922 
Q 2956 450 2595 179 
Q 2234 -91 1600 -91 
Q 1278 -91 972 -22 
Q 666 47 359 184 
z
" transform="scale(0.015625)"/>
      <path id="DejaVuSerif-76" d="M 1581 0 
L 359 2988 
L -19 2988 
L -19 3322 
L 1509 3322 
L 1509 2988 
L 978 2988 
L 1913 703 
L 2847 2988 
L 2350 2988 
L 2350 3322 
L 3597 3322 
L 3597 2988 
L 3225 2988 
L 2003 0 
L 1581 0 
z
" transform="scale(0.015625)"/>
      <path id="DejaVuSerif-67" d="M 3359 2988 
L 3359 72 
Q 3359 -644 2965 -1033 
Q 2572 -1422 1844 -1422 
Q 1516 -1422 1216 -1362 
Q 916 -1303 641 -1184 
L 641 -488 
L 941 -488 
Q 997 -813 1206 -963 
Q 1416 -1113 1806 -1113 
Q 2313 -1113 2548 -827 
Q 2784 -541 2784 72 
L 2784 519 
Q 2616 206 2355 57 
Q 2094 -91 1709 -91 
Q 1097 -91 708 395 
Q 319 881 319 1663 
Q 319 2444 706 2928 
Q 1094 3413 1709 3413 
Q 2094 3413 2355 3264 
Q 2616 3116 2784 2803 
L 2784 3322 
L 3909 3322 
L 3909 2988 
L 3359 2988 
z
M 2784 1825 
Q 2784 2422 2554 2737 
Q 2325 3053 1888 3053 
Q 1444 3053 1217 2703 
Q 991 2353 991 1663 
Q 991 975 1217 622 
Q 1444 269 1888 269 
Q 2325 269 2554 583 
Q 2784 897 2784 1497 
L 2784 1825 
z
" transform="scale(0.015625)"/>
      <path id="Cmmi10-4e" d="M 300 0 
Q 238 0 238 84 
Q 241 100 250 139 
Q 259 178 276 201 
Q 294 225 319 225 
Q 931 225 1031 616 
L 1900 4116 
Q 1722 4147 1338 4147 
Q 1275 4147 1275 4231 
Q 1278 4247 1287 4286 
Q 1297 4325 1314 4348 
Q 1331 4372 1356 4372 
L 2463 4372 
Q 2509 4372 2522 4331 
L 3944 947 
L 4653 3781 
Q 4666 3850 4666 3878 
Q 4666 4147 4172 4147 
Q 4109 4147 4109 4231 
Q 4131 4313 4143 4342 
Q 4156 4372 4219 4372 
L 5588 4372 
Q 5650 4372 5650 4288 
Q 5647 4272 5637 4233 
Q 5628 4194 5611 4170 
Q 5594 4147 5569 4147 
Q 4956 4147 4856 3756 
L 3938 56 
Q 3916 0 3872 0 
L 3794 0 
Q 3750 0 3738 44 
L 2106 3916 
L 2094 3956 
Q 2081 3969 2081 3975 
L 1234 588 
Q 1228 572 1225 548 
Q 1222 525 1216 494 
Q 1216 328 1359 276 
Q 1503 225 1716 225 
Q 1778 225 1778 141 
Q 1756 53 1740 26 
Q 1725 0 1672 0 
L 300 0 
z
" transform="scale(0.015625)"/>
      <path id="DejaVuSerif-61" d="M 2547 1044 
L 2547 1747 
L 1806 1747 
Q 1378 1747 1168 1562 
Q 959 1378 959 997 
Q 959 650 1171 447 
Q 1384 244 1747 244 
Q 2106 244 2326 466 
Q 2547 688 2547 1044 
z
M 3122 2075 
L 3122 331 
L 3634 331 
L 3634 0 
L 2547 0 
L 2547 359 
Q 2356 128 2106 18 
Q 1856 -91 1522 -91 
Q 969 -91 644 203 
Q 319 497 319 997 
Q 319 1513 691 1797 
Q 1063 2081 1741 2081 
L 2547 2081 
L 2547 2309 
Q 2547 2688 2317 2895 
Q 2088 3103 1672 3103 
Q 1328 3103 1125 2947 
Q 922 2791 872 2484 
L 575 2484 
L 575 3156 
Q 875 3284 1158 3348 
Q 1441 3413 1709 3413 
Q 2400 3413 2761 3070 
Q 3122 2728 3122 2075 
z
" transform="scale(0.015625)"/>
      <path id="DejaVuSerif-79" d="M 1381 -609 
L 1600 -56 
L 359 2988 
L -19 2988 
L -19 3322 
L 1509 3322 
L 1509 2988 
L 978 2988 
L 1913 703 
L 2847 2988 
L 2350 2988 
L 2350 3322 
L 3597 3322 
L 3597 2988 
L 3225 2988 
L 1703 -750 
Q 1547 -1138 1356 -1280 
Q 1166 -1422 819 -1422 
Q 672 -1422 517 -1397 
Q 363 -1372 206 -1325 
L 206 -691 
L 500 -691 
Q 519 -903 608 -995 
Q 697 -1088 884 -1088 
Q 1056 -1088 1161 -992 
Q 1266 -897 1381 -609 
z
" transform="scale(0.015625)"/>
      <path id="DejaVuSerif-3a" d="M 666 325 
Q 666 500 786 622 
Q 906 744 1081 744 
Q 1256 744 1376 622 
Q 1497 500 1497 325 
Q 1497 150 1378 29 
Q 1259 -91 1081 -91 
Q 903 -91 784 29 
Q 666 150 666 325 
z
M 666 2363 
Q 666 2538 786 2658 
Q 906 2778 1081 2778 
Q 1259 2778 1378 2659 
Q 1497 2541 1497 2363 
Q 1497 2184 1378 2065 
Q 1259 1947 1081 1947 
Q 906 1947 786 2067 
Q 666 2188 666 2363 
z
" transform="scale(0.015625)"/>
      <path id="DejaVuSerif-28" d="M 2041 -997 
Q 1281 -656 893 83 
Q 506 822 506 1931 
Q 506 3044 893 3783 
Q 1281 4522 2041 4863 
L 2041 4556 
Q 1559 4225 1350 3623 
Q 1141 3022 1141 1931 
Q 1141 844 1350 242 
Q 1559 -359 2041 -691 
L 2041 -997 
z
" transform="scale(0.015625)"/>
      <path id="DejaVuSerif-29" d="M 453 -997 
L 453 -691 
Q 934 -359 1145 242 
Q 1356 844 1356 1931 
Q 1356 3022 1145 3623 
Q 934 4225 453 4556 
L 453 4863 
Q 1216 4522 1603 3783 
Q 1991 3044 1991 1931 
Q 1991 822 1603 83 
Q 1216 -656 453 -997 
z
" transform="scale(0.015625)"/>
      <path id="DejaVuSerif-6c" d="M 1313 331 
L 1856 331 
L 1856 0 
L 184 0 
L 184 331 
L 738 331 
L 738 4531 
L 184 4531 
L 184 4863 
L 1313 4863 
L 1313 331 
z
" transform="scale(0.015625)"/>
      <path id="Cmr10-32" d="M 319 0 
L 319 172 
Q 319 188 331 206 
L 1325 1306 
Q 1550 1550 1690 1715 
Q 1831 1881 1968 2097 
Q 2106 2313 2186 2536 
Q 2266 2759 2266 3009 
Q 2266 3272 2169 3511 
Q 2072 3750 1880 3894 
Q 1688 4038 1416 4038 
Q 1138 4038 916 3870 
Q 694 3703 603 3438 
Q 628 3444 672 3444 
Q 816 3444 917 3347 
Q 1019 3250 1019 3097 
Q 1019 2950 917 2848 
Q 816 2747 672 2747 
Q 522 2747 420 2851 
Q 319 2956 319 3097 
Q 319 3338 409 3548 
Q 500 3759 670 3923 
Q 841 4088 1055 4175 
Q 1269 4263 1509 4263 
Q 1875 4263 2190 4108 
Q 2506 3953 2690 3670 
Q 2875 3388 2875 3009 
Q 2875 2731 2753 2481 
Q 2631 2231 2440 2026 
Q 2250 1822 1953 1562 
Q 1656 1303 1563 1216 
L 838 519 
L 1453 519 
Q 1906 519 2211 526 
Q 2516 534 2534 550 
Q 2609 631 2688 1141 
L 2875 1141 
L 2694 0 
L 319 0 
z
" transform="scale(0.015625)"/>
      <path id="Cmr10-30" d="M 1600 -141 
Q 816 -141 533 504 
Q 250 1150 250 2041 
Q 250 2597 351 3087 
Q 453 3578 754 3920 
Q 1056 4263 1600 4263 
Q 2022 4263 2290 4056 
Q 2559 3850 2700 3523 
Q 2841 3197 2892 2823 
Q 2944 2450 2944 2041 
Q 2944 1491 2842 1011 
Q 2741 531 2444 195 
Q 2147 -141 1600 -141 
z
M 1600 25 
Q 1956 25 2131 390 
Q 2306 756 2347 1200 
Q 2388 1644 2388 2144 
Q 2388 2625 2347 3031 
Q 2306 3438 2132 3767 
Q 1959 4097 1600 4097 
Q 1238 4097 1063 3765 
Q 888 3434 847 3029 
Q 806 2625 806 2144 
Q 806 1788 823 1472 
Q 841 1156 916 820 
Q 991 484 1158 254 
Q 1325 25 1600 25 
z
" transform="scale(0.015625)"/>
      <path id="DejaVuSerif-2c" d="M 231 -622 
Q 525 -406 662 -114 
Q 800 178 800 594 
L 800 709 
L 1416 709 
Q 1391 175 1164 -208 
Q 938 -591 481 -872 
L 231 -622 
z
" transform="scale(0.015625)"/>
      <path id="DejaVuSerif-63" d="M 3291 997 
Q 3169 466 2822 187 
Q 2475 -91 1925 -91 
Q 1200 -91 759 389 
Q 319 869 319 1663 
Q 319 2459 759 2936 
Q 1200 3413 1925 3413 
Q 2241 3413 2553 3339 
Q 2866 3266 3181 3116 
L 3181 2266 
L 2847 2266 
Q 2781 2703 2561 2903 
Q 2341 3103 1931 3103 
Q 1466 3103 1228 2742 
Q 991 2381 991 1663 
Q 991 944 1227 581 
Q 1463 219 1931 219 
Q 2303 219 2525 412 
Q 2747 606 2828 997 
L 3291 997 
z
" transform="scale(0.015625)"/>
      <path id="DejaVuSerif-54" d="M 1222 0 
L 1222 331 
L 1819 331 
L 1819 4294 
L 447 4294 
L 447 3566 
L 63 3566 
L 63 4666 
L 4206 4666 
L 4206 3566 
L 3822 3566 
L 3822 4294 
L 2450 4294 
L 2450 331 
L 3047 331 
L 3047 0 
L 1222 0 
z
" transform="scale(0.015625)"/>
      <path id="DejaVuSerif-77" d="M 3072 3322 
L 3922 728 
L 4672 2988 
L 4191 2988 
L 4191 3322 
L 5394 3322 
L 5394 2988 
L 5025 2988 
L 4038 0 
L 3559 0 
L 2741 2484 
L 1919 0 
L 1459 0 
L 475 2988 
L 103 2988 
L 103 3322 
L 1606 3322 
L 1606 2988 
L 1069 2988 
L 1813 728 
L 2669 3322 
L 3072 3322 
z
" transform="scale(0.015625)"/>
      <path id="DejaVuSerif-7a" d="M 256 0 
L 256 269 
L 2338 2988 
L 691 2988 
L 691 2413 
L 359 2413 
L 359 3322 
L 3078 3322 
L 3078 3053 
L 997 331 
L 2803 331 
L 2803 934 
L 3138 934 
L 3138 0 
L 256 0 
z
" transform="scale(0.015625)"/>
      <path id="DejaVuSerif-2e" d="M 603 325 
Q 603 500 722 622 
Q 841 744 1019 744 
Q 1191 744 1312 622 
Q 1434 500 1434 325 
Q 1434 153 1312 31 
Q 1191 -91 1019 -91 
Q 841 -91 722 29 
Q 603 150 603 325 
z
" transform="scale(0.015625)"/>
     </defs>
     <use xlink:href="#DejaVuSerif-46" transform="translate(0 0.015625)"/>
     <use xlink:href="#DejaVuSerif-69" transform="translate(69.384766 0.015625)"/>
     <use xlink:href="#DejaVuSerif-6e" transform="translate(101.367188 0.015625)"/>
     <use xlink:href="#DejaVuSerif-64" transform="translate(165.771484 0.015625)"/>
     <use xlink:href="#DejaVuSerif-20" transform="translate(229.785156 0.015625)"/>
     <use xlink:href="#DejaVuSerif-74" transform="translate(261.572266 0.015625)"/>
     <use xlink:href="#DejaVuSerif-68" transform="translate(301.757812 0.015625)"/>
     <use xlink:href="#DejaVuSerif-65" transform="translate(366.162109 0.015625)"/>
     <use xlink:href="#DejaVuSerif-20" transform="translate(425.341797 0.015625)"/>
     <use xlink:href="#DejaVuSerif-6e" transform="translate(457.128906 0.015625)"/>
     <use xlink:href="#DejaVuSerif-75" transform="translate(521.533203 0.015625)"/>
     <use xlink:href="#DejaVuSerif-6d" transform="translate(585.9375 0.015625)"/>
     <use xlink:href="#DejaVuSerif-62" transform="translate(680.761719 0.015625)"/>
     <use xlink:href="#DejaVuSerif-65" transform="translate(744.775391 0.015625)"/>
     <use xlink:href="#DejaVuSerif-72" transform="translate(803.955078 0.015625)"/>
     <use xlink:href="#DejaVuSerif-20" transform="translate(851.757812 0.015625)"/>
     <use xlink:href="#DejaVuSerif-6f" transform="translate(883.544922 0.015625)"/>
     <use xlink:href="#DejaVuSerif-66" transform="translate(943.75 0.015625)"/>
     <use xlink:href="#DejaVuSerif-20" transform="translate(980.761719 0.015625)"/>
     <use xlink:href="#DejaVuSerif-70" transform="translate(1012.548828 0.015625)"/>
     <use xlink:href="#DejaVuSerif-6f" transform="translate(1076.5625 0.015625)"/>
     <use xlink:href="#DejaVuSerif-73" transform="translate(1136.767578 0.015625)"/>
     <use xlink:href="#DejaVuSerif-69" transform="translate(1188.085938 0.015625)"/>
     <use xlink:href="#DejaVuSerif-74" transform="translate(1220.068359 0.015625)"/>
     <use xlink:href="#DejaVuSerif-69" transform="translate(1260.253906 0.015625)"/>
     <use xlink:href="#DejaVuSerif-76" transform="translate(1292.236328 0.015625)"/>
     <use xlink:href="#DejaVuSerif-65" transform="translate(1348.730469 0.015625)"/>
     <use xlink:href="#DejaVuSerif-20" transform="translate(1407.910156 0.015625)"/>
     <use xlink:href="#DejaVuSerif-69" transform="translate(1439.697266 0.015625)"/>
     <use xlink:href="#DejaVuSerif-6e" transform="translate(1471.679688 0.015625)"/>
     <use xlink:href="#DejaVuSerif-74" transform="translate(1536.083984 0.015625)"/>
     <use xlink:href="#DejaVuSerif-65" transform="translate(1576.269531 0.015625)"/>
     <use xlink:href="#DejaVuSerif-67" transform="translate(1635.449219 0.015625)"/>
     <use xlink:href="#DejaVuSerif-65" transform="translate(1699.462891 0.015625)"/>
     <use xlink:href="#DejaVuSerif-72" transform="translate(1758.642578 0.015625)"/>
     <use xlink:href="#DejaVuSerif-73" transform="translate(1806.445312 0.015625)"/>
     <use xlink:href="#DejaVuSerif-20" transform="translate(1857.763672 0.015625)"/>
     <use xlink:href="#Cmmi10-4e" transform="translate(1889.550781 0.015625)"/>
     <use xlink:href="#DejaVuSerif-20" transform="translate(1969.873047 0.015625)"/>
     <use xlink:href="#DejaVuSerif-73" transform="translate(2001.660156 0.015625)"/>
     <use xlink:href="#DejaVuSerif-61" transform="translate(2052.978516 0.015625)"/>
     <use xlink:href="#DejaVuSerif-74" transform="translate(2112.597656 0.015625)"/>
     <use xlink:href="#DejaVuSerif-69" transform="translate(2152.783203 0.015625)"/>
     <use xlink:href="#DejaVuSerif-73" transform="translate(2184.765625 0.015625)"/>
     <use xlink:href="#DejaVuSerif-66" transform="translate(2236.083984 0.015625)"/>
     <use xlink:href="#DejaVuSerif-79" transform="translate(2273.095703 0.015625)"/>
     <use xlink:href="#DejaVuSerif-69" transform="translate(2329.589844 0.015625)"/>
     <use xlink:href="#DejaVuSerif-6e" transform="translate(2361.572266 0.015625)"/>
     <use xlink:href="#DejaVuSerif-67" transform="translate(2425.976562 0.015625)"/>
     <use xlink:href="#DejaVuSerif-3a" transform="translate(2489.990234 0.015625)"/>
     <use xlink:href="#DejaVuSerif-20" transform="translate(2523.681641 0.015625)"/>
     <use xlink:href="#DejaVuSerif-28" transform="translate(2555.46875 0.015625)"/>
     <use xlink:href="#DejaVuSerif-69" transform="translate(2594.482422 0.015625)"/>
     <use xlink:href="#DejaVuSerif-29" transform="translate(2626.464844 0.015625)"/>
     <use xlink:href="#DejaVuSerif-20" transform="translate(2665.478516 0.015625)"/>
     <use xlink:href="#Cmmi10-4e" transform="translate(2697.265625 0.015625)"/>
     <use xlink:href="#DejaVuSerif-20" transform="translate(2777.587891 0.015625)"/>
     <use xlink:href="#DejaVuSerif-69" transform="translate(2809.375 0.015625)"/>
     <use xlink:href="#DejaVuSerif-73" transform="translate(2841.357422 0.015625)"/>
     <use xlink:href="#DejaVuSerif-20" transform="translate(2892.675781 0.015625)"/>
     <use xlink:href="#DejaVuSerif-64" transform="translate(2924.462891 0.015625)"/>
     <use xlink:href="#DejaVuSerif-69" transform="translate(2988.476562 0.015625)"/>
     <use xlink:href="#DejaVuSerif-76" transform="translate(3020.458984 0.015625)"/>
     <use xlink:href="#DejaVuSerif-69" transform="translate(3076.953125 0.015625)"/>
     <use xlink:href="#DejaVuSerif-73" transform="translate(3108.935547 0.015625)"/>
     <use xlink:href="#DejaVuSerif-69" transform="translate(3160.253906 0.015625)"/>
     <use xlink:href="#DejaVuSerif-62" transform="translate(3192.236328 0.015625)"/>
     <use xlink:href="#DejaVuSerif-6c" transform="translate(3256.25 0.015625)"/>
     <use xlink:href="#DejaVuSerif-65" transform="translate(3288.232422 0.015625)"/>
     <use xlink:href="#DejaVuSerif-20" transform="translate(3347.412109 0.015625)"/>
     <use xlink:href="#DejaVuSerif-62" transform="translate(3379.199219 0.015625)"/>
     <use xlink:href="#DejaVuSerif-79" transform="translate(3443.212891 0.015625)"/>
     <use xlink:href="#DejaVuSerif-20" transform="translate(3499.707031 0.015625)"/>
     <use xlink:href="#Cmr10-32" transform="translate(3531.494141 0.015625)"/>
     <use xlink:href="#Cmr10-30" transform="translate(3581.494141 0.015625)"/>
     <use xlink:href="#Cmr10-32" transform="translate(3631.494141 0.015625)"/>
     <use xlink:href="#Cmr10-30" transform="translate(3681.494141 0.015625)"/>
     <use xlink:href="#DejaVuSerif-2c" transform="translate(3731.494141 0.015625)"/>
     <use xlink:href="#DejaVuSerif-20" transform="translate(3763.28125 0.015625)"/>
     <use xlink:href="#DejaVuSerif-28" transform="translate(3795.068359 0.015625)"/>
     <use xlink:href="#DejaVuSerif-69" transform="translate(3834.082031 0.015625)"/>
     <use xlink:href="#DejaVuSerif-69" transform="translate(3866.064453 0.015625)"/>
     <use xlink:href="#DejaVuSerif-29" transform="translate(3898.046875 0.015625)"/>
     <use xlink:href="#DejaVuSerif-20" transform="translate(3937.060547 0.015625)"/>
     <use xlink:href="#Cmmi10-4e" transform="translate(3968.847656 0.015625)"/>
     <use xlink:href="#DejaVuSerif-20" transform="translate(4049.169922 0.015625)"/>
     <use xlink:href="#DejaVuSerif-68" transform="translate(4080.957031 0.015625)"/>
     <use xlink:href="#DejaVuSerif-61" transform="translate(4145.361328 0.015625)"/>
     <use xlink:href="#DejaVuSerif-73" transform="translate(4204.980469 0.015625)"/>
     <use xlink:href="#DejaVuSerif-20" transform="translate(4256.298828 0.015625)"/>
     <use xlink:href="#DejaVuSerif-61" transform="translate(4288.085938 0.015625)"/>
     <use xlink:href="#DejaVuSerif-74" transform="translate(4347.705078 0.015625)"/>
     <use xlink:href="#DejaVuSerif-20" transform="translate(4387.890625 0.015625)"/>
     <use xlink:href="#DejaVuSerif-6d" transform="translate(4419.677734 0.015625)"/>
     <use xlink:href="#DejaVuSerif-6f" transform="translate(4514.501953 0.015625)"/>
     <use xlink:href="#DejaVuSerif-73" transform="translate(4574.707031 0.015625)"/>
     <use xlink:href="#DejaVuSerif-74" transform="translate(4626.025391 0.015625)"/>
     <use xlink:href="#DejaVuSerif-20" transform="translate(4666.210938 0.015625)"/>
     <use xlink:href="#Cmr10-32" transform="translate(4697.998047 0.015625)"/>
     <use xlink:href="#Cmr10-30" transform="translate(4747.998047 0.015625)"/>
     <use xlink:href="#Cmr10-32" transform="translate(4797.998047 0.015625)"/>
     <use xlink:href="#Cmr10-30" transform="translate(4847.998047 0.015625)"/>
     <use xlink:href="#DejaVuSerif-20" transform="translate(4897.998047 0.015625)"/>
     <use xlink:href="#DejaVuSerif-64" transform="translate(4929.785156 0.015625)"/>
     <use xlink:href="#DejaVuSerif-65" transform="translate(4993.798828 0.015625)"/>
     <use xlink:href="#DejaVuSerif-63" transform="translate(5052.978516 0.015625)"/>
     <use xlink:href="#DejaVuSerif-69" transform="translate(5108.984375 0.015625)"/>
     <use xlink:href="#DejaVuSerif-6d" transform="translate(5140.966797 0.015625)"/>
     <use xlink:href="#DejaVuSerif-61" transform="translate(5235.791016 0.015625)"/>
     <use xlink:href="#DejaVuSerif-6c" transform="translate(5295.410156 0.015625)"/>
     <use xlink:href="#DejaVuSerif-20" transform="translate(5327.392578 0.015625)"/>
     <use xlink:href="#DejaVuSerif-64" transform="translate(5359.179688 0.015625)"/>
     <use xlink:href="#DejaVuSerif-69" transform="translate(5423.193359 0.015625)"/>
     <use xlink:href="#DejaVuSerif-67" transform="translate(5455.175781 0.015625)"/>
     <use xlink:href="#DejaVuSerif-69" transform="translate(5519.189453 0.015625)"/>
     <use xlink:href="#DejaVuSerif-74" transform="translate(5551.171875 0.015625)"/>
     <use xlink:href="#DejaVuSerif-73" transform="translate(5591.357422 0.015625)"/>
     <use xlink:href="#DejaVuSerif-2c" transform="translate(5642.675781 0.015625)"/>
     <use xlink:href="#DejaVuSerif-20" transform="translate(5674.462891 0.015625)"/>
     <use xlink:href="#DejaVuSerif-28" transform="translate(5706.25 0.015625)"/>
     <use xlink:href="#DejaVuSerif-69" transform="translate(5745.263672 0.015625)"/>
     <use xlink:href="#DejaVuSerif-69" transform="translate(5777.246094 0.015625)"/>
     <use xlink:href="#DejaVuSerif-69" transform="translate(5809.228516 0.015625)"/>
     <use xlink:href="#DejaVuSerif-29" transform="translate(5841.210938 0.015625)"/>
     <use xlink:href="#DejaVuSerif-20" transform="translate(5880.224609 0.015625)"/>
     <use xlink:href="#DejaVuSerif-54" transform="translate(5912.011719 0.015625)"/>
     <use xlink:href="#DejaVuSerif-68" transform="translate(5978.710938 0.015625)"/>
     <use xlink:href="#DejaVuSerif-65" transform="translate(6043.115234 0.015625)"/>
     <use xlink:href="#DejaVuSerif-20" transform="translate(6102.294922 0.015625)"/>
     <use xlink:href="#DejaVuSerif-64" transform="translate(6134.082031 0.015625)"/>
     <use xlink:href="#DejaVuSerif-65" transform="translate(6198.095703 0.015625)"/>
     <use xlink:href="#DejaVuSerif-63" transform="translate(6257.275391 0.015625)"/>
     <use xlink:href="#DejaVuSerif-69" transform="translate(6313.28125 0.015625)"/>
     <use xlink:href="#DejaVuSerif-6d" transform="translate(6345.263672 0.015625)"/>
     <use xlink:href="#DejaVuSerif-61" transform="translate(6440.087891 0.015625)"/>
     <use xlink:href="#DejaVuSerif-6c" transform="translate(6499.707031 0.015625)"/>
     <use xlink:href="#DejaVuSerif-20" transform="translate(6531.689453 0.015625)"/>
     <use xlink:href="#DejaVuSerif-64" transform="translate(6563.476562 0.015625)"/>
     <use xlink:href="#DejaVuSerif-69" transform="translate(6627.490234 0.015625)"/>
     <use xlink:href="#DejaVuSerif-67" transform="translate(6659.472656 0.015625)"/>
     <use xlink:href="#DejaVuSerif-69" transform="translate(6723.486328 0.015625)"/>
     <use xlink:href="#DejaVuSerif-74" transform="translate(6755.46875 0.015625)"/>
     <use xlink:href="#DejaVuSerif-73" transform="translate(6795.654297 0.015625)"/>
     <use xlink:href="#DejaVuSerif-20" transform="translate(6846.972656 0.015625)"/>
     <use xlink:href="#DejaVuSerif-6f" transform="translate(6878.759766 0.015625)"/>
     <use xlink:href="#DejaVuSerif-66" transform="translate(6938.964844 0.015625)"/>
     <use xlink:href="#DejaVuSerif-20" transform="translate(6975.976562 0.015625)"/>
     <use xlink:href="#Cmmi10-4e" transform="translate(7007.763672 0.015625)"/>
     <use xlink:href="#DejaVuSerif-20" transform="translate(7088.085938 0.015625)"/>
     <use xlink:href="#DejaVuSerif-61" transform="translate(7119.873047 0.015625)"/>
     <use xlink:href="#DejaVuSerif-72" transform="translate(7179.492188 0.015625)"/>
     <use xlink:href="#DejaVuSerif-65" transform="translate(7227.294922 0.015625)"/>
     <use xlink:href="#DejaVuSerif-20" transform="translate(7286.474609 0.015625)"/>
     <use xlink:href="#DejaVuSerif-61" transform="translate(7318.261719 0.015625)"/>
     <use xlink:href="#DejaVuSerif-20" transform="translate(7377.880859 0.015625)"/>
     <use xlink:href="#DejaVuSerif-73" transform="translate(7409.667969 0.015625)"/>
     <use xlink:href="#DejaVuSerif-74" transform="translate(7460.986328 0.015625)"/>
     <use xlink:href="#DejaVuSerif-72" transform="translate(7501.171875 0.015625)"/>
     <use xlink:href="#DejaVuSerif-69" transform="translate(7548.974609 0.015625)"/>
     <use xlink:href="#DejaVuSerif-6e" transform="translate(7580.957031 0.015625)"/>
     <use xlink:href="#DejaVuSerif-67" transform="translate(7645.361328 0.015625)"/>
     <use xlink:href="#DejaVuSerif-20" transform="translate(7709.375 0.015625)"/>
     <use xlink:href="#DejaVuSerif-6f" transform="translate(7741.162109 0.015625)"/>
     <use xlink:href="#DejaVuSerif-66" transform="translate(7801.367188 0.015625)"/>
     <use xlink:href="#DejaVuSerif-20" transform="translate(7838.378906 0.015625)"/>
     <use xlink:href="#DejaVuSerif-63" transform="translate(7870.166016 0.015625)"/>
     <use xlink:href="#DejaVuSerif-6f" transform="translate(7926.171875 0.015625)"/>
     <use xlink:href="#DejaVuSerif-6e" transform="translate(7986.376953 0.015625)"/>
     <use xlink:href="#DejaVuSerif-73" transform="translate(8050.78125 0.015625)"/>
     <use xlink:href="#DejaVuSerif-65" transform="translate(8102.099609 0.015625)"/>
     <use xlink:href="#DejaVuSerif-63" transform="translate(8161.279297 0.015625)"/>
     <use xlink:href="#DejaVuSerif-75" transform="translate(8217.285156 0.015625)"/>
     <use xlink:href="#DejaVuSerif-74" transform="translate(8281.689453 0.015625)"/>
     <use xlink:href="#DejaVuSerif-69" transform="translate(8321.875 0.015625)"/>
     <use xlink:href="#DejaVuSerif-76" transform="translate(8353.857422 0.015625)"/>
     <use xlink:href="#DejaVuSerif-65" transform="translate(8410.351562 0.015625)"/>
     <use xlink:href="#DejaVuSerif-20" transform="translate(8469.53125 0.015625)"/>
     <use xlink:href="#DejaVuSerif-6f" transform="translate(8501.318359 0.015625)"/>
     <use xlink:href="#DejaVuSerif-6e" transform="translate(8561.523438 0.015625)"/>
     <use xlink:href="#DejaVuSerif-65" transform="translate(8625.927734 0.015625)"/>
     <use xlink:href="#DejaVuSerif-73" transform="translate(8685.107422 0.015625)"/>
     <use xlink:href="#DejaVuSerif-20" transform="translate(8736.425781 0.015625)"/>
     <use xlink:href="#DejaVuSerif-66" transform="translate(8768.212891 0.015625)"/>
     <use xlink:href="#DejaVuSerif-6f" transform="translate(8805.224609 0.015625)"/>
     <use xlink:href="#DejaVuSerif-6c" transform="translate(8865.429688 0.015625)"/>
     <use xlink:href="#DejaVuSerif-6c" transform="translate(8897.412109 0.015625)"/>
     <use xlink:href="#DejaVuSerif-6f" transform="translate(8929.394531 0.015625)"/>
     <use xlink:href="#DejaVuSerif-77" transform="translate(8989.599609 0.015625)"/>
     <use xlink:href="#DejaVuSerif-65" transform="translate(9075.195312 0.015625)"/>
     <use xlink:href="#DejaVuSerif-64" transform="translate(9134.375 0.015625)"/>
     <use xlink:href="#DejaVuSerif-20" transform="translate(9198.388672 0.015625)"/>
     <use xlink:href="#DejaVuSerif-62" transform="translate(9230.175781 0.015625)"/>
     <use xlink:href="#DejaVuSerif-79" transform="translate(9294.189453 0.015625)"/>
     <use xlink:href="#DejaVuSerif-20" transform="translate(9350.683594 0.015625)"/>
     <use xlink:href="#DejaVuSerif-61" transform="translate(9382.470703 0.015625)"/>
     <use xlink:href="#DejaVuSerif-20" transform="translate(9442.089844 0.015625)"/>
     <use xlink:href="#DejaVuSerif-73" transform="translate(9473.876953 0.015625)"/>
     <use xlink:href="#DejaVuSerif-74" transform="translate(9525.195312 0.015625)"/>
     <use xlink:href="#DejaVuSerif-72" transform="translate(9565.380859 0.015625)"/>
     <use xlink:href="#DejaVuSerif-69" transform="translate(9613.183594 0.015625)"/>
     <use xlink:href="#DejaVuSerif-6e" transform="translate(9645.166016 0.015625)"/>
     <use xlink:href="#DejaVuSerif-67" transform="translate(9709.570312 0.015625)"/>
     <use xlink:href="#DejaVuSerif-20" transform="translate(9773.583984 0.015625)"/>
     <use xlink:href="#DejaVuSerif-6f" transform="translate(9805.371094 0.015625)"/>
     <use xlink:href="#DejaVuSerif-66" transform="translate(9865.576172 0.015625)"/>
     <use xlink:href="#DejaVuSerif-20" transform="translate(9902.587891 0.015625)"/>
     <use xlink:href="#DejaVuSerif-63" transform="translate(9934.375 0.015625)"/>
     <use xlink:href="#DejaVuSerif-6f" transform="translate(9990.380859 0.015625)"/>
     <use xlink:href="#DejaVuSerif-6e" transform="translate(10050.585938 0.015625)"/>
     <use xlink:href="#DejaVuSerif-73" transform="translate(10114.990234 0.015625)"/>
     <use xlink:href="#DejaVuSerif-65" transform="translate(10166.308594 0.015625)"/>
     <use xlink:href="#DejaVuSerif-63" transform="translate(10225.488281 0.015625)"/>
     <use xlink:href="#DejaVuSerif-75" transform="translate(10281.494141 0.015625)"/>
     <use xlink:href="#DejaVuSerif-74" transform="translate(10345.898438 0.015625)"/>
     <use xlink:href="#DejaVuSerif-69" transform="translate(10386.083984 0.015625)"/>
     <use xlink:href="#DejaVuSerif-76" transform="translate(10418.066406 0.015625)"/>
     <use xlink:href="#DejaVuSerif-65" transform="translate(10474.560547 0.015625)"/>
     <use xlink:href="#DejaVuSerif-20" transform="translate(10533.740234 0.015625)"/>
     <use xlink:href="#DejaVuSerif-7a" transform="translate(10565.527344 0.015625)"/>
     <use xlink:href="#DejaVuSerif-65" transform="translate(10618.212891 0.015625)"/>
     <use xlink:href="#DejaVuSerif-72" transform="translate(10677.392578 0.015625)"/>
     <use xlink:href="#DejaVuSerif-6f" transform="translate(10725.195312 0.015625)"/>
     <use xlink:href="#DejaVuSerif-73" transform="translate(10785.400391 0.015625)"/>
     <use xlink:href="#DejaVuSerif-2e" transform="translate(10836.71875 0.015625)"/>
    </g>
   </g>
  </g>
 </g>
</svg>
