<?xml version="1.0" encoding="utf-8" standalone="no"?>
<!DOCTYPE svg PUBLIC "-//W3C//DTD SVG 1.1//EN"
  "http://www.w3.org/Graphics/SVG/1.1/DTD/svg11.dtd">
<svg xmlns:xlink="http://www.w3.org/1999/xlink" width="1528.44pt" height="180.72pt" viewBox="0 0 1528.44 180.72" xmlns="http://www.w3.org/2000/svg" version="1.1">
 <metadata>
  <rdf:RDF xmlns:dc="http://purl.org/dc/elements/1.1/" xmlns:cc="http://creativecommons.org/ns#" xmlns:rdf="http://www.w3.org/1999/02/22-rdf-syntax-ns#">
   <cc:Work>
    <dc:type rdf:resource="http://purl.org/dc/dcmitype/StillImage"/>
    <dc:date>2025-05-29T18:44:04.139966</dc:date>
    <dc:format>image/svg+xml</dc:format>
    <dc:creator>
     <cc:Agent>
      <dc:title>Matplotlib v3.10.3, https://matplotlib.org/</dc:title>
     </cc:Agent>
    </dc:creator>
   </cc:Work>
  </rdf:RDF>
 </metadata>
 <defs>
  <style type="text/css">*{stroke-linejoin: round; stroke-linecap: butt}</style>
 </defs>
 <g id="figure_1">
  <g id="patch_1">
   <path d="M 0 180.72 
L 1528.44 180.72 
L 1528.44 0 
L 0 0 
z
" style="fill: #ffffff"/>
  </g>
  <g id="axes_1">
   <g id="text_1">
    <!-- Let $A_1=0$ and $A_2=1$. For $n&gt;2$, the number $A_n$ is defined by concatenating the decimal expansions of $A_{n-1}$ and $A_{n-2}$ from left to right.  For example $A_3=A_2 A_1=10$, $A_4=A_3 A_2 = 101$, $A_5=A_4 A_3 = 10110$, and so forth.  Determine all $n$ such that $11$ divides $A_n$. -->
    <g transform="translate(7.2 93.54) scale(0.12 -0.12)">
     <defs>
      <path id="DejaVuSerif-4c" d="M 353 0 
L 353 331 
L 947 331 
L 947 4331 
L 353 4331 
L 353 4666 
L 2175 4666 
L 2175 4331 
L 1581 4331 
L 1581 384 
L 3713 384 
L 3713 1166 
L 4097 1166 
L 4097 0 
L 353 0 
z
" transform="scale(0.015625)"/>
      <path id="DejaVuSerif-65" d="M 3469 1600 
L 991 1600 
L 991 1575 
Q 991 903 1244 561 
Q 1497 219 1991 219 
Q 2369 219 2611 417 
Q 2853 616 2950 1006 
L 3413 1006 
Q 3275 459 2904 184 
Q 2534 -91 1931 -91 
Q 1203 -91 761 389 
Q 319 869 319 1663 
Q 319 2450 753 2931 
Q 1188 3413 1894 3413 
Q 2647 3413 3050 2948 
Q 3453 2484 3469 1600 
z
M 2791 1931 
Q 2772 2513 2545 2808 
Q 2319 3103 1894 3103 
Q 1497 3103 1269 2806 
Q 1041 2509 991 1931 
L 2791 1931 
z
" transform="scale(0.015625)"/>
      <path id="DejaVuSerif-74" d="M 691 2988 
L 184 2988 
L 184 3322 
L 691 3322 
L 691 4353 
L 1269 4353 
L 1269 3322 
L 2350 3322 
L 2350 2988 
L 1269 2988 
L 1269 878 
Q 1269 456 1350 337 
Q 1431 219 1650 219 
Q 1875 219 1978 351 
Q 2081 484 2088 781 
L 2522 781 
Q 2497 328 2275 118 
Q 2053 -91 1600 -91 
Q 1103 -91 897 129 
Q 691 350 691 878 
L 691 2988 
z
" transform="scale(0.015625)"/>
      <path id="DejaVuSerif-20" transform="scale(0.015625)"/>
      <path id="Cmmi10-41" d="M 288 0 
Q 225 0 225 84 
Q 250 225 306 225 
Q 566 225 755 328 
Q 944 431 1081 647 
Q 1094 659 1094 659 
L 3378 4513 
Q 3428 4581 3500 4581 
L 3584 4581 
Q 3603 4581 3622 4573 
Q 3641 4566 3655 4548 
Q 3669 4531 3669 4513 
L 4056 378 
Q 4056 350 4084 294 
Q 4147 225 4563 225 
Q 4628 225 4628 141 
Q 4606 56 4592 28 
Q 4578 0 4519 0 
L 2919 0 
Q 2859 0 2859 84 
Q 2894 225 2944 225 
Q 3450 225 3481 397 
L 3384 1453 
L 1806 1453 
L 1294 594 
Q 1247 525 1247 434 
Q 1247 322 1355 273 
Q 1463 225 1594 225 
Q 1656 225 1656 141 
Q 1634 50 1621 25 
Q 1609 0 1550 0 
L 288 0 
z
M 1931 1678 
L 3359 1678 
L 3169 3750 
L 1931 1678 
z
" transform="scale(0.015625)"/>
      <path id="Cmr10-31" d="M 594 0 
L 594 225 
Q 1394 225 1394 428 
L 1394 3788 
Q 1063 3628 556 3628 
L 556 3853 
Q 1341 3853 1741 4263 
L 1831 4263 
Q 1853 4263 1873 4245 
Q 1894 4228 1894 4206 
L 1894 428 
Q 1894 225 2694 225 
L 2694 0 
L 594 0 
z
" transform="scale(0.015625)"/>
      <path id="Cmr10-3d" d="M 481 850 
Q 428 850 393 890 
Q 359 931 359 978 
Q 359 1031 393 1068 
Q 428 1106 481 1106 
L 4500 1106 
Q 4547 1106 4581 1068 
Q 4616 1031 4616 978 
Q 4616 931 4581 890 
Q 4547 850 4500 850 
L 481 850 
z
M 481 2094 
Q 428 2094 393 2131 
Q 359 2169 359 2222 
Q 359 2269 393 2309 
Q 428 2350 481 2350 
L 4500 2350 
Q 4547 2350 4581 2309 
Q 4616 2269 4616 2222 
Q 4616 2169 4581 2131 
Q 4547 2094 4500 2094 
L 481 2094 
z
" transform="scale(0.015625)"/>
      <path id="Cmr10-30" d="M 1600 -141 
Q 816 -141 533 504 
Q 250 1150 250 2041 
Q 250 2597 351 3087 
Q 453 3578 754 3920 
Q 1056 4263 1600 4263 
Q 2022 4263 2290 4056 
Q 2559 3850 2700 3523 
Q 2841 3197 2892 2823 
Q 2944 2450 2944 2041 
Q 2944 1491 2842 1011 
Q 2741 531 2444 195 
Q 2147 -141 1600 -141 
z
M 1600 25 
Q 1956 25 2131 390 
Q 2306 756 2347 1200 
Q 2388 1644 2388 2144 
Q 2388 2625 2347 3031 
Q 2306 3438 2132 3767 
Q 1959 4097 1600 4097 
Q 1238 4097 1063 3765 
Q 888 3434 847 3029 
Q 806 2625 806 2144 
Q 806 1788 823 1472 
Q 841 1156 916 820 
Q 991 484 1158 254 
Q 1325 25 1600 25 
z
" transform="scale(0.015625)"/>
      <path id="DejaVuSerif-61" d="M 2547 1044 
L 2547 1747 
L 1806 1747 
Q 1378 1747 1168 1562 
Q 959 1378 959 997 
Q 959 650 1171 447 
Q 1384 244 1747 244 
Q 2106 244 2326 466 
Q 2547 688 2547 1044 
z
M 3122 2075 
L 3122 331 
L 3634 331 
L 3634 0 
L 2547 0 
L 2547 359 
Q 2356 128 2106 18 
Q 1856 -91 1522 -91 
Q 969 -91 644 203 
Q 319 497 319 997 
Q 319 1513 691 1797 
Q 1063 2081 1741 2081 
L 2547 2081 
L 2547 2309 
Q 2547 2688 2317 2895 
Q 2088 3103 1672 3103 
Q 1328 3103 1125 2947 
Q 922 2791 872 2484 
L 575 2484 
L 575 3156 
Q 875 3284 1158 3348 
Q 1441 3413 1709 3413 
Q 2400 3413 2761 3070 
Q 3122 2728 3122 2075 
z
" transform="scale(0.015625)"/>
      <path id="DejaVuSerif-6e" d="M 263 0 
L 263 331 
L 781 331 
L 781 2988 
L 231 2988 
L 231 3322 
L 1356 3322 
L 1356 2731 
Q 1516 3069 1770 3241 
Q 2025 3413 2363 3413 
Q 2913 3413 3172 3097 
Q 3431 2781 3431 2113 
L 3431 331 
L 3944 331 
L 3944 0 
L 2356 0 
L 2356 331 
L 2853 331 
L 2853 1931 
Q 2853 2541 2703 2767 
Q 2553 2994 2175 2994 
Q 1775 2994 1565 2701 
Q 1356 2409 1356 1850 
L 1356 331 
L 1856 331 
L 1856 0 
L 263 0 
z
" transform="scale(0.015625)"/>
      <path id="DejaVuSerif-64" d="M 3359 331 
L 3909 331 
L 3909 0 
L 2784 0 
L 2784 519 
Q 2616 206 2355 57 
Q 2094 -91 1709 -91 
Q 1097 -91 708 395 
Q 319 881 319 1663 
Q 319 2444 706 2928 
Q 1094 3413 1709 3413 
Q 2094 3413 2355 3264 
Q 2616 3116 2784 2803 
L 2784 4531 
L 2241 4531 
L 2241 4863 
L 3359 4863 
L 3359 331 
z
M 2784 1497 
L 2784 1825 
Q 2784 2422 2554 2737 
Q 2325 3053 1888 3053 
Q 1444 3053 1217 2703 
Q 991 2353 991 1663 
Q 991 975 1217 622 
Q 1444 269 1888 269 
Q 2325 269 2554 583 
Q 2784 897 2784 1497 
z
" transform="scale(0.015625)"/>
      <path id="Cmr10-32" d="M 319 0 
L 319 172 
Q 319 188 331 206 
L 1325 1306 
Q 1550 1550 1690 1715 
Q 1831 1881 1968 2097 
Q 2106 2313 2186 2536 
Q 2266 2759 2266 3009 
Q 2266 3272 2169 3511 
Q 2072 3750 1880 3894 
Q 1688 4038 1416 4038 
Q 1138 4038 916 3870 
Q 694 3703 603 3438 
Q 628 3444 672 3444 
Q 816 3444 917 3347 
Q 1019 3250 1019 3097 
Q 1019 2950 917 2848 
Q 816 2747 672 2747 
Q 522 2747 420 2851 
Q 319 2956 319 3097 
Q 319 3338 409 3548 
Q 500 3759 670 3923 
Q 841 4088 1055 4175 
Q 1269 4263 1509 4263 
Q 1875 4263 2190 4108 
Q 2506 3953 2690 3670 
Q 2875 3388 2875 3009 
Q 2875 2731 2753 2481 
Q 2631 2231 2440 2026 
Q 2250 1822 1953 1562 
Q 1656 1303 1563 1216 
L 838 519 
L 1453 519 
Q 1906 519 2211 526 
Q 2516 534 2534 550 
Q 2609 631 2688 1141 
L 2875 1141 
L 2694 0 
L 319 0 
z
" transform="scale(0.015625)"/>
      <path id="DejaVuSerif-2e" d="M 603 325 
Q 603 500 722 622 
Q 841 744 1019 744 
Q 1191 744 1312 622 
Q 1434 500 1434 325 
Q 1434 153 1312 31 
Q 1191 -91 1019 -91 
Q 841 -91 722 29 
Q 603 150 603 325 
z
" transform="scale(0.015625)"/>
      <path id="DejaVuSerif-46" d="M 353 0 
L 353 331 
L 947 331 
L 947 4331 
L 353 4331 
L 353 4666 
L 4172 4666 
L 4172 3628 
L 3788 3628 
L 3788 4281 
L 1581 4281 
L 1581 2719 
L 3175 2719 
L 3175 3303 
L 3559 3303 
L 3559 1753 
L 3175 1753 
L 3175 2338 
L 1581 2338 
L 1581 331 
L 2328 331 
L 2328 0 
L 353 0 
z
" transform="scale(0.015625)"/>
      <path id="DejaVuSerif-6f" d="M 1925 219 
Q 2388 219 2623 584 
Q 2859 950 2859 1663 
Q 2859 2375 2623 2739 
Q 2388 3103 1925 3103 
Q 1463 3103 1227 2739 
Q 991 2375 991 1663 
Q 991 950 1228 584 
Q 1466 219 1925 219 
z
M 1925 -91 
Q 1200 -91 759 389 
Q 319 869 319 1663 
Q 319 2456 758 2934 
Q 1197 3413 1925 3413 
Q 2653 3413 3092 2934 
Q 3531 2456 3531 1663 
Q 3531 869 3092 389 
Q 2653 -91 1925 -91 
z
" transform="scale(0.015625)"/>
      <path id="DejaVuSerif-72" d="M 3059 3328 
L 3059 2497 
L 2728 2497 
Q 2713 2744 2591 2866 
Q 2469 2988 2234 2988 
Q 1809 2988 1582 2694 
Q 1356 2400 1356 1850 
L 1356 331 
L 2022 331 
L 2022 0 
L 263 0 
L 263 331 
L 781 331 
L 781 2994 
L 231 2994 
L 231 3322 
L 1356 3322 
L 1356 2731 
Q 1525 3078 1790 3245 
Q 2056 3413 2438 3413 
Q 2578 3413 2733 3391 
Q 2888 3369 3059 3328 
z
" transform="scale(0.015625)"/>
      <path id="Cmmi10-6e" d="M 494 109 
Q 494 147 500 166 
L 978 2075 
Q 1025 2253 1025 2388 
Q 1025 2663 838 2663 
Q 638 2663 541 2423 
Q 444 2184 353 1819 
Q 353 1800 334 1789 
Q 316 1778 300 1778 
L 225 1778 
Q 203 1778 187 1801 
Q 172 1825 172 1844 
Q 241 2122 305 2315 
Q 369 2509 505 2668 
Q 641 2828 844 2828 
Q 1084 2828 1268 2676 
Q 1453 2525 1453 2291 
Q 1644 2541 1900 2684 
Q 2156 2828 2444 2828 
Q 2672 2828 2837 2750 
Q 3003 2672 3095 2514 
Q 3188 2356 3188 2138 
Q 3188 1875 3070 1503 
Q 2953 1131 2778 672 
Q 2688 463 2688 288 
Q 2688 97 2834 97 
Q 3084 97 3251 365 
Q 3419 634 3488 941 
Q 3500 978 3541 978 
L 3616 978 
Q 3641 978 3658 962 
Q 3675 947 3675 922 
Q 3675 916 3669 903 
Q 3581 541 3364 234 
Q 3147 -72 2822 -72 
Q 2597 -72 2437 83 
Q 2278 238 2278 459 
Q 2278 578 2328 709 
Q 2409 919 2514 1209 
Q 2619 1500 2686 1765 
Q 2753 2031 2753 2234 
Q 2753 2413 2679 2538 
Q 2606 2663 2431 2663 
Q 2197 2663 2000 2559 
Q 1803 2456 1656 2286 
Q 1509 2116 1388 1881 
L 953 141 
Q 931 53 854 -9 
Q 778 -72 684 -72 
Q 606 -72 550 -22 
Q 494 28 494 109 
z
" transform="scale(0.015625)"/>
      <path id="Cmmi10-3e" d="M 531 -128 
Q 531 -47 616 -6 
L 4013 1600 
L 594 3219 
Q 531 3238 531 3328 
Q 531 3372 567 3414 
Q 603 3456 659 3456 
Q 672 3456 709 3444 
L 4384 1709 
Q 4441 1681 4441 1600 
Q 4441 1516 4366 1484 
L 709 -244 
Q 672 -256 659 -256 
Q 603 -256 567 -214 
Q 531 -172 531 -128 
z
" transform="scale(0.015625)"/>
      <path id="DejaVuSerif-2c" d="M 231 -622 
Q 525 -406 662 -114 
Q 800 178 800 594 
L 800 709 
L 1416 709 
Q 1391 175 1164 -208 
Q 938 -591 481 -872 
L 231 -622 
z
" transform="scale(0.015625)"/>
      <path id="DejaVuSerif-68" d="M 263 0 
L 263 331 
L 781 331 
L 781 4531 
L 231 4531 
L 231 4863 
L 1356 4863 
L 1356 2731 
Q 1516 3069 1770 3241 
Q 2025 3413 2363 3413 
Q 2913 3413 3172 3097 
Q 3431 2781 3431 2113 
L 3431 331 
L 3944 331 
L 3944 0 
L 2356 0 
L 2356 331 
L 2853 331 
L 2853 1931 
Q 2853 2541 2704 2764 
Q 2556 2988 2175 2988 
Q 1775 2988 1565 2697 
Q 1356 2406 1356 1850 
L 1356 331 
L 1856 331 
L 1856 0 
L 263 0 
z
" transform="scale(0.015625)"/>
      <path id="DejaVuSerif-75" d="M 2266 3322 
L 3341 3322 
L 3341 331 
L 3884 331 
L 3884 0 
L 2766 0 
L 2766 588 
Q 2606 256 2353 82 
Q 2100 -91 1766 -91 
Q 1213 -91 952 223 
Q 691 538 691 1209 
L 691 2988 
L 172 2988 
L 172 3322 
L 1269 3322 
L 1269 1388 
Q 1269 781 1417 556 
Q 1566 331 1947 331 
Q 2347 331 2556 625 
Q 2766 919 2766 1478 
L 2766 2988 
L 2266 2988 
L 2266 3322 
z
" transform="scale(0.015625)"/>
      <path id="DejaVuSerif-6d" d="M 3316 2675 
Q 3481 3041 3739 3227 
Q 3997 3413 4341 3413 
Q 4863 3413 5119 3089 
Q 5375 2766 5375 2113 
L 5375 331 
L 5894 331 
L 5894 0 
L 4300 0 
L 4300 331 
L 4800 331 
L 4800 2047 
Q 4800 2556 4650 2772 
Q 4500 2988 4153 2988 
Q 3769 2988 3567 2697 
Q 3366 2406 3366 1850 
L 3366 331 
L 3866 331 
L 3866 0 
L 2291 0 
L 2291 331 
L 2791 331 
L 2791 2069 
Q 2791 2566 2641 2777 
Q 2491 2988 2144 2988 
Q 1759 2988 1557 2697 
Q 1356 2406 1356 1850 
L 1356 331 
L 1856 331 
L 1856 0 
L 263 0 
L 263 331 
L 781 331 
L 781 2994 
L 231 2994 
L 231 3322 
L 1356 3322 
L 1356 2731 
Q 1516 3063 1762 3238 
Q 2009 3413 2322 3413 
Q 2709 3413 2968 3220 
Q 3228 3028 3316 2675 
z
" transform="scale(0.015625)"/>
      <path id="DejaVuSerif-62" d="M 738 331 
L 738 4531 
L 184 4531 
L 184 4863 
L 1313 4863 
L 1313 2803 
Q 1481 3116 1742 3264 
Q 2003 3413 2388 3413 
Q 3000 3413 3387 2928 
Q 3775 2444 3775 1663 
Q 3775 881 3387 395 
Q 3000 -91 2388 -91 
Q 2003 -91 1742 57 
Q 1481 206 1313 519 
L 1313 0 
L 184 0 
L 184 331 
L 738 331 
z
M 1313 1497 
Q 1313 897 1542 583 
Q 1772 269 2209 269 
Q 2650 269 2876 622 
Q 3103 975 3103 1663 
Q 3103 2353 2876 2703 
Q 2650 3053 2209 3053 
Q 1772 3053 1542 2737 
Q 1313 2422 1313 1825 
L 1313 1497 
z
" transform="scale(0.015625)"/>
      <path id="DejaVuSerif-69" d="M 622 4353 
Q 622 4497 726 4603 
Q 831 4709 978 4709 
Q 1122 4709 1226 4603 
Q 1331 4497 1331 4353 
Q 1331 4206 1228 4103 
Q 1125 4000 978 4000 
Q 831 4000 726 4103 
Q 622 4206 622 4353 
z
M 1356 331 
L 1900 331 
L 1900 0 
L 231 0 
L 231 331 
L 781 331 
L 781 2988 
L 231 2988 
L 231 3322 
L 1356 3322 
L 1356 331 
z
" transform="scale(0.015625)"/>
      <path id="DejaVuSerif-73" d="M 359 184 
L 359 959 
L 691 959 
Q 703 588 923 403 
Q 1144 219 1575 219 
Q 1963 219 2166 364 
Q 2369 509 2369 788 
Q 2369 1006 2220 1140 
Q 2072 1275 1594 1428 
L 1178 1569 
Q 750 1706 558 1912 
Q 366 2119 366 2438 
Q 366 2894 700 3153 
Q 1034 3413 1625 3413 
Q 1888 3413 2178 3344 
Q 2469 3275 2778 3144 
L 2778 2419 
L 2447 2419 
Q 2434 2741 2221 2922 
Q 2009 3103 1644 3103 
Q 1281 3103 1095 2975 
Q 909 2847 909 2591 
Q 909 2381 1050 2254 
Q 1191 2128 1613 1997 
L 2069 1856 
Q 2541 1709 2748 1489 
Q 2956 1269 2956 922 
Q 2956 450 2595 179 
Q 2234 -91 1600 -91 
Q 1278 -91 972 -22 
Q 666 47 359 184 
z
" transform="scale(0.015625)"/>
      <path id="DejaVuSerif-66" d="M 2753 4078 
L 2450 4078 
Q 2447 4313 2317 4434 
Q 2188 4556 1941 4556 
Q 1619 4556 1487 4379 
Q 1356 4203 1356 3750 
L 1356 3322 
L 2284 3322 
L 2284 2988 
L 1356 2988 
L 1356 331 
L 2094 331 
L 2094 0 
L 231 0 
L 231 331 
L 781 331 
L 781 2988 
L 231 2988 
L 231 3322 
L 781 3322 
L 781 3738 
Q 781 4294 1070 4578 
Q 1359 4863 1919 4863 
Q 2128 4863 2337 4825 
Q 2547 4788 2753 4709 
L 2753 4078 
z
" transform="scale(0.015625)"/>
      <path id="DejaVuSerif-79" d="M 1381 -609 
L 1600 -56 
L 359 2988 
L -19 2988 
L -19 3322 
L 1509 3322 
L 1509 2988 
L 978 2988 
L 1913 703 
L 2847 2988 
L 2350 2988 
L 2350 3322 
L 3597 3322 
L 3597 2988 
L 3225 2988 
L 1703 -750 
Q 1547 -1138 1356 -1280 
Q 1166 -1422 819 -1422 
Q 672 -1422 517 -1397 
Q 363 -1372 206 -1325 
L 206 -691 
L 500 -691 
Q 519 -903 608 -995 
Q 697 -1088 884 -1088 
Q 1056 -1088 1161 -992 
Q 1266 -897 1381 -609 
z
" transform="scale(0.015625)"/>
      <path id="DejaVuSerif-63" d="M 3291 997 
Q 3169 466 2822 187 
Q 2475 -91 1925 -91 
Q 1200 -91 759 389 
Q 319 869 319 1663 
Q 319 2459 759 2936 
Q 1200 3413 1925 3413 
Q 2241 3413 2553 3339 
Q 2866 3266 3181 3116 
L 3181 2266 
L 2847 2266 
Q 2781 2703 2561 2903 
Q 2341 3103 1931 3103 
Q 1466 3103 1228 2742 
Q 991 2381 991 1663 
Q 991 944 1227 581 
Q 1463 219 1931 219 
Q 2303 219 2525 412 
Q 2747 606 2828 997 
L 3291 997 
z
" transform="scale(0.015625)"/>
      <path id="DejaVuSerif-67" d="M 3359 2988 
L 3359 72 
Q 3359 -644 2965 -1033 
Q 2572 -1422 1844 -1422 
Q 1516 -1422 1216 -1362 
Q 916 -1303 641 -1184 
L 641 -488 
L 941 -488 
Q 997 -813 1206 -963 
Q 1416 -1113 1806 -1113 
Q 2313 -1113 2548 -827 
Q 2784 -541 2784 72 
L 2784 519 
Q 2616 206 2355 57 
Q 2094 -91 1709 -91 
Q 1097 -91 708 395 
Q 319 881 319 1663 
Q 319 2444 706 2928 
Q 1094 3413 1709 3413 
Q 2094 3413 2355 3264 
Q 2616 3116 2784 2803 
L 2784 3322 
L 3909 3322 
L 3909 2988 
L 3359 2988 
z
M 2784 1825 
Q 2784 2422 2554 2737 
Q 2325 3053 1888 3053 
Q 1444 3053 1217 2703 
Q 991 2353 991 1663 
Q 991 975 1217 622 
Q 1444 269 1888 269 
Q 2325 269 2554 583 
Q 2784 897 2784 1497 
L 2784 1825 
z
" transform="scale(0.015625)"/>
      <path id="DejaVuSerif-6c" d="M 1313 331 
L 1856 331 
L 1856 0 
L 184 0 
L 184 331 
L 738 331 
L 738 4531 
L 184 4531 
L 184 4863 
L 1313 4863 
L 1313 331 
z
" transform="scale(0.015625)"/>
      <path id="DejaVuSerif-78" d="M 1863 2028 
L 2559 2988 
L 2113 2988 
L 2113 3322 
L 3391 3322 
L 3391 2988 
L 2950 2988 
L 2059 1759 
L 3097 331 
L 3531 331 
L 3531 0 
L 1997 0 
L 1997 331 
L 2419 331 
L 1697 1325 
L 972 331 
L 1403 331 
L 1403 0 
L 141 0 
L 141 331 
L 581 331 
L 1497 1594 
L 488 2988 
L 78 2988 
L 78 3322 
L 1563 3322 
L 1563 2988 
L 1166 2988 
L 1863 2028 
z
" transform="scale(0.015625)"/>
      <path id="DejaVuSerif-70" d="M 1313 1825 
L 1313 1497 
Q 1313 897 1542 583 
Q 1772 269 2209 269 
Q 2650 269 2876 622 
Q 3103 975 3103 1663 
Q 3103 2353 2876 2703 
Q 2650 3053 2209 3053 
Q 1772 3053 1542 2737 
Q 1313 2422 1313 1825 
z
M 738 2988 
L 184 2988 
L 184 3322 
L 1313 3322 
L 1313 2803 
Q 1481 3116 1742 3264 
Q 2003 3413 2388 3413 
Q 3000 3413 3387 2928 
Q 3775 2444 3775 1663 
Q 3775 881 3387 395 
Q 3000 -91 2388 -91 
Q 2003 -91 1742 57 
Q 1481 206 1313 519 
L 1313 -997 
L 1856 -997 
L 1856 -1331 
L 184 -1331 
L 184 -997 
L 738 -997 
L 738 2988 
z
" transform="scale(0.015625)"/>
      <path id="Cmsy10-a1" d="M 653 1472 
Q 600 1472 565 1512 
Q 531 1553 531 1600 
Q 531 1647 565 1687 
Q 600 1728 653 1728 
L 4325 1728 
Q 4375 1728 4408 1687 
Q 4441 1647 4441 1600 
Q 4441 1553 4408 1512 
Q 4375 1472 4325 1472 
L 653 1472 
z
" transform="scale(0.015625)"/>
      <path id="Cmr10-33" d="M 609 494 
Q 759 275 1012 169 
Q 1266 63 1556 63 
Q 1928 63 2084 380 
Q 2241 697 2241 1100 
Q 2241 1281 2208 1462 
Q 2175 1644 2097 1800 
Q 2019 1956 1883 2050 
Q 1747 2144 1550 2144 
L 1125 2144 
Q 1069 2144 1069 2203 
L 1069 2259 
Q 1069 2309 1125 2309 
L 1478 2338 
Q 1703 2338 1851 2506 
Q 2000 2675 2069 2917 
Q 2138 3159 2138 3378 
Q 2138 3684 1994 3881 
Q 1850 4078 1556 4078 
Q 1313 4078 1091 3986 
Q 869 3894 738 3706 
Q 750 3709 759 3711 
Q 769 3713 781 3713 
Q 925 3713 1022 3613 
Q 1119 3513 1119 3372 
Q 1119 3234 1022 3134 
Q 925 3034 781 3034 
Q 641 3034 541 3134 
Q 441 3234 441 3372 
Q 441 3647 606 3850 
Q 772 4053 1033 4158 
Q 1294 4263 1556 4263 
Q 1750 4263 1965 4205 
Q 2181 4147 2356 4039 
Q 2531 3931 2642 3762 
Q 2753 3594 2753 3378 
Q 2753 3109 2633 2881 
Q 2513 2653 2303 2487 
Q 2094 2322 1844 2241 
Q 2122 2188 2372 2031 
Q 2622 1875 2773 1631 
Q 2925 1388 2925 1106 
Q 2925 753 2731 467 
Q 2538 181 2222 20 
Q 1906 -141 1556 -141 
Q 1256 -141 954 -26 
Q 653 88 461 316 
Q 269 544 269 863 
Q 269 1022 375 1128 
Q 481 1234 641 1234 
Q 744 1234 830 1186 
Q 916 1138 964 1050 
Q 1013 963 1013 863 
Q 1013 706 903 600 
Q 794 494 641 494 
L 609 494 
z
" transform="scale(0.015625)"/>
      <path id="Cmr10-34" d="M 178 1056 
L 178 1281 
L 2156 4231 
Q 2178 4263 2222 4263 
L 2316 4263 
Q 2388 4263 2388 4191 
L 2388 1281 
L 3016 1281 
L 3016 1056 
L 2388 1056 
L 2388 428 
Q 2388 297 2575 261 
Q 2763 225 3009 225 
L 3009 0 
L 1247 0 
L 1247 225 
Q 1494 225 1681 261 
Q 1869 297 1869 428 
L 1869 1056 
L 178 1056 
z
M 391 1281 
L 1906 1281 
L 1906 3547 
L 391 1281 
z
" transform="scale(0.015625)"/>
      <path id="Cmr10-35" d="M 556 728 
Q 622 541 758 387 
Q 894 234 1080 148 
Q 1266 63 1466 63 
Q 1928 63 2103 422 
Q 2278 781 2278 1294 
Q 2278 1516 2270 1667 
Q 2263 1819 2228 1959 
Q 2169 2184 2020 2353 
Q 1872 2522 1656 2522 
Q 1441 2522 1286 2456 
Q 1131 2391 1034 2303 
Q 938 2216 863 2119 
Q 788 2022 769 2016 
L 697 2016 
Q 681 2016 657 2036 
Q 634 2056 634 2075 
L 634 4213 
Q 634 4228 654 4245 
Q 675 4263 697 4263 
L 716 4263 
Q 1147 4056 1631 4056 
Q 2106 4056 2547 4263 
L 2566 4263 
Q 2588 4263 2606 4247 
Q 2625 4231 2625 4213 
L 2625 4153 
Q 2625 4122 2613 4122 
Q 2394 3831 2064 3668 
Q 1734 3506 1381 3506 
Q 1125 3506 856 3578 
L 856 2369 
Q 1069 2541 1236 2614 
Q 1403 2688 1663 2688 
Q 2016 2688 2295 2484 
Q 2575 2281 2725 1954 
Q 2875 1628 2875 1288 
Q 2875 903 2686 575 
Q 2497 247 2172 53 
Q 1847 -141 1466 -141 
Q 1150 -141 886 21 
Q 622 184 470 459 
Q 319 734 319 1044 
Q 319 1188 412 1278 
Q 506 1369 647 1369 
Q 788 1369 883 1276 
Q 978 1184 978 1044 
Q 978 906 883 811 
Q 788 716 647 716 
Q 625 716 597 720 
Q 569 725 556 728 
z
" transform="scale(0.015625)"/>
      <path id="DejaVuSerif-44" d="M 1581 331 
L 2163 331 
Q 3072 331 3558 850 
Q 4044 1369 4044 2338 
Q 4044 3306 3559 3818 
Q 3075 4331 2163 4331 
L 1581 4331 
L 1581 331 
z
M 353 0 
L 353 331 
L 947 331 
L 947 4331 
L 353 4331 
L 353 4666 
L 2209 4666 
Q 3416 4666 4089 4050 
Q 4763 3434 4763 2338 
Q 4763 1238 4088 619 
Q 3413 0 2209 0 
L 353 0 
z
" transform="scale(0.015625)"/>
      <path id="DejaVuSerif-76" d="M 1581 0 
L 359 2988 
L -19 2988 
L -19 3322 
L 1509 3322 
L 1509 2988 
L 978 2988 
L 1913 703 
L 2847 2988 
L 2350 2988 
L 2350 3322 
L 3597 3322 
L 3597 2988 
L 3225 2988 
L 2003 0 
L 1581 0 
z
" transform="scale(0.015625)"/>
     </defs>
     <use xlink:href="#DejaVuSerif-4c" transform="translate(0 0.015625)"/>
     <use xlink:href="#DejaVuSerif-65" transform="translate(66.40625 0.015625)"/>
     <use xlink:href="#DejaVuSerif-74" transform="translate(125.585938 0.015625)"/>
     <use xlink:href="#DejaVuSerif-20" transform="translate(165.771484 0.015625)"/>
     <use xlink:href="#Cmmi10-41" transform="translate(197.558594 0.015625)"/>
     <use xlink:href="#Cmr10-31" transform="translate(272.558594 -16.990625) scale(0.7)"/>
     <use xlink:href="#Cmr10-3d" transform="translate(331.494531 0.015625)"/>
     <use xlink:href="#Cmr10-30" transform="translate(426.738672 0.015625)"/>
     <use xlink:href="#DejaVuSerif-20" transform="translate(476.738672 0.015625)"/>
     <use xlink:href="#DejaVuSerif-61" transform="translate(508.525781 0.015625)"/>
     <use xlink:href="#DejaVuSerif-6e" transform="translate(568.144922 0.015625)"/>
     <use xlink:href="#DejaVuSerif-64" transform="translate(632.549219 0.015625)"/>
     <use xlink:href="#DejaVuSerif-20" transform="translate(696.562891 0.015625)"/>
     <use xlink:href="#Cmmi10-41" transform="translate(728.35 0.015625)"/>
     <use xlink:href="#Cmr10-32" transform="translate(803.35 -16.990625) scale(0.7)"/>
     <use xlink:href="#Cmr10-3d" transform="translate(862.285938 0.015625)"/>
     <use xlink:href="#Cmr10-31" transform="translate(957.530078 0.015625)"/>
     <use xlink:href="#DejaVuSerif-2e" transform="translate(1007.530078 0.015625)"/>
     <use xlink:href="#DejaVuSerif-20" transform="translate(1039.317188 0.015625)"/>
     <use xlink:href="#DejaVuSerif-46" transform="translate(1071.104297 0.015625)"/>
     <use xlink:href="#DejaVuSerif-6f" transform="translate(1140.489063 0.015625)"/>
     <use xlink:href="#DejaVuSerif-72" transform="translate(1200.694141 0.015625)"/>
     <use xlink:href="#DejaVuSerif-20" transform="translate(1248.496875 0.015625)"/>
     <use xlink:href="#Cmmi10-6e" transform="translate(1280.283984 0.015625)"/>
     <use xlink:href="#Cmmi10-3e" transform="translate(1357.852344 0.015625)"/>
     <use xlink:href="#Cmr10-32" transform="translate(1453.096484 0.015625)"/>
     <use xlink:href="#DejaVuSerif-2c" transform="translate(1503.096484 0.015625)"/>
     <use xlink:href="#DejaVuSerif-20" transform="translate(1534.883594 0.015625)"/>
     <use xlink:href="#DejaVuSerif-74" transform="translate(1566.670703 0.015625)"/>
     <use xlink:href="#DejaVuSerif-68" transform="translate(1606.85625 0.015625)"/>
     <use xlink:href="#DejaVuSerif-65" transform="translate(1671.260547 0.015625)"/>
     <use xlink:href="#DejaVuSerif-20" transform="translate(1730.440234 0.015625)"/>
     <use xlink:href="#DejaVuSerif-6e" transform="translate(1762.227344 0.015625)"/>
     <use xlink:href="#DejaVuSerif-75" transform="translate(1826.631641 0.015625)"/>
     <use xlink:href="#DejaVuSerif-6d" transform="translate(1891.035938 0.015625)"/>
     <use xlink:href="#DejaVuSerif-62" transform="translate(1985.860156 0.015625)"/>
     <use xlink:href="#DejaVuSerif-65" transform="translate(2049.873828 0.015625)"/>
     <use xlink:href="#DejaVuSerif-72" transform="translate(2109.053516 0.015625)"/>
     <use xlink:href="#DejaVuSerif-20" transform="translate(2156.85625 0.015625)"/>
     <use xlink:href="#Cmmi10-41" transform="translate(2188.643359 0.015625)"/>
     <use xlink:href="#Cmmi10-6e" transform="translate(2263.643359 -16.990625) scale(0.7)"/>
     <use xlink:href="#DejaVuSerif-20" transform="translate(2312.027539 0.015625)"/>
     <use xlink:href="#DejaVuSerif-69" transform="translate(2343.814648 0.015625)"/>
     <use xlink:href="#DejaVuSerif-73" transform="translate(2375.79707 0.015625)"/>
     <use xlink:href="#DejaVuSerif-20" transform="translate(2427.11543 0.015625)"/>
     <use xlink:href="#DejaVuSerif-64" transform="translate(2458.902539 0.015625)"/>
     <use xlink:href="#DejaVuSerif-65" transform="translate(2522.916211 0.015625)"/>
     <use xlink:href="#DejaVuSerif-66" transform="translate(2582.095898 0.015625)"/>
     <use xlink:href="#DejaVuSerif-69" transform="translate(2619.107617 0.015625)"/>
     <use xlink:href="#DejaVuSerif-6e" transform="translate(2651.090039 0.015625)"/>
     <use xlink:href="#DejaVuSerif-65" transform="translate(2715.494336 0.015625)"/>
     <use xlink:href="#DejaVuSerif-64" transform="translate(2774.674023 0.015625)"/>
     <use xlink:href="#DejaVuSerif-20" transform="translate(2838.687695 0.015625)"/>
     <use xlink:href="#DejaVuSerif-62" transform="translate(2870.474805 0.015625)"/>
     <use xlink:href="#DejaVuSerif-79" transform="translate(2934.488477 0.015625)"/>
     <use xlink:href="#DejaVuSerif-20" transform="translate(2990.982617 0.015625)"/>
     <use xlink:href="#DejaVuSerif-63" transform="translate(3022.769727 0.015625)"/>
     <use xlink:href="#DejaVuSerif-6f" transform="translate(3078.775586 0.015625)"/>
     <use xlink:href="#DejaVuSerif-6e" transform="translate(3138.980664 0.015625)"/>
     <use xlink:href="#DejaVuSerif-63" transform="translate(3203.384961 0.015625)"/>
     <use xlink:href="#DejaVuSerif-61" transform="translate(3259.39082 0.015625)"/>
     <use xlink:href="#DejaVuSerif-74" transform="translate(3319.009961 0.015625)"/>
     <use xlink:href="#DejaVuSerif-65" transform="translate(3359.195508 0.015625)"/>
     <use xlink:href="#DejaVuSerif-6e" transform="translate(3418.375195 0.015625)"/>
     <use xlink:href="#DejaVuSerif-61" transform="translate(3482.779492 0.015625)"/>
     <use xlink:href="#DejaVuSerif-74" transform="translate(3542.398633 0.015625)"/>
     <use xlink:href="#DejaVuSerif-69" transform="translate(3582.58418 0.015625)"/>
     <use xlink:href="#DejaVuSerif-6e" transform="translate(3614.566602 0.015625)"/>
     <use xlink:href="#DejaVuSerif-67" transform="translate(3678.970898 0.015625)"/>
     <use xlink:href="#DejaVuSerif-20" transform="translate(3742.98457 0.015625)"/>
     <use xlink:href="#DejaVuSerif-74" transform="translate(3774.77168 0.015625)"/>
     <use xlink:href="#DejaVuSerif-68" transform="translate(3814.957227 0.015625)"/>
     <use xlink:href="#DejaVuSerif-65" transform="translate(3879.361523 0.015625)"/>
     <use xlink:href="#DejaVuSerif-20" transform="translate(3938.541211 0.015625)"/>
     <use xlink:href="#DejaVuSerif-64" transform="translate(3970.32832 0.015625)"/>
     <use xlink:href="#DejaVuSerif-65" transform="translate(4034.341992 0.015625)"/>
     <use xlink:href="#DejaVuSerif-63" transform="translate(4093.52168 0.015625)"/>
     <use xlink:href="#DejaVuSerif-69" transform="translate(4149.527539 0.015625)"/>
     <use xlink:href="#DejaVuSerif-6d" transform="translate(4181.509961 0.015625)"/>
     <use xlink:href="#DejaVuSerif-61" transform="translate(4276.33418 0.015625)"/>
     <use xlink:href="#DejaVuSerif-6c" transform="translate(4335.95332 0.015625)"/>
     <use xlink:href="#DejaVuSerif-20" transform="translate(4367.935742 0.015625)"/>
     <use xlink:href="#DejaVuSerif-65" transform="translate(4399.722852 0.015625)"/>
     <use xlink:href="#DejaVuSerif-78" transform="translate(4458.902539 0.015625)"/>
     <use xlink:href="#DejaVuSerif-70" transform="translate(4515.299023 0.015625)"/>
     <use xlink:href="#DejaVuSerif-61" transform="translate(4579.312695 0.015625)"/>
     <use xlink:href="#DejaVuSerif-6e" transform="translate(4638.931836 0.015625)"/>
     <use xlink:href="#DejaVuSerif-73" transform="translate(4703.336133 0.015625)"/>
     <use xlink:href="#DejaVuSerif-69" transform="translate(4754.654492 0.015625)"/>
     <use xlink:href="#DejaVuSerif-6f" transform="translate(4786.636914 0.015625)"/>
     <use xlink:href="#DejaVuSerif-6e" transform="translate(4846.841992 0.015625)"/>
     <use xlink:href="#DejaVuSerif-73" transform="translate(4911.246289 0.015625)"/>
     <use xlink:href="#DejaVuSerif-20" transform="translate(4962.564648 0.015625)"/>
     <use xlink:href="#DejaVuSerif-6f" transform="translate(4994.351758 0.015625)"/>
     <use xlink:href="#DejaVuSerif-66" transform="translate(5054.556836 0.015625)"/>
     <use xlink:href="#DejaVuSerif-20" transform="translate(5091.568555 0.015625)"/>
     <use xlink:href="#Cmmi10-41" transform="translate(5123.355664 0.015625)"/>
     <use xlink:href="#Cmmi10-6e" transform="translate(5198.355664 -16.990625) scale(0.7)"/>
     <use xlink:href="#Cmsy10-a1" transform="translate(5252.653516 -16.990625) scale(0.7)"/>
     <use xlink:href="#Cmr10-31" transform="translate(5319.324414 -16.990625) scale(0.7)"/>
     <use xlink:href="#DejaVuSerif-20" transform="translate(5360.701758 0.015625)"/>
     <use xlink:href="#DejaVuSerif-61" transform="translate(5392.488867 0.015625)"/>
     <use xlink:href="#DejaVuSerif-6e" transform="translate(5452.108008 0.015625)"/>
     <use xlink:href="#DejaVuSerif-64" transform="translate(5516.512305 0.015625)"/>
     <use xlink:href="#DejaVuSerif-20" transform="translate(5580.525977 0.015625)"/>
     <use xlink:href="#Cmmi10-41" transform="translate(5612.313086 0.015625)"/>
     <use xlink:href="#Cmmi10-6e" transform="translate(5687.313086 -16.990625) scale(0.7)"/>
     <use xlink:href="#Cmsy10-a1" transform="translate(5741.610937 -16.990625) scale(0.7)"/>
     <use xlink:href="#Cmr10-32" transform="translate(5808.281836 -16.990625) scale(0.7)"/>
     <use xlink:href="#DejaVuSerif-20" transform="translate(5849.65918 0.015625)"/>
     <use xlink:href="#DejaVuSerif-66" transform="translate(5881.446289 0.015625)"/>
     <use xlink:href="#DejaVuSerif-72" transform="translate(5918.458008 0.015625)"/>
     <use xlink:href="#DejaVuSerif-6f" transform="translate(5966.260742 0.015625)"/>
     <use xlink:href="#DejaVuSerif-6d" transform="translate(6026.46582 0.015625)"/>
     <use xlink:href="#DejaVuSerif-20" transform="translate(6121.290039 0.015625)"/>
     <use xlink:href="#DejaVuSerif-6c" transform="translate(6153.077148 0.015625)"/>
     <use xlink:href="#DejaVuSerif-65" transform="translate(6185.05957 0.015625)"/>
     <use xlink:href="#DejaVuSerif-66" transform="translate(6244.239258 0.015625)"/>
     <use xlink:href="#DejaVuSerif-74" transform="translate(6281.250977 0.015625)"/>
     <use xlink:href="#DejaVuSerif-20" transform="translate(6321.436523 0.015625)"/>
     <use xlink:href="#DejaVuSerif-74" transform="translate(6353.223633 0.015625)"/>
     <use xlink:href="#DejaVuSerif-6f" transform="translate(6393.40918 0.015625)"/>
     <use xlink:href="#DejaVuSerif-20" transform="translate(6453.614258 0.015625)"/>
     <use xlink:href="#DejaVuSerif-72" transform="translate(6485.401367 0.015625)"/>
     <use xlink:href="#DejaVuSerif-69" transform="translate(6533.204102 0.015625)"/>
     <use xlink:href="#DejaVuSerif-67" transform="translate(6565.186523 0.015625)"/>
     <use xlink:href="#DejaVuSerif-68" transform="translate(6629.200195 0.015625)"/>
     <use xlink:href="#DejaVuSerif-74" transform="translate(6693.604492 0.015625)"/>
     <use xlink:href="#DejaVuSerif-2e" transform="translate(6733.790039 0.015625)"/>
     <use xlink:href="#DejaVuSerif-20" transform="translate(6765.577148 0.015625)"/>
     <use xlink:href="#DejaVuSerif-20" transform="translate(6797.364258 0.015625)"/>
     <use xlink:href="#DejaVuSerif-46" transform="translate(6829.151367 0.015625)"/>
     <use xlink:href="#DejaVuSerif-6f" transform="translate(6898.536133 0.015625)"/>
     <use xlink:href="#DejaVuSerif-72" transform="translate(6958.741211 0.015625)"/>
     <use xlink:href="#DejaVuSerif-20" transform="translate(7006.543945 0.015625)"/>
     <use xlink:href="#DejaVuSerif-65" transform="translate(7038.331055 0.015625)"/>
     <use xlink:href="#DejaVuSerif-78" transform="translate(7097.510742 0.015625)"/>
     <use xlink:href="#DejaVuSerif-61" transform="translate(7153.907227 0.015625)"/>
     <use xlink:href="#DejaVuSerif-6d" transform="translate(7213.526367 0.015625)"/>
     <use xlink:href="#DejaVuSerif-70" transform="translate(7308.350586 0.015625)"/>
     <use xlink:href="#DejaVuSerif-6c" transform="translate(7372.364258 0.015625)"/>
     <use xlink:href="#DejaVuSerif-65" transform="translate(7404.34668 0.015625)"/>
     <use xlink:href="#DejaVuSerif-20" transform="translate(7463.526367 0.015625)"/>
     <use xlink:href="#Cmmi10-41" transform="translate(7495.313477 0.015625)"/>
     <use xlink:href="#Cmr10-33" transform="translate(7570.313477 -16.990625) scale(0.7)"/>
     <use xlink:href="#Cmr10-3d" transform="translate(7629.249414 0.015625)"/>
     <use xlink:href="#Cmmi10-41" transform="translate(7724.493555 0.015625)"/>
     <use xlink:href="#Cmr10-32" transform="translate(7799.493555 -16.990625) scale(0.7)"/>
     <use xlink:href="#Cmmi10-41" transform="translate(7840.870898 0.015625)"/>
     <use xlink:href="#Cmr10-31" transform="translate(7915.870898 -16.990625) scale(0.7)"/>
     <use xlink:href="#Cmr10-3d" transform="translate(7974.806836 0.015625)"/>
     <use xlink:href="#Cmr10-31" transform="translate(8070.050977 0.015625)"/>
     <use xlink:href="#Cmr10-30" transform="translate(8120.050977 0.015625)"/>
     <use xlink:href="#DejaVuSerif-2c" transform="translate(8170.050977 0.015625)"/>
     <use xlink:href="#DejaVuSerif-20" transform="translate(8201.838086 0.015625)"/>
     <use xlink:href="#Cmmi10-41" transform="translate(8233.625195 0.015625)"/>
     <use xlink:href="#Cmr10-34" transform="translate(8308.625195 -16.990625) scale(0.7)"/>
     <use xlink:href="#Cmr10-3d" transform="translate(8367.561133 0.015625)"/>
     <use xlink:href="#Cmmi10-41" transform="translate(8462.805273 0.015625)"/>
     <use xlink:href="#Cmr10-33" transform="translate(8537.805273 -16.990625) scale(0.7)"/>
     <use xlink:href="#Cmmi10-41" transform="translate(8579.182617 0.015625)"/>
     <use xlink:href="#Cmr10-32" transform="translate(8654.182617 -16.990625) scale(0.7)"/>
     <use xlink:href="#Cmr10-3d" transform="translate(8713.118555 0.015625)"/>
     <use xlink:href="#Cmr10-31" transform="translate(8808.362695 0.015625)"/>
     <use xlink:href="#Cmr10-30" transform="translate(8858.362695 0.015625)"/>
     <use xlink:href="#Cmr10-31" transform="translate(8908.362695 0.015625)"/>
     <use xlink:href="#DejaVuSerif-2c" transform="translate(8958.362695 0.015625)"/>
     <use xlink:href="#DejaVuSerif-20" transform="translate(8990.149805 0.015625)"/>
     <use xlink:href="#Cmmi10-41" transform="translate(9021.936914 0.015625)"/>
     <use xlink:href="#Cmr10-35" transform="translate(9096.936914 -16.990625) scale(0.7)"/>
     <use xlink:href="#Cmr10-3d" transform="translate(9155.872852 0.015625)"/>
     <use xlink:href="#Cmmi10-41" transform="translate(9251.116992 0.015625)"/>
     <use xlink:href="#Cmr10-34" transform="translate(9326.116992 -16.990625) scale(0.7)"/>
     <use xlink:href="#Cmmi10-41" transform="translate(9367.494336 0.015625)"/>
     <use xlink:href="#Cmr10-33" transform="translate(9442.494336 -16.990625) scale(0.7)"/>
     <use xlink:href="#Cmr10-3d" transform="translate(9501.430273 0.015625)"/>
     <use xlink:href="#Cmr10-31" transform="translate(9596.674414 0.015625)"/>
     <use xlink:href="#Cmr10-30" transform="translate(9646.674414 0.015625)"/>
     <use xlink:href="#Cmr10-31" transform="translate(9696.674414 0.015625)"/>
     <use xlink:href="#Cmr10-31" transform="translate(9746.674414 0.015625)"/>
     <use xlink:href="#Cmr10-30" transform="translate(9796.674414 0.015625)"/>
     <use xlink:href="#DejaVuSerif-2c" transform="translate(9846.674414 0.015625)"/>
     <use xlink:href="#DejaVuSerif-20" transform="translate(9878.461523 0.015625)"/>
     <use xlink:href="#DejaVuSerif-61" transform="translate(9910.248633 0.015625)"/>
     <use xlink:href="#DejaVuSerif-6e" transform="translate(9969.867773 0.015625)"/>
     <use xlink:href="#DejaVuSerif-64" transform="translate(10034.27207 0.015625)"/>
     <use xlink:href="#DejaVuSerif-20" transform="translate(10098.285742 0.015625)"/>
     <use xlink:href="#DejaVuSerif-73" transform="translate(10130.072852 0.015625)"/>
     <use xlink:href="#DejaVuSerif-6f" transform="translate(10181.391211 0.015625)"/>
     <use xlink:href="#DejaVuSerif-20" transform="translate(10241.596289 0.015625)"/>
     <use xlink:href="#DejaVuSerif-66" transform="translate(10273.383398 0.015625)"/>
     <use xlink:href="#DejaVuSerif-6f" transform="translate(10310.395117 0.015625)"/>
     <use xlink:href="#DejaVuSerif-72" transform="translate(10370.600195 0.015625)"/>
     <use xlink:href="#DejaVuSerif-74" transform="translate(10418.40293 0.015625)"/>
     <use xlink:href="#DejaVuSerif-68" transform="translate(10458.588477 0.015625)"/>
     <use xlink:href="#DejaVuSerif-2e" transform="translate(10522.992773 0.015625)"/>
     <use xlink:href="#DejaVuSerif-20" transform="translate(10554.779883 0.015625)"/>
     <use xlink:href="#DejaVuSerif-20" transform="translate(10586.566992 0.015625)"/>
     <use xlink:href="#DejaVuSerif-44" transform="translate(10618.354102 0.015625)"/>
     <use xlink:href="#DejaVuSerif-65" transform="translate(10698.529883 0.015625)"/>
     <use xlink:href="#DejaVuSerif-74" transform="translate(10757.70957 0.015625)"/>
     <use xlink:href="#DejaVuSerif-65" transform="translate(10797.895117 0.015625)"/>
     <use xlink:href="#DejaVuSerif-72" transform="translate(10857.074805 0.015625)"/>
     <use xlink:href="#DejaVuSerif-6d" transform="translate(10904.877539 0.015625)"/>
     <use xlink:href="#DejaVuSerif-69" transform="translate(10999.701758 0.015625)"/>
     <use xlink:href="#DejaVuSerif-6e" transform="translate(11031.68418 0.015625)"/>
     <use xlink:href="#DejaVuSerif-65" transform="translate(11096.088477 0.015625)"/>
     <use xlink:href="#DejaVuSerif-20" transform="translate(11155.268164 0.015625)"/>
     <use xlink:href="#DejaVuSerif-61" transform="translate(11187.055273 0.015625)"/>
     <use xlink:href="#DejaVuSerif-6c" transform="translate(11246.674414 0.015625)"/>
     <use xlink:href="#DejaVuSerif-6c" transform="translate(11278.656836 0.015625)"/>
     <use xlink:href="#DejaVuSerif-20" transform="translate(11310.639258 0.015625)"/>
     <use xlink:href="#Cmmi10-6e" transform="translate(11342.426367 0.015625)"/>
     <use xlink:href="#DejaVuSerif-20" transform="translate(11402.436133 0.015625)"/>
     <use xlink:href="#DejaVuSerif-73" transform="translate(11434.223242 0.015625)"/>
     <use xlink:href="#DejaVuSerif-75" transform="translate(11485.541602 0.015625)"/>
     <use xlink:href="#DejaVuSerif-63" transform="translate(11549.945898 0.015625)"/>
     <use xlink:href="#DejaVuSerif-68" transform="translate(11605.951758 0.015625)"/>
     <use xlink:href="#DejaVuSerif-20" transform="translate(11670.356055 0.015625)"/>
     <use xlink:href="#DejaVuSerif-74" transform="translate(11702.143164 0.015625)"/>
     <use xlink:href="#DejaVuSerif-68" transform="translate(11742.328711 0.015625)"/>
     <use xlink:href="#DejaVuSerif-61" transform="translate(11806.733008 0.015625)"/>
     <use xlink:href="#DejaVuSerif-74" transform="translate(11866.352148 0.015625)"/>
     <use xlink:href="#DejaVuSerif-20" transform="translate(11906.537695 0.015625)"/>
     <use xlink:href="#Cmr10-31" transform="translate(11938.324805 0.015625)"/>
     <use xlink:href="#Cmr10-31" transform="translate(11988.324805 0.015625)"/>
     <use xlink:href="#DejaVuSerif-20" transform="translate(12038.324805 0.015625)"/>
     <use xlink:href="#DejaVuSerif-64" transform="translate(12070.111914 0.015625)"/>
     <use xlink:href="#DejaVuSerif-69" transform="translate(12134.125586 0.015625)"/>
     <use xlink:href="#DejaVuSerif-76" transform="translate(12166.108008 0.015625)"/>
     <use xlink:href="#DejaVuSerif-69" transform="translate(12222.602148 0.015625)"/>
     <use xlink:href="#DejaVuSerif-64" transform="translate(12254.58457 0.015625)"/>
     <use xlink:href="#DejaVuSerif-65" transform="translate(12318.598242 0.015625)"/>
     <use xlink:href="#DejaVuSerif-73" transform="translate(12377.77793 0.015625)"/>
     <use xlink:href="#DejaVuSerif-20" transform="translate(12429.096289 0.015625)"/>
     <use xlink:href="#Cmmi10-41" transform="translate(12460.883398 0.015625)"/>
     <use xlink:href="#Cmmi10-6e" transform="translate(12535.883398 -16.990625) scale(0.7)"/>
     <use xlink:href="#DejaVuSerif-2e" transform="translate(12584.267578 0.015625)"/>
    </g>
   </g>
  </g>
 </g>
</svg>
