<?xml version="1.0" encoding="utf-8" standalone="no"?>
<!DOCTYPE svg PUBLIC "-//W3C//DTD SVG 1.1//EN"
  "http://www.w3.org/Graphics/SVG/1.1/DTD/svg11.dtd">
<svg xmlns:xlink="http://www.w3.org/1999/xlink" width="1599.24pt" height="180.72pt" viewBox="0 0 1599.24 180.72" xmlns="http://www.w3.org/2000/svg" version="1.1">
 <metadata>
  <rdf:RDF xmlns:dc="http://purl.org/dc/elements/1.1/" xmlns:cc="http://creativecommons.org/ns#" xmlns:rdf="http://www.w3.org/1999/02/22-rdf-syntax-ns#">
   <cc:Work>
    <dc:type rdf:resource="http://purl.org/dc/dcmitype/StillImage"/>
    <dc:date>2025-05-29T18:44:02.248839</dc:date>
    <dc:format>image/svg+xml</dc:format>
    <dc:creator>
     <cc:Agent>
      <dc:title>Matplotlib v3.10.3, https://matplotlib.org/</dc:title>
     </cc:Agent>
    </dc:creator>
   </cc:Work>
  </rdf:RDF>
 </metadata>
 <defs>
  <style type="text/css">*{stroke-linejoin: round; stroke-linecap: butt}</style>
 </defs>
 <g id="figure_1">
  <g id="patch_1">
   <path d="M -0 180.72 
L 1599.24 180.72 
L 1599.24 0 
L -0 0 
z
" style="fill: #ffffff"/>
  </g>
  <g id="axes_1">
   <g id="text_1">
    <!-- Define a \emph{selfish} set to be a set which has its own cardinality (number of elements) as an element. Find, with proof, the number of subsets of $\{1,2,\dots,n\}$ which are \emph{minimal} selfish sets, that is, selfish sets none of whose proper subsets is selfish. -->
    <g transform="translate(7.2 94.86) scale(0.12 -0.12)">
     <defs>
      <path id="DejaVuSerif-44" d="M 1581 331 
L 2163 331 
Q 3072 331 3558 850 
Q 4044 1369 4044 2338 
Q 4044 3306 3559 3818 
Q 3075 4331 2163 4331 
L 1581 4331 
L 1581 331 
z
M 353 0 
L 353 331 
L 947 331 
L 947 4331 
L 353 4331 
L 353 4666 
L 2209 4666 
Q 3416 4666 4089 4050 
Q 4763 3434 4763 2338 
Q 4763 1238 4088 619 
Q 3413 0 2209 0 
L 353 0 
z
" transform="scale(0.015625)"/>
      <path id="DejaVuSerif-65" d="M 3469 1600 
L 991 1600 
L 991 1575 
Q 991 903 1244 561 
Q 1497 219 1991 219 
Q 2369 219 2611 417 
Q 2853 616 2950 1006 
L 3413 1006 
Q 3275 459 2904 184 
Q 2534 -91 1931 -91 
Q 1203 -91 761 389 
Q 319 869 319 1663 
Q 319 2450 753 2931 
Q 1188 3413 1894 3413 
Q 2647 3413 3050 2948 
Q 3453 2484 3469 1600 
z
M 2791 1931 
Q 2772 2513 2545 2808 
Q 2319 3103 1894 3103 
Q 1497 3103 1269 2806 
Q 1041 2509 991 1931 
L 2791 1931 
z
" transform="scale(0.015625)"/>
      <path id="DejaVuSerif-66" d="M 2753 4078 
L 2450 4078 
Q 2447 4313 2317 4434 
Q 2188 4556 1941 4556 
Q 1619 4556 1487 4379 
Q 1356 4203 1356 3750 
L 1356 3322 
L 2284 3322 
L 2284 2988 
L 1356 2988 
L 1356 331 
L 2094 331 
L 2094 0 
L 231 0 
L 231 331 
L 781 331 
L 781 2988 
L 231 2988 
L 231 3322 
L 781 3322 
L 781 3738 
Q 781 4294 1070 4578 
Q 1359 4863 1919 4863 
Q 2128 4863 2337 4825 
Q 2547 4788 2753 4709 
L 2753 4078 
z
" transform="scale(0.015625)"/>
      <path id="DejaVuSerif-69" d="M 622 4353 
Q 622 4497 726 4603 
Q 831 4709 978 4709 
Q 1122 4709 1226 4603 
Q 1331 4497 1331 4353 
Q 1331 4206 1228 4103 
Q 1125 4000 978 4000 
Q 831 4000 726 4103 
Q 622 4206 622 4353 
z
M 1356 331 
L 1900 331 
L 1900 0 
L 231 0 
L 231 331 
L 781 331 
L 781 2988 
L 231 2988 
L 231 3322 
L 1356 3322 
L 1356 331 
z
" transform="scale(0.015625)"/>
      <path id="DejaVuSerif-6e" d="M 263 0 
L 263 331 
L 781 331 
L 781 2988 
L 231 2988 
L 231 3322 
L 1356 3322 
L 1356 2731 
Q 1516 3069 1770 3241 
Q 2025 3413 2363 3413 
Q 2913 3413 3172 3097 
Q 3431 2781 3431 2113 
L 3431 331 
L 3944 331 
L 3944 0 
L 2356 0 
L 2356 331 
L 2853 331 
L 2853 1931 
Q 2853 2541 2703 2767 
Q 2553 2994 2175 2994 
Q 1775 2994 1565 2701 
Q 1356 2409 1356 1850 
L 1356 331 
L 1856 331 
L 1856 0 
L 263 0 
z
" transform="scale(0.015625)"/>
      <path id="DejaVuSerif-20" transform="scale(0.015625)"/>
      <path id="DejaVuSerif-61" d="M 2547 1044 
L 2547 1747 
L 1806 1747 
Q 1378 1747 1168 1562 
Q 959 1378 959 997 
Q 959 650 1171 447 
Q 1384 244 1747 244 
Q 2106 244 2326 466 
Q 2547 688 2547 1044 
z
M 3122 2075 
L 3122 331 
L 3634 331 
L 3634 0 
L 2547 0 
L 2547 359 
Q 2356 128 2106 18 
Q 1856 -91 1522 -91 
Q 969 -91 644 203 
Q 319 497 319 997 
Q 319 1513 691 1797 
Q 1063 2081 1741 2081 
L 2547 2081 
L 2547 2309 
Q 2547 2688 2317 2895 
Q 2088 3103 1672 3103 
Q 1328 3103 1125 2947 
Q 922 2791 872 2484 
L 575 2484 
L 575 3156 
Q 875 3284 1158 3348 
Q 1441 3413 1709 3413 
Q 2400 3413 2761 3070 
Q 3122 2728 3122 2075 
z
" transform="scale(0.015625)"/>
      <path id="DejaVuSerif-5c" d="M 500 4666 
L 2156 -594 
L 1656 -594 
L 0 4666 
L 500 4666 
z
" transform="scale(0.015625)"/>
      <path id="DejaVuSerif-6d" d="M 3316 2675 
Q 3481 3041 3739 3227 
Q 3997 3413 4341 3413 
Q 4863 3413 5119 3089 
Q 5375 2766 5375 2113 
L 5375 331 
L 5894 331 
L 5894 0 
L 4300 0 
L 4300 331 
L 4800 331 
L 4800 2047 
Q 4800 2556 4650 2772 
Q 4500 2988 4153 2988 
Q 3769 2988 3567 2697 
Q 3366 2406 3366 1850 
L 3366 331 
L 3866 331 
L 3866 0 
L 2291 0 
L 2291 331 
L 2791 331 
L 2791 2069 
Q 2791 2566 2641 2777 
Q 2491 2988 2144 2988 
Q 1759 2988 1557 2697 
Q 1356 2406 1356 1850 
L 1356 331 
L 1856 331 
L 1856 0 
L 263 0 
L 263 331 
L 781 331 
L 781 2994 
L 231 2994 
L 231 3322 
L 1356 3322 
L 1356 2731 
Q 1516 3063 1762 3238 
Q 2009 3413 2322 3413 
Q 2709 3413 2968 3220 
Q 3228 3028 3316 2675 
z
" transform="scale(0.015625)"/>
      <path id="DejaVuSerif-70" d="M 1313 1825 
L 1313 1497 
Q 1313 897 1542 583 
Q 1772 269 2209 269 
Q 2650 269 2876 622 
Q 3103 975 3103 1663 
Q 3103 2353 2876 2703 
Q 2650 3053 2209 3053 
Q 1772 3053 1542 2737 
Q 1313 2422 1313 1825 
z
M 738 2988 
L 184 2988 
L 184 3322 
L 1313 3322 
L 1313 2803 
Q 1481 3116 1742 3264 
Q 2003 3413 2388 3413 
Q 3000 3413 3387 2928 
Q 3775 2444 3775 1663 
Q 3775 881 3387 395 
Q 3000 -91 2388 -91 
Q 2003 -91 1742 57 
Q 1481 206 1313 519 
L 1313 -997 
L 1856 -997 
L 1856 -1331 
L 184 -1331 
L 184 -997 
L 738 -997 
L 738 2988 
z
" transform="scale(0.015625)"/>
      <path id="DejaVuSerif-68" d="M 263 0 
L 263 331 
L 781 331 
L 781 4531 
L 231 4531 
L 231 4863 
L 1356 4863 
L 1356 2731 
Q 1516 3069 1770 3241 
Q 2025 3413 2363 3413 
Q 2913 3413 3172 3097 
Q 3431 2781 3431 2113 
L 3431 331 
L 3944 331 
L 3944 0 
L 2356 0 
L 2356 331 
L 2853 331 
L 2853 1931 
Q 2853 2541 2704 2764 
Q 2556 2988 2175 2988 
Q 1775 2988 1565 2697 
Q 1356 2406 1356 1850 
L 1356 331 
L 1856 331 
L 1856 0 
L 263 0 
z
" transform="scale(0.015625)"/>
      <path id="DejaVuSerif-7b" d="M 3272 -716 
L 3272 -1044 
L 3078 -1044 
Q 2300 -1044 2036 -812 
Q 1772 -581 1772 109 
L 1772 916 
Q 1772 1384 1603 1565 
Q 1434 1747 991 1747 
L 800 1747 
L 800 2075 
L 991 2075 
Q 1434 2075 1603 2256 
Q 1772 2438 1772 2906 
L 1772 3713 
Q 1772 4403 2036 4633 
Q 2300 4863 3078 4863 
L 3272 4863 
L 3272 4538 
L 3059 4538 
Q 2619 4538 2484 4400 
Q 2350 4263 2350 3822 
L 2350 2925 
Q 2350 2431 2194 2218 
Q 2038 2006 1631 1913 
Q 2044 1806 2197 1597 
Q 2350 1388 2350 897 
L 2350 0 
Q 2350 -441 2484 -578 
Q 2619 -716 3059 -716 
L 3272 -716 
z
" transform="scale(0.015625)"/>
      <path id="DejaVuSerif-73" d="M 359 184 
L 359 959 
L 691 959 
Q 703 588 923 403 
Q 1144 219 1575 219 
Q 1963 219 2166 364 
Q 2369 509 2369 788 
Q 2369 1006 2220 1140 
Q 2072 1275 1594 1428 
L 1178 1569 
Q 750 1706 558 1912 
Q 366 2119 366 2438 
Q 366 2894 700 3153 
Q 1034 3413 1625 3413 
Q 1888 3413 2178 3344 
Q 2469 3275 2778 3144 
L 2778 2419 
L 2447 2419 
Q 2434 2741 2221 2922 
Q 2009 3103 1644 3103 
Q 1281 3103 1095 2975 
Q 909 2847 909 2591 
Q 909 2381 1050 2254 
Q 1191 2128 1613 1997 
L 2069 1856 
Q 2541 1709 2748 1489 
Q 2956 1269 2956 922 
Q 2956 450 2595 179 
Q 2234 -91 1600 -91 
Q 1278 -91 972 -22 
Q 666 47 359 184 
z
" transform="scale(0.015625)"/>
      <path id="DejaVuSerif-6c" d="M 1313 331 
L 1856 331 
L 1856 0 
L 184 0 
L 184 331 
L 738 331 
L 738 4531 
L 184 4531 
L 184 4863 
L 1313 4863 
L 1313 331 
z
" transform="scale(0.015625)"/>
      <path id="DejaVuSerif-7d" d="M 800 -716 
L 1019 -716 
Q 1456 -716 1589 -580 
Q 1722 -444 1722 0 
L 1722 897 
Q 1722 1388 1875 1597 
Q 2028 1806 2438 1913 
Q 2031 2006 1876 2218 
Q 1722 2431 1722 2925 
L 1722 3822 
Q 1722 4266 1589 4402 
Q 1456 4538 1019 4538 
L 800 4538 
L 800 4863 
L 997 4863 
Q 1775 4863 2036 4633 
Q 2297 4403 2297 3713 
L 2297 2906 
Q 2297 2438 2465 2256 
Q 2634 2075 3078 2075 
L 3272 2075 
L 3272 1747 
L 3078 1747 
Q 2634 1747 2465 1565 
Q 2297 1384 2297 916 
L 2297 109 
Q 2297 -581 2036 -812 
Q 1775 -1044 997 -1044 
L 800 -1044 
L 800 -716 
z
" transform="scale(0.015625)"/>
      <path id="DejaVuSerif-74" d="M 691 2988 
L 184 2988 
L 184 3322 
L 691 3322 
L 691 4353 
L 1269 4353 
L 1269 3322 
L 2350 3322 
L 2350 2988 
L 1269 2988 
L 1269 878 
Q 1269 456 1350 337 
Q 1431 219 1650 219 
Q 1875 219 1978 351 
Q 2081 484 2088 781 
L 2522 781 
Q 2497 328 2275 118 
Q 2053 -91 1600 -91 
Q 1103 -91 897 129 
Q 691 350 691 878 
L 691 2988 
z
" transform="scale(0.015625)"/>
      <path id="DejaVuSerif-6f" d="M 1925 219 
Q 2388 219 2623 584 
Q 2859 950 2859 1663 
Q 2859 2375 2623 2739 
Q 2388 3103 1925 3103 
Q 1463 3103 1227 2739 
Q 991 2375 991 1663 
Q 991 950 1228 584 
Q 1466 219 1925 219 
z
M 1925 -91 
Q 1200 -91 759 389 
Q 319 869 319 1663 
Q 319 2456 758 2934 
Q 1197 3413 1925 3413 
Q 2653 3413 3092 2934 
Q 3531 2456 3531 1663 
Q 3531 869 3092 389 
Q 2653 -91 1925 -91 
z
" transform="scale(0.015625)"/>
      <path id="DejaVuSerif-62" d="M 738 331 
L 738 4531 
L 184 4531 
L 184 4863 
L 1313 4863 
L 1313 2803 
Q 1481 3116 1742 3264 
Q 2003 3413 2388 3413 
Q 3000 3413 3387 2928 
Q 3775 2444 3775 1663 
Q 3775 881 3387 395 
Q 3000 -91 2388 -91 
Q 2003 -91 1742 57 
Q 1481 206 1313 519 
L 1313 0 
L 184 0 
L 184 331 
L 738 331 
z
M 1313 1497 
Q 1313 897 1542 583 
Q 1772 269 2209 269 
Q 2650 269 2876 622 
Q 3103 975 3103 1663 
Q 3103 2353 2876 2703 
Q 2650 3053 2209 3053 
Q 1772 3053 1542 2737 
Q 1313 2422 1313 1825 
L 1313 1497 
z
" transform="scale(0.015625)"/>
      <path id="DejaVuSerif-77" d="M 3072 3322 
L 3922 728 
L 4672 2988 
L 4191 2988 
L 4191 3322 
L 5394 3322 
L 5394 2988 
L 5025 2988 
L 4038 0 
L 3559 0 
L 2741 2484 
L 1919 0 
L 1459 0 
L 475 2988 
L 103 2988 
L 103 3322 
L 1606 3322 
L 1606 2988 
L 1069 2988 
L 1813 728 
L 2669 3322 
L 3072 3322 
z
" transform="scale(0.015625)"/>
      <path id="DejaVuSerif-63" d="M 3291 997 
Q 3169 466 2822 187 
Q 2475 -91 1925 -91 
Q 1200 -91 759 389 
Q 319 869 319 1663 
Q 319 2459 759 2936 
Q 1200 3413 1925 3413 
Q 2241 3413 2553 3339 
Q 2866 3266 3181 3116 
L 3181 2266 
L 2847 2266 
Q 2781 2703 2561 2903 
Q 2341 3103 1931 3103 
Q 1466 3103 1228 2742 
Q 991 2381 991 1663 
Q 991 944 1227 581 
Q 1463 219 1931 219 
Q 2303 219 2525 412 
Q 2747 606 2828 997 
L 3291 997 
z
" transform="scale(0.015625)"/>
      <path id="DejaVuSerif-72" d="M 3059 3328 
L 3059 2497 
L 2728 2497 
Q 2713 2744 2591 2866 
Q 2469 2988 2234 2988 
Q 1809 2988 1582 2694 
Q 1356 2400 1356 1850 
L 1356 331 
L 2022 331 
L 2022 0 
L 263 0 
L 263 331 
L 781 331 
L 781 2994 
L 231 2994 
L 231 3322 
L 1356 3322 
L 1356 2731 
Q 1525 3078 1790 3245 
Q 2056 3413 2438 3413 
Q 2578 3413 2733 3391 
Q 2888 3369 3059 3328 
z
" transform="scale(0.015625)"/>
      <path id="DejaVuSerif-64" d="M 3359 331 
L 3909 331 
L 3909 0 
L 2784 0 
L 2784 519 
Q 2616 206 2355 57 
Q 2094 -91 1709 -91 
Q 1097 -91 708 395 
Q 319 881 319 1663 
Q 319 2444 706 2928 
Q 1094 3413 1709 3413 
Q 2094 3413 2355 3264 
Q 2616 3116 2784 2803 
L 2784 4531 
L 2241 4531 
L 2241 4863 
L 3359 4863 
L 3359 331 
z
M 2784 1497 
L 2784 1825 
Q 2784 2422 2554 2737 
Q 2325 3053 1888 3053 
Q 1444 3053 1217 2703 
Q 991 2353 991 1663 
Q 991 975 1217 622 
Q 1444 269 1888 269 
Q 2325 269 2554 583 
Q 2784 897 2784 1497 
z
" transform="scale(0.015625)"/>
      <path id="DejaVuSerif-79" d="M 1381 -609 
L 1600 -56 
L 359 2988 
L -19 2988 
L -19 3322 
L 1509 3322 
L 1509 2988 
L 978 2988 
L 1913 703 
L 2847 2988 
L 2350 2988 
L 2350 3322 
L 3597 3322 
L 3597 2988 
L 3225 2988 
L 1703 -750 
Q 1547 -1138 1356 -1280 
Q 1166 -1422 819 -1422 
Q 672 -1422 517 -1397 
Q 363 -1372 206 -1325 
L 206 -691 
L 500 -691 
Q 519 -903 608 -995 
Q 697 -1088 884 -1088 
Q 1056 -1088 1161 -992 
Q 1266 -897 1381 -609 
z
" transform="scale(0.015625)"/>
      <path id="DejaVuSerif-28" d="M 2041 -997 
Q 1281 -656 893 83 
Q 506 822 506 1931 
Q 506 3044 893 3783 
Q 1281 4522 2041 4863 
L 2041 4556 
Q 1559 4225 1350 3623 
Q 1141 3022 1141 1931 
Q 1141 844 1350 242 
Q 1559 -359 2041 -691 
L 2041 -997 
z
" transform="scale(0.015625)"/>
      <path id="DejaVuSerif-75" d="M 2266 3322 
L 3341 3322 
L 3341 331 
L 3884 331 
L 3884 0 
L 2766 0 
L 2766 588 
Q 2606 256 2353 82 
Q 2100 -91 1766 -91 
Q 1213 -91 952 223 
Q 691 538 691 1209 
L 691 2988 
L 172 2988 
L 172 3322 
L 1269 3322 
L 1269 1388 
Q 1269 781 1417 556 
Q 1566 331 1947 331 
Q 2347 331 2556 625 
Q 2766 919 2766 1478 
L 2766 2988 
L 2266 2988 
L 2266 3322 
z
" transform="scale(0.015625)"/>
      <path id="DejaVuSerif-29" d="M 453 -997 
L 453 -691 
Q 934 -359 1145 242 
Q 1356 844 1356 1931 
Q 1356 3022 1145 3623 
Q 934 4225 453 4556 
L 453 4863 
Q 1216 4522 1603 3783 
Q 1991 3044 1991 1931 
Q 1991 822 1603 83 
Q 1216 -656 453 -997 
z
" transform="scale(0.015625)"/>
      <path id="DejaVuSerif-2e" d="M 603 325 
Q 603 500 722 622 
Q 841 744 1019 744 
Q 1191 744 1312 622 
Q 1434 500 1434 325 
Q 1434 153 1312 31 
Q 1191 -91 1019 -91 
Q 841 -91 722 29 
Q 603 150 603 325 
z
" transform="scale(0.015625)"/>
      <path id="DejaVuSerif-46" d="M 353 0 
L 353 331 
L 947 331 
L 947 4331 
L 353 4331 
L 353 4666 
L 4172 4666 
L 4172 3628 
L 3788 3628 
L 3788 4281 
L 1581 4281 
L 1581 2719 
L 3175 2719 
L 3175 3303 
L 3559 3303 
L 3559 1753 
L 3175 1753 
L 3175 2338 
L 1581 2338 
L 1581 331 
L 2328 331 
L 2328 0 
L 353 0 
z
" transform="scale(0.015625)"/>
      <path id="DejaVuSerif-2c" d="M 231 -622 
Q 525 -406 662 -114 
Q 800 178 800 594 
L 800 709 
L 1416 709 
Q 1391 175 1164 -208 
Q 938 -591 481 -872 
L 231 -622 
z
" transform="scale(0.015625)"/>
      <path id="Cmex10-a9" d="M 1631 -6425 
L 1631 -4556 
Q 1631 -4338 1503 -4159 
Q 1375 -3981 1184 -3867 
Q 994 -3753 756 -3675 
Q 709 -3650 709 -3622 
L 709 -3547 
Q 709 -3503 756 -3494 
Q 1128 -3366 1379 -3150 
Q 1631 -2934 1631 -2606 
L 1631 -738 
Q 1631 -325 2004 -95 
Q 2378 134 2888 256 
L 2963 256 
Q 2981 256 2998 242 
Q 3016 228 3016 206 
L 3016 128 
Q 3016 91 2975 78 
Q 2619 -31 2359 -232 
Q 2100 -434 2100 -750 
L 2100 -2619 
Q 2100 -2994 1804 -3214 
Q 1509 -3434 1056 -3584 
Q 1497 -3716 1798 -3939 
Q 2100 -4163 2100 -4544 
L 2100 -6413 
Q 2100 -6628 2231 -6790 
Q 2363 -6953 2556 -7059 
Q 2750 -7166 2975 -7238 
Q 3016 -7250 3016 -7291 
L 3016 -7366 
Q 3016 -7384 2998 -7401 
Q 2981 -7419 2963 -7419 
L 2888 -7419 
Q 2559 -7338 2292 -7227 
Q 2025 -7116 1828 -6914 
Q 1631 -6713 1631 -6425 
z
" transform="scale(0.015625)"/>
      <path id="Cmr10-31" d="M 594 0 
L 594 225 
Q 1394 225 1394 428 
L 1394 3788 
Q 1063 3628 556 3628 
L 556 3853 
Q 1341 3853 1741 4263 
L 1831 4263 
Q 1853 4263 1873 4245 
Q 1894 4228 1894 4206 
L 1894 428 
Q 1894 225 2694 225 
L 2694 0 
L 594 0 
z
" transform="scale(0.015625)"/>
      <path id="Cmmi10-3b" d="M 634 -1153 
Q 634 -1125 659 -1100 
Q 891 -878 1019 -587 
Q 1147 -297 1147 25 
L 1147 103 
Q 1044 0 891 0 
Q 744 0 641 103 
Q 538 206 538 353 
Q 538 503 641 603 
Q 744 703 891 703 
Q 1119 703 1216 492 
Q 1313 281 1313 25 
Q 1313 -331 1170 -651 
Q 1028 -972 769 -1228 
Q 744 -1241 728 -1241 
Q 697 -1241 665 -1212 
Q 634 -1184 634 -1153 
z
" transform="scale(0.015625)"/>
      <path id="Cmr10-32" d="M 319 0 
L 319 172 
Q 319 188 331 206 
L 1325 1306 
Q 1550 1550 1690 1715 
Q 1831 1881 1968 2097 
Q 2106 2313 2186 2536 
Q 2266 2759 2266 3009 
Q 2266 3272 2169 3511 
Q 2072 3750 1880 3894 
Q 1688 4038 1416 4038 
Q 1138 4038 916 3870 
Q 694 3703 603 3438 
Q 628 3444 672 3444 
Q 816 3444 917 3347 
Q 1019 3250 1019 3097 
Q 1019 2950 917 2848 
Q 816 2747 672 2747 
Q 522 2747 420 2851 
Q 319 2956 319 3097 
Q 319 3338 409 3548 
Q 500 3759 670 3923 
Q 841 4088 1055 4175 
Q 1269 4263 1509 4263 
Q 1875 4263 2190 4108 
Q 2506 3953 2690 3670 
Q 2875 3388 2875 3009 
Q 2875 2731 2753 2481 
Q 2631 2231 2440 2026 
Q 2250 1822 1953 1562 
Q 1656 1303 1563 1216 
L 838 519 
L 1453 519 
Q 1906 519 2211 526 
Q 2516 534 2534 550 
Q 2609 631 2688 1141 
L 2875 1141 
L 2694 0 
L 319 0 
z
" transform="scale(0.015625)"/>
      <path id="STIXGeneral-Regular-2026" d="M 5683 275 
Q 5683 134 5577 32 
Q 5472 -70 5325 -70 
Q 5178 -70 5075 32 
Q 4973 134 4973 281 
Q 4973 429 5078 534 
Q 5184 640 5331 640 
Q 5472 640 5577 531 
Q 5683 422 5683 275 
z
M 3552 275 
Q 3552 134 3446 32 
Q 3341 -70 3193 -70 
Q 3046 -70 2944 32 
Q 2842 134 2842 281 
Q 2842 429 2947 534 
Q 3053 640 3200 640 
Q 3341 640 3446 531 
Q 3552 422 3552 275 
z
M 1421 275 
Q 1421 134 1315 32 
Q 1210 -70 1062 -70 
Q 915 -70 812 32 
Q 710 134 710 281 
Q 710 429 816 534 
Q 922 640 1069 640 
Q 1210 640 1315 531 
Q 1421 422 1421 275 
z
" transform="scale(0.015625)"/>
      <path id="Cmmi10-6e" d="M 494 109 
Q 494 147 500 166 
L 978 2075 
Q 1025 2253 1025 2388 
Q 1025 2663 838 2663 
Q 638 2663 541 2423 
Q 444 2184 353 1819 
Q 353 1800 334 1789 
Q 316 1778 300 1778 
L 225 1778 
Q 203 1778 187 1801 
Q 172 1825 172 1844 
Q 241 2122 305 2315 
Q 369 2509 505 2668 
Q 641 2828 844 2828 
Q 1084 2828 1268 2676 
Q 1453 2525 1453 2291 
Q 1644 2541 1900 2684 
Q 2156 2828 2444 2828 
Q 2672 2828 2837 2750 
Q 3003 2672 3095 2514 
Q 3188 2356 3188 2138 
Q 3188 1875 3070 1503 
Q 2953 1131 2778 672 
Q 2688 463 2688 288 
Q 2688 97 2834 97 
Q 3084 97 3251 365 
Q 3419 634 3488 941 
Q 3500 978 3541 978 
L 3616 978 
Q 3641 978 3658 962 
Q 3675 947 3675 922 
Q 3675 916 3669 903 
Q 3581 541 3364 234 
Q 3147 -72 2822 -72 
Q 2597 -72 2437 83 
Q 2278 238 2278 459 
Q 2278 578 2328 709 
Q 2409 919 2514 1209 
Q 2619 1500 2686 1765 
Q 2753 2031 2753 2234 
Q 2753 2413 2679 2538 
Q 2606 2663 2431 2663 
Q 2197 2663 2000 2559 
Q 1803 2456 1656 2286 
Q 1509 2116 1388 1881 
L 953 141 
Q 931 53 854 -9 
Q 778 -72 684 -72 
Q 606 -72 550 -22 
Q 494 28 494 109 
z
" transform="scale(0.015625)"/>
      <path id="Cmex10-aa" d="M 709 -7366 
L 709 -7291 
Q 709 -7247 756 -7238 
Q 1631 -6953 1631 -6413 
L 1631 -4544 
Q 1631 -3909 2669 -3584 
Q 2219 -3431 1925 -3209 
Q 1631 -2988 1631 -2619 
L 1631 -750 
Q 1631 -206 756 78 
Q 709 88 709 128 
L 709 206 
Q 709 256 769 256 
L 844 256 
Q 1359 131 1729 -97 
Q 2100 -325 2100 -738 
L 2100 -2606 
Q 2100 -2925 2354 -3142 
Q 2609 -3359 2975 -3494 
Q 3016 -3506 3016 -3547 
L 3016 -3622 
Q 3016 -3641 2975 -3675 
Q 2769 -3744 2566 -3864 
Q 2363 -3984 2231 -4161 
Q 2100 -4338 2100 -4556 
L 2100 -6425 
Q 2100 -6713 1901 -6914 
Q 1703 -7116 1437 -7227 
Q 1172 -7338 844 -7419 
L 769 -7419 
Q 744 -7419 726 -7401 
Q 709 -7384 709 -7366 
z
" transform="scale(0.015625)"/>
     </defs>
     <use xlink:href="#DejaVuSerif-44" transform="translate(0 0.705729)"/>
     <use xlink:href="#DejaVuSerif-65" transform="translate(80.175781 0.705729)"/>
     <use xlink:href="#DejaVuSerif-66" transform="translate(139.355469 0.705729)"/>
     <use xlink:href="#DejaVuSerif-69" transform="translate(176.367188 0.705729)"/>
     <use xlink:href="#DejaVuSerif-6e" transform="translate(208.349609 0.705729)"/>
     <use xlink:href="#DejaVuSerif-65" transform="translate(272.753906 0.705729)"/>
     <use xlink:href="#DejaVuSerif-20" transform="translate(331.933594 0.705729)"/>
     <use xlink:href="#DejaVuSerif-61" transform="translate(363.720703 0.705729)"/>
     <use xlink:href="#DejaVuSerif-20" transform="translate(423.339844 0.705729)"/>
     <use xlink:href="#DejaVuSerif-5c" transform="translate(455.126953 0.705729)"/>
     <use xlink:href="#DejaVuSerif-65" transform="translate(488.818359 0.705729)"/>
     <use xlink:href="#DejaVuSerif-6d" transform="translate(547.998047 0.705729)"/>
     <use xlink:href="#DejaVuSerif-70" transform="translate(642.822266 0.705729)"/>
     <use xlink:href="#DejaVuSerif-68" transform="translate(706.835938 0.705729)"/>
     <use xlink:href="#DejaVuSerif-7b" transform="translate(771.240234 0.705729)"/>
     <use xlink:href="#DejaVuSerif-73" transform="translate(834.863281 0.705729)"/>
     <use xlink:href="#DejaVuSerif-65" transform="translate(886.181641 0.705729)"/>
     <use xlink:href="#DejaVuSerif-6c" transform="translate(945.361328 0.705729)"/>
     <use xlink:href="#DejaVuSerif-66" transform="translate(977.34375 0.705729)"/>
     <use xlink:href="#DejaVuSerif-69" transform="translate(1014.355469 0.705729)"/>
     <use xlink:href="#DejaVuSerif-73" transform="translate(1046.337891 0.705729)"/>
     <use xlink:href="#DejaVuSerif-68" transform="translate(1097.65625 0.705729)"/>
     <use xlink:href="#DejaVuSerif-7d" transform="translate(1162.060547 0.705729)"/>
     <use xlink:href="#DejaVuSerif-20" transform="translate(1225.683594 0.705729)"/>
     <use xlink:href="#DejaVuSerif-73" transform="translate(1257.470703 0.705729)"/>
     <use xlink:href="#DejaVuSerif-65" transform="translate(1308.789062 0.705729)"/>
     <use xlink:href="#DejaVuSerif-74" transform="translate(1367.96875 0.705729)"/>
     <use xlink:href="#DejaVuSerif-20" transform="translate(1408.154297 0.705729)"/>
     <use xlink:href="#DejaVuSerif-74" transform="translate(1439.941406 0.705729)"/>
     <use xlink:href="#DejaVuSerif-6f" transform="translate(1480.126953 0.705729)"/>
     <use xlink:href="#DejaVuSerif-20" transform="translate(1540.332031 0.705729)"/>
     <use xlink:href="#DejaVuSerif-62" transform="translate(1572.119141 0.705729)"/>
     <use xlink:href="#DejaVuSerif-65" transform="translate(1636.132812 0.705729)"/>
     <use xlink:href="#DejaVuSerif-20" transform="translate(1695.3125 0.705729)"/>
     <use xlink:href="#DejaVuSerif-61" transform="translate(1727.099609 0.705729)"/>
     <use xlink:href="#DejaVuSerif-20" transform="translate(1786.71875 0.705729)"/>
     <use xlink:href="#DejaVuSerif-73" transform="translate(1818.505859 0.705729)"/>
     <use xlink:href="#DejaVuSerif-65" transform="translate(1869.824219 0.705729)"/>
     <use xlink:href="#DejaVuSerif-74" transform="translate(1929.003906 0.705729)"/>
     <use xlink:href="#DejaVuSerif-20" transform="translate(1969.189453 0.705729)"/>
     <use xlink:href="#DejaVuSerif-77" transform="translate(2000.976562 0.705729)"/>
     <use xlink:href="#DejaVuSerif-68" transform="translate(2086.572266 0.705729)"/>
     <use xlink:href="#DejaVuSerif-69" transform="translate(2150.976562 0.705729)"/>
     <use xlink:href="#DejaVuSerif-63" transform="translate(2182.958984 0.705729)"/>
     <use xlink:href="#DejaVuSerif-68" transform="translate(2238.964844 0.705729)"/>
     <use xlink:href="#DejaVuSerif-20" transform="translate(2303.369141 0.705729)"/>
     <use xlink:href="#DejaVuSerif-68" transform="translate(2335.15625 0.705729)"/>
     <use xlink:href="#DejaVuSerif-61" transform="translate(2399.560547 0.705729)"/>
     <use xlink:href="#DejaVuSerif-73" transform="translate(2459.179688 0.705729)"/>
     <use xlink:href="#DejaVuSerif-20" transform="translate(2510.498047 0.705729)"/>
     <use xlink:href="#DejaVuSerif-69" transform="translate(2542.285156 0.705729)"/>
     <use xlink:href="#DejaVuSerif-74" transform="translate(2574.267578 0.705729)"/>
     <use xlink:href="#DejaVuSerif-73" transform="translate(2614.453125 0.705729)"/>
     <use xlink:href="#DejaVuSerif-20" transform="translate(2665.771484 0.705729)"/>
     <use xlink:href="#DejaVuSerif-6f" transform="translate(2697.558594 0.705729)"/>
     <use xlink:href="#DejaVuSerif-77" transform="translate(2757.763672 0.705729)"/>
     <use xlink:href="#DejaVuSerif-6e" transform="translate(2843.359375 0.705729)"/>
     <use xlink:href="#DejaVuSerif-20" transform="translate(2907.763672 0.705729)"/>
     <use xlink:href="#DejaVuSerif-63" transform="translate(2939.550781 0.705729)"/>
     <use xlink:href="#DejaVuSerif-61" transform="translate(2995.556641 0.705729)"/>
     <use xlink:href="#DejaVuSerif-72" transform="translate(3055.175781 0.705729)"/>
     <use xlink:href="#DejaVuSerif-64" transform="translate(3102.978516 0.705729)"/>
     <use xlink:href="#DejaVuSerif-69" transform="translate(3166.992188 0.705729)"/>
     <use xlink:href="#DejaVuSerif-6e" transform="translate(3198.974609 0.705729)"/>
     <use xlink:href="#DejaVuSerif-61" transform="translate(3263.378906 0.705729)"/>
     <use xlink:href="#DejaVuSerif-6c" transform="translate(3322.998047 0.705729)"/>
     <use xlink:href="#DejaVuSerif-69" transform="translate(3354.980469 0.705729)"/>
     <use xlink:href="#DejaVuSerif-74" transform="translate(3386.962891 0.705729)"/>
     <use xlink:href="#DejaVuSerif-79" transform="translate(3427.148438 0.705729)"/>
     <use xlink:href="#DejaVuSerif-20" transform="translate(3483.642578 0.705729)"/>
     <use xlink:href="#DejaVuSerif-28" transform="translate(3515.429688 0.705729)"/>
     <use xlink:href="#DejaVuSerif-6e" transform="translate(3554.443359 0.705729)"/>
     <use xlink:href="#DejaVuSerif-75" transform="translate(3618.847656 0.705729)"/>
     <use xlink:href="#DejaVuSerif-6d" transform="translate(3683.251953 0.705729)"/>
     <use xlink:href="#DejaVuSerif-62" transform="translate(3778.076172 0.705729)"/>
     <use xlink:href="#DejaVuSerif-65" transform="translate(3842.089844 0.705729)"/>
     <use xlink:href="#DejaVuSerif-72" transform="translate(3901.269531 0.705729)"/>
     <use xlink:href="#DejaVuSerif-20" transform="translate(3949.072266 0.705729)"/>
     <use xlink:href="#DejaVuSerif-6f" transform="translate(3980.859375 0.705729)"/>
     <use xlink:href="#DejaVuSerif-66" transform="translate(4041.064453 0.705729)"/>
     <use xlink:href="#DejaVuSerif-20" transform="translate(4078.076172 0.705729)"/>
     <use xlink:href="#DejaVuSerif-65" transform="translate(4109.863281 0.705729)"/>
     <use xlink:href="#DejaVuSerif-6c" transform="translate(4169.042969 0.705729)"/>
     <use xlink:href="#DejaVuSerif-65" transform="translate(4201.025391 0.705729)"/>
     <use xlink:href="#DejaVuSerif-6d" transform="translate(4260.205078 0.705729)"/>
     <use xlink:href="#DejaVuSerif-65" transform="translate(4355.029297 0.705729)"/>
     <use xlink:href="#DejaVuSerif-6e" transform="translate(4414.208984 0.705729)"/>
     <use xlink:href="#DejaVuSerif-74" transform="translate(4478.613281 0.705729)"/>
     <use xlink:href="#DejaVuSerif-73" transform="translate(4518.798828 0.705729)"/>
     <use xlink:href="#DejaVuSerif-29" transform="translate(4570.117188 0.705729)"/>
     <use xlink:href="#DejaVuSerif-20" transform="translate(4609.130859 0.705729)"/>
     <use xlink:href="#DejaVuSerif-61" transform="translate(4640.917969 0.705729)"/>
     <use xlink:href="#DejaVuSerif-73" transform="translate(4700.537109 0.705729)"/>
     <use xlink:href="#DejaVuSerif-20" transform="translate(4751.855469 0.705729)"/>
     <use xlink:href="#DejaVuSerif-61" transform="translate(4783.642578 0.705729)"/>
     <use xlink:href="#DejaVuSerif-6e" transform="translate(4843.261719 0.705729)"/>
     <use xlink:href="#DejaVuSerif-20" transform="translate(4907.666016 0.705729)"/>
     <use xlink:href="#DejaVuSerif-65" transform="translate(4939.453125 0.705729)"/>
     <use xlink:href="#DejaVuSerif-6c" transform="translate(4998.632812 0.705729)"/>
     <use xlink:href="#DejaVuSerif-65" transform="translate(5030.615234 0.705729)"/>
     <use xlink:href="#DejaVuSerif-6d" transform="translate(5089.794922 0.705729)"/>
     <use xlink:href="#DejaVuSerif-65" transform="translate(5184.619141 0.705729)"/>
     <use xlink:href="#DejaVuSerif-6e" transform="translate(5243.798828 0.705729)"/>
     <use xlink:href="#DejaVuSerif-74" transform="translate(5308.203125 0.705729)"/>
     <use xlink:href="#DejaVuSerif-2e" transform="translate(5348.388672 0.705729)"/>
     <use xlink:href="#DejaVuSerif-20" transform="translate(5380.175781 0.705729)"/>
     <use xlink:href="#DejaVuSerif-46" transform="translate(5411.962891 0.705729)"/>
     <use xlink:href="#DejaVuSerif-69" transform="translate(5481.347656 0.705729)"/>
     <use xlink:href="#DejaVuSerif-6e" transform="translate(5513.330078 0.705729)"/>
     <use xlink:href="#DejaVuSerif-64" transform="translate(5577.734375 0.705729)"/>
     <use xlink:href="#DejaVuSerif-2c" transform="translate(5641.748047 0.705729)"/>
     <use xlink:href="#DejaVuSerif-20" transform="translate(5673.535156 0.705729)"/>
     <use xlink:href="#DejaVuSerif-77" transform="translate(5705.322266 0.705729)"/>
     <use xlink:href="#DejaVuSerif-69" transform="translate(5790.917969 0.705729)"/>
     <use xlink:href="#DejaVuSerif-74" transform="translate(5822.900391 0.705729)"/>
     <use xlink:href="#DejaVuSerif-68" transform="translate(5863.085938 0.705729)"/>
     <use xlink:href="#DejaVuSerif-20" transform="translate(5927.490234 0.705729)"/>
     <use xlink:href="#DejaVuSerif-70" transform="translate(5959.277344 0.705729)"/>
     <use xlink:href="#DejaVuSerif-72" transform="translate(6023.291016 0.705729)"/>
     <use xlink:href="#DejaVuSerif-6f" transform="translate(6071.09375 0.705729)"/>
     <use xlink:href="#DejaVuSerif-6f" transform="translate(6131.298828 0.705729)"/>
     <use xlink:href="#DejaVuSerif-66" transform="translate(6191.503906 0.705729)"/>
     <use xlink:href="#DejaVuSerif-2c" transform="translate(6228.515625 0.705729)"/>
     <use xlink:href="#DejaVuSerif-20" transform="translate(6260.302734 0.705729)"/>
     <use xlink:href="#DejaVuSerif-74" transform="translate(6292.089844 0.705729)"/>
     <use xlink:href="#DejaVuSerif-68" transform="translate(6332.275391 0.705729)"/>
     <use xlink:href="#DejaVuSerif-65" transform="translate(6396.679688 0.705729)"/>
     <use xlink:href="#DejaVuSerif-20" transform="translate(6455.859375 0.705729)"/>
     <use xlink:href="#DejaVuSerif-6e" transform="translate(6487.646484 0.705729)"/>
     <use xlink:href="#DejaVuSerif-75" transform="translate(6552.050781 0.705729)"/>
     <use xlink:href="#DejaVuSerif-6d" transform="translate(6616.455078 0.705729)"/>
     <use xlink:href="#DejaVuSerif-62" transform="translate(6711.279297 0.705729)"/>
     <use xlink:href="#DejaVuSerif-65" transform="translate(6775.292969 0.705729)"/>
     <use xlink:href="#DejaVuSerif-72" transform="translate(6834.472656 0.705729)"/>
     <use xlink:href="#DejaVuSerif-20" transform="translate(6882.275391 0.705729)"/>
     <use xlink:href="#DejaVuSerif-6f" transform="translate(6914.0625 0.705729)"/>
     <use xlink:href="#DejaVuSerif-66" transform="translate(6974.267578 0.705729)"/>
     <use xlink:href="#DejaVuSerif-20" transform="translate(7011.279297 0.705729)"/>
     <use xlink:href="#DejaVuSerif-73" transform="translate(7043.066406 0.705729)"/>
     <use xlink:href="#DejaVuSerif-75" transform="translate(7094.384766 0.705729)"/>
     <use xlink:href="#DejaVuSerif-62" transform="translate(7158.789062 0.705729)"/>
     <use xlink:href="#DejaVuSerif-73" transform="translate(7222.802734 0.705729)"/>
     <use xlink:href="#DejaVuSerif-65" transform="translate(7274.121094 0.705729)"/>
     <use xlink:href="#DejaVuSerif-74" transform="translate(7333.300781 0.705729)"/>
     <use xlink:href="#DejaVuSerif-73" transform="translate(7373.486328 0.705729)"/>
     <use xlink:href="#DejaVuSerif-20" transform="translate(7424.804688 0.705729)"/>
     <use xlink:href="#DejaVuSerif-6f" transform="translate(7456.591797 0.705729)"/>
     <use xlink:href="#DejaVuSerif-66" transform="translate(7516.796875 0.705729)"/>
     <use xlink:href="#DejaVuSerif-20" transform="translate(7553.808594 0.705729)"/>
     <use xlink:href="#Cmex10-a9" transform="translate(7585.595703 94)"/>
     <use xlink:href="#Cmr10-31" transform="translate(7643.896484 0.705729)"/>
     <use xlink:href="#Cmmi10-3b" transform="translate(7693.896484 0.705729)"/>
     <use xlink:href="#Cmr10-32" transform="translate(7739.140625 0.705729)"/>
     <use xlink:href="#Cmmi10-3b" transform="translate(7789.140625 0.705729)"/>
     <use xlink:href="#STIXGeneral-Regular-2026" transform="translate(7851.943359 0.705729)"/>
     <use xlink:href="#Cmmi10-3b" transform="translate(7969.501938 0.705729)"/>
     <use xlink:href="#Cmmi10-6e" transform="translate(8014.746078 0.705729)"/>
     <use xlink:href="#Cmex10-aa" transform="translate(8074.755844 94)"/>
     <use xlink:href="#DejaVuSerif-20" transform="translate(8133.056625 0.705729)"/>
     <use xlink:href="#DejaVuSerif-77" transform="translate(8164.843735 0.705729)"/>
     <use xlink:href="#DejaVuSerif-68" transform="translate(8250.439438 0.705729)"/>
     <use xlink:href="#DejaVuSerif-69" transform="translate(8314.843735 0.705729)"/>
     <use xlink:href="#DejaVuSerif-63" transform="translate(8346.826157 0.705729)"/>
     <use xlink:href="#DejaVuSerif-68" transform="translate(8402.832016 0.705729)"/>
     <use xlink:href="#DejaVuSerif-20" transform="translate(8467.236313 0.705729)"/>
     <use xlink:href="#DejaVuSerif-61" transform="translate(8499.023422 0.705729)"/>
     <use xlink:href="#DejaVuSerif-72" transform="translate(8558.642563 0.705729)"/>
     <use xlink:href="#DejaVuSerif-65" transform="translate(8606.445297 0.705729)"/>
     <use xlink:href="#DejaVuSerif-20" transform="translate(8665.624985 0.705729)"/>
     <use xlink:href="#DejaVuSerif-5c" transform="translate(8697.412094 0.705729)"/>
     <use xlink:href="#DejaVuSerif-65" transform="translate(8731.1035 0.705729)"/>
     <use xlink:href="#DejaVuSerif-6d" transform="translate(8790.283188 0.705729)"/>
     <use xlink:href="#DejaVuSerif-70" transform="translate(8885.107407 0.705729)"/>
     <use xlink:href="#DejaVuSerif-68" transform="translate(8949.121078 0.705729)"/>
     <use xlink:href="#DejaVuSerif-7b" transform="translate(9013.525375 0.705729)"/>
     <use xlink:href="#DejaVuSerif-6d" transform="translate(9077.148422 0.705729)"/>
     <use xlink:href="#DejaVuSerif-69" transform="translate(9171.972641 0.705729)"/>
     <use xlink:href="#DejaVuSerif-6e" transform="translate(9203.955063 0.705729)"/>
     <use xlink:href="#DejaVuSerif-69" transform="translate(9268.35936 0.705729)"/>
     <use xlink:href="#DejaVuSerif-6d" transform="translate(9300.341782 0.705729)"/>
     <use xlink:href="#DejaVuSerif-61" transform="translate(9395.166 0.705729)"/>
     <use xlink:href="#DejaVuSerif-6c" transform="translate(9454.785141 0.705729)"/>
     <use xlink:href="#DejaVuSerif-7d" transform="translate(9486.767563 0.705729)"/>
     <use xlink:href="#DejaVuSerif-20" transform="translate(9550.39061 0.705729)"/>
     <use xlink:href="#DejaVuSerif-73" transform="translate(9582.177719 0.705729)"/>
     <use xlink:href="#DejaVuSerif-65" transform="translate(9633.496078 0.705729)"/>
     <use xlink:href="#DejaVuSerif-6c" transform="translate(9692.675766 0.705729)"/>
     <use xlink:href="#DejaVuSerif-66" transform="translate(9724.658188 0.705729)"/>
     <use xlink:href="#DejaVuSerif-69" transform="translate(9761.669907 0.705729)"/>
     <use xlink:href="#DejaVuSerif-73" transform="translate(9793.652328 0.705729)"/>
     <use xlink:href="#DejaVuSerif-68" transform="translate(9844.970688 0.705729)"/>
     <use xlink:href="#DejaVuSerif-20" transform="translate(9909.374985 0.705729)"/>
     <use xlink:href="#DejaVuSerif-73" transform="translate(9941.162094 0.705729)"/>
     <use xlink:href="#DejaVuSerif-65" transform="translate(9992.480453 0.705729)"/>
     <use xlink:href="#DejaVuSerif-74" transform="translate(10051.660141 0.705729)"/>
     <use xlink:href="#DejaVuSerif-73" transform="translate(10091.845688 0.705729)"/>
     <use xlink:href="#DejaVuSerif-2c" transform="translate(10143.164047 0.705729)"/>
     <use xlink:href="#DejaVuSerif-20" transform="translate(10174.951157 0.705729)"/>
     <use xlink:href="#DejaVuSerif-74" transform="translate(10206.738266 0.705729)"/>
     <use xlink:href="#DejaVuSerif-68" transform="translate(10246.923813 0.705729)"/>
     <use xlink:href="#DejaVuSerif-61" transform="translate(10311.32811 0.705729)"/>
     <use xlink:href="#DejaVuSerif-74" transform="translate(10370.94725 0.705729)"/>
     <use xlink:href="#DejaVuSerif-20" transform="translate(10411.132797 0.705729)"/>
     <use xlink:href="#DejaVuSerif-69" transform="translate(10442.919907 0.705729)"/>
     <use xlink:href="#DejaVuSerif-73" transform="translate(10474.902328 0.705729)"/>
     <use xlink:href="#DejaVuSerif-2c" transform="translate(10526.220688 0.705729)"/>
     <use xlink:href="#DejaVuSerif-20" transform="translate(10558.007797 0.705729)"/>
     <use xlink:href="#DejaVuSerif-73" transform="translate(10589.794907 0.705729)"/>
     <use xlink:href="#DejaVuSerif-65" transform="translate(10641.113266 0.705729)"/>
     <use xlink:href="#DejaVuSerif-6c" transform="translate(10700.292953 0.705729)"/>
     <use xlink:href="#DejaVuSerif-66" transform="translate(10732.275375 0.705729)"/>
     <use xlink:href="#DejaVuSerif-69" transform="translate(10769.287094 0.705729)"/>
     <use xlink:href="#DejaVuSerif-73" transform="translate(10801.269516 0.705729)"/>
     <use xlink:href="#DejaVuSerif-68" transform="translate(10852.587875 0.705729)"/>
     <use xlink:href="#DejaVuSerif-20" transform="translate(10916.992172 0.705729)"/>
     <use xlink:href="#DejaVuSerif-73" transform="translate(10948.779282 0.705729)"/>
     <use xlink:href="#DejaVuSerif-65" transform="translate(11000.097641 0.705729)"/>
     <use xlink:href="#DejaVuSerif-74" transform="translate(11059.277328 0.705729)"/>
     <use xlink:href="#DejaVuSerif-73" transform="translate(11099.462875 0.705729)"/>
     <use xlink:href="#DejaVuSerif-20" transform="translate(11150.781235 0.705729)"/>
     <use xlink:href="#DejaVuSerif-6e" transform="translate(11182.568344 0.705729)"/>
     <use xlink:href="#DejaVuSerif-6f" transform="translate(11246.972641 0.705729)"/>
     <use xlink:href="#DejaVuSerif-6e" transform="translate(11307.177719 0.705729)"/>
     <use xlink:href="#DejaVuSerif-65" transform="translate(11371.582016 0.705729)"/>
     <use xlink:href="#DejaVuSerif-20" transform="translate(11430.761703 0.705729)"/>
     <use xlink:href="#DejaVuSerif-6f" transform="translate(11462.548813 0.705729)"/>
     <use xlink:href="#DejaVuSerif-66" transform="translate(11522.753891 0.705729)"/>
     <use xlink:href="#DejaVuSerif-20" transform="translate(11559.76561 0.705729)"/>
     <use xlink:href="#DejaVuSerif-77" transform="translate(11591.552719 0.705729)"/>
     <use xlink:href="#DejaVuSerif-68" transform="translate(11677.148422 0.705729)"/>
     <use xlink:href="#DejaVuSerif-6f" transform="translate(11741.552719 0.705729)"/>
     <use xlink:href="#DejaVuSerif-73" transform="translate(11801.757797 0.705729)"/>
     <use xlink:href="#DejaVuSerif-65" transform="translate(11853.076157 0.705729)"/>
     <use xlink:href="#DejaVuSerif-20" transform="translate(11912.255844 0.705729)"/>
     <use xlink:href="#DejaVuSerif-70" transform="translate(11944.042953 0.705729)"/>
     <use xlink:href="#DejaVuSerif-72" transform="translate(12008.056625 0.705729)"/>
     <use xlink:href="#DejaVuSerif-6f" transform="translate(12055.85936 0.705729)"/>
     <use xlink:href="#DejaVuSerif-70" transform="translate(12116.064438 0.705729)"/>
     <use xlink:href="#DejaVuSerif-65" transform="translate(12180.07811 0.705729)"/>
     <use xlink:href="#DejaVuSerif-72" transform="translate(12239.257797 0.705729)"/>
     <use xlink:href="#DejaVuSerif-20" transform="translate(12287.060532 0.705729)"/>
     <use xlink:href="#DejaVuSerif-73" transform="translate(12318.847641 0.705729)"/>
     <use xlink:href="#DejaVuSerif-75" transform="translate(12370.166 0.705729)"/>
     <use xlink:href="#DejaVuSerif-62" transform="translate(12434.570297 0.705729)"/>
     <use xlink:href="#DejaVuSerif-73" transform="translate(12498.583969 0.705729)"/>
     <use xlink:href="#DejaVuSerif-65" transform="translate(12549.902328 0.705729)"/>
     <use xlink:href="#DejaVuSerif-74" transform="translate(12609.082016 0.705729)"/>
     <use xlink:href="#DejaVuSerif-73" transform="translate(12649.267563 0.705729)"/>
     <use xlink:href="#DejaVuSerif-20" transform="translate(12700.585922 0.705729)"/>
     <use xlink:href="#DejaVuSerif-69" transform="translate(12732.373032 0.705729)"/>
     <use xlink:href="#DejaVuSerif-73" transform="translate(12764.355453 0.705729)"/>
     <use xlink:href="#DejaVuSerif-20" transform="translate(12815.673813 0.705729)"/>
     <use xlink:href="#DejaVuSerif-73" transform="translate(12847.460922 0.705729)"/>
     <use xlink:href="#DejaVuSerif-65" transform="translate(12898.779282 0.705729)"/>
     <use xlink:href="#DejaVuSerif-6c" transform="translate(12957.958969 0.705729)"/>
     <use xlink:href="#DejaVuSerif-66" transform="translate(12989.941391 0.705729)"/>
     <use xlink:href="#DejaVuSerif-69" transform="translate(13026.95311 0.705729)"/>
     <use xlink:href="#DejaVuSerif-73" transform="translate(13058.935532 0.705729)"/>
     <use xlink:href="#DejaVuSerif-68" transform="translate(13110.253891 0.705729)"/>
     <use xlink:href="#DejaVuSerif-2e" transform="translate(13174.658188 0.705729)"/>
    </g>
   </g>
  </g>
 </g>
</svg>
