<?xml version="1.0" encoding="utf-8" standalone="no"?>
<!DOCTYPE svg PUBLIC "-//W3C//DTD SVG 1.1//EN"
  "http://www.w3.org/Graphics/SVG/1.1/DTD/svg11.dtd">
<svg xmlns:xlink="http://www.w3.org/1999/xlink" width="2624.4pt" height="180.72pt" viewBox="0 0 2624.4 180.72" xmlns="http://www.w3.org/2000/svg" version="1.1">
 <metadata>
  <rdf:RDF xmlns:dc="http://purl.org/dc/elements/1.1/" xmlns:cc="http://creativecommons.org/ns#" xmlns:rdf="http://www.w3.org/1999/02/22-rdf-syntax-ns#">
   <cc:Work>
    <dc:type rdf:resource="http://purl.org/dc/dcmitype/StillImage"/>
    <dc:date>2025-05-29T18:44:11.733439</dc:date>
    <dc:format>image/svg+xml</dc:format>
    <dc:creator>
     <cc:Agent>
      <dc:title>Matplotlib v3.10.3, https://matplotlib.org/</dc:title>
     </cc:Agent>
    </dc:creator>
   </cc:Work>
  </rdf:RDF>
 </metadata>
 <defs>
  <style type="text/css">*{stroke-linejoin: round; stroke-linecap: butt}</style>
 </defs>
 <g id="figure_1">
  <g id="patch_1">
   <path d="M -0 180.72 
L 2624.4 180.72 
L 2624.4 0 
L -0 0 
z
" style="fill: #ffffff"/>
  </g>
  <g id="axes_1">
   <g id="text_1">
    <!-- There are $2010$ boxes labeled $B_1, B_2, \dots, B_{2010}$, and $2010n$ balls have been distributed among them, for some positive integer $n$. You may redistribute the balls by a sequence of moves, each of which consists of choosing an $i$ and moving \emph{exactly} $i$ balls from box $B_i$ into any one other box. For which values of $n$ is it possible to reach the distribution with exactly $n$ balls in each box, regardless of the initial distribution of balls? -->
    <g transform="translate(7.2 93.54) scale(0.12 -0.12)">
     <defs>
      <path id="DejaVuSerif-54" d="M 1222 0 
L 1222 331 
L 1819 331 
L 1819 4294 
L 447 4294 
L 447 3566 
L 63 3566 
L 63 4666 
L 4206 4666 
L 4206 3566 
L 3822 3566 
L 3822 4294 
L 2450 4294 
L 2450 331 
L 3047 331 
L 3047 0 
L 1222 0 
z
" transform="scale(0.015625)"/>
      <path id="DejaVuSerif-68" d="M 263 0 
L 263 331 
L 781 331 
L 781 4531 
L 231 4531 
L 231 4863 
L 1356 4863 
L 1356 2731 
Q 1516 3069 1770 3241 
Q 2025 3413 2363 3413 
Q 2913 3413 3172 3097 
Q 3431 2781 3431 2113 
L 3431 331 
L 3944 331 
L 3944 0 
L 2356 0 
L 2356 331 
L 2853 331 
L 2853 1931 
Q 2853 2541 2704 2764 
Q 2556 2988 2175 2988 
Q 1775 2988 1565 2697 
Q 1356 2406 1356 1850 
L 1356 331 
L 1856 331 
L 1856 0 
L 263 0 
z
" transform="scale(0.015625)"/>
      <path id="DejaVuSerif-65" d="M 3469 1600 
L 991 1600 
L 991 1575 
Q 991 903 1244 561 
Q 1497 219 1991 219 
Q 2369 219 2611 417 
Q 2853 616 2950 1006 
L 3413 1006 
Q 3275 459 2904 184 
Q 2534 -91 1931 -91 
Q 1203 -91 761 389 
Q 319 869 319 1663 
Q 319 2450 753 2931 
Q 1188 3413 1894 3413 
Q 2647 3413 3050 2948 
Q 3453 2484 3469 1600 
z
M 2791 1931 
Q 2772 2513 2545 2808 
Q 2319 3103 1894 3103 
Q 1497 3103 1269 2806 
Q 1041 2509 991 1931 
L 2791 1931 
z
" transform="scale(0.015625)"/>
      <path id="DejaVuSerif-72" d="M 3059 3328 
L 3059 2497 
L 2728 2497 
Q 2713 2744 2591 2866 
Q 2469 2988 2234 2988 
Q 1809 2988 1582 2694 
Q 1356 2400 1356 1850 
L 1356 331 
L 2022 331 
L 2022 0 
L 263 0 
L 263 331 
L 781 331 
L 781 2994 
L 231 2994 
L 231 3322 
L 1356 3322 
L 1356 2731 
Q 1525 3078 1790 3245 
Q 2056 3413 2438 3413 
Q 2578 3413 2733 3391 
Q 2888 3369 3059 3328 
z
" transform="scale(0.015625)"/>
      <path id="DejaVuSerif-20" transform="scale(0.015625)"/>
      <path id="DejaVuSerif-61" d="M 2547 1044 
L 2547 1747 
L 1806 1747 
Q 1378 1747 1168 1562 
Q 959 1378 959 997 
Q 959 650 1171 447 
Q 1384 244 1747 244 
Q 2106 244 2326 466 
Q 2547 688 2547 1044 
z
M 3122 2075 
L 3122 331 
L 3634 331 
L 3634 0 
L 2547 0 
L 2547 359 
Q 2356 128 2106 18 
Q 1856 -91 1522 -91 
Q 969 -91 644 203 
Q 319 497 319 997 
Q 319 1513 691 1797 
Q 1063 2081 1741 2081 
L 2547 2081 
L 2547 2309 
Q 2547 2688 2317 2895 
Q 2088 3103 1672 3103 
Q 1328 3103 1125 2947 
Q 922 2791 872 2484 
L 575 2484 
L 575 3156 
Q 875 3284 1158 3348 
Q 1441 3413 1709 3413 
Q 2400 3413 2761 3070 
Q 3122 2728 3122 2075 
z
" transform="scale(0.015625)"/>
      <path id="Cmr10-32" d="M 319 0 
L 319 172 
Q 319 188 331 206 
L 1325 1306 
Q 1550 1550 1690 1715 
Q 1831 1881 1968 2097 
Q 2106 2313 2186 2536 
Q 2266 2759 2266 3009 
Q 2266 3272 2169 3511 
Q 2072 3750 1880 3894 
Q 1688 4038 1416 4038 
Q 1138 4038 916 3870 
Q 694 3703 603 3438 
Q 628 3444 672 3444 
Q 816 3444 917 3347 
Q 1019 3250 1019 3097 
Q 1019 2950 917 2848 
Q 816 2747 672 2747 
Q 522 2747 420 2851 
Q 319 2956 319 3097 
Q 319 3338 409 3548 
Q 500 3759 670 3923 
Q 841 4088 1055 4175 
Q 1269 4263 1509 4263 
Q 1875 4263 2190 4108 
Q 2506 3953 2690 3670 
Q 2875 3388 2875 3009 
Q 2875 2731 2753 2481 
Q 2631 2231 2440 2026 
Q 2250 1822 1953 1562 
Q 1656 1303 1563 1216 
L 838 519 
L 1453 519 
Q 1906 519 2211 526 
Q 2516 534 2534 550 
Q 2609 631 2688 1141 
L 2875 1141 
L 2694 0 
L 319 0 
z
" transform="scale(0.015625)"/>
      <path id="Cmr10-30" d="M 1600 -141 
Q 816 -141 533 504 
Q 250 1150 250 2041 
Q 250 2597 351 3087 
Q 453 3578 754 3920 
Q 1056 4263 1600 4263 
Q 2022 4263 2290 4056 
Q 2559 3850 2700 3523 
Q 2841 3197 2892 2823 
Q 2944 2450 2944 2041 
Q 2944 1491 2842 1011 
Q 2741 531 2444 195 
Q 2147 -141 1600 -141 
z
M 1600 25 
Q 1956 25 2131 390 
Q 2306 756 2347 1200 
Q 2388 1644 2388 2144 
Q 2388 2625 2347 3031 
Q 2306 3438 2132 3767 
Q 1959 4097 1600 4097 
Q 1238 4097 1063 3765 
Q 888 3434 847 3029 
Q 806 2625 806 2144 
Q 806 1788 823 1472 
Q 841 1156 916 820 
Q 991 484 1158 254 
Q 1325 25 1600 25 
z
" transform="scale(0.015625)"/>
      <path id="Cmr10-31" d="M 594 0 
L 594 225 
Q 1394 225 1394 428 
L 1394 3788 
Q 1063 3628 556 3628 
L 556 3853 
Q 1341 3853 1741 4263 
L 1831 4263 
Q 1853 4263 1873 4245 
Q 1894 4228 1894 4206 
L 1894 428 
Q 1894 225 2694 225 
L 2694 0 
L 594 0 
z
" transform="scale(0.015625)"/>
      <path id="DejaVuSerif-62" d="M 738 331 
L 738 4531 
L 184 4531 
L 184 4863 
L 1313 4863 
L 1313 2803 
Q 1481 3116 1742 3264 
Q 2003 3413 2388 3413 
Q 3000 3413 3387 2928 
Q 3775 2444 3775 1663 
Q 3775 881 3387 395 
Q 3000 -91 2388 -91 
Q 2003 -91 1742 57 
Q 1481 206 1313 519 
L 1313 0 
L 184 0 
L 184 331 
L 738 331 
z
M 1313 1497 
Q 1313 897 1542 583 
Q 1772 269 2209 269 
Q 2650 269 2876 622 
Q 3103 975 3103 1663 
Q 3103 2353 2876 2703 
Q 2650 3053 2209 3053 
Q 1772 3053 1542 2737 
Q 1313 2422 1313 1825 
L 1313 1497 
z
" transform="scale(0.015625)"/>
      <path id="DejaVuSerif-6f" d="M 1925 219 
Q 2388 219 2623 584 
Q 2859 950 2859 1663 
Q 2859 2375 2623 2739 
Q 2388 3103 1925 3103 
Q 1463 3103 1227 2739 
Q 991 2375 991 1663 
Q 991 950 1228 584 
Q 1466 219 1925 219 
z
M 1925 -91 
Q 1200 -91 759 389 
Q 319 869 319 1663 
Q 319 2456 758 2934 
Q 1197 3413 1925 3413 
Q 2653 3413 3092 2934 
Q 3531 2456 3531 1663 
Q 3531 869 3092 389 
Q 2653 -91 1925 -91 
z
" transform="scale(0.015625)"/>
      <path id="DejaVuSerif-78" d="M 1863 2028 
L 2559 2988 
L 2113 2988 
L 2113 3322 
L 3391 3322 
L 3391 2988 
L 2950 2988 
L 2059 1759 
L 3097 331 
L 3531 331 
L 3531 0 
L 1997 0 
L 1997 331 
L 2419 331 
L 1697 1325 
L 972 331 
L 1403 331 
L 1403 0 
L 141 0 
L 141 331 
L 581 331 
L 1497 1594 
L 488 2988 
L 78 2988 
L 78 3322 
L 1563 3322 
L 1563 2988 
L 1166 2988 
L 1863 2028 
z
" transform="scale(0.015625)"/>
      <path id="DejaVuSerif-73" d="M 359 184 
L 359 959 
L 691 959 
Q 703 588 923 403 
Q 1144 219 1575 219 
Q 1963 219 2166 364 
Q 2369 509 2369 788 
Q 2369 1006 2220 1140 
Q 2072 1275 1594 1428 
L 1178 1569 
Q 750 1706 558 1912 
Q 366 2119 366 2438 
Q 366 2894 700 3153 
Q 1034 3413 1625 3413 
Q 1888 3413 2178 3344 
Q 2469 3275 2778 3144 
L 2778 2419 
L 2447 2419 
Q 2434 2741 2221 2922 
Q 2009 3103 1644 3103 
Q 1281 3103 1095 2975 
Q 909 2847 909 2591 
Q 909 2381 1050 2254 
Q 1191 2128 1613 1997 
L 2069 1856 
Q 2541 1709 2748 1489 
Q 2956 1269 2956 922 
Q 2956 450 2595 179 
Q 2234 -91 1600 -91 
Q 1278 -91 972 -22 
Q 666 47 359 184 
z
" transform="scale(0.015625)"/>
      <path id="DejaVuSerif-6c" d="M 1313 331 
L 1856 331 
L 1856 0 
L 184 0 
L 184 331 
L 738 331 
L 738 4531 
L 184 4531 
L 184 4863 
L 1313 4863 
L 1313 331 
z
" transform="scale(0.015625)"/>
      <path id="DejaVuSerif-64" d="M 3359 331 
L 3909 331 
L 3909 0 
L 2784 0 
L 2784 519 
Q 2616 206 2355 57 
Q 2094 -91 1709 -91 
Q 1097 -91 708 395 
Q 319 881 319 1663 
Q 319 2444 706 2928 
Q 1094 3413 1709 3413 
Q 2094 3413 2355 3264 
Q 2616 3116 2784 2803 
L 2784 4531 
L 2241 4531 
L 2241 4863 
L 3359 4863 
L 3359 331 
z
M 2784 1497 
L 2784 1825 
Q 2784 2422 2554 2737 
Q 2325 3053 1888 3053 
Q 1444 3053 1217 2703 
Q 991 2353 991 1663 
Q 991 975 1217 622 
Q 1444 269 1888 269 
Q 2325 269 2554 583 
Q 2784 897 2784 1497 
z
" transform="scale(0.015625)"/>
      <path id="Cmmi10-42" d="M 319 0 
Q 256 0 256 84 
Q 259 100 268 137 
Q 278 175 293 200 
Q 309 225 341 225 
Q 522 225 656 234 
Q 791 244 884 269 
Q 959 297 1006 441 
L 1881 3956 
Q 1894 4019 1894 4044 
Q 1894 4113 1819 4122 
Q 1697 4147 1356 4147 
Q 1294 4147 1294 4231 
Q 1297 4247 1306 4286 
Q 1316 4325 1333 4348 
Q 1350 4372 1375 4372 
L 3669 4372 
Q 3878 4372 4083 4320 
Q 4288 4269 4461 4156 
Q 4634 4044 4736 3876 
Q 4838 3709 4838 3488 
Q 4838 3247 4714 3040 
Q 4591 2834 4395 2681 
Q 4200 2528 3973 2429 
Q 3747 2331 3500 2284 
Q 3675 2284 3854 2215 
Q 4034 2147 4175 2028 
Q 4316 1909 4402 1743 
Q 4488 1578 4488 1388 
Q 4488 1003 4219 684 
Q 3950 366 3542 183 
Q 3134 0 2753 0 
L 319 0 
z
M 1497 275 
Q 1497 225 1716 225 
L 2631 225 
Q 2944 225 3231 398 
Q 3519 572 3692 859 
Q 3866 1147 3866 1459 
Q 3866 1650 3786 1820 
Q 3706 1991 3556 2089 
Q 3406 2188 3213 2188 
L 1966 2188 
L 1522 416 
Q 1497 328 1497 275 
z
M 2009 2356 
L 2981 2356 
Q 3288 2356 3577 2512 
Q 3866 2669 4048 2937 
Q 4231 3206 4231 3506 
Q 4231 3784 4057 3965 
Q 3884 4147 3609 4147 
L 2731 4147 
Q 2559 4147 2500 4115 
Q 2441 4084 2400 3928 
L 2009 2356 
z
" transform="scale(0.015625)"/>
      <path id="Cmmi10-3b" d="M 634 -1153 
Q 634 -1125 659 -1100 
Q 891 -878 1019 -587 
Q 1147 -297 1147 25 
L 1147 103 
Q 1044 0 891 0 
Q 744 0 641 103 
Q 538 206 538 353 
Q 538 503 641 603 
Q 744 703 891 703 
Q 1119 703 1216 492 
Q 1313 281 1313 25 
Q 1313 -331 1170 -651 
Q 1028 -972 769 -1228 
Q 744 -1241 728 -1241 
Q 697 -1241 665 -1212 
Q 634 -1184 634 -1153 
z
" transform="scale(0.015625)"/>
      <path id="STIXGeneral-Regular-2026" d="M 5683 275 
Q 5683 134 5577 32 
Q 5472 -70 5325 -70 
Q 5178 -70 5075 32 
Q 4973 134 4973 281 
Q 4973 429 5078 534 
Q 5184 640 5331 640 
Q 5472 640 5577 531 
Q 5683 422 5683 275 
z
M 3552 275 
Q 3552 134 3446 32 
Q 3341 -70 3193 -70 
Q 3046 -70 2944 32 
Q 2842 134 2842 281 
Q 2842 429 2947 534 
Q 3053 640 3200 640 
Q 3341 640 3446 531 
Q 3552 422 3552 275 
z
M 1421 275 
Q 1421 134 1315 32 
Q 1210 -70 1062 -70 
Q 915 -70 812 32 
Q 710 134 710 281 
Q 710 429 816 534 
Q 922 640 1069 640 
Q 1210 640 1315 531 
Q 1421 422 1421 275 
z
" transform="scale(0.015625)"/>
      <path id="DejaVuSerif-2c" d="M 231 -622 
Q 525 -406 662 -114 
Q 800 178 800 594 
L 800 709 
L 1416 709 
Q 1391 175 1164 -208 
Q 938 -591 481 -872 
L 231 -622 
z
" transform="scale(0.015625)"/>
      <path id="DejaVuSerif-6e" d="M 263 0 
L 263 331 
L 781 331 
L 781 2988 
L 231 2988 
L 231 3322 
L 1356 3322 
L 1356 2731 
Q 1516 3069 1770 3241 
Q 2025 3413 2363 3413 
Q 2913 3413 3172 3097 
Q 3431 2781 3431 2113 
L 3431 331 
L 3944 331 
L 3944 0 
L 2356 0 
L 2356 331 
L 2853 331 
L 2853 1931 
Q 2853 2541 2703 2767 
Q 2553 2994 2175 2994 
Q 1775 2994 1565 2701 
Q 1356 2409 1356 1850 
L 1356 331 
L 1856 331 
L 1856 0 
L 263 0 
z
" transform="scale(0.015625)"/>
      <path id="Cmmi10-6e" d="M 494 109 
Q 494 147 500 166 
L 978 2075 
Q 1025 2253 1025 2388 
Q 1025 2663 838 2663 
Q 638 2663 541 2423 
Q 444 2184 353 1819 
Q 353 1800 334 1789 
Q 316 1778 300 1778 
L 225 1778 
Q 203 1778 187 1801 
Q 172 1825 172 1844 
Q 241 2122 305 2315 
Q 369 2509 505 2668 
Q 641 2828 844 2828 
Q 1084 2828 1268 2676 
Q 1453 2525 1453 2291 
Q 1644 2541 1900 2684 
Q 2156 2828 2444 2828 
Q 2672 2828 2837 2750 
Q 3003 2672 3095 2514 
Q 3188 2356 3188 2138 
Q 3188 1875 3070 1503 
Q 2953 1131 2778 672 
Q 2688 463 2688 288 
Q 2688 97 2834 97 
Q 3084 97 3251 365 
Q 3419 634 3488 941 
Q 3500 978 3541 978 
L 3616 978 
Q 3641 978 3658 962 
Q 3675 947 3675 922 
Q 3675 916 3669 903 
Q 3581 541 3364 234 
Q 3147 -72 2822 -72 
Q 2597 -72 2437 83 
Q 2278 238 2278 459 
Q 2278 578 2328 709 
Q 2409 919 2514 1209 
Q 2619 1500 2686 1765 
Q 2753 2031 2753 2234 
Q 2753 2413 2679 2538 
Q 2606 2663 2431 2663 
Q 2197 2663 2000 2559 
Q 1803 2456 1656 2286 
Q 1509 2116 1388 1881 
L 953 141 
Q 931 53 854 -9 
Q 778 -72 684 -72 
Q 606 -72 550 -22 
Q 494 28 494 109 
z
" transform="scale(0.015625)"/>
      <path id="DejaVuSerif-76" d="M 1581 0 
L 359 2988 
L -19 2988 
L -19 3322 
L 1509 3322 
L 1509 2988 
L 978 2988 
L 1913 703 
L 2847 2988 
L 2350 2988 
L 2350 3322 
L 3597 3322 
L 3597 2988 
L 3225 2988 
L 2003 0 
L 1581 0 
z
" transform="scale(0.015625)"/>
      <path id="DejaVuSerif-69" d="M 622 4353 
Q 622 4497 726 4603 
Q 831 4709 978 4709 
Q 1122 4709 1226 4603 
Q 1331 4497 1331 4353 
Q 1331 4206 1228 4103 
Q 1125 4000 978 4000 
Q 831 4000 726 4103 
Q 622 4206 622 4353 
z
M 1356 331 
L 1900 331 
L 1900 0 
L 231 0 
L 231 331 
L 781 331 
L 781 2988 
L 231 2988 
L 231 3322 
L 1356 3322 
L 1356 331 
z
" transform="scale(0.015625)"/>
      <path id="DejaVuSerif-74" d="M 691 2988 
L 184 2988 
L 184 3322 
L 691 3322 
L 691 4353 
L 1269 4353 
L 1269 3322 
L 2350 3322 
L 2350 2988 
L 1269 2988 
L 1269 878 
Q 1269 456 1350 337 
Q 1431 219 1650 219 
Q 1875 219 1978 351 
Q 2081 484 2088 781 
L 2522 781 
Q 2497 328 2275 118 
Q 2053 -91 1600 -91 
Q 1103 -91 897 129 
Q 691 350 691 878 
L 691 2988 
z
" transform="scale(0.015625)"/>
      <path id="DejaVuSerif-75" d="M 2266 3322 
L 3341 3322 
L 3341 331 
L 3884 331 
L 3884 0 
L 2766 0 
L 2766 588 
Q 2606 256 2353 82 
Q 2100 -91 1766 -91 
Q 1213 -91 952 223 
Q 691 538 691 1209 
L 691 2988 
L 172 2988 
L 172 3322 
L 1269 3322 
L 1269 1388 
Q 1269 781 1417 556 
Q 1566 331 1947 331 
Q 2347 331 2556 625 
Q 2766 919 2766 1478 
L 2766 2988 
L 2266 2988 
L 2266 3322 
z
" transform="scale(0.015625)"/>
      <path id="DejaVuSerif-6d" d="M 3316 2675 
Q 3481 3041 3739 3227 
Q 3997 3413 4341 3413 
Q 4863 3413 5119 3089 
Q 5375 2766 5375 2113 
L 5375 331 
L 5894 331 
L 5894 0 
L 4300 0 
L 4300 331 
L 4800 331 
L 4800 2047 
Q 4800 2556 4650 2772 
Q 4500 2988 4153 2988 
Q 3769 2988 3567 2697 
Q 3366 2406 3366 1850 
L 3366 331 
L 3866 331 
L 3866 0 
L 2291 0 
L 2291 331 
L 2791 331 
L 2791 2069 
Q 2791 2566 2641 2777 
Q 2491 2988 2144 2988 
Q 1759 2988 1557 2697 
Q 1356 2406 1356 1850 
L 1356 331 
L 1856 331 
L 1856 0 
L 263 0 
L 263 331 
L 781 331 
L 781 2994 
L 231 2994 
L 231 3322 
L 1356 3322 
L 1356 2731 
Q 1516 3063 1762 3238 
Q 2009 3413 2322 3413 
Q 2709 3413 2968 3220 
Q 3228 3028 3316 2675 
z
" transform="scale(0.015625)"/>
      <path id="DejaVuSerif-67" d="M 3359 2988 
L 3359 72 
Q 3359 -644 2965 -1033 
Q 2572 -1422 1844 -1422 
Q 1516 -1422 1216 -1362 
Q 916 -1303 641 -1184 
L 641 -488 
L 941 -488 
Q 997 -813 1206 -963 
Q 1416 -1113 1806 -1113 
Q 2313 -1113 2548 -827 
Q 2784 -541 2784 72 
L 2784 519 
Q 2616 206 2355 57 
Q 2094 -91 1709 -91 
Q 1097 -91 708 395 
Q 319 881 319 1663 
Q 319 2444 706 2928 
Q 1094 3413 1709 3413 
Q 2094 3413 2355 3264 
Q 2616 3116 2784 2803 
L 2784 3322 
L 3909 3322 
L 3909 2988 
L 3359 2988 
z
M 2784 1825 
Q 2784 2422 2554 2737 
Q 2325 3053 1888 3053 
Q 1444 3053 1217 2703 
Q 991 2353 991 1663 
Q 991 975 1217 622 
Q 1444 269 1888 269 
Q 2325 269 2554 583 
Q 2784 897 2784 1497 
L 2784 1825 
z
" transform="scale(0.015625)"/>
      <path id="DejaVuSerif-66" d="M 2753 4078 
L 2450 4078 
Q 2447 4313 2317 4434 
Q 2188 4556 1941 4556 
Q 1619 4556 1487 4379 
Q 1356 4203 1356 3750 
L 1356 3322 
L 2284 3322 
L 2284 2988 
L 1356 2988 
L 1356 331 
L 2094 331 
L 2094 0 
L 231 0 
L 231 331 
L 781 331 
L 781 2988 
L 231 2988 
L 231 3322 
L 781 3322 
L 781 3738 
Q 781 4294 1070 4578 
Q 1359 4863 1919 4863 
Q 2128 4863 2337 4825 
Q 2547 4788 2753 4709 
L 2753 4078 
z
" transform="scale(0.015625)"/>
      <path id="DejaVuSerif-70" d="M 1313 1825 
L 1313 1497 
Q 1313 897 1542 583 
Q 1772 269 2209 269 
Q 2650 269 2876 622 
Q 3103 975 3103 1663 
Q 3103 2353 2876 2703 
Q 2650 3053 2209 3053 
Q 1772 3053 1542 2737 
Q 1313 2422 1313 1825 
z
M 738 2988 
L 184 2988 
L 184 3322 
L 1313 3322 
L 1313 2803 
Q 1481 3116 1742 3264 
Q 2003 3413 2388 3413 
Q 3000 3413 3387 2928 
Q 3775 2444 3775 1663 
Q 3775 881 3387 395 
Q 3000 -91 2388 -91 
Q 2003 -91 1742 57 
Q 1481 206 1313 519 
L 1313 -997 
L 1856 -997 
L 1856 -1331 
L 184 -1331 
L 184 -997 
L 738 -997 
L 738 2988 
z
" transform="scale(0.015625)"/>
      <path id="DejaVuSerif-2e" d="M 603 325 
Q 603 500 722 622 
Q 841 744 1019 744 
Q 1191 744 1312 622 
Q 1434 500 1434 325 
Q 1434 153 1312 31 
Q 1191 -91 1019 -91 
Q 841 -91 722 29 
Q 603 150 603 325 
z
" transform="scale(0.015625)"/>
      <path id="DejaVuSerif-59" d="M 1209 0 
L 1209 331 
L 1806 331 
L 1806 2009 
L 366 4331 
L -72 4331 
L -72 4666 
L 1663 4666 
L 1663 4331 
L 1119 4331 
L 2284 2444 
L 3450 4331 
L 2925 4331 
L 2925 4666 
L 4281 4666 
L 4281 4331 
L 3841 4331 
L 2438 2069 
L 2438 331 
L 3034 331 
L 3034 0 
L 1209 0 
z
" transform="scale(0.015625)"/>
      <path id="DejaVuSerif-79" d="M 1381 -609 
L 1600 -56 
L 359 2988 
L -19 2988 
L -19 3322 
L 1509 3322 
L 1509 2988 
L 978 2988 
L 1913 703 
L 2847 2988 
L 2350 2988 
L 2350 3322 
L 3597 3322 
L 3597 2988 
L 3225 2988 
L 1703 -750 
Q 1547 -1138 1356 -1280 
Q 1166 -1422 819 -1422 
Q 672 -1422 517 -1397 
Q 363 -1372 206 -1325 
L 206 -691 
L 500 -691 
Q 519 -903 608 -995 
Q 697 -1088 884 -1088 
Q 1056 -1088 1161 -992 
Q 1266 -897 1381 -609 
z
" transform="scale(0.015625)"/>
      <path id="DejaVuSerif-71" d="M 3359 2988 
L 3359 -997 
L 3909 -997 
L 3909 -1331 
L 2241 -1331 
L 2241 -997 
L 2784 -997 
L 2784 519 
Q 2616 206 2355 57 
Q 2094 -91 1709 -91 
Q 1097 -91 708 395 
Q 319 881 319 1663 
Q 319 2444 706 2928 
Q 1094 3413 1709 3413 
Q 2094 3413 2355 3264 
Q 2616 3116 2784 2803 
L 2784 3322 
L 3909 3322 
L 3909 2988 
L 3359 2988 
z
M 2784 1825 
Q 2784 2422 2554 2737 
Q 2325 3053 1888 3053 
Q 1444 3053 1217 2703 
Q 991 2353 991 1663 
Q 991 975 1217 622 
Q 1444 269 1888 269 
Q 2325 269 2554 583 
Q 2784 897 2784 1497 
L 2784 1825 
z
" transform="scale(0.015625)"/>
      <path id="DejaVuSerif-63" d="M 3291 997 
Q 3169 466 2822 187 
Q 2475 -91 1925 -91 
Q 1200 -91 759 389 
Q 319 869 319 1663 
Q 319 2459 759 2936 
Q 1200 3413 1925 3413 
Q 2241 3413 2553 3339 
Q 2866 3266 3181 3116 
L 3181 2266 
L 2847 2266 
Q 2781 2703 2561 2903 
Q 2341 3103 1931 3103 
Q 1466 3103 1228 2742 
Q 991 2381 991 1663 
Q 991 944 1227 581 
Q 1463 219 1931 219 
Q 2303 219 2525 412 
Q 2747 606 2828 997 
L 3291 997 
z
" transform="scale(0.015625)"/>
      <path id="DejaVuSerif-77" d="M 3072 3322 
L 3922 728 
L 4672 2988 
L 4191 2988 
L 4191 3322 
L 5394 3322 
L 5394 2988 
L 5025 2988 
L 4038 0 
L 3559 0 
L 2741 2484 
L 1919 0 
L 1459 0 
L 475 2988 
L 103 2988 
L 103 3322 
L 1606 3322 
L 1606 2988 
L 1069 2988 
L 1813 728 
L 2669 3322 
L 3072 3322 
z
" transform="scale(0.015625)"/>
      <path id="Cmmi10-69" d="M 500 459 
Q 500 578 550 709 
L 1069 2088 
Q 1153 2322 1153 2472 
Q 1153 2663 1013 2663 
Q 759 2663 595 2402 
Q 431 2141 353 1819 
Q 341 1778 300 1778 
L 225 1778 
Q 172 1778 172 1838 
L 172 1856 
Q 275 2238 487 2533 
Q 700 2828 1025 2828 
Q 1253 2828 1411 2678 
Q 1569 2528 1569 2297 
Q 1569 2178 1516 2047 
L 997 672 
Q 909 459 909 288 
Q 909 97 1056 97 
Q 1306 97 1473 364 
Q 1641 631 1709 941 
Q 1722 978 1759 978 
L 1838 978 
Q 1863 978 1878 961 
Q 1894 944 1894 922 
Q 1894 916 1888 903 
Q 1800 541 1583 234 
Q 1366 -72 1044 -72 
Q 819 -72 659 83 
Q 500 238 500 459 
z
M 1222 3878 
Q 1222 4013 1334 4122 
Q 1447 4231 1581 4231 
Q 1691 4231 1761 4164 
Q 1831 4097 1831 3994 
Q 1831 3850 1717 3742 
Q 1603 3634 1466 3634 
Q 1363 3634 1292 3704 
Q 1222 3775 1222 3878 
z
" transform="scale(0.015625)"/>
      <path id="DejaVuSerif-5c" d="M 500 4666 
L 2156 -594 
L 1656 -594 
L 0 4666 
L 500 4666 
z
" transform="scale(0.015625)"/>
      <path id="DejaVuSerif-7b" d="M 3272 -716 
L 3272 -1044 
L 3078 -1044 
Q 2300 -1044 2036 -812 
Q 1772 -581 1772 109 
L 1772 916 
Q 1772 1384 1603 1565 
Q 1434 1747 991 1747 
L 800 1747 
L 800 2075 
L 991 2075 
Q 1434 2075 1603 2256 
Q 1772 2438 1772 2906 
L 1772 3713 
Q 1772 4403 2036 4633 
Q 2300 4863 3078 4863 
L 3272 4863 
L 3272 4538 
L 3059 4538 
Q 2619 4538 2484 4400 
Q 2350 4263 2350 3822 
L 2350 2925 
Q 2350 2431 2194 2218 
Q 2038 2006 1631 1913 
Q 2044 1806 2197 1597 
Q 2350 1388 2350 897 
L 2350 0 
Q 2350 -441 2484 -578 
Q 2619 -716 3059 -716 
L 3272 -716 
z
" transform="scale(0.015625)"/>
      <path id="DejaVuSerif-7d" d="M 800 -716 
L 1019 -716 
Q 1456 -716 1589 -580 
Q 1722 -444 1722 0 
L 1722 897 
Q 1722 1388 1875 1597 
Q 2028 1806 2438 1913 
Q 2031 2006 1876 2218 
Q 1722 2431 1722 2925 
L 1722 3822 
Q 1722 4266 1589 4402 
Q 1456 4538 1019 4538 
L 800 4538 
L 800 4863 
L 997 4863 
Q 1775 4863 2036 4633 
Q 2297 4403 2297 3713 
L 2297 2906 
Q 2297 2438 2465 2256 
Q 2634 2075 3078 2075 
L 3272 2075 
L 3272 1747 
L 3078 1747 
Q 2634 1747 2465 1565 
Q 2297 1384 2297 916 
L 2297 109 
Q 2297 -581 2036 -812 
Q 1775 -1044 997 -1044 
L 800 -1044 
L 800 -716 
z
" transform="scale(0.015625)"/>
      <path id="DejaVuSerif-46" d="M 353 0 
L 353 331 
L 947 331 
L 947 4331 
L 353 4331 
L 353 4666 
L 4172 4666 
L 4172 3628 
L 3788 3628 
L 3788 4281 
L 1581 4281 
L 1581 2719 
L 3175 2719 
L 3175 3303 
L 3559 3303 
L 3559 1753 
L 3175 1753 
L 3175 2338 
L 1581 2338 
L 1581 331 
L 2328 331 
L 2328 0 
L 353 0 
z
" transform="scale(0.015625)"/>
      <path id="DejaVuSerif-3f" d="M 1125 325 
Q 1125 500 1245 622 
Q 1366 744 1544 744 
Q 1716 744 1837 622 
Q 1959 500 1959 325 
Q 1959 153 1837 31 
Q 1716 -91 1544 -91 
Q 1366 -91 1245 29 
Q 1125 150 1125 325 
z
M 434 4459 
Q 766 4606 1064 4678 
Q 1363 4750 1625 4750 
Q 2319 4750 2720 4415 
Q 3122 4081 3122 3513 
Q 3122 2931 2776 2562 
Q 2431 2194 1734 2034 
L 1734 1241 
L 1350 1241 
L 1350 2266 
Q 1903 2400 2183 2715 
Q 2463 3031 2463 3519 
Q 2463 3947 2234 4194 
Q 2006 4441 1613 4441 
Q 1256 4441 1029 4236 
Q 803 4031 738 3647 
L 434 3647 
L 434 4459 
z
" transform="scale(0.015625)"/>
     </defs>
     <use xlink:href="#DejaVuSerif-54" transform="translate(0 0.015625)"/>
     <use xlink:href="#DejaVuSerif-68" transform="translate(66.699219 0.015625)"/>
     <use xlink:href="#DejaVuSerif-65" transform="translate(131.103516 0.015625)"/>
     <use xlink:href="#DejaVuSerif-72" transform="translate(190.283203 0.015625)"/>
     <use xlink:href="#DejaVuSerif-65" transform="translate(238.085938 0.015625)"/>
     <use xlink:href="#DejaVuSerif-20" transform="translate(297.265625 0.015625)"/>
     <use xlink:href="#DejaVuSerif-61" transform="translate(329.052734 0.015625)"/>
     <use xlink:href="#DejaVuSerif-72" transform="translate(388.671875 0.015625)"/>
     <use xlink:href="#DejaVuSerif-65" transform="translate(436.474609 0.015625)"/>
     <use xlink:href="#DejaVuSerif-20" transform="translate(495.654297 0.015625)"/>
     <use xlink:href="#Cmr10-32" transform="translate(527.441406 0.015625)"/>
     <use xlink:href="#Cmr10-30" transform="translate(577.441406 0.015625)"/>
     <use xlink:href="#Cmr10-31" transform="translate(627.441406 0.015625)"/>
     <use xlink:href="#Cmr10-30" transform="translate(677.441406 0.015625)"/>
     <use xlink:href="#DejaVuSerif-20" transform="translate(727.441406 0.015625)"/>
     <use xlink:href="#DejaVuSerif-62" transform="translate(759.228516 0.015625)"/>
     <use xlink:href="#DejaVuSerif-6f" transform="translate(823.242188 0.015625)"/>
     <use xlink:href="#DejaVuSerif-78" transform="translate(883.447266 0.015625)"/>
     <use xlink:href="#DejaVuSerif-65" transform="translate(939.84375 0.015625)"/>
     <use xlink:href="#DejaVuSerif-73" transform="translate(999.023438 0.015625)"/>
     <use xlink:href="#DejaVuSerif-20" transform="translate(1050.341797 0.015625)"/>
     <use xlink:href="#DejaVuSerif-6c" transform="translate(1082.128906 0.015625)"/>
     <use xlink:href="#DejaVuSerif-61" transform="translate(1114.111328 0.015625)"/>
     <use xlink:href="#DejaVuSerif-62" transform="translate(1173.730469 0.015625)"/>
     <use xlink:href="#DejaVuSerif-65" transform="translate(1237.744141 0.015625)"/>
     <use xlink:href="#DejaVuSerif-6c" transform="translate(1296.923828 0.015625)"/>
     <use xlink:href="#DejaVuSerif-65" transform="translate(1328.90625 0.015625)"/>
     <use xlink:href="#DejaVuSerif-64" transform="translate(1388.085938 0.015625)"/>
     <use xlink:href="#DejaVuSerif-20" transform="translate(1452.099609 0.015625)"/>
     <use xlink:href="#Cmmi10-42" transform="translate(1483.886719 0.015625)"/>
     <use xlink:href="#Cmr10-31" transform="translate(1559.667969 -16.990625) scale(0.7)"/>
     <use xlink:href="#Cmmi10-3b" transform="translate(1601.045312 0.015625)"/>
     <use xlink:href="#Cmmi10-42" transform="translate(1646.289453 0.015625)"/>
     <use xlink:href="#Cmr10-32" transform="translate(1722.070703 -16.990625) scale(0.7)"/>
     <use xlink:href="#Cmmi10-3b" transform="translate(1763.448047 0.015625)"/>
     <use xlink:href="#STIXGeneral-Regular-2026" transform="translate(1826.250781 0.015625)"/>
     <use xlink:href="#Cmmi10-3b" transform="translate(1943.80936 0.015625)"/>
     <use xlink:href="#Cmmi10-42" transform="translate(1989.0535 0.015625)"/>
     <use xlink:href="#Cmr10-32" transform="translate(2064.83475 -16.990625) scale(0.7)"/>
     <use xlink:href="#Cmr10-30" transform="translate(2099.83475 -16.990625) scale(0.7)"/>
     <use xlink:href="#Cmr10-31" transform="translate(2134.83475 -16.990625) scale(0.7)"/>
     <use xlink:href="#Cmr10-30" transform="translate(2169.83475 -16.990625) scale(0.7)"/>
     <use xlink:href="#DejaVuSerif-2c" transform="translate(2211.212094 0.015625)"/>
     <use xlink:href="#DejaVuSerif-20" transform="translate(2242.999203 0.015625)"/>
     <use xlink:href="#DejaVuSerif-61" transform="translate(2274.786313 0.015625)"/>
     <use xlink:href="#DejaVuSerif-6e" transform="translate(2334.405453 0.015625)"/>
     <use xlink:href="#DejaVuSerif-64" transform="translate(2398.80975 0.015625)"/>
     <use xlink:href="#DejaVuSerif-20" transform="translate(2462.823422 0.015625)"/>
     <use xlink:href="#Cmr10-32" transform="translate(2494.610532 0.015625)"/>
     <use xlink:href="#Cmr10-30" transform="translate(2544.610532 0.015625)"/>
     <use xlink:href="#Cmr10-31" transform="translate(2594.610532 0.015625)"/>
     <use xlink:href="#Cmr10-30" transform="translate(2644.610532 0.015625)"/>
     <use xlink:href="#Cmmi10-6e" transform="translate(2694.610532 0.015625)"/>
     <use xlink:href="#DejaVuSerif-20" transform="translate(2754.620297 0.015625)"/>
     <use xlink:href="#DejaVuSerif-62" transform="translate(2786.407407 0.015625)"/>
     <use xlink:href="#DejaVuSerif-61" transform="translate(2850.421078 0.015625)"/>
     <use xlink:href="#DejaVuSerif-6c" transform="translate(2910.040219 0.015625)"/>
     <use xlink:href="#DejaVuSerif-6c" transform="translate(2942.022641 0.015625)"/>
     <use xlink:href="#DejaVuSerif-73" transform="translate(2974.005063 0.015625)"/>
     <use xlink:href="#DejaVuSerif-20" transform="translate(3025.323422 0.015625)"/>
     <use xlink:href="#DejaVuSerif-68" transform="translate(3057.110532 0.015625)"/>
     <use xlink:href="#DejaVuSerif-61" transform="translate(3121.514828 0.015625)"/>
     <use xlink:href="#DejaVuSerif-76" transform="translate(3181.133969 0.015625)"/>
     <use xlink:href="#DejaVuSerif-65" transform="translate(3237.62811 0.015625)"/>
     <use xlink:href="#DejaVuSerif-20" transform="translate(3296.807797 0.015625)"/>
     <use xlink:href="#DejaVuSerif-62" transform="translate(3328.594907 0.015625)"/>
     <use xlink:href="#DejaVuSerif-65" transform="translate(3392.608578 0.015625)"/>
     <use xlink:href="#DejaVuSerif-65" transform="translate(3451.788266 0.015625)"/>
     <use xlink:href="#DejaVuSerif-6e" transform="translate(3510.967953 0.015625)"/>
     <use xlink:href="#DejaVuSerif-20" transform="translate(3575.37225 0.015625)"/>
     <use xlink:href="#DejaVuSerif-64" transform="translate(3607.15936 0.015625)"/>
     <use xlink:href="#DejaVuSerif-69" transform="translate(3671.173032 0.015625)"/>
     <use xlink:href="#DejaVuSerif-73" transform="translate(3703.155453 0.015625)"/>
     <use xlink:href="#DejaVuSerif-74" transform="translate(3754.473813 0.015625)"/>
     <use xlink:href="#DejaVuSerif-72" transform="translate(3794.65936 0.015625)"/>
     <use xlink:href="#DejaVuSerif-69" transform="translate(3842.462094 0.015625)"/>
     <use xlink:href="#DejaVuSerif-62" transform="translate(3874.444516 0.015625)"/>
     <use xlink:href="#DejaVuSerif-75" transform="translate(3938.458188 0.015625)"/>
     <use xlink:href="#DejaVuSerif-74" transform="translate(4002.862485 0.015625)"/>
     <use xlink:href="#DejaVuSerif-65" transform="translate(4043.048032 0.015625)"/>
     <use xlink:href="#DejaVuSerif-64" transform="translate(4102.227719 0.015625)"/>
     <use xlink:href="#DejaVuSerif-20" transform="translate(4166.241391 0.015625)"/>
     <use xlink:href="#DejaVuSerif-61" transform="translate(4198.0285 0.015625)"/>
     <use xlink:href="#DejaVuSerif-6d" transform="translate(4257.647641 0.015625)"/>
     <use xlink:href="#DejaVuSerif-6f" transform="translate(4352.47186 0.015625)"/>
     <use xlink:href="#DejaVuSerif-6e" transform="translate(4412.676938 0.015625)"/>
     <use xlink:href="#DejaVuSerif-67" transform="translate(4477.081235 0.015625)"/>
     <use xlink:href="#DejaVuSerif-20" transform="translate(4541.094907 0.015625)"/>
     <use xlink:href="#DejaVuSerif-74" transform="translate(4572.882016 0.015625)"/>
     <use xlink:href="#DejaVuSerif-68" transform="translate(4613.067563 0.015625)"/>
     <use xlink:href="#DejaVuSerif-65" transform="translate(4677.47186 0.015625)"/>
     <use xlink:href="#DejaVuSerif-6d" transform="translate(4736.651547 0.015625)"/>
     <use xlink:href="#DejaVuSerif-2c" transform="translate(4831.475766 0.015625)"/>
     <use xlink:href="#DejaVuSerif-20" transform="translate(4863.262875 0.015625)"/>
     <use xlink:href="#DejaVuSerif-66" transform="translate(4895.049985 0.015625)"/>
     <use xlink:href="#DejaVuSerif-6f" transform="translate(4932.061703 0.015625)"/>
     <use xlink:href="#DejaVuSerif-72" transform="translate(4992.266782 0.015625)"/>
     <use xlink:href="#DejaVuSerif-20" transform="translate(5040.069516 0.015625)"/>
     <use xlink:href="#DejaVuSerif-73" transform="translate(5071.856625 0.015625)"/>
     <use xlink:href="#DejaVuSerif-6f" transform="translate(5123.174985 0.015625)"/>
     <use xlink:href="#DejaVuSerif-6d" transform="translate(5183.380063 0.015625)"/>
     <use xlink:href="#DejaVuSerif-65" transform="translate(5278.204282 0.015625)"/>
     <use xlink:href="#DejaVuSerif-20" transform="translate(5337.383969 0.015625)"/>
     <use xlink:href="#DejaVuSerif-70" transform="translate(5369.171078 0.015625)"/>
     <use xlink:href="#DejaVuSerif-6f" transform="translate(5433.18475 0.015625)"/>
     <use xlink:href="#DejaVuSerif-73" transform="translate(5493.389828 0.015625)"/>
     <use xlink:href="#DejaVuSerif-69" transform="translate(5544.708188 0.015625)"/>
     <use xlink:href="#DejaVuSerif-74" transform="translate(5576.69061 0.015625)"/>
     <use xlink:href="#DejaVuSerif-69" transform="translate(5616.876157 0.015625)"/>
     <use xlink:href="#DejaVuSerif-76" transform="translate(5648.858578 0.015625)"/>
     <use xlink:href="#DejaVuSerif-65" transform="translate(5705.352719 0.015625)"/>
     <use xlink:href="#DejaVuSerif-20" transform="translate(5764.532407 0.015625)"/>
     <use xlink:href="#DejaVuSerif-69" transform="translate(5796.319516 0.015625)"/>
     <use xlink:href="#DejaVuSerif-6e" transform="translate(5828.301938 0.015625)"/>
     <use xlink:href="#DejaVuSerif-74" transform="translate(5892.706235 0.015625)"/>
     <use xlink:href="#DejaVuSerif-65" transform="translate(5932.891782 0.015625)"/>
     <use xlink:href="#DejaVuSerif-67" transform="translate(5992.071469 0.015625)"/>
     <use xlink:href="#DejaVuSerif-65" transform="translate(6056.085141 0.015625)"/>
     <use xlink:href="#DejaVuSerif-72" transform="translate(6115.264828 0.015625)"/>
     <use xlink:href="#DejaVuSerif-20" transform="translate(6163.067563 0.015625)"/>
     <use xlink:href="#Cmmi10-6e" transform="translate(6194.854672 0.015625)"/>
     <use xlink:href="#DejaVuSerif-2e" transform="translate(6254.864438 0.015625)"/>
     <use xlink:href="#DejaVuSerif-20" transform="translate(6286.651547 0.015625)"/>
     <use xlink:href="#DejaVuSerif-59" transform="translate(6318.438657 0.015625)"/>
     <use xlink:href="#DejaVuSerif-6f" transform="translate(6384.454282 0.015625)"/>
     <use xlink:href="#DejaVuSerif-75" transform="translate(6444.65936 0.015625)"/>
     <use xlink:href="#DejaVuSerif-20" transform="translate(6509.063657 0.015625)"/>
     <use xlink:href="#DejaVuSerif-6d" transform="translate(6540.850766 0.015625)"/>
     <use xlink:href="#DejaVuSerif-61" transform="translate(6635.674985 0.015625)"/>
     <use xlink:href="#DejaVuSerif-79" transform="translate(6695.294125 0.015625)"/>
     <use xlink:href="#DejaVuSerif-20" transform="translate(6751.788266 0.015625)"/>
     <use xlink:href="#DejaVuSerif-72" transform="translate(6783.575375 0.015625)"/>
     <use xlink:href="#DejaVuSerif-65" transform="translate(6831.37811 0.015625)"/>
     <use xlink:href="#DejaVuSerif-64" transform="translate(6890.557797 0.015625)"/>
     <use xlink:href="#DejaVuSerif-69" transform="translate(6954.571469 0.015625)"/>
     <use xlink:href="#DejaVuSerif-73" transform="translate(6986.553891 0.015625)"/>
     <use xlink:href="#DejaVuSerif-74" transform="translate(7037.87225 0.015625)"/>
     <use xlink:href="#DejaVuSerif-72" transform="translate(7078.057797 0.015625)"/>
     <use xlink:href="#DejaVuSerif-69" transform="translate(7125.860532 0.015625)"/>
     <use xlink:href="#DejaVuSerif-62" transform="translate(7157.842953 0.015625)"/>
     <use xlink:href="#DejaVuSerif-75" transform="translate(7221.856625 0.015625)"/>
     <use xlink:href="#DejaVuSerif-74" transform="translate(7286.260922 0.015625)"/>
     <use xlink:href="#DejaVuSerif-65" transform="translate(7326.446469 0.015625)"/>
     <use xlink:href="#DejaVuSerif-20" transform="translate(7385.626157 0.015625)"/>
     <use xlink:href="#DejaVuSerif-74" transform="translate(7417.413266 0.015625)"/>
     <use xlink:href="#DejaVuSerif-68" transform="translate(7457.598813 0.015625)"/>
     <use xlink:href="#DejaVuSerif-65" transform="translate(7522.00311 0.015625)"/>
     <use xlink:href="#DejaVuSerif-20" transform="translate(7581.182797 0.015625)"/>
     <use xlink:href="#DejaVuSerif-62" transform="translate(7612.969907 0.015625)"/>
     <use xlink:href="#DejaVuSerif-61" transform="translate(7676.983578 0.015625)"/>
     <use xlink:href="#DejaVuSerif-6c" transform="translate(7736.602719 0.015625)"/>
     <use xlink:href="#DejaVuSerif-6c" transform="translate(7768.585141 0.015625)"/>
     <use xlink:href="#DejaVuSerif-73" transform="translate(7800.567563 0.015625)"/>
     <use xlink:href="#DejaVuSerif-20" transform="translate(7851.885922 0.015625)"/>
     <use xlink:href="#DejaVuSerif-62" transform="translate(7883.673032 0.015625)"/>
     <use xlink:href="#DejaVuSerif-79" transform="translate(7947.686703 0.015625)"/>
     <use xlink:href="#DejaVuSerif-20" transform="translate(8004.180844 0.015625)"/>
     <use xlink:href="#DejaVuSerif-61" transform="translate(8035.967953 0.015625)"/>
     <use xlink:href="#DejaVuSerif-20" transform="translate(8095.587094 0.015625)"/>
     <use xlink:href="#DejaVuSerif-73" transform="translate(8127.374203 0.015625)"/>
     <use xlink:href="#DejaVuSerif-65" transform="translate(8178.692563 0.015625)"/>
     <use xlink:href="#DejaVuSerif-71" transform="translate(8237.87225 0.015625)"/>
     <use xlink:href="#DejaVuSerif-75" transform="translate(8301.885922 0.015625)"/>
     <use xlink:href="#DejaVuSerif-65" transform="translate(8366.290219 0.015625)"/>
     <use xlink:href="#DejaVuSerif-6e" transform="translate(8425.469907 0.015625)"/>
     <use xlink:href="#DejaVuSerif-63" transform="translate(8489.874203 0.015625)"/>
     <use xlink:href="#DejaVuSerif-65" transform="translate(8545.880063 0.015625)"/>
     <use xlink:href="#DejaVuSerif-20" transform="translate(8605.05975 0.015625)"/>
     <use xlink:href="#DejaVuSerif-6f" transform="translate(8636.84686 0.015625)"/>
     <use xlink:href="#DejaVuSerif-66" transform="translate(8697.051938 0.015625)"/>
     <use xlink:href="#DejaVuSerif-20" transform="translate(8734.063657 0.015625)"/>
     <use xlink:href="#DejaVuSerif-6d" transform="translate(8765.850766 0.015625)"/>
     <use xlink:href="#DejaVuSerif-6f" transform="translate(8860.674985 0.015625)"/>
     <use xlink:href="#DejaVuSerif-76" transform="translate(8920.880063 0.015625)"/>
     <use xlink:href="#DejaVuSerif-65" transform="translate(8977.374203 0.015625)"/>
     <use xlink:href="#DejaVuSerif-73" transform="translate(9036.553891 0.015625)"/>
     <use xlink:href="#DejaVuSerif-2c" transform="translate(9087.87225 0.015625)"/>
     <use xlink:href="#DejaVuSerif-20" transform="translate(9119.65936 0.015625)"/>
     <use xlink:href="#DejaVuSerif-65" transform="translate(9151.446469 0.015625)"/>
     <use xlink:href="#DejaVuSerif-61" transform="translate(9210.626157 0.015625)"/>
     <use xlink:href="#DejaVuSerif-63" transform="translate(9270.245297 0.015625)"/>
     <use xlink:href="#DejaVuSerif-68" transform="translate(9326.251157 0.015625)"/>
     <use xlink:href="#DejaVuSerif-20" transform="translate(9390.655453 0.015625)"/>
     <use xlink:href="#DejaVuSerif-6f" transform="translate(9422.442563 0.015625)"/>
     <use xlink:href="#DejaVuSerif-66" transform="translate(9482.647641 0.015625)"/>
     <use xlink:href="#DejaVuSerif-20" transform="translate(9519.65936 0.015625)"/>
     <use xlink:href="#DejaVuSerif-77" transform="translate(9551.446469 0.015625)"/>
     <use xlink:href="#DejaVuSerif-68" transform="translate(9637.042172 0.015625)"/>
     <use xlink:href="#DejaVuSerif-69" transform="translate(9701.446469 0.015625)"/>
     <use xlink:href="#DejaVuSerif-63" transform="translate(9733.428891 0.015625)"/>
     <use xlink:href="#DejaVuSerif-68" transform="translate(9789.43475 0.015625)"/>
     <use xlink:href="#DejaVuSerif-20" transform="translate(9853.839047 0.015625)"/>
     <use xlink:href="#DejaVuSerif-63" transform="translate(9885.626157 0.015625)"/>
     <use xlink:href="#DejaVuSerif-6f" transform="translate(9941.632016 0.015625)"/>
     <use xlink:href="#DejaVuSerif-6e" transform="translate(10001.837094 0.015625)"/>
     <use xlink:href="#DejaVuSerif-73" transform="translate(10066.241391 0.015625)"/>
     <use xlink:href="#DejaVuSerif-69" transform="translate(10117.55975 0.015625)"/>
     <use xlink:href="#DejaVuSerif-73" transform="translate(10149.542172 0.015625)"/>
     <use xlink:href="#DejaVuSerif-74" transform="translate(10200.860532 0.015625)"/>
     <use xlink:href="#DejaVuSerif-73" transform="translate(10241.046078 0.015625)"/>
     <use xlink:href="#DejaVuSerif-20" transform="translate(10292.364438 0.015625)"/>
     <use xlink:href="#DejaVuSerif-6f" transform="translate(10324.151547 0.015625)"/>
     <use xlink:href="#DejaVuSerif-66" transform="translate(10384.356625 0.015625)"/>
     <use xlink:href="#DejaVuSerif-20" transform="translate(10421.368344 0.015625)"/>
     <use xlink:href="#DejaVuSerif-63" transform="translate(10453.155453 0.015625)"/>
     <use xlink:href="#DejaVuSerif-68" transform="translate(10509.161313 0.015625)"/>
     <use xlink:href="#DejaVuSerif-6f" transform="translate(10573.56561 0.015625)"/>
     <use xlink:href="#DejaVuSerif-6f" transform="translate(10633.770688 0.015625)"/>
     <use xlink:href="#DejaVuSerif-73" transform="translate(10693.975766 0.015625)"/>
     <use xlink:href="#DejaVuSerif-69" transform="translate(10745.294125 0.015625)"/>
     <use xlink:href="#DejaVuSerif-6e" transform="translate(10777.276547 0.015625)"/>
     <use xlink:href="#DejaVuSerif-67" transform="translate(10841.680844 0.015625)"/>
     <use xlink:href="#DejaVuSerif-20" transform="translate(10905.694516 0.015625)"/>
     <use xlink:href="#DejaVuSerif-61" transform="translate(10937.481625 0.015625)"/>
     <use xlink:href="#DejaVuSerif-6e" transform="translate(10997.100766 0.015625)"/>
     <use xlink:href="#DejaVuSerif-20" transform="translate(11061.505063 0.015625)"/>
     <use xlink:href="#Cmmi10-69" transform="translate(11093.292172 0.015625)"/>
     <use xlink:href="#DejaVuSerif-20" transform="translate(11127.716 0.015625)"/>
     <use xlink:href="#DejaVuSerif-61" transform="translate(11159.50311 0.015625)"/>
     <use xlink:href="#DejaVuSerif-6e" transform="translate(11219.12225 0.015625)"/>
     <use xlink:href="#DejaVuSerif-64" transform="translate(11283.526547 0.015625)"/>
     <use xlink:href="#DejaVuSerif-20" transform="translate(11347.540219 0.015625)"/>
     <use xlink:href="#DejaVuSerif-6d" transform="translate(11379.327328 0.015625)"/>
     <use xlink:href="#DejaVuSerif-6f" transform="translate(11474.151547 0.015625)"/>
     <use xlink:href="#DejaVuSerif-76" transform="translate(11534.356625 0.015625)"/>
     <use xlink:href="#DejaVuSerif-69" transform="translate(11590.850766 0.015625)"/>
     <use xlink:href="#DejaVuSerif-6e" transform="translate(11622.833188 0.015625)"/>
     <use xlink:href="#DejaVuSerif-67" transform="translate(11687.237485 0.015625)"/>
     <use xlink:href="#DejaVuSerif-20" transform="translate(11751.251157 0.015625)"/>
     <use xlink:href="#DejaVuSerif-5c" transform="translate(11783.038266 0.015625)"/>
     <use xlink:href="#DejaVuSerif-65" transform="translate(11816.729672 0.015625)"/>
     <use xlink:href="#DejaVuSerif-6d" transform="translate(11875.90936 0.015625)"/>
     <use xlink:href="#DejaVuSerif-70" transform="translate(11970.733578 0.015625)"/>
     <use xlink:href="#DejaVuSerif-68" transform="translate(12034.74725 0.015625)"/>
     <use xlink:href="#DejaVuSerif-7b" transform="translate(12099.151547 0.015625)"/>
     <use xlink:href="#DejaVuSerif-65" transform="translate(12162.774594 0.015625)"/>
     <use xlink:href="#DejaVuSerif-78" transform="translate(12221.954282 0.015625)"/>
     <use xlink:href="#DejaVuSerif-61" transform="translate(12278.350766 0.015625)"/>
     <use xlink:href="#DejaVuSerif-63" transform="translate(12337.969907 0.015625)"/>
     <use xlink:href="#DejaVuSerif-74" transform="translate(12393.975766 0.015625)"/>
     <use xlink:href="#DejaVuSerif-6c" transform="translate(12434.161313 0.015625)"/>
     <use xlink:href="#DejaVuSerif-79" transform="translate(12466.143735 0.015625)"/>
     <use xlink:href="#DejaVuSerif-7d" transform="translate(12522.637875 0.015625)"/>
     <use xlink:href="#DejaVuSerif-20" transform="translate(12586.260922 0.015625)"/>
     <use xlink:href="#Cmmi10-69" transform="translate(12618.048032 0.015625)"/>
     <use xlink:href="#DejaVuSerif-20" transform="translate(12652.47186 0.015625)"/>
     <use xlink:href="#DejaVuSerif-62" transform="translate(12684.258969 0.015625)"/>
     <use xlink:href="#DejaVuSerif-61" transform="translate(12748.272641 0.015625)"/>
     <use xlink:href="#DejaVuSerif-6c" transform="translate(12807.891782 0.015625)"/>
     <use xlink:href="#DejaVuSerif-6c" transform="translate(12839.874203 0.015625)"/>
     <use xlink:href="#DejaVuSerif-73" transform="translate(12871.856625 0.015625)"/>
     <use xlink:href="#DejaVuSerif-20" transform="translate(12923.174985 0.015625)"/>
     <use xlink:href="#DejaVuSerif-66" transform="translate(12954.962094 0.015625)"/>
     <use xlink:href="#DejaVuSerif-72" transform="translate(12991.973813 0.015625)"/>
     <use xlink:href="#DejaVuSerif-6f" transform="translate(13039.776547 0.015625)"/>
     <use xlink:href="#DejaVuSerif-6d" transform="translate(13099.981625 0.015625)"/>
     <use xlink:href="#DejaVuSerif-20" transform="translate(13194.805844 0.015625)"/>
     <use xlink:href="#DejaVuSerif-62" transform="translate(13226.592953 0.015625)"/>
     <use xlink:href="#DejaVuSerif-6f" transform="translate(13290.606625 0.015625)"/>
     <use xlink:href="#DejaVuSerif-78" transform="translate(13350.811703 0.015625)"/>
     <use xlink:href="#DejaVuSerif-20" transform="translate(13407.208188 0.015625)"/>
     <use xlink:href="#Cmmi10-42" transform="translate(13438.995297 0.015625)"/>
     <use xlink:href="#Cmmi10-69" transform="translate(13514.776547 -16.990625) scale(0.7)"/>
     <use xlink:href="#DejaVuSerif-20" transform="translate(13545.250571 0.015625)"/>
     <use xlink:href="#DejaVuSerif-69" transform="translate(13577.03768 0.015625)"/>
     <use xlink:href="#DejaVuSerif-6e" transform="translate(13609.020102 0.015625)"/>
     <use xlink:href="#DejaVuSerif-74" transform="translate(13673.424399 0.015625)"/>
     <use xlink:href="#DejaVuSerif-6f" transform="translate(13713.609946 0.015625)"/>
     <use xlink:href="#DejaVuSerif-20" transform="translate(13773.815024 0.015625)"/>
     <use xlink:href="#DejaVuSerif-61" transform="translate(13805.602133 0.015625)"/>
     <use xlink:href="#DejaVuSerif-6e" transform="translate(13865.221274 0.015625)"/>
     <use xlink:href="#DejaVuSerif-79" transform="translate(13929.625571 0.015625)"/>
     <use xlink:href="#DejaVuSerif-20" transform="translate(13986.119711 0.015625)"/>
     <use xlink:href="#DejaVuSerif-6f" transform="translate(14017.906821 0.015625)"/>
     <use xlink:href="#DejaVuSerif-6e" transform="translate(14078.111899 0.015625)"/>
     <use xlink:href="#DejaVuSerif-65" transform="translate(14142.516196 0.015625)"/>
     <use xlink:href="#DejaVuSerif-20" transform="translate(14201.695883 0.015625)"/>
     <use xlink:href="#DejaVuSerif-6f" transform="translate(14233.482993 0.015625)"/>
     <use xlink:href="#DejaVuSerif-74" transform="translate(14293.688071 0.015625)"/>
     <use xlink:href="#DejaVuSerif-68" transform="translate(14333.873618 0.015625)"/>
     <use xlink:href="#DejaVuSerif-65" transform="translate(14398.277914 0.015625)"/>
     <use xlink:href="#DejaVuSerif-72" transform="translate(14457.457602 0.015625)"/>
     <use xlink:href="#DejaVuSerif-20" transform="translate(14505.260336 0.015625)"/>
     <use xlink:href="#DejaVuSerif-62" transform="translate(14537.047446 0.015625)"/>
     <use xlink:href="#DejaVuSerif-6f" transform="translate(14601.061118 0.015625)"/>
     <use xlink:href="#DejaVuSerif-78" transform="translate(14661.266196 0.015625)"/>
     <use xlink:href="#DejaVuSerif-2e" transform="translate(14717.66268 0.015625)"/>
     <use xlink:href="#DejaVuSerif-20" transform="translate(14749.449789 0.015625)"/>
     <use xlink:href="#DejaVuSerif-46" transform="translate(14781.236899 0.015625)"/>
     <use xlink:href="#DejaVuSerif-6f" transform="translate(14850.621664 0.015625)"/>
     <use xlink:href="#DejaVuSerif-72" transform="translate(14910.826743 0.015625)"/>
     <use xlink:href="#DejaVuSerif-20" transform="translate(14958.629477 0.015625)"/>
     <use xlink:href="#DejaVuSerif-77" transform="translate(14990.416586 0.015625)"/>
     <use xlink:href="#DejaVuSerif-68" transform="translate(15076.012289 0.015625)"/>
     <use xlink:href="#DejaVuSerif-69" transform="translate(15140.416586 0.015625)"/>
     <use xlink:href="#DejaVuSerif-63" transform="translate(15172.399008 0.015625)"/>
     <use xlink:href="#DejaVuSerif-68" transform="translate(15228.404868 0.015625)"/>
     <use xlink:href="#DejaVuSerif-20" transform="translate(15292.809164 0.015625)"/>
     <use xlink:href="#DejaVuSerif-76" transform="translate(15324.596274 0.015625)"/>
     <use xlink:href="#DejaVuSerif-61" transform="translate(15381.090414 0.015625)"/>
     <use xlink:href="#DejaVuSerif-6c" transform="translate(15440.709555 0.015625)"/>
     <use xlink:href="#DejaVuSerif-75" transform="translate(15472.691977 0.015625)"/>
     <use xlink:href="#DejaVuSerif-65" transform="translate(15537.096274 0.015625)"/>
     <use xlink:href="#DejaVuSerif-73" transform="translate(15596.275961 0.015625)"/>
     <use xlink:href="#DejaVuSerif-20" transform="translate(15647.594321 0.015625)"/>
     <use xlink:href="#DejaVuSerif-6f" transform="translate(15679.38143 0.015625)"/>
     <use xlink:href="#DejaVuSerif-66" transform="translate(15739.586508 0.015625)"/>
     <use xlink:href="#DejaVuSerif-20" transform="translate(15776.598227 0.015625)"/>
     <use xlink:href="#Cmmi10-6e" transform="translate(15808.385336 0.015625)"/>
     <use xlink:href="#DejaVuSerif-20" transform="translate(15868.395102 0.015625)"/>
     <use xlink:href="#DejaVuSerif-69" transform="translate(15900.182211 0.015625)"/>
     <use xlink:href="#DejaVuSerif-73" transform="translate(15932.164633 0.015625)"/>
     <use xlink:href="#DejaVuSerif-20" transform="translate(15983.482993 0.015625)"/>
     <use xlink:href="#DejaVuSerif-69" transform="translate(16015.270102 0.015625)"/>
     <use xlink:href="#DejaVuSerif-74" transform="translate(16047.252524 0.015625)"/>
     <use xlink:href="#DejaVuSerif-20" transform="translate(16087.438071 0.015625)"/>
     <use xlink:href="#DejaVuSerif-70" transform="translate(16119.22518 0.015625)"/>
     <use xlink:href="#DejaVuSerif-6f" transform="translate(16183.238852 0.015625)"/>
     <use xlink:href="#DejaVuSerif-73" transform="translate(16243.44393 0.015625)"/>
     <use xlink:href="#DejaVuSerif-73" transform="translate(16294.762289 0.015625)"/>
     <use xlink:href="#DejaVuSerif-69" transform="translate(16346.080649 0.015625)"/>
     <use xlink:href="#DejaVuSerif-62" transform="translate(16378.063071 0.015625)"/>
     <use xlink:href="#DejaVuSerif-6c" transform="translate(16442.076743 0.015625)"/>
     <use xlink:href="#DejaVuSerif-65" transform="translate(16474.059164 0.015625)"/>
     <use xlink:href="#DejaVuSerif-20" transform="translate(16533.238852 0.015625)"/>
     <use xlink:href="#DejaVuSerif-74" transform="translate(16565.025961 0.015625)"/>
     <use xlink:href="#DejaVuSerif-6f" transform="translate(16605.211508 0.015625)"/>
     <use xlink:href="#DejaVuSerif-20" transform="translate(16665.416586 0.015625)"/>
     <use xlink:href="#DejaVuSerif-72" transform="translate(16697.203696 0.015625)"/>
     <use xlink:href="#DejaVuSerif-65" transform="translate(16745.00643 0.015625)"/>
     <use xlink:href="#DejaVuSerif-61" transform="translate(16804.186118 0.015625)"/>
     <use xlink:href="#DejaVuSerif-63" transform="translate(16863.805258 0.015625)"/>
     <use xlink:href="#DejaVuSerif-68" transform="translate(16919.811118 0.015625)"/>
     <use xlink:href="#DejaVuSerif-20" transform="translate(16984.215414 0.015625)"/>
     <use xlink:href="#DejaVuSerif-74" transform="translate(17016.002524 0.015625)"/>
     <use xlink:href="#DejaVuSerif-68" transform="translate(17056.188071 0.015625)"/>
     <use xlink:href="#DejaVuSerif-65" transform="translate(17120.592368 0.015625)"/>
     <use xlink:href="#DejaVuSerif-20" transform="translate(17179.772055 0.015625)"/>
     <use xlink:href="#DejaVuSerif-64" transform="translate(17211.559164 0.015625)"/>
     <use xlink:href="#DejaVuSerif-69" transform="translate(17275.572836 0.015625)"/>
     <use xlink:href="#DejaVuSerif-73" transform="translate(17307.555258 0.015625)"/>
     <use xlink:href="#DejaVuSerif-74" transform="translate(17358.873618 0.015625)"/>
     <use xlink:href="#DejaVuSerif-72" transform="translate(17399.059164 0.015625)"/>
     <use xlink:href="#DejaVuSerif-69" transform="translate(17446.861899 0.015625)"/>
     <use xlink:href="#DejaVuSerif-62" transform="translate(17478.844321 0.015625)"/>
     <use xlink:href="#DejaVuSerif-75" transform="translate(17542.857993 0.015625)"/>
     <use xlink:href="#DejaVuSerif-74" transform="translate(17607.262289 0.015625)"/>
     <use xlink:href="#DejaVuSerif-69" transform="translate(17647.447836 0.015625)"/>
     <use xlink:href="#DejaVuSerif-6f" transform="translate(17679.430258 0.015625)"/>
     <use xlink:href="#DejaVuSerif-6e" transform="translate(17739.635336 0.015625)"/>
     <use xlink:href="#DejaVuSerif-20" transform="translate(17804.039633 0.015625)"/>
     <use xlink:href="#DejaVuSerif-77" transform="translate(17835.826743 0.015625)"/>
     <use xlink:href="#DejaVuSerif-69" transform="translate(17921.422446 0.015625)"/>
     <use xlink:href="#DejaVuSerif-74" transform="translate(17953.404868 0.015625)"/>
     <use xlink:href="#DejaVuSerif-68" transform="translate(17993.590414 0.015625)"/>
     <use xlink:href="#DejaVuSerif-20" transform="translate(18057.994711 0.015625)"/>
     <use xlink:href="#DejaVuSerif-65" transform="translate(18089.781821 0.015625)"/>
     <use xlink:href="#DejaVuSerif-78" transform="translate(18148.961508 0.015625)"/>
     <use xlink:href="#DejaVuSerif-61" transform="translate(18205.357993 0.015625)"/>
     <use xlink:href="#DejaVuSerif-63" transform="translate(18264.977133 0.015625)"/>
     <use xlink:href="#DejaVuSerif-74" transform="translate(18320.982993 0.015625)"/>
     <use xlink:href="#DejaVuSerif-6c" transform="translate(18361.168539 0.015625)"/>
     <use xlink:href="#DejaVuSerif-79" transform="translate(18393.150961 0.015625)"/>
     <use xlink:href="#DejaVuSerif-20" transform="translate(18449.645102 0.015625)"/>
     <use xlink:href="#Cmmi10-6e" transform="translate(18481.432211 0.015625)"/>
     <use xlink:href="#DejaVuSerif-20" transform="translate(18541.441977 0.015625)"/>
     <use xlink:href="#DejaVuSerif-62" transform="translate(18573.229086 0.015625)"/>
     <use xlink:href="#DejaVuSerif-61" transform="translate(18637.242758 0.015625)"/>
     <use xlink:href="#DejaVuSerif-6c" transform="translate(18696.861899 0.015625)"/>
     <use xlink:href="#DejaVuSerif-6c" transform="translate(18728.844321 0.015625)"/>
     <use xlink:href="#DejaVuSerif-73" transform="translate(18760.826743 0.015625)"/>
     <use xlink:href="#DejaVuSerif-20" transform="translate(18812.145102 0.015625)"/>
     <use xlink:href="#DejaVuSerif-69" transform="translate(18843.932211 0.015625)"/>
     <use xlink:href="#DejaVuSerif-6e" transform="translate(18875.914633 0.015625)"/>
     <use xlink:href="#DejaVuSerif-20" transform="translate(18940.31893 0.015625)"/>
     <use xlink:href="#DejaVuSerif-65" transform="translate(18972.106039 0.015625)"/>
     <use xlink:href="#DejaVuSerif-61" transform="translate(19031.285727 0.015625)"/>
     <use xlink:href="#DejaVuSerif-63" transform="translate(19090.904868 0.015625)"/>
     <use xlink:href="#DejaVuSerif-68" transform="translate(19146.910727 0.015625)"/>
     <use xlink:href="#DejaVuSerif-20" transform="translate(19211.315024 0.015625)"/>
     <use xlink:href="#DejaVuSerif-62" transform="translate(19243.102133 0.015625)"/>
     <use xlink:href="#DejaVuSerif-6f" transform="translate(19307.115805 0.015625)"/>
     <use xlink:href="#DejaVuSerif-78" transform="translate(19367.320883 0.015625)"/>
     <use xlink:href="#DejaVuSerif-2c" transform="translate(19423.717368 0.015625)"/>
     <use xlink:href="#DejaVuSerif-20" transform="translate(19455.504477 0.015625)"/>
     <use xlink:href="#DejaVuSerif-72" transform="translate(19487.291586 0.015625)"/>
     <use xlink:href="#DejaVuSerif-65" transform="translate(19535.094321 0.015625)"/>
     <use xlink:href="#DejaVuSerif-67" transform="translate(19594.274008 0.015625)"/>
     <use xlink:href="#DejaVuSerif-61" transform="translate(19658.28768 0.015625)"/>
     <use xlink:href="#DejaVuSerif-72" transform="translate(19717.906821 0.015625)"/>
     <use xlink:href="#DejaVuSerif-64" transform="translate(19765.709555 0.015625)"/>
     <use xlink:href="#DejaVuSerif-6c" transform="translate(19829.723227 0.015625)"/>
     <use xlink:href="#DejaVuSerif-65" transform="translate(19861.705649 0.015625)"/>
     <use xlink:href="#DejaVuSerif-73" transform="translate(19920.885336 0.015625)"/>
     <use xlink:href="#DejaVuSerif-73" transform="translate(19972.203696 0.015625)"/>
     <use xlink:href="#DejaVuSerif-20" transform="translate(20023.522055 0.015625)"/>
     <use xlink:href="#DejaVuSerif-6f" transform="translate(20055.309164 0.015625)"/>
     <use xlink:href="#DejaVuSerif-66" transform="translate(20115.514243 0.015625)"/>
     <use xlink:href="#DejaVuSerif-20" transform="translate(20152.525961 0.015625)"/>
     <use xlink:href="#DejaVuSerif-74" transform="translate(20184.313071 0.015625)"/>
     <use xlink:href="#DejaVuSerif-68" transform="translate(20224.498618 0.015625)"/>
     <use xlink:href="#DejaVuSerif-65" transform="translate(20288.902914 0.015625)"/>
     <use xlink:href="#DejaVuSerif-20" transform="translate(20348.082602 0.015625)"/>
     <use xlink:href="#DejaVuSerif-69" transform="translate(20379.869711 0.015625)"/>
     <use xlink:href="#DejaVuSerif-6e" transform="translate(20411.852133 0.015625)"/>
     <use xlink:href="#DejaVuSerif-69" transform="translate(20476.25643 0.015625)"/>
     <use xlink:href="#DejaVuSerif-74" transform="translate(20508.238852 0.015625)"/>
     <use xlink:href="#DejaVuSerif-69" transform="translate(20548.424399 0.015625)"/>
     <use xlink:href="#DejaVuSerif-61" transform="translate(20580.406821 0.015625)"/>
     <use xlink:href="#DejaVuSerif-6c" transform="translate(20640.025961 0.015625)"/>
     <use xlink:href="#DejaVuSerif-20" transform="translate(20672.008383 0.015625)"/>
     <use xlink:href="#DejaVuSerif-64" transform="translate(20703.795493 0.015625)"/>
     <use xlink:href="#DejaVuSerif-69" transform="translate(20767.809164 0.015625)"/>
     <use xlink:href="#DejaVuSerif-73" transform="translate(20799.791586 0.015625)"/>
     <use xlink:href="#DejaVuSerif-74" transform="translate(20851.109946 0.015625)"/>
     <use xlink:href="#DejaVuSerif-72" transform="translate(20891.295493 0.015625)"/>
     <use xlink:href="#DejaVuSerif-69" transform="translate(20939.098227 0.015625)"/>
     <use xlink:href="#DejaVuSerif-62" transform="translate(20971.080649 0.015625)"/>
     <use xlink:href="#DejaVuSerif-75" transform="translate(21035.094321 0.015625)"/>
     <use xlink:href="#DejaVuSerif-74" transform="translate(21099.498618 0.015625)"/>
     <use xlink:href="#DejaVuSerif-69" transform="translate(21139.684164 0.015625)"/>
     <use xlink:href="#DejaVuSerif-6f" transform="translate(21171.666586 0.015625)"/>
     <use xlink:href="#DejaVuSerif-6e" transform="translate(21231.871664 0.015625)"/>
     <use xlink:href="#DejaVuSerif-20" transform="translate(21296.275961 0.015625)"/>
     <use xlink:href="#DejaVuSerif-6f" transform="translate(21328.063071 0.015625)"/>
     <use xlink:href="#DejaVuSerif-66" transform="translate(21388.268149 0.015625)"/>
     <use xlink:href="#DejaVuSerif-20" transform="translate(21425.279868 0.015625)"/>
     <use xlink:href="#DejaVuSerif-62" transform="translate(21457.066977 0.015625)"/>
     <use xlink:href="#DejaVuSerif-61" transform="translate(21521.080649 0.015625)"/>
     <use xlink:href="#DejaVuSerif-6c" transform="translate(21580.699789 0.015625)"/>
     <use xlink:href="#DejaVuSerif-6c" transform="translate(21612.682211 0.015625)"/>
     <use xlink:href="#DejaVuSerif-73" transform="translate(21644.664633 0.015625)"/>
     <use xlink:href="#DejaVuSerif-3f" transform="translate(21695.982993 0.015625)"/>
    </g>
   </g>
  </g>
 </g>
</svg>
