<?xml version="1.0" encoding="utf-8" standalone="no"?>
<!DOCTYPE svg PUBLIC "-//W3C//DTD SVG 1.1//EN"
  "http://www.w3.org/Graphics/SVG/1.1/DTD/svg11.dtd">
<svg xmlns:xlink="http://www.w3.org/1999/xlink" width="709.08pt" height="228.4pt" viewBox="0 0 709.08 228.4" xmlns="http://www.w3.org/2000/svg" version="1.1">
 <metadata>
  <rdf:RDF xmlns:dc="http://purl.org/dc/elements/1.1/" xmlns:cc="http://creativecommons.org/ns#" xmlns:rdf="http://www.w3.org/1999/02/22-rdf-syntax-ns#">
   <cc:Work>
    <dc:type rdf:resource="http://purl.org/dc/dcmitype/StillImage"/>
    <dc:date>2025-05-29T18:44:00.066181</dc:date>
    <dc:format>image/svg+xml</dc:format>
    <dc:creator>
     <cc:Agent>
      <dc:title>Matplotlib v3.10.3, https://matplotlib.org/</dc:title>
     </cc:Agent>
    </dc:creator>
   </cc:Work>
  </rdf:RDF>
 </metadata>
 <defs>
  <style type="text/css">*{stroke-linejoin: round; stroke-linecap: butt}</style>
 </defs>
 <g id="figure_1">
  <g id="patch_1">
   <path d="M 0 228.4 
L 709.08 228.4 
L 709.08 0 
L 0 0 
z
" style="fill: #ffffff"/>
  </g>
  <g id="axes_1">
   <g id="text_1">
    <!-- Let $p(x)$ be a nonzero polynomial of degree less than $1992$ having no nonconstant factor in common with $x^3 - x$. Let -->
    <g transform="translate(7.2 90.586625) scale(0.12 -0.12)">
     <defs>
      <path id="DejaVuSerif-4c" d="M 353 0 
L 353 331 
L 947 331 
L 947 4331 
L 353 4331 
L 353 4666 
L 2175 4666 
L 2175 4331 
L 1581 4331 
L 1581 384 
L 3713 384 
L 3713 1166 
L 4097 1166 
L 4097 0 
L 353 0 
z
" transform="scale(0.015625)"/>
      <path id="DejaVuSerif-65" d="M 3469 1600 
L 991 1600 
L 991 1575 
Q 991 903 1244 561 
Q 1497 219 1991 219 
Q 2369 219 2611 417 
Q 2853 616 2950 1006 
L 3413 1006 
Q 3275 459 2904 184 
Q 2534 -91 1931 -91 
Q 1203 -91 761 389 
Q 319 869 319 1663 
Q 319 2450 753 2931 
Q 1188 3413 1894 3413 
Q 2647 3413 3050 2948 
Q 3453 2484 3469 1600 
z
M 2791 1931 
Q 2772 2513 2545 2808 
Q 2319 3103 1894 3103 
Q 1497 3103 1269 2806 
Q 1041 2509 991 1931 
L 2791 1931 
z
" transform="scale(0.015625)"/>
      <path id="DejaVuSerif-74" d="M 691 2988 
L 184 2988 
L 184 3322 
L 691 3322 
L 691 4353 
L 1269 4353 
L 1269 3322 
L 2350 3322 
L 2350 2988 
L 1269 2988 
L 1269 878 
Q 1269 456 1350 337 
Q 1431 219 1650 219 
Q 1875 219 1978 351 
Q 2081 484 2088 781 
L 2522 781 
Q 2497 328 2275 118 
Q 2053 -91 1600 -91 
Q 1103 -91 897 129 
Q 691 350 691 878 
L 691 2988 
z
" transform="scale(0.015625)"/>
      <path id="DejaVuSerif-20" transform="scale(0.015625)"/>
      <path id="Cmmi10-70" d="M -159 -1241 
Q -219 -1241 -219 -1159 
Q -197 -1019 -134 -1019 
Q 66 -1019 145 -983 
Q 225 -947 269 -800 
L 991 2081 
Q 1038 2200 1038 2388 
Q 1038 2663 850 2663 
Q 650 2663 553 2423 
Q 456 2184 366 1819 
Q 366 1778 313 1778 
L 238 1778 
Q 222 1778 203 1801 
Q 184 1825 184 1844 
Q 253 2122 317 2315 
Q 381 2509 517 2668 
Q 653 2828 856 2828 
Q 1075 2828 1240 2704 
Q 1406 2581 1453 2369 
Q 1628 2572 1840 2700 
Q 2053 2828 2278 2828 
Q 2547 2828 2745 2684 
Q 2944 2541 3044 2308 
Q 3144 2075 3144 1806 
Q 3144 1394 2933 953 
Q 2722 513 2361 220 
Q 2000 -72 1588 -72 
Q 1400 -72 1248 34 
Q 1097 141 1013 313 
L 722 -825 
Q 706 -919 703 -934 
Q 703 -1019 1125 -1019 
Q 1191 -1019 1191 -1100 
Q 1169 -1184 1155 -1212 
Q 1141 -1241 1081 -1241 
L -159 -1241 
z
M 1594 97 
Q 1816 97 2006 280 
Q 2197 463 2316 691 
Q 2403 863 2479 1111 
Q 2556 1359 2612 1640 
Q 2669 1922 2669 2088 
Q 2669 2234 2630 2362 
Q 2591 2491 2502 2577 
Q 2413 2663 2266 2663 
Q 2031 2663 1823 2495 
Q 1616 2328 1447 2081 
L 1447 2059 
L 1094 647 
Q 1138 419 1263 258 
Q 1388 97 1594 97 
z
" transform="scale(0.015625)"/>
      <path id="Cmr10-28" d="M 1984 -1588 
Q 1628 -1306 1370 -942 
Q 1113 -578 948 -165 
Q 784 247 703 697 
Q 622 1147 622 1600 
Q 622 2059 703 2509 
Q 784 2959 951 3375 
Q 1119 3791 1378 4153 
Q 1638 4516 1984 4788 
Q 1984 4800 2016 4800 
L 2075 4800 
Q 2094 4800 2109 4783 
Q 2125 4766 2125 4744 
Q 2125 4716 2113 4703 
Q 1800 4397 1592 4047 
Q 1384 3697 1257 3301 
Q 1131 2906 1075 2482 
Q 1019 2059 1019 1600 
Q 1019 -434 2106 -1491 
Q 2125 -1509 2125 -1544 
Q 2125 -1559 2108 -1579 
Q 2091 -1600 2075 -1600 
L 2016 -1600 
Q 1984 -1600 1984 -1588 
z
" transform="scale(0.015625)"/>
      <path id="Cmmi10-78" d="M 500 184 
Q 613 97 819 97 
Q 1019 97 1172 289 
Q 1325 481 1381 709 
L 1672 1844 
Q 1741 2153 1741 2266 
Q 1741 2425 1652 2544 
Q 1563 2663 1403 2663 
Q 1200 2663 1022 2536 
Q 844 2409 722 2214 
Q 600 2019 550 1819 
Q 538 1778 500 1778 
L 422 1778 
Q 372 1778 372 1838 
L 372 1856 
Q 434 2094 584 2320 
Q 734 2547 951 2687 
Q 1169 2828 1416 2828 
Q 1650 2828 1839 2703 
Q 2028 2578 2106 2363 
Q 2216 2559 2386 2693 
Q 2556 2828 2759 2828 
Q 2897 2828 3040 2779 
Q 3184 2731 3275 2631 
Q 3366 2531 3366 2381 
Q 3366 2219 3261 2101 
Q 3156 1984 2994 1984 
Q 2891 1984 2822 2050 
Q 2753 2116 2753 2216 
Q 2753 2350 2845 2451 
Q 2938 2553 3066 2572 
Q 2950 2663 2747 2663 
Q 2541 2663 2389 2472 
Q 2238 2281 2175 2047 
L 1894 916 
Q 1825 659 1825 494 
Q 1825 331 1917 214 
Q 2009 97 2163 97 
Q 2463 97 2698 361 
Q 2934 625 3009 941 
Q 3022 978 3059 978 
L 3138 978 
Q 3163 978 3178 961 
Q 3194 944 3194 922 
Q 3194 916 3188 903 
Q 3097 522 2806 225 
Q 2516 -72 2150 -72 
Q 1916 -72 1727 54 
Q 1538 181 1459 397 
Q 1359 209 1182 68 
Q 1006 -72 806 -72 
Q 669 -72 523 -23 
Q 378 25 287 125 
Q 197 225 197 378 
Q 197 528 301 651 
Q 406 775 563 775 
Q 669 775 741 711 
Q 813 647 813 544 
Q 813 409 723 309 
Q 634 209 500 184 
z
" transform="scale(0.015625)"/>
      <path id="Cmr10-29" d="M 416 -1600 
Q 359 -1600 359 -1544 
Q 359 -1516 372 -1503 
Q 1466 -434 1466 1600 
Q 1466 3634 384 4691 
Q 359 4706 359 4744 
Q 359 4766 376 4783 
Q 394 4800 416 4800 
L 475 4800 
Q 494 4800 506 4788 
Q 966 4425 1272 3906 
Q 1578 3388 1720 2800 
Q 1863 2213 1863 1600 
Q 1863 1147 1786 708 
Q 1709 269 1542 -157 
Q 1375 -584 1119 -945 
Q 863 -1306 506 -1588 
Q 494 -1600 475 -1600 
L 416 -1600 
z
" transform="scale(0.015625)"/>
      <path id="DejaVuSerif-62" d="M 738 331 
L 738 4531 
L 184 4531 
L 184 4863 
L 1313 4863 
L 1313 2803 
Q 1481 3116 1742 3264 
Q 2003 3413 2388 3413 
Q 3000 3413 3387 2928 
Q 3775 2444 3775 1663 
Q 3775 881 3387 395 
Q 3000 -91 2388 -91 
Q 2003 -91 1742 57 
Q 1481 206 1313 519 
L 1313 0 
L 184 0 
L 184 331 
L 738 331 
z
M 1313 1497 
Q 1313 897 1542 583 
Q 1772 269 2209 269 
Q 2650 269 2876 622 
Q 3103 975 3103 1663 
Q 3103 2353 2876 2703 
Q 2650 3053 2209 3053 
Q 1772 3053 1542 2737 
Q 1313 2422 1313 1825 
L 1313 1497 
z
" transform="scale(0.015625)"/>
      <path id="DejaVuSerif-61" d="M 2547 1044 
L 2547 1747 
L 1806 1747 
Q 1378 1747 1168 1562 
Q 959 1378 959 997 
Q 959 650 1171 447 
Q 1384 244 1747 244 
Q 2106 244 2326 466 
Q 2547 688 2547 1044 
z
M 3122 2075 
L 3122 331 
L 3634 331 
L 3634 0 
L 2547 0 
L 2547 359 
Q 2356 128 2106 18 
Q 1856 -91 1522 -91 
Q 969 -91 644 203 
Q 319 497 319 997 
Q 319 1513 691 1797 
Q 1063 2081 1741 2081 
L 2547 2081 
L 2547 2309 
Q 2547 2688 2317 2895 
Q 2088 3103 1672 3103 
Q 1328 3103 1125 2947 
Q 922 2791 872 2484 
L 575 2484 
L 575 3156 
Q 875 3284 1158 3348 
Q 1441 3413 1709 3413 
Q 2400 3413 2761 3070 
Q 3122 2728 3122 2075 
z
" transform="scale(0.015625)"/>
      <path id="DejaVuSerif-6e" d="M 263 0 
L 263 331 
L 781 331 
L 781 2988 
L 231 2988 
L 231 3322 
L 1356 3322 
L 1356 2731 
Q 1516 3069 1770 3241 
Q 2025 3413 2363 3413 
Q 2913 3413 3172 3097 
Q 3431 2781 3431 2113 
L 3431 331 
L 3944 331 
L 3944 0 
L 2356 0 
L 2356 331 
L 2853 331 
L 2853 1931 
Q 2853 2541 2703 2767 
Q 2553 2994 2175 2994 
Q 1775 2994 1565 2701 
Q 1356 2409 1356 1850 
L 1356 331 
L 1856 331 
L 1856 0 
L 263 0 
z
" transform="scale(0.015625)"/>
      <path id="DejaVuSerif-6f" d="M 1925 219 
Q 2388 219 2623 584 
Q 2859 950 2859 1663 
Q 2859 2375 2623 2739 
Q 2388 3103 1925 3103 
Q 1463 3103 1227 2739 
Q 991 2375 991 1663 
Q 991 950 1228 584 
Q 1466 219 1925 219 
z
M 1925 -91 
Q 1200 -91 759 389 
Q 319 869 319 1663 
Q 319 2456 758 2934 
Q 1197 3413 1925 3413 
Q 2653 3413 3092 2934 
Q 3531 2456 3531 1663 
Q 3531 869 3092 389 
Q 2653 -91 1925 -91 
z
" transform="scale(0.015625)"/>
      <path id="DejaVuSerif-7a" d="M 256 0 
L 256 269 
L 2338 2988 
L 691 2988 
L 691 2413 
L 359 2413 
L 359 3322 
L 3078 3322 
L 3078 3053 
L 997 331 
L 2803 331 
L 2803 934 
L 3138 934 
L 3138 0 
L 256 0 
z
" transform="scale(0.015625)"/>
      <path id="DejaVuSerif-72" d="M 3059 3328 
L 3059 2497 
L 2728 2497 
Q 2713 2744 2591 2866 
Q 2469 2988 2234 2988 
Q 1809 2988 1582 2694 
Q 1356 2400 1356 1850 
L 1356 331 
L 2022 331 
L 2022 0 
L 263 0 
L 263 331 
L 781 331 
L 781 2994 
L 231 2994 
L 231 3322 
L 1356 3322 
L 1356 2731 
Q 1525 3078 1790 3245 
Q 2056 3413 2438 3413 
Q 2578 3413 2733 3391 
Q 2888 3369 3059 3328 
z
" transform="scale(0.015625)"/>
      <path id="DejaVuSerif-70" d="M 1313 1825 
L 1313 1497 
Q 1313 897 1542 583 
Q 1772 269 2209 269 
Q 2650 269 2876 622 
Q 3103 975 3103 1663 
Q 3103 2353 2876 2703 
Q 2650 3053 2209 3053 
Q 1772 3053 1542 2737 
Q 1313 2422 1313 1825 
z
M 738 2988 
L 184 2988 
L 184 3322 
L 1313 3322 
L 1313 2803 
Q 1481 3116 1742 3264 
Q 2003 3413 2388 3413 
Q 3000 3413 3387 2928 
Q 3775 2444 3775 1663 
Q 3775 881 3387 395 
Q 3000 -91 2388 -91 
Q 2003 -91 1742 57 
Q 1481 206 1313 519 
L 1313 -997 
L 1856 -997 
L 1856 -1331 
L 184 -1331 
L 184 -997 
L 738 -997 
L 738 2988 
z
" transform="scale(0.015625)"/>
      <path id="DejaVuSerif-6c" d="M 1313 331 
L 1856 331 
L 1856 0 
L 184 0 
L 184 331 
L 738 331 
L 738 4531 
L 184 4531 
L 184 4863 
L 1313 4863 
L 1313 331 
z
" transform="scale(0.015625)"/>
      <path id="DejaVuSerif-79" d="M 1381 -609 
L 1600 -56 
L 359 2988 
L -19 2988 
L -19 3322 
L 1509 3322 
L 1509 2988 
L 978 2988 
L 1913 703 
L 2847 2988 
L 2350 2988 
L 2350 3322 
L 3597 3322 
L 3597 2988 
L 3225 2988 
L 1703 -750 
Q 1547 -1138 1356 -1280 
Q 1166 -1422 819 -1422 
Q 672 -1422 517 -1397 
Q 363 -1372 206 -1325 
L 206 -691 
L 500 -691 
Q 519 -903 608 -995 
Q 697 -1088 884 -1088 
Q 1056 -1088 1161 -992 
Q 1266 -897 1381 -609 
z
" transform="scale(0.015625)"/>
      <path id="DejaVuSerif-6d" d="M 3316 2675 
Q 3481 3041 3739 3227 
Q 3997 3413 4341 3413 
Q 4863 3413 5119 3089 
Q 5375 2766 5375 2113 
L 5375 331 
L 5894 331 
L 5894 0 
L 4300 0 
L 4300 331 
L 4800 331 
L 4800 2047 
Q 4800 2556 4650 2772 
Q 4500 2988 4153 2988 
Q 3769 2988 3567 2697 
Q 3366 2406 3366 1850 
L 3366 331 
L 3866 331 
L 3866 0 
L 2291 0 
L 2291 331 
L 2791 331 
L 2791 2069 
Q 2791 2566 2641 2777 
Q 2491 2988 2144 2988 
Q 1759 2988 1557 2697 
Q 1356 2406 1356 1850 
L 1356 331 
L 1856 331 
L 1856 0 
L 263 0 
L 263 331 
L 781 331 
L 781 2994 
L 231 2994 
L 231 3322 
L 1356 3322 
L 1356 2731 
Q 1516 3063 1762 3238 
Q 2009 3413 2322 3413 
Q 2709 3413 2968 3220 
Q 3228 3028 3316 2675 
z
" transform="scale(0.015625)"/>
      <path id="DejaVuSerif-69" d="M 622 4353 
Q 622 4497 726 4603 
Q 831 4709 978 4709 
Q 1122 4709 1226 4603 
Q 1331 4497 1331 4353 
Q 1331 4206 1228 4103 
Q 1125 4000 978 4000 
Q 831 4000 726 4103 
Q 622 4206 622 4353 
z
M 1356 331 
L 1900 331 
L 1900 0 
L 231 0 
L 231 331 
L 781 331 
L 781 2988 
L 231 2988 
L 231 3322 
L 1356 3322 
L 1356 331 
z
" transform="scale(0.015625)"/>
      <path id="DejaVuSerif-66" d="M 2753 4078 
L 2450 4078 
Q 2447 4313 2317 4434 
Q 2188 4556 1941 4556 
Q 1619 4556 1487 4379 
Q 1356 4203 1356 3750 
L 1356 3322 
L 2284 3322 
L 2284 2988 
L 1356 2988 
L 1356 331 
L 2094 331 
L 2094 0 
L 231 0 
L 231 331 
L 781 331 
L 781 2988 
L 231 2988 
L 231 3322 
L 781 3322 
L 781 3738 
Q 781 4294 1070 4578 
Q 1359 4863 1919 4863 
Q 2128 4863 2337 4825 
Q 2547 4788 2753 4709 
L 2753 4078 
z
" transform="scale(0.015625)"/>
      <path id="DejaVuSerif-64" d="M 3359 331 
L 3909 331 
L 3909 0 
L 2784 0 
L 2784 519 
Q 2616 206 2355 57 
Q 2094 -91 1709 -91 
Q 1097 -91 708 395 
Q 319 881 319 1663 
Q 319 2444 706 2928 
Q 1094 3413 1709 3413 
Q 2094 3413 2355 3264 
Q 2616 3116 2784 2803 
L 2784 4531 
L 2241 4531 
L 2241 4863 
L 3359 4863 
L 3359 331 
z
M 2784 1497 
L 2784 1825 
Q 2784 2422 2554 2737 
Q 2325 3053 1888 3053 
Q 1444 3053 1217 2703 
Q 991 2353 991 1663 
Q 991 975 1217 622 
Q 1444 269 1888 269 
Q 2325 269 2554 583 
Q 2784 897 2784 1497 
z
" transform="scale(0.015625)"/>
      <path id="DejaVuSerif-67" d="M 3359 2988 
L 3359 72 
Q 3359 -644 2965 -1033 
Q 2572 -1422 1844 -1422 
Q 1516 -1422 1216 -1362 
Q 916 -1303 641 -1184 
L 641 -488 
L 941 -488 
Q 997 -813 1206 -963 
Q 1416 -1113 1806 -1113 
Q 2313 -1113 2548 -827 
Q 2784 -541 2784 72 
L 2784 519 
Q 2616 206 2355 57 
Q 2094 -91 1709 -91 
Q 1097 -91 708 395 
Q 319 881 319 1663 
Q 319 2444 706 2928 
Q 1094 3413 1709 3413 
Q 2094 3413 2355 3264 
Q 2616 3116 2784 2803 
L 2784 3322 
L 3909 3322 
L 3909 2988 
L 3359 2988 
z
M 2784 1825 
Q 2784 2422 2554 2737 
Q 2325 3053 1888 3053 
Q 1444 3053 1217 2703 
Q 991 2353 991 1663 
Q 991 975 1217 622 
Q 1444 269 1888 269 
Q 2325 269 2554 583 
Q 2784 897 2784 1497 
L 2784 1825 
z
" transform="scale(0.015625)"/>
      <path id="DejaVuSerif-73" d="M 359 184 
L 359 959 
L 691 959 
Q 703 588 923 403 
Q 1144 219 1575 219 
Q 1963 219 2166 364 
Q 2369 509 2369 788 
Q 2369 1006 2220 1140 
Q 2072 1275 1594 1428 
L 1178 1569 
Q 750 1706 558 1912 
Q 366 2119 366 2438 
Q 366 2894 700 3153 
Q 1034 3413 1625 3413 
Q 1888 3413 2178 3344 
Q 2469 3275 2778 3144 
L 2778 2419 
L 2447 2419 
Q 2434 2741 2221 2922 
Q 2009 3103 1644 3103 
Q 1281 3103 1095 2975 
Q 909 2847 909 2591 
Q 909 2381 1050 2254 
Q 1191 2128 1613 1997 
L 2069 1856 
Q 2541 1709 2748 1489 
Q 2956 1269 2956 922 
Q 2956 450 2595 179 
Q 2234 -91 1600 -91 
Q 1278 -91 972 -22 
Q 666 47 359 184 
z
" transform="scale(0.015625)"/>
      <path id="DejaVuSerif-68" d="M 263 0 
L 263 331 
L 781 331 
L 781 4531 
L 231 4531 
L 231 4863 
L 1356 4863 
L 1356 2731 
Q 1516 3069 1770 3241 
Q 2025 3413 2363 3413 
Q 2913 3413 3172 3097 
Q 3431 2781 3431 2113 
L 3431 331 
L 3944 331 
L 3944 0 
L 2356 0 
L 2356 331 
L 2853 331 
L 2853 1931 
Q 2853 2541 2704 2764 
Q 2556 2988 2175 2988 
Q 1775 2988 1565 2697 
Q 1356 2406 1356 1850 
L 1356 331 
L 1856 331 
L 1856 0 
L 263 0 
z
" transform="scale(0.015625)"/>
      <path id="Cmr10-31" d="M 594 0 
L 594 225 
Q 1394 225 1394 428 
L 1394 3788 
Q 1063 3628 556 3628 
L 556 3853 
Q 1341 3853 1741 4263 
L 1831 4263 
Q 1853 4263 1873 4245 
Q 1894 4228 1894 4206 
L 1894 428 
Q 1894 225 2694 225 
L 2694 0 
L 594 0 
z
" transform="scale(0.015625)"/>
      <path id="Cmr10-39" d="M 722 269 
Q 897 63 1331 63 
Q 1575 63 1786 228 
Q 1997 394 2113 634 
Q 2247 906 2284 1214 
Q 2322 1522 2322 1978 
Q 2213 1719 2008 1553 
Q 1803 1388 1538 1388 
Q 1166 1388 873 1589 
Q 581 1791 425 2120 
Q 269 2450 269 2822 
Q 269 3206 444 3539 
Q 619 3872 928 4067 
Q 1238 4263 1631 4263 
Q 2019 4263 2280 4052 
Q 2541 3841 2678 3508 
Q 2816 3175 2870 2803 
Q 2925 2431 2925 2069 
Q 2925 1575 2744 1061 
Q 2563 547 2202 203 
Q 1841 -141 1331 -141 
Q 953 -141 690 37 
Q 428 216 428 575 
Q 428 706 517 795 
Q 606 884 738 884 
Q 866 884 955 795 
Q 1044 706 1044 575 
Q 1044 450 953 359 
Q 863 269 738 269 
L 722 269 
z
M 1563 1556 
Q 1825 1556 1992 1732 
Q 2159 1909 2234 2171 
Q 2309 2434 2309 2694 
L 2309 2816 
L 2309 2841 
Q 2309 3322 2168 3700 
Q 2028 4078 1631 4078 
Q 1378 4078 1220 3967 
Q 1063 3856 988 3672 
Q 913 3488 892 3278 
Q 872 3069 872 2822 
Q 872 2459 906 2203 
Q 941 1947 1094 1751 
Q 1247 1556 1563 1556 
z
" transform="scale(0.015625)"/>
      <path id="Cmr10-32" d="M 319 0 
L 319 172 
Q 319 188 331 206 
L 1325 1306 
Q 1550 1550 1690 1715 
Q 1831 1881 1968 2097 
Q 2106 2313 2186 2536 
Q 2266 2759 2266 3009 
Q 2266 3272 2169 3511 
Q 2072 3750 1880 3894 
Q 1688 4038 1416 4038 
Q 1138 4038 916 3870 
Q 694 3703 603 3438 
Q 628 3444 672 3444 
Q 816 3444 917 3347 
Q 1019 3250 1019 3097 
Q 1019 2950 917 2848 
Q 816 2747 672 2747 
Q 522 2747 420 2851 
Q 319 2956 319 3097 
Q 319 3338 409 3548 
Q 500 3759 670 3923 
Q 841 4088 1055 4175 
Q 1269 4263 1509 4263 
Q 1875 4263 2190 4108 
Q 2506 3953 2690 3670 
Q 2875 3388 2875 3009 
Q 2875 2731 2753 2481 
Q 2631 2231 2440 2026 
Q 2250 1822 1953 1562 
Q 1656 1303 1563 1216 
L 838 519 
L 1453 519 
Q 1906 519 2211 526 
Q 2516 534 2534 550 
Q 2609 631 2688 1141 
L 2875 1141 
L 2694 0 
L 319 0 
z
" transform="scale(0.015625)"/>
      <path id="DejaVuSerif-76" d="M 1581 0 
L 359 2988 
L -19 2988 
L -19 3322 
L 1509 3322 
L 1509 2988 
L 978 2988 
L 1913 703 
L 2847 2988 
L 2350 2988 
L 2350 3322 
L 3597 3322 
L 3597 2988 
L 3225 2988 
L 2003 0 
L 1581 0 
z
" transform="scale(0.015625)"/>
      <path id="DejaVuSerif-63" d="M 3291 997 
Q 3169 466 2822 187 
Q 2475 -91 1925 -91 
Q 1200 -91 759 389 
Q 319 869 319 1663 
Q 319 2459 759 2936 
Q 1200 3413 1925 3413 
Q 2241 3413 2553 3339 
Q 2866 3266 3181 3116 
L 3181 2266 
L 2847 2266 
Q 2781 2703 2561 2903 
Q 2341 3103 1931 3103 
Q 1466 3103 1228 2742 
Q 991 2381 991 1663 
Q 991 944 1227 581 
Q 1463 219 1931 219 
Q 2303 219 2525 412 
Q 2747 606 2828 997 
L 3291 997 
z
" transform="scale(0.015625)"/>
      <path id="DejaVuSerif-77" d="M 3072 3322 
L 3922 728 
L 4672 2988 
L 4191 2988 
L 4191 3322 
L 5394 3322 
L 5394 2988 
L 5025 2988 
L 4038 0 
L 3559 0 
L 2741 2484 
L 1919 0 
L 1459 0 
L 475 2988 
L 103 2988 
L 103 3322 
L 1606 3322 
L 1606 2988 
L 1069 2988 
L 1813 728 
L 2669 3322 
L 3072 3322 
z
" transform="scale(0.015625)"/>
      <path id="Cmr10-33" d="M 609 494 
Q 759 275 1012 169 
Q 1266 63 1556 63 
Q 1928 63 2084 380 
Q 2241 697 2241 1100 
Q 2241 1281 2208 1462 
Q 2175 1644 2097 1800 
Q 2019 1956 1883 2050 
Q 1747 2144 1550 2144 
L 1125 2144 
Q 1069 2144 1069 2203 
L 1069 2259 
Q 1069 2309 1125 2309 
L 1478 2338 
Q 1703 2338 1851 2506 
Q 2000 2675 2069 2917 
Q 2138 3159 2138 3378 
Q 2138 3684 1994 3881 
Q 1850 4078 1556 4078 
Q 1313 4078 1091 3986 
Q 869 3894 738 3706 
Q 750 3709 759 3711 
Q 769 3713 781 3713 
Q 925 3713 1022 3613 
Q 1119 3513 1119 3372 
Q 1119 3234 1022 3134 
Q 925 3034 781 3034 
Q 641 3034 541 3134 
Q 441 3234 441 3372 
Q 441 3647 606 3850 
Q 772 4053 1033 4158 
Q 1294 4263 1556 4263 
Q 1750 4263 1965 4205 
Q 2181 4147 2356 4039 
Q 2531 3931 2642 3762 
Q 2753 3594 2753 3378 
Q 2753 3109 2633 2881 
Q 2513 2653 2303 2487 
Q 2094 2322 1844 2241 
Q 2122 2188 2372 2031 
Q 2622 1875 2773 1631 
Q 2925 1388 2925 1106 
Q 2925 753 2731 467 
Q 2538 181 2222 20 
Q 1906 -141 1556 -141 
Q 1256 -141 954 -26 
Q 653 88 461 316 
Q 269 544 269 863 
Q 269 1022 375 1128 
Q 481 1234 641 1234 
Q 744 1234 830 1186 
Q 916 1138 964 1050 
Q 1013 963 1013 863 
Q 1013 706 903 600 
Q 794 494 641 494 
L 609 494 
z
" transform="scale(0.015625)"/>
      <path id="Cmsy10-a1" d="M 653 1472 
Q 600 1472 565 1512 
Q 531 1553 531 1600 
Q 531 1647 565 1687 
Q 600 1728 653 1728 
L 4325 1728 
Q 4375 1728 4408 1687 
Q 4441 1647 4441 1600 
Q 4441 1553 4408 1512 
Q 4375 1472 4325 1472 
L 653 1472 
z
" transform="scale(0.015625)"/>
      <path id="DejaVuSerif-2e" d="M 603 325 
Q 603 500 722 622 
Q 841 744 1019 744 
Q 1191 744 1312 622 
Q 1434 500 1434 325 
Q 1434 153 1312 31 
Q 1191 -91 1019 -91 
Q 841 -91 722 29 
Q 603 150 603 325 
z
" transform="scale(0.015625)"/>
     </defs>
     <use xlink:href="#DejaVuSerif-4c" transform="translate(0 0.109375)"/>
     <use xlink:href="#DejaVuSerif-65" transform="translate(66.40625 0.109375)"/>
     <use xlink:href="#DejaVuSerif-74" transform="translate(125.585938 0.109375)"/>
     <use xlink:href="#DejaVuSerif-20" transform="translate(165.771484 0.109375)"/>
     <use xlink:href="#Cmmi10-70" transform="translate(197.558594 0.109375)"/>
     <use xlink:href="#Cmr10-28" transform="translate(247.851562 0.109375)"/>
     <use xlink:href="#Cmmi10-78" transform="translate(286.669922 0.109375)"/>
     <use xlink:href="#Cmr10-29" transform="translate(343.75 0.109375)"/>
     <use xlink:href="#DejaVuSerif-20" transform="translate(382.568359 0.109375)"/>
     <use xlink:href="#DejaVuSerif-62" transform="translate(414.355469 0.109375)"/>
     <use xlink:href="#DejaVuSerif-65" transform="translate(478.369141 0.109375)"/>
     <use xlink:href="#DejaVuSerif-20" transform="translate(537.548828 0.109375)"/>
     <use xlink:href="#DejaVuSerif-61" transform="translate(569.335938 0.109375)"/>
     <use xlink:href="#DejaVuSerif-20" transform="translate(628.955078 0.109375)"/>
     <use xlink:href="#DejaVuSerif-6e" transform="translate(660.742188 0.109375)"/>
     <use xlink:href="#DejaVuSerif-6f" transform="translate(725.146484 0.109375)"/>
     <use xlink:href="#DejaVuSerif-6e" transform="translate(785.351562 0.109375)"/>
     <use xlink:href="#DejaVuSerif-7a" transform="translate(849.755859 0.109375)"/>
     <use xlink:href="#DejaVuSerif-65" transform="translate(902.441406 0.109375)"/>
     <use xlink:href="#DejaVuSerif-72" transform="translate(961.621094 0.109375)"/>
     <use xlink:href="#DejaVuSerif-6f" transform="translate(1009.423828 0.109375)"/>
     <use xlink:href="#DejaVuSerif-20" transform="translate(1069.628906 0.109375)"/>
     <use xlink:href="#DejaVuSerif-70" transform="translate(1101.416016 0.109375)"/>
     <use xlink:href="#DejaVuSerif-6f" transform="translate(1165.429688 0.109375)"/>
     <use xlink:href="#DejaVuSerif-6c" transform="translate(1225.634766 0.109375)"/>
     <use xlink:href="#DejaVuSerif-79" transform="translate(1257.617188 0.109375)"/>
     <use xlink:href="#DejaVuSerif-6e" transform="translate(1314.111328 0.109375)"/>
     <use xlink:href="#DejaVuSerif-6f" transform="translate(1378.515625 0.109375)"/>
     <use xlink:href="#DejaVuSerif-6d" transform="translate(1438.720703 0.109375)"/>
     <use xlink:href="#DejaVuSerif-69" transform="translate(1533.544922 0.109375)"/>
     <use xlink:href="#DejaVuSerif-61" transform="translate(1565.527344 0.109375)"/>
     <use xlink:href="#DejaVuSerif-6c" transform="translate(1625.146484 0.109375)"/>
     <use xlink:href="#DejaVuSerif-20" transform="translate(1657.128906 0.109375)"/>
     <use xlink:href="#DejaVuSerif-6f" transform="translate(1688.916016 0.109375)"/>
     <use xlink:href="#DejaVuSerif-66" transform="translate(1749.121094 0.109375)"/>
     <use xlink:href="#DejaVuSerif-20" transform="translate(1786.132812 0.109375)"/>
     <use xlink:href="#DejaVuSerif-64" transform="translate(1817.919922 0.109375)"/>
     <use xlink:href="#DejaVuSerif-65" transform="translate(1881.933594 0.109375)"/>
     <use xlink:href="#DejaVuSerif-67" transform="translate(1941.113281 0.109375)"/>
     <use xlink:href="#DejaVuSerif-72" transform="translate(2005.126953 0.109375)"/>
     <use xlink:href="#DejaVuSerif-65" transform="translate(2052.929688 0.109375)"/>
     <use xlink:href="#DejaVuSerif-65" transform="translate(2112.109375 0.109375)"/>
     <use xlink:href="#DejaVuSerif-20" transform="translate(2171.289062 0.109375)"/>
     <use xlink:href="#DejaVuSerif-6c" transform="translate(2203.076172 0.109375)"/>
     <use xlink:href="#DejaVuSerif-65" transform="translate(2235.058594 0.109375)"/>
     <use xlink:href="#DejaVuSerif-73" transform="translate(2294.238281 0.109375)"/>
     <use xlink:href="#DejaVuSerif-73" transform="translate(2345.556641 0.109375)"/>
     <use xlink:href="#DejaVuSerif-20" transform="translate(2396.875 0.109375)"/>
     <use xlink:href="#DejaVuSerif-74" transform="translate(2428.662109 0.109375)"/>
     <use xlink:href="#DejaVuSerif-68" transform="translate(2468.847656 0.109375)"/>
     <use xlink:href="#DejaVuSerif-61" transform="translate(2533.251953 0.109375)"/>
     <use xlink:href="#DejaVuSerif-6e" transform="translate(2592.871094 0.109375)"/>
     <use xlink:href="#DejaVuSerif-20" transform="translate(2657.275391 0.109375)"/>
     <use xlink:href="#Cmr10-31" transform="translate(2689.0625 0.109375)"/>
     <use xlink:href="#Cmr10-39" transform="translate(2739.0625 0.109375)"/>
     <use xlink:href="#Cmr10-39" transform="translate(2789.0625 0.109375)"/>
     <use xlink:href="#Cmr10-32" transform="translate(2839.0625 0.109375)"/>
     <use xlink:href="#DejaVuSerif-20" transform="translate(2889.0625 0.109375)"/>
     <use xlink:href="#DejaVuSerif-68" transform="translate(2920.849609 0.109375)"/>
     <use xlink:href="#DejaVuSerif-61" transform="translate(2985.253906 0.109375)"/>
     <use xlink:href="#DejaVuSerif-76" transform="translate(3044.873047 0.109375)"/>
     <use xlink:href="#DejaVuSerif-69" transform="translate(3101.367188 0.109375)"/>
     <use xlink:href="#DejaVuSerif-6e" transform="translate(3133.349609 0.109375)"/>
     <use xlink:href="#DejaVuSerif-67" transform="translate(3197.753906 0.109375)"/>
     <use xlink:href="#DejaVuSerif-20" transform="translate(3261.767578 0.109375)"/>
     <use xlink:href="#DejaVuSerif-6e" transform="translate(3293.554688 0.109375)"/>
     <use xlink:href="#DejaVuSerif-6f" transform="translate(3357.958984 0.109375)"/>
     <use xlink:href="#DejaVuSerif-20" transform="translate(3418.164062 0.109375)"/>
     <use xlink:href="#DejaVuSerif-6e" transform="translate(3449.951172 0.109375)"/>
     <use xlink:href="#DejaVuSerif-6f" transform="translate(3514.355469 0.109375)"/>
     <use xlink:href="#DejaVuSerif-6e" transform="translate(3574.560547 0.109375)"/>
     <use xlink:href="#DejaVuSerif-63" transform="translate(3638.964844 0.109375)"/>
     <use xlink:href="#DejaVuSerif-6f" transform="translate(3694.970703 0.109375)"/>
     <use xlink:href="#DejaVuSerif-6e" transform="translate(3755.175781 0.109375)"/>
     <use xlink:href="#DejaVuSerif-73" transform="translate(3819.580078 0.109375)"/>
     <use xlink:href="#DejaVuSerif-74" transform="translate(3870.898438 0.109375)"/>
     <use xlink:href="#DejaVuSerif-61" transform="translate(3911.083984 0.109375)"/>
     <use xlink:href="#DejaVuSerif-6e" transform="translate(3970.703125 0.109375)"/>
     <use xlink:href="#DejaVuSerif-74" transform="translate(4035.107422 0.109375)"/>
     <use xlink:href="#DejaVuSerif-20" transform="translate(4075.292969 0.109375)"/>
     <use xlink:href="#DejaVuSerif-66" transform="translate(4107.080078 0.109375)"/>
     <use xlink:href="#DejaVuSerif-61" transform="translate(4144.091797 0.109375)"/>
     <use xlink:href="#DejaVuSerif-63" transform="translate(4203.710938 0.109375)"/>
     <use xlink:href="#DejaVuSerif-74" transform="translate(4259.716797 0.109375)"/>
     <use xlink:href="#DejaVuSerif-6f" transform="translate(4299.902344 0.109375)"/>
     <use xlink:href="#DejaVuSerif-72" transform="translate(4360.107422 0.109375)"/>
     <use xlink:href="#DejaVuSerif-20" transform="translate(4407.910156 0.109375)"/>
     <use xlink:href="#DejaVuSerif-69" transform="translate(4439.697266 0.109375)"/>
     <use xlink:href="#DejaVuSerif-6e" transform="translate(4471.679688 0.109375)"/>
     <use xlink:href="#DejaVuSerif-20" transform="translate(4536.083984 0.109375)"/>
     <use xlink:href="#DejaVuSerif-63" transform="translate(4567.871094 0.109375)"/>
     <use xlink:href="#DejaVuSerif-6f" transform="translate(4623.876953 0.109375)"/>
     <use xlink:href="#DejaVuSerif-6d" transform="translate(4684.082031 0.109375)"/>
     <use xlink:href="#DejaVuSerif-6d" transform="translate(4778.90625 0.109375)"/>
     <use xlink:href="#DejaVuSerif-6f" transform="translate(4873.730469 0.109375)"/>
     <use xlink:href="#DejaVuSerif-6e" transform="translate(4933.935547 0.109375)"/>
     <use xlink:href="#DejaVuSerif-20" transform="translate(4998.339844 0.109375)"/>
     <use xlink:href="#DejaVuSerif-77" transform="translate(5030.126953 0.109375)"/>
     <use xlink:href="#DejaVuSerif-69" transform="translate(5115.722656 0.109375)"/>
     <use xlink:href="#DejaVuSerif-74" transform="translate(5147.705078 0.109375)"/>
     <use xlink:href="#DejaVuSerif-68" transform="translate(5187.890625 0.109375)"/>
     <use xlink:href="#DejaVuSerif-20" transform="translate(5252.294922 0.109375)"/>
     <use xlink:href="#Cmmi10-78" transform="translate(5284.082031 0.109375)"/>
     <use xlink:href="#Cmr10-33" transform="translate(5347.465391 38.373438) scale(0.7)"/>
     <use xlink:href="#Cmsy10-a1" transform="translate(5406.401328 0.109375)"/>
     <use xlink:href="#Cmmi10-78" transform="translate(5501.645469 0.109375)"/>
     <use xlink:href="#DejaVuSerif-2e" transform="translate(5558.725547 0.109375)"/>
     <use xlink:href="#DejaVuSerif-20" transform="translate(5590.512656 0.109375)"/>
     <use xlink:href="#DejaVuSerif-4c" transform="translate(5622.299766 0.109375)"/>
     <use xlink:href="#DejaVuSerif-65" transform="translate(5688.706016 0.109375)"/>
     <use xlink:href="#DejaVuSerif-74" transform="translate(5747.885703 0.109375)"/>
    </g>
    <!-- \[ -->
    <g transform="translate(350.177813 104.528375) scale(0.12 -0.12)">
     <defs>
      <path id="DejaVuSerif-5c" d="M 500 4666 
L 2156 -594 
L 1656 -594 
L 0 4666 
L 500 4666 
z
" transform="scale(0.015625)"/>
      <path id="DejaVuSerif-5b" d="M 550 4863 
L 2003 4863 
L 2003 4531 
L 1147 4531 
L 1147 -513 
L 2003 -513 
L 2003 -844 
L 550 -844 
L 550 4863 
z
" transform="scale(0.015625)"/>
     </defs>
     <use xlink:href="#DejaVuSerif-5c"/>
     <use xlink:href="#DejaVuSerif-5b" transform="translate(33.691406 0)"/>
    </g>
    <!-- \frac{d^{1992}}{dx^{1992}} \leqft( \frac{p(x)}{x^3 - x} \right) = \frac{f(x)}{g(x)} -->
    <g transform="translate(91.970625 117.96575) scale(0.12 -0.12)">
     <defs>
      <path id="DejaVuSerif-7b" d="M 3272 -716 
L 3272 -1044 
L 3078 -1044 
Q 2300 -1044 2036 -812 
Q 1772 -581 1772 109 
L 1772 916 
Q 1772 1384 1603 1565 
Q 1434 1747 991 1747 
L 800 1747 
L 800 2075 
L 991 2075 
Q 1434 2075 1603 2256 
Q 1772 2438 1772 2906 
L 1772 3713 
Q 1772 4403 2036 4633 
Q 2300 4863 3078 4863 
L 3272 4863 
L 3272 4538 
L 3059 4538 
Q 2619 4538 2484 4400 
Q 2350 4263 2350 3822 
L 2350 2925 
Q 2350 2431 2194 2218 
Q 2038 2006 1631 1913 
Q 2044 1806 2197 1597 
Q 2350 1388 2350 897 
L 2350 0 
Q 2350 -441 2484 -578 
Q 2619 -716 3059 -716 
L 3272 -716 
z
" transform="scale(0.015625)"/>
      <path id="DejaVuSerif-5e" d="M 2988 4666 
L 4684 2925 
L 4206 2925 
L 2681 4116 
L 1159 2925 
L 678 2925 
L 2375 4666 
L 2988 4666 
z
" transform="scale(0.015625)"/>
      <path id="DejaVuSerif-31" d="M 909 0 
L 909 331 
L 1722 331 
L 1722 4213 
L 781 3603 
L 781 4013 
L 1919 4750 
L 2350 4750 
L 2350 331 
L 3163 331 
L 3163 0 
L 909 0 
z
" transform="scale(0.015625)"/>
      <path id="DejaVuSerif-39" d="M 2994 2091 
Q 2784 1856 2512 1740 
Q 2241 1625 1900 1625 
Q 1206 1625 804 2044 
Q 403 2463 403 3188 
Q 403 3897 839 4323 
Q 1275 4750 2003 4750 
Q 2794 4750 3217 4161 
Q 3641 3572 3641 2478 
Q 3641 1253 3137 581 
Q 2634 -91 1722 -91 
Q 1475 -91 1203 -44 
Q 931 3 647 97 
L 647 872 
L 997 872 
Q 1038 556 1241 387 
Q 1444 219 1784 219 
Q 2391 219 2687 676 
Q 2984 1134 2994 2091 
z
M 1978 4441 
Q 1534 4441 1298 4117 
Q 1063 3794 1063 3188 
Q 1063 2581 1298 2256 
Q 1534 1931 1978 1931 
Q 2422 1931 2658 2245 
Q 2894 2559 2894 3150 
Q 2894 3772 2656 4106 
Q 2419 4441 1978 4441 
z
" transform="scale(0.015625)"/>
      <path id="DejaVuSerif-32" d="M 819 3553 
L 469 3553 
L 469 4384 
Q 803 4563 1142 4656 
Q 1481 4750 1806 4750 
Q 2534 4750 2956 4397 
Q 3378 4044 3378 3438 
Q 3378 2753 2422 1800 
Q 2347 1728 2309 1691 
L 1131 513 
L 3078 513 
L 3078 1088 
L 3444 1088 
L 3444 0 
L 434 0 
L 434 341 
L 1850 1753 
Q 2319 2222 2519 2614 
Q 2719 3006 2719 3438 
Q 2719 3909 2473 4175 
Q 2228 4441 1797 4441 
Q 1350 4441 1106 4219 
Q 863 3997 819 3553 
z
" transform="scale(0.015625)"/>
      <path id="DejaVuSerif-7d" d="M 800 -716 
L 1019 -716 
Q 1456 -716 1589 -580 
Q 1722 -444 1722 0 
L 1722 897 
Q 1722 1388 1875 1597 
Q 2028 1806 2438 1913 
Q 2031 2006 1876 2218 
Q 1722 2431 1722 2925 
L 1722 3822 
Q 1722 4266 1589 4402 
Q 1456 4538 1019 4538 
L 800 4538 
L 800 4863 
L 997 4863 
Q 1775 4863 2036 4633 
Q 2297 4403 2297 3713 
L 2297 2906 
Q 2297 2438 2465 2256 
Q 2634 2075 3078 2075 
L 3272 2075 
L 3272 1747 
L 3078 1747 
Q 2634 1747 2465 1565 
Q 2297 1384 2297 916 
L 2297 109 
Q 2297 -581 2036 -812 
Q 1775 -1044 997 -1044 
L 800 -1044 
L 800 -716 
z
" transform="scale(0.015625)"/>
      <path id="DejaVuSerif-78" d="M 1863 2028 
L 2559 2988 
L 2113 2988 
L 2113 3322 
L 3391 3322 
L 3391 2988 
L 2950 2988 
L 2059 1759 
L 3097 331 
L 3531 331 
L 3531 0 
L 1997 0 
L 1997 331 
L 2419 331 
L 1697 1325 
L 972 331 
L 1403 331 
L 1403 0 
L 141 0 
L 141 331 
L 581 331 
L 1497 1594 
L 488 2988 
L 78 2988 
L 78 3322 
L 1563 3322 
L 1563 2988 
L 1166 2988 
L 1863 2028 
z
" transform="scale(0.015625)"/>
      <path id="DejaVuSerif-71" d="M 3359 2988 
L 3359 -997 
L 3909 -997 
L 3909 -1331 
L 2241 -1331 
L 2241 -997 
L 2784 -997 
L 2784 519 
Q 2616 206 2355 57 
Q 2094 -91 1709 -91 
Q 1097 -91 708 395 
Q 319 881 319 1663 
Q 319 2444 706 2928 
Q 1094 3413 1709 3413 
Q 2094 3413 2355 3264 
Q 2616 3116 2784 2803 
L 2784 3322 
L 3909 3322 
L 3909 2988 
L 3359 2988 
z
M 2784 1825 
Q 2784 2422 2554 2737 
Q 2325 3053 1888 3053 
Q 1444 3053 1217 2703 
Q 991 2353 991 1663 
Q 991 975 1217 622 
Q 1444 269 1888 269 
Q 2325 269 2554 583 
Q 2784 897 2784 1497 
L 2784 1825 
z
" transform="scale(0.015625)"/>
      <path id="DejaVuSerif-28" d="M 2041 -997 
Q 1281 -656 893 83 
Q 506 822 506 1931 
Q 506 3044 893 3783 
Q 1281 4522 2041 4863 
L 2041 4556 
Q 1559 4225 1350 3623 
Q 1141 3022 1141 1931 
Q 1141 844 1350 242 
Q 1559 -359 2041 -691 
L 2041 -997 
z
" transform="scale(0.015625)"/>
      <path id="DejaVuSerif-29" d="M 453 -997 
L 453 -691 
Q 934 -359 1145 242 
Q 1356 844 1356 1931 
Q 1356 3022 1145 3623 
Q 934 4225 453 4556 
L 453 4863 
Q 1216 4522 1603 3783 
Q 1991 3044 1991 1931 
Q 1991 822 1603 83 
Q 1216 -656 453 -997 
z
" transform="scale(0.015625)"/>
      <path id="DejaVuSerif-33" d="M 622 4469 
Q 988 4606 1323 4678 
Q 1659 4750 1953 4750 
Q 2638 4750 3022 4454 
Q 3406 4159 3406 3634 
Q 3406 3213 3140 2930 
Q 2875 2647 2388 2547 
Q 2963 2466 3280 2130 
Q 3597 1794 3597 1259 
Q 3597 606 3158 257 
Q 2719 -91 1894 -91 
Q 1528 -91 1179 -12 
Q 831 66 488 225 
L 488 1131 
L 838 1131 
Q 869 681 1141 450 
Q 1413 219 1906 219 
Q 2384 219 2661 495 
Q 2938 772 2938 1253 
Q 2938 1803 2653 2086 
Q 2369 2369 1819 2369 
L 1522 2369 
L 1522 2688 
L 1678 2688 
Q 2225 2688 2498 2914 
Q 2772 3141 2772 3597 
Q 2772 4006 2547 4223 
Q 2322 4441 1900 4441 
Q 1478 4441 1245 4241 
Q 1013 4041 972 3647 
L 622 3647 
L 622 4469 
z
" transform="scale(0.015625)"/>
      <path id="DejaVuSerif-2d" d="M 281 1959 
L 1881 1959 
L 1881 1472 
L 281 1472 
L 281 1959 
z
" transform="scale(0.015625)"/>
      <path id="DejaVuSerif-3d" d="M 678 2894 
L 4684 2894 
L 4684 2394 
L 678 2394 
L 678 2894 
z
M 678 1619 
L 4684 1619 
L 4684 1119 
L 678 1119 
L 678 1619 
z
" transform="scale(0.015625)"/>
     </defs>
     <use xlink:href="#DejaVuSerif-5c"/>
     <use xlink:href="#DejaVuSerif-66" transform="translate(33.691406 0)"/>
     <use xlink:href="#DejaVuSerif-72" transform="translate(70.703125 0)"/>
     <use xlink:href="#DejaVuSerif-61" transform="translate(118.505859 0)"/>
     <use xlink:href="#DejaVuSerif-63" transform="translate(178.125 0)"/>
     <use xlink:href="#DejaVuSerif-7b" transform="translate(234.130859 0)"/>
     <use xlink:href="#DejaVuSerif-64" transform="translate(297.753906 0)"/>
     <use xlink:href="#DejaVuSerif-5e" transform="translate(361.767578 0)"/>
     <use xlink:href="#DejaVuSerif-7b" transform="translate(445.556641 0)"/>
     <use xlink:href="#DejaVuSerif-31" transform="translate(509.179688 0)"/>
     <use xlink:href="#DejaVuSerif-39" transform="translate(572.802734 0)"/>
     <use xlink:href="#DejaVuSerif-39" transform="translate(636.425781 0)"/>
     <use xlink:href="#DejaVuSerif-32" transform="translate(700.048828 0)"/>
     <use xlink:href="#DejaVuSerif-7d" transform="translate(763.671875 0)"/>
     <use xlink:href="#DejaVuSerif-7d" transform="translate(827.294922 0)"/>
     <use xlink:href="#DejaVuSerif-7b" transform="translate(890.917969 0)"/>
     <use xlink:href="#DejaVuSerif-64" transform="translate(954.541016 0)"/>
     <use xlink:href="#DejaVuSerif-78" transform="translate(1018.554688 0)"/>
     <use xlink:href="#DejaVuSerif-5e" transform="translate(1074.951172 0)"/>
     <use xlink:href="#DejaVuSerif-7b" transform="translate(1158.740234 0)"/>
     <use xlink:href="#DejaVuSerif-31" transform="translate(1222.363281 0)"/>
     <use xlink:href="#DejaVuSerif-39" transform="translate(1285.986328 0)"/>
     <use xlink:href="#DejaVuSerif-39" transform="translate(1349.609375 0)"/>
     <use xlink:href="#DejaVuSerif-32" transform="translate(1413.232422 0)"/>
     <use xlink:href="#DejaVuSerif-7d" transform="translate(1476.855469 0)"/>
     <use xlink:href="#DejaVuSerif-7d" transform="translate(1540.478516 0)"/>
     <use xlink:href="#DejaVuSerif-20" transform="translate(1604.101562 0)"/>
     <use xlink:href="#DejaVuSerif-5c" transform="translate(1635.888672 0)"/>
     <use xlink:href="#DejaVuSerif-6c" transform="translate(1669.580078 0)"/>
     <use xlink:href="#DejaVuSerif-65" transform="translate(1701.5625 0)"/>
     <use xlink:href="#DejaVuSerif-71" transform="translate(1760.742188 0)"/>
     <use xlink:href="#DejaVuSerif-66" transform="translate(1824.755859 0)"/>
     <use xlink:href="#DejaVuSerif-74" transform="translate(1861.767578 0)"/>
     <use xlink:href="#DejaVuSerif-28" transform="translate(1901.953125 0)"/>
     <use xlink:href="#DejaVuSerif-20" transform="translate(1940.966797 0)"/>
     <use xlink:href="#DejaVuSerif-5c" transform="translate(1972.753906 0)"/>
     <use xlink:href="#DejaVuSerif-66" transform="translate(2006.445312 0)"/>
     <use xlink:href="#DejaVuSerif-72" transform="translate(2043.457031 0)"/>
     <use xlink:href="#DejaVuSerif-61" transform="translate(2091.259766 0)"/>
     <use xlink:href="#DejaVuSerif-63" transform="translate(2150.878906 0)"/>
     <use xlink:href="#DejaVuSerif-7b" transform="translate(2206.884766 0)"/>
     <use xlink:href="#DejaVuSerif-70" transform="translate(2270.507812 0)"/>
     <use xlink:href="#DejaVuSerif-28" transform="translate(2334.521484 0)"/>
     <use xlink:href="#DejaVuSerif-78" transform="translate(2373.535156 0)"/>
     <use xlink:href="#DejaVuSerif-29" transform="translate(2429.931641 0)"/>
     <use xlink:href="#DejaVuSerif-7d" transform="translate(2468.945312 0)"/>
     <use xlink:href="#DejaVuSerif-7b" transform="translate(2532.568359 0)"/>
     <use xlink:href="#DejaVuSerif-78" transform="translate(2596.191406 0)"/>
     <use xlink:href="#DejaVuSerif-5e" transform="translate(2652.587891 0)"/>
     <use xlink:href="#DejaVuSerif-33" transform="translate(2736.376953 0)"/>
     <use xlink:href="#DejaVuSerif-20" transform="translate(2800 0)"/>
     <use xlink:href="#DejaVuSerif-2d" transform="translate(2831.787109 0)"/>
     <use xlink:href="#DejaVuSerif-20" transform="translate(2865.576172 0)"/>
     <use xlink:href="#DejaVuSerif-78" transform="translate(2897.363281 0)"/>
     <use xlink:href="#DejaVuSerif-7d" transform="translate(2953.759766 0)"/>
     <use xlink:href="#DejaVuSerif-20" transform="translate(3017.382812 0)"/>
     <use xlink:href="#DejaVuSerif-5c" transform="translate(3049.169922 0)"/>
     <use xlink:href="#DejaVuSerif-72" transform="translate(3082.861328 0)"/>
     <use xlink:href="#DejaVuSerif-69" transform="translate(3130.664062 0)"/>
     <use xlink:href="#DejaVuSerif-67" transform="translate(3162.646484 0)"/>
     <use xlink:href="#DejaVuSerif-68" transform="translate(3226.660156 0)"/>
     <use xlink:href="#DejaVuSerif-74" transform="translate(3291.064453 0)"/>
     <use xlink:href="#DejaVuSerif-29" transform="translate(3331.25 0)"/>
     <use xlink:href="#DejaVuSerif-20" transform="translate(3370.263672 0)"/>
     <use xlink:href="#DejaVuSerif-3d" transform="translate(3402.050781 0)"/>
     <use xlink:href="#DejaVuSerif-20" transform="translate(3485.839844 0)"/>
     <use xlink:href="#DejaVuSerif-5c" transform="translate(3517.626953 0)"/>
     <use xlink:href="#DejaVuSerif-66" transform="translate(3551.318359 0)"/>
     <use xlink:href="#DejaVuSerif-72" transform="translate(3588.330078 0)"/>
     <use xlink:href="#DejaVuSerif-61" transform="translate(3636.132812 0)"/>
     <use xlink:href="#DejaVuSerif-63" transform="translate(3695.751953 0)"/>
     <use xlink:href="#DejaVuSerif-7b" transform="translate(3751.757812 0)"/>
     <use xlink:href="#DejaVuSerif-66" transform="translate(3815.380859 0)"/>
     <use xlink:href="#DejaVuSerif-28" transform="translate(3852.392578 0)"/>
     <use xlink:href="#DejaVuSerif-78" transform="translate(3891.40625 0)"/>
     <use xlink:href="#DejaVuSerif-29" transform="translate(3947.802734 0)"/>
     <use xlink:href="#DejaVuSerif-7d" transform="translate(3986.816406 0)"/>
     <use xlink:href="#DejaVuSerif-7b" transform="translate(4050.439453 0)"/>
     <use xlink:href="#DejaVuSerif-67" transform="translate(4114.0625 0)"/>
     <use xlink:href="#DejaVuSerif-28" transform="translate(4178.076172 0)"/>
     <use xlink:href="#DejaVuSerif-78" transform="translate(4217.089844 0)"/>
     <use xlink:href="#DejaVuSerif-29" transform="translate(4273.486328 0)"/>
     <use xlink:href="#DejaVuSerif-7d" transform="translate(4312.5 0)"/>
    </g>
    <!-- \] -->
    <g transform="translate(350.177813 131.57375) scale(0.12 -0.12)">
     <defs>
      <path id="DejaVuSerif-5d" d="M 1947 4863 
L 1947 -844 
L 494 -844 
L 494 -513 
L 1350 -513 
L 1350 4531 
L 494 4531 
L 494 4863 
L 1947 4863 
z
" transform="scale(0.015625)"/>
     </defs>
     <use xlink:href="#DejaVuSerif-5c"/>
     <use xlink:href="#DejaVuSerif-5d" transform="translate(33.691406 0)"/>
    </g>
    <!-- for polynomials $f(x)$ and $g(x)$. Find the smallest possible degree of $f(x)$. -->
    <g transform="translate(139.62 145.013375) scale(0.12 -0.12)">
     <defs>
      <path id="Cmmi10-66" d="M 622 -1056 
Q 741 -1147 909 -1147 
Q 1138 -1147 1281 -641 
Q 1341 -397 1606 966 
L 1900 2534 
L 1350 2534 
Q 1288 2534 1288 2619 
Q 1313 2759 1369 2759 
L 1941 2759 
L 2016 3175 
Q 2053 3369 2084 3508 
Q 2116 3647 2152 3765 
Q 2188 3884 2259 4031 
Q 2369 4241 2555 4377 
Q 2741 4513 2956 4513 
Q 3097 4513 3230 4461 
Q 3363 4409 3447 4306 
Q 3531 4203 3531 4063 
Q 3531 3900 3423 3779 
Q 3316 3659 3163 3659 
Q 3059 3659 2986 3723 
Q 2913 3788 2913 3891 
Q 2913 4031 3008 4136 
Q 3103 4241 3244 4256 
Q 3125 4347 2950 4347 
Q 2853 4347 2767 4256 
Q 2681 4166 2656 4063 
Q 2616 3900 2478 3181 
L 2400 2759 
L 3059 2759 
Q 3122 2759 3122 2675 
Q 3119 2659 3109 2620 
Q 3100 2581 3083 2557 
Q 3066 2534 3041 2534 
L 2356 2534 
L 2059 972 
Q 2003 631 1929 279 
Q 1856 -72 1723 -442 
Q 1591 -813 1384 -1063 
Q 1178 -1313 897 -1313 
Q 681 -1313 511 -1189 
Q 341 -1066 341 -863 
Q 341 -700 445 -579 
Q 550 -459 709 -459 
Q 816 -459 887 -523 
Q 959 -588 959 -691 
Q 959 -828 857 -942 
Q 756 -1056 622 -1056 
z
" transform="scale(0.015625)"/>
      <path id="Cmmi10-67" d="M 91 -916 
Q 91 -759 198 -642 
Q 306 -525 459 -525 
Q 563 -525 633 -589 
Q 703 -653 703 -756 
Q 703 -872 637 -964 
Q 572 -1056 469 -1094 
Q 641 -1147 1006 -1147 
Q 1300 -1147 1544 -920 
Q 1788 -694 1863 -397 
L 2047 353 
Q 1700 0 1325 0 
Q 1050 0 854 140 
Q 659 281 556 515 
Q 453 750 453 1013 
Q 453 1306 573 1628 
Q 694 1950 911 2225 
Q 1128 2500 1409 2664 
Q 1691 2828 2003 2828 
Q 2191 2828 2341 2725 
Q 2491 2622 2578 2450 
Q 2641 2700 2853 2700 
Q 2934 2700 2990 2651 
Q 3047 2603 3047 2522 
Q 3047 2503 3045 2493 
Q 3044 2484 3041 2472 
L 2309 -434 
Q 2259 -634 2125 -800 
Q 1991 -966 1809 -1077 
Q 1628 -1188 1412 -1250 
Q 1197 -1313 997 -1313 
Q 631 -1313 361 -1242 
Q 91 -1172 91 -916 
z
M 1338 166 
Q 1747 166 2144 728 
L 2497 2125 
Q 2453 2347 2322 2505 
Q 2191 2663 1991 2663 
Q 1778 2663 1589 2489 
Q 1400 2316 1275 2075 
Q 1156 1844 1045 1411 
Q 934 978 934 728 
Q 934 509 1034 337 
Q 1134 166 1338 166 
z
" transform="scale(0.015625)"/>
      <path id="DejaVuSerif-46" d="M 353 0 
L 353 331 
L 947 331 
L 947 4331 
L 353 4331 
L 353 4666 
L 4172 4666 
L 4172 3628 
L 3788 3628 
L 3788 4281 
L 1581 4281 
L 1581 2719 
L 3175 2719 
L 3175 3303 
L 3559 3303 
L 3559 1753 
L 3175 1753 
L 3175 2338 
L 1581 2338 
L 1581 331 
L 2328 331 
L 2328 0 
L 353 0 
z
" transform="scale(0.015625)"/>
     </defs>
     <use xlink:href="#DejaVuSerif-66" transform="translate(0 0.015625)"/>
     <use xlink:href="#DejaVuSerif-6f" transform="translate(37.011719 0.015625)"/>
     <use xlink:href="#DejaVuSerif-72" transform="translate(97.216797 0.015625)"/>
     <use xlink:href="#DejaVuSerif-20" transform="translate(145.019531 0.015625)"/>
     <use xlink:href="#DejaVuSerif-70" transform="translate(176.806641 0.015625)"/>
     <use xlink:href="#DejaVuSerif-6f" transform="translate(240.820312 0.015625)"/>
     <use xlink:href="#DejaVuSerif-6c" transform="translate(301.025391 0.015625)"/>
     <use xlink:href="#DejaVuSerif-79" transform="translate(333.007812 0.015625)"/>
     <use xlink:href="#DejaVuSerif-6e" transform="translate(389.501953 0.015625)"/>
     <use xlink:href="#DejaVuSerif-6f" transform="translate(453.90625 0.015625)"/>
     <use xlink:href="#DejaVuSerif-6d" transform="translate(514.111328 0.015625)"/>
     <use xlink:href="#DejaVuSerif-69" transform="translate(608.935547 0.015625)"/>
     <use xlink:href="#DejaVuSerif-61" transform="translate(640.917969 0.015625)"/>
     <use xlink:href="#DejaVuSerif-6c" transform="translate(700.537109 0.015625)"/>
     <use xlink:href="#DejaVuSerif-73" transform="translate(732.519531 0.015625)"/>
     <use xlink:href="#DejaVuSerif-20" transform="translate(783.837891 0.015625)"/>
     <use xlink:href="#Cmmi10-66" transform="translate(815.625 0.015625)"/>
     <use xlink:href="#Cmr10-28" transform="translate(864.501953 0.015625)"/>
     <use xlink:href="#Cmmi10-78" transform="translate(903.320312 0.015625)"/>
     <use xlink:href="#Cmr10-29" transform="translate(960.400391 0.015625)"/>
     <use xlink:href="#DejaVuSerif-20" transform="translate(999.21875 0.015625)"/>
     <use xlink:href="#DejaVuSerif-61" transform="translate(1031.005859 0.015625)"/>
     <use xlink:href="#DejaVuSerif-6e" transform="translate(1090.625 0.015625)"/>
     <use xlink:href="#DejaVuSerif-64" transform="translate(1155.029297 0.015625)"/>
     <use xlink:href="#DejaVuSerif-20" transform="translate(1219.042969 0.015625)"/>
     <use xlink:href="#Cmmi10-67" transform="translate(1250.830078 0.015625)"/>
     <use xlink:href="#Cmr10-28" transform="translate(1298.535156 0.015625)"/>
     <use xlink:href="#Cmmi10-78" transform="translate(1337.353516 0.015625)"/>
     <use xlink:href="#Cmr10-29" transform="translate(1394.433594 0.015625)"/>
     <use xlink:href="#DejaVuSerif-2e" transform="translate(1433.251953 0.015625)"/>
     <use xlink:href="#DejaVuSerif-20" transform="translate(1465.039062 0.015625)"/>
     <use xlink:href="#DejaVuSerif-46" transform="translate(1496.826172 0.015625)"/>
     <use xlink:href="#DejaVuSerif-69" transform="translate(1566.210938 0.015625)"/>
     <use xlink:href="#DejaVuSerif-6e" transform="translate(1598.193359 0.015625)"/>
     <use xlink:href="#DejaVuSerif-64" transform="translate(1662.597656 0.015625)"/>
     <use xlink:href="#DejaVuSerif-20" transform="translate(1726.611328 0.015625)"/>
     <use xlink:href="#DejaVuSerif-74" transform="translate(1758.398438 0.015625)"/>
     <use xlink:href="#DejaVuSerif-68" transform="translate(1798.583984 0.015625)"/>
     <use xlink:href="#DejaVuSerif-65" transform="translate(1862.988281 0.015625)"/>
     <use xlink:href="#DejaVuSerif-20" transform="translate(1922.167969 0.015625)"/>
     <use xlink:href="#DejaVuSerif-73" transform="translate(1953.955078 0.015625)"/>
     <use xlink:href="#DejaVuSerif-6d" transform="translate(2005.273438 0.015625)"/>
     <use xlink:href="#DejaVuSerif-61" transform="translate(2100.097656 0.015625)"/>
     <use xlink:href="#DejaVuSerif-6c" transform="translate(2159.716797 0.015625)"/>
     <use xlink:href="#DejaVuSerif-6c" transform="translate(2191.699219 0.015625)"/>
     <use xlink:href="#DejaVuSerif-65" transform="translate(2223.681641 0.015625)"/>
     <use xlink:href="#DejaVuSerif-73" transform="translate(2282.861328 0.015625)"/>
     <use xlink:href="#DejaVuSerif-74" transform="translate(2334.179688 0.015625)"/>
     <use xlink:href="#DejaVuSerif-20" transform="translate(2374.365234 0.015625)"/>
     <use xlink:href="#DejaVuSerif-70" transform="translate(2406.152344 0.015625)"/>
     <use xlink:href="#DejaVuSerif-6f" transform="translate(2470.166016 0.015625)"/>
     <use xlink:href="#DejaVuSerif-73" transform="translate(2530.371094 0.015625)"/>
     <use xlink:href="#DejaVuSerif-73" transform="translate(2581.689453 0.015625)"/>
     <use xlink:href="#DejaVuSerif-69" transform="translate(2633.007812 0.015625)"/>
     <use xlink:href="#DejaVuSerif-62" transform="translate(2664.990234 0.015625)"/>
     <use xlink:href="#DejaVuSerif-6c" transform="translate(2729.003906 0.015625)"/>
     <use xlink:href="#DejaVuSerif-65" transform="translate(2760.986328 0.015625)"/>
     <use xlink:href="#DejaVuSerif-20" transform="translate(2820.166016 0.015625)"/>
     <use xlink:href="#DejaVuSerif-64" transform="translate(2851.953125 0.015625)"/>
     <use xlink:href="#DejaVuSerif-65" transform="translate(2915.966797 0.015625)"/>
     <use xlink:href="#DejaVuSerif-67" transform="translate(2975.146484 0.015625)"/>
     <use xlink:href="#DejaVuSerif-72" transform="translate(3039.160156 0.015625)"/>
     <use xlink:href="#DejaVuSerif-65" transform="translate(3086.962891 0.015625)"/>
     <use xlink:href="#DejaVuSerif-65" transform="translate(3146.142578 0.015625)"/>
     <use xlink:href="#DejaVuSerif-20" transform="translate(3205.322266 0.015625)"/>
     <use xlink:href="#DejaVuSerif-6f" transform="translate(3237.109375 0.015625)"/>
     <use xlink:href="#DejaVuSerif-66" transform="translate(3297.314453 0.015625)"/>
     <use xlink:href="#DejaVuSerif-20" transform="translate(3334.326172 0.015625)"/>
     <use xlink:href="#Cmmi10-66" transform="translate(3366.113281 0.015625)"/>
     <use xlink:href="#Cmr10-28" transform="translate(3414.990234 0.015625)"/>
     <use xlink:href="#Cmmi10-78" transform="translate(3453.808594 0.015625)"/>
     <use xlink:href="#Cmr10-29" transform="translate(3510.888672 0.015625)"/>
     <use xlink:href="#DejaVuSerif-2e" transform="translate(3549.707031 0.015625)"/>
    </g>
   </g>
  </g>
 </g>
</svg>
