<?xml version="1.0" encoding="utf-8" standalone="no"?>
<!DOCTYPE svg PUBLIC "-//W3C//DTD SVG 1.1//EN"
  "http://www.w3.org/Graphics/SVG/1.1/DTD/svg11.dtd">
<svg xmlns:xlink="http://www.w3.org/1999/xlink" width="563.285585pt" height="228.4pt" viewBox="0 0 563.285585 228.4" xmlns="http://www.w3.org/2000/svg" version="1.1">
 <metadata>
  <rdf:RDF xmlns:dc="http://purl.org/dc/elements/1.1/" xmlns:cc="http://creativecommons.org/ns#" xmlns:rdf="http://www.w3.org/1999/02/22-rdf-syntax-ns#">
   <cc:Work>
    <dc:type rdf:resource="http://purl.org/dc/dcmitype/StillImage"/>
    <dc:date>2025-05-29T18:44:21.002636</dc:date>
    <dc:format>image/svg+xml</dc:format>
    <dc:creator>
     <cc:Agent>
      <dc:title>Matplotlib v3.10.3, https://matplotlib.org/</dc:title>
     </cc:Agent>
    </dc:creator>
   </cc:Work>
  </rdf:RDF>
 </metadata>
 <defs>
  <style type="text/css">*{stroke-linejoin: round; stroke-linecap: butt}</style>
 </defs>
 <g id="figure_1">
  <g id="patch_1">
   <path d="M 0 228.4 
L 563.285585 228.4 
L 563.285585 0 
L 0 0 
z
" style="fill: #ffffff"/>
  </g>
  <g id="axes_1">
   <g id="text_1">
    <!-- For a positive integer $N$, let $f_N$ be the function defined by -->
    <g transform="translate(107.042792 90.085063) scale(0.12 -0.12)">
     <defs>
      <path id="DejaVuSerif-46" d="M 353 0 
L 353 331 
L 947 331 
L 947 4331 
L 353 4331 
L 353 4666 
L 4172 4666 
L 4172 3628 
L 3788 3628 
L 3788 4281 
L 1581 4281 
L 1581 2719 
L 3175 2719 
L 3175 3303 
L 3559 3303 
L 3559 1753 
L 3175 1753 
L 3175 2338 
L 1581 2338 
L 1581 331 
L 2328 331 
L 2328 0 
L 353 0 
z
" transform="scale(0.015625)"/>
      <path id="DejaVuSerif-6f" d="M 1925 219 
Q 2388 219 2623 584 
Q 2859 950 2859 1663 
Q 2859 2375 2623 2739 
Q 2388 3103 1925 3103 
Q 1463 3103 1227 2739 
Q 991 2375 991 1663 
Q 991 950 1228 584 
Q 1466 219 1925 219 
z
M 1925 -91 
Q 1200 -91 759 389 
Q 319 869 319 1663 
Q 319 2456 758 2934 
Q 1197 3413 1925 3413 
Q 2653 3413 3092 2934 
Q 3531 2456 3531 1663 
Q 3531 869 3092 389 
Q 2653 -91 1925 -91 
z
" transform="scale(0.015625)"/>
      <path id="DejaVuSerif-72" d="M 3059 3328 
L 3059 2497 
L 2728 2497 
Q 2713 2744 2591 2866 
Q 2469 2988 2234 2988 
Q 1809 2988 1582 2694 
Q 1356 2400 1356 1850 
L 1356 331 
L 2022 331 
L 2022 0 
L 263 0 
L 263 331 
L 781 331 
L 781 2994 
L 231 2994 
L 231 3322 
L 1356 3322 
L 1356 2731 
Q 1525 3078 1790 3245 
Q 2056 3413 2438 3413 
Q 2578 3413 2733 3391 
Q 2888 3369 3059 3328 
z
" transform="scale(0.015625)"/>
      <path id="DejaVuSerif-20" transform="scale(0.015625)"/>
      <path id="DejaVuSerif-61" d="M 2547 1044 
L 2547 1747 
L 1806 1747 
Q 1378 1747 1168 1562 
Q 959 1378 959 997 
Q 959 650 1171 447 
Q 1384 244 1747 244 
Q 2106 244 2326 466 
Q 2547 688 2547 1044 
z
M 3122 2075 
L 3122 331 
L 3634 331 
L 3634 0 
L 2547 0 
L 2547 359 
Q 2356 128 2106 18 
Q 1856 -91 1522 -91 
Q 969 -91 644 203 
Q 319 497 319 997 
Q 319 1513 691 1797 
Q 1063 2081 1741 2081 
L 2547 2081 
L 2547 2309 
Q 2547 2688 2317 2895 
Q 2088 3103 1672 3103 
Q 1328 3103 1125 2947 
Q 922 2791 872 2484 
L 575 2484 
L 575 3156 
Q 875 3284 1158 3348 
Q 1441 3413 1709 3413 
Q 2400 3413 2761 3070 
Q 3122 2728 3122 2075 
z
" transform="scale(0.015625)"/>
      <path id="DejaVuSerif-70" d="M 1313 1825 
L 1313 1497 
Q 1313 897 1542 583 
Q 1772 269 2209 269 
Q 2650 269 2876 622 
Q 3103 975 3103 1663 
Q 3103 2353 2876 2703 
Q 2650 3053 2209 3053 
Q 1772 3053 1542 2737 
Q 1313 2422 1313 1825 
z
M 738 2988 
L 184 2988 
L 184 3322 
L 1313 3322 
L 1313 2803 
Q 1481 3116 1742 3264 
Q 2003 3413 2388 3413 
Q 3000 3413 3387 2928 
Q 3775 2444 3775 1663 
Q 3775 881 3387 395 
Q 3000 -91 2388 -91 
Q 2003 -91 1742 57 
Q 1481 206 1313 519 
L 1313 -997 
L 1856 -997 
L 1856 -1331 
L 184 -1331 
L 184 -997 
L 738 -997 
L 738 2988 
z
" transform="scale(0.015625)"/>
      <path id="DejaVuSerif-73" d="M 359 184 
L 359 959 
L 691 959 
Q 703 588 923 403 
Q 1144 219 1575 219 
Q 1963 219 2166 364 
Q 2369 509 2369 788 
Q 2369 1006 2220 1140 
Q 2072 1275 1594 1428 
L 1178 1569 
Q 750 1706 558 1912 
Q 366 2119 366 2438 
Q 366 2894 700 3153 
Q 1034 3413 1625 3413 
Q 1888 3413 2178 3344 
Q 2469 3275 2778 3144 
L 2778 2419 
L 2447 2419 
Q 2434 2741 2221 2922 
Q 2009 3103 1644 3103 
Q 1281 3103 1095 2975 
Q 909 2847 909 2591 
Q 909 2381 1050 2254 
Q 1191 2128 1613 1997 
L 2069 1856 
Q 2541 1709 2748 1489 
Q 2956 1269 2956 922 
Q 2956 450 2595 179 
Q 2234 -91 1600 -91 
Q 1278 -91 972 -22 
Q 666 47 359 184 
z
" transform="scale(0.015625)"/>
      <path id="DejaVuSerif-69" d="M 622 4353 
Q 622 4497 726 4603 
Q 831 4709 978 4709 
Q 1122 4709 1226 4603 
Q 1331 4497 1331 4353 
Q 1331 4206 1228 4103 
Q 1125 4000 978 4000 
Q 831 4000 726 4103 
Q 622 4206 622 4353 
z
M 1356 331 
L 1900 331 
L 1900 0 
L 231 0 
L 231 331 
L 781 331 
L 781 2988 
L 231 2988 
L 231 3322 
L 1356 3322 
L 1356 331 
z
" transform="scale(0.015625)"/>
      <path id="DejaVuSerif-74" d="M 691 2988 
L 184 2988 
L 184 3322 
L 691 3322 
L 691 4353 
L 1269 4353 
L 1269 3322 
L 2350 3322 
L 2350 2988 
L 1269 2988 
L 1269 878 
Q 1269 456 1350 337 
Q 1431 219 1650 219 
Q 1875 219 1978 351 
Q 2081 484 2088 781 
L 2522 781 
Q 2497 328 2275 118 
Q 2053 -91 1600 -91 
Q 1103 -91 897 129 
Q 691 350 691 878 
L 691 2988 
z
" transform="scale(0.015625)"/>
      <path id="DejaVuSerif-76" d="M 1581 0 
L 359 2988 
L -19 2988 
L -19 3322 
L 1509 3322 
L 1509 2988 
L 978 2988 
L 1913 703 
L 2847 2988 
L 2350 2988 
L 2350 3322 
L 3597 3322 
L 3597 2988 
L 3225 2988 
L 2003 0 
L 1581 0 
z
" transform="scale(0.015625)"/>
      <path id="DejaVuSerif-65" d="M 3469 1600 
L 991 1600 
L 991 1575 
Q 991 903 1244 561 
Q 1497 219 1991 219 
Q 2369 219 2611 417 
Q 2853 616 2950 1006 
L 3413 1006 
Q 3275 459 2904 184 
Q 2534 -91 1931 -91 
Q 1203 -91 761 389 
Q 319 869 319 1663 
Q 319 2450 753 2931 
Q 1188 3413 1894 3413 
Q 2647 3413 3050 2948 
Q 3453 2484 3469 1600 
z
M 2791 1931 
Q 2772 2513 2545 2808 
Q 2319 3103 1894 3103 
Q 1497 3103 1269 2806 
Q 1041 2509 991 1931 
L 2791 1931 
z
" transform="scale(0.015625)"/>
      <path id="DejaVuSerif-6e" d="M 263 0 
L 263 331 
L 781 331 
L 781 2988 
L 231 2988 
L 231 3322 
L 1356 3322 
L 1356 2731 
Q 1516 3069 1770 3241 
Q 2025 3413 2363 3413 
Q 2913 3413 3172 3097 
Q 3431 2781 3431 2113 
L 3431 331 
L 3944 331 
L 3944 0 
L 2356 0 
L 2356 331 
L 2853 331 
L 2853 1931 
Q 2853 2541 2703 2767 
Q 2553 2994 2175 2994 
Q 1775 2994 1565 2701 
Q 1356 2409 1356 1850 
L 1356 331 
L 1856 331 
L 1856 0 
L 263 0 
z
" transform="scale(0.015625)"/>
      <path id="DejaVuSerif-67" d="M 3359 2988 
L 3359 72 
Q 3359 -644 2965 -1033 
Q 2572 -1422 1844 -1422 
Q 1516 -1422 1216 -1362 
Q 916 -1303 641 -1184 
L 641 -488 
L 941 -488 
Q 997 -813 1206 -963 
Q 1416 -1113 1806 -1113 
Q 2313 -1113 2548 -827 
Q 2784 -541 2784 72 
L 2784 519 
Q 2616 206 2355 57 
Q 2094 -91 1709 -91 
Q 1097 -91 708 395 
Q 319 881 319 1663 
Q 319 2444 706 2928 
Q 1094 3413 1709 3413 
Q 2094 3413 2355 3264 
Q 2616 3116 2784 2803 
L 2784 3322 
L 3909 3322 
L 3909 2988 
L 3359 2988 
z
M 2784 1825 
Q 2784 2422 2554 2737 
Q 2325 3053 1888 3053 
Q 1444 3053 1217 2703 
Q 991 2353 991 1663 
Q 991 975 1217 622 
Q 1444 269 1888 269 
Q 2325 269 2554 583 
Q 2784 897 2784 1497 
L 2784 1825 
z
" transform="scale(0.015625)"/>
      <path id="Cmmi10-4e" d="M 300 0 
Q 238 0 238 84 
Q 241 100 250 139 
Q 259 178 276 201 
Q 294 225 319 225 
Q 931 225 1031 616 
L 1900 4116 
Q 1722 4147 1338 4147 
Q 1275 4147 1275 4231 
Q 1278 4247 1287 4286 
Q 1297 4325 1314 4348 
Q 1331 4372 1356 4372 
L 2463 4372 
Q 2509 4372 2522 4331 
L 3944 947 
L 4653 3781 
Q 4666 3850 4666 3878 
Q 4666 4147 4172 4147 
Q 4109 4147 4109 4231 
Q 4131 4313 4143 4342 
Q 4156 4372 4219 4372 
L 5588 4372 
Q 5650 4372 5650 4288 
Q 5647 4272 5637 4233 
Q 5628 4194 5611 4170 
Q 5594 4147 5569 4147 
Q 4956 4147 4856 3756 
L 3938 56 
Q 3916 0 3872 0 
L 3794 0 
Q 3750 0 3738 44 
L 2106 3916 
L 2094 3956 
Q 2081 3969 2081 3975 
L 1234 588 
Q 1228 572 1225 548 
Q 1222 525 1216 494 
Q 1216 328 1359 276 
Q 1503 225 1716 225 
Q 1778 225 1778 141 
Q 1756 53 1740 26 
Q 1725 0 1672 0 
L 300 0 
z
" transform="scale(0.015625)"/>
      <path id="DejaVuSerif-2c" d="M 231 -622 
Q 525 -406 662 -114 
Q 800 178 800 594 
L 800 709 
L 1416 709 
Q 1391 175 1164 -208 
Q 938 -591 481 -872 
L 231 -622 
z
" transform="scale(0.015625)"/>
      <path id="DejaVuSerif-6c" d="M 1313 331 
L 1856 331 
L 1856 0 
L 184 0 
L 184 331 
L 738 331 
L 738 4531 
L 184 4531 
L 184 4863 
L 1313 4863 
L 1313 331 
z
" transform="scale(0.015625)"/>
      <path id="Cmmi10-66" d="M 622 -1056 
Q 741 -1147 909 -1147 
Q 1138 -1147 1281 -641 
Q 1341 -397 1606 966 
L 1900 2534 
L 1350 2534 
Q 1288 2534 1288 2619 
Q 1313 2759 1369 2759 
L 1941 2759 
L 2016 3175 
Q 2053 3369 2084 3508 
Q 2116 3647 2152 3765 
Q 2188 3884 2259 4031 
Q 2369 4241 2555 4377 
Q 2741 4513 2956 4513 
Q 3097 4513 3230 4461 
Q 3363 4409 3447 4306 
Q 3531 4203 3531 4063 
Q 3531 3900 3423 3779 
Q 3316 3659 3163 3659 
Q 3059 3659 2986 3723 
Q 2913 3788 2913 3891 
Q 2913 4031 3008 4136 
Q 3103 4241 3244 4256 
Q 3125 4347 2950 4347 
Q 2853 4347 2767 4256 
Q 2681 4166 2656 4063 
Q 2616 3900 2478 3181 
L 2400 2759 
L 3059 2759 
Q 3122 2759 3122 2675 
Q 3119 2659 3109 2620 
Q 3100 2581 3083 2557 
Q 3066 2534 3041 2534 
L 2356 2534 
L 2059 972 
Q 2003 631 1929 279 
Q 1856 -72 1723 -442 
Q 1591 -813 1384 -1063 
Q 1178 -1313 897 -1313 
Q 681 -1313 511 -1189 
Q 341 -1066 341 -863 
Q 341 -700 445 -579 
Q 550 -459 709 -459 
Q 816 -459 887 -523 
Q 959 -588 959 -691 
Q 959 -828 857 -942 
Q 756 -1056 622 -1056 
z
" transform="scale(0.015625)"/>
      <path id="DejaVuSerif-62" d="M 738 331 
L 738 4531 
L 184 4531 
L 184 4863 
L 1313 4863 
L 1313 2803 
Q 1481 3116 1742 3264 
Q 2003 3413 2388 3413 
Q 3000 3413 3387 2928 
Q 3775 2444 3775 1663 
Q 3775 881 3387 395 
Q 3000 -91 2388 -91 
Q 2003 -91 1742 57 
Q 1481 206 1313 519 
L 1313 0 
L 184 0 
L 184 331 
L 738 331 
z
M 1313 1497 
Q 1313 897 1542 583 
Q 1772 269 2209 269 
Q 2650 269 2876 622 
Q 3103 975 3103 1663 
Q 3103 2353 2876 2703 
Q 2650 3053 2209 3053 
Q 1772 3053 1542 2737 
Q 1313 2422 1313 1825 
L 1313 1497 
z
" transform="scale(0.015625)"/>
      <path id="DejaVuSerif-68" d="M 263 0 
L 263 331 
L 781 331 
L 781 4531 
L 231 4531 
L 231 4863 
L 1356 4863 
L 1356 2731 
Q 1516 3069 1770 3241 
Q 2025 3413 2363 3413 
Q 2913 3413 3172 3097 
Q 3431 2781 3431 2113 
L 3431 331 
L 3944 331 
L 3944 0 
L 2356 0 
L 2356 331 
L 2853 331 
L 2853 1931 
Q 2853 2541 2704 2764 
Q 2556 2988 2175 2988 
Q 1775 2988 1565 2697 
Q 1356 2406 1356 1850 
L 1356 331 
L 1856 331 
L 1856 0 
L 263 0 
z
" transform="scale(0.015625)"/>
      <path id="DejaVuSerif-66" d="M 2753 4078 
L 2450 4078 
Q 2447 4313 2317 4434 
Q 2188 4556 1941 4556 
Q 1619 4556 1487 4379 
Q 1356 4203 1356 3750 
L 1356 3322 
L 2284 3322 
L 2284 2988 
L 1356 2988 
L 1356 331 
L 2094 331 
L 2094 0 
L 231 0 
L 231 331 
L 781 331 
L 781 2988 
L 231 2988 
L 231 3322 
L 781 3322 
L 781 3738 
Q 781 4294 1070 4578 
Q 1359 4863 1919 4863 
Q 2128 4863 2337 4825 
Q 2547 4788 2753 4709 
L 2753 4078 
z
" transform="scale(0.015625)"/>
      <path id="DejaVuSerif-75" d="M 2266 3322 
L 3341 3322 
L 3341 331 
L 3884 331 
L 3884 0 
L 2766 0 
L 2766 588 
Q 2606 256 2353 82 
Q 2100 -91 1766 -91 
Q 1213 -91 952 223 
Q 691 538 691 1209 
L 691 2988 
L 172 2988 
L 172 3322 
L 1269 3322 
L 1269 1388 
Q 1269 781 1417 556 
Q 1566 331 1947 331 
Q 2347 331 2556 625 
Q 2766 919 2766 1478 
L 2766 2988 
L 2266 2988 
L 2266 3322 
z
" transform="scale(0.015625)"/>
      <path id="DejaVuSerif-63" d="M 3291 997 
Q 3169 466 2822 187 
Q 2475 -91 1925 -91 
Q 1200 -91 759 389 
Q 319 869 319 1663 
Q 319 2459 759 2936 
Q 1200 3413 1925 3413 
Q 2241 3413 2553 3339 
Q 2866 3266 3181 3116 
L 3181 2266 
L 2847 2266 
Q 2781 2703 2561 2903 
Q 2341 3103 1931 3103 
Q 1466 3103 1228 2742 
Q 991 2381 991 1663 
Q 991 944 1227 581 
Q 1463 219 1931 219 
Q 2303 219 2525 412 
Q 2747 606 2828 997 
L 3291 997 
z
" transform="scale(0.015625)"/>
      <path id="DejaVuSerif-64" d="M 3359 331 
L 3909 331 
L 3909 0 
L 2784 0 
L 2784 519 
Q 2616 206 2355 57 
Q 2094 -91 1709 -91 
Q 1097 -91 708 395 
Q 319 881 319 1663 
Q 319 2444 706 2928 
Q 1094 3413 1709 3413 
Q 2094 3413 2355 3264 
Q 2616 3116 2784 2803 
L 2784 4531 
L 2241 4531 
L 2241 4863 
L 3359 4863 
L 3359 331 
z
M 2784 1497 
L 2784 1825 
Q 2784 2422 2554 2737 
Q 2325 3053 1888 3053 
Q 1444 3053 1217 2703 
Q 991 2353 991 1663 
Q 991 975 1217 622 
Q 1444 269 1888 269 
Q 2325 269 2554 583 
Q 2784 897 2784 1497 
z
" transform="scale(0.015625)"/>
      <path id="DejaVuSerif-79" d="M 1381 -609 
L 1600 -56 
L 359 2988 
L -19 2988 
L -19 3322 
L 1509 3322 
L 1509 2988 
L 978 2988 
L 1913 703 
L 2847 2988 
L 2350 2988 
L 2350 3322 
L 3597 3322 
L 3597 2988 
L 3225 2988 
L 1703 -750 
Q 1547 -1138 1356 -1280 
Q 1166 -1422 819 -1422 
Q 672 -1422 517 -1397 
Q 363 -1372 206 -1325 
L 206 -691 
L 500 -691 
Q 519 -903 608 -995 
Q 697 -1088 884 -1088 
Q 1056 -1088 1161 -992 
Q 1266 -897 1381 -609 
z
" transform="scale(0.015625)"/>
     </defs>
     <use xlink:href="#DejaVuSerif-46" transform="translate(0 0.015625)"/>
     <use xlink:href="#DejaVuSerif-6f" transform="translate(69.384766 0.015625)"/>
     <use xlink:href="#DejaVuSerif-72" transform="translate(129.589844 0.015625)"/>
     <use xlink:href="#DejaVuSerif-20" transform="translate(177.392578 0.015625)"/>
     <use xlink:href="#DejaVuSerif-61" transform="translate(209.179688 0.015625)"/>
     <use xlink:href="#DejaVuSerif-20" transform="translate(268.798828 0.015625)"/>
     <use xlink:href="#DejaVuSerif-70" transform="translate(300.585938 0.015625)"/>
     <use xlink:href="#DejaVuSerif-6f" transform="translate(364.599609 0.015625)"/>
     <use xlink:href="#DejaVuSerif-73" transform="translate(424.804688 0.015625)"/>
     <use xlink:href="#DejaVuSerif-69" transform="translate(476.123047 0.015625)"/>
     <use xlink:href="#DejaVuSerif-74" transform="translate(508.105469 0.015625)"/>
     <use xlink:href="#DejaVuSerif-69" transform="translate(548.291016 0.015625)"/>
     <use xlink:href="#DejaVuSerif-76" transform="translate(580.273438 0.015625)"/>
     <use xlink:href="#DejaVuSerif-65" transform="translate(636.767578 0.015625)"/>
     <use xlink:href="#DejaVuSerif-20" transform="translate(695.947266 0.015625)"/>
     <use xlink:href="#DejaVuSerif-69" transform="translate(727.734375 0.015625)"/>
     <use xlink:href="#DejaVuSerif-6e" transform="translate(759.716797 0.015625)"/>
     <use xlink:href="#DejaVuSerif-74" transform="translate(824.121094 0.015625)"/>
     <use xlink:href="#DejaVuSerif-65" transform="translate(864.306641 0.015625)"/>
     <use xlink:href="#DejaVuSerif-67" transform="translate(923.486328 0.015625)"/>
     <use xlink:href="#DejaVuSerif-65" transform="translate(987.5 0.015625)"/>
     <use xlink:href="#DejaVuSerif-72" transform="translate(1046.679688 0.015625)"/>
     <use xlink:href="#DejaVuSerif-20" transform="translate(1094.482422 0.015625)"/>
     <use xlink:href="#Cmmi10-4e" transform="translate(1126.269531 0.015625)"/>
     <use xlink:href="#DejaVuSerif-2c" transform="translate(1206.591797 0.015625)"/>
     <use xlink:href="#DejaVuSerif-20" transform="translate(1238.378906 0.015625)"/>
     <use xlink:href="#DejaVuSerif-6c" transform="translate(1270.166016 0.015625)"/>
     <use xlink:href="#DejaVuSerif-65" transform="translate(1302.148438 0.015625)"/>
     <use xlink:href="#DejaVuSerif-74" transform="translate(1361.328125 0.015625)"/>
     <use xlink:href="#DejaVuSerif-20" transform="translate(1401.513672 0.015625)"/>
     <use xlink:href="#Cmmi10-66" transform="translate(1433.300781 0.015625)"/>
     <use xlink:href="#Cmmi10-4e" transform="translate(1482.177734 -16.990625) scale(0.7)"/>
     <use xlink:href="#DejaVuSerif-20" transform="translate(1544.780664 0.015625)"/>
     <use xlink:href="#DejaVuSerif-62" transform="translate(1576.567773 0.015625)"/>
     <use xlink:href="#DejaVuSerif-65" transform="translate(1640.581445 0.015625)"/>
     <use xlink:href="#DejaVuSerif-20" transform="translate(1699.761133 0.015625)"/>
     <use xlink:href="#DejaVuSerif-74" transform="translate(1731.548242 0.015625)"/>
     <use xlink:href="#DejaVuSerif-68" transform="translate(1771.733789 0.015625)"/>
     <use xlink:href="#DejaVuSerif-65" transform="translate(1836.138086 0.015625)"/>
     <use xlink:href="#DejaVuSerif-20" transform="translate(1895.317773 0.015625)"/>
     <use xlink:href="#DejaVuSerif-66" transform="translate(1927.104883 0.015625)"/>
     <use xlink:href="#DejaVuSerif-75" transform="translate(1964.116602 0.015625)"/>
     <use xlink:href="#DejaVuSerif-6e" transform="translate(2028.520898 0.015625)"/>
     <use xlink:href="#DejaVuSerif-63" transform="translate(2092.925195 0.015625)"/>
     <use xlink:href="#DejaVuSerif-74" transform="translate(2148.931055 0.015625)"/>
     <use xlink:href="#DejaVuSerif-69" transform="translate(2189.116602 0.015625)"/>
     <use xlink:href="#DejaVuSerif-6f" transform="translate(2221.099023 0.015625)"/>
     <use xlink:href="#DejaVuSerif-6e" transform="translate(2281.304102 0.015625)"/>
     <use xlink:href="#DejaVuSerif-20" transform="translate(2345.708398 0.015625)"/>
     <use xlink:href="#DejaVuSerif-64" transform="translate(2377.495508 0.015625)"/>
     <use xlink:href="#DejaVuSerif-65" transform="translate(2441.50918 0.015625)"/>
     <use xlink:href="#DejaVuSerif-66" transform="translate(2500.688867 0.015625)"/>
     <use xlink:href="#DejaVuSerif-69" transform="translate(2537.700586 0.015625)"/>
     <use xlink:href="#DejaVuSerif-6e" transform="translate(2569.683008 0.015625)"/>
     <use xlink:href="#DejaVuSerif-65" transform="translate(2634.087305 0.015625)"/>
     <use xlink:href="#DejaVuSerif-64" transform="translate(2693.266992 0.015625)"/>
     <use xlink:href="#DejaVuSerif-20" transform="translate(2757.280664 0.015625)"/>
     <use xlink:href="#DejaVuSerif-62" transform="translate(2789.067773 0.015625)"/>
     <use xlink:href="#DejaVuSerif-79" transform="translate(2853.081445 0.015625)"/>
    </g>
    <!-- \[ -->
    <g transform="translate(277.280605 103.786813) scale(0.12 -0.12)">
     <defs>
      <path id="DejaVuSerif-5c" d="M 500 4666 
L 2156 -594 
L 1656 -594 
L 0 4666 
L 500 4666 
z
" transform="scale(0.015625)"/>
      <path id="DejaVuSerif-5b" d="M 550 4863 
L 2003 4863 
L 2003 4531 
L 1147 4531 
L 1147 -513 
L 2003 -513 
L 2003 -844 
L 550 -844 
L 550 4863 
z
" transform="scale(0.015625)"/>
     </defs>
     <use xlink:href="#DejaVuSerif-5c"/>
     <use xlink:href="#DejaVuSerif-5b" transform="translate(33.691406 0)"/>
    </g>
    <!-- f_N(x) = \sum_{n=0}^N \frac{N+1/2-n}{(N+1)(2n+1)} \sin((2n+1)x). -->
    <g transform="translate(64.97998 117.224188) scale(0.12 -0.12)">
     <defs>
      <path id="DejaVuSerif-5f" d="M 3200 -1259 
L 3200 -1509 
L 0 -1509 
L 0 -1259 
L 3200 -1259 
z
" transform="scale(0.015625)"/>
      <path id="DejaVuSerif-4e" d="M 313 0 
L 313 331 
L 941 331 
L 941 4331 
L 313 4331 
L 313 4666 
L 1509 4666 
L 4306 984 
L 4306 4331 
L 3681 4331 
L 3681 4666 
L 5319 4666 
L 5319 4331 
L 4691 4331 
L 4691 -91 
L 4313 -91 
L 1325 3841 
L 1325 331 
L 1953 331 
L 1953 0 
L 313 0 
z
" transform="scale(0.015625)"/>
      <path id="DejaVuSerif-28" d="M 2041 -997 
Q 1281 -656 893 83 
Q 506 822 506 1931 
Q 506 3044 893 3783 
Q 1281 4522 2041 4863 
L 2041 4556 
Q 1559 4225 1350 3623 
Q 1141 3022 1141 1931 
Q 1141 844 1350 242 
Q 1559 -359 2041 -691 
L 2041 -997 
z
" transform="scale(0.015625)"/>
      <path id="DejaVuSerif-78" d="M 1863 2028 
L 2559 2988 
L 2113 2988 
L 2113 3322 
L 3391 3322 
L 3391 2988 
L 2950 2988 
L 2059 1759 
L 3097 331 
L 3531 331 
L 3531 0 
L 1997 0 
L 1997 331 
L 2419 331 
L 1697 1325 
L 972 331 
L 1403 331 
L 1403 0 
L 141 0 
L 141 331 
L 581 331 
L 1497 1594 
L 488 2988 
L 78 2988 
L 78 3322 
L 1563 3322 
L 1563 2988 
L 1166 2988 
L 1863 2028 
z
" transform="scale(0.015625)"/>
      <path id="DejaVuSerif-29" d="M 453 -997 
L 453 -691 
Q 934 -359 1145 242 
Q 1356 844 1356 1931 
Q 1356 3022 1145 3623 
Q 934 4225 453 4556 
L 453 4863 
Q 1216 4522 1603 3783 
Q 1991 3044 1991 1931 
Q 1991 822 1603 83 
Q 1216 -656 453 -997 
z
" transform="scale(0.015625)"/>
      <path id="DejaVuSerif-3d" d="M 678 2894 
L 4684 2894 
L 4684 2394 
L 678 2394 
L 678 2894 
z
M 678 1619 
L 4684 1619 
L 4684 1119 
L 678 1119 
L 678 1619 
z
" transform="scale(0.015625)"/>
      <path id="DejaVuSerif-6d" d="M 3316 2675 
Q 3481 3041 3739 3227 
Q 3997 3413 4341 3413 
Q 4863 3413 5119 3089 
Q 5375 2766 5375 2113 
L 5375 331 
L 5894 331 
L 5894 0 
L 4300 0 
L 4300 331 
L 4800 331 
L 4800 2047 
Q 4800 2556 4650 2772 
Q 4500 2988 4153 2988 
Q 3769 2988 3567 2697 
Q 3366 2406 3366 1850 
L 3366 331 
L 3866 331 
L 3866 0 
L 2291 0 
L 2291 331 
L 2791 331 
L 2791 2069 
Q 2791 2566 2641 2777 
Q 2491 2988 2144 2988 
Q 1759 2988 1557 2697 
Q 1356 2406 1356 1850 
L 1356 331 
L 1856 331 
L 1856 0 
L 263 0 
L 263 331 
L 781 331 
L 781 2994 
L 231 2994 
L 231 3322 
L 1356 3322 
L 1356 2731 
Q 1516 3063 1762 3238 
Q 2009 3413 2322 3413 
Q 2709 3413 2968 3220 
Q 3228 3028 3316 2675 
z
" transform="scale(0.015625)"/>
      <path id="DejaVuSerif-7b" d="M 3272 -716 
L 3272 -1044 
L 3078 -1044 
Q 2300 -1044 2036 -812 
Q 1772 -581 1772 109 
L 1772 916 
Q 1772 1384 1603 1565 
Q 1434 1747 991 1747 
L 800 1747 
L 800 2075 
L 991 2075 
Q 1434 2075 1603 2256 
Q 1772 2438 1772 2906 
L 1772 3713 
Q 1772 4403 2036 4633 
Q 2300 4863 3078 4863 
L 3272 4863 
L 3272 4538 
L 3059 4538 
Q 2619 4538 2484 4400 
Q 2350 4263 2350 3822 
L 2350 2925 
Q 2350 2431 2194 2218 
Q 2038 2006 1631 1913 
Q 2044 1806 2197 1597 
Q 2350 1388 2350 897 
L 2350 0 
Q 2350 -441 2484 -578 
Q 2619 -716 3059 -716 
L 3272 -716 
z
" transform="scale(0.015625)"/>
      <path id="DejaVuSerif-30" d="M 2034 219 
Q 2513 219 2750 744 
Q 2988 1269 2988 2328 
Q 2988 3391 2750 3916 
Q 2513 4441 2034 4441 
Q 1556 4441 1318 3916 
Q 1081 3391 1081 2328 
Q 1081 1269 1318 744 
Q 1556 219 2034 219 
z
M 2034 -91 
Q 1275 -91 848 546 
Q 422 1184 422 2328 
Q 422 3475 848 4112 
Q 1275 4750 2034 4750 
Q 2797 4750 3222 4112 
Q 3647 3475 3647 2328 
Q 3647 1184 3222 546 
Q 2797 -91 2034 -91 
z
" transform="scale(0.015625)"/>
      <path id="DejaVuSerif-7d" d="M 800 -716 
L 1019 -716 
Q 1456 -716 1589 -580 
Q 1722 -444 1722 0 
L 1722 897 
Q 1722 1388 1875 1597 
Q 2028 1806 2438 1913 
Q 2031 2006 1876 2218 
Q 1722 2431 1722 2925 
L 1722 3822 
Q 1722 4266 1589 4402 
Q 1456 4538 1019 4538 
L 800 4538 
L 800 4863 
L 997 4863 
Q 1775 4863 2036 4633 
Q 2297 4403 2297 3713 
L 2297 2906 
Q 2297 2438 2465 2256 
Q 2634 2075 3078 2075 
L 3272 2075 
L 3272 1747 
L 3078 1747 
Q 2634 1747 2465 1565 
Q 2297 1384 2297 916 
L 2297 109 
Q 2297 -581 2036 -812 
Q 1775 -1044 997 -1044 
L 800 -1044 
L 800 -716 
z
" transform="scale(0.015625)"/>
      <path id="DejaVuSerif-5e" d="M 2988 4666 
L 4684 2925 
L 4206 2925 
L 2681 4116 
L 1159 2925 
L 678 2925 
L 2375 4666 
L 2988 4666 
z
" transform="scale(0.015625)"/>
      <path id="DejaVuSerif-2b" d="M 2931 4013 
L 2931 2259 
L 4684 2259 
L 4684 1753 
L 2931 1753 
L 2931 0 
L 2431 0 
L 2431 1753 
L 678 1753 
L 678 2259 
L 2431 2259 
L 2431 4013 
L 2931 4013 
z
" transform="scale(0.015625)"/>
      <path id="DejaVuSerif-31" d="M 909 0 
L 909 331 
L 1722 331 
L 1722 4213 
L 781 3603 
L 781 4013 
L 1919 4750 
L 2350 4750 
L 2350 331 
L 3163 331 
L 3163 0 
L 909 0 
z
" transform="scale(0.015625)"/>
      <path id="DejaVuSerif-2f" d="M 1656 4666 
L 2156 4666 
L 500 -594 
L 0 -594 
L 1656 4666 
z
" transform="scale(0.015625)"/>
      <path id="DejaVuSerif-32" d="M 819 3553 
L 469 3553 
L 469 4384 
Q 803 4563 1142 4656 
Q 1481 4750 1806 4750 
Q 2534 4750 2956 4397 
Q 3378 4044 3378 3438 
Q 3378 2753 2422 1800 
Q 2347 1728 2309 1691 
L 1131 513 
L 3078 513 
L 3078 1088 
L 3444 1088 
L 3444 0 
L 434 0 
L 434 341 
L 1850 1753 
Q 2319 2222 2519 2614 
Q 2719 3006 2719 3438 
Q 2719 3909 2473 4175 
Q 2228 4441 1797 4441 
Q 1350 4441 1106 4219 
Q 863 3997 819 3553 
z
" transform="scale(0.015625)"/>
      <path id="DejaVuSerif-2d" d="M 281 1959 
L 1881 1959 
L 1881 1472 
L 281 1472 
L 281 1959 
z
" transform="scale(0.015625)"/>
      <path id="DejaVuSerif-2e" d="M 603 325 
Q 603 500 722 622 
Q 841 744 1019 744 
Q 1191 744 1312 622 
Q 1434 500 1434 325 
Q 1434 153 1312 31 
Q 1191 -91 1019 -91 
Q 841 -91 722 29 
Q 603 150 603 325 
z
" transform="scale(0.015625)"/>
     </defs>
     <use xlink:href="#DejaVuSerif-66"/>
     <use xlink:href="#DejaVuSerif-5f" transform="translate(37.011719 0)"/>
     <use xlink:href="#DejaVuSerif-4e" transform="translate(87.011719 0)"/>
     <use xlink:href="#DejaVuSerif-28" transform="translate(174.511719 0)"/>
     <use xlink:href="#DejaVuSerif-78" transform="translate(213.525391 0)"/>
     <use xlink:href="#DejaVuSerif-29" transform="translate(269.921875 0)"/>
     <use xlink:href="#DejaVuSerif-20" transform="translate(308.935547 0)"/>
     <use xlink:href="#DejaVuSerif-3d" transform="translate(340.722656 0)"/>
     <use xlink:href="#DejaVuSerif-20" transform="translate(424.511719 0)"/>
     <use xlink:href="#DejaVuSerif-5c" transform="translate(456.298828 0)"/>
     <use xlink:href="#DejaVuSerif-73" transform="translate(489.990234 0)"/>
     <use xlink:href="#DejaVuSerif-75" transform="translate(541.308594 0)"/>
     <use xlink:href="#DejaVuSerif-6d" transform="translate(605.712891 0)"/>
     <use xlink:href="#DejaVuSerif-5f" transform="translate(700.537109 0)"/>
     <use xlink:href="#DejaVuSerif-7b" transform="translate(750.537109 0)"/>
     <use xlink:href="#DejaVuSerif-6e" transform="translate(814.160156 0)"/>
     <use xlink:href="#DejaVuSerif-3d" transform="translate(878.564453 0)"/>
     <use xlink:href="#DejaVuSerif-30" transform="translate(962.353516 0)"/>
     <use xlink:href="#DejaVuSerif-7d" transform="translate(1025.976562 0)"/>
     <use xlink:href="#DejaVuSerif-5e" transform="translate(1089.599609 0)"/>
     <use xlink:href="#DejaVuSerif-4e" transform="translate(1173.388672 0)"/>
     <use xlink:href="#DejaVuSerif-20" transform="translate(1260.888672 0)"/>
     <use xlink:href="#DejaVuSerif-5c" transform="translate(1292.675781 0)"/>
     <use xlink:href="#DejaVuSerif-66" transform="translate(1326.367188 0)"/>
     <use xlink:href="#DejaVuSerif-72" transform="translate(1363.378906 0)"/>
     <use xlink:href="#DejaVuSerif-61" transform="translate(1411.181641 0)"/>
     <use xlink:href="#DejaVuSerif-63" transform="translate(1470.800781 0)"/>
     <use xlink:href="#DejaVuSerif-7b" transform="translate(1526.806641 0)"/>
     <use xlink:href="#DejaVuSerif-4e" transform="translate(1590.429688 0)"/>
     <use xlink:href="#DejaVuSerif-2b" transform="translate(1677.929688 0)"/>
     <use xlink:href="#DejaVuSerif-31" transform="translate(1761.71875 0)"/>
     <use xlink:href="#DejaVuSerif-2f" transform="translate(1825.341797 0)"/>
     <use xlink:href="#DejaVuSerif-32" transform="translate(1859.033203 0)"/>
     <use xlink:href="#DejaVuSerif-2d" transform="translate(1922.65625 0)"/>
     <use xlink:href="#DejaVuSerif-6e" transform="translate(1956.445312 0)"/>
     <use xlink:href="#DejaVuSerif-7d" transform="translate(2020.849609 0)"/>
     <use xlink:href="#DejaVuSerif-7b" transform="translate(2084.472656 0)"/>
     <use xlink:href="#DejaVuSerif-28" transform="translate(2148.095703 0)"/>
     <use xlink:href="#DejaVuSerif-4e" transform="translate(2187.109375 0)"/>
     <use xlink:href="#DejaVuSerif-2b" transform="translate(2274.609375 0)"/>
     <use xlink:href="#DejaVuSerif-31" transform="translate(2358.398438 0)"/>
     <use xlink:href="#DejaVuSerif-29" transform="translate(2422.021484 0)"/>
     <use xlink:href="#DejaVuSerif-28" transform="translate(2461.035156 0)"/>
     <use xlink:href="#DejaVuSerif-32" transform="translate(2500.048828 0)"/>
     <use xlink:href="#DejaVuSerif-6e" transform="translate(2563.671875 0)"/>
     <use xlink:href="#DejaVuSerif-2b" transform="translate(2628.076172 0)"/>
     <use xlink:href="#DejaVuSerif-31" transform="translate(2711.865234 0)"/>
     <use xlink:href="#DejaVuSerif-29" transform="translate(2775.488281 0)"/>
     <use xlink:href="#DejaVuSerif-7d" transform="translate(2814.501953 0)"/>
     <use xlink:href="#DejaVuSerif-20" transform="translate(2878.125 0)"/>
     <use xlink:href="#DejaVuSerif-5c" transform="translate(2909.912109 0)"/>
     <use xlink:href="#DejaVuSerif-73" transform="translate(2943.603516 0)"/>
     <use xlink:href="#DejaVuSerif-69" transform="translate(2994.921875 0)"/>
     <use xlink:href="#DejaVuSerif-6e" transform="translate(3026.904297 0)"/>
     <use xlink:href="#DejaVuSerif-28" transform="translate(3091.308594 0)"/>
     <use xlink:href="#DejaVuSerif-28" transform="translate(3130.322266 0)"/>
     <use xlink:href="#DejaVuSerif-32" transform="translate(3169.335938 0)"/>
     <use xlink:href="#DejaVuSerif-6e" transform="translate(3232.958984 0)"/>
     <use xlink:href="#DejaVuSerif-2b" transform="translate(3297.363281 0)"/>
     <use xlink:href="#DejaVuSerif-31" transform="translate(3381.152344 0)"/>
     <use xlink:href="#DejaVuSerif-29" transform="translate(3444.775391 0)"/>
     <use xlink:href="#DejaVuSerif-78" transform="translate(3483.789062 0)"/>
     <use xlink:href="#DejaVuSerif-29" transform="translate(3540.185547 0)"/>
     <use xlink:href="#DejaVuSerif-2e" transform="translate(3579.199219 0)"/>
    </g>
    <!-- \] -->
    <g transform="translate(277.280605 130.995313) scale(0.12 -0.12)">
     <defs>
      <path id="DejaVuSerif-5d" d="M 1947 4863 
L 1947 -844 
L 494 -844 
L 494 -513 
L 1350 -513 
L 1350 4531 
L 494 4531 
L 494 4863 
L 1947 4863 
z
" transform="scale(0.015625)"/>
     </defs>
     <use xlink:href="#DejaVuSerif-5c"/>
     <use xlink:href="#DejaVuSerif-5d" transform="translate(33.691406 0)"/>
    </g>
    <!-- Determine the smallest constant $M$ such that $f_N(x) \leqq M$ for all $N$ and all real $x$. -->
    <g transform="translate(45.542792 144.434938) scale(0.12 -0.12)">
     <defs>
      <path id="DejaVuSerif-44" d="M 1581 331 
L 2163 331 
Q 3072 331 3558 850 
Q 4044 1369 4044 2338 
Q 4044 3306 3559 3818 
Q 3075 4331 2163 4331 
L 1581 4331 
L 1581 331 
z
M 353 0 
L 353 331 
L 947 331 
L 947 4331 
L 353 4331 
L 353 4666 
L 2209 4666 
Q 3416 4666 4089 4050 
Q 4763 3434 4763 2338 
Q 4763 1238 4088 619 
Q 3413 0 2209 0 
L 353 0 
z
" transform="scale(0.015625)"/>
      <path id="Cmmi10-4d" d="M 325 0 
Q 263 0 263 84 
Q 266 100 275 137 
Q 284 175 300 200 
Q 316 225 347 225 
Q 956 225 1056 616 
L 1888 3956 
Q 1900 4019 1900 4044 
Q 1900 4113 1825 4122 
Q 1703 4147 1363 4147 
Q 1300 4147 1300 4231 
Q 1303 4247 1312 4286 
Q 1322 4325 1339 4348 
Q 1356 4372 1381 4372 
L 2509 4372 
Q 2581 4372 2591 4300 
L 3091 634 
L 5422 4300 
Q 5466 4372 5544 4372 
L 6631 4372 
Q 6694 4372 6694 4288 
Q 6691 4272 6681 4233 
Q 6672 4194 6655 4170 
Q 6638 4147 6613 4147 
Q 6222 4147 6069 4103 
Q 5984 4075 5947 3928 
L 5069 416 
Q 5056 353 5056 325 
Q 5056 300 5064 283 
Q 5072 266 5086 261 
Q 5100 256 5131 250 
Q 5253 225 5594 225 
Q 5656 225 5656 141 
Q 5634 50 5621 25 
Q 5609 0 5550 0 
L 3878 0 
Q 3816 0 3816 84 
Q 3819 100 3828 139 
Q 3838 178 3855 201 
Q 3872 225 3897 225 
Q 4288 225 4441 269 
Q 4525 297 4563 441 
L 5484 4147 
L 2900 72 
Q 2863 0 2772 0 
Q 2691 0 2681 72 
L 2138 4097 
L 1259 588 
Q 1253 572 1250 548 
Q 1247 525 1241 494 
Q 1241 328 1386 276 
Q 1531 225 1741 225 
Q 1806 225 1806 141 
Q 1784 56 1770 28 
Q 1756 0 1697 0 
L 325 0 
z
" transform="scale(0.015625)"/>
      <path id="Cmr10-28" d="M 1984 -1588 
Q 1628 -1306 1370 -942 
Q 1113 -578 948 -165 
Q 784 247 703 697 
Q 622 1147 622 1600 
Q 622 2059 703 2509 
Q 784 2959 951 3375 
Q 1119 3791 1378 4153 
Q 1638 4516 1984 4788 
Q 1984 4800 2016 4800 
L 2075 4800 
Q 2094 4800 2109 4783 
Q 2125 4766 2125 4744 
Q 2125 4716 2113 4703 
Q 1800 4397 1592 4047 
Q 1384 3697 1257 3301 
Q 1131 2906 1075 2482 
Q 1019 2059 1019 1600 
Q 1019 -434 2106 -1491 
Q 2125 -1509 2125 -1544 
Q 2125 -1559 2108 -1579 
Q 2091 -1600 2075 -1600 
L 2016 -1600 
Q 1984 -1600 1984 -1588 
z
" transform="scale(0.015625)"/>
      <path id="Cmmi10-78" d="M 500 184 
Q 613 97 819 97 
Q 1019 97 1172 289 
Q 1325 481 1381 709 
L 1672 1844 
Q 1741 2153 1741 2266 
Q 1741 2425 1652 2544 
Q 1563 2663 1403 2663 
Q 1200 2663 1022 2536 
Q 844 2409 722 2214 
Q 600 2019 550 1819 
Q 538 1778 500 1778 
L 422 1778 
Q 372 1778 372 1838 
L 372 1856 
Q 434 2094 584 2320 
Q 734 2547 951 2687 
Q 1169 2828 1416 2828 
Q 1650 2828 1839 2703 
Q 2028 2578 2106 2363 
Q 2216 2559 2386 2693 
Q 2556 2828 2759 2828 
Q 2897 2828 3040 2779 
Q 3184 2731 3275 2631 
Q 3366 2531 3366 2381 
Q 3366 2219 3261 2101 
Q 3156 1984 2994 1984 
Q 2891 1984 2822 2050 
Q 2753 2116 2753 2216 
Q 2753 2350 2845 2451 
Q 2938 2553 3066 2572 
Q 2950 2663 2747 2663 
Q 2541 2663 2389 2472 
Q 2238 2281 2175 2047 
L 1894 916 
Q 1825 659 1825 494 
Q 1825 331 1917 214 
Q 2009 97 2163 97 
Q 2463 97 2698 361 
Q 2934 625 3009 941 
Q 3022 978 3059 978 
L 3138 978 
Q 3163 978 3178 961 
Q 3194 944 3194 922 
Q 3194 916 3188 903 
Q 3097 522 2806 225 
Q 2516 -72 2150 -72 
Q 1916 -72 1727 54 
Q 1538 181 1459 397 
Q 1359 209 1182 68 
Q 1006 -72 806 -72 
Q 669 -72 523 -23 
Q 378 25 287 125 
Q 197 225 197 378 
Q 197 528 301 651 
Q 406 775 563 775 
Q 669 775 741 711 
Q 813 647 813 544 
Q 813 409 723 309 
Q 634 209 500 184 
z
" transform="scale(0.015625)"/>
      <path id="Cmr10-29" d="M 416 -1600 
Q 359 -1600 359 -1544 
Q 359 -1516 372 -1503 
Q 1466 -434 1466 1600 
Q 1466 3634 384 4691 
Q 359 4706 359 4744 
Q 359 4766 376 4783 
Q 394 4800 416 4800 
L 475 4800 
Q 494 4800 506 4788 
Q 966 4425 1272 3906 
Q 1578 3388 1720 2800 
Q 1863 2213 1863 1600 
Q 1863 1147 1786 708 
Q 1709 269 1542 -157 
Q 1375 -584 1119 -945 
Q 863 -1306 506 -1588 
Q 494 -1600 475 -1600 
L 416 -1600 
z
" transform="scale(0.015625)"/>
      <path id="STIXGeneral-Regular-2266" d="M 3981 1024 
L 365 2771 
L 365 2835 
L 3981 4595 
L 3981 4179 
L 1216 2803 
L 3981 1427 
L 3981 1024 
z
M 3981 -77 
L 365 -77 
L 365 346 
L 3981 346 
L 3981 -77 
z
M 3981 -1350 
L 365 -1350 
L 365 -928 
L 3981 -928 
L 3981 -1350 
z
" transform="scale(0.015625)"/>
     </defs>
     <use xlink:href="#DejaVuSerif-44" transform="translate(0 0.015625)"/>
     <use xlink:href="#DejaVuSerif-65" transform="translate(80.175781 0.015625)"/>
     <use xlink:href="#DejaVuSerif-74" transform="translate(139.355469 0.015625)"/>
     <use xlink:href="#DejaVuSerif-65" transform="translate(179.541016 0.015625)"/>
     <use xlink:href="#DejaVuSerif-72" transform="translate(238.720703 0.015625)"/>
     <use xlink:href="#DejaVuSerif-6d" transform="translate(286.523438 0.015625)"/>
     <use xlink:href="#DejaVuSerif-69" transform="translate(381.347656 0.015625)"/>
     <use xlink:href="#DejaVuSerif-6e" transform="translate(413.330078 0.015625)"/>
     <use xlink:href="#DejaVuSerif-65" transform="translate(477.734375 0.015625)"/>
     <use xlink:href="#DejaVuSerif-20" transform="translate(536.914062 0.015625)"/>
     <use xlink:href="#DejaVuSerif-74" transform="translate(568.701172 0.015625)"/>
     <use xlink:href="#DejaVuSerif-68" transform="translate(608.886719 0.015625)"/>
     <use xlink:href="#DejaVuSerif-65" transform="translate(673.291016 0.015625)"/>
     <use xlink:href="#DejaVuSerif-20" transform="translate(732.470703 0.015625)"/>
     <use xlink:href="#DejaVuSerif-73" transform="translate(764.257812 0.015625)"/>
     <use xlink:href="#DejaVuSerif-6d" transform="translate(815.576172 0.015625)"/>
     <use xlink:href="#DejaVuSerif-61" transform="translate(910.400391 0.015625)"/>
     <use xlink:href="#DejaVuSerif-6c" transform="translate(970.019531 0.015625)"/>
     <use xlink:href="#DejaVuSerif-6c" transform="translate(1002.001953 0.015625)"/>
     <use xlink:href="#DejaVuSerif-65" transform="translate(1033.984375 0.015625)"/>
     <use xlink:href="#DejaVuSerif-73" transform="translate(1093.164062 0.015625)"/>
     <use xlink:href="#DejaVuSerif-74" transform="translate(1144.482422 0.015625)"/>
     <use xlink:href="#DejaVuSerif-20" transform="translate(1184.667969 0.015625)"/>
     <use xlink:href="#DejaVuSerif-63" transform="translate(1216.455078 0.015625)"/>
     <use xlink:href="#DejaVuSerif-6f" transform="translate(1272.460938 0.015625)"/>
     <use xlink:href="#DejaVuSerif-6e" transform="translate(1332.666016 0.015625)"/>
     <use xlink:href="#DejaVuSerif-73" transform="translate(1397.070312 0.015625)"/>
     <use xlink:href="#DejaVuSerif-74" transform="translate(1448.388672 0.015625)"/>
     <use xlink:href="#DejaVuSerif-61" transform="translate(1488.574219 0.015625)"/>
     <use xlink:href="#DejaVuSerif-6e" transform="translate(1548.193359 0.015625)"/>
     <use xlink:href="#DejaVuSerif-74" transform="translate(1612.597656 0.015625)"/>
     <use xlink:href="#DejaVuSerif-20" transform="translate(1652.783203 0.015625)"/>
     <use xlink:href="#Cmmi10-4d" transform="translate(1684.570312 0.015625)"/>
     <use xlink:href="#DejaVuSerif-20" transform="translate(1781.591797 0.015625)"/>
     <use xlink:href="#DejaVuSerif-73" transform="translate(1813.378906 0.015625)"/>
     <use xlink:href="#DejaVuSerif-75" transform="translate(1864.697266 0.015625)"/>
     <use xlink:href="#DejaVuSerif-63" transform="translate(1929.101562 0.015625)"/>
     <use xlink:href="#DejaVuSerif-68" transform="translate(1985.107422 0.015625)"/>
     <use xlink:href="#DejaVuSerif-20" transform="translate(2049.511719 0.015625)"/>
     <use xlink:href="#DejaVuSerif-74" transform="translate(2081.298828 0.015625)"/>
     <use xlink:href="#DejaVuSerif-68" transform="translate(2121.484375 0.015625)"/>
     <use xlink:href="#DejaVuSerif-61" transform="translate(2185.888672 0.015625)"/>
     <use xlink:href="#DejaVuSerif-74" transform="translate(2245.507812 0.015625)"/>
     <use xlink:href="#DejaVuSerif-20" transform="translate(2285.693359 0.015625)"/>
     <use xlink:href="#Cmmi10-66" transform="translate(2317.480469 0.015625)"/>
     <use xlink:href="#Cmmi10-4e" transform="translate(2366.357422 -16.990625) scale(0.7)"/>
     <use xlink:href="#Cmr10-28" transform="translate(2428.960352 0.015625)"/>
     <use xlink:href="#Cmmi10-78" transform="translate(2467.778711 0.015625)"/>
     <use xlink:href="#Cmr10-29" transform="translate(2524.858789 0.015625)"/>
     <use xlink:href="#STIXGeneral-Regular-2266" transform="translate(2581.235742 0.015625)"/>
     <use xlink:href="#Cmmi10-4d" transform="translate(2667.294321 0.015625)"/>
     <use xlink:href="#DejaVuSerif-20" transform="translate(2764.315805 0.015625)"/>
     <use xlink:href="#DejaVuSerif-66" transform="translate(2796.102914 0.015625)"/>
     <use xlink:href="#DejaVuSerif-6f" transform="translate(2833.114633 0.015625)"/>
     <use xlink:href="#DejaVuSerif-72" transform="translate(2893.319711 0.015625)"/>
     <use xlink:href="#DejaVuSerif-20" transform="translate(2941.122446 0.015625)"/>
     <use xlink:href="#DejaVuSerif-61" transform="translate(2972.909555 0.015625)"/>
     <use xlink:href="#DejaVuSerif-6c" transform="translate(3032.528696 0.015625)"/>
     <use xlink:href="#DejaVuSerif-6c" transform="translate(3064.511118 0.015625)"/>
     <use xlink:href="#DejaVuSerif-20" transform="translate(3096.493539 0.015625)"/>
     <use xlink:href="#Cmmi10-4e" transform="translate(3128.280649 0.015625)"/>
     <use xlink:href="#DejaVuSerif-20" transform="translate(3208.602914 0.015625)"/>
     <use xlink:href="#DejaVuSerif-61" transform="translate(3240.390024 0.015625)"/>
     <use xlink:href="#DejaVuSerif-6e" transform="translate(3300.009164 0.015625)"/>
     <use xlink:href="#DejaVuSerif-64" transform="translate(3364.413461 0.015625)"/>
     <use xlink:href="#DejaVuSerif-20" transform="translate(3428.427133 0.015625)"/>
     <use xlink:href="#DejaVuSerif-61" transform="translate(3460.214243 0.015625)"/>
     <use xlink:href="#DejaVuSerif-6c" transform="translate(3519.833383 0.015625)"/>
     <use xlink:href="#DejaVuSerif-6c" transform="translate(3551.815805 0.015625)"/>
     <use xlink:href="#DejaVuSerif-20" transform="translate(3583.798227 0.015625)"/>
     <use xlink:href="#DejaVuSerif-72" transform="translate(3615.585336 0.015625)"/>
     <use xlink:href="#DejaVuSerif-65" transform="translate(3663.388071 0.015625)"/>
     <use xlink:href="#DejaVuSerif-61" transform="translate(3722.567758 0.015625)"/>
     <use xlink:href="#DejaVuSerif-6c" transform="translate(3782.186899 0.015625)"/>
     <use xlink:href="#DejaVuSerif-20" transform="translate(3814.169321 0.015625)"/>
     <use xlink:href="#Cmmi10-78" transform="translate(3845.95643 0.015625)"/>
     <use xlink:href="#DejaVuSerif-2e" transform="translate(3903.036508 0.015625)"/>
    </g>
   </g>
  </g>
 </g>
</svg>
