<?xml version="1.0" encoding="utf-8" standalone="no"?>
<!DOCTYPE svg PUBLIC "-//W3C//DTD SVG 1.1//EN"
  "http://www.w3.org/Graphics/SVG/1.1/DTD/svg11.dtd">
<svg xmlns:xlink="http://www.w3.org/1999/xlink" width="1738.44pt" height="180.72pt" viewBox="0 0 1738.44 180.72" xmlns="http://www.w3.org/2000/svg" version="1.1">
 <metadata>
  <rdf:RDF xmlns:dc="http://purl.org/dc/elements/1.1/" xmlns:cc="http://creativecommons.org/ns#" xmlns:rdf="http://www.w3.org/1999/02/22-rdf-syntax-ns#">
   <cc:Work>
    <dc:type rdf:resource="http://purl.org/dc/dcmitype/StillImage"/>
    <dc:date>2025-05-29T18:43:45.685127</dc:date>
    <dc:format>image/svg+xml</dc:format>
    <dc:creator>
     <cc:Agent>
      <dc:title>Matplotlib v3.10.3, https://matplotlib.org/</dc:title>
     </cc:Agent>
    </dc:creator>
   </cc:Work>
  </rdf:RDF>
 </metadata>
 <defs>
  <style type="text/css">*{stroke-linejoin: round; stroke-linecap: butt}</style>
 </defs>
 <g id="figure_1">
  <g id="patch_1">
   <path d="M -0 180.72 
L 1738.44 180.72 
L 1738.44 0 
L -0 0 
z
" style="fill: #ffffff"/>
  </g>
  <g id="axes_1">
   <g id="text_1">
    <!-- Let $r$ be a real root of $P(x) = x^3 + ax^2 + bx - 1$, where $a$ and $b$ are integers and $P$ is irreducible over the rationals. Suppose that $r + 1$ is a root of $x^3 + cx^2 + dx + 1$, where $c$ and $d$ are also integers. Express another root $s$ of $P$ as a function of $r$ that does not depend on the values of $a$, $b$, $c$, or $d$. -->
    <g transform="translate(7.2 93.96) scale(0.12 -0.12)">
     <defs>
      <path id="DejaVuSerif-4c" d="M 353 0 
L 353 331 
L 947 331 
L 947 4331 
L 353 4331 
L 353 4666 
L 2175 4666 
L 2175 4331 
L 1581 4331 
L 1581 384 
L 3713 384 
L 3713 1166 
L 4097 1166 
L 4097 0 
L 353 0 
z
" transform="scale(0.015625)"/>
      <path id="DejaVuSerif-65" d="M 3469 1600 
L 991 1600 
L 991 1575 
Q 991 903 1244 561 
Q 1497 219 1991 219 
Q 2369 219 2611 417 
Q 2853 616 2950 1006 
L 3413 1006 
Q 3275 459 2904 184 
Q 2534 -91 1931 -91 
Q 1203 -91 761 389 
Q 319 869 319 1663 
Q 319 2450 753 2931 
Q 1188 3413 1894 3413 
Q 2647 3413 3050 2948 
Q 3453 2484 3469 1600 
z
M 2791 1931 
Q 2772 2513 2545 2808 
Q 2319 3103 1894 3103 
Q 1497 3103 1269 2806 
Q 1041 2509 991 1931 
L 2791 1931 
z
" transform="scale(0.015625)"/>
      <path id="DejaVuSerif-74" d="M 691 2988 
L 184 2988 
L 184 3322 
L 691 3322 
L 691 4353 
L 1269 4353 
L 1269 3322 
L 2350 3322 
L 2350 2988 
L 1269 2988 
L 1269 878 
Q 1269 456 1350 337 
Q 1431 219 1650 219 
Q 1875 219 1978 351 
Q 2081 484 2088 781 
L 2522 781 
Q 2497 328 2275 118 
Q 2053 -91 1600 -91 
Q 1103 -91 897 129 
Q 691 350 691 878 
L 691 2988 
z
" transform="scale(0.015625)"/>
      <path id="DejaVuSerif-20" transform="scale(0.015625)"/>
      <path id="Cmmi10-72" d="M 494 109 
Q 494 147 500 166 
L 978 2075 
Q 1025 2253 1025 2388 
Q 1025 2663 838 2663 
Q 638 2663 541 2423 
Q 444 2184 353 1819 
Q 353 1800 334 1789 
Q 316 1778 300 1778 
L 225 1778 
Q 203 1778 187 1801 
Q 172 1825 172 1844 
Q 241 2122 305 2315 
Q 369 2509 505 2668 
Q 641 2828 844 2828 
Q 1066 2828 1233 2700 
Q 1400 2572 1441 2363 
Q 1603 2575 1811 2701 
Q 2019 2828 2266 2828 
Q 2469 2828 2623 2709 
Q 2778 2591 2778 2388 
Q 2778 2225 2676 2104 
Q 2575 1984 2406 1984 
Q 2303 1984 2233 2048 
Q 2163 2113 2163 2216 
Q 2163 2356 2266 2467 
Q 2369 2578 2503 2578 
Q 2400 2663 2253 2663 
Q 1978 2663 1775 2467 
Q 1572 2272 1409 1972 
L 953 141 
Q 931 53 854 -9 
Q 778 -72 684 -72 
Q 606 -72 550 -22 
Q 494 28 494 109 
z
" transform="scale(0.015625)"/>
      <path id="DejaVuSerif-62" d="M 738 331 
L 738 4531 
L 184 4531 
L 184 4863 
L 1313 4863 
L 1313 2803 
Q 1481 3116 1742 3264 
Q 2003 3413 2388 3413 
Q 3000 3413 3387 2928 
Q 3775 2444 3775 1663 
Q 3775 881 3387 395 
Q 3000 -91 2388 -91 
Q 2003 -91 1742 57 
Q 1481 206 1313 519 
L 1313 0 
L 184 0 
L 184 331 
L 738 331 
z
M 1313 1497 
Q 1313 897 1542 583 
Q 1772 269 2209 269 
Q 2650 269 2876 622 
Q 3103 975 3103 1663 
Q 3103 2353 2876 2703 
Q 2650 3053 2209 3053 
Q 1772 3053 1542 2737 
Q 1313 2422 1313 1825 
L 1313 1497 
z
" transform="scale(0.015625)"/>
      <path id="DejaVuSerif-61" d="M 2547 1044 
L 2547 1747 
L 1806 1747 
Q 1378 1747 1168 1562 
Q 959 1378 959 997 
Q 959 650 1171 447 
Q 1384 244 1747 244 
Q 2106 244 2326 466 
Q 2547 688 2547 1044 
z
M 3122 2075 
L 3122 331 
L 3634 331 
L 3634 0 
L 2547 0 
L 2547 359 
Q 2356 128 2106 18 
Q 1856 -91 1522 -91 
Q 969 -91 644 203 
Q 319 497 319 997 
Q 319 1513 691 1797 
Q 1063 2081 1741 2081 
L 2547 2081 
L 2547 2309 
Q 2547 2688 2317 2895 
Q 2088 3103 1672 3103 
Q 1328 3103 1125 2947 
Q 922 2791 872 2484 
L 575 2484 
L 575 3156 
Q 875 3284 1158 3348 
Q 1441 3413 1709 3413 
Q 2400 3413 2761 3070 
Q 3122 2728 3122 2075 
z
" transform="scale(0.015625)"/>
      <path id="DejaVuSerif-72" d="M 3059 3328 
L 3059 2497 
L 2728 2497 
Q 2713 2744 2591 2866 
Q 2469 2988 2234 2988 
Q 1809 2988 1582 2694 
Q 1356 2400 1356 1850 
L 1356 331 
L 2022 331 
L 2022 0 
L 263 0 
L 263 331 
L 781 331 
L 781 2994 
L 231 2994 
L 231 3322 
L 1356 3322 
L 1356 2731 
Q 1525 3078 1790 3245 
Q 2056 3413 2438 3413 
Q 2578 3413 2733 3391 
Q 2888 3369 3059 3328 
z
" transform="scale(0.015625)"/>
      <path id="DejaVuSerif-6c" d="M 1313 331 
L 1856 331 
L 1856 0 
L 184 0 
L 184 331 
L 738 331 
L 738 4531 
L 184 4531 
L 184 4863 
L 1313 4863 
L 1313 331 
z
" transform="scale(0.015625)"/>
      <path id="DejaVuSerif-6f" d="M 1925 219 
Q 2388 219 2623 584 
Q 2859 950 2859 1663 
Q 2859 2375 2623 2739 
Q 2388 3103 1925 3103 
Q 1463 3103 1227 2739 
Q 991 2375 991 1663 
Q 991 950 1228 584 
Q 1466 219 1925 219 
z
M 1925 -91 
Q 1200 -91 759 389 
Q 319 869 319 1663 
Q 319 2456 758 2934 
Q 1197 3413 1925 3413 
Q 2653 3413 3092 2934 
Q 3531 2456 3531 1663 
Q 3531 869 3092 389 
Q 2653 -91 1925 -91 
z
" transform="scale(0.015625)"/>
      <path id="DejaVuSerif-66" d="M 2753 4078 
L 2450 4078 
Q 2447 4313 2317 4434 
Q 2188 4556 1941 4556 
Q 1619 4556 1487 4379 
Q 1356 4203 1356 3750 
L 1356 3322 
L 2284 3322 
L 2284 2988 
L 1356 2988 
L 1356 331 
L 2094 331 
L 2094 0 
L 231 0 
L 231 331 
L 781 331 
L 781 2988 
L 231 2988 
L 231 3322 
L 781 3322 
L 781 3738 
Q 781 4294 1070 4578 
Q 1359 4863 1919 4863 
Q 2128 4863 2337 4825 
Q 2547 4788 2753 4709 
L 2753 4078 
z
" transform="scale(0.015625)"/>
      <path id="Cmmi10-50" d="M 313 0 
Q 250 0 250 84 
Q 253 100 262 139 
Q 272 178 289 201 
Q 306 225 331 225 
Q 722 225 878 269 
Q 959 297 997 441 
L 1875 3956 
Q 1888 4019 1888 4044 
Q 1888 4113 1813 4122 
Q 1691 4147 1350 4147 
Q 1288 4147 1288 4231 
Q 1291 4247 1300 4286 
Q 1309 4325 1326 4348 
Q 1344 4372 1369 4372 
L 3578 4372 
Q 3881 4372 4165 4264 
Q 4450 4156 4631 3934 
Q 4813 3713 4813 3397 
Q 4813 2991 4527 2672 
Q 4241 2353 3814 2175 
Q 3388 1997 2988 1997 
L 1947 1997 
L 1556 416 
Q 1544 353 1544 325 
Q 1544 300 1551 283 
Q 1559 266 1573 261 
Q 1588 256 1619 250 
Q 1741 225 2081 225 
Q 2144 225 2144 141 
Q 2122 50 2109 25 
Q 2097 0 2034 0 
L 313 0 
z
M 1978 2188 
L 2875 2188 
Q 3497 2188 3822 2522 
Q 3988 2688 4092 3000 
Q 4197 3313 4197 3566 
Q 4197 3881 3956 4014 
Q 3716 4147 3359 4147 
L 2747 4147 
Q 2572 4147 2515 4117 
Q 2459 4088 2413 3928 
L 1978 2188 
z
" transform="scale(0.015625)"/>
      <path id="Cmr10-28" d="M 1984 -1588 
Q 1628 -1306 1370 -942 
Q 1113 -578 948 -165 
Q 784 247 703 697 
Q 622 1147 622 1600 
Q 622 2059 703 2509 
Q 784 2959 951 3375 
Q 1119 3791 1378 4153 
Q 1638 4516 1984 4788 
Q 1984 4800 2016 4800 
L 2075 4800 
Q 2094 4800 2109 4783 
Q 2125 4766 2125 4744 
Q 2125 4716 2113 4703 
Q 1800 4397 1592 4047 
Q 1384 3697 1257 3301 
Q 1131 2906 1075 2482 
Q 1019 2059 1019 1600 
Q 1019 -434 2106 -1491 
Q 2125 -1509 2125 -1544 
Q 2125 -1559 2108 -1579 
Q 2091 -1600 2075 -1600 
L 2016 -1600 
Q 1984 -1600 1984 -1588 
z
" transform="scale(0.015625)"/>
      <path id="Cmmi10-78" d="M 500 184 
Q 613 97 819 97 
Q 1019 97 1172 289 
Q 1325 481 1381 709 
L 1672 1844 
Q 1741 2153 1741 2266 
Q 1741 2425 1652 2544 
Q 1563 2663 1403 2663 
Q 1200 2663 1022 2536 
Q 844 2409 722 2214 
Q 600 2019 550 1819 
Q 538 1778 500 1778 
L 422 1778 
Q 372 1778 372 1838 
L 372 1856 
Q 434 2094 584 2320 
Q 734 2547 951 2687 
Q 1169 2828 1416 2828 
Q 1650 2828 1839 2703 
Q 2028 2578 2106 2363 
Q 2216 2559 2386 2693 
Q 2556 2828 2759 2828 
Q 2897 2828 3040 2779 
Q 3184 2731 3275 2631 
Q 3366 2531 3366 2381 
Q 3366 2219 3261 2101 
Q 3156 1984 2994 1984 
Q 2891 1984 2822 2050 
Q 2753 2116 2753 2216 
Q 2753 2350 2845 2451 
Q 2938 2553 3066 2572 
Q 2950 2663 2747 2663 
Q 2541 2663 2389 2472 
Q 2238 2281 2175 2047 
L 1894 916 
Q 1825 659 1825 494 
Q 1825 331 1917 214 
Q 2009 97 2163 97 
Q 2463 97 2698 361 
Q 2934 625 3009 941 
Q 3022 978 3059 978 
L 3138 978 
Q 3163 978 3178 961 
Q 3194 944 3194 922 
Q 3194 916 3188 903 
Q 3097 522 2806 225 
Q 2516 -72 2150 -72 
Q 1916 -72 1727 54 
Q 1538 181 1459 397 
Q 1359 209 1182 68 
Q 1006 -72 806 -72 
Q 669 -72 523 -23 
Q 378 25 287 125 
Q 197 225 197 378 
Q 197 528 301 651 
Q 406 775 563 775 
Q 669 775 741 711 
Q 813 647 813 544 
Q 813 409 723 309 
Q 634 209 500 184 
z
" transform="scale(0.015625)"/>
      <path id="Cmr10-29" d="M 416 -1600 
Q 359 -1600 359 -1544 
Q 359 -1516 372 -1503 
Q 1466 -434 1466 1600 
Q 1466 3634 384 4691 
Q 359 4706 359 4744 
Q 359 4766 376 4783 
Q 394 4800 416 4800 
L 475 4800 
Q 494 4800 506 4788 
Q 966 4425 1272 3906 
Q 1578 3388 1720 2800 
Q 1863 2213 1863 1600 
Q 1863 1147 1786 708 
Q 1709 269 1542 -157 
Q 1375 -584 1119 -945 
Q 863 -1306 506 -1588 
Q 494 -1600 475 -1600 
L 416 -1600 
z
" transform="scale(0.015625)"/>
      <path id="Cmr10-3d" d="M 481 850 
Q 428 850 393 890 
Q 359 931 359 978 
Q 359 1031 393 1068 
Q 428 1106 481 1106 
L 4500 1106 
Q 4547 1106 4581 1068 
Q 4616 1031 4616 978 
Q 4616 931 4581 890 
Q 4547 850 4500 850 
L 481 850 
z
M 481 2094 
Q 428 2094 393 2131 
Q 359 2169 359 2222 
Q 359 2269 393 2309 
Q 428 2350 481 2350 
L 4500 2350 
Q 4547 2350 4581 2309 
Q 4616 2269 4616 2222 
Q 4616 2169 4581 2131 
Q 4547 2094 4500 2094 
L 481 2094 
z
" transform="scale(0.015625)"/>
      <path id="Cmr10-33" d="M 609 494 
Q 759 275 1012 169 
Q 1266 63 1556 63 
Q 1928 63 2084 380 
Q 2241 697 2241 1100 
Q 2241 1281 2208 1462 
Q 2175 1644 2097 1800 
Q 2019 1956 1883 2050 
Q 1747 2144 1550 2144 
L 1125 2144 
Q 1069 2144 1069 2203 
L 1069 2259 
Q 1069 2309 1125 2309 
L 1478 2338 
Q 1703 2338 1851 2506 
Q 2000 2675 2069 2917 
Q 2138 3159 2138 3378 
Q 2138 3684 1994 3881 
Q 1850 4078 1556 4078 
Q 1313 4078 1091 3986 
Q 869 3894 738 3706 
Q 750 3709 759 3711 
Q 769 3713 781 3713 
Q 925 3713 1022 3613 
Q 1119 3513 1119 3372 
Q 1119 3234 1022 3134 
Q 925 3034 781 3034 
Q 641 3034 541 3134 
Q 441 3234 441 3372 
Q 441 3647 606 3850 
Q 772 4053 1033 4158 
Q 1294 4263 1556 4263 
Q 1750 4263 1965 4205 
Q 2181 4147 2356 4039 
Q 2531 3931 2642 3762 
Q 2753 3594 2753 3378 
Q 2753 3109 2633 2881 
Q 2513 2653 2303 2487 
Q 2094 2322 1844 2241 
Q 2122 2188 2372 2031 
Q 2622 1875 2773 1631 
Q 2925 1388 2925 1106 
Q 2925 753 2731 467 
Q 2538 181 2222 20 
Q 1906 -141 1556 -141 
Q 1256 -141 954 -26 
Q 653 88 461 316 
Q 269 544 269 863 
Q 269 1022 375 1128 
Q 481 1234 641 1234 
Q 744 1234 830 1186 
Q 916 1138 964 1050 
Q 1013 963 1013 863 
Q 1013 706 903 600 
Q 794 494 641 494 
L 609 494 
z
" transform="scale(0.015625)"/>
      <path id="Cmr10-2b" d="M 481 1472 
Q 428 1472 393 1512 
Q 359 1553 359 1600 
Q 359 1647 393 1687 
Q 428 1728 481 1728 
L 2363 1728 
L 2363 3616 
Q 2363 3666 2400 3698 
Q 2438 3731 2491 3731 
Q 2538 3731 2578 3698 
Q 2619 3666 2619 3616 
L 2619 1728 
L 4500 1728 
Q 4547 1728 4581 1687 
Q 4616 1647 4616 1600 
Q 4616 1553 4581 1512 
Q 4547 1472 4500 1472 
L 2619 1472 
L 2619 -416 
Q 2619 -466 2578 -498 
Q 2538 -531 2491 -531 
Q 2438 -531 2400 -498 
Q 2363 -466 2363 -416 
L 2363 1472 
L 481 1472 
z
" transform="scale(0.015625)"/>
      <path id="Cmmi10-61" d="M 1113 -72 
Q 709 -72 476 233 
Q 244 538 244 953 
Q 244 1363 456 1803 
Q 669 2244 1030 2536 
Q 1391 2828 1806 2828 
Q 1997 2828 2147 2725 
Q 2297 2622 2381 2444 
Q 2453 2700 2663 2700 
Q 2744 2700 2798 2651 
Q 2853 2603 2853 2522 
Q 2853 2503 2851 2493 
Q 2850 2484 2847 2472 
L 2400 684 
Q 2356 494 2356 372 
Q 2356 97 2541 97 
Q 2741 97 2845 351 
Q 2950 606 3022 941 
Q 3034 978 3072 978 
L 3150 978 
Q 3175 978 3190 956 
Q 3206 934 3206 916 
Q 3094 469 2961 198 
Q 2828 -72 2528 -72 
Q 2313 -72 2147 54 
Q 1981 181 1941 391 
Q 1528 -72 1113 -72 
z
M 1119 97 
Q 1350 97 1567 270 
Q 1784 444 1941 678 
Q 1947 684 1947 697 
L 2291 2088 
L 2297 2106 
Q 2259 2334 2132 2498 
Q 2006 2663 1791 2663 
Q 1575 2663 1389 2486 
Q 1203 2309 1075 2069 
Q 950 1813 836 1366 
Q 722 919 722 672 
Q 722 450 817 273 
Q 913 97 1119 97 
z
" transform="scale(0.015625)"/>
      <path id="Cmr10-32" d="M 319 0 
L 319 172 
Q 319 188 331 206 
L 1325 1306 
Q 1550 1550 1690 1715 
Q 1831 1881 1968 2097 
Q 2106 2313 2186 2536 
Q 2266 2759 2266 3009 
Q 2266 3272 2169 3511 
Q 2072 3750 1880 3894 
Q 1688 4038 1416 4038 
Q 1138 4038 916 3870 
Q 694 3703 603 3438 
Q 628 3444 672 3444 
Q 816 3444 917 3347 
Q 1019 3250 1019 3097 
Q 1019 2950 917 2848 
Q 816 2747 672 2747 
Q 522 2747 420 2851 
Q 319 2956 319 3097 
Q 319 3338 409 3548 
Q 500 3759 670 3923 
Q 841 4088 1055 4175 
Q 1269 4263 1509 4263 
Q 1875 4263 2190 4108 
Q 2506 3953 2690 3670 
Q 2875 3388 2875 3009 
Q 2875 2731 2753 2481 
Q 2631 2231 2440 2026 
Q 2250 1822 1953 1562 
Q 1656 1303 1563 1216 
L 838 519 
L 1453 519 
Q 1906 519 2211 526 
Q 2516 534 2534 550 
Q 2609 631 2688 1141 
L 2875 1141 
L 2694 0 
L 319 0 
z
" transform="scale(0.015625)"/>
      <path id="Cmmi10-62" d="M 1106 -72 
Q 719 -72 503 231 
Q 288 534 288 941 
Q 288 1000 317 1173 
Q 347 1347 347 1388 
L 966 3872 
Q 991 3981 997 4044 
Q 997 4147 581 4147 
Q 519 4147 519 4231 
Q 522 4247 533 4287 
Q 544 4328 561 4350 
Q 578 4372 609 4372 
L 1472 4441 
Q 1550 4441 1550 4359 
L 1075 2472 
Q 1438 2828 1806 2828 
Q 2078 2828 2273 2684 
Q 2469 2541 2566 2306 
Q 2663 2072 2663 1806 
Q 2663 1497 2542 1167 
Q 2422 838 2209 555 
Q 1997 272 1712 100 
Q 1428 -72 1106 -72 
z
M 1119 97 
Q 1338 97 1528 280 
Q 1719 463 1838 691 
Q 1966 947 2077 1386 
Q 2188 1825 2188 2088 
Q 2188 2316 2092 2489 
Q 1997 2663 1791 2663 
Q 1559 2663 1348 2492 
Q 1138 2322 978 2088 
L 800 1363 
Q 697 959 691 716 
Q 691 475 795 286 
Q 900 97 1119 97 
z
" transform="scale(0.015625)"/>
      <path id="Cmsy10-a1" d="M 653 1472 
Q 600 1472 565 1512 
Q 531 1553 531 1600 
Q 531 1647 565 1687 
Q 600 1728 653 1728 
L 4325 1728 
Q 4375 1728 4408 1687 
Q 4441 1647 4441 1600 
Q 4441 1553 4408 1512 
Q 4375 1472 4325 1472 
L 653 1472 
z
" transform="scale(0.015625)"/>
      <path id="Cmr10-31" d="M 594 0 
L 594 225 
Q 1394 225 1394 428 
L 1394 3788 
Q 1063 3628 556 3628 
L 556 3853 
Q 1341 3853 1741 4263 
L 1831 4263 
Q 1853 4263 1873 4245 
Q 1894 4228 1894 4206 
L 1894 428 
Q 1894 225 2694 225 
L 2694 0 
L 594 0 
z
" transform="scale(0.015625)"/>
      <path id="DejaVuSerif-2c" d="M 231 -622 
Q 525 -406 662 -114 
Q 800 178 800 594 
L 800 709 
L 1416 709 
Q 1391 175 1164 -208 
Q 938 -591 481 -872 
L 231 -622 
z
" transform="scale(0.015625)"/>
      <path id="DejaVuSerif-77" d="M 3072 3322 
L 3922 728 
L 4672 2988 
L 4191 2988 
L 4191 3322 
L 5394 3322 
L 5394 2988 
L 5025 2988 
L 4038 0 
L 3559 0 
L 2741 2484 
L 1919 0 
L 1459 0 
L 475 2988 
L 103 2988 
L 103 3322 
L 1606 3322 
L 1606 2988 
L 1069 2988 
L 1813 728 
L 2669 3322 
L 3072 3322 
z
" transform="scale(0.015625)"/>
      <path id="DejaVuSerif-68" d="M 263 0 
L 263 331 
L 781 331 
L 781 4531 
L 231 4531 
L 231 4863 
L 1356 4863 
L 1356 2731 
Q 1516 3069 1770 3241 
Q 2025 3413 2363 3413 
Q 2913 3413 3172 3097 
Q 3431 2781 3431 2113 
L 3431 331 
L 3944 331 
L 3944 0 
L 2356 0 
L 2356 331 
L 2853 331 
L 2853 1931 
Q 2853 2541 2704 2764 
Q 2556 2988 2175 2988 
Q 1775 2988 1565 2697 
Q 1356 2406 1356 1850 
L 1356 331 
L 1856 331 
L 1856 0 
L 263 0 
z
" transform="scale(0.015625)"/>
      <path id="DejaVuSerif-6e" d="M 263 0 
L 263 331 
L 781 331 
L 781 2988 
L 231 2988 
L 231 3322 
L 1356 3322 
L 1356 2731 
Q 1516 3069 1770 3241 
Q 2025 3413 2363 3413 
Q 2913 3413 3172 3097 
Q 3431 2781 3431 2113 
L 3431 331 
L 3944 331 
L 3944 0 
L 2356 0 
L 2356 331 
L 2853 331 
L 2853 1931 
Q 2853 2541 2703 2767 
Q 2553 2994 2175 2994 
Q 1775 2994 1565 2701 
Q 1356 2409 1356 1850 
L 1356 331 
L 1856 331 
L 1856 0 
L 263 0 
z
" transform="scale(0.015625)"/>
      <path id="DejaVuSerif-64" d="M 3359 331 
L 3909 331 
L 3909 0 
L 2784 0 
L 2784 519 
Q 2616 206 2355 57 
Q 2094 -91 1709 -91 
Q 1097 -91 708 395 
Q 319 881 319 1663 
Q 319 2444 706 2928 
Q 1094 3413 1709 3413 
Q 2094 3413 2355 3264 
Q 2616 3116 2784 2803 
L 2784 4531 
L 2241 4531 
L 2241 4863 
L 3359 4863 
L 3359 331 
z
M 2784 1497 
L 2784 1825 
Q 2784 2422 2554 2737 
Q 2325 3053 1888 3053 
Q 1444 3053 1217 2703 
Q 991 2353 991 1663 
Q 991 975 1217 622 
Q 1444 269 1888 269 
Q 2325 269 2554 583 
Q 2784 897 2784 1497 
z
" transform="scale(0.015625)"/>
      <path id="DejaVuSerif-69" d="M 622 4353 
Q 622 4497 726 4603 
Q 831 4709 978 4709 
Q 1122 4709 1226 4603 
Q 1331 4497 1331 4353 
Q 1331 4206 1228 4103 
Q 1125 4000 978 4000 
Q 831 4000 726 4103 
Q 622 4206 622 4353 
z
M 1356 331 
L 1900 331 
L 1900 0 
L 231 0 
L 231 331 
L 781 331 
L 781 2988 
L 231 2988 
L 231 3322 
L 1356 3322 
L 1356 331 
z
" transform="scale(0.015625)"/>
      <path id="DejaVuSerif-67" d="M 3359 2988 
L 3359 72 
Q 3359 -644 2965 -1033 
Q 2572 -1422 1844 -1422 
Q 1516 -1422 1216 -1362 
Q 916 -1303 641 -1184 
L 641 -488 
L 941 -488 
Q 997 -813 1206 -963 
Q 1416 -1113 1806 -1113 
Q 2313 -1113 2548 -827 
Q 2784 -541 2784 72 
L 2784 519 
Q 2616 206 2355 57 
Q 2094 -91 1709 -91 
Q 1097 -91 708 395 
Q 319 881 319 1663 
Q 319 2444 706 2928 
Q 1094 3413 1709 3413 
Q 2094 3413 2355 3264 
Q 2616 3116 2784 2803 
L 2784 3322 
L 3909 3322 
L 3909 2988 
L 3359 2988 
z
M 2784 1825 
Q 2784 2422 2554 2737 
Q 2325 3053 1888 3053 
Q 1444 3053 1217 2703 
Q 991 2353 991 1663 
Q 991 975 1217 622 
Q 1444 269 1888 269 
Q 2325 269 2554 583 
Q 2784 897 2784 1497 
L 2784 1825 
z
" transform="scale(0.015625)"/>
      <path id="DejaVuSerif-73" d="M 359 184 
L 359 959 
L 691 959 
Q 703 588 923 403 
Q 1144 219 1575 219 
Q 1963 219 2166 364 
Q 2369 509 2369 788 
Q 2369 1006 2220 1140 
Q 2072 1275 1594 1428 
L 1178 1569 
Q 750 1706 558 1912 
Q 366 2119 366 2438 
Q 366 2894 700 3153 
Q 1034 3413 1625 3413 
Q 1888 3413 2178 3344 
Q 2469 3275 2778 3144 
L 2778 2419 
L 2447 2419 
Q 2434 2741 2221 2922 
Q 2009 3103 1644 3103 
Q 1281 3103 1095 2975 
Q 909 2847 909 2591 
Q 909 2381 1050 2254 
Q 1191 2128 1613 1997 
L 2069 1856 
Q 2541 1709 2748 1489 
Q 2956 1269 2956 922 
Q 2956 450 2595 179 
Q 2234 -91 1600 -91 
Q 1278 -91 972 -22 
Q 666 47 359 184 
z
" transform="scale(0.015625)"/>
      <path id="DejaVuSerif-75" d="M 2266 3322 
L 3341 3322 
L 3341 331 
L 3884 331 
L 3884 0 
L 2766 0 
L 2766 588 
Q 2606 256 2353 82 
Q 2100 -91 1766 -91 
Q 1213 -91 952 223 
Q 691 538 691 1209 
L 691 2988 
L 172 2988 
L 172 3322 
L 1269 3322 
L 1269 1388 
Q 1269 781 1417 556 
Q 1566 331 1947 331 
Q 2347 331 2556 625 
Q 2766 919 2766 1478 
L 2766 2988 
L 2266 2988 
L 2266 3322 
z
" transform="scale(0.015625)"/>
      <path id="DejaVuSerif-63" d="M 3291 997 
Q 3169 466 2822 187 
Q 2475 -91 1925 -91 
Q 1200 -91 759 389 
Q 319 869 319 1663 
Q 319 2459 759 2936 
Q 1200 3413 1925 3413 
Q 2241 3413 2553 3339 
Q 2866 3266 3181 3116 
L 3181 2266 
L 2847 2266 
Q 2781 2703 2561 2903 
Q 2341 3103 1931 3103 
Q 1466 3103 1228 2742 
Q 991 2381 991 1663 
Q 991 944 1227 581 
Q 1463 219 1931 219 
Q 2303 219 2525 412 
Q 2747 606 2828 997 
L 3291 997 
z
" transform="scale(0.015625)"/>
      <path id="DejaVuSerif-76" d="M 1581 0 
L 359 2988 
L -19 2988 
L -19 3322 
L 1509 3322 
L 1509 2988 
L 978 2988 
L 1913 703 
L 2847 2988 
L 2350 2988 
L 2350 3322 
L 3597 3322 
L 3597 2988 
L 3225 2988 
L 2003 0 
L 1581 0 
z
" transform="scale(0.015625)"/>
      <path id="DejaVuSerif-2e" d="M 603 325 
Q 603 500 722 622 
Q 841 744 1019 744 
Q 1191 744 1312 622 
Q 1434 500 1434 325 
Q 1434 153 1312 31 
Q 1191 -91 1019 -91 
Q 841 -91 722 29 
Q 603 150 603 325 
z
" transform="scale(0.015625)"/>
      <path id="DejaVuSerif-53" d="M 594 225 
L 594 1288 
L 953 1284 
Q 969 753 1261 498 
Q 1553 244 2150 244 
Q 2706 244 2998 464 
Q 3291 684 3291 1106 
Q 3291 1444 3114 1625 
Q 2938 1806 2369 1978 
L 1753 2163 
Q 1084 2366 811 2669 
Q 538 2972 538 3500 
Q 538 4094 959 4422 
Q 1381 4750 2144 4750 
Q 2469 4750 2856 4679 
Q 3244 4609 3681 4475 
L 3681 3481 
L 3328 3481 
Q 3275 3975 2998 4195 
Q 2722 4416 2156 4416 
Q 1663 4416 1405 4214 
Q 1147 4013 1147 3628 
Q 1147 3294 1340 3103 
Q 1534 2913 2163 2725 
L 2741 2553 
Q 3375 2363 3645 2067 
Q 3916 1772 3916 1275 
Q 3916 597 3481 253 
Q 3047 -91 2188 -91 
Q 1803 -91 1404 -12 
Q 1006 66 594 225 
z
" transform="scale(0.015625)"/>
      <path id="DejaVuSerif-70" d="M 1313 1825 
L 1313 1497 
Q 1313 897 1542 583 
Q 1772 269 2209 269 
Q 2650 269 2876 622 
Q 3103 975 3103 1663 
Q 3103 2353 2876 2703 
Q 2650 3053 2209 3053 
Q 1772 3053 1542 2737 
Q 1313 2422 1313 1825 
z
M 738 2988 
L 184 2988 
L 184 3322 
L 1313 3322 
L 1313 2803 
Q 1481 3116 1742 3264 
Q 2003 3413 2388 3413 
Q 3000 3413 3387 2928 
Q 3775 2444 3775 1663 
Q 3775 881 3387 395 
Q 3000 -91 2388 -91 
Q 2003 -91 1742 57 
Q 1481 206 1313 519 
L 1313 -997 
L 1856 -997 
L 1856 -1331 
L 184 -1331 
L 184 -997 
L 738 -997 
L 738 2988 
z
" transform="scale(0.015625)"/>
      <path id="Cmmi10-63" d="M 750 763 
Q 750 484 892 290 
Q 1034 97 1300 97 
Q 1681 97 2032 272 
Q 2384 447 2606 756 
Q 2625 775 2656 775 
Q 2688 775 2720 739 
Q 2753 703 2753 672 
Q 2753 647 2741 634 
Q 2506 306 2109 117 
Q 1713 -72 1288 -72 
Q 981 -72 747 73 
Q 513 219 384 462 
Q 256 706 256 1013 
Q 256 1444 497 1869 
Q 738 2294 1138 2561 
Q 1538 2828 1978 2828 
Q 2266 2828 2495 2689 
Q 2725 2550 2725 2278 
Q 2725 2103 2623 1979 
Q 2522 1856 2350 1856 
Q 2247 1856 2176 1920 
Q 2106 1984 2106 2088 
Q 2106 2238 2215 2344 
Q 2325 2450 2472 2450 
L 2484 2450 
Q 2409 2559 2267 2611 
Q 2125 2663 1972 2663 
Q 1597 2663 1315 2342 
Q 1034 2022 892 1576 
Q 750 1131 750 763 
z
" transform="scale(0.015625)"/>
      <path id="Cmmi10-64" d="M 1113 -72 
Q 709 -72 476 233 
Q 244 538 244 953 
Q 244 1363 456 1803 
Q 669 2244 1030 2536 
Q 1391 2828 1806 2828 
Q 1994 2828 2145 2723 
Q 2297 2619 2381 2444 
L 2741 3872 
Q 2766 3981 2772 4044 
Q 2772 4147 2356 4147 
Q 2291 4147 2291 4231 
Q 2294 4247 2305 4287 
Q 2316 4328 2333 4350 
Q 2350 4372 2381 4372 
L 3244 4441 
Q 3322 4441 3322 4359 
L 2400 678 
Q 2356 572 2356 372 
Q 2356 97 2541 97 
Q 2741 97 2845 351 
Q 2950 606 3022 941 
Q 3034 978 3072 978 
L 3150 978 
Q 3175 978 3190 956 
Q 3206 934 3206 916 
Q 3094 469 2961 198 
Q 2828 -72 2528 -72 
Q 2313 -72 2147 54 
Q 1981 181 1941 391 
Q 1528 -72 1113 -72 
z
M 1119 97 
Q 1350 97 1567 270 
Q 1784 444 1941 678 
Q 1947 684 1947 703 
L 2297 2113 
Q 2259 2338 2131 2500 
Q 2003 2663 1791 2663 
Q 1575 2663 1389 2486 
Q 1203 2309 1075 2069 
Q 950 1813 836 1366 
Q 722 919 722 672 
Q 722 450 817 273 
Q 913 97 1119 97 
z
" transform="scale(0.015625)"/>
      <path id="DejaVuSerif-45" d="M 353 0 
L 353 331 
L 947 331 
L 947 4331 
L 353 4331 
L 353 4666 
L 4109 4666 
L 4109 3628 
L 3725 3628 
L 3725 4281 
L 1581 4281 
L 1581 2719 
L 3109 2719 
L 3109 3303 
L 3494 3303 
L 3494 1753 
L 3109 1753 
L 3109 2338 
L 1581 2338 
L 1581 384 
L 3775 384 
L 3775 1038 
L 4159 1038 
L 4159 0 
L 353 0 
z
" transform="scale(0.015625)"/>
      <path id="DejaVuSerif-78" d="M 1863 2028 
L 2559 2988 
L 2113 2988 
L 2113 3322 
L 3391 3322 
L 3391 2988 
L 2950 2988 
L 2059 1759 
L 3097 331 
L 3531 331 
L 3531 0 
L 1997 0 
L 1997 331 
L 2419 331 
L 1697 1325 
L 972 331 
L 1403 331 
L 1403 0 
L 141 0 
L 141 331 
L 581 331 
L 1497 1594 
L 488 2988 
L 78 2988 
L 78 3322 
L 1563 3322 
L 1563 2988 
L 1166 2988 
L 1863 2028 
z
" transform="scale(0.015625)"/>
      <path id="Cmmi10-73" d="M 556 391 
Q 728 97 1247 97 
Q 1472 97 1675 173 
Q 1878 250 2011 403 
Q 2144 556 2144 775 
Q 2144 941 2025 1047 
Q 1906 1153 1734 1191 
L 1388 1259 
Q 1150 1319 997 1481 
Q 844 1644 844 1875 
Q 844 2159 998 2378 
Q 1153 2597 1406 2712 
Q 1659 2828 1931 2828 
Q 2222 2828 2451 2689 
Q 2681 2550 2681 2278 
Q 2681 2131 2598 2018 
Q 2516 1906 2369 1906 
Q 2284 1906 2223 1961 
Q 2163 2016 2163 2100 
Q 2163 2175 2205 2245 
Q 2247 2316 2317 2358 
Q 2388 2400 2463 2400 
Q 2406 2538 2251 2600 
Q 2097 2663 1919 2663 
Q 1756 2663 1593 2597 
Q 1431 2531 1332 2404 
Q 1234 2278 1234 2106 
Q 1234 1991 1315 1903 
Q 1397 1816 1516 1778 
L 1888 1703 
Q 2066 1666 2214 1570 
Q 2363 1475 2448 1329 
Q 2534 1184 2534 997 
Q 2534 759 2401 528 
Q 2269 297 2075 159 
Q 1734 -72 1241 -72 
Q 900 -72 615 84 
Q 331 241 331 550 
Q 331 725 432 854 
Q 534 984 709 984 
Q 813 984 883 921 
Q 953 859 953 756 
Q 953 609 843 500 
Q 734 391 588 391 
L 556 391 
z
" transform="scale(0.015625)"/>
     </defs>
     <use xlink:href="#DejaVuSerif-4c" transform="translate(0 0.109375)"/>
     <use xlink:href="#DejaVuSerif-65" transform="translate(66.40625 0.109375)"/>
     <use xlink:href="#DejaVuSerif-74" transform="translate(125.585938 0.109375)"/>
     <use xlink:href="#DejaVuSerif-20" transform="translate(165.771484 0.109375)"/>
     <use xlink:href="#Cmmi10-72" transform="translate(197.558594 0.109375)"/>
     <use xlink:href="#DejaVuSerif-20" transform="translate(242.675781 0.109375)"/>
     <use xlink:href="#DejaVuSerif-62" transform="translate(274.462891 0.109375)"/>
     <use xlink:href="#DejaVuSerif-65" transform="translate(338.476562 0.109375)"/>
     <use xlink:href="#DejaVuSerif-20" transform="translate(397.65625 0.109375)"/>
     <use xlink:href="#DejaVuSerif-61" transform="translate(429.443359 0.109375)"/>
     <use xlink:href="#DejaVuSerif-20" transform="translate(489.0625 0.109375)"/>
     <use xlink:href="#DejaVuSerif-72" transform="translate(520.849609 0.109375)"/>
     <use xlink:href="#DejaVuSerif-65" transform="translate(568.652344 0.109375)"/>
     <use xlink:href="#DejaVuSerif-61" transform="translate(627.832031 0.109375)"/>
     <use xlink:href="#DejaVuSerif-6c" transform="translate(687.451172 0.109375)"/>
     <use xlink:href="#DejaVuSerif-20" transform="translate(719.433594 0.109375)"/>
     <use xlink:href="#DejaVuSerif-72" transform="translate(751.220703 0.109375)"/>
     <use xlink:href="#DejaVuSerif-6f" transform="translate(799.023438 0.109375)"/>
     <use xlink:href="#DejaVuSerif-6f" transform="translate(859.228516 0.109375)"/>
     <use xlink:href="#DejaVuSerif-74" transform="translate(919.433594 0.109375)"/>
     <use xlink:href="#DejaVuSerif-20" transform="translate(959.619141 0.109375)"/>
     <use xlink:href="#DejaVuSerif-6f" transform="translate(991.40625 0.109375)"/>
     <use xlink:href="#DejaVuSerif-66" transform="translate(1051.611328 0.109375)"/>
     <use xlink:href="#DejaVuSerif-20" transform="translate(1088.623047 0.109375)"/>
     <use xlink:href="#Cmmi10-50" transform="translate(1120.410156 0.109375)"/>
     <use xlink:href="#Cmr10-28" transform="translate(1184.619141 0.109375)"/>
     <use xlink:href="#Cmmi10-78" transform="translate(1223.4375 0.109375)"/>
     <use xlink:href="#Cmr10-29" transform="translate(1280.517578 0.109375)"/>
     <use xlink:href="#Cmr10-3d" transform="translate(1336.894531 0.109375)"/>
     <use xlink:href="#Cmmi10-78" transform="translate(1432.138672 0.109375)"/>
     <use xlink:href="#Cmr10-33" transform="translate(1495.522031 38.373438) scale(0.7)"/>
     <use xlink:href="#Cmr10-2b" transform="translate(1554.457969 0.109375)"/>
     <use xlink:href="#Cmmi10-61" transform="translate(1649.702109 0.109375)"/>
     <use xlink:href="#Cmmi10-78" transform="translate(1702.485312 0.109375)"/>
     <use xlink:href="#Cmr10-32" transform="translate(1765.868672 38.373438) scale(0.7)"/>
     <use xlink:href="#Cmr10-2b" transform="translate(1824.804609 0.109375)"/>
     <use xlink:href="#Cmmi10-62" transform="translate(1920.04875 0.109375)"/>
     <use xlink:href="#Cmmi10-78" transform="translate(1962.968672 0.109375)"/>
     <use xlink:href="#Cmsy10-a1" transform="translate(2037.607344 0.109375)"/>
     <use xlink:href="#Cmr10-31" transform="translate(2132.851484 0.109375)"/>
     <use xlink:href="#DejaVuSerif-2c" transform="translate(2182.851484 0.109375)"/>
     <use xlink:href="#DejaVuSerif-20" transform="translate(2214.638594 0.109375)"/>
     <use xlink:href="#DejaVuSerif-77" transform="translate(2246.425703 0.109375)"/>
     <use xlink:href="#DejaVuSerif-68" transform="translate(2332.021406 0.109375)"/>
     <use xlink:href="#DejaVuSerif-65" transform="translate(2396.425703 0.109375)"/>
     <use xlink:href="#DejaVuSerif-72" transform="translate(2455.605391 0.109375)"/>
     <use xlink:href="#DejaVuSerif-65" transform="translate(2503.408125 0.109375)"/>
     <use xlink:href="#DejaVuSerif-20" transform="translate(2562.587812 0.109375)"/>
     <use xlink:href="#Cmmi10-61" transform="translate(2594.374922 0.109375)"/>
     <use xlink:href="#DejaVuSerif-20" transform="translate(2647.158125 0.109375)"/>
     <use xlink:href="#DejaVuSerif-61" transform="translate(2678.945234 0.109375)"/>
     <use xlink:href="#DejaVuSerif-6e" transform="translate(2738.564375 0.109375)"/>
     <use xlink:href="#DejaVuSerif-64" transform="translate(2802.968672 0.109375)"/>
     <use xlink:href="#DejaVuSerif-20" transform="translate(2866.982344 0.109375)"/>
     <use xlink:href="#Cmmi10-62" transform="translate(2898.769453 0.109375)"/>
     <use xlink:href="#DejaVuSerif-20" transform="translate(2941.689375 0.109375)"/>
     <use xlink:href="#DejaVuSerif-61" transform="translate(2973.476484 0.109375)"/>
     <use xlink:href="#DejaVuSerif-72" transform="translate(3033.095625 0.109375)"/>
     <use xlink:href="#DejaVuSerif-65" transform="translate(3080.898359 0.109375)"/>
     <use xlink:href="#DejaVuSerif-20" transform="translate(3140.078047 0.109375)"/>
     <use xlink:href="#DejaVuSerif-69" transform="translate(3171.865156 0.109375)"/>
     <use xlink:href="#DejaVuSerif-6e" transform="translate(3203.847578 0.109375)"/>
     <use xlink:href="#DejaVuSerif-74" transform="translate(3268.251875 0.109375)"/>
     <use xlink:href="#DejaVuSerif-65" transform="translate(3308.437422 0.109375)"/>
     <use xlink:href="#DejaVuSerif-67" transform="translate(3367.617109 0.109375)"/>
     <use xlink:href="#DejaVuSerif-65" transform="translate(3431.630781 0.109375)"/>
     <use xlink:href="#DejaVuSerif-72" transform="translate(3490.810469 0.109375)"/>
     <use xlink:href="#DejaVuSerif-73" transform="translate(3538.613203 0.109375)"/>
     <use xlink:href="#DejaVuSerif-20" transform="translate(3589.931562 0.109375)"/>
     <use xlink:href="#DejaVuSerif-61" transform="translate(3621.718672 0.109375)"/>
     <use xlink:href="#DejaVuSerif-6e" transform="translate(3681.337812 0.109375)"/>
     <use xlink:href="#DejaVuSerif-64" transform="translate(3745.742109 0.109375)"/>
     <use xlink:href="#DejaVuSerif-20" transform="translate(3809.755781 0.109375)"/>
     <use xlink:href="#Cmmi10-50" transform="translate(3841.542891 0.109375)"/>
     <use xlink:href="#DejaVuSerif-20" transform="translate(3905.751875 0.109375)"/>
     <use xlink:href="#DejaVuSerif-69" transform="translate(3937.538984 0.109375)"/>
     <use xlink:href="#DejaVuSerif-73" transform="translate(3969.521406 0.109375)"/>
     <use xlink:href="#DejaVuSerif-20" transform="translate(4020.839766 0.109375)"/>
     <use xlink:href="#DejaVuSerif-69" transform="translate(4052.626875 0.109375)"/>
     <use xlink:href="#DejaVuSerif-72" transform="translate(4084.609297 0.109375)"/>
     <use xlink:href="#DejaVuSerif-72" transform="translate(4132.412031 0.109375)"/>
     <use xlink:href="#DejaVuSerif-65" transform="translate(4180.214766 0.109375)"/>
     <use xlink:href="#DejaVuSerif-64" transform="translate(4239.394453 0.109375)"/>
     <use xlink:href="#DejaVuSerif-75" transform="translate(4303.408125 0.109375)"/>
     <use xlink:href="#DejaVuSerif-63" transform="translate(4367.812422 0.109375)"/>
     <use xlink:href="#DejaVuSerif-69" transform="translate(4423.818281 0.109375)"/>
     <use xlink:href="#DejaVuSerif-62" transform="translate(4455.800703 0.109375)"/>
     <use xlink:href="#DejaVuSerif-6c" transform="translate(4519.814375 0.109375)"/>
     <use xlink:href="#DejaVuSerif-65" transform="translate(4551.796797 0.109375)"/>
     <use xlink:href="#DejaVuSerif-20" transform="translate(4610.976484 0.109375)"/>
     <use xlink:href="#DejaVuSerif-6f" transform="translate(4642.763594 0.109375)"/>
     <use xlink:href="#DejaVuSerif-76" transform="translate(4702.968672 0.109375)"/>
     <use xlink:href="#DejaVuSerif-65" transform="translate(4759.462812 0.109375)"/>
     <use xlink:href="#DejaVuSerif-72" transform="translate(4818.6425 0.109375)"/>
     <use xlink:href="#DejaVuSerif-20" transform="translate(4866.445234 0.109375)"/>
     <use xlink:href="#DejaVuSerif-74" transform="translate(4898.232344 0.109375)"/>
     <use xlink:href="#DejaVuSerif-68" transform="translate(4938.417891 0.109375)"/>
     <use xlink:href="#DejaVuSerif-65" transform="translate(5002.822187 0.109375)"/>
     <use xlink:href="#DejaVuSerif-20" transform="translate(5062.001875 0.109375)"/>
     <use xlink:href="#DejaVuSerif-72" transform="translate(5093.788984 0.109375)"/>
     <use xlink:href="#DejaVuSerif-61" transform="translate(5141.591719 0.109375)"/>
     <use xlink:href="#DejaVuSerif-74" transform="translate(5201.210859 0.109375)"/>
     <use xlink:href="#DejaVuSerif-69" transform="translate(5241.396406 0.109375)"/>
     <use xlink:href="#DejaVuSerif-6f" transform="translate(5273.378828 0.109375)"/>
     <use xlink:href="#DejaVuSerif-6e" transform="translate(5333.583906 0.109375)"/>
     <use xlink:href="#DejaVuSerif-61" transform="translate(5397.988203 0.109375)"/>
     <use xlink:href="#DejaVuSerif-6c" transform="translate(5457.607344 0.109375)"/>
     <use xlink:href="#DejaVuSerif-73" transform="translate(5489.589766 0.109375)"/>
     <use xlink:href="#DejaVuSerif-2e" transform="translate(5540.908125 0.109375)"/>
     <use xlink:href="#DejaVuSerif-20" transform="translate(5572.695234 0.109375)"/>
     <use xlink:href="#DejaVuSerif-53" transform="translate(5604.482344 0.109375)"/>
     <use xlink:href="#DejaVuSerif-75" transform="translate(5672.988203 0.109375)"/>
     <use xlink:href="#DejaVuSerif-70" transform="translate(5737.3925 0.109375)"/>
     <use xlink:href="#DejaVuSerif-70" transform="translate(5801.406172 0.109375)"/>
     <use xlink:href="#DejaVuSerif-6f" transform="translate(5865.419844 0.109375)"/>
     <use xlink:href="#DejaVuSerif-73" transform="translate(5925.624922 0.109375)"/>
     <use xlink:href="#DejaVuSerif-65" transform="translate(5976.943281 0.109375)"/>
     <use xlink:href="#DejaVuSerif-20" transform="translate(6036.122969 0.109375)"/>
     <use xlink:href="#DejaVuSerif-74" transform="translate(6067.910078 0.109375)"/>
     <use xlink:href="#DejaVuSerif-68" transform="translate(6108.095625 0.109375)"/>
     <use xlink:href="#DejaVuSerif-61" transform="translate(6172.499922 0.109375)"/>
     <use xlink:href="#DejaVuSerif-74" transform="translate(6232.119062 0.109375)"/>
     <use xlink:href="#DejaVuSerif-20" transform="translate(6272.304609 0.109375)"/>
     <use xlink:href="#Cmmi10-72" transform="translate(6304.091719 0.109375)"/>
     <use xlink:href="#Cmr10-2b" transform="translate(6366.7675 0.109375)"/>
     <use xlink:href="#Cmr10-31" transform="translate(6462.011641 0.109375)"/>
     <use xlink:href="#DejaVuSerif-20" transform="translate(6512.011641 0.109375)"/>
     <use xlink:href="#DejaVuSerif-69" transform="translate(6543.79875 0.109375)"/>
     <use xlink:href="#DejaVuSerif-73" transform="translate(6575.781172 0.109375)"/>
     <use xlink:href="#DejaVuSerif-20" transform="translate(6627.099531 0.109375)"/>
     <use xlink:href="#DejaVuSerif-61" transform="translate(6658.886641 0.109375)"/>
     <use xlink:href="#DejaVuSerif-20" transform="translate(6718.505781 0.109375)"/>
     <use xlink:href="#DejaVuSerif-72" transform="translate(6750.292891 0.109375)"/>
     <use xlink:href="#DejaVuSerif-6f" transform="translate(6798.095625 0.109375)"/>
     <use xlink:href="#DejaVuSerif-6f" transform="translate(6858.300703 0.109375)"/>
     <use xlink:href="#DejaVuSerif-74" transform="translate(6918.505781 0.109375)"/>
     <use xlink:href="#DejaVuSerif-20" transform="translate(6958.691328 0.109375)"/>
     <use xlink:href="#DejaVuSerif-6f" transform="translate(6990.478437 0.109375)"/>
     <use xlink:href="#DejaVuSerif-66" transform="translate(7050.683516 0.109375)"/>
     <use xlink:href="#DejaVuSerif-20" transform="translate(7087.695234 0.109375)"/>
     <use xlink:href="#Cmmi10-78" transform="translate(7119.482344 0.109375)"/>
     <use xlink:href="#Cmr10-33" transform="translate(7182.865703 38.373438) scale(0.7)"/>
     <use xlink:href="#Cmr10-2b" transform="translate(7241.801641 0.109375)"/>
     <use xlink:href="#Cmmi10-63" transform="translate(7337.045781 0.109375)"/>
     <use xlink:href="#Cmmi10-78" transform="translate(7380.258672 0.109375)"/>
     <use xlink:href="#Cmr10-32" transform="translate(7443.642031 38.373438) scale(0.7)"/>
     <use xlink:href="#Cmr10-2b" transform="translate(7502.577969 0.109375)"/>
     <use xlink:href="#Cmmi10-64" transform="translate(7597.822109 0.109375)"/>
     <use xlink:href="#Cmmi10-78" transform="translate(7649.824062 0.109375)"/>
     <use xlink:href="#Cmr10-2b" transform="translate(7724.462734 0.109375)"/>
     <use xlink:href="#Cmr10-31" transform="translate(7819.706875 0.109375)"/>
     <use xlink:href="#DejaVuSerif-2c" transform="translate(7869.706875 0.109375)"/>
     <use xlink:href="#DejaVuSerif-20" transform="translate(7901.493984 0.109375)"/>
     <use xlink:href="#DejaVuSerif-77" transform="translate(7933.281094 0.109375)"/>
     <use xlink:href="#DejaVuSerif-68" transform="translate(8018.876797 0.109375)"/>
     <use xlink:href="#DejaVuSerif-65" transform="translate(8083.281094 0.109375)"/>
     <use xlink:href="#DejaVuSerif-72" transform="translate(8142.460781 0.109375)"/>
     <use xlink:href="#DejaVuSerif-65" transform="translate(8190.263516 0.109375)"/>
     <use xlink:href="#DejaVuSerif-20" transform="translate(8249.443203 0.109375)"/>
     <use xlink:href="#Cmmi10-63" transform="translate(8281.230312 0.109375)"/>
     <use xlink:href="#DejaVuSerif-20" transform="translate(8324.443203 0.109375)"/>
     <use xlink:href="#DejaVuSerif-61" transform="translate(8356.230312 0.109375)"/>
     <use xlink:href="#DejaVuSerif-6e" transform="translate(8415.849453 0.109375)"/>
     <use xlink:href="#DejaVuSerif-64" transform="translate(8480.25375 0.109375)"/>
     <use xlink:href="#DejaVuSerif-20" transform="translate(8544.267422 0.109375)"/>
     <use xlink:href="#Cmmi10-64" transform="translate(8576.054531 0.109375)"/>
     <use xlink:href="#DejaVuSerif-20" transform="translate(8628.056484 0.109375)"/>
     <use xlink:href="#DejaVuSerif-61" transform="translate(8659.843594 0.109375)"/>
     <use xlink:href="#DejaVuSerif-72" transform="translate(8719.462734 0.109375)"/>
     <use xlink:href="#DejaVuSerif-65" transform="translate(8767.265469 0.109375)"/>
     <use xlink:href="#DejaVuSerif-20" transform="translate(8826.445156 0.109375)"/>
     <use xlink:href="#DejaVuSerif-61" transform="translate(8858.232266 0.109375)"/>
     <use xlink:href="#DejaVuSerif-6c" transform="translate(8917.851406 0.109375)"/>
     <use xlink:href="#DejaVuSerif-73" transform="translate(8949.833828 0.109375)"/>
     <use xlink:href="#DejaVuSerif-6f" transform="translate(9001.152187 0.109375)"/>
     <use xlink:href="#DejaVuSerif-20" transform="translate(9061.357266 0.109375)"/>
     <use xlink:href="#DejaVuSerif-69" transform="translate(9093.144375 0.109375)"/>
     <use xlink:href="#DejaVuSerif-6e" transform="translate(9125.126797 0.109375)"/>
     <use xlink:href="#DejaVuSerif-74" transform="translate(9189.531094 0.109375)"/>
     <use xlink:href="#DejaVuSerif-65" transform="translate(9229.716641 0.109375)"/>
     <use xlink:href="#DejaVuSerif-67" transform="translate(9288.896328 0.109375)"/>
     <use xlink:href="#DejaVuSerif-65" transform="translate(9352.91 0.109375)"/>
     <use xlink:href="#DejaVuSerif-72" transform="translate(9412.089687 0.109375)"/>
     <use xlink:href="#DejaVuSerif-73" transform="translate(9459.892422 0.109375)"/>
     <use xlink:href="#DejaVuSerif-2e" transform="translate(9511.210781 0.109375)"/>
     <use xlink:href="#DejaVuSerif-20" transform="translate(9542.997891 0.109375)"/>
     <use xlink:href="#DejaVuSerif-45" transform="translate(9574.785 0.109375)"/>
     <use xlink:href="#DejaVuSerif-78" transform="translate(9647.783047 0.109375)"/>
     <use xlink:href="#DejaVuSerif-70" transform="translate(9704.179531 0.109375)"/>
     <use xlink:href="#DejaVuSerif-72" transform="translate(9768.193203 0.109375)"/>
     <use xlink:href="#DejaVuSerif-65" transform="translate(9815.995937 0.109375)"/>
     <use xlink:href="#DejaVuSerif-73" transform="translate(9875.175625 0.109375)"/>
     <use xlink:href="#DejaVuSerif-73" transform="translate(9926.493984 0.109375)"/>
     <use xlink:href="#DejaVuSerif-20" transform="translate(9977.812344 0.109375)"/>
     <use xlink:href="#DejaVuSerif-61" transform="translate(10009.599453 0.109375)"/>
     <use xlink:href="#DejaVuSerif-6e" transform="translate(10069.218594 0.109375)"/>
     <use xlink:href="#DejaVuSerif-6f" transform="translate(10133.622891 0.109375)"/>
     <use xlink:href="#DejaVuSerif-74" transform="translate(10193.827969 0.109375)"/>
     <use xlink:href="#DejaVuSerif-68" transform="translate(10234.013516 0.109375)"/>
     <use xlink:href="#DejaVuSerif-65" transform="translate(10298.417812 0.109375)"/>
     <use xlink:href="#DejaVuSerif-72" transform="translate(10357.5975 0.109375)"/>
     <use xlink:href="#DejaVuSerif-20" transform="translate(10405.400234 0.109375)"/>
     <use xlink:href="#DejaVuSerif-72" transform="translate(10437.187344 0.109375)"/>
     <use xlink:href="#DejaVuSerif-6f" transform="translate(10484.990078 0.109375)"/>
     <use xlink:href="#DejaVuSerif-6f" transform="translate(10545.195156 0.109375)"/>
     <use xlink:href="#DejaVuSerif-74" transform="translate(10605.400234 0.109375)"/>
     <use xlink:href="#DejaVuSerif-20" transform="translate(10645.585781 0.109375)"/>
     <use xlink:href="#Cmmi10-73" transform="translate(10677.372891 0.109375)"/>
     <use xlink:href="#DejaVuSerif-20" transform="translate(10724.150234 0.109375)"/>
     <use xlink:href="#DejaVuSerif-6f" transform="translate(10755.937344 0.109375)"/>
     <use xlink:href="#DejaVuSerif-66" transform="translate(10816.142422 0.109375)"/>
     <use xlink:href="#DejaVuSerif-20" transform="translate(10853.154141 0.109375)"/>
     <use xlink:href="#Cmmi10-50" transform="translate(10884.94125 0.109375)"/>
     <use xlink:href="#DejaVuSerif-20" transform="translate(10949.150234 0.109375)"/>
     <use xlink:href="#DejaVuSerif-61" transform="translate(10980.937344 0.109375)"/>
     <use xlink:href="#DejaVuSerif-73" transform="translate(11040.556484 0.109375)"/>
     <use xlink:href="#DejaVuSerif-20" transform="translate(11091.874844 0.109375)"/>
     <use xlink:href="#DejaVuSerif-61" transform="translate(11123.661953 0.109375)"/>
     <use xlink:href="#DejaVuSerif-20" transform="translate(11183.281094 0.109375)"/>
     <use xlink:href="#DejaVuSerif-66" transform="translate(11215.068203 0.109375)"/>
     <use xlink:href="#DejaVuSerif-75" transform="translate(11252.079922 0.109375)"/>
     <use xlink:href="#DejaVuSerif-6e" transform="translate(11316.484219 0.109375)"/>
     <use xlink:href="#DejaVuSerif-63" transform="translate(11380.888516 0.109375)"/>
     <use xlink:href="#DejaVuSerif-74" transform="translate(11436.894375 0.109375)"/>
     <use xlink:href="#DejaVuSerif-69" transform="translate(11477.079922 0.109375)"/>
     <use xlink:href="#DejaVuSerif-6f" transform="translate(11509.062344 0.109375)"/>
     <use xlink:href="#DejaVuSerif-6e" transform="translate(11569.267422 0.109375)"/>
     <use xlink:href="#DejaVuSerif-20" transform="translate(11633.671719 0.109375)"/>
     <use xlink:href="#DejaVuSerif-6f" transform="translate(11665.458828 0.109375)"/>
     <use xlink:href="#DejaVuSerif-66" transform="translate(11725.663906 0.109375)"/>
     <use xlink:href="#DejaVuSerif-20" transform="translate(11762.675625 0.109375)"/>
     <use xlink:href="#Cmmi10-72" transform="translate(11794.462734 0.109375)"/>
     <use xlink:href="#DejaVuSerif-20" transform="translate(11839.579922 0.109375)"/>
     <use xlink:href="#DejaVuSerif-74" transform="translate(11871.367031 0.109375)"/>
     <use xlink:href="#DejaVuSerif-68" transform="translate(11911.552578 0.109375)"/>
     <use xlink:href="#DejaVuSerif-61" transform="translate(11975.956875 0.109375)"/>
     <use xlink:href="#DejaVuSerif-74" transform="translate(12035.576016 0.109375)"/>
     <use xlink:href="#DejaVuSerif-20" transform="translate(12075.761562 0.109375)"/>
     <use xlink:href="#DejaVuSerif-64" transform="translate(12107.548672 0.109375)"/>
     <use xlink:href="#DejaVuSerif-6f" transform="translate(12171.562344 0.109375)"/>
     <use xlink:href="#DejaVuSerif-65" transform="translate(12231.767422 0.109375)"/>
     <use xlink:href="#DejaVuSerif-73" transform="translate(12290.947109 0.109375)"/>
     <use xlink:href="#DejaVuSerif-20" transform="translate(12342.265469 0.109375)"/>
     <use xlink:href="#DejaVuSerif-6e" transform="translate(12374.052578 0.109375)"/>
     <use xlink:href="#DejaVuSerif-6f" transform="translate(12438.456875 0.109375)"/>
     <use xlink:href="#DejaVuSerif-74" transform="translate(12498.661953 0.109375)"/>
     <use xlink:href="#DejaVuSerif-20" transform="translate(12538.8475 0.109375)"/>
     <use xlink:href="#DejaVuSerif-64" transform="translate(12570.634609 0.109375)"/>
     <use xlink:href="#DejaVuSerif-65" transform="translate(12634.648281 0.109375)"/>
     <use xlink:href="#DejaVuSerif-70" transform="translate(12693.827969 0.109375)"/>
     <use xlink:href="#DejaVuSerif-65" transform="translate(12757.841641 0.109375)"/>
     <use xlink:href="#DejaVuSerif-6e" transform="translate(12817.021328 0.109375)"/>
     <use xlink:href="#DejaVuSerif-64" transform="translate(12881.425625 0.109375)"/>
     <use xlink:href="#DejaVuSerif-20" transform="translate(12945.439297 0.109375)"/>
     <use xlink:href="#DejaVuSerif-6f" transform="translate(12977.226406 0.109375)"/>
     <use xlink:href="#DejaVuSerif-6e" transform="translate(13037.431484 0.109375)"/>
     <use xlink:href="#DejaVuSerif-20" transform="translate(13101.835781 0.109375)"/>
     <use xlink:href="#DejaVuSerif-74" transform="translate(13133.622891 0.109375)"/>
     <use xlink:href="#DejaVuSerif-68" transform="translate(13173.808437 0.109375)"/>
     <use xlink:href="#DejaVuSerif-65" transform="translate(13238.212734 0.109375)"/>
     <use xlink:href="#DejaVuSerif-20" transform="translate(13297.392422 0.109375)"/>
     <use xlink:href="#DejaVuSerif-76" transform="translate(13329.179531 0.109375)"/>
     <use xlink:href="#DejaVuSerif-61" transform="translate(13385.673672 0.109375)"/>
     <use xlink:href="#DejaVuSerif-6c" transform="translate(13445.292812 0.109375)"/>
     <use xlink:href="#DejaVuSerif-75" transform="translate(13477.275234 0.109375)"/>
     <use xlink:href="#DejaVuSerif-65" transform="translate(13541.679531 0.109375)"/>
     <use xlink:href="#DejaVuSerif-73" transform="translate(13600.859219 0.109375)"/>
     <use xlink:href="#DejaVuSerif-20" transform="translate(13652.177578 0.109375)"/>
     <use xlink:href="#DejaVuSerif-6f" transform="translate(13683.964687 0.109375)"/>
     <use xlink:href="#DejaVuSerif-66" transform="translate(13744.169766 0.109375)"/>
     <use xlink:href="#DejaVuSerif-20" transform="translate(13781.181484 0.109375)"/>
     <use xlink:href="#Cmmi10-61" transform="translate(13812.968594 0.109375)"/>
     <use xlink:href="#DejaVuSerif-2c" transform="translate(13865.751797 0.109375)"/>
     <use xlink:href="#DejaVuSerif-20" transform="translate(13897.538906 0.109375)"/>
     <use xlink:href="#Cmmi10-62" transform="translate(13929.326016 0.109375)"/>
     <use xlink:href="#DejaVuSerif-2c" transform="translate(13972.245937 0.109375)"/>
     <use xlink:href="#DejaVuSerif-20" transform="translate(14004.033047 0.109375)"/>
     <use xlink:href="#Cmmi10-63" transform="translate(14035.820156 0.109375)"/>
     <use xlink:href="#DejaVuSerif-2c" transform="translate(14079.033047 0.109375)"/>
     <use xlink:href="#DejaVuSerif-20" transform="translate(14110.820156 0.109375)"/>
     <use xlink:href="#DejaVuSerif-6f" transform="translate(14142.607266 0.109375)"/>
     <use xlink:href="#DejaVuSerif-72" transform="translate(14202.812344 0.109375)"/>
     <use xlink:href="#DejaVuSerif-20" transform="translate(14250.615078 0.109375)"/>
     <use xlink:href="#Cmmi10-64" transform="translate(14282.402187 0.109375)"/>
     <use xlink:href="#DejaVuSerif-2e" transform="translate(14334.404141 0.109375)"/>
    </g>
   </g>
  </g>
 </g>
</svg>
