<?xml version="1.0" encoding="utf-8" standalone="no"?>
<!DOCTYPE svg PUBLIC "-//W3C//DTD SVG 1.1//EN"
  "http://www.w3.org/Graphics/SVG/1.1/DTD/svg11.dtd">
<svg xmlns:xlink="http://www.w3.org/1999/xlink" width="811.68pt" height="228.4pt" viewBox="0 0 811.68 228.4" xmlns="http://www.w3.org/2000/svg" version="1.1">
 <metadata>
  <rdf:RDF xmlns:dc="http://purl.org/dc/elements/1.1/" xmlns:cc="http://creativecommons.org/ns#" xmlns:rdf="http://www.w3.org/1999/02/22-rdf-syntax-ns#">
   <cc:Work>
    <dc:type rdf:resource="http://purl.org/dc/dcmitype/StillImage"/>
    <dc:date>2025-05-29T18:44:00.572120</dc:date>
    <dc:format>image/svg+xml</dc:format>
    <dc:creator>
     <cc:Agent>
      <dc:title>Matplotlib v3.10.3, https://matplotlib.org/</dc:title>
     </cc:Agent>
    </dc:creator>
   </cc:Work>
  </rdf:RDF>
 </metadata>
 <defs>
  <style type="text/css">*{stroke-linejoin: round; stroke-linecap: butt}</style>
 </defs>
 <g id="figure_1">
  <g id="patch_1">
   <path d="M 0 228.4 
L 811.68 228.4 
L 811.68 0 
L 0 0 
z
" style="fill: #ffffff"/>
  </g>
  <g id="axes_1">
   <g id="text_1">
    <!-- Find the smallest positive integer $n$ such that for every integer $m$ with $0&lt;m&lt;1993$, there exists an integer $k$ for which $\frac{m}{1993}&lt;\frac{k}{n}&lt;\frac{m+1}{1994}$. -->
    <g transform="translate(7.2 117.08) scale(0.12 -0.12)">
     <defs>
      <path id="DejaVuSerif-46" d="M 353 0 
L 353 331 
L 947 331 
L 947 4331 
L 353 4331 
L 353 4666 
L 4172 4666 
L 4172 3628 
L 3788 3628 
L 3788 4281 
L 1581 4281 
L 1581 2719 
L 3175 2719 
L 3175 3303 
L 3559 3303 
L 3559 1753 
L 3175 1753 
L 3175 2338 
L 1581 2338 
L 1581 331 
L 2328 331 
L 2328 0 
L 353 0 
z
" transform="scale(0.015625)"/>
      <path id="DejaVuSerif-69" d="M 622 4353 
Q 622 4497 726 4603 
Q 831 4709 978 4709 
Q 1122 4709 1226 4603 
Q 1331 4497 1331 4353 
Q 1331 4206 1228 4103 
Q 1125 4000 978 4000 
Q 831 4000 726 4103 
Q 622 4206 622 4353 
z
M 1356 331 
L 1900 331 
L 1900 0 
L 231 0 
L 231 331 
L 781 331 
L 781 2988 
L 231 2988 
L 231 3322 
L 1356 3322 
L 1356 331 
z
" transform="scale(0.015625)"/>
      <path id="DejaVuSerif-6e" d="M 263 0 
L 263 331 
L 781 331 
L 781 2988 
L 231 2988 
L 231 3322 
L 1356 3322 
L 1356 2731 
Q 1516 3069 1770 3241 
Q 2025 3413 2363 3413 
Q 2913 3413 3172 3097 
Q 3431 2781 3431 2113 
L 3431 331 
L 3944 331 
L 3944 0 
L 2356 0 
L 2356 331 
L 2853 331 
L 2853 1931 
Q 2853 2541 2703 2767 
Q 2553 2994 2175 2994 
Q 1775 2994 1565 2701 
Q 1356 2409 1356 1850 
L 1356 331 
L 1856 331 
L 1856 0 
L 263 0 
z
" transform="scale(0.015625)"/>
      <path id="DejaVuSerif-64" d="M 3359 331 
L 3909 331 
L 3909 0 
L 2784 0 
L 2784 519 
Q 2616 206 2355 57 
Q 2094 -91 1709 -91 
Q 1097 -91 708 395 
Q 319 881 319 1663 
Q 319 2444 706 2928 
Q 1094 3413 1709 3413 
Q 2094 3413 2355 3264 
Q 2616 3116 2784 2803 
L 2784 4531 
L 2241 4531 
L 2241 4863 
L 3359 4863 
L 3359 331 
z
M 2784 1497 
L 2784 1825 
Q 2784 2422 2554 2737 
Q 2325 3053 1888 3053 
Q 1444 3053 1217 2703 
Q 991 2353 991 1663 
Q 991 975 1217 622 
Q 1444 269 1888 269 
Q 2325 269 2554 583 
Q 2784 897 2784 1497 
z
" transform="scale(0.015625)"/>
      <path id="DejaVuSerif-20" transform="scale(0.015625)"/>
      <path id="DejaVuSerif-74" d="M 691 2988 
L 184 2988 
L 184 3322 
L 691 3322 
L 691 4353 
L 1269 4353 
L 1269 3322 
L 2350 3322 
L 2350 2988 
L 1269 2988 
L 1269 878 
Q 1269 456 1350 337 
Q 1431 219 1650 219 
Q 1875 219 1978 351 
Q 2081 484 2088 781 
L 2522 781 
Q 2497 328 2275 118 
Q 2053 -91 1600 -91 
Q 1103 -91 897 129 
Q 691 350 691 878 
L 691 2988 
z
" transform="scale(0.015625)"/>
      <path id="DejaVuSerif-68" d="M 263 0 
L 263 331 
L 781 331 
L 781 4531 
L 231 4531 
L 231 4863 
L 1356 4863 
L 1356 2731 
Q 1516 3069 1770 3241 
Q 2025 3413 2363 3413 
Q 2913 3413 3172 3097 
Q 3431 2781 3431 2113 
L 3431 331 
L 3944 331 
L 3944 0 
L 2356 0 
L 2356 331 
L 2853 331 
L 2853 1931 
Q 2853 2541 2704 2764 
Q 2556 2988 2175 2988 
Q 1775 2988 1565 2697 
Q 1356 2406 1356 1850 
L 1356 331 
L 1856 331 
L 1856 0 
L 263 0 
z
" transform="scale(0.015625)"/>
      <path id="DejaVuSerif-65" d="M 3469 1600 
L 991 1600 
L 991 1575 
Q 991 903 1244 561 
Q 1497 219 1991 219 
Q 2369 219 2611 417 
Q 2853 616 2950 1006 
L 3413 1006 
Q 3275 459 2904 184 
Q 2534 -91 1931 -91 
Q 1203 -91 761 389 
Q 319 869 319 1663 
Q 319 2450 753 2931 
Q 1188 3413 1894 3413 
Q 2647 3413 3050 2948 
Q 3453 2484 3469 1600 
z
M 2791 1931 
Q 2772 2513 2545 2808 
Q 2319 3103 1894 3103 
Q 1497 3103 1269 2806 
Q 1041 2509 991 1931 
L 2791 1931 
z
" transform="scale(0.015625)"/>
      <path id="DejaVuSerif-73" d="M 359 184 
L 359 959 
L 691 959 
Q 703 588 923 403 
Q 1144 219 1575 219 
Q 1963 219 2166 364 
Q 2369 509 2369 788 
Q 2369 1006 2220 1140 
Q 2072 1275 1594 1428 
L 1178 1569 
Q 750 1706 558 1912 
Q 366 2119 366 2438 
Q 366 2894 700 3153 
Q 1034 3413 1625 3413 
Q 1888 3413 2178 3344 
Q 2469 3275 2778 3144 
L 2778 2419 
L 2447 2419 
Q 2434 2741 2221 2922 
Q 2009 3103 1644 3103 
Q 1281 3103 1095 2975 
Q 909 2847 909 2591 
Q 909 2381 1050 2254 
Q 1191 2128 1613 1997 
L 2069 1856 
Q 2541 1709 2748 1489 
Q 2956 1269 2956 922 
Q 2956 450 2595 179 
Q 2234 -91 1600 -91 
Q 1278 -91 972 -22 
Q 666 47 359 184 
z
" transform="scale(0.015625)"/>
      <path id="DejaVuSerif-6d" d="M 3316 2675 
Q 3481 3041 3739 3227 
Q 3997 3413 4341 3413 
Q 4863 3413 5119 3089 
Q 5375 2766 5375 2113 
L 5375 331 
L 5894 331 
L 5894 0 
L 4300 0 
L 4300 331 
L 4800 331 
L 4800 2047 
Q 4800 2556 4650 2772 
Q 4500 2988 4153 2988 
Q 3769 2988 3567 2697 
Q 3366 2406 3366 1850 
L 3366 331 
L 3866 331 
L 3866 0 
L 2291 0 
L 2291 331 
L 2791 331 
L 2791 2069 
Q 2791 2566 2641 2777 
Q 2491 2988 2144 2988 
Q 1759 2988 1557 2697 
Q 1356 2406 1356 1850 
L 1356 331 
L 1856 331 
L 1856 0 
L 263 0 
L 263 331 
L 781 331 
L 781 2994 
L 231 2994 
L 231 3322 
L 1356 3322 
L 1356 2731 
Q 1516 3063 1762 3238 
Q 2009 3413 2322 3413 
Q 2709 3413 2968 3220 
Q 3228 3028 3316 2675 
z
" transform="scale(0.015625)"/>
      <path id="DejaVuSerif-61" d="M 2547 1044 
L 2547 1747 
L 1806 1747 
Q 1378 1747 1168 1562 
Q 959 1378 959 997 
Q 959 650 1171 447 
Q 1384 244 1747 244 
Q 2106 244 2326 466 
Q 2547 688 2547 1044 
z
M 3122 2075 
L 3122 331 
L 3634 331 
L 3634 0 
L 2547 0 
L 2547 359 
Q 2356 128 2106 18 
Q 1856 -91 1522 -91 
Q 969 -91 644 203 
Q 319 497 319 997 
Q 319 1513 691 1797 
Q 1063 2081 1741 2081 
L 2547 2081 
L 2547 2309 
Q 2547 2688 2317 2895 
Q 2088 3103 1672 3103 
Q 1328 3103 1125 2947 
Q 922 2791 872 2484 
L 575 2484 
L 575 3156 
Q 875 3284 1158 3348 
Q 1441 3413 1709 3413 
Q 2400 3413 2761 3070 
Q 3122 2728 3122 2075 
z
" transform="scale(0.015625)"/>
      <path id="DejaVuSerif-6c" d="M 1313 331 
L 1856 331 
L 1856 0 
L 184 0 
L 184 331 
L 738 331 
L 738 4531 
L 184 4531 
L 184 4863 
L 1313 4863 
L 1313 331 
z
" transform="scale(0.015625)"/>
      <path id="DejaVuSerif-70" d="M 1313 1825 
L 1313 1497 
Q 1313 897 1542 583 
Q 1772 269 2209 269 
Q 2650 269 2876 622 
Q 3103 975 3103 1663 
Q 3103 2353 2876 2703 
Q 2650 3053 2209 3053 
Q 1772 3053 1542 2737 
Q 1313 2422 1313 1825 
z
M 738 2988 
L 184 2988 
L 184 3322 
L 1313 3322 
L 1313 2803 
Q 1481 3116 1742 3264 
Q 2003 3413 2388 3413 
Q 3000 3413 3387 2928 
Q 3775 2444 3775 1663 
Q 3775 881 3387 395 
Q 3000 -91 2388 -91 
Q 2003 -91 1742 57 
Q 1481 206 1313 519 
L 1313 -997 
L 1856 -997 
L 1856 -1331 
L 184 -1331 
L 184 -997 
L 738 -997 
L 738 2988 
z
" transform="scale(0.015625)"/>
      <path id="DejaVuSerif-6f" d="M 1925 219 
Q 2388 219 2623 584 
Q 2859 950 2859 1663 
Q 2859 2375 2623 2739 
Q 2388 3103 1925 3103 
Q 1463 3103 1227 2739 
Q 991 2375 991 1663 
Q 991 950 1228 584 
Q 1466 219 1925 219 
z
M 1925 -91 
Q 1200 -91 759 389 
Q 319 869 319 1663 
Q 319 2456 758 2934 
Q 1197 3413 1925 3413 
Q 2653 3413 3092 2934 
Q 3531 2456 3531 1663 
Q 3531 869 3092 389 
Q 2653 -91 1925 -91 
z
" transform="scale(0.015625)"/>
      <path id="DejaVuSerif-76" d="M 1581 0 
L 359 2988 
L -19 2988 
L -19 3322 
L 1509 3322 
L 1509 2988 
L 978 2988 
L 1913 703 
L 2847 2988 
L 2350 2988 
L 2350 3322 
L 3597 3322 
L 3597 2988 
L 3225 2988 
L 2003 0 
L 1581 0 
z
" transform="scale(0.015625)"/>
      <path id="DejaVuSerif-67" d="M 3359 2988 
L 3359 72 
Q 3359 -644 2965 -1033 
Q 2572 -1422 1844 -1422 
Q 1516 -1422 1216 -1362 
Q 916 -1303 641 -1184 
L 641 -488 
L 941 -488 
Q 997 -813 1206 -963 
Q 1416 -1113 1806 -1113 
Q 2313 -1113 2548 -827 
Q 2784 -541 2784 72 
L 2784 519 
Q 2616 206 2355 57 
Q 2094 -91 1709 -91 
Q 1097 -91 708 395 
Q 319 881 319 1663 
Q 319 2444 706 2928 
Q 1094 3413 1709 3413 
Q 2094 3413 2355 3264 
Q 2616 3116 2784 2803 
L 2784 3322 
L 3909 3322 
L 3909 2988 
L 3359 2988 
z
M 2784 1825 
Q 2784 2422 2554 2737 
Q 2325 3053 1888 3053 
Q 1444 3053 1217 2703 
Q 991 2353 991 1663 
Q 991 975 1217 622 
Q 1444 269 1888 269 
Q 2325 269 2554 583 
Q 2784 897 2784 1497 
L 2784 1825 
z
" transform="scale(0.015625)"/>
      <path id="DejaVuSerif-72" d="M 3059 3328 
L 3059 2497 
L 2728 2497 
Q 2713 2744 2591 2866 
Q 2469 2988 2234 2988 
Q 1809 2988 1582 2694 
Q 1356 2400 1356 1850 
L 1356 331 
L 2022 331 
L 2022 0 
L 263 0 
L 263 331 
L 781 331 
L 781 2994 
L 231 2994 
L 231 3322 
L 1356 3322 
L 1356 2731 
Q 1525 3078 1790 3245 
Q 2056 3413 2438 3413 
Q 2578 3413 2733 3391 
Q 2888 3369 3059 3328 
z
" transform="scale(0.015625)"/>
      <path id="Cmmi10-6e" d="M 494 109 
Q 494 147 500 166 
L 978 2075 
Q 1025 2253 1025 2388 
Q 1025 2663 838 2663 
Q 638 2663 541 2423 
Q 444 2184 353 1819 
Q 353 1800 334 1789 
Q 316 1778 300 1778 
L 225 1778 
Q 203 1778 187 1801 
Q 172 1825 172 1844 
Q 241 2122 305 2315 
Q 369 2509 505 2668 
Q 641 2828 844 2828 
Q 1084 2828 1268 2676 
Q 1453 2525 1453 2291 
Q 1644 2541 1900 2684 
Q 2156 2828 2444 2828 
Q 2672 2828 2837 2750 
Q 3003 2672 3095 2514 
Q 3188 2356 3188 2138 
Q 3188 1875 3070 1503 
Q 2953 1131 2778 672 
Q 2688 463 2688 288 
Q 2688 97 2834 97 
Q 3084 97 3251 365 
Q 3419 634 3488 941 
Q 3500 978 3541 978 
L 3616 978 
Q 3641 978 3658 962 
Q 3675 947 3675 922 
Q 3675 916 3669 903 
Q 3581 541 3364 234 
Q 3147 -72 2822 -72 
Q 2597 -72 2437 83 
Q 2278 238 2278 459 
Q 2278 578 2328 709 
Q 2409 919 2514 1209 
Q 2619 1500 2686 1765 
Q 2753 2031 2753 2234 
Q 2753 2413 2679 2538 
Q 2606 2663 2431 2663 
Q 2197 2663 2000 2559 
Q 1803 2456 1656 2286 
Q 1509 2116 1388 1881 
L 953 141 
Q 931 53 854 -9 
Q 778 -72 684 -72 
Q 606 -72 550 -22 
Q 494 28 494 109 
z
" transform="scale(0.015625)"/>
      <path id="DejaVuSerif-75" d="M 2266 3322 
L 3341 3322 
L 3341 331 
L 3884 331 
L 3884 0 
L 2766 0 
L 2766 588 
Q 2606 256 2353 82 
Q 2100 -91 1766 -91 
Q 1213 -91 952 223 
Q 691 538 691 1209 
L 691 2988 
L 172 2988 
L 172 3322 
L 1269 3322 
L 1269 1388 
Q 1269 781 1417 556 
Q 1566 331 1947 331 
Q 2347 331 2556 625 
Q 2766 919 2766 1478 
L 2766 2988 
L 2266 2988 
L 2266 3322 
z
" transform="scale(0.015625)"/>
      <path id="DejaVuSerif-63" d="M 3291 997 
Q 3169 466 2822 187 
Q 2475 -91 1925 -91 
Q 1200 -91 759 389 
Q 319 869 319 1663 
Q 319 2459 759 2936 
Q 1200 3413 1925 3413 
Q 2241 3413 2553 3339 
Q 2866 3266 3181 3116 
L 3181 2266 
L 2847 2266 
Q 2781 2703 2561 2903 
Q 2341 3103 1931 3103 
Q 1466 3103 1228 2742 
Q 991 2381 991 1663 
Q 991 944 1227 581 
Q 1463 219 1931 219 
Q 2303 219 2525 412 
Q 2747 606 2828 997 
L 3291 997 
z
" transform="scale(0.015625)"/>
      <path id="DejaVuSerif-66" d="M 2753 4078 
L 2450 4078 
Q 2447 4313 2317 4434 
Q 2188 4556 1941 4556 
Q 1619 4556 1487 4379 
Q 1356 4203 1356 3750 
L 1356 3322 
L 2284 3322 
L 2284 2988 
L 1356 2988 
L 1356 331 
L 2094 331 
L 2094 0 
L 231 0 
L 231 331 
L 781 331 
L 781 2988 
L 231 2988 
L 231 3322 
L 781 3322 
L 781 3738 
Q 781 4294 1070 4578 
Q 1359 4863 1919 4863 
Q 2128 4863 2337 4825 
Q 2547 4788 2753 4709 
L 2753 4078 
z
" transform="scale(0.015625)"/>
      <path id="DejaVuSerif-79" d="M 1381 -609 
L 1600 -56 
L 359 2988 
L -19 2988 
L -19 3322 
L 1509 3322 
L 1509 2988 
L 978 2988 
L 1913 703 
L 2847 2988 
L 2350 2988 
L 2350 3322 
L 3597 3322 
L 3597 2988 
L 3225 2988 
L 1703 -750 
Q 1547 -1138 1356 -1280 
Q 1166 -1422 819 -1422 
Q 672 -1422 517 -1397 
Q 363 -1372 206 -1325 
L 206 -691 
L 500 -691 
Q 519 -903 608 -995 
Q 697 -1088 884 -1088 
Q 1056 -1088 1161 -992 
Q 1266 -897 1381 -609 
z
" transform="scale(0.015625)"/>
      <path id="Cmmi10-6d" d="M 494 109 
Q 494 147 500 166 
L 978 2075 
Q 1025 2253 1025 2388 
Q 1025 2663 838 2663 
Q 638 2663 541 2423 
Q 444 2184 353 1819 
Q 353 1800 334 1789 
Q 316 1778 300 1778 
L 225 1778 
Q 203 1778 187 1801 
Q 172 1825 172 1844 
Q 241 2122 305 2315 
Q 369 2509 505 2668 
Q 641 2828 844 2828 
Q 1084 2828 1268 2676 
Q 1453 2525 1453 2291 
Q 1644 2541 1900 2684 
Q 2156 2828 2444 2828 
Q 2747 2828 2967 2673 
Q 3188 2519 3188 2234 
Q 3384 2513 3648 2670 
Q 3913 2828 4225 2828 
Q 4556 2828 4757 2648 
Q 4959 2469 4959 2138 
Q 4959 1875 4842 1503 
Q 4725 1131 4550 672 
Q 4459 450 4459 288 
Q 4459 97 4609 97 
Q 4859 97 5025 365 
Q 5191 634 5259 941 
Q 5278 978 5313 978 
L 5388 978 
Q 5413 978 5430 961 
Q 5447 944 5447 922 
Q 5447 916 5441 903 
Q 5353 541 5136 234 
Q 4919 -72 4594 -72 
Q 4369 -72 4209 83 
Q 4050 238 4050 459 
Q 4050 572 4103 709 
Q 4284 1191 4404 1569 
Q 4525 1947 4525 2234 
Q 4525 2413 4453 2538 
Q 4381 2663 4213 2663 
Q 3863 2663 3606 2448 
Q 3350 2234 3163 1881 
Q 3150 1819 3144 1784 
L 2731 141 
Q 2709 53 2632 -9 
Q 2556 -72 2463 -72 
Q 2388 -72 2330 -22 
Q 2272 28 2272 109 
Q 2272 147 2278 166 
L 2688 1797 
Q 2753 2059 2753 2234 
Q 2753 2413 2679 2538 
Q 2606 2663 2431 2663 
Q 2197 2663 2000 2559 
Q 1803 2456 1656 2286 
Q 1509 2116 1388 1881 
L 953 141 
Q 931 53 854 -9 
Q 778 -72 684 -72 
Q 606 -72 550 -22 
Q 494 28 494 109 
z
" transform="scale(0.015625)"/>
      <path id="DejaVuSerif-77" d="M 3072 3322 
L 3922 728 
L 4672 2988 
L 4191 2988 
L 4191 3322 
L 5394 3322 
L 5394 2988 
L 5025 2988 
L 4038 0 
L 3559 0 
L 2741 2484 
L 1919 0 
L 1459 0 
L 475 2988 
L 103 2988 
L 103 3322 
L 1606 3322 
L 1606 2988 
L 1069 2988 
L 1813 728 
L 2669 3322 
L 3072 3322 
z
" transform="scale(0.015625)"/>
      <path id="Cmr10-30" d="M 1600 -141 
Q 816 -141 533 504 
Q 250 1150 250 2041 
Q 250 2597 351 3087 
Q 453 3578 754 3920 
Q 1056 4263 1600 4263 
Q 2022 4263 2290 4056 
Q 2559 3850 2700 3523 
Q 2841 3197 2892 2823 
Q 2944 2450 2944 2041 
Q 2944 1491 2842 1011 
Q 2741 531 2444 195 
Q 2147 -141 1600 -141 
z
M 1600 25 
Q 1956 25 2131 390 
Q 2306 756 2347 1200 
Q 2388 1644 2388 2144 
Q 2388 2625 2347 3031 
Q 2306 3438 2132 3767 
Q 1959 4097 1600 4097 
Q 1238 4097 1063 3765 
Q 888 3434 847 3029 
Q 806 2625 806 2144 
Q 806 1788 823 1472 
Q 841 1156 916 820 
Q 991 484 1158 254 
Q 1325 25 1600 25 
z
" transform="scale(0.015625)"/>
      <path id="Cmmi10-3c" d="M 594 1491 
Q 531 1519 531 1600 
Q 531 1681 616 1722 
L 4269 3444 
Q 4294 3456 4313 3456 
Q 4369 3456 4405 3417 
Q 4441 3378 4441 3328 
Q 4441 3250 4366 3206 
L 959 1600 
L 4384 -19 
Q 4441 -38 4441 -128 
Q 4441 -178 4405 -217 
Q 4369 -256 4313 -256 
Q 4294 -256 4269 -244 
L 594 1491 
z
" transform="scale(0.015625)"/>
      <path id="Cmr10-31" d="M 594 0 
L 594 225 
Q 1394 225 1394 428 
L 1394 3788 
Q 1063 3628 556 3628 
L 556 3853 
Q 1341 3853 1741 4263 
L 1831 4263 
Q 1853 4263 1873 4245 
Q 1894 4228 1894 4206 
L 1894 428 
Q 1894 225 2694 225 
L 2694 0 
L 594 0 
z
" transform="scale(0.015625)"/>
      <path id="Cmr10-39" d="M 722 269 
Q 897 63 1331 63 
Q 1575 63 1786 228 
Q 1997 394 2113 634 
Q 2247 906 2284 1214 
Q 2322 1522 2322 1978 
Q 2213 1719 2008 1553 
Q 1803 1388 1538 1388 
Q 1166 1388 873 1589 
Q 581 1791 425 2120 
Q 269 2450 269 2822 
Q 269 3206 444 3539 
Q 619 3872 928 4067 
Q 1238 4263 1631 4263 
Q 2019 4263 2280 4052 
Q 2541 3841 2678 3508 
Q 2816 3175 2870 2803 
Q 2925 2431 2925 2069 
Q 2925 1575 2744 1061 
Q 2563 547 2202 203 
Q 1841 -141 1331 -141 
Q 953 -141 690 37 
Q 428 216 428 575 
Q 428 706 517 795 
Q 606 884 738 884 
Q 866 884 955 795 
Q 1044 706 1044 575 
Q 1044 450 953 359 
Q 863 269 738 269 
L 722 269 
z
M 1563 1556 
Q 1825 1556 1992 1732 
Q 2159 1909 2234 2171 
Q 2309 2434 2309 2694 
L 2309 2816 
L 2309 2841 
Q 2309 3322 2168 3700 
Q 2028 4078 1631 4078 
Q 1378 4078 1220 3967 
Q 1063 3856 988 3672 
Q 913 3488 892 3278 
Q 872 3069 872 2822 
Q 872 2459 906 2203 
Q 941 1947 1094 1751 
Q 1247 1556 1563 1556 
z
" transform="scale(0.015625)"/>
      <path id="Cmr10-33" d="M 609 494 
Q 759 275 1012 169 
Q 1266 63 1556 63 
Q 1928 63 2084 380 
Q 2241 697 2241 1100 
Q 2241 1281 2208 1462 
Q 2175 1644 2097 1800 
Q 2019 1956 1883 2050 
Q 1747 2144 1550 2144 
L 1125 2144 
Q 1069 2144 1069 2203 
L 1069 2259 
Q 1069 2309 1125 2309 
L 1478 2338 
Q 1703 2338 1851 2506 
Q 2000 2675 2069 2917 
Q 2138 3159 2138 3378 
Q 2138 3684 1994 3881 
Q 1850 4078 1556 4078 
Q 1313 4078 1091 3986 
Q 869 3894 738 3706 
Q 750 3709 759 3711 
Q 769 3713 781 3713 
Q 925 3713 1022 3613 
Q 1119 3513 1119 3372 
Q 1119 3234 1022 3134 
Q 925 3034 781 3034 
Q 641 3034 541 3134 
Q 441 3234 441 3372 
Q 441 3647 606 3850 
Q 772 4053 1033 4158 
Q 1294 4263 1556 4263 
Q 1750 4263 1965 4205 
Q 2181 4147 2356 4039 
Q 2531 3931 2642 3762 
Q 2753 3594 2753 3378 
Q 2753 3109 2633 2881 
Q 2513 2653 2303 2487 
Q 2094 2322 1844 2241 
Q 2122 2188 2372 2031 
Q 2622 1875 2773 1631 
Q 2925 1388 2925 1106 
Q 2925 753 2731 467 
Q 2538 181 2222 20 
Q 1906 -141 1556 -141 
Q 1256 -141 954 -26 
Q 653 88 461 316 
Q 269 544 269 863 
Q 269 1022 375 1128 
Q 481 1234 641 1234 
Q 744 1234 830 1186 
Q 916 1138 964 1050 
Q 1013 963 1013 863 
Q 1013 706 903 600 
Q 794 494 641 494 
L 609 494 
z
" transform="scale(0.015625)"/>
      <path id="DejaVuSerif-2c" d="M 231 -622 
Q 525 -406 662 -114 
Q 800 178 800 594 
L 800 709 
L 1416 709 
Q 1391 175 1164 -208 
Q 938 -591 481 -872 
L 231 -622 
z
" transform="scale(0.015625)"/>
      <path id="DejaVuSerif-78" d="M 1863 2028 
L 2559 2988 
L 2113 2988 
L 2113 3322 
L 3391 3322 
L 3391 2988 
L 2950 2988 
L 2059 1759 
L 3097 331 
L 3531 331 
L 3531 0 
L 1997 0 
L 1997 331 
L 2419 331 
L 1697 1325 
L 972 331 
L 1403 331 
L 1403 0 
L 141 0 
L 141 331 
L 581 331 
L 1497 1594 
L 488 2988 
L 78 2988 
L 78 3322 
L 1563 3322 
L 1563 2988 
L 1166 2988 
L 1863 2028 
z
" transform="scale(0.015625)"/>
      <path id="Cmmi10-6b" d="M 341 116 
Q 341 153 347 172 
L 1275 3872 
Q 1300 3981 1306 4044 
Q 1306 4147 891 4147 
Q 825 4147 825 4231 
Q 828 4247 839 4287 
Q 850 4328 867 4350 
Q 884 4372 916 4372 
L 1778 4441 
L 1797 4441 
Q 1797 4434 1819 4423 
Q 1841 4413 1844 4409 
Q 1856 4378 1856 4359 
L 1184 1684 
Q 1416 1781 1767 2145 
Q 2119 2509 2317 2668 
Q 2516 2828 2816 2828 
Q 2994 2828 3119 2706 
Q 3244 2584 3244 2406 
Q 3244 2294 3197 2198 
Q 3150 2103 3065 2043 
Q 2981 1984 2869 1984 
Q 2766 1984 2695 2048 
Q 2625 2113 2625 2216 
Q 2625 2369 2733 2473 
Q 2841 2578 2994 2578 
Q 2931 2663 2803 2663 
Q 2613 2663 2436 2553 
Q 2259 2444 2054 2239 
Q 1850 2034 1681 1864 
Q 1513 1694 1369 1606 
Q 1747 1563 2025 1408 
Q 2303 1253 2303 934 
Q 2303 869 2278 769 
Q 2222 528 2222 384 
Q 2222 97 2419 97 
Q 2650 97 2770 350 
Q 2891 603 2969 941 
Q 2981 978 3022 978 
L 3097 978 
Q 3122 978 3139 962 
Q 3156 947 3156 922 
Q 3156 916 3150 903 
Q 2909 -72 2406 -72 
Q 2225 -72 2086 12 
Q 1947 97 1872 242 
Q 1797 388 1797 569 
Q 1797 672 1825 781 
Q 1844 856 1844 922 
Q 1844 1169 1625 1297 
Q 1406 1425 1125 1453 
L 800 147 
Q 775 50 703 -11 
Q 631 -72 538 -72 
Q 456 -72 398 -17 
Q 341 38 341 116 
z
" transform="scale(0.015625)"/>
      <path id="Cmr10-2b" d="M 481 1472 
Q 428 1472 393 1512 
Q 359 1553 359 1600 
Q 359 1647 393 1687 
Q 428 1728 481 1728 
L 2363 1728 
L 2363 3616 
Q 2363 3666 2400 3698 
Q 2438 3731 2491 3731 
Q 2538 3731 2578 3698 
Q 2619 3666 2619 3616 
L 2619 1728 
L 4500 1728 
Q 4547 1728 4581 1687 
Q 4616 1647 4616 1600 
Q 4616 1553 4581 1512 
Q 4547 1472 4500 1472 
L 2619 1472 
L 2619 -416 
Q 2619 -466 2578 -498 
Q 2538 -531 2491 -531 
Q 2438 -531 2400 -498 
Q 2363 -466 2363 -416 
L 2363 1472 
L 481 1472 
z
" transform="scale(0.015625)"/>
      <path id="Cmr10-34" d="M 178 1056 
L 178 1281 
L 2156 4231 
Q 2178 4263 2222 4263 
L 2316 4263 
Q 2388 4263 2388 4191 
L 2388 1281 
L 3016 1281 
L 3016 1056 
L 2388 1056 
L 2388 428 
Q 2388 297 2575 261 
Q 2763 225 3009 225 
L 3009 0 
L 1247 0 
L 1247 225 
Q 1494 225 1681 261 
Q 1869 297 1869 428 
L 1869 1056 
L 178 1056 
z
M 391 1281 
L 1906 1281 
L 1906 3547 
L 391 1281 
z
" transform="scale(0.015625)"/>
      <path id="DejaVuSerif-2e" d="M 603 325 
Q 603 500 722 622 
Q 841 744 1019 744 
Q 1191 744 1312 622 
Q 1434 500 1434 325 
Q 1434 153 1312 31 
Q 1191 -91 1019 -91 
Q 841 -91 722 29 
Q 603 150 603 325 
z
" transform="scale(0.015625)"/>
     </defs>
     <use xlink:href="#DejaVuSerif-46" transform="translate(0 0.065625)"/>
     <use xlink:href="#DejaVuSerif-69" transform="translate(69.384766 0.065625)"/>
     <use xlink:href="#DejaVuSerif-6e" transform="translate(101.367188 0.065625)"/>
     <use xlink:href="#DejaVuSerif-64" transform="translate(165.771484 0.065625)"/>
     <use xlink:href="#DejaVuSerif-20" transform="translate(229.785156 0.065625)"/>
     <use xlink:href="#DejaVuSerif-74" transform="translate(261.572266 0.065625)"/>
     <use xlink:href="#DejaVuSerif-68" transform="translate(301.757812 0.065625)"/>
     <use xlink:href="#DejaVuSerif-65" transform="translate(366.162109 0.065625)"/>
     <use xlink:href="#DejaVuSerif-20" transform="translate(425.341797 0.065625)"/>
     <use xlink:href="#DejaVuSerif-73" transform="translate(457.128906 0.065625)"/>
     <use xlink:href="#DejaVuSerif-6d" transform="translate(508.447266 0.065625)"/>
     <use xlink:href="#DejaVuSerif-61" transform="translate(603.271484 0.065625)"/>
     <use xlink:href="#DejaVuSerif-6c" transform="translate(662.890625 0.065625)"/>
     <use xlink:href="#DejaVuSerif-6c" transform="translate(694.873047 0.065625)"/>
     <use xlink:href="#DejaVuSerif-65" transform="translate(726.855469 0.065625)"/>
     <use xlink:href="#DejaVuSerif-73" transform="translate(786.035156 0.065625)"/>
     <use xlink:href="#DejaVuSerif-74" transform="translate(837.353516 0.065625)"/>
     <use xlink:href="#DejaVuSerif-20" transform="translate(877.539062 0.065625)"/>
     <use xlink:href="#DejaVuSerif-70" transform="translate(909.326172 0.065625)"/>
     <use xlink:href="#DejaVuSerif-6f" transform="translate(973.339844 0.065625)"/>
     <use xlink:href="#DejaVuSerif-73" transform="translate(1033.544922 0.065625)"/>
     <use xlink:href="#DejaVuSerif-69" transform="translate(1084.863281 0.065625)"/>
     <use xlink:href="#DejaVuSerif-74" transform="translate(1116.845703 0.065625)"/>
     <use xlink:href="#DejaVuSerif-69" transform="translate(1157.03125 0.065625)"/>
     <use xlink:href="#DejaVuSerif-76" transform="translate(1189.013672 0.065625)"/>
     <use xlink:href="#DejaVuSerif-65" transform="translate(1245.507812 0.065625)"/>
     <use xlink:href="#DejaVuSerif-20" transform="translate(1304.6875 0.065625)"/>
     <use xlink:href="#DejaVuSerif-69" transform="translate(1336.474609 0.065625)"/>
     <use xlink:href="#DejaVuSerif-6e" transform="translate(1368.457031 0.065625)"/>
     <use xlink:href="#DejaVuSerif-74" transform="translate(1432.861328 0.065625)"/>
     <use xlink:href="#DejaVuSerif-65" transform="translate(1473.046875 0.065625)"/>
     <use xlink:href="#DejaVuSerif-67" transform="translate(1532.226562 0.065625)"/>
     <use xlink:href="#DejaVuSerif-65" transform="translate(1596.240234 0.065625)"/>
     <use xlink:href="#DejaVuSerif-72" transform="translate(1655.419922 0.065625)"/>
     <use xlink:href="#DejaVuSerif-20" transform="translate(1703.222656 0.065625)"/>
     <use xlink:href="#Cmmi10-6e" transform="translate(1735.009766 0.065625)"/>
     <use xlink:href="#DejaVuSerif-20" transform="translate(1795.019531 0.065625)"/>
     <use xlink:href="#DejaVuSerif-73" transform="translate(1826.806641 0.065625)"/>
     <use xlink:href="#DejaVuSerif-75" transform="translate(1878.125 0.065625)"/>
     <use xlink:href="#DejaVuSerif-63" transform="translate(1942.529297 0.065625)"/>
     <use xlink:href="#DejaVuSerif-68" transform="translate(1998.535156 0.065625)"/>
     <use xlink:href="#DejaVuSerif-20" transform="translate(2062.939453 0.065625)"/>
     <use xlink:href="#DejaVuSerif-74" transform="translate(2094.726562 0.065625)"/>
     <use xlink:href="#DejaVuSerif-68" transform="translate(2134.912109 0.065625)"/>
     <use xlink:href="#DejaVuSerif-61" transform="translate(2199.316406 0.065625)"/>
     <use xlink:href="#DejaVuSerif-74" transform="translate(2258.935547 0.065625)"/>
     <use xlink:href="#DejaVuSerif-20" transform="translate(2299.121094 0.065625)"/>
     <use xlink:href="#DejaVuSerif-66" transform="translate(2330.908203 0.065625)"/>
     <use xlink:href="#DejaVuSerif-6f" transform="translate(2367.919922 0.065625)"/>
     <use xlink:href="#DejaVuSerif-72" transform="translate(2428.125 0.065625)"/>
     <use xlink:href="#DejaVuSerif-20" transform="translate(2475.927734 0.065625)"/>
     <use xlink:href="#DejaVuSerif-65" transform="translate(2507.714844 0.065625)"/>
     <use xlink:href="#DejaVuSerif-76" transform="translate(2566.894531 0.065625)"/>
     <use xlink:href="#DejaVuSerif-65" transform="translate(2623.388672 0.065625)"/>
     <use xlink:href="#DejaVuSerif-72" transform="translate(2682.568359 0.065625)"/>
     <use xlink:href="#DejaVuSerif-79" transform="translate(2730.371094 0.065625)"/>
     <use xlink:href="#DejaVuSerif-20" transform="translate(2786.865234 0.065625)"/>
     <use xlink:href="#DejaVuSerif-69" transform="translate(2818.652344 0.065625)"/>
     <use xlink:href="#DejaVuSerif-6e" transform="translate(2850.634766 0.065625)"/>
     <use xlink:href="#DejaVuSerif-74" transform="translate(2915.039062 0.065625)"/>
     <use xlink:href="#DejaVuSerif-65" transform="translate(2955.224609 0.065625)"/>
     <use xlink:href="#DejaVuSerif-67" transform="translate(3014.404297 0.065625)"/>
     <use xlink:href="#DejaVuSerif-65" transform="translate(3078.417969 0.065625)"/>
     <use xlink:href="#DejaVuSerif-72" transform="translate(3137.597656 0.065625)"/>
     <use xlink:href="#DejaVuSerif-20" transform="translate(3185.400391 0.065625)"/>
     <use xlink:href="#Cmmi10-6d" transform="translate(3217.1875 0.065625)"/>
     <use xlink:href="#DejaVuSerif-20" transform="translate(3304.980469 0.065625)"/>
     <use xlink:href="#DejaVuSerif-77" transform="translate(3336.767578 0.065625)"/>
     <use xlink:href="#DejaVuSerif-69" transform="translate(3422.363281 0.065625)"/>
     <use xlink:href="#DejaVuSerif-74" transform="translate(3454.345703 0.065625)"/>
     <use xlink:href="#DejaVuSerif-68" transform="translate(3494.53125 0.065625)"/>
     <use xlink:href="#DejaVuSerif-20" transform="translate(3558.935547 0.065625)"/>
     <use xlink:href="#Cmr10-30" transform="translate(3590.722656 0.065625)"/>
     <use xlink:href="#Cmmi10-3c" transform="translate(3658.28125 0.065625)"/>
     <use xlink:href="#Cmmi10-6d" transform="translate(3753.525391 0.065625)"/>
     <use xlink:href="#Cmmi10-3c" transform="translate(3858.876953 0.065625)"/>
     <use xlink:href="#Cmr10-31" transform="translate(3954.121094 0.065625)"/>
     <use xlink:href="#Cmr10-39" transform="translate(4004.121094 0.065625)"/>
     <use xlink:href="#Cmr10-39" transform="translate(4054.121094 0.065625)"/>
     <use xlink:href="#Cmr10-33" transform="translate(4104.121094 0.065625)"/>
     <use xlink:href="#DejaVuSerif-2c" transform="translate(4154.121094 0.065625)"/>
     <use xlink:href="#DejaVuSerif-20" transform="translate(4185.908203 0.065625)"/>
     <use xlink:href="#DejaVuSerif-74" transform="translate(4217.695312 0.065625)"/>
     <use xlink:href="#DejaVuSerif-68" transform="translate(4257.880859 0.065625)"/>
     <use xlink:href="#DejaVuSerif-65" transform="translate(4322.285156 0.065625)"/>
     <use xlink:href="#DejaVuSerif-72" transform="translate(4381.464844 0.065625)"/>
     <use xlink:href="#DejaVuSerif-65" transform="translate(4429.267578 0.065625)"/>
     <use xlink:href="#DejaVuSerif-20" transform="translate(4488.447266 0.065625)"/>
     <use xlink:href="#DejaVuSerif-65" transform="translate(4520.234375 0.065625)"/>
     <use xlink:href="#DejaVuSerif-78" transform="translate(4579.414062 0.065625)"/>
     <use xlink:href="#DejaVuSerif-69" transform="translate(4635.810547 0.065625)"/>
     <use xlink:href="#DejaVuSerif-73" transform="translate(4667.792969 0.065625)"/>
     <use xlink:href="#DejaVuSerif-74" transform="translate(4719.111328 0.065625)"/>
     <use xlink:href="#DejaVuSerif-73" transform="translate(4759.296875 0.065625)"/>
     <use xlink:href="#DejaVuSerif-20" transform="translate(4810.615234 0.065625)"/>
     <use xlink:href="#DejaVuSerif-61" transform="translate(4842.402344 0.065625)"/>
     <use xlink:href="#DejaVuSerif-6e" transform="translate(4902.021484 0.065625)"/>
     <use xlink:href="#DejaVuSerif-20" transform="translate(4966.425781 0.065625)"/>
     <use xlink:href="#DejaVuSerif-69" transform="translate(4998.212891 0.065625)"/>
     <use xlink:href="#DejaVuSerif-6e" transform="translate(5030.195312 0.065625)"/>
     <use xlink:href="#DejaVuSerif-74" transform="translate(5094.599609 0.065625)"/>
     <use xlink:href="#DejaVuSerif-65" transform="translate(5134.785156 0.065625)"/>
     <use xlink:href="#DejaVuSerif-67" transform="translate(5193.964844 0.065625)"/>
     <use xlink:href="#DejaVuSerif-65" transform="translate(5257.978516 0.065625)"/>
     <use xlink:href="#DejaVuSerif-72" transform="translate(5317.158203 0.065625)"/>
     <use xlink:href="#DejaVuSerif-20" transform="translate(5364.960938 0.065625)"/>
     <use xlink:href="#Cmmi10-6b" transform="translate(5396.748047 0.065625)"/>
     <use xlink:href="#DejaVuSerif-20" transform="translate(5448.75 0.065625)"/>
     <use xlink:href="#DejaVuSerif-66" transform="translate(5480.537109 0.065625)"/>
     <use xlink:href="#DejaVuSerif-6f" transform="translate(5517.548828 0.065625)"/>
     <use xlink:href="#DejaVuSerif-72" transform="translate(5577.753906 0.065625)"/>
     <use xlink:href="#DejaVuSerif-20" transform="translate(5625.556641 0.065625)"/>
     <use xlink:href="#DejaVuSerif-77" transform="translate(5657.34375 0.065625)"/>
     <use xlink:href="#DejaVuSerif-68" transform="translate(5742.939453 0.065625)"/>
     <use xlink:href="#DejaVuSerif-69" transform="translate(5807.34375 0.065625)"/>
     <use xlink:href="#DejaVuSerif-63" transform="translate(5839.326172 0.065625)"/>
     <use xlink:href="#DejaVuSerif-68" transform="translate(5895.332031 0.065625)"/>
     <use xlink:href="#DejaVuSerif-20" transform="translate(5959.736328 0.065625)"/>
     <use xlink:href="#Cmmi10-6d" transform="translate(6030.523438 38.353125) scale(0.7)"/>
     <use xlink:href="#Cmr10-31" transform="translate(5991.523438 -40.310937) scale(0.7)"/>
     <use xlink:href="#Cmr10-39" transform="translate(6026.523438 -40.310937) scale(0.7)"/>
     <use xlink:href="#Cmr10-39" transform="translate(6061.523438 -40.310937) scale(0.7)"/>
     <use xlink:href="#Cmr10-33" transform="translate(6096.523438 -40.310937) scale(0.7)"/>
     <use xlink:href="#Cmmi10-3c" transform="translate(6161.582031 0.065625)"/>
     <use xlink:href="#Cmmi10-6b" transform="translate(6259.826172 38.353125) scale(0.7)"/>
     <use xlink:href="#Cmmi10-6e" transform="translate(6256.826172 -24.615625) scale(0.7)"/>
     <use xlink:href="#Cmmi10-3c" transform="translate(6328.891602 0.065625)"/>
     <use xlink:href="#Cmmi10-6d" transform="translate(6424.135742 43.373438) scale(0.7)"/>
     <use xlink:href="#Cmr10-2b" transform="translate(6497.881836 43.373438) scale(0.7)"/>
     <use xlink:href="#Cmr10-31" transform="translate(6564.552734 43.373438) scale(0.7)"/>
     <use xlink:href="#Cmr10-31" transform="translate(6442.135742 -40.310937) scale(0.7)"/>
     <use xlink:href="#Cmr10-39" transform="translate(6477.135742 -40.310937) scale(0.7)"/>
     <use xlink:href="#Cmr10-39" transform="translate(6512.135742 -40.310937) scale(0.7)"/>
     <use xlink:href="#Cmr10-34" transform="translate(6547.135742 -40.310937) scale(0.7)"/>
     <use xlink:href="#DejaVuSerif-2e" transform="translate(6612.052734 0.065625)"/>
     <path d="M 5991.523438 12.565625 
L 5991.523438 18.815625 
L 6131.523438 18.815625 
L 6131.523438 12.565625 
L 5991.523438 12.565625 
z
"/>
     <path d="M 6256.826172 12.565625 
L 6256.826172 18.815625 
L 6298.833008 18.815625 
L 6298.833008 12.565625 
L 6256.826172 12.565625 
z
"/>
     <path d="M 6424.135742 12.565625 
L 6424.135742 18.815625 
L 6599.552734 18.815625 
L 6599.552734 12.565625 
L 6424.135742 12.565625 
z
"/>
    </g>
   </g>
  </g>
 </g>
</svg>
