<?xml version="1.0" encoding="utf-8" standalone="no"?>
<!DOCTYPE svg PUBLIC "-//W3C//DTD SVG 1.1//EN"
  "http://www.w3.org/Graphics/SVG/1.1/DTD/svg11.dtd">
<svg xmlns:xlink="http://www.w3.org/1999/xlink" width="561.72pt" height="228.4pt" viewBox="0 0 561.72 228.4" xmlns="http://www.w3.org/2000/svg" version="1.1">
 <metadata>
  <rdf:RDF xmlns:dc="http://purl.org/dc/elements/1.1/" xmlns:cc="http://creativecommons.org/ns#" xmlns:rdf="http://www.w3.org/1999/02/22-rdf-syntax-ns#">
   <cc:Work>
    <dc:type rdf:resource="http://purl.org/dc/dcmitype/StillImage"/>
    <dc:date>2025-05-11T00:01:53.549075</dc:date>
    <dc:format>image/svg+xml</dc:format>
    <dc:creator>
     <cc:Agent>
      <dc:title>Matplotlib v3.10.3, https://matplotlib.org/</dc:title>
     </cc:Agent>
    </dc:creator>
   </cc:Work>
  </rdf:RDF>
 </metadata>
 <defs>
  <style type="text/css">*{stroke-linejoin: round; stroke-linecap: butt}</style>
 </defs>
 <g id="figure_1">
  <g id="patch_1">
   <path d="M 0 228.4 
L 561.72 228.4 
L 561.72 0 
L 0 0 
z
" style="fill: #ffffff"/>
  </g>
  <g id="axes_1">
   <g id="text_1">
    <!-- Let $\alpha$ be a real number. Find all continuous real-valued functions $f : [0, 1] \rightarrow (0, \infty)$ such that -->
    <g transform="translate(7.2 82.995313) scale(0.12 -0.12)">
     <defs>
      <path id="DejaVuSerif-4c" d="M 353 0 
L 353 331 
L 947 331 
L 947 4331 
L 353 4331 
L 353 4666 
L 2175 4666 
L 2175 4331 
L 1581 4331 
L 1581 384 
L 3713 384 
L 3713 1166 
L 4097 1166 
L 4097 0 
L 353 0 
z
" transform="scale(0.015625)"/>
      <path id="DejaVuSerif-65" d="M 3469 1600 
L 991 1600 
L 991 1575 
Q 991 903 1244 561 
Q 1497 219 1991 219 
Q 2369 219 2611 417 
Q 2853 616 2950 1006 
L 3413 1006 
Q 3275 459 2904 184 
Q 2534 -91 1931 -91 
Q 1203 -91 761 389 
Q 319 869 319 1663 
Q 319 2450 753 2931 
Q 1188 3413 1894 3413 
Q 2647 3413 3050 2948 
Q 3453 2484 3469 1600 
z
M 2791 1931 
Q 2772 2513 2545 2808 
Q 2319 3103 1894 3103 
Q 1497 3103 1269 2806 
Q 1041 2509 991 1931 
L 2791 1931 
z
" transform="scale(0.015625)"/>
      <path id="DejaVuSerif-74" d="M 691 2988 
L 184 2988 
L 184 3322 
L 691 3322 
L 691 4353 
L 1269 4353 
L 1269 3322 
L 2350 3322 
L 2350 2988 
L 1269 2988 
L 1269 878 
Q 1269 456 1350 337 
Q 1431 219 1650 219 
Q 1875 219 1978 351 
Q 2081 484 2088 781 
L 2522 781 
Q 2497 328 2275 118 
Q 2053 -91 1600 -91 
Q 1103 -91 897 129 
Q 691 350 691 878 
L 691 2988 
z
" transform="scale(0.015625)"/>
      <path id="DejaVuSerif-20" transform="scale(0.015625)"/>
      <path id="Cmmi10-ae" d="M 1288 -72 
Q 984 -72 748 72 
Q 513 216 384 459 
Q 256 703 256 1013 
Q 256 1447 498 1872 
Q 741 2297 1142 2562 
Q 1544 2828 1984 2828 
Q 2309 2828 2556 2658 
Q 2803 2488 2931 2205 
Q 3059 1922 3059 1600 
L 3066 1172 
Q 3284 1475 3436 1801 
Q 3588 2128 3669 2478 
Q 3681 2516 3719 2516 
L 3794 2516 
Q 3853 2516 3853 2456 
Q 3853 2450 3847 2438 
Q 3772 2144 3659 1873 
Q 3547 1603 3395 1350 
Q 3244 1097 3066 891 
Q 3066 97 3250 97 
Q 3369 97 3445 167 
Q 3522 238 3580 341 
Q 3638 444 3653 447 
L 3731 447 
Q 3781 447 3781 384 
Q 3781 225 3598 76 
Q 3416 -72 3238 -72 
Q 3006 -72 2853 78 
Q 2700 228 2644 469 
Q 2344 213 1994 70 
Q 1644 -72 1288 -72 
z
M 1300 97 
Q 1984 97 2613 659 
Q 2609 697 2603 751 
Q 2597 806 2597 813 
L 2597 1503 
Q 2597 2663 1972 2663 
Q 1597 2663 1315 2342 
Q 1034 2022 892 1576 
Q 750 1131 750 763 
Q 750 484 892 290 
Q 1034 97 1300 97 
z
" transform="scale(0.015625)"/>
      <path id="DejaVuSerif-62" d="M 738 331 
L 738 4531 
L 184 4531 
L 184 4863 
L 1313 4863 
L 1313 2803 
Q 1481 3116 1742 3264 
Q 2003 3413 2388 3413 
Q 3000 3413 3387 2928 
Q 3775 2444 3775 1663 
Q 3775 881 3387 395 
Q 3000 -91 2388 -91 
Q 2003 -91 1742 57 
Q 1481 206 1313 519 
L 1313 0 
L 184 0 
L 184 331 
L 738 331 
z
M 1313 1497 
Q 1313 897 1542 583 
Q 1772 269 2209 269 
Q 2650 269 2876 622 
Q 3103 975 3103 1663 
Q 3103 2353 2876 2703 
Q 2650 3053 2209 3053 
Q 1772 3053 1542 2737 
Q 1313 2422 1313 1825 
L 1313 1497 
z
" transform="scale(0.015625)"/>
      <path id="DejaVuSerif-61" d="M 2547 1044 
L 2547 1747 
L 1806 1747 
Q 1378 1747 1168 1562 
Q 959 1378 959 997 
Q 959 650 1171 447 
Q 1384 244 1747 244 
Q 2106 244 2326 466 
Q 2547 688 2547 1044 
z
M 3122 2075 
L 3122 331 
L 3634 331 
L 3634 0 
L 2547 0 
L 2547 359 
Q 2356 128 2106 18 
Q 1856 -91 1522 -91 
Q 969 -91 644 203 
Q 319 497 319 997 
Q 319 1513 691 1797 
Q 1063 2081 1741 2081 
L 2547 2081 
L 2547 2309 
Q 2547 2688 2317 2895 
Q 2088 3103 1672 3103 
Q 1328 3103 1125 2947 
Q 922 2791 872 2484 
L 575 2484 
L 575 3156 
Q 875 3284 1158 3348 
Q 1441 3413 1709 3413 
Q 2400 3413 2761 3070 
Q 3122 2728 3122 2075 
z
" transform="scale(0.015625)"/>
      <path id="DejaVuSerif-72" d="M 3059 3328 
L 3059 2497 
L 2728 2497 
Q 2713 2744 2591 2866 
Q 2469 2988 2234 2988 
Q 1809 2988 1582 2694 
Q 1356 2400 1356 1850 
L 1356 331 
L 2022 331 
L 2022 0 
L 263 0 
L 263 331 
L 781 331 
L 781 2994 
L 231 2994 
L 231 3322 
L 1356 3322 
L 1356 2731 
Q 1525 3078 1790 3245 
Q 2056 3413 2438 3413 
Q 2578 3413 2733 3391 
Q 2888 3369 3059 3328 
z
" transform="scale(0.015625)"/>
      <path id="DejaVuSerif-6c" d="M 1313 331 
L 1856 331 
L 1856 0 
L 184 0 
L 184 331 
L 738 331 
L 738 4531 
L 184 4531 
L 184 4863 
L 1313 4863 
L 1313 331 
z
" transform="scale(0.015625)"/>
      <path id="DejaVuSerif-6e" d="M 263 0 
L 263 331 
L 781 331 
L 781 2988 
L 231 2988 
L 231 3322 
L 1356 3322 
L 1356 2731 
Q 1516 3069 1770 3241 
Q 2025 3413 2363 3413 
Q 2913 3413 3172 3097 
Q 3431 2781 3431 2113 
L 3431 331 
L 3944 331 
L 3944 0 
L 2356 0 
L 2356 331 
L 2853 331 
L 2853 1931 
Q 2853 2541 2703 2767 
Q 2553 2994 2175 2994 
Q 1775 2994 1565 2701 
Q 1356 2409 1356 1850 
L 1356 331 
L 1856 331 
L 1856 0 
L 263 0 
z
" transform="scale(0.015625)"/>
      <path id="DejaVuSerif-75" d="M 2266 3322 
L 3341 3322 
L 3341 331 
L 3884 331 
L 3884 0 
L 2766 0 
L 2766 588 
Q 2606 256 2353 82 
Q 2100 -91 1766 -91 
Q 1213 -91 952 223 
Q 691 538 691 1209 
L 691 2988 
L 172 2988 
L 172 3322 
L 1269 3322 
L 1269 1388 
Q 1269 781 1417 556 
Q 1566 331 1947 331 
Q 2347 331 2556 625 
Q 2766 919 2766 1478 
L 2766 2988 
L 2266 2988 
L 2266 3322 
z
" transform="scale(0.015625)"/>
      <path id="DejaVuSerif-6d" d="M 3316 2675 
Q 3481 3041 3739 3227 
Q 3997 3413 4341 3413 
Q 4863 3413 5119 3089 
Q 5375 2766 5375 2113 
L 5375 331 
L 5894 331 
L 5894 0 
L 4300 0 
L 4300 331 
L 4800 331 
L 4800 2047 
Q 4800 2556 4650 2772 
Q 4500 2988 4153 2988 
Q 3769 2988 3567 2697 
Q 3366 2406 3366 1850 
L 3366 331 
L 3866 331 
L 3866 0 
L 2291 0 
L 2291 331 
L 2791 331 
L 2791 2069 
Q 2791 2566 2641 2777 
Q 2491 2988 2144 2988 
Q 1759 2988 1557 2697 
Q 1356 2406 1356 1850 
L 1356 331 
L 1856 331 
L 1856 0 
L 263 0 
L 263 331 
L 781 331 
L 781 2994 
L 231 2994 
L 231 3322 
L 1356 3322 
L 1356 2731 
Q 1516 3063 1762 3238 
Q 2009 3413 2322 3413 
Q 2709 3413 2968 3220 
Q 3228 3028 3316 2675 
z
" transform="scale(0.015625)"/>
      <path id="DejaVuSerif-2e" d="M 603 325 
Q 603 500 722 622 
Q 841 744 1019 744 
Q 1191 744 1312 622 
Q 1434 500 1434 325 
Q 1434 153 1312 31 
Q 1191 -91 1019 -91 
Q 841 -91 722 29 
Q 603 150 603 325 
z
" transform="scale(0.015625)"/>
      <path id="DejaVuSerif-46" d="M 353 0 
L 353 331 
L 947 331 
L 947 4331 
L 353 4331 
L 353 4666 
L 4172 4666 
L 4172 3628 
L 3788 3628 
L 3788 4281 
L 1581 4281 
L 1581 2719 
L 3175 2719 
L 3175 3303 
L 3559 3303 
L 3559 1753 
L 3175 1753 
L 3175 2338 
L 1581 2338 
L 1581 331 
L 2328 331 
L 2328 0 
L 353 0 
z
" transform="scale(0.015625)"/>
      <path id="DejaVuSerif-69" d="M 622 4353 
Q 622 4497 726 4603 
Q 831 4709 978 4709 
Q 1122 4709 1226 4603 
Q 1331 4497 1331 4353 
Q 1331 4206 1228 4103 
Q 1125 4000 978 4000 
Q 831 4000 726 4103 
Q 622 4206 622 4353 
z
M 1356 331 
L 1900 331 
L 1900 0 
L 231 0 
L 231 331 
L 781 331 
L 781 2988 
L 231 2988 
L 231 3322 
L 1356 3322 
L 1356 331 
z
" transform="scale(0.015625)"/>
      <path id="DejaVuSerif-64" d="M 3359 331 
L 3909 331 
L 3909 0 
L 2784 0 
L 2784 519 
Q 2616 206 2355 57 
Q 2094 -91 1709 -91 
Q 1097 -91 708 395 
Q 319 881 319 1663 
Q 319 2444 706 2928 
Q 1094 3413 1709 3413 
Q 2094 3413 2355 3264 
Q 2616 3116 2784 2803 
L 2784 4531 
L 2241 4531 
L 2241 4863 
L 3359 4863 
L 3359 331 
z
M 2784 1497 
L 2784 1825 
Q 2784 2422 2554 2737 
Q 2325 3053 1888 3053 
Q 1444 3053 1217 2703 
Q 991 2353 991 1663 
Q 991 975 1217 622 
Q 1444 269 1888 269 
Q 2325 269 2554 583 
Q 2784 897 2784 1497 
z
" transform="scale(0.015625)"/>
      <path id="DejaVuSerif-63" d="M 3291 997 
Q 3169 466 2822 187 
Q 2475 -91 1925 -91 
Q 1200 -91 759 389 
Q 319 869 319 1663 
Q 319 2459 759 2936 
Q 1200 3413 1925 3413 
Q 2241 3413 2553 3339 
Q 2866 3266 3181 3116 
L 3181 2266 
L 2847 2266 
Q 2781 2703 2561 2903 
Q 2341 3103 1931 3103 
Q 1466 3103 1228 2742 
Q 991 2381 991 1663 
Q 991 944 1227 581 
Q 1463 219 1931 219 
Q 2303 219 2525 412 
Q 2747 606 2828 997 
L 3291 997 
z
" transform="scale(0.015625)"/>
      <path id="DejaVuSerif-6f" d="M 1925 219 
Q 2388 219 2623 584 
Q 2859 950 2859 1663 
Q 2859 2375 2623 2739 
Q 2388 3103 1925 3103 
Q 1463 3103 1227 2739 
Q 991 2375 991 1663 
Q 991 950 1228 584 
Q 1466 219 1925 219 
z
M 1925 -91 
Q 1200 -91 759 389 
Q 319 869 319 1663 
Q 319 2456 758 2934 
Q 1197 3413 1925 3413 
Q 2653 3413 3092 2934 
Q 3531 2456 3531 1663 
Q 3531 869 3092 389 
Q 2653 -91 1925 -91 
z
" transform="scale(0.015625)"/>
      <path id="DejaVuSerif-73" d="M 359 184 
L 359 959 
L 691 959 
Q 703 588 923 403 
Q 1144 219 1575 219 
Q 1963 219 2166 364 
Q 2369 509 2369 788 
Q 2369 1006 2220 1140 
Q 2072 1275 1594 1428 
L 1178 1569 
Q 750 1706 558 1912 
Q 366 2119 366 2438 
Q 366 2894 700 3153 
Q 1034 3413 1625 3413 
Q 1888 3413 2178 3344 
Q 2469 3275 2778 3144 
L 2778 2419 
L 2447 2419 
Q 2434 2741 2221 2922 
Q 2009 3103 1644 3103 
Q 1281 3103 1095 2975 
Q 909 2847 909 2591 
Q 909 2381 1050 2254 
Q 1191 2128 1613 1997 
L 2069 1856 
Q 2541 1709 2748 1489 
Q 2956 1269 2956 922 
Q 2956 450 2595 179 
Q 2234 -91 1600 -91 
Q 1278 -91 972 -22 
Q 666 47 359 184 
z
" transform="scale(0.015625)"/>
      <path id="DejaVuSerif-2d" d="M 281 1959 
L 1881 1959 
L 1881 1472 
L 281 1472 
L 281 1959 
z
" transform="scale(0.015625)"/>
      <path id="DejaVuSerif-76" d="M 1581 0 
L 359 2988 
L -19 2988 
L -19 3322 
L 1509 3322 
L 1509 2988 
L 978 2988 
L 1913 703 
L 2847 2988 
L 2350 2988 
L 2350 3322 
L 3597 3322 
L 3597 2988 
L 3225 2988 
L 2003 0 
L 1581 0 
z
" transform="scale(0.015625)"/>
      <path id="DejaVuSerif-66" d="M 2753 4078 
L 2450 4078 
Q 2447 4313 2317 4434 
Q 2188 4556 1941 4556 
Q 1619 4556 1487 4379 
Q 1356 4203 1356 3750 
L 1356 3322 
L 2284 3322 
L 2284 2988 
L 1356 2988 
L 1356 331 
L 2094 331 
L 2094 0 
L 231 0 
L 231 331 
L 781 331 
L 781 2988 
L 231 2988 
L 231 3322 
L 781 3322 
L 781 3738 
Q 781 4294 1070 4578 
Q 1359 4863 1919 4863 
Q 2128 4863 2337 4825 
Q 2547 4788 2753 4709 
L 2753 4078 
z
" transform="scale(0.015625)"/>
      <path id="Cmmi10-66" d="M 622 -1056 
Q 741 -1147 909 -1147 
Q 1138 -1147 1281 -641 
Q 1341 -397 1606 966 
L 1900 2534 
L 1350 2534 
Q 1288 2534 1288 2619 
Q 1313 2759 1369 2759 
L 1941 2759 
L 2016 3175 
Q 2053 3369 2084 3508 
Q 2116 3647 2152 3765 
Q 2188 3884 2259 4031 
Q 2369 4241 2555 4377 
Q 2741 4513 2956 4513 
Q 3097 4513 3230 4461 
Q 3363 4409 3447 4306 
Q 3531 4203 3531 4063 
Q 3531 3900 3423 3779 
Q 3316 3659 3163 3659 
Q 3059 3659 2986 3723 
Q 2913 3788 2913 3891 
Q 2913 4031 3008 4136 
Q 3103 4241 3244 4256 
Q 3125 4347 2950 4347 
Q 2853 4347 2767 4256 
Q 2681 4166 2656 4063 
Q 2616 3900 2478 3181 
L 2400 2759 
L 3059 2759 
Q 3122 2759 3122 2675 
Q 3119 2659 3109 2620 
Q 3100 2581 3083 2557 
Q 3066 2534 3041 2534 
L 2356 2534 
L 2059 972 
Q 2003 631 1929 279 
Q 1856 -72 1723 -442 
Q 1591 -813 1384 -1063 
Q 1178 -1313 897 -1313 
Q 681 -1313 511 -1189 
Q 341 -1066 341 -863 
Q 341 -700 445 -579 
Q 550 -459 709 -459 
Q 816 -459 887 -523 
Q 959 -588 959 -691 
Q 959 -828 857 -942 
Q 756 -1056 622 -1056 
z
" transform="scale(0.015625)"/>
      <path id="Cmr10-3a" d="M 538 353 
Q 538 497 644 600 
Q 750 703 891 703 
Q 978 703 1062 656 
Q 1147 609 1194 525 
Q 1241 441 1241 353 
Q 1241 213 1137 106 
Q 1034 0 891 0 
Q 750 0 644 106 
Q 538 213 538 353 
z
M 538 2406 
Q 538 2497 584 2578 
Q 631 2659 714 2709 
Q 797 2759 891 2759 
Q 981 2759 1064 2709 
Q 1147 2659 1194 2578 
Q 1241 2497 1241 2406 
Q 1241 2263 1139 2158 
Q 1038 2053 891 2053 
Q 747 2053 642 2158 
Q 538 2263 538 2406 
z
" transform="scale(0.015625)"/>
      <path id="Cmr10-5b" d="M 756 -1600 
L 756 4800 
L 1631 4800 
L 1631 4544 
L 1013 4544 
L 1013 -1344 
L 1631 -1344 
L 1631 -1600 
L 756 -1600 
z
" transform="scale(0.015625)"/>
      <path id="Cmr10-30" d="M 1600 -141 
Q 816 -141 533 504 
Q 250 1150 250 2041 
Q 250 2597 351 3087 
Q 453 3578 754 3920 
Q 1056 4263 1600 4263 
Q 2022 4263 2290 4056 
Q 2559 3850 2700 3523 
Q 2841 3197 2892 2823 
Q 2944 2450 2944 2041 
Q 2944 1491 2842 1011 
Q 2741 531 2444 195 
Q 2147 -141 1600 -141 
z
M 1600 25 
Q 1956 25 2131 390 
Q 2306 756 2347 1200 
Q 2388 1644 2388 2144 
Q 2388 2625 2347 3031 
Q 2306 3438 2132 3767 
Q 1959 4097 1600 4097 
Q 1238 4097 1063 3765 
Q 888 3434 847 3029 
Q 806 2625 806 2144 
Q 806 1788 823 1472 
Q 841 1156 916 820 
Q 991 484 1158 254 
Q 1325 25 1600 25 
z
" transform="scale(0.015625)"/>
      <path id="Cmmi10-3b" d="M 634 -1153 
Q 634 -1125 659 -1100 
Q 891 -878 1019 -587 
Q 1147 -297 1147 25 
L 1147 103 
Q 1044 0 891 0 
Q 744 0 641 103 
Q 538 206 538 353 
Q 538 503 641 603 
Q 744 703 891 703 
Q 1119 703 1216 492 
Q 1313 281 1313 25 
Q 1313 -331 1170 -651 
Q 1028 -972 769 -1228 
Q 744 -1241 728 -1241 
Q 697 -1241 665 -1212 
Q 634 -1184 634 -1153 
z
" transform="scale(0.015625)"/>
      <path id="Cmr10-31" d="M 594 0 
L 594 225 
Q 1394 225 1394 428 
L 1394 3788 
Q 1063 3628 556 3628 
L 556 3853 
Q 1341 3853 1741 4263 
L 1831 4263 
Q 1853 4263 1873 4245 
Q 1894 4228 1894 4206 
L 1894 428 
Q 1894 225 2694 225 
L 2694 0 
L 594 0 
z
" transform="scale(0.015625)"/>
      <path id="Cmr10-5d" d="M 141 -1600 
L 141 -1344 
L 763 -1344 
L 763 4544 
L 141 4544 
L 141 4800 
L 1019 4800 
L 1019 -1600 
L 141 -1600 
z
" transform="scale(0.015625)"/>
      <path id="Cmsy10-21" d="M 481 1472 
Q 428 1472 393 1512 
Q 359 1553 359 1600 
Q 359 1647 393 1687 
Q 428 1728 481 1728 
L 5338 1728 
Q 5094 1903 4906 2133 
Q 4719 2363 4594 2627 
Q 4469 2891 4416 3188 
Q 4416 3272 4481 3272 
L 4609 3272 
Q 4631 3272 4648 3253 
Q 4666 3234 4672 3213 
Q 4725 2938 4839 2702 
Q 4953 2466 5125 2262 
Q 5297 2059 5509 1912 
Q 5722 1766 5991 1672 
Q 6034 1644 6034 1600 
Q 6034 1550 5991 1538 
Q 5656 1422 5378 1192 
Q 5100 963 4919 652 
Q 4738 341 4672 -13 
Q 4666 -34 4647 -53 
Q 4628 -72 4609 -72 
L 4481 -72 
Q 4416 -72 4416 13 
Q 4497 450 4740 836 
Q 4984 1222 5338 1472 
L 481 1472 
z
" transform="scale(0.015625)"/>
      <path id="Cmr10-28" d="M 1984 -1588 
Q 1628 -1306 1370 -942 
Q 1113 -578 948 -165 
Q 784 247 703 697 
Q 622 1147 622 1600 
Q 622 2059 703 2509 
Q 784 2959 951 3375 
Q 1119 3791 1378 4153 
Q 1638 4516 1984 4788 
Q 1984 4800 2016 4800 
L 2075 4800 
Q 2094 4800 2109 4783 
Q 2125 4766 2125 4744 
Q 2125 4716 2113 4703 
Q 1800 4397 1592 4047 
Q 1384 3697 1257 3301 
Q 1131 2906 1075 2482 
Q 1019 2059 1019 1600 
Q 1019 -434 2106 -1491 
Q 2125 -1509 2125 -1544 
Q 2125 -1559 2108 -1579 
Q 2091 -1600 2075 -1600 
L 2016 -1600 
Q 1984 -1600 1984 -1588 
z
" transform="scale(0.015625)"/>
      <path id="Cmsy10-31" d="M 1575 -72 
Q 1213 -72 933 140 
Q 653 353 506 690 
Q 359 1028 359 1381 
Q 359 1653 445 1912 
Q 531 2172 693 2378 
Q 856 2584 1086 2706 
Q 1316 2828 1594 2828 
Q 1881 2828 2150 2718 
Q 2419 2609 2642 2428 
Q 2866 2247 3059 2009 
L 3250 1753 
Q 3441 2056 3672 2295 
Q 3903 2534 4195 2681 
Q 4488 2828 4819 2828 
Q 5097 2828 5325 2704 
Q 5553 2581 5712 2368 
Q 5872 2156 5953 1898 
Q 6034 1641 6034 1381 
Q 6034 1019 5882 683 
Q 5731 347 5451 137 
Q 5172 -72 4800 -72 
Q 4381 -72 4004 153 
Q 3628 378 3334 750 
L 3144 1006 
Q 2850 528 2451 228 
Q 2053 -72 1575 -72 
z
M 1509 153 
Q 2322 153 2963 1241 
L 2625 1672 
Q 2331 2059 2078 2278 
Q 1825 2497 1491 2497 
Q 1206 2497 986 2336 
Q 766 2175 645 1915 
Q 525 1656 525 1375 
Q 525 1159 592 942 
Q 659 725 787 547 
Q 916 369 1098 261 
Q 1281 153 1509 153 
z
M 3769 1088 
Q 4063 700 4316 481 
Q 4569 263 4903 263 
Q 5116 263 5294 356 
Q 5472 450 5601 609 
Q 5731 769 5800 969 
Q 5869 1169 5869 1381 
Q 5869 1678 5750 1961 
Q 5631 2244 5407 2425 
Q 5184 2606 4884 2606 
Q 4072 2606 3431 1516 
L 3769 1088 
z
" transform="scale(0.015625)"/>
      <path id="Cmr10-29" d="M 416 -1600 
Q 359 -1600 359 -1544 
Q 359 -1516 372 -1503 
Q 1466 -434 1466 1600 
Q 1466 3634 384 4691 
Q 359 4706 359 4744 
Q 359 4766 376 4783 
Q 394 4800 416 4800 
L 475 4800 
Q 494 4800 506 4788 
Q 966 4425 1272 3906 
Q 1578 3388 1720 2800 
Q 1863 2213 1863 1600 
Q 1863 1147 1786 708 
Q 1709 269 1542 -157 
Q 1375 -584 1119 -945 
Q 863 -1306 506 -1588 
Q 494 -1600 475 -1600 
L 416 -1600 
z
" transform="scale(0.015625)"/>
      <path id="DejaVuSerif-68" d="M 263 0 
L 263 331 
L 781 331 
L 781 4531 
L 231 4531 
L 231 4863 
L 1356 4863 
L 1356 2731 
Q 1516 3069 1770 3241 
Q 2025 3413 2363 3413 
Q 2913 3413 3172 3097 
Q 3431 2781 3431 2113 
L 3431 331 
L 3944 331 
L 3944 0 
L 2356 0 
L 2356 331 
L 2853 331 
L 2853 1931 
Q 2853 2541 2704 2764 
Q 2556 2988 2175 2988 
Q 1775 2988 1565 2697 
Q 1356 2406 1356 1850 
L 1356 331 
L 1856 331 
L 1856 0 
L 263 0 
z
" transform="scale(0.015625)"/>
     </defs>
     <use xlink:href="#DejaVuSerif-4c" transform="translate(0 0.015625)"/>
     <use xlink:href="#DejaVuSerif-65" transform="translate(66.40625 0.015625)"/>
     <use xlink:href="#DejaVuSerif-74" transform="translate(125.585938 0.015625)"/>
     <use xlink:href="#DejaVuSerif-20" transform="translate(165.771484 0.015625)"/>
     <use xlink:href="#Cmmi10-ae" transform="translate(197.558594 0.015625)"/>
     <use xlink:href="#DejaVuSerif-20" transform="translate(261.474609 0.015625)"/>
     <use xlink:href="#DejaVuSerif-62" transform="translate(293.261719 0.015625)"/>
     <use xlink:href="#DejaVuSerif-65" transform="translate(357.275391 0.015625)"/>
     <use xlink:href="#DejaVuSerif-20" transform="translate(416.455078 0.015625)"/>
     <use xlink:href="#DejaVuSerif-61" transform="translate(448.242188 0.015625)"/>
     <use xlink:href="#DejaVuSerif-20" transform="translate(507.861328 0.015625)"/>
     <use xlink:href="#DejaVuSerif-72" transform="translate(539.648438 0.015625)"/>
     <use xlink:href="#DejaVuSerif-65" transform="translate(587.451172 0.015625)"/>
     <use xlink:href="#DejaVuSerif-61" transform="translate(646.630859 0.015625)"/>
     <use xlink:href="#DejaVuSerif-6c" transform="translate(706.25 0.015625)"/>
     <use xlink:href="#DejaVuSerif-20" transform="translate(738.232422 0.015625)"/>
     <use xlink:href="#DejaVuSerif-6e" transform="translate(770.019531 0.015625)"/>
     <use xlink:href="#DejaVuSerif-75" transform="translate(834.423828 0.015625)"/>
     <use xlink:href="#DejaVuSerif-6d" transform="translate(898.828125 0.015625)"/>
     <use xlink:href="#DejaVuSerif-62" transform="translate(993.652344 0.015625)"/>
     <use xlink:href="#DejaVuSerif-65" transform="translate(1057.666016 0.015625)"/>
     <use xlink:href="#DejaVuSerif-72" transform="translate(1116.845703 0.015625)"/>
     <use xlink:href="#DejaVuSerif-2e" transform="translate(1164.648438 0.015625)"/>
     <use xlink:href="#DejaVuSerif-20" transform="translate(1196.435547 0.015625)"/>
     <use xlink:href="#DejaVuSerif-46" transform="translate(1228.222656 0.015625)"/>
     <use xlink:href="#DejaVuSerif-69" transform="translate(1297.607422 0.015625)"/>
     <use xlink:href="#DejaVuSerif-6e" transform="translate(1329.589844 0.015625)"/>
     <use xlink:href="#DejaVuSerif-64" transform="translate(1393.994141 0.015625)"/>
     <use xlink:href="#DejaVuSerif-20" transform="translate(1458.007812 0.015625)"/>
     <use xlink:href="#DejaVuSerif-61" transform="translate(1489.794922 0.015625)"/>
     <use xlink:href="#DejaVuSerif-6c" transform="translate(1549.414062 0.015625)"/>
     <use xlink:href="#DejaVuSerif-6c" transform="translate(1581.396484 0.015625)"/>
     <use xlink:href="#DejaVuSerif-20" transform="translate(1613.378906 0.015625)"/>
     <use xlink:href="#DejaVuSerif-63" transform="translate(1645.166016 0.015625)"/>
     <use xlink:href="#DejaVuSerif-6f" transform="translate(1701.171875 0.015625)"/>
     <use xlink:href="#DejaVuSerif-6e" transform="translate(1761.376953 0.015625)"/>
     <use xlink:href="#DejaVuSerif-74" transform="translate(1825.78125 0.015625)"/>
     <use xlink:href="#DejaVuSerif-69" transform="translate(1865.966797 0.015625)"/>
     <use xlink:href="#DejaVuSerif-6e" transform="translate(1897.949219 0.015625)"/>
     <use xlink:href="#DejaVuSerif-75" transform="translate(1962.353516 0.015625)"/>
     <use xlink:href="#DejaVuSerif-6f" transform="translate(2026.757812 0.015625)"/>
     <use xlink:href="#DejaVuSerif-75" transform="translate(2086.962891 0.015625)"/>
     <use xlink:href="#DejaVuSerif-73" transform="translate(2151.367188 0.015625)"/>
     <use xlink:href="#DejaVuSerif-20" transform="translate(2202.685547 0.015625)"/>
     <use xlink:href="#DejaVuSerif-72" transform="translate(2234.472656 0.015625)"/>
     <use xlink:href="#DejaVuSerif-65" transform="translate(2282.275391 0.015625)"/>
     <use xlink:href="#DejaVuSerif-61" transform="translate(2341.455078 0.015625)"/>
     <use xlink:href="#DejaVuSerif-6c" transform="translate(2401.074219 0.015625)"/>
     <use xlink:href="#DejaVuSerif-2d" transform="translate(2433.056641 0.015625)"/>
     <use xlink:href="#DejaVuSerif-76" transform="translate(2466.845703 0.015625)"/>
     <use xlink:href="#DejaVuSerif-61" transform="translate(2523.339844 0.015625)"/>
     <use xlink:href="#DejaVuSerif-6c" transform="translate(2582.958984 0.015625)"/>
     <use xlink:href="#DejaVuSerif-75" transform="translate(2614.941406 0.015625)"/>
     <use xlink:href="#DejaVuSerif-65" transform="translate(2679.345703 0.015625)"/>
     <use xlink:href="#DejaVuSerif-64" transform="translate(2738.525391 0.015625)"/>
     <use xlink:href="#DejaVuSerif-20" transform="translate(2802.539062 0.015625)"/>
     <use xlink:href="#DejaVuSerif-66" transform="translate(2834.326172 0.015625)"/>
     <use xlink:href="#DejaVuSerif-75" transform="translate(2871.337891 0.015625)"/>
     <use xlink:href="#DejaVuSerif-6e" transform="translate(2935.742188 0.015625)"/>
     <use xlink:href="#DejaVuSerif-63" transform="translate(3000.146484 0.015625)"/>
     <use xlink:href="#DejaVuSerif-74" transform="translate(3056.152344 0.015625)"/>
     <use xlink:href="#DejaVuSerif-69" transform="translate(3096.337891 0.015625)"/>
     <use xlink:href="#DejaVuSerif-6f" transform="translate(3128.320312 0.015625)"/>
     <use xlink:href="#DejaVuSerif-6e" transform="translate(3188.525391 0.015625)"/>
     <use xlink:href="#DejaVuSerif-73" transform="translate(3252.929688 0.015625)"/>
     <use xlink:href="#DejaVuSerif-20" transform="translate(3304.248047 0.015625)"/>
     <use xlink:href="#Cmmi10-66" transform="translate(3336.035156 0.015625)"/>
     <use xlink:href="#Cmr10-3a" transform="translate(3402.470703 0.015625)"/>
     <use xlink:href="#Cmr10-5b" transform="translate(3447.714844 0.015625)"/>
     <use xlink:href="#Cmr10-30" transform="translate(3475.400391 0.015625)"/>
     <use xlink:href="#Cmmi10-3b" transform="translate(3525.400391 0.015625)"/>
     <use xlink:href="#Cmr10-31" transform="translate(3570.644531 0.015625)"/>
     <use xlink:href="#Cmr10-5d" transform="translate(3620.644531 0.015625)"/>
     <use xlink:href="#Cmsy10-21" transform="translate(3665.888672 0.015625)"/>
     <use xlink:href="#Cmr10-28" transform="translate(3783.447266 0.015625)"/>
     <use xlink:href="#Cmr10-30" transform="translate(3822.265625 0.015625)"/>
     <use xlink:href="#Cmmi10-3b" transform="translate(3872.265625 0.015625)"/>
     <use xlink:href="#Cmsy10-31" transform="translate(3917.509766 0.015625)"/>
     <use xlink:href="#Cmr10-29" transform="translate(4017.509766 0.015625)"/>
     <use xlink:href="#DejaVuSerif-20" transform="translate(4056.328125 0.015625)"/>
     <use xlink:href="#DejaVuSerif-73" transform="translate(4088.115234 0.015625)"/>
     <use xlink:href="#DejaVuSerif-75" transform="translate(4139.433594 0.015625)"/>
     <use xlink:href="#DejaVuSerif-63" transform="translate(4203.837891 0.015625)"/>
     <use xlink:href="#DejaVuSerif-68" transform="translate(4259.84375 0.015625)"/>
     <use xlink:href="#DejaVuSerif-20" transform="translate(4324.248047 0.015625)"/>
     <use xlink:href="#DejaVuSerif-74" transform="translate(4356.035156 0.015625)"/>
     <use xlink:href="#DejaVuSerif-68" transform="translate(4396.220703 0.015625)"/>
     <use xlink:href="#DejaVuSerif-61" transform="translate(4460.625 0.015625)"/>
     <use xlink:href="#DejaVuSerif-74" transform="translate(4520.244141 0.015625)"/>
    </g>
    <!-- \begin{align*} -->
    <g transform="translate(236.06625 96.937063) scale(0.12 -0.12)">
     <defs>
      <path id="DejaVuSerif-5c" d="M 500 4666 
L 2156 -594 
L 1656 -594 
L 0 4666 
L 500 4666 
z
" transform="scale(0.015625)"/>
      <path id="DejaVuSerif-67" d="M 3359 2988 
L 3359 72 
Q 3359 -644 2965 -1033 
Q 2572 -1422 1844 -1422 
Q 1516 -1422 1216 -1362 
Q 916 -1303 641 -1184 
L 641 -488 
L 941 -488 
Q 997 -813 1206 -963 
Q 1416 -1113 1806 -1113 
Q 2313 -1113 2548 -827 
Q 2784 -541 2784 72 
L 2784 519 
Q 2616 206 2355 57 
Q 2094 -91 1709 -91 
Q 1097 -91 708 395 
Q 319 881 319 1663 
Q 319 2444 706 2928 
Q 1094 3413 1709 3413 
Q 2094 3413 2355 3264 
Q 2616 3116 2784 2803 
L 2784 3322 
L 3909 3322 
L 3909 2988 
L 3359 2988 
z
M 2784 1825 
Q 2784 2422 2554 2737 
Q 2325 3053 1888 3053 
Q 1444 3053 1217 2703 
Q 991 2353 991 1663 
Q 991 975 1217 622 
Q 1444 269 1888 269 
Q 2325 269 2554 583 
Q 2784 897 2784 1497 
L 2784 1825 
z
" transform="scale(0.015625)"/>
      <path id="DejaVuSerif-7b" d="M 3272 -716 
L 3272 -1044 
L 3078 -1044 
Q 2300 -1044 2036 -812 
Q 1772 -581 1772 109 
L 1772 916 
Q 1772 1384 1603 1565 
Q 1434 1747 991 1747 
L 800 1747 
L 800 2075 
L 991 2075 
Q 1434 2075 1603 2256 
Q 1772 2438 1772 2906 
L 1772 3713 
Q 1772 4403 2036 4633 
Q 2300 4863 3078 4863 
L 3272 4863 
L 3272 4538 
L 3059 4538 
Q 2619 4538 2484 4400 
Q 2350 4263 2350 3822 
L 2350 2925 
Q 2350 2431 2194 2218 
Q 2038 2006 1631 1913 
Q 2044 1806 2197 1597 
Q 2350 1388 2350 897 
L 2350 0 
Q 2350 -441 2484 -578 
Q 2619 -716 3059 -716 
L 3272 -716 
z
" transform="scale(0.015625)"/>
      <path id="DejaVuSerif-2a" d="M 3097 3866 
L 1875 3297 
L 3097 2719 
L 2859 2350 
L 1772 3028 
L 1813 1838 
L 1388 1838 
L 1428 3028 
L 341 2350 
L 103 2719 
L 1325 3291 
L 103 3866 
L 341 4238 
L 1428 3559 
L 1388 4750 
L 1813 4750 
L 1772 3559 
L 2859 4238 
L 3097 3866 
z
" transform="scale(0.015625)"/>
      <path id="DejaVuSerif-7d" d="M 800 -716 
L 1019 -716 
Q 1456 -716 1589 -580 
Q 1722 -444 1722 0 
L 1722 897 
Q 1722 1388 1875 1597 
Q 2028 1806 2438 1913 
Q 2031 2006 1876 2218 
Q 1722 2431 1722 2925 
L 1722 3822 
Q 1722 4266 1589 4402 
Q 1456 4538 1019 4538 
L 800 4538 
L 800 4863 
L 997 4863 
Q 1775 4863 2036 4633 
Q 2297 4403 2297 3713 
L 2297 2906 
Q 2297 2438 2465 2256 
Q 2634 2075 3078 2075 
L 3272 2075 
L 3272 1747 
L 3078 1747 
Q 2634 1747 2465 1565 
Q 2297 1384 2297 916 
L 2297 109 
Q 2297 -581 2036 -812 
Q 1775 -1044 997 -1044 
L 800 -1044 
L 800 -716 
z
" transform="scale(0.015625)"/>
     </defs>
     <use xlink:href="#DejaVuSerif-5c"/>
     <use xlink:href="#DejaVuSerif-62" transform="translate(33.691406 0)"/>
     <use xlink:href="#DejaVuSerif-65" transform="translate(97.705078 0)"/>
     <use xlink:href="#DejaVuSerif-67" transform="translate(156.884766 0)"/>
     <use xlink:href="#DejaVuSerif-69" transform="translate(220.898438 0)"/>
     <use xlink:href="#DejaVuSerif-6e" transform="translate(252.880859 0)"/>
     <use xlink:href="#DejaVuSerif-7b" transform="translate(317.285156 0)"/>
     <use xlink:href="#DejaVuSerif-61" transform="translate(380.908203 0)"/>
     <use xlink:href="#DejaVuSerif-6c" transform="translate(440.527344 0)"/>
     <use xlink:href="#DejaVuSerif-69" transform="translate(472.509766 0)"/>
     <use xlink:href="#DejaVuSerif-67" transform="translate(504.492188 0)"/>
     <use xlink:href="#DejaVuSerif-6e" transform="translate(568.505859 0)"/>
     <use xlink:href="#DejaVuSerif-2a" transform="translate(632.910156 0)"/>
     <use xlink:href="#DejaVuSerif-7d" transform="translate(682.910156 0)"/>
    </g>
    <!-- \int_0^1 f(x) dx &amp;= 1, \\ -->
    <g transform="translate(207.800625 110.545063) scale(0.12 -0.12)">
     <defs>
      <path id="DejaVuSerif-5f" d="M 3200 -1259 
L 3200 -1509 
L 0 -1509 
L 0 -1259 
L 3200 -1259 
z
" transform="scale(0.015625)"/>
      <path id="DejaVuSerif-30" d="M 2034 219 
Q 2513 219 2750 744 
Q 2988 1269 2988 2328 
Q 2988 3391 2750 3916 
Q 2513 4441 2034 4441 
Q 1556 4441 1318 3916 
Q 1081 3391 1081 2328 
Q 1081 1269 1318 744 
Q 1556 219 2034 219 
z
M 2034 -91 
Q 1275 -91 848 546 
Q 422 1184 422 2328 
Q 422 3475 848 4112 
Q 1275 4750 2034 4750 
Q 2797 4750 3222 4112 
Q 3647 3475 3647 2328 
Q 3647 1184 3222 546 
Q 2797 -91 2034 -91 
z
" transform="scale(0.015625)"/>
      <path id="DejaVuSerif-5e" d="M 2988 4666 
L 4684 2925 
L 4206 2925 
L 2681 4116 
L 1159 2925 
L 678 2925 
L 2375 4666 
L 2988 4666 
z
" transform="scale(0.015625)"/>
      <path id="DejaVuSerif-31" d="M 909 0 
L 909 331 
L 1722 331 
L 1722 4213 
L 781 3603 
L 781 4013 
L 1919 4750 
L 2350 4750 
L 2350 331 
L 3163 331 
L 3163 0 
L 909 0 
z
" transform="scale(0.015625)"/>
      <path id="DejaVuSerif-28" d="M 2041 -997 
Q 1281 -656 893 83 
Q 506 822 506 1931 
Q 506 3044 893 3783 
Q 1281 4522 2041 4863 
L 2041 4556 
Q 1559 4225 1350 3623 
Q 1141 3022 1141 1931 
Q 1141 844 1350 242 
Q 1559 -359 2041 -691 
L 2041 -997 
z
" transform="scale(0.015625)"/>
      <path id="DejaVuSerif-78" d="M 1863 2028 
L 2559 2988 
L 2113 2988 
L 2113 3322 
L 3391 3322 
L 3391 2988 
L 2950 2988 
L 2059 1759 
L 3097 331 
L 3531 331 
L 3531 0 
L 1997 0 
L 1997 331 
L 2419 331 
L 1697 1325 
L 972 331 
L 1403 331 
L 1403 0 
L 141 0 
L 141 331 
L 581 331 
L 1497 1594 
L 488 2988 
L 78 2988 
L 78 3322 
L 1563 3322 
L 1563 2988 
L 1166 2988 
L 1863 2028 
z
" transform="scale(0.015625)"/>
      <path id="DejaVuSerif-29" d="M 453 -997 
L 453 -691 
Q 934 -359 1145 242 
Q 1356 844 1356 1931 
Q 1356 3022 1145 3623 
Q 934 4225 453 4556 
L 453 4863 
Q 1216 4522 1603 3783 
Q 1991 3044 1991 1931 
Q 1991 822 1603 83 
Q 1216 -656 453 -997 
z
" transform="scale(0.015625)"/>
      <path id="DejaVuSerif-26" d="M 3456 722 
L 1638 2638 
Q 1366 2394 1230 2111 
Q 1094 1828 1094 1509 
Q 1094 991 1453 639 
Q 1813 288 2350 288 
Q 2669 288 2951 398 
Q 3234 509 3456 722 
z
M 5394 0 
L 4141 0 
L 3713 453 
Q 3384 178 3012 43 
Q 2641 -91 2209 -91 
Q 1403 -91 931 321 
Q 459 734 459 1441 
Q 459 1856 698 2217 
Q 938 2578 1422 2894 
Q 1263 3084 1188 3273 
Q 1113 3463 1113 3669 
Q 1113 4166 1470 4458 
Q 1828 4750 2444 4750 
Q 2653 4750 2933 4697 
Q 3213 4644 3572 4538 
L 3572 3731 
L 3219 3731 
Q 3175 4066 2975 4241 
Q 2775 4416 2431 4416 
Q 2109 4416 1909 4239 
Q 1709 4063 1709 3781 
Q 1709 3591 1815 3402 
Q 1922 3213 2259 2859 
L 3872 1159 
Q 4088 1409 4211 1698 
Q 4334 1988 4366 2316 
L 3803 2316 
L 3803 2650 
L 5281 2650 
L 5281 2316 
L 4744 2316 
Q 4691 1909 4536 1556 
Q 4381 1203 4122 903 
L 4659 331 
L 5394 331 
L 5394 0 
z
" transform="scale(0.015625)"/>
      <path id="DejaVuSerif-3d" d="M 678 2894 
L 4684 2894 
L 4684 2394 
L 678 2394 
L 678 2894 
z
M 678 1619 
L 4684 1619 
L 4684 1119 
L 678 1119 
L 678 1619 
z
" transform="scale(0.015625)"/>
      <path id="DejaVuSerif-2c" d="M 231 -622 
Q 525 -406 662 -114 
Q 800 178 800 594 
L 800 709 
L 1416 709 
Q 1391 175 1164 -208 
Q 938 -591 481 -872 
L 231 -622 
z
" transform="scale(0.015625)"/>
     </defs>
     <use xlink:href="#DejaVuSerif-5c"/>
     <use xlink:href="#DejaVuSerif-69" transform="translate(33.691406 0)"/>
     <use xlink:href="#DejaVuSerif-6e" transform="translate(65.673828 0)"/>
     <use xlink:href="#DejaVuSerif-74" transform="translate(130.078125 0)"/>
     <use xlink:href="#DejaVuSerif-5f" transform="translate(170.263672 0)"/>
     <use xlink:href="#DejaVuSerif-30" transform="translate(220.263672 0)"/>
     <use xlink:href="#DejaVuSerif-5e" transform="translate(283.886719 0)"/>
     <use xlink:href="#DejaVuSerif-31" transform="translate(367.675781 0)"/>
     <use xlink:href="#DejaVuSerif-20" transform="translate(431.298828 0)"/>
     <use xlink:href="#DejaVuSerif-66" transform="translate(463.085938 0)"/>
     <use xlink:href="#DejaVuSerif-28" transform="translate(500.097656 0)"/>
     <use xlink:href="#DejaVuSerif-78" transform="translate(539.111328 0)"/>
     <use xlink:href="#DejaVuSerif-29" transform="translate(595.507812 0)"/>
     <use xlink:href="#DejaVuSerif-20" transform="translate(634.521484 0)"/>
     <use xlink:href="#DejaVuSerif-64" transform="translate(666.308594 0)"/>
     <use xlink:href="#DejaVuSerif-78" transform="translate(730.322266 0)"/>
     <use xlink:href="#DejaVuSerif-20" transform="translate(786.71875 0)"/>
     <use xlink:href="#DejaVuSerif-26" transform="translate(818.505859 0)"/>
     <use xlink:href="#DejaVuSerif-3d" transform="translate(907.519531 0)"/>
     <use xlink:href="#DejaVuSerif-20" transform="translate(991.308594 0)"/>
     <use xlink:href="#DejaVuSerif-31" transform="translate(1023.095703 0)"/>
     <use xlink:href="#DejaVuSerif-2c" transform="translate(1086.71875 0)"/>
     <use xlink:href="#DejaVuSerif-20" transform="translate(1118.505859 0)"/>
     <use xlink:href="#DejaVuSerif-5c" transform="translate(1150.292969 0)"/>
     <use xlink:href="#DejaVuSerif-5c" transform="translate(1183.984375 0)"/>
    </g>
    <!-- \int_0^1 x f(x) dx &amp;= \alpha, \\ -->
    <g transform="translate(187.527188 124.316188) scale(0.12 -0.12)">
     <defs>
      <path id="DejaVuSerif-70" d="M 1313 1825 
L 1313 1497 
Q 1313 897 1542 583 
Q 1772 269 2209 269 
Q 2650 269 2876 622 
Q 3103 975 3103 1663 
Q 3103 2353 2876 2703 
Q 2650 3053 2209 3053 
Q 1772 3053 1542 2737 
Q 1313 2422 1313 1825 
z
M 738 2988 
L 184 2988 
L 184 3322 
L 1313 3322 
L 1313 2803 
Q 1481 3116 1742 3264 
Q 2003 3413 2388 3413 
Q 3000 3413 3387 2928 
Q 3775 2444 3775 1663 
Q 3775 881 3387 395 
Q 3000 -91 2388 -91 
Q 2003 -91 1742 57 
Q 1481 206 1313 519 
L 1313 -997 
L 1856 -997 
L 1856 -1331 
L 184 -1331 
L 184 -997 
L 738 -997 
L 738 2988 
z
" transform="scale(0.015625)"/>
     </defs>
     <use xlink:href="#DejaVuSerif-5c"/>
     <use xlink:href="#DejaVuSerif-69" transform="translate(33.691406 0)"/>
     <use xlink:href="#DejaVuSerif-6e" transform="translate(65.673828 0)"/>
     <use xlink:href="#DejaVuSerif-74" transform="translate(130.078125 0)"/>
     <use xlink:href="#DejaVuSerif-5f" transform="translate(170.263672 0)"/>
     <use xlink:href="#DejaVuSerif-30" transform="translate(220.263672 0)"/>
     <use xlink:href="#DejaVuSerif-5e" transform="translate(283.886719 0)"/>
     <use xlink:href="#DejaVuSerif-31" transform="translate(367.675781 0)"/>
     <use xlink:href="#DejaVuSerif-20" transform="translate(431.298828 0)"/>
     <use xlink:href="#DejaVuSerif-78" transform="translate(463.085938 0)"/>
     <use xlink:href="#DejaVuSerif-20" transform="translate(519.482422 0)"/>
     <use xlink:href="#DejaVuSerif-66" transform="translate(551.269531 0)"/>
     <use xlink:href="#DejaVuSerif-28" transform="translate(588.28125 0)"/>
     <use xlink:href="#DejaVuSerif-78" transform="translate(627.294922 0)"/>
     <use xlink:href="#DejaVuSerif-29" transform="translate(683.691406 0)"/>
     <use xlink:href="#DejaVuSerif-20" transform="translate(722.705078 0)"/>
     <use xlink:href="#DejaVuSerif-64" transform="translate(754.492188 0)"/>
     <use xlink:href="#DejaVuSerif-78" transform="translate(818.505859 0)"/>
     <use xlink:href="#DejaVuSerif-20" transform="translate(874.902344 0)"/>
     <use xlink:href="#DejaVuSerif-26" transform="translate(906.689453 0)"/>
     <use xlink:href="#DejaVuSerif-3d" transform="translate(995.703125 0)"/>
     <use xlink:href="#DejaVuSerif-20" transform="translate(1079.492188 0)"/>
     <use xlink:href="#DejaVuSerif-5c" transform="translate(1111.279297 0)"/>
     <use xlink:href="#DejaVuSerif-61" transform="translate(1144.970703 0)"/>
     <use xlink:href="#DejaVuSerif-6c" transform="translate(1204.589844 0)"/>
     <use xlink:href="#DejaVuSerif-70" transform="translate(1236.572266 0)"/>
     <use xlink:href="#DejaVuSerif-68" transform="translate(1300.585938 0)"/>
     <use xlink:href="#DejaVuSerif-61" transform="translate(1364.990234 0)"/>
     <use xlink:href="#DejaVuSerif-2c" transform="translate(1424.609375 0)"/>
     <use xlink:href="#DejaVuSerif-20" transform="translate(1456.396484 0)"/>
     <use xlink:href="#DejaVuSerif-5c" transform="translate(1488.183594 0)"/>
     <use xlink:href="#DejaVuSerif-5c" transform="translate(1521.875 0)"/>
    </g>
    <!-- \int_0^1 x^2 f(x) dx &amp;= \alpha^2. \\ -->
    <g transform="translate(169.836563 138.087313) scale(0.12 -0.12)">
     <defs>
      <path id="DejaVuSerif-32" d="M 819 3553 
L 469 3553 
L 469 4384 
Q 803 4563 1142 4656 
Q 1481 4750 1806 4750 
Q 2534 4750 2956 4397 
Q 3378 4044 3378 3438 
Q 3378 2753 2422 1800 
Q 2347 1728 2309 1691 
L 1131 513 
L 3078 513 
L 3078 1088 
L 3444 1088 
L 3444 0 
L 434 0 
L 434 341 
L 1850 1753 
Q 2319 2222 2519 2614 
Q 2719 3006 2719 3438 
Q 2719 3909 2473 4175 
Q 2228 4441 1797 4441 
Q 1350 4441 1106 4219 
Q 863 3997 819 3553 
z
" transform="scale(0.015625)"/>
     </defs>
     <use xlink:href="#DejaVuSerif-5c"/>
     <use xlink:href="#DejaVuSerif-69" transform="translate(33.691406 0)"/>
     <use xlink:href="#DejaVuSerif-6e" transform="translate(65.673828 0)"/>
     <use xlink:href="#DejaVuSerif-74" transform="translate(130.078125 0)"/>
     <use xlink:href="#DejaVuSerif-5f" transform="translate(170.263672 0)"/>
     <use xlink:href="#DejaVuSerif-30" transform="translate(220.263672 0)"/>
     <use xlink:href="#DejaVuSerif-5e" transform="translate(283.886719 0)"/>
     <use xlink:href="#DejaVuSerif-31" transform="translate(367.675781 0)"/>
     <use xlink:href="#DejaVuSerif-20" transform="translate(431.298828 0)"/>
     <use xlink:href="#DejaVuSerif-78" transform="translate(463.085938 0)"/>
     <use xlink:href="#DejaVuSerif-5e" transform="translate(519.482422 0)"/>
     <use xlink:href="#DejaVuSerif-32" transform="translate(603.271484 0)"/>
     <use xlink:href="#DejaVuSerif-20" transform="translate(666.894531 0)"/>
     <use xlink:href="#DejaVuSerif-66" transform="translate(698.681641 0)"/>
     <use xlink:href="#DejaVuSerif-28" transform="translate(735.693359 0)"/>
     <use xlink:href="#DejaVuSerif-78" transform="translate(774.707031 0)"/>
     <use xlink:href="#DejaVuSerif-29" transform="translate(831.103516 0)"/>
     <use xlink:href="#DejaVuSerif-20" transform="translate(870.117188 0)"/>
     <use xlink:href="#DejaVuSerif-64" transform="translate(901.904297 0)"/>
     <use xlink:href="#DejaVuSerif-78" transform="translate(965.917969 0)"/>
     <use xlink:href="#DejaVuSerif-20" transform="translate(1022.314453 0)"/>
     <use xlink:href="#DejaVuSerif-26" transform="translate(1054.101562 0)"/>
     <use xlink:href="#DejaVuSerif-3d" transform="translate(1143.115234 0)"/>
     <use xlink:href="#DejaVuSerif-20" transform="translate(1226.904297 0)"/>
     <use xlink:href="#DejaVuSerif-5c" transform="translate(1258.691406 0)"/>
     <use xlink:href="#DejaVuSerif-61" transform="translate(1292.382812 0)"/>
     <use xlink:href="#DejaVuSerif-6c" transform="translate(1352.001953 0)"/>
     <use xlink:href="#DejaVuSerif-70" transform="translate(1383.984375 0)"/>
     <use xlink:href="#DejaVuSerif-68" transform="translate(1447.998047 0)"/>
     <use xlink:href="#DejaVuSerif-61" transform="translate(1512.402344 0)"/>
     <use xlink:href="#DejaVuSerif-5e" transform="translate(1572.021484 0)"/>
     <use xlink:href="#DejaVuSerif-32" transform="translate(1655.810547 0)"/>
     <use xlink:href="#DejaVuSerif-2e" transform="translate(1719.433594 0)"/>
     <use xlink:href="#DejaVuSerif-20" transform="translate(1751.220703 0)"/>
     <use xlink:href="#DejaVuSerif-5c" transform="translate(1783.007812 0)"/>
     <use xlink:href="#DejaVuSerif-5c" transform="translate(1816.699219 0)"/>
    </g>
    <!-- \end{align*} -->
    <g transform="translate(241.82625 151.858438) scale(0.12 -0.12)">
     <use xlink:href="#DejaVuSerif-5c"/>
     <use xlink:href="#DejaVuSerif-65" transform="translate(33.691406 0)"/>
     <use xlink:href="#DejaVuSerif-6e" transform="translate(92.871094 0)"/>
     <use xlink:href="#DejaVuSerif-64" transform="translate(157.275391 0)"/>
     <use xlink:href="#DejaVuSerif-7b" transform="translate(221.289062 0)"/>
     <use xlink:href="#DejaVuSerif-61" transform="translate(284.912109 0)"/>
     <use xlink:href="#DejaVuSerif-6c" transform="translate(344.53125 0)"/>
     <use xlink:href="#DejaVuSerif-69" transform="translate(376.513672 0)"/>
     <use xlink:href="#DejaVuSerif-67" transform="translate(408.496094 0)"/>
     <use xlink:href="#DejaVuSerif-6e" transform="translate(472.509766 0)"/>
     <use xlink:href="#DejaVuSerif-2a" transform="translate(536.914062 0)"/>
     <use xlink:href="#DejaVuSerif-7d" transform="translate(586.914062 0)"/>
    </g>
   </g>
  </g>
 </g>
</svg>
