<?xml version="1.0" encoding="utf-8" standalone="no"?>
<!DOCTYPE svg PUBLIC "-//W3C//DTD SVG 1.1//EN"
  "http://www.w3.org/Graphics/SVG/1.1/DTD/svg11.dtd">
<svg xmlns:xlink="http://www.w3.org/1999/xlink" width="1218.84pt" height="180.72pt" viewBox="0 0 1218.84 180.72" xmlns="http://www.w3.org/2000/svg" version="1.1">
 <metadata>
  <rdf:RDF xmlns:dc="http://purl.org/dc/elements/1.1/" xmlns:cc="http://creativecommons.org/ns#" xmlns:rdf="http://www.w3.org/1999/02/22-rdf-syntax-ns#">
   <cc:Work>
    <dc:type rdf:resource="http://purl.org/dc/dcmitype/StillImage"/>
    <dc:date>2025-05-29T18:44:14.579682</dc:date>
    <dc:format>image/svg+xml</dc:format>
    <dc:creator>
     <cc:Agent>
      <dc:title>Matplotlib v3.10.3, https://matplotlib.org/</dc:title>
     </cc:Agent>
    </dc:creator>
   </cc:Work>
  </rdf:RDF>
 </metadata>
 <defs>
  <style type="text/css">*{stroke-linejoin: round; stroke-linecap: butt}</style>
 </defs>
 <g id="figure_1">
  <g id="patch_1">
   <path d="M 0 180.72 
L 1218.84 180.72 
L 1218.84 0 
L 0 0 
z
" style="fill: #ffffff"/>
  </g>
  <g id="axes_1">
   <g id="text_1">
    <!-- For each real number $x$, let -->
    <g transform="translate(526.08 66.376313) scale(0.12 -0.12)">
     <defs>
      <path id="DejaVuSerif-46" d="M 353 0 
L 353 331 
L 947 331 
L 947 4331 
L 353 4331 
L 353 4666 
L 4172 4666 
L 4172 3628 
L 3788 3628 
L 3788 4281 
L 1581 4281 
L 1581 2719 
L 3175 2719 
L 3175 3303 
L 3559 3303 
L 3559 1753 
L 3175 1753 
L 3175 2338 
L 1581 2338 
L 1581 331 
L 2328 331 
L 2328 0 
L 353 0 
z
" transform="scale(0.015625)"/>
      <path id="DejaVuSerif-6f" d="M 1925 219 
Q 2388 219 2623 584 
Q 2859 950 2859 1663 
Q 2859 2375 2623 2739 
Q 2388 3103 1925 3103 
Q 1463 3103 1227 2739 
Q 991 2375 991 1663 
Q 991 950 1228 584 
Q 1466 219 1925 219 
z
M 1925 -91 
Q 1200 -91 759 389 
Q 319 869 319 1663 
Q 319 2456 758 2934 
Q 1197 3413 1925 3413 
Q 2653 3413 3092 2934 
Q 3531 2456 3531 1663 
Q 3531 869 3092 389 
Q 2653 -91 1925 -91 
z
" transform="scale(0.015625)"/>
      <path id="DejaVuSerif-72" d="M 3059 3328 
L 3059 2497 
L 2728 2497 
Q 2713 2744 2591 2866 
Q 2469 2988 2234 2988 
Q 1809 2988 1582 2694 
Q 1356 2400 1356 1850 
L 1356 331 
L 2022 331 
L 2022 0 
L 263 0 
L 263 331 
L 781 331 
L 781 2994 
L 231 2994 
L 231 3322 
L 1356 3322 
L 1356 2731 
Q 1525 3078 1790 3245 
Q 2056 3413 2438 3413 
Q 2578 3413 2733 3391 
Q 2888 3369 3059 3328 
z
" transform="scale(0.015625)"/>
      <path id="DejaVuSerif-20" transform="scale(0.015625)"/>
      <path id="DejaVuSerif-65" d="M 3469 1600 
L 991 1600 
L 991 1575 
Q 991 903 1244 561 
Q 1497 219 1991 219 
Q 2369 219 2611 417 
Q 2853 616 2950 1006 
L 3413 1006 
Q 3275 459 2904 184 
Q 2534 -91 1931 -91 
Q 1203 -91 761 389 
Q 319 869 319 1663 
Q 319 2450 753 2931 
Q 1188 3413 1894 3413 
Q 2647 3413 3050 2948 
Q 3453 2484 3469 1600 
z
M 2791 1931 
Q 2772 2513 2545 2808 
Q 2319 3103 1894 3103 
Q 1497 3103 1269 2806 
Q 1041 2509 991 1931 
L 2791 1931 
z
" transform="scale(0.015625)"/>
      <path id="DejaVuSerif-61" d="M 2547 1044 
L 2547 1747 
L 1806 1747 
Q 1378 1747 1168 1562 
Q 959 1378 959 997 
Q 959 650 1171 447 
Q 1384 244 1747 244 
Q 2106 244 2326 466 
Q 2547 688 2547 1044 
z
M 3122 2075 
L 3122 331 
L 3634 331 
L 3634 0 
L 2547 0 
L 2547 359 
Q 2356 128 2106 18 
Q 1856 -91 1522 -91 
Q 969 -91 644 203 
Q 319 497 319 997 
Q 319 1513 691 1797 
Q 1063 2081 1741 2081 
L 2547 2081 
L 2547 2309 
Q 2547 2688 2317 2895 
Q 2088 3103 1672 3103 
Q 1328 3103 1125 2947 
Q 922 2791 872 2484 
L 575 2484 
L 575 3156 
Q 875 3284 1158 3348 
Q 1441 3413 1709 3413 
Q 2400 3413 2761 3070 
Q 3122 2728 3122 2075 
z
" transform="scale(0.015625)"/>
      <path id="DejaVuSerif-63" d="M 3291 997 
Q 3169 466 2822 187 
Q 2475 -91 1925 -91 
Q 1200 -91 759 389 
Q 319 869 319 1663 
Q 319 2459 759 2936 
Q 1200 3413 1925 3413 
Q 2241 3413 2553 3339 
Q 2866 3266 3181 3116 
L 3181 2266 
L 2847 2266 
Q 2781 2703 2561 2903 
Q 2341 3103 1931 3103 
Q 1466 3103 1228 2742 
Q 991 2381 991 1663 
Q 991 944 1227 581 
Q 1463 219 1931 219 
Q 2303 219 2525 412 
Q 2747 606 2828 997 
L 3291 997 
z
" transform="scale(0.015625)"/>
      <path id="DejaVuSerif-68" d="M 263 0 
L 263 331 
L 781 331 
L 781 4531 
L 231 4531 
L 231 4863 
L 1356 4863 
L 1356 2731 
Q 1516 3069 1770 3241 
Q 2025 3413 2363 3413 
Q 2913 3413 3172 3097 
Q 3431 2781 3431 2113 
L 3431 331 
L 3944 331 
L 3944 0 
L 2356 0 
L 2356 331 
L 2853 331 
L 2853 1931 
Q 2853 2541 2704 2764 
Q 2556 2988 2175 2988 
Q 1775 2988 1565 2697 
Q 1356 2406 1356 1850 
L 1356 331 
L 1856 331 
L 1856 0 
L 263 0 
z
" transform="scale(0.015625)"/>
      <path id="DejaVuSerif-6c" d="M 1313 331 
L 1856 331 
L 1856 0 
L 184 0 
L 184 331 
L 738 331 
L 738 4531 
L 184 4531 
L 184 4863 
L 1313 4863 
L 1313 331 
z
" transform="scale(0.015625)"/>
      <path id="DejaVuSerif-6e" d="M 263 0 
L 263 331 
L 781 331 
L 781 2988 
L 231 2988 
L 231 3322 
L 1356 3322 
L 1356 2731 
Q 1516 3069 1770 3241 
Q 2025 3413 2363 3413 
Q 2913 3413 3172 3097 
Q 3431 2781 3431 2113 
L 3431 331 
L 3944 331 
L 3944 0 
L 2356 0 
L 2356 331 
L 2853 331 
L 2853 1931 
Q 2853 2541 2703 2767 
Q 2553 2994 2175 2994 
Q 1775 2994 1565 2701 
Q 1356 2409 1356 1850 
L 1356 331 
L 1856 331 
L 1856 0 
L 263 0 
z
" transform="scale(0.015625)"/>
      <path id="DejaVuSerif-75" d="M 2266 3322 
L 3341 3322 
L 3341 331 
L 3884 331 
L 3884 0 
L 2766 0 
L 2766 588 
Q 2606 256 2353 82 
Q 2100 -91 1766 -91 
Q 1213 -91 952 223 
Q 691 538 691 1209 
L 691 2988 
L 172 2988 
L 172 3322 
L 1269 3322 
L 1269 1388 
Q 1269 781 1417 556 
Q 1566 331 1947 331 
Q 2347 331 2556 625 
Q 2766 919 2766 1478 
L 2766 2988 
L 2266 2988 
L 2266 3322 
z
" transform="scale(0.015625)"/>
      <path id="DejaVuSerif-6d" d="M 3316 2675 
Q 3481 3041 3739 3227 
Q 3997 3413 4341 3413 
Q 4863 3413 5119 3089 
Q 5375 2766 5375 2113 
L 5375 331 
L 5894 331 
L 5894 0 
L 4300 0 
L 4300 331 
L 4800 331 
L 4800 2047 
Q 4800 2556 4650 2772 
Q 4500 2988 4153 2988 
Q 3769 2988 3567 2697 
Q 3366 2406 3366 1850 
L 3366 331 
L 3866 331 
L 3866 0 
L 2291 0 
L 2291 331 
L 2791 331 
L 2791 2069 
Q 2791 2566 2641 2777 
Q 2491 2988 2144 2988 
Q 1759 2988 1557 2697 
Q 1356 2406 1356 1850 
L 1356 331 
L 1856 331 
L 1856 0 
L 263 0 
L 263 331 
L 781 331 
L 781 2994 
L 231 2994 
L 231 3322 
L 1356 3322 
L 1356 2731 
Q 1516 3063 1762 3238 
Q 2009 3413 2322 3413 
Q 2709 3413 2968 3220 
Q 3228 3028 3316 2675 
z
" transform="scale(0.015625)"/>
      <path id="DejaVuSerif-62" d="M 738 331 
L 738 4531 
L 184 4531 
L 184 4863 
L 1313 4863 
L 1313 2803 
Q 1481 3116 1742 3264 
Q 2003 3413 2388 3413 
Q 3000 3413 3387 2928 
Q 3775 2444 3775 1663 
Q 3775 881 3387 395 
Q 3000 -91 2388 -91 
Q 2003 -91 1742 57 
Q 1481 206 1313 519 
L 1313 0 
L 184 0 
L 184 331 
L 738 331 
z
M 1313 1497 
Q 1313 897 1542 583 
Q 1772 269 2209 269 
Q 2650 269 2876 622 
Q 3103 975 3103 1663 
Q 3103 2353 2876 2703 
Q 2650 3053 2209 3053 
Q 1772 3053 1542 2737 
Q 1313 2422 1313 1825 
L 1313 1497 
z
" transform="scale(0.015625)"/>
      <path id="Cmmi10-78" d="M 500 184 
Q 613 97 819 97 
Q 1019 97 1172 289 
Q 1325 481 1381 709 
L 1672 1844 
Q 1741 2153 1741 2266 
Q 1741 2425 1652 2544 
Q 1563 2663 1403 2663 
Q 1200 2663 1022 2536 
Q 844 2409 722 2214 
Q 600 2019 550 1819 
Q 538 1778 500 1778 
L 422 1778 
Q 372 1778 372 1838 
L 372 1856 
Q 434 2094 584 2320 
Q 734 2547 951 2687 
Q 1169 2828 1416 2828 
Q 1650 2828 1839 2703 
Q 2028 2578 2106 2363 
Q 2216 2559 2386 2693 
Q 2556 2828 2759 2828 
Q 2897 2828 3040 2779 
Q 3184 2731 3275 2631 
Q 3366 2531 3366 2381 
Q 3366 2219 3261 2101 
Q 3156 1984 2994 1984 
Q 2891 1984 2822 2050 
Q 2753 2116 2753 2216 
Q 2753 2350 2845 2451 
Q 2938 2553 3066 2572 
Q 2950 2663 2747 2663 
Q 2541 2663 2389 2472 
Q 2238 2281 2175 2047 
L 1894 916 
Q 1825 659 1825 494 
Q 1825 331 1917 214 
Q 2009 97 2163 97 
Q 2463 97 2698 361 
Q 2934 625 3009 941 
Q 3022 978 3059 978 
L 3138 978 
Q 3163 978 3178 961 
Q 3194 944 3194 922 
Q 3194 916 3188 903 
Q 3097 522 2806 225 
Q 2516 -72 2150 -72 
Q 1916 -72 1727 54 
Q 1538 181 1459 397 
Q 1359 209 1182 68 
Q 1006 -72 806 -72 
Q 669 -72 523 -23 
Q 378 25 287 125 
Q 197 225 197 378 
Q 197 528 301 651 
Q 406 775 563 775 
Q 669 775 741 711 
Q 813 647 813 544 
Q 813 409 723 309 
Q 634 209 500 184 
z
" transform="scale(0.015625)"/>
      <path id="DejaVuSerif-2c" d="M 231 -622 
Q 525 -406 662 -114 
Q 800 178 800 594 
L 800 709 
L 1416 709 
Q 1391 175 1164 -208 
Q 938 -591 481 -872 
L 231 -622 
z
" transform="scale(0.015625)"/>
      <path id="DejaVuSerif-74" d="M 691 2988 
L 184 2988 
L 184 3322 
L 691 3322 
L 691 4353 
L 1269 4353 
L 1269 3322 
L 2350 3322 
L 2350 2988 
L 1269 2988 
L 1269 878 
Q 1269 456 1350 337 
Q 1431 219 1650 219 
Q 1875 219 1978 351 
Q 2081 484 2088 781 
L 2522 781 
Q 2497 328 2275 118 
Q 2053 -91 1600 -91 
Q 1103 -91 897 129 
Q 691 350 691 878 
L 691 2988 
z
" transform="scale(0.015625)"/>
     </defs>
     <use xlink:href="#DejaVuSerif-46" transform="translate(0 0.015625)"/>
     <use xlink:href="#DejaVuSerif-6f" transform="translate(69.384766 0.015625)"/>
     <use xlink:href="#DejaVuSerif-72" transform="translate(129.589844 0.015625)"/>
     <use xlink:href="#DejaVuSerif-20" transform="translate(177.392578 0.015625)"/>
     <use xlink:href="#DejaVuSerif-65" transform="translate(209.179688 0.015625)"/>
     <use xlink:href="#DejaVuSerif-61" transform="translate(268.359375 0.015625)"/>
     <use xlink:href="#DejaVuSerif-63" transform="translate(327.978516 0.015625)"/>
     <use xlink:href="#DejaVuSerif-68" transform="translate(383.984375 0.015625)"/>
     <use xlink:href="#DejaVuSerif-20" transform="translate(448.388672 0.015625)"/>
     <use xlink:href="#DejaVuSerif-72" transform="translate(480.175781 0.015625)"/>
     <use xlink:href="#DejaVuSerif-65" transform="translate(527.978516 0.015625)"/>
     <use xlink:href="#DejaVuSerif-61" transform="translate(587.158203 0.015625)"/>
     <use xlink:href="#DejaVuSerif-6c" transform="translate(646.777344 0.015625)"/>
     <use xlink:href="#DejaVuSerif-20" transform="translate(678.759766 0.015625)"/>
     <use xlink:href="#DejaVuSerif-6e" transform="translate(710.546875 0.015625)"/>
     <use xlink:href="#DejaVuSerif-75" transform="translate(774.951172 0.015625)"/>
     <use xlink:href="#DejaVuSerif-6d" transform="translate(839.355469 0.015625)"/>
     <use xlink:href="#DejaVuSerif-62" transform="translate(934.179688 0.015625)"/>
     <use xlink:href="#DejaVuSerif-65" transform="translate(998.193359 0.015625)"/>
     <use xlink:href="#DejaVuSerif-72" transform="translate(1057.373047 0.015625)"/>
     <use xlink:href="#DejaVuSerif-20" transform="translate(1105.175781 0.015625)"/>
     <use xlink:href="#Cmmi10-78" transform="translate(1136.962891 0.015625)"/>
     <use xlink:href="#DejaVuSerif-2c" transform="translate(1194.042969 0.015625)"/>
     <use xlink:href="#DejaVuSerif-20" transform="translate(1225.830078 0.015625)"/>
     <use xlink:href="#DejaVuSerif-6c" transform="translate(1257.617188 0.015625)"/>
     <use xlink:href="#DejaVuSerif-65" transform="translate(1289.599609 0.015625)"/>
     <use xlink:href="#DejaVuSerif-74" transform="translate(1348.779297 0.015625)"/>
    </g>
    <!-- \[ -->
    <g transform="translate(605.057813 79.813688) scale(0.12 -0.12)">
     <defs>
      <path id="DejaVuSerif-5c" d="M 500 4666 
L 2156 -594 
L 1656 -594 
L 0 4666 
L 500 4666 
z
" transform="scale(0.015625)"/>
      <path id="DejaVuSerif-5b" d="M 550 4863 
L 2003 4863 
L 2003 4531 
L 1147 4531 
L 1147 -513 
L 2003 -513 
L 2003 -844 
L 550 -844 
L 550 4863 
z
" transform="scale(0.015625)"/>
     </defs>
     <use xlink:href="#DejaVuSerif-5c"/>
     <use xlink:href="#DejaVuSerif-5b" transform="translate(33.691406 0)"/>
    </g>
    <!-- f(x) = \sum_{n\in S_x} \frac{1}{2^n}, -->
    <g transform="translate(491.275313 93.251063) scale(0.12 -0.12)">
     <defs>
      <path id="DejaVuSerif-66" d="M 2753 4078 
L 2450 4078 
Q 2447 4313 2317 4434 
Q 2188 4556 1941 4556 
Q 1619 4556 1487 4379 
Q 1356 4203 1356 3750 
L 1356 3322 
L 2284 3322 
L 2284 2988 
L 1356 2988 
L 1356 331 
L 2094 331 
L 2094 0 
L 231 0 
L 231 331 
L 781 331 
L 781 2988 
L 231 2988 
L 231 3322 
L 781 3322 
L 781 3738 
Q 781 4294 1070 4578 
Q 1359 4863 1919 4863 
Q 2128 4863 2337 4825 
Q 2547 4788 2753 4709 
L 2753 4078 
z
" transform="scale(0.015625)"/>
      <path id="DejaVuSerif-28" d="M 2041 -997 
Q 1281 -656 893 83 
Q 506 822 506 1931 
Q 506 3044 893 3783 
Q 1281 4522 2041 4863 
L 2041 4556 
Q 1559 4225 1350 3623 
Q 1141 3022 1141 1931 
Q 1141 844 1350 242 
Q 1559 -359 2041 -691 
L 2041 -997 
z
" transform="scale(0.015625)"/>
      <path id="DejaVuSerif-78" d="M 1863 2028 
L 2559 2988 
L 2113 2988 
L 2113 3322 
L 3391 3322 
L 3391 2988 
L 2950 2988 
L 2059 1759 
L 3097 331 
L 3531 331 
L 3531 0 
L 1997 0 
L 1997 331 
L 2419 331 
L 1697 1325 
L 972 331 
L 1403 331 
L 1403 0 
L 141 0 
L 141 331 
L 581 331 
L 1497 1594 
L 488 2988 
L 78 2988 
L 78 3322 
L 1563 3322 
L 1563 2988 
L 1166 2988 
L 1863 2028 
z
" transform="scale(0.015625)"/>
      <path id="DejaVuSerif-29" d="M 453 -997 
L 453 -691 
Q 934 -359 1145 242 
Q 1356 844 1356 1931 
Q 1356 3022 1145 3623 
Q 934 4225 453 4556 
L 453 4863 
Q 1216 4522 1603 3783 
Q 1991 3044 1991 1931 
Q 1991 822 1603 83 
Q 1216 -656 453 -997 
z
" transform="scale(0.015625)"/>
      <path id="DejaVuSerif-3d" d="M 678 2894 
L 4684 2894 
L 4684 2394 
L 678 2394 
L 678 2894 
z
M 678 1619 
L 4684 1619 
L 4684 1119 
L 678 1119 
L 678 1619 
z
" transform="scale(0.015625)"/>
      <path id="DejaVuSerif-73" d="M 359 184 
L 359 959 
L 691 959 
Q 703 588 923 403 
Q 1144 219 1575 219 
Q 1963 219 2166 364 
Q 2369 509 2369 788 
Q 2369 1006 2220 1140 
Q 2072 1275 1594 1428 
L 1178 1569 
Q 750 1706 558 1912 
Q 366 2119 366 2438 
Q 366 2894 700 3153 
Q 1034 3413 1625 3413 
Q 1888 3413 2178 3344 
Q 2469 3275 2778 3144 
L 2778 2419 
L 2447 2419 
Q 2434 2741 2221 2922 
Q 2009 3103 1644 3103 
Q 1281 3103 1095 2975 
Q 909 2847 909 2591 
Q 909 2381 1050 2254 
Q 1191 2128 1613 1997 
L 2069 1856 
Q 2541 1709 2748 1489 
Q 2956 1269 2956 922 
Q 2956 450 2595 179 
Q 2234 -91 1600 -91 
Q 1278 -91 972 -22 
Q 666 47 359 184 
z
" transform="scale(0.015625)"/>
      <path id="DejaVuSerif-5f" d="M 3200 -1259 
L 3200 -1509 
L 0 -1509 
L 0 -1259 
L 3200 -1259 
z
" transform="scale(0.015625)"/>
      <path id="DejaVuSerif-7b" d="M 3272 -716 
L 3272 -1044 
L 3078 -1044 
Q 2300 -1044 2036 -812 
Q 1772 -581 1772 109 
L 1772 916 
Q 1772 1384 1603 1565 
Q 1434 1747 991 1747 
L 800 1747 
L 800 2075 
L 991 2075 
Q 1434 2075 1603 2256 
Q 1772 2438 1772 2906 
L 1772 3713 
Q 1772 4403 2036 4633 
Q 2300 4863 3078 4863 
L 3272 4863 
L 3272 4538 
L 3059 4538 
Q 2619 4538 2484 4400 
Q 2350 4263 2350 3822 
L 2350 2925 
Q 2350 2431 2194 2218 
Q 2038 2006 1631 1913 
Q 2044 1806 2197 1597 
Q 2350 1388 2350 897 
L 2350 0 
Q 2350 -441 2484 -578 
Q 2619 -716 3059 -716 
L 3272 -716 
z
" transform="scale(0.015625)"/>
      <path id="DejaVuSerif-69" d="M 622 4353 
Q 622 4497 726 4603 
Q 831 4709 978 4709 
Q 1122 4709 1226 4603 
Q 1331 4497 1331 4353 
Q 1331 4206 1228 4103 
Q 1125 4000 978 4000 
Q 831 4000 726 4103 
Q 622 4206 622 4353 
z
M 1356 331 
L 1900 331 
L 1900 0 
L 231 0 
L 231 331 
L 781 331 
L 781 2988 
L 231 2988 
L 231 3322 
L 1356 3322 
L 1356 331 
z
" transform="scale(0.015625)"/>
      <path id="DejaVuSerif-53" d="M 594 225 
L 594 1288 
L 953 1284 
Q 969 753 1261 498 
Q 1553 244 2150 244 
Q 2706 244 2998 464 
Q 3291 684 3291 1106 
Q 3291 1444 3114 1625 
Q 2938 1806 2369 1978 
L 1753 2163 
Q 1084 2366 811 2669 
Q 538 2972 538 3500 
Q 538 4094 959 4422 
Q 1381 4750 2144 4750 
Q 2469 4750 2856 4679 
Q 3244 4609 3681 4475 
L 3681 3481 
L 3328 3481 
Q 3275 3975 2998 4195 
Q 2722 4416 2156 4416 
Q 1663 4416 1405 4214 
Q 1147 4013 1147 3628 
Q 1147 3294 1340 3103 
Q 1534 2913 2163 2725 
L 2741 2553 
Q 3375 2363 3645 2067 
Q 3916 1772 3916 1275 
Q 3916 597 3481 253 
Q 3047 -91 2188 -91 
Q 1803 -91 1404 -12 
Q 1006 66 594 225 
z
" transform="scale(0.015625)"/>
      <path id="DejaVuSerif-7d" d="M 800 -716 
L 1019 -716 
Q 1456 -716 1589 -580 
Q 1722 -444 1722 0 
L 1722 897 
Q 1722 1388 1875 1597 
Q 2028 1806 2438 1913 
Q 2031 2006 1876 2218 
Q 1722 2431 1722 2925 
L 1722 3822 
Q 1722 4266 1589 4402 
Q 1456 4538 1019 4538 
L 800 4538 
L 800 4863 
L 997 4863 
Q 1775 4863 2036 4633 
Q 2297 4403 2297 3713 
L 2297 2906 
Q 2297 2438 2465 2256 
Q 2634 2075 3078 2075 
L 3272 2075 
L 3272 1747 
L 3078 1747 
Q 2634 1747 2465 1565 
Q 2297 1384 2297 916 
L 2297 109 
Q 2297 -581 2036 -812 
Q 1775 -1044 997 -1044 
L 800 -1044 
L 800 -716 
z
" transform="scale(0.015625)"/>
      <path id="DejaVuSerif-31" d="M 909 0 
L 909 331 
L 1722 331 
L 1722 4213 
L 781 3603 
L 781 4013 
L 1919 4750 
L 2350 4750 
L 2350 331 
L 3163 331 
L 3163 0 
L 909 0 
z
" transform="scale(0.015625)"/>
      <path id="DejaVuSerif-32" d="M 819 3553 
L 469 3553 
L 469 4384 
Q 803 4563 1142 4656 
Q 1481 4750 1806 4750 
Q 2534 4750 2956 4397 
Q 3378 4044 3378 3438 
Q 3378 2753 2422 1800 
Q 2347 1728 2309 1691 
L 1131 513 
L 3078 513 
L 3078 1088 
L 3444 1088 
L 3444 0 
L 434 0 
L 434 341 
L 1850 1753 
Q 2319 2222 2519 2614 
Q 2719 3006 2719 3438 
Q 2719 3909 2473 4175 
Q 2228 4441 1797 4441 
Q 1350 4441 1106 4219 
Q 863 3997 819 3553 
z
" transform="scale(0.015625)"/>
      <path id="DejaVuSerif-5e" d="M 2988 4666 
L 4684 2925 
L 4206 2925 
L 2681 4116 
L 1159 2925 
L 678 2925 
L 2375 4666 
L 2988 4666 
z
" transform="scale(0.015625)"/>
     </defs>
     <use xlink:href="#DejaVuSerif-66"/>
     <use xlink:href="#DejaVuSerif-28" transform="translate(37.011719 0)"/>
     <use xlink:href="#DejaVuSerif-78" transform="translate(76.025391 0)"/>
     <use xlink:href="#DejaVuSerif-29" transform="translate(132.421875 0)"/>
     <use xlink:href="#DejaVuSerif-20" transform="translate(171.435547 0)"/>
     <use xlink:href="#DejaVuSerif-3d" transform="translate(203.222656 0)"/>
     <use xlink:href="#DejaVuSerif-20" transform="translate(287.011719 0)"/>
     <use xlink:href="#DejaVuSerif-5c" transform="translate(318.798828 0)"/>
     <use xlink:href="#DejaVuSerif-73" transform="translate(352.490234 0)"/>
     <use xlink:href="#DejaVuSerif-75" transform="translate(403.808594 0)"/>
     <use xlink:href="#DejaVuSerif-6d" transform="translate(468.212891 0)"/>
     <use xlink:href="#DejaVuSerif-5f" transform="translate(563.037109 0)"/>
     <use xlink:href="#DejaVuSerif-7b" transform="translate(613.037109 0)"/>
     <use xlink:href="#DejaVuSerif-6e" transform="translate(676.660156 0)"/>
     <use xlink:href="#DejaVuSerif-5c" transform="translate(741.064453 0)"/>
     <use xlink:href="#DejaVuSerif-69" transform="translate(774.755859 0)"/>
     <use xlink:href="#DejaVuSerif-6e" transform="translate(806.738281 0)"/>
     <use xlink:href="#DejaVuSerif-20" transform="translate(871.142578 0)"/>
     <use xlink:href="#DejaVuSerif-53" transform="translate(902.929688 0)"/>
     <use xlink:href="#DejaVuSerif-5f" transform="translate(971.435547 0)"/>
     <use xlink:href="#DejaVuSerif-78" transform="translate(1021.435547 0)"/>
     <use xlink:href="#DejaVuSerif-7d" transform="translate(1077.832031 0)"/>
     <use xlink:href="#DejaVuSerif-20" transform="translate(1141.455078 0)"/>
     <use xlink:href="#DejaVuSerif-5c" transform="translate(1173.242188 0)"/>
     <use xlink:href="#DejaVuSerif-66" transform="translate(1206.933594 0)"/>
     <use xlink:href="#DejaVuSerif-72" transform="translate(1243.945312 0)"/>
     <use xlink:href="#DejaVuSerif-61" transform="translate(1291.748047 0)"/>
     <use xlink:href="#DejaVuSerif-63" transform="translate(1351.367188 0)"/>
     <use xlink:href="#DejaVuSerif-7b" transform="translate(1407.373047 0)"/>
     <use xlink:href="#DejaVuSerif-31" transform="translate(1470.996094 0)"/>
     <use xlink:href="#DejaVuSerif-7d" transform="translate(1534.619141 0)"/>
     <use xlink:href="#DejaVuSerif-7b" transform="translate(1598.242188 0)"/>
     <use xlink:href="#DejaVuSerif-32" transform="translate(1661.865234 0)"/>
     <use xlink:href="#DejaVuSerif-5e" transform="translate(1725.488281 0)"/>
     <use xlink:href="#DejaVuSerif-6e" transform="translate(1809.277344 0)"/>
     <use xlink:href="#DejaVuSerif-7d" transform="translate(1873.681641 0)"/>
     <use xlink:href="#DejaVuSerif-2c" transform="translate(1937.304688 0)"/>
    </g>
    <!-- \] -->
    <g transform="translate(605.057813 107.022188) scale(0.12 -0.12)">
     <defs>
      <path id="DejaVuSerif-5d" d="M 1947 4863 
L 1947 -844 
L 494 -844 
L 494 -513 
L 1350 -513 
L 1350 4531 
L 494 4531 
L 494 4863 
L 1947 4863 
z
" transform="scale(0.015625)"/>
     </defs>
     <use xlink:href="#DejaVuSerif-5c"/>
     <use xlink:href="#DejaVuSerif-5d" transform="translate(33.691406 0)"/>
    </g>
    <!-- where $S_x$ is the set of positive integers $n$ for which $\lfloor nx \rfloor$ is even. What is the largest real number $L$ such that $f(x) \geqq L$ for all $x \in [0,1)$? (As usual, $\lfloor z \rfloor$ denotes the greatest integer less than or equal to $z$.) -->
    <g transform="translate(7.2 120.461813) scale(0.12 -0.12)">
     <defs>
      <path id="DejaVuSerif-77" d="M 3072 3322 
L 3922 728 
L 4672 2988 
L 4191 2988 
L 4191 3322 
L 5394 3322 
L 5394 2988 
L 5025 2988 
L 4038 0 
L 3559 0 
L 2741 2484 
L 1919 0 
L 1459 0 
L 475 2988 
L 103 2988 
L 103 3322 
L 1606 3322 
L 1606 2988 
L 1069 2988 
L 1813 728 
L 2669 3322 
L 3072 3322 
z
" transform="scale(0.015625)"/>
      <path id="Cmmi10-53" d="M 391 -141 
Q 372 -141 356 -119 
Q 341 -97 341 -78 
L 709 1416 
Q 722 1453 763 1453 
L 838 1453 
Q 863 1453 877 1434 
Q 891 1416 891 1388 
Q 838 1169 838 997 
Q 838 534 1156 309 
Q 1475 84 1959 84 
Q 2169 84 2372 187 
Q 2575 291 2726 456 
Q 2878 622 2968 826 
Q 3059 1031 3059 1241 
Q 3059 1466 2940 1642 
Q 2822 1819 2613 1869 
L 1831 2075 
Q 1516 2159 1328 2414 
Q 1141 2669 1141 2988 
Q 1141 3372 1369 3728 
Q 1597 4084 1964 4298 
Q 2331 4513 2713 4513 
Q 3006 4513 3251 4405 
Q 3497 4297 3628 4063 
L 3994 4494 
Q 4031 4513 4038 4513 
L 4078 4513 
Q 4103 4513 4118 4491 
Q 4134 4469 4134 4447 
L 3763 2963 
Q 3753 2919 3713 2919 
L 3634 2919 
Q 3578 2919 3578 2988 
Q 3609 3191 3609 3341 
Q 3609 3638 3507 3858 
Q 3406 4078 3201 4192 
Q 2997 4306 2694 4306 
Q 2438 4306 2184 4159 
Q 1931 4013 1775 3769 
Q 1619 3525 1619 3263 
Q 1619 3056 1739 2897 
Q 1859 2738 2059 2681 
L 2841 2478 
Q 3053 2422 3211 2280 
Q 3369 2138 3450 1942 
Q 3531 1747 3531 1516 
Q 3531 1213 3403 917 
Q 3275 622 3045 378 
Q 2816 134 2525 -3 
Q 2234 -141 1931 -141 
Q 1169 -141 838 306 
L 481 -122 
Q 444 -141 434 -141 
L 391 -141 
z
" transform="scale(0.015625)"/>
      <path id="DejaVuSerif-70" d="M 1313 1825 
L 1313 1497 
Q 1313 897 1542 583 
Q 1772 269 2209 269 
Q 2650 269 2876 622 
Q 3103 975 3103 1663 
Q 3103 2353 2876 2703 
Q 2650 3053 2209 3053 
Q 1772 3053 1542 2737 
Q 1313 2422 1313 1825 
z
M 738 2988 
L 184 2988 
L 184 3322 
L 1313 3322 
L 1313 2803 
Q 1481 3116 1742 3264 
Q 2003 3413 2388 3413 
Q 3000 3413 3387 2928 
Q 3775 2444 3775 1663 
Q 3775 881 3387 395 
Q 3000 -91 2388 -91 
Q 2003 -91 1742 57 
Q 1481 206 1313 519 
L 1313 -997 
L 1856 -997 
L 1856 -1331 
L 184 -1331 
L 184 -997 
L 738 -997 
L 738 2988 
z
" transform="scale(0.015625)"/>
      <path id="DejaVuSerif-76" d="M 1581 0 
L 359 2988 
L -19 2988 
L -19 3322 
L 1509 3322 
L 1509 2988 
L 978 2988 
L 1913 703 
L 2847 2988 
L 2350 2988 
L 2350 3322 
L 3597 3322 
L 3597 2988 
L 3225 2988 
L 2003 0 
L 1581 0 
z
" transform="scale(0.015625)"/>
      <path id="DejaVuSerif-67" d="M 3359 2988 
L 3359 72 
Q 3359 -644 2965 -1033 
Q 2572 -1422 1844 -1422 
Q 1516 -1422 1216 -1362 
Q 916 -1303 641 -1184 
L 641 -488 
L 941 -488 
Q 997 -813 1206 -963 
Q 1416 -1113 1806 -1113 
Q 2313 -1113 2548 -827 
Q 2784 -541 2784 72 
L 2784 519 
Q 2616 206 2355 57 
Q 2094 -91 1709 -91 
Q 1097 -91 708 395 
Q 319 881 319 1663 
Q 319 2444 706 2928 
Q 1094 3413 1709 3413 
Q 2094 3413 2355 3264 
Q 2616 3116 2784 2803 
L 2784 3322 
L 3909 3322 
L 3909 2988 
L 3359 2988 
z
M 2784 1825 
Q 2784 2422 2554 2737 
Q 2325 3053 1888 3053 
Q 1444 3053 1217 2703 
Q 991 2353 991 1663 
Q 991 975 1217 622 
Q 1444 269 1888 269 
Q 2325 269 2554 583 
Q 2784 897 2784 1497 
L 2784 1825 
z
" transform="scale(0.015625)"/>
      <path id="Cmmi10-6e" d="M 494 109 
Q 494 147 500 166 
L 978 2075 
Q 1025 2253 1025 2388 
Q 1025 2663 838 2663 
Q 638 2663 541 2423 
Q 444 2184 353 1819 
Q 353 1800 334 1789 
Q 316 1778 300 1778 
L 225 1778 
Q 203 1778 187 1801 
Q 172 1825 172 1844 
Q 241 2122 305 2315 
Q 369 2509 505 2668 
Q 641 2828 844 2828 
Q 1084 2828 1268 2676 
Q 1453 2525 1453 2291 
Q 1644 2541 1900 2684 
Q 2156 2828 2444 2828 
Q 2672 2828 2837 2750 
Q 3003 2672 3095 2514 
Q 3188 2356 3188 2138 
Q 3188 1875 3070 1503 
Q 2953 1131 2778 672 
Q 2688 463 2688 288 
Q 2688 97 2834 97 
Q 3084 97 3251 365 
Q 3419 634 3488 941 
Q 3500 978 3541 978 
L 3616 978 
Q 3641 978 3658 962 
Q 3675 947 3675 922 
Q 3675 916 3669 903 
Q 3581 541 3364 234 
Q 3147 -72 2822 -72 
Q 2597 -72 2437 83 
Q 2278 238 2278 459 
Q 2278 578 2328 709 
Q 2409 919 2514 1209 
Q 2619 1500 2686 1765 
Q 2753 2031 2753 2234 
Q 2753 2413 2679 2538 
Q 2606 2663 2431 2663 
Q 2197 2663 2000 2559 
Q 1803 2456 1656 2286 
Q 1509 2116 1388 1881 
L 953 141 
Q 931 53 854 -9 
Q 778 -72 684 -72 
Q 606 -72 550 -22 
Q 494 28 494 109 
z
" transform="scale(0.015625)"/>
      <path id="Cmsy10-62" d="M 1113 -1484 
L 1113 4684 
Q 1113 4734 1153 4767 
Q 1194 4800 1241 4800 
Q 1294 4800 1331 4767 
Q 1369 4734 1369 4684 
L 1369 -1344 
L 2584 -1344 
Q 2634 -1344 2667 -1384 
Q 2700 -1425 2700 -1472 
Q 2700 -1525 2667 -1562 
Q 2634 -1600 2584 -1600 
L 1234 -1600 
Q 1191 -1600 1152 -1564 
Q 1113 -1528 1113 -1484 
z
" transform="scale(0.015625)"/>
      <path id="Cmsy10-63" d="M 250 -1600 
Q 200 -1600 167 -1562 
Q 134 -1525 134 -1472 
Q 134 -1425 167 -1384 
Q 200 -1344 250 -1344 
L 1466 -1344 
L 1466 4684 
Q 1466 4734 1503 4767 
Q 1541 4800 1594 4800 
Q 1641 4800 1681 4767 
Q 1722 4734 1722 4684 
L 1722 -1484 
Q 1722 -1528 1683 -1564 
Q 1644 -1600 1606 -1600 
L 250 -1600 
z
" transform="scale(0.015625)"/>
      <path id="DejaVuSerif-2e" d="M 603 325 
Q 603 500 722 622 
Q 841 744 1019 744 
Q 1191 744 1312 622 
Q 1434 500 1434 325 
Q 1434 153 1312 31 
Q 1191 -91 1019 -91 
Q 841 -91 722 29 
Q 603 150 603 325 
z
" transform="scale(0.015625)"/>
      <path id="DejaVuSerif-57" d="M 4878 0 
L 4366 0 
L 3297 3794 
L 2228 0 
L 1716 0 
L 494 4331 
L 31 4331 
L 31 4666 
L 1734 4666 
L 1734 4331 
L 1153 4331 
L 2125 884 
L 3188 4666 
L 3694 4666 
L 4775 844 
L 5753 4331 
L 5216 4331 
L 5216 4666 
L 6559 4666 
L 6559 4331 
L 6100 4331 
L 4878 0 
z
" transform="scale(0.015625)"/>
      <path id="Cmmi10-4c" d="M 300 0 
Q 238 0 238 84 
Q 241 100 250 139 
Q 259 178 276 201 
Q 294 225 319 225 
Q 709 225 863 269 
Q 947 297 984 441 
L 1863 3956 
Q 1875 4019 1875 4044 
Q 1875 4113 1797 4122 
Q 1678 4147 1338 4147 
Q 1275 4147 1275 4231 
Q 1297 4313 1309 4342 
Q 1322 4372 1381 4372 
L 3272 4372 
Q 3328 4372 3328 4288 
Q 3319 4222 3306 4184 
Q 3294 4147 3244 4147 
Q 2772 4147 2613 4116 
Q 2456 4088 2419 3928 
L 1544 416 
Q 1516 338 1516 275 
Q 1516 225 1734 225 
L 2328 225 
Q 2831 225 3143 425 
Q 3456 625 3606 876 
Q 3756 1128 3857 1398 
Q 3959 1669 4006 1678 
L 4063 1678 
Q 4128 1678 4128 1594 
L 3559 44 
Q 3550 0 3500 0 
L 300 0 
z
" transform="scale(0.015625)"/>
      <path id="Cmmi10-66" d="M 622 -1056 
Q 741 -1147 909 -1147 
Q 1138 -1147 1281 -641 
Q 1341 -397 1606 966 
L 1900 2534 
L 1350 2534 
Q 1288 2534 1288 2619 
Q 1313 2759 1369 2759 
L 1941 2759 
L 2016 3175 
Q 2053 3369 2084 3508 
Q 2116 3647 2152 3765 
Q 2188 3884 2259 4031 
Q 2369 4241 2555 4377 
Q 2741 4513 2956 4513 
Q 3097 4513 3230 4461 
Q 3363 4409 3447 4306 
Q 3531 4203 3531 4063 
Q 3531 3900 3423 3779 
Q 3316 3659 3163 3659 
Q 3059 3659 2986 3723 
Q 2913 3788 2913 3891 
Q 2913 4031 3008 4136 
Q 3103 4241 3244 4256 
Q 3125 4347 2950 4347 
Q 2853 4347 2767 4256 
Q 2681 4166 2656 4063 
Q 2616 3900 2478 3181 
L 2400 2759 
L 3059 2759 
Q 3122 2759 3122 2675 
Q 3119 2659 3109 2620 
Q 3100 2581 3083 2557 
Q 3066 2534 3041 2534 
L 2356 2534 
L 2059 972 
Q 2003 631 1929 279 
Q 1856 -72 1723 -442 
Q 1591 -813 1384 -1063 
Q 1178 -1313 897 -1313 
Q 681 -1313 511 -1189 
Q 341 -1066 341 -863 
Q 341 -700 445 -579 
Q 550 -459 709 -459 
Q 816 -459 887 -523 
Q 959 -588 959 -691 
Q 959 -828 857 -942 
Q 756 -1056 622 -1056 
z
" transform="scale(0.015625)"/>
      <path id="Cmr10-28" d="M 1984 -1588 
Q 1628 -1306 1370 -942 
Q 1113 -578 948 -165 
Q 784 247 703 697 
Q 622 1147 622 1600 
Q 622 2059 703 2509 
Q 784 2959 951 3375 
Q 1119 3791 1378 4153 
Q 1638 4516 1984 4788 
Q 1984 4800 2016 4800 
L 2075 4800 
Q 2094 4800 2109 4783 
Q 2125 4766 2125 4744 
Q 2125 4716 2113 4703 
Q 1800 4397 1592 4047 
Q 1384 3697 1257 3301 
Q 1131 2906 1075 2482 
Q 1019 2059 1019 1600 
Q 1019 -434 2106 -1491 
Q 2125 -1509 2125 -1544 
Q 2125 -1559 2108 -1579 
Q 2091 -1600 2075 -1600 
L 2016 -1600 
Q 1984 -1600 1984 -1588 
z
" transform="scale(0.015625)"/>
      <path id="Cmr10-29" d="M 416 -1600 
Q 359 -1600 359 -1544 
Q 359 -1516 372 -1503 
Q 1466 -434 1466 1600 
Q 1466 3634 384 4691 
Q 359 4706 359 4744 
Q 359 4766 376 4783 
Q 394 4800 416 4800 
L 475 4800 
Q 494 4800 506 4788 
Q 966 4425 1272 3906 
Q 1578 3388 1720 2800 
Q 1863 2213 1863 1600 
Q 1863 1147 1786 708 
Q 1709 269 1542 -157 
Q 1375 -584 1119 -945 
Q 863 -1306 506 -1588 
Q 494 -1600 475 -1600 
L 416 -1600 
z
" transform="scale(0.015625)"/>
      <path id="STIXGeneral-Regular-2267" d="M 3981 2771 
L 365 1024 
L 365 1427 
L 3130 2803 
L 365 4179 
L 365 4595 
L 3981 2835 
L 3981 2771 
z
M 3981 -77 
L 365 -77 
L 365 346 
L 3981 346 
L 3981 -77 
z
M 3981 -1350 
L 365 -1350 
L 365 -928 
L 3981 -928 
L 3981 -1350 
z
" transform="scale(0.015625)"/>
      <path id="Cmsy10-32" d="M 1356 403 
Q 1838 0 2497 0 
L 3616 0 
Q 3666 0 3698 -37 
Q 3731 -75 3731 -128 
Q 3731 -175 3698 -215 
Q 3666 -256 3616 -256 
L 2478 -256 
Q 1969 -256 1519 -12 
Q 1069 231 800 657 
Q 531 1084 531 1600 
Q 531 2116 800 2542 
Q 1069 2969 1519 3212 
Q 1969 3456 2478 3456 
L 3616 3456 
Q 3666 3456 3698 3415 
Q 3731 3375 3731 3328 
Q 3731 3275 3698 3237 
Q 3666 3200 3616 3200 
L 2497 3200 
Q 2184 3200 1889 3097 
Q 1594 2994 1356 2797 
Q 1122 2600 958 2304 
Q 794 2009 794 1728 
L 3616 1728 
Q 3666 1728 3698 1687 
Q 3731 1647 3731 1600 
Q 3731 1553 3698 1512 
Q 3666 1472 3616 1472 
L 794 1472 
Q 794 1194 958 897 
Q 1122 600 1356 403 
z
" transform="scale(0.015625)"/>
      <path id="Cmr10-5b" d="M 756 -1600 
L 756 4800 
L 1631 4800 
L 1631 4544 
L 1013 4544 
L 1013 -1344 
L 1631 -1344 
L 1631 -1600 
L 756 -1600 
z
" transform="scale(0.015625)"/>
      <path id="Cmr10-30" d="M 1600 -141 
Q 816 -141 533 504 
Q 250 1150 250 2041 
Q 250 2597 351 3087 
Q 453 3578 754 3920 
Q 1056 4263 1600 4263 
Q 2022 4263 2290 4056 
Q 2559 3850 2700 3523 
Q 2841 3197 2892 2823 
Q 2944 2450 2944 2041 
Q 2944 1491 2842 1011 
Q 2741 531 2444 195 
Q 2147 -141 1600 -141 
z
M 1600 25 
Q 1956 25 2131 390 
Q 2306 756 2347 1200 
Q 2388 1644 2388 2144 
Q 2388 2625 2347 3031 
Q 2306 3438 2132 3767 
Q 1959 4097 1600 4097 
Q 1238 4097 1063 3765 
Q 888 3434 847 3029 
Q 806 2625 806 2144 
Q 806 1788 823 1472 
Q 841 1156 916 820 
Q 991 484 1158 254 
Q 1325 25 1600 25 
z
" transform="scale(0.015625)"/>
      <path id="Cmmi10-3b" d="M 634 -1153 
Q 634 -1125 659 -1100 
Q 891 -878 1019 -587 
Q 1147 -297 1147 25 
L 1147 103 
Q 1044 0 891 0 
Q 744 0 641 103 
Q 538 206 538 353 
Q 538 503 641 603 
Q 744 703 891 703 
Q 1119 703 1216 492 
Q 1313 281 1313 25 
Q 1313 -331 1170 -651 
Q 1028 -972 769 -1228 
Q 744 -1241 728 -1241 
Q 697 -1241 665 -1212 
Q 634 -1184 634 -1153 
z
" transform="scale(0.015625)"/>
      <path id="Cmr10-31" d="M 594 0 
L 594 225 
Q 1394 225 1394 428 
L 1394 3788 
Q 1063 3628 556 3628 
L 556 3853 
Q 1341 3853 1741 4263 
L 1831 4263 
Q 1853 4263 1873 4245 
Q 1894 4228 1894 4206 
L 1894 428 
Q 1894 225 2694 225 
L 2694 0 
L 594 0 
z
" transform="scale(0.015625)"/>
      <path id="DejaVuSerif-3f" d="M 1125 325 
Q 1125 500 1245 622 
Q 1366 744 1544 744 
Q 1716 744 1837 622 
Q 1959 500 1959 325 
Q 1959 153 1837 31 
Q 1716 -91 1544 -91 
Q 1366 -91 1245 29 
Q 1125 150 1125 325 
z
M 434 4459 
Q 766 4606 1064 4678 
Q 1363 4750 1625 4750 
Q 2319 4750 2720 4415 
Q 3122 4081 3122 3513 
Q 3122 2931 2776 2562 
Q 2431 2194 1734 2034 
L 1734 1241 
L 1350 1241 
L 1350 2266 
Q 1903 2400 2183 2715 
Q 2463 3031 2463 3519 
Q 2463 3947 2234 4194 
Q 2006 4441 1613 4441 
Q 1256 4441 1029 4236 
Q 803 4031 738 3647 
L 434 3647 
L 434 4459 
z
" transform="scale(0.015625)"/>
      <path id="DejaVuSerif-41" d="M 1281 1691 
L 2994 1691 
L 2138 3909 
L 1281 1691 
z
M -38 0 
L -38 331 
L 372 331 
L 2034 4666 
L 2559 4666 
L 4225 331 
L 4684 331 
L 4684 0 
L 2988 0 
L 2988 331 
L 3506 331 
L 3116 1356 
L 1153 1356 
L 763 331 
L 1275 331 
L 1275 0 
L -38 0 
z
" transform="scale(0.015625)"/>
      <path id="Cmmi10-7a" d="M 313 -72 
Q 263 -72 263 -13 
Q 263 19 275 31 
Q 447 328 689 598 
Q 931 869 1239 1145 
Q 1547 1422 1858 1700 
Q 2169 1978 2363 2194 
L 2338 2194 
Q 2197 2194 1925 2284 
Q 1653 2375 1497 2375 
Q 1328 2375 1168 2301 
Q 1009 2228 966 2075 
Q 956 2028 916 2028 
L 838 2028 
Q 788 2028 788 2094 
L 788 2113 
Q 838 2300 952 2462 
Q 1066 2625 1233 2726 
Q 1400 2828 1581 2828 
Q 1709 2828 1793 2770 
Q 1878 2713 1990 2591 
Q 2103 2469 2173 2416 
Q 2244 2363 2350 2363 
Q 2491 2363 2602 2491 
Q 2713 2619 2822 2809 
Q 2841 2828 2869 2828 
L 2944 2828 
Q 2966 2828 2980 2812 
Q 2994 2797 2994 2772 
Q 2994 2750 2981 2731 
Q 2809 2434 2579 2176 
Q 2350 1919 1979 1586 
Q 1609 1253 1354 1023 
Q 1100 794 878 550 
Q 928 563 1013 563 
Q 1169 563 1439 473 
Q 1709 384 1856 384 
Q 2016 384 2178 453 
Q 2341 522 2459 647 
Q 2578 772 2619 934 
Q 2634 978 2669 978 
L 2747 978 
Q 2772 978 2787 958 
Q 2803 938 2803 916 
Q 2803 909 2797 897 
Q 2738 653 2591 433 
Q 2444 213 2230 70 
Q 2016 -72 1772 -72 
Q 1650 -72 1565 -15 
Q 1481 41 1367 164 
Q 1253 288 1181 342 
Q 1109 397 1006 397 
Q 688 397 434 -50 
Q 413 -72 391 -72 
L 313 -72 
z
" transform="scale(0.015625)"/>
      <path id="DejaVuSerif-64" d="M 3359 331 
L 3909 331 
L 3909 0 
L 2784 0 
L 2784 519 
Q 2616 206 2355 57 
Q 2094 -91 1709 -91 
Q 1097 -91 708 395 
Q 319 881 319 1663 
Q 319 2444 706 2928 
Q 1094 3413 1709 3413 
Q 2094 3413 2355 3264 
Q 2616 3116 2784 2803 
L 2784 4531 
L 2241 4531 
L 2241 4863 
L 3359 4863 
L 3359 331 
z
M 2784 1497 
L 2784 1825 
Q 2784 2422 2554 2737 
Q 2325 3053 1888 3053 
Q 1444 3053 1217 2703 
Q 991 2353 991 1663 
Q 991 975 1217 622 
Q 1444 269 1888 269 
Q 2325 269 2554 583 
Q 2784 897 2784 1497 
z
" transform="scale(0.015625)"/>
      <path id="DejaVuSerif-71" d="M 3359 2988 
L 3359 -997 
L 3909 -997 
L 3909 -1331 
L 2241 -1331 
L 2241 -997 
L 2784 -997 
L 2784 519 
Q 2616 206 2355 57 
Q 2094 -91 1709 -91 
Q 1097 -91 708 395 
Q 319 881 319 1663 
Q 319 2444 706 2928 
Q 1094 3413 1709 3413 
Q 2094 3413 2355 3264 
Q 2616 3116 2784 2803 
L 2784 3322 
L 3909 3322 
L 3909 2988 
L 3359 2988 
z
M 2784 1825 
Q 2784 2422 2554 2737 
Q 2325 3053 1888 3053 
Q 1444 3053 1217 2703 
Q 991 2353 991 1663 
Q 991 975 1217 622 
Q 1444 269 1888 269 
Q 2325 269 2554 583 
Q 2784 897 2784 1497 
L 2784 1825 
z
" transform="scale(0.015625)"/>
     </defs>
     <use xlink:href="#DejaVuSerif-77" transform="translate(0 0.015625)"/>
     <use xlink:href="#DejaVuSerif-68" transform="translate(85.595703 0.015625)"/>
     <use xlink:href="#DejaVuSerif-65" transform="translate(150 0.015625)"/>
     <use xlink:href="#DejaVuSerif-72" transform="translate(209.179688 0.015625)"/>
     <use xlink:href="#DejaVuSerif-65" transform="translate(256.982422 0.015625)"/>
     <use xlink:href="#DejaVuSerif-20" transform="translate(316.162109 0.015625)"/>
     <use xlink:href="#Cmmi10-53" transform="translate(347.949219 0.015625)"/>
     <use xlink:href="#Cmmi10-78" transform="translate(409.228516 -16.990625) scale(0.7)"/>
     <use xlink:href="#DejaVuSerif-20" transform="translate(455.561914 0.015625)"/>
     <use xlink:href="#DejaVuSerif-69" transform="translate(487.349023 0.015625)"/>
     <use xlink:href="#DejaVuSerif-73" transform="translate(519.331445 0.015625)"/>
     <use xlink:href="#DejaVuSerif-20" transform="translate(570.649805 0.015625)"/>
     <use xlink:href="#DejaVuSerif-74" transform="translate(602.436914 0.015625)"/>
     <use xlink:href="#DejaVuSerif-68" transform="translate(642.622461 0.015625)"/>
     <use xlink:href="#DejaVuSerif-65" transform="translate(707.026758 0.015625)"/>
     <use xlink:href="#DejaVuSerif-20" transform="translate(766.206445 0.015625)"/>
     <use xlink:href="#DejaVuSerif-73" transform="translate(797.993555 0.015625)"/>
     <use xlink:href="#DejaVuSerif-65" transform="translate(849.311914 0.015625)"/>
     <use xlink:href="#DejaVuSerif-74" transform="translate(908.491602 0.015625)"/>
     <use xlink:href="#DejaVuSerif-20" transform="translate(948.677148 0.015625)"/>
     <use xlink:href="#DejaVuSerif-6f" transform="translate(980.464258 0.015625)"/>
     <use xlink:href="#DejaVuSerif-66" transform="translate(1040.669336 0.015625)"/>
     <use xlink:href="#DejaVuSerif-20" transform="translate(1077.681055 0.015625)"/>
     <use xlink:href="#DejaVuSerif-70" transform="translate(1109.468164 0.015625)"/>
     <use xlink:href="#DejaVuSerif-6f" transform="translate(1173.481836 0.015625)"/>
     <use xlink:href="#DejaVuSerif-73" transform="translate(1233.686914 0.015625)"/>
     <use xlink:href="#DejaVuSerif-69" transform="translate(1285.005273 0.015625)"/>
     <use xlink:href="#DejaVuSerif-74" transform="translate(1316.987695 0.015625)"/>
     <use xlink:href="#DejaVuSerif-69" transform="translate(1357.173242 0.015625)"/>
     <use xlink:href="#DejaVuSerif-76" transform="translate(1389.155664 0.015625)"/>
     <use xlink:href="#DejaVuSerif-65" transform="translate(1445.649805 0.015625)"/>
     <use xlink:href="#DejaVuSerif-20" transform="translate(1504.829492 0.015625)"/>
     <use xlink:href="#DejaVuSerif-69" transform="translate(1536.616602 0.015625)"/>
     <use xlink:href="#DejaVuSerif-6e" transform="translate(1568.599023 0.015625)"/>
     <use xlink:href="#DejaVuSerif-74" transform="translate(1633.00332 0.015625)"/>
     <use xlink:href="#DejaVuSerif-65" transform="translate(1673.188867 0.015625)"/>
     <use xlink:href="#DejaVuSerif-67" transform="translate(1732.368555 0.015625)"/>
     <use xlink:href="#DejaVuSerif-65" transform="translate(1796.382227 0.015625)"/>
     <use xlink:href="#DejaVuSerif-72" transform="translate(1855.561914 0.015625)"/>
     <use xlink:href="#DejaVuSerif-73" transform="translate(1903.364648 0.015625)"/>
     <use xlink:href="#DejaVuSerif-20" transform="translate(1954.683008 0.015625)"/>
     <use xlink:href="#Cmmi10-6e" transform="translate(1986.470117 0.015625)"/>
     <use xlink:href="#DejaVuSerif-20" transform="translate(2046.479883 0.015625)"/>
     <use xlink:href="#DejaVuSerif-66" transform="translate(2078.266992 0.015625)"/>
     <use xlink:href="#DejaVuSerif-6f" transform="translate(2115.278711 0.015625)"/>
     <use xlink:href="#DejaVuSerif-72" transform="translate(2175.483789 0.015625)"/>
     <use xlink:href="#DejaVuSerif-20" transform="translate(2223.286523 0.015625)"/>
     <use xlink:href="#DejaVuSerif-77" transform="translate(2255.073633 0.015625)"/>
     <use xlink:href="#DejaVuSerif-68" transform="translate(2340.669336 0.015625)"/>
     <use xlink:href="#DejaVuSerif-69" transform="translate(2405.073633 0.015625)"/>
     <use xlink:href="#DejaVuSerif-63" transform="translate(2437.056055 0.015625)"/>
     <use xlink:href="#DejaVuSerif-68" transform="translate(2493.061914 0.015625)"/>
     <use xlink:href="#DejaVuSerif-20" transform="translate(2557.466211 0.015625)"/>
     <use xlink:href="#Cmsy10-62" transform="translate(2589.25332 0.015625)"/>
     <use xlink:href="#Cmmi10-6e" transform="translate(2633.638086 0.015625)"/>
     <use xlink:href="#Cmmi10-78" transform="translate(2693.647852 0.015625)"/>
     <use xlink:href="#Cmsy10-63" transform="translate(2750.72793 0.015625)"/>
     <use xlink:href="#DejaVuSerif-20" transform="translate(2795.112695 0.015625)"/>
     <use xlink:href="#DejaVuSerif-69" transform="translate(2826.899805 0.015625)"/>
     <use xlink:href="#DejaVuSerif-73" transform="translate(2858.882227 0.015625)"/>
     <use xlink:href="#DejaVuSerif-20" transform="translate(2910.200586 0.015625)"/>
     <use xlink:href="#DejaVuSerif-65" transform="translate(2941.987695 0.015625)"/>
     <use xlink:href="#DejaVuSerif-76" transform="translate(3001.167383 0.015625)"/>
     <use xlink:href="#DejaVuSerif-65" transform="translate(3057.661523 0.015625)"/>
     <use xlink:href="#DejaVuSerif-6e" transform="translate(3116.841211 0.015625)"/>
     <use xlink:href="#DejaVuSerif-2e" transform="translate(3181.245508 0.015625)"/>
     <use xlink:href="#DejaVuSerif-20" transform="translate(3213.032617 0.015625)"/>
     <use xlink:href="#DejaVuSerif-57" transform="translate(3244.819727 0.015625)"/>
     <use xlink:href="#DejaVuSerif-68" transform="translate(3347.60293 0.015625)"/>
     <use xlink:href="#DejaVuSerif-61" transform="translate(3412.007227 0.015625)"/>
     <use xlink:href="#DejaVuSerif-74" transform="translate(3471.626367 0.015625)"/>
     <use xlink:href="#DejaVuSerif-20" transform="translate(3511.811914 0.015625)"/>
     <use xlink:href="#DejaVuSerif-69" transform="translate(3543.599023 0.015625)"/>
     <use xlink:href="#DejaVuSerif-73" transform="translate(3575.581445 0.015625)"/>
     <use xlink:href="#DejaVuSerif-20" transform="translate(3626.899805 0.015625)"/>
     <use xlink:href="#DejaVuSerif-74" transform="translate(3658.686914 0.015625)"/>
     <use xlink:href="#DejaVuSerif-68" transform="translate(3698.872461 0.015625)"/>
     <use xlink:href="#DejaVuSerif-65" transform="translate(3763.276758 0.015625)"/>
     <use xlink:href="#DejaVuSerif-20" transform="translate(3822.456445 0.015625)"/>
     <use xlink:href="#DejaVuSerif-6c" transform="translate(3854.243555 0.015625)"/>
     <use xlink:href="#DejaVuSerif-61" transform="translate(3886.225977 0.015625)"/>
     <use xlink:href="#DejaVuSerif-72" transform="translate(3945.845117 0.015625)"/>
     <use xlink:href="#DejaVuSerif-67" transform="translate(3993.647852 0.015625)"/>
     <use xlink:href="#DejaVuSerif-65" transform="translate(4057.661523 0.015625)"/>
     <use xlink:href="#DejaVuSerif-73" transform="translate(4116.841211 0.015625)"/>
     <use xlink:href="#DejaVuSerif-74" transform="translate(4168.15957 0.015625)"/>
     <use xlink:href="#DejaVuSerif-20" transform="translate(4208.345117 0.015625)"/>
     <use xlink:href="#DejaVuSerif-72" transform="translate(4240.132227 0.015625)"/>
     <use xlink:href="#DejaVuSerif-65" transform="translate(4287.934961 0.015625)"/>
     <use xlink:href="#DejaVuSerif-61" transform="translate(4347.114648 0.015625)"/>
     <use xlink:href="#DejaVuSerif-6c" transform="translate(4406.733789 0.015625)"/>
     <use xlink:href="#DejaVuSerif-20" transform="translate(4438.716211 0.015625)"/>
     <use xlink:href="#DejaVuSerif-6e" transform="translate(4470.50332 0.015625)"/>
     <use xlink:href="#DejaVuSerif-75" transform="translate(4534.907617 0.015625)"/>
     <use xlink:href="#DejaVuSerif-6d" transform="translate(4599.311914 0.015625)"/>
     <use xlink:href="#DejaVuSerif-62" transform="translate(4694.136133 0.015625)"/>
     <use xlink:href="#DejaVuSerif-65" transform="translate(4758.149805 0.015625)"/>
     <use xlink:href="#DejaVuSerif-72" transform="translate(4817.329492 0.015625)"/>
     <use xlink:href="#DejaVuSerif-20" transform="translate(4865.132227 0.015625)"/>
     <use xlink:href="#Cmmi10-4c" transform="translate(4896.919336 0.015625)"/>
     <use xlink:href="#DejaVuSerif-20" transform="translate(4964.936914 0.015625)"/>
     <use xlink:href="#DejaVuSerif-73" transform="translate(4996.724023 0.015625)"/>
     <use xlink:href="#DejaVuSerif-75" transform="translate(5048.042383 0.015625)"/>
     <use xlink:href="#DejaVuSerif-63" transform="translate(5112.44668 0.015625)"/>
     <use xlink:href="#DejaVuSerif-68" transform="translate(5168.452539 0.015625)"/>
     <use xlink:href="#DejaVuSerif-20" transform="translate(5232.856836 0.015625)"/>
     <use xlink:href="#DejaVuSerif-74" transform="translate(5264.643945 0.015625)"/>
     <use xlink:href="#DejaVuSerif-68" transform="translate(5304.829492 0.015625)"/>
     <use xlink:href="#DejaVuSerif-61" transform="translate(5369.233789 0.015625)"/>
     <use xlink:href="#DejaVuSerif-74" transform="translate(5428.85293 0.015625)"/>
     <use xlink:href="#DejaVuSerif-20" transform="translate(5469.038477 0.015625)"/>
     <use xlink:href="#Cmmi10-66" transform="translate(5500.825586 0.015625)"/>
     <use xlink:href="#Cmr10-28" transform="translate(5549.702539 0.015625)"/>
     <use xlink:href="#Cmmi10-78" transform="translate(5588.520898 0.015625)"/>
     <use xlink:href="#Cmr10-29" transform="translate(5645.600977 0.015625)"/>
     <use xlink:href="#STIXGeneral-Regular-2267" transform="translate(5701.97793 0.015625)"/>
     <use xlink:href="#Cmmi10-4c" transform="translate(5788.036508 0.015625)"/>
     <use xlink:href="#DejaVuSerif-20" transform="translate(5856.054086 0.015625)"/>
     <use xlink:href="#DejaVuSerif-66" transform="translate(5887.841196 0.015625)"/>
     <use xlink:href="#DejaVuSerif-6f" transform="translate(5924.852914 0.015625)"/>
     <use xlink:href="#DejaVuSerif-72" transform="translate(5985.057993 0.015625)"/>
     <use xlink:href="#DejaVuSerif-20" transform="translate(6032.860727 0.015625)"/>
     <use xlink:href="#DejaVuSerif-61" transform="translate(6064.647836 0.015625)"/>
     <use xlink:href="#DejaVuSerif-6c" transform="translate(6124.266977 0.015625)"/>
     <use xlink:href="#DejaVuSerif-6c" transform="translate(6156.249399 0.015625)"/>
     <use xlink:href="#DejaVuSerif-20" transform="translate(6188.231821 0.015625)"/>
     <use xlink:href="#Cmmi10-78" transform="translate(6220.01893 0.015625)"/>
     <use xlink:href="#Cmsy10-32" transform="translate(6294.657602 0.015625)"/>
     <use xlink:href="#Cmr10-5b" transform="translate(6378.817758 0.015625)"/>
     <use xlink:href="#Cmr10-30" transform="translate(6406.503305 0.015625)"/>
     <use xlink:href="#Cmmi10-3b" transform="translate(6456.503305 0.015625)"/>
     <use xlink:href="#Cmr10-31" transform="translate(6501.747446 0.015625)"/>
     <use xlink:href="#Cmr10-29" transform="translate(6551.747446 0.015625)"/>
     <use xlink:href="#DejaVuSerif-3f" transform="translate(6590.565805 0.015625)"/>
     <use xlink:href="#DejaVuSerif-20" transform="translate(6644.179086 0.015625)"/>
     <use xlink:href="#DejaVuSerif-28" transform="translate(6675.966196 0.015625)"/>
     <use xlink:href="#DejaVuSerif-41" transform="translate(6714.979868 0.015625)"/>
     <use xlink:href="#DejaVuSerif-73" transform="translate(6787.196664 0.015625)"/>
     <use xlink:href="#DejaVuSerif-20" transform="translate(6838.515024 0.015625)"/>
     <use xlink:href="#DejaVuSerif-75" transform="translate(6870.302133 0.015625)"/>
     <use xlink:href="#DejaVuSerif-73" transform="translate(6934.70643 0.015625)"/>
     <use xlink:href="#DejaVuSerif-75" transform="translate(6986.024789 0.015625)"/>
     <use xlink:href="#DejaVuSerif-61" transform="translate(7050.429086 0.015625)"/>
     <use xlink:href="#DejaVuSerif-6c" transform="translate(7110.048227 0.015625)"/>
     <use xlink:href="#DejaVuSerif-2c" transform="translate(7142.030649 0.015625)"/>
     <use xlink:href="#DejaVuSerif-20" transform="translate(7173.817758 0.015625)"/>
     <use xlink:href="#Cmsy10-62" transform="translate(7205.604868 0.015625)"/>
     <use xlink:href="#Cmmi10-7a" transform="translate(7249.989633 0.015625)"/>
     <use xlink:href="#Cmsy10-63" transform="translate(7296.474008 0.015625)"/>
     <use xlink:href="#DejaVuSerif-20" transform="translate(7340.858774 0.015625)"/>
     <use xlink:href="#DejaVuSerif-64" transform="translate(7372.645883 0.015625)"/>
     <use xlink:href="#DejaVuSerif-65" transform="translate(7436.659555 0.015625)"/>
     <use xlink:href="#DejaVuSerif-6e" transform="translate(7495.839243 0.015625)"/>
     <use xlink:href="#DejaVuSerif-6f" transform="translate(7560.243539 0.015625)"/>
     <use xlink:href="#DejaVuSerif-74" transform="translate(7620.448618 0.015625)"/>
     <use xlink:href="#DejaVuSerif-65" transform="translate(7660.634164 0.015625)"/>
     <use xlink:href="#DejaVuSerif-73" transform="translate(7719.813852 0.015625)"/>
     <use xlink:href="#DejaVuSerif-20" transform="translate(7771.132211 0.015625)"/>
     <use xlink:href="#DejaVuSerif-74" transform="translate(7802.919321 0.015625)"/>
     <use xlink:href="#DejaVuSerif-68" transform="translate(7843.104868 0.015625)"/>
     <use xlink:href="#DejaVuSerif-65" transform="translate(7907.509164 0.015625)"/>
     <use xlink:href="#DejaVuSerif-20" transform="translate(7966.688852 0.015625)"/>
     <use xlink:href="#DejaVuSerif-67" transform="translate(7998.475961 0.015625)"/>
     <use xlink:href="#DejaVuSerif-72" transform="translate(8062.489633 0.015625)"/>
     <use xlink:href="#DejaVuSerif-65" transform="translate(8110.292368 0.015625)"/>
     <use xlink:href="#DejaVuSerif-61" transform="translate(8169.472055 0.015625)"/>
     <use xlink:href="#DejaVuSerif-74" transform="translate(8229.091196 0.015625)"/>
     <use xlink:href="#DejaVuSerif-65" transform="translate(8269.276743 0.015625)"/>
     <use xlink:href="#DejaVuSerif-73" transform="translate(8328.45643 0.015625)"/>
     <use xlink:href="#DejaVuSerif-74" transform="translate(8379.774789 0.015625)"/>
     <use xlink:href="#DejaVuSerif-20" transform="translate(8419.960336 0.015625)"/>
     <use xlink:href="#DejaVuSerif-69" transform="translate(8451.747446 0.015625)"/>
     <use xlink:href="#DejaVuSerif-6e" transform="translate(8483.729868 0.015625)"/>
     <use xlink:href="#DejaVuSerif-74" transform="translate(8548.134164 0.015625)"/>
     <use xlink:href="#DejaVuSerif-65" transform="translate(8588.319711 0.015625)"/>
     <use xlink:href="#DejaVuSerif-67" transform="translate(8647.499399 0.015625)"/>
     <use xlink:href="#DejaVuSerif-65" transform="translate(8711.513071 0.015625)"/>
     <use xlink:href="#DejaVuSerif-72" transform="translate(8770.692758 0.015625)"/>
     <use xlink:href="#DejaVuSerif-20" transform="translate(8818.495493 0.015625)"/>
     <use xlink:href="#DejaVuSerif-6c" transform="translate(8850.282602 0.015625)"/>
     <use xlink:href="#DejaVuSerif-65" transform="translate(8882.265024 0.015625)"/>
     <use xlink:href="#DejaVuSerif-73" transform="translate(8941.444711 0.015625)"/>
     <use xlink:href="#DejaVuSerif-73" transform="translate(8992.763071 0.015625)"/>
     <use xlink:href="#DejaVuSerif-20" transform="translate(9044.08143 0.015625)"/>
     <use xlink:href="#DejaVuSerif-74" transform="translate(9075.868539 0.015625)"/>
     <use xlink:href="#DejaVuSerif-68" transform="translate(9116.054086 0.015625)"/>
     <use xlink:href="#DejaVuSerif-61" transform="translate(9180.458383 0.015625)"/>
     <use xlink:href="#DejaVuSerif-6e" transform="translate(9240.077524 0.015625)"/>
     <use xlink:href="#DejaVuSerif-20" transform="translate(9304.481821 0.015625)"/>
     <use xlink:href="#DejaVuSerif-6f" transform="translate(9336.26893 0.015625)"/>
     <use xlink:href="#DejaVuSerif-72" transform="translate(9396.474008 0.015625)"/>
     <use xlink:href="#DejaVuSerif-20" transform="translate(9444.276743 0.015625)"/>
     <use xlink:href="#DejaVuSerif-65" transform="translate(9476.063852 0.015625)"/>
     <use xlink:href="#DejaVuSerif-71" transform="translate(9535.243539 0.015625)"/>
     <use xlink:href="#DejaVuSerif-75" transform="translate(9599.257211 0.015625)"/>
     <use xlink:href="#DejaVuSerif-61" transform="translate(9663.661508 0.015625)"/>
     <use xlink:href="#DejaVuSerif-6c" transform="translate(9723.280649 0.015625)"/>
     <use xlink:href="#DejaVuSerif-20" transform="translate(9755.263071 0.015625)"/>
     <use xlink:href="#DejaVuSerif-74" transform="translate(9787.05018 0.015625)"/>
     <use xlink:href="#DejaVuSerif-6f" transform="translate(9827.235727 0.015625)"/>
     <use xlink:href="#DejaVuSerif-20" transform="translate(9887.440805 0.015625)"/>
     <use xlink:href="#Cmmi10-7a" transform="translate(9919.227914 0.015625)"/>
     <use xlink:href="#DejaVuSerif-2e" transform="translate(9965.712289 0.015625)"/>
     <use xlink:href="#DejaVuSerif-29" transform="translate(9997.499399 0.015625)"/>
    </g>
   </g>
  </g>
 </g>
</svg>
