<?xml version="1.0" encoding="utf-8" standalone="no"?>
<!DOCTYPE svg PUBLIC "-//W3C//DTD SVG 1.1//EN"
  "http://www.w3.org/Graphics/SVG/1.1/DTD/svg11.dtd">
<svg xmlns:xlink="http://www.w3.org/1999/xlink" width="1101.84pt" height="180.72pt" viewBox="0 0 1101.84 180.72" xmlns="http://www.w3.org/2000/svg" version="1.1">
 <metadata>
  <rdf:RDF xmlns:dc="http://purl.org/dc/elements/1.1/" xmlns:cc="http://creativecommons.org/ns#" xmlns:rdf="http://www.w3.org/1999/02/22-rdf-syntax-ns#">
   <cc:Work>
    <dc:type rdf:resource="http://purl.org/dc/dcmitype/StillImage"/>
    <dc:date>2025-05-29T18:44:08.472336</dc:date>
    <dc:format>image/svg+xml</dc:format>
    <dc:creator>
     <cc:Agent>
      <dc:title>Matplotlib v3.10.3, https://matplotlib.org/</dc:title>
     </cc:Agent>
    </dc:creator>
   </cc:Work>
  </rdf:RDF>
 </metadata>
 <defs>
  <style type="text/css">*{stroke-linejoin: round; stroke-linecap: butt}</style>
 </defs>
 <g id="figure_1">
  <g id="patch_1">
   <path d="M 0 180.72 
L 1101.84 180.72 
L 1101.84 0 
L 0 0 
z
" style="fill: #ffffff"/>
  </g>
  <g id="axes_1">
   <g id="text_1">
    <!-- Let $n$ be a positive odd integer and let $\theta$ be a real number such that $\theta/\pi$ is irrational. Set $a_k=\tan(\theta+k\pi/n)$, $k=1,2,\dots,n$. Prove that $\frac{a_1+a_2+\cdots+a_n}{a_1a_2 \cdots a_n}$ is an integer, and determine its value. -->
    <g transform="translate(7.2 93.54) scale(0.12 -0.12)">
     <defs>
      <path id="DejaVuSerif-4c" d="M 353 0 
L 353 331 
L 947 331 
L 947 4331 
L 353 4331 
L 353 4666 
L 2175 4666 
L 2175 4331 
L 1581 4331 
L 1581 384 
L 3713 384 
L 3713 1166 
L 4097 1166 
L 4097 0 
L 353 0 
z
" transform="scale(0.015625)"/>
      <path id="DejaVuSerif-65" d="M 3469 1600 
L 991 1600 
L 991 1575 
Q 991 903 1244 561 
Q 1497 219 1991 219 
Q 2369 219 2611 417 
Q 2853 616 2950 1006 
L 3413 1006 
Q 3275 459 2904 184 
Q 2534 -91 1931 -91 
Q 1203 -91 761 389 
Q 319 869 319 1663 
Q 319 2450 753 2931 
Q 1188 3413 1894 3413 
Q 2647 3413 3050 2948 
Q 3453 2484 3469 1600 
z
M 2791 1931 
Q 2772 2513 2545 2808 
Q 2319 3103 1894 3103 
Q 1497 3103 1269 2806 
Q 1041 2509 991 1931 
L 2791 1931 
z
" transform="scale(0.015625)"/>
      <path id="DejaVuSerif-74" d="M 691 2988 
L 184 2988 
L 184 3322 
L 691 3322 
L 691 4353 
L 1269 4353 
L 1269 3322 
L 2350 3322 
L 2350 2988 
L 1269 2988 
L 1269 878 
Q 1269 456 1350 337 
Q 1431 219 1650 219 
Q 1875 219 1978 351 
Q 2081 484 2088 781 
L 2522 781 
Q 2497 328 2275 118 
Q 2053 -91 1600 -91 
Q 1103 -91 897 129 
Q 691 350 691 878 
L 691 2988 
z
" transform="scale(0.015625)"/>
      <path id="DejaVuSerif-20" transform="scale(0.015625)"/>
      <path id="Cmmi10-6e" d="M 494 109 
Q 494 147 500 166 
L 978 2075 
Q 1025 2253 1025 2388 
Q 1025 2663 838 2663 
Q 638 2663 541 2423 
Q 444 2184 353 1819 
Q 353 1800 334 1789 
Q 316 1778 300 1778 
L 225 1778 
Q 203 1778 187 1801 
Q 172 1825 172 1844 
Q 241 2122 305 2315 
Q 369 2509 505 2668 
Q 641 2828 844 2828 
Q 1084 2828 1268 2676 
Q 1453 2525 1453 2291 
Q 1644 2541 1900 2684 
Q 2156 2828 2444 2828 
Q 2672 2828 2837 2750 
Q 3003 2672 3095 2514 
Q 3188 2356 3188 2138 
Q 3188 1875 3070 1503 
Q 2953 1131 2778 672 
Q 2688 463 2688 288 
Q 2688 97 2834 97 
Q 3084 97 3251 365 
Q 3419 634 3488 941 
Q 3500 978 3541 978 
L 3616 978 
Q 3641 978 3658 962 
Q 3675 947 3675 922 
Q 3675 916 3669 903 
Q 3581 541 3364 234 
Q 3147 -72 2822 -72 
Q 2597 -72 2437 83 
Q 2278 238 2278 459 
Q 2278 578 2328 709 
Q 2409 919 2514 1209 
Q 2619 1500 2686 1765 
Q 2753 2031 2753 2234 
Q 2753 2413 2679 2538 
Q 2606 2663 2431 2663 
Q 2197 2663 2000 2559 
Q 1803 2456 1656 2286 
Q 1509 2116 1388 1881 
L 953 141 
Q 931 53 854 -9 
Q 778 -72 684 -72 
Q 606 -72 550 -22 
Q 494 28 494 109 
z
" transform="scale(0.015625)"/>
      <path id="DejaVuSerif-62" d="M 738 331 
L 738 4531 
L 184 4531 
L 184 4863 
L 1313 4863 
L 1313 2803 
Q 1481 3116 1742 3264 
Q 2003 3413 2388 3413 
Q 3000 3413 3387 2928 
Q 3775 2444 3775 1663 
Q 3775 881 3387 395 
Q 3000 -91 2388 -91 
Q 2003 -91 1742 57 
Q 1481 206 1313 519 
L 1313 0 
L 184 0 
L 184 331 
L 738 331 
z
M 1313 1497 
Q 1313 897 1542 583 
Q 1772 269 2209 269 
Q 2650 269 2876 622 
Q 3103 975 3103 1663 
Q 3103 2353 2876 2703 
Q 2650 3053 2209 3053 
Q 1772 3053 1542 2737 
Q 1313 2422 1313 1825 
L 1313 1497 
z
" transform="scale(0.015625)"/>
      <path id="DejaVuSerif-61" d="M 2547 1044 
L 2547 1747 
L 1806 1747 
Q 1378 1747 1168 1562 
Q 959 1378 959 997 
Q 959 650 1171 447 
Q 1384 244 1747 244 
Q 2106 244 2326 466 
Q 2547 688 2547 1044 
z
M 3122 2075 
L 3122 331 
L 3634 331 
L 3634 0 
L 2547 0 
L 2547 359 
Q 2356 128 2106 18 
Q 1856 -91 1522 -91 
Q 969 -91 644 203 
Q 319 497 319 997 
Q 319 1513 691 1797 
Q 1063 2081 1741 2081 
L 2547 2081 
L 2547 2309 
Q 2547 2688 2317 2895 
Q 2088 3103 1672 3103 
Q 1328 3103 1125 2947 
Q 922 2791 872 2484 
L 575 2484 
L 575 3156 
Q 875 3284 1158 3348 
Q 1441 3413 1709 3413 
Q 2400 3413 2761 3070 
Q 3122 2728 3122 2075 
z
" transform="scale(0.015625)"/>
      <path id="DejaVuSerif-70" d="M 1313 1825 
L 1313 1497 
Q 1313 897 1542 583 
Q 1772 269 2209 269 
Q 2650 269 2876 622 
Q 3103 975 3103 1663 
Q 3103 2353 2876 2703 
Q 2650 3053 2209 3053 
Q 1772 3053 1542 2737 
Q 1313 2422 1313 1825 
z
M 738 2988 
L 184 2988 
L 184 3322 
L 1313 3322 
L 1313 2803 
Q 1481 3116 1742 3264 
Q 2003 3413 2388 3413 
Q 3000 3413 3387 2928 
Q 3775 2444 3775 1663 
Q 3775 881 3387 395 
Q 3000 -91 2388 -91 
Q 2003 -91 1742 57 
Q 1481 206 1313 519 
L 1313 -997 
L 1856 -997 
L 1856 -1331 
L 184 -1331 
L 184 -997 
L 738 -997 
L 738 2988 
z
" transform="scale(0.015625)"/>
      <path id="DejaVuSerif-6f" d="M 1925 219 
Q 2388 219 2623 584 
Q 2859 950 2859 1663 
Q 2859 2375 2623 2739 
Q 2388 3103 1925 3103 
Q 1463 3103 1227 2739 
Q 991 2375 991 1663 
Q 991 950 1228 584 
Q 1466 219 1925 219 
z
M 1925 -91 
Q 1200 -91 759 389 
Q 319 869 319 1663 
Q 319 2456 758 2934 
Q 1197 3413 1925 3413 
Q 2653 3413 3092 2934 
Q 3531 2456 3531 1663 
Q 3531 869 3092 389 
Q 2653 -91 1925 -91 
z
" transform="scale(0.015625)"/>
      <path id="DejaVuSerif-73" d="M 359 184 
L 359 959 
L 691 959 
Q 703 588 923 403 
Q 1144 219 1575 219 
Q 1963 219 2166 364 
Q 2369 509 2369 788 
Q 2369 1006 2220 1140 
Q 2072 1275 1594 1428 
L 1178 1569 
Q 750 1706 558 1912 
Q 366 2119 366 2438 
Q 366 2894 700 3153 
Q 1034 3413 1625 3413 
Q 1888 3413 2178 3344 
Q 2469 3275 2778 3144 
L 2778 2419 
L 2447 2419 
Q 2434 2741 2221 2922 
Q 2009 3103 1644 3103 
Q 1281 3103 1095 2975 
Q 909 2847 909 2591 
Q 909 2381 1050 2254 
Q 1191 2128 1613 1997 
L 2069 1856 
Q 2541 1709 2748 1489 
Q 2956 1269 2956 922 
Q 2956 450 2595 179 
Q 2234 -91 1600 -91 
Q 1278 -91 972 -22 
Q 666 47 359 184 
z
" transform="scale(0.015625)"/>
      <path id="DejaVuSerif-69" d="M 622 4353 
Q 622 4497 726 4603 
Q 831 4709 978 4709 
Q 1122 4709 1226 4603 
Q 1331 4497 1331 4353 
Q 1331 4206 1228 4103 
Q 1125 4000 978 4000 
Q 831 4000 726 4103 
Q 622 4206 622 4353 
z
M 1356 331 
L 1900 331 
L 1900 0 
L 231 0 
L 231 331 
L 781 331 
L 781 2988 
L 231 2988 
L 231 3322 
L 1356 3322 
L 1356 331 
z
" transform="scale(0.015625)"/>
      <path id="DejaVuSerif-76" d="M 1581 0 
L 359 2988 
L -19 2988 
L -19 3322 
L 1509 3322 
L 1509 2988 
L 978 2988 
L 1913 703 
L 2847 2988 
L 2350 2988 
L 2350 3322 
L 3597 3322 
L 3597 2988 
L 3225 2988 
L 2003 0 
L 1581 0 
z
" transform="scale(0.015625)"/>
      <path id="DejaVuSerif-64" d="M 3359 331 
L 3909 331 
L 3909 0 
L 2784 0 
L 2784 519 
Q 2616 206 2355 57 
Q 2094 -91 1709 -91 
Q 1097 -91 708 395 
Q 319 881 319 1663 
Q 319 2444 706 2928 
Q 1094 3413 1709 3413 
Q 2094 3413 2355 3264 
Q 2616 3116 2784 2803 
L 2784 4531 
L 2241 4531 
L 2241 4863 
L 3359 4863 
L 3359 331 
z
M 2784 1497 
L 2784 1825 
Q 2784 2422 2554 2737 
Q 2325 3053 1888 3053 
Q 1444 3053 1217 2703 
Q 991 2353 991 1663 
Q 991 975 1217 622 
Q 1444 269 1888 269 
Q 2325 269 2554 583 
Q 2784 897 2784 1497 
z
" transform="scale(0.015625)"/>
      <path id="DejaVuSerif-6e" d="M 263 0 
L 263 331 
L 781 331 
L 781 2988 
L 231 2988 
L 231 3322 
L 1356 3322 
L 1356 2731 
Q 1516 3069 1770 3241 
Q 2025 3413 2363 3413 
Q 2913 3413 3172 3097 
Q 3431 2781 3431 2113 
L 3431 331 
L 3944 331 
L 3944 0 
L 2356 0 
L 2356 331 
L 2853 331 
L 2853 1931 
Q 2853 2541 2703 2767 
Q 2553 2994 2175 2994 
Q 1775 2994 1565 2701 
Q 1356 2409 1356 1850 
L 1356 331 
L 1856 331 
L 1856 0 
L 263 0 
z
" transform="scale(0.015625)"/>
      <path id="DejaVuSerif-67" d="M 3359 2988 
L 3359 72 
Q 3359 -644 2965 -1033 
Q 2572 -1422 1844 -1422 
Q 1516 -1422 1216 -1362 
Q 916 -1303 641 -1184 
L 641 -488 
L 941 -488 
Q 997 -813 1206 -963 
Q 1416 -1113 1806 -1113 
Q 2313 -1113 2548 -827 
Q 2784 -541 2784 72 
L 2784 519 
Q 2616 206 2355 57 
Q 2094 -91 1709 -91 
Q 1097 -91 708 395 
Q 319 881 319 1663 
Q 319 2444 706 2928 
Q 1094 3413 1709 3413 
Q 2094 3413 2355 3264 
Q 2616 3116 2784 2803 
L 2784 3322 
L 3909 3322 
L 3909 2988 
L 3359 2988 
z
M 2784 1825 
Q 2784 2422 2554 2737 
Q 2325 3053 1888 3053 
Q 1444 3053 1217 2703 
Q 991 2353 991 1663 
Q 991 975 1217 622 
Q 1444 269 1888 269 
Q 2325 269 2554 583 
Q 2784 897 2784 1497 
L 2784 1825 
z
" transform="scale(0.015625)"/>
      <path id="DejaVuSerif-72" d="M 3059 3328 
L 3059 2497 
L 2728 2497 
Q 2713 2744 2591 2866 
Q 2469 2988 2234 2988 
Q 1809 2988 1582 2694 
Q 1356 2400 1356 1850 
L 1356 331 
L 2022 331 
L 2022 0 
L 263 0 
L 263 331 
L 781 331 
L 781 2994 
L 231 2994 
L 231 3322 
L 1356 3322 
L 1356 2731 
Q 1525 3078 1790 3245 
Q 2056 3413 2438 3413 
Q 2578 3413 2733 3391 
Q 2888 3369 3059 3328 
z
" transform="scale(0.015625)"/>
      <path id="DejaVuSerif-6c" d="M 1313 331 
L 1856 331 
L 1856 0 
L 184 0 
L 184 331 
L 738 331 
L 738 4531 
L 184 4531 
L 184 4863 
L 1313 4863 
L 1313 331 
z
" transform="scale(0.015625)"/>
      <path id="Cmmi10-b5" d="M 1031 -72 
Q 741 -72 566 140 
Q 391 353 323 653 
Q 256 953 256 1247 
L 256 1253 
Q 256 1572 317 1915 
Q 378 2259 493 2601 
Q 609 2944 744 3213 
Q 838 3400 986 3631 
Q 1134 3863 1317 4064 
Q 1500 4266 1711 4389 
Q 1922 4513 2138 4513 
L 2144 4513 
Q 2375 4513 2529 4384 
Q 2684 4256 2770 4056 
Q 2856 3856 2890 3628 
Q 2925 3400 2925 3194 
Q 2925 2709 2794 2204 
Q 2663 1700 2431 1228 
Q 2344 1050 2189 809 
Q 2034 569 1861 378 
Q 1688 188 1472 58 
Q 1256 -72 1038 -72 
L 1031 -72 
z
M 1044 97 
Q 1256 97 1451 323 
Q 1647 550 1794 873 
Q 1941 1197 2052 1536 
Q 2163 1875 2216 2113 
L 909 2113 
Q 809 1709 753 1417 
Q 697 1125 697 844 
Q 697 97 1044 97 
z
M 959 2338 
L 2272 2338 
Q 2341 2619 2381 2808 
Q 2422 2997 2450 3206 
Q 2478 3416 2478 3597 
Q 2478 4347 2138 4347 
Q 1731 4347 1436 3692 
Q 1141 3038 959 2338 
z
" transform="scale(0.015625)"/>
      <path id="DejaVuSerif-75" d="M 2266 3322 
L 3341 3322 
L 3341 331 
L 3884 331 
L 3884 0 
L 2766 0 
L 2766 588 
Q 2606 256 2353 82 
Q 2100 -91 1766 -91 
Q 1213 -91 952 223 
Q 691 538 691 1209 
L 691 2988 
L 172 2988 
L 172 3322 
L 1269 3322 
L 1269 1388 
Q 1269 781 1417 556 
Q 1566 331 1947 331 
Q 2347 331 2556 625 
Q 2766 919 2766 1478 
L 2766 2988 
L 2266 2988 
L 2266 3322 
z
" transform="scale(0.015625)"/>
      <path id="DejaVuSerif-6d" d="M 3316 2675 
Q 3481 3041 3739 3227 
Q 3997 3413 4341 3413 
Q 4863 3413 5119 3089 
Q 5375 2766 5375 2113 
L 5375 331 
L 5894 331 
L 5894 0 
L 4300 0 
L 4300 331 
L 4800 331 
L 4800 2047 
Q 4800 2556 4650 2772 
Q 4500 2988 4153 2988 
Q 3769 2988 3567 2697 
Q 3366 2406 3366 1850 
L 3366 331 
L 3866 331 
L 3866 0 
L 2291 0 
L 2291 331 
L 2791 331 
L 2791 2069 
Q 2791 2566 2641 2777 
Q 2491 2988 2144 2988 
Q 1759 2988 1557 2697 
Q 1356 2406 1356 1850 
L 1356 331 
L 1856 331 
L 1856 0 
L 263 0 
L 263 331 
L 781 331 
L 781 2994 
L 231 2994 
L 231 3322 
L 1356 3322 
L 1356 2731 
Q 1516 3063 1762 3238 
Q 2009 3413 2322 3413 
Q 2709 3413 2968 3220 
Q 3228 3028 3316 2675 
z
" transform="scale(0.015625)"/>
      <path id="DejaVuSerif-63" d="M 3291 997 
Q 3169 466 2822 187 
Q 2475 -91 1925 -91 
Q 1200 -91 759 389 
Q 319 869 319 1663 
Q 319 2459 759 2936 
Q 1200 3413 1925 3413 
Q 2241 3413 2553 3339 
Q 2866 3266 3181 3116 
L 3181 2266 
L 2847 2266 
Q 2781 2703 2561 2903 
Q 2341 3103 1931 3103 
Q 1466 3103 1228 2742 
Q 991 2381 991 1663 
Q 991 944 1227 581 
Q 1463 219 1931 219 
Q 2303 219 2525 412 
Q 2747 606 2828 997 
L 3291 997 
z
" transform="scale(0.015625)"/>
      <path id="DejaVuSerif-68" d="M 263 0 
L 263 331 
L 781 331 
L 781 4531 
L 231 4531 
L 231 4863 
L 1356 4863 
L 1356 2731 
Q 1516 3069 1770 3241 
Q 2025 3413 2363 3413 
Q 2913 3413 3172 3097 
Q 3431 2781 3431 2113 
L 3431 331 
L 3944 331 
L 3944 0 
L 2356 0 
L 2356 331 
L 2853 331 
L 2853 1931 
Q 2853 2541 2704 2764 
Q 2556 2988 2175 2988 
Q 1775 2988 1565 2697 
Q 1356 2406 1356 1850 
L 1356 331 
L 1856 331 
L 1856 0 
L 263 0 
z
" transform="scale(0.015625)"/>
      <path id="Cmmi10-3d" d="M 359 -1472 
Q 359 -1453 366 -1447 
L 2591 4722 
Q 2603 4759 2634 4779 
Q 2666 4800 2706 4800 
Q 2763 4800 2798 4765 
Q 2834 4731 2834 4672 
L 2834 4647 
L 609 -1522 
Q 572 -1600 488 -1600 
Q 434 -1600 396 -1562 
Q 359 -1525 359 -1472 
z
" transform="scale(0.015625)"/>
      <path id="Cmmi10-bc" d="M 647 109 
Q 647 144 672 213 
Q 850 584 1004 942 
Q 1159 1300 1282 1639 
Q 1406 1978 1509 2363 
L 1100 2363 
Q 866 2363 662 2216 
Q 459 2069 325 1844 
Q 313 1819 288 1819 
L 213 1819 
Q 153 1819 153 1881 
Q 153 1894 166 1919 
Q 375 2275 614 2517 
Q 853 2759 1153 2759 
L 3475 2759 
Q 3541 2759 3587 2715 
Q 3634 2672 3634 2597 
Q 3634 2503 3567 2433 
Q 3500 2363 3406 2363 
L 2591 2363 
Q 2488 1859 2478 1381 
Q 2478 766 2694 269 
Q 2713 231 2713 191 
Q 2713 122 2672 62 
Q 2631 3 2567 -34 
Q 2503 -72 2431 -72 
Q 2263 -72 2200 203 
Q 2138 478 2138 738 
Q 2138 1103 2200 1442 
Q 2263 1781 2400 2363 
L 1703 2363 
Q 1197 313 1094 103 
Q 1003 -72 844 -72 
Q 766 -72 706 -20 
Q 647 31 647 109 
z
" transform="scale(0.015625)"/>
      <path id="DejaVuSerif-2e" d="M 603 325 
Q 603 500 722 622 
Q 841 744 1019 744 
Q 1191 744 1312 622 
Q 1434 500 1434 325 
Q 1434 153 1312 31 
Q 1191 -91 1019 -91 
Q 841 -91 722 29 
Q 603 150 603 325 
z
" transform="scale(0.015625)"/>
      <path id="DejaVuSerif-53" d="M 594 225 
L 594 1288 
L 953 1284 
Q 969 753 1261 498 
Q 1553 244 2150 244 
Q 2706 244 2998 464 
Q 3291 684 3291 1106 
Q 3291 1444 3114 1625 
Q 2938 1806 2369 1978 
L 1753 2163 
Q 1084 2366 811 2669 
Q 538 2972 538 3500 
Q 538 4094 959 4422 
Q 1381 4750 2144 4750 
Q 2469 4750 2856 4679 
Q 3244 4609 3681 4475 
L 3681 3481 
L 3328 3481 
Q 3275 3975 2998 4195 
Q 2722 4416 2156 4416 
Q 1663 4416 1405 4214 
Q 1147 4013 1147 3628 
Q 1147 3294 1340 3103 
Q 1534 2913 2163 2725 
L 2741 2553 
Q 3375 2363 3645 2067 
Q 3916 1772 3916 1275 
Q 3916 597 3481 253 
Q 3047 -91 2188 -91 
Q 1803 -91 1404 -12 
Q 1006 66 594 225 
z
" transform="scale(0.015625)"/>
      <path id="Cmmi10-61" d="M 1113 -72 
Q 709 -72 476 233 
Q 244 538 244 953 
Q 244 1363 456 1803 
Q 669 2244 1030 2536 
Q 1391 2828 1806 2828 
Q 1997 2828 2147 2725 
Q 2297 2622 2381 2444 
Q 2453 2700 2663 2700 
Q 2744 2700 2798 2651 
Q 2853 2603 2853 2522 
Q 2853 2503 2851 2493 
Q 2850 2484 2847 2472 
L 2400 684 
Q 2356 494 2356 372 
Q 2356 97 2541 97 
Q 2741 97 2845 351 
Q 2950 606 3022 941 
Q 3034 978 3072 978 
L 3150 978 
Q 3175 978 3190 956 
Q 3206 934 3206 916 
Q 3094 469 2961 198 
Q 2828 -72 2528 -72 
Q 2313 -72 2147 54 
Q 1981 181 1941 391 
Q 1528 -72 1113 -72 
z
M 1119 97 
Q 1350 97 1567 270 
Q 1784 444 1941 678 
Q 1947 684 1947 697 
L 2291 2088 
L 2297 2106 
Q 2259 2334 2132 2498 
Q 2006 2663 1791 2663 
Q 1575 2663 1389 2486 
Q 1203 2309 1075 2069 
Q 950 1813 836 1366 
Q 722 919 722 672 
Q 722 450 817 273 
Q 913 97 1119 97 
z
" transform="scale(0.015625)"/>
      <path id="Cmmi10-6b" d="M 341 116 
Q 341 153 347 172 
L 1275 3872 
Q 1300 3981 1306 4044 
Q 1306 4147 891 4147 
Q 825 4147 825 4231 
Q 828 4247 839 4287 
Q 850 4328 867 4350 
Q 884 4372 916 4372 
L 1778 4441 
L 1797 4441 
Q 1797 4434 1819 4423 
Q 1841 4413 1844 4409 
Q 1856 4378 1856 4359 
L 1184 1684 
Q 1416 1781 1767 2145 
Q 2119 2509 2317 2668 
Q 2516 2828 2816 2828 
Q 2994 2828 3119 2706 
Q 3244 2584 3244 2406 
Q 3244 2294 3197 2198 
Q 3150 2103 3065 2043 
Q 2981 1984 2869 1984 
Q 2766 1984 2695 2048 
Q 2625 2113 2625 2216 
Q 2625 2369 2733 2473 
Q 2841 2578 2994 2578 
Q 2931 2663 2803 2663 
Q 2613 2663 2436 2553 
Q 2259 2444 2054 2239 
Q 1850 2034 1681 1864 
Q 1513 1694 1369 1606 
Q 1747 1563 2025 1408 
Q 2303 1253 2303 934 
Q 2303 869 2278 769 
Q 2222 528 2222 384 
Q 2222 97 2419 97 
Q 2650 97 2770 350 
Q 2891 603 2969 941 
Q 2981 978 3022 978 
L 3097 978 
Q 3122 978 3139 962 
Q 3156 947 3156 922 
Q 3156 916 3150 903 
Q 2909 -72 2406 -72 
Q 2225 -72 2086 12 
Q 1947 97 1872 242 
Q 1797 388 1797 569 
Q 1797 672 1825 781 
Q 1844 856 1844 922 
Q 1844 1169 1625 1297 
Q 1406 1425 1125 1453 
L 800 147 
Q 775 50 703 -11 
Q 631 -72 538 -72 
Q 456 -72 398 -17 
Q 341 38 341 116 
z
" transform="scale(0.015625)"/>
      <path id="Cmr10-3d" d="M 481 850 
Q 428 850 393 890 
Q 359 931 359 978 
Q 359 1031 393 1068 
Q 428 1106 481 1106 
L 4500 1106 
Q 4547 1106 4581 1068 
Q 4616 1031 4616 978 
Q 4616 931 4581 890 
Q 4547 850 4500 850 
L 481 850 
z
M 481 2094 
Q 428 2094 393 2131 
Q 359 2169 359 2222 
Q 359 2269 393 2309 
Q 428 2350 481 2350 
L 4500 2350 
Q 4547 2350 4581 2309 
Q 4616 2269 4616 2222 
Q 4616 2169 4581 2131 
Q 4547 2094 4500 2094 
L 481 2094 
z
" transform="scale(0.015625)"/>
      <path id="Cmr10-74" d="M 653 769 
L 653 2534 
L 122 2534 
L 122 2700 
Q 541 2700 737 3090 
Q 934 3481 934 3938 
L 1119 3938 
L 1119 2759 
L 2022 2759 
L 2022 2534 
L 1119 2534 
L 1119 781 
Q 1119 516 1208 316 
Q 1297 116 1528 116 
Q 1747 116 1844 327 
Q 1941 538 1941 781 
L 1941 1159 
L 2125 1159 
L 2125 769 
Q 2125 569 2051 373 
Q 1978 178 1834 53 
Q 1691 -72 1484 -72 
Q 1100 -72 876 158 
Q 653 388 653 769 
z
" transform="scale(0.015625)"/>
      <path id="Cmr10-61" d="M 256 628 
Q 256 1009 556 1248 
Q 856 1488 1276 1586 
Q 1697 1684 2075 1684 
L 2075 1947 
Q 2075 2131 1994 2304 
Q 1913 2478 1759 2589 
Q 1606 2700 1422 2700 
Q 997 2700 775 2509 
Q 897 2509 976 2417 
Q 1056 2325 1056 2203 
Q 1056 2075 965 1984 
Q 875 1894 750 1894 
Q 622 1894 531 1984 
Q 441 2075 441 2203 
Q 441 2541 747 2705 
Q 1053 2869 1422 2869 
Q 1681 2869 1943 2758 
Q 2206 2647 2373 2440 
Q 2541 2234 2541 1959 
L 2541 519 
Q 2541 394 2594 289 
Q 2647 184 2759 184 
Q 2866 184 2917 290 
Q 2969 397 2969 519 
L 2969 928 
L 3156 928 
L 3156 519 
Q 3156 375 3081 245 
Q 3006 116 2879 39 
Q 2753 -38 2606 -38 
Q 2419 -38 2283 107 
Q 2147 253 2131 453 
Q 2013 213 1781 70 
Q 1550 -72 1288 -72 
Q 1044 -72 808 0 
Q 572 72 414 226 
Q 256 381 256 628 
z
M 775 628 
Q 775 403 940 250 
Q 1106 97 1331 97 
Q 1538 97 1706 200 
Q 1875 303 1975 481 
Q 2075 659 2075 856 
L 2075 1522 
Q 1784 1522 1479 1426 
Q 1175 1331 975 1128 
Q 775 925 775 628 
z
" transform="scale(0.015625)"/>
      <path id="Cmr10-6e" d="M 191 0 
L 191 225 
Q 409 225 550 259 
Q 691 294 691 428 
L 691 2175 
Q 691 2347 639 2423 
Q 588 2500 491 2517 
Q 394 2534 191 2534 
L 191 2759 
L 1119 2828 
L 1119 2203 
Q 1247 2478 1498 2653 
Q 1750 2828 2047 2828 
Q 2491 2828 2714 2615 
Q 2938 2403 2938 1966 
L 2938 428 
Q 2938 294 3078 259 
Q 3219 225 3438 225 
L 3438 0 
L 1972 0 
L 1972 225 
Q 2191 225 2331 259 
Q 2472 294 2472 428 
L 2472 1947 
Q 2472 2259 2381 2461 
Q 2291 2663 2009 2663 
Q 1638 2663 1398 2366 
Q 1159 2069 1159 1691 
L 1159 428 
Q 1159 294 1300 259 
Q 1441 225 1656 225 
L 1656 0 
L 191 0 
z
" transform="scale(0.015625)"/>
      <path id="Cmr10-28" d="M 1984 -1588 
Q 1628 -1306 1370 -942 
Q 1113 -578 948 -165 
Q 784 247 703 697 
Q 622 1147 622 1600 
Q 622 2059 703 2509 
Q 784 2959 951 3375 
Q 1119 3791 1378 4153 
Q 1638 4516 1984 4788 
Q 1984 4800 2016 4800 
L 2075 4800 
Q 2094 4800 2109 4783 
Q 2125 4766 2125 4744 
Q 2125 4716 2113 4703 
Q 1800 4397 1592 4047 
Q 1384 3697 1257 3301 
Q 1131 2906 1075 2482 
Q 1019 2059 1019 1600 
Q 1019 -434 2106 -1491 
Q 2125 -1509 2125 -1544 
Q 2125 -1559 2108 -1579 
Q 2091 -1600 2075 -1600 
L 2016 -1600 
Q 1984 -1600 1984 -1588 
z
" transform="scale(0.015625)"/>
      <path id="Cmr10-2b" d="M 481 1472 
Q 428 1472 393 1512 
Q 359 1553 359 1600 
Q 359 1647 393 1687 
Q 428 1728 481 1728 
L 2363 1728 
L 2363 3616 
Q 2363 3666 2400 3698 
Q 2438 3731 2491 3731 
Q 2538 3731 2578 3698 
Q 2619 3666 2619 3616 
L 2619 1728 
L 4500 1728 
Q 4547 1728 4581 1687 
Q 4616 1647 4616 1600 
Q 4616 1553 4581 1512 
Q 4547 1472 4500 1472 
L 2619 1472 
L 2619 -416 
Q 2619 -466 2578 -498 
Q 2538 -531 2491 -531 
Q 2438 -531 2400 -498 
Q 2363 -466 2363 -416 
L 2363 1472 
L 481 1472 
z
" transform="scale(0.015625)"/>
      <path id="Cmr10-29" d="M 416 -1600 
Q 359 -1600 359 -1544 
Q 359 -1516 372 -1503 
Q 1466 -434 1466 1600 
Q 1466 3634 384 4691 
Q 359 4706 359 4744 
Q 359 4766 376 4783 
Q 394 4800 416 4800 
L 475 4800 
Q 494 4800 506 4788 
Q 966 4425 1272 3906 
Q 1578 3388 1720 2800 
Q 1863 2213 1863 1600 
Q 1863 1147 1786 708 
Q 1709 269 1542 -157 
Q 1375 -584 1119 -945 
Q 863 -1306 506 -1588 
Q 494 -1600 475 -1600 
L 416 -1600 
z
" transform="scale(0.015625)"/>
      <path id="DejaVuSerif-2c" d="M 231 -622 
Q 525 -406 662 -114 
Q 800 178 800 594 
L 800 709 
L 1416 709 
Q 1391 175 1164 -208 
Q 938 -591 481 -872 
L 231 -622 
z
" transform="scale(0.015625)"/>
      <path id="Cmr10-31" d="M 594 0 
L 594 225 
Q 1394 225 1394 428 
L 1394 3788 
Q 1063 3628 556 3628 
L 556 3853 
Q 1341 3853 1741 4263 
L 1831 4263 
Q 1853 4263 1873 4245 
Q 1894 4228 1894 4206 
L 1894 428 
Q 1894 225 2694 225 
L 2694 0 
L 594 0 
z
" transform="scale(0.015625)"/>
      <path id="Cmmi10-3b" d="M 634 -1153 
Q 634 -1125 659 -1100 
Q 891 -878 1019 -587 
Q 1147 -297 1147 25 
L 1147 103 
Q 1044 0 891 0 
Q 744 0 641 103 
Q 538 206 538 353 
Q 538 503 641 603 
Q 744 703 891 703 
Q 1119 703 1216 492 
Q 1313 281 1313 25 
Q 1313 -331 1170 -651 
Q 1028 -972 769 -1228 
Q 744 -1241 728 -1241 
Q 697 -1241 665 -1212 
Q 634 -1184 634 -1153 
z
" transform="scale(0.015625)"/>
      <path id="Cmr10-32" d="M 319 0 
L 319 172 
Q 319 188 331 206 
L 1325 1306 
Q 1550 1550 1690 1715 
Q 1831 1881 1968 2097 
Q 2106 2313 2186 2536 
Q 2266 2759 2266 3009 
Q 2266 3272 2169 3511 
Q 2072 3750 1880 3894 
Q 1688 4038 1416 4038 
Q 1138 4038 916 3870 
Q 694 3703 603 3438 
Q 628 3444 672 3444 
Q 816 3444 917 3347 
Q 1019 3250 1019 3097 
Q 1019 2950 917 2848 
Q 816 2747 672 2747 
Q 522 2747 420 2851 
Q 319 2956 319 3097 
Q 319 3338 409 3548 
Q 500 3759 670 3923 
Q 841 4088 1055 4175 
Q 1269 4263 1509 4263 
Q 1875 4263 2190 4108 
Q 2506 3953 2690 3670 
Q 2875 3388 2875 3009 
Q 2875 2731 2753 2481 
Q 2631 2231 2440 2026 
Q 2250 1822 1953 1562 
Q 1656 1303 1563 1216 
L 838 519 
L 1453 519 
Q 1906 519 2211 526 
Q 2516 534 2534 550 
Q 2609 631 2688 1141 
L 2875 1141 
L 2694 0 
L 319 0 
z
" transform="scale(0.015625)"/>
      <path id="STIXGeneral-Regular-2026" d="M 5683 275 
Q 5683 134 5577 32 
Q 5472 -70 5325 -70 
Q 5178 -70 5075 32 
Q 4973 134 4973 281 
Q 4973 429 5078 534 
Q 5184 640 5331 640 
Q 5472 640 5577 531 
Q 5683 422 5683 275 
z
M 3552 275 
Q 3552 134 3446 32 
Q 3341 -70 3193 -70 
Q 3046 -70 2944 32 
Q 2842 134 2842 281 
Q 2842 429 2947 534 
Q 3053 640 3200 640 
Q 3341 640 3446 531 
Q 3552 422 3552 275 
z
M 1421 275 
Q 1421 134 1315 32 
Q 1210 -70 1062 -70 
Q 915 -70 812 32 
Q 710 134 710 281 
Q 710 429 816 534 
Q 922 640 1069 640 
Q 1210 640 1315 531 
Q 1421 422 1421 275 
z
" transform="scale(0.015625)"/>
      <path id="DejaVuSerif-50" d="M 1581 2375 
L 2406 2375 
Q 2872 2375 3115 2626 
Q 3359 2878 3359 3353 
Q 3359 3831 3115 4081 
Q 2872 4331 2406 4331 
L 1581 4331 
L 1581 2375 
z
M 353 0 
L 353 331 
L 947 331 
L 947 4331 
L 353 4331 
L 353 4666 
L 2559 4666 
Q 3259 4666 3668 4311 
Q 4078 3956 4078 3353 
Q 4078 2753 3668 2397 
Q 3259 2041 2559 2041 
L 1581 2041 
L 1581 331 
L 2303 331 
L 2303 0 
L 353 0 
z
" transform="scale(0.015625)"/>
      <path id="STIXGeneral-Regular-22ef" d="M 5235 1619 
Q 5235 1453 5123 1331 
Q 5011 1210 4832 1210 
Q 4646 1210 4534 1322 
Q 4422 1434 4422 1619 
Q 4422 1792 4547 1907 
Q 4672 2022 4832 2022 
Q 4992 2022 5113 1907 
Q 5235 1792 5235 1619 
z
M 3366 1619 
Q 3366 1453 3254 1331 
Q 3142 1210 2963 1210 
Q 2778 1210 2666 1322 
Q 2554 1434 2554 1619 
Q 2554 1792 2678 1907 
Q 2803 2022 2963 2022 
Q 3123 2022 3244 1907 
Q 3366 1792 3366 1619 
z
M 1504 1619 
Q 1504 1453 1392 1331 
Q 1280 1210 1101 1210 
Q 915 1210 803 1322 
Q 691 1434 691 1619 
Q 691 1792 816 1907 
Q 941 2022 1101 2022 
Q 1261 2022 1382 1907 
Q 1504 1792 1504 1619 
z
" transform="scale(0.015625)"/>
     </defs>
     <use xlink:href="#DejaVuSerif-4c" transform="translate(0 0.236563)"/>
     <use xlink:href="#DejaVuSerif-65" transform="translate(66.40625 0.236563)"/>
     <use xlink:href="#DejaVuSerif-74" transform="translate(125.585938 0.236563)"/>
     <use xlink:href="#DejaVuSerif-20" transform="translate(165.771484 0.236563)"/>
     <use xlink:href="#Cmmi10-6e" transform="translate(197.558594 0.236563)"/>
     <use xlink:href="#DejaVuSerif-20" transform="translate(257.568359 0.236563)"/>
     <use xlink:href="#DejaVuSerif-62" transform="translate(289.355469 0.236563)"/>
     <use xlink:href="#DejaVuSerif-65" transform="translate(353.369141 0.236563)"/>
     <use xlink:href="#DejaVuSerif-20" transform="translate(412.548828 0.236563)"/>
     <use xlink:href="#DejaVuSerif-61" transform="translate(444.335938 0.236563)"/>
     <use xlink:href="#DejaVuSerif-20" transform="translate(503.955078 0.236563)"/>
     <use xlink:href="#DejaVuSerif-70" transform="translate(535.742188 0.236563)"/>
     <use xlink:href="#DejaVuSerif-6f" transform="translate(599.755859 0.236563)"/>
     <use xlink:href="#DejaVuSerif-73" transform="translate(659.960938 0.236563)"/>
     <use xlink:href="#DejaVuSerif-69" transform="translate(711.279297 0.236563)"/>
     <use xlink:href="#DejaVuSerif-74" transform="translate(743.261719 0.236563)"/>
     <use xlink:href="#DejaVuSerif-69" transform="translate(783.447266 0.236563)"/>
     <use xlink:href="#DejaVuSerif-76" transform="translate(815.429688 0.236563)"/>
     <use xlink:href="#DejaVuSerif-65" transform="translate(871.923828 0.236563)"/>
     <use xlink:href="#DejaVuSerif-20" transform="translate(931.103516 0.236563)"/>
     <use xlink:href="#DejaVuSerif-6f" transform="translate(962.890625 0.236563)"/>
     <use xlink:href="#DejaVuSerif-64" transform="translate(1023.095703 0.236563)"/>
     <use xlink:href="#DejaVuSerif-64" transform="translate(1087.109375 0.236563)"/>
     <use xlink:href="#DejaVuSerif-20" transform="translate(1151.123047 0.236563)"/>
     <use xlink:href="#DejaVuSerif-69" transform="translate(1182.910156 0.236563)"/>
     <use xlink:href="#DejaVuSerif-6e" transform="translate(1214.892578 0.236563)"/>
     <use xlink:href="#DejaVuSerif-74" transform="translate(1279.296875 0.236563)"/>
     <use xlink:href="#DejaVuSerif-65" transform="translate(1319.482422 0.236563)"/>
     <use xlink:href="#DejaVuSerif-67" transform="translate(1378.662109 0.236563)"/>
     <use xlink:href="#DejaVuSerif-65" transform="translate(1442.675781 0.236563)"/>
     <use xlink:href="#DejaVuSerif-72" transform="translate(1501.855469 0.236563)"/>
     <use xlink:href="#DejaVuSerif-20" transform="translate(1549.658203 0.236563)"/>
     <use xlink:href="#DejaVuSerif-61" transform="translate(1581.445312 0.236563)"/>
     <use xlink:href="#DejaVuSerif-6e" transform="translate(1641.064453 0.236563)"/>
     <use xlink:href="#DejaVuSerif-64" transform="translate(1705.46875 0.236563)"/>
     <use xlink:href="#DejaVuSerif-20" transform="translate(1769.482422 0.236563)"/>
     <use xlink:href="#DejaVuSerif-6c" transform="translate(1801.269531 0.236563)"/>
     <use xlink:href="#DejaVuSerif-65" transform="translate(1833.251953 0.236563)"/>
     <use xlink:href="#DejaVuSerif-74" transform="translate(1892.431641 0.236563)"/>
     <use xlink:href="#DejaVuSerif-20" transform="translate(1932.617188 0.236563)"/>
     <use xlink:href="#Cmmi10-b5" transform="translate(1964.404297 0.236563)"/>
     <use xlink:href="#DejaVuSerif-20" transform="translate(2011.328125 0.236563)"/>
     <use xlink:href="#DejaVuSerif-62" transform="translate(2043.115234 0.236563)"/>
     <use xlink:href="#DejaVuSerif-65" transform="translate(2107.128906 0.236563)"/>
     <use xlink:href="#DejaVuSerif-20" transform="translate(2166.308594 0.236563)"/>
     <use xlink:href="#DejaVuSerif-61" transform="translate(2198.095703 0.236563)"/>
     <use xlink:href="#DejaVuSerif-20" transform="translate(2257.714844 0.236563)"/>
     <use xlink:href="#DejaVuSerif-72" transform="translate(2289.501953 0.236563)"/>
     <use xlink:href="#DejaVuSerif-65" transform="translate(2337.304688 0.236563)"/>
     <use xlink:href="#DejaVuSerif-61" transform="translate(2396.484375 0.236563)"/>
     <use xlink:href="#DejaVuSerif-6c" transform="translate(2456.103516 0.236563)"/>
     <use xlink:href="#DejaVuSerif-20" transform="translate(2488.085938 0.236563)"/>
     <use xlink:href="#DejaVuSerif-6e" transform="translate(2519.873047 0.236563)"/>
     <use xlink:href="#DejaVuSerif-75" transform="translate(2584.277344 0.236563)"/>
     <use xlink:href="#DejaVuSerif-6d" transform="translate(2648.681641 0.236563)"/>
     <use xlink:href="#DejaVuSerif-62" transform="translate(2743.505859 0.236563)"/>
     <use xlink:href="#DejaVuSerif-65" transform="translate(2807.519531 0.236563)"/>
     <use xlink:href="#DejaVuSerif-72" transform="translate(2866.699219 0.236563)"/>
     <use xlink:href="#DejaVuSerif-20" transform="translate(2914.501953 0.236563)"/>
     <use xlink:href="#DejaVuSerif-73" transform="translate(2946.289062 0.236563)"/>
     <use xlink:href="#DejaVuSerif-75" transform="translate(2997.607422 0.236563)"/>
     <use xlink:href="#DejaVuSerif-63" transform="translate(3062.011719 0.236563)"/>
     <use xlink:href="#DejaVuSerif-68" transform="translate(3118.017578 0.236563)"/>
     <use xlink:href="#DejaVuSerif-20" transform="translate(3182.421875 0.236563)"/>
     <use xlink:href="#DejaVuSerif-74" transform="translate(3214.208984 0.236563)"/>
     <use xlink:href="#DejaVuSerif-68" transform="translate(3254.394531 0.236563)"/>
     <use xlink:href="#DejaVuSerif-61" transform="translate(3318.798828 0.236563)"/>
     <use xlink:href="#DejaVuSerif-74" transform="translate(3378.417969 0.236563)"/>
     <use xlink:href="#DejaVuSerif-20" transform="translate(3418.603516 0.236563)"/>
     <use xlink:href="#Cmmi10-b5" transform="translate(3450.390625 0.236563)"/>
     <use xlink:href="#Cmmi10-3d" transform="translate(3497.314453 0.236563)"/>
     <use xlink:href="#Cmmi10-bc" transform="translate(3547.314453 0.236563)"/>
     <use xlink:href="#DejaVuSerif-20" transform="translate(3604.296875 0.236563)"/>
     <use xlink:href="#DejaVuSerif-69" transform="translate(3636.083984 0.236563)"/>
     <use xlink:href="#DejaVuSerif-73" transform="translate(3668.066406 0.236563)"/>
     <use xlink:href="#DejaVuSerif-20" transform="translate(3719.384766 0.236563)"/>
     <use xlink:href="#DejaVuSerif-69" transform="translate(3751.171875 0.236563)"/>
     <use xlink:href="#DejaVuSerif-72" transform="translate(3783.154297 0.236563)"/>
     <use xlink:href="#DejaVuSerif-72" transform="translate(3830.957031 0.236563)"/>
     <use xlink:href="#DejaVuSerif-61" transform="translate(3878.759766 0.236563)"/>
     <use xlink:href="#DejaVuSerif-74" transform="translate(3938.378906 0.236563)"/>
     <use xlink:href="#DejaVuSerif-69" transform="translate(3978.564453 0.236563)"/>
     <use xlink:href="#DejaVuSerif-6f" transform="translate(4010.546875 0.236563)"/>
     <use xlink:href="#DejaVuSerif-6e" transform="translate(4070.751953 0.236563)"/>
     <use xlink:href="#DejaVuSerif-61" transform="translate(4135.15625 0.236563)"/>
     <use xlink:href="#DejaVuSerif-6c" transform="translate(4194.775391 0.236563)"/>
     <use xlink:href="#DejaVuSerif-2e" transform="translate(4226.757812 0.236563)"/>
     <use xlink:href="#DejaVuSerif-20" transform="translate(4258.544922 0.236563)"/>
     <use xlink:href="#DejaVuSerif-53" transform="translate(4290.332031 0.236563)"/>
     <use xlink:href="#DejaVuSerif-65" transform="translate(4358.837891 0.236563)"/>
     <use xlink:href="#DejaVuSerif-74" transform="translate(4418.017578 0.236563)"/>
     <use xlink:href="#DejaVuSerif-20" transform="translate(4458.203125 0.236563)"/>
     <use xlink:href="#Cmmi10-61" transform="translate(4489.990234 0.236563)"/>
     <use xlink:href="#Cmmi10-6b" transform="translate(4542.773438 -16.769687) scale(0.7)"/>
     <use xlink:href="#Cmr10-3d" transform="translate(4603.110742 0.236563)"/>
     <use xlink:href="#Cmr10-74" transform="translate(4698.354883 0.236563)"/>
     <use xlink:href="#Cmr10-61" transform="translate(4737.173242 0.236563)"/>
     <use xlink:href="#Cmr10-6e" transform="translate(4787.173242 0.236563)"/>
     <use xlink:href="#Cmr10-28" transform="translate(4842.69082 0.236563)"/>
     <use xlink:href="#Cmmi10-b5" transform="translate(4881.50918 0.236563)"/>
     <use xlink:href="#Cmr10-2b" transform="translate(4945.991602 0.236563)"/>
     <use xlink:href="#Cmmi10-6b" transform="translate(5041.235742 0.236563)"/>
     <use xlink:href="#Cmmi10-bc" transform="translate(5093.237695 0.236563)"/>
     <use xlink:href="#Cmmi10-3d" transform="translate(5150.220117 0.236563)"/>
     <use xlink:href="#Cmmi10-6e" transform="translate(5200.220117 0.236563)"/>
     <use xlink:href="#Cmr10-29" transform="translate(5260.229883 0.236563)"/>
     <use xlink:href="#DejaVuSerif-2c" transform="translate(5299.048242 0.236563)"/>
     <use xlink:href="#DejaVuSerif-20" transform="translate(5330.835352 0.236563)"/>
     <use xlink:href="#Cmmi10-6b" transform="translate(5362.622461 0.236563)"/>
     <use xlink:href="#Cmr10-3d" transform="translate(5432.183008 0.236563)"/>
     <use xlink:href="#Cmr10-31" transform="translate(5527.427148 0.236563)"/>
     <use xlink:href="#Cmmi10-3b" transform="translate(5577.427148 0.236563)"/>
     <use xlink:href="#Cmr10-32" transform="translate(5622.671289 0.236563)"/>
     <use xlink:href="#Cmmi10-3b" transform="translate(5672.671289 0.236563)"/>
     <use xlink:href="#STIXGeneral-Regular-2026" transform="translate(5735.474023 0.236563)"/>
     <use xlink:href="#Cmmi10-3b" transform="translate(5853.032602 0.236563)"/>
     <use xlink:href="#Cmmi10-6e" transform="translate(5898.276743 0.236563)"/>
     <use xlink:href="#DejaVuSerif-2e" transform="translate(5958.286508 0.236563)"/>
     <use xlink:href="#DejaVuSerif-20" transform="translate(5990.073618 0.236563)"/>
     <use xlink:href="#DejaVuSerif-50" transform="translate(6021.860727 0.236563)"/>
     <use xlink:href="#DejaVuSerif-72" transform="translate(6089.145883 0.236563)"/>
     <use xlink:href="#DejaVuSerif-6f" transform="translate(6136.948618 0.236563)"/>
     <use xlink:href="#DejaVuSerif-76" transform="translate(6197.153696 0.236563)"/>
     <use xlink:href="#DejaVuSerif-65" transform="translate(6253.647836 0.236563)"/>
     <use xlink:href="#DejaVuSerif-20" transform="translate(6312.827524 0.236563)"/>
     <use xlink:href="#DejaVuSerif-74" transform="translate(6344.614633 0.236563)"/>
     <use xlink:href="#DejaVuSerif-68" transform="translate(6384.80018 0.236563)"/>
     <use xlink:href="#DejaVuSerif-61" transform="translate(6449.204477 0.236563)"/>
     <use xlink:href="#DejaVuSerif-74" transform="translate(6508.823618 0.236563)"/>
     <use xlink:href="#DejaVuSerif-20" transform="translate(6549.009164 0.236563)"/>
     <use xlink:href="#Cmmi10-61" transform="translate(6580.796274 50.192188) scale(0.7)"/>
     <use xlink:href="#Cmr10-31" transform="translate(6617.744516 38.287813) scale(0.49)"/>
     <use xlink:href="#Cmr10-2b" transform="translate(6658.999672 50.192188) scale(0.7)"/>
     <use xlink:href="#Cmmi10-61" transform="translate(6725.670571 50.192188) scale(0.7)"/>
     <use xlink:href="#Cmr10-32" transform="translate(6762.618813 38.287813) scale(0.49)"/>
     <use xlink:href="#Cmr10-2b" transform="translate(6803.873969 50.192188) scale(0.7)"/>
     <use xlink:href="#STIXGeneral-Regular-22ef" transform="translate(6870.544868 50.192188) scale(0.7)"/>
     <use xlink:href="#Cmr10-2b" transform="translate(6947.655877 50.192188) scale(0.7)"/>
     <use xlink:href="#Cmmi10-61" transform="translate(7014.326775 50.192188) scale(0.7)"/>
     <use xlink:href="#Cmmi10-6e" transform="translate(7051.275017 38.287813) scale(0.49)"/>
     <use xlink:href="#Cmmi10-61" transform="translate(6698.796274 -24.444687) scale(0.7)"/>
     <use xlink:href="#Cmr10-31" transform="translate(6735.744516 -36.349063) scale(0.49)"/>
     <use xlink:href="#Cmmi10-61" transform="translate(6764.708657 -24.444687) scale(0.7)"/>
     <use xlink:href="#Cmr10-32" transform="translate(6801.656899 -36.349063) scale(0.49)"/>
     <use xlink:href="#STIXGeneral-Regular-22ef" transform="translate(6830.621039 -24.444687) scale(0.7)"/>
     <use xlink:href="#Cmmi10-61" transform="translate(6895.441033 -24.444687) scale(0.7)"/>
     <use xlink:href="#Cmmi10-6e" transform="translate(6932.389275 -36.349063) scale(0.49)"/>
     <use xlink:href="#DejaVuSerif-20" transform="translate(7097.643943 0.236563)"/>
     <use xlink:href="#DejaVuSerif-69" transform="translate(7129.431053 0.236563)"/>
     <use xlink:href="#DejaVuSerif-73" transform="translate(7161.413474 0.236563)"/>
     <use xlink:href="#DejaVuSerif-20" transform="translate(7212.731834 0.236563)"/>
     <use xlink:href="#DejaVuSerif-61" transform="translate(7244.518943 0.236563)"/>
     <use xlink:href="#DejaVuSerif-6e" transform="translate(7304.138084 0.236563)"/>
     <use xlink:href="#DejaVuSerif-20" transform="translate(7368.542381 0.236563)"/>
     <use xlink:href="#DejaVuSerif-69" transform="translate(7400.32949 0.236563)"/>
     <use xlink:href="#DejaVuSerif-6e" transform="translate(7432.311912 0.236563)"/>
     <use xlink:href="#DejaVuSerif-74" transform="translate(7496.716209 0.236563)"/>
     <use xlink:href="#DejaVuSerif-65" transform="translate(7536.901756 0.236563)"/>
     <use xlink:href="#DejaVuSerif-67" transform="translate(7596.081443 0.236563)"/>
     <use xlink:href="#DejaVuSerif-65" transform="translate(7660.095115 0.236563)"/>
     <use xlink:href="#DejaVuSerif-72" transform="translate(7719.274803 0.236563)"/>
     <use xlink:href="#DejaVuSerif-2c" transform="translate(7767.077537 0.236563)"/>
     <use xlink:href="#DejaVuSerif-20" transform="translate(7798.864646 0.236563)"/>
     <use xlink:href="#DejaVuSerif-61" transform="translate(7830.651756 0.236563)"/>
     <use xlink:href="#DejaVuSerif-6e" transform="translate(7890.270896 0.236563)"/>
     <use xlink:href="#DejaVuSerif-64" transform="translate(7954.675193 0.236563)"/>
     <use xlink:href="#DejaVuSerif-20" transform="translate(8018.688865 0.236563)"/>
     <use xlink:href="#DejaVuSerif-64" transform="translate(8050.475974 0.236563)"/>
     <use xlink:href="#DejaVuSerif-65" transform="translate(8114.489646 0.236563)"/>
     <use xlink:href="#DejaVuSerif-74" transform="translate(8173.669334 0.236563)"/>
     <use xlink:href="#DejaVuSerif-65" transform="translate(8213.854881 0.236563)"/>
     <use xlink:href="#DejaVuSerif-72" transform="translate(8273.034568 0.236563)"/>
     <use xlink:href="#DejaVuSerif-6d" transform="translate(8320.837303 0.236563)"/>
     <use xlink:href="#DejaVuSerif-69" transform="translate(8415.661521 0.236563)"/>
     <use xlink:href="#DejaVuSerif-6e" transform="translate(8447.643943 0.236563)"/>
     <use xlink:href="#DejaVuSerif-65" transform="translate(8512.04824 0.236563)"/>
     <use xlink:href="#DejaVuSerif-20" transform="translate(8571.227928 0.236563)"/>
     <use xlink:href="#DejaVuSerif-69" transform="translate(8603.015037 0.236563)"/>
     <use xlink:href="#DejaVuSerif-74" transform="translate(8634.997459 0.236563)"/>
     <use xlink:href="#DejaVuSerif-73" transform="translate(8675.183006 0.236563)"/>
     <use xlink:href="#DejaVuSerif-20" transform="translate(8726.501365 0.236563)"/>
     <use xlink:href="#DejaVuSerif-76" transform="translate(8758.288474 0.236563)"/>
     <use xlink:href="#DejaVuSerif-61" transform="translate(8814.782615 0.236563)"/>
     <use xlink:href="#DejaVuSerif-6c" transform="translate(8874.401756 0.236563)"/>
     <use xlink:href="#DejaVuSerif-75" transform="translate(8906.384178 0.236563)"/>
     <use xlink:href="#DejaVuSerif-65" transform="translate(8970.788474 0.236563)"/>
     <use xlink:href="#DejaVuSerif-2e" transform="translate(9029.968162 0.236563)"/>
     <path d="M 6580.796274 12.736563 
L 6580.796274 18.986563 
L 7085.143943 18.986563 
L 7085.143943 12.736563 
L 6580.796274 12.736563 
z
"/>
    </g>
   </g>
  </g>
 </g>
</svg>
