<?xml version="1.0" encoding="utf-8" standalone="no"?>
<!DOCTYPE svg PUBLIC "-//W3C//DTD SVG 1.1//EN"
  "http://www.w3.org/Graphics/SVG/1.1/DTD/svg11.dtd">
<svg xmlns:xlink="http://www.w3.org/1999/xlink" width="760.2pt" height="228.4pt" viewBox="0 0 760.2 228.4" xmlns="http://www.w3.org/2000/svg" version="1.1">
 <metadata>
  <rdf:RDF xmlns:dc="http://purl.org/dc/elements/1.1/" xmlns:cc="http://creativecommons.org/ns#" xmlns:rdf="http://www.w3.org/1999/02/22-rdf-syntax-ns#">
   <cc:Work>
    <dc:type rdf:resource="http://purl.org/dc/dcmitype/StillImage"/>
    <dc:date>2025-05-29T18:44:24.982549</dc:date>
    <dc:format>image/svg+xml</dc:format>
    <dc:creator>
     <cc:Agent>
      <dc:title>Matplotlib v3.10.3, https://matplotlib.org/</dc:title>
     </cc:Agent>
    </dc:creator>
   </cc:Work>
  </rdf:RDF>
 </metadata>
 <defs>
  <style type="text/css">*{stroke-linejoin: round; stroke-linecap: butt}</style>
 </defs>
 <g id="figure_1">
  <g id="patch_1">
   <path d="M 0 228.4 
L 760.2 228.4 
L 760.2 0 
L 0 0 
z
" style="fill: #ffffff"/>
  </g>
  <g id="axes_1">
   <g id="text_1">
    <!-- Determine the smallest positive real number $r$ such that there exist differentiable functions $f: \mathbb{R} \rightarrow \mathbb{R}$ and $g: \mathbb{R} \rightarrow \mathbb{R}$ satisfying -->
    <g transform="translate(7.2 75.428) scale(0.12 -0.12)">
     <defs>
      <path id="DejaVuSerif-44" d="M 1581 331 
L 2163 331 
Q 3072 331 3558 850 
Q 4044 1369 4044 2338 
Q 4044 3306 3559 3818 
Q 3075 4331 2163 4331 
L 1581 4331 
L 1581 331 
z
M 353 0 
L 353 331 
L 947 331 
L 947 4331 
L 353 4331 
L 353 4666 
L 2209 4666 
Q 3416 4666 4089 4050 
Q 4763 3434 4763 2338 
Q 4763 1238 4088 619 
Q 3413 0 2209 0 
L 353 0 
z
" transform="scale(0.015625)"/>
      <path id="DejaVuSerif-65" d="M 3469 1600 
L 991 1600 
L 991 1575 
Q 991 903 1244 561 
Q 1497 219 1991 219 
Q 2369 219 2611 417 
Q 2853 616 2950 1006 
L 3413 1006 
Q 3275 459 2904 184 
Q 2534 -91 1931 -91 
Q 1203 -91 761 389 
Q 319 869 319 1663 
Q 319 2450 753 2931 
Q 1188 3413 1894 3413 
Q 2647 3413 3050 2948 
Q 3453 2484 3469 1600 
z
M 2791 1931 
Q 2772 2513 2545 2808 
Q 2319 3103 1894 3103 
Q 1497 3103 1269 2806 
Q 1041 2509 991 1931 
L 2791 1931 
z
" transform="scale(0.015625)"/>
      <path id="DejaVuSerif-74" d="M 691 2988 
L 184 2988 
L 184 3322 
L 691 3322 
L 691 4353 
L 1269 4353 
L 1269 3322 
L 2350 3322 
L 2350 2988 
L 1269 2988 
L 1269 878 
Q 1269 456 1350 337 
Q 1431 219 1650 219 
Q 1875 219 1978 351 
Q 2081 484 2088 781 
L 2522 781 
Q 2497 328 2275 118 
Q 2053 -91 1600 -91 
Q 1103 -91 897 129 
Q 691 350 691 878 
L 691 2988 
z
" transform="scale(0.015625)"/>
      <path id="DejaVuSerif-72" d="M 3059 3328 
L 3059 2497 
L 2728 2497 
Q 2713 2744 2591 2866 
Q 2469 2988 2234 2988 
Q 1809 2988 1582 2694 
Q 1356 2400 1356 1850 
L 1356 331 
L 2022 331 
L 2022 0 
L 263 0 
L 263 331 
L 781 331 
L 781 2994 
L 231 2994 
L 231 3322 
L 1356 3322 
L 1356 2731 
Q 1525 3078 1790 3245 
Q 2056 3413 2438 3413 
Q 2578 3413 2733 3391 
Q 2888 3369 3059 3328 
z
" transform="scale(0.015625)"/>
      <path id="DejaVuSerif-6d" d="M 3316 2675 
Q 3481 3041 3739 3227 
Q 3997 3413 4341 3413 
Q 4863 3413 5119 3089 
Q 5375 2766 5375 2113 
L 5375 331 
L 5894 331 
L 5894 0 
L 4300 0 
L 4300 331 
L 4800 331 
L 4800 2047 
Q 4800 2556 4650 2772 
Q 4500 2988 4153 2988 
Q 3769 2988 3567 2697 
Q 3366 2406 3366 1850 
L 3366 331 
L 3866 331 
L 3866 0 
L 2291 0 
L 2291 331 
L 2791 331 
L 2791 2069 
Q 2791 2566 2641 2777 
Q 2491 2988 2144 2988 
Q 1759 2988 1557 2697 
Q 1356 2406 1356 1850 
L 1356 331 
L 1856 331 
L 1856 0 
L 263 0 
L 263 331 
L 781 331 
L 781 2994 
L 231 2994 
L 231 3322 
L 1356 3322 
L 1356 2731 
Q 1516 3063 1762 3238 
Q 2009 3413 2322 3413 
Q 2709 3413 2968 3220 
Q 3228 3028 3316 2675 
z
" transform="scale(0.015625)"/>
      <path id="DejaVuSerif-69" d="M 622 4353 
Q 622 4497 726 4603 
Q 831 4709 978 4709 
Q 1122 4709 1226 4603 
Q 1331 4497 1331 4353 
Q 1331 4206 1228 4103 
Q 1125 4000 978 4000 
Q 831 4000 726 4103 
Q 622 4206 622 4353 
z
M 1356 331 
L 1900 331 
L 1900 0 
L 231 0 
L 231 331 
L 781 331 
L 781 2988 
L 231 2988 
L 231 3322 
L 1356 3322 
L 1356 331 
z
" transform="scale(0.015625)"/>
      <path id="DejaVuSerif-6e" d="M 263 0 
L 263 331 
L 781 331 
L 781 2988 
L 231 2988 
L 231 3322 
L 1356 3322 
L 1356 2731 
Q 1516 3069 1770 3241 
Q 2025 3413 2363 3413 
Q 2913 3413 3172 3097 
Q 3431 2781 3431 2113 
L 3431 331 
L 3944 331 
L 3944 0 
L 2356 0 
L 2356 331 
L 2853 331 
L 2853 1931 
Q 2853 2541 2703 2767 
Q 2553 2994 2175 2994 
Q 1775 2994 1565 2701 
Q 1356 2409 1356 1850 
L 1356 331 
L 1856 331 
L 1856 0 
L 263 0 
z
" transform="scale(0.015625)"/>
      <path id="DejaVuSerif-20" transform="scale(0.015625)"/>
      <path id="DejaVuSerif-68" d="M 263 0 
L 263 331 
L 781 331 
L 781 4531 
L 231 4531 
L 231 4863 
L 1356 4863 
L 1356 2731 
Q 1516 3069 1770 3241 
Q 2025 3413 2363 3413 
Q 2913 3413 3172 3097 
Q 3431 2781 3431 2113 
L 3431 331 
L 3944 331 
L 3944 0 
L 2356 0 
L 2356 331 
L 2853 331 
L 2853 1931 
Q 2853 2541 2704 2764 
Q 2556 2988 2175 2988 
Q 1775 2988 1565 2697 
Q 1356 2406 1356 1850 
L 1356 331 
L 1856 331 
L 1856 0 
L 263 0 
z
" transform="scale(0.015625)"/>
      <path id="DejaVuSerif-73" d="M 359 184 
L 359 959 
L 691 959 
Q 703 588 923 403 
Q 1144 219 1575 219 
Q 1963 219 2166 364 
Q 2369 509 2369 788 
Q 2369 1006 2220 1140 
Q 2072 1275 1594 1428 
L 1178 1569 
Q 750 1706 558 1912 
Q 366 2119 366 2438 
Q 366 2894 700 3153 
Q 1034 3413 1625 3413 
Q 1888 3413 2178 3344 
Q 2469 3275 2778 3144 
L 2778 2419 
L 2447 2419 
Q 2434 2741 2221 2922 
Q 2009 3103 1644 3103 
Q 1281 3103 1095 2975 
Q 909 2847 909 2591 
Q 909 2381 1050 2254 
Q 1191 2128 1613 1997 
L 2069 1856 
Q 2541 1709 2748 1489 
Q 2956 1269 2956 922 
Q 2956 450 2595 179 
Q 2234 -91 1600 -91 
Q 1278 -91 972 -22 
Q 666 47 359 184 
z
" transform="scale(0.015625)"/>
      <path id="DejaVuSerif-61" d="M 2547 1044 
L 2547 1747 
L 1806 1747 
Q 1378 1747 1168 1562 
Q 959 1378 959 997 
Q 959 650 1171 447 
Q 1384 244 1747 244 
Q 2106 244 2326 466 
Q 2547 688 2547 1044 
z
M 3122 2075 
L 3122 331 
L 3634 331 
L 3634 0 
L 2547 0 
L 2547 359 
Q 2356 128 2106 18 
Q 1856 -91 1522 -91 
Q 969 -91 644 203 
Q 319 497 319 997 
Q 319 1513 691 1797 
Q 1063 2081 1741 2081 
L 2547 2081 
L 2547 2309 
Q 2547 2688 2317 2895 
Q 2088 3103 1672 3103 
Q 1328 3103 1125 2947 
Q 922 2791 872 2484 
L 575 2484 
L 575 3156 
Q 875 3284 1158 3348 
Q 1441 3413 1709 3413 
Q 2400 3413 2761 3070 
Q 3122 2728 3122 2075 
z
" transform="scale(0.015625)"/>
      <path id="DejaVuSerif-6c" d="M 1313 331 
L 1856 331 
L 1856 0 
L 184 0 
L 184 331 
L 738 331 
L 738 4531 
L 184 4531 
L 184 4863 
L 1313 4863 
L 1313 331 
z
" transform="scale(0.015625)"/>
      <path id="DejaVuSerif-70" d="M 1313 1825 
L 1313 1497 
Q 1313 897 1542 583 
Q 1772 269 2209 269 
Q 2650 269 2876 622 
Q 3103 975 3103 1663 
Q 3103 2353 2876 2703 
Q 2650 3053 2209 3053 
Q 1772 3053 1542 2737 
Q 1313 2422 1313 1825 
z
M 738 2988 
L 184 2988 
L 184 3322 
L 1313 3322 
L 1313 2803 
Q 1481 3116 1742 3264 
Q 2003 3413 2388 3413 
Q 3000 3413 3387 2928 
Q 3775 2444 3775 1663 
Q 3775 881 3387 395 
Q 3000 -91 2388 -91 
Q 2003 -91 1742 57 
Q 1481 206 1313 519 
L 1313 -997 
L 1856 -997 
L 1856 -1331 
L 184 -1331 
L 184 -997 
L 738 -997 
L 738 2988 
z
" transform="scale(0.015625)"/>
      <path id="DejaVuSerif-6f" d="M 1925 219 
Q 2388 219 2623 584 
Q 2859 950 2859 1663 
Q 2859 2375 2623 2739 
Q 2388 3103 1925 3103 
Q 1463 3103 1227 2739 
Q 991 2375 991 1663 
Q 991 950 1228 584 
Q 1466 219 1925 219 
z
M 1925 -91 
Q 1200 -91 759 389 
Q 319 869 319 1663 
Q 319 2456 758 2934 
Q 1197 3413 1925 3413 
Q 2653 3413 3092 2934 
Q 3531 2456 3531 1663 
Q 3531 869 3092 389 
Q 2653 -91 1925 -91 
z
" transform="scale(0.015625)"/>
      <path id="DejaVuSerif-76" d="M 1581 0 
L 359 2988 
L -19 2988 
L -19 3322 
L 1509 3322 
L 1509 2988 
L 978 2988 
L 1913 703 
L 2847 2988 
L 2350 2988 
L 2350 3322 
L 3597 3322 
L 3597 2988 
L 3225 2988 
L 2003 0 
L 1581 0 
z
" transform="scale(0.015625)"/>
      <path id="DejaVuSerif-75" d="M 2266 3322 
L 3341 3322 
L 3341 331 
L 3884 331 
L 3884 0 
L 2766 0 
L 2766 588 
Q 2606 256 2353 82 
Q 2100 -91 1766 -91 
Q 1213 -91 952 223 
Q 691 538 691 1209 
L 691 2988 
L 172 2988 
L 172 3322 
L 1269 3322 
L 1269 1388 
Q 1269 781 1417 556 
Q 1566 331 1947 331 
Q 2347 331 2556 625 
Q 2766 919 2766 1478 
L 2766 2988 
L 2266 2988 
L 2266 3322 
z
" transform="scale(0.015625)"/>
      <path id="DejaVuSerif-62" d="M 738 331 
L 738 4531 
L 184 4531 
L 184 4863 
L 1313 4863 
L 1313 2803 
Q 1481 3116 1742 3264 
Q 2003 3413 2388 3413 
Q 3000 3413 3387 2928 
Q 3775 2444 3775 1663 
Q 3775 881 3387 395 
Q 3000 -91 2388 -91 
Q 2003 -91 1742 57 
Q 1481 206 1313 519 
L 1313 0 
L 184 0 
L 184 331 
L 738 331 
z
M 1313 1497 
Q 1313 897 1542 583 
Q 1772 269 2209 269 
Q 2650 269 2876 622 
Q 3103 975 3103 1663 
Q 3103 2353 2876 2703 
Q 2650 3053 2209 3053 
Q 1772 3053 1542 2737 
Q 1313 2422 1313 1825 
L 1313 1497 
z
" transform="scale(0.015625)"/>
      <path id="Cmmi10-72" d="M 494 109 
Q 494 147 500 166 
L 978 2075 
Q 1025 2253 1025 2388 
Q 1025 2663 838 2663 
Q 638 2663 541 2423 
Q 444 2184 353 1819 
Q 353 1800 334 1789 
Q 316 1778 300 1778 
L 225 1778 
Q 203 1778 187 1801 
Q 172 1825 172 1844 
Q 241 2122 305 2315 
Q 369 2509 505 2668 
Q 641 2828 844 2828 
Q 1066 2828 1233 2700 
Q 1400 2572 1441 2363 
Q 1603 2575 1811 2701 
Q 2019 2828 2266 2828 
Q 2469 2828 2623 2709 
Q 2778 2591 2778 2388 
Q 2778 2225 2676 2104 
Q 2575 1984 2406 1984 
Q 2303 1984 2233 2048 
Q 2163 2113 2163 2216 
Q 2163 2356 2266 2467 
Q 2369 2578 2503 2578 
Q 2400 2663 2253 2663 
Q 1978 2663 1775 2467 
Q 1572 2272 1409 1972 
L 953 141 
Q 931 53 854 -9 
Q 778 -72 684 -72 
Q 606 -72 550 -22 
Q 494 28 494 109 
z
" transform="scale(0.015625)"/>
      <path id="DejaVuSerif-63" d="M 3291 997 
Q 3169 466 2822 187 
Q 2475 -91 1925 -91 
Q 1200 -91 759 389 
Q 319 869 319 1663 
Q 319 2459 759 2936 
Q 1200 3413 1925 3413 
Q 2241 3413 2553 3339 
Q 2866 3266 3181 3116 
L 3181 2266 
L 2847 2266 
Q 2781 2703 2561 2903 
Q 2341 3103 1931 3103 
Q 1466 3103 1228 2742 
Q 991 2381 991 1663 
Q 991 944 1227 581 
Q 1463 219 1931 219 
Q 2303 219 2525 412 
Q 2747 606 2828 997 
L 3291 997 
z
" transform="scale(0.015625)"/>
      <path id="DejaVuSerif-78" d="M 1863 2028 
L 2559 2988 
L 2113 2988 
L 2113 3322 
L 3391 3322 
L 3391 2988 
L 2950 2988 
L 2059 1759 
L 3097 331 
L 3531 331 
L 3531 0 
L 1997 0 
L 1997 331 
L 2419 331 
L 1697 1325 
L 972 331 
L 1403 331 
L 1403 0 
L 141 0 
L 141 331 
L 581 331 
L 1497 1594 
L 488 2988 
L 78 2988 
L 78 3322 
L 1563 3322 
L 1563 2988 
L 1166 2988 
L 1863 2028 
z
" transform="scale(0.015625)"/>
      <path id="DejaVuSerif-64" d="M 3359 331 
L 3909 331 
L 3909 0 
L 2784 0 
L 2784 519 
Q 2616 206 2355 57 
Q 2094 -91 1709 -91 
Q 1097 -91 708 395 
Q 319 881 319 1663 
Q 319 2444 706 2928 
Q 1094 3413 1709 3413 
Q 2094 3413 2355 3264 
Q 2616 3116 2784 2803 
L 2784 4531 
L 2241 4531 
L 2241 4863 
L 3359 4863 
L 3359 331 
z
M 2784 1497 
L 2784 1825 
Q 2784 2422 2554 2737 
Q 2325 3053 1888 3053 
Q 1444 3053 1217 2703 
Q 991 2353 991 1663 
Q 991 975 1217 622 
Q 1444 269 1888 269 
Q 2325 269 2554 583 
Q 2784 897 2784 1497 
z
" transform="scale(0.015625)"/>
      <path id="DejaVuSerif-66" d="M 2753 4078 
L 2450 4078 
Q 2447 4313 2317 4434 
Q 2188 4556 1941 4556 
Q 1619 4556 1487 4379 
Q 1356 4203 1356 3750 
L 1356 3322 
L 2284 3322 
L 2284 2988 
L 1356 2988 
L 1356 331 
L 2094 331 
L 2094 0 
L 231 0 
L 231 331 
L 781 331 
L 781 2988 
L 231 2988 
L 231 3322 
L 781 3322 
L 781 3738 
Q 781 4294 1070 4578 
Q 1359 4863 1919 4863 
Q 2128 4863 2337 4825 
Q 2547 4788 2753 4709 
L 2753 4078 
z
" transform="scale(0.015625)"/>
      <path id="Cmmi10-66" d="M 622 -1056 
Q 741 -1147 909 -1147 
Q 1138 -1147 1281 -641 
Q 1341 -397 1606 966 
L 1900 2534 
L 1350 2534 
Q 1288 2534 1288 2619 
Q 1313 2759 1369 2759 
L 1941 2759 
L 2016 3175 
Q 2053 3369 2084 3508 
Q 2116 3647 2152 3765 
Q 2188 3884 2259 4031 
Q 2369 4241 2555 4377 
Q 2741 4513 2956 4513 
Q 3097 4513 3230 4461 
Q 3363 4409 3447 4306 
Q 3531 4203 3531 4063 
Q 3531 3900 3423 3779 
Q 3316 3659 3163 3659 
Q 3059 3659 2986 3723 
Q 2913 3788 2913 3891 
Q 2913 4031 3008 4136 
Q 3103 4241 3244 4256 
Q 3125 4347 2950 4347 
Q 2853 4347 2767 4256 
Q 2681 4166 2656 4063 
Q 2616 3900 2478 3181 
L 2400 2759 
L 3059 2759 
Q 3122 2759 3122 2675 
Q 3119 2659 3109 2620 
Q 3100 2581 3083 2557 
Q 3066 2534 3041 2534 
L 2356 2534 
L 2059 972 
Q 2003 631 1929 279 
Q 1856 -72 1723 -442 
Q 1591 -813 1384 -1063 
Q 1178 -1313 897 -1313 
Q 681 -1313 511 -1189 
Q 341 -1066 341 -863 
Q 341 -700 445 -579 
Q 550 -459 709 -459 
Q 816 -459 887 -523 
Q 959 -588 959 -691 
Q 959 -828 857 -942 
Q 756 -1056 622 -1056 
z
" transform="scale(0.015625)"/>
      <path id="Cmr10-3a" d="M 538 353 
Q 538 497 644 600 
Q 750 703 891 703 
Q 978 703 1062 656 
Q 1147 609 1194 525 
Q 1241 441 1241 353 
Q 1241 213 1137 106 
Q 1034 0 891 0 
Q 750 0 644 106 
Q 538 213 538 353 
z
M 538 2406 
Q 538 2497 584 2578 
Q 631 2659 714 2709 
Q 797 2759 891 2759 
Q 981 2759 1064 2709 
Q 1147 2659 1194 2578 
Q 1241 2497 1241 2406 
Q 1241 2263 1139 2158 
Q 1038 2053 891 2053 
Q 747 2053 642 2158 
Q 538 2263 538 2406 
z
" transform="scale(0.015625)"/>
      <path id="STIXGeneral-Italic-211d" d="M 1229 4179 
L 3360 4179 
Q 3827 4179 4108 3894 
Q 4390 3610 4390 3142 
Q 4390 2554 4060 2186 
Q 3731 1818 3149 1715 
L 4026 0 
L 2925 0 
L 2125 1690 
L 1549 1690 
L 1094 0 
L 109 0 
L 1229 4179 
z
M 3866 3821 
L 3392 2022 
Q 3770 2144 3962 2438 
Q 4154 2733 4154 3136 
Q 4154 3584 3866 3821 
z
M 3142 1978 
L 3648 3872 
Q 3450 3942 3296 3942 
L 2150 3942 
L 1613 1926 
L 2630 1926 
Q 2957 1926 3142 1978 
z
M 3629 237 
L 2899 1696 
Q 2829 1683 2682 1683 
Q 2630 1683 2531 1686 
Q 2432 1690 2387 1690 
L 3072 237 
L 3629 237 
z
M 1907 3942 
L 1408 3942 
L 416 237 
L 915 237 
L 1907 3942 
z
" transform="scale(0.015625)"/>
      <path id="Cmsy10-21" d="M 481 1472 
Q 428 1472 393 1512 
Q 359 1553 359 1600 
Q 359 1647 393 1687 
Q 428 1728 481 1728 
L 5338 1728 
Q 5094 1903 4906 2133 
Q 4719 2363 4594 2627 
Q 4469 2891 4416 3188 
Q 4416 3272 4481 3272 
L 4609 3272 
Q 4631 3272 4648 3253 
Q 4666 3234 4672 3213 
Q 4725 2938 4839 2702 
Q 4953 2466 5125 2262 
Q 5297 2059 5509 1912 
Q 5722 1766 5991 1672 
Q 6034 1644 6034 1600 
Q 6034 1550 5991 1538 
Q 5656 1422 5378 1192 
Q 5100 963 4919 652 
Q 4738 341 4672 -13 
Q 4666 -34 4647 -53 
Q 4628 -72 4609 -72 
L 4481 -72 
Q 4416 -72 4416 13 
Q 4497 450 4740 836 
Q 4984 1222 5338 1472 
L 481 1472 
z
" transform="scale(0.015625)"/>
      <path id="Cmmi10-67" d="M 91 -916 
Q 91 -759 198 -642 
Q 306 -525 459 -525 
Q 563 -525 633 -589 
Q 703 -653 703 -756 
Q 703 -872 637 -964 
Q 572 -1056 469 -1094 
Q 641 -1147 1006 -1147 
Q 1300 -1147 1544 -920 
Q 1788 -694 1863 -397 
L 2047 353 
Q 1700 0 1325 0 
Q 1050 0 854 140 
Q 659 281 556 515 
Q 453 750 453 1013 
Q 453 1306 573 1628 
Q 694 1950 911 2225 
Q 1128 2500 1409 2664 
Q 1691 2828 2003 2828 
Q 2191 2828 2341 2725 
Q 2491 2622 2578 2450 
Q 2641 2700 2853 2700 
Q 2934 2700 2990 2651 
Q 3047 2603 3047 2522 
Q 3047 2503 3045 2493 
Q 3044 2484 3041 2472 
L 2309 -434 
Q 2259 -634 2125 -800 
Q 1991 -966 1809 -1077 
Q 1628 -1188 1412 -1250 
Q 1197 -1313 997 -1313 
Q 631 -1313 361 -1242 
Q 91 -1172 91 -916 
z
M 1338 166 
Q 1747 166 2144 728 
L 2497 2125 
Q 2453 2347 2322 2505 
Q 2191 2663 1991 2663 
Q 1778 2663 1589 2489 
Q 1400 2316 1275 2075 
Q 1156 1844 1045 1411 
Q 934 978 934 728 
Q 934 509 1034 337 
Q 1134 166 1338 166 
z
" transform="scale(0.015625)"/>
      <path id="DejaVuSerif-79" d="M 1381 -609 
L 1600 -56 
L 359 2988 
L -19 2988 
L -19 3322 
L 1509 3322 
L 1509 2988 
L 978 2988 
L 1913 703 
L 2847 2988 
L 2350 2988 
L 2350 3322 
L 3597 3322 
L 3597 2988 
L 3225 2988 
L 1703 -750 
Q 1547 -1138 1356 -1280 
Q 1166 -1422 819 -1422 
Q 672 -1422 517 -1397 
Q 363 -1372 206 -1325 
L 206 -691 
L 500 -691 
Q 519 -903 608 -995 
Q 697 -1088 884 -1088 
Q 1056 -1088 1161 -992 
Q 1266 -897 1381 -609 
z
" transform="scale(0.015625)"/>
      <path id="DejaVuSerif-67" d="M 3359 2988 
L 3359 72 
Q 3359 -644 2965 -1033 
Q 2572 -1422 1844 -1422 
Q 1516 -1422 1216 -1362 
Q 916 -1303 641 -1184 
L 641 -488 
L 941 -488 
Q 997 -813 1206 -963 
Q 1416 -1113 1806 -1113 
Q 2313 -1113 2548 -827 
Q 2784 -541 2784 72 
L 2784 519 
Q 2616 206 2355 57 
Q 2094 -91 1709 -91 
Q 1097 -91 708 395 
Q 319 881 319 1663 
Q 319 2444 706 2928 
Q 1094 3413 1709 3413 
Q 2094 3413 2355 3264 
Q 2616 3116 2784 2803 
L 2784 3322 
L 3909 3322 
L 3909 2988 
L 3359 2988 
z
M 2784 1825 
Q 2784 2422 2554 2737 
Q 2325 3053 1888 3053 
Q 1444 3053 1217 2703 
Q 991 2353 991 1663 
Q 991 975 1217 622 
Q 1444 269 1888 269 
Q 2325 269 2554 583 
Q 2784 897 2784 1497 
L 2784 1825 
z
" transform="scale(0.015625)"/>
     </defs>
     <use xlink:href="#DejaVuSerif-44" transform="translate(0 0.015625)"/>
     <use xlink:href="#DejaVuSerif-65" transform="translate(80.175781 0.015625)"/>
     <use xlink:href="#DejaVuSerif-74" transform="translate(139.355469 0.015625)"/>
     <use xlink:href="#DejaVuSerif-65" transform="translate(179.541016 0.015625)"/>
     <use xlink:href="#DejaVuSerif-72" transform="translate(238.720703 0.015625)"/>
     <use xlink:href="#DejaVuSerif-6d" transform="translate(286.523438 0.015625)"/>
     <use xlink:href="#DejaVuSerif-69" transform="translate(381.347656 0.015625)"/>
     <use xlink:href="#DejaVuSerif-6e" transform="translate(413.330078 0.015625)"/>
     <use xlink:href="#DejaVuSerif-65" transform="translate(477.734375 0.015625)"/>
     <use xlink:href="#DejaVuSerif-20" transform="translate(536.914062 0.015625)"/>
     <use xlink:href="#DejaVuSerif-74" transform="translate(568.701172 0.015625)"/>
     <use xlink:href="#DejaVuSerif-68" transform="translate(608.886719 0.015625)"/>
     <use xlink:href="#DejaVuSerif-65" transform="translate(673.291016 0.015625)"/>
     <use xlink:href="#DejaVuSerif-20" transform="translate(732.470703 0.015625)"/>
     <use xlink:href="#DejaVuSerif-73" transform="translate(764.257812 0.015625)"/>
     <use xlink:href="#DejaVuSerif-6d" transform="translate(815.576172 0.015625)"/>
     <use xlink:href="#DejaVuSerif-61" transform="translate(910.400391 0.015625)"/>
     <use xlink:href="#DejaVuSerif-6c" transform="translate(970.019531 0.015625)"/>
     <use xlink:href="#DejaVuSerif-6c" transform="translate(1002.001953 0.015625)"/>
     <use xlink:href="#DejaVuSerif-65" transform="translate(1033.984375 0.015625)"/>
     <use xlink:href="#DejaVuSerif-73" transform="translate(1093.164062 0.015625)"/>
     <use xlink:href="#DejaVuSerif-74" transform="translate(1144.482422 0.015625)"/>
     <use xlink:href="#DejaVuSerif-20" transform="translate(1184.667969 0.015625)"/>
     <use xlink:href="#DejaVuSerif-70" transform="translate(1216.455078 0.015625)"/>
     <use xlink:href="#DejaVuSerif-6f" transform="translate(1280.46875 0.015625)"/>
     <use xlink:href="#DejaVuSerif-73" transform="translate(1340.673828 0.015625)"/>
     <use xlink:href="#DejaVuSerif-69" transform="translate(1391.992188 0.015625)"/>
     <use xlink:href="#DejaVuSerif-74" transform="translate(1423.974609 0.015625)"/>
     <use xlink:href="#DejaVuSerif-69" transform="translate(1464.160156 0.015625)"/>
     <use xlink:href="#DejaVuSerif-76" transform="translate(1496.142578 0.015625)"/>
     <use xlink:href="#DejaVuSerif-65" transform="translate(1552.636719 0.015625)"/>
     <use xlink:href="#DejaVuSerif-20" transform="translate(1611.816406 0.015625)"/>
     <use xlink:href="#DejaVuSerif-72" transform="translate(1643.603516 0.015625)"/>
     <use xlink:href="#DejaVuSerif-65" transform="translate(1691.40625 0.015625)"/>
     <use xlink:href="#DejaVuSerif-61" transform="translate(1750.585938 0.015625)"/>
     <use xlink:href="#DejaVuSerif-6c" transform="translate(1810.205078 0.015625)"/>
     <use xlink:href="#DejaVuSerif-20" transform="translate(1842.1875 0.015625)"/>
     <use xlink:href="#DejaVuSerif-6e" transform="translate(1873.974609 0.015625)"/>
     <use xlink:href="#DejaVuSerif-75" transform="translate(1938.378906 0.015625)"/>
     <use xlink:href="#DejaVuSerif-6d" transform="translate(2002.783203 0.015625)"/>
     <use xlink:href="#DejaVuSerif-62" transform="translate(2097.607422 0.015625)"/>
     <use xlink:href="#DejaVuSerif-65" transform="translate(2161.621094 0.015625)"/>
     <use xlink:href="#DejaVuSerif-72" transform="translate(2220.800781 0.015625)"/>
     <use xlink:href="#DejaVuSerif-20" transform="translate(2268.603516 0.015625)"/>
     <use xlink:href="#Cmmi10-72" transform="translate(2300.390625 0.015625)"/>
     <use xlink:href="#DejaVuSerif-20" transform="translate(2345.507812 0.015625)"/>
     <use xlink:href="#DejaVuSerif-73" transform="translate(2377.294922 0.015625)"/>
     <use xlink:href="#DejaVuSerif-75" transform="translate(2428.613281 0.015625)"/>
     <use xlink:href="#DejaVuSerif-63" transform="translate(2493.017578 0.015625)"/>
     <use xlink:href="#DejaVuSerif-68" transform="translate(2549.023438 0.015625)"/>
     <use xlink:href="#DejaVuSerif-20" transform="translate(2613.427734 0.015625)"/>
     <use xlink:href="#DejaVuSerif-74" transform="translate(2645.214844 0.015625)"/>
     <use xlink:href="#DejaVuSerif-68" transform="translate(2685.400391 0.015625)"/>
     <use xlink:href="#DejaVuSerif-61" transform="translate(2749.804688 0.015625)"/>
     <use xlink:href="#DejaVuSerif-74" transform="translate(2809.423828 0.015625)"/>
     <use xlink:href="#DejaVuSerif-20" transform="translate(2849.609375 0.015625)"/>
     <use xlink:href="#DejaVuSerif-74" transform="translate(2881.396484 0.015625)"/>
     <use xlink:href="#DejaVuSerif-68" transform="translate(2921.582031 0.015625)"/>
     <use xlink:href="#DejaVuSerif-65" transform="translate(2985.986328 0.015625)"/>
     <use xlink:href="#DejaVuSerif-72" transform="translate(3045.166016 0.015625)"/>
     <use xlink:href="#DejaVuSerif-65" transform="translate(3092.96875 0.015625)"/>
     <use xlink:href="#DejaVuSerif-20" transform="translate(3152.148438 0.015625)"/>
     <use xlink:href="#DejaVuSerif-65" transform="translate(3183.935547 0.015625)"/>
     <use xlink:href="#DejaVuSerif-78" transform="translate(3243.115234 0.015625)"/>
     <use xlink:href="#DejaVuSerif-69" transform="translate(3299.511719 0.015625)"/>
     <use xlink:href="#DejaVuSerif-73" transform="translate(3331.494141 0.015625)"/>
     <use xlink:href="#DejaVuSerif-74" transform="translate(3382.8125 0.015625)"/>
     <use xlink:href="#DejaVuSerif-20" transform="translate(3422.998047 0.015625)"/>
     <use xlink:href="#DejaVuSerif-64" transform="translate(3454.785156 0.015625)"/>
     <use xlink:href="#DejaVuSerif-69" transform="translate(3518.798828 0.015625)"/>
     <use xlink:href="#DejaVuSerif-66" transform="translate(3550.78125 0.015625)"/>
     <use xlink:href="#DejaVuSerif-66" transform="translate(3587.792969 0.015625)"/>
     <use xlink:href="#DejaVuSerif-65" transform="translate(3624.804688 0.015625)"/>
     <use xlink:href="#DejaVuSerif-72" transform="translate(3683.984375 0.015625)"/>
     <use xlink:href="#DejaVuSerif-65" transform="translate(3731.787109 0.015625)"/>
     <use xlink:href="#DejaVuSerif-6e" transform="translate(3790.966797 0.015625)"/>
     <use xlink:href="#DejaVuSerif-74" transform="translate(3855.371094 0.015625)"/>
     <use xlink:href="#DejaVuSerif-69" transform="translate(3895.556641 0.015625)"/>
     <use xlink:href="#DejaVuSerif-61" transform="translate(3927.539062 0.015625)"/>
     <use xlink:href="#DejaVuSerif-62" transform="translate(3987.158203 0.015625)"/>
     <use xlink:href="#DejaVuSerif-6c" transform="translate(4051.171875 0.015625)"/>
     <use xlink:href="#DejaVuSerif-65" transform="translate(4083.154297 0.015625)"/>
     <use xlink:href="#DejaVuSerif-20" transform="translate(4142.333984 0.015625)"/>
     <use xlink:href="#DejaVuSerif-66" transform="translate(4174.121094 0.015625)"/>
     <use xlink:href="#DejaVuSerif-75" transform="translate(4211.132812 0.015625)"/>
     <use xlink:href="#DejaVuSerif-6e" transform="translate(4275.537109 0.015625)"/>
     <use xlink:href="#DejaVuSerif-63" transform="translate(4339.941406 0.015625)"/>
     <use xlink:href="#DejaVuSerif-74" transform="translate(4395.947266 0.015625)"/>
     <use xlink:href="#DejaVuSerif-69" transform="translate(4436.132812 0.015625)"/>
     <use xlink:href="#DejaVuSerif-6f" transform="translate(4468.115234 0.015625)"/>
     <use xlink:href="#DejaVuSerif-6e" transform="translate(4528.320312 0.015625)"/>
     <use xlink:href="#DejaVuSerif-73" transform="translate(4592.724609 0.015625)"/>
     <use xlink:href="#DejaVuSerif-20" transform="translate(4644.042969 0.015625)"/>
     <use xlink:href="#Cmmi10-66" transform="translate(4675.830078 0.015625)"/>
     <use xlink:href="#Cmr10-3a" transform="translate(4742.265625 0.015625)"/>
     <use xlink:href="#STIXGeneral-Italic-211d" transform="translate(4787.509766 0.015625)"/>
     <use xlink:href="#Cmsy10-21" transform="translate(4873.768341 0.015625)"/>
     <use xlink:href="#STIXGeneral-Italic-211d" transform="translate(4991.326935 0.015625)"/>
     <use xlink:href="#DejaVuSerif-20" transform="translate(5060.026917 0.015625)"/>
     <use xlink:href="#DejaVuSerif-61" transform="translate(5091.814026 0.015625)"/>
     <use xlink:href="#DejaVuSerif-6e" transform="translate(5151.433167 0.015625)"/>
     <use xlink:href="#DejaVuSerif-64" transform="translate(5215.837463 0.015625)"/>
     <use xlink:href="#DejaVuSerif-20" transform="translate(5279.851135 0.015625)"/>
     <use xlink:href="#Cmmi10-67" transform="translate(5311.638245 0.015625)"/>
     <use xlink:href="#Cmr10-3a" transform="translate(5376.901917 0.015625)"/>
     <use xlink:href="#STIXGeneral-Italic-211d" transform="translate(5422.146057 0.015625)"/>
     <use xlink:href="#Cmsy10-21" transform="translate(5508.404633 0.015625)"/>
     <use xlink:href="#STIXGeneral-Italic-211d" transform="translate(5625.963226 0.015625)"/>
     <use xlink:href="#DejaVuSerif-20" transform="translate(5694.663208 0.015625)"/>
     <use xlink:href="#DejaVuSerif-73" transform="translate(5726.450317 0.015625)"/>
     <use xlink:href="#DejaVuSerif-61" transform="translate(5777.768677 0.015625)"/>
     <use xlink:href="#DejaVuSerif-74" transform="translate(5837.387817 0.015625)"/>
     <use xlink:href="#DejaVuSerif-69" transform="translate(5877.573364 0.015625)"/>
     <use xlink:href="#DejaVuSerif-73" transform="translate(5909.555786 0.015625)"/>
     <use xlink:href="#DejaVuSerif-66" transform="translate(5960.874146 0.015625)"/>
     <use xlink:href="#DejaVuSerif-79" transform="translate(5997.885864 0.015625)"/>
     <use xlink:href="#DejaVuSerif-69" transform="translate(6054.380005 0.015625)"/>
     <use xlink:href="#DejaVuSerif-6e" transform="translate(6086.362427 0.015625)"/>
     <use xlink:href="#DejaVuSerif-67" transform="translate(6150.766724 0.015625)"/>
    </g>
    <!-- \begin{enumerate} -->
    <g transform="translate(320.498438 89.12975) scale(0.12 -0.12)">
     <defs>
      <path id="DejaVuSerif-5c" d="M 500 4666 
L 2156 -594 
L 1656 -594 
L 0 4666 
L 500 4666 
z
" transform="scale(0.015625)"/>
      <path id="DejaVuSerif-7b" d="M 3272 -716 
L 3272 -1044 
L 3078 -1044 
Q 2300 -1044 2036 -812 
Q 1772 -581 1772 109 
L 1772 916 
Q 1772 1384 1603 1565 
Q 1434 1747 991 1747 
L 800 1747 
L 800 2075 
L 991 2075 
Q 1434 2075 1603 2256 
Q 1772 2438 1772 2906 
L 1772 3713 
Q 1772 4403 2036 4633 
Q 2300 4863 3078 4863 
L 3272 4863 
L 3272 4538 
L 3059 4538 
Q 2619 4538 2484 4400 
Q 2350 4263 2350 3822 
L 2350 2925 
Q 2350 2431 2194 2218 
Q 2038 2006 1631 1913 
Q 2044 1806 2197 1597 
Q 2350 1388 2350 897 
L 2350 0 
Q 2350 -441 2484 -578 
Q 2619 -716 3059 -716 
L 3272 -716 
z
" transform="scale(0.015625)"/>
      <path id="DejaVuSerif-7d" d="M 800 -716 
L 1019 -716 
Q 1456 -716 1589 -580 
Q 1722 -444 1722 0 
L 1722 897 
Q 1722 1388 1875 1597 
Q 2028 1806 2438 1913 
Q 2031 2006 1876 2218 
Q 1722 2431 1722 2925 
L 1722 3822 
Q 1722 4266 1589 4402 
Q 1456 4538 1019 4538 
L 800 4538 
L 800 4863 
L 997 4863 
Q 1775 4863 2036 4633 
Q 2297 4403 2297 3713 
L 2297 2906 
Q 2297 2438 2465 2256 
Q 2634 2075 3078 2075 
L 3272 2075 
L 3272 1747 
L 3078 1747 
Q 2634 1747 2465 1565 
Q 2297 1384 2297 916 
L 2297 109 
Q 2297 -581 2036 -812 
Q 1775 -1044 997 -1044 
L 800 -1044 
L 800 -716 
z
" transform="scale(0.015625)"/>
     </defs>
     <use xlink:href="#DejaVuSerif-5c"/>
     <use xlink:href="#DejaVuSerif-62" transform="translate(33.691406 0)"/>
     <use xlink:href="#DejaVuSerif-65" transform="translate(97.705078 0)"/>
     <use xlink:href="#DejaVuSerif-67" transform="translate(156.884766 0)"/>
     <use xlink:href="#DejaVuSerif-69" transform="translate(220.898438 0)"/>
     <use xlink:href="#DejaVuSerif-6e" transform="translate(252.880859 0)"/>
     <use xlink:href="#DejaVuSerif-7b" transform="translate(317.285156 0)"/>
     <use xlink:href="#DejaVuSerif-65" transform="translate(380.908203 0)"/>
     <use xlink:href="#DejaVuSerif-6e" transform="translate(440.087891 0)"/>
     <use xlink:href="#DejaVuSerif-75" transform="translate(504.492188 0)"/>
     <use xlink:href="#DejaVuSerif-6d" transform="translate(568.896484 0)"/>
     <use xlink:href="#DejaVuSerif-65" transform="translate(663.720703 0)"/>
     <use xlink:href="#DejaVuSerif-72" transform="translate(722.900391 0)"/>
     <use xlink:href="#DejaVuSerif-61" transform="translate(770.703125 0)"/>
     <use xlink:href="#DejaVuSerif-74" transform="translate(830.322266 0)"/>
     <use xlink:href="#DejaVuSerif-65" transform="translate(870.507812 0)"/>
     <use xlink:href="#DejaVuSerif-7d" transform="translate(929.6875 0)"/>
    </g>
    <!--  \item[(a)] $f(0) &gt; 0$, -->
    <g transform="translate(325.44 102.74) scale(0.12 -0.12)">
     <defs>
      <path id="DejaVuSerif-5b" d="M 550 4863 
L 2003 4863 
L 2003 4531 
L 1147 4531 
L 1147 -513 
L 2003 -513 
L 2003 -844 
L 550 -844 
L 550 4863 
z
" transform="scale(0.015625)"/>
      <path id="DejaVuSerif-28" d="M 2041 -997 
Q 1281 -656 893 83 
Q 506 822 506 1931 
Q 506 3044 893 3783 
Q 1281 4522 2041 4863 
L 2041 4556 
Q 1559 4225 1350 3623 
Q 1141 3022 1141 1931 
Q 1141 844 1350 242 
Q 1559 -359 2041 -691 
L 2041 -997 
z
" transform="scale(0.015625)"/>
      <path id="DejaVuSerif-29" d="M 453 -997 
L 453 -691 
Q 934 -359 1145 242 
Q 1356 844 1356 1931 
Q 1356 3022 1145 3623 
Q 934 4225 453 4556 
L 453 4863 
Q 1216 4522 1603 3783 
Q 1991 3044 1991 1931 
Q 1991 822 1603 83 
Q 1216 -656 453 -997 
z
" transform="scale(0.015625)"/>
      <path id="DejaVuSerif-5d" d="M 1947 4863 
L 1947 -844 
L 494 -844 
L 494 -513 
L 1350 -513 
L 1350 4531 
L 494 4531 
L 494 4863 
L 1947 4863 
z
" transform="scale(0.015625)"/>
      <path id="Cmr10-28" d="M 1984 -1588 
Q 1628 -1306 1370 -942 
Q 1113 -578 948 -165 
Q 784 247 703 697 
Q 622 1147 622 1600 
Q 622 2059 703 2509 
Q 784 2959 951 3375 
Q 1119 3791 1378 4153 
Q 1638 4516 1984 4788 
Q 1984 4800 2016 4800 
L 2075 4800 
Q 2094 4800 2109 4783 
Q 2125 4766 2125 4744 
Q 2125 4716 2113 4703 
Q 1800 4397 1592 4047 
Q 1384 3697 1257 3301 
Q 1131 2906 1075 2482 
Q 1019 2059 1019 1600 
Q 1019 -434 2106 -1491 
Q 2125 -1509 2125 -1544 
Q 2125 -1559 2108 -1579 
Q 2091 -1600 2075 -1600 
L 2016 -1600 
Q 1984 -1600 1984 -1588 
z
" transform="scale(0.015625)"/>
      <path id="Cmr10-30" d="M 1600 -141 
Q 816 -141 533 504 
Q 250 1150 250 2041 
Q 250 2597 351 3087 
Q 453 3578 754 3920 
Q 1056 4263 1600 4263 
Q 2022 4263 2290 4056 
Q 2559 3850 2700 3523 
Q 2841 3197 2892 2823 
Q 2944 2450 2944 2041 
Q 2944 1491 2842 1011 
Q 2741 531 2444 195 
Q 2147 -141 1600 -141 
z
M 1600 25 
Q 1956 25 2131 390 
Q 2306 756 2347 1200 
Q 2388 1644 2388 2144 
Q 2388 2625 2347 3031 
Q 2306 3438 2132 3767 
Q 1959 4097 1600 4097 
Q 1238 4097 1063 3765 
Q 888 3434 847 3029 
Q 806 2625 806 2144 
Q 806 1788 823 1472 
Q 841 1156 916 820 
Q 991 484 1158 254 
Q 1325 25 1600 25 
z
" transform="scale(0.015625)"/>
      <path id="Cmr10-29" d="M 416 -1600 
Q 359 -1600 359 -1544 
Q 359 -1516 372 -1503 
Q 1466 -434 1466 1600 
Q 1466 3634 384 4691 
Q 359 4706 359 4744 
Q 359 4766 376 4783 
Q 394 4800 416 4800 
L 475 4800 
Q 494 4800 506 4788 
Q 966 4425 1272 3906 
Q 1578 3388 1720 2800 
Q 1863 2213 1863 1600 
Q 1863 1147 1786 708 
Q 1709 269 1542 -157 
Q 1375 -584 1119 -945 
Q 863 -1306 506 -1588 
Q 494 -1600 475 -1600 
L 416 -1600 
z
" transform="scale(0.015625)"/>
      <path id="Cmmi10-3e" d="M 531 -128 
Q 531 -47 616 -6 
L 4013 1600 
L 594 3219 
Q 531 3238 531 3328 
Q 531 3372 567 3414 
Q 603 3456 659 3456 
Q 672 3456 709 3444 
L 4384 1709 
Q 4441 1681 4441 1600 
Q 4441 1516 4366 1484 
L 709 -244 
Q 672 -256 659 -256 
Q 603 -256 567 -214 
Q 531 -172 531 -128 
z
" transform="scale(0.015625)"/>
      <path id="DejaVuSerif-2c" d="M 231 -622 
Q 525 -406 662 -114 
Q 800 178 800 594 
L 800 709 
L 1416 709 
Q 1391 175 1164 -208 
Q 938 -591 481 -872 
L 231 -622 
z
" transform="scale(0.015625)"/>
     </defs>
     <use xlink:href="#DejaVuSerif-20" transform="translate(0 0.015625)"/>
     <use xlink:href="#DejaVuSerif-5c" transform="translate(31.787109 0.015625)"/>
     <use xlink:href="#DejaVuSerif-69" transform="translate(65.478516 0.015625)"/>
     <use xlink:href="#DejaVuSerif-74" transform="translate(97.460938 0.015625)"/>
     <use xlink:href="#DejaVuSerif-65" transform="translate(137.646484 0.015625)"/>
     <use xlink:href="#DejaVuSerif-6d" transform="translate(196.826172 0.015625)"/>
     <use xlink:href="#DejaVuSerif-5b" transform="translate(291.650391 0.015625)"/>
     <use xlink:href="#DejaVuSerif-28" transform="translate(330.664062 0.015625)"/>
     <use xlink:href="#DejaVuSerif-61" transform="translate(369.677734 0.015625)"/>
     <use xlink:href="#DejaVuSerif-29" transform="translate(429.296875 0.015625)"/>
     <use xlink:href="#DejaVuSerif-5d" transform="translate(468.310547 0.015625)"/>
     <use xlink:href="#DejaVuSerif-20" transform="translate(507.324219 0.015625)"/>
     <use xlink:href="#Cmmi10-66" transform="translate(539.111328 0.015625)"/>
     <use xlink:href="#Cmr10-28" transform="translate(587.988281 0.015625)"/>
     <use xlink:href="#Cmr10-30" transform="translate(626.806641 0.015625)"/>
     <use xlink:href="#Cmr10-29" transform="translate(676.806641 0.015625)"/>
     <use xlink:href="#Cmmi10-3e" transform="translate(733.183594 0.015625)"/>
     <use xlink:href="#Cmr10-30" transform="translate(828.427734 0.015625)"/>
     <use xlink:href="#DejaVuSerif-2c" transform="translate(878.427734 0.015625)"/>
    </g>
    <!--  \item[(b)] $g(0) = 0$, -->
    <g transform="translate(325.26 116.684) scale(0.12 -0.12)">
     <defs>
      <path id="Cmr10-3d" d="M 481 850 
Q 428 850 393 890 
Q 359 931 359 978 
Q 359 1031 393 1068 
Q 428 1106 481 1106 
L 4500 1106 
Q 4547 1106 4581 1068 
Q 4616 1031 4616 978 
Q 4616 931 4581 890 
Q 4547 850 4500 850 
L 481 850 
z
M 481 2094 
Q 428 2094 393 2131 
Q 359 2169 359 2222 
Q 359 2269 393 2309 
Q 428 2350 481 2350 
L 4500 2350 
Q 4547 2350 4581 2309 
Q 4616 2269 4616 2222 
Q 4616 2169 4581 2131 
Q 4547 2094 4500 2094 
L 481 2094 
z
" transform="scale(0.015625)"/>
     </defs>
     <use xlink:href="#DejaVuSerif-20" transform="translate(0 0.015625)"/>
     <use xlink:href="#DejaVuSerif-5c" transform="translate(31.787109 0.015625)"/>
     <use xlink:href="#DejaVuSerif-69" transform="translate(65.478516 0.015625)"/>
     <use xlink:href="#DejaVuSerif-74" transform="translate(97.460938 0.015625)"/>
     <use xlink:href="#DejaVuSerif-65" transform="translate(137.646484 0.015625)"/>
     <use xlink:href="#DejaVuSerif-6d" transform="translate(196.826172 0.015625)"/>
     <use xlink:href="#DejaVuSerif-5b" transform="translate(291.650391 0.015625)"/>
     <use xlink:href="#DejaVuSerif-28" transform="translate(330.664062 0.015625)"/>
     <use xlink:href="#DejaVuSerif-62" transform="translate(369.677734 0.015625)"/>
     <use xlink:href="#DejaVuSerif-29" transform="translate(433.691406 0.015625)"/>
     <use xlink:href="#DejaVuSerif-5d" transform="translate(472.705078 0.015625)"/>
     <use xlink:href="#DejaVuSerif-20" transform="translate(511.71875 0.015625)"/>
     <use xlink:href="#Cmmi10-67" transform="translate(543.505859 0.015625)"/>
     <use xlink:href="#Cmr10-28" transform="translate(591.210938 0.015625)"/>
     <use xlink:href="#Cmr10-30" transform="translate(630.029297 0.015625)"/>
     <use xlink:href="#Cmr10-29" transform="translate(680.029297 0.015625)"/>
     <use xlink:href="#Cmr10-3d" transform="translate(736.40625 0.015625)"/>
     <use xlink:href="#Cmr10-30" transform="translate(831.650391 0.015625)"/>
     <use xlink:href="#DejaVuSerif-2c" transform="translate(881.650391 0.015625)"/>
    </g>
    <!--  \item[(c)] $|f'(x)| \leqq |g(x)|$ for all $x$, -->
    <g transform="translate(283.68 130.916) scale(0.12 -0.12)">
     <defs>
      <path id="Cmsy10-6a" d="M 763 -1484 
L 763 4684 
Q 763 4734 800 4767 
Q 838 4800 891 4800 
Q 938 4800 978 4767 
Q 1019 4734 1019 4684 
L 1019 -1484 
Q 1019 -1534 978 -1567 
Q 938 -1600 891 -1600 
Q 838 -1600 800 -1567 
Q 763 -1534 763 -1484 
z
" transform="scale(0.015625)"/>
      <path id="Cmsy10-30" d="M 225 347 
Q 184 359 184 409 
L 966 3316 
Q 1003 3434 1093 3506 
Q 1184 3578 1300 3578 
Q 1450 3578 1564 3479 
Q 1678 3381 1678 3231 
Q 1678 3166 1644 3084 
L 488 319 
Q 466 275 428 275 
Q 394 275 320 306 
Q 247 338 225 347 
z
" transform="scale(0.015625)"/>
      <path id="Cmmi10-78" d="M 500 184 
Q 613 97 819 97 
Q 1019 97 1172 289 
Q 1325 481 1381 709 
L 1672 1844 
Q 1741 2153 1741 2266 
Q 1741 2425 1652 2544 
Q 1563 2663 1403 2663 
Q 1200 2663 1022 2536 
Q 844 2409 722 2214 
Q 600 2019 550 1819 
Q 538 1778 500 1778 
L 422 1778 
Q 372 1778 372 1838 
L 372 1856 
Q 434 2094 584 2320 
Q 734 2547 951 2687 
Q 1169 2828 1416 2828 
Q 1650 2828 1839 2703 
Q 2028 2578 2106 2363 
Q 2216 2559 2386 2693 
Q 2556 2828 2759 2828 
Q 2897 2828 3040 2779 
Q 3184 2731 3275 2631 
Q 3366 2531 3366 2381 
Q 3366 2219 3261 2101 
Q 3156 1984 2994 1984 
Q 2891 1984 2822 2050 
Q 2753 2116 2753 2216 
Q 2753 2350 2845 2451 
Q 2938 2553 3066 2572 
Q 2950 2663 2747 2663 
Q 2541 2663 2389 2472 
Q 2238 2281 2175 2047 
L 1894 916 
Q 1825 659 1825 494 
Q 1825 331 1917 214 
Q 2009 97 2163 97 
Q 2463 97 2698 361 
Q 2934 625 3009 941 
Q 3022 978 3059 978 
L 3138 978 
Q 3163 978 3178 961 
Q 3194 944 3194 922 
Q 3194 916 3188 903 
Q 3097 522 2806 225 
Q 2516 -72 2150 -72 
Q 1916 -72 1727 54 
Q 1538 181 1459 397 
Q 1359 209 1182 68 
Q 1006 -72 806 -72 
Q 669 -72 523 -23 
Q 378 25 287 125 
Q 197 225 197 378 
Q 197 528 301 651 
Q 406 775 563 775 
Q 669 775 741 711 
Q 813 647 813 544 
Q 813 409 723 309 
Q 634 209 500 184 
z
" transform="scale(0.015625)"/>
      <path id="STIXGeneral-Regular-2266" d="M 3981 1024 
L 365 2771 
L 365 2835 
L 3981 4595 
L 3981 4179 
L 1216 2803 
L 3981 1427 
L 3981 1024 
z
M 3981 -77 
L 365 -77 
L 365 346 
L 3981 346 
L 3981 -77 
z
M 3981 -1350 
L 365 -1350 
L 365 -928 
L 3981 -928 
L 3981 -1350 
z
" transform="scale(0.015625)"/>
     </defs>
     <use xlink:href="#DejaVuSerif-20" transform="translate(0 0.601562)"/>
     <use xlink:href="#DejaVuSerif-5c" transform="translate(31.787109 0.601562)"/>
     <use xlink:href="#DejaVuSerif-69" transform="translate(65.478516 0.601562)"/>
     <use xlink:href="#DejaVuSerif-74" transform="translate(97.460938 0.601562)"/>
     <use xlink:href="#DejaVuSerif-65" transform="translate(137.646484 0.601562)"/>
     <use xlink:href="#DejaVuSerif-6d" transform="translate(196.826172 0.601562)"/>
     <use xlink:href="#DejaVuSerif-5b" transform="translate(291.650391 0.601562)"/>
     <use xlink:href="#DejaVuSerif-28" transform="translate(330.664062 0.601562)"/>
     <use xlink:href="#DejaVuSerif-63" transform="translate(369.677734 0.601562)"/>
     <use xlink:href="#DejaVuSerif-29" transform="translate(425.683594 0.601562)"/>
     <use xlink:href="#DejaVuSerif-5d" transform="translate(464.697266 0.601562)"/>
     <use xlink:href="#DejaVuSerif-20" transform="translate(503.710938 0.601562)"/>
     <use xlink:href="#Cmsy10-6a" transform="translate(535.498047 0.601562)"/>
     <use xlink:href="#Cmmi10-66" transform="translate(563.183594 0.601562)"/>
     <use xlink:href="#Cmsy10-30" transform="translate(623.892734 38.865625) scale(0.7)"/>
     <use xlink:href="#Cmr10-28" transform="translate(649.513242 0.601562)"/>
     <use xlink:href="#Cmmi10-78" transform="translate(688.331602 0.601562)"/>
     <use xlink:href="#Cmr10-29" transform="translate(745.41168 0.601562)"/>
     <use xlink:href="#Cmsy10-6a" transform="translate(784.230039 0.601562)"/>
     <use xlink:href="#STIXGeneral-Regular-2266" transform="translate(829.47418 0.601562)"/>
     <use xlink:href="#Cmsy10-6a" transform="translate(915.532758 0.601562)"/>
     <use xlink:href="#Cmmi10-67" transform="translate(943.218305 0.601562)"/>
     <use xlink:href="#Cmr10-28" transform="translate(990.923383 0.601562)"/>
     <use xlink:href="#Cmmi10-78" transform="translate(1029.741743 0.601562)"/>
     <use xlink:href="#Cmr10-29" transform="translate(1086.821821 0.601562)"/>
     <use xlink:href="#Cmsy10-6a" transform="translate(1125.64018 0.601562)"/>
     <use xlink:href="#DejaVuSerif-20" transform="translate(1153.325727 0.601562)"/>
     <use xlink:href="#DejaVuSerif-66" transform="translate(1185.112836 0.601562)"/>
     <use xlink:href="#DejaVuSerif-6f" transform="translate(1222.124555 0.601562)"/>
     <use xlink:href="#DejaVuSerif-72" transform="translate(1282.329633 0.601562)"/>
     <use xlink:href="#DejaVuSerif-20" transform="translate(1330.132368 0.601562)"/>
     <use xlink:href="#DejaVuSerif-61" transform="translate(1361.919477 0.601562)"/>
     <use xlink:href="#DejaVuSerif-6c" transform="translate(1421.538618 0.601562)"/>
     <use xlink:href="#DejaVuSerif-6c" transform="translate(1453.521039 0.601562)"/>
     <use xlink:href="#DejaVuSerif-20" transform="translate(1485.503461 0.601562)"/>
     <use xlink:href="#Cmmi10-78" transform="translate(1517.290571 0.601562)"/>
     <use xlink:href="#DejaVuSerif-2c" transform="translate(1574.370649 0.601562)"/>
    </g>
    <!--  \item[(d)] $|g'(x)| \leqq |f(x)|$ for all $x$, and -->
    <g transform="translate(270.36 145.148) scale(0.12 -0.12)">
     <use xlink:href="#DejaVuSerif-20" transform="translate(0 0.601562)"/>
     <use xlink:href="#DejaVuSerif-5c" transform="translate(31.787109 0.601562)"/>
     <use xlink:href="#DejaVuSerif-69" transform="translate(65.478516 0.601562)"/>
     <use xlink:href="#DejaVuSerif-74" transform="translate(97.460938 0.601562)"/>
     <use xlink:href="#DejaVuSerif-65" transform="translate(137.646484 0.601562)"/>
     <use xlink:href="#DejaVuSerif-6d" transform="translate(196.826172 0.601562)"/>
     <use xlink:href="#DejaVuSerif-5b" transform="translate(291.650391 0.601562)"/>
     <use xlink:href="#DejaVuSerif-28" transform="translate(330.664062 0.601562)"/>
     <use xlink:href="#DejaVuSerif-64" transform="translate(369.677734 0.601562)"/>
     <use xlink:href="#DejaVuSerif-29" transform="translate(433.691406 0.601562)"/>
     <use xlink:href="#DejaVuSerif-5d" transform="translate(472.705078 0.601562)"/>
     <use xlink:href="#DejaVuSerif-20" transform="translate(511.71875 0.601562)"/>
     <use xlink:href="#Cmsy10-6a" transform="translate(543.505859 0.601562)"/>
     <use xlink:href="#Cmmi10-67" transform="translate(571.191406 0.601562)"/>
     <use xlink:href="#Cmsy10-30" transform="translate(625.199766 38.865625) scale(0.7)"/>
     <use xlink:href="#Cmr10-28" transform="translate(650.820273 0.601562)"/>
     <use xlink:href="#Cmmi10-78" transform="translate(689.638633 0.601562)"/>
     <use xlink:href="#Cmr10-29" transform="translate(746.718711 0.601562)"/>
     <use xlink:href="#Cmsy10-6a" transform="translate(785.53707 0.601562)"/>
     <use xlink:href="#STIXGeneral-Regular-2266" transform="translate(830.781211 0.601562)"/>
     <use xlink:href="#Cmsy10-6a" transform="translate(916.839789 0.601562)"/>
     <use xlink:href="#Cmmi10-66" transform="translate(944.525336 0.601562)"/>
     <use xlink:href="#Cmr10-28" transform="translate(993.402289 0.601562)"/>
     <use xlink:href="#Cmmi10-78" transform="translate(1032.220649 0.601562)"/>
     <use xlink:href="#Cmr10-29" transform="translate(1089.300727 0.601562)"/>
     <use xlink:href="#Cmsy10-6a" transform="translate(1128.119086 0.601562)"/>
     <use xlink:href="#DejaVuSerif-20" transform="translate(1155.804633 0.601562)"/>
     <use xlink:href="#DejaVuSerif-66" transform="translate(1187.591743 0.601562)"/>
     <use xlink:href="#DejaVuSerif-6f" transform="translate(1224.603461 0.601562)"/>
     <use xlink:href="#DejaVuSerif-72" transform="translate(1284.808539 0.601562)"/>
     <use xlink:href="#DejaVuSerif-20" transform="translate(1332.611274 0.601562)"/>
     <use xlink:href="#DejaVuSerif-61" transform="translate(1364.398383 0.601562)"/>
     <use xlink:href="#DejaVuSerif-6c" transform="translate(1424.017524 0.601562)"/>
     <use xlink:href="#DejaVuSerif-6c" transform="translate(1455.999946 0.601562)"/>
     <use xlink:href="#DejaVuSerif-20" transform="translate(1487.982368 0.601562)"/>
     <use xlink:href="#Cmmi10-78" transform="translate(1519.769477 0.601562)"/>
     <use xlink:href="#DejaVuSerif-2c" transform="translate(1576.849555 0.601562)"/>
     <use xlink:href="#DejaVuSerif-20" transform="translate(1608.636664 0.601562)"/>
     <use xlink:href="#DejaVuSerif-61" transform="translate(1640.423774 0.601562)"/>
     <use xlink:href="#DejaVuSerif-6e" transform="translate(1700.042914 0.601562)"/>
     <use xlink:href="#DejaVuSerif-64" transform="translate(1764.447211 0.601562)"/>
    </g>
    <!--  \item[(e)] $f(r) = 0$. \end{enumerate} -->
    <g transform="translate(270.06 159.092) scale(0.12 -0.12)">
     <defs>
      <path id="DejaVuSerif-2e" d="M 603 325 
Q 603 500 722 622 
Q 841 744 1019 744 
Q 1191 744 1312 622 
Q 1434 500 1434 325 
Q 1434 153 1312 31 
Q 1191 -91 1019 -91 
Q 841 -91 722 29 
Q 603 150 603 325 
z
" transform="scale(0.015625)"/>
     </defs>
     <use xlink:href="#DejaVuSerif-20" transform="translate(0 0.015625)"/>
     <use xlink:href="#DejaVuSerif-5c" transform="translate(31.787109 0.015625)"/>
     <use xlink:href="#DejaVuSerif-69" transform="translate(65.478516 0.015625)"/>
     <use xlink:href="#DejaVuSerif-74" transform="translate(97.460938 0.015625)"/>
     <use xlink:href="#DejaVuSerif-65" transform="translate(137.646484 0.015625)"/>
     <use xlink:href="#DejaVuSerif-6d" transform="translate(196.826172 0.015625)"/>
     <use xlink:href="#DejaVuSerif-5b" transform="translate(291.650391 0.015625)"/>
     <use xlink:href="#DejaVuSerif-28" transform="translate(330.664062 0.015625)"/>
     <use xlink:href="#DejaVuSerif-65" transform="translate(369.677734 0.015625)"/>
     <use xlink:href="#DejaVuSerif-29" transform="translate(428.857422 0.015625)"/>
     <use xlink:href="#DejaVuSerif-5d" transform="translate(467.871094 0.015625)"/>
     <use xlink:href="#DejaVuSerif-20" transform="translate(506.884766 0.015625)"/>
     <use xlink:href="#Cmmi10-66" transform="translate(538.671875 0.015625)"/>
     <use xlink:href="#Cmr10-28" transform="translate(587.548828 0.015625)"/>
     <use xlink:href="#Cmmi10-72" transform="translate(626.367188 0.015625)"/>
     <use xlink:href="#Cmr10-29" transform="translate(671.484375 0.015625)"/>
     <use xlink:href="#Cmr10-3d" transform="translate(727.861328 0.015625)"/>
     <use xlink:href="#Cmr10-30" transform="translate(823.105469 0.015625)"/>
     <use xlink:href="#DejaVuSerif-2e" transform="translate(873.105469 0.015625)"/>
     <use xlink:href="#DejaVuSerif-20" transform="translate(904.892578 0.015625)"/>
     <use xlink:href="#DejaVuSerif-5c" transform="translate(936.679688 0.015625)"/>
     <use xlink:href="#DejaVuSerif-65" transform="translate(970.371094 0.015625)"/>
     <use xlink:href="#DejaVuSerif-6e" transform="translate(1029.550781 0.015625)"/>
     <use xlink:href="#DejaVuSerif-64" transform="translate(1093.955078 0.015625)"/>
     <use xlink:href="#DejaVuSerif-7b" transform="translate(1157.96875 0.015625)"/>
     <use xlink:href="#DejaVuSerif-65" transform="translate(1221.591797 0.015625)"/>
     <use xlink:href="#DejaVuSerif-6e" transform="translate(1280.771484 0.015625)"/>
     <use xlink:href="#DejaVuSerif-75" transform="translate(1345.175781 0.015625)"/>
     <use xlink:href="#DejaVuSerif-6d" transform="translate(1409.580078 0.015625)"/>
     <use xlink:href="#DejaVuSerif-65" transform="translate(1504.404297 0.015625)"/>
     <use xlink:href="#DejaVuSerif-72" transform="translate(1563.583984 0.015625)"/>
     <use xlink:href="#DejaVuSerif-61" transform="translate(1611.386719 0.015625)"/>
     <use xlink:href="#DejaVuSerif-74" transform="translate(1671.005859 0.015625)"/>
     <use xlink:href="#DejaVuSerif-65" transform="translate(1711.191406 0.015625)"/>
     <use xlink:href="#DejaVuSerif-7d" transform="translate(1770.371094 0.015625)"/>
    </g>
   </g>
  </g>
 </g>
</svg>
