<?xml version="1.0" encoding="utf-8" standalone="no"?>
<!DOCTYPE svg PUBLIC "-//W3C//DTD SVG 1.1//EN"
  "http://www.w3.org/Graphics/SVG/1.1/DTD/svg11.dtd">
<svg xmlns:xlink="http://www.w3.org/1999/xlink" width="1760.28pt" height="180.72pt" viewBox="0 0 1760.28 180.72" xmlns="http://www.w3.org/2000/svg" version="1.1">
 <metadata>
  <rdf:RDF xmlns:dc="http://purl.org/dc/elements/1.1/" xmlns:cc="http://creativecommons.org/ns#" xmlns:rdf="http://www.w3.org/1999/02/22-rdf-syntax-ns#">
   <cc:Work>
    <dc:type rdf:resource="http://purl.org/dc/dcmitype/StillImage"/>
    <dc:date>2025-05-29T18:44:04.954186</dc:date>
    <dc:format>image/svg+xml</dc:format>
    <dc:creator>
     <cc:Agent>
      <dc:title>Matplotlib v3.10.3, https://matplotlib.org/</dc:title>
     </cc:Agent>
    </dc:creator>
   </cc:Work>
  </rdf:RDF>
 </metadata>
 <defs>
  <style type="text/css">*{stroke-linejoin: round; stroke-linecap: butt}</style>
 </defs>
 <g id="figure_1">
  <g id="patch_1">
   <path d="M -0 180.72 
L 1760.28 180.72 
L 1760.28 0 
L -0 0 
z
" style="fill: #ffffff"/>
  </g>
  <g id="axes_1">
   <g id="text_1">
    <!-- Let $A=\{(x,y):0\leqq x,y&lt;1\}$.  For $(x,y)\in A$, let \[S(x,y) = \sum_{\frac{1}{2}\leqq \frac{m}{n}\leqq 2} x^m y^n,\] where the sum ranges over all pairs $(m,n)$ of positive integers satisfying the indicated inequalities.  Evaluate \[\lim_{(x,y)\rightarrow (1,1), (x,y)\in A} (1-xy^2)(1-x^2y)S(x,y).\] -->
    <g transform="translate(7.2 94.74) scale(0.12 -0.12)">
     <defs>
      <path id="DejaVuSerif-4c" d="M 353 0 
L 353 331 
L 947 331 
L 947 4331 
L 353 4331 
L 353 4666 
L 2175 4666 
L 2175 4331 
L 1581 4331 
L 1581 384 
L 3713 384 
L 3713 1166 
L 4097 1166 
L 4097 0 
L 353 0 
z
" transform="scale(0.015625)"/>
      <path id="DejaVuSerif-65" d="M 3469 1600 
L 991 1600 
L 991 1575 
Q 991 903 1244 561 
Q 1497 219 1991 219 
Q 2369 219 2611 417 
Q 2853 616 2950 1006 
L 3413 1006 
Q 3275 459 2904 184 
Q 2534 -91 1931 -91 
Q 1203 -91 761 389 
Q 319 869 319 1663 
Q 319 2450 753 2931 
Q 1188 3413 1894 3413 
Q 2647 3413 3050 2948 
Q 3453 2484 3469 1600 
z
M 2791 1931 
Q 2772 2513 2545 2808 
Q 2319 3103 1894 3103 
Q 1497 3103 1269 2806 
Q 1041 2509 991 1931 
L 2791 1931 
z
" transform="scale(0.015625)"/>
      <path id="DejaVuSerif-74" d="M 691 2988 
L 184 2988 
L 184 3322 
L 691 3322 
L 691 4353 
L 1269 4353 
L 1269 3322 
L 2350 3322 
L 2350 2988 
L 1269 2988 
L 1269 878 
Q 1269 456 1350 337 
Q 1431 219 1650 219 
Q 1875 219 1978 351 
Q 2081 484 2088 781 
L 2522 781 
Q 2497 328 2275 118 
Q 2053 -91 1600 -91 
Q 1103 -91 897 129 
Q 691 350 691 878 
L 691 2988 
z
" transform="scale(0.015625)"/>
      <path id="DejaVuSerif-20" transform="scale(0.015625)"/>
      <path id="Cmmi10-41" d="M 288 0 
Q 225 0 225 84 
Q 250 225 306 225 
Q 566 225 755 328 
Q 944 431 1081 647 
Q 1094 659 1094 659 
L 3378 4513 
Q 3428 4581 3500 4581 
L 3584 4581 
Q 3603 4581 3622 4573 
Q 3641 4566 3655 4548 
Q 3669 4531 3669 4513 
L 4056 378 
Q 4056 350 4084 294 
Q 4147 225 4563 225 
Q 4628 225 4628 141 
Q 4606 56 4592 28 
Q 4578 0 4519 0 
L 2919 0 
Q 2859 0 2859 84 
Q 2894 225 2944 225 
Q 3450 225 3481 397 
L 3384 1453 
L 1806 1453 
L 1294 594 
Q 1247 525 1247 434 
Q 1247 322 1355 273 
Q 1463 225 1594 225 
Q 1656 225 1656 141 
Q 1634 50 1621 25 
Q 1609 0 1550 0 
L 288 0 
z
M 1931 1678 
L 3359 1678 
L 3169 3750 
L 1931 1678 
z
" transform="scale(0.015625)"/>
      <path id="Cmr10-3d" d="M 481 850 
Q 428 850 393 890 
Q 359 931 359 978 
Q 359 1031 393 1068 
Q 428 1106 481 1106 
L 4500 1106 
Q 4547 1106 4581 1068 
Q 4616 1031 4616 978 
Q 4616 931 4581 890 
Q 4547 850 4500 850 
L 481 850 
z
M 481 2094 
Q 428 2094 393 2131 
Q 359 2169 359 2222 
Q 359 2269 393 2309 
Q 428 2350 481 2350 
L 4500 2350 
Q 4547 2350 4581 2309 
Q 4616 2269 4616 2222 
Q 4616 2169 4581 2131 
Q 4547 2094 4500 2094 
L 481 2094 
z
" transform="scale(0.015625)"/>
      <path id="Cmex10-a9" d="M 1631 -6425 
L 1631 -4556 
Q 1631 -4338 1503 -4159 
Q 1375 -3981 1184 -3867 
Q 994 -3753 756 -3675 
Q 709 -3650 709 -3622 
L 709 -3547 
Q 709 -3503 756 -3494 
Q 1128 -3366 1379 -3150 
Q 1631 -2934 1631 -2606 
L 1631 -738 
Q 1631 -325 2004 -95 
Q 2378 134 2888 256 
L 2963 256 
Q 2981 256 2998 242 
Q 3016 228 3016 206 
L 3016 128 
Q 3016 91 2975 78 
Q 2619 -31 2359 -232 
Q 2100 -434 2100 -750 
L 2100 -2619 
Q 2100 -2994 1804 -3214 
Q 1509 -3434 1056 -3584 
Q 1497 -3716 1798 -3939 
Q 2100 -4163 2100 -4544 
L 2100 -6413 
Q 2100 -6628 2231 -6790 
Q 2363 -6953 2556 -7059 
Q 2750 -7166 2975 -7238 
Q 3016 -7250 3016 -7291 
L 3016 -7366 
Q 3016 -7384 2998 -7401 
Q 2981 -7419 2963 -7419 
L 2888 -7419 
Q 2559 -7338 2292 -7227 
Q 2025 -7116 1828 -6914 
Q 1631 -6713 1631 -6425 
z
" transform="scale(0.015625)"/>
      <path id="Cmr10-28" d="M 1984 -1588 
Q 1628 -1306 1370 -942 
Q 1113 -578 948 -165 
Q 784 247 703 697 
Q 622 1147 622 1600 
Q 622 2059 703 2509 
Q 784 2959 951 3375 
Q 1119 3791 1378 4153 
Q 1638 4516 1984 4788 
Q 1984 4800 2016 4800 
L 2075 4800 
Q 2094 4800 2109 4783 
Q 2125 4766 2125 4744 
Q 2125 4716 2113 4703 
Q 1800 4397 1592 4047 
Q 1384 3697 1257 3301 
Q 1131 2906 1075 2482 
Q 1019 2059 1019 1600 
Q 1019 -434 2106 -1491 
Q 2125 -1509 2125 -1544 
Q 2125 -1559 2108 -1579 
Q 2091 -1600 2075 -1600 
L 2016 -1600 
Q 1984 -1600 1984 -1588 
z
" transform="scale(0.015625)"/>
      <path id="Cmmi10-78" d="M 500 184 
Q 613 97 819 97 
Q 1019 97 1172 289 
Q 1325 481 1381 709 
L 1672 1844 
Q 1741 2153 1741 2266 
Q 1741 2425 1652 2544 
Q 1563 2663 1403 2663 
Q 1200 2663 1022 2536 
Q 844 2409 722 2214 
Q 600 2019 550 1819 
Q 538 1778 500 1778 
L 422 1778 
Q 372 1778 372 1838 
L 372 1856 
Q 434 2094 584 2320 
Q 734 2547 951 2687 
Q 1169 2828 1416 2828 
Q 1650 2828 1839 2703 
Q 2028 2578 2106 2363 
Q 2216 2559 2386 2693 
Q 2556 2828 2759 2828 
Q 2897 2828 3040 2779 
Q 3184 2731 3275 2631 
Q 3366 2531 3366 2381 
Q 3366 2219 3261 2101 
Q 3156 1984 2994 1984 
Q 2891 1984 2822 2050 
Q 2753 2116 2753 2216 
Q 2753 2350 2845 2451 
Q 2938 2553 3066 2572 
Q 2950 2663 2747 2663 
Q 2541 2663 2389 2472 
Q 2238 2281 2175 2047 
L 1894 916 
Q 1825 659 1825 494 
Q 1825 331 1917 214 
Q 2009 97 2163 97 
Q 2463 97 2698 361 
Q 2934 625 3009 941 
Q 3022 978 3059 978 
L 3138 978 
Q 3163 978 3178 961 
Q 3194 944 3194 922 
Q 3194 916 3188 903 
Q 3097 522 2806 225 
Q 2516 -72 2150 -72 
Q 1916 -72 1727 54 
Q 1538 181 1459 397 
Q 1359 209 1182 68 
Q 1006 -72 806 -72 
Q 669 -72 523 -23 
Q 378 25 287 125 
Q 197 225 197 378 
Q 197 528 301 651 
Q 406 775 563 775 
Q 669 775 741 711 
Q 813 647 813 544 
Q 813 409 723 309 
Q 634 209 500 184 
z
" transform="scale(0.015625)"/>
      <path id="Cmmi10-3b" d="M 634 -1153 
Q 634 -1125 659 -1100 
Q 891 -878 1019 -587 
Q 1147 -297 1147 25 
L 1147 103 
Q 1044 0 891 0 
Q 744 0 641 103 
Q 538 206 538 353 
Q 538 503 641 603 
Q 744 703 891 703 
Q 1119 703 1216 492 
Q 1313 281 1313 25 
Q 1313 -331 1170 -651 
Q 1028 -972 769 -1228 
Q 744 -1241 728 -1241 
Q 697 -1241 665 -1212 
Q 634 -1184 634 -1153 
z
" transform="scale(0.015625)"/>
      <path id="Cmmi10-79" d="M 538 -916 
Q 672 -1147 1006 -1147 
Q 1309 -1147 1531 -934 
Q 1753 -722 1889 -420 
Q 2025 -119 2100 197 
Q 1816 -72 1484 -72 
Q 1231 -72 1053 15 
Q 875 103 776 276 
Q 678 450 678 697 
Q 678 906 734 1126 
Q 791 1347 892 1617 
Q 994 1888 1069 2088 
Q 1153 2322 1153 2472 
Q 1153 2663 1013 2663 
Q 759 2663 595 2402 
Q 431 2141 353 1819 
Q 341 1778 300 1778 
L 225 1778 
Q 172 1778 172 1838 
L 172 1856 
Q 275 2238 487 2533 
Q 700 2828 1025 2828 
Q 1253 2828 1411 2678 
Q 1569 2528 1569 2297 
Q 1569 2178 1516 2047 
Q 1488 1969 1388 1706 
Q 1288 1444 1234 1272 
Q 1181 1100 1147 934 
Q 1113 769 1113 603 
Q 1113 391 1203 244 
Q 1294 97 1491 97 
Q 1888 97 2203 581 
L 2688 2553 
Q 2709 2638 2787 2698 
Q 2866 2759 2956 2759 
Q 3034 2759 3092 2709 
Q 3150 2659 3150 2578 
Q 3150 2541 3144 2528 
L 2509 -19 
Q 2425 -347 2200 -647 
Q 1975 -947 1658 -1130 
Q 1341 -1313 997 -1313 
Q 831 -1313 668 -1248 
Q 506 -1184 406 -1056 
Q 306 -928 306 -756 
Q 306 -581 409 -453 
Q 513 -325 684 -325 
Q 788 -325 858 -389 
Q 928 -453 928 -556 
Q 928 -703 818 -812 
Q 709 -922 563 -922 
Q 556 -919 550 -917 
Q 544 -916 538 -916 
z
" transform="scale(0.015625)"/>
      <path id="Cmr10-29" d="M 416 -1600 
Q 359 -1600 359 -1544 
Q 359 -1516 372 -1503 
Q 1466 -434 1466 1600 
Q 1466 3634 384 4691 
Q 359 4706 359 4744 
Q 359 4766 376 4783 
Q 394 4800 416 4800 
L 475 4800 
Q 494 4800 506 4788 
Q 966 4425 1272 3906 
Q 1578 3388 1720 2800 
Q 1863 2213 1863 1600 
Q 1863 1147 1786 708 
Q 1709 269 1542 -157 
Q 1375 -584 1119 -945 
Q 863 -1306 506 -1588 
Q 494 -1600 475 -1600 
L 416 -1600 
z
" transform="scale(0.015625)"/>
      <path id="Cmr10-3a" d="M 538 353 
Q 538 497 644 600 
Q 750 703 891 703 
Q 978 703 1062 656 
Q 1147 609 1194 525 
Q 1241 441 1241 353 
Q 1241 213 1137 106 
Q 1034 0 891 0 
Q 750 0 644 106 
Q 538 213 538 353 
z
M 538 2406 
Q 538 2497 584 2578 
Q 631 2659 714 2709 
Q 797 2759 891 2759 
Q 981 2759 1064 2709 
Q 1147 2659 1194 2578 
Q 1241 2497 1241 2406 
Q 1241 2263 1139 2158 
Q 1038 2053 891 2053 
Q 747 2053 642 2158 
Q 538 2263 538 2406 
z
" transform="scale(0.015625)"/>
      <path id="Cmr10-30" d="M 1600 -141 
Q 816 -141 533 504 
Q 250 1150 250 2041 
Q 250 2597 351 3087 
Q 453 3578 754 3920 
Q 1056 4263 1600 4263 
Q 2022 4263 2290 4056 
Q 2559 3850 2700 3523 
Q 2841 3197 2892 2823 
Q 2944 2450 2944 2041 
Q 2944 1491 2842 1011 
Q 2741 531 2444 195 
Q 2147 -141 1600 -141 
z
M 1600 25 
Q 1956 25 2131 390 
Q 2306 756 2347 1200 
Q 2388 1644 2388 2144 
Q 2388 2625 2347 3031 
Q 2306 3438 2132 3767 
Q 1959 4097 1600 4097 
Q 1238 4097 1063 3765 
Q 888 3434 847 3029 
Q 806 2625 806 2144 
Q 806 1788 823 1472 
Q 841 1156 916 820 
Q 991 484 1158 254 
Q 1325 25 1600 25 
z
" transform="scale(0.015625)"/>
      <path id="STIXGeneral-Regular-2266" d="M 3981 1024 
L 365 2771 
L 365 2835 
L 3981 4595 
L 3981 4179 
L 1216 2803 
L 3981 1427 
L 3981 1024 
z
M 3981 -77 
L 365 -77 
L 365 346 
L 3981 346 
L 3981 -77 
z
M 3981 -1350 
L 365 -1350 
L 365 -928 
L 3981 -928 
L 3981 -1350 
z
" transform="scale(0.015625)"/>
      <path id="Cmmi10-3c" d="M 594 1491 
Q 531 1519 531 1600 
Q 531 1681 616 1722 
L 4269 3444 
Q 4294 3456 4313 3456 
Q 4369 3456 4405 3417 
Q 4441 3378 4441 3328 
Q 4441 3250 4366 3206 
L 959 1600 
L 4384 -19 
Q 4441 -38 4441 -128 
Q 4441 -178 4405 -217 
Q 4369 -256 4313 -256 
Q 4294 -256 4269 -244 
L 594 1491 
z
" transform="scale(0.015625)"/>
      <path id="Cmr10-31" d="M 594 0 
L 594 225 
Q 1394 225 1394 428 
L 1394 3788 
Q 1063 3628 556 3628 
L 556 3853 
Q 1341 3853 1741 4263 
L 1831 4263 
Q 1853 4263 1873 4245 
Q 1894 4228 1894 4206 
L 1894 428 
Q 1894 225 2694 225 
L 2694 0 
L 594 0 
z
" transform="scale(0.015625)"/>
      <path id="Cmex10-aa" d="M 709 -7366 
L 709 -7291 
Q 709 -7247 756 -7238 
Q 1631 -6953 1631 -6413 
L 1631 -4544 
Q 1631 -3909 2669 -3584 
Q 2219 -3431 1925 -3209 
Q 1631 -2988 1631 -2619 
L 1631 -750 
Q 1631 -206 756 78 
Q 709 88 709 128 
L 709 206 
Q 709 256 769 256 
L 844 256 
Q 1359 131 1729 -97 
Q 2100 -325 2100 -738 
L 2100 -2606 
Q 2100 -2925 2354 -3142 
Q 2609 -3359 2975 -3494 
Q 3016 -3506 3016 -3547 
L 3016 -3622 
Q 3016 -3641 2975 -3675 
Q 2769 -3744 2566 -3864 
Q 2363 -3984 2231 -4161 
Q 2100 -4338 2100 -4556 
L 2100 -6425 
Q 2100 -6713 1901 -6914 
Q 1703 -7116 1437 -7227 
Q 1172 -7338 844 -7419 
L 769 -7419 
Q 744 -7419 726 -7401 
Q 709 -7384 709 -7366 
z
" transform="scale(0.015625)"/>
      <path id="DejaVuSerif-2e" d="M 603 325 
Q 603 500 722 622 
Q 841 744 1019 744 
Q 1191 744 1312 622 
Q 1434 500 1434 325 
Q 1434 153 1312 31 
Q 1191 -91 1019 -91 
Q 841 -91 722 29 
Q 603 150 603 325 
z
" transform="scale(0.015625)"/>
      <path id="DejaVuSerif-46" d="M 353 0 
L 353 331 
L 947 331 
L 947 4331 
L 353 4331 
L 353 4666 
L 4172 4666 
L 4172 3628 
L 3788 3628 
L 3788 4281 
L 1581 4281 
L 1581 2719 
L 3175 2719 
L 3175 3303 
L 3559 3303 
L 3559 1753 
L 3175 1753 
L 3175 2338 
L 1581 2338 
L 1581 331 
L 2328 331 
L 2328 0 
L 353 0 
z
" transform="scale(0.015625)"/>
      <path id="DejaVuSerif-6f" d="M 1925 219 
Q 2388 219 2623 584 
Q 2859 950 2859 1663 
Q 2859 2375 2623 2739 
Q 2388 3103 1925 3103 
Q 1463 3103 1227 2739 
Q 991 2375 991 1663 
Q 991 950 1228 584 
Q 1466 219 1925 219 
z
M 1925 -91 
Q 1200 -91 759 389 
Q 319 869 319 1663 
Q 319 2456 758 2934 
Q 1197 3413 1925 3413 
Q 2653 3413 3092 2934 
Q 3531 2456 3531 1663 
Q 3531 869 3092 389 
Q 2653 -91 1925 -91 
z
" transform="scale(0.015625)"/>
      <path id="DejaVuSerif-72" d="M 3059 3328 
L 3059 2497 
L 2728 2497 
Q 2713 2744 2591 2866 
Q 2469 2988 2234 2988 
Q 1809 2988 1582 2694 
Q 1356 2400 1356 1850 
L 1356 331 
L 2022 331 
L 2022 0 
L 263 0 
L 263 331 
L 781 331 
L 781 2994 
L 231 2994 
L 231 3322 
L 1356 3322 
L 1356 2731 
Q 1525 3078 1790 3245 
Q 2056 3413 2438 3413 
Q 2578 3413 2733 3391 
Q 2888 3369 3059 3328 
z
" transform="scale(0.015625)"/>
      <path id="Cmsy10-32" d="M 1356 403 
Q 1838 0 2497 0 
L 3616 0 
Q 3666 0 3698 -37 
Q 3731 -75 3731 -128 
Q 3731 -175 3698 -215 
Q 3666 -256 3616 -256 
L 2478 -256 
Q 1969 -256 1519 -12 
Q 1069 231 800 657 
Q 531 1084 531 1600 
Q 531 2116 800 2542 
Q 1069 2969 1519 3212 
Q 1969 3456 2478 3456 
L 3616 3456 
Q 3666 3456 3698 3415 
Q 3731 3375 3731 3328 
Q 3731 3275 3698 3237 
Q 3666 3200 3616 3200 
L 2497 3200 
Q 2184 3200 1889 3097 
Q 1594 2994 1356 2797 
Q 1122 2600 958 2304 
Q 794 2009 794 1728 
L 3616 1728 
Q 3666 1728 3698 1687 
Q 3731 1647 3731 1600 
Q 3731 1553 3698 1512 
Q 3666 1472 3616 1472 
L 794 1472 
Q 794 1194 958 897 
Q 1122 600 1356 403 
z
" transform="scale(0.015625)"/>
      <path id="DejaVuSerif-2c" d="M 231 -622 
Q 525 -406 662 -114 
Q 800 178 800 594 
L 800 709 
L 1416 709 
Q 1391 175 1164 -208 
Q 938 -591 481 -872 
L 231 -622 
z
" transform="scale(0.015625)"/>
      <path id="DejaVuSerif-6c" d="M 1313 331 
L 1856 331 
L 1856 0 
L 184 0 
L 184 331 
L 738 331 
L 738 4531 
L 184 4531 
L 184 4863 
L 1313 4863 
L 1313 331 
z
" transform="scale(0.015625)"/>
      <path id="DejaVuSerif-5c" d="M 500 4666 
L 2156 -594 
L 1656 -594 
L 0 4666 
L 500 4666 
z
" transform="scale(0.015625)"/>
      <path id="DejaVuSerif-5b" d="M 550 4863 
L 2003 4863 
L 2003 4531 
L 1147 4531 
L 1147 -513 
L 2003 -513 
L 2003 -844 
L 550 -844 
L 550 4863 
z
" transform="scale(0.015625)"/>
      <path id="DejaVuSerif-53" d="M 594 225 
L 594 1288 
L 953 1284 
Q 969 753 1261 498 
Q 1553 244 2150 244 
Q 2706 244 2998 464 
Q 3291 684 3291 1106 
Q 3291 1444 3114 1625 
Q 2938 1806 2369 1978 
L 1753 2163 
Q 1084 2366 811 2669 
Q 538 2972 538 3500 
Q 538 4094 959 4422 
Q 1381 4750 2144 4750 
Q 2469 4750 2856 4679 
Q 3244 4609 3681 4475 
L 3681 3481 
L 3328 3481 
Q 3275 3975 2998 4195 
Q 2722 4416 2156 4416 
Q 1663 4416 1405 4214 
Q 1147 4013 1147 3628 
Q 1147 3294 1340 3103 
Q 1534 2913 2163 2725 
L 2741 2553 
Q 3375 2363 3645 2067 
Q 3916 1772 3916 1275 
Q 3916 597 3481 253 
Q 3047 -91 2188 -91 
Q 1803 -91 1404 -12 
Q 1006 66 594 225 
z
" transform="scale(0.015625)"/>
      <path id="DejaVuSerif-28" d="M 2041 -997 
Q 1281 -656 893 83 
Q 506 822 506 1931 
Q 506 3044 893 3783 
Q 1281 4522 2041 4863 
L 2041 4556 
Q 1559 4225 1350 3623 
Q 1141 3022 1141 1931 
Q 1141 844 1350 242 
Q 1559 -359 2041 -691 
L 2041 -997 
z
" transform="scale(0.015625)"/>
      <path id="DejaVuSerif-78" d="M 1863 2028 
L 2559 2988 
L 2113 2988 
L 2113 3322 
L 3391 3322 
L 3391 2988 
L 2950 2988 
L 2059 1759 
L 3097 331 
L 3531 331 
L 3531 0 
L 1997 0 
L 1997 331 
L 2419 331 
L 1697 1325 
L 972 331 
L 1403 331 
L 1403 0 
L 141 0 
L 141 331 
L 581 331 
L 1497 1594 
L 488 2988 
L 78 2988 
L 78 3322 
L 1563 3322 
L 1563 2988 
L 1166 2988 
L 1863 2028 
z
" transform="scale(0.015625)"/>
      <path id="DejaVuSerif-79" d="M 1381 -609 
L 1600 -56 
L 359 2988 
L -19 2988 
L -19 3322 
L 1509 3322 
L 1509 2988 
L 978 2988 
L 1913 703 
L 2847 2988 
L 2350 2988 
L 2350 3322 
L 3597 3322 
L 3597 2988 
L 3225 2988 
L 1703 -750 
Q 1547 -1138 1356 -1280 
Q 1166 -1422 819 -1422 
Q 672 -1422 517 -1397 
Q 363 -1372 206 -1325 
L 206 -691 
L 500 -691 
Q 519 -903 608 -995 
Q 697 -1088 884 -1088 
Q 1056 -1088 1161 -992 
Q 1266 -897 1381 -609 
z
" transform="scale(0.015625)"/>
      <path id="DejaVuSerif-29" d="M 453 -997 
L 453 -691 
Q 934 -359 1145 242 
Q 1356 844 1356 1931 
Q 1356 3022 1145 3623 
Q 934 4225 453 4556 
L 453 4863 
Q 1216 4522 1603 3783 
Q 1991 3044 1991 1931 
Q 1991 822 1603 83 
Q 1216 -656 453 -997 
z
" transform="scale(0.015625)"/>
      <path id="DejaVuSerif-3d" d="M 678 2894 
L 4684 2894 
L 4684 2394 
L 678 2394 
L 678 2894 
z
M 678 1619 
L 4684 1619 
L 4684 1119 
L 678 1119 
L 678 1619 
z
" transform="scale(0.015625)"/>
      <path id="DejaVuSerif-73" d="M 359 184 
L 359 959 
L 691 959 
Q 703 588 923 403 
Q 1144 219 1575 219 
Q 1963 219 2166 364 
Q 2369 509 2369 788 
Q 2369 1006 2220 1140 
Q 2072 1275 1594 1428 
L 1178 1569 
Q 750 1706 558 1912 
Q 366 2119 366 2438 
Q 366 2894 700 3153 
Q 1034 3413 1625 3413 
Q 1888 3413 2178 3344 
Q 2469 3275 2778 3144 
L 2778 2419 
L 2447 2419 
Q 2434 2741 2221 2922 
Q 2009 3103 1644 3103 
Q 1281 3103 1095 2975 
Q 909 2847 909 2591 
Q 909 2381 1050 2254 
Q 1191 2128 1613 1997 
L 2069 1856 
Q 2541 1709 2748 1489 
Q 2956 1269 2956 922 
Q 2956 450 2595 179 
Q 2234 -91 1600 -91 
Q 1278 -91 972 -22 
Q 666 47 359 184 
z
" transform="scale(0.015625)"/>
      <path id="DejaVuSerif-75" d="M 2266 3322 
L 3341 3322 
L 3341 331 
L 3884 331 
L 3884 0 
L 2766 0 
L 2766 588 
Q 2606 256 2353 82 
Q 2100 -91 1766 -91 
Q 1213 -91 952 223 
Q 691 538 691 1209 
L 691 2988 
L 172 2988 
L 172 3322 
L 1269 3322 
L 1269 1388 
Q 1269 781 1417 556 
Q 1566 331 1947 331 
Q 2347 331 2556 625 
Q 2766 919 2766 1478 
L 2766 2988 
L 2266 2988 
L 2266 3322 
z
" transform="scale(0.015625)"/>
      <path id="DejaVuSerif-6d" d="M 3316 2675 
Q 3481 3041 3739 3227 
Q 3997 3413 4341 3413 
Q 4863 3413 5119 3089 
Q 5375 2766 5375 2113 
L 5375 331 
L 5894 331 
L 5894 0 
L 4300 0 
L 4300 331 
L 4800 331 
L 4800 2047 
Q 4800 2556 4650 2772 
Q 4500 2988 4153 2988 
Q 3769 2988 3567 2697 
Q 3366 2406 3366 1850 
L 3366 331 
L 3866 331 
L 3866 0 
L 2291 0 
L 2291 331 
L 2791 331 
L 2791 2069 
Q 2791 2566 2641 2777 
Q 2491 2988 2144 2988 
Q 1759 2988 1557 2697 
Q 1356 2406 1356 1850 
L 1356 331 
L 1856 331 
L 1856 0 
L 263 0 
L 263 331 
L 781 331 
L 781 2994 
L 231 2994 
L 231 3322 
L 1356 3322 
L 1356 2731 
Q 1516 3063 1762 3238 
Q 2009 3413 2322 3413 
Q 2709 3413 2968 3220 
Q 3228 3028 3316 2675 
z
" transform="scale(0.015625)"/>
      <path id="DejaVuSerif-5f" d="M 3200 -1259 
L 3200 -1509 
L 0 -1509 
L 0 -1259 
L 3200 -1259 
z
" transform="scale(0.015625)"/>
      <path id="DejaVuSerif-7b" d="M 3272 -716 
L 3272 -1044 
L 3078 -1044 
Q 2300 -1044 2036 -812 
Q 1772 -581 1772 109 
L 1772 916 
Q 1772 1384 1603 1565 
Q 1434 1747 991 1747 
L 800 1747 
L 800 2075 
L 991 2075 
Q 1434 2075 1603 2256 
Q 1772 2438 1772 2906 
L 1772 3713 
Q 1772 4403 2036 4633 
Q 2300 4863 3078 4863 
L 3272 4863 
L 3272 4538 
L 3059 4538 
Q 2619 4538 2484 4400 
Q 2350 4263 2350 3822 
L 2350 2925 
Q 2350 2431 2194 2218 
Q 2038 2006 1631 1913 
Q 2044 1806 2197 1597 
Q 2350 1388 2350 897 
L 2350 0 
Q 2350 -441 2484 -578 
Q 2619 -716 3059 -716 
L 3272 -716 
z
" transform="scale(0.015625)"/>
      <path id="DejaVuSerif-66" d="M 2753 4078 
L 2450 4078 
Q 2447 4313 2317 4434 
Q 2188 4556 1941 4556 
Q 1619 4556 1487 4379 
Q 1356 4203 1356 3750 
L 1356 3322 
L 2284 3322 
L 2284 2988 
L 1356 2988 
L 1356 331 
L 2094 331 
L 2094 0 
L 231 0 
L 231 331 
L 781 331 
L 781 2988 
L 231 2988 
L 231 3322 
L 781 3322 
L 781 3738 
Q 781 4294 1070 4578 
Q 1359 4863 1919 4863 
Q 2128 4863 2337 4825 
Q 2547 4788 2753 4709 
L 2753 4078 
z
" transform="scale(0.015625)"/>
      <path id="DejaVuSerif-61" d="M 2547 1044 
L 2547 1747 
L 1806 1747 
Q 1378 1747 1168 1562 
Q 959 1378 959 997 
Q 959 650 1171 447 
Q 1384 244 1747 244 
Q 2106 244 2326 466 
Q 2547 688 2547 1044 
z
M 3122 2075 
L 3122 331 
L 3634 331 
L 3634 0 
L 2547 0 
L 2547 359 
Q 2356 128 2106 18 
Q 1856 -91 1522 -91 
Q 969 -91 644 203 
Q 319 497 319 997 
Q 319 1513 691 1797 
Q 1063 2081 1741 2081 
L 2547 2081 
L 2547 2309 
Q 2547 2688 2317 2895 
Q 2088 3103 1672 3103 
Q 1328 3103 1125 2947 
Q 922 2791 872 2484 
L 575 2484 
L 575 3156 
Q 875 3284 1158 3348 
Q 1441 3413 1709 3413 
Q 2400 3413 2761 3070 
Q 3122 2728 3122 2075 
z
" transform="scale(0.015625)"/>
      <path id="DejaVuSerif-63" d="M 3291 997 
Q 3169 466 2822 187 
Q 2475 -91 1925 -91 
Q 1200 -91 759 389 
Q 319 869 319 1663 
Q 319 2459 759 2936 
Q 1200 3413 1925 3413 
Q 2241 3413 2553 3339 
Q 2866 3266 3181 3116 
L 3181 2266 
L 2847 2266 
Q 2781 2703 2561 2903 
Q 2341 3103 1931 3103 
Q 1466 3103 1228 2742 
Q 991 2381 991 1663 
Q 991 944 1227 581 
Q 1463 219 1931 219 
Q 2303 219 2525 412 
Q 2747 606 2828 997 
L 3291 997 
z
" transform="scale(0.015625)"/>
      <path id="DejaVuSerif-31" d="M 909 0 
L 909 331 
L 1722 331 
L 1722 4213 
L 781 3603 
L 781 4013 
L 1919 4750 
L 2350 4750 
L 2350 331 
L 3163 331 
L 3163 0 
L 909 0 
z
" transform="scale(0.015625)"/>
      <path id="DejaVuSerif-7d" d="M 800 -716 
L 1019 -716 
Q 1456 -716 1589 -580 
Q 1722 -444 1722 0 
L 1722 897 
Q 1722 1388 1875 1597 
Q 2028 1806 2438 1913 
Q 2031 2006 1876 2218 
Q 1722 2431 1722 2925 
L 1722 3822 
Q 1722 4266 1589 4402 
Q 1456 4538 1019 4538 
L 800 4538 
L 800 4863 
L 997 4863 
Q 1775 4863 2036 4633 
Q 2297 4403 2297 3713 
L 2297 2906 
Q 2297 2438 2465 2256 
Q 2634 2075 3078 2075 
L 3272 2075 
L 3272 1747 
L 3078 1747 
Q 2634 1747 2465 1565 
Q 2297 1384 2297 916 
L 2297 109 
Q 2297 -581 2036 -812 
Q 1775 -1044 997 -1044 
L 800 -1044 
L 800 -716 
z
" transform="scale(0.015625)"/>
      <path id="DejaVuSerif-32" d="M 819 3553 
L 469 3553 
L 469 4384 
Q 803 4563 1142 4656 
Q 1481 4750 1806 4750 
Q 2534 4750 2956 4397 
Q 3378 4044 3378 3438 
Q 3378 2753 2422 1800 
Q 2347 1728 2309 1691 
L 1131 513 
L 3078 513 
L 3078 1088 
L 3444 1088 
L 3444 0 
L 434 0 
L 434 341 
L 1850 1753 
Q 2319 2222 2519 2614 
Q 2719 3006 2719 3438 
Q 2719 3909 2473 4175 
Q 2228 4441 1797 4441 
Q 1350 4441 1106 4219 
Q 863 3997 819 3553 
z
" transform="scale(0.015625)"/>
      <path id="DejaVuSerif-71" d="M 3359 2988 
L 3359 -997 
L 3909 -997 
L 3909 -1331 
L 2241 -1331 
L 2241 -997 
L 2784 -997 
L 2784 519 
Q 2616 206 2355 57 
Q 2094 -91 1709 -91 
Q 1097 -91 708 395 
Q 319 881 319 1663 
Q 319 2444 706 2928 
Q 1094 3413 1709 3413 
Q 2094 3413 2355 3264 
Q 2616 3116 2784 2803 
L 2784 3322 
L 3909 3322 
L 3909 2988 
L 3359 2988 
z
M 2784 1825 
Q 2784 2422 2554 2737 
Q 2325 3053 1888 3053 
Q 1444 3053 1217 2703 
Q 991 2353 991 1663 
Q 991 975 1217 622 
Q 1444 269 1888 269 
Q 2325 269 2554 583 
Q 2784 897 2784 1497 
L 2784 1825 
z
" transform="scale(0.015625)"/>
      <path id="DejaVuSerif-6e" d="M 263 0 
L 263 331 
L 781 331 
L 781 2988 
L 231 2988 
L 231 3322 
L 1356 3322 
L 1356 2731 
Q 1516 3069 1770 3241 
Q 2025 3413 2363 3413 
Q 2913 3413 3172 3097 
Q 3431 2781 3431 2113 
L 3431 331 
L 3944 331 
L 3944 0 
L 2356 0 
L 2356 331 
L 2853 331 
L 2853 1931 
Q 2853 2541 2703 2767 
Q 2553 2994 2175 2994 
Q 1775 2994 1565 2701 
Q 1356 2409 1356 1850 
L 1356 331 
L 1856 331 
L 1856 0 
L 263 0 
z
" transform="scale(0.015625)"/>
      <path id="DejaVuSerif-5e" d="M 2988 4666 
L 4684 2925 
L 4206 2925 
L 2681 4116 
L 1159 2925 
L 678 2925 
L 2375 4666 
L 2988 4666 
z
" transform="scale(0.015625)"/>
      <path id="DejaVuSerif-5d" d="M 1947 4863 
L 1947 -844 
L 494 -844 
L 494 -513 
L 1350 -513 
L 1350 4531 
L 494 4531 
L 494 4863 
L 1947 4863 
z
" transform="scale(0.015625)"/>
      <path id="DejaVuSerif-77" d="M 3072 3322 
L 3922 728 
L 4672 2988 
L 4191 2988 
L 4191 3322 
L 5394 3322 
L 5394 2988 
L 5025 2988 
L 4038 0 
L 3559 0 
L 2741 2484 
L 1919 0 
L 1459 0 
L 475 2988 
L 103 2988 
L 103 3322 
L 1606 3322 
L 1606 2988 
L 1069 2988 
L 1813 728 
L 2669 3322 
L 3072 3322 
z
" transform="scale(0.015625)"/>
      <path id="DejaVuSerif-68" d="M 263 0 
L 263 331 
L 781 331 
L 781 4531 
L 231 4531 
L 231 4863 
L 1356 4863 
L 1356 2731 
Q 1516 3069 1770 3241 
Q 2025 3413 2363 3413 
Q 2913 3413 3172 3097 
Q 3431 2781 3431 2113 
L 3431 331 
L 3944 331 
L 3944 0 
L 2356 0 
L 2356 331 
L 2853 331 
L 2853 1931 
Q 2853 2541 2704 2764 
Q 2556 2988 2175 2988 
Q 1775 2988 1565 2697 
Q 1356 2406 1356 1850 
L 1356 331 
L 1856 331 
L 1856 0 
L 263 0 
z
" transform="scale(0.015625)"/>
      <path id="DejaVuSerif-67" d="M 3359 2988 
L 3359 72 
Q 3359 -644 2965 -1033 
Q 2572 -1422 1844 -1422 
Q 1516 -1422 1216 -1362 
Q 916 -1303 641 -1184 
L 641 -488 
L 941 -488 
Q 997 -813 1206 -963 
Q 1416 -1113 1806 -1113 
Q 2313 -1113 2548 -827 
Q 2784 -541 2784 72 
L 2784 519 
Q 2616 206 2355 57 
Q 2094 -91 1709 -91 
Q 1097 -91 708 395 
Q 319 881 319 1663 
Q 319 2444 706 2928 
Q 1094 3413 1709 3413 
Q 2094 3413 2355 3264 
Q 2616 3116 2784 2803 
L 2784 3322 
L 3909 3322 
L 3909 2988 
L 3359 2988 
z
M 2784 1825 
Q 2784 2422 2554 2737 
Q 2325 3053 1888 3053 
Q 1444 3053 1217 2703 
Q 991 2353 991 1663 
Q 991 975 1217 622 
Q 1444 269 1888 269 
Q 2325 269 2554 583 
Q 2784 897 2784 1497 
L 2784 1825 
z
" transform="scale(0.015625)"/>
      <path id="DejaVuSerif-76" d="M 1581 0 
L 359 2988 
L -19 2988 
L -19 3322 
L 1509 3322 
L 1509 2988 
L 978 2988 
L 1913 703 
L 2847 2988 
L 2350 2988 
L 2350 3322 
L 3597 3322 
L 3597 2988 
L 3225 2988 
L 2003 0 
L 1581 0 
z
" transform="scale(0.015625)"/>
      <path id="DejaVuSerif-70" d="M 1313 1825 
L 1313 1497 
Q 1313 897 1542 583 
Q 1772 269 2209 269 
Q 2650 269 2876 622 
Q 3103 975 3103 1663 
Q 3103 2353 2876 2703 
Q 2650 3053 2209 3053 
Q 1772 3053 1542 2737 
Q 1313 2422 1313 1825 
z
M 738 2988 
L 184 2988 
L 184 3322 
L 1313 3322 
L 1313 2803 
Q 1481 3116 1742 3264 
Q 2003 3413 2388 3413 
Q 3000 3413 3387 2928 
Q 3775 2444 3775 1663 
Q 3775 881 3387 395 
Q 3000 -91 2388 -91 
Q 2003 -91 1742 57 
Q 1481 206 1313 519 
L 1313 -997 
L 1856 -997 
L 1856 -1331 
L 184 -1331 
L 184 -997 
L 738 -997 
L 738 2988 
z
" transform="scale(0.015625)"/>
      <path id="DejaVuSerif-69" d="M 622 4353 
Q 622 4497 726 4603 
Q 831 4709 978 4709 
Q 1122 4709 1226 4603 
Q 1331 4497 1331 4353 
Q 1331 4206 1228 4103 
Q 1125 4000 978 4000 
Q 831 4000 726 4103 
Q 622 4206 622 4353 
z
M 1356 331 
L 1900 331 
L 1900 0 
L 231 0 
L 231 331 
L 781 331 
L 781 2988 
L 231 2988 
L 231 3322 
L 1356 3322 
L 1356 331 
z
" transform="scale(0.015625)"/>
      <path id="Cmmi10-6d" d="M 494 109 
Q 494 147 500 166 
L 978 2075 
Q 1025 2253 1025 2388 
Q 1025 2663 838 2663 
Q 638 2663 541 2423 
Q 444 2184 353 1819 
Q 353 1800 334 1789 
Q 316 1778 300 1778 
L 225 1778 
Q 203 1778 187 1801 
Q 172 1825 172 1844 
Q 241 2122 305 2315 
Q 369 2509 505 2668 
Q 641 2828 844 2828 
Q 1084 2828 1268 2676 
Q 1453 2525 1453 2291 
Q 1644 2541 1900 2684 
Q 2156 2828 2444 2828 
Q 2747 2828 2967 2673 
Q 3188 2519 3188 2234 
Q 3384 2513 3648 2670 
Q 3913 2828 4225 2828 
Q 4556 2828 4757 2648 
Q 4959 2469 4959 2138 
Q 4959 1875 4842 1503 
Q 4725 1131 4550 672 
Q 4459 450 4459 288 
Q 4459 97 4609 97 
Q 4859 97 5025 365 
Q 5191 634 5259 941 
Q 5278 978 5313 978 
L 5388 978 
Q 5413 978 5430 961 
Q 5447 944 5447 922 
Q 5447 916 5441 903 
Q 5353 541 5136 234 
Q 4919 -72 4594 -72 
Q 4369 -72 4209 83 
Q 4050 238 4050 459 
Q 4050 572 4103 709 
Q 4284 1191 4404 1569 
Q 4525 1947 4525 2234 
Q 4525 2413 4453 2538 
Q 4381 2663 4213 2663 
Q 3863 2663 3606 2448 
Q 3350 2234 3163 1881 
Q 3150 1819 3144 1784 
L 2731 141 
Q 2709 53 2632 -9 
Q 2556 -72 2463 -72 
Q 2388 -72 2330 -22 
Q 2272 28 2272 109 
Q 2272 147 2278 166 
L 2688 1797 
Q 2753 2059 2753 2234 
Q 2753 2413 2679 2538 
Q 2606 2663 2431 2663 
Q 2197 2663 2000 2559 
Q 1803 2456 1656 2286 
Q 1509 2116 1388 1881 
L 953 141 
Q 931 53 854 -9 
Q 778 -72 684 -72 
Q 606 -72 550 -22 
Q 494 28 494 109 
z
" transform="scale(0.015625)"/>
      <path id="Cmmi10-6e" d="M 494 109 
Q 494 147 500 166 
L 978 2075 
Q 1025 2253 1025 2388 
Q 1025 2663 838 2663 
Q 638 2663 541 2423 
Q 444 2184 353 1819 
Q 353 1800 334 1789 
Q 316 1778 300 1778 
L 225 1778 
Q 203 1778 187 1801 
Q 172 1825 172 1844 
Q 241 2122 305 2315 
Q 369 2509 505 2668 
Q 641 2828 844 2828 
Q 1084 2828 1268 2676 
Q 1453 2525 1453 2291 
Q 1644 2541 1900 2684 
Q 2156 2828 2444 2828 
Q 2672 2828 2837 2750 
Q 3003 2672 3095 2514 
Q 3188 2356 3188 2138 
Q 3188 1875 3070 1503 
Q 2953 1131 2778 672 
Q 2688 463 2688 288 
Q 2688 97 2834 97 
Q 3084 97 3251 365 
Q 3419 634 3488 941 
Q 3500 978 3541 978 
L 3616 978 
Q 3641 978 3658 962 
Q 3675 947 3675 922 
Q 3675 916 3669 903 
Q 3581 541 3364 234 
Q 3147 -72 2822 -72 
Q 2597 -72 2437 83 
Q 2278 238 2278 459 
Q 2278 578 2328 709 
Q 2409 919 2514 1209 
Q 2619 1500 2686 1765 
Q 2753 2031 2753 2234 
Q 2753 2413 2679 2538 
Q 2606 2663 2431 2663 
Q 2197 2663 2000 2559 
Q 1803 2456 1656 2286 
Q 1509 2116 1388 1881 
L 953 141 
Q 931 53 854 -9 
Q 778 -72 684 -72 
Q 606 -72 550 -22 
Q 494 28 494 109 
z
" transform="scale(0.015625)"/>
      <path id="DejaVuSerif-64" d="M 3359 331 
L 3909 331 
L 3909 0 
L 2784 0 
L 2784 519 
Q 2616 206 2355 57 
Q 2094 -91 1709 -91 
Q 1097 -91 708 395 
Q 319 881 319 1663 
Q 319 2444 706 2928 
Q 1094 3413 1709 3413 
Q 2094 3413 2355 3264 
Q 2616 3116 2784 2803 
L 2784 4531 
L 2241 4531 
L 2241 4863 
L 3359 4863 
L 3359 331 
z
M 2784 1497 
L 2784 1825 
Q 2784 2422 2554 2737 
Q 2325 3053 1888 3053 
Q 1444 3053 1217 2703 
Q 991 2353 991 1663 
Q 991 975 1217 622 
Q 1444 269 1888 269 
Q 2325 269 2554 583 
Q 2784 897 2784 1497 
z
" transform="scale(0.015625)"/>
      <path id="DejaVuSerif-45" d="M 353 0 
L 353 331 
L 947 331 
L 947 4331 
L 353 4331 
L 353 4666 
L 4109 4666 
L 4109 3628 
L 3725 3628 
L 3725 4281 
L 1581 4281 
L 1581 2719 
L 3109 2719 
L 3109 3303 
L 3494 3303 
L 3494 1753 
L 3109 1753 
L 3109 2338 
L 1581 2338 
L 1581 384 
L 3775 384 
L 3775 1038 
L 4159 1038 
L 4159 0 
L 353 0 
z
" transform="scale(0.015625)"/>
      <path id="DejaVuSerif-41" d="M 1281 1691 
L 2994 1691 
L 2138 3909 
L 1281 1691 
z
M -38 0 
L -38 331 
L 372 331 
L 2034 4666 
L 2559 4666 
L 4225 331 
L 4684 331 
L 4684 0 
L 2988 0 
L 2988 331 
L 3506 331 
L 3116 1356 
L 1153 1356 
L 763 331 
L 1275 331 
L 1275 0 
L -38 0 
z
" transform="scale(0.015625)"/>
      <path id="DejaVuSerif-2d" d="M 281 1959 
L 1881 1959 
L 1881 1472 
L 281 1472 
L 281 1959 
z
" transform="scale(0.015625)"/>
     </defs>
     <use xlink:href="#DejaVuSerif-4c" transform="translate(0 0.705729)"/>
     <use xlink:href="#DejaVuSerif-65" transform="translate(66.40625 0.705729)"/>
     <use xlink:href="#DejaVuSerif-74" transform="translate(125.585938 0.705729)"/>
     <use xlink:href="#DejaVuSerif-20" transform="translate(165.771484 0.705729)"/>
     <use xlink:href="#Cmmi10-41" transform="translate(197.558594 0.705729)"/>
     <use xlink:href="#Cmr10-3d" transform="translate(290.117188 0.705729)"/>
     <use xlink:href="#Cmex10-a9" transform="translate(385.361328 94)"/>
     <use xlink:href="#Cmr10-28" transform="translate(443.662109 0.705729)"/>
     <use xlink:href="#Cmmi10-78" transform="translate(482.480469 0.705729)"/>
     <use xlink:href="#Cmmi10-3b" transform="translate(539.560547 0.705729)"/>
     <use xlink:href="#Cmmi10-79" transform="translate(584.804688 0.705729)"/>
     <use xlink:href="#Cmr10-29" transform="translate(633.828125 0.705729)"/>
     <use xlink:href="#Cmr10-3a" transform="translate(690.205078 0.705729)"/>
     <use xlink:href="#Cmr10-30" transform="translate(735.449219 0.705729)"/>
     <use xlink:href="#STIXGeneral-Regular-2266" transform="translate(803.007812 0.705729)"/>
     <use xlink:href="#Cmmi10-78" transform="translate(889.066391 0.705729)"/>
     <use xlink:href="#Cmmi10-3b" transform="translate(946.146469 0.705729)"/>
     <use xlink:href="#Cmmi10-79" transform="translate(991.39061 0.705729)"/>
     <use xlink:href="#Cmmi10-3c" transform="translate(1057.972641 0.705729)"/>
     <use xlink:href="#Cmr10-31" transform="translate(1153.216782 0.705729)"/>
     <use xlink:href="#Cmex10-aa" transform="translate(1203.216782 94)"/>
     <use xlink:href="#DejaVuSerif-2e" transform="translate(1261.517563 0.705729)"/>
     <use xlink:href="#DejaVuSerif-20" transform="translate(1293.304672 0.705729)"/>
     <use xlink:href="#DejaVuSerif-20" transform="translate(1325.091782 0.705729)"/>
     <use xlink:href="#DejaVuSerif-46" transform="translate(1356.878891 0.705729)"/>
     <use xlink:href="#DejaVuSerif-6f" transform="translate(1426.263657 0.705729)"/>
     <use xlink:href="#DejaVuSerif-72" transform="translate(1486.468735 0.705729)"/>
     <use xlink:href="#DejaVuSerif-20" transform="translate(1534.271469 0.705729)"/>
     <use xlink:href="#Cmr10-28" transform="translate(1566.058578 0.705729)"/>
     <use xlink:href="#Cmmi10-78" transform="translate(1604.876938 0.705729)"/>
     <use xlink:href="#Cmmi10-3b" transform="translate(1661.957016 0.705729)"/>
     <use xlink:href="#Cmmi10-79" transform="translate(1707.201157 0.705729)"/>
     <use xlink:href="#Cmr10-29" transform="translate(1756.224594 0.705729)"/>
     <use xlink:href="#Cmsy10-32" transform="translate(1812.601547 0.705729)"/>
     <use xlink:href="#Cmmi10-41" transform="translate(1896.761703 0.705729)"/>
     <use xlink:href="#DejaVuSerif-2c" transform="translate(1971.761703 0.705729)"/>
     <use xlink:href="#DejaVuSerif-20" transform="translate(2003.548813 0.705729)"/>
     <use xlink:href="#DejaVuSerif-6c" transform="translate(2035.335922 0.705729)"/>
     <use xlink:href="#DejaVuSerif-65" transform="translate(2067.318344 0.705729)"/>
     <use xlink:href="#DejaVuSerif-74" transform="translate(2126.498032 0.705729)"/>
     <use xlink:href="#DejaVuSerif-20" transform="translate(2166.683578 0.705729)"/>
     <use xlink:href="#DejaVuSerif-5c" transform="translate(2198.470688 0.705729)"/>
     <use xlink:href="#DejaVuSerif-5b" transform="translate(2232.162094 0.705729)"/>
     <use xlink:href="#DejaVuSerif-53" transform="translate(2271.175766 0.705729)"/>
     <use xlink:href="#DejaVuSerif-28" transform="translate(2339.681625 0.705729)"/>
     <use xlink:href="#DejaVuSerif-78" transform="translate(2378.695297 0.705729)"/>
     <use xlink:href="#DejaVuSerif-2c" transform="translate(2435.091782 0.705729)"/>
     <use xlink:href="#DejaVuSerif-79" transform="translate(2466.878891 0.705729)"/>
     <use xlink:href="#DejaVuSerif-29" transform="translate(2523.373032 0.705729)"/>
     <use xlink:href="#DejaVuSerif-20" transform="translate(2562.386703 0.705729)"/>
     <use xlink:href="#DejaVuSerif-3d" transform="translate(2594.173813 0.705729)"/>
     <use xlink:href="#DejaVuSerif-20" transform="translate(2677.962875 0.705729)"/>
     <use xlink:href="#DejaVuSerif-5c" transform="translate(2709.749985 0.705729)"/>
     <use xlink:href="#DejaVuSerif-73" transform="translate(2743.441391 0.705729)"/>
     <use xlink:href="#DejaVuSerif-75" transform="translate(2794.75975 0.705729)"/>
     <use xlink:href="#DejaVuSerif-6d" transform="translate(2859.164047 0.705729)"/>
     <use xlink:href="#DejaVuSerif-5f" transform="translate(2953.988266 0.705729)"/>
     <use xlink:href="#DejaVuSerif-7b" transform="translate(3003.988266 0.705729)"/>
     <use xlink:href="#DejaVuSerif-5c" transform="translate(3067.611313 0.705729)"/>
     <use xlink:href="#DejaVuSerif-66" transform="translate(3101.302719 0.705729)"/>
     <use xlink:href="#DejaVuSerif-72" transform="translate(3138.314438 0.705729)"/>
     <use xlink:href="#DejaVuSerif-61" transform="translate(3186.117172 0.705729)"/>
     <use xlink:href="#DejaVuSerif-63" transform="translate(3245.736313 0.705729)"/>
     <use xlink:href="#DejaVuSerif-7b" transform="translate(3301.742172 0.705729)"/>
     <use xlink:href="#DejaVuSerif-31" transform="translate(3365.365219 0.705729)"/>
     <use xlink:href="#DejaVuSerif-7d" transform="translate(3428.988266 0.705729)"/>
     <use xlink:href="#DejaVuSerif-7b" transform="translate(3492.611313 0.705729)"/>
     <use xlink:href="#DejaVuSerif-32" transform="translate(3556.23436 0.705729)"/>
     <use xlink:href="#DejaVuSerif-7d" transform="translate(3619.857407 0.705729)"/>
     <use xlink:href="#DejaVuSerif-5c" transform="translate(3683.480453 0.705729)"/>
     <use xlink:href="#DejaVuSerif-6c" transform="translate(3717.17186 0.705729)"/>
     <use xlink:href="#DejaVuSerif-65" transform="translate(3749.154282 0.705729)"/>
     <use xlink:href="#DejaVuSerif-71" transform="translate(3808.333969 0.705729)"/>
     <use xlink:href="#DejaVuSerif-71" transform="translate(3872.347641 0.705729)"/>
     <use xlink:href="#DejaVuSerif-20" transform="translate(3936.361313 0.705729)"/>
     <use xlink:href="#DejaVuSerif-5c" transform="translate(3968.148422 0.705729)"/>
     <use xlink:href="#DejaVuSerif-66" transform="translate(4001.839828 0.705729)"/>
     <use xlink:href="#DejaVuSerif-72" transform="translate(4038.851547 0.705729)"/>
     <use xlink:href="#DejaVuSerif-61" transform="translate(4086.654282 0.705729)"/>
     <use xlink:href="#DejaVuSerif-63" transform="translate(4146.273422 0.705729)"/>
     <use xlink:href="#DejaVuSerif-7b" transform="translate(4202.279282 0.705729)"/>
     <use xlink:href="#DejaVuSerif-6d" transform="translate(4265.902328 0.705729)"/>
     <use xlink:href="#DejaVuSerif-7d" transform="translate(4360.726547 0.705729)"/>
     <use xlink:href="#DejaVuSerif-7b" transform="translate(4424.349594 0.705729)"/>
     <use xlink:href="#DejaVuSerif-6e" transform="translate(4487.972641 0.705729)"/>
     <use xlink:href="#DejaVuSerif-7d" transform="translate(4552.376938 0.705729)"/>
     <use xlink:href="#DejaVuSerif-5c" transform="translate(4615.999985 0.705729)"/>
     <use xlink:href="#DejaVuSerif-6c" transform="translate(4649.691391 0.705729)"/>
     <use xlink:href="#DejaVuSerif-65" transform="translate(4681.673813 0.705729)"/>
     <use xlink:href="#DejaVuSerif-71" transform="translate(4740.8535 0.705729)"/>
     <use xlink:href="#DejaVuSerif-71" transform="translate(4804.867172 0.705729)"/>
     <use xlink:href="#DejaVuSerif-20" transform="translate(4868.880844 0.705729)"/>
     <use xlink:href="#DejaVuSerif-32" transform="translate(4900.667953 0.705729)"/>
     <use xlink:href="#DejaVuSerif-7d" transform="translate(4964.291 0.705729)"/>
     <use xlink:href="#DejaVuSerif-20" transform="translate(5027.914047 0.705729)"/>
     <use xlink:href="#DejaVuSerif-78" transform="translate(5059.701157 0.705729)"/>
     <use xlink:href="#DejaVuSerif-5e" transform="translate(5116.097641 0.705729)"/>
     <use xlink:href="#DejaVuSerif-6d" transform="translate(5199.886703 0.705729)"/>
     <use xlink:href="#DejaVuSerif-20" transform="translate(5294.710922 0.705729)"/>
     <use xlink:href="#DejaVuSerif-79" transform="translate(5326.498032 0.705729)"/>
     <use xlink:href="#DejaVuSerif-5e" transform="translate(5382.992172 0.705729)"/>
     <use xlink:href="#DejaVuSerif-6e" transform="translate(5466.781235 0.705729)"/>
     <use xlink:href="#DejaVuSerif-2c" transform="translate(5531.185532 0.705729)"/>
     <use xlink:href="#DejaVuSerif-5c" transform="translate(5562.972641 0.705729)"/>
     <use xlink:href="#DejaVuSerif-5d" transform="translate(5596.664047 0.705729)"/>
     <use xlink:href="#DejaVuSerif-20" transform="translate(5635.677719 0.705729)"/>
     <use xlink:href="#DejaVuSerif-77" transform="translate(5667.464828 0.705729)"/>
     <use xlink:href="#DejaVuSerif-68" transform="translate(5753.060532 0.705729)"/>
     <use xlink:href="#DejaVuSerif-65" transform="translate(5817.464828 0.705729)"/>
     <use xlink:href="#DejaVuSerif-72" transform="translate(5876.644516 0.705729)"/>
     <use xlink:href="#DejaVuSerif-65" transform="translate(5924.44725 0.705729)"/>
     <use xlink:href="#DejaVuSerif-20" transform="translate(5983.626938 0.705729)"/>
     <use xlink:href="#DejaVuSerif-74" transform="translate(6015.414047 0.705729)"/>
     <use xlink:href="#DejaVuSerif-68" transform="translate(6055.599594 0.705729)"/>
     <use xlink:href="#DejaVuSerif-65" transform="translate(6120.003891 0.705729)"/>
     <use xlink:href="#DejaVuSerif-20" transform="translate(6179.183578 0.705729)"/>
     <use xlink:href="#DejaVuSerif-73" transform="translate(6210.970688 0.705729)"/>
     <use xlink:href="#DejaVuSerif-75" transform="translate(6262.289047 0.705729)"/>
     <use xlink:href="#DejaVuSerif-6d" transform="translate(6326.693344 0.705729)"/>
     <use xlink:href="#DejaVuSerif-20" transform="translate(6421.517563 0.705729)"/>
     <use xlink:href="#DejaVuSerif-72" transform="translate(6453.304672 0.705729)"/>
     <use xlink:href="#DejaVuSerif-61" transform="translate(6501.107407 0.705729)"/>
     <use xlink:href="#DejaVuSerif-6e" transform="translate(6560.726547 0.705729)"/>
     <use xlink:href="#DejaVuSerif-67" transform="translate(6625.130844 0.705729)"/>
     <use xlink:href="#DejaVuSerif-65" transform="translate(6689.144516 0.705729)"/>
     <use xlink:href="#DejaVuSerif-73" transform="translate(6748.324203 0.705729)"/>
     <use xlink:href="#DejaVuSerif-20" transform="translate(6799.642563 0.705729)"/>
     <use xlink:href="#DejaVuSerif-6f" transform="translate(6831.429672 0.705729)"/>
     <use xlink:href="#DejaVuSerif-76" transform="translate(6891.63475 0.705729)"/>
     <use xlink:href="#DejaVuSerif-65" transform="translate(6948.128891 0.705729)"/>
     <use xlink:href="#DejaVuSerif-72" transform="translate(7007.308578 0.705729)"/>
     <use xlink:href="#DejaVuSerif-20" transform="translate(7055.111313 0.705729)"/>
     <use xlink:href="#DejaVuSerif-61" transform="translate(7086.898422 0.705729)"/>
     <use xlink:href="#DejaVuSerif-6c" transform="translate(7146.517563 0.705729)"/>
     <use xlink:href="#DejaVuSerif-6c" transform="translate(7178.499985 0.705729)"/>
     <use xlink:href="#DejaVuSerif-20" transform="translate(7210.482407 0.705729)"/>
     <use xlink:href="#DejaVuSerif-70" transform="translate(7242.269516 0.705729)"/>
     <use xlink:href="#DejaVuSerif-61" transform="translate(7306.283188 0.705729)"/>
     <use xlink:href="#DejaVuSerif-69" transform="translate(7365.902328 0.705729)"/>
     <use xlink:href="#DejaVuSerif-72" transform="translate(7397.88475 0.705729)"/>
     <use xlink:href="#DejaVuSerif-73" transform="translate(7445.687485 0.705729)"/>
     <use xlink:href="#DejaVuSerif-20" transform="translate(7497.005844 0.705729)"/>
     <use xlink:href="#Cmr10-28" transform="translate(7528.792953 0.705729)"/>
     <use xlink:href="#Cmmi10-6d" transform="translate(7567.611313 0.705729)"/>
     <use xlink:href="#Cmmi10-3b" transform="translate(7655.404282 0.705729)"/>
     <use xlink:href="#Cmmi10-6e" transform="translate(7700.648422 0.705729)"/>
     <use xlink:href="#Cmr10-29" transform="translate(7760.658188 0.705729)"/>
     <use xlink:href="#DejaVuSerif-20" transform="translate(7799.476547 0.705729)"/>
     <use xlink:href="#DejaVuSerif-6f" transform="translate(7831.263657 0.705729)"/>
     <use xlink:href="#DejaVuSerif-66" transform="translate(7891.468735 0.705729)"/>
     <use xlink:href="#DejaVuSerif-20" transform="translate(7928.480453 0.705729)"/>
     <use xlink:href="#DejaVuSerif-70" transform="translate(7960.267563 0.705729)"/>
     <use xlink:href="#DejaVuSerif-6f" transform="translate(8024.281235 0.705729)"/>
     <use xlink:href="#DejaVuSerif-73" transform="translate(8084.486313 0.705729)"/>
     <use xlink:href="#DejaVuSerif-69" transform="translate(8135.804672 0.705729)"/>
     <use xlink:href="#DejaVuSerif-74" transform="translate(8167.787094 0.705729)"/>
     <use xlink:href="#DejaVuSerif-69" transform="translate(8207.972641 0.705729)"/>
     <use xlink:href="#DejaVuSerif-76" transform="translate(8239.955063 0.705729)"/>
     <use xlink:href="#DejaVuSerif-65" transform="translate(8296.449203 0.705729)"/>
     <use xlink:href="#DejaVuSerif-20" transform="translate(8355.628891 0.705729)"/>
     <use xlink:href="#DejaVuSerif-69" transform="translate(8387.416 0.705729)"/>
     <use xlink:href="#DejaVuSerif-6e" transform="translate(8419.398422 0.705729)"/>
     <use xlink:href="#DejaVuSerif-74" transform="translate(8483.802719 0.705729)"/>
     <use xlink:href="#DejaVuSerif-65" transform="translate(8523.988266 0.705729)"/>
     <use xlink:href="#DejaVuSerif-67" transform="translate(8583.167953 0.705729)"/>
     <use xlink:href="#DejaVuSerif-65" transform="translate(8647.181625 0.705729)"/>
     <use xlink:href="#DejaVuSerif-72" transform="translate(8706.361313 0.705729)"/>
     <use xlink:href="#DejaVuSerif-73" transform="translate(8754.164047 0.705729)"/>
     <use xlink:href="#DejaVuSerif-20" transform="translate(8805.482407 0.705729)"/>
     <use xlink:href="#DejaVuSerif-73" transform="translate(8837.269516 0.705729)"/>
     <use xlink:href="#DejaVuSerif-61" transform="translate(8888.587875 0.705729)"/>
     <use xlink:href="#DejaVuSerif-74" transform="translate(8948.207016 0.705729)"/>
     <use xlink:href="#DejaVuSerif-69" transform="translate(8988.392563 0.705729)"/>
     <use xlink:href="#DejaVuSerif-73" transform="translate(9020.374985 0.705729)"/>
     <use xlink:href="#DejaVuSerif-66" transform="translate(9071.693344 0.705729)"/>
     <use xlink:href="#DejaVuSerif-79" transform="translate(9108.705063 0.705729)"/>
     <use xlink:href="#DejaVuSerif-69" transform="translate(9165.199203 0.705729)"/>
     <use xlink:href="#DejaVuSerif-6e" transform="translate(9197.181625 0.705729)"/>
     <use xlink:href="#DejaVuSerif-67" transform="translate(9261.585922 0.705729)"/>
     <use xlink:href="#DejaVuSerif-20" transform="translate(9325.599594 0.705729)"/>
     <use xlink:href="#DejaVuSerif-74" transform="translate(9357.386703 0.705729)"/>
     <use xlink:href="#DejaVuSerif-68" transform="translate(9397.57225 0.705729)"/>
     <use xlink:href="#DejaVuSerif-65" transform="translate(9461.976547 0.705729)"/>
     <use xlink:href="#DejaVuSerif-20" transform="translate(9521.156235 0.705729)"/>
     <use xlink:href="#DejaVuSerif-69" transform="translate(9552.943344 0.705729)"/>
     <use xlink:href="#DejaVuSerif-6e" transform="translate(9584.925766 0.705729)"/>
     <use xlink:href="#DejaVuSerif-64" transform="translate(9649.330063 0.705729)"/>
     <use xlink:href="#DejaVuSerif-69" transform="translate(9713.343735 0.705729)"/>
     <use xlink:href="#DejaVuSerif-63" transform="translate(9745.326157 0.705729)"/>
     <use xlink:href="#DejaVuSerif-61" transform="translate(9801.332016 0.705729)"/>
     <use xlink:href="#DejaVuSerif-74" transform="translate(9860.951157 0.705729)"/>
     <use xlink:href="#DejaVuSerif-65" transform="translate(9901.136703 0.705729)"/>
     <use xlink:href="#DejaVuSerif-64" transform="translate(9960.316391 0.705729)"/>
     <use xlink:href="#DejaVuSerif-20" transform="translate(10024.330063 0.705729)"/>
     <use xlink:href="#DejaVuSerif-69" transform="translate(10056.117172 0.705729)"/>
     <use xlink:href="#DejaVuSerif-6e" transform="translate(10088.099594 0.705729)"/>
     <use xlink:href="#DejaVuSerif-65" transform="translate(10152.503891 0.705729)"/>
     <use xlink:href="#DejaVuSerif-71" transform="translate(10211.683578 0.705729)"/>
     <use xlink:href="#DejaVuSerif-75" transform="translate(10275.69725 0.705729)"/>
     <use xlink:href="#DejaVuSerif-61" transform="translate(10340.101547 0.705729)"/>
     <use xlink:href="#DejaVuSerif-6c" transform="translate(10399.720688 0.705729)"/>
     <use xlink:href="#DejaVuSerif-69" transform="translate(10431.70311 0.705729)"/>
     <use xlink:href="#DejaVuSerif-74" transform="translate(10463.685532 0.705729)"/>
     <use xlink:href="#DejaVuSerif-69" transform="translate(10503.871078 0.705729)"/>
     <use xlink:href="#DejaVuSerif-65" transform="translate(10535.8535 0.705729)"/>
     <use xlink:href="#DejaVuSerif-73" transform="translate(10595.033188 0.705729)"/>
     <use xlink:href="#DejaVuSerif-2e" transform="translate(10646.351547 0.705729)"/>
     <use xlink:href="#DejaVuSerif-20" transform="translate(10678.138657 0.705729)"/>
     <use xlink:href="#DejaVuSerif-20" transform="translate(10709.925766 0.705729)"/>
     <use xlink:href="#DejaVuSerif-45" transform="translate(10741.712875 0.705729)"/>
     <use xlink:href="#DejaVuSerif-76" transform="translate(10814.710922 0.705729)"/>
     <use xlink:href="#DejaVuSerif-61" transform="translate(10871.205063 0.705729)"/>
     <use xlink:href="#DejaVuSerif-6c" transform="translate(10930.824203 0.705729)"/>
     <use xlink:href="#DejaVuSerif-75" transform="translate(10962.806625 0.705729)"/>
     <use xlink:href="#DejaVuSerif-61" transform="translate(11027.210922 0.705729)"/>
     <use xlink:href="#DejaVuSerif-74" transform="translate(11086.830063 0.705729)"/>
     <use xlink:href="#DejaVuSerif-65" transform="translate(11127.01561 0.705729)"/>
     <use xlink:href="#DejaVuSerif-20" transform="translate(11186.195297 0.705729)"/>
     <use xlink:href="#DejaVuSerif-5c" transform="translate(11217.982407 0.705729)"/>
     <use xlink:href="#DejaVuSerif-5b" transform="translate(11251.673813 0.705729)"/>
     <use xlink:href="#DejaVuSerif-5c" transform="translate(11290.687485 0.705729)"/>
     <use xlink:href="#DejaVuSerif-6c" transform="translate(11324.378891 0.705729)"/>
     <use xlink:href="#DejaVuSerif-69" transform="translate(11356.361313 0.705729)"/>
     <use xlink:href="#DejaVuSerif-6d" transform="translate(11388.343735 0.705729)"/>
     <use xlink:href="#DejaVuSerif-5f" transform="translate(11483.167953 0.705729)"/>
     <use xlink:href="#DejaVuSerif-7b" transform="translate(11533.167953 0.705729)"/>
     <use xlink:href="#DejaVuSerif-28" transform="translate(11596.791 0.705729)"/>
     <use xlink:href="#DejaVuSerif-78" transform="translate(11635.804672 0.705729)"/>
     <use xlink:href="#DejaVuSerif-2c" transform="translate(11692.201157 0.705729)"/>
     <use xlink:href="#DejaVuSerif-79" transform="translate(11723.988266 0.705729)"/>
     <use xlink:href="#DejaVuSerif-29" transform="translate(11780.482407 0.705729)"/>
     <use xlink:href="#DejaVuSerif-5c" transform="translate(11819.496078 0.705729)"/>
     <use xlink:href="#DejaVuSerif-72" transform="translate(11853.187485 0.705729)"/>
     <use xlink:href="#DejaVuSerif-69" transform="translate(11900.990219 0.705729)"/>
     <use xlink:href="#DejaVuSerif-67" transform="translate(11932.972641 0.705729)"/>
     <use xlink:href="#DejaVuSerif-68" transform="translate(11996.986313 0.705729)"/>
     <use xlink:href="#DejaVuSerif-74" transform="translate(12061.39061 0.705729)"/>
     <use xlink:href="#DejaVuSerif-61" transform="translate(12101.576157 0.705729)"/>
     <use xlink:href="#DejaVuSerif-72" transform="translate(12161.195297 0.705729)"/>
     <use xlink:href="#DejaVuSerif-72" transform="translate(12208.998032 0.705729)"/>
     <use xlink:href="#DejaVuSerif-6f" transform="translate(12256.800766 0.705729)"/>
     <use xlink:href="#DejaVuSerif-77" transform="translate(12317.005844 0.705729)"/>
     <use xlink:href="#DejaVuSerif-20" transform="translate(12402.601547 0.705729)"/>
     <use xlink:href="#DejaVuSerif-28" transform="translate(12434.388657 0.705729)"/>
     <use xlink:href="#DejaVuSerif-31" transform="translate(12473.402328 0.705729)"/>
     <use xlink:href="#DejaVuSerif-2c" transform="translate(12537.025375 0.705729)"/>
     <use xlink:href="#DejaVuSerif-31" transform="translate(12568.812485 0.705729)"/>
     <use xlink:href="#DejaVuSerif-29" transform="translate(12632.435532 0.705729)"/>
     <use xlink:href="#DejaVuSerif-2c" transform="translate(12671.449203 0.705729)"/>
     <use xlink:href="#DejaVuSerif-20" transform="translate(12703.236313 0.705729)"/>
     <use xlink:href="#DejaVuSerif-28" transform="translate(12735.023422 0.705729)"/>
     <use xlink:href="#DejaVuSerif-78" transform="translate(12774.037094 0.705729)"/>
     <use xlink:href="#DejaVuSerif-2c" transform="translate(12830.433578 0.705729)"/>
     <use xlink:href="#DejaVuSerif-79" transform="translate(12862.220688 0.705729)"/>
     <use xlink:href="#DejaVuSerif-29" transform="translate(12918.714828 0.705729)"/>
     <use xlink:href="#DejaVuSerif-5c" transform="translate(12957.7285 0.705729)"/>
     <use xlink:href="#DejaVuSerif-69" transform="translate(12991.419907 0.705729)"/>
     <use xlink:href="#DejaVuSerif-6e" transform="translate(13023.402328 0.705729)"/>
     <use xlink:href="#DejaVuSerif-20" transform="translate(13087.806625 0.705729)"/>
     <use xlink:href="#DejaVuSerif-41" transform="translate(13119.593735 0.705729)"/>
     <use xlink:href="#DejaVuSerif-7d" transform="translate(13191.810532 0.705729)"/>
     <use xlink:href="#DejaVuSerif-20" transform="translate(13255.433578 0.705729)"/>
     <use xlink:href="#DejaVuSerif-28" transform="translate(13287.220688 0.705729)"/>
     <use xlink:href="#DejaVuSerif-31" transform="translate(13326.23436 0.705729)"/>
     <use xlink:href="#DejaVuSerif-2d" transform="translate(13389.857407 0.705729)"/>
     <use xlink:href="#DejaVuSerif-78" transform="translate(13423.646469 0.705729)"/>
     <use xlink:href="#DejaVuSerif-79" transform="translate(13480.042953 0.705729)"/>
     <use xlink:href="#DejaVuSerif-5e" transform="translate(13536.537094 0.705729)"/>
     <use xlink:href="#DejaVuSerif-32" transform="translate(13620.326157 0.705729)"/>
     <use xlink:href="#DejaVuSerif-29" transform="translate(13683.949203 0.705729)"/>
     <use xlink:href="#DejaVuSerif-28" transform="translate(13722.962875 0.705729)"/>
     <use xlink:href="#DejaVuSerif-31" transform="translate(13761.976547 0.705729)"/>
     <use xlink:href="#DejaVuSerif-2d" transform="translate(13825.599594 0.705729)"/>
     <use xlink:href="#DejaVuSerif-78" transform="translate(13859.388657 0.705729)"/>
     <use xlink:href="#DejaVuSerif-5e" transform="translate(13915.785141 0.705729)"/>
     <use xlink:href="#DejaVuSerif-32" transform="translate(13999.574203 0.705729)"/>
     <use xlink:href="#DejaVuSerif-79" transform="translate(14063.19725 0.705729)"/>
     <use xlink:href="#DejaVuSerif-29" transform="translate(14119.691391 0.705729)"/>
     <use xlink:href="#DejaVuSerif-53" transform="translate(14158.705063 0.705729)"/>
     <use xlink:href="#DejaVuSerif-28" transform="translate(14227.210922 0.705729)"/>
     <use xlink:href="#DejaVuSerif-78" transform="translate(14266.224594 0.705729)"/>
     <use xlink:href="#DejaVuSerif-2c" transform="translate(14322.621078 0.705729)"/>
     <use xlink:href="#DejaVuSerif-79" transform="translate(14354.408188 0.705729)"/>
     <use xlink:href="#DejaVuSerif-29" transform="translate(14410.902328 0.705729)"/>
     <use xlink:href="#DejaVuSerif-2e" transform="translate(14449.916 0.705729)"/>
     <use xlink:href="#DejaVuSerif-5c" transform="translate(14475.32811 0.705729)"/>
     <use xlink:href="#DejaVuSerif-5d" transform="translate(14509.019516 0.705729)"/>
    </g>
   </g>
  </g>
 </g>
</svg>
