<?xml version="1.0" encoding="utf-8" standalone="no"?>
<!DOCTYPE svg PUBLIC "-//W3C//DTD SVG 1.1//EN"
  "http://www.w3.org/Graphics/SVG/1.1/DTD/svg11.dtd">
<svg xmlns:xlink="http://www.w3.org/1999/xlink" width="1861.68pt" height="180.72pt" viewBox="0 0 1861.68 180.72" xmlns="http://www.w3.org/2000/svg" version="1.1">
 <metadata>
  <rdf:RDF xmlns:dc="http://purl.org/dc/elements/1.1/" xmlns:cc="http://creativecommons.org/ns#" xmlns:rdf="http://www.w3.org/1999/02/22-rdf-syntax-ns#">
   <cc:Work>
    <dc:type rdf:resource="http://purl.org/dc/dcmitype/StillImage"/>
    <dc:date>2025-05-29T18:43:56.816456</dc:date>
    <dc:format>image/svg+xml</dc:format>
    <dc:creator>
     <cc:Agent>
      <dc:title>Matplotlib v3.10.3, https://matplotlib.org/</dc:title>
     </cc:Agent>
    </dc:creator>
   </cc:Work>
  </rdf:RDF>
 </metadata>
 <defs>
  <style type="text/css">*{stroke-linejoin: round; stroke-linecap: butt}</style>
 </defs>
 <g id="figure_1">
  <g id="patch_1">
   <path d="M 0 180.72 
L 1861.68 180.72 
L 1861.68 0 
L 0 0 
z
" style="fill: #ffffff"/>
  </g>
  <g id="axes_1">
   <g id="text_1">
    <!-- A dart, thrown at random, hits a square target. Assuming that any two parts of the target of equal area are equally likely to be hit, find the probability that the point hit is nearer to the center than to any edge. Express your answer in the form $(a\sqrt{b}+c)/d$, where $a$, $b$, $c$, $d$ are integers and $b$, $d$ are positive. -->
    <g transform="translate(7.2 95.28) scale(0.12 -0.12)">
     <defs>
      <path id="DejaVuSerif-41" d="M 1281 1691 
L 2994 1691 
L 2138 3909 
L 1281 1691 
z
M -38 0 
L -38 331 
L 372 331 
L 2034 4666 
L 2559 4666 
L 4225 331 
L 4684 331 
L 4684 0 
L 2988 0 
L 2988 331 
L 3506 331 
L 3116 1356 
L 1153 1356 
L 763 331 
L 1275 331 
L 1275 0 
L -38 0 
z
" transform="scale(0.015625)"/>
      <path id="DejaVuSerif-20" transform="scale(0.015625)"/>
      <path id="DejaVuSerif-64" d="M 3359 331 
L 3909 331 
L 3909 0 
L 2784 0 
L 2784 519 
Q 2616 206 2355 57 
Q 2094 -91 1709 -91 
Q 1097 -91 708 395 
Q 319 881 319 1663 
Q 319 2444 706 2928 
Q 1094 3413 1709 3413 
Q 2094 3413 2355 3264 
Q 2616 3116 2784 2803 
L 2784 4531 
L 2241 4531 
L 2241 4863 
L 3359 4863 
L 3359 331 
z
M 2784 1497 
L 2784 1825 
Q 2784 2422 2554 2737 
Q 2325 3053 1888 3053 
Q 1444 3053 1217 2703 
Q 991 2353 991 1663 
Q 991 975 1217 622 
Q 1444 269 1888 269 
Q 2325 269 2554 583 
Q 2784 897 2784 1497 
z
" transform="scale(0.015625)"/>
      <path id="DejaVuSerif-61" d="M 2547 1044 
L 2547 1747 
L 1806 1747 
Q 1378 1747 1168 1562 
Q 959 1378 959 997 
Q 959 650 1171 447 
Q 1384 244 1747 244 
Q 2106 244 2326 466 
Q 2547 688 2547 1044 
z
M 3122 2075 
L 3122 331 
L 3634 331 
L 3634 0 
L 2547 0 
L 2547 359 
Q 2356 128 2106 18 
Q 1856 -91 1522 -91 
Q 969 -91 644 203 
Q 319 497 319 997 
Q 319 1513 691 1797 
Q 1063 2081 1741 2081 
L 2547 2081 
L 2547 2309 
Q 2547 2688 2317 2895 
Q 2088 3103 1672 3103 
Q 1328 3103 1125 2947 
Q 922 2791 872 2484 
L 575 2484 
L 575 3156 
Q 875 3284 1158 3348 
Q 1441 3413 1709 3413 
Q 2400 3413 2761 3070 
Q 3122 2728 3122 2075 
z
" transform="scale(0.015625)"/>
      <path id="DejaVuSerif-72" d="M 3059 3328 
L 3059 2497 
L 2728 2497 
Q 2713 2744 2591 2866 
Q 2469 2988 2234 2988 
Q 1809 2988 1582 2694 
Q 1356 2400 1356 1850 
L 1356 331 
L 2022 331 
L 2022 0 
L 263 0 
L 263 331 
L 781 331 
L 781 2994 
L 231 2994 
L 231 3322 
L 1356 3322 
L 1356 2731 
Q 1525 3078 1790 3245 
Q 2056 3413 2438 3413 
Q 2578 3413 2733 3391 
Q 2888 3369 3059 3328 
z
" transform="scale(0.015625)"/>
      <path id="DejaVuSerif-74" d="M 691 2988 
L 184 2988 
L 184 3322 
L 691 3322 
L 691 4353 
L 1269 4353 
L 1269 3322 
L 2350 3322 
L 2350 2988 
L 1269 2988 
L 1269 878 
Q 1269 456 1350 337 
Q 1431 219 1650 219 
Q 1875 219 1978 351 
Q 2081 484 2088 781 
L 2522 781 
Q 2497 328 2275 118 
Q 2053 -91 1600 -91 
Q 1103 -91 897 129 
Q 691 350 691 878 
L 691 2988 
z
" transform="scale(0.015625)"/>
      <path id="DejaVuSerif-2c" d="M 231 -622 
Q 525 -406 662 -114 
Q 800 178 800 594 
L 800 709 
L 1416 709 
Q 1391 175 1164 -208 
Q 938 -591 481 -872 
L 231 -622 
z
" transform="scale(0.015625)"/>
      <path id="DejaVuSerif-68" d="M 263 0 
L 263 331 
L 781 331 
L 781 4531 
L 231 4531 
L 231 4863 
L 1356 4863 
L 1356 2731 
Q 1516 3069 1770 3241 
Q 2025 3413 2363 3413 
Q 2913 3413 3172 3097 
Q 3431 2781 3431 2113 
L 3431 331 
L 3944 331 
L 3944 0 
L 2356 0 
L 2356 331 
L 2853 331 
L 2853 1931 
Q 2853 2541 2704 2764 
Q 2556 2988 2175 2988 
Q 1775 2988 1565 2697 
Q 1356 2406 1356 1850 
L 1356 331 
L 1856 331 
L 1856 0 
L 263 0 
z
" transform="scale(0.015625)"/>
      <path id="DejaVuSerif-6f" d="M 1925 219 
Q 2388 219 2623 584 
Q 2859 950 2859 1663 
Q 2859 2375 2623 2739 
Q 2388 3103 1925 3103 
Q 1463 3103 1227 2739 
Q 991 2375 991 1663 
Q 991 950 1228 584 
Q 1466 219 1925 219 
z
M 1925 -91 
Q 1200 -91 759 389 
Q 319 869 319 1663 
Q 319 2456 758 2934 
Q 1197 3413 1925 3413 
Q 2653 3413 3092 2934 
Q 3531 2456 3531 1663 
Q 3531 869 3092 389 
Q 2653 -91 1925 -91 
z
" transform="scale(0.015625)"/>
      <path id="DejaVuSerif-77" d="M 3072 3322 
L 3922 728 
L 4672 2988 
L 4191 2988 
L 4191 3322 
L 5394 3322 
L 5394 2988 
L 5025 2988 
L 4038 0 
L 3559 0 
L 2741 2484 
L 1919 0 
L 1459 0 
L 475 2988 
L 103 2988 
L 103 3322 
L 1606 3322 
L 1606 2988 
L 1069 2988 
L 1813 728 
L 2669 3322 
L 3072 3322 
z
" transform="scale(0.015625)"/>
      <path id="DejaVuSerif-6e" d="M 263 0 
L 263 331 
L 781 331 
L 781 2988 
L 231 2988 
L 231 3322 
L 1356 3322 
L 1356 2731 
Q 1516 3069 1770 3241 
Q 2025 3413 2363 3413 
Q 2913 3413 3172 3097 
Q 3431 2781 3431 2113 
L 3431 331 
L 3944 331 
L 3944 0 
L 2356 0 
L 2356 331 
L 2853 331 
L 2853 1931 
Q 2853 2541 2703 2767 
Q 2553 2994 2175 2994 
Q 1775 2994 1565 2701 
Q 1356 2409 1356 1850 
L 1356 331 
L 1856 331 
L 1856 0 
L 263 0 
z
" transform="scale(0.015625)"/>
      <path id="DejaVuSerif-6d" d="M 3316 2675 
Q 3481 3041 3739 3227 
Q 3997 3413 4341 3413 
Q 4863 3413 5119 3089 
Q 5375 2766 5375 2113 
L 5375 331 
L 5894 331 
L 5894 0 
L 4300 0 
L 4300 331 
L 4800 331 
L 4800 2047 
Q 4800 2556 4650 2772 
Q 4500 2988 4153 2988 
Q 3769 2988 3567 2697 
Q 3366 2406 3366 1850 
L 3366 331 
L 3866 331 
L 3866 0 
L 2291 0 
L 2291 331 
L 2791 331 
L 2791 2069 
Q 2791 2566 2641 2777 
Q 2491 2988 2144 2988 
Q 1759 2988 1557 2697 
Q 1356 2406 1356 1850 
L 1356 331 
L 1856 331 
L 1856 0 
L 263 0 
L 263 331 
L 781 331 
L 781 2994 
L 231 2994 
L 231 3322 
L 1356 3322 
L 1356 2731 
Q 1516 3063 1762 3238 
Q 2009 3413 2322 3413 
Q 2709 3413 2968 3220 
Q 3228 3028 3316 2675 
z
" transform="scale(0.015625)"/>
      <path id="DejaVuSerif-69" d="M 622 4353 
Q 622 4497 726 4603 
Q 831 4709 978 4709 
Q 1122 4709 1226 4603 
Q 1331 4497 1331 4353 
Q 1331 4206 1228 4103 
Q 1125 4000 978 4000 
Q 831 4000 726 4103 
Q 622 4206 622 4353 
z
M 1356 331 
L 1900 331 
L 1900 0 
L 231 0 
L 231 331 
L 781 331 
L 781 2988 
L 231 2988 
L 231 3322 
L 1356 3322 
L 1356 331 
z
" transform="scale(0.015625)"/>
      <path id="DejaVuSerif-73" d="M 359 184 
L 359 959 
L 691 959 
Q 703 588 923 403 
Q 1144 219 1575 219 
Q 1963 219 2166 364 
Q 2369 509 2369 788 
Q 2369 1006 2220 1140 
Q 2072 1275 1594 1428 
L 1178 1569 
Q 750 1706 558 1912 
Q 366 2119 366 2438 
Q 366 2894 700 3153 
Q 1034 3413 1625 3413 
Q 1888 3413 2178 3344 
Q 2469 3275 2778 3144 
L 2778 2419 
L 2447 2419 
Q 2434 2741 2221 2922 
Q 2009 3103 1644 3103 
Q 1281 3103 1095 2975 
Q 909 2847 909 2591 
Q 909 2381 1050 2254 
Q 1191 2128 1613 1997 
L 2069 1856 
Q 2541 1709 2748 1489 
Q 2956 1269 2956 922 
Q 2956 450 2595 179 
Q 2234 -91 1600 -91 
Q 1278 -91 972 -22 
Q 666 47 359 184 
z
" transform="scale(0.015625)"/>
      <path id="DejaVuSerif-71" d="M 3359 2988 
L 3359 -997 
L 3909 -997 
L 3909 -1331 
L 2241 -1331 
L 2241 -997 
L 2784 -997 
L 2784 519 
Q 2616 206 2355 57 
Q 2094 -91 1709 -91 
Q 1097 -91 708 395 
Q 319 881 319 1663 
Q 319 2444 706 2928 
Q 1094 3413 1709 3413 
Q 2094 3413 2355 3264 
Q 2616 3116 2784 2803 
L 2784 3322 
L 3909 3322 
L 3909 2988 
L 3359 2988 
z
M 2784 1825 
Q 2784 2422 2554 2737 
Q 2325 3053 1888 3053 
Q 1444 3053 1217 2703 
Q 991 2353 991 1663 
Q 991 975 1217 622 
Q 1444 269 1888 269 
Q 2325 269 2554 583 
Q 2784 897 2784 1497 
L 2784 1825 
z
" transform="scale(0.015625)"/>
      <path id="DejaVuSerif-75" d="M 2266 3322 
L 3341 3322 
L 3341 331 
L 3884 331 
L 3884 0 
L 2766 0 
L 2766 588 
Q 2606 256 2353 82 
Q 2100 -91 1766 -91 
Q 1213 -91 952 223 
Q 691 538 691 1209 
L 691 2988 
L 172 2988 
L 172 3322 
L 1269 3322 
L 1269 1388 
Q 1269 781 1417 556 
Q 1566 331 1947 331 
Q 2347 331 2556 625 
Q 2766 919 2766 1478 
L 2766 2988 
L 2266 2988 
L 2266 3322 
z
" transform="scale(0.015625)"/>
      <path id="DejaVuSerif-65" d="M 3469 1600 
L 991 1600 
L 991 1575 
Q 991 903 1244 561 
Q 1497 219 1991 219 
Q 2369 219 2611 417 
Q 2853 616 2950 1006 
L 3413 1006 
Q 3275 459 2904 184 
Q 2534 -91 1931 -91 
Q 1203 -91 761 389 
Q 319 869 319 1663 
Q 319 2450 753 2931 
Q 1188 3413 1894 3413 
Q 2647 3413 3050 2948 
Q 3453 2484 3469 1600 
z
M 2791 1931 
Q 2772 2513 2545 2808 
Q 2319 3103 1894 3103 
Q 1497 3103 1269 2806 
Q 1041 2509 991 1931 
L 2791 1931 
z
" transform="scale(0.015625)"/>
      <path id="DejaVuSerif-67" d="M 3359 2988 
L 3359 72 
Q 3359 -644 2965 -1033 
Q 2572 -1422 1844 -1422 
Q 1516 -1422 1216 -1362 
Q 916 -1303 641 -1184 
L 641 -488 
L 941 -488 
Q 997 -813 1206 -963 
Q 1416 -1113 1806 -1113 
Q 2313 -1113 2548 -827 
Q 2784 -541 2784 72 
L 2784 519 
Q 2616 206 2355 57 
Q 2094 -91 1709 -91 
Q 1097 -91 708 395 
Q 319 881 319 1663 
Q 319 2444 706 2928 
Q 1094 3413 1709 3413 
Q 2094 3413 2355 3264 
Q 2616 3116 2784 2803 
L 2784 3322 
L 3909 3322 
L 3909 2988 
L 3359 2988 
z
M 2784 1825 
Q 2784 2422 2554 2737 
Q 2325 3053 1888 3053 
Q 1444 3053 1217 2703 
Q 991 2353 991 1663 
Q 991 975 1217 622 
Q 1444 269 1888 269 
Q 2325 269 2554 583 
Q 2784 897 2784 1497 
L 2784 1825 
z
" transform="scale(0.015625)"/>
      <path id="DejaVuSerif-2e" d="M 603 325 
Q 603 500 722 622 
Q 841 744 1019 744 
Q 1191 744 1312 622 
Q 1434 500 1434 325 
Q 1434 153 1312 31 
Q 1191 -91 1019 -91 
Q 841 -91 722 29 
Q 603 150 603 325 
z
" transform="scale(0.015625)"/>
      <path id="DejaVuSerif-79" d="M 1381 -609 
L 1600 -56 
L 359 2988 
L -19 2988 
L -19 3322 
L 1509 3322 
L 1509 2988 
L 978 2988 
L 1913 703 
L 2847 2988 
L 2350 2988 
L 2350 3322 
L 3597 3322 
L 3597 2988 
L 3225 2988 
L 1703 -750 
Q 1547 -1138 1356 -1280 
Q 1166 -1422 819 -1422 
Q 672 -1422 517 -1397 
Q 363 -1372 206 -1325 
L 206 -691 
L 500 -691 
Q 519 -903 608 -995 
Q 697 -1088 884 -1088 
Q 1056 -1088 1161 -992 
Q 1266 -897 1381 -609 
z
" transform="scale(0.015625)"/>
      <path id="DejaVuSerif-70" d="M 1313 1825 
L 1313 1497 
Q 1313 897 1542 583 
Q 1772 269 2209 269 
Q 2650 269 2876 622 
Q 3103 975 3103 1663 
Q 3103 2353 2876 2703 
Q 2650 3053 2209 3053 
Q 1772 3053 1542 2737 
Q 1313 2422 1313 1825 
z
M 738 2988 
L 184 2988 
L 184 3322 
L 1313 3322 
L 1313 2803 
Q 1481 3116 1742 3264 
Q 2003 3413 2388 3413 
Q 3000 3413 3387 2928 
Q 3775 2444 3775 1663 
Q 3775 881 3387 395 
Q 3000 -91 2388 -91 
Q 2003 -91 1742 57 
Q 1481 206 1313 519 
L 1313 -997 
L 1856 -997 
L 1856 -1331 
L 184 -1331 
L 184 -997 
L 738 -997 
L 738 2988 
z
" transform="scale(0.015625)"/>
      <path id="DejaVuSerif-66" d="M 2753 4078 
L 2450 4078 
Q 2447 4313 2317 4434 
Q 2188 4556 1941 4556 
Q 1619 4556 1487 4379 
Q 1356 4203 1356 3750 
L 1356 3322 
L 2284 3322 
L 2284 2988 
L 1356 2988 
L 1356 331 
L 2094 331 
L 2094 0 
L 231 0 
L 231 331 
L 781 331 
L 781 2988 
L 231 2988 
L 231 3322 
L 781 3322 
L 781 3738 
Q 781 4294 1070 4578 
Q 1359 4863 1919 4863 
Q 2128 4863 2337 4825 
Q 2547 4788 2753 4709 
L 2753 4078 
z
" transform="scale(0.015625)"/>
      <path id="DejaVuSerif-6c" d="M 1313 331 
L 1856 331 
L 1856 0 
L 184 0 
L 184 331 
L 738 331 
L 738 4531 
L 184 4531 
L 184 4863 
L 1313 4863 
L 1313 331 
z
" transform="scale(0.015625)"/>
      <path id="DejaVuSerif-6b" d="M 1831 0 
L 219 0 
L 219 331 
L 738 331 
L 738 4531 
L 184 4531 
L 184 4863 
L 1313 4863 
L 1313 1697 
L 2713 2988 
L 2234 2988 
L 2234 3322 
L 3738 3322 
L 3738 2988 
L 3169 2988 
L 2181 2075 
L 3444 331 
L 3922 331 
L 3922 0 
L 2284 0 
L 2284 331 
L 2759 331 
L 1766 1697 
L 1313 1275 
L 1313 331 
L 1831 331 
L 1831 0 
z
" transform="scale(0.015625)"/>
      <path id="DejaVuSerif-62" d="M 738 331 
L 738 4531 
L 184 4531 
L 184 4863 
L 1313 4863 
L 1313 2803 
Q 1481 3116 1742 3264 
Q 2003 3413 2388 3413 
Q 3000 3413 3387 2928 
Q 3775 2444 3775 1663 
Q 3775 881 3387 395 
Q 3000 -91 2388 -91 
Q 2003 -91 1742 57 
Q 1481 206 1313 519 
L 1313 0 
L 184 0 
L 184 331 
L 738 331 
z
M 1313 1497 
Q 1313 897 1542 583 
Q 1772 269 2209 269 
Q 2650 269 2876 622 
Q 3103 975 3103 1663 
Q 3103 2353 2876 2703 
Q 2650 3053 2209 3053 
Q 1772 3053 1542 2737 
Q 1313 2422 1313 1825 
L 1313 1497 
z
" transform="scale(0.015625)"/>
      <path id="DejaVuSerif-63" d="M 3291 997 
Q 3169 466 2822 187 
Q 2475 -91 1925 -91 
Q 1200 -91 759 389 
Q 319 869 319 1663 
Q 319 2459 759 2936 
Q 1200 3413 1925 3413 
Q 2241 3413 2553 3339 
Q 2866 3266 3181 3116 
L 3181 2266 
L 2847 2266 
Q 2781 2703 2561 2903 
Q 2341 3103 1931 3103 
Q 1466 3103 1228 2742 
Q 991 2381 991 1663 
Q 991 944 1227 581 
Q 1463 219 1931 219 
Q 2303 219 2525 412 
Q 2747 606 2828 997 
L 3291 997 
z
" transform="scale(0.015625)"/>
      <path id="DejaVuSerif-45" d="M 353 0 
L 353 331 
L 947 331 
L 947 4331 
L 353 4331 
L 353 4666 
L 4109 4666 
L 4109 3628 
L 3725 3628 
L 3725 4281 
L 1581 4281 
L 1581 2719 
L 3109 2719 
L 3109 3303 
L 3494 3303 
L 3494 1753 
L 3109 1753 
L 3109 2338 
L 1581 2338 
L 1581 384 
L 3775 384 
L 3775 1038 
L 4159 1038 
L 4159 0 
L 353 0 
z
" transform="scale(0.015625)"/>
      <path id="DejaVuSerif-78" d="M 1863 2028 
L 2559 2988 
L 2113 2988 
L 2113 3322 
L 3391 3322 
L 3391 2988 
L 2950 2988 
L 2059 1759 
L 3097 331 
L 3531 331 
L 3531 0 
L 1997 0 
L 1997 331 
L 2419 331 
L 1697 1325 
L 972 331 
L 1403 331 
L 1403 0 
L 141 0 
L 141 331 
L 581 331 
L 1497 1594 
L 488 2988 
L 78 2988 
L 78 3322 
L 1563 3322 
L 1563 2988 
L 1166 2988 
L 1863 2028 
z
" transform="scale(0.015625)"/>
      <path id="Cmr10-28" d="M 1984 -1588 
Q 1628 -1306 1370 -942 
Q 1113 -578 948 -165 
Q 784 247 703 697 
Q 622 1147 622 1600 
Q 622 2059 703 2509 
Q 784 2959 951 3375 
Q 1119 3791 1378 4153 
Q 1638 4516 1984 4788 
Q 1984 4800 2016 4800 
L 2075 4800 
Q 2094 4800 2109 4783 
Q 2125 4766 2125 4744 
Q 2125 4716 2113 4703 
Q 1800 4397 1592 4047 
Q 1384 3697 1257 3301 
Q 1131 2906 1075 2482 
Q 1019 2059 1019 1600 
Q 1019 -434 2106 -1491 
Q 2125 -1509 2125 -1544 
Q 2125 -1559 2108 -1579 
Q 2091 -1600 2075 -1600 
L 2016 -1600 
Q 1984 -1600 1984 -1588 
z
" transform="scale(0.015625)"/>
      <path id="Cmmi10-61" d="M 1113 -72 
Q 709 -72 476 233 
Q 244 538 244 953 
Q 244 1363 456 1803 
Q 669 2244 1030 2536 
Q 1391 2828 1806 2828 
Q 1997 2828 2147 2725 
Q 2297 2622 2381 2444 
Q 2453 2700 2663 2700 
Q 2744 2700 2798 2651 
Q 2853 2603 2853 2522 
Q 2853 2503 2851 2493 
Q 2850 2484 2847 2472 
L 2400 684 
Q 2356 494 2356 372 
Q 2356 97 2541 97 
Q 2741 97 2845 351 
Q 2950 606 3022 941 
Q 3034 978 3072 978 
L 3150 978 
Q 3175 978 3190 956 
Q 3206 934 3206 916 
Q 3094 469 2961 198 
Q 2828 -72 2528 -72 
Q 2313 -72 2147 54 
Q 1981 181 1941 391 
Q 1528 -72 1113 -72 
z
M 1119 97 
Q 1350 97 1567 270 
Q 1784 444 1941 678 
Q 1947 684 1947 697 
L 2291 2088 
L 2297 2106 
Q 2259 2334 2132 2498 
Q 2006 2663 1791 2663 
Q 1575 2663 1389 2486 
Q 1203 2309 1075 2069 
Q 950 1813 836 1366 
Q 722 919 722 672 
Q 722 450 817 273 
Q 913 97 1119 97 
z
" transform="scale(0.015625)"/>
      <path id="Cmex10-70" d="M 2713 -7425 
L 1269 -4063 
L 819 -4409 
L 703 -4294 
L 1619 -3584 
L 2969 -6725 
L 6291 197 
Q 6322 256 6400 256 
Q 6453 256 6490 218 
Q 6528 181 6528 128 
Q 6528 97 6522 84 
L 2950 -7366 
Q 2925 -7425 2853 -7425 
L 2713 -7425 
z
" transform="scale(0.015625)"/>
      <path id="Cmmi10-62" d="M 1106 -72 
Q 719 -72 503 231 
Q 288 534 288 941 
Q 288 1000 317 1173 
Q 347 1347 347 1388 
L 966 3872 
Q 991 3981 997 4044 
Q 997 4147 581 4147 
Q 519 4147 519 4231 
Q 522 4247 533 4287 
Q 544 4328 561 4350 
Q 578 4372 609 4372 
L 1472 4441 
Q 1550 4441 1550 4359 
L 1075 2472 
Q 1438 2828 1806 2828 
Q 2078 2828 2273 2684 
Q 2469 2541 2566 2306 
Q 2663 2072 2663 1806 
Q 2663 1497 2542 1167 
Q 2422 838 2209 555 
Q 1997 272 1712 100 
Q 1428 -72 1106 -72 
z
M 1119 97 
Q 1338 97 1528 280 
Q 1719 463 1838 691 
Q 1966 947 2077 1386 
Q 2188 1825 2188 2088 
Q 2188 2316 2092 2489 
Q 1997 2663 1791 2663 
Q 1559 2663 1348 2492 
Q 1138 2322 978 2088 
L 800 1363 
Q 697 959 691 716 
Q 691 475 795 286 
Q 900 97 1119 97 
z
" transform="scale(0.015625)"/>
      <path id="Cmr10-2b" d="M 481 1472 
Q 428 1472 393 1512 
Q 359 1553 359 1600 
Q 359 1647 393 1687 
Q 428 1728 481 1728 
L 2363 1728 
L 2363 3616 
Q 2363 3666 2400 3698 
Q 2438 3731 2491 3731 
Q 2538 3731 2578 3698 
Q 2619 3666 2619 3616 
L 2619 1728 
L 4500 1728 
Q 4547 1728 4581 1687 
Q 4616 1647 4616 1600 
Q 4616 1553 4581 1512 
Q 4547 1472 4500 1472 
L 2619 1472 
L 2619 -416 
Q 2619 -466 2578 -498 
Q 2538 -531 2491 -531 
Q 2438 -531 2400 -498 
Q 2363 -466 2363 -416 
L 2363 1472 
L 481 1472 
z
" transform="scale(0.015625)"/>
      <path id="Cmmi10-63" d="M 750 763 
Q 750 484 892 290 
Q 1034 97 1300 97 
Q 1681 97 2032 272 
Q 2384 447 2606 756 
Q 2625 775 2656 775 
Q 2688 775 2720 739 
Q 2753 703 2753 672 
Q 2753 647 2741 634 
Q 2506 306 2109 117 
Q 1713 -72 1288 -72 
Q 981 -72 747 73 
Q 513 219 384 462 
Q 256 706 256 1013 
Q 256 1444 497 1869 
Q 738 2294 1138 2561 
Q 1538 2828 1978 2828 
Q 2266 2828 2495 2689 
Q 2725 2550 2725 2278 
Q 2725 2103 2623 1979 
Q 2522 1856 2350 1856 
Q 2247 1856 2176 1920 
Q 2106 1984 2106 2088 
Q 2106 2238 2215 2344 
Q 2325 2450 2472 2450 
L 2484 2450 
Q 2409 2559 2267 2611 
Q 2125 2663 1972 2663 
Q 1597 2663 1315 2342 
Q 1034 2022 892 1576 
Q 750 1131 750 763 
z
" transform="scale(0.015625)"/>
      <path id="Cmr10-29" d="M 416 -1600 
Q 359 -1600 359 -1544 
Q 359 -1516 372 -1503 
Q 1466 -434 1466 1600 
Q 1466 3634 384 4691 
Q 359 4706 359 4744 
Q 359 4766 376 4783 
Q 394 4800 416 4800 
L 475 4800 
Q 494 4800 506 4788 
Q 966 4425 1272 3906 
Q 1578 3388 1720 2800 
Q 1863 2213 1863 1600 
Q 1863 1147 1786 708 
Q 1709 269 1542 -157 
Q 1375 -584 1119 -945 
Q 863 -1306 506 -1588 
Q 494 -1600 475 -1600 
L 416 -1600 
z
" transform="scale(0.015625)"/>
      <path id="Cmmi10-3d" d="M 359 -1472 
Q 359 -1453 366 -1447 
L 2591 4722 
Q 2603 4759 2634 4779 
Q 2666 4800 2706 4800 
Q 2763 4800 2798 4765 
Q 2834 4731 2834 4672 
L 2834 4647 
L 609 -1522 
Q 572 -1600 488 -1600 
Q 434 -1600 396 -1562 
Q 359 -1525 359 -1472 
z
" transform="scale(0.015625)"/>
      <path id="Cmmi10-64" d="M 1113 -72 
Q 709 -72 476 233 
Q 244 538 244 953 
Q 244 1363 456 1803 
Q 669 2244 1030 2536 
Q 1391 2828 1806 2828 
Q 1994 2828 2145 2723 
Q 2297 2619 2381 2444 
L 2741 3872 
Q 2766 3981 2772 4044 
Q 2772 4147 2356 4147 
Q 2291 4147 2291 4231 
Q 2294 4247 2305 4287 
Q 2316 4328 2333 4350 
Q 2350 4372 2381 4372 
L 3244 4441 
Q 3322 4441 3322 4359 
L 2400 678 
Q 2356 572 2356 372 
Q 2356 97 2541 97 
Q 2741 97 2845 351 
Q 2950 606 3022 941 
Q 3034 978 3072 978 
L 3150 978 
Q 3175 978 3190 956 
Q 3206 934 3206 916 
Q 3094 469 2961 198 
Q 2828 -72 2528 -72 
Q 2313 -72 2147 54 
Q 1981 181 1941 391 
Q 1528 -72 1113 -72 
z
M 1119 97 
Q 1350 97 1567 270 
Q 1784 444 1941 678 
Q 1947 684 1947 703 
L 2297 2113 
Q 2259 2338 2131 2500 
Q 2003 2663 1791 2663 
Q 1575 2663 1389 2486 
Q 1203 2309 1075 2069 
Q 950 1813 836 1366 
Q 722 919 722 672 
Q 722 450 817 273 
Q 913 97 1119 97 
z
" transform="scale(0.015625)"/>
      <path id="DejaVuSerif-76" d="M 1581 0 
L 359 2988 
L -19 2988 
L -19 3322 
L 1509 3322 
L 1509 2988 
L 978 2988 
L 1913 703 
L 2847 2988 
L 2350 2988 
L 2350 3322 
L 3597 3322 
L 3597 2988 
L 3225 2988 
L 2003 0 
L 1581 0 
z
" transform="scale(0.015625)"/>
     </defs>
     <use xlink:href="#DejaVuSerif-41" transform="translate(0 0.375)"/>
     <use xlink:href="#DejaVuSerif-20" transform="translate(72.216797 0.375)"/>
     <use xlink:href="#DejaVuSerif-64" transform="translate(104.003906 0.375)"/>
     <use xlink:href="#DejaVuSerif-61" transform="translate(168.017578 0.375)"/>
     <use xlink:href="#DejaVuSerif-72" transform="translate(227.636719 0.375)"/>
     <use xlink:href="#DejaVuSerif-74" transform="translate(275.439453 0.375)"/>
     <use xlink:href="#DejaVuSerif-2c" transform="translate(315.625 0.375)"/>
     <use xlink:href="#DejaVuSerif-20" transform="translate(347.412109 0.375)"/>
     <use xlink:href="#DejaVuSerif-74" transform="translate(379.199219 0.375)"/>
     <use xlink:href="#DejaVuSerif-68" transform="translate(419.384766 0.375)"/>
     <use xlink:href="#DejaVuSerif-72" transform="translate(483.789062 0.375)"/>
     <use xlink:href="#DejaVuSerif-6f" transform="translate(531.591797 0.375)"/>
     <use xlink:href="#DejaVuSerif-77" transform="translate(591.796875 0.375)"/>
     <use xlink:href="#DejaVuSerif-6e" transform="translate(677.392578 0.375)"/>
     <use xlink:href="#DejaVuSerif-20" transform="translate(741.796875 0.375)"/>
     <use xlink:href="#DejaVuSerif-61" transform="translate(773.583984 0.375)"/>
     <use xlink:href="#DejaVuSerif-74" transform="translate(833.203125 0.375)"/>
     <use xlink:href="#DejaVuSerif-20" transform="translate(873.388672 0.375)"/>
     <use xlink:href="#DejaVuSerif-72" transform="translate(905.175781 0.375)"/>
     <use xlink:href="#DejaVuSerif-61" transform="translate(952.978516 0.375)"/>
     <use xlink:href="#DejaVuSerif-6e" transform="translate(1012.597656 0.375)"/>
     <use xlink:href="#DejaVuSerif-64" transform="translate(1077.001953 0.375)"/>
     <use xlink:href="#DejaVuSerif-6f" transform="translate(1141.015625 0.375)"/>
     <use xlink:href="#DejaVuSerif-6d" transform="translate(1201.220703 0.375)"/>
     <use xlink:href="#DejaVuSerif-2c" transform="translate(1296.044922 0.375)"/>
     <use xlink:href="#DejaVuSerif-20" transform="translate(1327.832031 0.375)"/>
     <use xlink:href="#DejaVuSerif-68" transform="translate(1359.619141 0.375)"/>
     <use xlink:href="#DejaVuSerif-69" transform="translate(1424.023438 0.375)"/>
     <use xlink:href="#DejaVuSerif-74" transform="translate(1456.005859 0.375)"/>
     <use xlink:href="#DejaVuSerif-73" transform="translate(1496.191406 0.375)"/>
     <use xlink:href="#DejaVuSerif-20" transform="translate(1547.509766 0.375)"/>
     <use xlink:href="#DejaVuSerif-61" transform="translate(1579.296875 0.375)"/>
     <use xlink:href="#DejaVuSerif-20" transform="translate(1638.916016 0.375)"/>
     <use xlink:href="#DejaVuSerif-73" transform="translate(1670.703125 0.375)"/>
     <use xlink:href="#DejaVuSerif-71" transform="translate(1722.021484 0.375)"/>
     <use xlink:href="#DejaVuSerif-75" transform="translate(1786.035156 0.375)"/>
     <use xlink:href="#DejaVuSerif-61" transform="translate(1850.439453 0.375)"/>
     <use xlink:href="#DejaVuSerif-72" transform="translate(1910.058594 0.375)"/>
     <use xlink:href="#DejaVuSerif-65" transform="translate(1957.861328 0.375)"/>
     <use xlink:href="#DejaVuSerif-20" transform="translate(2017.041016 0.375)"/>
     <use xlink:href="#DejaVuSerif-74" transform="translate(2048.828125 0.375)"/>
     <use xlink:href="#DejaVuSerif-61" transform="translate(2089.013672 0.375)"/>
     <use xlink:href="#DejaVuSerif-72" transform="translate(2148.632812 0.375)"/>
     <use xlink:href="#DejaVuSerif-67" transform="translate(2196.435547 0.375)"/>
     <use xlink:href="#DejaVuSerif-65" transform="translate(2260.449219 0.375)"/>
     <use xlink:href="#DejaVuSerif-74" transform="translate(2319.628906 0.375)"/>
     <use xlink:href="#DejaVuSerif-2e" transform="translate(2359.814453 0.375)"/>
     <use xlink:href="#DejaVuSerif-20" transform="translate(2391.601562 0.375)"/>
     <use xlink:href="#DejaVuSerif-41" transform="translate(2423.388672 0.375)"/>
     <use xlink:href="#DejaVuSerif-73" transform="translate(2495.605469 0.375)"/>
     <use xlink:href="#DejaVuSerif-73" transform="translate(2546.923828 0.375)"/>
     <use xlink:href="#DejaVuSerif-75" transform="translate(2598.242188 0.375)"/>
     <use xlink:href="#DejaVuSerif-6d" transform="translate(2662.646484 0.375)"/>
     <use xlink:href="#DejaVuSerif-69" transform="translate(2757.470703 0.375)"/>
     <use xlink:href="#DejaVuSerif-6e" transform="translate(2789.453125 0.375)"/>
     <use xlink:href="#DejaVuSerif-67" transform="translate(2853.857422 0.375)"/>
     <use xlink:href="#DejaVuSerif-20" transform="translate(2917.871094 0.375)"/>
     <use xlink:href="#DejaVuSerif-74" transform="translate(2949.658203 0.375)"/>
     <use xlink:href="#DejaVuSerif-68" transform="translate(2989.84375 0.375)"/>
     <use xlink:href="#DejaVuSerif-61" transform="translate(3054.248047 0.375)"/>
     <use xlink:href="#DejaVuSerif-74" transform="translate(3113.867188 0.375)"/>
     <use xlink:href="#DejaVuSerif-20" transform="translate(3154.052734 0.375)"/>
     <use xlink:href="#DejaVuSerif-61" transform="translate(3185.839844 0.375)"/>
     <use xlink:href="#DejaVuSerif-6e" transform="translate(3245.458984 0.375)"/>
     <use xlink:href="#DejaVuSerif-79" transform="translate(3309.863281 0.375)"/>
     <use xlink:href="#DejaVuSerif-20" transform="translate(3366.357422 0.375)"/>
     <use xlink:href="#DejaVuSerif-74" transform="translate(3398.144531 0.375)"/>
     <use xlink:href="#DejaVuSerif-77" transform="translate(3438.330078 0.375)"/>
     <use xlink:href="#DejaVuSerif-6f" transform="translate(3523.925781 0.375)"/>
     <use xlink:href="#DejaVuSerif-20" transform="translate(3584.130859 0.375)"/>
     <use xlink:href="#DejaVuSerif-70" transform="translate(3615.917969 0.375)"/>
     <use xlink:href="#DejaVuSerif-61" transform="translate(3679.931641 0.375)"/>
     <use xlink:href="#DejaVuSerif-72" transform="translate(3739.550781 0.375)"/>
     <use xlink:href="#DejaVuSerif-74" transform="translate(3787.353516 0.375)"/>
     <use xlink:href="#DejaVuSerif-73" transform="translate(3827.539062 0.375)"/>
     <use xlink:href="#DejaVuSerif-20" transform="translate(3878.857422 0.375)"/>
     <use xlink:href="#DejaVuSerif-6f" transform="translate(3910.644531 0.375)"/>
     <use xlink:href="#DejaVuSerif-66" transform="translate(3970.849609 0.375)"/>
     <use xlink:href="#DejaVuSerif-20" transform="translate(4007.861328 0.375)"/>
     <use xlink:href="#DejaVuSerif-74" transform="translate(4039.648438 0.375)"/>
     <use xlink:href="#DejaVuSerif-68" transform="translate(4079.833984 0.375)"/>
     <use xlink:href="#DejaVuSerif-65" transform="translate(4144.238281 0.375)"/>
     <use xlink:href="#DejaVuSerif-20" transform="translate(4203.417969 0.375)"/>
     <use xlink:href="#DejaVuSerif-74" transform="translate(4235.205078 0.375)"/>
     <use xlink:href="#DejaVuSerif-61" transform="translate(4275.390625 0.375)"/>
     <use xlink:href="#DejaVuSerif-72" transform="translate(4335.009766 0.375)"/>
     <use xlink:href="#DejaVuSerif-67" transform="translate(4382.8125 0.375)"/>
     <use xlink:href="#DejaVuSerif-65" transform="translate(4446.826172 0.375)"/>
     <use xlink:href="#DejaVuSerif-74" transform="translate(4506.005859 0.375)"/>
     <use xlink:href="#DejaVuSerif-20" transform="translate(4546.191406 0.375)"/>
     <use xlink:href="#DejaVuSerif-6f" transform="translate(4577.978516 0.375)"/>
     <use xlink:href="#DejaVuSerif-66" transform="translate(4638.183594 0.375)"/>
     <use xlink:href="#DejaVuSerif-20" transform="translate(4675.195312 0.375)"/>
     <use xlink:href="#DejaVuSerif-65" transform="translate(4706.982422 0.375)"/>
     <use xlink:href="#DejaVuSerif-71" transform="translate(4766.162109 0.375)"/>
     <use xlink:href="#DejaVuSerif-75" transform="translate(4830.175781 0.375)"/>
     <use xlink:href="#DejaVuSerif-61" transform="translate(4894.580078 0.375)"/>
     <use xlink:href="#DejaVuSerif-6c" transform="translate(4954.199219 0.375)"/>
     <use xlink:href="#DejaVuSerif-20" transform="translate(4986.181641 0.375)"/>
     <use xlink:href="#DejaVuSerif-61" transform="translate(5017.96875 0.375)"/>
     <use xlink:href="#DejaVuSerif-72" transform="translate(5077.587891 0.375)"/>
     <use xlink:href="#DejaVuSerif-65" transform="translate(5125.390625 0.375)"/>
     <use xlink:href="#DejaVuSerif-61" transform="translate(5184.570312 0.375)"/>
     <use xlink:href="#DejaVuSerif-20" transform="translate(5244.189453 0.375)"/>
     <use xlink:href="#DejaVuSerif-61" transform="translate(5275.976562 0.375)"/>
     <use xlink:href="#DejaVuSerif-72" transform="translate(5335.595703 0.375)"/>
     <use xlink:href="#DejaVuSerif-65" transform="translate(5383.398438 0.375)"/>
     <use xlink:href="#DejaVuSerif-20" transform="translate(5442.578125 0.375)"/>
     <use xlink:href="#DejaVuSerif-65" transform="translate(5474.365234 0.375)"/>
     <use xlink:href="#DejaVuSerif-71" transform="translate(5533.544922 0.375)"/>
     <use xlink:href="#DejaVuSerif-75" transform="translate(5597.558594 0.375)"/>
     <use xlink:href="#DejaVuSerif-61" transform="translate(5661.962891 0.375)"/>
     <use xlink:href="#DejaVuSerif-6c" transform="translate(5721.582031 0.375)"/>
     <use xlink:href="#DejaVuSerif-6c" transform="translate(5753.564453 0.375)"/>
     <use xlink:href="#DejaVuSerif-79" transform="translate(5785.546875 0.375)"/>
     <use xlink:href="#DejaVuSerif-20" transform="translate(5842.041016 0.375)"/>
     <use xlink:href="#DejaVuSerif-6c" transform="translate(5873.828125 0.375)"/>
     <use xlink:href="#DejaVuSerif-69" transform="translate(5905.810547 0.375)"/>
     <use xlink:href="#DejaVuSerif-6b" transform="translate(5937.792969 0.375)"/>
     <use xlink:href="#DejaVuSerif-65" transform="translate(5998.388672 0.375)"/>
     <use xlink:href="#DejaVuSerif-6c" transform="translate(6057.568359 0.375)"/>
     <use xlink:href="#DejaVuSerif-79" transform="translate(6089.550781 0.375)"/>
     <use xlink:href="#DejaVuSerif-20" transform="translate(6146.044922 0.375)"/>
     <use xlink:href="#DejaVuSerif-74" transform="translate(6177.832031 0.375)"/>
     <use xlink:href="#DejaVuSerif-6f" transform="translate(6218.017578 0.375)"/>
     <use xlink:href="#DejaVuSerif-20" transform="translate(6278.222656 0.375)"/>
     <use xlink:href="#DejaVuSerif-62" transform="translate(6310.009766 0.375)"/>
     <use xlink:href="#DejaVuSerif-65" transform="translate(6374.023438 0.375)"/>
     <use xlink:href="#DejaVuSerif-20" transform="translate(6433.203125 0.375)"/>
     <use xlink:href="#DejaVuSerif-68" transform="translate(6464.990234 0.375)"/>
     <use xlink:href="#DejaVuSerif-69" transform="translate(6529.394531 0.375)"/>
     <use xlink:href="#DejaVuSerif-74" transform="translate(6561.376953 0.375)"/>
     <use xlink:href="#DejaVuSerif-2c" transform="translate(6601.5625 0.375)"/>
     <use xlink:href="#DejaVuSerif-20" transform="translate(6633.349609 0.375)"/>
     <use xlink:href="#DejaVuSerif-66" transform="translate(6665.136719 0.375)"/>
     <use xlink:href="#DejaVuSerif-69" transform="translate(6702.148438 0.375)"/>
     <use xlink:href="#DejaVuSerif-6e" transform="translate(6734.130859 0.375)"/>
     <use xlink:href="#DejaVuSerif-64" transform="translate(6798.535156 0.375)"/>
     <use xlink:href="#DejaVuSerif-20" transform="translate(6862.548828 0.375)"/>
     <use xlink:href="#DejaVuSerif-74" transform="translate(6894.335938 0.375)"/>
     <use xlink:href="#DejaVuSerif-68" transform="translate(6934.521484 0.375)"/>
     <use xlink:href="#DejaVuSerif-65" transform="translate(6998.925781 0.375)"/>
     <use xlink:href="#DejaVuSerif-20" transform="translate(7058.105469 0.375)"/>
     <use xlink:href="#DejaVuSerif-70" transform="translate(7089.892578 0.375)"/>
     <use xlink:href="#DejaVuSerif-72" transform="translate(7153.90625 0.375)"/>
     <use xlink:href="#DejaVuSerif-6f" transform="translate(7201.708984 0.375)"/>
     <use xlink:href="#DejaVuSerif-62" transform="translate(7261.914062 0.375)"/>
     <use xlink:href="#DejaVuSerif-61" transform="translate(7325.927734 0.375)"/>
     <use xlink:href="#DejaVuSerif-62" transform="translate(7385.546875 0.375)"/>
     <use xlink:href="#DejaVuSerif-69" transform="translate(7449.560547 0.375)"/>
     <use xlink:href="#DejaVuSerif-6c" transform="translate(7481.542969 0.375)"/>
     <use xlink:href="#DejaVuSerif-69" transform="translate(7513.525391 0.375)"/>
     <use xlink:href="#DejaVuSerif-74" transform="translate(7545.507812 0.375)"/>
     <use xlink:href="#DejaVuSerif-79" transform="translate(7585.693359 0.375)"/>
     <use xlink:href="#DejaVuSerif-20" transform="translate(7642.1875 0.375)"/>
     <use xlink:href="#DejaVuSerif-74" transform="translate(7673.974609 0.375)"/>
     <use xlink:href="#DejaVuSerif-68" transform="translate(7714.160156 0.375)"/>
     <use xlink:href="#DejaVuSerif-61" transform="translate(7778.564453 0.375)"/>
     <use xlink:href="#DejaVuSerif-74" transform="translate(7838.183594 0.375)"/>
     <use xlink:href="#DejaVuSerif-20" transform="translate(7878.369141 0.375)"/>
     <use xlink:href="#DejaVuSerif-74" transform="translate(7910.15625 0.375)"/>
     <use xlink:href="#DejaVuSerif-68" transform="translate(7950.341797 0.375)"/>
     <use xlink:href="#DejaVuSerif-65" transform="translate(8014.746094 0.375)"/>
     <use xlink:href="#DejaVuSerif-20" transform="translate(8073.925781 0.375)"/>
     <use xlink:href="#DejaVuSerif-70" transform="translate(8105.712891 0.375)"/>
     <use xlink:href="#DejaVuSerif-6f" transform="translate(8169.726562 0.375)"/>
     <use xlink:href="#DejaVuSerif-69" transform="translate(8229.931641 0.375)"/>
     <use xlink:href="#DejaVuSerif-6e" transform="translate(8261.914062 0.375)"/>
     <use xlink:href="#DejaVuSerif-74" transform="translate(8326.318359 0.375)"/>
     <use xlink:href="#DejaVuSerif-20" transform="translate(8366.503906 0.375)"/>
     <use xlink:href="#DejaVuSerif-68" transform="translate(8398.291016 0.375)"/>
     <use xlink:href="#DejaVuSerif-69" transform="translate(8462.695312 0.375)"/>
     <use xlink:href="#DejaVuSerif-74" transform="translate(8494.677734 0.375)"/>
     <use xlink:href="#DejaVuSerif-20" transform="translate(8534.863281 0.375)"/>
     <use xlink:href="#DejaVuSerif-69" transform="translate(8566.650391 0.375)"/>
     <use xlink:href="#DejaVuSerif-73" transform="translate(8598.632812 0.375)"/>
     <use xlink:href="#DejaVuSerif-20" transform="translate(8649.951172 0.375)"/>
     <use xlink:href="#DejaVuSerif-6e" transform="translate(8681.738281 0.375)"/>
     <use xlink:href="#DejaVuSerif-65" transform="translate(8746.142578 0.375)"/>
     <use xlink:href="#DejaVuSerif-61" transform="translate(8805.322266 0.375)"/>
     <use xlink:href="#DejaVuSerif-72" transform="translate(8864.941406 0.375)"/>
     <use xlink:href="#DejaVuSerif-65" transform="translate(8912.744141 0.375)"/>
     <use xlink:href="#DejaVuSerif-72" transform="translate(8971.923828 0.375)"/>
     <use xlink:href="#DejaVuSerif-20" transform="translate(9019.726562 0.375)"/>
     <use xlink:href="#DejaVuSerif-74" transform="translate(9051.513672 0.375)"/>
     <use xlink:href="#DejaVuSerif-6f" transform="translate(9091.699219 0.375)"/>
     <use xlink:href="#DejaVuSerif-20" transform="translate(9151.904297 0.375)"/>
     <use xlink:href="#DejaVuSerif-74" transform="translate(9183.691406 0.375)"/>
     <use xlink:href="#DejaVuSerif-68" transform="translate(9223.876953 0.375)"/>
     <use xlink:href="#DejaVuSerif-65" transform="translate(9288.28125 0.375)"/>
     <use xlink:href="#DejaVuSerif-20" transform="translate(9347.460938 0.375)"/>
     <use xlink:href="#DejaVuSerif-63" transform="translate(9379.248047 0.375)"/>
     <use xlink:href="#DejaVuSerif-65" transform="translate(9435.253906 0.375)"/>
     <use xlink:href="#DejaVuSerif-6e" transform="translate(9494.433594 0.375)"/>
     <use xlink:href="#DejaVuSerif-74" transform="translate(9558.837891 0.375)"/>
     <use xlink:href="#DejaVuSerif-65" transform="translate(9599.023438 0.375)"/>
     <use xlink:href="#DejaVuSerif-72" transform="translate(9658.203125 0.375)"/>
     <use xlink:href="#DejaVuSerif-20" transform="translate(9706.005859 0.375)"/>
     <use xlink:href="#DejaVuSerif-74" transform="translate(9737.792969 0.375)"/>
     <use xlink:href="#DejaVuSerif-68" transform="translate(9777.978516 0.375)"/>
     <use xlink:href="#DejaVuSerif-61" transform="translate(9842.382812 0.375)"/>
     <use xlink:href="#DejaVuSerif-6e" transform="translate(9902.001953 0.375)"/>
     <use xlink:href="#DejaVuSerif-20" transform="translate(9966.40625 0.375)"/>
     <use xlink:href="#DejaVuSerif-74" transform="translate(9998.193359 0.375)"/>
     <use xlink:href="#DejaVuSerif-6f" transform="translate(10038.378906 0.375)"/>
     <use xlink:href="#DejaVuSerif-20" transform="translate(10098.583984 0.375)"/>
     <use xlink:href="#DejaVuSerif-61" transform="translate(10130.371094 0.375)"/>
     <use xlink:href="#DejaVuSerif-6e" transform="translate(10189.990234 0.375)"/>
     <use xlink:href="#DejaVuSerif-79" transform="translate(10254.394531 0.375)"/>
     <use xlink:href="#DejaVuSerif-20" transform="translate(10310.888672 0.375)"/>
     <use xlink:href="#DejaVuSerif-65" transform="translate(10342.675781 0.375)"/>
     <use xlink:href="#DejaVuSerif-64" transform="translate(10401.855469 0.375)"/>
     <use xlink:href="#DejaVuSerif-67" transform="translate(10465.869141 0.375)"/>
     <use xlink:href="#DejaVuSerif-65" transform="translate(10529.882812 0.375)"/>
     <use xlink:href="#DejaVuSerif-2e" transform="translate(10589.0625 0.375)"/>
     <use xlink:href="#DejaVuSerif-20" transform="translate(10620.849609 0.375)"/>
     <use xlink:href="#DejaVuSerif-45" transform="translate(10652.636719 0.375)"/>
     <use xlink:href="#DejaVuSerif-78" transform="translate(10725.634766 0.375)"/>
     <use xlink:href="#DejaVuSerif-70" transform="translate(10782.03125 0.375)"/>
     <use xlink:href="#DejaVuSerif-72" transform="translate(10846.044922 0.375)"/>
     <use xlink:href="#DejaVuSerif-65" transform="translate(10893.847656 0.375)"/>
     <use xlink:href="#DejaVuSerif-73" transform="translate(10953.027344 0.375)"/>
     <use xlink:href="#DejaVuSerif-73" transform="translate(11004.345703 0.375)"/>
     <use xlink:href="#DejaVuSerif-20" transform="translate(11055.664062 0.375)"/>
     <use xlink:href="#DejaVuSerif-79" transform="translate(11087.451172 0.375)"/>
     <use xlink:href="#DejaVuSerif-6f" transform="translate(11143.945312 0.375)"/>
     <use xlink:href="#DejaVuSerif-75" transform="translate(11204.150391 0.375)"/>
     <use xlink:href="#DejaVuSerif-72" transform="translate(11268.554688 0.375)"/>
     <use xlink:href="#DejaVuSerif-20" transform="translate(11316.357422 0.375)"/>
     <use xlink:href="#DejaVuSerif-61" transform="translate(11348.144531 0.375)"/>
     <use xlink:href="#DejaVuSerif-6e" transform="translate(11407.763672 0.375)"/>
     <use xlink:href="#DejaVuSerif-73" transform="translate(11472.167969 0.375)"/>
     <use xlink:href="#DejaVuSerif-77" transform="translate(11523.486328 0.375)"/>
     <use xlink:href="#DejaVuSerif-65" transform="translate(11609.082031 0.375)"/>
     <use xlink:href="#DejaVuSerif-72" transform="translate(11668.261719 0.375)"/>
     <use xlink:href="#DejaVuSerif-20" transform="translate(11716.064453 0.375)"/>
     <use xlink:href="#DejaVuSerif-69" transform="translate(11747.851562 0.375)"/>
     <use xlink:href="#DejaVuSerif-6e" transform="translate(11779.833984 0.375)"/>
     <use xlink:href="#DejaVuSerif-20" transform="translate(11844.238281 0.375)"/>
     <use xlink:href="#DejaVuSerif-74" transform="translate(11876.025391 0.375)"/>
     <use xlink:href="#DejaVuSerif-68" transform="translate(11916.210938 0.375)"/>
     <use xlink:href="#DejaVuSerif-65" transform="translate(11980.615234 0.375)"/>
     <use xlink:href="#DejaVuSerif-20" transform="translate(12039.794922 0.375)"/>
     <use xlink:href="#DejaVuSerif-66" transform="translate(12071.582031 0.375)"/>
     <use xlink:href="#DejaVuSerif-6f" transform="translate(12108.59375 0.375)"/>
     <use xlink:href="#DejaVuSerif-72" transform="translate(12168.798828 0.375)"/>
     <use xlink:href="#DejaVuSerif-6d" transform="translate(12216.601562 0.375)"/>
     <use xlink:href="#DejaVuSerif-20" transform="translate(12311.425781 0.375)"/>
     <use xlink:href="#Cmr10-28" transform="translate(12343.212891 0.375)"/>
     <use xlink:href="#Cmmi10-61" transform="translate(12382.03125 0.375)"/>
     <use xlink:href="#Cmex10-70" transform="translate(12434.814453 97.609375) scale(0.847936)"/>
     <use xlink:href="#Cmmi10-62" transform="translate(12532.095703 0.359375)"/>
     <use xlink:href="#Cmr10-2b" transform="translate(12605.074219 0.375)"/>
     <use xlink:href="#Cmmi10-63" transform="translate(12700.318359 0.375)"/>
     <use xlink:href="#Cmr10-29" transform="translate(12743.53125 0.375)"/>
     <use xlink:href="#Cmmi10-3d" transform="translate(12782.349609 0.375)"/>
     <use xlink:href="#Cmmi10-64" transform="translate(12832.349609 0.375)"/>
     <use xlink:href="#DejaVuSerif-2c" transform="translate(12884.351562 0.375)"/>
     <use xlink:href="#DejaVuSerif-20" transform="translate(12916.138672 0.375)"/>
     <use xlink:href="#DejaVuSerif-77" transform="translate(12947.925781 0.375)"/>
     <use xlink:href="#DejaVuSerif-68" transform="translate(13033.521484 0.375)"/>
     <use xlink:href="#DejaVuSerif-65" transform="translate(13097.925781 0.375)"/>
     <use xlink:href="#DejaVuSerif-72" transform="translate(13157.105469 0.375)"/>
     <use xlink:href="#DejaVuSerif-65" transform="translate(13204.908203 0.375)"/>
     <use xlink:href="#DejaVuSerif-20" transform="translate(13264.087891 0.375)"/>
     <use xlink:href="#Cmmi10-61" transform="translate(13295.875 0.375)"/>
     <use xlink:href="#DejaVuSerif-2c" transform="translate(13348.658203 0.375)"/>
     <use xlink:href="#DejaVuSerif-20" transform="translate(13380.445312 0.375)"/>
     <use xlink:href="#Cmmi10-62" transform="translate(13412.232422 0.375)"/>
     <use xlink:href="#DejaVuSerif-2c" transform="translate(13455.152344 0.375)"/>
     <use xlink:href="#DejaVuSerif-20" transform="translate(13486.939453 0.375)"/>
     <use xlink:href="#Cmmi10-63" transform="translate(13518.726562 0.375)"/>
     <use xlink:href="#DejaVuSerif-2c" transform="translate(13561.939453 0.375)"/>
     <use xlink:href="#DejaVuSerif-20" transform="translate(13593.726562 0.375)"/>
     <use xlink:href="#Cmmi10-64" transform="translate(13625.513672 0.375)"/>
     <use xlink:href="#DejaVuSerif-20" transform="translate(13677.515625 0.375)"/>
     <use xlink:href="#DejaVuSerif-61" transform="translate(13709.302734 0.375)"/>
     <use xlink:href="#DejaVuSerif-72" transform="translate(13768.921875 0.375)"/>
     <use xlink:href="#DejaVuSerif-65" transform="translate(13816.724609 0.375)"/>
     <use xlink:href="#DejaVuSerif-20" transform="translate(13875.904297 0.375)"/>
     <use xlink:href="#DejaVuSerif-69" transform="translate(13907.691406 0.375)"/>
     <use xlink:href="#DejaVuSerif-6e" transform="translate(13939.673828 0.375)"/>
     <use xlink:href="#DejaVuSerif-74" transform="translate(14004.078125 0.375)"/>
     <use xlink:href="#DejaVuSerif-65" transform="translate(14044.263672 0.375)"/>
     <use xlink:href="#DejaVuSerif-67" transform="translate(14103.443359 0.375)"/>
     <use xlink:href="#DejaVuSerif-65" transform="translate(14167.457031 0.375)"/>
     <use xlink:href="#DejaVuSerif-72" transform="translate(14226.636719 0.375)"/>
     <use xlink:href="#DejaVuSerif-73" transform="translate(14274.439453 0.375)"/>
     <use xlink:href="#DejaVuSerif-20" transform="translate(14325.757812 0.375)"/>
     <use xlink:href="#DejaVuSerif-61" transform="translate(14357.544922 0.375)"/>
     <use xlink:href="#DejaVuSerif-6e" transform="translate(14417.164062 0.375)"/>
     <use xlink:href="#DejaVuSerif-64" transform="translate(14481.568359 0.375)"/>
     <use xlink:href="#DejaVuSerif-20" transform="translate(14545.582031 0.375)"/>
     <use xlink:href="#Cmmi10-62" transform="translate(14577.369141 0.375)"/>
     <use xlink:href="#DejaVuSerif-2c" transform="translate(14620.289062 0.375)"/>
     <use xlink:href="#DejaVuSerif-20" transform="translate(14652.076172 0.375)"/>
     <use xlink:href="#Cmmi10-64" transform="translate(14683.863281 0.375)"/>
     <use xlink:href="#DejaVuSerif-20" transform="translate(14735.865234 0.375)"/>
     <use xlink:href="#DejaVuSerif-61" transform="translate(14767.652344 0.375)"/>
     <use xlink:href="#DejaVuSerif-72" transform="translate(14827.271484 0.375)"/>
     <use xlink:href="#DejaVuSerif-65" transform="translate(14875.074219 0.375)"/>
     <use xlink:href="#DejaVuSerif-20" transform="translate(14934.253906 0.375)"/>
     <use xlink:href="#DejaVuSerif-70" transform="translate(14966.041016 0.375)"/>
     <use xlink:href="#DejaVuSerif-6f" transform="translate(15030.054688 0.375)"/>
     <use xlink:href="#DejaVuSerif-73" transform="translate(15090.259766 0.375)"/>
     <use xlink:href="#DejaVuSerif-69" transform="translate(15141.578125 0.375)"/>
     <use xlink:href="#DejaVuSerif-74" transform="translate(15173.560547 0.375)"/>
     <use xlink:href="#DejaVuSerif-69" transform="translate(15213.746094 0.375)"/>
     <use xlink:href="#DejaVuSerif-76" transform="translate(15245.728516 0.375)"/>
     <use xlink:href="#DejaVuSerif-65" transform="translate(15302.222656 0.375)"/>
     <use xlink:href="#DejaVuSerif-2e" transform="translate(15361.402344 0.375)"/>
     <path d="M 12519.595703 94.5 
L 12519.595703 100.75 
L 12587.515625 100.75 
L 12587.515625 94.5 
L 12519.595703 94.5 
z
"/>
    </g>
   </g>
  </g>
 </g>
</svg>
