<?xml version="1.0" encoding="utf-8" standalone="no"?>
<!DOCTYPE svg PUBLIC "-//W3C//DTD SVG 1.1//EN"
  "http://www.w3.org/Graphics/SVG/1.1/DTD/svg11.dtd">
<svg xmlns:xlink="http://www.w3.org/1999/xlink" width="2529.72pt" height="180.72pt" viewBox="0 0 2529.72 180.72" xmlns="http://www.w3.org/2000/svg" version="1.1">
 <metadata>
  <rdf:RDF xmlns:dc="http://purl.org/dc/elements/1.1/" xmlns:cc="http://creativecommons.org/ns#" xmlns:rdf="http://www.w3.org/1999/02/22-rdf-syntax-ns#">
   <cc:Work>
    <dc:type rdf:resource="http://purl.org/dc/dcmitype/StillImage"/>
    <dc:date>2025-05-23T13:58:52.185396</dc:date>
    <dc:format>image/svg+xml</dc:format>
    <dc:creator>
     <cc:Agent>
      <dc:title>Matplotlib v3.10.3, https://matplotlib.org/</dc:title>
     </cc:Agent>
    </dc:creator>
   </cc:Work>
  </rdf:RDF>
 </metadata>
 <defs>
  <style type="text/css">*{stroke-linejoin: round; stroke-linecap: butt}</style>
 </defs>
 <g id="figure_1">
  <g id="patch_1">
   <path d="M -0 180.72 
L 2529.72 180.72 
L 2529.72 0 
L -0 0 
z
" style="fill: #ffffff"/>
  </g>
  <g id="axes_1">
   <g id="text_1">
    <!-- Given real numbers $\{a_i\}$ and $\{b_i\}$, ($i=1,2,3,4$), such that $a_1b_2-a_2b_1 \neq 0$. Consider the set of all solutions $(x_1,x_2,x_3,x_4)$ of the simultaneous equations $a_1x_1+a_2x_2+a_3x_3+a_4x_4=0$ and $b_1x_1+b_2x_2+b_3x_3+b_4x_4=0$, for which no $x_i$ ($i=1,2,3,4$) is zero. Each such solution generates a $4$-tuple of plus and minus signs $(\mathrm{signum }x_1,\mathrm{signum }x_2,\mathrm{signum }x_3,\mathrm{signum }x_4)$. Determine, with a proof, the maximum number of distinct $4$-tuples possible. -->
    <g transform="translate(7.2 94.74) scale(0.12 -0.12)">
     <defs>
      <path id="DejaVuSerif-47" d="M 4097 3272 
Q 3988 3856 3641 4136 
Q 3294 4416 2675 4416 
Q 1869 4416 1472 3897 
Q 1075 3378 1075 2328 
Q 1075 1300 1484 772 
Q 1894 244 2688 244 
Q 3041 244 3362 331 
Q 3684 419 3975 594 
L 3975 1797 
L 3097 1797 
L 3097 2131 
L 4609 2131 
L 4609 391 
Q 4194 150 3714 29 
Q 3234 -91 2688 -91 
Q 1631 -91 995 570 
Q 359 1231 359 2328 
Q 359 3434 996 4092 
Q 1634 4750 2713 4750 
Q 3113 4750 3539 4658 
Q 3966 4566 4447 4378 
L 4447 3272 
L 4097 3272 
z
" transform="scale(0.015625)"/>
      <path id="DejaVuSerif-69" d="M 622 4353 
Q 622 4497 726 4603 
Q 831 4709 978 4709 
Q 1122 4709 1226 4603 
Q 1331 4497 1331 4353 
Q 1331 4206 1228 4103 
Q 1125 4000 978 4000 
Q 831 4000 726 4103 
Q 622 4206 622 4353 
z
M 1356 331 
L 1900 331 
L 1900 0 
L 231 0 
L 231 331 
L 781 331 
L 781 2988 
L 231 2988 
L 231 3322 
L 1356 3322 
L 1356 331 
z
" transform="scale(0.015625)"/>
      <path id="DejaVuSerif-76" d="M 1581 0 
L 359 2988 
L -19 2988 
L -19 3322 
L 1509 3322 
L 1509 2988 
L 978 2988 
L 1913 703 
L 2847 2988 
L 2350 2988 
L 2350 3322 
L 3597 3322 
L 3597 2988 
L 3225 2988 
L 2003 0 
L 1581 0 
z
" transform="scale(0.015625)"/>
      <path id="DejaVuSerif-65" d="M 3469 1600 
L 991 1600 
L 991 1575 
Q 991 903 1244 561 
Q 1497 219 1991 219 
Q 2369 219 2611 417 
Q 2853 616 2950 1006 
L 3413 1006 
Q 3275 459 2904 184 
Q 2534 -91 1931 -91 
Q 1203 -91 761 389 
Q 319 869 319 1663 
Q 319 2450 753 2931 
Q 1188 3413 1894 3413 
Q 2647 3413 3050 2948 
Q 3453 2484 3469 1600 
z
M 2791 1931 
Q 2772 2513 2545 2808 
Q 2319 3103 1894 3103 
Q 1497 3103 1269 2806 
Q 1041 2509 991 1931 
L 2791 1931 
z
" transform="scale(0.015625)"/>
      <path id="DejaVuSerif-6e" d="M 263 0 
L 263 331 
L 781 331 
L 781 2988 
L 231 2988 
L 231 3322 
L 1356 3322 
L 1356 2731 
Q 1516 3069 1770 3241 
Q 2025 3413 2363 3413 
Q 2913 3413 3172 3097 
Q 3431 2781 3431 2113 
L 3431 331 
L 3944 331 
L 3944 0 
L 2356 0 
L 2356 331 
L 2853 331 
L 2853 1931 
Q 2853 2541 2703 2767 
Q 2553 2994 2175 2994 
Q 1775 2994 1565 2701 
Q 1356 2409 1356 1850 
L 1356 331 
L 1856 331 
L 1856 0 
L 263 0 
z
" transform="scale(0.015625)"/>
      <path id="DejaVuSerif-20" transform="scale(0.015625)"/>
      <path id="DejaVuSerif-72" d="M 3059 3328 
L 3059 2497 
L 2728 2497 
Q 2713 2744 2591 2866 
Q 2469 2988 2234 2988 
Q 1809 2988 1582 2694 
Q 1356 2400 1356 1850 
L 1356 331 
L 2022 331 
L 2022 0 
L 263 0 
L 263 331 
L 781 331 
L 781 2994 
L 231 2994 
L 231 3322 
L 1356 3322 
L 1356 2731 
Q 1525 3078 1790 3245 
Q 2056 3413 2438 3413 
Q 2578 3413 2733 3391 
Q 2888 3369 3059 3328 
z
" transform="scale(0.015625)"/>
      <path id="DejaVuSerif-61" d="M 2547 1044 
L 2547 1747 
L 1806 1747 
Q 1378 1747 1168 1562 
Q 959 1378 959 997 
Q 959 650 1171 447 
Q 1384 244 1747 244 
Q 2106 244 2326 466 
Q 2547 688 2547 1044 
z
M 3122 2075 
L 3122 331 
L 3634 331 
L 3634 0 
L 2547 0 
L 2547 359 
Q 2356 128 2106 18 
Q 1856 -91 1522 -91 
Q 969 -91 644 203 
Q 319 497 319 997 
Q 319 1513 691 1797 
Q 1063 2081 1741 2081 
L 2547 2081 
L 2547 2309 
Q 2547 2688 2317 2895 
Q 2088 3103 1672 3103 
Q 1328 3103 1125 2947 
Q 922 2791 872 2484 
L 575 2484 
L 575 3156 
Q 875 3284 1158 3348 
Q 1441 3413 1709 3413 
Q 2400 3413 2761 3070 
Q 3122 2728 3122 2075 
z
" transform="scale(0.015625)"/>
      <path id="DejaVuSerif-6c" d="M 1313 331 
L 1856 331 
L 1856 0 
L 184 0 
L 184 331 
L 738 331 
L 738 4531 
L 184 4531 
L 184 4863 
L 1313 4863 
L 1313 331 
z
" transform="scale(0.015625)"/>
      <path id="DejaVuSerif-75" d="M 2266 3322 
L 3341 3322 
L 3341 331 
L 3884 331 
L 3884 0 
L 2766 0 
L 2766 588 
Q 2606 256 2353 82 
Q 2100 -91 1766 -91 
Q 1213 -91 952 223 
Q 691 538 691 1209 
L 691 2988 
L 172 2988 
L 172 3322 
L 1269 3322 
L 1269 1388 
Q 1269 781 1417 556 
Q 1566 331 1947 331 
Q 2347 331 2556 625 
Q 2766 919 2766 1478 
L 2766 2988 
L 2266 2988 
L 2266 3322 
z
" transform="scale(0.015625)"/>
      <path id="DejaVuSerif-6d" d="M 3316 2675 
Q 3481 3041 3739 3227 
Q 3997 3413 4341 3413 
Q 4863 3413 5119 3089 
Q 5375 2766 5375 2113 
L 5375 331 
L 5894 331 
L 5894 0 
L 4300 0 
L 4300 331 
L 4800 331 
L 4800 2047 
Q 4800 2556 4650 2772 
Q 4500 2988 4153 2988 
Q 3769 2988 3567 2697 
Q 3366 2406 3366 1850 
L 3366 331 
L 3866 331 
L 3866 0 
L 2291 0 
L 2291 331 
L 2791 331 
L 2791 2069 
Q 2791 2566 2641 2777 
Q 2491 2988 2144 2988 
Q 1759 2988 1557 2697 
Q 1356 2406 1356 1850 
L 1356 331 
L 1856 331 
L 1856 0 
L 263 0 
L 263 331 
L 781 331 
L 781 2994 
L 231 2994 
L 231 3322 
L 1356 3322 
L 1356 2731 
Q 1516 3063 1762 3238 
Q 2009 3413 2322 3413 
Q 2709 3413 2968 3220 
Q 3228 3028 3316 2675 
z
" transform="scale(0.015625)"/>
      <path id="DejaVuSerif-62" d="M 738 331 
L 738 4531 
L 184 4531 
L 184 4863 
L 1313 4863 
L 1313 2803 
Q 1481 3116 1742 3264 
Q 2003 3413 2388 3413 
Q 3000 3413 3387 2928 
Q 3775 2444 3775 1663 
Q 3775 881 3387 395 
Q 3000 -91 2388 -91 
Q 2003 -91 1742 57 
Q 1481 206 1313 519 
L 1313 0 
L 184 0 
L 184 331 
L 738 331 
z
M 1313 1497 
Q 1313 897 1542 583 
Q 1772 269 2209 269 
Q 2650 269 2876 622 
Q 3103 975 3103 1663 
Q 3103 2353 2876 2703 
Q 2650 3053 2209 3053 
Q 1772 3053 1542 2737 
Q 1313 2422 1313 1825 
L 1313 1497 
z
" transform="scale(0.015625)"/>
      <path id="DejaVuSerif-73" d="M 359 184 
L 359 959 
L 691 959 
Q 703 588 923 403 
Q 1144 219 1575 219 
Q 1963 219 2166 364 
Q 2369 509 2369 788 
Q 2369 1006 2220 1140 
Q 2072 1275 1594 1428 
L 1178 1569 
Q 750 1706 558 1912 
Q 366 2119 366 2438 
Q 366 2894 700 3153 
Q 1034 3413 1625 3413 
Q 1888 3413 2178 3344 
Q 2469 3275 2778 3144 
L 2778 2419 
L 2447 2419 
Q 2434 2741 2221 2922 
Q 2009 3103 1644 3103 
Q 1281 3103 1095 2975 
Q 909 2847 909 2591 
Q 909 2381 1050 2254 
Q 1191 2128 1613 1997 
L 2069 1856 
Q 2541 1709 2748 1489 
Q 2956 1269 2956 922 
Q 2956 450 2595 179 
Q 2234 -91 1600 -91 
Q 1278 -91 972 -22 
Q 666 47 359 184 
z
" transform="scale(0.015625)"/>
      <path id="Cmex10-a9" d="M 1631 -6425 
L 1631 -4556 
Q 1631 -4338 1503 -4159 
Q 1375 -3981 1184 -3867 
Q 994 -3753 756 -3675 
Q 709 -3650 709 -3622 
L 709 -3547 
Q 709 -3503 756 -3494 
Q 1128 -3366 1379 -3150 
Q 1631 -2934 1631 -2606 
L 1631 -738 
Q 1631 -325 2004 -95 
Q 2378 134 2888 256 
L 2963 256 
Q 2981 256 2998 242 
Q 3016 228 3016 206 
L 3016 128 
Q 3016 91 2975 78 
Q 2619 -31 2359 -232 
Q 2100 -434 2100 -750 
L 2100 -2619 
Q 2100 -2994 1804 -3214 
Q 1509 -3434 1056 -3584 
Q 1497 -3716 1798 -3939 
Q 2100 -4163 2100 -4544 
L 2100 -6413 
Q 2100 -6628 2231 -6790 
Q 2363 -6953 2556 -7059 
Q 2750 -7166 2975 -7238 
Q 3016 -7250 3016 -7291 
L 3016 -7366 
Q 3016 -7384 2998 -7401 
Q 2981 -7419 2963 -7419 
L 2888 -7419 
Q 2559 -7338 2292 -7227 
Q 2025 -7116 1828 -6914 
Q 1631 -6713 1631 -6425 
z
" transform="scale(0.015625)"/>
      <path id="Cmmi10-61" d="M 1113 -72 
Q 709 -72 476 233 
Q 244 538 244 953 
Q 244 1363 456 1803 
Q 669 2244 1030 2536 
Q 1391 2828 1806 2828 
Q 1997 2828 2147 2725 
Q 2297 2622 2381 2444 
Q 2453 2700 2663 2700 
Q 2744 2700 2798 2651 
Q 2853 2603 2853 2522 
Q 2853 2503 2851 2493 
Q 2850 2484 2847 2472 
L 2400 684 
Q 2356 494 2356 372 
Q 2356 97 2541 97 
Q 2741 97 2845 351 
Q 2950 606 3022 941 
Q 3034 978 3072 978 
L 3150 978 
Q 3175 978 3190 956 
Q 3206 934 3206 916 
Q 3094 469 2961 198 
Q 2828 -72 2528 -72 
Q 2313 -72 2147 54 
Q 1981 181 1941 391 
Q 1528 -72 1113 -72 
z
M 1119 97 
Q 1350 97 1567 270 
Q 1784 444 1941 678 
Q 1947 684 1947 697 
L 2291 2088 
L 2297 2106 
Q 2259 2334 2132 2498 
Q 2006 2663 1791 2663 
Q 1575 2663 1389 2486 
Q 1203 2309 1075 2069 
Q 950 1813 836 1366 
Q 722 919 722 672 
Q 722 450 817 273 
Q 913 97 1119 97 
z
" transform="scale(0.015625)"/>
      <path id="Cmmi10-69" d="M 500 459 
Q 500 578 550 709 
L 1069 2088 
Q 1153 2322 1153 2472 
Q 1153 2663 1013 2663 
Q 759 2663 595 2402 
Q 431 2141 353 1819 
Q 341 1778 300 1778 
L 225 1778 
Q 172 1778 172 1838 
L 172 1856 
Q 275 2238 487 2533 
Q 700 2828 1025 2828 
Q 1253 2828 1411 2678 
Q 1569 2528 1569 2297 
Q 1569 2178 1516 2047 
L 997 672 
Q 909 459 909 288 
Q 909 97 1056 97 
Q 1306 97 1473 364 
Q 1641 631 1709 941 
Q 1722 978 1759 978 
L 1838 978 
Q 1863 978 1878 961 
Q 1894 944 1894 922 
Q 1894 916 1888 903 
Q 1800 541 1583 234 
Q 1366 -72 1044 -72 
Q 819 -72 659 83 
Q 500 238 500 459 
z
M 1222 3878 
Q 1222 4013 1334 4122 
Q 1447 4231 1581 4231 
Q 1691 4231 1761 4164 
Q 1831 4097 1831 3994 
Q 1831 3850 1717 3742 
Q 1603 3634 1466 3634 
Q 1363 3634 1292 3704 
Q 1222 3775 1222 3878 
z
" transform="scale(0.015625)"/>
      <path id="Cmex10-aa" d="M 709 -7366 
L 709 -7291 
Q 709 -7247 756 -7238 
Q 1631 -6953 1631 -6413 
L 1631 -4544 
Q 1631 -3909 2669 -3584 
Q 2219 -3431 1925 -3209 
Q 1631 -2988 1631 -2619 
L 1631 -750 
Q 1631 -206 756 78 
Q 709 88 709 128 
L 709 206 
Q 709 256 769 256 
L 844 256 
Q 1359 131 1729 -97 
Q 2100 -325 2100 -738 
L 2100 -2606 
Q 2100 -2925 2354 -3142 
Q 2609 -3359 2975 -3494 
Q 3016 -3506 3016 -3547 
L 3016 -3622 
Q 3016 -3641 2975 -3675 
Q 2769 -3744 2566 -3864 
Q 2363 -3984 2231 -4161 
Q 2100 -4338 2100 -4556 
L 2100 -6425 
Q 2100 -6713 1901 -6914 
Q 1703 -7116 1437 -7227 
Q 1172 -7338 844 -7419 
L 769 -7419 
Q 744 -7419 726 -7401 
Q 709 -7384 709 -7366 
z
" transform="scale(0.015625)"/>
      <path id="DejaVuSerif-64" d="M 3359 331 
L 3909 331 
L 3909 0 
L 2784 0 
L 2784 519 
Q 2616 206 2355 57 
Q 2094 -91 1709 -91 
Q 1097 -91 708 395 
Q 319 881 319 1663 
Q 319 2444 706 2928 
Q 1094 3413 1709 3413 
Q 2094 3413 2355 3264 
Q 2616 3116 2784 2803 
L 2784 4531 
L 2241 4531 
L 2241 4863 
L 3359 4863 
L 3359 331 
z
M 2784 1497 
L 2784 1825 
Q 2784 2422 2554 2737 
Q 2325 3053 1888 3053 
Q 1444 3053 1217 2703 
Q 991 2353 991 1663 
Q 991 975 1217 622 
Q 1444 269 1888 269 
Q 2325 269 2554 583 
Q 2784 897 2784 1497 
z
" transform="scale(0.015625)"/>
      <path id="Cmmi10-62" d="M 1106 -72 
Q 719 -72 503 231 
Q 288 534 288 941 
Q 288 1000 317 1173 
Q 347 1347 347 1388 
L 966 3872 
Q 991 3981 997 4044 
Q 997 4147 581 4147 
Q 519 4147 519 4231 
Q 522 4247 533 4287 
Q 544 4328 561 4350 
Q 578 4372 609 4372 
L 1472 4441 
Q 1550 4441 1550 4359 
L 1075 2472 
Q 1438 2828 1806 2828 
Q 2078 2828 2273 2684 
Q 2469 2541 2566 2306 
Q 2663 2072 2663 1806 
Q 2663 1497 2542 1167 
Q 2422 838 2209 555 
Q 1997 272 1712 100 
Q 1428 -72 1106 -72 
z
M 1119 97 
Q 1338 97 1528 280 
Q 1719 463 1838 691 
Q 1966 947 2077 1386 
Q 2188 1825 2188 2088 
Q 2188 2316 2092 2489 
Q 1997 2663 1791 2663 
Q 1559 2663 1348 2492 
Q 1138 2322 978 2088 
L 800 1363 
Q 697 959 691 716 
Q 691 475 795 286 
Q 900 97 1119 97 
z
" transform="scale(0.015625)"/>
      <path id="DejaVuSerif-2c" d="M 231 -622 
Q 525 -406 662 -114 
Q 800 178 800 594 
L 800 709 
L 1416 709 
Q 1391 175 1164 -208 
Q 938 -591 481 -872 
L 231 -622 
z
" transform="scale(0.015625)"/>
      <path id="DejaVuSerif-28" d="M 2041 -997 
Q 1281 -656 893 83 
Q 506 822 506 1931 
Q 506 3044 893 3783 
Q 1281 4522 2041 4863 
L 2041 4556 
Q 1559 4225 1350 3623 
Q 1141 3022 1141 1931 
Q 1141 844 1350 242 
Q 1559 -359 2041 -691 
L 2041 -997 
z
" transform="scale(0.015625)"/>
      <path id="Cmr10-3d" d="M 481 850 
Q 428 850 393 890 
Q 359 931 359 978 
Q 359 1031 393 1068 
Q 428 1106 481 1106 
L 4500 1106 
Q 4547 1106 4581 1068 
Q 4616 1031 4616 978 
Q 4616 931 4581 890 
Q 4547 850 4500 850 
L 481 850 
z
M 481 2094 
Q 428 2094 393 2131 
Q 359 2169 359 2222 
Q 359 2269 393 2309 
Q 428 2350 481 2350 
L 4500 2350 
Q 4547 2350 4581 2309 
Q 4616 2269 4616 2222 
Q 4616 2169 4581 2131 
Q 4547 2094 4500 2094 
L 481 2094 
z
" transform="scale(0.015625)"/>
      <path id="Cmr10-31" d="M 594 0 
L 594 225 
Q 1394 225 1394 428 
L 1394 3788 
Q 1063 3628 556 3628 
L 556 3853 
Q 1341 3853 1741 4263 
L 1831 4263 
Q 1853 4263 1873 4245 
Q 1894 4228 1894 4206 
L 1894 428 
Q 1894 225 2694 225 
L 2694 0 
L 594 0 
z
" transform="scale(0.015625)"/>
      <path id="Cmmi10-3b" d="M 634 -1153 
Q 634 -1125 659 -1100 
Q 891 -878 1019 -587 
Q 1147 -297 1147 25 
L 1147 103 
Q 1044 0 891 0 
Q 744 0 641 103 
Q 538 206 538 353 
Q 538 503 641 603 
Q 744 703 891 703 
Q 1119 703 1216 492 
Q 1313 281 1313 25 
Q 1313 -331 1170 -651 
Q 1028 -972 769 -1228 
Q 744 -1241 728 -1241 
Q 697 -1241 665 -1212 
Q 634 -1184 634 -1153 
z
" transform="scale(0.015625)"/>
      <path id="Cmr10-32" d="M 319 0 
L 319 172 
Q 319 188 331 206 
L 1325 1306 
Q 1550 1550 1690 1715 
Q 1831 1881 1968 2097 
Q 2106 2313 2186 2536 
Q 2266 2759 2266 3009 
Q 2266 3272 2169 3511 
Q 2072 3750 1880 3894 
Q 1688 4038 1416 4038 
Q 1138 4038 916 3870 
Q 694 3703 603 3438 
Q 628 3444 672 3444 
Q 816 3444 917 3347 
Q 1019 3250 1019 3097 
Q 1019 2950 917 2848 
Q 816 2747 672 2747 
Q 522 2747 420 2851 
Q 319 2956 319 3097 
Q 319 3338 409 3548 
Q 500 3759 670 3923 
Q 841 4088 1055 4175 
Q 1269 4263 1509 4263 
Q 1875 4263 2190 4108 
Q 2506 3953 2690 3670 
Q 2875 3388 2875 3009 
Q 2875 2731 2753 2481 
Q 2631 2231 2440 2026 
Q 2250 1822 1953 1562 
Q 1656 1303 1563 1216 
L 838 519 
L 1453 519 
Q 1906 519 2211 526 
Q 2516 534 2534 550 
Q 2609 631 2688 1141 
L 2875 1141 
L 2694 0 
L 319 0 
z
" transform="scale(0.015625)"/>
      <path id="Cmr10-33" d="M 609 494 
Q 759 275 1012 169 
Q 1266 63 1556 63 
Q 1928 63 2084 380 
Q 2241 697 2241 1100 
Q 2241 1281 2208 1462 
Q 2175 1644 2097 1800 
Q 2019 1956 1883 2050 
Q 1747 2144 1550 2144 
L 1125 2144 
Q 1069 2144 1069 2203 
L 1069 2259 
Q 1069 2309 1125 2309 
L 1478 2338 
Q 1703 2338 1851 2506 
Q 2000 2675 2069 2917 
Q 2138 3159 2138 3378 
Q 2138 3684 1994 3881 
Q 1850 4078 1556 4078 
Q 1313 4078 1091 3986 
Q 869 3894 738 3706 
Q 750 3709 759 3711 
Q 769 3713 781 3713 
Q 925 3713 1022 3613 
Q 1119 3513 1119 3372 
Q 1119 3234 1022 3134 
Q 925 3034 781 3034 
Q 641 3034 541 3134 
Q 441 3234 441 3372 
Q 441 3647 606 3850 
Q 772 4053 1033 4158 
Q 1294 4263 1556 4263 
Q 1750 4263 1965 4205 
Q 2181 4147 2356 4039 
Q 2531 3931 2642 3762 
Q 2753 3594 2753 3378 
Q 2753 3109 2633 2881 
Q 2513 2653 2303 2487 
Q 2094 2322 1844 2241 
Q 2122 2188 2372 2031 
Q 2622 1875 2773 1631 
Q 2925 1388 2925 1106 
Q 2925 753 2731 467 
Q 2538 181 2222 20 
Q 1906 -141 1556 -141 
Q 1256 -141 954 -26 
Q 653 88 461 316 
Q 269 544 269 863 
Q 269 1022 375 1128 
Q 481 1234 641 1234 
Q 744 1234 830 1186 
Q 916 1138 964 1050 
Q 1013 963 1013 863 
Q 1013 706 903 600 
Q 794 494 641 494 
L 609 494 
z
" transform="scale(0.015625)"/>
      <path id="Cmr10-34" d="M 178 1056 
L 178 1281 
L 2156 4231 
Q 2178 4263 2222 4263 
L 2316 4263 
Q 2388 4263 2388 4191 
L 2388 1281 
L 3016 1281 
L 3016 1056 
L 2388 1056 
L 2388 428 
Q 2388 297 2575 261 
Q 2763 225 3009 225 
L 3009 0 
L 1247 0 
L 1247 225 
Q 1494 225 1681 261 
Q 1869 297 1869 428 
L 1869 1056 
L 178 1056 
z
M 391 1281 
L 1906 1281 
L 1906 3547 
L 391 1281 
z
" transform="scale(0.015625)"/>
      <path id="DejaVuSerif-29" d="M 453 -997 
L 453 -691 
Q 934 -359 1145 242 
Q 1356 844 1356 1931 
Q 1356 3022 1145 3623 
Q 934 4225 453 4556 
L 453 4863 
Q 1216 4522 1603 3783 
Q 1991 3044 1991 1931 
Q 1991 822 1603 83 
Q 1216 -656 453 -997 
z
" transform="scale(0.015625)"/>
      <path id="DejaVuSerif-63" d="M 3291 997 
Q 3169 466 2822 187 
Q 2475 -91 1925 -91 
Q 1200 -91 759 389 
Q 319 869 319 1663 
Q 319 2459 759 2936 
Q 1200 3413 1925 3413 
Q 2241 3413 2553 3339 
Q 2866 3266 3181 3116 
L 3181 2266 
L 2847 2266 
Q 2781 2703 2561 2903 
Q 2341 3103 1931 3103 
Q 1466 3103 1228 2742 
Q 991 2381 991 1663 
Q 991 944 1227 581 
Q 1463 219 1931 219 
Q 2303 219 2525 412 
Q 2747 606 2828 997 
L 3291 997 
z
" transform="scale(0.015625)"/>
      <path id="DejaVuSerif-68" d="M 263 0 
L 263 331 
L 781 331 
L 781 4531 
L 231 4531 
L 231 4863 
L 1356 4863 
L 1356 2731 
Q 1516 3069 1770 3241 
Q 2025 3413 2363 3413 
Q 2913 3413 3172 3097 
Q 3431 2781 3431 2113 
L 3431 331 
L 3944 331 
L 3944 0 
L 2356 0 
L 2356 331 
L 2853 331 
L 2853 1931 
Q 2853 2541 2704 2764 
Q 2556 2988 2175 2988 
Q 1775 2988 1565 2697 
Q 1356 2406 1356 1850 
L 1356 331 
L 1856 331 
L 1856 0 
L 263 0 
z
" transform="scale(0.015625)"/>
      <path id="DejaVuSerif-74" d="M 691 2988 
L 184 2988 
L 184 3322 
L 691 3322 
L 691 4353 
L 1269 4353 
L 1269 3322 
L 2350 3322 
L 2350 2988 
L 1269 2988 
L 1269 878 
Q 1269 456 1350 337 
Q 1431 219 1650 219 
Q 1875 219 1978 351 
Q 2081 484 2088 781 
L 2522 781 
Q 2497 328 2275 118 
Q 2053 -91 1600 -91 
Q 1103 -91 897 129 
Q 691 350 691 878 
L 691 2988 
z
" transform="scale(0.015625)"/>
      <path id="Cmsy10-a1" d="M 653 1472 
Q 600 1472 565 1512 
Q 531 1553 531 1600 
Q 531 1647 565 1687 
Q 600 1728 653 1728 
L 4325 1728 
Q 4375 1728 4408 1687 
Q 4441 1647 4441 1600 
Q 4441 1553 4408 1512 
Q 4375 1472 4325 1472 
L 653 1472 
z
" transform="scale(0.015625)"/>
      <path id="STIXGeneral-Regular-2260" d="M 4077 768 
L 1990 768 
L 1222 -998 
L 877 -998 
L 1645 768 
L 307 768 
L 307 1190 
L 1830 1190 
L 2208 2048 
L 307 2048 
L 307 2470 
L 2394 2470 
L 3162 4237 
L 3507 4237 
L 2733 2470 
L 4077 2470 
L 4077 2048 
L 2554 2048 
L 2176 1190 
L 4077 1190 
L 4077 768 
z
" transform="scale(0.015625)"/>
      <path id="Cmr10-30" d="M 1600 -141 
Q 816 -141 533 504 
Q 250 1150 250 2041 
Q 250 2597 351 3087 
Q 453 3578 754 3920 
Q 1056 4263 1600 4263 
Q 2022 4263 2290 4056 
Q 2559 3850 2700 3523 
Q 2841 3197 2892 2823 
Q 2944 2450 2944 2041 
Q 2944 1491 2842 1011 
Q 2741 531 2444 195 
Q 2147 -141 1600 -141 
z
M 1600 25 
Q 1956 25 2131 390 
Q 2306 756 2347 1200 
Q 2388 1644 2388 2144 
Q 2388 2625 2347 3031 
Q 2306 3438 2132 3767 
Q 1959 4097 1600 4097 
Q 1238 4097 1063 3765 
Q 888 3434 847 3029 
Q 806 2625 806 2144 
Q 806 1788 823 1472 
Q 841 1156 916 820 
Q 991 484 1158 254 
Q 1325 25 1600 25 
z
" transform="scale(0.015625)"/>
      <path id="DejaVuSerif-2e" d="M 603 325 
Q 603 500 722 622 
Q 841 744 1019 744 
Q 1191 744 1312 622 
Q 1434 500 1434 325 
Q 1434 153 1312 31 
Q 1191 -91 1019 -91 
Q 841 -91 722 29 
Q 603 150 603 325 
z
" transform="scale(0.015625)"/>
      <path id="DejaVuSerif-43" d="M 4513 1234 
Q 4306 581 3820 245 
Q 3334 -91 2591 -91 
Q 2134 -91 1743 65 
Q 1353 222 1050 525 
Q 700 875 529 1320 
Q 359 1766 359 2328 
Q 359 3416 987 4083 
Q 1616 4750 2644 4750 
Q 3025 4750 3456 4650 
Q 3888 4550 4384 4347 
L 4384 3272 
L 4031 3272 
Q 3916 3859 3567 4137 
Q 3219 4416 2591 4416 
Q 1844 4416 1459 3886 
Q 1075 3356 1075 2328 
Q 1075 1303 1459 773 
Q 1844 244 2591 244 
Q 3113 244 3450 492 
Q 3788 741 3938 1234 
L 4513 1234 
z
" transform="scale(0.015625)"/>
      <path id="DejaVuSerif-6f" d="M 1925 219 
Q 2388 219 2623 584 
Q 2859 950 2859 1663 
Q 2859 2375 2623 2739 
Q 2388 3103 1925 3103 
Q 1463 3103 1227 2739 
Q 991 2375 991 1663 
Q 991 950 1228 584 
Q 1466 219 1925 219 
z
M 1925 -91 
Q 1200 -91 759 389 
Q 319 869 319 1663 
Q 319 2456 758 2934 
Q 1197 3413 1925 3413 
Q 2653 3413 3092 2934 
Q 3531 2456 3531 1663 
Q 3531 869 3092 389 
Q 2653 -91 1925 -91 
z
" transform="scale(0.015625)"/>
      <path id="DejaVuSerif-66" d="M 2753 4078 
L 2450 4078 
Q 2447 4313 2317 4434 
Q 2188 4556 1941 4556 
Q 1619 4556 1487 4379 
Q 1356 4203 1356 3750 
L 1356 3322 
L 2284 3322 
L 2284 2988 
L 1356 2988 
L 1356 331 
L 2094 331 
L 2094 0 
L 231 0 
L 231 331 
L 781 331 
L 781 2988 
L 231 2988 
L 231 3322 
L 781 3322 
L 781 3738 
Q 781 4294 1070 4578 
Q 1359 4863 1919 4863 
Q 2128 4863 2337 4825 
Q 2547 4788 2753 4709 
L 2753 4078 
z
" transform="scale(0.015625)"/>
      <path id="Cmr10-28" d="M 1984 -1588 
Q 1628 -1306 1370 -942 
Q 1113 -578 948 -165 
Q 784 247 703 697 
Q 622 1147 622 1600 
Q 622 2059 703 2509 
Q 784 2959 951 3375 
Q 1119 3791 1378 4153 
Q 1638 4516 1984 4788 
Q 1984 4800 2016 4800 
L 2075 4800 
Q 2094 4800 2109 4783 
Q 2125 4766 2125 4744 
Q 2125 4716 2113 4703 
Q 1800 4397 1592 4047 
Q 1384 3697 1257 3301 
Q 1131 2906 1075 2482 
Q 1019 2059 1019 1600 
Q 1019 -434 2106 -1491 
Q 2125 -1509 2125 -1544 
Q 2125 -1559 2108 -1579 
Q 2091 -1600 2075 -1600 
L 2016 -1600 
Q 1984 -1600 1984 -1588 
z
" transform="scale(0.015625)"/>
      <path id="Cmmi10-78" d="M 500 184 
Q 613 97 819 97 
Q 1019 97 1172 289 
Q 1325 481 1381 709 
L 1672 1844 
Q 1741 2153 1741 2266 
Q 1741 2425 1652 2544 
Q 1563 2663 1403 2663 
Q 1200 2663 1022 2536 
Q 844 2409 722 2214 
Q 600 2019 550 1819 
Q 538 1778 500 1778 
L 422 1778 
Q 372 1778 372 1838 
L 372 1856 
Q 434 2094 584 2320 
Q 734 2547 951 2687 
Q 1169 2828 1416 2828 
Q 1650 2828 1839 2703 
Q 2028 2578 2106 2363 
Q 2216 2559 2386 2693 
Q 2556 2828 2759 2828 
Q 2897 2828 3040 2779 
Q 3184 2731 3275 2631 
Q 3366 2531 3366 2381 
Q 3366 2219 3261 2101 
Q 3156 1984 2994 1984 
Q 2891 1984 2822 2050 
Q 2753 2116 2753 2216 
Q 2753 2350 2845 2451 
Q 2938 2553 3066 2572 
Q 2950 2663 2747 2663 
Q 2541 2663 2389 2472 
Q 2238 2281 2175 2047 
L 1894 916 
Q 1825 659 1825 494 
Q 1825 331 1917 214 
Q 2009 97 2163 97 
Q 2463 97 2698 361 
Q 2934 625 3009 941 
Q 3022 978 3059 978 
L 3138 978 
Q 3163 978 3178 961 
Q 3194 944 3194 922 
Q 3194 916 3188 903 
Q 3097 522 2806 225 
Q 2516 -72 2150 -72 
Q 1916 -72 1727 54 
Q 1538 181 1459 397 
Q 1359 209 1182 68 
Q 1006 -72 806 -72 
Q 669 -72 523 -23 
Q 378 25 287 125 
Q 197 225 197 378 
Q 197 528 301 651 
Q 406 775 563 775 
Q 669 775 741 711 
Q 813 647 813 544 
Q 813 409 723 309 
Q 634 209 500 184 
z
" transform="scale(0.015625)"/>
      <path id="Cmr10-29" d="M 416 -1600 
Q 359 -1600 359 -1544 
Q 359 -1516 372 -1503 
Q 1466 -434 1466 1600 
Q 1466 3634 384 4691 
Q 359 4706 359 4744 
Q 359 4766 376 4783 
Q 394 4800 416 4800 
L 475 4800 
Q 494 4800 506 4788 
Q 966 4425 1272 3906 
Q 1578 3388 1720 2800 
Q 1863 2213 1863 1600 
Q 1863 1147 1786 708 
Q 1709 269 1542 -157 
Q 1375 -584 1119 -945 
Q 863 -1306 506 -1588 
Q 494 -1600 475 -1600 
L 416 -1600 
z
" transform="scale(0.015625)"/>
      <path id="DejaVuSerif-71" d="M 3359 2988 
L 3359 -997 
L 3909 -997 
L 3909 -1331 
L 2241 -1331 
L 2241 -997 
L 2784 -997 
L 2784 519 
Q 2616 206 2355 57 
Q 2094 -91 1709 -91 
Q 1097 -91 708 395 
Q 319 881 319 1663 
Q 319 2444 706 2928 
Q 1094 3413 1709 3413 
Q 2094 3413 2355 3264 
Q 2616 3116 2784 2803 
L 2784 3322 
L 3909 3322 
L 3909 2988 
L 3359 2988 
z
M 2784 1825 
Q 2784 2422 2554 2737 
Q 2325 3053 1888 3053 
Q 1444 3053 1217 2703 
Q 991 2353 991 1663 
Q 991 975 1217 622 
Q 1444 269 1888 269 
Q 2325 269 2554 583 
Q 2784 897 2784 1497 
L 2784 1825 
z
" transform="scale(0.015625)"/>
      <path id="Cmr10-2b" d="M 481 1472 
Q 428 1472 393 1512 
Q 359 1553 359 1600 
Q 359 1647 393 1687 
Q 428 1728 481 1728 
L 2363 1728 
L 2363 3616 
Q 2363 3666 2400 3698 
Q 2438 3731 2491 3731 
Q 2538 3731 2578 3698 
Q 2619 3666 2619 3616 
L 2619 1728 
L 4500 1728 
Q 4547 1728 4581 1687 
Q 4616 1647 4616 1600 
Q 4616 1553 4581 1512 
Q 4547 1472 4500 1472 
L 2619 1472 
L 2619 -416 
Q 2619 -466 2578 -498 
Q 2538 -531 2491 -531 
Q 2438 -531 2400 -498 
Q 2363 -466 2363 -416 
L 2363 1472 
L 481 1472 
z
" transform="scale(0.015625)"/>
      <path id="DejaVuSerif-77" d="M 3072 3322 
L 3922 728 
L 4672 2988 
L 4191 2988 
L 4191 3322 
L 5394 3322 
L 5394 2988 
L 5025 2988 
L 4038 0 
L 3559 0 
L 2741 2484 
L 1919 0 
L 1459 0 
L 475 2988 
L 103 2988 
L 103 3322 
L 1606 3322 
L 1606 2988 
L 1069 2988 
L 1813 728 
L 2669 3322 
L 3072 3322 
z
" transform="scale(0.015625)"/>
      <path id="DejaVuSerif-7a" d="M 256 0 
L 256 269 
L 2338 2988 
L 691 2988 
L 691 2413 
L 359 2413 
L 359 3322 
L 3078 3322 
L 3078 3053 
L 997 331 
L 2803 331 
L 2803 934 
L 3138 934 
L 3138 0 
L 256 0 
z
" transform="scale(0.015625)"/>
      <path id="DejaVuSerif-45" d="M 353 0 
L 353 331 
L 947 331 
L 947 4331 
L 353 4331 
L 353 4666 
L 4109 4666 
L 4109 3628 
L 3725 3628 
L 3725 4281 
L 1581 4281 
L 1581 2719 
L 3109 2719 
L 3109 3303 
L 3494 3303 
L 3494 1753 
L 3109 1753 
L 3109 2338 
L 1581 2338 
L 1581 384 
L 3775 384 
L 3775 1038 
L 4159 1038 
L 4159 0 
L 353 0 
z
" transform="scale(0.015625)"/>
      <path id="DejaVuSerif-67" d="M 3359 2988 
L 3359 72 
Q 3359 -644 2965 -1033 
Q 2572 -1422 1844 -1422 
Q 1516 -1422 1216 -1362 
Q 916 -1303 641 -1184 
L 641 -488 
L 941 -488 
Q 997 -813 1206 -963 
Q 1416 -1113 1806 -1113 
Q 2313 -1113 2548 -827 
Q 2784 -541 2784 72 
L 2784 519 
Q 2616 206 2355 57 
Q 2094 -91 1709 -91 
Q 1097 -91 708 395 
Q 319 881 319 1663 
Q 319 2444 706 2928 
Q 1094 3413 1709 3413 
Q 2094 3413 2355 3264 
Q 2616 3116 2784 2803 
L 2784 3322 
L 3909 3322 
L 3909 2988 
L 3359 2988 
z
M 2784 1825 
Q 2784 2422 2554 2737 
Q 2325 3053 1888 3053 
Q 1444 3053 1217 2703 
Q 991 2353 991 1663 
Q 991 975 1217 622 
Q 1444 269 1888 269 
Q 2325 269 2554 583 
Q 2784 897 2784 1497 
L 2784 1825 
z
" transform="scale(0.015625)"/>
      <path id="DejaVuSerif-2d" d="M 281 1959 
L 1881 1959 
L 1881 1472 
L 281 1472 
L 281 1959 
z
" transform="scale(0.015625)"/>
      <path id="DejaVuSerif-70" d="M 1313 1825 
L 1313 1497 
Q 1313 897 1542 583 
Q 1772 269 2209 269 
Q 2650 269 2876 622 
Q 3103 975 3103 1663 
Q 3103 2353 2876 2703 
Q 2650 3053 2209 3053 
Q 1772 3053 1542 2737 
Q 1313 2422 1313 1825 
z
M 738 2988 
L 184 2988 
L 184 3322 
L 1313 3322 
L 1313 2803 
Q 1481 3116 1742 3264 
Q 2003 3413 2388 3413 
Q 3000 3413 3387 2928 
Q 3775 2444 3775 1663 
Q 3775 881 3387 395 
Q 3000 -91 2388 -91 
Q 2003 -91 1742 57 
Q 1481 206 1313 519 
L 1313 -997 
L 1856 -997 
L 1856 -1331 
L 184 -1331 
L 184 -997 
L 738 -997 
L 738 2988 
z
" transform="scale(0.015625)"/>
      <path id="Cmr10-73" d="M 213 -19 
L 213 1025 
Q 213 1075 269 1075 
L 347 1075 
Q 384 1075 397 1025 
Q 575 97 1259 97 
Q 1563 97 1767 234 
Q 1972 372 1972 659 
Q 1972 866 1812 1011 
Q 1653 1156 1434 1209 
L 1006 1294 
Q 791 1341 614 1437 
Q 438 1534 325 1695 
Q 213 1856 213 2069 
Q 213 2350 361 2529 
Q 509 2709 746 2789 
Q 984 2869 1259 2869 
Q 1588 2869 1831 2694 
L 2016 2853 
Q 2016 2869 2047 2869 
L 2094 2869 
Q 2113 2869 2128 2851 
Q 2144 2834 2144 2816 
L 2144 1978 
Q 2144 1919 2094 1919 
L 2016 1919 
Q 1959 1919 1959 1978 
Q 1959 2313 1773 2516 
Q 1588 2719 1253 2719 
Q 966 2719 755 2612 
Q 544 2506 544 2247 
Q 544 2069 695 1955 
Q 847 1841 1050 1791 
L 1484 1709 
Q 1703 1659 1892 1540 
Q 2081 1422 2192 1240 
Q 2303 1059 2303 831 
Q 2303 600 2223 429 
Q 2144 259 2001 146 
Q 1859 34 1665 -19 
Q 1472 -72 1259 -72 
Q 859 -72 575 197 
L 341 -56 
Q 341 -72 306 -72 
L 269 -72 
Q 213 -72 213 -19 
z
" transform="scale(0.015625)"/>
      <path id="Cmr10-69" d="M 197 0 
L 197 225 
Q 416 225 556 259 
Q 697 294 697 428 
L 697 2175 
Q 697 2422 601 2478 
Q 506 2534 225 2534 
L 225 2759 
L 1147 2828 
L 1147 428 
Q 1147 294 1269 259 
Q 1391 225 1594 225 
L 1594 0 
L 197 0 
z
M 469 3928 
Q 469 4069 575 4175 
Q 681 4281 819 4281 
Q 909 4281 993 4234 
Q 1078 4188 1125 4103 
Q 1172 4019 1172 3928 
Q 1172 3791 1065 3684 
Q 959 3578 819 3578 
Q 681 3578 575 3684 
Q 469 3791 469 3928 
z
" transform="scale(0.015625)"/>
      <path id="Cmr10-67" d="M 178 -500 
Q 178 -272 343 -101 
Q 509 69 738 141 
Q 609 238 542 384 
Q 475 531 475 697 
Q 475 997 666 1228 
Q 372 1516 372 1888 
Q 372 2088 458 2263 
Q 544 2438 697 2566 
Q 850 2694 1037 2761 
Q 1225 2828 1422 2828 
Q 1803 2828 2106 2606 
Q 2238 2747 2417 2823 
Q 2597 2900 2791 2900 
Q 2928 2900 3015 2801 
Q 3103 2703 3103 2566 
Q 3103 2488 3043 2428 
Q 2984 2369 2906 2369 
Q 2825 2369 2765 2428 
Q 2706 2488 2706 2566 
Q 2706 2684 2784 2731 
Q 2453 2731 2216 2503 
Q 2331 2388 2401 2220 
Q 2472 2053 2472 1888 
Q 2472 1616 2322 1398 
Q 2172 1181 1926 1061 
Q 1681 941 1422 941 
Q 1072 941 781 1131 
Q 691 1006 691 850 
Q 691 681 802 554 
Q 913 428 1081 428 
L 1606 428 
Q 1988 428 2294 359 
Q 2600 291 2808 84 
Q 3016 -122 3016 -500 
Q 3016 -781 2778 -967 
Q 2541 -1153 2211 -1236 
Q 1881 -1319 1600 -1319 
Q 1316 -1319 984 -1236 
Q 653 -1153 415 -967 
Q 178 -781 178 -500 
z
M 538 -500 
Q 538 -716 713 -861 
Q 888 -1006 1134 -1076 
Q 1381 -1147 1600 -1147 
Q 1816 -1147 2062 -1076 
Q 2309 -1006 2482 -861 
Q 2656 -716 2656 -500 
Q 2656 -166 2350 -67 
Q 2044 31 1606 31 
L 1081 31 
Q 934 31 811 -39 
Q 688 -109 613 -236 
Q 538 -363 538 -500 
z
M 1422 1113 
Q 1966 1113 1966 1888 
Q 1966 2222 1850 2439 
Q 1734 2656 1422 2656 
Q 1109 2656 993 2439 
Q 878 2222 878 1888 
Q 878 1675 922 1503 
Q 966 1331 1084 1222 
Q 1203 1113 1422 1113 
z
" transform="scale(0.015625)"/>
      <path id="Cmr10-6e" d="M 191 0 
L 191 225 
Q 409 225 550 259 
Q 691 294 691 428 
L 691 2175 
Q 691 2347 639 2423 
Q 588 2500 491 2517 
Q 394 2534 191 2534 
L 191 2759 
L 1119 2828 
L 1119 2203 
Q 1247 2478 1498 2653 
Q 1750 2828 2047 2828 
Q 2491 2828 2714 2615 
Q 2938 2403 2938 1966 
L 2938 428 
Q 2938 294 3078 259 
Q 3219 225 3438 225 
L 3438 0 
L 1972 0 
L 1972 225 
Q 2191 225 2331 259 
Q 2472 294 2472 428 
L 2472 1947 
Q 2472 2259 2381 2461 
Q 2291 2663 2009 2663 
Q 1638 2663 1398 2366 
Q 1159 2069 1159 1691 
L 1159 428 
Q 1159 294 1300 259 
Q 1441 225 1656 225 
L 1656 0 
L 191 0 
z
" transform="scale(0.015625)"/>
      <path id="Cmr10-75" d="M 691 763 
L 691 2175 
Q 691 2347 639 2423 
Q 588 2500 491 2517 
Q 394 2534 191 2534 
L 191 2759 
L 1159 2828 
L 1159 763 
Q 1159 513 1195 373 
Q 1231 234 1348 165 
Q 1466 97 1722 97 
Q 2066 97 2269 384 
Q 2472 672 2472 1038 
L 2472 2175 
Q 2472 2347 2419 2423 
Q 2366 2500 2270 2517 
Q 2175 2534 1972 2534 
L 1972 2759 
L 2938 2828 
L 2938 581 
Q 2938 413 2989 336 
Q 3041 259 3137 242 
Q 3234 225 3438 225 
L 3438 0 
L 2491 -72 
L 2491 469 
Q 2372 228 2159 78 
Q 1947 -72 1691 -72 
Q 1231 -72 961 123 
Q 691 319 691 763 
z
" transform="scale(0.015625)"/>
      <path id="Cmr10-6d" d="M 191 0 
L 191 225 
Q 409 225 550 259 
Q 691 294 691 428 
L 691 2175 
Q 691 2347 639 2423 
Q 588 2500 491 2517 
Q 394 2534 191 2534 
L 191 2759 
L 1119 2828 
L 1119 2203 
Q 1247 2478 1498 2653 
Q 1750 2828 2047 2828 
Q 2784 2828 2913 2228 
Q 3041 2497 3287 2662 
Q 3534 2828 3828 2828 
Q 4119 2828 4317 2734 
Q 4516 2641 4616 2448 
Q 4716 2256 4716 1966 
L 4716 428 
Q 4716 294 4858 259 
Q 5000 225 5216 225 
L 5216 0 
L 3750 0 
L 3750 225 
Q 3969 225 4109 259 
Q 4250 294 4250 428 
L 4250 1947 
Q 4250 2269 4159 2466 
Q 4069 2663 3788 2663 
Q 3419 2663 3178 2366 
Q 2938 2069 2938 1691 
L 2938 428 
Q 2938 294 3078 259 
Q 3219 225 3438 225 
L 3438 0 
L 1972 0 
L 1972 225 
Q 2191 225 2331 259 
Q 2472 294 2472 428 
L 2472 1947 
Q 2472 2259 2381 2461 
Q 2291 2663 2009 2663 
Q 1638 2663 1398 2366 
Q 1159 2069 1159 1691 
L 1159 428 
Q 1159 294 1300 259 
Q 1441 225 1656 225 
L 1656 0 
L 191 0 
z
" transform="scale(0.015625)"/>
      <path id="DejaVuSerif-44" d="M 1581 331 
L 2163 331 
Q 3072 331 3558 850 
Q 4044 1369 4044 2338 
Q 4044 3306 3559 3818 
Q 3075 4331 2163 4331 
L 1581 4331 
L 1581 331 
z
M 353 0 
L 353 331 
L 947 331 
L 947 4331 
L 353 4331 
L 353 4666 
L 2209 4666 
Q 3416 4666 4089 4050 
Q 4763 3434 4763 2338 
Q 4763 1238 4088 619 
Q 3413 0 2209 0 
L 353 0 
z
" transform="scale(0.015625)"/>
      <path id="DejaVuSerif-78" d="M 1863 2028 
L 2559 2988 
L 2113 2988 
L 2113 3322 
L 3391 3322 
L 3391 2988 
L 2950 2988 
L 2059 1759 
L 3097 331 
L 3531 331 
L 3531 0 
L 1997 0 
L 1997 331 
L 2419 331 
L 1697 1325 
L 972 331 
L 1403 331 
L 1403 0 
L 141 0 
L 141 331 
L 581 331 
L 1497 1594 
L 488 2988 
L 78 2988 
L 78 3322 
L 1563 3322 
L 1563 2988 
L 1166 2988 
L 1863 2028 
z
" transform="scale(0.015625)"/>
     </defs>
     <use xlink:href="#DejaVuSerif-47" transform="translate(0 0.705729)"/>
     <use xlink:href="#DejaVuSerif-69" transform="translate(79.882812 0.705729)"/>
     <use xlink:href="#DejaVuSerif-76" transform="translate(111.865234 0.705729)"/>
     <use xlink:href="#DejaVuSerif-65" transform="translate(168.359375 0.705729)"/>
     <use xlink:href="#DejaVuSerif-6e" transform="translate(227.539062 0.705729)"/>
     <use xlink:href="#DejaVuSerif-20" transform="translate(291.943359 0.705729)"/>
     <use xlink:href="#DejaVuSerif-72" transform="translate(323.730469 0.705729)"/>
     <use xlink:href="#DejaVuSerif-65" transform="translate(371.533203 0.705729)"/>
     <use xlink:href="#DejaVuSerif-61" transform="translate(430.712891 0.705729)"/>
     <use xlink:href="#DejaVuSerif-6c" transform="translate(490.332031 0.705729)"/>
     <use xlink:href="#DejaVuSerif-20" transform="translate(522.314453 0.705729)"/>
     <use xlink:href="#DejaVuSerif-6e" transform="translate(554.101562 0.705729)"/>
     <use xlink:href="#DejaVuSerif-75" transform="translate(618.505859 0.705729)"/>
     <use xlink:href="#DejaVuSerif-6d" transform="translate(682.910156 0.705729)"/>
     <use xlink:href="#DejaVuSerif-62" transform="translate(777.734375 0.705729)"/>
     <use xlink:href="#DejaVuSerif-65" transform="translate(841.748047 0.705729)"/>
     <use xlink:href="#DejaVuSerif-72" transform="translate(900.927734 0.705729)"/>
     <use xlink:href="#DejaVuSerif-73" transform="translate(948.730469 0.705729)"/>
     <use xlink:href="#DejaVuSerif-20" transform="translate(1000.048828 0.705729)"/>
     <use xlink:href="#Cmex10-a9" transform="translate(1031.835938 94)"/>
     <use xlink:href="#Cmmi10-61" transform="translate(1090.136719 0.705729)"/>
     <use xlink:href="#Cmmi10-69" transform="translate(1142.919922 -16.300521) scale(0.7)"/>
     <use xlink:href="#Cmex10-aa" transform="translate(1173.393945 94)"/>
     <use xlink:href="#DejaVuSerif-20" transform="translate(1231.694727 0.705729)"/>
     <use xlink:href="#DejaVuSerif-61" transform="translate(1263.481836 0.705729)"/>
     <use xlink:href="#DejaVuSerif-6e" transform="translate(1323.100977 0.705729)"/>
     <use xlink:href="#DejaVuSerif-64" transform="translate(1387.505273 0.705729)"/>
     <use xlink:href="#DejaVuSerif-20" transform="translate(1451.518945 0.705729)"/>
     <use xlink:href="#Cmex10-a9" transform="translate(1483.306055 94)"/>
     <use xlink:href="#Cmmi10-62" transform="translate(1541.606836 0.705729)"/>
     <use xlink:href="#Cmmi10-69" transform="translate(1584.526758 -16.300521) scale(0.7)"/>
     <use xlink:href="#Cmex10-aa" transform="translate(1615.000781 94)"/>
     <use xlink:href="#DejaVuSerif-2c" transform="translate(1673.301562 0.705729)"/>
     <use xlink:href="#DejaVuSerif-20" transform="translate(1705.088672 0.705729)"/>
     <use xlink:href="#DejaVuSerif-28" transform="translate(1736.875781 0.705729)"/>
     <use xlink:href="#Cmmi10-69" transform="translate(1775.889453 0.705729)"/>
     <use xlink:href="#Cmr10-3d" transform="translate(1827.871875 0.705729)"/>
     <use xlink:href="#Cmr10-31" transform="translate(1923.116016 0.705729)"/>
     <use xlink:href="#Cmmi10-3b" transform="translate(1973.116016 0.705729)"/>
     <use xlink:href="#Cmr10-32" transform="translate(2018.360156 0.705729)"/>
     <use xlink:href="#Cmmi10-3b" transform="translate(2068.360156 0.705729)"/>
     <use xlink:href="#Cmr10-33" transform="translate(2113.604297 0.705729)"/>
     <use xlink:href="#Cmmi10-3b" transform="translate(2163.604297 0.705729)"/>
     <use xlink:href="#Cmr10-34" transform="translate(2208.848437 0.705729)"/>
     <use xlink:href="#DejaVuSerif-29" transform="translate(2258.848437 0.705729)"/>
     <use xlink:href="#DejaVuSerif-2c" transform="translate(2297.862109 0.705729)"/>
     <use xlink:href="#DejaVuSerif-20" transform="translate(2329.649219 0.705729)"/>
     <use xlink:href="#DejaVuSerif-73" transform="translate(2361.436328 0.705729)"/>
     <use xlink:href="#DejaVuSerif-75" transform="translate(2412.754687 0.705729)"/>
     <use xlink:href="#DejaVuSerif-63" transform="translate(2477.158984 0.705729)"/>
     <use xlink:href="#DejaVuSerif-68" transform="translate(2533.164844 0.705729)"/>
     <use xlink:href="#DejaVuSerif-20" transform="translate(2597.569141 0.705729)"/>
     <use xlink:href="#DejaVuSerif-74" transform="translate(2629.35625 0.705729)"/>
     <use xlink:href="#DejaVuSerif-68" transform="translate(2669.541797 0.705729)"/>
     <use xlink:href="#DejaVuSerif-61" transform="translate(2733.946094 0.705729)"/>
     <use xlink:href="#DejaVuSerif-74" transform="translate(2793.565234 0.705729)"/>
     <use xlink:href="#DejaVuSerif-20" transform="translate(2833.750781 0.705729)"/>
     <use xlink:href="#Cmmi10-61" transform="translate(2865.537891 0.705729)"/>
     <use xlink:href="#Cmr10-31" transform="translate(2918.321094 -16.300521) scale(0.7)"/>
     <use xlink:href="#Cmmi10-62" transform="translate(2959.698437 0.705729)"/>
     <use xlink:href="#Cmr10-32" transform="translate(3002.618359 -16.300521) scale(0.7)"/>
     <use xlink:href="#Cmsy10-a1" transform="translate(3061.554297 0.705729)"/>
     <use xlink:href="#Cmmi10-61" transform="translate(3156.798437 0.705729)"/>
     <use xlink:href="#Cmr10-32" transform="translate(3209.581641 -16.300521) scale(0.7)"/>
     <use xlink:href="#Cmmi10-62" transform="translate(3250.958984 0.705729)"/>
     <use xlink:href="#Cmr10-31" transform="translate(3293.878906 -16.300521) scale(0.7)"/>
     <use xlink:href="#STIXGeneral-Regular-2260" transform="translate(3352.814844 0.705729)"/>
     <use xlink:href="#Cmr10-30" transform="translate(3438.873422 0.705729)"/>
     <use xlink:href="#DejaVuSerif-2e" transform="translate(3488.873422 0.705729)"/>
     <use xlink:href="#DejaVuSerif-20" transform="translate(3520.660532 0.705729)"/>
     <use xlink:href="#DejaVuSerif-43" transform="translate(3552.447641 0.705729)"/>
     <use xlink:href="#DejaVuSerif-6f" transform="translate(3628.961313 0.705729)"/>
     <use xlink:href="#DejaVuSerif-6e" transform="translate(3689.166391 0.705729)"/>
     <use xlink:href="#DejaVuSerif-73" transform="translate(3753.570688 0.705729)"/>
     <use xlink:href="#DejaVuSerif-69" transform="translate(3804.889047 0.705729)"/>
     <use xlink:href="#DejaVuSerif-64" transform="translate(3836.871469 0.705729)"/>
     <use xlink:href="#DejaVuSerif-65" transform="translate(3900.885141 0.705729)"/>
     <use xlink:href="#DejaVuSerif-72" transform="translate(3960.064828 0.705729)"/>
     <use xlink:href="#DejaVuSerif-20" transform="translate(4007.867563 0.705729)"/>
     <use xlink:href="#DejaVuSerif-74" transform="translate(4039.654672 0.705729)"/>
     <use xlink:href="#DejaVuSerif-68" transform="translate(4079.840219 0.705729)"/>
     <use xlink:href="#DejaVuSerif-65" transform="translate(4144.244516 0.705729)"/>
     <use xlink:href="#DejaVuSerif-20" transform="translate(4203.424203 0.705729)"/>
     <use xlink:href="#DejaVuSerif-73" transform="translate(4235.211313 0.705729)"/>
     <use xlink:href="#DejaVuSerif-65" transform="translate(4286.529672 0.705729)"/>
     <use xlink:href="#DejaVuSerif-74" transform="translate(4345.70936 0.705729)"/>
     <use xlink:href="#DejaVuSerif-20" transform="translate(4385.894907 0.705729)"/>
     <use xlink:href="#DejaVuSerif-6f" transform="translate(4417.682016 0.705729)"/>
     <use xlink:href="#DejaVuSerif-66" transform="translate(4477.887094 0.705729)"/>
     <use xlink:href="#DejaVuSerif-20" transform="translate(4514.898813 0.705729)"/>
     <use xlink:href="#DejaVuSerif-61" transform="translate(4546.685922 0.705729)"/>
     <use xlink:href="#DejaVuSerif-6c" transform="translate(4606.305063 0.705729)"/>
     <use xlink:href="#DejaVuSerif-6c" transform="translate(4638.287485 0.705729)"/>
     <use xlink:href="#DejaVuSerif-20" transform="translate(4670.269907 0.705729)"/>
     <use xlink:href="#DejaVuSerif-73" transform="translate(4702.057016 0.705729)"/>
     <use xlink:href="#DejaVuSerif-6f" transform="translate(4753.375375 0.705729)"/>
     <use xlink:href="#DejaVuSerif-6c" transform="translate(4813.580453 0.705729)"/>
     <use xlink:href="#DejaVuSerif-75" transform="translate(4845.562875 0.705729)"/>
     <use xlink:href="#DejaVuSerif-74" transform="translate(4909.967172 0.705729)"/>
     <use xlink:href="#DejaVuSerif-69" transform="translate(4950.152719 0.705729)"/>
     <use xlink:href="#DejaVuSerif-6f" transform="translate(4982.135141 0.705729)"/>
     <use xlink:href="#DejaVuSerif-6e" transform="translate(5042.340219 0.705729)"/>
     <use xlink:href="#DejaVuSerif-73" transform="translate(5106.744516 0.705729)"/>
     <use xlink:href="#DejaVuSerif-20" transform="translate(5158.062875 0.705729)"/>
     <use xlink:href="#Cmr10-28" transform="translate(5189.849985 0.705729)"/>
     <use xlink:href="#Cmmi10-78" transform="translate(5228.668344 0.705729)"/>
     <use xlink:href="#Cmr10-31" transform="translate(5285.748422 -16.300521) scale(0.7)"/>
     <use xlink:href="#Cmmi10-3b" transform="translate(5327.125766 0.705729)"/>
     <use xlink:href="#Cmmi10-78" transform="translate(5372.369907 0.705729)"/>
     <use xlink:href="#Cmr10-32" transform="translate(5429.449985 -16.300521) scale(0.7)"/>
     <use xlink:href="#Cmmi10-3b" transform="translate(5470.827328 0.705729)"/>
     <use xlink:href="#Cmmi10-78" transform="translate(5516.071469 0.705729)"/>
     <use xlink:href="#Cmr10-33" transform="translate(5573.151547 -16.300521) scale(0.7)"/>
     <use xlink:href="#Cmmi10-3b" transform="translate(5614.528891 0.705729)"/>
     <use xlink:href="#Cmmi10-78" transform="translate(5659.773032 0.705729)"/>
     <use xlink:href="#Cmr10-34" transform="translate(5716.85311 -16.300521) scale(0.7)"/>
     <use xlink:href="#Cmr10-29" transform="translate(5758.230453 0.705729)"/>
     <use xlink:href="#DejaVuSerif-20" transform="translate(5797.048813 0.705729)"/>
     <use xlink:href="#DejaVuSerif-6f" transform="translate(5828.835922 0.705729)"/>
     <use xlink:href="#DejaVuSerif-66" transform="translate(5889.041 0.705729)"/>
     <use xlink:href="#DejaVuSerif-20" transform="translate(5926.052719 0.705729)"/>
     <use xlink:href="#DejaVuSerif-74" transform="translate(5957.839828 0.705729)"/>
     <use xlink:href="#DejaVuSerif-68" transform="translate(5998.025375 0.705729)"/>
     <use xlink:href="#DejaVuSerif-65" transform="translate(6062.429672 0.705729)"/>
     <use xlink:href="#DejaVuSerif-20" transform="translate(6121.60936 0.705729)"/>
     <use xlink:href="#DejaVuSerif-73" transform="translate(6153.396469 0.705729)"/>
     <use xlink:href="#DejaVuSerif-69" transform="translate(6204.714828 0.705729)"/>
     <use xlink:href="#DejaVuSerif-6d" transform="translate(6236.69725 0.705729)"/>
     <use xlink:href="#DejaVuSerif-75" transform="translate(6331.521469 0.705729)"/>
     <use xlink:href="#DejaVuSerif-6c" transform="translate(6395.925766 0.705729)"/>
     <use xlink:href="#DejaVuSerif-74" transform="translate(6427.908188 0.705729)"/>
     <use xlink:href="#DejaVuSerif-61" transform="translate(6468.093735 0.705729)"/>
     <use xlink:href="#DejaVuSerif-6e" transform="translate(6527.712875 0.705729)"/>
     <use xlink:href="#DejaVuSerif-65" transform="translate(6592.117172 0.705729)"/>
     <use xlink:href="#DejaVuSerif-6f" transform="translate(6651.29686 0.705729)"/>
     <use xlink:href="#DejaVuSerif-75" transform="translate(6711.501938 0.705729)"/>
     <use xlink:href="#DejaVuSerif-73" transform="translate(6775.906235 0.705729)"/>
     <use xlink:href="#DejaVuSerif-20" transform="translate(6827.224594 0.705729)"/>
     <use xlink:href="#DejaVuSerif-65" transform="translate(6859.011703 0.705729)"/>
     <use xlink:href="#DejaVuSerif-71" transform="translate(6918.191391 0.705729)"/>
     <use xlink:href="#DejaVuSerif-75" transform="translate(6982.205063 0.705729)"/>
     <use xlink:href="#DejaVuSerif-61" transform="translate(7046.60936 0.705729)"/>
     <use xlink:href="#DejaVuSerif-74" transform="translate(7106.2285 0.705729)"/>
     <use xlink:href="#DejaVuSerif-69" transform="translate(7146.414047 0.705729)"/>
     <use xlink:href="#DejaVuSerif-6f" transform="translate(7178.396469 0.705729)"/>
     <use xlink:href="#DejaVuSerif-6e" transform="translate(7238.601547 0.705729)"/>
     <use xlink:href="#DejaVuSerif-73" transform="translate(7303.005844 0.705729)"/>
     <use xlink:href="#DejaVuSerif-20" transform="translate(7354.324203 0.705729)"/>
     <use xlink:href="#Cmmi10-61" transform="translate(7386.111313 0.705729)"/>
     <use xlink:href="#Cmr10-31" transform="translate(7438.894516 -16.300521) scale(0.7)"/>
     <use xlink:href="#Cmmi10-78" transform="translate(7480.27186 0.705729)"/>
     <use xlink:href="#Cmr10-31" transform="translate(7537.351938 -16.300521) scale(0.7)"/>
     <use xlink:href="#Cmr10-2b" transform="translate(7596.287875 0.705729)"/>
     <use xlink:href="#Cmmi10-61" transform="translate(7691.532016 0.705729)"/>
     <use xlink:href="#Cmr10-32" transform="translate(7744.315219 -16.300521) scale(0.7)"/>
     <use xlink:href="#Cmmi10-78" transform="translate(7785.692563 0.705729)"/>
     <use xlink:href="#Cmr10-32" transform="translate(7842.772641 -16.300521) scale(0.7)"/>
     <use xlink:href="#Cmr10-2b" transform="translate(7901.708578 0.705729)"/>
     <use xlink:href="#Cmmi10-61" transform="translate(7996.952719 0.705729)"/>
     <use xlink:href="#Cmr10-33" transform="translate(8049.735922 -16.300521) scale(0.7)"/>
     <use xlink:href="#Cmmi10-78" transform="translate(8091.113266 0.705729)"/>
     <use xlink:href="#Cmr10-33" transform="translate(8148.193344 -16.300521) scale(0.7)"/>
     <use xlink:href="#Cmr10-2b" transform="translate(8207.129282 0.705729)"/>
     <use xlink:href="#Cmmi10-61" transform="translate(8302.373422 0.705729)"/>
     <use xlink:href="#Cmr10-34" transform="translate(8355.156625 -16.300521) scale(0.7)"/>
     <use xlink:href="#Cmmi10-78" transform="translate(8396.533969 0.705729)"/>
     <use xlink:href="#Cmr10-34" transform="translate(8453.614047 -16.300521) scale(0.7)"/>
     <use xlink:href="#Cmr10-3d" transform="translate(8512.549985 0.705729)"/>
     <use xlink:href="#Cmr10-30" transform="translate(8607.794125 0.705729)"/>
     <use xlink:href="#DejaVuSerif-20" transform="translate(8657.794125 0.705729)"/>
     <use xlink:href="#DejaVuSerif-61" transform="translate(8689.581235 0.705729)"/>
     <use xlink:href="#DejaVuSerif-6e" transform="translate(8749.200375 0.705729)"/>
     <use xlink:href="#DejaVuSerif-64" transform="translate(8813.604672 0.705729)"/>
     <use xlink:href="#DejaVuSerif-20" transform="translate(8877.618344 0.705729)"/>
     <use xlink:href="#Cmmi10-62" transform="translate(8909.405453 0.705729)"/>
     <use xlink:href="#Cmr10-31" transform="translate(8952.325375 -16.300521) scale(0.7)"/>
     <use xlink:href="#Cmmi10-78" transform="translate(8993.702719 0.705729)"/>
     <use xlink:href="#Cmr10-31" transform="translate(9050.782797 -16.300521) scale(0.7)"/>
     <use xlink:href="#Cmr10-2b" transform="translate(9109.718735 0.705729)"/>
     <use xlink:href="#Cmmi10-62" transform="translate(9204.962875 0.705729)"/>
     <use xlink:href="#Cmr10-32" transform="translate(9247.882797 -16.300521) scale(0.7)"/>
     <use xlink:href="#Cmmi10-78" transform="translate(9289.260141 0.705729)"/>
     <use xlink:href="#Cmr10-32" transform="translate(9346.340219 -16.300521) scale(0.7)"/>
     <use xlink:href="#Cmr10-2b" transform="translate(9405.276157 0.705729)"/>
     <use xlink:href="#Cmmi10-62" transform="translate(9500.520297 0.705729)"/>
     <use xlink:href="#Cmr10-33" transform="translate(9543.440219 -16.300521) scale(0.7)"/>
     <use xlink:href="#Cmmi10-78" transform="translate(9584.817563 0.705729)"/>
     <use xlink:href="#Cmr10-33" transform="translate(9641.897641 -16.300521) scale(0.7)"/>
     <use xlink:href="#Cmr10-2b" transform="translate(9700.833578 0.705729)"/>
     <use xlink:href="#Cmmi10-62" transform="translate(9796.077719 0.705729)"/>
     <use xlink:href="#Cmr10-34" transform="translate(9838.997641 -16.300521) scale(0.7)"/>
     <use xlink:href="#Cmmi10-78" transform="translate(9880.374985 0.705729)"/>
     <use xlink:href="#Cmr10-34" transform="translate(9937.455063 -16.300521) scale(0.7)"/>
     <use xlink:href="#Cmr10-3d" transform="translate(9996.391 0.705729)"/>
     <use xlink:href="#Cmr10-30" transform="translate(10091.635141 0.705729)"/>
     <use xlink:href="#DejaVuSerif-2c" transform="translate(10141.635141 0.705729)"/>
     <use xlink:href="#DejaVuSerif-20" transform="translate(10173.42225 0.705729)"/>
     <use xlink:href="#DejaVuSerif-66" transform="translate(10205.20936 0.705729)"/>
     <use xlink:href="#DejaVuSerif-6f" transform="translate(10242.221078 0.705729)"/>
     <use xlink:href="#DejaVuSerif-72" transform="translate(10302.426157 0.705729)"/>
     <use xlink:href="#DejaVuSerif-20" transform="translate(10350.228891 0.705729)"/>
     <use xlink:href="#DejaVuSerif-77" transform="translate(10382.016 0.705729)"/>
     <use xlink:href="#DejaVuSerif-68" transform="translate(10467.611703 0.705729)"/>
     <use xlink:href="#DejaVuSerif-69" transform="translate(10532.016 0.705729)"/>
     <use xlink:href="#DejaVuSerif-63" transform="translate(10563.998422 0.705729)"/>
     <use xlink:href="#DejaVuSerif-68" transform="translate(10620.004282 0.705729)"/>
     <use xlink:href="#DejaVuSerif-20" transform="translate(10684.408578 0.705729)"/>
     <use xlink:href="#DejaVuSerif-6e" transform="translate(10716.195688 0.705729)"/>
     <use xlink:href="#DejaVuSerif-6f" transform="translate(10780.599985 0.705729)"/>
     <use xlink:href="#DejaVuSerif-20" transform="translate(10840.805063 0.705729)"/>
     <use xlink:href="#Cmmi10-78" transform="translate(10872.592172 0.705729)"/>
     <use xlink:href="#Cmmi10-69" transform="translate(10929.67225 -16.300521) scale(0.7)"/>
     <use xlink:href="#DejaVuSerif-20" transform="translate(10960.146274 0.705729)"/>
     <use xlink:href="#DejaVuSerif-28" transform="translate(10991.933383 0.705729)"/>
     <use xlink:href="#Cmmi10-69" transform="translate(11030.947055 0.705729)"/>
     <use xlink:href="#Cmr10-3d" transform="translate(11082.929477 0.705729)"/>
     <use xlink:href="#Cmr10-31" transform="translate(11178.173618 0.705729)"/>
     <use xlink:href="#Cmmi10-3b" transform="translate(11228.173618 0.705729)"/>
     <use xlink:href="#Cmr10-32" transform="translate(11273.417758 0.705729)"/>
     <use xlink:href="#Cmmi10-3b" transform="translate(11323.417758 0.705729)"/>
     <use xlink:href="#Cmr10-33" transform="translate(11368.661899 0.705729)"/>
     <use xlink:href="#Cmmi10-3b" transform="translate(11418.661899 0.705729)"/>
     <use xlink:href="#Cmr10-34" transform="translate(11463.906039 0.705729)"/>
     <use xlink:href="#DejaVuSerif-29" transform="translate(11513.906039 0.705729)"/>
     <use xlink:href="#DejaVuSerif-20" transform="translate(11552.919711 0.705729)"/>
     <use xlink:href="#DejaVuSerif-69" transform="translate(11584.706821 0.705729)"/>
     <use xlink:href="#DejaVuSerif-73" transform="translate(11616.689243 0.705729)"/>
     <use xlink:href="#DejaVuSerif-20" transform="translate(11668.007602 0.705729)"/>
     <use xlink:href="#DejaVuSerif-7a" transform="translate(11699.794711 0.705729)"/>
     <use xlink:href="#DejaVuSerif-65" transform="translate(11752.480258 0.705729)"/>
     <use xlink:href="#DejaVuSerif-72" transform="translate(11811.659946 0.705729)"/>
     <use xlink:href="#DejaVuSerif-6f" transform="translate(11859.46268 0.705729)"/>
     <use xlink:href="#DejaVuSerif-2e" transform="translate(11919.667758 0.705729)"/>
     <use xlink:href="#DejaVuSerif-20" transform="translate(11951.454868 0.705729)"/>
     <use xlink:href="#DejaVuSerif-45" transform="translate(11983.241977 0.705729)"/>
     <use xlink:href="#DejaVuSerif-61" transform="translate(12056.240024 0.705729)"/>
     <use xlink:href="#DejaVuSerif-63" transform="translate(12115.859164 0.705729)"/>
     <use xlink:href="#DejaVuSerif-68" transform="translate(12171.865024 0.705729)"/>
     <use xlink:href="#DejaVuSerif-20" transform="translate(12236.269321 0.705729)"/>
     <use xlink:href="#DejaVuSerif-73" transform="translate(12268.05643 0.705729)"/>
     <use xlink:href="#DejaVuSerif-75" transform="translate(12319.374789 0.705729)"/>
     <use xlink:href="#DejaVuSerif-63" transform="translate(12383.779086 0.705729)"/>
     <use xlink:href="#DejaVuSerif-68" transform="translate(12439.784946 0.705729)"/>
     <use xlink:href="#DejaVuSerif-20" transform="translate(12504.189243 0.705729)"/>
     <use xlink:href="#DejaVuSerif-73" transform="translate(12535.976352 0.705729)"/>
     <use xlink:href="#DejaVuSerif-6f" transform="translate(12587.294711 0.705729)"/>
     <use xlink:href="#DejaVuSerif-6c" transform="translate(12647.499789 0.705729)"/>
     <use xlink:href="#DejaVuSerif-75" transform="translate(12679.482211 0.705729)"/>
     <use xlink:href="#DejaVuSerif-74" transform="translate(12743.886508 0.705729)"/>
     <use xlink:href="#DejaVuSerif-69" transform="translate(12784.072055 0.705729)"/>
     <use xlink:href="#DejaVuSerif-6f" transform="translate(12816.054477 0.705729)"/>
     <use xlink:href="#DejaVuSerif-6e" transform="translate(12876.259555 0.705729)"/>
     <use xlink:href="#DejaVuSerif-20" transform="translate(12940.663852 0.705729)"/>
     <use xlink:href="#DejaVuSerif-67" transform="translate(12972.450961 0.705729)"/>
     <use xlink:href="#DejaVuSerif-65" transform="translate(13036.464633 0.705729)"/>
     <use xlink:href="#DejaVuSerif-6e" transform="translate(13095.644321 0.705729)"/>
     <use xlink:href="#DejaVuSerif-65" transform="translate(13160.048618 0.705729)"/>
     <use xlink:href="#DejaVuSerif-72" transform="translate(13219.228305 0.705729)"/>
     <use xlink:href="#DejaVuSerif-61" transform="translate(13267.031039 0.705729)"/>
     <use xlink:href="#DejaVuSerif-74" transform="translate(13326.65018 0.705729)"/>
     <use xlink:href="#DejaVuSerif-65" transform="translate(13366.835727 0.705729)"/>
     <use xlink:href="#DejaVuSerif-73" transform="translate(13426.015414 0.705729)"/>
     <use xlink:href="#DejaVuSerif-20" transform="translate(13477.333774 0.705729)"/>
     <use xlink:href="#DejaVuSerif-61" transform="translate(13509.120883 0.705729)"/>
     <use xlink:href="#DejaVuSerif-20" transform="translate(13568.740024 0.705729)"/>
     <use xlink:href="#Cmr10-34" transform="translate(13600.527133 0.705729)"/>
     <use xlink:href="#DejaVuSerif-2d" transform="translate(13650.527133 0.705729)"/>
     <use xlink:href="#DejaVuSerif-74" transform="translate(13684.316196 0.705729)"/>
     <use xlink:href="#DejaVuSerif-75" transform="translate(13724.501743 0.705729)"/>
     <use xlink:href="#DejaVuSerif-70" transform="translate(13788.906039 0.705729)"/>
     <use xlink:href="#DejaVuSerif-6c" transform="translate(13852.919711 0.705729)"/>
     <use xlink:href="#DejaVuSerif-65" transform="translate(13884.902133 0.705729)"/>
     <use xlink:href="#DejaVuSerif-20" transform="translate(13944.081821 0.705729)"/>
     <use xlink:href="#DejaVuSerif-6f" transform="translate(13975.86893 0.705729)"/>
     <use xlink:href="#DejaVuSerif-66" transform="translate(14036.074008 0.705729)"/>
     <use xlink:href="#DejaVuSerif-20" transform="translate(14073.085727 0.705729)"/>
     <use xlink:href="#DejaVuSerif-70" transform="translate(14104.872836 0.705729)"/>
     <use xlink:href="#DejaVuSerif-6c" transform="translate(14168.886508 0.705729)"/>
     <use xlink:href="#DejaVuSerif-75" transform="translate(14200.86893 0.705729)"/>
     <use xlink:href="#DejaVuSerif-73" transform="translate(14265.273227 0.705729)"/>
     <use xlink:href="#DejaVuSerif-20" transform="translate(14316.591586 0.705729)"/>
     <use xlink:href="#DejaVuSerif-61" transform="translate(14348.378696 0.705729)"/>
     <use xlink:href="#DejaVuSerif-6e" transform="translate(14407.997836 0.705729)"/>
     <use xlink:href="#DejaVuSerif-64" transform="translate(14472.402133 0.705729)"/>
     <use xlink:href="#DejaVuSerif-20" transform="translate(14536.415805 0.705729)"/>
     <use xlink:href="#DejaVuSerif-6d" transform="translate(14568.202914 0.705729)"/>
     <use xlink:href="#DejaVuSerif-69" transform="translate(14663.027133 0.705729)"/>
     <use xlink:href="#DejaVuSerif-6e" transform="translate(14695.009555 0.705729)"/>
     <use xlink:href="#DejaVuSerif-75" transform="translate(14759.413852 0.705729)"/>
     <use xlink:href="#DejaVuSerif-73" transform="translate(14823.818149 0.705729)"/>
     <use xlink:href="#DejaVuSerif-20" transform="translate(14875.136508 0.705729)"/>
     <use xlink:href="#DejaVuSerif-73" transform="translate(14906.923618 0.705729)"/>
     <use xlink:href="#DejaVuSerif-69" transform="translate(14958.241977 0.705729)"/>
     <use xlink:href="#DejaVuSerif-67" transform="translate(14990.224399 0.705729)"/>
     <use xlink:href="#DejaVuSerif-6e" transform="translate(15054.238071 0.705729)"/>
     <use xlink:href="#DejaVuSerif-73" transform="translate(15118.642368 0.705729)"/>
     <use xlink:href="#DejaVuSerif-20" transform="translate(15169.960727 0.705729)"/>
     <use xlink:href="#Cmr10-28" transform="translate(15201.747836 0.705729)"/>
     <use xlink:href="#Cmr10-73" transform="translate(15240.566196 0.705729)"/>
     <use xlink:href="#Cmr10-69" transform="translate(15279.970493 0.705729)"/>
     <use xlink:href="#Cmr10-67" transform="translate(15307.656039 0.705729)"/>
     <use xlink:href="#Cmr10-6e" transform="translate(15357.656039 0.705729)"/>
     <use xlink:href="#Cmr10-75" transform="translate(15413.173618 0.705729)"/>
     <use xlink:href="#Cmr10-6d" transform="translate(15468.691196 0.705729)"/>
     <use xlink:href="#Cmmi10-78" transform="translate(15551.991977 0.705729)"/>
     <use xlink:href="#Cmr10-31" transform="translate(15609.072055 -16.300521) scale(0.7)"/>
     <use xlink:href="#Cmmi10-3b" transform="translate(15650.449399 0.705729)"/>
     <use xlink:href="#Cmr10-73" transform="translate(15695.693539 0.705729)"/>
     <use xlink:href="#Cmr10-69" transform="translate(15735.097836 0.705729)"/>
     <use xlink:href="#Cmr10-67" transform="translate(15762.783383 0.705729)"/>
     <use xlink:href="#Cmr10-6e" transform="translate(15812.783383 0.705729)"/>
     <use xlink:href="#Cmr10-75" transform="translate(15868.300961 0.705729)"/>
     <use xlink:href="#Cmr10-6d" transform="translate(15923.818539 0.705729)"/>
     <use xlink:href="#Cmmi10-78" transform="translate(16007.119321 0.705729)"/>
     <use xlink:href="#Cmr10-32" transform="translate(16064.199399 -16.300521) scale(0.7)"/>
     <use xlink:href="#Cmmi10-3b" transform="translate(16105.576743 0.705729)"/>
     <use xlink:href="#Cmr10-73" transform="translate(16150.820883 0.705729)"/>
     <use xlink:href="#Cmr10-69" transform="translate(16190.22518 0.705729)"/>
     <use xlink:href="#Cmr10-67" transform="translate(16217.910727 0.705729)"/>
     <use xlink:href="#Cmr10-6e" transform="translate(16267.910727 0.705729)"/>
     <use xlink:href="#Cmr10-75" transform="translate(16323.428305 0.705729)"/>
     <use xlink:href="#Cmr10-6d" transform="translate(16378.945883 0.705729)"/>
     <use xlink:href="#Cmmi10-78" transform="translate(16462.246664 0.705729)"/>
     <use xlink:href="#Cmr10-33" transform="translate(16519.326743 -16.300521) scale(0.7)"/>
     <use xlink:href="#Cmmi10-3b" transform="translate(16560.704086 0.705729)"/>
     <use xlink:href="#Cmr10-73" transform="translate(16605.948227 0.705729)"/>
     <use xlink:href="#Cmr10-69" transform="translate(16645.352524 0.705729)"/>
     <use xlink:href="#Cmr10-67" transform="translate(16673.038071 0.705729)"/>
     <use xlink:href="#Cmr10-6e" transform="translate(16723.038071 0.705729)"/>
     <use xlink:href="#Cmr10-75" transform="translate(16778.555649 0.705729)"/>
     <use xlink:href="#Cmr10-6d" transform="translate(16834.073227 0.705729)"/>
     <use xlink:href="#Cmmi10-78" transform="translate(16917.374008 0.705729)"/>
     <use xlink:href="#Cmr10-34" transform="translate(16974.454086 -16.300521) scale(0.7)"/>
     <use xlink:href="#Cmr10-29" transform="translate(17015.83143 0.705729)"/>
     <use xlink:href="#DejaVuSerif-2e" transform="translate(17054.649789 0.705729)"/>
     <use xlink:href="#DejaVuSerif-20" transform="translate(17086.436899 0.705729)"/>
     <use xlink:href="#DejaVuSerif-44" transform="translate(17118.224008 0.705729)"/>
     <use xlink:href="#DejaVuSerif-65" transform="translate(17198.399789 0.705729)"/>
     <use xlink:href="#DejaVuSerif-74" transform="translate(17257.579477 0.705729)"/>
     <use xlink:href="#DejaVuSerif-65" transform="translate(17297.765024 0.705729)"/>
     <use xlink:href="#DejaVuSerif-72" transform="translate(17356.944711 0.705729)"/>
     <use xlink:href="#DejaVuSerif-6d" transform="translate(17404.747446 0.705729)"/>
     <use xlink:href="#DejaVuSerif-69" transform="translate(17499.571664 0.705729)"/>
     <use xlink:href="#DejaVuSerif-6e" transform="translate(17531.554086 0.705729)"/>
     <use xlink:href="#DejaVuSerif-65" transform="translate(17595.958383 0.705729)"/>
     <use xlink:href="#DejaVuSerif-2c" transform="translate(17655.138071 0.705729)"/>
     <use xlink:href="#DejaVuSerif-20" transform="translate(17686.92518 0.705729)"/>
     <use xlink:href="#DejaVuSerif-77" transform="translate(17718.712289 0.705729)"/>
     <use xlink:href="#DejaVuSerif-69" transform="translate(17804.307993 0.705729)"/>
     <use xlink:href="#DejaVuSerif-74" transform="translate(17836.290414 0.705729)"/>
     <use xlink:href="#DejaVuSerif-68" transform="translate(17876.475961 0.705729)"/>
     <use xlink:href="#DejaVuSerif-20" transform="translate(17940.880258 0.705729)"/>
     <use xlink:href="#DejaVuSerif-61" transform="translate(17972.667368 0.705729)"/>
     <use xlink:href="#DejaVuSerif-20" transform="translate(18032.286508 0.705729)"/>
     <use xlink:href="#DejaVuSerif-70" transform="translate(18064.073618 0.705729)"/>
     <use xlink:href="#DejaVuSerif-72" transform="translate(18128.087289 0.705729)"/>
     <use xlink:href="#DejaVuSerif-6f" transform="translate(18175.890024 0.705729)"/>
     <use xlink:href="#DejaVuSerif-6f" transform="translate(18236.095102 0.705729)"/>
     <use xlink:href="#DejaVuSerif-66" transform="translate(18296.30018 0.705729)"/>
     <use xlink:href="#DejaVuSerif-2c" transform="translate(18333.311899 0.705729)"/>
     <use xlink:href="#DejaVuSerif-20" transform="translate(18365.099008 0.705729)"/>
     <use xlink:href="#DejaVuSerif-74" transform="translate(18396.886118 0.705729)"/>
     <use xlink:href="#DejaVuSerif-68" transform="translate(18437.071664 0.705729)"/>
     <use xlink:href="#DejaVuSerif-65" transform="translate(18501.475961 0.705729)"/>
     <use xlink:href="#DejaVuSerif-20" transform="translate(18560.655649 0.705729)"/>
     <use xlink:href="#DejaVuSerif-6d" transform="translate(18592.442758 0.705729)"/>
     <use xlink:href="#DejaVuSerif-61" transform="translate(18687.266977 0.705729)"/>
     <use xlink:href="#DejaVuSerif-78" transform="translate(18746.886118 0.705729)"/>
     <use xlink:href="#DejaVuSerif-69" transform="translate(18803.282602 0.705729)"/>
     <use xlink:href="#DejaVuSerif-6d" transform="translate(18835.265024 0.705729)"/>
     <use xlink:href="#DejaVuSerif-75" transform="translate(18930.089243 0.705729)"/>
     <use xlink:href="#DejaVuSerif-6d" transform="translate(18994.493539 0.705729)"/>
     <use xlink:href="#DejaVuSerif-20" transform="translate(19089.317758 0.705729)"/>
     <use xlink:href="#DejaVuSerif-6e" transform="translate(19121.104868 0.705729)"/>
     <use xlink:href="#DejaVuSerif-75" transform="translate(19185.509164 0.705729)"/>
     <use xlink:href="#DejaVuSerif-6d" transform="translate(19249.913461 0.705729)"/>
     <use xlink:href="#DejaVuSerif-62" transform="translate(19344.73768 0.705729)"/>
     <use xlink:href="#DejaVuSerif-65" transform="translate(19408.751352 0.705729)"/>
     <use xlink:href="#DejaVuSerif-72" transform="translate(19467.931039 0.705729)"/>
     <use xlink:href="#DejaVuSerif-20" transform="translate(19515.733774 0.705729)"/>
     <use xlink:href="#DejaVuSerif-6f" transform="translate(19547.520883 0.705729)"/>
     <use xlink:href="#DejaVuSerif-66" transform="translate(19607.725961 0.705729)"/>
     <use xlink:href="#DejaVuSerif-20" transform="translate(19644.73768 0.705729)"/>
     <use xlink:href="#DejaVuSerif-64" transform="translate(19676.524789 0.705729)"/>
     <use xlink:href="#DejaVuSerif-69" transform="translate(19740.538461 0.705729)"/>
     <use xlink:href="#DejaVuSerif-73" transform="translate(19772.520883 0.705729)"/>
     <use xlink:href="#DejaVuSerif-74" transform="translate(19823.839243 0.705729)"/>
     <use xlink:href="#DejaVuSerif-69" transform="translate(19864.024789 0.705729)"/>
     <use xlink:href="#DejaVuSerif-6e" transform="translate(19896.007211 0.705729)"/>
     <use xlink:href="#DejaVuSerif-63" transform="translate(19960.411508 0.705729)"/>
     <use xlink:href="#DejaVuSerif-74" transform="translate(20016.417368 0.705729)"/>
     <use xlink:href="#DejaVuSerif-20" transform="translate(20056.602914 0.705729)"/>
     <use xlink:href="#Cmr10-34" transform="translate(20088.390024 0.705729)"/>
     <use xlink:href="#DejaVuSerif-2d" transform="translate(20138.390024 0.705729)"/>
     <use xlink:href="#DejaVuSerif-74" transform="translate(20172.179086 0.705729)"/>
     <use xlink:href="#DejaVuSerif-75" transform="translate(20212.364633 0.705729)"/>
     <use xlink:href="#DejaVuSerif-70" transform="translate(20276.76893 0.705729)"/>
     <use xlink:href="#DejaVuSerif-6c" transform="translate(20340.782602 0.705729)"/>
     <use xlink:href="#DejaVuSerif-65" transform="translate(20372.765024 0.705729)"/>
     <use xlink:href="#DejaVuSerif-73" transform="translate(20431.944711 0.705729)"/>
     <use xlink:href="#DejaVuSerif-20" transform="translate(20483.263071 0.705729)"/>
     <use xlink:href="#DejaVuSerif-70" transform="translate(20515.05018 0.705729)"/>
     <use xlink:href="#DejaVuSerif-6f" transform="translate(20579.063852 0.705729)"/>
     <use xlink:href="#DejaVuSerif-73" transform="translate(20639.26893 0.705729)"/>
     <use xlink:href="#DejaVuSerif-73" transform="translate(20690.587289 0.705729)"/>
     <use xlink:href="#DejaVuSerif-69" transform="translate(20741.905649 0.705729)"/>
     <use xlink:href="#DejaVuSerif-62" transform="translate(20773.888071 0.705729)"/>
     <use xlink:href="#DejaVuSerif-6c" transform="translate(20837.901743 0.705729)"/>
     <use xlink:href="#DejaVuSerif-65" transform="translate(20869.884164 0.705729)"/>
     <use xlink:href="#DejaVuSerif-2e" transform="translate(20929.063852 0.705729)"/>
    </g>
   </g>
  </g>
 </g>
</svg>
