<?xml version="1.0" encoding="utf-8" standalone="no"?>
<!DOCTYPE svg PUBLIC "-//W3C//DTD SVG 1.1//EN"
  "http://www.w3.org/Graphics/SVG/1.1/DTD/svg11.dtd">
<svg xmlns:xlink="http://www.w3.org/1999/xlink" width="1500.12pt" height="180.72pt" viewBox="0 0 1500.12 180.72" xmlns="http://www.w3.org/2000/svg" version="1.1">
 <metadata>
  <rdf:RDF xmlns:dc="http://purl.org/dc/elements/1.1/" xmlns:cc="http://creativecommons.org/ns#" xmlns:rdf="http://www.w3.org/1999/02/22-rdf-syntax-ns#">
   <cc:Work>
    <dc:type rdf:resource="http://purl.org/dc/dcmitype/StillImage"/>
    <dc:date>2025-05-29T18:44:15.041117</dc:date>
    <dc:format>image/svg+xml</dc:format>
    <dc:creator>
     <cc:Agent>
      <dc:title>Matplotlib v3.10.3, https://matplotlib.org/</dc:title>
     </cc:Agent>
    </dc:creator>
   </cc:Work>
  </rdf:RDF>
 </metadata>
 <defs>
  <style type="text/css">*{stroke-linejoin: round; stroke-linecap: butt}</style>
 </defs>
 <g id="figure_1">
  <g id="patch_1">
   <path d="M -0 180.72 
L 1500.12 180.72 
L 1500.12 0 
L -0 0 
z
" style="fill: #ffffff"/>
  </g>
  <g id="axes_1">
   <g id="text_1">
    <!-- Find the smallest positive integer $j$ such that for every polynomial $p(x)$ with integer coefficients and for every integer $k$, the integer \[ p^{(j)}(k) = \leqft. \frac{d^j}{dx^j} p(x) \right|_{x=k} \] (the $j$-th derivative of $p(x)$ at $k$) is divisible by 2016. -->
    <g transform="translate(7.2 93.48) scale(0.12 -0.12)">
     <defs>
      <path id="DejaVuSerif-46" d="M 353 0 
L 353 331 
L 947 331 
L 947 4331 
L 353 4331 
L 353 4666 
L 4172 4666 
L 4172 3628 
L 3788 3628 
L 3788 4281 
L 1581 4281 
L 1581 2719 
L 3175 2719 
L 3175 3303 
L 3559 3303 
L 3559 1753 
L 3175 1753 
L 3175 2338 
L 1581 2338 
L 1581 331 
L 2328 331 
L 2328 0 
L 353 0 
z
" transform="scale(0.015625)"/>
      <path id="DejaVuSerif-69" d="M 622 4353 
Q 622 4497 726 4603 
Q 831 4709 978 4709 
Q 1122 4709 1226 4603 
Q 1331 4497 1331 4353 
Q 1331 4206 1228 4103 
Q 1125 4000 978 4000 
Q 831 4000 726 4103 
Q 622 4206 622 4353 
z
M 1356 331 
L 1900 331 
L 1900 0 
L 231 0 
L 231 331 
L 781 331 
L 781 2988 
L 231 2988 
L 231 3322 
L 1356 3322 
L 1356 331 
z
" transform="scale(0.015625)"/>
      <path id="DejaVuSerif-6e" d="M 263 0 
L 263 331 
L 781 331 
L 781 2988 
L 231 2988 
L 231 3322 
L 1356 3322 
L 1356 2731 
Q 1516 3069 1770 3241 
Q 2025 3413 2363 3413 
Q 2913 3413 3172 3097 
Q 3431 2781 3431 2113 
L 3431 331 
L 3944 331 
L 3944 0 
L 2356 0 
L 2356 331 
L 2853 331 
L 2853 1931 
Q 2853 2541 2703 2767 
Q 2553 2994 2175 2994 
Q 1775 2994 1565 2701 
Q 1356 2409 1356 1850 
L 1356 331 
L 1856 331 
L 1856 0 
L 263 0 
z
" transform="scale(0.015625)"/>
      <path id="DejaVuSerif-64" d="M 3359 331 
L 3909 331 
L 3909 0 
L 2784 0 
L 2784 519 
Q 2616 206 2355 57 
Q 2094 -91 1709 -91 
Q 1097 -91 708 395 
Q 319 881 319 1663 
Q 319 2444 706 2928 
Q 1094 3413 1709 3413 
Q 2094 3413 2355 3264 
Q 2616 3116 2784 2803 
L 2784 4531 
L 2241 4531 
L 2241 4863 
L 3359 4863 
L 3359 331 
z
M 2784 1497 
L 2784 1825 
Q 2784 2422 2554 2737 
Q 2325 3053 1888 3053 
Q 1444 3053 1217 2703 
Q 991 2353 991 1663 
Q 991 975 1217 622 
Q 1444 269 1888 269 
Q 2325 269 2554 583 
Q 2784 897 2784 1497 
z
" transform="scale(0.015625)"/>
      <path id="DejaVuSerif-20" transform="scale(0.015625)"/>
      <path id="DejaVuSerif-74" d="M 691 2988 
L 184 2988 
L 184 3322 
L 691 3322 
L 691 4353 
L 1269 4353 
L 1269 3322 
L 2350 3322 
L 2350 2988 
L 1269 2988 
L 1269 878 
Q 1269 456 1350 337 
Q 1431 219 1650 219 
Q 1875 219 1978 351 
Q 2081 484 2088 781 
L 2522 781 
Q 2497 328 2275 118 
Q 2053 -91 1600 -91 
Q 1103 -91 897 129 
Q 691 350 691 878 
L 691 2988 
z
" transform="scale(0.015625)"/>
      <path id="DejaVuSerif-68" d="M 263 0 
L 263 331 
L 781 331 
L 781 4531 
L 231 4531 
L 231 4863 
L 1356 4863 
L 1356 2731 
Q 1516 3069 1770 3241 
Q 2025 3413 2363 3413 
Q 2913 3413 3172 3097 
Q 3431 2781 3431 2113 
L 3431 331 
L 3944 331 
L 3944 0 
L 2356 0 
L 2356 331 
L 2853 331 
L 2853 1931 
Q 2853 2541 2704 2764 
Q 2556 2988 2175 2988 
Q 1775 2988 1565 2697 
Q 1356 2406 1356 1850 
L 1356 331 
L 1856 331 
L 1856 0 
L 263 0 
z
" transform="scale(0.015625)"/>
      <path id="DejaVuSerif-65" d="M 3469 1600 
L 991 1600 
L 991 1575 
Q 991 903 1244 561 
Q 1497 219 1991 219 
Q 2369 219 2611 417 
Q 2853 616 2950 1006 
L 3413 1006 
Q 3275 459 2904 184 
Q 2534 -91 1931 -91 
Q 1203 -91 761 389 
Q 319 869 319 1663 
Q 319 2450 753 2931 
Q 1188 3413 1894 3413 
Q 2647 3413 3050 2948 
Q 3453 2484 3469 1600 
z
M 2791 1931 
Q 2772 2513 2545 2808 
Q 2319 3103 1894 3103 
Q 1497 3103 1269 2806 
Q 1041 2509 991 1931 
L 2791 1931 
z
" transform="scale(0.015625)"/>
      <path id="DejaVuSerif-73" d="M 359 184 
L 359 959 
L 691 959 
Q 703 588 923 403 
Q 1144 219 1575 219 
Q 1963 219 2166 364 
Q 2369 509 2369 788 
Q 2369 1006 2220 1140 
Q 2072 1275 1594 1428 
L 1178 1569 
Q 750 1706 558 1912 
Q 366 2119 366 2438 
Q 366 2894 700 3153 
Q 1034 3413 1625 3413 
Q 1888 3413 2178 3344 
Q 2469 3275 2778 3144 
L 2778 2419 
L 2447 2419 
Q 2434 2741 2221 2922 
Q 2009 3103 1644 3103 
Q 1281 3103 1095 2975 
Q 909 2847 909 2591 
Q 909 2381 1050 2254 
Q 1191 2128 1613 1997 
L 2069 1856 
Q 2541 1709 2748 1489 
Q 2956 1269 2956 922 
Q 2956 450 2595 179 
Q 2234 -91 1600 -91 
Q 1278 -91 972 -22 
Q 666 47 359 184 
z
" transform="scale(0.015625)"/>
      <path id="DejaVuSerif-6d" d="M 3316 2675 
Q 3481 3041 3739 3227 
Q 3997 3413 4341 3413 
Q 4863 3413 5119 3089 
Q 5375 2766 5375 2113 
L 5375 331 
L 5894 331 
L 5894 0 
L 4300 0 
L 4300 331 
L 4800 331 
L 4800 2047 
Q 4800 2556 4650 2772 
Q 4500 2988 4153 2988 
Q 3769 2988 3567 2697 
Q 3366 2406 3366 1850 
L 3366 331 
L 3866 331 
L 3866 0 
L 2291 0 
L 2291 331 
L 2791 331 
L 2791 2069 
Q 2791 2566 2641 2777 
Q 2491 2988 2144 2988 
Q 1759 2988 1557 2697 
Q 1356 2406 1356 1850 
L 1356 331 
L 1856 331 
L 1856 0 
L 263 0 
L 263 331 
L 781 331 
L 781 2994 
L 231 2994 
L 231 3322 
L 1356 3322 
L 1356 2731 
Q 1516 3063 1762 3238 
Q 2009 3413 2322 3413 
Q 2709 3413 2968 3220 
Q 3228 3028 3316 2675 
z
" transform="scale(0.015625)"/>
      <path id="DejaVuSerif-61" d="M 2547 1044 
L 2547 1747 
L 1806 1747 
Q 1378 1747 1168 1562 
Q 959 1378 959 997 
Q 959 650 1171 447 
Q 1384 244 1747 244 
Q 2106 244 2326 466 
Q 2547 688 2547 1044 
z
M 3122 2075 
L 3122 331 
L 3634 331 
L 3634 0 
L 2547 0 
L 2547 359 
Q 2356 128 2106 18 
Q 1856 -91 1522 -91 
Q 969 -91 644 203 
Q 319 497 319 997 
Q 319 1513 691 1797 
Q 1063 2081 1741 2081 
L 2547 2081 
L 2547 2309 
Q 2547 2688 2317 2895 
Q 2088 3103 1672 3103 
Q 1328 3103 1125 2947 
Q 922 2791 872 2484 
L 575 2484 
L 575 3156 
Q 875 3284 1158 3348 
Q 1441 3413 1709 3413 
Q 2400 3413 2761 3070 
Q 3122 2728 3122 2075 
z
" transform="scale(0.015625)"/>
      <path id="DejaVuSerif-6c" d="M 1313 331 
L 1856 331 
L 1856 0 
L 184 0 
L 184 331 
L 738 331 
L 738 4531 
L 184 4531 
L 184 4863 
L 1313 4863 
L 1313 331 
z
" transform="scale(0.015625)"/>
      <path id="DejaVuSerif-70" d="M 1313 1825 
L 1313 1497 
Q 1313 897 1542 583 
Q 1772 269 2209 269 
Q 2650 269 2876 622 
Q 3103 975 3103 1663 
Q 3103 2353 2876 2703 
Q 2650 3053 2209 3053 
Q 1772 3053 1542 2737 
Q 1313 2422 1313 1825 
z
M 738 2988 
L 184 2988 
L 184 3322 
L 1313 3322 
L 1313 2803 
Q 1481 3116 1742 3264 
Q 2003 3413 2388 3413 
Q 3000 3413 3387 2928 
Q 3775 2444 3775 1663 
Q 3775 881 3387 395 
Q 3000 -91 2388 -91 
Q 2003 -91 1742 57 
Q 1481 206 1313 519 
L 1313 -997 
L 1856 -997 
L 1856 -1331 
L 184 -1331 
L 184 -997 
L 738 -997 
L 738 2988 
z
" transform="scale(0.015625)"/>
      <path id="DejaVuSerif-6f" d="M 1925 219 
Q 2388 219 2623 584 
Q 2859 950 2859 1663 
Q 2859 2375 2623 2739 
Q 2388 3103 1925 3103 
Q 1463 3103 1227 2739 
Q 991 2375 991 1663 
Q 991 950 1228 584 
Q 1466 219 1925 219 
z
M 1925 -91 
Q 1200 -91 759 389 
Q 319 869 319 1663 
Q 319 2456 758 2934 
Q 1197 3413 1925 3413 
Q 2653 3413 3092 2934 
Q 3531 2456 3531 1663 
Q 3531 869 3092 389 
Q 2653 -91 1925 -91 
z
" transform="scale(0.015625)"/>
      <path id="DejaVuSerif-76" d="M 1581 0 
L 359 2988 
L -19 2988 
L -19 3322 
L 1509 3322 
L 1509 2988 
L 978 2988 
L 1913 703 
L 2847 2988 
L 2350 2988 
L 2350 3322 
L 3597 3322 
L 3597 2988 
L 3225 2988 
L 2003 0 
L 1581 0 
z
" transform="scale(0.015625)"/>
      <path id="DejaVuSerif-67" d="M 3359 2988 
L 3359 72 
Q 3359 -644 2965 -1033 
Q 2572 -1422 1844 -1422 
Q 1516 -1422 1216 -1362 
Q 916 -1303 641 -1184 
L 641 -488 
L 941 -488 
Q 997 -813 1206 -963 
Q 1416 -1113 1806 -1113 
Q 2313 -1113 2548 -827 
Q 2784 -541 2784 72 
L 2784 519 
Q 2616 206 2355 57 
Q 2094 -91 1709 -91 
Q 1097 -91 708 395 
Q 319 881 319 1663 
Q 319 2444 706 2928 
Q 1094 3413 1709 3413 
Q 2094 3413 2355 3264 
Q 2616 3116 2784 2803 
L 2784 3322 
L 3909 3322 
L 3909 2988 
L 3359 2988 
z
M 2784 1825 
Q 2784 2422 2554 2737 
Q 2325 3053 1888 3053 
Q 1444 3053 1217 2703 
Q 991 2353 991 1663 
Q 991 975 1217 622 
Q 1444 269 1888 269 
Q 2325 269 2554 583 
Q 2784 897 2784 1497 
L 2784 1825 
z
" transform="scale(0.015625)"/>
      <path id="DejaVuSerif-72" d="M 3059 3328 
L 3059 2497 
L 2728 2497 
Q 2713 2744 2591 2866 
Q 2469 2988 2234 2988 
Q 1809 2988 1582 2694 
Q 1356 2400 1356 1850 
L 1356 331 
L 2022 331 
L 2022 0 
L 263 0 
L 263 331 
L 781 331 
L 781 2994 
L 231 2994 
L 231 3322 
L 1356 3322 
L 1356 2731 
Q 1525 3078 1790 3245 
Q 2056 3413 2438 3413 
Q 2578 3413 2733 3391 
Q 2888 3369 3059 3328 
z
" transform="scale(0.015625)"/>
      <path id="Cmmi10-6a" d="M -84 -909 
Q -84 -753 23 -639 
Q 131 -525 288 -525 
Q 391 -525 461 -589 
Q 531 -653 531 -756 
Q 531 -878 454 -976 
Q 378 -1075 263 -1106 
Q 375 -1147 488 -1147 
Q 759 -1147 959 -895 
Q 1159 -644 1241 -331 
L 1844 2075 
Q 1888 2259 1888 2388 
Q 1888 2663 1697 2663 
Q 1416 2663 1205 2408 
Q 994 2153 863 1819 
Q 850 1778 813 1778 
L 738 1778 
Q 684 1778 684 1838 
L 684 1856 
Q 828 2241 1093 2534 
Q 1359 2828 1709 2828 
Q 1975 2828 2145 2662 
Q 2316 2497 2316 2241 
Q 2316 2150 2297 2059 
L 1691 -372 
Q 1625 -631 1440 -847 
Q 1256 -1063 1000 -1188 
Q 744 -1313 475 -1313 
Q 259 -1313 87 -1209 
Q -84 -1106 -84 -909 
z
M 1941 3878 
Q 1941 4019 2050 4125 
Q 2159 4231 2297 4231 
Q 2406 4231 2476 4164 
Q 2547 4097 2547 3994 
Q 2547 3850 2433 3742 
Q 2319 3634 2181 3634 
Q 2078 3634 2009 3706 
Q 1941 3778 1941 3878 
z
" transform="scale(0.015625)"/>
      <path id="DejaVuSerif-75" d="M 2266 3322 
L 3341 3322 
L 3341 331 
L 3884 331 
L 3884 0 
L 2766 0 
L 2766 588 
Q 2606 256 2353 82 
Q 2100 -91 1766 -91 
Q 1213 -91 952 223 
Q 691 538 691 1209 
L 691 2988 
L 172 2988 
L 172 3322 
L 1269 3322 
L 1269 1388 
Q 1269 781 1417 556 
Q 1566 331 1947 331 
Q 2347 331 2556 625 
Q 2766 919 2766 1478 
L 2766 2988 
L 2266 2988 
L 2266 3322 
z
" transform="scale(0.015625)"/>
      <path id="DejaVuSerif-63" d="M 3291 997 
Q 3169 466 2822 187 
Q 2475 -91 1925 -91 
Q 1200 -91 759 389 
Q 319 869 319 1663 
Q 319 2459 759 2936 
Q 1200 3413 1925 3413 
Q 2241 3413 2553 3339 
Q 2866 3266 3181 3116 
L 3181 2266 
L 2847 2266 
Q 2781 2703 2561 2903 
Q 2341 3103 1931 3103 
Q 1466 3103 1228 2742 
Q 991 2381 991 1663 
Q 991 944 1227 581 
Q 1463 219 1931 219 
Q 2303 219 2525 412 
Q 2747 606 2828 997 
L 3291 997 
z
" transform="scale(0.015625)"/>
      <path id="DejaVuSerif-66" d="M 2753 4078 
L 2450 4078 
Q 2447 4313 2317 4434 
Q 2188 4556 1941 4556 
Q 1619 4556 1487 4379 
Q 1356 4203 1356 3750 
L 1356 3322 
L 2284 3322 
L 2284 2988 
L 1356 2988 
L 1356 331 
L 2094 331 
L 2094 0 
L 231 0 
L 231 331 
L 781 331 
L 781 2988 
L 231 2988 
L 231 3322 
L 781 3322 
L 781 3738 
Q 781 4294 1070 4578 
Q 1359 4863 1919 4863 
Q 2128 4863 2337 4825 
Q 2547 4788 2753 4709 
L 2753 4078 
z
" transform="scale(0.015625)"/>
      <path id="DejaVuSerif-79" d="M 1381 -609 
L 1600 -56 
L 359 2988 
L -19 2988 
L -19 3322 
L 1509 3322 
L 1509 2988 
L 978 2988 
L 1913 703 
L 2847 2988 
L 2350 2988 
L 2350 3322 
L 3597 3322 
L 3597 2988 
L 3225 2988 
L 1703 -750 
Q 1547 -1138 1356 -1280 
Q 1166 -1422 819 -1422 
Q 672 -1422 517 -1397 
Q 363 -1372 206 -1325 
L 206 -691 
L 500 -691 
Q 519 -903 608 -995 
Q 697 -1088 884 -1088 
Q 1056 -1088 1161 -992 
Q 1266 -897 1381 -609 
z
" transform="scale(0.015625)"/>
      <path id="Cmmi10-70" d="M -159 -1241 
Q -219 -1241 -219 -1159 
Q -197 -1019 -134 -1019 
Q 66 -1019 145 -983 
Q 225 -947 269 -800 
L 991 2081 
Q 1038 2200 1038 2388 
Q 1038 2663 850 2663 
Q 650 2663 553 2423 
Q 456 2184 366 1819 
Q 366 1778 313 1778 
L 238 1778 
Q 222 1778 203 1801 
Q 184 1825 184 1844 
Q 253 2122 317 2315 
Q 381 2509 517 2668 
Q 653 2828 856 2828 
Q 1075 2828 1240 2704 
Q 1406 2581 1453 2369 
Q 1628 2572 1840 2700 
Q 2053 2828 2278 2828 
Q 2547 2828 2745 2684 
Q 2944 2541 3044 2308 
Q 3144 2075 3144 1806 
Q 3144 1394 2933 953 
Q 2722 513 2361 220 
Q 2000 -72 1588 -72 
Q 1400 -72 1248 34 
Q 1097 141 1013 313 
L 722 -825 
Q 706 -919 703 -934 
Q 703 -1019 1125 -1019 
Q 1191 -1019 1191 -1100 
Q 1169 -1184 1155 -1212 
Q 1141 -1241 1081 -1241 
L -159 -1241 
z
M 1594 97 
Q 1816 97 2006 280 
Q 2197 463 2316 691 
Q 2403 863 2479 1111 
Q 2556 1359 2612 1640 
Q 2669 1922 2669 2088 
Q 2669 2234 2630 2362 
Q 2591 2491 2502 2577 
Q 2413 2663 2266 2663 
Q 2031 2663 1823 2495 
Q 1616 2328 1447 2081 
L 1447 2059 
L 1094 647 
Q 1138 419 1263 258 
Q 1388 97 1594 97 
z
" transform="scale(0.015625)"/>
      <path id="Cmr10-28" d="M 1984 -1588 
Q 1628 -1306 1370 -942 
Q 1113 -578 948 -165 
Q 784 247 703 697 
Q 622 1147 622 1600 
Q 622 2059 703 2509 
Q 784 2959 951 3375 
Q 1119 3791 1378 4153 
Q 1638 4516 1984 4788 
Q 1984 4800 2016 4800 
L 2075 4800 
Q 2094 4800 2109 4783 
Q 2125 4766 2125 4744 
Q 2125 4716 2113 4703 
Q 1800 4397 1592 4047 
Q 1384 3697 1257 3301 
Q 1131 2906 1075 2482 
Q 1019 2059 1019 1600 
Q 1019 -434 2106 -1491 
Q 2125 -1509 2125 -1544 
Q 2125 -1559 2108 -1579 
Q 2091 -1600 2075 -1600 
L 2016 -1600 
Q 1984 -1600 1984 -1588 
z
" transform="scale(0.015625)"/>
      <path id="Cmmi10-78" d="M 500 184 
Q 613 97 819 97 
Q 1019 97 1172 289 
Q 1325 481 1381 709 
L 1672 1844 
Q 1741 2153 1741 2266 
Q 1741 2425 1652 2544 
Q 1563 2663 1403 2663 
Q 1200 2663 1022 2536 
Q 844 2409 722 2214 
Q 600 2019 550 1819 
Q 538 1778 500 1778 
L 422 1778 
Q 372 1778 372 1838 
L 372 1856 
Q 434 2094 584 2320 
Q 734 2547 951 2687 
Q 1169 2828 1416 2828 
Q 1650 2828 1839 2703 
Q 2028 2578 2106 2363 
Q 2216 2559 2386 2693 
Q 2556 2828 2759 2828 
Q 2897 2828 3040 2779 
Q 3184 2731 3275 2631 
Q 3366 2531 3366 2381 
Q 3366 2219 3261 2101 
Q 3156 1984 2994 1984 
Q 2891 1984 2822 2050 
Q 2753 2116 2753 2216 
Q 2753 2350 2845 2451 
Q 2938 2553 3066 2572 
Q 2950 2663 2747 2663 
Q 2541 2663 2389 2472 
Q 2238 2281 2175 2047 
L 1894 916 
Q 1825 659 1825 494 
Q 1825 331 1917 214 
Q 2009 97 2163 97 
Q 2463 97 2698 361 
Q 2934 625 3009 941 
Q 3022 978 3059 978 
L 3138 978 
Q 3163 978 3178 961 
Q 3194 944 3194 922 
Q 3194 916 3188 903 
Q 3097 522 2806 225 
Q 2516 -72 2150 -72 
Q 1916 -72 1727 54 
Q 1538 181 1459 397 
Q 1359 209 1182 68 
Q 1006 -72 806 -72 
Q 669 -72 523 -23 
Q 378 25 287 125 
Q 197 225 197 378 
Q 197 528 301 651 
Q 406 775 563 775 
Q 669 775 741 711 
Q 813 647 813 544 
Q 813 409 723 309 
Q 634 209 500 184 
z
" transform="scale(0.015625)"/>
      <path id="Cmr10-29" d="M 416 -1600 
Q 359 -1600 359 -1544 
Q 359 -1516 372 -1503 
Q 1466 -434 1466 1600 
Q 1466 3634 384 4691 
Q 359 4706 359 4744 
Q 359 4766 376 4783 
Q 394 4800 416 4800 
L 475 4800 
Q 494 4800 506 4788 
Q 966 4425 1272 3906 
Q 1578 3388 1720 2800 
Q 1863 2213 1863 1600 
Q 1863 1147 1786 708 
Q 1709 269 1542 -157 
Q 1375 -584 1119 -945 
Q 863 -1306 506 -1588 
Q 494 -1600 475 -1600 
L 416 -1600 
z
" transform="scale(0.015625)"/>
      <path id="DejaVuSerif-77" d="M 3072 3322 
L 3922 728 
L 4672 2988 
L 4191 2988 
L 4191 3322 
L 5394 3322 
L 5394 2988 
L 5025 2988 
L 4038 0 
L 3559 0 
L 2741 2484 
L 1919 0 
L 1459 0 
L 475 2988 
L 103 2988 
L 103 3322 
L 1606 3322 
L 1606 2988 
L 1069 2988 
L 1813 728 
L 2669 3322 
L 3072 3322 
z
" transform="scale(0.015625)"/>
      <path id="Cmmi10-6b" d="M 341 116 
Q 341 153 347 172 
L 1275 3872 
Q 1300 3981 1306 4044 
Q 1306 4147 891 4147 
Q 825 4147 825 4231 
Q 828 4247 839 4287 
Q 850 4328 867 4350 
Q 884 4372 916 4372 
L 1778 4441 
L 1797 4441 
Q 1797 4434 1819 4423 
Q 1841 4413 1844 4409 
Q 1856 4378 1856 4359 
L 1184 1684 
Q 1416 1781 1767 2145 
Q 2119 2509 2317 2668 
Q 2516 2828 2816 2828 
Q 2994 2828 3119 2706 
Q 3244 2584 3244 2406 
Q 3244 2294 3197 2198 
Q 3150 2103 3065 2043 
Q 2981 1984 2869 1984 
Q 2766 1984 2695 2048 
Q 2625 2113 2625 2216 
Q 2625 2369 2733 2473 
Q 2841 2578 2994 2578 
Q 2931 2663 2803 2663 
Q 2613 2663 2436 2553 
Q 2259 2444 2054 2239 
Q 1850 2034 1681 1864 
Q 1513 1694 1369 1606 
Q 1747 1563 2025 1408 
Q 2303 1253 2303 934 
Q 2303 869 2278 769 
Q 2222 528 2222 384 
Q 2222 97 2419 97 
Q 2650 97 2770 350 
Q 2891 603 2969 941 
Q 2981 978 3022 978 
L 3097 978 
Q 3122 978 3139 962 
Q 3156 947 3156 922 
Q 3156 916 3150 903 
Q 2909 -72 2406 -72 
Q 2225 -72 2086 12 
Q 1947 97 1872 242 
Q 1797 388 1797 569 
Q 1797 672 1825 781 
Q 1844 856 1844 922 
Q 1844 1169 1625 1297 
Q 1406 1425 1125 1453 
L 800 147 
Q 775 50 703 -11 
Q 631 -72 538 -72 
Q 456 -72 398 -17 
Q 341 38 341 116 
z
" transform="scale(0.015625)"/>
      <path id="DejaVuSerif-2c" d="M 231 -622 
Q 525 -406 662 -114 
Q 800 178 800 594 
L 800 709 
L 1416 709 
Q 1391 175 1164 -208 
Q 938 -591 481 -872 
L 231 -622 
z
" transform="scale(0.015625)"/>
      <path id="DejaVuSerif-5c" d="M 500 4666 
L 2156 -594 
L 1656 -594 
L 0 4666 
L 500 4666 
z
" transform="scale(0.015625)"/>
      <path id="DejaVuSerif-5b" d="M 550 4863 
L 2003 4863 
L 2003 4531 
L 1147 4531 
L 1147 -513 
L 2003 -513 
L 2003 -844 
L 550 -844 
L 550 4863 
z
" transform="scale(0.015625)"/>
      <path id="DejaVuSerif-5e" d="M 2988 4666 
L 4684 2925 
L 4206 2925 
L 2681 4116 
L 1159 2925 
L 678 2925 
L 2375 4666 
L 2988 4666 
z
" transform="scale(0.015625)"/>
      <path id="DejaVuSerif-7b" d="M 3272 -716 
L 3272 -1044 
L 3078 -1044 
Q 2300 -1044 2036 -812 
Q 1772 -581 1772 109 
L 1772 916 
Q 1772 1384 1603 1565 
Q 1434 1747 991 1747 
L 800 1747 
L 800 2075 
L 991 2075 
Q 1434 2075 1603 2256 
Q 1772 2438 1772 2906 
L 1772 3713 
Q 1772 4403 2036 4633 
Q 2300 4863 3078 4863 
L 3272 4863 
L 3272 4538 
L 3059 4538 
Q 2619 4538 2484 4400 
Q 2350 4263 2350 3822 
L 2350 2925 
Q 2350 2431 2194 2218 
Q 2038 2006 1631 1913 
Q 2044 1806 2197 1597 
Q 2350 1388 2350 897 
L 2350 0 
Q 2350 -441 2484 -578 
Q 2619 -716 3059 -716 
L 3272 -716 
z
" transform="scale(0.015625)"/>
      <path id="DejaVuSerif-28" d="M 2041 -997 
Q 1281 -656 893 83 
Q 506 822 506 1931 
Q 506 3044 893 3783 
Q 1281 4522 2041 4863 
L 2041 4556 
Q 1559 4225 1350 3623 
Q 1141 3022 1141 1931 
Q 1141 844 1350 242 
Q 1559 -359 2041 -691 
L 2041 -997 
z
" transform="scale(0.015625)"/>
      <path id="DejaVuSerif-6a" d="M 641 4353 
Q 641 4497 745 4603 
Q 850 4709 997 4709 
Q 1141 4709 1245 4603 
Q 1350 4497 1350 4353 
Q 1350 4206 1248 4103 
Q 1147 4000 997 4000 
Q 850 4000 745 4103 
Q 641 4206 641 4353 
z
M 781 2988 
L 238 2988 
L 238 3322 
L 1356 3322 
L 1356 -325 
Q 1356 -838 1051 -1130 
Q 747 -1422 213 -1422 
Q -13 -1422 -217 -1370 
Q -422 -1319 -616 -1216 
L -616 -531 
L -319 -531 
Q -297 -831 -164 -972 
Q -31 -1113 225 -1113 
Q 509 -1113 645 -920 
Q 781 -728 781 -325 
L 781 2988 
z
" transform="scale(0.015625)"/>
      <path id="DejaVuSerif-29" d="M 453 -997 
L 453 -691 
Q 934 -359 1145 242 
Q 1356 844 1356 1931 
Q 1356 3022 1145 3623 
Q 934 4225 453 4556 
L 453 4863 
Q 1216 4522 1603 3783 
Q 1991 3044 1991 1931 
Q 1991 822 1603 83 
Q 1216 -656 453 -997 
z
" transform="scale(0.015625)"/>
      <path id="DejaVuSerif-7d" d="M 800 -716 
L 1019 -716 
Q 1456 -716 1589 -580 
Q 1722 -444 1722 0 
L 1722 897 
Q 1722 1388 1875 1597 
Q 2028 1806 2438 1913 
Q 2031 2006 1876 2218 
Q 1722 2431 1722 2925 
L 1722 3822 
Q 1722 4266 1589 4402 
Q 1456 4538 1019 4538 
L 800 4538 
L 800 4863 
L 997 4863 
Q 1775 4863 2036 4633 
Q 2297 4403 2297 3713 
L 2297 2906 
Q 2297 2438 2465 2256 
Q 2634 2075 3078 2075 
L 3272 2075 
L 3272 1747 
L 3078 1747 
Q 2634 1747 2465 1565 
Q 2297 1384 2297 916 
L 2297 109 
Q 2297 -581 2036 -812 
Q 1775 -1044 997 -1044 
L 800 -1044 
L 800 -716 
z
" transform="scale(0.015625)"/>
      <path id="DejaVuSerif-6b" d="M 1831 0 
L 219 0 
L 219 331 
L 738 331 
L 738 4531 
L 184 4531 
L 184 4863 
L 1313 4863 
L 1313 1697 
L 2713 2988 
L 2234 2988 
L 2234 3322 
L 3738 3322 
L 3738 2988 
L 3169 2988 
L 2181 2075 
L 3444 331 
L 3922 331 
L 3922 0 
L 2284 0 
L 2284 331 
L 2759 331 
L 1766 1697 
L 1313 1275 
L 1313 331 
L 1831 331 
L 1831 0 
z
" transform="scale(0.015625)"/>
      <path id="DejaVuSerif-3d" d="M 678 2894 
L 4684 2894 
L 4684 2394 
L 678 2394 
L 678 2894 
z
M 678 1619 
L 4684 1619 
L 4684 1119 
L 678 1119 
L 678 1619 
z
" transform="scale(0.015625)"/>
      <path id="DejaVuSerif-71" d="M 3359 2988 
L 3359 -997 
L 3909 -997 
L 3909 -1331 
L 2241 -1331 
L 2241 -997 
L 2784 -997 
L 2784 519 
Q 2616 206 2355 57 
Q 2094 -91 1709 -91 
Q 1097 -91 708 395 
Q 319 881 319 1663 
Q 319 2444 706 2928 
Q 1094 3413 1709 3413 
Q 2094 3413 2355 3264 
Q 2616 3116 2784 2803 
L 2784 3322 
L 3909 3322 
L 3909 2988 
L 3359 2988 
z
M 2784 1825 
Q 2784 2422 2554 2737 
Q 2325 3053 1888 3053 
Q 1444 3053 1217 2703 
Q 991 2353 991 1663 
Q 991 975 1217 622 
Q 1444 269 1888 269 
Q 2325 269 2554 583 
Q 2784 897 2784 1497 
L 2784 1825 
z
" transform="scale(0.015625)"/>
      <path id="DejaVuSerif-2e" d="M 603 325 
Q 603 500 722 622 
Q 841 744 1019 744 
Q 1191 744 1312 622 
Q 1434 500 1434 325 
Q 1434 153 1312 31 
Q 1191 -91 1019 -91 
Q 841 -91 722 29 
Q 603 150 603 325 
z
" transform="scale(0.015625)"/>
      <path id="DejaVuSerif-78" d="M 1863 2028 
L 2559 2988 
L 2113 2988 
L 2113 3322 
L 3391 3322 
L 3391 2988 
L 2950 2988 
L 2059 1759 
L 3097 331 
L 3531 331 
L 3531 0 
L 1997 0 
L 1997 331 
L 2419 331 
L 1697 1325 
L 972 331 
L 1403 331 
L 1403 0 
L 141 0 
L 141 331 
L 581 331 
L 1497 1594 
L 488 2988 
L 78 2988 
L 78 3322 
L 1563 3322 
L 1563 2988 
L 1166 2988 
L 1863 2028 
z
" transform="scale(0.015625)"/>
      <path id="DejaVuSerif-7c" d="M 1331 4891 
L 1331 -1509 
L 825 -1509 
L 825 4891 
L 1331 4891 
z
" transform="scale(0.015625)"/>
      <path id="DejaVuSerif-5f" d="M 3200 -1259 
L 3200 -1509 
L 0 -1509 
L 0 -1259 
L 3200 -1259 
z
" transform="scale(0.015625)"/>
      <path id="DejaVuSerif-5d" d="M 1947 4863 
L 1947 -844 
L 494 -844 
L 494 -513 
L 1350 -513 
L 1350 4531 
L 494 4531 
L 494 4863 
L 1947 4863 
z
" transform="scale(0.015625)"/>
      <path id="DejaVuSerif-2d" d="M 281 1959 
L 1881 1959 
L 1881 1472 
L 281 1472 
L 281 1959 
z
" transform="scale(0.015625)"/>
      <path id="DejaVuSerif-62" d="M 738 331 
L 738 4531 
L 184 4531 
L 184 4863 
L 1313 4863 
L 1313 2803 
Q 1481 3116 1742 3264 
Q 2003 3413 2388 3413 
Q 3000 3413 3387 2928 
Q 3775 2444 3775 1663 
Q 3775 881 3387 395 
Q 3000 -91 2388 -91 
Q 2003 -91 1742 57 
Q 1481 206 1313 519 
L 1313 0 
L 184 0 
L 184 331 
L 738 331 
z
M 1313 1497 
Q 1313 897 1542 583 
Q 1772 269 2209 269 
Q 2650 269 2876 622 
Q 3103 975 3103 1663 
Q 3103 2353 2876 2703 
Q 2650 3053 2209 3053 
Q 1772 3053 1542 2737 
Q 1313 2422 1313 1825 
L 1313 1497 
z
" transform="scale(0.015625)"/>
      <path id="DejaVuSerif-32" d="M 819 3553 
L 469 3553 
L 469 4384 
Q 803 4563 1142 4656 
Q 1481 4750 1806 4750 
Q 2534 4750 2956 4397 
Q 3378 4044 3378 3438 
Q 3378 2753 2422 1800 
Q 2347 1728 2309 1691 
L 1131 513 
L 3078 513 
L 3078 1088 
L 3444 1088 
L 3444 0 
L 434 0 
L 434 341 
L 1850 1753 
Q 2319 2222 2519 2614 
Q 2719 3006 2719 3438 
Q 2719 3909 2473 4175 
Q 2228 4441 1797 4441 
Q 1350 4441 1106 4219 
Q 863 3997 819 3553 
z
" transform="scale(0.015625)"/>
      <path id="DejaVuSerif-30" d="M 2034 219 
Q 2513 219 2750 744 
Q 2988 1269 2988 2328 
Q 2988 3391 2750 3916 
Q 2513 4441 2034 4441 
Q 1556 4441 1318 3916 
Q 1081 3391 1081 2328 
Q 1081 1269 1318 744 
Q 1556 219 2034 219 
z
M 2034 -91 
Q 1275 -91 848 546 
Q 422 1184 422 2328 
Q 422 3475 848 4112 
Q 1275 4750 2034 4750 
Q 2797 4750 3222 4112 
Q 3647 3475 3647 2328 
Q 3647 1184 3222 546 
Q 2797 -91 2034 -91 
z
" transform="scale(0.015625)"/>
      <path id="DejaVuSerif-31" d="M 909 0 
L 909 331 
L 1722 331 
L 1722 4213 
L 781 3603 
L 781 4013 
L 1919 4750 
L 2350 4750 
L 2350 331 
L 3163 331 
L 3163 0 
L 909 0 
z
" transform="scale(0.015625)"/>
      <path id="DejaVuSerif-36" d="M 2094 219 
Q 2534 219 2771 542 
Q 3009 866 3009 1472 
Q 3009 2078 2771 2401 
Q 2534 2725 2094 2725 
Q 1647 2725 1412 2412 
Q 1178 2100 1178 1509 
Q 1178 888 1415 553 
Q 1653 219 2094 219 
z
M 1075 2569 
Q 1288 2803 1556 2918 
Q 1825 3034 2163 3034 
Q 2859 3034 3264 2615 
Q 3669 2197 3669 1472 
Q 3669 763 3233 336 
Q 2797 -91 2069 -91 
Q 1278 -91 853 498 
Q 428 1088 428 2181 
Q 428 3406 931 4078 
Q 1434 4750 2350 4750 
Q 2597 4750 2869 4703 
Q 3141 4656 3425 4563 
L 3425 3794 
L 3072 3794 
Q 3034 4109 2831 4275 
Q 2628 4441 2284 4441 
Q 1678 4441 1381 3981 
Q 1084 3522 1075 2569 
z
" transform="scale(0.015625)"/>
     </defs>
     <use xlink:href="#DejaVuSerif-46" transform="translate(0 0.578125)"/>
     <use xlink:href="#DejaVuSerif-69" transform="translate(69.384766 0.578125)"/>
     <use xlink:href="#DejaVuSerif-6e" transform="translate(101.367188 0.578125)"/>
     <use xlink:href="#DejaVuSerif-64" transform="translate(165.771484 0.578125)"/>
     <use xlink:href="#DejaVuSerif-20" transform="translate(229.785156 0.578125)"/>
     <use xlink:href="#DejaVuSerif-74" transform="translate(261.572266 0.578125)"/>
     <use xlink:href="#DejaVuSerif-68" transform="translate(301.757812 0.578125)"/>
     <use xlink:href="#DejaVuSerif-65" transform="translate(366.162109 0.578125)"/>
     <use xlink:href="#DejaVuSerif-20" transform="translate(425.341797 0.578125)"/>
     <use xlink:href="#DejaVuSerif-73" transform="translate(457.128906 0.578125)"/>
     <use xlink:href="#DejaVuSerif-6d" transform="translate(508.447266 0.578125)"/>
     <use xlink:href="#DejaVuSerif-61" transform="translate(603.271484 0.578125)"/>
     <use xlink:href="#DejaVuSerif-6c" transform="translate(662.890625 0.578125)"/>
     <use xlink:href="#DejaVuSerif-6c" transform="translate(694.873047 0.578125)"/>
     <use xlink:href="#DejaVuSerif-65" transform="translate(726.855469 0.578125)"/>
     <use xlink:href="#DejaVuSerif-73" transform="translate(786.035156 0.578125)"/>
     <use xlink:href="#DejaVuSerif-74" transform="translate(837.353516 0.578125)"/>
     <use xlink:href="#DejaVuSerif-20" transform="translate(877.539062 0.578125)"/>
     <use xlink:href="#DejaVuSerif-70" transform="translate(909.326172 0.578125)"/>
     <use xlink:href="#DejaVuSerif-6f" transform="translate(973.339844 0.578125)"/>
     <use xlink:href="#DejaVuSerif-73" transform="translate(1033.544922 0.578125)"/>
     <use xlink:href="#DejaVuSerif-69" transform="translate(1084.863281 0.578125)"/>
     <use xlink:href="#DejaVuSerif-74" transform="translate(1116.845703 0.578125)"/>
     <use xlink:href="#DejaVuSerif-69" transform="translate(1157.03125 0.578125)"/>
     <use xlink:href="#DejaVuSerif-76" transform="translate(1189.013672 0.578125)"/>
     <use xlink:href="#DejaVuSerif-65" transform="translate(1245.507812 0.578125)"/>
     <use xlink:href="#DejaVuSerif-20" transform="translate(1304.6875 0.578125)"/>
     <use xlink:href="#DejaVuSerif-69" transform="translate(1336.474609 0.578125)"/>
     <use xlink:href="#DejaVuSerif-6e" transform="translate(1368.457031 0.578125)"/>
     <use xlink:href="#DejaVuSerif-74" transform="translate(1432.861328 0.578125)"/>
     <use xlink:href="#DejaVuSerif-65" transform="translate(1473.046875 0.578125)"/>
     <use xlink:href="#DejaVuSerif-67" transform="translate(1532.226562 0.578125)"/>
     <use xlink:href="#DejaVuSerif-65" transform="translate(1596.240234 0.578125)"/>
     <use xlink:href="#DejaVuSerif-72" transform="translate(1655.419922 0.578125)"/>
     <use xlink:href="#DejaVuSerif-20" transform="translate(1703.222656 0.578125)"/>
     <use xlink:href="#Cmmi10-6a" transform="translate(1735.009766 0.578125)"/>
     <use xlink:href="#DejaVuSerif-20" transform="translate(1776.123047 0.578125)"/>
     <use xlink:href="#DejaVuSerif-73" transform="translate(1807.910156 0.578125)"/>
     <use xlink:href="#DejaVuSerif-75" transform="translate(1859.228516 0.578125)"/>
     <use xlink:href="#DejaVuSerif-63" transform="translate(1923.632812 0.578125)"/>
     <use xlink:href="#DejaVuSerif-68" transform="translate(1979.638672 0.578125)"/>
     <use xlink:href="#DejaVuSerif-20" transform="translate(2044.042969 0.578125)"/>
     <use xlink:href="#DejaVuSerif-74" transform="translate(2075.830078 0.578125)"/>
     <use xlink:href="#DejaVuSerif-68" transform="translate(2116.015625 0.578125)"/>
     <use xlink:href="#DejaVuSerif-61" transform="translate(2180.419922 0.578125)"/>
     <use xlink:href="#DejaVuSerif-74" transform="translate(2240.039062 0.578125)"/>
     <use xlink:href="#DejaVuSerif-20" transform="translate(2280.224609 0.578125)"/>
     <use xlink:href="#DejaVuSerif-66" transform="translate(2312.011719 0.578125)"/>
     <use xlink:href="#DejaVuSerif-6f" transform="translate(2349.023438 0.578125)"/>
     <use xlink:href="#DejaVuSerif-72" transform="translate(2409.228516 0.578125)"/>
     <use xlink:href="#DejaVuSerif-20" transform="translate(2457.03125 0.578125)"/>
     <use xlink:href="#DejaVuSerif-65" transform="translate(2488.818359 0.578125)"/>
     <use xlink:href="#DejaVuSerif-76" transform="translate(2547.998047 0.578125)"/>
     <use xlink:href="#DejaVuSerif-65" transform="translate(2604.492188 0.578125)"/>
     <use xlink:href="#DejaVuSerif-72" transform="translate(2663.671875 0.578125)"/>
     <use xlink:href="#DejaVuSerif-79" transform="translate(2711.474609 0.578125)"/>
     <use xlink:href="#DejaVuSerif-20" transform="translate(2767.96875 0.578125)"/>
     <use xlink:href="#DejaVuSerif-70" transform="translate(2799.755859 0.578125)"/>
     <use xlink:href="#DejaVuSerif-6f" transform="translate(2863.769531 0.578125)"/>
     <use xlink:href="#DejaVuSerif-6c" transform="translate(2923.974609 0.578125)"/>
     <use xlink:href="#DejaVuSerif-79" transform="translate(2955.957031 0.578125)"/>
     <use xlink:href="#DejaVuSerif-6e" transform="translate(3012.451172 0.578125)"/>
     <use xlink:href="#DejaVuSerif-6f" transform="translate(3076.855469 0.578125)"/>
     <use xlink:href="#DejaVuSerif-6d" transform="translate(3137.060547 0.578125)"/>
     <use xlink:href="#DejaVuSerif-69" transform="translate(3231.884766 0.578125)"/>
     <use xlink:href="#DejaVuSerif-61" transform="translate(3263.867188 0.578125)"/>
     <use xlink:href="#DejaVuSerif-6c" transform="translate(3323.486328 0.578125)"/>
     <use xlink:href="#DejaVuSerif-20" transform="translate(3355.46875 0.578125)"/>
     <use xlink:href="#Cmmi10-70" transform="translate(3387.255859 0.578125)"/>
     <use xlink:href="#Cmr10-28" transform="translate(3437.548828 0.578125)"/>
     <use xlink:href="#Cmmi10-78" transform="translate(3476.367188 0.578125)"/>
     <use xlink:href="#Cmr10-29" transform="translate(3533.447266 0.578125)"/>
     <use xlink:href="#DejaVuSerif-20" transform="translate(3572.265625 0.578125)"/>
     <use xlink:href="#DejaVuSerif-77" transform="translate(3604.052734 0.578125)"/>
     <use xlink:href="#DejaVuSerif-69" transform="translate(3689.648438 0.578125)"/>
     <use xlink:href="#DejaVuSerif-74" transform="translate(3721.630859 0.578125)"/>
     <use xlink:href="#DejaVuSerif-68" transform="translate(3761.816406 0.578125)"/>
     <use xlink:href="#DejaVuSerif-20" transform="translate(3826.220703 0.578125)"/>
     <use xlink:href="#DejaVuSerif-69" transform="translate(3858.007812 0.578125)"/>
     <use xlink:href="#DejaVuSerif-6e" transform="translate(3889.990234 0.578125)"/>
     <use xlink:href="#DejaVuSerif-74" transform="translate(3954.394531 0.578125)"/>
     <use xlink:href="#DejaVuSerif-65" transform="translate(3994.580078 0.578125)"/>
     <use xlink:href="#DejaVuSerif-67" transform="translate(4053.759766 0.578125)"/>
     <use xlink:href="#DejaVuSerif-65" transform="translate(4117.773438 0.578125)"/>
     <use xlink:href="#DejaVuSerif-72" transform="translate(4176.953125 0.578125)"/>
     <use xlink:href="#DejaVuSerif-20" transform="translate(4224.755859 0.578125)"/>
     <use xlink:href="#DejaVuSerif-63" transform="translate(4256.542969 0.578125)"/>
     <use xlink:href="#DejaVuSerif-6f" transform="translate(4312.548828 0.578125)"/>
     <use xlink:href="#DejaVuSerif-65" transform="translate(4372.753906 0.578125)"/>
     <use xlink:href="#DejaVuSerif-66" transform="translate(4431.933594 0.578125)"/>
     <use xlink:href="#DejaVuSerif-66" transform="translate(4468.945312 0.578125)"/>
     <use xlink:href="#DejaVuSerif-69" transform="translate(4505.957031 0.578125)"/>
     <use xlink:href="#DejaVuSerif-63" transform="translate(4537.939453 0.578125)"/>
     <use xlink:href="#DejaVuSerif-69" transform="translate(4593.945312 0.578125)"/>
     <use xlink:href="#DejaVuSerif-65" transform="translate(4625.927734 0.578125)"/>
     <use xlink:href="#DejaVuSerif-6e" transform="translate(4685.107422 0.578125)"/>
     <use xlink:href="#DejaVuSerif-74" transform="translate(4749.511719 0.578125)"/>
     <use xlink:href="#DejaVuSerif-73" transform="translate(4789.697266 0.578125)"/>
     <use xlink:href="#DejaVuSerif-20" transform="translate(4841.015625 0.578125)"/>
     <use xlink:href="#DejaVuSerif-61" transform="translate(4872.802734 0.578125)"/>
     <use xlink:href="#DejaVuSerif-6e" transform="translate(4932.421875 0.578125)"/>
     <use xlink:href="#DejaVuSerif-64" transform="translate(4996.826172 0.578125)"/>
     <use xlink:href="#DejaVuSerif-20" transform="translate(5060.839844 0.578125)"/>
     <use xlink:href="#DejaVuSerif-66" transform="translate(5092.626953 0.578125)"/>
     <use xlink:href="#DejaVuSerif-6f" transform="translate(5129.638672 0.578125)"/>
     <use xlink:href="#DejaVuSerif-72" transform="translate(5189.84375 0.578125)"/>
     <use xlink:href="#DejaVuSerif-20" transform="translate(5237.646484 0.578125)"/>
     <use xlink:href="#DejaVuSerif-65" transform="translate(5269.433594 0.578125)"/>
     <use xlink:href="#DejaVuSerif-76" transform="translate(5328.613281 0.578125)"/>
     <use xlink:href="#DejaVuSerif-65" transform="translate(5385.107422 0.578125)"/>
     <use xlink:href="#DejaVuSerif-72" transform="translate(5444.287109 0.578125)"/>
     <use xlink:href="#DejaVuSerif-79" transform="translate(5492.089844 0.578125)"/>
     <use xlink:href="#DejaVuSerif-20" transform="translate(5548.583984 0.578125)"/>
     <use xlink:href="#DejaVuSerif-69" transform="translate(5580.371094 0.578125)"/>
     <use xlink:href="#DejaVuSerif-6e" transform="translate(5612.353516 0.578125)"/>
     <use xlink:href="#DejaVuSerif-74" transform="translate(5676.757812 0.578125)"/>
     <use xlink:href="#DejaVuSerif-65" transform="translate(5716.943359 0.578125)"/>
     <use xlink:href="#DejaVuSerif-67" transform="translate(5776.123047 0.578125)"/>
     <use xlink:href="#DejaVuSerif-65" transform="translate(5840.136719 0.578125)"/>
     <use xlink:href="#DejaVuSerif-72" transform="translate(5899.316406 0.578125)"/>
     <use xlink:href="#DejaVuSerif-20" transform="translate(5947.119141 0.578125)"/>
     <use xlink:href="#Cmmi10-6b" transform="translate(5978.90625 0.578125)"/>
     <use xlink:href="#DejaVuSerif-2c" transform="translate(6030.908203 0.578125)"/>
     <use xlink:href="#DejaVuSerif-20" transform="translate(6062.695312 0.578125)"/>
     <use xlink:href="#DejaVuSerif-74" transform="translate(6094.482422 0.578125)"/>
     <use xlink:href="#DejaVuSerif-68" transform="translate(6134.667969 0.578125)"/>
     <use xlink:href="#DejaVuSerif-65" transform="translate(6199.072266 0.578125)"/>
     <use xlink:href="#DejaVuSerif-20" transform="translate(6258.251953 0.578125)"/>
     <use xlink:href="#DejaVuSerif-69" transform="translate(6290.039062 0.578125)"/>
     <use xlink:href="#DejaVuSerif-6e" transform="translate(6322.021484 0.578125)"/>
     <use xlink:href="#DejaVuSerif-74" transform="translate(6386.425781 0.578125)"/>
     <use xlink:href="#DejaVuSerif-65" transform="translate(6426.611328 0.578125)"/>
     <use xlink:href="#DejaVuSerif-67" transform="translate(6485.791016 0.578125)"/>
     <use xlink:href="#DejaVuSerif-65" transform="translate(6549.804688 0.578125)"/>
     <use xlink:href="#DejaVuSerif-72" transform="translate(6608.984375 0.578125)"/>
     <use xlink:href="#DejaVuSerif-20" transform="translate(6656.787109 0.578125)"/>
     <use xlink:href="#DejaVuSerif-5c" transform="translate(6688.574219 0.578125)"/>
     <use xlink:href="#DejaVuSerif-5b" transform="translate(6722.265625 0.578125)"/>
     <use xlink:href="#DejaVuSerif-20" transform="translate(6761.279297 0.578125)"/>
     <use xlink:href="#DejaVuSerif-70" transform="translate(6793.066406 0.578125)"/>
     <use xlink:href="#DejaVuSerif-5e" transform="translate(6857.080078 0.578125)"/>
     <use xlink:href="#DejaVuSerif-7b" transform="translate(6940.869141 0.578125)"/>
     <use xlink:href="#DejaVuSerif-28" transform="translate(7004.492188 0.578125)"/>
     <use xlink:href="#DejaVuSerif-6a" transform="translate(7043.505859 0.578125)"/>
     <use xlink:href="#DejaVuSerif-29" transform="translate(7074.511719 0.578125)"/>
     <use xlink:href="#DejaVuSerif-7d" transform="translate(7113.525391 0.578125)"/>
     <use xlink:href="#DejaVuSerif-28" transform="translate(7177.148438 0.578125)"/>
     <use xlink:href="#DejaVuSerif-6b" transform="translate(7216.162109 0.578125)"/>
     <use xlink:href="#DejaVuSerif-29" transform="translate(7276.757812 0.578125)"/>
     <use xlink:href="#DejaVuSerif-20" transform="translate(7315.771484 0.578125)"/>
     <use xlink:href="#DejaVuSerif-3d" transform="translate(7347.558594 0.578125)"/>
     <use xlink:href="#DejaVuSerif-20" transform="translate(7431.347656 0.578125)"/>
     <use xlink:href="#DejaVuSerif-5c" transform="translate(7463.134766 0.578125)"/>
     <use xlink:href="#DejaVuSerif-6c" transform="translate(7496.826172 0.578125)"/>
     <use xlink:href="#DejaVuSerif-65" transform="translate(7528.808594 0.578125)"/>
     <use xlink:href="#DejaVuSerif-71" transform="translate(7587.988281 0.578125)"/>
     <use xlink:href="#DejaVuSerif-66" transform="translate(7652.001953 0.578125)"/>
     <use xlink:href="#DejaVuSerif-74" transform="translate(7689.013672 0.578125)"/>
     <use xlink:href="#DejaVuSerif-2e" transform="translate(7729.199219 0.578125)"/>
     <use xlink:href="#DejaVuSerif-20" transform="translate(7760.986328 0.578125)"/>
     <use xlink:href="#DejaVuSerif-5c" transform="translate(7792.773438 0.578125)"/>
     <use xlink:href="#DejaVuSerif-66" transform="translate(7826.464844 0.578125)"/>
     <use xlink:href="#DejaVuSerif-72" transform="translate(7863.476562 0.578125)"/>
     <use xlink:href="#DejaVuSerif-61" transform="translate(7911.279297 0.578125)"/>
     <use xlink:href="#DejaVuSerif-63" transform="translate(7970.898438 0.578125)"/>
     <use xlink:href="#DejaVuSerif-7b" transform="translate(8026.904297 0.578125)"/>
     <use xlink:href="#DejaVuSerif-64" transform="translate(8090.527344 0.578125)"/>
     <use xlink:href="#DejaVuSerif-5e" transform="translate(8154.541016 0.578125)"/>
     <use xlink:href="#DejaVuSerif-6a" transform="translate(8238.330078 0.578125)"/>
     <use xlink:href="#DejaVuSerif-7d" transform="translate(8269.335938 0.578125)"/>
     <use xlink:href="#DejaVuSerif-7b" transform="translate(8332.958984 0.578125)"/>
     <use xlink:href="#DejaVuSerif-64" transform="translate(8396.582031 0.578125)"/>
     <use xlink:href="#DejaVuSerif-78" transform="translate(8460.595703 0.578125)"/>
     <use xlink:href="#DejaVuSerif-5e" transform="translate(8516.992188 0.578125)"/>
     <use xlink:href="#DejaVuSerif-6a" transform="translate(8600.78125 0.578125)"/>
     <use xlink:href="#DejaVuSerif-7d" transform="translate(8631.787109 0.578125)"/>
     <use xlink:href="#DejaVuSerif-20" transform="translate(8695.410156 0.578125)"/>
     <use xlink:href="#DejaVuSerif-70" transform="translate(8727.197266 0.578125)"/>
     <use xlink:href="#DejaVuSerif-28" transform="translate(8791.210938 0.578125)"/>
     <use xlink:href="#DejaVuSerif-78" transform="translate(8830.224609 0.578125)"/>
     <use xlink:href="#DejaVuSerif-29" transform="translate(8886.621094 0.578125)"/>
     <use xlink:href="#DejaVuSerif-20" transform="translate(8925.634766 0.578125)"/>
     <use xlink:href="#DejaVuSerif-5c" transform="translate(8957.421875 0.578125)"/>
     <use xlink:href="#DejaVuSerif-72" transform="translate(8991.113281 0.578125)"/>
     <use xlink:href="#DejaVuSerif-69" transform="translate(9038.916016 0.578125)"/>
     <use xlink:href="#DejaVuSerif-67" transform="translate(9070.898438 0.578125)"/>
     <use xlink:href="#DejaVuSerif-68" transform="translate(9134.912109 0.578125)"/>
     <use xlink:href="#DejaVuSerif-74" transform="translate(9199.316406 0.578125)"/>
     <use xlink:href="#DejaVuSerif-7c" transform="translate(9239.501953 0.578125)"/>
     <use xlink:href="#DejaVuSerif-5f" transform="translate(9273.193359 0.578125)"/>
     <use xlink:href="#DejaVuSerif-7b" transform="translate(9323.193359 0.578125)"/>
     <use xlink:href="#DejaVuSerif-78" transform="translate(9386.816406 0.578125)"/>
     <use xlink:href="#DejaVuSerif-3d" transform="translate(9443.212891 0.578125)"/>
     <use xlink:href="#DejaVuSerif-6b" transform="translate(9527.001953 0.578125)"/>
     <use xlink:href="#DejaVuSerif-7d" transform="translate(9587.597656 0.578125)"/>
     <use xlink:href="#DejaVuSerif-20" transform="translate(9651.220703 0.578125)"/>
     <use xlink:href="#DejaVuSerif-5c" transform="translate(9683.007812 0.578125)"/>
     <use xlink:href="#DejaVuSerif-5d" transform="translate(9716.699219 0.578125)"/>
     <use xlink:href="#DejaVuSerif-20" transform="translate(9755.712891 0.578125)"/>
     <use xlink:href="#DejaVuSerif-28" transform="translate(9787.5 0.578125)"/>
     <use xlink:href="#DejaVuSerif-74" transform="translate(9826.513672 0.578125)"/>
     <use xlink:href="#DejaVuSerif-68" transform="translate(9866.699219 0.578125)"/>
     <use xlink:href="#DejaVuSerif-65" transform="translate(9931.103516 0.578125)"/>
     <use xlink:href="#DejaVuSerif-20" transform="translate(9990.283203 0.578125)"/>
     <use xlink:href="#Cmmi10-6a" transform="translate(10022.070312 0.578125)"/>
     <use xlink:href="#DejaVuSerif-2d" transform="translate(10063.183594 0.578125)"/>
     <use xlink:href="#DejaVuSerif-74" transform="translate(10096.972656 0.578125)"/>
     <use xlink:href="#DejaVuSerif-68" transform="translate(10137.158203 0.578125)"/>
     <use xlink:href="#DejaVuSerif-20" transform="translate(10201.5625 0.578125)"/>
     <use xlink:href="#DejaVuSerif-64" transform="translate(10233.349609 0.578125)"/>
     <use xlink:href="#DejaVuSerif-65" transform="translate(10297.363281 0.578125)"/>
     <use xlink:href="#DejaVuSerif-72" transform="translate(10356.542969 0.578125)"/>
     <use xlink:href="#DejaVuSerif-69" transform="translate(10404.345703 0.578125)"/>
     <use xlink:href="#DejaVuSerif-76" transform="translate(10436.328125 0.578125)"/>
     <use xlink:href="#DejaVuSerif-61" transform="translate(10492.822266 0.578125)"/>
     <use xlink:href="#DejaVuSerif-74" transform="translate(10552.441406 0.578125)"/>
     <use xlink:href="#DejaVuSerif-69" transform="translate(10592.626953 0.578125)"/>
     <use xlink:href="#DejaVuSerif-76" transform="translate(10624.609375 0.578125)"/>
     <use xlink:href="#DejaVuSerif-65" transform="translate(10681.103516 0.578125)"/>
     <use xlink:href="#DejaVuSerif-20" transform="translate(10740.283203 0.578125)"/>
     <use xlink:href="#DejaVuSerif-6f" transform="translate(10772.070312 0.578125)"/>
     <use xlink:href="#DejaVuSerif-66" transform="translate(10832.275391 0.578125)"/>
     <use xlink:href="#DejaVuSerif-20" transform="translate(10869.287109 0.578125)"/>
     <use xlink:href="#Cmmi10-70" transform="translate(10901.074219 0.578125)"/>
     <use xlink:href="#Cmr10-28" transform="translate(10951.367188 0.578125)"/>
     <use xlink:href="#Cmmi10-78" transform="translate(10990.185547 0.578125)"/>
     <use xlink:href="#Cmr10-29" transform="translate(11047.265625 0.578125)"/>
     <use xlink:href="#DejaVuSerif-20" transform="translate(11086.083984 0.578125)"/>
     <use xlink:href="#DejaVuSerif-61" transform="translate(11117.871094 0.578125)"/>
     <use xlink:href="#DejaVuSerif-74" transform="translate(11177.490234 0.578125)"/>
     <use xlink:href="#DejaVuSerif-20" transform="translate(11217.675781 0.578125)"/>
     <use xlink:href="#Cmmi10-6b" transform="translate(11249.462891 0.578125)"/>
     <use xlink:href="#DejaVuSerif-29" transform="translate(11301.464844 0.578125)"/>
     <use xlink:href="#DejaVuSerif-20" transform="translate(11340.478516 0.578125)"/>
     <use xlink:href="#DejaVuSerif-69" transform="translate(11372.265625 0.578125)"/>
     <use xlink:href="#DejaVuSerif-73" transform="translate(11404.248047 0.578125)"/>
     <use xlink:href="#DejaVuSerif-20" transform="translate(11455.566406 0.578125)"/>
     <use xlink:href="#DejaVuSerif-64" transform="translate(11487.353516 0.578125)"/>
     <use xlink:href="#DejaVuSerif-69" transform="translate(11551.367188 0.578125)"/>
     <use xlink:href="#DejaVuSerif-76" transform="translate(11583.349609 0.578125)"/>
     <use xlink:href="#DejaVuSerif-69" transform="translate(11639.84375 0.578125)"/>
     <use xlink:href="#DejaVuSerif-73" transform="translate(11671.826172 0.578125)"/>
     <use xlink:href="#DejaVuSerif-69" transform="translate(11723.144531 0.578125)"/>
     <use xlink:href="#DejaVuSerif-62" transform="translate(11755.126953 0.578125)"/>
     <use xlink:href="#DejaVuSerif-6c" transform="translate(11819.140625 0.578125)"/>
     <use xlink:href="#DejaVuSerif-65" transform="translate(11851.123047 0.578125)"/>
     <use xlink:href="#DejaVuSerif-20" transform="translate(11910.302734 0.578125)"/>
     <use xlink:href="#DejaVuSerif-62" transform="translate(11942.089844 0.578125)"/>
     <use xlink:href="#DejaVuSerif-79" transform="translate(12006.103516 0.578125)"/>
     <use xlink:href="#DejaVuSerif-20" transform="translate(12062.597656 0.578125)"/>
     <use xlink:href="#DejaVuSerif-32" transform="translate(12094.384766 0.578125)"/>
     <use xlink:href="#DejaVuSerif-30" transform="translate(12158.007812 0.578125)"/>
     <use xlink:href="#DejaVuSerif-31" transform="translate(12221.630859 0.578125)"/>
     <use xlink:href="#DejaVuSerif-36" transform="translate(12285.253906 0.578125)"/>
     <use xlink:href="#DejaVuSerif-2e" transform="translate(12348.876953 0.578125)"/>
    </g>
   </g>
  </g>
 </g>
</svg>
