<?xml version="1.0" encoding="utf-8" standalone="no"?>
<!DOCTYPE svg PUBLIC "-//W3C//DTD SVG 1.1//EN"
  "http://www.w3.org/Graphics/SVG/1.1/DTD/svg11.dtd">
<svg xmlns:xlink="http://www.w3.org/1999/xlink" width="2693.4pt" height="180.72pt" viewBox="0 0 2693.4 180.72" xmlns="http://www.w3.org/2000/svg" version="1.1">
 <metadata>
  <rdf:RDF xmlns:dc="http://purl.org/dc/elements/1.1/" xmlns:cc="http://creativecommons.org/ns#" xmlns:rdf="http://www.w3.org/1999/02/22-rdf-syntax-ns#">
   <cc:Work>
    <dc:type rdf:resource="http://purl.org/dc/dcmitype/StillImage"/>
    <dc:date>2025-05-29T18:44:17.445569</dc:date>
    <dc:format>image/svg+xml</dc:format>
    <dc:creator>
     <cc:Agent>
      <dc:title>Matplotlib v3.10.3, https://matplotlib.org/</dc:title>
     </cc:Agent>
    </dc:creator>
   </cc:Work>
  </rdf:RDF>
 </metadata>
 <defs>
  <style type="text/css">*{stroke-linejoin: round; stroke-linecap: butt}</style>
 </defs>
 <g id="figure_1">
  <g id="patch_1">
   <path d="M 0 180.72 
L 2693.4 180.72 
L 2693.4 0 
L 0 0 
z
" style="fill: #ffffff"/>
  </g>
  <g id="axes_1">
   <g id="text_1">
    <!-- Evaluate the sum \begin{gather*} \sum_{k=0}^\infty \leqft( 3 \cdot \frac{\ln(4k+2)}{4k+2} - \frac{\ln(4k+3)}{4k+3} - \frac{\ln(4k+4)}{4k+4} - \frac{\ln(4k+5)}{4k+5} \right) \ = 3 \cdot \frac{\ln 2}{2} - \frac{\ln 3}{3} - \frac{\ln 4}{4} - \frac{\ln 5}{5} + 3 \cdot \frac{\ln 6}{6} - \frac{\ln 7}{7} \ - \frac{\ln 8}{8} - \frac{\ln 9}{9} + 3 \cdot \frac{\ln 10}{10} - \cdots . \end{gather*} (As usual, $\ln x$ denotes the natural logarithm of $x$.) -->
    <g transform="translate(7.2 93.48) scale(0.12 -0.12)">
     <defs>
      <path id="DejaVuSerif-45" d="M 353 0 
L 353 331 
L 947 331 
L 947 4331 
L 353 4331 
L 353 4666 
L 4109 4666 
L 4109 3628 
L 3725 3628 
L 3725 4281 
L 1581 4281 
L 1581 2719 
L 3109 2719 
L 3109 3303 
L 3494 3303 
L 3494 1753 
L 3109 1753 
L 3109 2338 
L 1581 2338 
L 1581 384 
L 3775 384 
L 3775 1038 
L 4159 1038 
L 4159 0 
L 353 0 
z
" transform="scale(0.015625)"/>
      <path id="DejaVuSerif-76" d="M 1581 0 
L 359 2988 
L -19 2988 
L -19 3322 
L 1509 3322 
L 1509 2988 
L 978 2988 
L 1913 703 
L 2847 2988 
L 2350 2988 
L 2350 3322 
L 3597 3322 
L 3597 2988 
L 3225 2988 
L 2003 0 
L 1581 0 
z
" transform="scale(0.015625)"/>
      <path id="DejaVuSerif-61" d="M 2547 1044 
L 2547 1747 
L 1806 1747 
Q 1378 1747 1168 1562 
Q 959 1378 959 997 
Q 959 650 1171 447 
Q 1384 244 1747 244 
Q 2106 244 2326 466 
Q 2547 688 2547 1044 
z
M 3122 2075 
L 3122 331 
L 3634 331 
L 3634 0 
L 2547 0 
L 2547 359 
Q 2356 128 2106 18 
Q 1856 -91 1522 -91 
Q 969 -91 644 203 
Q 319 497 319 997 
Q 319 1513 691 1797 
Q 1063 2081 1741 2081 
L 2547 2081 
L 2547 2309 
Q 2547 2688 2317 2895 
Q 2088 3103 1672 3103 
Q 1328 3103 1125 2947 
Q 922 2791 872 2484 
L 575 2484 
L 575 3156 
Q 875 3284 1158 3348 
Q 1441 3413 1709 3413 
Q 2400 3413 2761 3070 
Q 3122 2728 3122 2075 
z
" transform="scale(0.015625)"/>
      <path id="DejaVuSerif-6c" d="M 1313 331 
L 1856 331 
L 1856 0 
L 184 0 
L 184 331 
L 738 331 
L 738 4531 
L 184 4531 
L 184 4863 
L 1313 4863 
L 1313 331 
z
" transform="scale(0.015625)"/>
      <path id="DejaVuSerif-75" d="M 2266 3322 
L 3341 3322 
L 3341 331 
L 3884 331 
L 3884 0 
L 2766 0 
L 2766 588 
Q 2606 256 2353 82 
Q 2100 -91 1766 -91 
Q 1213 -91 952 223 
Q 691 538 691 1209 
L 691 2988 
L 172 2988 
L 172 3322 
L 1269 3322 
L 1269 1388 
Q 1269 781 1417 556 
Q 1566 331 1947 331 
Q 2347 331 2556 625 
Q 2766 919 2766 1478 
L 2766 2988 
L 2266 2988 
L 2266 3322 
z
" transform="scale(0.015625)"/>
      <path id="DejaVuSerif-74" d="M 691 2988 
L 184 2988 
L 184 3322 
L 691 3322 
L 691 4353 
L 1269 4353 
L 1269 3322 
L 2350 3322 
L 2350 2988 
L 1269 2988 
L 1269 878 
Q 1269 456 1350 337 
Q 1431 219 1650 219 
Q 1875 219 1978 351 
Q 2081 484 2088 781 
L 2522 781 
Q 2497 328 2275 118 
Q 2053 -91 1600 -91 
Q 1103 -91 897 129 
Q 691 350 691 878 
L 691 2988 
z
" transform="scale(0.015625)"/>
      <path id="DejaVuSerif-65" d="M 3469 1600 
L 991 1600 
L 991 1575 
Q 991 903 1244 561 
Q 1497 219 1991 219 
Q 2369 219 2611 417 
Q 2853 616 2950 1006 
L 3413 1006 
Q 3275 459 2904 184 
Q 2534 -91 1931 -91 
Q 1203 -91 761 389 
Q 319 869 319 1663 
Q 319 2450 753 2931 
Q 1188 3413 1894 3413 
Q 2647 3413 3050 2948 
Q 3453 2484 3469 1600 
z
M 2791 1931 
Q 2772 2513 2545 2808 
Q 2319 3103 1894 3103 
Q 1497 3103 1269 2806 
Q 1041 2509 991 1931 
L 2791 1931 
z
" transform="scale(0.015625)"/>
      <path id="DejaVuSerif-20" transform="scale(0.015625)"/>
      <path id="DejaVuSerif-68" d="M 263 0 
L 263 331 
L 781 331 
L 781 4531 
L 231 4531 
L 231 4863 
L 1356 4863 
L 1356 2731 
Q 1516 3069 1770 3241 
Q 2025 3413 2363 3413 
Q 2913 3413 3172 3097 
Q 3431 2781 3431 2113 
L 3431 331 
L 3944 331 
L 3944 0 
L 2356 0 
L 2356 331 
L 2853 331 
L 2853 1931 
Q 2853 2541 2704 2764 
Q 2556 2988 2175 2988 
Q 1775 2988 1565 2697 
Q 1356 2406 1356 1850 
L 1356 331 
L 1856 331 
L 1856 0 
L 263 0 
z
" transform="scale(0.015625)"/>
      <path id="DejaVuSerif-73" d="M 359 184 
L 359 959 
L 691 959 
Q 703 588 923 403 
Q 1144 219 1575 219 
Q 1963 219 2166 364 
Q 2369 509 2369 788 
Q 2369 1006 2220 1140 
Q 2072 1275 1594 1428 
L 1178 1569 
Q 750 1706 558 1912 
Q 366 2119 366 2438 
Q 366 2894 700 3153 
Q 1034 3413 1625 3413 
Q 1888 3413 2178 3344 
Q 2469 3275 2778 3144 
L 2778 2419 
L 2447 2419 
Q 2434 2741 2221 2922 
Q 2009 3103 1644 3103 
Q 1281 3103 1095 2975 
Q 909 2847 909 2591 
Q 909 2381 1050 2254 
Q 1191 2128 1613 1997 
L 2069 1856 
Q 2541 1709 2748 1489 
Q 2956 1269 2956 922 
Q 2956 450 2595 179 
Q 2234 -91 1600 -91 
Q 1278 -91 972 -22 
Q 666 47 359 184 
z
" transform="scale(0.015625)"/>
      <path id="DejaVuSerif-6d" d="M 3316 2675 
Q 3481 3041 3739 3227 
Q 3997 3413 4341 3413 
Q 4863 3413 5119 3089 
Q 5375 2766 5375 2113 
L 5375 331 
L 5894 331 
L 5894 0 
L 4300 0 
L 4300 331 
L 4800 331 
L 4800 2047 
Q 4800 2556 4650 2772 
Q 4500 2988 4153 2988 
Q 3769 2988 3567 2697 
Q 3366 2406 3366 1850 
L 3366 331 
L 3866 331 
L 3866 0 
L 2291 0 
L 2291 331 
L 2791 331 
L 2791 2069 
Q 2791 2566 2641 2777 
Q 2491 2988 2144 2988 
Q 1759 2988 1557 2697 
Q 1356 2406 1356 1850 
L 1356 331 
L 1856 331 
L 1856 0 
L 263 0 
L 263 331 
L 781 331 
L 781 2994 
L 231 2994 
L 231 3322 
L 1356 3322 
L 1356 2731 
Q 1516 3063 1762 3238 
Q 2009 3413 2322 3413 
Q 2709 3413 2968 3220 
Q 3228 3028 3316 2675 
z
" transform="scale(0.015625)"/>
      <path id="DejaVuSerif-5c" d="M 500 4666 
L 2156 -594 
L 1656 -594 
L 0 4666 
L 500 4666 
z
" transform="scale(0.015625)"/>
      <path id="DejaVuSerif-62" d="M 738 331 
L 738 4531 
L 184 4531 
L 184 4863 
L 1313 4863 
L 1313 2803 
Q 1481 3116 1742 3264 
Q 2003 3413 2388 3413 
Q 3000 3413 3387 2928 
Q 3775 2444 3775 1663 
Q 3775 881 3387 395 
Q 3000 -91 2388 -91 
Q 2003 -91 1742 57 
Q 1481 206 1313 519 
L 1313 0 
L 184 0 
L 184 331 
L 738 331 
z
M 1313 1497 
Q 1313 897 1542 583 
Q 1772 269 2209 269 
Q 2650 269 2876 622 
Q 3103 975 3103 1663 
Q 3103 2353 2876 2703 
Q 2650 3053 2209 3053 
Q 1772 3053 1542 2737 
Q 1313 2422 1313 1825 
L 1313 1497 
z
" transform="scale(0.015625)"/>
      <path id="DejaVuSerif-67" d="M 3359 2988 
L 3359 72 
Q 3359 -644 2965 -1033 
Q 2572 -1422 1844 -1422 
Q 1516 -1422 1216 -1362 
Q 916 -1303 641 -1184 
L 641 -488 
L 941 -488 
Q 997 -813 1206 -963 
Q 1416 -1113 1806 -1113 
Q 2313 -1113 2548 -827 
Q 2784 -541 2784 72 
L 2784 519 
Q 2616 206 2355 57 
Q 2094 -91 1709 -91 
Q 1097 -91 708 395 
Q 319 881 319 1663 
Q 319 2444 706 2928 
Q 1094 3413 1709 3413 
Q 2094 3413 2355 3264 
Q 2616 3116 2784 2803 
L 2784 3322 
L 3909 3322 
L 3909 2988 
L 3359 2988 
z
M 2784 1825 
Q 2784 2422 2554 2737 
Q 2325 3053 1888 3053 
Q 1444 3053 1217 2703 
Q 991 2353 991 1663 
Q 991 975 1217 622 
Q 1444 269 1888 269 
Q 2325 269 2554 583 
Q 2784 897 2784 1497 
L 2784 1825 
z
" transform="scale(0.015625)"/>
      <path id="DejaVuSerif-69" d="M 622 4353 
Q 622 4497 726 4603 
Q 831 4709 978 4709 
Q 1122 4709 1226 4603 
Q 1331 4497 1331 4353 
Q 1331 4206 1228 4103 
Q 1125 4000 978 4000 
Q 831 4000 726 4103 
Q 622 4206 622 4353 
z
M 1356 331 
L 1900 331 
L 1900 0 
L 231 0 
L 231 331 
L 781 331 
L 781 2988 
L 231 2988 
L 231 3322 
L 1356 3322 
L 1356 331 
z
" transform="scale(0.015625)"/>
      <path id="DejaVuSerif-6e" d="M 263 0 
L 263 331 
L 781 331 
L 781 2988 
L 231 2988 
L 231 3322 
L 1356 3322 
L 1356 2731 
Q 1516 3069 1770 3241 
Q 2025 3413 2363 3413 
Q 2913 3413 3172 3097 
Q 3431 2781 3431 2113 
L 3431 331 
L 3944 331 
L 3944 0 
L 2356 0 
L 2356 331 
L 2853 331 
L 2853 1931 
Q 2853 2541 2703 2767 
Q 2553 2994 2175 2994 
Q 1775 2994 1565 2701 
Q 1356 2409 1356 1850 
L 1356 331 
L 1856 331 
L 1856 0 
L 263 0 
z
" transform="scale(0.015625)"/>
      <path id="DejaVuSerif-7b" d="M 3272 -716 
L 3272 -1044 
L 3078 -1044 
Q 2300 -1044 2036 -812 
Q 1772 -581 1772 109 
L 1772 916 
Q 1772 1384 1603 1565 
Q 1434 1747 991 1747 
L 800 1747 
L 800 2075 
L 991 2075 
Q 1434 2075 1603 2256 
Q 1772 2438 1772 2906 
L 1772 3713 
Q 1772 4403 2036 4633 
Q 2300 4863 3078 4863 
L 3272 4863 
L 3272 4538 
L 3059 4538 
Q 2619 4538 2484 4400 
Q 2350 4263 2350 3822 
L 2350 2925 
Q 2350 2431 2194 2218 
Q 2038 2006 1631 1913 
Q 2044 1806 2197 1597 
Q 2350 1388 2350 897 
L 2350 0 
Q 2350 -441 2484 -578 
Q 2619 -716 3059 -716 
L 3272 -716 
z
" transform="scale(0.015625)"/>
      <path id="DejaVuSerif-72" d="M 3059 3328 
L 3059 2497 
L 2728 2497 
Q 2713 2744 2591 2866 
Q 2469 2988 2234 2988 
Q 1809 2988 1582 2694 
Q 1356 2400 1356 1850 
L 1356 331 
L 2022 331 
L 2022 0 
L 263 0 
L 263 331 
L 781 331 
L 781 2994 
L 231 2994 
L 231 3322 
L 1356 3322 
L 1356 2731 
Q 1525 3078 1790 3245 
Q 2056 3413 2438 3413 
Q 2578 3413 2733 3391 
Q 2888 3369 3059 3328 
z
" transform="scale(0.015625)"/>
      <path id="DejaVuSerif-2a" d="M 3097 3866 
L 1875 3297 
L 3097 2719 
L 2859 2350 
L 1772 3028 
L 1813 1838 
L 1388 1838 
L 1428 3028 
L 341 2350 
L 103 2719 
L 1325 3291 
L 103 3866 
L 341 4238 
L 1428 3559 
L 1388 4750 
L 1813 4750 
L 1772 3559 
L 2859 4238 
L 3097 3866 
z
" transform="scale(0.015625)"/>
      <path id="DejaVuSerif-7d" d="M 800 -716 
L 1019 -716 
Q 1456 -716 1589 -580 
Q 1722 -444 1722 0 
L 1722 897 
Q 1722 1388 1875 1597 
Q 2028 1806 2438 1913 
Q 2031 2006 1876 2218 
Q 1722 2431 1722 2925 
L 1722 3822 
Q 1722 4266 1589 4402 
Q 1456 4538 1019 4538 
L 800 4538 
L 800 4863 
L 997 4863 
Q 1775 4863 2036 4633 
Q 2297 4403 2297 3713 
L 2297 2906 
Q 2297 2438 2465 2256 
Q 2634 2075 3078 2075 
L 3272 2075 
L 3272 1747 
L 3078 1747 
Q 2634 1747 2465 1565 
Q 2297 1384 2297 916 
L 2297 109 
Q 2297 -581 2036 -812 
Q 1775 -1044 997 -1044 
L 800 -1044 
L 800 -716 
z
" transform="scale(0.015625)"/>
      <path id="DejaVuSerif-5f" d="M 3200 -1259 
L 3200 -1509 
L 0 -1509 
L 0 -1259 
L 3200 -1259 
z
" transform="scale(0.015625)"/>
      <path id="DejaVuSerif-6b" d="M 1831 0 
L 219 0 
L 219 331 
L 738 331 
L 738 4531 
L 184 4531 
L 184 4863 
L 1313 4863 
L 1313 1697 
L 2713 2988 
L 2234 2988 
L 2234 3322 
L 3738 3322 
L 3738 2988 
L 3169 2988 
L 2181 2075 
L 3444 331 
L 3922 331 
L 3922 0 
L 2284 0 
L 2284 331 
L 2759 331 
L 1766 1697 
L 1313 1275 
L 1313 331 
L 1831 331 
L 1831 0 
z
" transform="scale(0.015625)"/>
      <path id="DejaVuSerif-3d" d="M 678 2894 
L 4684 2894 
L 4684 2394 
L 678 2394 
L 678 2894 
z
M 678 1619 
L 4684 1619 
L 4684 1119 
L 678 1119 
L 678 1619 
z
" transform="scale(0.015625)"/>
      <path id="DejaVuSerif-30" d="M 2034 219 
Q 2513 219 2750 744 
Q 2988 1269 2988 2328 
Q 2988 3391 2750 3916 
Q 2513 4441 2034 4441 
Q 1556 4441 1318 3916 
Q 1081 3391 1081 2328 
Q 1081 1269 1318 744 
Q 1556 219 2034 219 
z
M 2034 -91 
Q 1275 -91 848 546 
Q 422 1184 422 2328 
Q 422 3475 848 4112 
Q 1275 4750 2034 4750 
Q 2797 4750 3222 4112 
Q 3647 3475 3647 2328 
Q 3647 1184 3222 546 
Q 2797 -91 2034 -91 
z
" transform="scale(0.015625)"/>
      <path id="DejaVuSerif-5e" d="M 2988 4666 
L 4684 2925 
L 4206 2925 
L 2681 4116 
L 1159 2925 
L 678 2925 
L 2375 4666 
L 2988 4666 
z
" transform="scale(0.015625)"/>
      <path id="DejaVuSerif-66" d="M 2753 4078 
L 2450 4078 
Q 2447 4313 2317 4434 
Q 2188 4556 1941 4556 
Q 1619 4556 1487 4379 
Q 1356 4203 1356 3750 
L 1356 3322 
L 2284 3322 
L 2284 2988 
L 1356 2988 
L 1356 331 
L 2094 331 
L 2094 0 
L 231 0 
L 231 331 
L 781 331 
L 781 2988 
L 231 2988 
L 231 3322 
L 781 3322 
L 781 3738 
Q 781 4294 1070 4578 
Q 1359 4863 1919 4863 
Q 2128 4863 2337 4825 
Q 2547 4788 2753 4709 
L 2753 4078 
z
" transform="scale(0.015625)"/>
      <path id="DejaVuSerif-79" d="M 1381 -609 
L 1600 -56 
L 359 2988 
L -19 2988 
L -19 3322 
L 1509 3322 
L 1509 2988 
L 978 2988 
L 1913 703 
L 2847 2988 
L 2350 2988 
L 2350 3322 
L 3597 3322 
L 3597 2988 
L 3225 2988 
L 1703 -750 
Q 1547 -1138 1356 -1280 
Q 1166 -1422 819 -1422 
Q 672 -1422 517 -1397 
Q 363 -1372 206 -1325 
L 206 -691 
L 500 -691 
Q 519 -903 608 -995 
Q 697 -1088 884 -1088 
Q 1056 -1088 1161 -992 
Q 1266 -897 1381 -609 
z
" transform="scale(0.015625)"/>
      <path id="DejaVuSerif-71" d="M 3359 2988 
L 3359 -997 
L 3909 -997 
L 3909 -1331 
L 2241 -1331 
L 2241 -997 
L 2784 -997 
L 2784 519 
Q 2616 206 2355 57 
Q 2094 -91 1709 -91 
Q 1097 -91 708 395 
Q 319 881 319 1663 
Q 319 2444 706 2928 
Q 1094 3413 1709 3413 
Q 2094 3413 2355 3264 
Q 2616 3116 2784 2803 
L 2784 3322 
L 3909 3322 
L 3909 2988 
L 3359 2988 
z
M 2784 1825 
Q 2784 2422 2554 2737 
Q 2325 3053 1888 3053 
Q 1444 3053 1217 2703 
Q 991 2353 991 1663 
Q 991 975 1217 622 
Q 1444 269 1888 269 
Q 2325 269 2554 583 
Q 2784 897 2784 1497 
L 2784 1825 
z
" transform="scale(0.015625)"/>
      <path id="DejaVuSerif-28" d="M 2041 -997 
Q 1281 -656 893 83 
Q 506 822 506 1931 
Q 506 3044 893 3783 
Q 1281 4522 2041 4863 
L 2041 4556 
Q 1559 4225 1350 3623 
Q 1141 3022 1141 1931 
Q 1141 844 1350 242 
Q 1559 -359 2041 -691 
L 2041 -997 
z
" transform="scale(0.015625)"/>
      <path id="DejaVuSerif-33" d="M 622 4469 
Q 988 4606 1323 4678 
Q 1659 4750 1953 4750 
Q 2638 4750 3022 4454 
Q 3406 4159 3406 3634 
Q 3406 3213 3140 2930 
Q 2875 2647 2388 2547 
Q 2963 2466 3280 2130 
Q 3597 1794 3597 1259 
Q 3597 606 3158 257 
Q 2719 -91 1894 -91 
Q 1528 -91 1179 -12 
Q 831 66 488 225 
L 488 1131 
L 838 1131 
Q 869 681 1141 450 
Q 1413 219 1906 219 
Q 2384 219 2661 495 
Q 2938 772 2938 1253 
Q 2938 1803 2653 2086 
Q 2369 2369 1819 2369 
L 1522 2369 
L 1522 2688 
L 1678 2688 
Q 2225 2688 2498 2914 
Q 2772 3141 2772 3597 
Q 2772 4006 2547 4223 
Q 2322 4441 1900 4441 
Q 1478 4441 1245 4241 
Q 1013 4041 972 3647 
L 622 3647 
L 622 4469 
z
" transform="scale(0.015625)"/>
      <path id="DejaVuSerif-63" d="M 3291 997 
Q 3169 466 2822 187 
Q 2475 -91 1925 -91 
Q 1200 -91 759 389 
Q 319 869 319 1663 
Q 319 2459 759 2936 
Q 1200 3413 1925 3413 
Q 2241 3413 2553 3339 
Q 2866 3266 3181 3116 
L 3181 2266 
L 2847 2266 
Q 2781 2703 2561 2903 
Q 2341 3103 1931 3103 
Q 1466 3103 1228 2742 
Q 991 2381 991 1663 
Q 991 944 1227 581 
Q 1463 219 1931 219 
Q 2303 219 2525 412 
Q 2747 606 2828 997 
L 3291 997 
z
" transform="scale(0.015625)"/>
      <path id="DejaVuSerif-64" d="M 3359 331 
L 3909 331 
L 3909 0 
L 2784 0 
L 2784 519 
Q 2616 206 2355 57 
Q 2094 -91 1709 -91 
Q 1097 -91 708 395 
Q 319 881 319 1663 
Q 319 2444 706 2928 
Q 1094 3413 1709 3413 
Q 2094 3413 2355 3264 
Q 2616 3116 2784 2803 
L 2784 4531 
L 2241 4531 
L 2241 4863 
L 3359 4863 
L 3359 331 
z
M 2784 1497 
L 2784 1825 
Q 2784 2422 2554 2737 
Q 2325 3053 1888 3053 
Q 1444 3053 1217 2703 
Q 991 2353 991 1663 
Q 991 975 1217 622 
Q 1444 269 1888 269 
Q 2325 269 2554 583 
Q 2784 897 2784 1497 
z
" transform="scale(0.015625)"/>
      <path id="DejaVuSerif-6f" d="M 1925 219 
Q 2388 219 2623 584 
Q 2859 950 2859 1663 
Q 2859 2375 2623 2739 
Q 2388 3103 1925 3103 
Q 1463 3103 1227 2739 
Q 991 2375 991 1663 
Q 991 950 1228 584 
Q 1466 219 1925 219 
z
M 1925 -91 
Q 1200 -91 759 389 
Q 319 869 319 1663 
Q 319 2456 758 2934 
Q 1197 3413 1925 3413 
Q 2653 3413 3092 2934 
Q 3531 2456 3531 1663 
Q 3531 869 3092 389 
Q 2653 -91 1925 -91 
z
" transform="scale(0.015625)"/>
      <path id="DejaVuSerif-34" d="M 2234 1581 
L 2234 4063 
L 641 1581 
L 2234 1581 
z
M 3609 0 
L 1484 0 
L 1484 331 
L 2234 331 
L 2234 1247 
L 197 1247 
L 197 1588 
L 2241 4750 
L 2859 4750 
L 2859 1581 
L 3750 1581 
L 3750 1247 
L 2859 1247 
L 2859 331 
L 3609 331 
L 3609 0 
z
" transform="scale(0.015625)"/>
      <path id="DejaVuSerif-2b" d="M 2931 4013 
L 2931 2259 
L 4684 2259 
L 4684 1753 
L 2931 1753 
L 2931 0 
L 2431 0 
L 2431 1753 
L 678 1753 
L 678 2259 
L 2431 2259 
L 2431 4013 
L 2931 4013 
z
" transform="scale(0.015625)"/>
      <path id="DejaVuSerif-32" d="M 819 3553 
L 469 3553 
L 469 4384 
Q 803 4563 1142 4656 
Q 1481 4750 1806 4750 
Q 2534 4750 2956 4397 
Q 3378 4044 3378 3438 
Q 3378 2753 2422 1800 
Q 2347 1728 2309 1691 
L 1131 513 
L 3078 513 
L 3078 1088 
L 3444 1088 
L 3444 0 
L 434 0 
L 434 341 
L 1850 1753 
Q 2319 2222 2519 2614 
Q 2719 3006 2719 3438 
Q 2719 3909 2473 4175 
Q 2228 4441 1797 4441 
Q 1350 4441 1106 4219 
Q 863 3997 819 3553 
z
" transform="scale(0.015625)"/>
      <path id="DejaVuSerif-29" d="M 453 -997 
L 453 -691 
Q 934 -359 1145 242 
Q 1356 844 1356 1931 
Q 1356 3022 1145 3623 
Q 934 4225 453 4556 
L 453 4863 
Q 1216 4522 1603 3783 
Q 1991 3044 1991 1931 
Q 1991 822 1603 83 
Q 1216 -656 453 -997 
z
" transform="scale(0.015625)"/>
      <path id="DejaVuSerif-2d" d="M 281 1959 
L 1881 1959 
L 1881 1472 
L 281 1472 
L 281 1959 
z
" transform="scale(0.015625)"/>
      <path id="DejaVuSerif-35" d="M 3219 4666 
L 3219 4153 
L 1081 4153 
L 1081 2816 
Q 1244 2928 1461 2984 
Q 1678 3041 1947 3041 
Q 2703 3041 3140 2622 
Q 3578 2203 3578 1478 
Q 3578 738 3136 323 
Q 2694 -91 1894 -91 
Q 1572 -91 1234 -12 
Q 897 66 544 225 
L 544 1131 
L 897 1131 
Q 925 688 1179 453 
Q 1434 219 1894 219 
Q 2388 219 2653 544 
Q 2919 869 2919 1478 
Q 2919 2084 2655 2407 
Q 2391 2731 1894 2731 
Q 1613 2731 1398 2631 
Q 1184 2531 1019 2322 
L 750 2322 
L 750 4666 
L 3219 4666 
z
" transform="scale(0.015625)"/>
      <path id="DejaVuSerif-36" d="M 2094 219 
Q 2534 219 2771 542 
Q 3009 866 3009 1472 
Q 3009 2078 2771 2401 
Q 2534 2725 2094 2725 
Q 1647 2725 1412 2412 
Q 1178 2100 1178 1509 
Q 1178 888 1415 553 
Q 1653 219 2094 219 
z
M 1075 2569 
Q 1288 2803 1556 2918 
Q 1825 3034 2163 3034 
Q 2859 3034 3264 2615 
Q 3669 2197 3669 1472 
Q 3669 763 3233 336 
Q 2797 -91 2069 -91 
Q 1278 -91 853 498 
Q 428 1088 428 2181 
Q 428 3406 931 4078 
Q 1434 4750 2350 4750 
Q 2597 4750 2869 4703 
Q 3141 4656 3425 4563 
L 3425 3794 
L 3072 3794 
Q 3034 4109 2831 4275 
Q 2628 4441 2284 4441 
Q 1678 4441 1381 3981 
Q 1084 3522 1075 2569 
z
" transform="scale(0.015625)"/>
      <path id="DejaVuSerif-37" d="M 3609 4347 
L 1784 0 
L 1319 0 
L 3059 4153 
L 903 4153 
L 903 3578 
L 538 3578 
L 538 4666 
L 3609 4666 
L 3609 4347 
z
" transform="scale(0.015625)"/>
      <path id="DejaVuSerif-38" d="M 2981 1275 
Q 2981 1775 2732 2051 
Q 2484 2328 2034 2328 
Q 1584 2328 1336 2051 
Q 1088 1775 1088 1275 
Q 1088 772 1336 495 
Q 1584 219 2034 219 
Q 2484 219 2732 495 
Q 2981 772 2981 1275 
z
M 2853 3541 
Q 2853 3966 2637 4203 
Q 2422 4441 2034 4441 
Q 1650 4441 1433 4203 
Q 1216 3966 1216 3541 
Q 1216 3113 1433 2875 
Q 1650 2638 2034 2638 
Q 2422 2638 2637 2875 
Q 2853 3113 2853 3541 
z
M 2516 2484 
Q 3047 2413 3344 2092 
Q 3641 1772 3641 1275 
Q 3641 619 3225 264 
Q 2809 -91 2034 -91 
Q 1263 -91 845 264 
Q 428 619 428 1275 
Q 428 1772 725 2092 
Q 1022 2413 1556 2484 
Q 1084 2569 832 2842 
Q 581 3116 581 3541 
Q 581 4103 968 4426 
Q 1356 4750 2034 4750 
Q 2713 4750 3100 4426 
Q 3488 4103 3488 3541 
Q 3488 3116 3236 2842 
Q 2984 2569 2516 2484 
z
" transform="scale(0.015625)"/>
      <path id="DejaVuSerif-39" d="M 2994 2091 
Q 2784 1856 2512 1740 
Q 2241 1625 1900 1625 
Q 1206 1625 804 2044 
Q 403 2463 403 3188 
Q 403 3897 839 4323 
Q 1275 4750 2003 4750 
Q 2794 4750 3217 4161 
Q 3641 3572 3641 2478 
Q 3641 1253 3137 581 
Q 2634 -91 1722 -91 
Q 1475 -91 1203 -44 
Q 931 3 647 97 
L 647 872 
L 997 872 
Q 1038 556 1241 387 
Q 1444 219 1784 219 
Q 2391 219 2687 676 
Q 2984 1134 2994 2091 
z
M 1978 4441 
Q 1534 4441 1298 4117 
Q 1063 3794 1063 3188 
Q 1063 2581 1298 2256 
Q 1534 1931 1978 1931 
Q 2422 1931 2658 2245 
Q 2894 2559 2894 3150 
Q 2894 3772 2656 4106 
Q 2419 4441 1978 4441 
z
" transform="scale(0.015625)"/>
      <path id="DejaVuSerif-31" d="M 909 0 
L 909 331 
L 1722 331 
L 1722 4213 
L 781 3603 
L 781 4013 
L 1919 4750 
L 2350 4750 
L 2350 331 
L 3163 331 
L 3163 0 
L 909 0 
z
" transform="scale(0.015625)"/>
      <path id="DejaVuSerif-2e" d="M 603 325 
Q 603 500 722 622 
Q 841 744 1019 744 
Q 1191 744 1312 622 
Q 1434 500 1434 325 
Q 1434 153 1312 31 
Q 1191 -91 1019 -91 
Q 841 -91 722 29 
Q 603 150 603 325 
z
" transform="scale(0.015625)"/>
      <path id="DejaVuSerif-41" d="M 1281 1691 
L 2994 1691 
L 2138 3909 
L 1281 1691 
z
M -38 0 
L -38 331 
L 372 331 
L 2034 4666 
L 2559 4666 
L 4225 331 
L 4684 331 
L 4684 0 
L 2988 0 
L 2988 331 
L 3506 331 
L 3116 1356 
L 1153 1356 
L 763 331 
L 1275 331 
L 1275 0 
L -38 0 
z
" transform="scale(0.015625)"/>
      <path id="DejaVuSerif-2c" d="M 231 -622 
Q 525 -406 662 -114 
Q 800 178 800 594 
L 800 709 
L 1416 709 
Q 1391 175 1164 -208 
Q 938 -591 481 -872 
L 231 -622 
z
" transform="scale(0.015625)"/>
      <path id="Cmr10-6c" d="M 197 0 
L 197 225 
Q 416 225 556 259 
Q 697 294 697 428 
L 697 3788 
Q 697 3959 645 4036 
Q 594 4113 497 4130 
Q 400 4147 197 4147 
L 197 4372 
L 1147 4441 
L 1147 428 
Q 1147 294 1287 259 
Q 1428 225 1644 225 
L 1644 0 
L 197 0 
z
" transform="scale(0.015625)"/>
      <path id="Cmr10-6e" d="M 191 0 
L 191 225 
Q 409 225 550 259 
Q 691 294 691 428 
L 691 2175 
Q 691 2347 639 2423 
Q 588 2500 491 2517 
Q 394 2534 191 2534 
L 191 2759 
L 1119 2828 
L 1119 2203 
Q 1247 2478 1498 2653 
Q 1750 2828 2047 2828 
Q 2491 2828 2714 2615 
Q 2938 2403 2938 1966 
L 2938 428 
Q 2938 294 3078 259 
Q 3219 225 3438 225 
L 3438 0 
L 1972 0 
L 1972 225 
Q 2191 225 2331 259 
Q 2472 294 2472 428 
L 2472 1947 
Q 2472 2259 2381 2461 
Q 2291 2663 2009 2663 
Q 1638 2663 1398 2366 
Q 1159 2069 1159 1691 
L 1159 428 
Q 1159 294 1300 259 
Q 1441 225 1656 225 
L 1656 0 
L 191 0 
z
" transform="scale(0.015625)"/>
      <path id="Cmmi10-78" d="M 500 184 
Q 613 97 819 97 
Q 1019 97 1172 289 
Q 1325 481 1381 709 
L 1672 1844 
Q 1741 2153 1741 2266 
Q 1741 2425 1652 2544 
Q 1563 2663 1403 2663 
Q 1200 2663 1022 2536 
Q 844 2409 722 2214 
Q 600 2019 550 1819 
Q 538 1778 500 1778 
L 422 1778 
Q 372 1778 372 1838 
L 372 1856 
Q 434 2094 584 2320 
Q 734 2547 951 2687 
Q 1169 2828 1416 2828 
Q 1650 2828 1839 2703 
Q 2028 2578 2106 2363 
Q 2216 2559 2386 2693 
Q 2556 2828 2759 2828 
Q 2897 2828 3040 2779 
Q 3184 2731 3275 2631 
Q 3366 2531 3366 2381 
Q 3366 2219 3261 2101 
Q 3156 1984 2994 1984 
Q 2891 1984 2822 2050 
Q 2753 2116 2753 2216 
Q 2753 2350 2845 2451 
Q 2938 2553 3066 2572 
Q 2950 2663 2747 2663 
Q 2541 2663 2389 2472 
Q 2238 2281 2175 2047 
L 1894 916 
Q 1825 659 1825 494 
Q 1825 331 1917 214 
Q 2009 97 2163 97 
Q 2463 97 2698 361 
Q 2934 625 3009 941 
Q 3022 978 3059 978 
L 3138 978 
Q 3163 978 3178 961 
Q 3194 944 3194 922 
Q 3194 916 3188 903 
Q 3097 522 2806 225 
Q 2516 -72 2150 -72 
Q 1916 -72 1727 54 
Q 1538 181 1459 397 
Q 1359 209 1182 68 
Q 1006 -72 806 -72 
Q 669 -72 523 -23 
Q 378 25 287 125 
Q 197 225 197 378 
Q 197 528 301 651 
Q 406 775 563 775 
Q 669 775 741 711 
Q 813 647 813 544 
Q 813 409 723 309 
Q 634 209 500 184 
z
" transform="scale(0.015625)"/>
     </defs>
     <use xlink:href="#DejaVuSerif-45" transform="translate(0 0.015625)"/>
     <use xlink:href="#DejaVuSerif-76" transform="translate(72.998047 0.015625)"/>
     <use xlink:href="#DejaVuSerif-61" transform="translate(129.492188 0.015625)"/>
     <use xlink:href="#DejaVuSerif-6c" transform="translate(189.111328 0.015625)"/>
     <use xlink:href="#DejaVuSerif-75" transform="translate(221.09375 0.015625)"/>
     <use xlink:href="#DejaVuSerif-61" transform="translate(285.498047 0.015625)"/>
     <use xlink:href="#DejaVuSerif-74" transform="translate(345.117188 0.015625)"/>
     <use xlink:href="#DejaVuSerif-65" transform="translate(385.302734 0.015625)"/>
     <use xlink:href="#DejaVuSerif-20" transform="translate(444.482422 0.015625)"/>
     <use xlink:href="#DejaVuSerif-74" transform="translate(476.269531 0.015625)"/>
     <use xlink:href="#DejaVuSerif-68" transform="translate(516.455078 0.015625)"/>
     <use xlink:href="#DejaVuSerif-65" transform="translate(580.859375 0.015625)"/>
     <use xlink:href="#DejaVuSerif-20" transform="translate(640.039062 0.015625)"/>
     <use xlink:href="#DejaVuSerif-73" transform="translate(671.826172 0.015625)"/>
     <use xlink:href="#DejaVuSerif-75" transform="translate(723.144531 0.015625)"/>
     <use xlink:href="#DejaVuSerif-6d" transform="translate(787.548828 0.015625)"/>
     <use xlink:href="#DejaVuSerif-20" transform="translate(882.373047 0.015625)"/>
     <use xlink:href="#DejaVuSerif-5c" transform="translate(914.160156 0.015625)"/>
     <use xlink:href="#DejaVuSerif-62" transform="translate(947.851562 0.015625)"/>
     <use xlink:href="#DejaVuSerif-65" transform="translate(1011.865234 0.015625)"/>
     <use xlink:href="#DejaVuSerif-67" transform="translate(1071.044922 0.015625)"/>
     <use xlink:href="#DejaVuSerif-69" transform="translate(1135.058594 0.015625)"/>
     <use xlink:href="#DejaVuSerif-6e" transform="translate(1167.041016 0.015625)"/>
     <use xlink:href="#DejaVuSerif-7b" transform="translate(1231.445312 0.015625)"/>
     <use xlink:href="#DejaVuSerif-67" transform="translate(1295.068359 0.015625)"/>
     <use xlink:href="#DejaVuSerif-61" transform="translate(1359.082031 0.015625)"/>
     <use xlink:href="#DejaVuSerif-74" transform="translate(1418.701172 0.015625)"/>
     <use xlink:href="#DejaVuSerif-68" transform="translate(1458.886719 0.015625)"/>
     <use xlink:href="#DejaVuSerif-65" transform="translate(1523.291016 0.015625)"/>
     <use xlink:href="#DejaVuSerif-72" transform="translate(1582.470703 0.015625)"/>
     <use xlink:href="#DejaVuSerif-2a" transform="translate(1630.273438 0.015625)"/>
     <use xlink:href="#DejaVuSerif-7d" transform="translate(1680.273438 0.015625)"/>
     <use xlink:href="#DejaVuSerif-20" transform="translate(1743.896484 0.015625)"/>
     <use xlink:href="#DejaVuSerif-5c" transform="translate(1775.683594 0.015625)"/>
     <use xlink:href="#DejaVuSerif-73" transform="translate(1809.375 0.015625)"/>
     <use xlink:href="#DejaVuSerif-75" transform="translate(1860.693359 0.015625)"/>
     <use xlink:href="#DejaVuSerif-6d" transform="translate(1925.097656 0.015625)"/>
     <use xlink:href="#DejaVuSerif-5f" transform="translate(2019.921875 0.015625)"/>
     <use xlink:href="#DejaVuSerif-7b" transform="translate(2069.921875 0.015625)"/>
     <use xlink:href="#DejaVuSerif-6b" transform="translate(2133.544922 0.015625)"/>
     <use xlink:href="#DejaVuSerif-3d" transform="translate(2194.140625 0.015625)"/>
     <use xlink:href="#DejaVuSerif-30" transform="translate(2277.929688 0.015625)"/>
     <use xlink:href="#DejaVuSerif-7d" transform="translate(2341.552734 0.015625)"/>
     <use xlink:href="#DejaVuSerif-5e" transform="translate(2405.175781 0.015625)"/>
     <use xlink:href="#DejaVuSerif-5c" transform="translate(2488.964844 0.015625)"/>
     <use xlink:href="#DejaVuSerif-69" transform="translate(2522.65625 0.015625)"/>
     <use xlink:href="#DejaVuSerif-6e" transform="translate(2554.638672 0.015625)"/>
     <use xlink:href="#DejaVuSerif-66" transform="translate(2619.042969 0.015625)"/>
     <use xlink:href="#DejaVuSerif-74" transform="translate(2656.054688 0.015625)"/>
     <use xlink:href="#DejaVuSerif-79" transform="translate(2696.240234 0.015625)"/>
     <use xlink:href="#DejaVuSerif-20" transform="translate(2752.734375 0.015625)"/>
     <use xlink:href="#DejaVuSerif-5c" transform="translate(2784.521484 0.015625)"/>
     <use xlink:href="#DejaVuSerif-6c" transform="translate(2818.212891 0.015625)"/>
     <use xlink:href="#DejaVuSerif-65" transform="translate(2850.195312 0.015625)"/>
     <use xlink:href="#DejaVuSerif-71" transform="translate(2909.375 0.015625)"/>
     <use xlink:href="#DejaVuSerif-66" transform="translate(2973.388672 0.015625)"/>
     <use xlink:href="#DejaVuSerif-74" transform="translate(3010.400391 0.015625)"/>
     <use xlink:href="#DejaVuSerif-28" transform="translate(3050.585938 0.015625)"/>
     <use xlink:href="#DejaVuSerif-20" transform="translate(3089.599609 0.015625)"/>
     <use xlink:href="#DejaVuSerif-33" transform="translate(3121.386719 0.015625)"/>
     <use xlink:href="#DejaVuSerif-20" transform="translate(3185.009766 0.015625)"/>
     <use xlink:href="#DejaVuSerif-5c" transform="translate(3216.796875 0.015625)"/>
     <use xlink:href="#DejaVuSerif-63" transform="translate(3250.488281 0.015625)"/>
     <use xlink:href="#DejaVuSerif-64" transform="translate(3306.494141 0.015625)"/>
     <use xlink:href="#DejaVuSerif-6f" transform="translate(3370.507812 0.015625)"/>
     <use xlink:href="#DejaVuSerif-74" transform="translate(3430.712891 0.015625)"/>
     <use xlink:href="#DejaVuSerif-20" transform="translate(3470.898438 0.015625)"/>
     <use xlink:href="#DejaVuSerif-5c" transform="translate(3502.685547 0.015625)"/>
     <use xlink:href="#DejaVuSerif-66" transform="translate(3536.376953 0.015625)"/>
     <use xlink:href="#DejaVuSerif-72" transform="translate(3573.388672 0.015625)"/>
     <use xlink:href="#DejaVuSerif-61" transform="translate(3621.191406 0.015625)"/>
     <use xlink:href="#DejaVuSerif-63" transform="translate(3680.810547 0.015625)"/>
     <use xlink:href="#DejaVuSerif-7b" transform="translate(3736.816406 0.015625)"/>
     <use xlink:href="#DejaVuSerif-5c" transform="translate(3800.439453 0.015625)"/>
     <use xlink:href="#DejaVuSerif-6c" transform="translate(3834.130859 0.015625)"/>
     <use xlink:href="#DejaVuSerif-6e" transform="translate(3866.113281 0.015625)"/>
     <use xlink:href="#DejaVuSerif-28" transform="translate(3930.517578 0.015625)"/>
     <use xlink:href="#DejaVuSerif-34" transform="translate(3969.53125 0.015625)"/>
     <use xlink:href="#DejaVuSerif-6b" transform="translate(4033.154297 0.015625)"/>
     <use xlink:href="#DejaVuSerif-2b" transform="translate(4093.75 0.015625)"/>
     <use xlink:href="#DejaVuSerif-32" transform="translate(4177.539062 0.015625)"/>
     <use xlink:href="#DejaVuSerif-29" transform="translate(4241.162109 0.015625)"/>
     <use xlink:href="#DejaVuSerif-7d" transform="translate(4280.175781 0.015625)"/>
     <use xlink:href="#DejaVuSerif-7b" transform="translate(4343.798828 0.015625)"/>
     <use xlink:href="#DejaVuSerif-34" transform="translate(4407.421875 0.015625)"/>
     <use xlink:href="#DejaVuSerif-6b" transform="translate(4471.044922 0.015625)"/>
     <use xlink:href="#DejaVuSerif-2b" transform="translate(4531.640625 0.015625)"/>
     <use xlink:href="#DejaVuSerif-32" transform="translate(4615.429688 0.015625)"/>
     <use xlink:href="#DejaVuSerif-7d" transform="translate(4679.052734 0.015625)"/>
     <use xlink:href="#DejaVuSerif-20" transform="translate(4742.675781 0.015625)"/>
     <use xlink:href="#DejaVuSerif-2d" transform="translate(4774.462891 0.015625)"/>
     <use xlink:href="#DejaVuSerif-20" transform="translate(4808.251953 0.015625)"/>
     <use xlink:href="#DejaVuSerif-5c" transform="translate(4840.039062 0.015625)"/>
     <use xlink:href="#DejaVuSerif-66" transform="translate(4873.730469 0.015625)"/>
     <use xlink:href="#DejaVuSerif-72" transform="translate(4910.742188 0.015625)"/>
     <use xlink:href="#DejaVuSerif-61" transform="translate(4958.544922 0.015625)"/>
     <use xlink:href="#DejaVuSerif-63" transform="translate(5018.164062 0.015625)"/>
     <use xlink:href="#DejaVuSerif-7b" transform="translate(5074.169922 0.015625)"/>
     <use xlink:href="#DejaVuSerif-5c" transform="translate(5137.792969 0.015625)"/>
     <use xlink:href="#DejaVuSerif-6c" transform="translate(5171.484375 0.015625)"/>
     <use xlink:href="#DejaVuSerif-6e" transform="translate(5203.466797 0.015625)"/>
     <use xlink:href="#DejaVuSerif-28" transform="translate(5267.871094 0.015625)"/>
     <use xlink:href="#DejaVuSerif-34" transform="translate(5306.884766 0.015625)"/>
     <use xlink:href="#DejaVuSerif-6b" transform="translate(5370.507812 0.015625)"/>
     <use xlink:href="#DejaVuSerif-2b" transform="translate(5431.103516 0.015625)"/>
     <use xlink:href="#DejaVuSerif-33" transform="translate(5514.892578 0.015625)"/>
     <use xlink:href="#DejaVuSerif-29" transform="translate(5578.515625 0.015625)"/>
     <use xlink:href="#DejaVuSerif-7d" transform="translate(5617.529297 0.015625)"/>
     <use xlink:href="#DejaVuSerif-7b" transform="translate(5681.152344 0.015625)"/>
     <use xlink:href="#DejaVuSerif-34" transform="translate(5744.775391 0.015625)"/>
     <use xlink:href="#DejaVuSerif-6b" transform="translate(5808.398438 0.015625)"/>
     <use xlink:href="#DejaVuSerif-2b" transform="translate(5868.994141 0.015625)"/>
     <use xlink:href="#DejaVuSerif-33" transform="translate(5952.783203 0.015625)"/>
     <use xlink:href="#DejaVuSerif-7d" transform="translate(6016.40625 0.015625)"/>
     <use xlink:href="#DejaVuSerif-20" transform="translate(6080.029297 0.015625)"/>
     <use xlink:href="#DejaVuSerif-2d" transform="translate(6111.816406 0.015625)"/>
     <use xlink:href="#DejaVuSerif-20" transform="translate(6145.605469 0.015625)"/>
     <use xlink:href="#DejaVuSerif-5c" transform="translate(6177.392578 0.015625)"/>
     <use xlink:href="#DejaVuSerif-66" transform="translate(6211.083984 0.015625)"/>
     <use xlink:href="#DejaVuSerif-72" transform="translate(6248.095703 0.015625)"/>
     <use xlink:href="#DejaVuSerif-61" transform="translate(6295.898438 0.015625)"/>
     <use xlink:href="#DejaVuSerif-63" transform="translate(6355.517578 0.015625)"/>
     <use xlink:href="#DejaVuSerif-7b" transform="translate(6411.523438 0.015625)"/>
     <use xlink:href="#DejaVuSerif-5c" transform="translate(6475.146484 0.015625)"/>
     <use xlink:href="#DejaVuSerif-6c" transform="translate(6508.837891 0.015625)"/>
     <use xlink:href="#DejaVuSerif-6e" transform="translate(6540.820312 0.015625)"/>
     <use xlink:href="#DejaVuSerif-28" transform="translate(6605.224609 0.015625)"/>
     <use xlink:href="#DejaVuSerif-34" transform="translate(6644.238281 0.015625)"/>
     <use xlink:href="#DejaVuSerif-6b" transform="translate(6707.861328 0.015625)"/>
     <use xlink:href="#DejaVuSerif-2b" transform="translate(6768.457031 0.015625)"/>
     <use xlink:href="#DejaVuSerif-34" transform="translate(6852.246094 0.015625)"/>
     <use xlink:href="#DejaVuSerif-29" transform="translate(6915.869141 0.015625)"/>
     <use xlink:href="#DejaVuSerif-7d" transform="translate(6954.882812 0.015625)"/>
     <use xlink:href="#DejaVuSerif-7b" transform="translate(7018.505859 0.015625)"/>
     <use xlink:href="#DejaVuSerif-34" transform="translate(7082.128906 0.015625)"/>
     <use xlink:href="#DejaVuSerif-6b" transform="translate(7145.751953 0.015625)"/>
     <use xlink:href="#DejaVuSerif-2b" transform="translate(7206.347656 0.015625)"/>
     <use xlink:href="#DejaVuSerif-34" transform="translate(7290.136719 0.015625)"/>
     <use xlink:href="#DejaVuSerif-7d" transform="translate(7353.759766 0.015625)"/>
     <use xlink:href="#DejaVuSerif-20" transform="translate(7417.382812 0.015625)"/>
     <use xlink:href="#DejaVuSerif-2d" transform="translate(7449.169922 0.015625)"/>
     <use xlink:href="#DejaVuSerif-20" transform="translate(7482.958984 0.015625)"/>
     <use xlink:href="#DejaVuSerif-5c" transform="translate(7514.746094 0.015625)"/>
     <use xlink:href="#DejaVuSerif-66" transform="translate(7548.4375 0.015625)"/>
     <use xlink:href="#DejaVuSerif-72" transform="translate(7585.449219 0.015625)"/>
     <use xlink:href="#DejaVuSerif-61" transform="translate(7633.251953 0.015625)"/>
     <use xlink:href="#DejaVuSerif-63" transform="translate(7692.871094 0.015625)"/>
     <use xlink:href="#DejaVuSerif-7b" transform="translate(7748.876953 0.015625)"/>
     <use xlink:href="#DejaVuSerif-5c" transform="translate(7812.5 0.015625)"/>
     <use xlink:href="#DejaVuSerif-6c" transform="translate(7846.191406 0.015625)"/>
     <use xlink:href="#DejaVuSerif-6e" transform="translate(7878.173828 0.015625)"/>
     <use xlink:href="#DejaVuSerif-28" transform="translate(7942.578125 0.015625)"/>
     <use xlink:href="#DejaVuSerif-34" transform="translate(7981.591797 0.015625)"/>
     <use xlink:href="#DejaVuSerif-6b" transform="translate(8045.214844 0.015625)"/>
     <use xlink:href="#DejaVuSerif-2b" transform="translate(8105.810547 0.015625)"/>
     <use xlink:href="#DejaVuSerif-35" transform="translate(8189.599609 0.015625)"/>
     <use xlink:href="#DejaVuSerif-29" transform="translate(8253.222656 0.015625)"/>
     <use xlink:href="#DejaVuSerif-7d" transform="translate(8292.236328 0.015625)"/>
     <use xlink:href="#DejaVuSerif-7b" transform="translate(8355.859375 0.015625)"/>
     <use xlink:href="#DejaVuSerif-34" transform="translate(8419.482422 0.015625)"/>
     <use xlink:href="#DejaVuSerif-6b" transform="translate(8483.105469 0.015625)"/>
     <use xlink:href="#DejaVuSerif-2b" transform="translate(8543.701172 0.015625)"/>
     <use xlink:href="#DejaVuSerif-35" transform="translate(8627.490234 0.015625)"/>
     <use xlink:href="#DejaVuSerif-7d" transform="translate(8691.113281 0.015625)"/>
     <use xlink:href="#DejaVuSerif-20" transform="translate(8754.736328 0.015625)"/>
     <use xlink:href="#DejaVuSerif-5c" transform="translate(8786.523438 0.015625)"/>
     <use xlink:href="#DejaVuSerif-72" transform="translate(8820.214844 0.015625)"/>
     <use xlink:href="#DejaVuSerif-69" transform="translate(8868.017578 0.015625)"/>
     <use xlink:href="#DejaVuSerif-67" transform="translate(8900 0.015625)"/>
     <use xlink:href="#DejaVuSerif-68" transform="translate(8964.013672 0.015625)"/>
     <use xlink:href="#DejaVuSerif-74" transform="translate(9028.417969 0.015625)"/>
     <use xlink:href="#DejaVuSerif-29" transform="translate(9068.603516 0.015625)"/>
     <use xlink:href="#DejaVuSerif-20" transform="translate(9107.617188 0.015625)"/>
     <use xlink:href="#DejaVuSerif-5c" transform="translate(9139.404297 0.015625)"/>
     <use xlink:href="#DejaVuSerif-20" transform="translate(9173.095703 0.015625)"/>
     <use xlink:href="#DejaVuSerif-3d" transform="translate(9204.882812 0.015625)"/>
     <use xlink:href="#DejaVuSerif-20" transform="translate(9288.671875 0.015625)"/>
     <use xlink:href="#DejaVuSerif-33" transform="translate(9320.458984 0.015625)"/>
     <use xlink:href="#DejaVuSerif-20" transform="translate(9384.082031 0.015625)"/>
     <use xlink:href="#DejaVuSerif-5c" transform="translate(9415.869141 0.015625)"/>
     <use xlink:href="#DejaVuSerif-63" transform="translate(9449.560547 0.015625)"/>
     <use xlink:href="#DejaVuSerif-64" transform="translate(9505.566406 0.015625)"/>
     <use xlink:href="#DejaVuSerif-6f" transform="translate(9569.580078 0.015625)"/>
     <use xlink:href="#DejaVuSerif-74" transform="translate(9629.785156 0.015625)"/>
     <use xlink:href="#DejaVuSerif-20" transform="translate(9669.970703 0.015625)"/>
     <use xlink:href="#DejaVuSerif-5c" transform="translate(9701.757812 0.015625)"/>
     <use xlink:href="#DejaVuSerif-66" transform="translate(9735.449219 0.015625)"/>
     <use xlink:href="#DejaVuSerif-72" transform="translate(9772.460938 0.015625)"/>
     <use xlink:href="#DejaVuSerif-61" transform="translate(9820.263672 0.015625)"/>
     <use xlink:href="#DejaVuSerif-63" transform="translate(9879.882812 0.015625)"/>
     <use xlink:href="#DejaVuSerif-7b" transform="translate(9935.888672 0.015625)"/>
     <use xlink:href="#DejaVuSerif-5c" transform="translate(9999.511719 0.015625)"/>
     <use xlink:href="#DejaVuSerif-6c" transform="translate(10033.203125 0.015625)"/>
     <use xlink:href="#DejaVuSerif-6e" transform="translate(10065.185547 0.015625)"/>
     <use xlink:href="#DejaVuSerif-20" transform="translate(10129.589844 0.015625)"/>
     <use xlink:href="#DejaVuSerif-32" transform="translate(10161.376953 0.015625)"/>
     <use xlink:href="#DejaVuSerif-7d" transform="translate(10225 0.015625)"/>
     <use xlink:href="#DejaVuSerif-7b" transform="translate(10288.623047 0.015625)"/>
     <use xlink:href="#DejaVuSerif-32" transform="translate(10352.246094 0.015625)"/>
     <use xlink:href="#DejaVuSerif-7d" transform="translate(10415.869141 0.015625)"/>
     <use xlink:href="#DejaVuSerif-20" transform="translate(10479.492188 0.015625)"/>
     <use xlink:href="#DejaVuSerif-2d" transform="translate(10511.279297 0.015625)"/>
     <use xlink:href="#DejaVuSerif-20" transform="translate(10545.068359 0.015625)"/>
     <use xlink:href="#DejaVuSerif-5c" transform="translate(10576.855469 0.015625)"/>
     <use xlink:href="#DejaVuSerif-66" transform="translate(10610.546875 0.015625)"/>
     <use xlink:href="#DejaVuSerif-72" transform="translate(10647.558594 0.015625)"/>
     <use xlink:href="#DejaVuSerif-61" transform="translate(10695.361328 0.015625)"/>
     <use xlink:href="#DejaVuSerif-63" transform="translate(10754.980469 0.015625)"/>
     <use xlink:href="#DejaVuSerif-7b" transform="translate(10810.986328 0.015625)"/>
     <use xlink:href="#DejaVuSerif-5c" transform="translate(10874.609375 0.015625)"/>
     <use xlink:href="#DejaVuSerif-6c" transform="translate(10908.300781 0.015625)"/>
     <use xlink:href="#DejaVuSerif-6e" transform="translate(10940.283203 0.015625)"/>
     <use xlink:href="#DejaVuSerif-20" transform="translate(11004.6875 0.015625)"/>
     <use xlink:href="#DejaVuSerif-33" transform="translate(11036.474609 0.015625)"/>
     <use xlink:href="#DejaVuSerif-7d" transform="translate(11100.097656 0.015625)"/>
     <use xlink:href="#DejaVuSerif-7b" transform="translate(11163.720703 0.015625)"/>
     <use xlink:href="#DejaVuSerif-33" transform="translate(11227.34375 0.015625)"/>
     <use xlink:href="#DejaVuSerif-7d" transform="translate(11290.966797 0.015625)"/>
     <use xlink:href="#DejaVuSerif-20" transform="translate(11354.589844 0.015625)"/>
     <use xlink:href="#DejaVuSerif-2d" transform="translate(11386.376953 0.015625)"/>
     <use xlink:href="#DejaVuSerif-20" transform="translate(11420.166016 0.015625)"/>
     <use xlink:href="#DejaVuSerif-5c" transform="translate(11451.953125 0.015625)"/>
     <use xlink:href="#DejaVuSerif-66" transform="translate(11485.644531 0.015625)"/>
     <use xlink:href="#DejaVuSerif-72" transform="translate(11522.65625 0.015625)"/>
     <use xlink:href="#DejaVuSerif-61" transform="translate(11570.458984 0.015625)"/>
     <use xlink:href="#DejaVuSerif-63" transform="translate(11630.078125 0.015625)"/>
     <use xlink:href="#DejaVuSerif-7b" transform="translate(11686.083984 0.015625)"/>
     <use xlink:href="#DejaVuSerif-5c" transform="translate(11749.707031 0.015625)"/>
     <use xlink:href="#DejaVuSerif-6c" transform="translate(11783.398438 0.015625)"/>
     <use xlink:href="#DejaVuSerif-6e" transform="translate(11815.380859 0.015625)"/>
     <use xlink:href="#DejaVuSerif-20" transform="translate(11879.785156 0.015625)"/>
     <use xlink:href="#DejaVuSerif-34" transform="translate(11911.572266 0.015625)"/>
     <use xlink:href="#DejaVuSerif-7d" transform="translate(11975.195312 0.015625)"/>
     <use xlink:href="#DejaVuSerif-7b" transform="translate(12038.818359 0.015625)"/>
     <use xlink:href="#DejaVuSerif-34" transform="translate(12102.441406 0.015625)"/>
     <use xlink:href="#DejaVuSerif-7d" transform="translate(12166.064453 0.015625)"/>
     <use xlink:href="#DejaVuSerif-20" transform="translate(12229.6875 0.015625)"/>
     <use xlink:href="#DejaVuSerif-2d" transform="translate(12261.474609 0.015625)"/>
     <use xlink:href="#DejaVuSerif-20" transform="translate(12295.263672 0.015625)"/>
     <use xlink:href="#DejaVuSerif-5c" transform="translate(12327.050781 0.015625)"/>
     <use xlink:href="#DejaVuSerif-66" transform="translate(12360.742188 0.015625)"/>
     <use xlink:href="#DejaVuSerif-72" transform="translate(12397.753906 0.015625)"/>
     <use xlink:href="#DejaVuSerif-61" transform="translate(12445.556641 0.015625)"/>
     <use xlink:href="#DejaVuSerif-63" transform="translate(12505.175781 0.015625)"/>
     <use xlink:href="#DejaVuSerif-7b" transform="translate(12561.181641 0.015625)"/>
     <use xlink:href="#DejaVuSerif-5c" transform="translate(12624.804688 0.015625)"/>
     <use xlink:href="#DejaVuSerif-6c" transform="translate(12658.496094 0.015625)"/>
     <use xlink:href="#DejaVuSerif-6e" transform="translate(12690.478516 0.015625)"/>
     <use xlink:href="#DejaVuSerif-20" transform="translate(12754.882812 0.015625)"/>
     <use xlink:href="#DejaVuSerif-35" transform="translate(12786.669922 0.015625)"/>
     <use xlink:href="#DejaVuSerif-7d" transform="translate(12850.292969 0.015625)"/>
     <use xlink:href="#DejaVuSerif-7b" transform="translate(12913.916016 0.015625)"/>
     <use xlink:href="#DejaVuSerif-35" transform="translate(12977.539062 0.015625)"/>
     <use xlink:href="#DejaVuSerif-7d" transform="translate(13041.162109 0.015625)"/>
     <use xlink:href="#DejaVuSerif-20" transform="translate(13104.785156 0.015625)"/>
     <use xlink:href="#DejaVuSerif-2b" transform="translate(13136.572266 0.015625)"/>
     <use xlink:href="#DejaVuSerif-20" transform="translate(13220.361328 0.015625)"/>
     <use xlink:href="#DejaVuSerif-33" transform="translate(13252.148438 0.015625)"/>
     <use xlink:href="#DejaVuSerif-20" transform="translate(13315.771484 0.015625)"/>
     <use xlink:href="#DejaVuSerif-5c" transform="translate(13347.558594 0.015625)"/>
     <use xlink:href="#DejaVuSerif-63" transform="translate(13381.25 0.015625)"/>
     <use xlink:href="#DejaVuSerif-64" transform="translate(13437.255859 0.015625)"/>
     <use xlink:href="#DejaVuSerif-6f" transform="translate(13501.269531 0.015625)"/>
     <use xlink:href="#DejaVuSerif-74" transform="translate(13561.474609 0.015625)"/>
     <use xlink:href="#DejaVuSerif-20" transform="translate(13601.660156 0.015625)"/>
     <use xlink:href="#DejaVuSerif-5c" transform="translate(13633.447266 0.015625)"/>
     <use xlink:href="#DejaVuSerif-66" transform="translate(13667.138672 0.015625)"/>
     <use xlink:href="#DejaVuSerif-72" transform="translate(13704.150391 0.015625)"/>
     <use xlink:href="#DejaVuSerif-61" transform="translate(13751.953125 0.015625)"/>
     <use xlink:href="#DejaVuSerif-63" transform="translate(13811.572266 0.015625)"/>
     <use xlink:href="#DejaVuSerif-7b" transform="translate(13867.578125 0.015625)"/>
     <use xlink:href="#DejaVuSerif-5c" transform="translate(13931.201172 0.015625)"/>
     <use xlink:href="#DejaVuSerif-6c" transform="translate(13964.892578 0.015625)"/>
     <use xlink:href="#DejaVuSerif-6e" transform="translate(13996.875 0.015625)"/>
     <use xlink:href="#DejaVuSerif-20" transform="translate(14061.279297 0.015625)"/>
     <use xlink:href="#DejaVuSerif-36" transform="translate(14093.066406 0.015625)"/>
     <use xlink:href="#DejaVuSerif-7d" transform="translate(14156.689453 0.015625)"/>
     <use xlink:href="#DejaVuSerif-7b" transform="translate(14220.3125 0.015625)"/>
     <use xlink:href="#DejaVuSerif-36" transform="translate(14283.935547 0.015625)"/>
     <use xlink:href="#DejaVuSerif-7d" transform="translate(14347.558594 0.015625)"/>
     <use xlink:href="#DejaVuSerif-20" transform="translate(14411.181641 0.015625)"/>
     <use xlink:href="#DejaVuSerif-2d" transform="translate(14442.96875 0.015625)"/>
     <use xlink:href="#DejaVuSerif-20" transform="translate(14476.757812 0.015625)"/>
     <use xlink:href="#DejaVuSerif-5c" transform="translate(14508.544922 0.015625)"/>
     <use xlink:href="#DejaVuSerif-66" transform="translate(14542.236328 0.015625)"/>
     <use xlink:href="#DejaVuSerif-72" transform="translate(14579.248047 0.015625)"/>
     <use xlink:href="#DejaVuSerif-61" transform="translate(14627.050781 0.015625)"/>
     <use xlink:href="#DejaVuSerif-63" transform="translate(14686.669922 0.015625)"/>
     <use xlink:href="#DejaVuSerif-7b" transform="translate(14742.675781 0.015625)"/>
     <use xlink:href="#DejaVuSerif-5c" transform="translate(14806.298828 0.015625)"/>
     <use xlink:href="#DejaVuSerif-6c" transform="translate(14839.990234 0.015625)"/>
     <use xlink:href="#DejaVuSerif-6e" transform="translate(14871.972656 0.015625)"/>
     <use xlink:href="#DejaVuSerif-20" transform="translate(14936.376953 0.015625)"/>
     <use xlink:href="#DejaVuSerif-37" transform="translate(14968.164062 0.015625)"/>
     <use xlink:href="#DejaVuSerif-7d" transform="translate(15031.787109 0.015625)"/>
     <use xlink:href="#DejaVuSerif-7b" transform="translate(15095.410156 0.015625)"/>
     <use xlink:href="#DejaVuSerif-37" transform="translate(15159.033203 0.015625)"/>
     <use xlink:href="#DejaVuSerif-7d" transform="translate(15222.65625 0.015625)"/>
     <use xlink:href="#DejaVuSerif-20" transform="translate(15286.279297 0.015625)"/>
     <use xlink:href="#DejaVuSerif-5c" transform="translate(15318.066406 0.015625)"/>
     <use xlink:href="#DejaVuSerif-20" transform="translate(15351.757812 0.015625)"/>
     <use xlink:href="#DejaVuSerif-2d" transform="translate(15383.544922 0.015625)"/>
     <use xlink:href="#DejaVuSerif-20" transform="translate(15417.333984 0.015625)"/>
     <use xlink:href="#DejaVuSerif-5c" transform="translate(15449.121094 0.015625)"/>
     <use xlink:href="#DejaVuSerif-66" transform="translate(15482.8125 0.015625)"/>
     <use xlink:href="#DejaVuSerif-72" transform="translate(15519.824219 0.015625)"/>
     <use xlink:href="#DejaVuSerif-61" transform="translate(15567.626953 0.015625)"/>
     <use xlink:href="#DejaVuSerif-63" transform="translate(15627.246094 0.015625)"/>
     <use xlink:href="#DejaVuSerif-7b" transform="translate(15683.251953 0.015625)"/>
     <use xlink:href="#DejaVuSerif-5c" transform="translate(15746.875 0.015625)"/>
     <use xlink:href="#DejaVuSerif-6c" transform="translate(15780.566406 0.015625)"/>
     <use xlink:href="#DejaVuSerif-6e" transform="translate(15812.548828 0.015625)"/>
     <use xlink:href="#DejaVuSerif-20" transform="translate(15876.953125 0.015625)"/>
     <use xlink:href="#DejaVuSerif-38" transform="translate(15908.740234 0.015625)"/>
     <use xlink:href="#DejaVuSerif-7d" transform="translate(15972.363281 0.015625)"/>
     <use xlink:href="#DejaVuSerif-7b" transform="translate(16035.986328 0.015625)"/>
     <use xlink:href="#DejaVuSerif-38" transform="translate(16099.609375 0.015625)"/>
     <use xlink:href="#DejaVuSerif-7d" transform="translate(16163.232422 0.015625)"/>
     <use xlink:href="#DejaVuSerif-20" transform="translate(16226.855469 0.015625)"/>
     <use xlink:href="#DejaVuSerif-2d" transform="translate(16258.642578 0.015625)"/>
     <use xlink:href="#DejaVuSerif-20" transform="translate(16292.431641 0.015625)"/>
     <use xlink:href="#DejaVuSerif-5c" transform="translate(16324.21875 0.015625)"/>
     <use xlink:href="#DejaVuSerif-66" transform="translate(16357.910156 0.015625)"/>
     <use xlink:href="#DejaVuSerif-72" transform="translate(16394.921875 0.015625)"/>
     <use xlink:href="#DejaVuSerif-61" transform="translate(16442.724609 0.015625)"/>
     <use xlink:href="#DejaVuSerif-63" transform="translate(16502.34375 0.015625)"/>
     <use xlink:href="#DejaVuSerif-7b" transform="translate(16558.349609 0.015625)"/>
     <use xlink:href="#DejaVuSerif-5c" transform="translate(16621.972656 0.015625)"/>
     <use xlink:href="#DejaVuSerif-6c" transform="translate(16655.664062 0.015625)"/>
     <use xlink:href="#DejaVuSerif-6e" transform="translate(16687.646484 0.015625)"/>
     <use xlink:href="#DejaVuSerif-20" transform="translate(16752.050781 0.015625)"/>
     <use xlink:href="#DejaVuSerif-39" transform="translate(16783.837891 0.015625)"/>
     <use xlink:href="#DejaVuSerif-7d" transform="translate(16847.460938 0.015625)"/>
     <use xlink:href="#DejaVuSerif-7b" transform="translate(16911.083984 0.015625)"/>
     <use xlink:href="#DejaVuSerif-39" transform="translate(16974.707031 0.015625)"/>
     <use xlink:href="#DejaVuSerif-7d" transform="translate(17038.330078 0.015625)"/>
     <use xlink:href="#DejaVuSerif-20" transform="translate(17101.953125 0.015625)"/>
     <use xlink:href="#DejaVuSerif-2b" transform="translate(17133.740234 0.015625)"/>
     <use xlink:href="#DejaVuSerif-20" transform="translate(17217.529297 0.015625)"/>
     <use xlink:href="#DejaVuSerif-33" transform="translate(17249.316406 0.015625)"/>
     <use xlink:href="#DejaVuSerif-20" transform="translate(17312.939453 0.015625)"/>
     <use xlink:href="#DejaVuSerif-5c" transform="translate(17344.726562 0.015625)"/>
     <use xlink:href="#DejaVuSerif-63" transform="translate(17378.417969 0.015625)"/>
     <use xlink:href="#DejaVuSerif-64" transform="translate(17434.423828 0.015625)"/>
     <use xlink:href="#DejaVuSerif-6f" transform="translate(17498.4375 0.015625)"/>
     <use xlink:href="#DejaVuSerif-74" transform="translate(17558.642578 0.015625)"/>
     <use xlink:href="#DejaVuSerif-20" transform="translate(17598.828125 0.015625)"/>
     <use xlink:href="#DejaVuSerif-5c" transform="translate(17630.615234 0.015625)"/>
     <use xlink:href="#DejaVuSerif-66" transform="translate(17664.306641 0.015625)"/>
     <use xlink:href="#DejaVuSerif-72" transform="translate(17701.318359 0.015625)"/>
     <use xlink:href="#DejaVuSerif-61" transform="translate(17749.121094 0.015625)"/>
     <use xlink:href="#DejaVuSerif-63" transform="translate(17808.740234 0.015625)"/>
     <use xlink:href="#DejaVuSerif-7b" transform="translate(17864.746094 0.015625)"/>
     <use xlink:href="#DejaVuSerif-5c" transform="translate(17928.369141 0.015625)"/>
     <use xlink:href="#DejaVuSerif-6c" transform="translate(17962.060547 0.015625)"/>
     <use xlink:href="#DejaVuSerif-6e" transform="translate(17994.042969 0.015625)"/>
     <use xlink:href="#DejaVuSerif-20" transform="translate(18058.447266 0.015625)"/>
     <use xlink:href="#DejaVuSerif-31" transform="translate(18090.234375 0.015625)"/>
     <use xlink:href="#DejaVuSerif-30" transform="translate(18153.857422 0.015625)"/>
     <use xlink:href="#DejaVuSerif-7d" transform="translate(18217.480469 0.015625)"/>
     <use xlink:href="#DejaVuSerif-7b" transform="translate(18281.103516 0.015625)"/>
     <use xlink:href="#DejaVuSerif-31" transform="translate(18344.726562 0.015625)"/>
     <use xlink:href="#DejaVuSerif-30" transform="translate(18408.349609 0.015625)"/>
     <use xlink:href="#DejaVuSerif-7d" transform="translate(18471.972656 0.015625)"/>
     <use xlink:href="#DejaVuSerif-20" transform="translate(18535.595703 0.015625)"/>
     <use xlink:href="#DejaVuSerif-2d" transform="translate(18567.382812 0.015625)"/>
     <use xlink:href="#DejaVuSerif-20" transform="translate(18601.171875 0.015625)"/>
     <use xlink:href="#DejaVuSerif-5c" transform="translate(18632.958984 0.015625)"/>
     <use xlink:href="#DejaVuSerif-63" transform="translate(18666.650391 0.015625)"/>
     <use xlink:href="#DejaVuSerif-64" transform="translate(18722.65625 0.015625)"/>
     <use xlink:href="#DejaVuSerif-6f" transform="translate(18786.669922 0.015625)"/>
     <use xlink:href="#DejaVuSerif-74" transform="translate(18846.875 0.015625)"/>
     <use xlink:href="#DejaVuSerif-73" transform="translate(18887.060547 0.015625)"/>
     <use xlink:href="#DejaVuSerif-20" transform="translate(18938.378906 0.015625)"/>
     <use xlink:href="#DejaVuSerif-2e" transform="translate(18970.166016 0.015625)"/>
     <use xlink:href="#DejaVuSerif-20" transform="translate(19001.953125 0.015625)"/>
     <use xlink:href="#DejaVuSerif-5c" transform="translate(19033.740234 0.015625)"/>
     <use xlink:href="#DejaVuSerif-65" transform="translate(19067.431641 0.015625)"/>
     <use xlink:href="#DejaVuSerif-6e" transform="translate(19126.611328 0.015625)"/>
     <use xlink:href="#DejaVuSerif-64" transform="translate(19191.015625 0.015625)"/>
     <use xlink:href="#DejaVuSerif-7b" transform="translate(19255.029297 0.015625)"/>
     <use xlink:href="#DejaVuSerif-67" transform="translate(19318.652344 0.015625)"/>
     <use xlink:href="#DejaVuSerif-61" transform="translate(19382.666016 0.015625)"/>
     <use xlink:href="#DejaVuSerif-74" transform="translate(19442.285156 0.015625)"/>
     <use xlink:href="#DejaVuSerif-68" transform="translate(19482.470703 0.015625)"/>
     <use xlink:href="#DejaVuSerif-65" transform="translate(19546.875 0.015625)"/>
     <use xlink:href="#DejaVuSerif-72" transform="translate(19606.054688 0.015625)"/>
     <use xlink:href="#DejaVuSerif-2a" transform="translate(19653.857422 0.015625)"/>
     <use xlink:href="#DejaVuSerif-7d" transform="translate(19703.857422 0.015625)"/>
     <use xlink:href="#DejaVuSerif-20" transform="translate(19767.480469 0.015625)"/>
     <use xlink:href="#DejaVuSerif-28" transform="translate(19799.267578 0.015625)"/>
     <use xlink:href="#DejaVuSerif-41" transform="translate(19838.28125 0.015625)"/>
     <use xlink:href="#DejaVuSerif-73" transform="translate(19910.498047 0.015625)"/>
     <use xlink:href="#DejaVuSerif-20" transform="translate(19961.816406 0.015625)"/>
     <use xlink:href="#DejaVuSerif-75" transform="translate(19993.603516 0.015625)"/>
     <use xlink:href="#DejaVuSerif-73" transform="translate(20058.007812 0.015625)"/>
     <use xlink:href="#DejaVuSerif-75" transform="translate(20109.326172 0.015625)"/>
     <use xlink:href="#DejaVuSerif-61" transform="translate(20173.730469 0.015625)"/>
     <use xlink:href="#DejaVuSerif-6c" transform="translate(20233.349609 0.015625)"/>
     <use xlink:href="#DejaVuSerif-2c" transform="translate(20265.332031 0.015625)"/>
     <use xlink:href="#DejaVuSerif-20" transform="translate(20297.119141 0.015625)"/>
     <use xlink:href="#Cmr10-6c" transform="translate(20328.90625 0.015625)"/>
     <use xlink:href="#Cmr10-6e" transform="translate(20356.591797 0.015625)"/>
     <use xlink:href="#Cmmi10-78" transform="translate(20426.741829 0.015625)"/>
     <use xlink:href="#DejaVuSerif-20" transform="translate(20483.821907 0.015625)"/>
     <use xlink:href="#DejaVuSerif-64" transform="translate(20515.609017 0.015625)"/>
     <use xlink:href="#DejaVuSerif-65" transform="translate(20579.622688 0.015625)"/>
     <use xlink:href="#DejaVuSerif-6e" transform="translate(20638.802376 0.015625)"/>
     <use xlink:href="#DejaVuSerif-6f" transform="translate(20703.206673 0.015625)"/>
     <use xlink:href="#DejaVuSerif-74" transform="translate(20763.411751 0.015625)"/>
     <use xlink:href="#DejaVuSerif-65" transform="translate(20803.597298 0.015625)"/>
     <use xlink:href="#DejaVuSerif-73" transform="translate(20862.776985 0.015625)"/>
     <use xlink:href="#DejaVuSerif-20" transform="translate(20914.095345 0.015625)"/>
     <use xlink:href="#DejaVuSerif-74" transform="translate(20945.882454 0.015625)"/>
     <use xlink:href="#DejaVuSerif-68" transform="translate(20986.068001 0.015625)"/>
     <use xlink:href="#DejaVuSerif-65" transform="translate(21050.472298 0.015625)"/>
     <use xlink:href="#DejaVuSerif-20" transform="translate(21109.651985 0.015625)"/>
     <use xlink:href="#DejaVuSerif-6e" transform="translate(21141.439095 0.015625)"/>
     <use xlink:href="#DejaVuSerif-61" transform="translate(21205.843392 0.015625)"/>
     <use xlink:href="#DejaVuSerif-74" transform="translate(21265.462532 0.015625)"/>
     <use xlink:href="#DejaVuSerif-75" transform="translate(21305.648079 0.015625)"/>
     <use xlink:href="#DejaVuSerif-72" transform="translate(21370.052376 0.015625)"/>
     <use xlink:href="#DejaVuSerif-61" transform="translate(21417.85511 0.015625)"/>
     <use xlink:href="#DejaVuSerif-6c" transform="translate(21477.474251 0.015625)"/>
     <use xlink:href="#DejaVuSerif-20" transform="translate(21509.456673 0.015625)"/>
     <use xlink:href="#DejaVuSerif-6c" transform="translate(21541.243782 0.015625)"/>
     <use xlink:href="#DejaVuSerif-6f" transform="translate(21573.226204 0.015625)"/>
     <use xlink:href="#DejaVuSerif-67" transform="translate(21633.431282 0.015625)"/>
     <use xlink:href="#DejaVuSerif-61" transform="translate(21697.444954 0.015625)"/>
     <use xlink:href="#DejaVuSerif-72" transform="translate(21757.064095 0.015625)"/>
     <use xlink:href="#DejaVuSerif-69" transform="translate(21804.866829 0.015625)"/>
     <use xlink:href="#DejaVuSerif-74" transform="translate(21836.849251 0.015625)"/>
     <use xlink:href="#DejaVuSerif-68" transform="translate(21877.034798 0.015625)"/>
     <use xlink:href="#DejaVuSerif-6d" transform="translate(21941.439095 0.015625)"/>
     <use xlink:href="#DejaVuSerif-20" transform="translate(22036.263313 0.015625)"/>
     <use xlink:href="#DejaVuSerif-6f" transform="translate(22068.050423 0.015625)"/>
     <use xlink:href="#DejaVuSerif-66" transform="translate(22128.255501 0.015625)"/>
     <use xlink:href="#DejaVuSerif-20" transform="translate(22165.26722 0.015625)"/>
     <use xlink:href="#Cmmi10-78" transform="translate(22197.054329 0.015625)"/>
     <use xlink:href="#DejaVuSerif-2e" transform="translate(22254.134407 0.015625)"/>
     <use xlink:href="#DejaVuSerif-29" transform="translate(22285.921517 0.015625)"/>
    </g>
   </g>
  </g>
 </g>
</svg>
