<?xml version="1.0" encoding="utf-8" standalone="no"?>
<!DOCTYPE svg PUBLIC "-//W3C//DTD SVG 1.1//EN"
  "http://www.w3.org/Graphics/SVG/1.1/DTD/svg11.dtd">
<svg xmlns:xlink="http://www.w3.org/1999/xlink" width="1112.64pt" height="180.72pt" viewBox="0 0 1112.64 180.72" xmlns="http://www.w3.org/2000/svg" version="1.1">
 <metadata>
  <rdf:RDF xmlns:dc="http://purl.org/dc/elements/1.1/" xmlns:cc="http://creativecommons.org/ns#" xmlns:rdf="http://www.w3.org/1999/02/22-rdf-syntax-ns#">
   <cc:Work>
    <dc:type rdf:resource="http://purl.org/dc/dcmitype/StillImage"/>
    <dc:date>2025-05-29T18:44:19.846799</dc:date>
    <dc:format>image/svg+xml</dc:format>
    <dc:creator>
     <cc:Agent>
      <dc:title>Matplotlib v3.10.3, https://matplotlib.org/</dc:title>
     </cc:Agent>
    </dc:creator>
   </cc:Work>
  </rdf:RDF>
 </metadata>
 <defs>
  <style type="text/css">*{stroke-linejoin: round; stroke-linecap: butt}</style>
 </defs>
 <g id="figure_1">
  <g id="patch_1">
   <path d="M 0 180.72 
L 1112.64 180.72 
L 1112.64 0 
L 0 0 
z
" style="fill: #ffffff"/>
  </g>
  <g id="axes_1">
   <g id="text_1">
    <!-- Let $\mathcal{F}$ be the set of functions $f(x,y)$ that are twice continuously differentiable for $x \geqq 1,y \geqq 1$ and that satisfy the following two equations (where subscripts denote partial derivatives): -->
    <g transform="translate(7.2 55.528875) scale(0.12 -0.12)">
     <defs>
      <path id="DejaVuSerif-4c" d="M 353 0 
L 353 331 
L 947 331 
L 947 4331 
L 353 4331 
L 353 4666 
L 2175 4666 
L 2175 4331 
L 1581 4331 
L 1581 384 
L 3713 384 
L 3713 1166 
L 4097 1166 
L 4097 0 
L 353 0 
z
" transform="scale(0.015625)"/>
      <path id="DejaVuSerif-65" d="M 3469 1600 
L 991 1600 
L 991 1575 
Q 991 903 1244 561 
Q 1497 219 1991 219 
Q 2369 219 2611 417 
Q 2853 616 2950 1006 
L 3413 1006 
Q 3275 459 2904 184 
Q 2534 -91 1931 -91 
Q 1203 -91 761 389 
Q 319 869 319 1663 
Q 319 2450 753 2931 
Q 1188 3413 1894 3413 
Q 2647 3413 3050 2948 
Q 3453 2484 3469 1600 
z
M 2791 1931 
Q 2772 2513 2545 2808 
Q 2319 3103 1894 3103 
Q 1497 3103 1269 2806 
Q 1041 2509 991 1931 
L 2791 1931 
z
" transform="scale(0.015625)"/>
      <path id="DejaVuSerif-74" d="M 691 2988 
L 184 2988 
L 184 3322 
L 691 3322 
L 691 4353 
L 1269 4353 
L 1269 3322 
L 2350 3322 
L 2350 2988 
L 1269 2988 
L 1269 878 
Q 1269 456 1350 337 
Q 1431 219 1650 219 
Q 1875 219 1978 351 
Q 2081 484 2088 781 
L 2522 781 
Q 2497 328 2275 118 
Q 2053 -91 1600 -91 
Q 1103 -91 897 129 
Q 691 350 691 878 
L 691 2988 
z
" transform="scale(0.015625)"/>
      <path id="DejaVuSerif-20" transform="scale(0.015625)"/>
      <path id="Cmsy10-46" d="M 109 288 
Q 109 400 290 508 
Q 472 616 594 628 
L 634 628 
Q 656 616 739 480 
Q 822 344 942 255 
Q 1063 166 1281 166 
Q 1325 222 1356 275 
Q 1816 1125 2138 2009 
Q 2313 2491 2452 3005 
Q 2591 3519 2669 3994 
L 2400 3994 
Q 1763 3994 1594 3397 
Q 1531 3284 1389 3200 
Q 1247 3116 1113 3103 
L 1075 3103 
Q 1031 3131 1031 3169 
Q 1128 3509 1414 3784 
Q 1700 4059 2078 4215 
Q 2456 4372 2809 4372 
L 4684 4372 
Q 5306 4372 5306 4128 
Q 5306 3988 5137 3873 
Q 4969 3759 4806 3744 
L 4775 3744 
Q 4728 3769 4728 3781 
Q 4731 3800 4734 3822 
Q 4738 3844 4738 3853 
Q 4738 3994 4206 3994 
L 3194 3994 
Q 3013 3097 2725 2303 
L 4341 2303 
Q 4384 2281 4384 2247 
Q 4344 2094 4194 1986 
Q 4044 1878 3878 1863 
L 3841 1863 
Q 3794 1888 3794 1913 
L 3794 1925 
L 2584 1925 
Q 2303 1206 1919 494 
Q 1759 209 1465 -2 
Q 1172 -213 878 -213 
L 844 -213 
Q 594 -213 394 -80 
Q 194 53 109 288 
z
" transform="scale(0.015625)"/>
      <path id="DejaVuSerif-62" d="M 738 331 
L 738 4531 
L 184 4531 
L 184 4863 
L 1313 4863 
L 1313 2803 
Q 1481 3116 1742 3264 
Q 2003 3413 2388 3413 
Q 3000 3413 3387 2928 
Q 3775 2444 3775 1663 
Q 3775 881 3387 395 
Q 3000 -91 2388 -91 
Q 2003 -91 1742 57 
Q 1481 206 1313 519 
L 1313 0 
L 184 0 
L 184 331 
L 738 331 
z
M 1313 1497 
Q 1313 897 1542 583 
Q 1772 269 2209 269 
Q 2650 269 2876 622 
Q 3103 975 3103 1663 
Q 3103 2353 2876 2703 
Q 2650 3053 2209 3053 
Q 1772 3053 1542 2737 
Q 1313 2422 1313 1825 
L 1313 1497 
z
" transform="scale(0.015625)"/>
      <path id="DejaVuSerif-68" d="M 263 0 
L 263 331 
L 781 331 
L 781 4531 
L 231 4531 
L 231 4863 
L 1356 4863 
L 1356 2731 
Q 1516 3069 1770 3241 
Q 2025 3413 2363 3413 
Q 2913 3413 3172 3097 
Q 3431 2781 3431 2113 
L 3431 331 
L 3944 331 
L 3944 0 
L 2356 0 
L 2356 331 
L 2853 331 
L 2853 1931 
Q 2853 2541 2704 2764 
Q 2556 2988 2175 2988 
Q 1775 2988 1565 2697 
Q 1356 2406 1356 1850 
L 1356 331 
L 1856 331 
L 1856 0 
L 263 0 
z
" transform="scale(0.015625)"/>
      <path id="DejaVuSerif-73" d="M 359 184 
L 359 959 
L 691 959 
Q 703 588 923 403 
Q 1144 219 1575 219 
Q 1963 219 2166 364 
Q 2369 509 2369 788 
Q 2369 1006 2220 1140 
Q 2072 1275 1594 1428 
L 1178 1569 
Q 750 1706 558 1912 
Q 366 2119 366 2438 
Q 366 2894 700 3153 
Q 1034 3413 1625 3413 
Q 1888 3413 2178 3344 
Q 2469 3275 2778 3144 
L 2778 2419 
L 2447 2419 
Q 2434 2741 2221 2922 
Q 2009 3103 1644 3103 
Q 1281 3103 1095 2975 
Q 909 2847 909 2591 
Q 909 2381 1050 2254 
Q 1191 2128 1613 1997 
L 2069 1856 
Q 2541 1709 2748 1489 
Q 2956 1269 2956 922 
Q 2956 450 2595 179 
Q 2234 -91 1600 -91 
Q 1278 -91 972 -22 
Q 666 47 359 184 
z
" transform="scale(0.015625)"/>
      <path id="DejaVuSerif-6f" d="M 1925 219 
Q 2388 219 2623 584 
Q 2859 950 2859 1663 
Q 2859 2375 2623 2739 
Q 2388 3103 1925 3103 
Q 1463 3103 1227 2739 
Q 991 2375 991 1663 
Q 991 950 1228 584 
Q 1466 219 1925 219 
z
M 1925 -91 
Q 1200 -91 759 389 
Q 319 869 319 1663 
Q 319 2456 758 2934 
Q 1197 3413 1925 3413 
Q 2653 3413 3092 2934 
Q 3531 2456 3531 1663 
Q 3531 869 3092 389 
Q 2653 -91 1925 -91 
z
" transform="scale(0.015625)"/>
      <path id="DejaVuSerif-66" d="M 2753 4078 
L 2450 4078 
Q 2447 4313 2317 4434 
Q 2188 4556 1941 4556 
Q 1619 4556 1487 4379 
Q 1356 4203 1356 3750 
L 1356 3322 
L 2284 3322 
L 2284 2988 
L 1356 2988 
L 1356 331 
L 2094 331 
L 2094 0 
L 231 0 
L 231 331 
L 781 331 
L 781 2988 
L 231 2988 
L 231 3322 
L 781 3322 
L 781 3738 
Q 781 4294 1070 4578 
Q 1359 4863 1919 4863 
Q 2128 4863 2337 4825 
Q 2547 4788 2753 4709 
L 2753 4078 
z
" transform="scale(0.015625)"/>
      <path id="DejaVuSerif-75" d="M 2266 3322 
L 3341 3322 
L 3341 331 
L 3884 331 
L 3884 0 
L 2766 0 
L 2766 588 
Q 2606 256 2353 82 
Q 2100 -91 1766 -91 
Q 1213 -91 952 223 
Q 691 538 691 1209 
L 691 2988 
L 172 2988 
L 172 3322 
L 1269 3322 
L 1269 1388 
Q 1269 781 1417 556 
Q 1566 331 1947 331 
Q 2347 331 2556 625 
Q 2766 919 2766 1478 
L 2766 2988 
L 2266 2988 
L 2266 3322 
z
" transform="scale(0.015625)"/>
      <path id="DejaVuSerif-6e" d="M 263 0 
L 263 331 
L 781 331 
L 781 2988 
L 231 2988 
L 231 3322 
L 1356 3322 
L 1356 2731 
Q 1516 3069 1770 3241 
Q 2025 3413 2363 3413 
Q 2913 3413 3172 3097 
Q 3431 2781 3431 2113 
L 3431 331 
L 3944 331 
L 3944 0 
L 2356 0 
L 2356 331 
L 2853 331 
L 2853 1931 
Q 2853 2541 2703 2767 
Q 2553 2994 2175 2994 
Q 1775 2994 1565 2701 
Q 1356 2409 1356 1850 
L 1356 331 
L 1856 331 
L 1856 0 
L 263 0 
z
" transform="scale(0.015625)"/>
      <path id="DejaVuSerif-63" d="M 3291 997 
Q 3169 466 2822 187 
Q 2475 -91 1925 -91 
Q 1200 -91 759 389 
Q 319 869 319 1663 
Q 319 2459 759 2936 
Q 1200 3413 1925 3413 
Q 2241 3413 2553 3339 
Q 2866 3266 3181 3116 
L 3181 2266 
L 2847 2266 
Q 2781 2703 2561 2903 
Q 2341 3103 1931 3103 
Q 1466 3103 1228 2742 
Q 991 2381 991 1663 
Q 991 944 1227 581 
Q 1463 219 1931 219 
Q 2303 219 2525 412 
Q 2747 606 2828 997 
L 3291 997 
z
" transform="scale(0.015625)"/>
      <path id="DejaVuSerif-69" d="M 622 4353 
Q 622 4497 726 4603 
Q 831 4709 978 4709 
Q 1122 4709 1226 4603 
Q 1331 4497 1331 4353 
Q 1331 4206 1228 4103 
Q 1125 4000 978 4000 
Q 831 4000 726 4103 
Q 622 4206 622 4353 
z
M 1356 331 
L 1900 331 
L 1900 0 
L 231 0 
L 231 331 
L 781 331 
L 781 2988 
L 231 2988 
L 231 3322 
L 1356 3322 
L 1356 331 
z
" transform="scale(0.015625)"/>
      <path id="Cmmi10-66" d="M 622 -1056 
Q 741 -1147 909 -1147 
Q 1138 -1147 1281 -641 
Q 1341 -397 1606 966 
L 1900 2534 
L 1350 2534 
Q 1288 2534 1288 2619 
Q 1313 2759 1369 2759 
L 1941 2759 
L 2016 3175 
Q 2053 3369 2084 3508 
Q 2116 3647 2152 3765 
Q 2188 3884 2259 4031 
Q 2369 4241 2555 4377 
Q 2741 4513 2956 4513 
Q 3097 4513 3230 4461 
Q 3363 4409 3447 4306 
Q 3531 4203 3531 4063 
Q 3531 3900 3423 3779 
Q 3316 3659 3163 3659 
Q 3059 3659 2986 3723 
Q 2913 3788 2913 3891 
Q 2913 4031 3008 4136 
Q 3103 4241 3244 4256 
Q 3125 4347 2950 4347 
Q 2853 4347 2767 4256 
Q 2681 4166 2656 4063 
Q 2616 3900 2478 3181 
L 2400 2759 
L 3059 2759 
Q 3122 2759 3122 2675 
Q 3119 2659 3109 2620 
Q 3100 2581 3083 2557 
Q 3066 2534 3041 2534 
L 2356 2534 
L 2059 972 
Q 2003 631 1929 279 
Q 1856 -72 1723 -442 
Q 1591 -813 1384 -1063 
Q 1178 -1313 897 -1313 
Q 681 -1313 511 -1189 
Q 341 -1066 341 -863 
Q 341 -700 445 -579 
Q 550 -459 709 -459 
Q 816 -459 887 -523 
Q 959 -588 959 -691 
Q 959 -828 857 -942 
Q 756 -1056 622 -1056 
z
" transform="scale(0.015625)"/>
      <path id="Cmr10-28" d="M 1984 -1588 
Q 1628 -1306 1370 -942 
Q 1113 -578 948 -165 
Q 784 247 703 697 
Q 622 1147 622 1600 
Q 622 2059 703 2509 
Q 784 2959 951 3375 
Q 1119 3791 1378 4153 
Q 1638 4516 1984 4788 
Q 1984 4800 2016 4800 
L 2075 4800 
Q 2094 4800 2109 4783 
Q 2125 4766 2125 4744 
Q 2125 4716 2113 4703 
Q 1800 4397 1592 4047 
Q 1384 3697 1257 3301 
Q 1131 2906 1075 2482 
Q 1019 2059 1019 1600 
Q 1019 -434 2106 -1491 
Q 2125 -1509 2125 -1544 
Q 2125 -1559 2108 -1579 
Q 2091 -1600 2075 -1600 
L 2016 -1600 
Q 1984 -1600 1984 -1588 
z
" transform="scale(0.015625)"/>
      <path id="Cmmi10-78" d="M 500 184 
Q 613 97 819 97 
Q 1019 97 1172 289 
Q 1325 481 1381 709 
L 1672 1844 
Q 1741 2153 1741 2266 
Q 1741 2425 1652 2544 
Q 1563 2663 1403 2663 
Q 1200 2663 1022 2536 
Q 844 2409 722 2214 
Q 600 2019 550 1819 
Q 538 1778 500 1778 
L 422 1778 
Q 372 1778 372 1838 
L 372 1856 
Q 434 2094 584 2320 
Q 734 2547 951 2687 
Q 1169 2828 1416 2828 
Q 1650 2828 1839 2703 
Q 2028 2578 2106 2363 
Q 2216 2559 2386 2693 
Q 2556 2828 2759 2828 
Q 2897 2828 3040 2779 
Q 3184 2731 3275 2631 
Q 3366 2531 3366 2381 
Q 3366 2219 3261 2101 
Q 3156 1984 2994 1984 
Q 2891 1984 2822 2050 
Q 2753 2116 2753 2216 
Q 2753 2350 2845 2451 
Q 2938 2553 3066 2572 
Q 2950 2663 2747 2663 
Q 2541 2663 2389 2472 
Q 2238 2281 2175 2047 
L 1894 916 
Q 1825 659 1825 494 
Q 1825 331 1917 214 
Q 2009 97 2163 97 
Q 2463 97 2698 361 
Q 2934 625 3009 941 
Q 3022 978 3059 978 
L 3138 978 
Q 3163 978 3178 961 
Q 3194 944 3194 922 
Q 3194 916 3188 903 
Q 3097 522 2806 225 
Q 2516 -72 2150 -72 
Q 1916 -72 1727 54 
Q 1538 181 1459 397 
Q 1359 209 1182 68 
Q 1006 -72 806 -72 
Q 669 -72 523 -23 
Q 378 25 287 125 
Q 197 225 197 378 
Q 197 528 301 651 
Q 406 775 563 775 
Q 669 775 741 711 
Q 813 647 813 544 
Q 813 409 723 309 
Q 634 209 500 184 
z
" transform="scale(0.015625)"/>
      <path id="Cmmi10-3b" d="M 634 -1153 
Q 634 -1125 659 -1100 
Q 891 -878 1019 -587 
Q 1147 -297 1147 25 
L 1147 103 
Q 1044 0 891 0 
Q 744 0 641 103 
Q 538 206 538 353 
Q 538 503 641 603 
Q 744 703 891 703 
Q 1119 703 1216 492 
Q 1313 281 1313 25 
Q 1313 -331 1170 -651 
Q 1028 -972 769 -1228 
Q 744 -1241 728 -1241 
Q 697 -1241 665 -1212 
Q 634 -1184 634 -1153 
z
" transform="scale(0.015625)"/>
      <path id="Cmmi10-79" d="M 538 -916 
Q 672 -1147 1006 -1147 
Q 1309 -1147 1531 -934 
Q 1753 -722 1889 -420 
Q 2025 -119 2100 197 
Q 1816 -72 1484 -72 
Q 1231 -72 1053 15 
Q 875 103 776 276 
Q 678 450 678 697 
Q 678 906 734 1126 
Q 791 1347 892 1617 
Q 994 1888 1069 2088 
Q 1153 2322 1153 2472 
Q 1153 2663 1013 2663 
Q 759 2663 595 2402 
Q 431 2141 353 1819 
Q 341 1778 300 1778 
L 225 1778 
Q 172 1778 172 1838 
L 172 1856 
Q 275 2238 487 2533 
Q 700 2828 1025 2828 
Q 1253 2828 1411 2678 
Q 1569 2528 1569 2297 
Q 1569 2178 1516 2047 
Q 1488 1969 1388 1706 
Q 1288 1444 1234 1272 
Q 1181 1100 1147 934 
Q 1113 769 1113 603 
Q 1113 391 1203 244 
Q 1294 97 1491 97 
Q 1888 97 2203 581 
L 2688 2553 
Q 2709 2638 2787 2698 
Q 2866 2759 2956 2759 
Q 3034 2759 3092 2709 
Q 3150 2659 3150 2578 
Q 3150 2541 3144 2528 
L 2509 -19 
Q 2425 -347 2200 -647 
Q 1975 -947 1658 -1130 
Q 1341 -1313 997 -1313 
Q 831 -1313 668 -1248 
Q 506 -1184 406 -1056 
Q 306 -928 306 -756 
Q 306 -581 409 -453 
Q 513 -325 684 -325 
Q 788 -325 858 -389 
Q 928 -453 928 -556 
Q 928 -703 818 -812 
Q 709 -922 563 -922 
Q 556 -919 550 -917 
Q 544 -916 538 -916 
z
" transform="scale(0.015625)"/>
      <path id="Cmr10-29" d="M 416 -1600 
Q 359 -1600 359 -1544 
Q 359 -1516 372 -1503 
Q 1466 -434 1466 1600 
Q 1466 3634 384 4691 
Q 359 4706 359 4744 
Q 359 4766 376 4783 
Q 394 4800 416 4800 
L 475 4800 
Q 494 4800 506 4788 
Q 966 4425 1272 3906 
Q 1578 3388 1720 2800 
Q 1863 2213 1863 1600 
Q 1863 1147 1786 708 
Q 1709 269 1542 -157 
Q 1375 -584 1119 -945 
Q 863 -1306 506 -1588 
Q 494 -1600 475 -1600 
L 416 -1600 
z
" transform="scale(0.015625)"/>
      <path id="DejaVuSerif-61" d="M 2547 1044 
L 2547 1747 
L 1806 1747 
Q 1378 1747 1168 1562 
Q 959 1378 959 997 
Q 959 650 1171 447 
Q 1384 244 1747 244 
Q 2106 244 2326 466 
Q 2547 688 2547 1044 
z
M 3122 2075 
L 3122 331 
L 3634 331 
L 3634 0 
L 2547 0 
L 2547 359 
Q 2356 128 2106 18 
Q 1856 -91 1522 -91 
Q 969 -91 644 203 
Q 319 497 319 997 
Q 319 1513 691 1797 
Q 1063 2081 1741 2081 
L 2547 2081 
L 2547 2309 
Q 2547 2688 2317 2895 
Q 2088 3103 1672 3103 
Q 1328 3103 1125 2947 
Q 922 2791 872 2484 
L 575 2484 
L 575 3156 
Q 875 3284 1158 3348 
Q 1441 3413 1709 3413 
Q 2400 3413 2761 3070 
Q 3122 2728 3122 2075 
z
" transform="scale(0.015625)"/>
      <path id="DejaVuSerif-72" d="M 3059 3328 
L 3059 2497 
L 2728 2497 
Q 2713 2744 2591 2866 
Q 2469 2988 2234 2988 
Q 1809 2988 1582 2694 
Q 1356 2400 1356 1850 
L 1356 331 
L 2022 331 
L 2022 0 
L 263 0 
L 263 331 
L 781 331 
L 781 2994 
L 231 2994 
L 231 3322 
L 1356 3322 
L 1356 2731 
Q 1525 3078 1790 3245 
Q 2056 3413 2438 3413 
Q 2578 3413 2733 3391 
Q 2888 3369 3059 3328 
z
" transform="scale(0.015625)"/>
      <path id="DejaVuSerif-77" d="M 3072 3322 
L 3922 728 
L 4672 2988 
L 4191 2988 
L 4191 3322 
L 5394 3322 
L 5394 2988 
L 5025 2988 
L 4038 0 
L 3559 0 
L 2741 2484 
L 1919 0 
L 1459 0 
L 475 2988 
L 103 2988 
L 103 3322 
L 1606 3322 
L 1606 2988 
L 1069 2988 
L 1813 728 
L 2669 3322 
L 3072 3322 
z
" transform="scale(0.015625)"/>
      <path id="DejaVuSerif-6c" d="M 1313 331 
L 1856 331 
L 1856 0 
L 184 0 
L 184 331 
L 738 331 
L 738 4531 
L 184 4531 
L 184 4863 
L 1313 4863 
L 1313 331 
z
" transform="scale(0.015625)"/>
      <path id="DejaVuSerif-79" d="M 1381 -609 
L 1600 -56 
L 359 2988 
L -19 2988 
L -19 3322 
L 1509 3322 
L 1509 2988 
L 978 2988 
L 1913 703 
L 2847 2988 
L 2350 2988 
L 2350 3322 
L 3597 3322 
L 3597 2988 
L 3225 2988 
L 1703 -750 
Q 1547 -1138 1356 -1280 
Q 1166 -1422 819 -1422 
Q 672 -1422 517 -1397 
Q 363 -1372 206 -1325 
L 206 -691 
L 500 -691 
Q 519 -903 608 -995 
Q 697 -1088 884 -1088 
Q 1056 -1088 1161 -992 
Q 1266 -897 1381 -609 
z
" transform="scale(0.015625)"/>
      <path id="DejaVuSerif-64" d="M 3359 331 
L 3909 331 
L 3909 0 
L 2784 0 
L 2784 519 
Q 2616 206 2355 57 
Q 2094 -91 1709 -91 
Q 1097 -91 708 395 
Q 319 881 319 1663 
Q 319 2444 706 2928 
Q 1094 3413 1709 3413 
Q 2094 3413 2355 3264 
Q 2616 3116 2784 2803 
L 2784 4531 
L 2241 4531 
L 2241 4863 
L 3359 4863 
L 3359 331 
z
M 2784 1497 
L 2784 1825 
Q 2784 2422 2554 2737 
Q 2325 3053 1888 3053 
Q 1444 3053 1217 2703 
Q 991 2353 991 1663 
Q 991 975 1217 622 
Q 1444 269 1888 269 
Q 2325 269 2554 583 
Q 2784 897 2784 1497 
z
" transform="scale(0.015625)"/>
      <path id="STIXGeneral-Regular-2267" d="M 3981 2771 
L 365 1024 
L 365 1427 
L 3130 2803 
L 365 4179 
L 365 4595 
L 3981 2835 
L 3981 2771 
z
M 3981 -77 
L 365 -77 
L 365 346 
L 3981 346 
L 3981 -77 
z
M 3981 -1350 
L 365 -1350 
L 365 -928 
L 3981 -928 
L 3981 -1350 
z
" transform="scale(0.015625)"/>
      <path id="Cmr10-31" d="M 594 0 
L 594 225 
Q 1394 225 1394 428 
L 1394 3788 
Q 1063 3628 556 3628 
L 556 3853 
Q 1341 3853 1741 4263 
L 1831 4263 
Q 1853 4263 1873 4245 
Q 1894 4228 1894 4206 
L 1894 428 
Q 1894 225 2694 225 
L 2694 0 
L 594 0 
z
" transform="scale(0.015625)"/>
      <path id="DejaVuSerif-67" d="M 3359 2988 
L 3359 72 
Q 3359 -644 2965 -1033 
Q 2572 -1422 1844 -1422 
Q 1516 -1422 1216 -1362 
Q 916 -1303 641 -1184 
L 641 -488 
L 941 -488 
Q 997 -813 1206 -963 
Q 1416 -1113 1806 -1113 
Q 2313 -1113 2548 -827 
Q 2784 -541 2784 72 
L 2784 519 
Q 2616 206 2355 57 
Q 2094 -91 1709 -91 
Q 1097 -91 708 395 
Q 319 881 319 1663 
Q 319 2444 706 2928 
Q 1094 3413 1709 3413 
Q 2094 3413 2355 3264 
Q 2616 3116 2784 2803 
L 2784 3322 
L 3909 3322 
L 3909 2988 
L 3359 2988 
z
M 2784 1825 
Q 2784 2422 2554 2737 
Q 2325 3053 1888 3053 
Q 1444 3053 1217 2703 
Q 991 2353 991 1663 
Q 991 975 1217 622 
Q 1444 269 1888 269 
Q 2325 269 2554 583 
Q 2784 897 2784 1497 
L 2784 1825 
z
" transform="scale(0.015625)"/>
      <path id="DejaVuSerif-71" d="M 3359 2988 
L 3359 -997 
L 3909 -997 
L 3909 -1331 
L 2241 -1331 
L 2241 -997 
L 2784 -997 
L 2784 519 
Q 2616 206 2355 57 
Q 2094 -91 1709 -91 
Q 1097 -91 708 395 
Q 319 881 319 1663 
Q 319 2444 706 2928 
Q 1094 3413 1709 3413 
Q 2094 3413 2355 3264 
Q 2616 3116 2784 2803 
L 2784 3322 
L 3909 3322 
L 3909 2988 
L 3359 2988 
z
M 2784 1825 
Q 2784 2422 2554 2737 
Q 2325 3053 1888 3053 
Q 1444 3053 1217 2703 
Q 991 2353 991 1663 
Q 991 975 1217 622 
Q 1444 269 1888 269 
Q 2325 269 2554 583 
Q 2784 897 2784 1497 
L 2784 1825 
z
" transform="scale(0.015625)"/>
      <path id="DejaVuSerif-28" d="M 2041 -997 
Q 1281 -656 893 83 
Q 506 822 506 1931 
Q 506 3044 893 3783 
Q 1281 4522 2041 4863 
L 2041 4556 
Q 1559 4225 1350 3623 
Q 1141 3022 1141 1931 
Q 1141 844 1350 242 
Q 1559 -359 2041 -691 
L 2041 -997 
z
" transform="scale(0.015625)"/>
      <path id="DejaVuSerif-70" d="M 1313 1825 
L 1313 1497 
Q 1313 897 1542 583 
Q 1772 269 2209 269 
Q 2650 269 2876 622 
Q 3103 975 3103 1663 
Q 3103 2353 2876 2703 
Q 2650 3053 2209 3053 
Q 1772 3053 1542 2737 
Q 1313 2422 1313 1825 
z
M 738 2988 
L 184 2988 
L 184 3322 
L 1313 3322 
L 1313 2803 
Q 1481 3116 1742 3264 
Q 2003 3413 2388 3413 
Q 3000 3413 3387 2928 
Q 3775 2444 3775 1663 
Q 3775 881 3387 395 
Q 3000 -91 2388 -91 
Q 2003 -91 1742 57 
Q 1481 206 1313 519 
L 1313 -997 
L 1856 -997 
L 1856 -1331 
L 184 -1331 
L 184 -997 
L 738 -997 
L 738 2988 
z
" transform="scale(0.015625)"/>
      <path id="DejaVuSerif-76" d="M 1581 0 
L 359 2988 
L -19 2988 
L -19 3322 
L 1509 3322 
L 1509 2988 
L 978 2988 
L 1913 703 
L 2847 2988 
L 2350 2988 
L 2350 3322 
L 3597 3322 
L 3597 2988 
L 3225 2988 
L 2003 0 
L 1581 0 
z
" transform="scale(0.015625)"/>
      <path id="DejaVuSerif-29" d="M 453 -997 
L 453 -691 
Q 934 -359 1145 242 
Q 1356 844 1356 1931 
Q 1356 3022 1145 3623 
Q 934 4225 453 4556 
L 453 4863 
Q 1216 4522 1603 3783 
Q 1991 3044 1991 1931 
Q 1991 822 1603 83 
Q 1216 -656 453 -997 
z
" transform="scale(0.015625)"/>
      <path id="DejaVuSerif-3a" d="M 666 325 
Q 666 500 786 622 
Q 906 744 1081 744 
Q 1256 744 1376 622 
Q 1497 500 1497 325 
Q 1497 150 1378 29 
Q 1259 -91 1081 -91 
Q 903 -91 784 29 
Q 666 150 666 325 
z
M 666 2363 
Q 666 2538 786 2658 
Q 906 2778 1081 2778 
Q 1259 2778 1378 2659 
Q 1497 2541 1497 2363 
Q 1497 2184 1378 2065 
Q 1259 1947 1081 1947 
Q 906 1947 786 2067 
Q 666 2188 666 2363 
z
" transform="scale(0.015625)"/>
     </defs>
     <use xlink:href="#DejaVuSerif-4c" transform="translate(0 0.015625)"/>
     <use xlink:href="#DejaVuSerif-65" transform="translate(66.40625 0.015625)"/>
     <use xlink:href="#DejaVuSerif-74" transform="translate(125.585938 0.015625)"/>
     <use xlink:href="#DejaVuSerif-20" transform="translate(165.771484 0.015625)"/>
     <use xlink:href="#Cmsy10-46" transform="translate(197.558594 0.015625)"/>
     <use xlink:href="#DejaVuSerif-20" transform="translate(269.335938 0.015625)"/>
     <use xlink:href="#DejaVuSerif-62" transform="translate(301.123047 0.015625)"/>
     <use xlink:href="#DejaVuSerif-65" transform="translate(365.136719 0.015625)"/>
     <use xlink:href="#DejaVuSerif-20" transform="translate(424.316406 0.015625)"/>
     <use xlink:href="#DejaVuSerif-74" transform="translate(456.103516 0.015625)"/>
     <use xlink:href="#DejaVuSerif-68" transform="translate(496.289062 0.015625)"/>
     <use xlink:href="#DejaVuSerif-65" transform="translate(560.693359 0.015625)"/>
     <use xlink:href="#DejaVuSerif-20" transform="translate(619.873047 0.015625)"/>
     <use xlink:href="#DejaVuSerif-73" transform="translate(651.660156 0.015625)"/>
     <use xlink:href="#DejaVuSerif-65" transform="translate(702.978516 0.015625)"/>
     <use xlink:href="#DejaVuSerif-74" transform="translate(762.158203 0.015625)"/>
     <use xlink:href="#DejaVuSerif-20" transform="translate(802.34375 0.015625)"/>
     <use xlink:href="#DejaVuSerif-6f" transform="translate(834.130859 0.015625)"/>
     <use xlink:href="#DejaVuSerif-66" transform="translate(894.335938 0.015625)"/>
     <use xlink:href="#DejaVuSerif-20" transform="translate(931.347656 0.015625)"/>
     <use xlink:href="#DejaVuSerif-66" transform="translate(963.134766 0.015625)"/>
     <use xlink:href="#DejaVuSerif-75" transform="translate(1000.146484 0.015625)"/>
     <use xlink:href="#DejaVuSerif-6e" transform="translate(1064.550781 0.015625)"/>
     <use xlink:href="#DejaVuSerif-63" transform="translate(1128.955078 0.015625)"/>
     <use xlink:href="#DejaVuSerif-74" transform="translate(1184.960938 0.015625)"/>
     <use xlink:href="#DejaVuSerif-69" transform="translate(1225.146484 0.015625)"/>
     <use xlink:href="#DejaVuSerif-6f" transform="translate(1257.128906 0.015625)"/>
     <use xlink:href="#DejaVuSerif-6e" transform="translate(1317.333984 0.015625)"/>
     <use xlink:href="#DejaVuSerif-73" transform="translate(1381.738281 0.015625)"/>
     <use xlink:href="#DejaVuSerif-20" transform="translate(1433.056641 0.015625)"/>
     <use xlink:href="#Cmmi10-66" transform="translate(1464.84375 0.015625)"/>
     <use xlink:href="#Cmr10-28" transform="translate(1513.720703 0.015625)"/>
     <use xlink:href="#Cmmi10-78" transform="translate(1552.539062 0.015625)"/>
     <use xlink:href="#Cmmi10-3b" transform="translate(1609.619141 0.015625)"/>
     <use xlink:href="#Cmmi10-79" transform="translate(1654.863281 0.015625)"/>
     <use xlink:href="#Cmr10-29" transform="translate(1703.886719 0.015625)"/>
     <use xlink:href="#DejaVuSerif-20" transform="translate(1742.705078 0.015625)"/>
     <use xlink:href="#DejaVuSerif-74" transform="translate(1774.492188 0.015625)"/>
     <use xlink:href="#DejaVuSerif-68" transform="translate(1814.677734 0.015625)"/>
     <use xlink:href="#DejaVuSerif-61" transform="translate(1879.082031 0.015625)"/>
     <use xlink:href="#DejaVuSerif-74" transform="translate(1938.701172 0.015625)"/>
     <use xlink:href="#DejaVuSerif-20" transform="translate(1978.886719 0.015625)"/>
     <use xlink:href="#DejaVuSerif-61" transform="translate(2010.673828 0.015625)"/>
     <use xlink:href="#DejaVuSerif-72" transform="translate(2070.292969 0.015625)"/>
     <use xlink:href="#DejaVuSerif-65" transform="translate(2118.095703 0.015625)"/>
     <use xlink:href="#DejaVuSerif-20" transform="translate(2177.275391 0.015625)"/>
     <use xlink:href="#DejaVuSerif-74" transform="translate(2209.0625 0.015625)"/>
     <use xlink:href="#DejaVuSerif-77" transform="translate(2249.248047 0.015625)"/>
     <use xlink:href="#DejaVuSerif-69" transform="translate(2334.84375 0.015625)"/>
     <use xlink:href="#DejaVuSerif-63" transform="translate(2366.826172 0.015625)"/>
     <use xlink:href="#DejaVuSerif-65" transform="translate(2422.832031 0.015625)"/>
     <use xlink:href="#DejaVuSerif-20" transform="translate(2482.011719 0.015625)"/>
     <use xlink:href="#DejaVuSerif-63" transform="translate(2513.798828 0.015625)"/>
     <use xlink:href="#DejaVuSerif-6f" transform="translate(2569.804688 0.015625)"/>
     <use xlink:href="#DejaVuSerif-6e" transform="translate(2630.009766 0.015625)"/>
     <use xlink:href="#DejaVuSerif-74" transform="translate(2694.414062 0.015625)"/>
     <use xlink:href="#DejaVuSerif-69" transform="translate(2734.599609 0.015625)"/>
     <use xlink:href="#DejaVuSerif-6e" transform="translate(2766.582031 0.015625)"/>
     <use xlink:href="#DejaVuSerif-75" transform="translate(2830.986328 0.015625)"/>
     <use xlink:href="#DejaVuSerif-6f" transform="translate(2895.390625 0.015625)"/>
     <use xlink:href="#DejaVuSerif-75" transform="translate(2955.595703 0.015625)"/>
     <use xlink:href="#DejaVuSerif-73" transform="translate(3020 0.015625)"/>
     <use xlink:href="#DejaVuSerif-6c" transform="translate(3071.318359 0.015625)"/>
     <use xlink:href="#DejaVuSerif-79" transform="translate(3103.300781 0.015625)"/>
     <use xlink:href="#DejaVuSerif-20" transform="translate(3159.794922 0.015625)"/>
     <use xlink:href="#DejaVuSerif-64" transform="translate(3191.582031 0.015625)"/>
     <use xlink:href="#DejaVuSerif-69" transform="translate(3255.595703 0.015625)"/>
     <use xlink:href="#DejaVuSerif-66" transform="translate(3287.578125 0.015625)"/>
     <use xlink:href="#DejaVuSerif-66" transform="translate(3324.589844 0.015625)"/>
     <use xlink:href="#DejaVuSerif-65" transform="translate(3361.601562 0.015625)"/>
     <use xlink:href="#DejaVuSerif-72" transform="translate(3420.78125 0.015625)"/>
     <use xlink:href="#DejaVuSerif-65" transform="translate(3468.583984 0.015625)"/>
     <use xlink:href="#DejaVuSerif-6e" transform="translate(3527.763672 0.015625)"/>
     <use xlink:href="#DejaVuSerif-74" transform="translate(3592.167969 0.015625)"/>
     <use xlink:href="#DejaVuSerif-69" transform="translate(3632.353516 0.015625)"/>
     <use xlink:href="#DejaVuSerif-61" transform="translate(3664.335938 0.015625)"/>
     <use xlink:href="#DejaVuSerif-62" transform="translate(3723.955078 0.015625)"/>
     <use xlink:href="#DejaVuSerif-6c" transform="translate(3787.96875 0.015625)"/>
     <use xlink:href="#DejaVuSerif-65" transform="translate(3819.951172 0.015625)"/>
     <use xlink:href="#DejaVuSerif-20" transform="translate(3879.130859 0.015625)"/>
     <use xlink:href="#DejaVuSerif-66" transform="translate(3910.917969 0.015625)"/>
     <use xlink:href="#DejaVuSerif-6f" transform="translate(3947.929688 0.015625)"/>
     <use xlink:href="#DejaVuSerif-72" transform="translate(4008.134766 0.015625)"/>
     <use xlink:href="#DejaVuSerif-20" transform="translate(4055.9375 0.015625)"/>
     <use xlink:href="#Cmmi10-78" transform="translate(4087.724609 0.015625)"/>
     <use xlink:href="#STIXGeneral-Regular-2267" transform="translate(4162.363281 0.015625)"/>
     <use xlink:href="#Cmr10-31" transform="translate(4248.42186 0.015625)"/>
     <use xlink:href="#Cmmi10-3b" transform="translate(4298.42186 0.015625)"/>
     <use xlink:href="#Cmmi10-79" transform="translate(4343.666 0.015625)"/>
     <use xlink:href="#STIXGeneral-Regular-2267" transform="translate(4410.248032 0.015625)"/>
     <use xlink:href="#Cmr10-31" transform="translate(4496.30661 0.015625)"/>
     <use xlink:href="#DejaVuSerif-20" transform="translate(4546.30661 0.015625)"/>
     <use xlink:href="#DejaVuSerif-61" transform="translate(4578.093719 0.015625)"/>
     <use xlink:href="#DejaVuSerif-6e" transform="translate(4637.71286 0.015625)"/>
     <use xlink:href="#DejaVuSerif-64" transform="translate(4702.117157 0.015625)"/>
     <use xlink:href="#DejaVuSerif-20" transform="translate(4766.130829 0.015625)"/>
     <use xlink:href="#DejaVuSerif-74" transform="translate(4797.917938 0.015625)"/>
     <use xlink:href="#DejaVuSerif-68" transform="translate(4838.103485 0.015625)"/>
     <use xlink:href="#DejaVuSerif-61" transform="translate(4902.507782 0.015625)"/>
     <use xlink:href="#DejaVuSerif-74" transform="translate(4962.126923 0.015625)"/>
     <use xlink:href="#DejaVuSerif-20" transform="translate(5002.312469 0.015625)"/>
     <use xlink:href="#DejaVuSerif-73" transform="translate(5034.099579 0.015625)"/>
     <use xlink:href="#DejaVuSerif-61" transform="translate(5085.417938 0.015625)"/>
     <use xlink:href="#DejaVuSerif-74" transform="translate(5145.037079 0.015625)"/>
     <use xlink:href="#DejaVuSerif-69" transform="translate(5185.222626 0.015625)"/>
     <use xlink:href="#DejaVuSerif-73" transform="translate(5217.205048 0.015625)"/>
     <use xlink:href="#DejaVuSerif-66" transform="translate(5268.523407 0.015625)"/>
     <use xlink:href="#DejaVuSerif-79" transform="translate(5305.535126 0.015625)"/>
     <use xlink:href="#DejaVuSerif-20" transform="translate(5362.029266 0.015625)"/>
     <use xlink:href="#DejaVuSerif-74" transform="translate(5393.816376 0.015625)"/>
     <use xlink:href="#DejaVuSerif-68" transform="translate(5434.001923 0.015625)"/>
     <use xlink:href="#DejaVuSerif-65" transform="translate(5498.406219 0.015625)"/>
     <use xlink:href="#DejaVuSerif-20" transform="translate(5557.585907 0.015625)"/>
     <use xlink:href="#DejaVuSerif-66" transform="translate(5589.373016 0.015625)"/>
     <use xlink:href="#DejaVuSerif-6f" transform="translate(5626.384735 0.015625)"/>
     <use xlink:href="#DejaVuSerif-6c" transform="translate(5686.589813 0.015625)"/>
     <use xlink:href="#DejaVuSerif-6c" transform="translate(5718.572235 0.015625)"/>
     <use xlink:href="#DejaVuSerif-6f" transform="translate(5750.554657 0.015625)"/>
     <use xlink:href="#DejaVuSerif-77" transform="translate(5810.759735 0.015625)"/>
     <use xlink:href="#DejaVuSerif-69" transform="translate(5896.355438 0.015625)"/>
     <use xlink:href="#DejaVuSerif-6e" transform="translate(5928.33786 0.015625)"/>
     <use xlink:href="#DejaVuSerif-67" transform="translate(5992.742157 0.015625)"/>
     <use xlink:href="#DejaVuSerif-20" transform="translate(6056.755829 0.015625)"/>
     <use xlink:href="#DejaVuSerif-74" transform="translate(6088.542938 0.015625)"/>
     <use xlink:href="#DejaVuSerif-77" transform="translate(6128.728485 0.015625)"/>
     <use xlink:href="#DejaVuSerif-6f" transform="translate(6214.324188 0.015625)"/>
     <use xlink:href="#DejaVuSerif-20" transform="translate(6274.529266 0.015625)"/>
     <use xlink:href="#DejaVuSerif-65" transform="translate(6306.316376 0.015625)"/>
     <use xlink:href="#DejaVuSerif-71" transform="translate(6365.496063 0.015625)"/>
     <use xlink:href="#DejaVuSerif-75" transform="translate(6429.509735 0.015625)"/>
     <use xlink:href="#DejaVuSerif-61" transform="translate(6493.914032 0.015625)"/>
     <use xlink:href="#DejaVuSerif-74" transform="translate(6553.533173 0.015625)"/>
     <use xlink:href="#DejaVuSerif-69" transform="translate(6593.718719 0.015625)"/>
     <use xlink:href="#DejaVuSerif-6f" transform="translate(6625.701141 0.015625)"/>
     <use xlink:href="#DejaVuSerif-6e" transform="translate(6685.906219 0.015625)"/>
     <use xlink:href="#DejaVuSerif-73" transform="translate(6750.310516 0.015625)"/>
     <use xlink:href="#DejaVuSerif-20" transform="translate(6801.628876 0.015625)"/>
     <use xlink:href="#DejaVuSerif-28" transform="translate(6833.415985 0.015625)"/>
     <use xlink:href="#DejaVuSerif-77" transform="translate(6872.429657 0.015625)"/>
     <use xlink:href="#DejaVuSerif-68" transform="translate(6958.02536 0.015625)"/>
     <use xlink:href="#DejaVuSerif-65" transform="translate(7022.429657 0.015625)"/>
     <use xlink:href="#DejaVuSerif-72" transform="translate(7081.609344 0.015625)"/>
     <use xlink:href="#DejaVuSerif-65" transform="translate(7129.412079 0.015625)"/>
     <use xlink:href="#DejaVuSerif-20" transform="translate(7188.591766 0.015625)"/>
     <use xlink:href="#DejaVuSerif-73" transform="translate(7220.378876 0.015625)"/>
     <use xlink:href="#DejaVuSerif-75" transform="translate(7271.697235 0.015625)"/>
     <use xlink:href="#DejaVuSerif-62" transform="translate(7336.101532 0.015625)"/>
     <use xlink:href="#DejaVuSerif-73" transform="translate(7400.115204 0.015625)"/>
     <use xlink:href="#DejaVuSerif-63" transform="translate(7451.433563 0.015625)"/>
     <use xlink:href="#DejaVuSerif-72" transform="translate(7507.439423 0.015625)"/>
     <use xlink:href="#DejaVuSerif-69" transform="translate(7555.242157 0.015625)"/>
     <use xlink:href="#DejaVuSerif-70" transform="translate(7587.224579 0.015625)"/>
     <use xlink:href="#DejaVuSerif-74" transform="translate(7651.238251 0.015625)"/>
     <use xlink:href="#DejaVuSerif-73" transform="translate(7691.423798 0.015625)"/>
     <use xlink:href="#DejaVuSerif-20" transform="translate(7742.742157 0.015625)"/>
     <use xlink:href="#DejaVuSerif-64" transform="translate(7774.529266 0.015625)"/>
     <use xlink:href="#DejaVuSerif-65" transform="translate(7838.542938 0.015625)"/>
     <use xlink:href="#DejaVuSerif-6e" transform="translate(7897.722626 0.015625)"/>
     <use xlink:href="#DejaVuSerif-6f" transform="translate(7962.126923 0.015625)"/>
     <use xlink:href="#DejaVuSerif-74" transform="translate(8022.332001 0.015625)"/>
     <use xlink:href="#DejaVuSerif-65" transform="translate(8062.517548 0.015625)"/>
     <use xlink:href="#DejaVuSerif-20" transform="translate(8121.697235 0.015625)"/>
     <use xlink:href="#DejaVuSerif-70" transform="translate(8153.484344 0.015625)"/>
     <use xlink:href="#DejaVuSerif-61" transform="translate(8217.498016 0.015625)"/>
     <use xlink:href="#DejaVuSerif-72" transform="translate(8277.117157 0.015625)"/>
     <use xlink:href="#DejaVuSerif-74" transform="translate(8324.919891 0.015625)"/>
     <use xlink:href="#DejaVuSerif-69" transform="translate(8365.105438 0.015625)"/>
     <use xlink:href="#DejaVuSerif-61" transform="translate(8397.08786 0.015625)"/>
     <use xlink:href="#DejaVuSerif-6c" transform="translate(8456.707001 0.015625)"/>
     <use xlink:href="#DejaVuSerif-20" transform="translate(8488.689423 0.015625)"/>
     <use xlink:href="#DejaVuSerif-64" transform="translate(8520.476532 0.015625)"/>
     <use xlink:href="#DejaVuSerif-65" transform="translate(8584.490204 0.015625)"/>
     <use xlink:href="#DejaVuSerif-72" transform="translate(8643.669891 0.015625)"/>
     <use xlink:href="#DejaVuSerif-69" transform="translate(8691.472626 0.015625)"/>
     <use xlink:href="#DejaVuSerif-76" transform="translate(8723.455048 0.015625)"/>
     <use xlink:href="#DejaVuSerif-61" transform="translate(8779.949188 0.015625)"/>
     <use xlink:href="#DejaVuSerif-74" transform="translate(8839.568329 0.015625)"/>
     <use xlink:href="#DejaVuSerif-69" transform="translate(8879.753876 0.015625)"/>
     <use xlink:href="#DejaVuSerif-76" transform="translate(8911.736298 0.015625)"/>
     <use xlink:href="#DejaVuSerif-65" transform="translate(8968.230438 0.015625)"/>
     <use xlink:href="#DejaVuSerif-73" transform="translate(9027.410126 0.015625)"/>
     <use xlink:href="#DejaVuSerif-29" transform="translate(9078.728485 0.015625)"/>
     <use xlink:href="#DejaVuSerif-3a" transform="translate(9117.742157 0.015625)"/>
    </g>
    <!-- \begin{gather*} -->
    <g transform="translate(506.534062 69.470625) scale(0.12 -0.12)">
     <defs>
      <path id="DejaVuSerif-5c" d="M 500 4666 
L 2156 -594 
L 1656 -594 
L 0 4666 
L 500 4666 
z
" transform="scale(0.015625)"/>
      <path id="DejaVuSerif-7b" d="M 3272 -716 
L 3272 -1044 
L 3078 -1044 
Q 2300 -1044 2036 -812 
Q 1772 -581 1772 109 
L 1772 916 
Q 1772 1384 1603 1565 
Q 1434 1747 991 1747 
L 800 1747 
L 800 2075 
L 991 2075 
Q 1434 2075 1603 2256 
Q 1772 2438 1772 2906 
L 1772 3713 
Q 1772 4403 2036 4633 
Q 2300 4863 3078 4863 
L 3272 4863 
L 3272 4538 
L 3059 4538 
Q 2619 4538 2484 4400 
Q 2350 4263 2350 3822 
L 2350 2925 
Q 2350 2431 2194 2218 
Q 2038 2006 1631 1913 
Q 2044 1806 2197 1597 
Q 2350 1388 2350 897 
L 2350 0 
Q 2350 -441 2484 -578 
Q 2619 -716 3059 -716 
L 3272 -716 
z
" transform="scale(0.015625)"/>
      <path id="DejaVuSerif-2a" d="M 3097 3866 
L 1875 3297 
L 3097 2719 
L 2859 2350 
L 1772 3028 
L 1813 1838 
L 1388 1838 
L 1428 3028 
L 341 2350 
L 103 2719 
L 1325 3291 
L 103 3866 
L 341 4238 
L 1428 3559 
L 1388 4750 
L 1813 4750 
L 1772 3559 
L 2859 4238 
L 3097 3866 
z
" transform="scale(0.015625)"/>
      <path id="DejaVuSerif-7d" d="M 800 -716 
L 1019 -716 
Q 1456 -716 1589 -580 
Q 1722 -444 1722 0 
L 1722 897 
Q 1722 1388 1875 1597 
Q 2028 1806 2438 1913 
Q 2031 2006 1876 2218 
Q 1722 2431 1722 2925 
L 1722 3822 
Q 1722 4266 1589 4402 
Q 1456 4538 1019 4538 
L 800 4538 
L 800 4863 
L 997 4863 
Q 1775 4863 2036 4633 
Q 2297 4403 2297 3713 
L 2297 2906 
Q 2297 2438 2465 2256 
Q 2634 2075 3078 2075 
L 3272 2075 
L 3272 1747 
L 3078 1747 
Q 2634 1747 2465 1565 
Q 2297 1384 2297 916 
L 2297 109 
Q 2297 -581 2036 -812 
Q 1775 -1044 997 -1044 
L 800 -1044 
L 800 -716 
z
" transform="scale(0.015625)"/>
     </defs>
     <use xlink:href="#DejaVuSerif-5c"/>
     <use xlink:href="#DejaVuSerif-62" transform="translate(33.691406 0)"/>
     <use xlink:href="#DejaVuSerif-65" transform="translate(97.705078 0)"/>
     <use xlink:href="#DejaVuSerif-67" transform="translate(156.884766 0)"/>
     <use xlink:href="#DejaVuSerif-69" transform="translate(220.898438 0)"/>
     <use xlink:href="#DejaVuSerif-6e" transform="translate(252.880859 0)"/>
     <use xlink:href="#DejaVuSerif-7b" transform="translate(317.285156 0)"/>
     <use xlink:href="#DejaVuSerif-67" transform="translate(380.908203 0)"/>
     <use xlink:href="#DejaVuSerif-61" transform="translate(444.921875 0)"/>
     <use xlink:href="#DejaVuSerif-74" transform="translate(504.541016 0)"/>
     <use xlink:href="#DejaVuSerif-68" transform="translate(544.726562 0)"/>
     <use xlink:href="#DejaVuSerif-65" transform="translate(609.130859 0)"/>
     <use xlink:href="#DejaVuSerif-72" transform="translate(668.310547 0)"/>
     <use xlink:href="#DejaVuSerif-2a" transform="translate(716.113281 0)"/>
     <use xlink:href="#DejaVuSerif-7d" transform="translate(766.113281 0)"/>
    </g>
    <!-- xf_x+yf_y=xy\ln(xy), \\ -->
    <g transform="translate(488.385937 83.078625) scale(0.12 -0.12)">
     <defs>
      <path id="DejaVuSerif-78" d="M 1863 2028 
L 2559 2988 
L 2113 2988 
L 2113 3322 
L 3391 3322 
L 3391 2988 
L 2950 2988 
L 2059 1759 
L 3097 331 
L 3531 331 
L 3531 0 
L 1997 0 
L 1997 331 
L 2419 331 
L 1697 1325 
L 972 331 
L 1403 331 
L 1403 0 
L 141 0 
L 141 331 
L 581 331 
L 1497 1594 
L 488 2988 
L 78 2988 
L 78 3322 
L 1563 3322 
L 1563 2988 
L 1166 2988 
L 1863 2028 
z
" transform="scale(0.015625)"/>
      <path id="DejaVuSerif-5f" d="M 3200 -1259 
L 3200 -1509 
L 0 -1509 
L 0 -1259 
L 3200 -1259 
z
" transform="scale(0.015625)"/>
      <path id="DejaVuSerif-2b" d="M 2931 4013 
L 2931 2259 
L 4684 2259 
L 4684 1753 
L 2931 1753 
L 2931 0 
L 2431 0 
L 2431 1753 
L 678 1753 
L 678 2259 
L 2431 2259 
L 2431 4013 
L 2931 4013 
z
" transform="scale(0.015625)"/>
      <path id="DejaVuSerif-3d" d="M 678 2894 
L 4684 2894 
L 4684 2394 
L 678 2394 
L 678 2894 
z
M 678 1619 
L 4684 1619 
L 4684 1119 
L 678 1119 
L 678 1619 
z
" transform="scale(0.015625)"/>
      <path id="DejaVuSerif-2c" d="M 231 -622 
Q 525 -406 662 -114 
Q 800 178 800 594 
L 800 709 
L 1416 709 
Q 1391 175 1164 -208 
Q 938 -591 481 -872 
L 231 -622 
z
" transform="scale(0.015625)"/>
     </defs>
     <use xlink:href="#DejaVuSerif-78"/>
     <use xlink:href="#DejaVuSerif-66" transform="translate(56.396484 0)"/>
     <use xlink:href="#DejaVuSerif-5f" transform="translate(93.408203 0)"/>
     <use xlink:href="#DejaVuSerif-78" transform="translate(143.408203 0)"/>
     <use xlink:href="#DejaVuSerif-2b" transform="translate(199.804688 0)"/>
     <use xlink:href="#DejaVuSerif-79" transform="translate(283.59375 0)"/>
     <use xlink:href="#DejaVuSerif-66" transform="translate(340.087891 0)"/>
     <use xlink:href="#DejaVuSerif-5f" transform="translate(377.099609 0)"/>
     <use xlink:href="#DejaVuSerif-79" transform="translate(427.099609 0)"/>
     <use xlink:href="#DejaVuSerif-3d" transform="translate(483.59375 0)"/>
     <use xlink:href="#DejaVuSerif-78" transform="translate(567.382812 0)"/>
     <use xlink:href="#DejaVuSerif-79" transform="translate(623.779297 0)"/>
     <use xlink:href="#DejaVuSerif-5c" transform="translate(680.273438 0)"/>
     <use xlink:href="#DejaVuSerif-6c" transform="translate(713.964844 0)"/>
     <use xlink:href="#DejaVuSerif-6e" transform="translate(745.947266 0)"/>
     <use xlink:href="#DejaVuSerif-28" transform="translate(810.351562 0)"/>
     <use xlink:href="#DejaVuSerif-78" transform="translate(849.365234 0)"/>
     <use xlink:href="#DejaVuSerif-79" transform="translate(905.761719 0)"/>
     <use xlink:href="#DejaVuSerif-29" transform="translate(962.255859 0)"/>
     <use xlink:href="#DejaVuSerif-2c" transform="translate(1001.269531 0)"/>
     <use xlink:href="#DejaVuSerif-20" transform="translate(1033.056641 0)"/>
     <use xlink:href="#DejaVuSerif-5c" transform="translate(1064.84375 0)"/>
     <use xlink:href="#DejaVuSerif-5c" transform="translate(1098.535156 0)"/>
    </g>
    <!-- x^2f_{xx}+y^2f_{yy}=xy. -->
    <g transform="translate(474.65625 96.84975) scale(0.12 -0.12)">
     <defs>
      <path id="DejaVuSerif-5e" d="M 2988 4666 
L 4684 2925 
L 4206 2925 
L 2681 4116 
L 1159 2925 
L 678 2925 
L 2375 4666 
L 2988 4666 
z
" transform="scale(0.015625)"/>
      <path id="DejaVuSerif-32" d="M 819 3553 
L 469 3553 
L 469 4384 
Q 803 4563 1142 4656 
Q 1481 4750 1806 4750 
Q 2534 4750 2956 4397 
Q 3378 4044 3378 3438 
Q 3378 2753 2422 1800 
Q 2347 1728 2309 1691 
L 1131 513 
L 3078 513 
L 3078 1088 
L 3444 1088 
L 3444 0 
L 434 0 
L 434 341 
L 1850 1753 
Q 2319 2222 2519 2614 
Q 2719 3006 2719 3438 
Q 2719 3909 2473 4175 
Q 2228 4441 1797 4441 
Q 1350 4441 1106 4219 
Q 863 3997 819 3553 
z
" transform="scale(0.015625)"/>
      <path id="DejaVuSerif-2e" d="M 603 325 
Q 603 500 722 622 
Q 841 744 1019 744 
Q 1191 744 1312 622 
Q 1434 500 1434 325 
Q 1434 153 1312 31 
Q 1191 -91 1019 -91 
Q 841 -91 722 29 
Q 603 150 603 325 
z
" transform="scale(0.015625)"/>
     </defs>
     <use xlink:href="#DejaVuSerif-78"/>
     <use xlink:href="#DejaVuSerif-5e" transform="translate(56.396484 0)"/>
     <use xlink:href="#DejaVuSerif-32" transform="translate(140.185547 0)"/>
     <use xlink:href="#DejaVuSerif-66" transform="translate(203.808594 0)"/>
     <use xlink:href="#DejaVuSerif-5f" transform="translate(240.820312 0)"/>
     <use xlink:href="#DejaVuSerif-7b" transform="translate(290.820312 0)"/>
     <use xlink:href="#DejaVuSerif-78" transform="translate(354.443359 0)"/>
     <use xlink:href="#DejaVuSerif-78" transform="translate(410.839844 0)"/>
     <use xlink:href="#DejaVuSerif-7d" transform="translate(467.236328 0)"/>
     <use xlink:href="#DejaVuSerif-2b" transform="translate(530.859375 0)"/>
     <use xlink:href="#DejaVuSerif-79" transform="translate(614.648438 0)"/>
     <use xlink:href="#DejaVuSerif-5e" transform="translate(671.142578 0)"/>
     <use xlink:href="#DejaVuSerif-32" transform="translate(754.931641 0)"/>
     <use xlink:href="#DejaVuSerif-66" transform="translate(818.554688 0)"/>
     <use xlink:href="#DejaVuSerif-5f" transform="translate(855.566406 0)"/>
     <use xlink:href="#DejaVuSerif-7b" transform="translate(905.566406 0)"/>
     <use xlink:href="#DejaVuSerif-79" transform="translate(969.189453 0)"/>
     <use xlink:href="#DejaVuSerif-79" transform="translate(1025.683594 0)"/>
     <use xlink:href="#DejaVuSerif-7d" transform="translate(1082.177734 0)"/>
     <use xlink:href="#DejaVuSerif-3d" transform="translate(1145.800781 0)"/>
     <use xlink:href="#DejaVuSerif-78" transform="translate(1229.589844 0)"/>
     <use xlink:href="#DejaVuSerif-79" transform="translate(1285.986328 0)"/>
     <use xlink:href="#DejaVuSerif-2e" transform="translate(1329.230469 0)"/>
    </g>
    <!-- \end{gather*} -->
    <g transform="translate(512.294062 110.620875) scale(0.12 -0.12)">
     <use xlink:href="#DejaVuSerif-5c"/>
     <use xlink:href="#DejaVuSerif-65" transform="translate(33.691406 0)"/>
     <use xlink:href="#DejaVuSerif-6e" transform="translate(92.871094 0)"/>
     <use xlink:href="#DejaVuSerif-64" transform="translate(157.275391 0)"/>
     <use xlink:href="#DejaVuSerif-7b" transform="translate(221.289062 0)"/>
     <use xlink:href="#DejaVuSerif-67" transform="translate(284.912109 0)"/>
     <use xlink:href="#DejaVuSerif-61" transform="translate(348.925781 0)"/>
     <use xlink:href="#DejaVuSerif-74" transform="translate(408.544922 0)"/>
     <use xlink:href="#DejaVuSerif-68" transform="translate(448.730469 0)"/>
     <use xlink:href="#DejaVuSerif-65" transform="translate(513.134766 0)"/>
     <use xlink:href="#DejaVuSerif-72" transform="translate(572.314453 0)"/>
     <use xlink:href="#DejaVuSerif-2a" transform="translate(620.117188 0)"/>
     <use xlink:href="#DejaVuSerif-7d" transform="translate(670.117188 0)"/>
    </g>
    <!-- For each $f \in \mathcal{F}$, let $m(f)=\min_{s \geqq 1} (f(s+1,s+1)-f(s+1,s)-f(s,s+1)+f(s,s))$. Determine $m(f)$, and show that it is independent of the choice of $f$. -->
    <g transform="translate(151.62 124.231125) scale(0.12 -0.12)">
     <defs>
      <path id="DejaVuSerif-46" d="M 353 0 
L 353 331 
L 947 331 
L 947 4331 
L 353 4331 
L 353 4666 
L 4172 4666 
L 4172 3628 
L 3788 3628 
L 3788 4281 
L 1581 4281 
L 1581 2719 
L 3175 2719 
L 3175 3303 
L 3559 3303 
L 3559 1753 
L 3175 1753 
L 3175 2338 
L 1581 2338 
L 1581 331 
L 2328 331 
L 2328 0 
L 353 0 
z
" transform="scale(0.015625)"/>
      <path id="Cmsy10-32" d="M 1356 403 
Q 1838 0 2497 0 
L 3616 0 
Q 3666 0 3698 -37 
Q 3731 -75 3731 -128 
Q 3731 -175 3698 -215 
Q 3666 -256 3616 -256 
L 2478 -256 
Q 1969 -256 1519 -12 
Q 1069 231 800 657 
Q 531 1084 531 1600 
Q 531 2116 800 2542 
Q 1069 2969 1519 3212 
Q 1969 3456 2478 3456 
L 3616 3456 
Q 3666 3456 3698 3415 
Q 3731 3375 3731 3328 
Q 3731 3275 3698 3237 
Q 3666 3200 3616 3200 
L 2497 3200 
Q 2184 3200 1889 3097 
Q 1594 2994 1356 2797 
Q 1122 2600 958 2304 
Q 794 2009 794 1728 
L 3616 1728 
Q 3666 1728 3698 1687 
Q 3731 1647 3731 1600 
Q 3731 1553 3698 1512 
Q 3666 1472 3616 1472 
L 794 1472 
Q 794 1194 958 897 
Q 1122 600 1356 403 
z
" transform="scale(0.015625)"/>
      <path id="Cmmi10-6d" d="M 494 109 
Q 494 147 500 166 
L 978 2075 
Q 1025 2253 1025 2388 
Q 1025 2663 838 2663 
Q 638 2663 541 2423 
Q 444 2184 353 1819 
Q 353 1800 334 1789 
Q 316 1778 300 1778 
L 225 1778 
Q 203 1778 187 1801 
Q 172 1825 172 1844 
Q 241 2122 305 2315 
Q 369 2509 505 2668 
Q 641 2828 844 2828 
Q 1084 2828 1268 2676 
Q 1453 2525 1453 2291 
Q 1644 2541 1900 2684 
Q 2156 2828 2444 2828 
Q 2747 2828 2967 2673 
Q 3188 2519 3188 2234 
Q 3384 2513 3648 2670 
Q 3913 2828 4225 2828 
Q 4556 2828 4757 2648 
Q 4959 2469 4959 2138 
Q 4959 1875 4842 1503 
Q 4725 1131 4550 672 
Q 4459 450 4459 288 
Q 4459 97 4609 97 
Q 4859 97 5025 365 
Q 5191 634 5259 941 
Q 5278 978 5313 978 
L 5388 978 
Q 5413 978 5430 961 
Q 5447 944 5447 922 
Q 5447 916 5441 903 
Q 5353 541 5136 234 
Q 4919 -72 4594 -72 
Q 4369 -72 4209 83 
Q 4050 238 4050 459 
Q 4050 572 4103 709 
Q 4284 1191 4404 1569 
Q 4525 1947 4525 2234 
Q 4525 2413 4453 2538 
Q 4381 2663 4213 2663 
Q 3863 2663 3606 2448 
Q 3350 2234 3163 1881 
Q 3150 1819 3144 1784 
L 2731 141 
Q 2709 53 2632 -9 
Q 2556 -72 2463 -72 
Q 2388 -72 2330 -22 
Q 2272 28 2272 109 
Q 2272 147 2278 166 
L 2688 1797 
Q 2753 2059 2753 2234 
Q 2753 2413 2679 2538 
Q 2606 2663 2431 2663 
Q 2197 2663 2000 2559 
Q 1803 2456 1656 2286 
Q 1509 2116 1388 1881 
L 953 141 
Q 931 53 854 -9 
Q 778 -72 684 -72 
Q 606 -72 550 -22 
Q 494 28 494 109 
z
" transform="scale(0.015625)"/>
      <path id="Cmr10-3d" d="M 481 850 
Q 428 850 393 890 
Q 359 931 359 978 
Q 359 1031 393 1068 
Q 428 1106 481 1106 
L 4500 1106 
Q 4547 1106 4581 1068 
Q 4616 1031 4616 978 
Q 4616 931 4581 890 
Q 4547 850 4500 850 
L 481 850 
z
M 481 2094 
Q 428 2094 393 2131 
Q 359 2169 359 2222 
Q 359 2269 393 2309 
Q 428 2350 481 2350 
L 4500 2350 
Q 4547 2350 4581 2309 
Q 4616 2269 4616 2222 
Q 4616 2169 4581 2131 
Q 4547 2094 4500 2094 
L 481 2094 
z
" transform="scale(0.015625)"/>
      <path id="Cmr10-6d" d="M 191 0 
L 191 225 
Q 409 225 550 259 
Q 691 294 691 428 
L 691 2175 
Q 691 2347 639 2423 
Q 588 2500 491 2517 
Q 394 2534 191 2534 
L 191 2759 
L 1119 2828 
L 1119 2203 
Q 1247 2478 1498 2653 
Q 1750 2828 2047 2828 
Q 2784 2828 2913 2228 
Q 3041 2497 3287 2662 
Q 3534 2828 3828 2828 
Q 4119 2828 4317 2734 
Q 4516 2641 4616 2448 
Q 4716 2256 4716 1966 
L 4716 428 
Q 4716 294 4858 259 
Q 5000 225 5216 225 
L 5216 0 
L 3750 0 
L 3750 225 
Q 3969 225 4109 259 
Q 4250 294 4250 428 
L 4250 1947 
Q 4250 2269 4159 2466 
Q 4069 2663 3788 2663 
Q 3419 2663 3178 2366 
Q 2938 2069 2938 1691 
L 2938 428 
Q 2938 294 3078 259 
Q 3219 225 3438 225 
L 3438 0 
L 1972 0 
L 1972 225 
Q 2191 225 2331 259 
Q 2472 294 2472 428 
L 2472 1947 
Q 2472 2259 2381 2461 
Q 2291 2663 2009 2663 
Q 1638 2663 1398 2366 
Q 1159 2069 1159 1691 
L 1159 428 
Q 1159 294 1300 259 
Q 1441 225 1656 225 
L 1656 0 
L 191 0 
z
" transform="scale(0.015625)"/>
      <path id="Cmr10-69" d="M 197 0 
L 197 225 
Q 416 225 556 259 
Q 697 294 697 428 
L 697 2175 
Q 697 2422 601 2478 
Q 506 2534 225 2534 
L 225 2759 
L 1147 2828 
L 1147 428 
Q 1147 294 1269 259 
Q 1391 225 1594 225 
L 1594 0 
L 197 0 
z
M 469 3928 
Q 469 4069 575 4175 
Q 681 4281 819 4281 
Q 909 4281 993 4234 
Q 1078 4188 1125 4103 
Q 1172 4019 1172 3928 
Q 1172 3791 1065 3684 
Q 959 3578 819 3578 
Q 681 3578 575 3684 
Q 469 3791 469 3928 
z
" transform="scale(0.015625)"/>
      <path id="Cmr10-6e" d="M 191 0 
L 191 225 
Q 409 225 550 259 
Q 691 294 691 428 
L 691 2175 
Q 691 2347 639 2423 
Q 588 2500 491 2517 
Q 394 2534 191 2534 
L 191 2759 
L 1119 2828 
L 1119 2203 
Q 1247 2478 1498 2653 
Q 1750 2828 2047 2828 
Q 2491 2828 2714 2615 
Q 2938 2403 2938 1966 
L 2938 428 
Q 2938 294 3078 259 
Q 3219 225 3438 225 
L 3438 0 
L 1972 0 
L 1972 225 
Q 2191 225 2331 259 
Q 2472 294 2472 428 
L 2472 1947 
Q 2472 2259 2381 2461 
Q 2291 2663 2009 2663 
Q 1638 2663 1398 2366 
Q 1159 2069 1159 1691 
L 1159 428 
Q 1159 294 1300 259 
Q 1441 225 1656 225 
L 1656 0 
L 191 0 
z
" transform="scale(0.015625)"/>
      <path id="Cmmi10-73" d="M 556 391 
Q 728 97 1247 97 
Q 1472 97 1675 173 
Q 1878 250 2011 403 
Q 2144 556 2144 775 
Q 2144 941 2025 1047 
Q 1906 1153 1734 1191 
L 1388 1259 
Q 1150 1319 997 1481 
Q 844 1644 844 1875 
Q 844 2159 998 2378 
Q 1153 2597 1406 2712 
Q 1659 2828 1931 2828 
Q 2222 2828 2451 2689 
Q 2681 2550 2681 2278 
Q 2681 2131 2598 2018 
Q 2516 1906 2369 1906 
Q 2284 1906 2223 1961 
Q 2163 2016 2163 2100 
Q 2163 2175 2205 2245 
Q 2247 2316 2317 2358 
Q 2388 2400 2463 2400 
Q 2406 2538 2251 2600 
Q 2097 2663 1919 2663 
Q 1756 2663 1593 2597 
Q 1431 2531 1332 2404 
Q 1234 2278 1234 2106 
Q 1234 1991 1315 1903 
Q 1397 1816 1516 1778 
L 1888 1703 
Q 2066 1666 2214 1570 
Q 2363 1475 2448 1329 
Q 2534 1184 2534 997 
Q 2534 759 2401 528 
Q 2269 297 2075 159 
Q 1734 -72 1241 -72 
Q 900 -72 615 84 
Q 331 241 331 550 
Q 331 725 432 854 
Q 534 984 709 984 
Q 813 984 883 921 
Q 953 859 953 756 
Q 953 609 843 500 
Q 734 391 588 391 
L 556 391 
z
" transform="scale(0.015625)"/>
      <path id="Cmr10-2b" d="M 481 1472 
Q 428 1472 393 1512 
Q 359 1553 359 1600 
Q 359 1647 393 1687 
Q 428 1728 481 1728 
L 2363 1728 
L 2363 3616 
Q 2363 3666 2400 3698 
Q 2438 3731 2491 3731 
Q 2538 3731 2578 3698 
Q 2619 3666 2619 3616 
L 2619 1728 
L 4500 1728 
Q 4547 1728 4581 1687 
Q 4616 1647 4616 1600 
Q 4616 1553 4581 1512 
Q 4547 1472 4500 1472 
L 2619 1472 
L 2619 -416 
Q 2619 -466 2578 -498 
Q 2538 -531 2491 -531 
Q 2438 -531 2400 -498 
Q 2363 -466 2363 -416 
L 2363 1472 
L 481 1472 
z
" transform="scale(0.015625)"/>
      <path id="Cmsy10-a1" d="M 653 1472 
Q 600 1472 565 1512 
Q 531 1553 531 1600 
Q 531 1647 565 1687 
Q 600 1728 653 1728 
L 4325 1728 
Q 4375 1728 4408 1687 
Q 4441 1647 4441 1600 
Q 4441 1553 4408 1512 
Q 4375 1472 4325 1472 
L 653 1472 
z
" transform="scale(0.015625)"/>
      <path id="DejaVuSerif-44" d="M 1581 331 
L 2163 331 
Q 3072 331 3558 850 
Q 4044 1369 4044 2338 
Q 4044 3306 3559 3818 
Q 3075 4331 2163 4331 
L 1581 4331 
L 1581 331 
z
M 353 0 
L 353 331 
L 947 331 
L 947 4331 
L 353 4331 
L 353 4666 
L 2209 4666 
Q 3416 4666 4089 4050 
Q 4763 3434 4763 2338 
Q 4763 1238 4088 619 
Q 3413 0 2209 0 
L 353 0 
z
" transform="scale(0.015625)"/>
      <path id="DejaVuSerif-6d" d="M 3316 2675 
Q 3481 3041 3739 3227 
Q 3997 3413 4341 3413 
Q 4863 3413 5119 3089 
Q 5375 2766 5375 2113 
L 5375 331 
L 5894 331 
L 5894 0 
L 4300 0 
L 4300 331 
L 4800 331 
L 4800 2047 
Q 4800 2556 4650 2772 
Q 4500 2988 4153 2988 
Q 3769 2988 3567 2697 
Q 3366 2406 3366 1850 
L 3366 331 
L 3866 331 
L 3866 0 
L 2291 0 
L 2291 331 
L 2791 331 
L 2791 2069 
Q 2791 2566 2641 2777 
Q 2491 2988 2144 2988 
Q 1759 2988 1557 2697 
Q 1356 2406 1356 1850 
L 1356 331 
L 1856 331 
L 1856 0 
L 263 0 
L 263 331 
L 781 331 
L 781 2994 
L 231 2994 
L 231 3322 
L 1356 3322 
L 1356 2731 
Q 1516 3063 1762 3238 
Q 2009 3413 2322 3413 
Q 2709 3413 2968 3220 
Q 3228 3028 3316 2675 
z
" transform="scale(0.015625)"/>
     </defs>
     <use xlink:href="#DejaVuSerif-46" transform="translate(0 0.015625)"/>
     <use xlink:href="#DejaVuSerif-6f" transform="translate(69.384766 0.015625)"/>
     <use xlink:href="#DejaVuSerif-72" transform="translate(129.589844 0.015625)"/>
     <use xlink:href="#DejaVuSerif-20" transform="translate(177.392578 0.015625)"/>
     <use xlink:href="#DejaVuSerif-65" transform="translate(209.179688 0.015625)"/>
     <use xlink:href="#DejaVuSerif-61" transform="translate(268.359375 0.015625)"/>
     <use xlink:href="#DejaVuSerif-63" transform="translate(327.978516 0.015625)"/>
     <use xlink:href="#DejaVuSerif-68" transform="translate(383.984375 0.015625)"/>
     <use xlink:href="#DejaVuSerif-20" transform="translate(448.388672 0.015625)"/>
     <use xlink:href="#Cmmi10-66" transform="translate(480.175781 0.015625)"/>
     <use xlink:href="#Cmsy10-32" transform="translate(546.611328 0.015625)"/>
     <use xlink:href="#Cmsy10-46" transform="translate(630.771484 0.015625)"/>
     <use xlink:href="#DejaVuSerif-2c" transform="translate(702.548828 0.015625)"/>
     <use xlink:href="#DejaVuSerif-20" transform="translate(734.335938 0.015625)"/>
     <use xlink:href="#DejaVuSerif-6c" transform="translate(766.123047 0.015625)"/>
     <use xlink:href="#DejaVuSerif-65" transform="translate(798.105469 0.015625)"/>
     <use xlink:href="#DejaVuSerif-74" transform="translate(857.285156 0.015625)"/>
     <use xlink:href="#DejaVuSerif-20" transform="translate(897.470703 0.015625)"/>
     <use xlink:href="#Cmmi10-6d" transform="translate(929.257812 0.015625)"/>
     <use xlink:href="#Cmr10-28" transform="translate(1017.050781 0.015625)"/>
     <use xlink:href="#Cmmi10-66" transform="translate(1055.869141 0.015625)"/>
     <use xlink:href="#Cmr10-29" transform="translate(1104.746094 0.015625)"/>
     <use xlink:href="#Cmr10-3d" transform="translate(1161.123047 0.015625)"/>
     <use xlink:href="#Cmr10-6d" transform="translate(1256.367188 0.015625)"/>
     <use xlink:href="#Cmr10-69" transform="translate(1339.667969 0.015625)"/>
     <use xlink:href="#Cmr10-6e" transform="translate(1367.353516 0.015625)"/>
     <use xlink:href="#Cmmi10-73" transform="translate(1281.367188 -68.992188) scale(0.7)"/>
     <use xlink:href="#STIXGeneral-Regular-2267" transform="translate(1314.111328 -68.992188) scale(0.7)"/>
     <use xlink:href="#Cmr10-31" transform="translate(1362.061317 -68.992188) scale(0.7)"/>
     <use xlink:href="#Cmr10-28" transform="translate(1422.871094 0.015625)"/>
     <use xlink:href="#Cmmi10-66" transform="translate(1461.689453 0.015625)"/>
     <use xlink:href="#Cmr10-28" transform="translate(1510.566406 0.015625)"/>
     <use xlink:href="#Cmmi10-73" transform="translate(1549.384766 0.015625)"/>
     <use xlink:href="#Cmr10-2b" transform="translate(1596.162109 0.015625)"/>
     <use xlink:href="#Cmr10-31" transform="translate(1673.847656 0.015625)"/>
     <use xlink:href="#Cmmi10-3b" transform="translate(1723.847656 0.015625)"/>
     <use xlink:href="#Cmmi10-73" transform="translate(1769.091797 0.015625)"/>
     <use xlink:href="#Cmr10-2b" transform="translate(1815.869141 0.015625)"/>
     <use xlink:href="#Cmr10-31" transform="translate(1893.554688 0.015625)"/>
     <use xlink:href="#Cmr10-29" transform="translate(1943.554688 0.015625)"/>
     <use xlink:href="#Cmsy10-a1" transform="translate(1982.373047 0.015625)"/>
     <use xlink:href="#Cmmi10-66" transform="translate(2060.058594 0.015625)"/>
     <use xlink:href="#Cmr10-28" transform="translate(2108.935547 0.015625)"/>
     <use xlink:href="#Cmmi10-73" transform="translate(2147.753906 0.015625)"/>
     <use xlink:href="#Cmr10-2b" transform="translate(2194.53125 0.015625)"/>
     <use xlink:href="#Cmr10-31" transform="translate(2272.216797 0.015625)"/>
     <use xlink:href="#Cmmi10-3b" transform="translate(2322.216797 0.015625)"/>
     <use xlink:href="#Cmmi10-73" transform="translate(2367.460938 0.015625)"/>
     <use xlink:href="#Cmr10-29" transform="translate(2414.238281 0.015625)"/>
     <use xlink:href="#Cmsy10-a1" transform="translate(2453.056641 0.015625)"/>
     <use xlink:href="#Cmmi10-66" transform="translate(2530.742188 0.015625)"/>
     <use xlink:href="#Cmr10-28" transform="translate(2579.619141 0.015625)"/>
     <use xlink:href="#Cmmi10-73" transform="translate(2618.4375 0.015625)"/>
     <use xlink:href="#Cmmi10-3b" transform="translate(2665.214844 0.015625)"/>
     <use xlink:href="#Cmmi10-73" transform="translate(2710.458984 0.015625)"/>
     <use xlink:href="#Cmr10-2b" transform="translate(2757.236328 0.015625)"/>
     <use xlink:href="#Cmr10-31" transform="translate(2834.921875 0.015625)"/>
     <use xlink:href="#Cmr10-29" transform="translate(2884.921875 0.015625)"/>
     <use xlink:href="#Cmr10-2b" transform="translate(2923.740234 0.015625)"/>
     <use xlink:href="#Cmmi10-66" transform="translate(3001.425781 0.015625)"/>
     <use xlink:href="#Cmr10-28" transform="translate(3050.302734 0.015625)"/>
     <use xlink:href="#Cmmi10-73" transform="translate(3089.121094 0.015625)"/>
     <use xlink:href="#Cmmi10-3b" transform="translate(3135.898438 0.015625)"/>
     <use xlink:href="#Cmmi10-73" transform="translate(3181.142578 0.015625)"/>
     <use xlink:href="#Cmr10-29" transform="translate(3227.919922 0.015625)"/>
     <use xlink:href="#Cmr10-29" transform="translate(3266.738281 0.015625)"/>
     <use xlink:href="#DejaVuSerif-2e" transform="translate(3305.556641 0.015625)"/>
     <use xlink:href="#DejaVuSerif-20" transform="translate(3337.34375 0.015625)"/>
     <use xlink:href="#DejaVuSerif-44" transform="translate(3369.130859 0.015625)"/>
     <use xlink:href="#DejaVuSerif-65" transform="translate(3449.306641 0.015625)"/>
     <use xlink:href="#DejaVuSerif-74" transform="translate(3508.486328 0.015625)"/>
     <use xlink:href="#DejaVuSerif-65" transform="translate(3548.671875 0.015625)"/>
     <use xlink:href="#DejaVuSerif-72" transform="translate(3607.851562 0.015625)"/>
     <use xlink:href="#DejaVuSerif-6d" transform="translate(3655.654297 0.015625)"/>
     <use xlink:href="#DejaVuSerif-69" transform="translate(3750.478516 0.015625)"/>
     <use xlink:href="#DejaVuSerif-6e" transform="translate(3782.460938 0.015625)"/>
     <use xlink:href="#DejaVuSerif-65" transform="translate(3846.865234 0.015625)"/>
     <use xlink:href="#DejaVuSerif-20" transform="translate(3906.044922 0.015625)"/>
     <use xlink:href="#Cmmi10-6d" transform="translate(3937.832031 0.015625)"/>
     <use xlink:href="#Cmr10-28" transform="translate(4025.625 0.015625)"/>
     <use xlink:href="#Cmmi10-66" transform="translate(4064.443359 0.015625)"/>
     <use xlink:href="#Cmr10-29" transform="translate(4113.320312 0.015625)"/>
     <use xlink:href="#DejaVuSerif-2c" transform="translate(4152.138672 0.015625)"/>
     <use xlink:href="#DejaVuSerif-20" transform="translate(4183.925781 0.015625)"/>
     <use xlink:href="#DejaVuSerif-61" transform="translate(4215.712891 0.015625)"/>
     <use xlink:href="#DejaVuSerif-6e" transform="translate(4275.332031 0.015625)"/>
     <use xlink:href="#DejaVuSerif-64" transform="translate(4339.736328 0.015625)"/>
     <use xlink:href="#DejaVuSerif-20" transform="translate(4403.75 0.015625)"/>
     <use xlink:href="#DejaVuSerif-73" transform="translate(4435.537109 0.015625)"/>
     <use xlink:href="#DejaVuSerif-68" transform="translate(4486.855469 0.015625)"/>
     <use xlink:href="#DejaVuSerif-6f" transform="translate(4551.259766 0.015625)"/>
     <use xlink:href="#DejaVuSerif-77" transform="translate(4611.464844 0.015625)"/>
     <use xlink:href="#DejaVuSerif-20" transform="translate(4697.060547 0.015625)"/>
     <use xlink:href="#DejaVuSerif-74" transform="translate(4728.847656 0.015625)"/>
     <use xlink:href="#DejaVuSerif-68" transform="translate(4769.033203 0.015625)"/>
     <use xlink:href="#DejaVuSerif-61" transform="translate(4833.4375 0.015625)"/>
     <use xlink:href="#DejaVuSerif-74" transform="translate(4893.056641 0.015625)"/>
     <use xlink:href="#DejaVuSerif-20" transform="translate(4933.242188 0.015625)"/>
     <use xlink:href="#DejaVuSerif-69" transform="translate(4965.029297 0.015625)"/>
     <use xlink:href="#DejaVuSerif-74" transform="translate(4997.011719 0.015625)"/>
     <use xlink:href="#DejaVuSerif-20" transform="translate(5037.197266 0.015625)"/>
     <use xlink:href="#DejaVuSerif-69" transform="translate(5068.984375 0.015625)"/>
     <use xlink:href="#DejaVuSerif-73" transform="translate(5100.966797 0.015625)"/>
     <use xlink:href="#DejaVuSerif-20" transform="translate(5152.285156 0.015625)"/>
     <use xlink:href="#DejaVuSerif-69" transform="translate(5184.072266 0.015625)"/>
     <use xlink:href="#DejaVuSerif-6e" transform="translate(5216.054688 0.015625)"/>
     <use xlink:href="#DejaVuSerif-64" transform="translate(5280.458984 0.015625)"/>
     <use xlink:href="#DejaVuSerif-65" transform="translate(5344.472656 0.015625)"/>
     <use xlink:href="#DejaVuSerif-70" transform="translate(5403.652344 0.015625)"/>
     <use xlink:href="#DejaVuSerif-65" transform="translate(5467.666016 0.015625)"/>
     <use xlink:href="#DejaVuSerif-6e" transform="translate(5526.845703 0.015625)"/>
     <use xlink:href="#DejaVuSerif-64" transform="translate(5591.25 0.015625)"/>
     <use xlink:href="#DejaVuSerif-65" transform="translate(5655.263672 0.015625)"/>
     <use xlink:href="#DejaVuSerif-6e" transform="translate(5714.443359 0.015625)"/>
     <use xlink:href="#DejaVuSerif-74" transform="translate(5778.847656 0.015625)"/>
     <use xlink:href="#DejaVuSerif-20" transform="translate(5819.033203 0.015625)"/>
     <use xlink:href="#DejaVuSerif-6f" transform="translate(5850.820312 0.015625)"/>
     <use xlink:href="#DejaVuSerif-66" transform="translate(5911.025391 0.015625)"/>
     <use xlink:href="#DejaVuSerif-20" transform="translate(5948.037109 0.015625)"/>
     <use xlink:href="#DejaVuSerif-74" transform="translate(5979.824219 0.015625)"/>
     <use xlink:href="#DejaVuSerif-68" transform="translate(6020.009766 0.015625)"/>
     <use xlink:href="#DejaVuSerif-65" transform="translate(6084.414062 0.015625)"/>
     <use xlink:href="#DejaVuSerif-20" transform="translate(6143.59375 0.015625)"/>
     <use xlink:href="#DejaVuSerif-63" transform="translate(6175.380859 0.015625)"/>
     <use xlink:href="#DejaVuSerif-68" transform="translate(6231.386719 0.015625)"/>
     <use xlink:href="#DejaVuSerif-6f" transform="translate(6295.791016 0.015625)"/>
     <use xlink:href="#DejaVuSerif-69" transform="translate(6355.996094 0.015625)"/>
     <use xlink:href="#DejaVuSerif-63" transform="translate(6387.978516 0.015625)"/>
     <use xlink:href="#DejaVuSerif-65" transform="translate(6443.984375 0.015625)"/>
     <use xlink:href="#DejaVuSerif-20" transform="translate(6503.164062 0.015625)"/>
     <use xlink:href="#DejaVuSerif-6f" transform="translate(6534.951172 0.015625)"/>
     <use xlink:href="#DejaVuSerif-66" transform="translate(6595.15625 0.015625)"/>
     <use xlink:href="#DejaVuSerif-20" transform="translate(6632.167969 0.015625)"/>
     <use xlink:href="#Cmmi10-66" transform="translate(6663.955078 0.015625)"/>
     <use xlink:href="#DejaVuSerif-2e" transform="translate(6712.832031 0.015625)"/>
    </g>
   </g>
  </g>
 </g>
</svg>
