<?xml version="1.0" encoding="utf-8" standalone="no"?>
<!DOCTYPE svg PUBLIC "-//W3C//DTD SVG 1.1//EN"
  "http://www.w3.org/Graphics/SVG/1.1/DTD/svg11.dtd">
<svg xmlns:xlink="http://www.w3.org/1999/xlink" width="1142.64pt" height="180.72pt" viewBox="0 0 1142.64 180.72" xmlns="http://www.w3.org/2000/svg" version="1.1">
 <metadata>
  <rdf:RDF xmlns:dc="http://purl.org/dc/elements/1.1/" xmlns:cc="http://creativecommons.org/ns#" xmlns:rdf="http://www.w3.org/1999/02/22-rdf-syntax-ns#">
   <cc:Work>
    <dc:type rdf:resource="http://purl.org/dc/dcmitype/StillImage"/>
    <dc:date>2025-05-29T18:44:21.206003</dc:date>
    <dc:format>image/svg+xml</dc:format>
    <dc:creator>
     <cc:Agent>
      <dc:title>Matplotlib v3.10.3, https://matplotlib.org/</dc:title>
     </cc:Agent>
    </dc:creator>
   </cc:Work>
  </rdf:RDF>
 </metadata>
 <defs>
  <style type="text/css">*{stroke-linejoin: round; stroke-linecap: butt}</style>
 </defs>
 <g id="figure_1">
  <g id="patch_1">
   <path d="M 0 180.72 
L 1142.64 180.72 
L 1142.64 0 
L 0 0 
z
" style="fill: #ffffff"/>
  </g>
  <g id="axes_1">
   <g id="text_1">
    <!-- A grasshopper starts at the origin in the coordinate plane and makes a sequence of hops. -->
    <g transform="translate(298.926562 79.761938) scale(0.12 -0.12)">
     <defs>
      <path id="DejaVuSerif-41" d="M 1281 1691 
L 2994 1691 
L 2138 3909 
L 1281 1691 
z
M -38 0 
L -38 331 
L 372 331 
L 2034 4666 
L 2559 4666 
L 4225 331 
L 4684 331 
L 4684 0 
L 2988 0 
L 2988 331 
L 3506 331 
L 3116 1356 
L 1153 1356 
L 763 331 
L 1275 331 
L 1275 0 
L -38 0 
z
" transform="scale(0.015625)"/>
      <path id="DejaVuSerif-20" transform="scale(0.015625)"/>
      <path id="DejaVuSerif-67" d="M 3359 2988 
L 3359 72 
Q 3359 -644 2965 -1033 
Q 2572 -1422 1844 -1422 
Q 1516 -1422 1216 -1362 
Q 916 -1303 641 -1184 
L 641 -488 
L 941 -488 
Q 997 -813 1206 -963 
Q 1416 -1113 1806 -1113 
Q 2313 -1113 2548 -827 
Q 2784 -541 2784 72 
L 2784 519 
Q 2616 206 2355 57 
Q 2094 -91 1709 -91 
Q 1097 -91 708 395 
Q 319 881 319 1663 
Q 319 2444 706 2928 
Q 1094 3413 1709 3413 
Q 2094 3413 2355 3264 
Q 2616 3116 2784 2803 
L 2784 3322 
L 3909 3322 
L 3909 2988 
L 3359 2988 
z
M 2784 1825 
Q 2784 2422 2554 2737 
Q 2325 3053 1888 3053 
Q 1444 3053 1217 2703 
Q 991 2353 991 1663 
Q 991 975 1217 622 
Q 1444 269 1888 269 
Q 2325 269 2554 583 
Q 2784 897 2784 1497 
L 2784 1825 
z
" transform="scale(0.015625)"/>
      <path id="DejaVuSerif-72" d="M 3059 3328 
L 3059 2497 
L 2728 2497 
Q 2713 2744 2591 2866 
Q 2469 2988 2234 2988 
Q 1809 2988 1582 2694 
Q 1356 2400 1356 1850 
L 1356 331 
L 2022 331 
L 2022 0 
L 263 0 
L 263 331 
L 781 331 
L 781 2994 
L 231 2994 
L 231 3322 
L 1356 3322 
L 1356 2731 
Q 1525 3078 1790 3245 
Q 2056 3413 2438 3413 
Q 2578 3413 2733 3391 
Q 2888 3369 3059 3328 
z
" transform="scale(0.015625)"/>
      <path id="DejaVuSerif-61" d="M 2547 1044 
L 2547 1747 
L 1806 1747 
Q 1378 1747 1168 1562 
Q 959 1378 959 997 
Q 959 650 1171 447 
Q 1384 244 1747 244 
Q 2106 244 2326 466 
Q 2547 688 2547 1044 
z
M 3122 2075 
L 3122 331 
L 3634 331 
L 3634 0 
L 2547 0 
L 2547 359 
Q 2356 128 2106 18 
Q 1856 -91 1522 -91 
Q 969 -91 644 203 
Q 319 497 319 997 
Q 319 1513 691 1797 
Q 1063 2081 1741 2081 
L 2547 2081 
L 2547 2309 
Q 2547 2688 2317 2895 
Q 2088 3103 1672 3103 
Q 1328 3103 1125 2947 
Q 922 2791 872 2484 
L 575 2484 
L 575 3156 
Q 875 3284 1158 3348 
Q 1441 3413 1709 3413 
Q 2400 3413 2761 3070 
Q 3122 2728 3122 2075 
z
" transform="scale(0.015625)"/>
      <path id="DejaVuSerif-73" d="M 359 184 
L 359 959 
L 691 959 
Q 703 588 923 403 
Q 1144 219 1575 219 
Q 1963 219 2166 364 
Q 2369 509 2369 788 
Q 2369 1006 2220 1140 
Q 2072 1275 1594 1428 
L 1178 1569 
Q 750 1706 558 1912 
Q 366 2119 366 2438 
Q 366 2894 700 3153 
Q 1034 3413 1625 3413 
Q 1888 3413 2178 3344 
Q 2469 3275 2778 3144 
L 2778 2419 
L 2447 2419 
Q 2434 2741 2221 2922 
Q 2009 3103 1644 3103 
Q 1281 3103 1095 2975 
Q 909 2847 909 2591 
Q 909 2381 1050 2254 
Q 1191 2128 1613 1997 
L 2069 1856 
Q 2541 1709 2748 1489 
Q 2956 1269 2956 922 
Q 2956 450 2595 179 
Q 2234 -91 1600 -91 
Q 1278 -91 972 -22 
Q 666 47 359 184 
z
" transform="scale(0.015625)"/>
      <path id="DejaVuSerif-68" d="M 263 0 
L 263 331 
L 781 331 
L 781 4531 
L 231 4531 
L 231 4863 
L 1356 4863 
L 1356 2731 
Q 1516 3069 1770 3241 
Q 2025 3413 2363 3413 
Q 2913 3413 3172 3097 
Q 3431 2781 3431 2113 
L 3431 331 
L 3944 331 
L 3944 0 
L 2356 0 
L 2356 331 
L 2853 331 
L 2853 1931 
Q 2853 2541 2704 2764 
Q 2556 2988 2175 2988 
Q 1775 2988 1565 2697 
Q 1356 2406 1356 1850 
L 1356 331 
L 1856 331 
L 1856 0 
L 263 0 
z
" transform="scale(0.015625)"/>
      <path id="DejaVuSerif-6f" d="M 1925 219 
Q 2388 219 2623 584 
Q 2859 950 2859 1663 
Q 2859 2375 2623 2739 
Q 2388 3103 1925 3103 
Q 1463 3103 1227 2739 
Q 991 2375 991 1663 
Q 991 950 1228 584 
Q 1466 219 1925 219 
z
M 1925 -91 
Q 1200 -91 759 389 
Q 319 869 319 1663 
Q 319 2456 758 2934 
Q 1197 3413 1925 3413 
Q 2653 3413 3092 2934 
Q 3531 2456 3531 1663 
Q 3531 869 3092 389 
Q 2653 -91 1925 -91 
z
" transform="scale(0.015625)"/>
      <path id="DejaVuSerif-70" d="M 1313 1825 
L 1313 1497 
Q 1313 897 1542 583 
Q 1772 269 2209 269 
Q 2650 269 2876 622 
Q 3103 975 3103 1663 
Q 3103 2353 2876 2703 
Q 2650 3053 2209 3053 
Q 1772 3053 1542 2737 
Q 1313 2422 1313 1825 
z
M 738 2988 
L 184 2988 
L 184 3322 
L 1313 3322 
L 1313 2803 
Q 1481 3116 1742 3264 
Q 2003 3413 2388 3413 
Q 3000 3413 3387 2928 
Q 3775 2444 3775 1663 
Q 3775 881 3387 395 
Q 3000 -91 2388 -91 
Q 2003 -91 1742 57 
Q 1481 206 1313 519 
L 1313 -997 
L 1856 -997 
L 1856 -1331 
L 184 -1331 
L 184 -997 
L 738 -997 
L 738 2988 
z
" transform="scale(0.015625)"/>
      <path id="DejaVuSerif-65" d="M 3469 1600 
L 991 1600 
L 991 1575 
Q 991 903 1244 561 
Q 1497 219 1991 219 
Q 2369 219 2611 417 
Q 2853 616 2950 1006 
L 3413 1006 
Q 3275 459 2904 184 
Q 2534 -91 1931 -91 
Q 1203 -91 761 389 
Q 319 869 319 1663 
Q 319 2450 753 2931 
Q 1188 3413 1894 3413 
Q 2647 3413 3050 2948 
Q 3453 2484 3469 1600 
z
M 2791 1931 
Q 2772 2513 2545 2808 
Q 2319 3103 1894 3103 
Q 1497 3103 1269 2806 
Q 1041 2509 991 1931 
L 2791 1931 
z
" transform="scale(0.015625)"/>
      <path id="DejaVuSerif-74" d="M 691 2988 
L 184 2988 
L 184 3322 
L 691 3322 
L 691 4353 
L 1269 4353 
L 1269 3322 
L 2350 3322 
L 2350 2988 
L 1269 2988 
L 1269 878 
Q 1269 456 1350 337 
Q 1431 219 1650 219 
Q 1875 219 1978 351 
Q 2081 484 2088 781 
L 2522 781 
Q 2497 328 2275 118 
Q 2053 -91 1600 -91 
Q 1103 -91 897 129 
Q 691 350 691 878 
L 691 2988 
z
" transform="scale(0.015625)"/>
      <path id="DejaVuSerif-69" d="M 622 4353 
Q 622 4497 726 4603 
Q 831 4709 978 4709 
Q 1122 4709 1226 4603 
Q 1331 4497 1331 4353 
Q 1331 4206 1228 4103 
Q 1125 4000 978 4000 
Q 831 4000 726 4103 
Q 622 4206 622 4353 
z
M 1356 331 
L 1900 331 
L 1900 0 
L 231 0 
L 231 331 
L 781 331 
L 781 2988 
L 231 2988 
L 231 3322 
L 1356 3322 
L 1356 331 
z
" transform="scale(0.015625)"/>
      <path id="DejaVuSerif-6e" d="M 263 0 
L 263 331 
L 781 331 
L 781 2988 
L 231 2988 
L 231 3322 
L 1356 3322 
L 1356 2731 
Q 1516 3069 1770 3241 
Q 2025 3413 2363 3413 
Q 2913 3413 3172 3097 
Q 3431 2781 3431 2113 
L 3431 331 
L 3944 331 
L 3944 0 
L 2356 0 
L 2356 331 
L 2853 331 
L 2853 1931 
Q 2853 2541 2703 2767 
Q 2553 2994 2175 2994 
Q 1775 2994 1565 2701 
Q 1356 2409 1356 1850 
L 1356 331 
L 1856 331 
L 1856 0 
L 263 0 
z
" transform="scale(0.015625)"/>
      <path id="DejaVuSerif-63" d="M 3291 997 
Q 3169 466 2822 187 
Q 2475 -91 1925 -91 
Q 1200 -91 759 389 
Q 319 869 319 1663 
Q 319 2459 759 2936 
Q 1200 3413 1925 3413 
Q 2241 3413 2553 3339 
Q 2866 3266 3181 3116 
L 3181 2266 
L 2847 2266 
Q 2781 2703 2561 2903 
Q 2341 3103 1931 3103 
Q 1466 3103 1228 2742 
Q 991 2381 991 1663 
Q 991 944 1227 581 
Q 1463 219 1931 219 
Q 2303 219 2525 412 
Q 2747 606 2828 997 
L 3291 997 
z
" transform="scale(0.015625)"/>
      <path id="DejaVuSerif-64" d="M 3359 331 
L 3909 331 
L 3909 0 
L 2784 0 
L 2784 519 
Q 2616 206 2355 57 
Q 2094 -91 1709 -91 
Q 1097 -91 708 395 
Q 319 881 319 1663 
Q 319 2444 706 2928 
Q 1094 3413 1709 3413 
Q 2094 3413 2355 3264 
Q 2616 3116 2784 2803 
L 2784 4531 
L 2241 4531 
L 2241 4863 
L 3359 4863 
L 3359 331 
z
M 2784 1497 
L 2784 1825 
Q 2784 2422 2554 2737 
Q 2325 3053 1888 3053 
Q 1444 3053 1217 2703 
Q 991 2353 991 1663 
Q 991 975 1217 622 
Q 1444 269 1888 269 
Q 2325 269 2554 583 
Q 2784 897 2784 1497 
z
" transform="scale(0.015625)"/>
      <path id="DejaVuSerif-6c" d="M 1313 331 
L 1856 331 
L 1856 0 
L 184 0 
L 184 331 
L 738 331 
L 738 4531 
L 184 4531 
L 184 4863 
L 1313 4863 
L 1313 331 
z
" transform="scale(0.015625)"/>
      <path id="DejaVuSerif-6d" d="M 3316 2675 
Q 3481 3041 3739 3227 
Q 3997 3413 4341 3413 
Q 4863 3413 5119 3089 
Q 5375 2766 5375 2113 
L 5375 331 
L 5894 331 
L 5894 0 
L 4300 0 
L 4300 331 
L 4800 331 
L 4800 2047 
Q 4800 2556 4650 2772 
Q 4500 2988 4153 2988 
Q 3769 2988 3567 2697 
Q 3366 2406 3366 1850 
L 3366 331 
L 3866 331 
L 3866 0 
L 2291 0 
L 2291 331 
L 2791 331 
L 2791 2069 
Q 2791 2566 2641 2777 
Q 2491 2988 2144 2988 
Q 1759 2988 1557 2697 
Q 1356 2406 1356 1850 
L 1356 331 
L 1856 331 
L 1856 0 
L 263 0 
L 263 331 
L 781 331 
L 781 2994 
L 231 2994 
L 231 3322 
L 1356 3322 
L 1356 2731 
Q 1516 3063 1762 3238 
Q 2009 3413 2322 3413 
Q 2709 3413 2968 3220 
Q 3228 3028 3316 2675 
z
" transform="scale(0.015625)"/>
      <path id="DejaVuSerif-6b" d="M 1831 0 
L 219 0 
L 219 331 
L 738 331 
L 738 4531 
L 184 4531 
L 184 4863 
L 1313 4863 
L 1313 1697 
L 2713 2988 
L 2234 2988 
L 2234 3322 
L 3738 3322 
L 3738 2988 
L 3169 2988 
L 2181 2075 
L 3444 331 
L 3922 331 
L 3922 0 
L 2284 0 
L 2284 331 
L 2759 331 
L 1766 1697 
L 1313 1275 
L 1313 331 
L 1831 331 
L 1831 0 
z
" transform="scale(0.015625)"/>
      <path id="DejaVuSerif-71" d="M 3359 2988 
L 3359 -997 
L 3909 -997 
L 3909 -1331 
L 2241 -1331 
L 2241 -997 
L 2784 -997 
L 2784 519 
Q 2616 206 2355 57 
Q 2094 -91 1709 -91 
Q 1097 -91 708 395 
Q 319 881 319 1663 
Q 319 2444 706 2928 
Q 1094 3413 1709 3413 
Q 2094 3413 2355 3264 
Q 2616 3116 2784 2803 
L 2784 3322 
L 3909 3322 
L 3909 2988 
L 3359 2988 
z
M 2784 1825 
Q 2784 2422 2554 2737 
Q 2325 3053 1888 3053 
Q 1444 3053 1217 2703 
Q 991 2353 991 1663 
Q 991 975 1217 622 
Q 1444 269 1888 269 
Q 2325 269 2554 583 
Q 2784 897 2784 1497 
L 2784 1825 
z
" transform="scale(0.015625)"/>
      <path id="DejaVuSerif-75" d="M 2266 3322 
L 3341 3322 
L 3341 331 
L 3884 331 
L 3884 0 
L 2766 0 
L 2766 588 
Q 2606 256 2353 82 
Q 2100 -91 1766 -91 
Q 1213 -91 952 223 
Q 691 538 691 1209 
L 691 2988 
L 172 2988 
L 172 3322 
L 1269 3322 
L 1269 1388 
Q 1269 781 1417 556 
Q 1566 331 1947 331 
Q 2347 331 2556 625 
Q 2766 919 2766 1478 
L 2766 2988 
L 2266 2988 
L 2266 3322 
z
" transform="scale(0.015625)"/>
      <path id="DejaVuSerif-66" d="M 2753 4078 
L 2450 4078 
Q 2447 4313 2317 4434 
Q 2188 4556 1941 4556 
Q 1619 4556 1487 4379 
Q 1356 4203 1356 3750 
L 1356 3322 
L 2284 3322 
L 2284 2988 
L 1356 2988 
L 1356 331 
L 2094 331 
L 2094 0 
L 231 0 
L 231 331 
L 781 331 
L 781 2988 
L 231 2988 
L 231 3322 
L 781 3322 
L 781 3738 
Q 781 4294 1070 4578 
Q 1359 4863 1919 4863 
Q 2128 4863 2337 4825 
Q 2547 4788 2753 4709 
L 2753 4078 
z
" transform="scale(0.015625)"/>
      <path id="DejaVuSerif-2e" d="M 603 325 
Q 603 500 722 622 
Q 841 744 1019 744 
Q 1191 744 1312 622 
Q 1434 500 1434 325 
Q 1434 153 1312 31 
Q 1191 -91 1019 -91 
Q 841 -91 722 29 
Q 603 150 603 325 
z
" transform="scale(0.015625)"/>
     </defs>
     <use xlink:href="#DejaVuSerif-41"/>
     <use xlink:href="#DejaVuSerif-20" transform="translate(72.216797 0)"/>
     <use xlink:href="#DejaVuSerif-67" transform="translate(104.003906 0)"/>
     <use xlink:href="#DejaVuSerif-72" transform="translate(168.017578 0)"/>
     <use xlink:href="#DejaVuSerif-61" transform="translate(215.820312 0)"/>
     <use xlink:href="#DejaVuSerif-73" transform="translate(275.439453 0)"/>
     <use xlink:href="#DejaVuSerif-73" transform="translate(326.757812 0)"/>
     <use xlink:href="#DejaVuSerif-68" transform="translate(378.076172 0)"/>
     <use xlink:href="#DejaVuSerif-6f" transform="translate(442.480469 0)"/>
     <use xlink:href="#DejaVuSerif-70" transform="translate(502.685547 0)"/>
     <use xlink:href="#DejaVuSerif-70" transform="translate(566.699219 0)"/>
     <use xlink:href="#DejaVuSerif-65" transform="translate(630.712891 0)"/>
     <use xlink:href="#DejaVuSerif-72" transform="translate(689.892578 0)"/>
     <use xlink:href="#DejaVuSerif-20" transform="translate(737.695312 0)"/>
     <use xlink:href="#DejaVuSerif-73" transform="translate(769.482422 0)"/>
     <use xlink:href="#DejaVuSerif-74" transform="translate(820.800781 0)"/>
     <use xlink:href="#DejaVuSerif-61" transform="translate(860.986328 0)"/>
     <use xlink:href="#DejaVuSerif-72" transform="translate(920.605469 0)"/>
     <use xlink:href="#DejaVuSerif-74" transform="translate(968.408203 0)"/>
     <use xlink:href="#DejaVuSerif-73" transform="translate(1008.59375 0)"/>
     <use xlink:href="#DejaVuSerif-20" transform="translate(1059.912109 0)"/>
     <use xlink:href="#DejaVuSerif-61" transform="translate(1091.699219 0)"/>
     <use xlink:href="#DejaVuSerif-74" transform="translate(1151.318359 0)"/>
     <use xlink:href="#DejaVuSerif-20" transform="translate(1191.503906 0)"/>
     <use xlink:href="#DejaVuSerif-74" transform="translate(1223.291016 0)"/>
     <use xlink:href="#DejaVuSerif-68" transform="translate(1263.476562 0)"/>
     <use xlink:href="#DejaVuSerif-65" transform="translate(1327.880859 0)"/>
     <use xlink:href="#DejaVuSerif-20" transform="translate(1387.060547 0)"/>
     <use xlink:href="#DejaVuSerif-6f" transform="translate(1418.847656 0)"/>
     <use xlink:href="#DejaVuSerif-72" transform="translate(1479.052734 0)"/>
     <use xlink:href="#DejaVuSerif-69" transform="translate(1526.855469 0)"/>
     <use xlink:href="#DejaVuSerif-67" transform="translate(1558.837891 0)"/>
     <use xlink:href="#DejaVuSerif-69" transform="translate(1622.851562 0)"/>
     <use xlink:href="#DejaVuSerif-6e" transform="translate(1654.833984 0)"/>
     <use xlink:href="#DejaVuSerif-20" transform="translate(1719.238281 0)"/>
     <use xlink:href="#DejaVuSerif-69" transform="translate(1751.025391 0)"/>
     <use xlink:href="#DejaVuSerif-6e" transform="translate(1783.007812 0)"/>
     <use xlink:href="#DejaVuSerif-20" transform="translate(1847.412109 0)"/>
     <use xlink:href="#DejaVuSerif-74" transform="translate(1879.199219 0)"/>
     <use xlink:href="#DejaVuSerif-68" transform="translate(1919.384766 0)"/>
     <use xlink:href="#DejaVuSerif-65" transform="translate(1983.789062 0)"/>
     <use xlink:href="#DejaVuSerif-20" transform="translate(2042.96875 0)"/>
     <use xlink:href="#DejaVuSerif-63" transform="translate(2074.755859 0)"/>
     <use xlink:href="#DejaVuSerif-6f" transform="translate(2130.761719 0)"/>
     <use xlink:href="#DejaVuSerif-6f" transform="translate(2190.966797 0)"/>
     <use xlink:href="#DejaVuSerif-72" transform="translate(2251.171875 0)"/>
     <use xlink:href="#DejaVuSerif-64" transform="translate(2298.974609 0)"/>
     <use xlink:href="#DejaVuSerif-69" transform="translate(2362.988281 0)"/>
     <use xlink:href="#DejaVuSerif-6e" transform="translate(2394.970703 0)"/>
     <use xlink:href="#DejaVuSerif-61" transform="translate(2459.375 0)"/>
     <use xlink:href="#DejaVuSerif-74" transform="translate(2518.994141 0)"/>
     <use xlink:href="#DejaVuSerif-65" transform="translate(2559.179688 0)"/>
     <use xlink:href="#DejaVuSerif-20" transform="translate(2618.359375 0)"/>
     <use xlink:href="#DejaVuSerif-70" transform="translate(2650.146484 0)"/>
     <use xlink:href="#DejaVuSerif-6c" transform="translate(2714.160156 0)"/>
     <use xlink:href="#DejaVuSerif-61" transform="translate(2746.142578 0)"/>
     <use xlink:href="#DejaVuSerif-6e" transform="translate(2805.761719 0)"/>
     <use xlink:href="#DejaVuSerif-65" transform="translate(2870.166016 0)"/>
     <use xlink:href="#DejaVuSerif-20" transform="translate(2929.345703 0)"/>
     <use xlink:href="#DejaVuSerif-61" transform="translate(2961.132812 0)"/>
     <use xlink:href="#DejaVuSerif-6e" transform="translate(3020.751953 0)"/>
     <use xlink:href="#DejaVuSerif-64" transform="translate(3085.15625 0)"/>
     <use xlink:href="#DejaVuSerif-20" transform="translate(3149.169922 0)"/>
     <use xlink:href="#DejaVuSerif-6d" transform="translate(3180.957031 0)"/>
     <use xlink:href="#DejaVuSerif-61" transform="translate(3275.78125 0)"/>
     <use xlink:href="#DejaVuSerif-6b" transform="translate(3335.400391 0)"/>
     <use xlink:href="#DejaVuSerif-65" transform="translate(3395.996094 0)"/>
     <use xlink:href="#DejaVuSerif-73" transform="translate(3455.175781 0)"/>
     <use xlink:href="#DejaVuSerif-20" transform="translate(3506.494141 0)"/>
     <use xlink:href="#DejaVuSerif-61" transform="translate(3538.28125 0)"/>
     <use xlink:href="#DejaVuSerif-20" transform="translate(3597.900391 0)"/>
     <use xlink:href="#DejaVuSerif-73" transform="translate(3629.6875 0)"/>
     <use xlink:href="#DejaVuSerif-65" transform="translate(3681.005859 0)"/>
     <use xlink:href="#DejaVuSerif-71" transform="translate(3740.185547 0)"/>
     <use xlink:href="#DejaVuSerif-75" transform="translate(3804.199219 0)"/>
     <use xlink:href="#DejaVuSerif-65" transform="translate(3868.603516 0)"/>
     <use xlink:href="#DejaVuSerif-6e" transform="translate(3927.783203 0)"/>
     <use xlink:href="#DejaVuSerif-63" transform="translate(3992.1875 0)"/>
     <use xlink:href="#DejaVuSerif-65" transform="translate(4048.193359 0)"/>
     <use xlink:href="#DejaVuSerif-20" transform="translate(4107.373047 0)"/>
     <use xlink:href="#DejaVuSerif-6f" transform="translate(4139.160156 0)"/>
     <use xlink:href="#DejaVuSerif-66" transform="translate(4199.365234 0)"/>
     <use xlink:href="#DejaVuSerif-20" transform="translate(4236.376953 0)"/>
     <use xlink:href="#DejaVuSerif-68" transform="translate(4268.164062 0)"/>
     <use xlink:href="#DejaVuSerif-6f" transform="translate(4332.568359 0)"/>
     <use xlink:href="#DejaVuSerif-70" transform="translate(4392.773438 0)"/>
     <use xlink:href="#DejaVuSerif-73" transform="translate(4456.787109 0)"/>
     <use xlink:href="#DejaVuSerif-2e" transform="translate(4508.105469 0)"/>
    </g>
    <!-- Each hop has length $5$, and after each hop the grasshopper is at a point whose coordinates are both integers; thus, there are $12$ possible locations for the grasshopper after the first hop. -->
    <g transform="translate(7.2 93.372188) scale(0.12 -0.12)">
     <defs>
      <path id="DejaVuSerif-45" d="M 353 0 
L 353 331 
L 947 331 
L 947 4331 
L 353 4331 
L 353 4666 
L 4109 4666 
L 4109 3628 
L 3725 3628 
L 3725 4281 
L 1581 4281 
L 1581 2719 
L 3109 2719 
L 3109 3303 
L 3494 3303 
L 3494 1753 
L 3109 1753 
L 3109 2338 
L 1581 2338 
L 1581 384 
L 3775 384 
L 3775 1038 
L 4159 1038 
L 4159 0 
L 353 0 
z
" transform="scale(0.015625)"/>
      <path id="Cmr10-35" d="M 556 728 
Q 622 541 758 387 
Q 894 234 1080 148 
Q 1266 63 1466 63 
Q 1928 63 2103 422 
Q 2278 781 2278 1294 
Q 2278 1516 2270 1667 
Q 2263 1819 2228 1959 
Q 2169 2184 2020 2353 
Q 1872 2522 1656 2522 
Q 1441 2522 1286 2456 
Q 1131 2391 1034 2303 
Q 938 2216 863 2119 
Q 788 2022 769 2016 
L 697 2016 
Q 681 2016 657 2036 
Q 634 2056 634 2075 
L 634 4213 
Q 634 4228 654 4245 
Q 675 4263 697 4263 
L 716 4263 
Q 1147 4056 1631 4056 
Q 2106 4056 2547 4263 
L 2566 4263 
Q 2588 4263 2606 4247 
Q 2625 4231 2625 4213 
L 2625 4153 
Q 2625 4122 2613 4122 
Q 2394 3831 2064 3668 
Q 1734 3506 1381 3506 
Q 1125 3506 856 3578 
L 856 2369 
Q 1069 2541 1236 2614 
Q 1403 2688 1663 2688 
Q 2016 2688 2295 2484 
Q 2575 2281 2725 1954 
Q 2875 1628 2875 1288 
Q 2875 903 2686 575 
Q 2497 247 2172 53 
Q 1847 -141 1466 -141 
Q 1150 -141 886 21 
Q 622 184 470 459 
Q 319 734 319 1044 
Q 319 1188 412 1278 
Q 506 1369 647 1369 
Q 788 1369 883 1276 
Q 978 1184 978 1044 
Q 978 906 883 811 
Q 788 716 647 716 
Q 625 716 597 720 
Q 569 725 556 728 
z
" transform="scale(0.015625)"/>
      <path id="DejaVuSerif-2c" d="M 231 -622 
Q 525 -406 662 -114 
Q 800 178 800 594 
L 800 709 
L 1416 709 
Q 1391 175 1164 -208 
Q 938 -591 481 -872 
L 231 -622 
z
" transform="scale(0.015625)"/>
      <path id="DejaVuSerif-77" d="M 3072 3322 
L 3922 728 
L 4672 2988 
L 4191 2988 
L 4191 3322 
L 5394 3322 
L 5394 2988 
L 5025 2988 
L 4038 0 
L 3559 0 
L 2741 2484 
L 1919 0 
L 1459 0 
L 475 2988 
L 103 2988 
L 103 3322 
L 1606 3322 
L 1606 2988 
L 1069 2988 
L 1813 728 
L 2669 3322 
L 3072 3322 
z
" transform="scale(0.015625)"/>
      <path id="DejaVuSerif-62" d="M 738 331 
L 738 4531 
L 184 4531 
L 184 4863 
L 1313 4863 
L 1313 2803 
Q 1481 3116 1742 3264 
Q 2003 3413 2388 3413 
Q 3000 3413 3387 2928 
Q 3775 2444 3775 1663 
Q 3775 881 3387 395 
Q 3000 -91 2388 -91 
Q 2003 -91 1742 57 
Q 1481 206 1313 519 
L 1313 0 
L 184 0 
L 184 331 
L 738 331 
z
M 1313 1497 
Q 1313 897 1542 583 
Q 1772 269 2209 269 
Q 2650 269 2876 622 
Q 3103 975 3103 1663 
Q 3103 2353 2876 2703 
Q 2650 3053 2209 3053 
Q 1772 3053 1542 2737 
Q 1313 2422 1313 1825 
L 1313 1497 
z
" transform="scale(0.015625)"/>
      <path id="DejaVuSerif-3b" d="M 231 -622 
Q 525 -406 662 -114 
Q 800 178 800 594 
L 800 709 
L 1416 709 
Q 1391 175 1164 -208 
Q 938 -591 481 -872 
L 231 -622 
z
M 678 2363 
Q 678 2538 798 2658 
Q 919 2778 1094 2778 
Q 1269 2778 1389 2656 
Q 1509 2534 1509 2363 
Q 1509 2188 1389 2067 
Q 1269 1947 1094 1947 
Q 919 1947 798 2067 
Q 678 2188 678 2363 
z
" transform="scale(0.015625)"/>
      <path id="Cmr10-31" d="M 594 0 
L 594 225 
Q 1394 225 1394 428 
L 1394 3788 
Q 1063 3628 556 3628 
L 556 3853 
Q 1341 3853 1741 4263 
L 1831 4263 
Q 1853 4263 1873 4245 
Q 1894 4228 1894 4206 
L 1894 428 
Q 1894 225 2694 225 
L 2694 0 
L 594 0 
z
" transform="scale(0.015625)"/>
      <path id="Cmr10-32" d="M 319 0 
L 319 172 
Q 319 188 331 206 
L 1325 1306 
Q 1550 1550 1690 1715 
Q 1831 1881 1968 2097 
Q 2106 2313 2186 2536 
Q 2266 2759 2266 3009 
Q 2266 3272 2169 3511 
Q 2072 3750 1880 3894 
Q 1688 4038 1416 4038 
Q 1138 4038 916 3870 
Q 694 3703 603 3438 
Q 628 3444 672 3444 
Q 816 3444 917 3347 
Q 1019 3250 1019 3097 
Q 1019 2950 917 2848 
Q 816 2747 672 2747 
Q 522 2747 420 2851 
Q 319 2956 319 3097 
Q 319 3338 409 3548 
Q 500 3759 670 3923 
Q 841 4088 1055 4175 
Q 1269 4263 1509 4263 
Q 1875 4263 2190 4108 
Q 2506 3953 2690 3670 
Q 2875 3388 2875 3009 
Q 2875 2731 2753 2481 
Q 2631 2231 2440 2026 
Q 2250 1822 1953 1562 
Q 1656 1303 1563 1216 
L 838 519 
L 1453 519 
Q 1906 519 2211 526 
Q 2516 534 2534 550 
Q 2609 631 2688 1141 
L 2875 1141 
L 2694 0 
L 319 0 
z
" transform="scale(0.015625)"/>
     </defs>
     <use xlink:href="#DejaVuSerif-45" transform="translate(0 0.015625)"/>
     <use xlink:href="#DejaVuSerif-61" transform="translate(72.998047 0.015625)"/>
     <use xlink:href="#DejaVuSerif-63" transform="translate(132.617188 0.015625)"/>
     <use xlink:href="#DejaVuSerif-68" transform="translate(188.623047 0.015625)"/>
     <use xlink:href="#DejaVuSerif-20" transform="translate(253.027344 0.015625)"/>
     <use xlink:href="#DejaVuSerif-68" transform="translate(284.814453 0.015625)"/>
     <use xlink:href="#DejaVuSerif-6f" transform="translate(349.21875 0.015625)"/>
     <use xlink:href="#DejaVuSerif-70" transform="translate(409.423828 0.015625)"/>
     <use xlink:href="#DejaVuSerif-20" transform="translate(473.4375 0.015625)"/>
     <use xlink:href="#DejaVuSerif-68" transform="translate(505.224609 0.015625)"/>
     <use xlink:href="#DejaVuSerif-61" transform="translate(569.628906 0.015625)"/>
     <use xlink:href="#DejaVuSerif-73" transform="translate(629.248047 0.015625)"/>
     <use xlink:href="#DejaVuSerif-20" transform="translate(680.566406 0.015625)"/>
     <use xlink:href="#DejaVuSerif-6c" transform="translate(712.353516 0.015625)"/>
     <use xlink:href="#DejaVuSerif-65" transform="translate(744.335938 0.015625)"/>
     <use xlink:href="#DejaVuSerif-6e" transform="translate(803.515625 0.015625)"/>
     <use xlink:href="#DejaVuSerif-67" transform="translate(867.919922 0.015625)"/>
     <use xlink:href="#DejaVuSerif-74" transform="translate(931.933594 0.015625)"/>
     <use xlink:href="#DejaVuSerif-68" transform="translate(972.119141 0.015625)"/>
     <use xlink:href="#DejaVuSerif-20" transform="translate(1036.523438 0.015625)"/>
     <use xlink:href="#Cmr10-35" transform="translate(1068.310547 0.015625)"/>
     <use xlink:href="#DejaVuSerif-2c" transform="translate(1118.310547 0.015625)"/>
     <use xlink:href="#DejaVuSerif-20" transform="translate(1150.097656 0.015625)"/>
     <use xlink:href="#DejaVuSerif-61" transform="translate(1181.884766 0.015625)"/>
     <use xlink:href="#DejaVuSerif-6e" transform="translate(1241.503906 0.015625)"/>
     <use xlink:href="#DejaVuSerif-64" transform="translate(1305.908203 0.015625)"/>
     <use xlink:href="#DejaVuSerif-20" transform="translate(1369.921875 0.015625)"/>
     <use xlink:href="#DejaVuSerif-61" transform="translate(1401.708984 0.015625)"/>
     <use xlink:href="#DejaVuSerif-66" transform="translate(1461.328125 0.015625)"/>
     <use xlink:href="#DejaVuSerif-74" transform="translate(1498.339844 0.015625)"/>
     <use xlink:href="#DejaVuSerif-65" transform="translate(1538.525391 0.015625)"/>
     <use xlink:href="#DejaVuSerif-72" transform="translate(1597.705078 0.015625)"/>
     <use xlink:href="#DejaVuSerif-20" transform="translate(1645.507812 0.015625)"/>
     <use xlink:href="#DejaVuSerif-65" transform="translate(1677.294922 0.015625)"/>
     <use xlink:href="#DejaVuSerif-61" transform="translate(1736.474609 0.015625)"/>
     <use xlink:href="#DejaVuSerif-63" transform="translate(1796.09375 0.015625)"/>
     <use xlink:href="#DejaVuSerif-68" transform="translate(1852.099609 0.015625)"/>
     <use xlink:href="#DejaVuSerif-20" transform="translate(1916.503906 0.015625)"/>
     <use xlink:href="#DejaVuSerif-68" transform="translate(1948.291016 0.015625)"/>
     <use xlink:href="#DejaVuSerif-6f" transform="translate(2012.695312 0.015625)"/>
     <use xlink:href="#DejaVuSerif-70" transform="translate(2072.900391 0.015625)"/>
     <use xlink:href="#DejaVuSerif-20" transform="translate(2136.914062 0.015625)"/>
     <use xlink:href="#DejaVuSerif-74" transform="translate(2168.701172 0.015625)"/>
     <use xlink:href="#DejaVuSerif-68" transform="translate(2208.886719 0.015625)"/>
     <use xlink:href="#DejaVuSerif-65" transform="translate(2273.291016 0.015625)"/>
     <use xlink:href="#DejaVuSerif-20" transform="translate(2332.470703 0.015625)"/>
     <use xlink:href="#DejaVuSerif-67" transform="translate(2364.257812 0.015625)"/>
     <use xlink:href="#DejaVuSerif-72" transform="translate(2428.271484 0.015625)"/>
     <use xlink:href="#DejaVuSerif-61" transform="translate(2476.074219 0.015625)"/>
     <use xlink:href="#DejaVuSerif-73" transform="translate(2535.693359 0.015625)"/>
     <use xlink:href="#DejaVuSerif-73" transform="translate(2587.011719 0.015625)"/>
     <use xlink:href="#DejaVuSerif-68" transform="translate(2638.330078 0.015625)"/>
     <use xlink:href="#DejaVuSerif-6f" transform="translate(2702.734375 0.015625)"/>
     <use xlink:href="#DejaVuSerif-70" transform="translate(2762.939453 0.015625)"/>
     <use xlink:href="#DejaVuSerif-70" transform="translate(2826.953125 0.015625)"/>
     <use xlink:href="#DejaVuSerif-65" transform="translate(2890.966797 0.015625)"/>
     <use xlink:href="#DejaVuSerif-72" transform="translate(2950.146484 0.015625)"/>
     <use xlink:href="#DejaVuSerif-20" transform="translate(2997.949219 0.015625)"/>
     <use xlink:href="#DejaVuSerif-69" transform="translate(3029.736328 0.015625)"/>
     <use xlink:href="#DejaVuSerif-73" transform="translate(3061.71875 0.015625)"/>
     <use xlink:href="#DejaVuSerif-20" transform="translate(3113.037109 0.015625)"/>
     <use xlink:href="#DejaVuSerif-61" transform="translate(3144.824219 0.015625)"/>
     <use xlink:href="#DejaVuSerif-74" transform="translate(3204.443359 0.015625)"/>
     <use xlink:href="#DejaVuSerif-20" transform="translate(3244.628906 0.015625)"/>
     <use xlink:href="#DejaVuSerif-61" transform="translate(3276.416016 0.015625)"/>
     <use xlink:href="#DejaVuSerif-20" transform="translate(3336.035156 0.015625)"/>
     <use xlink:href="#DejaVuSerif-70" transform="translate(3367.822266 0.015625)"/>
     <use xlink:href="#DejaVuSerif-6f" transform="translate(3431.835938 0.015625)"/>
     <use xlink:href="#DejaVuSerif-69" transform="translate(3492.041016 0.015625)"/>
     <use xlink:href="#DejaVuSerif-6e" transform="translate(3524.023438 0.015625)"/>
     <use xlink:href="#DejaVuSerif-74" transform="translate(3588.427734 0.015625)"/>
     <use xlink:href="#DejaVuSerif-20" transform="translate(3628.613281 0.015625)"/>
     <use xlink:href="#DejaVuSerif-77" transform="translate(3660.400391 0.015625)"/>
     <use xlink:href="#DejaVuSerif-68" transform="translate(3745.996094 0.015625)"/>
     <use xlink:href="#DejaVuSerif-6f" transform="translate(3810.400391 0.015625)"/>
     <use xlink:href="#DejaVuSerif-73" transform="translate(3870.605469 0.015625)"/>
     <use xlink:href="#DejaVuSerif-65" transform="translate(3921.923828 0.015625)"/>
     <use xlink:href="#DejaVuSerif-20" transform="translate(3981.103516 0.015625)"/>
     <use xlink:href="#DejaVuSerif-63" transform="translate(4012.890625 0.015625)"/>
     <use xlink:href="#DejaVuSerif-6f" transform="translate(4068.896484 0.015625)"/>
     <use xlink:href="#DejaVuSerif-6f" transform="translate(4129.101562 0.015625)"/>
     <use xlink:href="#DejaVuSerif-72" transform="translate(4189.306641 0.015625)"/>
     <use xlink:href="#DejaVuSerif-64" transform="translate(4237.109375 0.015625)"/>
     <use xlink:href="#DejaVuSerif-69" transform="translate(4301.123047 0.015625)"/>
     <use xlink:href="#DejaVuSerif-6e" transform="translate(4333.105469 0.015625)"/>
     <use xlink:href="#DejaVuSerif-61" transform="translate(4397.509766 0.015625)"/>
     <use xlink:href="#DejaVuSerif-74" transform="translate(4457.128906 0.015625)"/>
     <use xlink:href="#DejaVuSerif-65" transform="translate(4497.314453 0.015625)"/>
     <use xlink:href="#DejaVuSerif-73" transform="translate(4556.494141 0.015625)"/>
     <use xlink:href="#DejaVuSerif-20" transform="translate(4607.8125 0.015625)"/>
     <use xlink:href="#DejaVuSerif-61" transform="translate(4639.599609 0.015625)"/>
     <use xlink:href="#DejaVuSerif-72" transform="translate(4699.21875 0.015625)"/>
     <use xlink:href="#DejaVuSerif-65" transform="translate(4747.021484 0.015625)"/>
     <use xlink:href="#DejaVuSerif-20" transform="translate(4806.201172 0.015625)"/>
     <use xlink:href="#DejaVuSerif-62" transform="translate(4837.988281 0.015625)"/>
     <use xlink:href="#DejaVuSerif-6f" transform="translate(4902.001953 0.015625)"/>
     <use xlink:href="#DejaVuSerif-74" transform="translate(4962.207031 0.015625)"/>
     <use xlink:href="#DejaVuSerif-68" transform="translate(5002.392578 0.015625)"/>
     <use xlink:href="#DejaVuSerif-20" transform="translate(5066.796875 0.015625)"/>
     <use xlink:href="#DejaVuSerif-69" transform="translate(5098.583984 0.015625)"/>
     <use xlink:href="#DejaVuSerif-6e" transform="translate(5130.566406 0.015625)"/>
     <use xlink:href="#DejaVuSerif-74" transform="translate(5194.970703 0.015625)"/>
     <use xlink:href="#DejaVuSerif-65" transform="translate(5235.15625 0.015625)"/>
     <use xlink:href="#DejaVuSerif-67" transform="translate(5294.335938 0.015625)"/>
     <use xlink:href="#DejaVuSerif-65" transform="translate(5358.349609 0.015625)"/>
     <use xlink:href="#DejaVuSerif-72" transform="translate(5417.529297 0.015625)"/>
     <use xlink:href="#DejaVuSerif-73" transform="translate(5465.332031 0.015625)"/>
     <use xlink:href="#DejaVuSerif-3b" transform="translate(5516.650391 0.015625)"/>
     <use xlink:href="#DejaVuSerif-20" transform="translate(5550.341797 0.015625)"/>
     <use xlink:href="#DejaVuSerif-74" transform="translate(5582.128906 0.015625)"/>
     <use xlink:href="#DejaVuSerif-68" transform="translate(5622.314453 0.015625)"/>
     <use xlink:href="#DejaVuSerif-75" transform="translate(5686.71875 0.015625)"/>
     <use xlink:href="#DejaVuSerif-73" transform="translate(5751.123047 0.015625)"/>
     <use xlink:href="#DejaVuSerif-2c" transform="translate(5802.441406 0.015625)"/>
     <use xlink:href="#DejaVuSerif-20" transform="translate(5834.228516 0.015625)"/>
     <use xlink:href="#DejaVuSerif-74" transform="translate(5866.015625 0.015625)"/>
     <use xlink:href="#DejaVuSerif-68" transform="translate(5906.201172 0.015625)"/>
     <use xlink:href="#DejaVuSerif-65" transform="translate(5970.605469 0.015625)"/>
     <use xlink:href="#DejaVuSerif-72" transform="translate(6029.785156 0.015625)"/>
     <use xlink:href="#DejaVuSerif-65" transform="translate(6077.587891 0.015625)"/>
     <use xlink:href="#DejaVuSerif-20" transform="translate(6136.767578 0.015625)"/>
     <use xlink:href="#DejaVuSerif-61" transform="translate(6168.554688 0.015625)"/>
     <use xlink:href="#DejaVuSerif-72" transform="translate(6228.173828 0.015625)"/>
     <use xlink:href="#DejaVuSerif-65" transform="translate(6275.976562 0.015625)"/>
     <use xlink:href="#DejaVuSerif-20" transform="translate(6335.15625 0.015625)"/>
     <use xlink:href="#Cmr10-31" transform="translate(6366.943359 0.015625)"/>
     <use xlink:href="#Cmr10-32" transform="translate(6416.943359 0.015625)"/>
     <use xlink:href="#DejaVuSerif-20" transform="translate(6466.943359 0.015625)"/>
     <use xlink:href="#DejaVuSerif-70" transform="translate(6498.730469 0.015625)"/>
     <use xlink:href="#DejaVuSerif-6f" transform="translate(6562.744141 0.015625)"/>
     <use xlink:href="#DejaVuSerif-73" transform="translate(6622.949219 0.015625)"/>
     <use xlink:href="#DejaVuSerif-73" transform="translate(6674.267578 0.015625)"/>
     <use xlink:href="#DejaVuSerif-69" transform="translate(6725.585938 0.015625)"/>
     <use xlink:href="#DejaVuSerif-62" transform="translate(6757.568359 0.015625)"/>
     <use xlink:href="#DejaVuSerif-6c" transform="translate(6821.582031 0.015625)"/>
     <use xlink:href="#DejaVuSerif-65" transform="translate(6853.564453 0.015625)"/>
     <use xlink:href="#DejaVuSerif-20" transform="translate(6912.744141 0.015625)"/>
     <use xlink:href="#DejaVuSerif-6c" transform="translate(6944.53125 0.015625)"/>
     <use xlink:href="#DejaVuSerif-6f" transform="translate(6976.513672 0.015625)"/>
     <use xlink:href="#DejaVuSerif-63" transform="translate(7036.71875 0.015625)"/>
     <use xlink:href="#DejaVuSerif-61" transform="translate(7092.724609 0.015625)"/>
     <use xlink:href="#DejaVuSerif-74" transform="translate(7152.34375 0.015625)"/>
     <use xlink:href="#DejaVuSerif-69" transform="translate(7192.529297 0.015625)"/>
     <use xlink:href="#DejaVuSerif-6f" transform="translate(7224.511719 0.015625)"/>
     <use xlink:href="#DejaVuSerif-6e" transform="translate(7284.716797 0.015625)"/>
     <use xlink:href="#DejaVuSerif-73" transform="translate(7349.121094 0.015625)"/>
     <use xlink:href="#DejaVuSerif-20" transform="translate(7400.439453 0.015625)"/>
     <use xlink:href="#DejaVuSerif-66" transform="translate(7432.226562 0.015625)"/>
     <use xlink:href="#DejaVuSerif-6f" transform="translate(7469.238281 0.015625)"/>
     <use xlink:href="#DejaVuSerif-72" transform="translate(7529.443359 0.015625)"/>
     <use xlink:href="#DejaVuSerif-20" transform="translate(7577.246094 0.015625)"/>
     <use xlink:href="#DejaVuSerif-74" transform="translate(7609.033203 0.015625)"/>
     <use xlink:href="#DejaVuSerif-68" transform="translate(7649.21875 0.015625)"/>
     <use xlink:href="#DejaVuSerif-65" transform="translate(7713.623047 0.015625)"/>
     <use xlink:href="#DejaVuSerif-20" transform="translate(7772.802734 0.015625)"/>
     <use xlink:href="#DejaVuSerif-67" transform="translate(7804.589844 0.015625)"/>
     <use xlink:href="#DejaVuSerif-72" transform="translate(7868.603516 0.015625)"/>
     <use xlink:href="#DejaVuSerif-61" transform="translate(7916.40625 0.015625)"/>
     <use xlink:href="#DejaVuSerif-73" transform="translate(7976.025391 0.015625)"/>
     <use xlink:href="#DejaVuSerif-73" transform="translate(8027.34375 0.015625)"/>
     <use xlink:href="#DejaVuSerif-68" transform="translate(8078.662109 0.015625)"/>
     <use xlink:href="#DejaVuSerif-6f" transform="translate(8143.066406 0.015625)"/>
     <use xlink:href="#DejaVuSerif-70" transform="translate(8203.271484 0.015625)"/>
     <use xlink:href="#DejaVuSerif-70" transform="translate(8267.285156 0.015625)"/>
     <use xlink:href="#DejaVuSerif-65" transform="translate(8331.298828 0.015625)"/>
     <use xlink:href="#DejaVuSerif-72" transform="translate(8390.478516 0.015625)"/>
     <use xlink:href="#DejaVuSerif-20" transform="translate(8438.28125 0.015625)"/>
     <use xlink:href="#DejaVuSerif-61" transform="translate(8470.068359 0.015625)"/>
     <use xlink:href="#DejaVuSerif-66" transform="translate(8529.6875 0.015625)"/>
     <use xlink:href="#DejaVuSerif-74" transform="translate(8566.699219 0.015625)"/>
     <use xlink:href="#DejaVuSerif-65" transform="translate(8606.884766 0.015625)"/>
     <use xlink:href="#DejaVuSerif-72" transform="translate(8666.064453 0.015625)"/>
     <use xlink:href="#DejaVuSerif-20" transform="translate(8713.867188 0.015625)"/>
     <use xlink:href="#DejaVuSerif-74" transform="translate(8745.654297 0.015625)"/>
     <use xlink:href="#DejaVuSerif-68" transform="translate(8785.839844 0.015625)"/>
     <use xlink:href="#DejaVuSerif-65" transform="translate(8850.244141 0.015625)"/>
     <use xlink:href="#DejaVuSerif-20" transform="translate(8909.423828 0.015625)"/>
     <use xlink:href="#DejaVuSerif-66" transform="translate(8941.210938 0.015625)"/>
     <use xlink:href="#DejaVuSerif-69" transform="translate(8978.222656 0.015625)"/>
     <use xlink:href="#DejaVuSerif-72" transform="translate(9010.205078 0.015625)"/>
     <use xlink:href="#DejaVuSerif-73" transform="translate(9058.007812 0.015625)"/>
     <use xlink:href="#DejaVuSerif-74" transform="translate(9109.326172 0.015625)"/>
     <use xlink:href="#DejaVuSerif-20" transform="translate(9149.511719 0.015625)"/>
     <use xlink:href="#DejaVuSerif-68" transform="translate(9181.298828 0.015625)"/>
     <use xlink:href="#DejaVuSerif-6f" transform="translate(9245.703125 0.015625)"/>
     <use xlink:href="#DejaVuSerif-70" transform="translate(9305.908203 0.015625)"/>
     <use xlink:href="#DejaVuSerif-2e" transform="translate(9369.921875 0.015625)"/>
    </g>
    <!-- What is the smallest number of hops needed for the grasshopper to reach the point $(2021, 2021)$? -->
    <g transform="translate(280.68 107.076188) scale(0.12 -0.12)">
     <defs>
      <path id="DejaVuSerif-57" d="M 4878 0 
L 4366 0 
L 3297 3794 
L 2228 0 
L 1716 0 
L 494 4331 
L 31 4331 
L 31 4666 
L 1734 4666 
L 1734 4331 
L 1153 4331 
L 2125 884 
L 3188 4666 
L 3694 4666 
L 4775 844 
L 5753 4331 
L 5216 4331 
L 5216 4666 
L 6559 4666 
L 6559 4331 
L 6100 4331 
L 4878 0 
z
" transform="scale(0.015625)"/>
      <path id="Cmr10-28" d="M 1984 -1588 
Q 1628 -1306 1370 -942 
Q 1113 -578 948 -165 
Q 784 247 703 697 
Q 622 1147 622 1600 
Q 622 2059 703 2509 
Q 784 2959 951 3375 
Q 1119 3791 1378 4153 
Q 1638 4516 1984 4788 
Q 1984 4800 2016 4800 
L 2075 4800 
Q 2094 4800 2109 4783 
Q 2125 4766 2125 4744 
Q 2125 4716 2113 4703 
Q 1800 4397 1592 4047 
Q 1384 3697 1257 3301 
Q 1131 2906 1075 2482 
Q 1019 2059 1019 1600 
Q 1019 -434 2106 -1491 
Q 2125 -1509 2125 -1544 
Q 2125 -1559 2108 -1579 
Q 2091 -1600 2075 -1600 
L 2016 -1600 
Q 1984 -1600 1984 -1588 
z
" transform="scale(0.015625)"/>
      <path id="Cmr10-30" d="M 1600 -141 
Q 816 -141 533 504 
Q 250 1150 250 2041 
Q 250 2597 351 3087 
Q 453 3578 754 3920 
Q 1056 4263 1600 4263 
Q 2022 4263 2290 4056 
Q 2559 3850 2700 3523 
Q 2841 3197 2892 2823 
Q 2944 2450 2944 2041 
Q 2944 1491 2842 1011 
Q 2741 531 2444 195 
Q 2147 -141 1600 -141 
z
M 1600 25 
Q 1956 25 2131 390 
Q 2306 756 2347 1200 
Q 2388 1644 2388 2144 
Q 2388 2625 2347 3031 
Q 2306 3438 2132 3767 
Q 1959 4097 1600 4097 
Q 1238 4097 1063 3765 
Q 888 3434 847 3029 
Q 806 2625 806 2144 
Q 806 1788 823 1472 
Q 841 1156 916 820 
Q 991 484 1158 254 
Q 1325 25 1600 25 
z
" transform="scale(0.015625)"/>
      <path id="Cmmi10-3b" d="M 634 -1153 
Q 634 -1125 659 -1100 
Q 891 -878 1019 -587 
Q 1147 -297 1147 25 
L 1147 103 
Q 1044 0 891 0 
Q 744 0 641 103 
Q 538 206 538 353 
Q 538 503 641 603 
Q 744 703 891 703 
Q 1119 703 1216 492 
Q 1313 281 1313 25 
Q 1313 -331 1170 -651 
Q 1028 -972 769 -1228 
Q 744 -1241 728 -1241 
Q 697 -1241 665 -1212 
Q 634 -1184 634 -1153 
z
" transform="scale(0.015625)"/>
      <path id="Cmr10-29" d="M 416 -1600 
Q 359 -1600 359 -1544 
Q 359 -1516 372 -1503 
Q 1466 -434 1466 1600 
Q 1466 3634 384 4691 
Q 359 4706 359 4744 
Q 359 4766 376 4783 
Q 394 4800 416 4800 
L 475 4800 
Q 494 4800 506 4788 
Q 966 4425 1272 3906 
Q 1578 3388 1720 2800 
Q 1863 2213 1863 1600 
Q 1863 1147 1786 708 
Q 1709 269 1542 -157 
Q 1375 -584 1119 -945 
Q 863 -1306 506 -1588 
Q 494 -1600 475 -1600 
L 416 -1600 
z
" transform="scale(0.015625)"/>
      <path id="DejaVuSerif-3f" d="M 1125 325 
Q 1125 500 1245 622 
Q 1366 744 1544 744 
Q 1716 744 1837 622 
Q 1959 500 1959 325 
Q 1959 153 1837 31 
Q 1716 -91 1544 -91 
Q 1366 -91 1245 29 
Q 1125 150 1125 325 
z
M 434 4459 
Q 766 4606 1064 4678 
Q 1363 4750 1625 4750 
Q 2319 4750 2720 4415 
Q 3122 4081 3122 3513 
Q 3122 2931 2776 2562 
Q 2431 2194 1734 2034 
L 1734 1241 
L 1350 1241 
L 1350 2266 
Q 1903 2400 2183 2715 
Q 2463 3031 2463 3519 
Q 2463 3947 2234 4194 
Q 2006 4441 1613 4441 
Q 1256 4441 1029 4236 
Q 803 4031 738 3647 
L 434 3647 
L 434 4459 
z
" transform="scale(0.015625)"/>
     </defs>
     <use xlink:href="#DejaVuSerif-57" transform="translate(0 0.015625)"/>
     <use xlink:href="#DejaVuSerif-68" transform="translate(102.783203 0.015625)"/>
     <use xlink:href="#DejaVuSerif-61" transform="translate(167.1875 0.015625)"/>
     <use xlink:href="#DejaVuSerif-74" transform="translate(226.806641 0.015625)"/>
     <use xlink:href="#DejaVuSerif-20" transform="translate(266.992188 0.015625)"/>
     <use xlink:href="#DejaVuSerif-69" transform="translate(298.779297 0.015625)"/>
     <use xlink:href="#DejaVuSerif-73" transform="translate(330.761719 0.015625)"/>
     <use xlink:href="#DejaVuSerif-20" transform="translate(382.080078 0.015625)"/>
     <use xlink:href="#DejaVuSerif-74" transform="translate(413.867188 0.015625)"/>
     <use xlink:href="#DejaVuSerif-68" transform="translate(454.052734 0.015625)"/>
     <use xlink:href="#DejaVuSerif-65" transform="translate(518.457031 0.015625)"/>
     <use xlink:href="#DejaVuSerif-20" transform="translate(577.636719 0.015625)"/>
     <use xlink:href="#DejaVuSerif-73" transform="translate(609.423828 0.015625)"/>
     <use xlink:href="#DejaVuSerif-6d" transform="translate(660.742188 0.015625)"/>
     <use xlink:href="#DejaVuSerif-61" transform="translate(755.566406 0.015625)"/>
     <use xlink:href="#DejaVuSerif-6c" transform="translate(815.185547 0.015625)"/>
     <use xlink:href="#DejaVuSerif-6c" transform="translate(847.167969 0.015625)"/>
     <use xlink:href="#DejaVuSerif-65" transform="translate(879.150391 0.015625)"/>
     <use xlink:href="#DejaVuSerif-73" transform="translate(938.330078 0.015625)"/>
     <use xlink:href="#DejaVuSerif-74" transform="translate(989.648438 0.015625)"/>
     <use xlink:href="#DejaVuSerif-20" transform="translate(1029.833984 0.015625)"/>
     <use xlink:href="#DejaVuSerif-6e" transform="translate(1061.621094 0.015625)"/>
     <use xlink:href="#DejaVuSerif-75" transform="translate(1126.025391 0.015625)"/>
     <use xlink:href="#DejaVuSerif-6d" transform="translate(1190.429688 0.015625)"/>
     <use xlink:href="#DejaVuSerif-62" transform="translate(1285.253906 0.015625)"/>
     <use xlink:href="#DejaVuSerif-65" transform="translate(1349.267578 0.015625)"/>
     <use xlink:href="#DejaVuSerif-72" transform="translate(1408.447266 0.015625)"/>
     <use xlink:href="#DejaVuSerif-20" transform="translate(1456.25 0.015625)"/>
     <use xlink:href="#DejaVuSerif-6f" transform="translate(1488.037109 0.015625)"/>
     <use xlink:href="#DejaVuSerif-66" transform="translate(1548.242188 0.015625)"/>
     <use xlink:href="#DejaVuSerif-20" transform="translate(1585.253906 0.015625)"/>
     <use xlink:href="#DejaVuSerif-68" transform="translate(1617.041016 0.015625)"/>
     <use xlink:href="#DejaVuSerif-6f" transform="translate(1681.445312 0.015625)"/>
     <use xlink:href="#DejaVuSerif-70" transform="translate(1741.650391 0.015625)"/>
     <use xlink:href="#DejaVuSerif-73" transform="translate(1805.664062 0.015625)"/>
     <use xlink:href="#DejaVuSerif-20" transform="translate(1856.982422 0.015625)"/>
     <use xlink:href="#DejaVuSerif-6e" transform="translate(1888.769531 0.015625)"/>
     <use xlink:href="#DejaVuSerif-65" transform="translate(1953.173828 0.015625)"/>
     <use xlink:href="#DejaVuSerif-65" transform="translate(2012.353516 0.015625)"/>
     <use xlink:href="#DejaVuSerif-64" transform="translate(2071.533203 0.015625)"/>
     <use xlink:href="#DejaVuSerif-65" transform="translate(2135.546875 0.015625)"/>
     <use xlink:href="#DejaVuSerif-64" transform="translate(2194.726562 0.015625)"/>
     <use xlink:href="#DejaVuSerif-20" transform="translate(2258.740234 0.015625)"/>
     <use xlink:href="#DejaVuSerif-66" transform="translate(2290.527344 0.015625)"/>
     <use xlink:href="#DejaVuSerif-6f" transform="translate(2327.539062 0.015625)"/>
     <use xlink:href="#DejaVuSerif-72" transform="translate(2387.744141 0.015625)"/>
     <use xlink:href="#DejaVuSerif-20" transform="translate(2435.546875 0.015625)"/>
     <use xlink:href="#DejaVuSerif-74" transform="translate(2467.333984 0.015625)"/>
     <use xlink:href="#DejaVuSerif-68" transform="translate(2507.519531 0.015625)"/>
     <use xlink:href="#DejaVuSerif-65" transform="translate(2571.923828 0.015625)"/>
     <use xlink:href="#DejaVuSerif-20" transform="translate(2631.103516 0.015625)"/>
     <use xlink:href="#DejaVuSerif-67" transform="translate(2662.890625 0.015625)"/>
     <use xlink:href="#DejaVuSerif-72" transform="translate(2726.904297 0.015625)"/>
     <use xlink:href="#DejaVuSerif-61" transform="translate(2774.707031 0.015625)"/>
     <use xlink:href="#DejaVuSerif-73" transform="translate(2834.326172 0.015625)"/>
     <use xlink:href="#DejaVuSerif-73" transform="translate(2885.644531 0.015625)"/>
     <use xlink:href="#DejaVuSerif-68" transform="translate(2936.962891 0.015625)"/>
     <use xlink:href="#DejaVuSerif-6f" transform="translate(3001.367188 0.015625)"/>
     <use xlink:href="#DejaVuSerif-70" transform="translate(3061.572266 0.015625)"/>
     <use xlink:href="#DejaVuSerif-70" transform="translate(3125.585938 0.015625)"/>
     <use xlink:href="#DejaVuSerif-65" transform="translate(3189.599609 0.015625)"/>
     <use xlink:href="#DejaVuSerif-72" transform="translate(3248.779297 0.015625)"/>
     <use xlink:href="#DejaVuSerif-20" transform="translate(3296.582031 0.015625)"/>
     <use xlink:href="#DejaVuSerif-74" transform="translate(3328.369141 0.015625)"/>
     <use xlink:href="#DejaVuSerif-6f" transform="translate(3368.554688 0.015625)"/>
     <use xlink:href="#DejaVuSerif-20" transform="translate(3428.759766 0.015625)"/>
     <use xlink:href="#DejaVuSerif-72" transform="translate(3460.546875 0.015625)"/>
     <use xlink:href="#DejaVuSerif-65" transform="translate(3508.349609 0.015625)"/>
     <use xlink:href="#DejaVuSerif-61" transform="translate(3567.529297 0.015625)"/>
     <use xlink:href="#DejaVuSerif-63" transform="translate(3627.148438 0.015625)"/>
     <use xlink:href="#DejaVuSerif-68" transform="translate(3683.154297 0.015625)"/>
     <use xlink:href="#DejaVuSerif-20" transform="translate(3747.558594 0.015625)"/>
     <use xlink:href="#DejaVuSerif-74" transform="translate(3779.345703 0.015625)"/>
     <use xlink:href="#DejaVuSerif-68" transform="translate(3819.53125 0.015625)"/>
     <use xlink:href="#DejaVuSerif-65" transform="translate(3883.935547 0.015625)"/>
     <use xlink:href="#DejaVuSerif-20" transform="translate(3943.115234 0.015625)"/>
     <use xlink:href="#DejaVuSerif-70" transform="translate(3974.902344 0.015625)"/>
     <use xlink:href="#DejaVuSerif-6f" transform="translate(4038.916016 0.015625)"/>
     <use xlink:href="#DejaVuSerif-69" transform="translate(4099.121094 0.015625)"/>
     <use xlink:href="#DejaVuSerif-6e" transform="translate(4131.103516 0.015625)"/>
     <use xlink:href="#DejaVuSerif-74" transform="translate(4195.507812 0.015625)"/>
     <use xlink:href="#DejaVuSerif-20" transform="translate(4235.693359 0.015625)"/>
     <use xlink:href="#Cmr10-28" transform="translate(4267.480469 0.015625)"/>
     <use xlink:href="#Cmr10-32" transform="translate(4306.298828 0.015625)"/>
     <use xlink:href="#Cmr10-30" transform="translate(4356.298828 0.015625)"/>
     <use xlink:href="#Cmr10-32" transform="translate(4406.298828 0.015625)"/>
     <use xlink:href="#Cmr10-31" transform="translate(4456.298828 0.015625)"/>
     <use xlink:href="#Cmmi10-3b" transform="translate(4506.298828 0.015625)"/>
     <use xlink:href="#Cmr10-32" transform="translate(4551.542969 0.015625)"/>
     <use xlink:href="#Cmr10-30" transform="translate(4601.542969 0.015625)"/>
     <use xlink:href="#Cmr10-32" transform="translate(4651.542969 0.015625)"/>
     <use xlink:href="#Cmr10-31" transform="translate(4701.542969 0.015625)"/>
     <use xlink:href="#Cmr10-29" transform="translate(4751.542969 0.015625)"/>
     <use xlink:href="#DejaVuSerif-3f" transform="translate(4790.361328 0.015625)"/>
    </g>
   </g>
  </g>
 </g>
</svg>
