<?xml version="1.0" encoding="utf-8" standalone="no"?>
<!DOCTYPE svg PUBLIC "-//W3C//DTD SVG 1.1//EN"
  "http://www.w3.org/Graphics/SVG/1.1/DTD/svg11.dtd">
<svg xmlns:xlink="http://www.w3.org/1999/xlink" width="1494.72pt" height="180.72pt" viewBox="0 0 1494.72 180.72" xmlns="http://www.w3.org/2000/svg" version="1.1">
 <metadata>
  <rdf:RDF xmlns:dc="http://purl.org/dc/elements/1.1/" xmlns:cc="http://creativecommons.org/ns#" xmlns:rdf="http://www.w3.org/1999/02/22-rdf-syntax-ns#">
   <cc:Work>
    <dc:type rdf:resource="http://purl.org/dc/dcmitype/StillImage"/>
    <dc:date>2025-05-29T18:44:03.486151</dc:date>
    <dc:format>image/svg+xml</dc:format>
    <dc:creator>
     <cc:Agent>
      <dc:title>Matplotlib v3.10.3, https://matplotlib.org/</dc:title>
     </cc:Agent>
    </dc:creator>
   </cc:Work>
  </rdf:RDF>
 </metadata>
 <defs>
  <style type="text/css">*{stroke-linejoin: round; stroke-linecap: butt}</style>
 </defs>
 <g id="figure_1">
  <g id="patch_1">
   <path d="M 0 180.72 
L 1494.72 180.72 
L 1494.72 0 
L 0 0 
z
" style="fill: #ffffff"/>
  </g>
  <g id="axes_1">
   <g id="text_1">
    <!-- For a positive integer $n$ and any real number $c$, define $x_k$ recursively by $x_0=0$, $x_1=1$, and for $k\geqq 0$, \[x_{k+2}=\frac{cx_{k+1}-(n-k)x_k}{k+1}.\] Fix $n$ and then take $c$ to be the largest value for which $x_{n+1}=0$. Find $x_k$ in terms of $n$ and $k$, $1\leqq k\leqq n$. -->
    <g transform="translate(7.2 93.48) scale(0.12 -0.12)">
     <defs>
      <path id="DejaVuSerif-46" d="M 353 0 
L 353 331 
L 947 331 
L 947 4331 
L 353 4331 
L 353 4666 
L 4172 4666 
L 4172 3628 
L 3788 3628 
L 3788 4281 
L 1581 4281 
L 1581 2719 
L 3175 2719 
L 3175 3303 
L 3559 3303 
L 3559 1753 
L 3175 1753 
L 3175 2338 
L 1581 2338 
L 1581 331 
L 2328 331 
L 2328 0 
L 353 0 
z
" transform="scale(0.015625)"/>
      <path id="DejaVuSerif-6f" d="M 1925 219 
Q 2388 219 2623 584 
Q 2859 950 2859 1663 
Q 2859 2375 2623 2739 
Q 2388 3103 1925 3103 
Q 1463 3103 1227 2739 
Q 991 2375 991 1663 
Q 991 950 1228 584 
Q 1466 219 1925 219 
z
M 1925 -91 
Q 1200 -91 759 389 
Q 319 869 319 1663 
Q 319 2456 758 2934 
Q 1197 3413 1925 3413 
Q 2653 3413 3092 2934 
Q 3531 2456 3531 1663 
Q 3531 869 3092 389 
Q 2653 -91 1925 -91 
z
" transform="scale(0.015625)"/>
      <path id="DejaVuSerif-72" d="M 3059 3328 
L 3059 2497 
L 2728 2497 
Q 2713 2744 2591 2866 
Q 2469 2988 2234 2988 
Q 1809 2988 1582 2694 
Q 1356 2400 1356 1850 
L 1356 331 
L 2022 331 
L 2022 0 
L 263 0 
L 263 331 
L 781 331 
L 781 2994 
L 231 2994 
L 231 3322 
L 1356 3322 
L 1356 2731 
Q 1525 3078 1790 3245 
Q 2056 3413 2438 3413 
Q 2578 3413 2733 3391 
Q 2888 3369 3059 3328 
z
" transform="scale(0.015625)"/>
      <path id="DejaVuSerif-20" transform="scale(0.015625)"/>
      <path id="DejaVuSerif-61" d="M 2547 1044 
L 2547 1747 
L 1806 1747 
Q 1378 1747 1168 1562 
Q 959 1378 959 997 
Q 959 650 1171 447 
Q 1384 244 1747 244 
Q 2106 244 2326 466 
Q 2547 688 2547 1044 
z
M 3122 2075 
L 3122 331 
L 3634 331 
L 3634 0 
L 2547 0 
L 2547 359 
Q 2356 128 2106 18 
Q 1856 -91 1522 -91 
Q 969 -91 644 203 
Q 319 497 319 997 
Q 319 1513 691 1797 
Q 1063 2081 1741 2081 
L 2547 2081 
L 2547 2309 
Q 2547 2688 2317 2895 
Q 2088 3103 1672 3103 
Q 1328 3103 1125 2947 
Q 922 2791 872 2484 
L 575 2484 
L 575 3156 
Q 875 3284 1158 3348 
Q 1441 3413 1709 3413 
Q 2400 3413 2761 3070 
Q 3122 2728 3122 2075 
z
" transform="scale(0.015625)"/>
      <path id="DejaVuSerif-70" d="M 1313 1825 
L 1313 1497 
Q 1313 897 1542 583 
Q 1772 269 2209 269 
Q 2650 269 2876 622 
Q 3103 975 3103 1663 
Q 3103 2353 2876 2703 
Q 2650 3053 2209 3053 
Q 1772 3053 1542 2737 
Q 1313 2422 1313 1825 
z
M 738 2988 
L 184 2988 
L 184 3322 
L 1313 3322 
L 1313 2803 
Q 1481 3116 1742 3264 
Q 2003 3413 2388 3413 
Q 3000 3413 3387 2928 
Q 3775 2444 3775 1663 
Q 3775 881 3387 395 
Q 3000 -91 2388 -91 
Q 2003 -91 1742 57 
Q 1481 206 1313 519 
L 1313 -997 
L 1856 -997 
L 1856 -1331 
L 184 -1331 
L 184 -997 
L 738 -997 
L 738 2988 
z
" transform="scale(0.015625)"/>
      <path id="DejaVuSerif-73" d="M 359 184 
L 359 959 
L 691 959 
Q 703 588 923 403 
Q 1144 219 1575 219 
Q 1963 219 2166 364 
Q 2369 509 2369 788 
Q 2369 1006 2220 1140 
Q 2072 1275 1594 1428 
L 1178 1569 
Q 750 1706 558 1912 
Q 366 2119 366 2438 
Q 366 2894 700 3153 
Q 1034 3413 1625 3413 
Q 1888 3413 2178 3344 
Q 2469 3275 2778 3144 
L 2778 2419 
L 2447 2419 
Q 2434 2741 2221 2922 
Q 2009 3103 1644 3103 
Q 1281 3103 1095 2975 
Q 909 2847 909 2591 
Q 909 2381 1050 2254 
Q 1191 2128 1613 1997 
L 2069 1856 
Q 2541 1709 2748 1489 
Q 2956 1269 2956 922 
Q 2956 450 2595 179 
Q 2234 -91 1600 -91 
Q 1278 -91 972 -22 
Q 666 47 359 184 
z
" transform="scale(0.015625)"/>
      <path id="DejaVuSerif-69" d="M 622 4353 
Q 622 4497 726 4603 
Q 831 4709 978 4709 
Q 1122 4709 1226 4603 
Q 1331 4497 1331 4353 
Q 1331 4206 1228 4103 
Q 1125 4000 978 4000 
Q 831 4000 726 4103 
Q 622 4206 622 4353 
z
M 1356 331 
L 1900 331 
L 1900 0 
L 231 0 
L 231 331 
L 781 331 
L 781 2988 
L 231 2988 
L 231 3322 
L 1356 3322 
L 1356 331 
z
" transform="scale(0.015625)"/>
      <path id="DejaVuSerif-74" d="M 691 2988 
L 184 2988 
L 184 3322 
L 691 3322 
L 691 4353 
L 1269 4353 
L 1269 3322 
L 2350 3322 
L 2350 2988 
L 1269 2988 
L 1269 878 
Q 1269 456 1350 337 
Q 1431 219 1650 219 
Q 1875 219 1978 351 
Q 2081 484 2088 781 
L 2522 781 
Q 2497 328 2275 118 
Q 2053 -91 1600 -91 
Q 1103 -91 897 129 
Q 691 350 691 878 
L 691 2988 
z
" transform="scale(0.015625)"/>
      <path id="DejaVuSerif-76" d="M 1581 0 
L 359 2988 
L -19 2988 
L -19 3322 
L 1509 3322 
L 1509 2988 
L 978 2988 
L 1913 703 
L 2847 2988 
L 2350 2988 
L 2350 3322 
L 3597 3322 
L 3597 2988 
L 3225 2988 
L 2003 0 
L 1581 0 
z
" transform="scale(0.015625)"/>
      <path id="DejaVuSerif-65" d="M 3469 1600 
L 991 1600 
L 991 1575 
Q 991 903 1244 561 
Q 1497 219 1991 219 
Q 2369 219 2611 417 
Q 2853 616 2950 1006 
L 3413 1006 
Q 3275 459 2904 184 
Q 2534 -91 1931 -91 
Q 1203 -91 761 389 
Q 319 869 319 1663 
Q 319 2450 753 2931 
Q 1188 3413 1894 3413 
Q 2647 3413 3050 2948 
Q 3453 2484 3469 1600 
z
M 2791 1931 
Q 2772 2513 2545 2808 
Q 2319 3103 1894 3103 
Q 1497 3103 1269 2806 
Q 1041 2509 991 1931 
L 2791 1931 
z
" transform="scale(0.015625)"/>
      <path id="DejaVuSerif-6e" d="M 263 0 
L 263 331 
L 781 331 
L 781 2988 
L 231 2988 
L 231 3322 
L 1356 3322 
L 1356 2731 
Q 1516 3069 1770 3241 
Q 2025 3413 2363 3413 
Q 2913 3413 3172 3097 
Q 3431 2781 3431 2113 
L 3431 331 
L 3944 331 
L 3944 0 
L 2356 0 
L 2356 331 
L 2853 331 
L 2853 1931 
Q 2853 2541 2703 2767 
Q 2553 2994 2175 2994 
Q 1775 2994 1565 2701 
Q 1356 2409 1356 1850 
L 1356 331 
L 1856 331 
L 1856 0 
L 263 0 
z
" transform="scale(0.015625)"/>
      <path id="DejaVuSerif-67" d="M 3359 2988 
L 3359 72 
Q 3359 -644 2965 -1033 
Q 2572 -1422 1844 -1422 
Q 1516 -1422 1216 -1362 
Q 916 -1303 641 -1184 
L 641 -488 
L 941 -488 
Q 997 -813 1206 -963 
Q 1416 -1113 1806 -1113 
Q 2313 -1113 2548 -827 
Q 2784 -541 2784 72 
L 2784 519 
Q 2616 206 2355 57 
Q 2094 -91 1709 -91 
Q 1097 -91 708 395 
Q 319 881 319 1663 
Q 319 2444 706 2928 
Q 1094 3413 1709 3413 
Q 2094 3413 2355 3264 
Q 2616 3116 2784 2803 
L 2784 3322 
L 3909 3322 
L 3909 2988 
L 3359 2988 
z
M 2784 1825 
Q 2784 2422 2554 2737 
Q 2325 3053 1888 3053 
Q 1444 3053 1217 2703 
Q 991 2353 991 1663 
Q 991 975 1217 622 
Q 1444 269 1888 269 
Q 2325 269 2554 583 
Q 2784 897 2784 1497 
L 2784 1825 
z
" transform="scale(0.015625)"/>
      <path id="Cmmi10-6e" d="M 494 109 
Q 494 147 500 166 
L 978 2075 
Q 1025 2253 1025 2388 
Q 1025 2663 838 2663 
Q 638 2663 541 2423 
Q 444 2184 353 1819 
Q 353 1800 334 1789 
Q 316 1778 300 1778 
L 225 1778 
Q 203 1778 187 1801 
Q 172 1825 172 1844 
Q 241 2122 305 2315 
Q 369 2509 505 2668 
Q 641 2828 844 2828 
Q 1084 2828 1268 2676 
Q 1453 2525 1453 2291 
Q 1644 2541 1900 2684 
Q 2156 2828 2444 2828 
Q 2672 2828 2837 2750 
Q 3003 2672 3095 2514 
Q 3188 2356 3188 2138 
Q 3188 1875 3070 1503 
Q 2953 1131 2778 672 
Q 2688 463 2688 288 
Q 2688 97 2834 97 
Q 3084 97 3251 365 
Q 3419 634 3488 941 
Q 3500 978 3541 978 
L 3616 978 
Q 3641 978 3658 962 
Q 3675 947 3675 922 
Q 3675 916 3669 903 
Q 3581 541 3364 234 
Q 3147 -72 2822 -72 
Q 2597 -72 2437 83 
Q 2278 238 2278 459 
Q 2278 578 2328 709 
Q 2409 919 2514 1209 
Q 2619 1500 2686 1765 
Q 2753 2031 2753 2234 
Q 2753 2413 2679 2538 
Q 2606 2663 2431 2663 
Q 2197 2663 2000 2559 
Q 1803 2456 1656 2286 
Q 1509 2116 1388 1881 
L 953 141 
Q 931 53 854 -9 
Q 778 -72 684 -72 
Q 606 -72 550 -22 
Q 494 28 494 109 
z
" transform="scale(0.015625)"/>
      <path id="DejaVuSerif-64" d="M 3359 331 
L 3909 331 
L 3909 0 
L 2784 0 
L 2784 519 
Q 2616 206 2355 57 
Q 2094 -91 1709 -91 
Q 1097 -91 708 395 
Q 319 881 319 1663 
Q 319 2444 706 2928 
Q 1094 3413 1709 3413 
Q 2094 3413 2355 3264 
Q 2616 3116 2784 2803 
L 2784 4531 
L 2241 4531 
L 2241 4863 
L 3359 4863 
L 3359 331 
z
M 2784 1497 
L 2784 1825 
Q 2784 2422 2554 2737 
Q 2325 3053 1888 3053 
Q 1444 3053 1217 2703 
Q 991 2353 991 1663 
Q 991 975 1217 622 
Q 1444 269 1888 269 
Q 2325 269 2554 583 
Q 2784 897 2784 1497 
z
" transform="scale(0.015625)"/>
      <path id="DejaVuSerif-79" d="M 1381 -609 
L 1600 -56 
L 359 2988 
L -19 2988 
L -19 3322 
L 1509 3322 
L 1509 2988 
L 978 2988 
L 1913 703 
L 2847 2988 
L 2350 2988 
L 2350 3322 
L 3597 3322 
L 3597 2988 
L 3225 2988 
L 1703 -750 
Q 1547 -1138 1356 -1280 
Q 1166 -1422 819 -1422 
Q 672 -1422 517 -1397 
Q 363 -1372 206 -1325 
L 206 -691 
L 500 -691 
Q 519 -903 608 -995 
Q 697 -1088 884 -1088 
Q 1056 -1088 1161 -992 
Q 1266 -897 1381 -609 
z
" transform="scale(0.015625)"/>
      <path id="DejaVuSerif-6c" d="M 1313 331 
L 1856 331 
L 1856 0 
L 184 0 
L 184 331 
L 738 331 
L 738 4531 
L 184 4531 
L 184 4863 
L 1313 4863 
L 1313 331 
z
" transform="scale(0.015625)"/>
      <path id="DejaVuSerif-75" d="M 2266 3322 
L 3341 3322 
L 3341 331 
L 3884 331 
L 3884 0 
L 2766 0 
L 2766 588 
Q 2606 256 2353 82 
Q 2100 -91 1766 -91 
Q 1213 -91 952 223 
Q 691 538 691 1209 
L 691 2988 
L 172 2988 
L 172 3322 
L 1269 3322 
L 1269 1388 
Q 1269 781 1417 556 
Q 1566 331 1947 331 
Q 2347 331 2556 625 
Q 2766 919 2766 1478 
L 2766 2988 
L 2266 2988 
L 2266 3322 
z
" transform="scale(0.015625)"/>
      <path id="DejaVuSerif-6d" d="M 3316 2675 
Q 3481 3041 3739 3227 
Q 3997 3413 4341 3413 
Q 4863 3413 5119 3089 
Q 5375 2766 5375 2113 
L 5375 331 
L 5894 331 
L 5894 0 
L 4300 0 
L 4300 331 
L 4800 331 
L 4800 2047 
Q 4800 2556 4650 2772 
Q 4500 2988 4153 2988 
Q 3769 2988 3567 2697 
Q 3366 2406 3366 1850 
L 3366 331 
L 3866 331 
L 3866 0 
L 2291 0 
L 2291 331 
L 2791 331 
L 2791 2069 
Q 2791 2566 2641 2777 
Q 2491 2988 2144 2988 
Q 1759 2988 1557 2697 
Q 1356 2406 1356 1850 
L 1356 331 
L 1856 331 
L 1856 0 
L 263 0 
L 263 331 
L 781 331 
L 781 2994 
L 231 2994 
L 231 3322 
L 1356 3322 
L 1356 2731 
Q 1516 3063 1762 3238 
Q 2009 3413 2322 3413 
Q 2709 3413 2968 3220 
Q 3228 3028 3316 2675 
z
" transform="scale(0.015625)"/>
      <path id="DejaVuSerif-62" d="M 738 331 
L 738 4531 
L 184 4531 
L 184 4863 
L 1313 4863 
L 1313 2803 
Q 1481 3116 1742 3264 
Q 2003 3413 2388 3413 
Q 3000 3413 3387 2928 
Q 3775 2444 3775 1663 
Q 3775 881 3387 395 
Q 3000 -91 2388 -91 
Q 2003 -91 1742 57 
Q 1481 206 1313 519 
L 1313 0 
L 184 0 
L 184 331 
L 738 331 
z
M 1313 1497 
Q 1313 897 1542 583 
Q 1772 269 2209 269 
Q 2650 269 2876 622 
Q 3103 975 3103 1663 
Q 3103 2353 2876 2703 
Q 2650 3053 2209 3053 
Q 1772 3053 1542 2737 
Q 1313 2422 1313 1825 
L 1313 1497 
z
" transform="scale(0.015625)"/>
      <path id="Cmmi10-63" d="M 750 763 
Q 750 484 892 290 
Q 1034 97 1300 97 
Q 1681 97 2032 272 
Q 2384 447 2606 756 
Q 2625 775 2656 775 
Q 2688 775 2720 739 
Q 2753 703 2753 672 
Q 2753 647 2741 634 
Q 2506 306 2109 117 
Q 1713 -72 1288 -72 
Q 981 -72 747 73 
Q 513 219 384 462 
Q 256 706 256 1013 
Q 256 1444 497 1869 
Q 738 2294 1138 2561 
Q 1538 2828 1978 2828 
Q 2266 2828 2495 2689 
Q 2725 2550 2725 2278 
Q 2725 2103 2623 1979 
Q 2522 1856 2350 1856 
Q 2247 1856 2176 1920 
Q 2106 1984 2106 2088 
Q 2106 2238 2215 2344 
Q 2325 2450 2472 2450 
L 2484 2450 
Q 2409 2559 2267 2611 
Q 2125 2663 1972 2663 
Q 1597 2663 1315 2342 
Q 1034 2022 892 1576 
Q 750 1131 750 763 
z
" transform="scale(0.015625)"/>
      <path id="DejaVuSerif-2c" d="M 231 -622 
Q 525 -406 662 -114 
Q 800 178 800 594 
L 800 709 
L 1416 709 
Q 1391 175 1164 -208 
Q 938 -591 481 -872 
L 231 -622 
z
" transform="scale(0.015625)"/>
      <path id="DejaVuSerif-66" d="M 2753 4078 
L 2450 4078 
Q 2447 4313 2317 4434 
Q 2188 4556 1941 4556 
Q 1619 4556 1487 4379 
Q 1356 4203 1356 3750 
L 1356 3322 
L 2284 3322 
L 2284 2988 
L 1356 2988 
L 1356 331 
L 2094 331 
L 2094 0 
L 231 0 
L 231 331 
L 781 331 
L 781 2988 
L 231 2988 
L 231 3322 
L 781 3322 
L 781 3738 
Q 781 4294 1070 4578 
Q 1359 4863 1919 4863 
Q 2128 4863 2337 4825 
Q 2547 4788 2753 4709 
L 2753 4078 
z
" transform="scale(0.015625)"/>
      <path id="Cmmi10-78" d="M 500 184 
Q 613 97 819 97 
Q 1019 97 1172 289 
Q 1325 481 1381 709 
L 1672 1844 
Q 1741 2153 1741 2266 
Q 1741 2425 1652 2544 
Q 1563 2663 1403 2663 
Q 1200 2663 1022 2536 
Q 844 2409 722 2214 
Q 600 2019 550 1819 
Q 538 1778 500 1778 
L 422 1778 
Q 372 1778 372 1838 
L 372 1856 
Q 434 2094 584 2320 
Q 734 2547 951 2687 
Q 1169 2828 1416 2828 
Q 1650 2828 1839 2703 
Q 2028 2578 2106 2363 
Q 2216 2559 2386 2693 
Q 2556 2828 2759 2828 
Q 2897 2828 3040 2779 
Q 3184 2731 3275 2631 
Q 3366 2531 3366 2381 
Q 3366 2219 3261 2101 
Q 3156 1984 2994 1984 
Q 2891 1984 2822 2050 
Q 2753 2116 2753 2216 
Q 2753 2350 2845 2451 
Q 2938 2553 3066 2572 
Q 2950 2663 2747 2663 
Q 2541 2663 2389 2472 
Q 2238 2281 2175 2047 
L 1894 916 
Q 1825 659 1825 494 
Q 1825 331 1917 214 
Q 2009 97 2163 97 
Q 2463 97 2698 361 
Q 2934 625 3009 941 
Q 3022 978 3059 978 
L 3138 978 
Q 3163 978 3178 961 
Q 3194 944 3194 922 
Q 3194 916 3188 903 
Q 3097 522 2806 225 
Q 2516 -72 2150 -72 
Q 1916 -72 1727 54 
Q 1538 181 1459 397 
Q 1359 209 1182 68 
Q 1006 -72 806 -72 
Q 669 -72 523 -23 
Q 378 25 287 125 
Q 197 225 197 378 
Q 197 528 301 651 
Q 406 775 563 775 
Q 669 775 741 711 
Q 813 647 813 544 
Q 813 409 723 309 
Q 634 209 500 184 
z
" transform="scale(0.015625)"/>
      <path id="Cmmi10-6b" d="M 341 116 
Q 341 153 347 172 
L 1275 3872 
Q 1300 3981 1306 4044 
Q 1306 4147 891 4147 
Q 825 4147 825 4231 
Q 828 4247 839 4287 
Q 850 4328 867 4350 
Q 884 4372 916 4372 
L 1778 4441 
L 1797 4441 
Q 1797 4434 1819 4423 
Q 1841 4413 1844 4409 
Q 1856 4378 1856 4359 
L 1184 1684 
Q 1416 1781 1767 2145 
Q 2119 2509 2317 2668 
Q 2516 2828 2816 2828 
Q 2994 2828 3119 2706 
Q 3244 2584 3244 2406 
Q 3244 2294 3197 2198 
Q 3150 2103 3065 2043 
Q 2981 1984 2869 1984 
Q 2766 1984 2695 2048 
Q 2625 2113 2625 2216 
Q 2625 2369 2733 2473 
Q 2841 2578 2994 2578 
Q 2931 2663 2803 2663 
Q 2613 2663 2436 2553 
Q 2259 2444 2054 2239 
Q 1850 2034 1681 1864 
Q 1513 1694 1369 1606 
Q 1747 1563 2025 1408 
Q 2303 1253 2303 934 
Q 2303 869 2278 769 
Q 2222 528 2222 384 
Q 2222 97 2419 97 
Q 2650 97 2770 350 
Q 2891 603 2969 941 
Q 2981 978 3022 978 
L 3097 978 
Q 3122 978 3139 962 
Q 3156 947 3156 922 
Q 3156 916 3150 903 
Q 2909 -72 2406 -72 
Q 2225 -72 2086 12 
Q 1947 97 1872 242 
Q 1797 388 1797 569 
Q 1797 672 1825 781 
Q 1844 856 1844 922 
Q 1844 1169 1625 1297 
Q 1406 1425 1125 1453 
L 800 147 
Q 775 50 703 -11 
Q 631 -72 538 -72 
Q 456 -72 398 -17 
Q 341 38 341 116 
z
" transform="scale(0.015625)"/>
      <path id="DejaVuSerif-63" d="M 3291 997 
Q 3169 466 2822 187 
Q 2475 -91 1925 -91 
Q 1200 -91 759 389 
Q 319 869 319 1663 
Q 319 2459 759 2936 
Q 1200 3413 1925 3413 
Q 2241 3413 2553 3339 
Q 2866 3266 3181 3116 
L 3181 2266 
L 2847 2266 
Q 2781 2703 2561 2903 
Q 2341 3103 1931 3103 
Q 1466 3103 1228 2742 
Q 991 2381 991 1663 
Q 991 944 1227 581 
Q 1463 219 1931 219 
Q 2303 219 2525 412 
Q 2747 606 2828 997 
L 3291 997 
z
" transform="scale(0.015625)"/>
      <path id="Cmr10-30" d="M 1600 -141 
Q 816 -141 533 504 
Q 250 1150 250 2041 
Q 250 2597 351 3087 
Q 453 3578 754 3920 
Q 1056 4263 1600 4263 
Q 2022 4263 2290 4056 
Q 2559 3850 2700 3523 
Q 2841 3197 2892 2823 
Q 2944 2450 2944 2041 
Q 2944 1491 2842 1011 
Q 2741 531 2444 195 
Q 2147 -141 1600 -141 
z
M 1600 25 
Q 1956 25 2131 390 
Q 2306 756 2347 1200 
Q 2388 1644 2388 2144 
Q 2388 2625 2347 3031 
Q 2306 3438 2132 3767 
Q 1959 4097 1600 4097 
Q 1238 4097 1063 3765 
Q 888 3434 847 3029 
Q 806 2625 806 2144 
Q 806 1788 823 1472 
Q 841 1156 916 820 
Q 991 484 1158 254 
Q 1325 25 1600 25 
z
" transform="scale(0.015625)"/>
      <path id="Cmr10-3d" d="M 481 850 
Q 428 850 393 890 
Q 359 931 359 978 
Q 359 1031 393 1068 
Q 428 1106 481 1106 
L 4500 1106 
Q 4547 1106 4581 1068 
Q 4616 1031 4616 978 
Q 4616 931 4581 890 
Q 4547 850 4500 850 
L 481 850 
z
M 481 2094 
Q 428 2094 393 2131 
Q 359 2169 359 2222 
Q 359 2269 393 2309 
Q 428 2350 481 2350 
L 4500 2350 
Q 4547 2350 4581 2309 
Q 4616 2269 4616 2222 
Q 4616 2169 4581 2131 
Q 4547 2094 4500 2094 
L 481 2094 
z
" transform="scale(0.015625)"/>
      <path id="Cmr10-31" d="M 594 0 
L 594 225 
Q 1394 225 1394 428 
L 1394 3788 
Q 1063 3628 556 3628 
L 556 3853 
Q 1341 3853 1741 4263 
L 1831 4263 
Q 1853 4263 1873 4245 
Q 1894 4228 1894 4206 
L 1894 428 
Q 1894 225 2694 225 
L 2694 0 
L 594 0 
z
" transform="scale(0.015625)"/>
      <path id="STIXGeneral-Regular-2267" d="M 3981 2771 
L 365 1024 
L 365 1427 
L 3130 2803 
L 365 4179 
L 365 4595 
L 3981 2835 
L 3981 2771 
z
M 3981 -77 
L 365 -77 
L 365 346 
L 3981 346 
L 3981 -77 
z
M 3981 -1350 
L 365 -1350 
L 365 -928 
L 3981 -928 
L 3981 -1350 
z
" transform="scale(0.015625)"/>
      <path id="DejaVuSerif-5c" d="M 500 4666 
L 2156 -594 
L 1656 -594 
L 0 4666 
L 500 4666 
z
" transform="scale(0.015625)"/>
      <path id="DejaVuSerif-5b" d="M 550 4863 
L 2003 4863 
L 2003 4531 
L 1147 4531 
L 1147 -513 
L 2003 -513 
L 2003 -844 
L 550 -844 
L 550 4863 
z
" transform="scale(0.015625)"/>
      <path id="DejaVuSerif-78" d="M 1863 2028 
L 2559 2988 
L 2113 2988 
L 2113 3322 
L 3391 3322 
L 3391 2988 
L 2950 2988 
L 2059 1759 
L 3097 331 
L 3531 331 
L 3531 0 
L 1997 0 
L 1997 331 
L 2419 331 
L 1697 1325 
L 972 331 
L 1403 331 
L 1403 0 
L 141 0 
L 141 331 
L 581 331 
L 1497 1594 
L 488 2988 
L 78 2988 
L 78 3322 
L 1563 3322 
L 1563 2988 
L 1166 2988 
L 1863 2028 
z
" transform="scale(0.015625)"/>
      <path id="DejaVuSerif-5f" d="M 3200 -1259 
L 3200 -1509 
L 0 -1509 
L 0 -1259 
L 3200 -1259 
z
" transform="scale(0.015625)"/>
      <path id="DejaVuSerif-7b" d="M 3272 -716 
L 3272 -1044 
L 3078 -1044 
Q 2300 -1044 2036 -812 
Q 1772 -581 1772 109 
L 1772 916 
Q 1772 1384 1603 1565 
Q 1434 1747 991 1747 
L 800 1747 
L 800 2075 
L 991 2075 
Q 1434 2075 1603 2256 
Q 1772 2438 1772 2906 
L 1772 3713 
Q 1772 4403 2036 4633 
Q 2300 4863 3078 4863 
L 3272 4863 
L 3272 4538 
L 3059 4538 
Q 2619 4538 2484 4400 
Q 2350 4263 2350 3822 
L 2350 2925 
Q 2350 2431 2194 2218 
Q 2038 2006 1631 1913 
Q 2044 1806 2197 1597 
Q 2350 1388 2350 897 
L 2350 0 
Q 2350 -441 2484 -578 
Q 2619 -716 3059 -716 
L 3272 -716 
z
" transform="scale(0.015625)"/>
      <path id="DejaVuSerif-6b" d="M 1831 0 
L 219 0 
L 219 331 
L 738 331 
L 738 4531 
L 184 4531 
L 184 4863 
L 1313 4863 
L 1313 1697 
L 2713 2988 
L 2234 2988 
L 2234 3322 
L 3738 3322 
L 3738 2988 
L 3169 2988 
L 2181 2075 
L 3444 331 
L 3922 331 
L 3922 0 
L 2284 0 
L 2284 331 
L 2759 331 
L 1766 1697 
L 1313 1275 
L 1313 331 
L 1831 331 
L 1831 0 
z
" transform="scale(0.015625)"/>
      <path id="DejaVuSerif-2b" d="M 2931 4013 
L 2931 2259 
L 4684 2259 
L 4684 1753 
L 2931 1753 
L 2931 0 
L 2431 0 
L 2431 1753 
L 678 1753 
L 678 2259 
L 2431 2259 
L 2431 4013 
L 2931 4013 
z
" transform="scale(0.015625)"/>
      <path id="DejaVuSerif-32" d="M 819 3553 
L 469 3553 
L 469 4384 
Q 803 4563 1142 4656 
Q 1481 4750 1806 4750 
Q 2534 4750 2956 4397 
Q 3378 4044 3378 3438 
Q 3378 2753 2422 1800 
Q 2347 1728 2309 1691 
L 1131 513 
L 3078 513 
L 3078 1088 
L 3444 1088 
L 3444 0 
L 434 0 
L 434 341 
L 1850 1753 
Q 2319 2222 2519 2614 
Q 2719 3006 2719 3438 
Q 2719 3909 2473 4175 
Q 2228 4441 1797 4441 
Q 1350 4441 1106 4219 
Q 863 3997 819 3553 
z
" transform="scale(0.015625)"/>
      <path id="DejaVuSerif-7d" d="M 800 -716 
L 1019 -716 
Q 1456 -716 1589 -580 
Q 1722 -444 1722 0 
L 1722 897 
Q 1722 1388 1875 1597 
Q 2028 1806 2438 1913 
Q 2031 2006 1876 2218 
Q 1722 2431 1722 2925 
L 1722 3822 
Q 1722 4266 1589 4402 
Q 1456 4538 1019 4538 
L 800 4538 
L 800 4863 
L 997 4863 
Q 1775 4863 2036 4633 
Q 2297 4403 2297 3713 
L 2297 2906 
Q 2297 2438 2465 2256 
Q 2634 2075 3078 2075 
L 3272 2075 
L 3272 1747 
L 3078 1747 
Q 2634 1747 2465 1565 
Q 2297 1384 2297 916 
L 2297 109 
Q 2297 -581 2036 -812 
Q 1775 -1044 997 -1044 
L 800 -1044 
L 800 -716 
z
" transform="scale(0.015625)"/>
      <path id="DejaVuSerif-3d" d="M 678 2894 
L 4684 2894 
L 4684 2394 
L 678 2394 
L 678 2894 
z
M 678 1619 
L 4684 1619 
L 4684 1119 
L 678 1119 
L 678 1619 
z
" transform="scale(0.015625)"/>
      <path id="DejaVuSerif-31" d="M 909 0 
L 909 331 
L 1722 331 
L 1722 4213 
L 781 3603 
L 781 4013 
L 1919 4750 
L 2350 4750 
L 2350 331 
L 3163 331 
L 3163 0 
L 909 0 
z
" transform="scale(0.015625)"/>
      <path id="DejaVuSerif-2d" d="M 281 1959 
L 1881 1959 
L 1881 1472 
L 281 1472 
L 281 1959 
z
" transform="scale(0.015625)"/>
      <path id="DejaVuSerif-28" d="M 2041 -997 
Q 1281 -656 893 83 
Q 506 822 506 1931 
Q 506 3044 893 3783 
Q 1281 4522 2041 4863 
L 2041 4556 
Q 1559 4225 1350 3623 
Q 1141 3022 1141 1931 
Q 1141 844 1350 242 
Q 1559 -359 2041 -691 
L 2041 -997 
z
" transform="scale(0.015625)"/>
      <path id="DejaVuSerif-29" d="M 453 -997 
L 453 -691 
Q 934 -359 1145 242 
Q 1356 844 1356 1931 
Q 1356 3022 1145 3623 
Q 934 4225 453 4556 
L 453 4863 
Q 1216 4522 1603 3783 
Q 1991 3044 1991 1931 
Q 1991 822 1603 83 
Q 1216 -656 453 -997 
z
" transform="scale(0.015625)"/>
      <path id="DejaVuSerif-2e" d="M 603 325 
Q 603 500 722 622 
Q 841 744 1019 744 
Q 1191 744 1312 622 
Q 1434 500 1434 325 
Q 1434 153 1312 31 
Q 1191 -91 1019 -91 
Q 841 -91 722 29 
Q 603 150 603 325 
z
" transform="scale(0.015625)"/>
      <path id="DejaVuSerif-5d" d="M 1947 4863 
L 1947 -844 
L 494 -844 
L 494 -513 
L 1350 -513 
L 1350 4531 
L 494 4531 
L 494 4863 
L 1947 4863 
z
" transform="scale(0.015625)"/>
      <path id="DejaVuSerif-68" d="M 263 0 
L 263 331 
L 781 331 
L 781 4531 
L 231 4531 
L 231 4863 
L 1356 4863 
L 1356 2731 
Q 1516 3069 1770 3241 
Q 2025 3413 2363 3413 
Q 2913 3413 3172 3097 
Q 3431 2781 3431 2113 
L 3431 331 
L 3944 331 
L 3944 0 
L 2356 0 
L 2356 331 
L 2853 331 
L 2853 1931 
Q 2853 2541 2704 2764 
Q 2556 2988 2175 2988 
Q 1775 2988 1565 2697 
Q 1356 2406 1356 1850 
L 1356 331 
L 1856 331 
L 1856 0 
L 263 0 
z
" transform="scale(0.015625)"/>
      <path id="DejaVuSerif-77" d="M 3072 3322 
L 3922 728 
L 4672 2988 
L 4191 2988 
L 4191 3322 
L 5394 3322 
L 5394 2988 
L 5025 2988 
L 4038 0 
L 3559 0 
L 2741 2484 
L 1919 0 
L 1459 0 
L 475 2988 
L 103 2988 
L 103 3322 
L 1606 3322 
L 1606 2988 
L 1069 2988 
L 1813 728 
L 2669 3322 
L 3072 3322 
z
" transform="scale(0.015625)"/>
      <path id="Cmr10-2b" d="M 481 1472 
Q 428 1472 393 1512 
Q 359 1553 359 1600 
Q 359 1647 393 1687 
Q 428 1728 481 1728 
L 2363 1728 
L 2363 3616 
Q 2363 3666 2400 3698 
Q 2438 3731 2491 3731 
Q 2538 3731 2578 3698 
Q 2619 3666 2619 3616 
L 2619 1728 
L 4500 1728 
Q 4547 1728 4581 1687 
Q 4616 1647 4616 1600 
Q 4616 1553 4581 1512 
Q 4547 1472 4500 1472 
L 2619 1472 
L 2619 -416 
Q 2619 -466 2578 -498 
Q 2538 -531 2491 -531 
Q 2438 -531 2400 -498 
Q 2363 -466 2363 -416 
L 2363 1472 
L 481 1472 
z
" transform="scale(0.015625)"/>
      <path id="STIXGeneral-Regular-2266" d="M 3981 1024 
L 365 2771 
L 365 2835 
L 3981 4595 
L 3981 4179 
L 1216 2803 
L 3981 1427 
L 3981 1024 
z
M 3981 -77 
L 365 -77 
L 365 346 
L 3981 346 
L 3981 -77 
z
M 3981 -1350 
L 365 -1350 
L 365 -928 
L 3981 -928 
L 3981 -1350 
z
" transform="scale(0.015625)"/>
     </defs>
     <use xlink:href="#DejaVuSerif-46" transform="translate(0 0.015625)"/>
     <use xlink:href="#DejaVuSerif-6f" transform="translate(69.384766 0.015625)"/>
     <use xlink:href="#DejaVuSerif-72" transform="translate(129.589844 0.015625)"/>
     <use xlink:href="#DejaVuSerif-20" transform="translate(177.392578 0.015625)"/>
     <use xlink:href="#DejaVuSerif-61" transform="translate(209.179688 0.015625)"/>
     <use xlink:href="#DejaVuSerif-20" transform="translate(268.798828 0.015625)"/>
     <use xlink:href="#DejaVuSerif-70" transform="translate(300.585938 0.015625)"/>
     <use xlink:href="#DejaVuSerif-6f" transform="translate(364.599609 0.015625)"/>
     <use xlink:href="#DejaVuSerif-73" transform="translate(424.804688 0.015625)"/>
     <use xlink:href="#DejaVuSerif-69" transform="translate(476.123047 0.015625)"/>
     <use xlink:href="#DejaVuSerif-74" transform="translate(508.105469 0.015625)"/>
     <use xlink:href="#DejaVuSerif-69" transform="translate(548.291016 0.015625)"/>
     <use xlink:href="#DejaVuSerif-76" transform="translate(580.273438 0.015625)"/>
     <use xlink:href="#DejaVuSerif-65" transform="translate(636.767578 0.015625)"/>
     <use xlink:href="#DejaVuSerif-20" transform="translate(695.947266 0.015625)"/>
     <use xlink:href="#DejaVuSerif-69" transform="translate(727.734375 0.015625)"/>
     <use xlink:href="#DejaVuSerif-6e" transform="translate(759.716797 0.015625)"/>
     <use xlink:href="#DejaVuSerif-74" transform="translate(824.121094 0.015625)"/>
     <use xlink:href="#DejaVuSerif-65" transform="translate(864.306641 0.015625)"/>
     <use xlink:href="#DejaVuSerif-67" transform="translate(923.486328 0.015625)"/>
     <use xlink:href="#DejaVuSerif-65" transform="translate(987.5 0.015625)"/>
     <use xlink:href="#DejaVuSerif-72" transform="translate(1046.679688 0.015625)"/>
     <use xlink:href="#DejaVuSerif-20" transform="translate(1094.482422 0.015625)"/>
     <use xlink:href="#Cmmi10-6e" transform="translate(1126.269531 0.015625)"/>
     <use xlink:href="#DejaVuSerif-20" transform="translate(1186.279297 0.015625)"/>
     <use xlink:href="#DejaVuSerif-61" transform="translate(1218.066406 0.015625)"/>
     <use xlink:href="#DejaVuSerif-6e" transform="translate(1277.685547 0.015625)"/>
     <use xlink:href="#DejaVuSerif-64" transform="translate(1342.089844 0.015625)"/>
     <use xlink:href="#DejaVuSerif-20" transform="translate(1406.103516 0.015625)"/>
     <use xlink:href="#DejaVuSerif-61" transform="translate(1437.890625 0.015625)"/>
     <use xlink:href="#DejaVuSerif-6e" transform="translate(1497.509766 0.015625)"/>
     <use xlink:href="#DejaVuSerif-79" transform="translate(1561.914062 0.015625)"/>
     <use xlink:href="#DejaVuSerif-20" transform="translate(1618.408203 0.015625)"/>
     <use xlink:href="#DejaVuSerif-72" transform="translate(1650.195312 0.015625)"/>
     <use xlink:href="#DejaVuSerif-65" transform="translate(1697.998047 0.015625)"/>
     <use xlink:href="#DejaVuSerif-61" transform="translate(1757.177734 0.015625)"/>
     <use xlink:href="#DejaVuSerif-6c" transform="translate(1816.796875 0.015625)"/>
     <use xlink:href="#DejaVuSerif-20" transform="translate(1848.779297 0.015625)"/>
     <use xlink:href="#DejaVuSerif-6e" transform="translate(1880.566406 0.015625)"/>
     <use xlink:href="#DejaVuSerif-75" transform="translate(1944.970703 0.015625)"/>
     <use xlink:href="#DejaVuSerif-6d" transform="translate(2009.375 0.015625)"/>
     <use xlink:href="#DejaVuSerif-62" transform="translate(2104.199219 0.015625)"/>
     <use xlink:href="#DejaVuSerif-65" transform="translate(2168.212891 0.015625)"/>
     <use xlink:href="#DejaVuSerif-72" transform="translate(2227.392578 0.015625)"/>
     <use xlink:href="#DejaVuSerif-20" transform="translate(2275.195312 0.015625)"/>
     <use xlink:href="#Cmmi10-63" transform="translate(2306.982422 0.015625)"/>
     <use xlink:href="#DejaVuSerif-2c" transform="translate(2350.195312 0.015625)"/>
     <use xlink:href="#DejaVuSerif-20" transform="translate(2381.982422 0.015625)"/>
     <use xlink:href="#DejaVuSerif-64" transform="translate(2413.769531 0.015625)"/>
     <use xlink:href="#DejaVuSerif-65" transform="translate(2477.783203 0.015625)"/>
     <use xlink:href="#DejaVuSerif-66" transform="translate(2536.962891 0.015625)"/>
     <use xlink:href="#DejaVuSerif-69" transform="translate(2573.974609 0.015625)"/>
     <use xlink:href="#DejaVuSerif-6e" transform="translate(2605.957031 0.015625)"/>
     <use xlink:href="#DejaVuSerif-65" transform="translate(2670.361328 0.015625)"/>
     <use xlink:href="#DejaVuSerif-20" transform="translate(2729.541016 0.015625)"/>
     <use xlink:href="#Cmmi10-78" transform="translate(2761.328125 0.015625)"/>
     <use xlink:href="#Cmmi10-6b" transform="translate(2818.408203 -16.990625) scale(0.7)"/>
     <use xlink:href="#DejaVuSerif-20" transform="translate(2861.186914 0.015625)"/>
     <use xlink:href="#DejaVuSerif-72" transform="translate(2892.974023 0.015625)"/>
     <use xlink:href="#DejaVuSerif-65" transform="translate(2940.776758 0.015625)"/>
     <use xlink:href="#DejaVuSerif-63" transform="translate(2999.956445 0.015625)"/>
     <use xlink:href="#DejaVuSerif-75" transform="translate(3055.962305 0.015625)"/>
     <use xlink:href="#DejaVuSerif-72" transform="translate(3120.366602 0.015625)"/>
     <use xlink:href="#DejaVuSerif-73" transform="translate(3168.169336 0.015625)"/>
     <use xlink:href="#DejaVuSerif-69" transform="translate(3219.487695 0.015625)"/>
     <use xlink:href="#DejaVuSerif-76" transform="translate(3251.470117 0.015625)"/>
     <use xlink:href="#DejaVuSerif-65" transform="translate(3307.964258 0.015625)"/>
     <use xlink:href="#DejaVuSerif-6c" transform="translate(3367.143945 0.015625)"/>
     <use xlink:href="#DejaVuSerif-79" transform="translate(3399.126367 0.015625)"/>
     <use xlink:href="#DejaVuSerif-20" transform="translate(3455.620508 0.015625)"/>
     <use xlink:href="#DejaVuSerif-62" transform="translate(3487.407617 0.015625)"/>
     <use xlink:href="#DejaVuSerif-79" transform="translate(3551.421289 0.015625)"/>
     <use xlink:href="#DejaVuSerif-20" transform="translate(3607.91543 0.015625)"/>
     <use xlink:href="#Cmmi10-78" transform="translate(3639.702539 0.015625)"/>
     <use xlink:href="#Cmr10-30" transform="translate(3696.782617 -16.990625) scale(0.7)"/>
     <use xlink:href="#Cmr10-3d" transform="translate(3755.718555 0.015625)"/>
     <use xlink:href="#Cmr10-30" transform="translate(3850.962695 0.015625)"/>
     <use xlink:href="#DejaVuSerif-2c" transform="translate(3900.962695 0.015625)"/>
     <use xlink:href="#DejaVuSerif-20" transform="translate(3932.749805 0.015625)"/>
     <use xlink:href="#Cmmi10-78" transform="translate(3964.536914 0.015625)"/>
     <use xlink:href="#Cmr10-31" transform="translate(4021.616992 -16.990625) scale(0.7)"/>
     <use xlink:href="#Cmr10-3d" transform="translate(4080.55293 0.015625)"/>
     <use xlink:href="#Cmr10-31" transform="translate(4175.79707 0.015625)"/>
     <use xlink:href="#DejaVuSerif-2c" transform="translate(4225.79707 0.015625)"/>
     <use xlink:href="#DejaVuSerif-20" transform="translate(4257.58418 0.015625)"/>
     <use xlink:href="#DejaVuSerif-61" transform="translate(4289.371289 0.015625)"/>
     <use xlink:href="#DejaVuSerif-6e" transform="translate(4348.99043 0.015625)"/>
     <use xlink:href="#DejaVuSerif-64" transform="translate(4413.394727 0.015625)"/>
     <use xlink:href="#DejaVuSerif-20" transform="translate(4477.408398 0.015625)"/>
     <use xlink:href="#DejaVuSerif-66" transform="translate(4509.195508 0.015625)"/>
     <use xlink:href="#DejaVuSerif-6f" transform="translate(4546.207227 0.015625)"/>
     <use xlink:href="#DejaVuSerif-72" transform="translate(4606.412305 0.015625)"/>
     <use xlink:href="#DejaVuSerif-20" transform="translate(4654.215039 0.015625)"/>
     <use xlink:href="#Cmmi10-6b" transform="translate(4686.002148 0.015625)"/>
     <use xlink:href="#STIXGeneral-Regular-2267" transform="translate(4755.562695 0.015625)"/>
     <use xlink:href="#Cmr10-30" transform="translate(4841.621274 0.015625)"/>
     <use xlink:href="#DejaVuSerif-2c" transform="translate(4891.621274 0.015625)"/>
     <use xlink:href="#DejaVuSerif-20" transform="translate(4923.408383 0.015625)"/>
     <use xlink:href="#DejaVuSerif-5c" transform="translate(4955.195493 0.015625)"/>
     <use xlink:href="#DejaVuSerif-5b" transform="translate(4988.886899 0.015625)"/>
     <use xlink:href="#DejaVuSerif-78" transform="translate(5027.900571 0.015625)"/>
     <use xlink:href="#DejaVuSerif-5f" transform="translate(5084.297055 0.015625)"/>
     <use xlink:href="#DejaVuSerif-7b" transform="translate(5134.297055 0.015625)"/>
     <use xlink:href="#DejaVuSerif-6b" transform="translate(5197.920102 0.015625)"/>
     <use xlink:href="#DejaVuSerif-2b" transform="translate(5258.515805 0.015625)"/>
     <use xlink:href="#DejaVuSerif-32" transform="translate(5342.304868 0.015625)"/>
     <use xlink:href="#DejaVuSerif-7d" transform="translate(5405.927914 0.015625)"/>
     <use xlink:href="#DejaVuSerif-3d" transform="translate(5469.550961 0.015625)"/>
     <use xlink:href="#DejaVuSerif-5c" transform="translate(5553.340024 0.015625)"/>
     <use xlink:href="#DejaVuSerif-66" transform="translate(5587.03143 0.015625)"/>
     <use xlink:href="#DejaVuSerif-72" transform="translate(5624.043149 0.015625)"/>
     <use xlink:href="#DejaVuSerif-61" transform="translate(5671.845883 0.015625)"/>
     <use xlink:href="#DejaVuSerif-63" transform="translate(5731.465024 0.015625)"/>
     <use xlink:href="#DejaVuSerif-7b" transform="translate(5787.470883 0.015625)"/>
     <use xlink:href="#DejaVuSerif-63" transform="translate(5851.09393 0.015625)"/>
     <use xlink:href="#DejaVuSerif-78" transform="translate(5907.099789 0.015625)"/>
     <use xlink:href="#DejaVuSerif-5f" transform="translate(5963.496274 0.015625)"/>
     <use xlink:href="#DejaVuSerif-7b" transform="translate(6013.496274 0.015625)"/>
     <use xlink:href="#DejaVuSerif-6b" transform="translate(6077.119321 0.015625)"/>
     <use xlink:href="#DejaVuSerif-2b" transform="translate(6137.715024 0.015625)"/>
     <use xlink:href="#DejaVuSerif-31" transform="translate(6221.504086 0.015625)"/>
     <use xlink:href="#DejaVuSerif-7d" transform="translate(6285.127133 0.015625)"/>
     <use xlink:href="#DejaVuSerif-2d" transform="translate(6348.75018 0.015625)"/>
     <use xlink:href="#DejaVuSerif-28" transform="translate(6382.539243 0.015625)"/>
     <use xlink:href="#DejaVuSerif-6e" transform="translate(6421.552914 0.015625)"/>
     <use xlink:href="#DejaVuSerif-2d" transform="translate(6485.957211 0.015625)"/>
     <use xlink:href="#DejaVuSerif-6b" transform="translate(6519.746274 0.015625)"/>
     <use xlink:href="#DejaVuSerif-29" transform="translate(6580.341977 0.015625)"/>
     <use xlink:href="#DejaVuSerif-78" transform="translate(6619.355649 0.015625)"/>
     <use xlink:href="#DejaVuSerif-5f" transform="translate(6675.752133 0.015625)"/>
     <use xlink:href="#DejaVuSerif-6b" transform="translate(6725.752133 0.015625)"/>
     <use xlink:href="#DejaVuSerif-7d" transform="translate(6786.347836 0.015625)"/>
     <use xlink:href="#DejaVuSerif-7b" transform="translate(6849.970883 0.015625)"/>
     <use xlink:href="#DejaVuSerif-6b" transform="translate(6913.59393 0.015625)"/>
     <use xlink:href="#DejaVuSerif-2b" transform="translate(6974.189633 0.015625)"/>
     <use xlink:href="#DejaVuSerif-31" transform="translate(7057.978696 0.015625)"/>
     <use xlink:href="#DejaVuSerif-7d" transform="translate(7121.601743 0.015625)"/>
     <use xlink:href="#DejaVuSerif-2e" transform="translate(7185.224789 0.015625)"/>
     <use xlink:href="#DejaVuSerif-5c" transform="translate(7210.636899 0.015625)"/>
     <use xlink:href="#DejaVuSerif-5d" transform="translate(7244.328305 0.015625)"/>
     <use xlink:href="#DejaVuSerif-20" transform="translate(7283.341977 0.015625)"/>
     <use xlink:href="#DejaVuSerif-46" transform="translate(7315.129086 0.015625)"/>
     <use xlink:href="#DejaVuSerif-69" transform="translate(7384.513852 0.015625)"/>
     <use xlink:href="#DejaVuSerif-78" transform="translate(7416.496274 0.015625)"/>
     <use xlink:href="#DejaVuSerif-20" transform="translate(7472.892758 0.015625)"/>
     <use xlink:href="#Cmmi10-6e" transform="translate(7504.679868 0.015625)"/>
     <use xlink:href="#DejaVuSerif-20" transform="translate(7564.689633 0.015625)"/>
     <use xlink:href="#DejaVuSerif-61" transform="translate(7596.476743 0.015625)"/>
     <use xlink:href="#DejaVuSerif-6e" transform="translate(7656.095883 0.015625)"/>
     <use xlink:href="#DejaVuSerif-64" transform="translate(7720.50018 0.015625)"/>
     <use xlink:href="#DejaVuSerif-20" transform="translate(7784.513852 0.015625)"/>
     <use xlink:href="#DejaVuSerif-74" transform="translate(7816.300961 0.015625)"/>
     <use xlink:href="#DejaVuSerif-68" transform="translate(7856.486508 0.015625)"/>
     <use xlink:href="#DejaVuSerif-65" transform="translate(7920.890805 0.015625)"/>
     <use xlink:href="#DejaVuSerif-6e" transform="translate(7980.070493 0.015625)"/>
     <use xlink:href="#DejaVuSerif-20" transform="translate(8044.474789 0.015625)"/>
     <use xlink:href="#DejaVuSerif-74" transform="translate(8076.261899 0.015625)"/>
     <use xlink:href="#DejaVuSerif-61" transform="translate(8116.447446 0.015625)"/>
     <use xlink:href="#DejaVuSerif-6b" transform="translate(8176.066586 0.015625)"/>
     <use xlink:href="#DejaVuSerif-65" transform="translate(8236.662289 0.015625)"/>
     <use xlink:href="#DejaVuSerif-20" transform="translate(8295.841977 0.015625)"/>
     <use xlink:href="#Cmmi10-63" transform="translate(8327.629086 0.015625)"/>
     <use xlink:href="#DejaVuSerif-20" transform="translate(8370.841977 0.015625)"/>
     <use xlink:href="#DejaVuSerif-74" transform="translate(8402.629086 0.015625)"/>
     <use xlink:href="#DejaVuSerif-6f" transform="translate(8442.814633 0.015625)"/>
     <use xlink:href="#DejaVuSerif-20" transform="translate(8503.019711 0.015625)"/>
     <use xlink:href="#DejaVuSerif-62" transform="translate(8534.806821 0.015625)"/>
     <use xlink:href="#DejaVuSerif-65" transform="translate(8598.820493 0.015625)"/>
     <use xlink:href="#DejaVuSerif-20" transform="translate(8658.00018 0.015625)"/>
     <use xlink:href="#DejaVuSerif-74" transform="translate(8689.787289 0.015625)"/>
     <use xlink:href="#DejaVuSerif-68" transform="translate(8729.972836 0.015625)"/>
     <use xlink:href="#DejaVuSerif-65" transform="translate(8794.377133 0.015625)"/>
     <use xlink:href="#DejaVuSerif-20" transform="translate(8853.556821 0.015625)"/>
     <use xlink:href="#DejaVuSerif-6c" transform="translate(8885.34393 0.015625)"/>
     <use xlink:href="#DejaVuSerif-61" transform="translate(8917.326352 0.015625)"/>
     <use xlink:href="#DejaVuSerif-72" transform="translate(8976.945493 0.015625)"/>
     <use xlink:href="#DejaVuSerif-67" transform="translate(9024.748227 0.015625)"/>
     <use xlink:href="#DejaVuSerif-65" transform="translate(9088.761899 0.015625)"/>
     <use xlink:href="#DejaVuSerif-73" transform="translate(9147.941586 0.015625)"/>
     <use xlink:href="#DejaVuSerif-74" transform="translate(9199.259946 0.015625)"/>
     <use xlink:href="#DejaVuSerif-20" transform="translate(9239.445493 0.015625)"/>
     <use xlink:href="#DejaVuSerif-76" transform="translate(9271.232602 0.015625)"/>
     <use xlink:href="#DejaVuSerif-61" transform="translate(9327.726743 0.015625)"/>
     <use xlink:href="#DejaVuSerif-6c" transform="translate(9387.345883 0.015625)"/>
     <use xlink:href="#DejaVuSerif-75" transform="translate(9419.328305 0.015625)"/>
     <use xlink:href="#DejaVuSerif-65" transform="translate(9483.732602 0.015625)"/>
     <use xlink:href="#DejaVuSerif-20" transform="translate(9542.912289 0.015625)"/>
     <use xlink:href="#DejaVuSerif-66" transform="translate(9574.699399 0.015625)"/>
     <use xlink:href="#DejaVuSerif-6f" transform="translate(9611.711118 0.015625)"/>
     <use xlink:href="#DejaVuSerif-72" transform="translate(9671.916196 0.015625)"/>
     <use xlink:href="#DejaVuSerif-20" transform="translate(9719.71893 0.015625)"/>
     <use xlink:href="#DejaVuSerif-77" transform="translate(9751.506039 0.015625)"/>
     <use xlink:href="#DejaVuSerif-68" transform="translate(9837.101743 0.015625)"/>
     <use xlink:href="#DejaVuSerif-69" transform="translate(9901.506039 0.015625)"/>
     <use xlink:href="#DejaVuSerif-63" transform="translate(9933.488461 0.015625)"/>
     <use xlink:href="#DejaVuSerif-68" transform="translate(9989.494321 0.015625)"/>
     <use xlink:href="#DejaVuSerif-20" transform="translate(10053.898618 0.015625)"/>
     <use xlink:href="#Cmmi10-78" transform="translate(10085.685727 0.015625)"/>
     <use xlink:href="#Cmmi10-6e" transform="translate(10142.765805 -16.990625) scale(0.7)"/>
     <use xlink:href="#Cmr10-2b" transform="translate(10197.063657 -16.990625) scale(0.7)"/>
     <use xlink:href="#Cmr10-31" transform="translate(10263.734555 -16.990625) scale(0.7)"/>
     <use xlink:href="#Cmr10-3d" transform="translate(10322.670493 0.015625)"/>
     <use xlink:href="#Cmr10-30" transform="translate(10417.914633 0.015625)"/>
     <use xlink:href="#DejaVuSerif-2e" transform="translate(10467.914633 0.015625)"/>
     <use xlink:href="#DejaVuSerif-20" transform="translate(10499.701743 0.015625)"/>
     <use xlink:href="#DejaVuSerif-46" transform="translate(10531.488852 0.015625)"/>
     <use xlink:href="#DejaVuSerif-69" transform="translate(10600.873618 0.015625)"/>
     <use xlink:href="#DejaVuSerif-6e" transform="translate(10632.856039 0.015625)"/>
     <use xlink:href="#DejaVuSerif-64" transform="translate(10697.260336 0.015625)"/>
     <use xlink:href="#DejaVuSerif-20" transform="translate(10761.274008 0.015625)"/>
     <use xlink:href="#Cmmi10-78" transform="translate(10793.061118 0.015625)"/>
     <use xlink:href="#Cmmi10-6b" transform="translate(10850.141196 -16.990625) scale(0.7)"/>
     <use xlink:href="#DejaVuSerif-20" transform="translate(10892.919907 0.015625)"/>
     <use xlink:href="#DejaVuSerif-69" transform="translate(10924.707016 0.015625)"/>
     <use xlink:href="#DejaVuSerif-6e" transform="translate(10956.689438 0.015625)"/>
     <use xlink:href="#DejaVuSerif-20" transform="translate(11021.093735 0.015625)"/>
     <use xlink:href="#DejaVuSerif-74" transform="translate(11052.880844 0.015625)"/>
     <use xlink:href="#DejaVuSerif-65" transform="translate(11093.066391 0.015625)"/>
     <use xlink:href="#DejaVuSerif-72" transform="translate(11152.246078 0.015625)"/>
     <use xlink:href="#DejaVuSerif-6d" transform="translate(11200.048813 0.015625)"/>
     <use xlink:href="#DejaVuSerif-73" transform="translate(11294.873032 0.015625)"/>
     <use xlink:href="#DejaVuSerif-20" transform="translate(11346.191391 0.015625)"/>
     <use xlink:href="#DejaVuSerif-6f" transform="translate(11377.9785 0.015625)"/>
     <use xlink:href="#DejaVuSerif-66" transform="translate(11438.183578 0.015625)"/>
     <use xlink:href="#DejaVuSerif-20" transform="translate(11475.195297 0.015625)"/>
     <use xlink:href="#Cmmi10-6e" transform="translate(11506.982407 0.015625)"/>
     <use xlink:href="#DejaVuSerif-20" transform="translate(11566.992172 0.015625)"/>
     <use xlink:href="#DejaVuSerif-61" transform="translate(11598.779282 0.015625)"/>
     <use xlink:href="#DejaVuSerif-6e" transform="translate(11658.398422 0.015625)"/>
     <use xlink:href="#DejaVuSerif-64" transform="translate(11722.802719 0.015625)"/>
     <use xlink:href="#DejaVuSerif-20" transform="translate(11786.816391 0.015625)"/>
     <use xlink:href="#Cmmi10-6b" transform="translate(11818.6035 0.015625)"/>
     <use xlink:href="#DejaVuSerif-2c" transform="translate(11870.605453 0.015625)"/>
     <use xlink:href="#DejaVuSerif-20" transform="translate(11902.392563 0.015625)"/>
     <use xlink:href="#Cmr10-31" transform="translate(11934.179672 0.015625)"/>
     <use xlink:href="#STIXGeneral-Regular-2266" transform="translate(12001.738266 0.015625)"/>
     <use xlink:href="#Cmmi10-6b" transform="translate(12087.796844 0.015625)"/>
     <use xlink:href="#STIXGeneral-Regular-2266" transform="translate(12157.357391 0.015625)"/>
     <use xlink:href="#Cmmi10-6e" transform="translate(12243.41597 0.015625)"/>
     <use xlink:href="#DejaVuSerif-2e" transform="translate(12303.425735 0.015625)"/>
    </g>
   </g>
  </g>
 </g>
</svg>
