<?xml version="1.0" encoding="utf-8" standalone="no"?>
<!DOCTYPE svg PUBLIC "-//W3C//DTD SVG 1.1//EN"
  "http://www.w3.org/Graphics/SVG/1.1/DTD/svg11.dtd">
<svg xmlns:xlink="http://www.w3.org/1999/xlink" width="1515.24pt" height="180.72pt" viewBox="0 0 1515.24 180.72" xmlns="http://www.w3.org/2000/svg" version="1.1">
 <metadata>
  <rdf:RDF xmlns:dc="http://purl.org/dc/elements/1.1/" xmlns:cc="http://creativecommons.org/ns#" xmlns:rdf="http://www.w3.org/1999/02/22-rdf-syntax-ns#">
   <cc:Work>
    <dc:type rdf:resource="http://purl.org/dc/dcmitype/StillImage"/>
    <dc:date>2025-05-29T18:44:00.777898</dc:date>
    <dc:format>image/svg+xml</dc:format>
    <dc:creator>
     <cc:Agent>
      <dc:title>Matplotlib v3.10.3, https://matplotlib.org/</dc:title>
     </cc:Agent>
    </dc:creator>
   </cc:Work>
  </rdf:RDF>
 </metadata>
 <defs>
  <style type="text/css">*{stroke-linejoin: round; stroke-linecap: butt}</style>
 </defs>
 <g id="figure_1">
  <g id="patch_1">
   <path d="M 0 180.72 
L 1515.24 180.72 
L 1515.24 0 
L 0 0 
z
" style="fill: #ffffff"/>
  </g>
  <g id="axes_1">
   <g id="text_1">
    <!-- Two real numbers $x$ and $y$ are chosen at random in the interval $(0,1)$ with respect to the uniform distribution. What is the probability that the closest integer to $x/y$ is even? Express the answer in the form $r+s\pi$, where $r$ and $s$ are rational numbers. -->
    <g transform="translate(7.2 93.42) scale(0.12 -0.12)">
     <defs>
      <path id="DejaVuSerif-54" d="M 1222 0 
L 1222 331 
L 1819 331 
L 1819 4294 
L 447 4294 
L 447 3566 
L 63 3566 
L 63 4666 
L 4206 4666 
L 4206 3566 
L 3822 3566 
L 3822 4294 
L 2450 4294 
L 2450 331 
L 3047 331 
L 3047 0 
L 1222 0 
z
" transform="scale(0.015625)"/>
      <path id="DejaVuSerif-77" d="M 3072 3322 
L 3922 728 
L 4672 2988 
L 4191 2988 
L 4191 3322 
L 5394 3322 
L 5394 2988 
L 5025 2988 
L 4038 0 
L 3559 0 
L 2741 2484 
L 1919 0 
L 1459 0 
L 475 2988 
L 103 2988 
L 103 3322 
L 1606 3322 
L 1606 2988 
L 1069 2988 
L 1813 728 
L 2669 3322 
L 3072 3322 
z
" transform="scale(0.015625)"/>
      <path id="DejaVuSerif-6f" d="M 1925 219 
Q 2388 219 2623 584 
Q 2859 950 2859 1663 
Q 2859 2375 2623 2739 
Q 2388 3103 1925 3103 
Q 1463 3103 1227 2739 
Q 991 2375 991 1663 
Q 991 950 1228 584 
Q 1466 219 1925 219 
z
M 1925 -91 
Q 1200 -91 759 389 
Q 319 869 319 1663 
Q 319 2456 758 2934 
Q 1197 3413 1925 3413 
Q 2653 3413 3092 2934 
Q 3531 2456 3531 1663 
Q 3531 869 3092 389 
Q 2653 -91 1925 -91 
z
" transform="scale(0.015625)"/>
      <path id="DejaVuSerif-20" transform="scale(0.015625)"/>
      <path id="DejaVuSerif-72" d="M 3059 3328 
L 3059 2497 
L 2728 2497 
Q 2713 2744 2591 2866 
Q 2469 2988 2234 2988 
Q 1809 2988 1582 2694 
Q 1356 2400 1356 1850 
L 1356 331 
L 2022 331 
L 2022 0 
L 263 0 
L 263 331 
L 781 331 
L 781 2994 
L 231 2994 
L 231 3322 
L 1356 3322 
L 1356 2731 
Q 1525 3078 1790 3245 
Q 2056 3413 2438 3413 
Q 2578 3413 2733 3391 
Q 2888 3369 3059 3328 
z
" transform="scale(0.015625)"/>
      <path id="DejaVuSerif-65" d="M 3469 1600 
L 991 1600 
L 991 1575 
Q 991 903 1244 561 
Q 1497 219 1991 219 
Q 2369 219 2611 417 
Q 2853 616 2950 1006 
L 3413 1006 
Q 3275 459 2904 184 
Q 2534 -91 1931 -91 
Q 1203 -91 761 389 
Q 319 869 319 1663 
Q 319 2450 753 2931 
Q 1188 3413 1894 3413 
Q 2647 3413 3050 2948 
Q 3453 2484 3469 1600 
z
M 2791 1931 
Q 2772 2513 2545 2808 
Q 2319 3103 1894 3103 
Q 1497 3103 1269 2806 
Q 1041 2509 991 1931 
L 2791 1931 
z
" transform="scale(0.015625)"/>
      <path id="DejaVuSerif-61" d="M 2547 1044 
L 2547 1747 
L 1806 1747 
Q 1378 1747 1168 1562 
Q 959 1378 959 997 
Q 959 650 1171 447 
Q 1384 244 1747 244 
Q 2106 244 2326 466 
Q 2547 688 2547 1044 
z
M 3122 2075 
L 3122 331 
L 3634 331 
L 3634 0 
L 2547 0 
L 2547 359 
Q 2356 128 2106 18 
Q 1856 -91 1522 -91 
Q 969 -91 644 203 
Q 319 497 319 997 
Q 319 1513 691 1797 
Q 1063 2081 1741 2081 
L 2547 2081 
L 2547 2309 
Q 2547 2688 2317 2895 
Q 2088 3103 1672 3103 
Q 1328 3103 1125 2947 
Q 922 2791 872 2484 
L 575 2484 
L 575 3156 
Q 875 3284 1158 3348 
Q 1441 3413 1709 3413 
Q 2400 3413 2761 3070 
Q 3122 2728 3122 2075 
z
" transform="scale(0.015625)"/>
      <path id="DejaVuSerif-6c" d="M 1313 331 
L 1856 331 
L 1856 0 
L 184 0 
L 184 331 
L 738 331 
L 738 4531 
L 184 4531 
L 184 4863 
L 1313 4863 
L 1313 331 
z
" transform="scale(0.015625)"/>
      <path id="DejaVuSerif-6e" d="M 263 0 
L 263 331 
L 781 331 
L 781 2988 
L 231 2988 
L 231 3322 
L 1356 3322 
L 1356 2731 
Q 1516 3069 1770 3241 
Q 2025 3413 2363 3413 
Q 2913 3413 3172 3097 
Q 3431 2781 3431 2113 
L 3431 331 
L 3944 331 
L 3944 0 
L 2356 0 
L 2356 331 
L 2853 331 
L 2853 1931 
Q 2853 2541 2703 2767 
Q 2553 2994 2175 2994 
Q 1775 2994 1565 2701 
Q 1356 2409 1356 1850 
L 1356 331 
L 1856 331 
L 1856 0 
L 263 0 
z
" transform="scale(0.015625)"/>
      <path id="DejaVuSerif-75" d="M 2266 3322 
L 3341 3322 
L 3341 331 
L 3884 331 
L 3884 0 
L 2766 0 
L 2766 588 
Q 2606 256 2353 82 
Q 2100 -91 1766 -91 
Q 1213 -91 952 223 
Q 691 538 691 1209 
L 691 2988 
L 172 2988 
L 172 3322 
L 1269 3322 
L 1269 1388 
Q 1269 781 1417 556 
Q 1566 331 1947 331 
Q 2347 331 2556 625 
Q 2766 919 2766 1478 
L 2766 2988 
L 2266 2988 
L 2266 3322 
z
" transform="scale(0.015625)"/>
      <path id="DejaVuSerif-6d" d="M 3316 2675 
Q 3481 3041 3739 3227 
Q 3997 3413 4341 3413 
Q 4863 3413 5119 3089 
Q 5375 2766 5375 2113 
L 5375 331 
L 5894 331 
L 5894 0 
L 4300 0 
L 4300 331 
L 4800 331 
L 4800 2047 
Q 4800 2556 4650 2772 
Q 4500 2988 4153 2988 
Q 3769 2988 3567 2697 
Q 3366 2406 3366 1850 
L 3366 331 
L 3866 331 
L 3866 0 
L 2291 0 
L 2291 331 
L 2791 331 
L 2791 2069 
Q 2791 2566 2641 2777 
Q 2491 2988 2144 2988 
Q 1759 2988 1557 2697 
Q 1356 2406 1356 1850 
L 1356 331 
L 1856 331 
L 1856 0 
L 263 0 
L 263 331 
L 781 331 
L 781 2994 
L 231 2994 
L 231 3322 
L 1356 3322 
L 1356 2731 
Q 1516 3063 1762 3238 
Q 2009 3413 2322 3413 
Q 2709 3413 2968 3220 
Q 3228 3028 3316 2675 
z
" transform="scale(0.015625)"/>
      <path id="DejaVuSerif-62" d="M 738 331 
L 738 4531 
L 184 4531 
L 184 4863 
L 1313 4863 
L 1313 2803 
Q 1481 3116 1742 3264 
Q 2003 3413 2388 3413 
Q 3000 3413 3387 2928 
Q 3775 2444 3775 1663 
Q 3775 881 3387 395 
Q 3000 -91 2388 -91 
Q 2003 -91 1742 57 
Q 1481 206 1313 519 
L 1313 0 
L 184 0 
L 184 331 
L 738 331 
z
M 1313 1497 
Q 1313 897 1542 583 
Q 1772 269 2209 269 
Q 2650 269 2876 622 
Q 3103 975 3103 1663 
Q 3103 2353 2876 2703 
Q 2650 3053 2209 3053 
Q 1772 3053 1542 2737 
Q 1313 2422 1313 1825 
L 1313 1497 
z
" transform="scale(0.015625)"/>
      <path id="DejaVuSerif-73" d="M 359 184 
L 359 959 
L 691 959 
Q 703 588 923 403 
Q 1144 219 1575 219 
Q 1963 219 2166 364 
Q 2369 509 2369 788 
Q 2369 1006 2220 1140 
Q 2072 1275 1594 1428 
L 1178 1569 
Q 750 1706 558 1912 
Q 366 2119 366 2438 
Q 366 2894 700 3153 
Q 1034 3413 1625 3413 
Q 1888 3413 2178 3344 
Q 2469 3275 2778 3144 
L 2778 2419 
L 2447 2419 
Q 2434 2741 2221 2922 
Q 2009 3103 1644 3103 
Q 1281 3103 1095 2975 
Q 909 2847 909 2591 
Q 909 2381 1050 2254 
Q 1191 2128 1613 1997 
L 2069 1856 
Q 2541 1709 2748 1489 
Q 2956 1269 2956 922 
Q 2956 450 2595 179 
Q 2234 -91 1600 -91 
Q 1278 -91 972 -22 
Q 666 47 359 184 
z
" transform="scale(0.015625)"/>
      <path id="Cmmi10-78" d="M 500 184 
Q 613 97 819 97 
Q 1019 97 1172 289 
Q 1325 481 1381 709 
L 1672 1844 
Q 1741 2153 1741 2266 
Q 1741 2425 1652 2544 
Q 1563 2663 1403 2663 
Q 1200 2663 1022 2536 
Q 844 2409 722 2214 
Q 600 2019 550 1819 
Q 538 1778 500 1778 
L 422 1778 
Q 372 1778 372 1838 
L 372 1856 
Q 434 2094 584 2320 
Q 734 2547 951 2687 
Q 1169 2828 1416 2828 
Q 1650 2828 1839 2703 
Q 2028 2578 2106 2363 
Q 2216 2559 2386 2693 
Q 2556 2828 2759 2828 
Q 2897 2828 3040 2779 
Q 3184 2731 3275 2631 
Q 3366 2531 3366 2381 
Q 3366 2219 3261 2101 
Q 3156 1984 2994 1984 
Q 2891 1984 2822 2050 
Q 2753 2116 2753 2216 
Q 2753 2350 2845 2451 
Q 2938 2553 3066 2572 
Q 2950 2663 2747 2663 
Q 2541 2663 2389 2472 
Q 2238 2281 2175 2047 
L 1894 916 
Q 1825 659 1825 494 
Q 1825 331 1917 214 
Q 2009 97 2163 97 
Q 2463 97 2698 361 
Q 2934 625 3009 941 
Q 3022 978 3059 978 
L 3138 978 
Q 3163 978 3178 961 
Q 3194 944 3194 922 
Q 3194 916 3188 903 
Q 3097 522 2806 225 
Q 2516 -72 2150 -72 
Q 1916 -72 1727 54 
Q 1538 181 1459 397 
Q 1359 209 1182 68 
Q 1006 -72 806 -72 
Q 669 -72 523 -23 
Q 378 25 287 125 
Q 197 225 197 378 
Q 197 528 301 651 
Q 406 775 563 775 
Q 669 775 741 711 
Q 813 647 813 544 
Q 813 409 723 309 
Q 634 209 500 184 
z
" transform="scale(0.015625)"/>
      <path id="DejaVuSerif-64" d="M 3359 331 
L 3909 331 
L 3909 0 
L 2784 0 
L 2784 519 
Q 2616 206 2355 57 
Q 2094 -91 1709 -91 
Q 1097 -91 708 395 
Q 319 881 319 1663 
Q 319 2444 706 2928 
Q 1094 3413 1709 3413 
Q 2094 3413 2355 3264 
Q 2616 3116 2784 2803 
L 2784 4531 
L 2241 4531 
L 2241 4863 
L 3359 4863 
L 3359 331 
z
M 2784 1497 
L 2784 1825 
Q 2784 2422 2554 2737 
Q 2325 3053 1888 3053 
Q 1444 3053 1217 2703 
Q 991 2353 991 1663 
Q 991 975 1217 622 
Q 1444 269 1888 269 
Q 2325 269 2554 583 
Q 2784 897 2784 1497 
z
" transform="scale(0.015625)"/>
      <path id="Cmmi10-79" d="M 538 -916 
Q 672 -1147 1006 -1147 
Q 1309 -1147 1531 -934 
Q 1753 -722 1889 -420 
Q 2025 -119 2100 197 
Q 1816 -72 1484 -72 
Q 1231 -72 1053 15 
Q 875 103 776 276 
Q 678 450 678 697 
Q 678 906 734 1126 
Q 791 1347 892 1617 
Q 994 1888 1069 2088 
Q 1153 2322 1153 2472 
Q 1153 2663 1013 2663 
Q 759 2663 595 2402 
Q 431 2141 353 1819 
Q 341 1778 300 1778 
L 225 1778 
Q 172 1778 172 1838 
L 172 1856 
Q 275 2238 487 2533 
Q 700 2828 1025 2828 
Q 1253 2828 1411 2678 
Q 1569 2528 1569 2297 
Q 1569 2178 1516 2047 
Q 1488 1969 1388 1706 
Q 1288 1444 1234 1272 
Q 1181 1100 1147 934 
Q 1113 769 1113 603 
Q 1113 391 1203 244 
Q 1294 97 1491 97 
Q 1888 97 2203 581 
L 2688 2553 
Q 2709 2638 2787 2698 
Q 2866 2759 2956 2759 
Q 3034 2759 3092 2709 
Q 3150 2659 3150 2578 
Q 3150 2541 3144 2528 
L 2509 -19 
Q 2425 -347 2200 -647 
Q 1975 -947 1658 -1130 
Q 1341 -1313 997 -1313 
Q 831 -1313 668 -1248 
Q 506 -1184 406 -1056 
Q 306 -928 306 -756 
Q 306 -581 409 -453 
Q 513 -325 684 -325 
Q 788 -325 858 -389 
Q 928 -453 928 -556 
Q 928 -703 818 -812 
Q 709 -922 563 -922 
Q 556 -919 550 -917 
Q 544 -916 538 -916 
z
" transform="scale(0.015625)"/>
      <path id="DejaVuSerif-63" d="M 3291 997 
Q 3169 466 2822 187 
Q 2475 -91 1925 -91 
Q 1200 -91 759 389 
Q 319 869 319 1663 
Q 319 2459 759 2936 
Q 1200 3413 1925 3413 
Q 2241 3413 2553 3339 
Q 2866 3266 3181 3116 
L 3181 2266 
L 2847 2266 
Q 2781 2703 2561 2903 
Q 2341 3103 1931 3103 
Q 1466 3103 1228 2742 
Q 991 2381 991 1663 
Q 991 944 1227 581 
Q 1463 219 1931 219 
Q 2303 219 2525 412 
Q 2747 606 2828 997 
L 3291 997 
z
" transform="scale(0.015625)"/>
      <path id="DejaVuSerif-68" d="M 263 0 
L 263 331 
L 781 331 
L 781 4531 
L 231 4531 
L 231 4863 
L 1356 4863 
L 1356 2731 
Q 1516 3069 1770 3241 
Q 2025 3413 2363 3413 
Q 2913 3413 3172 3097 
Q 3431 2781 3431 2113 
L 3431 331 
L 3944 331 
L 3944 0 
L 2356 0 
L 2356 331 
L 2853 331 
L 2853 1931 
Q 2853 2541 2704 2764 
Q 2556 2988 2175 2988 
Q 1775 2988 1565 2697 
Q 1356 2406 1356 1850 
L 1356 331 
L 1856 331 
L 1856 0 
L 263 0 
z
" transform="scale(0.015625)"/>
      <path id="DejaVuSerif-74" d="M 691 2988 
L 184 2988 
L 184 3322 
L 691 3322 
L 691 4353 
L 1269 4353 
L 1269 3322 
L 2350 3322 
L 2350 2988 
L 1269 2988 
L 1269 878 
Q 1269 456 1350 337 
Q 1431 219 1650 219 
Q 1875 219 1978 351 
Q 2081 484 2088 781 
L 2522 781 
Q 2497 328 2275 118 
Q 2053 -91 1600 -91 
Q 1103 -91 897 129 
Q 691 350 691 878 
L 691 2988 
z
" transform="scale(0.015625)"/>
      <path id="DejaVuSerif-69" d="M 622 4353 
Q 622 4497 726 4603 
Q 831 4709 978 4709 
Q 1122 4709 1226 4603 
Q 1331 4497 1331 4353 
Q 1331 4206 1228 4103 
Q 1125 4000 978 4000 
Q 831 4000 726 4103 
Q 622 4206 622 4353 
z
M 1356 331 
L 1900 331 
L 1900 0 
L 231 0 
L 231 331 
L 781 331 
L 781 2988 
L 231 2988 
L 231 3322 
L 1356 3322 
L 1356 331 
z
" transform="scale(0.015625)"/>
      <path id="DejaVuSerif-76" d="M 1581 0 
L 359 2988 
L -19 2988 
L -19 3322 
L 1509 3322 
L 1509 2988 
L 978 2988 
L 1913 703 
L 2847 2988 
L 2350 2988 
L 2350 3322 
L 3597 3322 
L 3597 2988 
L 3225 2988 
L 2003 0 
L 1581 0 
z
" transform="scale(0.015625)"/>
      <path id="Cmr10-28" d="M 1984 -1588 
Q 1628 -1306 1370 -942 
Q 1113 -578 948 -165 
Q 784 247 703 697 
Q 622 1147 622 1600 
Q 622 2059 703 2509 
Q 784 2959 951 3375 
Q 1119 3791 1378 4153 
Q 1638 4516 1984 4788 
Q 1984 4800 2016 4800 
L 2075 4800 
Q 2094 4800 2109 4783 
Q 2125 4766 2125 4744 
Q 2125 4716 2113 4703 
Q 1800 4397 1592 4047 
Q 1384 3697 1257 3301 
Q 1131 2906 1075 2482 
Q 1019 2059 1019 1600 
Q 1019 -434 2106 -1491 
Q 2125 -1509 2125 -1544 
Q 2125 -1559 2108 -1579 
Q 2091 -1600 2075 -1600 
L 2016 -1600 
Q 1984 -1600 1984 -1588 
z
" transform="scale(0.015625)"/>
      <path id="Cmr10-30" d="M 1600 -141 
Q 816 -141 533 504 
Q 250 1150 250 2041 
Q 250 2597 351 3087 
Q 453 3578 754 3920 
Q 1056 4263 1600 4263 
Q 2022 4263 2290 4056 
Q 2559 3850 2700 3523 
Q 2841 3197 2892 2823 
Q 2944 2450 2944 2041 
Q 2944 1491 2842 1011 
Q 2741 531 2444 195 
Q 2147 -141 1600 -141 
z
M 1600 25 
Q 1956 25 2131 390 
Q 2306 756 2347 1200 
Q 2388 1644 2388 2144 
Q 2388 2625 2347 3031 
Q 2306 3438 2132 3767 
Q 1959 4097 1600 4097 
Q 1238 4097 1063 3765 
Q 888 3434 847 3029 
Q 806 2625 806 2144 
Q 806 1788 823 1472 
Q 841 1156 916 820 
Q 991 484 1158 254 
Q 1325 25 1600 25 
z
" transform="scale(0.015625)"/>
      <path id="Cmmi10-3b" d="M 634 -1153 
Q 634 -1125 659 -1100 
Q 891 -878 1019 -587 
Q 1147 -297 1147 25 
L 1147 103 
Q 1044 0 891 0 
Q 744 0 641 103 
Q 538 206 538 353 
Q 538 503 641 603 
Q 744 703 891 703 
Q 1119 703 1216 492 
Q 1313 281 1313 25 
Q 1313 -331 1170 -651 
Q 1028 -972 769 -1228 
Q 744 -1241 728 -1241 
Q 697 -1241 665 -1212 
Q 634 -1184 634 -1153 
z
" transform="scale(0.015625)"/>
      <path id="Cmr10-31" d="M 594 0 
L 594 225 
Q 1394 225 1394 428 
L 1394 3788 
Q 1063 3628 556 3628 
L 556 3853 
Q 1341 3853 1741 4263 
L 1831 4263 
Q 1853 4263 1873 4245 
Q 1894 4228 1894 4206 
L 1894 428 
Q 1894 225 2694 225 
L 2694 0 
L 594 0 
z
" transform="scale(0.015625)"/>
      <path id="Cmr10-29" d="M 416 -1600 
Q 359 -1600 359 -1544 
Q 359 -1516 372 -1503 
Q 1466 -434 1466 1600 
Q 1466 3634 384 4691 
Q 359 4706 359 4744 
Q 359 4766 376 4783 
Q 394 4800 416 4800 
L 475 4800 
Q 494 4800 506 4788 
Q 966 4425 1272 3906 
Q 1578 3388 1720 2800 
Q 1863 2213 1863 1600 
Q 1863 1147 1786 708 
Q 1709 269 1542 -157 
Q 1375 -584 1119 -945 
Q 863 -1306 506 -1588 
Q 494 -1600 475 -1600 
L 416 -1600 
z
" transform="scale(0.015625)"/>
      <path id="DejaVuSerif-70" d="M 1313 1825 
L 1313 1497 
Q 1313 897 1542 583 
Q 1772 269 2209 269 
Q 2650 269 2876 622 
Q 3103 975 3103 1663 
Q 3103 2353 2876 2703 
Q 2650 3053 2209 3053 
Q 1772 3053 1542 2737 
Q 1313 2422 1313 1825 
z
M 738 2988 
L 184 2988 
L 184 3322 
L 1313 3322 
L 1313 2803 
Q 1481 3116 1742 3264 
Q 2003 3413 2388 3413 
Q 3000 3413 3387 2928 
Q 3775 2444 3775 1663 
Q 3775 881 3387 395 
Q 3000 -91 2388 -91 
Q 2003 -91 1742 57 
Q 1481 206 1313 519 
L 1313 -997 
L 1856 -997 
L 1856 -1331 
L 184 -1331 
L 184 -997 
L 738 -997 
L 738 2988 
z
" transform="scale(0.015625)"/>
      <path id="DejaVuSerif-66" d="M 2753 4078 
L 2450 4078 
Q 2447 4313 2317 4434 
Q 2188 4556 1941 4556 
Q 1619 4556 1487 4379 
Q 1356 4203 1356 3750 
L 1356 3322 
L 2284 3322 
L 2284 2988 
L 1356 2988 
L 1356 331 
L 2094 331 
L 2094 0 
L 231 0 
L 231 331 
L 781 331 
L 781 2988 
L 231 2988 
L 231 3322 
L 781 3322 
L 781 3738 
Q 781 4294 1070 4578 
Q 1359 4863 1919 4863 
Q 2128 4863 2337 4825 
Q 2547 4788 2753 4709 
L 2753 4078 
z
" transform="scale(0.015625)"/>
      <path id="DejaVuSerif-2e" d="M 603 325 
Q 603 500 722 622 
Q 841 744 1019 744 
Q 1191 744 1312 622 
Q 1434 500 1434 325 
Q 1434 153 1312 31 
Q 1191 -91 1019 -91 
Q 841 -91 722 29 
Q 603 150 603 325 
z
" transform="scale(0.015625)"/>
      <path id="DejaVuSerif-57" d="M 4878 0 
L 4366 0 
L 3297 3794 
L 2228 0 
L 1716 0 
L 494 4331 
L 31 4331 
L 31 4666 
L 1734 4666 
L 1734 4331 
L 1153 4331 
L 2125 884 
L 3188 4666 
L 3694 4666 
L 4775 844 
L 5753 4331 
L 5216 4331 
L 5216 4666 
L 6559 4666 
L 6559 4331 
L 6100 4331 
L 4878 0 
z
" transform="scale(0.015625)"/>
      <path id="DejaVuSerif-79" d="M 1381 -609 
L 1600 -56 
L 359 2988 
L -19 2988 
L -19 3322 
L 1509 3322 
L 1509 2988 
L 978 2988 
L 1913 703 
L 2847 2988 
L 2350 2988 
L 2350 3322 
L 3597 3322 
L 3597 2988 
L 3225 2988 
L 1703 -750 
Q 1547 -1138 1356 -1280 
Q 1166 -1422 819 -1422 
Q 672 -1422 517 -1397 
Q 363 -1372 206 -1325 
L 206 -691 
L 500 -691 
Q 519 -903 608 -995 
Q 697 -1088 884 -1088 
Q 1056 -1088 1161 -992 
Q 1266 -897 1381 -609 
z
" transform="scale(0.015625)"/>
      <path id="DejaVuSerif-67" d="M 3359 2988 
L 3359 72 
Q 3359 -644 2965 -1033 
Q 2572 -1422 1844 -1422 
Q 1516 -1422 1216 -1362 
Q 916 -1303 641 -1184 
L 641 -488 
L 941 -488 
Q 997 -813 1206 -963 
Q 1416 -1113 1806 -1113 
Q 2313 -1113 2548 -827 
Q 2784 -541 2784 72 
L 2784 519 
Q 2616 206 2355 57 
Q 2094 -91 1709 -91 
Q 1097 -91 708 395 
Q 319 881 319 1663 
Q 319 2444 706 2928 
Q 1094 3413 1709 3413 
Q 2094 3413 2355 3264 
Q 2616 3116 2784 2803 
L 2784 3322 
L 3909 3322 
L 3909 2988 
L 3359 2988 
z
M 2784 1825 
Q 2784 2422 2554 2737 
Q 2325 3053 1888 3053 
Q 1444 3053 1217 2703 
Q 991 2353 991 1663 
Q 991 975 1217 622 
Q 1444 269 1888 269 
Q 2325 269 2554 583 
Q 2784 897 2784 1497 
L 2784 1825 
z
" transform="scale(0.015625)"/>
      <path id="Cmmi10-3d" d="M 359 -1472 
Q 359 -1453 366 -1447 
L 2591 4722 
Q 2603 4759 2634 4779 
Q 2666 4800 2706 4800 
Q 2763 4800 2798 4765 
Q 2834 4731 2834 4672 
L 2834 4647 
L 609 -1522 
Q 572 -1600 488 -1600 
Q 434 -1600 396 -1562 
Q 359 -1525 359 -1472 
z
" transform="scale(0.015625)"/>
      <path id="DejaVuSerif-3f" d="M 1125 325 
Q 1125 500 1245 622 
Q 1366 744 1544 744 
Q 1716 744 1837 622 
Q 1959 500 1959 325 
Q 1959 153 1837 31 
Q 1716 -91 1544 -91 
Q 1366 -91 1245 29 
Q 1125 150 1125 325 
z
M 434 4459 
Q 766 4606 1064 4678 
Q 1363 4750 1625 4750 
Q 2319 4750 2720 4415 
Q 3122 4081 3122 3513 
Q 3122 2931 2776 2562 
Q 2431 2194 1734 2034 
L 1734 1241 
L 1350 1241 
L 1350 2266 
Q 1903 2400 2183 2715 
Q 2463 3031 2463 3519 
Q 2463 3947 2234 4194 
Q 2006 4441 1613 4441 
Q 1256 4441 1029 4236 
Q 803 4031 738 3647 
L 434 3647 
L 434 4459 
z
" transform="scale(0.015625)"/>
      <path id="DejaVuSerif-45" d="M 353 0 
L 353 331 
L 947 331 
L 947 4331 
L 353 4331 
L 353 4666 
L 4109 4666 
L 4109 3628 
L 3725 3628 
L 3725 4281 
L 1581 4281 
L 1581 2719 
L 3109 2719 
L 3109 3303 
L 3494 3303 
L 3494 1753 
L 3109 1753 
L 3109 2338 
L 1581 2338 
L 1581 384 
L 3775 384 
L 3775 1038 
L 4159 1038 
L 4159 0 
L 353 0 
z
" transform="scale(0.015625)"/>
      <path id="DejaVuSerif-78" d="M 1863 2028 
L 2559 2988 
L 2113 2988 
L 2113 3322 
L 3391 3322 
L 3391 2988 
L 2950 2988 
L 2059 1759 
L 3097 331 
L 3531 331 
L 3531 0 
L 1997 0 
L 1997 331 
L 2419 331 
L 1697 1325 
L 972 331 
L 1403 331 
L 1403 0 
L 141 0 
L 141 331 
L 581 331 
L 1497 1594 
L 488 2988 
L 78 2988 
L 78 3322 
L 1563 3322 
L 1563 2988 
L 1166 2988 
L 1863 2028 
z
" transform="scale(0.015625)"/>
      <path id="Cmmi10-72" d="M 494 109 
Q 494 147 500 166 
L 978 2075 
Q 1025 2253 1025 2388 
Q 1025 2663 838 2663 
Q 638 2663 541 2423 
Q 444 2184 353 1819 
Q 353 1800 334 1789 
Q 316 1778 300 1778 
L 225 1778 
Q 203 1778 187 1801 
Q 172 1825 172 1844 
Q 241 2122 305 2315 
Q 369 2509 505 2668 
Q 641 2828 844 2828 
Q 1066 2828 1233 2700 
Q 1400 2572 1441 2363 
Q 1603 2575 1811 2701 
Q 2019 2828 2266 2828 
Q 2469 2828 2623 2709 
Q 2778 2591 2778 2388 
Q 2778 2225 2676 2104 
Q 2575 1984 2406 1984 
Q 2303 1984 2233 2048 
Q 2163 2113 2163 2216 
Q 2163 2356 2266 2467 
Q 2369 2578 2503 2578 
Q 2400 2663 2253 2663 
Q 1978 2663 1775 2467 
Q 1572 2272 1409 1972 
L 953 141 
Q 931 53 854 -9 
Q 778 -72 684 -72 
Q 606 -72 550 -22 
Q 494 28 494 109 
z
" transform="scale(0.015625)"/>
      <path id="Cmr10-2b" d="M 481 1472 
Q 428 1472 393 1512 
Q 359 1553 359 1600 
Q 359 1647 393 1687 
Q 428 1728 481 1728 
L 2363 1728 
L 2363 3616 
Q 2363 3666 2400 3698 
Q 2438 3731 2491 3731 
Q 2538 3731 2578 3698 
Q 2619 3666 2619 3616 
L 2619 1728 
L 4500 1728 
Q 4547 1728 4581 1687 
Q 4616 1647 4616 1600 
Q 4616 1553 4581 1512 
Q 4547 1472 4500 1472 
L 2619 1472 
L 2619 -416 
Q 2619 -466 2578 -498 
Q 2538 -531 2491 -531 
Q 2438 -531 2400 -498 
Q 2363 -466 2363 -416 
L 2363 1472 
L 481 1472 
z
" transform="scale(0.015625)"/>
      <path id="Cmmi10-73" d="M 556 391 
Q 728 97 1247 97 
Q 1472 97 1675 173 
Q 1878 250 2011 403 
Q 2144 556 2144 775 
Q 2144 941 2025 1047 
Q 1906 1153 1734 1191 
L 1388 1259 
Q 1150 1319 997 1481 
Q 844 1644 844 1875 
Q 844 2159 998 2378 
Q 1153 2597 1406 2712 
Q 1659 2828 1931 2828 
Q 2222 2828 2451 2689 
Q 2681 2550 2681 2278 
Q 2681 2131 2598 2018 
Q 2516 1906 2369 1906 
Q 2284 1906 2223 1961 
Q 2163 2016 2163 2100 
Q 2163 2175 2205 2245 
Q 2247 2316 2317 2358 
Q 2388 2400 2463 2400 
Q 2406 2538 2251 2600 
Q 2097 2663 1919 2663 
Q 1756 2663 1593 2597 
Q 1431 2531 1332 2404 
Q 1234 2278 1234 2106 
Q 1234 1991 1315 1903 
Q 1397 1816 1516 1778 
L 1888 1703 
Q 2066 1666 2214 1570 
Q 2363 1475 2448 1329 
Q 2534 1184 2534 997 
Q 2534 759 2401 528 
Q 2269 297 2075 159 
Q 1734 -72 1241 -72 
Q 900 -72 615 84 
Q 331 241 331 550 
Q 331 725 432 854 
Q 534 984 709 984 
Q 813 984 883 921 
Q 953 859 953 756 
Q 953 609 843 500 
Q 734 391 588 391 
L 556 391 
z
" transform="scale(0.015625)"/>
      <path id="Cmmi10-bc" d="M 647 109 
Q 647 144 672 213 
Q 850 584 1004 942 
Q 1159 1300 1282 1639 
Q 1406 1978 1509 2363 
L 1100 2363 
Q 866 2363 662 2216 
Q 459 2069 325 1844 
Q 313 1819 288 1819 
L 213 1819 
Q 153 1819 153 1881 
Q 153 1894 166 1919 
Q 375 2275 614 2517 
Q 853 2759 1153 2759 
L 3475 2759 
Q 3541 2759 3587 2715 
Q 3634 2672 3634 2597 
Q 3634 2503 3567 2433 
Q 3500 2363 3406 2363 
L 2591 2363 
Q 2488 1859 2478 1381 
Q 2478 766 2694 269 
Q 2713 231 2713 191 
Q 2713 122 2672 62 
Q 2631 3 2567 -34 
Q 2503 -72 2431 -72 
Q 2263 -72 2200 203 
Q 2138 478 2138 738 
Q 2138 1103 2200 1442 
Q 2263 1781 2400 2363 
L 1703 2363 
Q 1197 313 1094 103 
Q 1003 -72 844 -72 
Q 766 -72 706 -20 
Q 647 31 647 109 
z
" transform="scale(0.015625)"/>
      <path id="DejaVuSerif-2c" d="M 231 -622 
Q 525 -406 662 -114 
Q 800 178 800 594 
L 800 709 
L 1416 709 
Q 1391 175 1164 -208 
Q 938 -591 481 -872 
L 231 -622 
z
" transform="scale(0.015625)"/>
     </defs>
     <use xlink:href="#DejaVuSerif-54" transform="translate(0 0.015625)"/>
     <use xlink:href="#DejaVuSerif-77" transform="translate(66.699219 0.015625)"/>
     <use xlink:href="#DejaVuSerif-6f" transform="translate(152.294922 0.015625)"/>
     <use xlink:href="#DejaVuSerif-20" transform="translate(212.5 0.015625)"/>
     <use xlink:href="#DejaVuSerif-72" transform="translate(244.287109 0.015625)"/>
     <use xlink:href="#DejaVuSerif-65" transform="translate(292.089844 0.015625)"/>
     <use xlink:href="#DejaVuSerif-61" transform="translate(351.269531 0.015625)"/>
     <use xlink:href="#DejaVuSerif-6c" transform="translate(410.888672 0.015625)"/>
     <use xlink:href="#DejaVuSerif-20" transform="translate(442.871094 0.015625)"/>
     <use xlink:href="#DejaVuSerif-6e" transform="translate(474.658203 0.015625)"/>
     <use xlink:href="#DejaVuSerif-75" transform="translate(539.0625 0.015625)"/>
     <use xlink:href="#DejaVuSerif-6d" transform="translate(603.466797 0.015625)"/>
     <use xlink:href="#DejaVuSerif-62" transform="translate(698.291016 0.015625)"/>
     <use xlink:href="#DejaVuSerif-65" transform="translate(762.304688 0.015625)"/>
     <use xlink:href="#DejaVuSerif-72" transform="translate(821.484375 0.015625)"/>
     <use xlink:href="#DejaVuSerif-73" transform="translate(869.287109 0.015625)"/>
     <use xlink:href="#DejaVuSerif-20" transform="translate(920.605469 0.015625)"/>
     <use xlink:href="#Cmmi10-78" transform="translate(952.392578 0.015625)"/>
     <use xlink:href="#DejaVuSerif-20" transform="translate(1009.472656 0.015625)"/>
     <use xlink:href="#DejaVuSerif-61" transform="translate(1041.259766 0.015625)"/>
     <use xlink:href="#DejaVuSerif-6e" transform="translate(1100.878906 0.015625)"/>
     <use xlink:href="#DejaVuSerif-64" transform="translate(1165.283203 0.015625)"/>
     <use xlink:href="#DejaVuSerif-20" transform="translate(1229.296875 0.015625)"/>
     <use xlink:href="#Cmmi10-79" transform="translate(1261.083984 0.015625)"/>
     <use xlink:href="#DejaVuSerif-20" transform="translate(1310.107422 0.015625)"/>
     <use xlink:href="#DejaVuSerif-61" transform="translate(1341.894531 0.015625)"/>
     <use xlink:href="#DejaVuSerif-72" transform="translate(1401.513672 0.015625)"/>
     <use xlink:href="#DejaVuSerif-65" transform="translate(1449.316406 0.015625)"/>
     <use xlink:href="#DejaVuSerif-20" transform="translate(1508.496094 0.015625)"/>
     <use xlink:href="#DejaVuSerif-63" transform="translate(1540.283203 0.015625)"/>
     <use xlink:href="#DejaVuSerif-68" transform="translate(1596.289062 0.015625)"/>
     <use xlink:href="#DejaVuSerif-6f" transform="translate(1660.693359 0.015625)"/>
     <use xlink:href="#DejaVuSerif-73" transform="translate(1720.898438 0.015625)"/>
     <use xlink:href="#DejaVuSerif-65" transform="translate(1772.216797 0.015625)"/>
     <use xlink:href="#DejaVuSerif-6e" transform="translate(1831.396484 0.015625)"/>
     <use xlink:href="#DejaVuSerif-20" transform="translate(1895.800781 0.015625)"/>
     <use xlink:href="#DejaVuSerif-61" transform="translate(1927.587891 0.015625)"/>
     <use xlink:href="#DejaVuSerif-74" transform="translate(1987.207031 0.015625)"/>
     <use xlink:href="#DejaVuSerif-20" transform="translate(2027.392578 0.015625)"/>
     <use xlink:href="#DejaVuSerif-72" transform="translate(2059.179688 0.015625)"/>
     <use xlink:href="#DejaVuSerif-61" transform="translate(2106.982422 0.015625)"/>
     <use xlink:href="#DejaVuSerif-6e" transform="translate(2166.601562 0.015625)"/>
     <use xlink:href="#DejaVuSerif-64" transform="translate(2231.005859 0.015625)"/>
     <use xlink:href="#DejaVuSerif-6f" transform="translate(2295.019531 0.015625)"/>
     <use xlink:href="#DejaVuSerif-6d" transform="translate(2355.224609 0.015625)"/>
     <use xlink:href="#DejaVuSerif-20" transform="translate(2450.048828 0.015625)"/>
     <use xlink:href="#DejaVuSerif-69" transform="translate(2481.835938 0.015625)"/>
     <use xlink:href="#DejaVuSerif-6e" transform="translate(2513.818359 0.015625)"/>
     <use xlink:href="#DejaVuSerif-20" transform="translate(2578.222656 0.015625)"/>
     <use xlink:href="#DejaVuSerif-74" transform="translate(2610.009766 0.015625)"/>
     <use xlink:href="#DejaVuSerif-68" transform="translate(2650.195312 0.015625)"/>
     <use xlink:href="#DejaVuSerif-65" transform="translate(2714.599609 0.015625)"/>
     <use xlink:href="#DejaVuSerif-20" transform="translate(2773.779297 0.015625)"/>
     <use xlink:href="#DejaVuSerif-69" transform="translate(2805.566406 0.015625)"/>
     <use xlink:href="#DejaVuSerif-6e" transform="translate(2837.548828 0.015625)"/>
     <use xlink:href="#DejaVuSerif-74" transform="translate(2901.953125 0.015625)"/>
     <use xlink:href="#DejaVuSerif-65" transform="translate(2942.138672 0.015625)"/>
     <use xlink:href="#DejaVuSerif-72" transform="translate(3001.318359 0.015625)"/>
     <use xlink:href="#DejaVuSerif-76" transform="translate(3049.121094 0.015625)"/>
     <use xlink:href="#DejaVuSerif-61" transform="translate(3105.615234 0.015625)"/>
     <use xlink:href="#DejaVuSerif-6c" transform="translate(3165.234375 0.015625)"/>
     <use xlink:href="#DejaVuSerif-20" transform="translate(3197.216797 0.015625)"/>
     <use xlink:href="#Cmr10-28" transform="translate(3229.003906 0.015625)"/>
     <use xlink:href="#Cmr10-30" transform="translate(3267.822266 0.015625)"/>
     <use xlink:href="#Cmmi10-3b" transform="translate(3317.822266 0.015625)"/>
     <use xlink:href="#Cmr10-31" transform="translate(3363.066406 0.015625)"/>
     <use xlink:href="#Cmr10-29" transform="translate(3413.066406 0.015625)"/>
     <use xlink:href="#DejaVuSerif-20" transform="translate(3451.884766 0.015625)"/>
     <use xlink:href="#DejaVuSerif-77" transform="translate(3483.671875 0.015625)"/>
     <use xlink:href="#DejaVuSerif-69" transform="translate(3569.267578 0.015625)"/>
     <use xlink:href="#DejaVuSerif-74" transform="translate(3601.25 0.015625)"/>
     <use xlink:href="#DejaVuSerif-68" transform="translate(3641.435547 0.015625)"/>
     <use xlink:href="#DejaVuSerif-20" transform="translate(3705.839844 0.015625)"/>
     <use xlink:href="#DejaVuSerif-72" transform="translate(3737.626953 0.015625)"/>
     <use xlink:href="#DejaVuSerif-65" transform="translate(3785.429688 0.015625)"/>
     <use xlink:href="#DejaVuSerif-73" transform="translate(3844.609375 0.015625)"/>
     <use xlink:href="#DejaVuSerif-70" transform="translate(3895.927734 0.015625)"/>
     <use xlink:href="#DejaVuSerif-65" transform="translate(3959.941406 0.015625)"/>
     <use xlink:href="#DejaVuSerif-63" transform="translate(4019.121094 0.015625)"/>
     <use xlink:href="#DejaVuSerif-74" transform="translate(4075.126953 0.015625)"/>
     <use xlink:href="#DejaVuSerif-20" transform="translate(4115.3125 0.015625)"/>
     <use xlink:href="#DejaVuSerif-74" transform="translate(4147.099609 0.015625)"/>
     <use xlink:href="#DejaVuSerif-6f" transform="translate(4187.285156 0.015625)"/>
     <use xlink:href="#DejaVuSerif-20" transform="translate(4247.490234 0.015625)"/>
     <use xlink:href="#DejaVuSerif-74" transform="translate(4279.277344 0.015625)"/>
     <use xlink:href="#DejaVuSerif-68" transform="translate(4319.462891 0.015625)"/>
     <use xlink:href="#DejaVuSerif-65" transform="translate(4383.867188 0.015625)"/>
     <use xlink:href="#DejaVuSerif-20" transform="translate(4443.046875 0.015625)"/>
     <use xlink:href="#DejaVuSerif-75" transform="translate(4474.833984 0.015625)"/>
     <use xlink:href="#DejaVuSerif-6e" transform="translate(4539.238281 0.015625)"/>
     <use xlink:href="#DejaVuSerif-69" transform="translate(4603.642578 0.015625)"/>
     <use xlink:href="#DejaVuSerif-66" transform="translate(4635.625 0.015625)"/>
     <use xlink:href="#DejaVuSerif-6f" transform="translate(4672.636719 0.015625)"/>
     <use xlink:href="#DejaVuSerif-72" transform="translate(4732.841797 0.015625)"/>
     <use xlink:href="#DejaVuSerif-6d" transform="translate(4780.644531 0.015625)"/>
     <use xlink:href="#DejaVuSerif-20" transform="translate(4875.46875 0.015625)"/>
     <use xlink:href="#DejaVuSerif-64" transform="translate(4907.255859 0.015625)"/>
     <use xlink:href="#DejaVuSerif-69" transform="translate(4971.269531 0.015625)"/>
     <use xlink:href="#DejaVuSerif-73" transform="translate(5003.251953 0.015625)"/>
     <use xlink:href="#DejaVuSerif-74" transform="translate(5054.570312 0.015625)"/>
     <use xlink:href="#DejaVuSerif-72" transform="translate(5094.755859 0.015625)"/>
     <use xlink:href="#DejaVuSerif-69" transform="translate(5142.558594 0.015625)"/>
     <use xlink:href="#DejaVuSerif-62" transform="translate(5174.541016 0.015625)"/>
     <use xlink:href="#DejaVuSerif-75" transform="translate(5238.554688 0.015625)"/>
     <use xlink:href="#DejaVuSerif-74" transform="translate(5302.958984 0.015625)"/>
     <use xlink:href="#DejaVuSerif-69" transform="translate(5343.144531 0.015625)"/>
     <use xlink:href="#DejaVuSerif-6f" transform="translate(5375.126953 0.015625)"/>
     <use xlink:href="#DejaVuSerif-6e" transform="translate(5435.332031 0.015625)"/>
     <use xlink:href="#DejaVuSerif-2e" transform="translate(5499.736328 0.015625)"/>
     <use xlink:href="#DejaVuSerif-20" transform="translate(5531.523438 0.015625)"/>
     <use xlink:href="#DejaVuSerif-57" transform="translate(5563.310547 0.015625)"/>
     <use xlink:href="#DejaVuSerif-68" transform="translate(5666.09375 0.015625)"/>
     <use xlink:href="#DejaVuSerif-61" transform="translate(5730.498047 0.015625)"/>
     <use xlink:href="#DejaVuSerif-74" transform="translate(5790.117188 0.015625)"/>
     <use xlink:href="#DejaVuSerif-20" transform="translate(5830.302734 0.015625)"/>
     <use xlink:href="#DejaVuSerif-69" transform="translate(5862.089844 0.015625)"/>
     <use xlink:href="#DejaVuSerif-73" transform="translate(5894.072266 0.015625)"/>
     <use xlink:href="#DejaVuSerif-20" transform="translate(5945.390625 0.015625)"/>
     <use xlink:href="#DejaVuSerif-74" transform="translate(5977.177734 0.015625)"/>
     <use xlink:href="#DejaVuSerif-68" transform="translate(6017.363281 0.015625)"/>
     <use xlink:href="#DejaVuSerif-65" transform="translate(6081.767578 0.015625)"/>
     <use xlink:href="#DejaVuSerif-20" transform="translate(6140.947266 0.015625)"/>
     <use xlink:href="#DejaVuSerif-70" transform="translate(6172.734375 0.015625)"/>
     <use xlink:href="#DejaVuSerif-72" transform="translate(6236.748047 0.015625)"/>
     <use xlink:href="#DejaVuSerif-6f" transform="translate(6284.550781 0.015625)"/>
     <use xlink:href="#DejaVuSerif-62" transform="translate(6344.755859 0.015625)"/>
     <use xlink:href="#DejaVuSerif-61" transform="translate(6408.769531 0.015625)"/>
     <use xlink:href="#DejaVuSerif-62" transform="translate(6468.388672 0.015625)"/>
     <use xlink:href="#DejaVuSerif-69" transform="translate(6532.402344 0.015625)"/>
     <use xlink:href="#DejaVuSerif-6c" transform="translate(6564.384766 0.015625)"/>
     <use xlink:href="#DejaVuSerif-69" transform="translate(6596.367188 0.015625)"/>
     <use xlink:href="#DejaVuSerif-74" transform="translate(6628.349609 0.015625)"/>
     <use xlink:href="#DejaVuSerif-79" transform="translate(6668.535156 0.015625)"/>
     <use xlink:href="#DejaVuSerif-20" transform="translate(6725.029297 0.015625)"/>
     <use xlink:href="#DejaVuSerif-74" transform="translate(6756.816406 0.015625)"/>
     <use xlink:href="#DejaVuSerif-68" transform="translate(6797.001953 0.015625)"/>
     <use xlink:href="#DejaVuSerif-61" transform="translate(6861.40625 0.015625)"/>
     <use xlink:href="#DejaVuSerif-74" transform="translate(6921.025391 0.015625)"/>
     <use xlink:href="#DejaVuSerif-20" transform="translate(6961.210938 0.015625)"/>
     <use xlink:href="#DejaVuSerif-74" transform="translate(6992.998047 0.015625)"/>
     <use xlink:href="#DejaVuSerif-68" transform="translate(7033.183594 0.015625)"/>
     <use xlink:href="#DejaVuSerif-65" transform="translate(7097.587891 0.015625)"/>
     <use xlink:href="#DejaVuSerif-20" transform="translate(7156.767578 0.015625)"/>
     <use xlink:href="#DejaVuSerif-63" transform="translate(7188.554688 0.015625)"/>
     <use xlink:href="#DejaVuSerif-6c" transform="translate(7244.560547 0.015625)"/>
     <use xlink:href="#DejaVuSerif-6f" transform="translate(7276.542969 0.015625)"/>
     <use xlink:href="#DejaVuSerif-73" transform="translate(7336.748047 0.015625)"/>
     <use xlink:href="#DejaVuSerif-65" transform="translate(7388.066406 0.015625)"/>
     <use xlink:href="#DejaVuSerif-73" transform="translate(7447.246094 0.015625)"/>
     <use xlink:href="#DejaVuSerif-74" transform="translate(7498.564453 0.015625)"/>
     <use xlink:href="#DejaVuSerif-20" transform="translate(7538.75 0.015625)"/>
     <use xlink:href="#DejaVuSerif-69" transform="translate(7570.537109 0.015625)"/>
     <use xlink:href="#DejaVuSerif-6e" transform="translate(7602.519531 0.015625)"/>
     <use xlink:href="#DejaVuSerif-74" transform="translate(7666.923828 0.015625)"/>
     <use xlink:href="#DejaVuSerif-65" transform="translate(7707.109375 0.015625)"/>
     <use xlink:href="#DejaVuSerif-67" transform="translate(7766.289062 0.015625)"/>
     <use xlink:href="#DejaVuSerif-65" transform="translate(7830.302734 0.015625)"/>
     <use xlink:href="#DejaVuSerif-72" transform="translate(7889.482422 0.015625)"/>
     <use xlink:href="#DejaVuSerif-20" transform="translate(7937.285156 0.015625)"/>
     <use xlink:href="#DejaVuSerif-74" transform="translate(7969.072266 0.015625)"/>
     <use xlink:href="#DejaVuSerif-6f" transform="translate(8009.257812 0.015625)"/>
     <use xlink:href="#DejaVuSerif-20" transform="translate(8069.462891 0.015625)"/>
     <use xlink:href="#Cmmi10-78" transform="translate(8101.25 0.015625)"/>
     <use xlink:href="#Cmmi10-3d" transform="translate(8158.330078 0.015625)"/>
     <use xlink:href="#Cmmi10-79" transform="translate(8208.330078 0.015625)"/>
     <use xlink:href="#DejaVuSerif-20" transform="translate(8257.353516 0.015625)"/>
     <use xlink:href="#DejaVuSerif-69" transform="translate(8289.140625 0.015625)"/>
     <use xlink:href="#DejaVuSerif-73" transform="translate(8321.123047 0.015625)"/>
     <use xlink:href="#DejaVuSerif-20" transform="translate(8372.441406 0.015625)"/>
     <use xlink:href="#DejaVuSerif-65" transform="translate(8404.228516 0.015625)"/>
     <use xlink:href="#DejaVuSerif-76" transform="translate(8463.408203 0.015625)"/>
     <use xlink:href="#DejaVuSerif-65" transform="translate(8519.902344 0.015625)"/>
     <use xlink:href="#DejaVuSerif-6e" transform="translate(8579.082031 0.015625)"/>
     <use xlink:href="#DejaVuSerif-3f" transform="translate(8643.486328 0.015625)"/>
     <use xlink:href="#DejaVuSerif-20" transform="translate(8697.099609 0.015625)"/>
     <use xlink:href="#DejaVuSerif-45" transform="translate(8728.886719 0.015625)"/>
     <use xlink:href="#DejaVuSerif-78" transform="translate(8801.884766 0.015625)"/>
     <use xlink:href="#DejaVuSerif-70" transform="translate(8858.28125 0.015625)"/>
     <use xlink:href="#DejaVuSerif-72" transform="translate(8922.294922 0.015625)"/>
     <use xlink:href="#DejaVuSerif-65" transform="translate(8970.097656 0.015625)"/>
     <use xlink:href="#DejaVuSerif-73" transform="translate(9029.277344 0.015625)"/>
     <use xlink:href="#DejaVuSerif-73" transform="translate(9080.595703 0.015625)"/>
     <use xlink:href="#DejaVuSerif-20" transform="translate(9131.914062 0.015625)"/>
     <use xlink:href="#DejaVuSerif-74" transform="translate(9163.701172 0.015625)"/>
     <use xlink:href="#DejaVuSerif-68" transform="translate(9203.886719 0.015625)"/>
     <use xlink:href="#DejaVuSerif-65" transform="translate(9268.291016 0.015625)"/>
     <use xlink:href="#DejaVuSerif-20" transform="translate(9327.470703 0.015625)"/>
     <use xlink:href="#DejaVuSerif-61" transform="translate(9359.257812 0.015625)"/>
     <use xlink:href="#DejaVuSerif-6e" transform="translate(9418.876953 0.015625)"/>
     <use xlink:href="#DejaVuSerif-73" transform="translate(9483.28125 0.015625)"/>
     <use xlink:href="#DejaVuSerif-77" transform="translate(9534.599609 0.015625)"/>
     <use xlink:href="#DejaVuSerif-65" transform="translate(9620.195312 0.015625)"/>
     <use xlink:href="#DejaVuSerif-72" transform="translate(9679.375 0.015625)"/>
     <use xlink:href="#DejaVuSerif-20" transform="translate(9727.177734 0.015625)"/>
     <use xlink:href="#DejaVuSerif-69" transform="translate(9758.964844 0.015625)"/>
     <use xlink:href="#DejaVuSerif-6e" transform="translate(9790.947266 0.015625)"/>
     <use xlink:href="#DejaVuSerif-20" transform="translate(9855.351562 0.015625)"/>
     <use xlink:href="#DejaVuSerif-74" transform="translate(9887.138672 0.015625)"/>
     <use xlink:href="#DejaVuSerif-68" transform="translate(9927.324219 0.015625)"/>
     <use xlink:href="#DejaVuSerif-65" transform="translate(9991.728516 0.015625)"/>
     <use xlink:href="#DejaVuSerif-20" transform="translate(10050.908203 0.015625)"/>
     <use xlink:href="#DejaVuSerif-66" transform="translate(10082.695312 0.015625)"/>
     <use xlink:href="#DejaVuSerif-6f" transform="translate(10119.707031 0.015625)"/>
     <use xlink:href="#DejaVuSerif-72" transform="translate(10179.912109 0.015625)"/>
     <use xlink:href="#DejaVuSerif-6d" transform="translate(10227.714844 0.015625)"/>
     <use xlink:href="#DejaVuSerif-20" transform="translate(10322.539062 0.015625)"/>
     <use xlink:href="#Cmmi10-72" transform="translate(10354.326172 0.015625)"/>
     <use xlink:href="#Cmr10-2b" transform="translate(10417.001953 0.015625)"/>
     <use xlink:href="#Cmmi10-73" transform="translate(10512.246094 0.015625)"/>
     <use xlink:href="#Cmmi10-bc" transform="translate(10559.023438 0.015625)"/>
     <use xlink:href="#DejaVuSerif-2c" transform="translate(10616.005859 0.015625)"/>
     <use xlink:href="#DejaVuSerif-20" transform="translate(10647.792969 0.015625)"/>
     <use xlink:href="#DejaVuSerif-77" transform="translate(10679.580078 0.015625)"/>
     <use xlink:href="#DejaVuSerif-68" transform="translate(10765.175781 0.015625)"/>
     <use xlink:href="#DejaVuSerif-65" transform="translate(10829.580078 0.015625)"/>
     <use xlink:href="#DejaVuSerif-72" transform="translate(10888.759766 0.015625)"/>
     <use xlink:href="#DejaVuSerif-65" transform="translate(10936.5625 0.015625)"/>
     <use xlink:href="#DejaVuSerif-20" transform="translate(10995.742188 0.015625)"/>
     <use xlink:href="#Cmmi10-72" transform="translate(11027.529297 0.015625)"/>
     <use xlink:href="#DejaVuSerif-20" transform="translate(11072.646484 0.015625)"/>
     <use xlink:href="#DejaVuSerif-61" transform="translate(11104.433594 0.015625)"/>
     <use xlink:href="#DejaVuSerif-6e" transform="translate(11164.052734 0.015625)"/>
     <use xlink:href="#DejaVuSerif-64" transform="translate(11228.457031 0.015625)"/>
     <use xlink:href="#DejaVuSerif-20" transform="translate(11292.470703 0.015625)"/>
     <use xlink:href="#Cmmi10-73" transform="translate(11324.257812 0.015625)"/>
     <use xlink:href="#DejaVuSerif-20" transform="translate(11371.035156 0.015625)"/>
     <use xlink:href="#DejaVuSerif-61" transform="translate(11402.822266 0.015625)"/>
     <use xlink:href="#DejaVuSerif-72" transform="translate(11462.441406 0.015625)"/>
     <use xlink:href="#DejaVuSerif-65" transform="translate(11510.244141 0.015625)"/>
     <use xlink:href="#DejaVuSerif-20" transform="translate(11569.423828 0.015625)"/>
     <use xlink:href="#DejaVuSerif-72" transform="translate(11601.210938 0.015625)"/>
     <use xlink:href="#DejaVuSerif-61" transform="translate(11649.013672 0.015625)"/>
     <use xlink:href="#DejaVuSerif-74" transform="translate(11708.632812 0.015625)"/>
     <use xlink:href="#DejaVuSerif-69" transform="translate(11748.818359 0.015625)"/>
     <use xlink:href="#DejaVuSerif-6f" transform="translate(11780.800781 0.015625)"/>
     <use xlink:href="#DejaVuSerif-6e" transform="translate(11841.005859 0.015625)"/>
     <use xlink:href="#DejaVuSerif-61" transform="translate(11905.410156 0.015625)"/>
     <use xlink:href="#DejaVuSerif-6c" transform="translate(11965.029297 0.015625)"/>
     <use xlink:href="#DejaVuSerif-20" transform="translate(11997.011719 0.015625)"/>
     <use xlink:href="#DejaVuSerif-6e" transform="translate(12028.798828 0.015625)"/>
     <use xlink:href="#DejaVuSerif-75" transform="translate(12093.203125 0.015625)"/>
     <use xlink:href="#DejaVuSerif-6d" transform="translate(12157.607422 0.015625)"/>
     <use xlink:href="#DejaVuSerif-62" transform="translate(12252.431641 0.015625)"/>
     <use xlink:href="#DejaVuSerif-65" transform="translate(12316.445312 0.015625)"/>
     <use xlink:href="#DejaVuSerif-72" transform="translate(12375.625 0.015625)"/>
     <use xlink:href="#DejaVuSerif-73" transform="translate(12423.427734 0.015625)"/>
     <use xlink:href="#DejaVuSerif-2e" transform="translate(12474.746094 0.015625)"/>
    </g>
   </g>
  </g>
 </g>
</svg>
