<?xml version="1.0" encoding="utf-8" standalone="no"?>
<!DOCTYPE svg PUBLIC "-//W3C//DTD SVG 1.1//EN"
  "http://www.w3.org/Graphics/SVG/1.1/DTD/svg11.dtd">
<svg xmlns:xlink="http://www.w3.org/1999/xlink" width="548.4pt" height="228.4pt" viewBox="0 0 548.4 228.4" xmlns="http://www.w3.org/2000/svg" version="1.1">
 <metadata>
  <rdf:RDF xmlns:dc="http://purl.org/dc/elements/1.1/" xmlns:cc="http://creativecommons.org/ns#" xmlns:rdf="http://www.w3.org/1999/02/22-rdf-syntax-ns#">
   <cc:Work>
    <dc:type rdf:resource="http://purl.org/dc/dcmitype/StillImage"/>
    <dc:date>2025-05-29T18:44:05.791409</dc:date>
    <dc:format>image/svg+xml</dc:format>
    <dc:creator>
     <cc:Agent>
      <dc:title>Matplotlib v3.10.3, https://matplotlib.org/</dc:title>
     </cc:Agent>
    </dc:creator>
   </cc:Work>
  </rdf:RDF>
 </metadata>
 <defs>
  <style type="text/css">*{stroke-linejoin: round; stroke-linecap: butt}</style>
 </defs>
 <g id="figure_1">
  <g id="patch_1">
   <path d="M 0 228.4 
L 548.4 228.4 
L 548.4 0 
L 0 0 
z
" style="fill: #ffffff"/>
  </g>
  <g id="axes_1">
   <g id="text_1">
    <!-- For any positive integer $n$, let $\langle n \rangle$ denote the closest integer to $\sqrt{n}$. Evaluate $\sum_{n=1}^\infty \frac{2^{\langle n \rangle}+2^{-\langle n \rangle}}{2^n}$. -->
    <g transform="translate(7.2 117.26) scale(0.12 -0.12)">
     <defs>
      <path id="DejaVuSerif-46" d="M 353 0 
L 353 331 
L 947 331 
L 947 4331 
L 353 4331 
L 353 4666 
L 4172 4666 
L 4172 3628 
L 3788 3628 
L 3788 4281 
L 1581 4281 
L 1581 2719 
L 3175 2719 
L 3175 3303 
L 3559 3303 
L 3559 1753 
L 3175 1753 
L 3175 2338 
L 1581 2338 
L 1581 331 
L 2328 331 
L 2328 0 
L 353 0 
z
" transform="scale(0.015625)"/>
      <path id="DejaVuSerif-6f" d="M 1925 219 
Q 2388 219 2623 584 
Q 2859 950 2859 1663 
Q 2859 2375 2623 2739 
Q 2388 3103 1925 3103 
Q 1463 3103 1227 2739 
Q 991 2375 991 1663 
Q 991 950 1228 584 
Q 1466 219 1925 219 
z
M 1925 -91 
Q 1200 -91 759 389 
Q 319 869 319 1663 
Q 319 2456 758 2934 
Q 1197 3413 1925 3413 
Q 2653 3413 3092 2934 
Q 3531 2456 3531 1663 
Q 3531 869 3092 389 
Q 2653 -91 1925 -91 
z
" transform="scale(0.015625)"/>
      <path id="DejaVuSerif-72" d="M 3059 3328 
L 3059 2497 
L 2728 2497 
Q 2713 2744 2591 2866 
Q 2469 2988 2234 2988 
Q 1809 2988 1582 2694 
Q 1356 2400 1356 1850 
L 1356 331 
L 2022 331 
L 2022 0 
L 263 0 
L 263 331 
L 781 331 
L 781 2994 
L 231 2994 
L 231 3322 
L 1356 3322 
L 1356 2731 
Q 1525 3078 1790 3245 
Q 2056 3413 2438 3413 
Q 2578 3413 2733 3391 
Q 2888 3369 3059 3328 
z
" transform="scale(0.015625)"/>
      <path id="DejaVuSerif-20" transform="scale(0.015625)"/>
      <path id="DejaVuSerif-61" d="M 2547 1044 
L 2547 1747 
L 1806 1747 
Q 1378 1747 1168 1562 
Q 959 1378 959 997 
Q 959 650 1171 447 
Q 1384 244 1747 244 
Q 2106 244 2326 466 
Q 2547 688 2547 1044 
z
M 3122 2075 
L 3122 331 
L 3634 331 
L 3634 0 
L 2547 0 
L 2547 359 
Q 2356 128 2106 18 
Q 1856 -91 1522 -91 
Q 969 -91 644 203 
Q 319 497 319 997 
Q 319 1513 691 1797 
Q 1063 2081 1741 2081 
L 2547 2081 
L 2547 2309 
Q 2547 2688 2317 2895 
Q 2088 3103 1672 3103 
Q 1328 3103 1125 2947 
Q 922 2791 872 2484 
L 575 2484 
L 575 3156 
Q 875 3284 1158 3348 
Q 1441 3413 1709 3413 
Q 2400 3413 2761 3070 
Q 3122 2728 3122 2075 
z
" transform="scale(0.015625)"/>
      <path id="DejaVuSerif-6e" d="M 263 0 
L 263 331 
L 781 331 
L 781 2988 
L 231 2988 
L 231 3322 
L 1356 3322 
L 1356 2731 
Q 1516 3069 1770 3241 
Q 2025 3413 2363 3413 
Q 2913 3413 3172 3097 
Q 3431 2781 3431 2113 
L 3431 331 
L 3944 331 
L 3944 0 
L 2356 0 
L 2356 331 
L 2853 331 
L 2853 1931 
Q 2853 2541 2703 2767 
Q 2553 2994 2175 2994 
Q 1775 2994 1565 2701 
Q 1356 2409 1356 1850 
L 1356 331 
L 1856 331 
L 1856 0 
L 263 0 
z
" transform="scale(0.015625)"/>
      <path id="DejaVuSerif-79" d="M 1381 -609 
L 1600 -56 
L 359 2988 
L -19 2988 
L -19 3322 
L 1509 3322 
L 1509 2988 
L 978 2988 
L 1913 703 
L 2847 2988 
L 2350 2988 
L 2350 3322 
L 3597 3322 
L 3597 2988 
L 3225 2988 
L 1703 -750 
Q 1547 -1138 1356 -1280 
Q 1166 -1422 819 -1422 
Q 672 -1422 517 -1397 
Q 363 -1372 206 -1325 
L 206 -691 
L 500 -691 
Q 519 -903 608 -995 
Q 697 -1088 884 -1088 
Q 1056 -1088 1161 -992 
Q 1266 -897 1381 -609 
z
" transform="scale(0.015625)"/>
      <path id="DejaVuSerif-70" d="M 1313 1825 
L 1313 1497 
Q 1313 897 1542 583 
Q 1772 269 2209 269 
Q 2650 269 2876 622 
Q 3103 975 3103 1663 
Q 3103 2353 2876 2703 
Q 2650 3053 2209 3053 
Q 1772 3053 1542 2737 
Q 1313 2422 1313 1825 
z
M 738 2988 
L 184 2988 
L 184 3322 
L 1313 3322 
L 1313 2803 
Q 1481 3116 1742 3264 
Q 2003 3413 2388 3413 
Q 3000 3413 3387 2928 
Q 3775 2444 3775 1663 
Q 3775 881 3387 395 
Q 3000 -91 2388 -91 
Q 2003 -91 1742 57 
Q 1481 206 1313 519 
L 1313 -997 
L 1856 -997 
L 1856 -1331 
L 184 -1331 
L 184 -997 
L 738 -997 
L 738 2988 
z
" transform="scale(0.015625)"/>
      <path id="DejaVuSerif-73" d="M 359 184 
L 359 959 
L 691 959 
Q 703 588 923 403 
Q 1144 219 1575 219 
Q 1963 219 2166 364 
Q 2369 509 2369 788 
Q 2369 1006 2220 1140 
Q 2072 1275 1594 1428 
L 1178 1569 
Q 750 1706 558 1912 
Q 366 2119 366 2438 
Q 366 2894 700 3153 
Q 1034 3413 1625 3413 
Q 1888 3413 2178 3344 
Q 2469 3275 2778 3144 
L 2778 2419 
L 2447 2419 
Q 2434 2741 2221 2922 
Q 2009 3103 1644 3103 
Q 1281 3103 1095 2975 
Q 909 2847 909 2591 
Q 909 2381 1050 2254 
Q 1191 2128 1613 1997 
L 2069 1856 
Q 2541 1709 2748 1489 
Q 2956 1269 2956 922 
Q 2956 450 2595 179 
Q 2234 -91 1600 -91 
Q 1278 -91 972 -22 
Q 666 47 359 184 
z
" transform="scale(0.015625)"/>
      <path id="DejaVuSerif-69" d="M 622 4353 
Q 622 4497 726 4603 
Q 831 4709 978 4709 
Q 1122 4709 1226 4603 
Q 1331 4497 1331 4353 
Q 1331 4206 1228 4103 
Q 1125 4000 978 4000 
Q 831 4000 726 4103 
Q 622 4206 622 4353 
z
M 1356 331 
L 1900 331 
L 1900 0 
L 231 0 
L 231 331 
L 781 331 
L 781 2988 
L 231 2988 
L 231 3322 
L 1356 3322 
L 1356 331 
z
" transform="scale(0.015625)"/>
      <path id="DejaVuSerif-74" d="M 691 2988 
L 184 2988 
L 184 3322 
L 691 3322 
L 691 4353 
L 1269 4353 
L 1269 3322 
L 2350 3322 
L 2350 2988 
L 1269 2988 
L 1269 878 
Q 1269 456 1350 337 
Q 1431 219 1650 219 
Q 1875 219 1978 351 
Q 2081 484 2088 781 
L 2522 781 
Q 2497 328 2275 118 
Q 2053 -91 1600 -91 
Q 1103 -91 897 129 
Q 691 350 691 878 
L 691 2988 
z
" transform="scale(0.015625)"/>
      <path id="DejaVuSerif-76" d="M 1581 0 
L 359 2988 
L -19 2988 
L -19 3322 
L 1509 3322 
L 1509 2988 
L 978 2988 
L 1913 703 
L 2847 2988 
L 2350 2988 
L 2350 3322 
L 3597 3322 
L 3597 2988 
L 3225 2988 
L 2003 0 
L 1581 0 
z
" transform="scale(0.015625)"/>
      <path id="DejaVuSerif-65" d="M 3469 1600 
L 991 1600 
L 991 1575 
Q 991 903 1244 561 
Q 1497 219 1991 219 
Q 2369 219 2611 417 
Q 2853 616 2950 1006 
L 3413 1006 
Q 3275 459 2904 184 
Q 2534 -91 1931 -91 
Q 1203 -91 761 389 
Q 319 869 319 1663 
Q 319 2450 753 2931 
Q 1188 3413 1894 3413 
Q 2647 3413 3050 2948 
Q 3453 2484 3469 1600 
z
M 2791 1931 
Q 2772 2513 2545 2808 
Q 2319 3103 1894 3103 
Q 1497 3103 1269 2806 
Q 1041 2509 991 1931 
L 2791 1931 
z
" transform="scale(0.015625)"/>
      <path id="DejaVuSerif-67" d="M 3359 2988 
L 3359 72 
Q 3359 -644 2965 -1033 
Q 2572 -1422 1844 -1422 
Q 1516 -1422 1216 -1362 
Q 916 -1303 641 -1184 
L 641 -488 
L 941 -488 
Q 997 -813 1206 -963 
Q 1416 -1113 1806 -1113 
Q 2313 -1113 2548 -827 
Q 2784 -541 2784 72 
L 2784 519 
Q 2616 206 2355 57 
Q 2094 -91 1709 -91 
Q 1097 -91 708 395 
Q 319 881 319 1663 
Q 319 2444 706 2928 
Q 1094 3413 1709 3413 
Q 2094 3413 2355 3264 
Q 2616 3116 2784 2803 
L 2784 3322 
L 3909 3322 
L 3909 2988 
L 3359 2988 
z
M 2784 1825 
Q 2784 2422 2554 2737 
Q 2325 3053 1888 3053 
Q 1444 3053 1217 2703 
Q 991 2353 991 1663 
Q 991 975 1217 622 
Q 1444 269 1888 269 
Q 2325 269 2554 583 
Q 2784 897 2784 1497 
L 2784 1825 
z
" transform="scale(0.015625)"/>
      <path id="Cmmi10-6e" d="M 494 109 
Q 494 147 500 166 
L 978 2075 
Q 1025 2253 1025 2388 
Q 1025 2663 838 2663 
Q 638 2663 541 2423 
Q 444 2184 353 1819 
Q 353 1800 334 1789 
Q 316 1778 300 1778 
L 225 1778 
Q 203 1778 187 1801 
Q 172 1825 172 1844 
Q 241 2122 305 2315 
Q 369 2509 505 2668 
Q 641 2828 844 2828 
Q 1084 2828 1268 2676 
Q 1453 2525 1453 2291 
Q 1644 2541 1900 2684 
Q 2156 2828 2444 2828 
Q 2672 2828 2837 2750 
Q 3003 2672 3095 2514 
Q 3188 2356 3188 2138 
Q 3188 1875 3070 1503 
Q 2953 1131 2778 672 
Q 2688 463 2688 288 
Q 2688 97 2834 97 
Q 3084 97 3251 365 
Q 3419 634 3488 941 
Q 3500 978 3541 978 
L 3616 978 
Q 3641 978 3658 962 
Q 3675 947 3675 922 
Q 3675 916 3669 903 
Q 3581 541 3364 234 
Q 3147 -72 2822 -72 
Q 2597 -72 2437 83 
Q 2278 238 2278 459 
Q 2278 578 2328 709 
Q 2409 919 2514 1209 
Q 2619 1500 2686 1765 
Q 2753 2031 2753 2234 
Q 2753 2413 2679 2538 
Q 2606 2663 2431 2663 
Q 2197 2663 2000 2559 
Q 1803 2456 1656 2286 
Q 1509 2116 1388 1881 
L 953 141 
Q 931 53 854 -9 
Q 778 -72 684 -72 
Q 606 -72 550 -22 
Q 494 28 494 109 
z
" transform="scale(0.015625)"/>
      <path id="DejaVuSerif-2c" d="M 231 -622 
Q 525 -406 662 -114 
Q 800 178 800 594 
L 800 709 
L 1416 709 
Q 1391 175 1164 -208 
Q 938 -591 481 -872 
L 231 -622 
z
" transform="scale(0.015625)"/>
      <path id="DejaVuSerif-6c" d="M 1313 331 
L 1856 331 
L 1856 0 
L 184 0 
L 184 331 
L 738 331 
L 738 4531 
L 184 4531 
L 184 4863 
L 1313 4863 
L 1313 331 
z
" transform="scale(0.015625)"/>
      <path id="Cmex10-ad" d="M 2272 -7347 
L 641 -3634 
Q 628 -3616 628 -3584 
Q 628 -3553 641 -3541 
L 2272 178 
Q 2303 256 2388 256 
Q 2434 256 2475 215 
Q 2516 175 2516 128 
Q 2516 97 2509 84 
L 897 -3584 
L 2509 -7250 
Q 2516 -7263 2516 -7297 
Q 2516 -7344 2475 -7384 
Q 2434 -7425 2388 -7425 
Q 2306 -7425 2272 -7347 
z
" transform="scale(0.015625)"/>
      <path id="Cmex10-ae" d="M 500 -7297 
Q 500 -7263 513 -7250 
L 2119 -3584 
L 513 84 
Q 500 97 500 128 
Q 500 175 537 215 
Q 575 256 628 256 
Q 703 256 750 178 
L 2381 -3541 
Q 2388 -3553 2388 -3584 
Q 2388 -3616 2381 -3634 
L 750 -7347 
Q 700 -7425 628 -7425 
Q 575 -7425 537 -7384 
Q 500 -7344 500 -7297 
z
" transform="scale(0.015625)"/>
      <path id="DejaVuSerif-64" d="M 3359 331 
L 3909 331 
L 3909 0 
L 2784 0 
L 2784 519 
Q 2616 206 2355 57 
Q 2094 -91 1709 -91 
Q 1097 -91 708 395 
Q 319 881 319 1663 
Q 319 2444 706 2928 
Q 1094 3413 1709 3413 
Q 2094 3413 2355 3264 
Q 2616 3116 2784 2803 
L 2784 4531 
L 2241 4531 
L 2241 4863 
L 3359 4863 
L 3359 331 
z
M 2784 1497 
L 2784 1825 
Q 2784 2422 2554 2737 
Q 2325 3053 1888 3053 
Q 1444 3053 1217 2703 
Q 991 2353 991 1663 
Q 991 975 1217 622 
Q 1444 269 1888 269 
Q 2325 269 2554 583 
Q 2784 897 2784 1497 
z
" transform="scale(0.015625)"/>
      <path id="DejaVuSerif-68" d="M 263 0 
L 263 331 
L 781 331 
L 781 4531 
L 231 4531 
L 231 4863 
L 1356 4863 
L 1356 2731 
Q 1516 3069 1770 3241 
Q 2025 3413 2363 3413 
Q 2913 3413 3172 3097 
Q 3431 2781 3431 2113 
L 3431 331 
L 3944 331 
L 3944 0 
L 2356 0 
L 2356 331 
L 2853 331 
L 2853 1931 
Q 2853 2541 2704 2764 
Q 2556 2988 2175 2988 
Q 1775 2988 1565 2697 
Q 1356 2406 1356 1850 
L 1356 331 
L 1856 331 
L 1856 0 
L 263 0 
z
" transform="scale(0.015625)"/>
      <path id="DejaVuSerif-63" d="M 3291 997 
Q 3169 466 2822 187 
Q 2475 -91 1925 -91 
Q 1200 -91 759 389 
Q 319 869 319 1663 
Q 319 2459 759 2936 
Q 1200 3413 1925 3413 
Q 2241 3413 2553 3339 
Q 2866 3266 3181 3116 
L 3181 2266 
L 2847 2266 
Q 2781 2703 2561 2903 
Q 2341 3103 1931 3103 
Q 1466 3103 1228 2742 
Q 991 2381 991 1663 
Q 991 944 1227 581 
Q 1463 219 1931 219 
Q 2303 219 2525 412 
Q 2747 606 2828 997 
L 3291 997 
z
" transform="scale(0.015625)"/>
      <path id="Cmex10-70" d="M 2713 -7425 
L 1269 -4063 
L 819 -4409 
L 703 -4294 
L 1619 -3584 
L 2969 -6725 
L 6291 197 
Q 6322 256 6400 256 
Q 6453 256 6490 218 
Q 6528 181 6528 128 
Q 6528 97 6522 84 
L 2950 -7366 
Q 2925 -7425 2853 -7425 
L 2713 -7425 
z
" transform="scale(0.015625)"/>
      <path id="DejaVuSerif-2e" d="M 603 325 
Q 603 500 722 622 
Q 841 744 1019 744 
Q 1191 744 1312 622 
Q 1434 500 1434 325 
Q 1434 153 1312 31 
Q 1191 -91 1019 -91 
Q 841 -91 722 29 
Q 603 150 603 325 
z
" transform="scale(0.015625)"/>
      <path id="DejaVuSerif-45" d="M 353 0 
L 353 331 
L 947 331 
L 947 4331 
L 353 4331 
L 353 4666 
L 4109 4666 
L 4109 3628 
L 3725 3628 
L 3725 4281 
L 1581 4281 
L 1581 2719 
L 3109 2719 
L 3109 3303 
L 3494 3303 
L 3494 1753 
L 3109 1753 
L 3109 2338 
L 1581 2338 
L 1581 384 
L 3775 384 
L 3775 1038 
L 4159 1038 
L 4159 0 
L 353 0 
z
" transform="scale(0.015625)"/>
      <path id="DejaVuSerif-75" d="M 2266 3322 
L 3341 3322 
L 3341 331 
L 3884 331 
L 3884 0 
L 2766 0 
L 2766 588 
Q 2606 256 2353 82 
Q 2100 -91 1766 -91 
Q 1213 -91 952 223 
Q 691 538 691 1209 
L 691 2988 
L 172 2988 
L 172 3322 
L 1269 3322 
L 1269 1388 
Q 1269 781 1417 556 
Q 1566 331 1947 331 
Q 2347 331 2556 625 
Q 2766 919 2766 1478 
L 2766 2988 
L 2266 2988 
L 2266 3322 
z
" transform="scale(0.015625)"/>
      <path id="Cmsy10-31" d="M 1575 -72 
Q 1213 -72 933 140 
Q 653 353 506 690 
Q 359 1028 359 1381 
Q 359 1653 445 1912 
Q 531 2172 693 2378 
Q 856 2584 1086 2706 
Q 1316 2828 1594 2828 
Q 1881 2828 2150 2718 
Q 2419 2609 2642 2428 
Q 2866 2247 3059 2009 
L 3250 1753 
Q 3441 2056 3672 2295 
Q 3903 2534 4195 2681 
Q 4488 2828 4819 2828 
Q 5097 2828 5325 2704 
Q 5553 2581 5712 2368 
Q 5872 2156 5953 1898 
Q 6034 1641 6034 1381 
Q 6034 1019 5882 683 
Q 5731 347 5451 137 
Q 5172 -72 4800 -72 
Q 4381 -72 4004 153 
Q 3628 378 3334 750 
L 3144 1006 
Q 2850 528 2451 228 
Q 2053 -72 1575 -72 
z
M 1509 153 
Q 2322 153 2963 1241 
L 2625 1672 
Q 2331 2059 2078 2278 
Q 1825 2497 1491 2497 
Q 1206 2497 986 2336 
Q 766 2175 645 1915 
Q 525 1656 525 1375 
Q 525 1159 592 942 
Q 659 725 787 547 
Q 916 369 1098 261 
Q 1281 153 1509 153 
z
M 3769 1088 
Q 4063 700 4316 481 
Q 4569 263 4903 263 
Q 5116 263 5294 356 
Q 5472 450 5601 609 
Q 5731 769 5800 969 
Q 5869 1169 5869 1381 
Q 5869 1678 5750 1961 
Q 5631 2244 5407 2425 
Q 5184 2606 4884 2606 
Q 4072 2606 3431 1516 
L 3769 1088 
z
" transform="scale(0.015625)"/>
      <path id="Cmex10-58" d="M 422 -8959 
Q 359 -8959 359 -8891 
Q 359 -8863 378 -8844 
L 3756 -4909 
L 378 -281 
Q 359 -263 359 -250 
L 359 -56 
Q 359 -34 379 -17 
Q 400 0 422 0 
L 8103 0 
L 8878 -1797 
L 8691 -1797 
Q 8394 -1116 7697 -787 
Q 7000 -459 6242 -382 
Q 5484 -306 4481 -306 
L 1522 -306 
L 4544 -4434 
Q 4556 -4459 4556 -4481 
Q 4556 -4500 4544 -4525 
L 1222 -8391 
L 4544 -8391 
Q 5528 -8391 6289 -8314 
Q 7050 -8238 7739 -7908 
Q 8428 -7578 8691 -6900 
L 8878 -6900 
L 8103 -8959 
L 422 -8959 
z
" transform="scale(0.015625)"/>
      <path id="Cmr10-3d" d="M 481 850 
Q 428 850 393 890 
Q 359 931 359 978 
Q 359 1031 393 1068 
Q 428 1106 481 1106 
L 4500 1106 
Q 4547 1106 4581 1068 
Q 4616 1031 4616 978 
Q 4616 931 4581 890 
Q 4547 850 4500 850 
L 481 850 
z
M 481 2094 
Q 428 2094 393 2131 
Q 359 2169 359 2222 
Q 359 2269 393 2309 
Q 428 2350 481 2350 
L 4500 2350 
Q 4547 2350 4581 2309 
Q 4616 2269 4616 2222 
Q 4616 2169 4581 2131 
Q 4547 2094 4500 2094 
L 481 2094 
z
" transform="scale(0.015625)"/>
      <path id="Cmr10-31" d="M 594 0 
L 594 225 
Q 1394 225 1394 428 
L 1394 3788 
Q 1063 3628 556 3628 
L 556 3853 
Q 1341 3853 1741 4263 
L 1831 4263 
Q 1853 4263 1873 4245 
Q 1894 4228 1894 4206 
L 1894 428 
Q 1894 225 2694 225 
L 2694 0 
L 594 0 
z
" transform="scale(0.015625)"/>
      <path id="Cmr10-32" d="M 319 0 
L 319 172 
Q 319 188 331 206 
L 1325 1306 
Q 1550 1550 1690 1715 
Q 1831 1881 1968 2097 
Q 2106 2313 2186 2536 
Q 2266 2759 2266 3009 
Q 2266 3272 2169 3511 
Q 2072 3750 1880 3894 
Q 1688 4038 1416 4038 
Q 1138 4038 916 3870 
Q 694 3703 603 3438 
Q 628 3444 672 3444 
Q 816 3444 917 3347 
Q 1019 3250 1019 3097 
Q 1019 2950 917 2848 
Q 816 2747 672 2747 
Q 522 2747 420 2851 
Q 319 2956 319 3097 
Q 319 3338 409 3548 
Q 500 3759 670 3923 
Q 841 4088 1055 4175 
Q 1269 4263 1509 4263 
Q 1875 4263 2190 4108 
Q 2506 3953 2690 3670 
Q 2875 3388 2875 3009 
Q 2875 2731 2753 2481 
Q 2631 2231 2440 2026 
Q 2250 1822 1953 1562 
Q 1656 1303 1563 1216 
L 838 519 
L 1453 519 
Q 1906 519 2211 526 
Q 2516 534 2534 550 
Q 2609 631 2688 1141 
L 2875 1141 
L 2694 0 
L 319 0 
z
" transform="scale(0.015625)"/>
      <path id="Cmr10-2b" d="M 481 1472 
Q 428 1472 393 1512 
Q 359 1553 359 1600 
Q 359 1647 393 1687 
Q 428 1728 481 1728 
L 2363 1728 
L 2363 3616 
Q 2363 3666 2400 3698 
Q 2438 3731 2491 3731 
Q 2538 3731 2578 3698 
Q 2619 3666 2619 3616 
L 2619 1728 
L 4500 1728 
Q 4547 1728 4581 1687 
Q 4616 1647 4616 1600 
Q 4616 1553 4581 1512 
Q 4547 1472 4500 1472 
L 2619 1472 
L 2619 -416 
Q 2619 -466 2578 -498 
Q 2538 -531 2491 -531 
Q 2438 -531 2400 -498 
Q 2363 -466 2363 -416 
L 2363 1472 
L 481 1472 
z
" transform="scale(0.015625)"/>
      <path id="Cmsy10-a1" d="M 653 1472 
Q 600 1472 565 1512 
Q 531 1553 531 1600 
Q 531 1647 565 1687 
Q 600 1728 653 1728 
L 4325 1728 
Q 4375 1728 4408 1687 
Q 4441 1647 4441 1600 
Q 4441 1553 4408 1512 
Q 4375 1472 4325 1472 
L 653 1472 
z
" transform="scale(0.015625)"/>
     </defs>
     <use xlink:href="#DejaVuSerif-46" transform="translate(0 0.205729)"/>
     <use xlink:href="#DejaVuSerif-6f" transform="translate(69.384766 0.205729)"/>
     <use xlink:href="#DejaVuSerif-72" transform="translate(129.589844 0.205729)"/>
     <use xlink:href="#DejaVuSerif-20" transform="translate(177.392578 0.205729)"/>
     <use xlink:href="#DejaVuSerif-61" transform="translate(209.179688 0.205729)"/>
     <use xlink:href="#DejaVuSerif-6e" transform="translate(268.798828 0.205729)"/>
     <use xlink:href="#DejaVuSerif-79" transform="translate(333.203125 0.205729)"/>
     <use xlink:href="#DejaVuSerif-20" transform="translate(389.697266 0.205729)"/>
     <use xlink:href="#DejaVuSerif-70" transform="translate(421.484375 0.205729)"/>
     <use xlink:href="#DejaVuSerif-6f" transform="translate(485.498047 0.205729)"/>
     <use xlink:href="#DejaVuSerif-73" transform="translate(545.703125 0.205729)"/>
     <use xlink:href="#DejaVuSerif-69" transform="translate(597.021484 0.205729)"/>
     <use xlink:href="#DejaVuSerif-74" transform="translate(629.003906 0.205729)"/>
     <use xlink:href="#DejaVuSerif-69" transform="translate(669.189453 0.205729)"/>
     <use xlink:href="#DejaVuSerif-76" transform="translate(701.171875 0.205729)"/>
     <use xlink:href="#DejaVuSerif-65" transform="translate(757.666016 0.205729)"/>
     <use xlink:href="#DejaVuSerif-20" transform="translate(816.845703 0.205729)"/>
     <use xlink:href="#DejaVuSerif-69" transform="translate(848.632812 0.205729)"/>
     <use xlink:href="#DejaVuSerif-6e" transform="translate(880.615234 0.205729)"/>
     <use xlink:href="#DejaVuSerif-74" transform="translate(945.019531 0.205729)"/>
     <use xlink:href="#DejaVuSerif-65" transform="translate(985.205078 0.205729)"/>
     <use xlink:href="#DejaVuSerif-67" transform="translate(1044.384766 0.205729)"/>
     <use xlink:href="#DejaVuSerif-65" transform="translate(1108.398438 0.205729)"/>
     <use xlink:href="#DejaVuSerif-72" transform="translate(1167.578125 0.205729)"/>
     <use xlink:href="#DejaVuSerif-20" transform="translate(1215.380859 0.205729)"/>
     <use xlink:href="#Cmmi10-6e" transform="translate(1247.167969 0.205729)"/>
     <use xlink:href="#DejaVuSerif-2c" transform="translate(1307.177734 0.205729)"/>
     <use xlink:href="#DejaVuSerif-20" transform="translate(1338.964844 0.205729)"/>
     <use xlink:href="#DejaVuSerif-6c" transform="translate(1370.751953 0.205729)"/>
     <use xlink:href="#DejaVuSerif-65" transform="translate(1402.734375 0.205729)"/>
     <use xlink:href="#DejaVuSerif-74" transform="translate(1461.914062 0.205729)"/>
     <use xlink:href="#DejaVuSerif-20" transform="translate(1502.099609 0.205729)"/>
     <use xlink:href="#Cmex10-ad" transform="translate(1533.886719 93.546875)"/>
     <use xlink:href="#Cmmi10-6e" transform="translate(1581.103516 0.205729)"/>
     <use xlink:href="#Cmex10-ae" transform="translate(1641.113281 93.546875)"/>
     <use xlink:href="#DejaVuSerif-20" transform="translate(1688.330078 0.205729)"/>
     <use xlink:href="#DejaVuSerif-64" transform="translate(1720.117188 0.205729)"/>
     <use xlink:href="#DejaVuSerif-65" transform="translate(1784.130859 0.205729)"/>
     <use xlink:href="#DejaVuSerif-6e" transform="translate(1843.310547 0.205729)"/>
     <use xlink:href="#DejaVuSerif-6f" transform="translate(1907.714844 0.205729)"/>
     <use xlink:href="#DejaVuSerif-74" transform="translate(1967.919922 0.205729)"/>
     <use xlink:href="#DejaVuSerif-65" transform="translate(2008.105469 0.205729)"/>
     <use xlink:href="#DejaVuSerif-20" transform="translate(2067.285156 0.205729)"/>
     <use xlink:href="#DejaVuSerif-74" transform="translate(2099.072266 0.205729)"/>
     <use xlink:href="#DejaVuSerif-68" transform="translate(2139.257812 0.205729)"/>
     <use xlink:href="#DejaVuSerif-65" transform="translate(2203.662109 0.205729)"/>
     <use xlink:href="#DejaVuSerif-20" transform="translate(2262.841797 0.205729)"/>
     <use xlink:href="#DejaVuSerif-63" transform="translate(2294.628906 0.205729)"/>
     <use xlink:href="#DejaVuSerif-6c" transform="translate(2350.634766 0.205729)"/>
     <use xlink:href="#DejaVuSerif-6f" transform="translate(2382.617188 0.205729)"/>
     <use xlink:href="#DejaVuSerif-73" transform="translate(2442.822266 0.205729)"/>
     <use xlink:href="#DejaVuSerif-65" transform="translate(2494.140625 0.205729)"/>
     <use xlink:href="#DejaVuSerif-73" transform="translate(2553.320312 0.205729)"/>
     <use xlink:href="#DejaVuSerif-74" transform="translate(2604.638672 0.205729)"/>
     <use xlink:href="#DejaVuSerif-20" transform="translate(2644.824219 0.205729)"/>
     <use xlink:href="#DejaVuSerif-69" transform="translate(2676.611328 0.205729)"/>
     <use xlink:href="#DejaVuSerif-6e" transform="translate(2708.59375 0.205729)"/>
     <use xlink:href="#DejaVuSerif-74" transform="translate(2772.998047 0.205729)"/>
     <use xlink:href="#DejaVuSerif-65" transform="translate(2813.183594 0.205729)"/>
     <use xlink:href="#DejaVuSerif-67" transform="translate(2872.363281 0.205729)"/>
     <use xlink:href="#DejaVuSerif-65" transform="translate(2936.376953 0.205729)"/>
     <use xlink:href="#DejaVuSerif-72" transform="translate(2995.556641 0.205729)"/>
     <use xlink:href="#DejaVuSerif-20" transform="translate(3043.359375 0.205729)"/>
     <use xlink:href="#DejaVuSerif-74" transform="translate(3075.146484 0.205729)"/>
     <use xlink:href="#DejaVuSerif-6f" transform="translate(3115.332031 0.205729)"/>
     <use xlink:href="#DejaVuSerif-20" transform="translate(3175.537109 0.205729)"/>
     <use xlink:href="#Cmex10-70" transform="translate(3207.324219 73.080729) scale(0.637938)"/>
     <use xlink:href="#Cmmi10-6e" transform="translate(3283.605469 0.190104)"/>
     <use xlink:href="#DejaVuSerif-2e" transform="translate(3356.115234 0.205729)"/>
     <use xlink:href="#DejaVuSerif-20" transform="translate(3387.902344 0.205729)"/>
     <use xlink:href="#DejaVuSerif-45" transform="translate(3419.689453 0.205729)"/>
     <use xlink:href="#DejaVuSerif-76" transform="translate(3492.6875 0.205729)"/>
     <use xlink:href="#DejaVuSerif-61" transform="translate(3549.181641 0.205729)"/>
     <use xlink:href="#DejaVuSerif-6c" transform="translate(3608.800781 0.205729)"/>
     <use xlink:href="#DejaVuSerif-75" transform="translate(3640.783203 0.205729)"/>
     <use xlink:href="#DejaVuSerif-61" transform="translate(3705.1875 0.205729)"/>
     <use xlink:href="#DejaVuSerif-74" transform="translate(3764.806641 0.205729)"/>
     <use xlink:href="#DejaVuSerif-65" transform="translate(3804.992188 0.205729)"/>
     <use xlink:href="#DejaVuSerif-20" transform="translate(3864.171875 0.205729)"/>
     <use xlink:href="#Cmsy10-31" transform="translate(3942.958984 123.06875) scale(0.7)"/>
     <use xlink:href="#Cmex10-58" transform="translate(3906.958984 103.53125)"/>
     <use xlink:href="#Cmmi10-6e" transform="translate(3895.958984 -101.829688) scale(0.7)"/>
     <use xlink:href="#Cmr10-3d" transform="translate(3950.256836 -101.829688) scale(0.7)"/>
     <use xlink:href="#Cmr10-31" transform="translate(4016.927734 -101.829688) scale(0.7)"/>
     <use xlink:href="#Cmr10-32" transform="translate(4051.927734 43.513542) scale(0.7)"/>
     <use xlink:href="#Cmex10-ad" transform="translate(4090.052633 116.037969) scale(0.49)"/>
     <use xlink:href="#Cmmi10-6e" transform="translate(4113.188863 70.298385) scale(0.49)"/>
     <use xlink:href="#Cmex10-ae" transform="translate(4142.593648 116.037969) scale(0.49)"/>
     <use xlink:href="#Cmr10-2b" transform="translate(4182.485035 43.513542) scale(0.7)"/>
     <use xlink:href="#Cmr10-32" transform="translate(4249.155934 43.513542) scale(0.7)"/>
     <use xlink:href="#Cmsy10-a1" transform="translate(4287.280832 70.298385) scale(0.49)"/>
     <use xlink:href="#Cmex10-ad" transform="translate(4325.34675 116.037969) scale(0.49)"/>
     <use xlink:href="#Cmmi10-6e" transform="translate(4348.48298 70.298385) scale(0.49)"/>
     <use xlink:href="#Cmex10-ae" transform="translate(4377.887766 116.037969) scale(0.49)"/>
     <use xlink:href="#Cmr10-32" transform="translate(4192.927734 -41.98099) scale(0.7)"/>
     <use xlink:href="#Cmmi10-6e" transform="translate(4231.052633 -15.196146) scale(0.49)"/>
     <use xlink:href="#DejaVuSerif-2e" transform="translate(4417.988137 0.205729)"/>
     <path d="M 3271.105469 69.127604 
L 3271.105469 75.377604 
L 3356.115234 75.377604 
L 3356.115234 69.127604 
L 3271.105469 69.127604 
z
"/>
     <path d="M 4051.927734 12.705729 
L 4051.927734 18.955729 
L 4405.488137 18.955729 
L 4405.488137 12.705729 
L 4051.927734 12.705729 
z
"/>
    </g>
   </g>
  </g>
 </g>
</svg>
