<?xml version="1.0" encoding="utf-8" standalone="no"?>
<!DOCTYPE svg PUBLIC "-//W3C//DTD SVG 1.1//EN"
  "http://www.w3.org/Graphics/SVG/1.1/DTD/svg11.dtd">
<svg xmlns:xlink="http://www.w3.org/1999/xlink" width="1207.8pt" height="180.72pt" viewBox="0 0 1207.8 180.72" xmlns="http://www.w3.org/2000/svg" version="1.1">
 <metadata>
  <rdf:RDF xmlns:dc="http://purl.org/dc/elements/1.1/" xmlns:cc="http://creativecommons.org/ns#" xmlns:rdf="http://www.w3.org/1999/02/22-rdf-syntax-ns#">
   <cc:Work>
    <dc:type rdf:resource="http://purl.org/dc/dcmitype/StillImage"/>
    <dc:date>2025-05-29T18:44:25.196098</dc:date>
    <dc:format>image/svg+xml</dc:format>
    <dc:creator>
     <cc:Agent>
      <dc:title>Matplotlib v3.10.3, https://matplotlib.org/</dc:title>
     </cc:Agent>
    </dc:creator>
   </cc:Work>
  </rdf:RDF>
 </metadata>
 <defs>
  <style type="text/css">*{stroke-linejoin: round; stroke-linecap: butt}</style>
 </defs>
 <g id="figure_1">
  <g id="patch_1">
   <path d="M 0 180.72 
L 1207.8 180.72 
L 1207.8 0 
L 0 0 
z
" style="fill: #ffffff"/>
  </g>
  <g id="axes_1">
   <g id="text_1">
    <!-- For a nonnegative integer $k$, let $f(k)$ be the number of ones in the base 3 representation of $k$. Find all complex numbers $z$ such that \[ \sum_{k=0}^{3^{1010}-1} (-2)^{f(k)} (z+k)^{2023} = 0. \] -->
    <g transform="translate(7.2 93.42) scale(0.12 -0.12)">
     <defs>
      <path id="DejaVuSerif-46" d="M 353 0 
L 353 331 
L 947 331 
L 947 4331 
L 353 4331 
L 353 4666 
L 4172 4666 
L 4172 3628 
L 3788 3628 
L 3788 4281 
L 1581 4281 
L 1581 2719 
L 3175 2719 
L 3175 3303 
L 3559 3303 
L 3559 1753 
L 3175 1753 
L 3175 2338 
L 1581 2338 
L 1581 331 
L 2328 331 
L 2328 0 
L 353 0 
z
" transform="scale(0.015625)"/>
      <path id="DejaVuSerif-6f" d="M 1925 219 
Q 2388 219 2623 584 
Q 2859 950 2859 1663 
Q 2859 2375 2623 2739 
Q 2388 3103 1925 3103 
Q 1463 3103 1227 2739 
Q 991 2375 991 1663 
Q 991 950 1228 584 
Q 1466 219 1925 219 
z
M 1925 -91 
Q 1200 -91 759 389 
Q 319 869 319 1663 
Q 319 2456 758 2934 
Q 1197 3413 1925 3413 
Q 2653 3413 3092 2934 
Q 3531 2456 3531 1663 
Q 3531 869 3092 389 
Q 2653 -91 1925 -91 
z
" transform="scale(0.015625)"/>
      <path id="DejaVuSerif-72" d="M 3059 3328 
L 3059 2497 
L 2728 2497 
Q 2713 2744 2591 2866 
Q 2469 2988 2234 2988 
Q 1809 2988 1582 2694 
Q 1356 2400 1356 1850 
L 1356 331 
L 2022 331 
L 2022 0 
L 263 0 
L 263 331 
L 781 331 
L 781 2994 
L 231 2994 
L 231 3322 
L 1356 3322 
L 1356 2731 
Q 1525 3078 1790 3245 
Q 2056 3413 2438 3413 
Q 2578 3413 2733 3391 
Q 2888 3369 3059 3328 
z
" transform="scale(0.015625)"/>
      <path id="DejaVuSerif-20" transform="scale(0.015625)"/>
      <path id="DejaVuSerif-61" d="M 2547 1044 
L 2547 1747 
L 1806 1747 
Q 1378 1747 1168 1562 
Q 959 1378 959 997 
Q 959 650 1171 447 
Q 1384 244 1747 244 
Q 2106 244 2326 466 
Q 2547 688 2547 1044 
z
M 3122 2075 
L 3122 331 
L 3634 331 
L 3634 0 
L 2547 0 
L 2547 359 
Q 2356 128 2106 18 
Q 1856 -91 1522 -91 
Q 969 -91 644 203 
Q 319 497 319 997 
Q 319 1513 691 1797 
Q 1063 2081 1741 2081 
L 2547 2081 
L 2547 2309 
Q 2547 2688 2317 2895 
Q 2088 3103 1672 3103 
Q 1328 3103 1125 2947 
Q 922 2791 872 2484 
L 575 2484 
L 575 3156 
Q 875 3284 1158 3348 
Q 1441 3413 1709 3413 
Q 2400 3413 2761 3070 
Q 3122 2728 3122 2075 
z
" transform="scale(0.015625)"/>
      <path id="DejaVuSerif-6e" d="M 263 0 
L 263 331 
L 781 331 
L 781 2988 
L 231 2988 
L 231 3322 
L 1356 3322 
L 1356 2731 
Q 1516 3069 1770 3241 
Q 2025 3413 2363 3413 
Q 2913 3413 3172 3097 
Q 3431 2781 3431 2113 
L 3431 331 
L 3944 331 
L 3944 0 
L 2356 0 
L 2356 331 
L 2853 331 
L 2853 1931 
Q 2853 2541 2703 2767 
Q 2553 2994 2175 2994 
Q 1775 2994 1565 2701 
Q 1356 2409 1356 1850 
L 1356 331 
L 1856 331 
L 1856 0 
L 263 0 
z
" transform="scale(0.015625)"/>
      <path id="DejaVuSerif-65" d="M 3469 1600 
L 991 1600 
L 991 1575 
Q 991 903 1244 561 
Q 1497 219 1991 219 
Q 2369 219 2611 417 
Q 2853 616 2950 1006 
L 3413 1006 
Q 3275 459 2904 184 
Q 2534 -91 1931 -91 
Q 1203 -91 761 389 
Q 319 869 319 1663 
Q 319 2450 753 2931 
Q 1188 3413 1894 3413 
Q 2647 3413 3050 2948 
Q 3453 2484 3469 1600 
z
M 2791 1931 
Q 2772 2513 2545 2808 
Q 2319 3103 1894 3103 
Q 1497 3103 1269 2806 
Q 1041 2509 991 1931 
L 2791 1931 
z
" transform="scale(0.015625)"/>
      <path id="DejaVuSerif-67" d="M 3359 2988 
L 3359 72 
Q 3359 -644 2965 -1033 
Q 2572 -1422 1844 -1422 
Q 1516 -1422 1216 -1362 
Q 916 -1303 641 -1184 
L 641 -488 
L 941 -488 
Q 997 -813 1206 -963 
Q 1416 -1113 1806 -1113 
Q 2313 -1113 2548 -827 
Q 2784 -541 2784 72 
L 2784 519 
Q 2616 206 2355 57 
Q 2094 -91 1709 -91 
Q 1097 -91 708 395 
Q 319 881 319 1663 
Q 319 2444 706 2928 
Q 1094 3413 1709 3413 
Q 2094 3413 2355 3264 
Q 2616 3116 2784 2803 
L 2784 3322 
L 3909 3322 
L 3909 2988 
L 3359 2988 
z
M 2784 1825 
Q 2784 2422 2554 2737 
Q 2325 3053 1888 3053 
Q 1444 3053 1217 2703 
Q 991 2353 991 1663 
Q 991 975 1217 622 
Q 1444 269 1888 269 
Q 2325 269 2554 583 
Q 2784 897 2784 1497 
L 2784 1825 
z
" transform="scale(0.015625)"/>
      <path id="DejaVuSerif-74" d="M 691 2988 
L 184 2988 
L 184 3322 
L 691 3322 
L 691 4353 
L 1269 4353 
L 1269 3322 
L 2350 3322 
L 2350 2988 
L 1269 2988 
L 1269 878 
Q 1269 456 1350 337 
Q 1431 219 1650 219 
Q 1875 219 1978 351 
Q 2081 484 2088 781 
L 2522 781 
Q 2497 328 2275 118 
Q 2053 -91 1600 -91 
Q 1103 -91 897 129 
Q 691 350 691 878 
L 691 2988 
z
" transform="scale(0.015625)"/>
      <path id="DejaVuSerif-69" d="M 622 4353 
Q 622 4497 726 4603 
Q 831 4709 978 4709 
Q 1122 4709 1226 4603 
Q 1331 4497 1331 4353 
Q 1331 4206 1228 4103 
Q 1125 4000 978 4000 
Q 831 4000 726 4103 
Q 622 4206 622 4353 
z
M 1356 331 
L 1900 331 
L 1900 0 
L 231 0 
L 231 331 
L 781 331 
L 781 2988 
L 231 2988 
L 231 3322 
L 1356 3322 
L 1356 331 
z
" transform="scale(0.015625)"/>
      <path id="DejaVuSerif-76" d="M 1581 0 
L 359 2988 
L -19 2988 
L -19 3322 
L 1509 3322 
L 1509 2988 
L 978 2988 
L 1913 703 
L 2847 2988 
L 2350 2988 
L 2350 3322 
L 3597 3322 
L 3597 2988 
L 3225 2988 
L 2003 0 
L 1581 0 
z
" transform="scale(0.015625)"/>
      <path id="Cmmi10-6b" d="M 341 116 
Q 341 153 347 172 
L 1275 3872 
Q 1300 3981 1306 4044 
Q 1306 4147 891 4147 
Q 825 4147 825 4231 
Q 828 4247 839 4287 
Q 850 4328 867 4350 
Q 884 4372 916 4372 
L 1778 4441 
L 1797 4441 
Q 1797 4434 1819 4423 
Q 1841 4413 1844 4409 
Q 1856 4378 1856 4359 
L 1184 1684 
Q 1416 1781 1767 2145 
Q 2119 2509 2317 2668 
Q 2516 2828 2816 2828 
Q 2994 2828 3119 2706 
Q 3244 2584 3244 2406 
Q 3244 2294 3197 2198 
Q 3150 2103 3065 2043 
Q 2981 1984 2869 1984 
Q 2766 1984 2695 2048 
Q 2625 2113 2625 2216 
Q 2625 2369 2733 2473 
Q 2841 2578 2994 2578 
Q 2931 2663 2803 2663 
Q 2613 2663 2436 2553 
Q 2259 2444 2054 2239 
Q 1850 2034 1681 1864 
Q 1513 1694 1369 1606 
Q 1747 1563 2025 1408 
Q 2303 1253 2303 934 
Q 2303 869 2278 769 
Q 2222 528 2222 384 
Q 2222 97 2419 97 
Q 2650 97 2770 350 
Q 2891 603 2969 941 
Q 2981 978 3022 978 
L 3097 978 
Q 3122 978 3139 962 
Q 3156 947 3156 922 
Q 3156 916 3150 903 
Q 2909 -72 2406 -72 
Q 2225 -72 2086 12 
Q 1947 97 1872 242 
Q 1797 388 1797 569 
Q 1797 672 1825 781 
Q 1844 856 1844 922 
Q 1844 1169 1625 1297 
Q 1406 1425 1125 1453 
L 800 147 
Q 775 50 703 -11 
Q 631 -72 538 -72 
Q 456 -72 398 -17 
Q 341 38 341 116 
z
" transform="scale(0.015625)"/>
      <path id="DejaVuSerif-2c" d="M 231 -622 
Q 525 -406 662 -114 
Q 800 178 800 594 
L 800 709 
L 1416 709 
Q 1391 175 1164 -208 
Q 938 -591 481 -872 
L 231 -622 
z
" transform="scale(0.015625)"/>
      <path id="DejaVuSerif-6c" d="M 1313 331 
L 1856 331 
L 1856 0 
L 184 0 
L 184 331 
L 738 331 
L 738 4531 
L 184 4531 
L 184 4863 
L 1313 4863 
L 1313 331 
z
" transform="scale(0.015625)"/>
      <path id="Cmmi10-66" d="M 622 -1056 
Q 741 -1147 909 -1147 
Q 1138 -1147 1281 -641 
Q 1341 -397 1606 966 
L 1900 2534 
L 1350 2534 
Q 1288 2534 1288 2619 
Q 1313 2759 1369 2759 
L 1941 2759 
L 2016 3175 
Q 2053 3369 2084 3508 
Q 2116 3647 2152 3765 
Q 2188 3884 2259 4031 
Q 2369 4241 2555 4377 
Q 2741 4513 2956 4513 
Q 3097 4513 3230 4461 
Q 3363 4409 3447 4306 
Q 3531 4203 3531 4063 
Q 3531 3900 3423 3779 
Q 3316 3659 3163 3659 
Q 3059 3659 2986 3723 
Q 2913 3788 2913 3891 
Q 2913 4031 3008 4136 
Q 3103 4241 3244 4256 
Q 3125 4347 2950 4347 
Q 2853 4347 2767 4256 
Q 2681 4166 2656 4063 
Q 2616 3900 2478 3181 
L 2400 2759 
L 3059 2759 
Q 3122 2759 3122 2675 
Q 3119 2659 3109 2620 
Q 3100 2581 3083 2557 
Q 3066 2534 3041 2534 
L 2356 2534 
L 2059 972 
Q 2003 631 1929 279 
Q 1856 -72 1723 -442 
Q 1591 -813 1384 -1063 
Q 1178 -1313 897 -1313 
Q 681 -1313 511 -1189 
Q 341 -1066 341 -863 
Q 341 -700 445 -579 
Q 550 -459 709 -459 
Q 816 -459 887 -523 
Q 959 -588 959 -691 
Q 959 -828 857 -942 
Q 756 -1056 622 -1056 
z
" transform="scale(0.015625)"/>
      <path id="Cmr10-28" d="M 1984 -1588 
Q 1628 -1306 1370 -942 
Q 1113 -578 948 -165 
Q 784 247 703 697 
Q 622 1147 622 1600 
Q 622 2059 703 2509 
Q 784 2959 951 3375 
Q 1119 3791 1378 4153 
Q 1638 4516 1984 4788 
Q 1984 4800 2016 4800 
L 2075 4800 
Q 2094 4800 2109 4783 
Q 2125 4766 2125 4744 
Q 2125 4716 2113 4703 
Q 1800 4397 1592 4047 
Q 1384 3697 1257 3301 
Q 1131 2906 1075 2482 
Q 1019 2059 1019 1600 
Q 1019 -434 2106 -1491 
Q 2125 -1509 2125 -1544 
Q 2125 -1559 2108 -1579 
Q 2091 -1600 2075 -1600 
L 2016 -1600 
Q 1984 -1600 1984 -1588 
z
" transform="scale(0.015625)"/>
      <path id="Cmr10-29" d="M 416 -1600 
Q 359 -1600 359 -1544 
Q 359 -1516 372 -1503 
Q 1466 -434 1466 1600 
Q 1466 3634 384 4691 
Q 359 4706 359 4744 
Q 359 4766 376 4783 
Q 394 4800 416 4800 
L 475 4800 
Q 494 4800 506 4788 
Q 966 4425 1272 3906 
Q 1578 3388 1720 2800 
Q 1863 2213 1863 1600 
Q 1863 1147 1786 708 
Q 1709 269 1542 -157 
Q 1375 -584 1119 -945 
Q 863 -1306 506 -1588 
Q 494 -1600 475 -1600 
L 416 -1600 
z
" transform="scale(0.015625)"/>
      <path id="DejaVuSerif-62" d="M 738 331 
L 738 4531 
L 184 4531 
L 184 4863 
L 1313 4863 
L 1313 2803 
Q 1481 3116 1742 3264 
Q 2003 3413 2388 3413 
Q 3000 3413 3387 2928 
Q 3775 2444 3775 1663 
Q 3775 881 3387 395 
Q 3000 -91 2388 -91 
Q 2003 -91 1742 57 
Q 1481 206 1313 519 
L 1313 0 
L 184 0 
L 184 331 
L 738 331 
z
M 1313 1497 
Q 1313 897 1542 583 
Q 1772 269 2209 269 
Q 2650 269 2876 622 
Q 3103 975 3103 1663 
Q 3103 2353 2876 2703 
Q 2650 3053 2209 3053 
Q 1772 3053 1542 2737 
Q 1313 2422 1313 1825 
L 1313 1497 
z
" transform="scale(0.015625)"/>
      <path id="DejaVuSerif-68" d="M 263 0 
L 263 331 
L 781 331 
L 781 4531 
L 231 4531 
L 231 4863 
L 1356 4863 
L 1356 2731 
Q 1516 3069 1770 3241 
Q 2025 3413 2363 3413 
Q 2913 3413 3172 3097 
Q 3431 2781 3431 2113 
L 3431 331 
L 3944 331 
L 3944 0 
L 2356 0 
L 2356 331 
L 2853 331 
L 2853 1931 
Q 2853 2541 2704 2764 
Q 2556 2988 2175 2988 
Q 1775 2988 1565 2697 
Q 1356 2406 1356 1850 
L 1356 331 
L 1856 331 
L 1856 0 
L 263 0 
z
" transform="scale(0.015625)"/>
      <path id="DejaVuSerif-75" d="M 2266 3322 
L 3341 3322 
L 3341 331 
L 3884 331 
L 3884 0 
L 2766 0 
L 2766 588 
Q 2606 256 2353 82 
Q 2100 -91 1766 -91 
Q 1213 -91 952 223 
Q 691 538 691 1209 
L 691 2988 
L 172 2988 
L 172 3322 
L 1269 3322 
L 1269 1388 
Q 1269 781 1417 556 
Q 1566 331 1947 331 
Q 2347 331 2556 625 
Q 2766 919 2766 1478 
L 2766 2988 
L 2266 2988 
L 2266 3322 
z
" transform="scale(0.015625)"/>
      <path id="DejaVuSerif-6d" d="M 3316 2675 
Q 3481 3041 3739 3227 
Q 3997 3413 4341 3413 
Q 4863 3413 5119 3089 
Q 5375 2766 5375 2113 
L 5375 331 
L 5894 331 
L 5894 0 
L 4300 0 
L 4300 331 
L 4800 331 
L 4800 2047 
Q 4800 2556 4650 2772 
Q 4500 2988 4153 2988 
Q 3769 2988 3567 2697 
Q 3366 2406 3366 1850 
L 3366 331 
L 3866 331 
L 3866 0 
L 2291 0 
L 2291 331 
L 2791 331 
L 2791 2069 
Q 2791 2566 2641 2777 
Q 2491 2988 2144 2988 
Q 1759 2988 1557 2697 
Q 1356 2406 1356 1850 
L 1356 331 
L 1856 331 
L 1856 0 
L 263 0 
L 263 331 
L 781 331 
L 781 2994 
L 231 2994 
L 231 3322 
L 1356 3322 
L 1356 2731 
Q 1516 3063 1762 3238 
Q 2009 3413 2322 3413 
Q 2709 3413 2968 3220 
Q 3228 3028 3316 2675 
z
" transform="scale(0.015625)"/>
      <path id="DejaVuSerif-66" d="M 2753 4078 
L 2450 4078 
Q 2447 4313 2317 4434 
Q 2188 4556 1941 4556 
Q 1619 4556 1487 4379 
Q 1356 4203 1356 3750 
L 1356 3322 
L 2284 3322 
L 2284 2988 
L 1356 2988 
L 1356 331 
L 2094 331 
L 2094 0 
L 231 0 
L 231 331 
L 781 331 
L 781 2988 
L 231 2988 
L 231 3322 
L 781 3322 
L 781 3738 
Q 781 4294 1070 4578 
Q 1359 4863 1919 4863 
Q 2128 4863 2337 4825 
Q 2547 4788 2753 4709 
L 2753 4078 
z
" transform="scale(0.015625)"/>
      <path id="DejaVuSerif-73" d="M 359 184 
L 359 959 
L 691 959 
Q 703 588 923 403 
Q 1144 219 1575 219 
Q 1963 219 2166 364 
Q 2369 509 2369 788 
Q 2369 1006 2220 1140 
Q 2072 1275 1594 1428 
L 1178 1569 
Q 750 1706 558 1912 
Q 366 2119 366 2438 
Q 366 2894 700 3153 
Q 1034 3413 1625 3413 
Q 1888 3413 2178 3344 
Q 2469 3275 2778 3144 
L 2778 2419 
L 2447 2419 
Q 2434 2741 2221 2922 
Q 2009 3103 1644 3103 
Q 1281 3103 1095 2975 
Q 909 2847 909 2591 
Q 909 2381 1050 2254 
Q 1191 2128 1613 1997 
L 2069 1856 
Q 2541 1709 2748 1489 
Q 2956 1269 2956 922 
Q 2956 450 2595 179 
Q 2234 -91 1600 -91 
Q 1278 -91 972 -22 
Q 666 47 359 184 
z
" transform="scale(0.015625)"/>
      <path id="DejaVuSerif-33" d="M 622 4469 
Q 988 4606 1323 4678 
Q 1659 4750 1953 4750 
Q 2638 4750 3022 4454 
Q 3406 4159 3406 3634 
Q 3406 3213 3140 2930 
Q 2875 2647 2388 2547 
Q 2963 2466 3280 2130 
Q 3597 1794 3597 1259 
Q 3597 606 3158 257 
Q 2719 -91 1894 -91 
Q 1528 -91 1179 -12 
Q 831 66 488 225 
L 488 1131 
L 838 1131 
Q 869 681 1141 450 
Q 1413 219 1906 219 
Q 2384 219 2661 495 
Q 2938 772 2938 1253 
Q 2938 1803 2653 2086 
Q 2369 2369 1819 2369 
L 1522 2369 
L 1522 2688 
L 1678 2688 
Q 2225 2688 2498 2914 
Q 2772 3141 2772 3597 
Q 2772 4006 2547 4223 
Q 2322 4441 1900 4441 
Q 1478 4441 1245 4241 
Q 1013 4041 972 3647 
L 622 3647 
L 622 4469 
z
" transform="scale(0.015625)"/>
      <path id="DejaVuSerif-70" d="M 1313 1825 
L 1313 1497 
Q 1313 897 1542 583 
Q 1772 269 2209 269 
Q 2650 269 2876 622 
Q 3103 975 3103 1663 
Q 3103 2353 2876 2703 
Q 2650 3053 2209 3053 
Q 1772 3053 1542 2737 
Q 1313 2422 1313 1825 
z
M 738 2988 
L 184 2988 
L 184 3322 
L 1313 3322 
L 1313 2803 
Q 1481 3116 1742 3264 
Q 2003 3413 2388 3413 
Q 3000 3413 3387 2928 
Q 3775 2444 3775 1663 
Q 3775 881 3387 395 
Q 3000 -91 2388 -91 
Q 2003 -91 1742 57 
Q 1481 206 1313 519 
L 1313 -997 
L 1856 -997 
L 1856 -1331 
L 184 -1331 
L 184 -997 
L 738 -997 
L 738 2988 
z
" transform="scale(0.015625)"/>
      <path id="DejaVuSerif-2e" d="M 603 325 
Q 603 500 722 622 
Q 841 744 1019 744 
Q 1191 744 1312 622 
Q 1434 500 1434 325 
Q 1434 153 1312 31 
Q 1191 -91 1019 -91 
Q 841 -91 722 29 
Q 603 150 603 325 
z
" transform="scale(0.015625)"/>
      <path id="DejaVuSerif-64" d="M 3359 331 
L 3909 331 
L 3909 0 
L 2784 0 
L 2784 519 
Q 2616 206 2355 57 
Q 2094 -91 1709 -91 
Q 1097 -91 708 395 
Q 319 881 319 1663 
Q 319 2444 706 2928 
Q 1094 3413 1709 3413 
Q 2094 3413 2355 3264 
Q 2616 3116 2784 2803 
L 2784 4531 
L 2241 4531 
L 2241 4863 
L 3359 4863 
L 3359 331 
z
M 2784 1497 
L 2784 1825 
Q 2784 2422 2554 2737 
Q 2325 3053 1888 3053 
Q 1444 3053 1217 2703 
Q 991 2353 991 1663 
Q 991 975 1217 622 
Q 1444 269 1888 269 
Q 2325 269 2554 583 
Q 2784 897 2784 1497 
z
" transform="scale(0.015625)"/>
      <path id="DejaVuSerif-63" d="M 3291 997 
Q 3169 466 2822 187 
Q 2475 -91 1925 -91 
Q 1200 -91 759 389 
Q 319 869 319 1663 
Q 319 2459 759 2936 
Q 1200 3413 1925 3413 
Q 2241 3413 2553 3339 
Q 2866 3266 3181 3116 
L 3181 2266 
L 2847 2266 
Q 2781 2703 2561 2903 
Q 2341 3103 1931 3103 
Q 1466 3103 1228 2742 
Q 991 2381 991 1663 
Q 991 944 1227 581 
Q 1463 219 1931 219 
Q 2303 219 2525 412 
Q 2747 606 2828 997 
L 3291 997 
z
" transform="scale(0.015625)"/>
      <path id="DejaVuSerif-78" d="M 1863 2028 
L 2559 2988 
L 2113 2988 
L 2113 3322 
L 3391 3322 
L 3391 2988 
L 2950 2988 
L 2059 1759 
L 3097 331 
L 3531 331 
L 3531 0 
L 1997 0 
L 1997 331 
L 2419 331 
L 1697 1325 
L 972 331 
L 1403 331 
L 1403 0 
L 141 0 
L 141 331 
L 581 331 
L 1497 1594 
L 488 2988 
L 78 2988 
L 78 3322 
L 1563 3322 
L 1563 2988 
L 1166 2988 
L 1863 2028 
z
" transform="scale(0.015625)"/>
      <path id="Cmmi10-7a" d="M 313 -72 
Q 263 -72 263 -13 
Q 263 19 275 31 
Q 447 328 689 598 
Q 931 869 1239 1145 
Q 1547 1422 1858 1700 
Q 2169 1978 2363 2194 
L 2338 2194 
Q 2197 2194 1925 2284 
Q 1653 2375 1497 2375 
Q 1328 2375 1168 2301 
Q 1009 2228 966 2075 
Q 956 2028 916 2028 
L 838 2028 
Q 788 2028 788 2094 
L 788 2113 
Q 838 2300 952 2462 
Q 1066 2625 1233 2726 
Q 1400 2828 1581 2828 
Q 1709 2828 1793 2770 
Q 1878 2713 1990 2591 
Q 2103 2469 2173 2416 
Q 2244 2363 2350 2363 
Q 2491 2363 2602 2491 
Q 2713 2619 2822 2809 
Q 2841 2828 2869 2828 
L 2944 2828 
Q 2966 2828 2980 2812 
Q 2994 2797 2994 2772 
Q 2994 2750 2981 2731 
Q 2809 2434 2579 2176 
Q 2350 1919 1979 1586 
Q 1609 1253 1354 1023 
Q 1100 794 878 550 
Q 928 563 1013 563 
Q 1169 563 1439 473 
Q 1709 384 1856 384 
Q 2016 384 2178 453 
Q 2341 522 2459 647 
Q 2578 772 2619 934 
Q 2634 978 2669 978 
L 2747 978 
Q 2772 978 2787 958 
Q 2803 938 2803 916 
Q 2803 909 2797 897 
Q 2738 653 2591 433 
Q 2444 213 2230 70 
Q 2016 -72 1772 -72 
Q 1650 -72 1565 -15 
Q 1481 41 1367 164 
Q 1253 288 1181 342 
Q 1109 397 1006 397 
Q 688 397 434 -50 
Q 413 -72 391 -72 
L 313 -72 
z
" transform="scale(0.015625)"/>
      <path id="DejaVuSerif-5c" d="M 500 4666 
L 2156 -594 
L 1656 -594 
L 0 4666 
L 500 4666 
z
" transform="scale(0.015625)"/>
      <path id="DejaVuSerif-5b" d="M 550 4863 
L 2003 4863 
L 2003 4531 
L 1147 4531 
L 1147 -513 
L 2003 -513 
L 2003 -844 
L 550 -844 
L 550 4863 
z
" transform="scale(0.015625)"/>
      <path id="DejaVuSerif-5f" d="M 3200 -1259 
L 3200 -1509 
L 0 -1509 
L 0 -1259 
L 3200 -1259 
z
" transform="scale(0.015625)"/>
      <path id="DejaVuSerif-7b" d="M 3272 -716 
L 3272 -1044 
L 3078 -1044 
Q 2300 -1044 2036 -812 
Q 1772 -581 1772 109 
L 1772 916 
Q 1772 1384 1603 1565 
Q 1434 1747 991 1747 
L 800 1747 
L 800 2075 
L 991 2075 
Q 1434 2075 1603 2256 
Q 1772 2438 1772 2906 
L 1772 3713 
Q 1772 4403 2036 4633 
Q 2300 4863 3078 4863 
L 3272 4863 
L 3272 4538 
L 3059 4538 
Q 2619 4538 2484 4400 
Q 2350 4263 2350 3822 
L 2350 2925 
Q 2350 2431 2194 2218 
Q 2038 2006 1631 1913 
Q 2044 1806 2197 1597 
Q 2350 1388 2350 897 
L 2350 0 
Q 2350 -441 2484 -578 
Q 2619 -716 3059 -716 
L 3272 -716 
z
" transform="scale(0.015625)"/>
      <path id="DejaVuSerif-6b" d="M 1831 0 
L 219 0 
L 219 331 
L 738 331 
L 738 4531 
L 184 4531 
L 184 4863 
L 1313 4863 
L 1313 1697 
L 2713 2988 
L 2234 2988 
L 2234 3322 
L 3738 3322 
L 3738 2988 
L 3169 2988 
L 2181 2075 
L 3444 331 
L 3922 331 
L 3922 0 
L 2284 0 
L 2284 331 
L 2759 331 
L 1766 1697 
L 1313 1275 
L 1313 331 
L 1831 331 
L 1831 0 
z
" transform="scale(0.015625)"/>
      <path id="DejaVuSerif-3d" d="M 678 2894 
L 4684 2894 
L 4684 2394 
L 678 2394 
L 678 2894 
z
M 678 1619 
L 4684 1619 
L 4684 1119 
L 678 1119 
L 678 1619 
z
" transform="scale(0.015625)"/>
      <path id="DejaVuSerif-30" d="M 2034 219 
Q 2513 219 2750 744 
Q 2988 1269 2988 2328 
Q 2988 3391 2750 3916 
Q 2513 4441 2034 4441 
Q 1556 4441 1318 3916 
Q 1081 3391 1081 2328 
Q 1081 1269 1318 744 
Q 1556 219 2034 219 
z
M 2034 -91 
Q 1275 -91 848 546 
Q 422 1184 422 2328 
Q 422 3475 848 4112 
Q 1275 4750 2034 4750 
Q 2797 4750 3222 4112 
Q 3647 3475 3647 2328 
Q 3647 1184 3222 546 
Q 2797 -91 2034 -91 
z
" transform="scale(0.015625)"/>
      <path id="DejaVuSerif-7d" d="M 800 -716 
L 1019 -716 
Q 1456 -716 1589 -580 
Q 1722 -444 1722 0 
L 1722 897 
Q 1722 1388 1875 1597 
Q 2028 1806 2438 1913 
Q 2031 2006 1876 2218 
Q 1722 2431 1722 2925 
L 1722 3822 
Q 1722 4266 1589 4402 
Q 1456 4538 1019 4538 
L 800 4538 
L 800 4863 
L 997 4863 
Q 1775 4863 2036 4633 
Q 2297 4403 2297 3713 
L 2297 2906 
Q 2297 2438 2465 2256 
Q 2634 2075 3078 2075 
L 3272 2075 
L 3272 1747 
L 3078 1747 
Q 2634 1747 2465 1565 
Q 2297 1384 2297 916 
L 2297 109 
Q 2297 -581 2036 -812 
Q 1775 -1044 997 -1044 
L 800 -1044 
L 800 -716 
z
" transform="scale(0.015625)"/>
      <path id="DejaVuSerif-5e" d="M 2988 4666 
L 4684 2925 
L 4206 2925 
L 2681 4116 
L 1159 2925 
L 678 2925 
L 2375 4666 
L 2988 4666 
z
" transform="scale(0.015625)"/>
      <path id="DejaVuSerif-31" d="M 909 0 
L 909 331 
L 1722 331 
L 1722 4213 
L 781 3603 
L 781 4013 
L 1919 4750 
L 2350 4750 
L 2350 331 
L 3163 331 
L 3163 0 
L 909 0 
z
" transform="scale(0.015625)"/>
      <path id="DejaVuSerif-2d" d="M 281 1959 
L 1881 1959 
L 1881 1472 
L 281 1472 
L 281 1959 
z
" transform="scale(0.015625)"/>
      <path id="DejaVuSerif-28" d="M 2041 -997 
Q 1281 -656 893 83 
Q 506 822 506 1931 
Q 506 3044 893 3783 
Q 1281 4522 2041 4863 
L 2041 4556 
Q 1559 4225 1350 3623 
Q 1141 3022 1141 1931 
Q 1141 844 1350 242 
Q 1559 -359 2041 -691 
L 2041 -997 
z
" transform="scale(0.015625)"/>
      <path id="DejaVuSerif-32" d="M 819 3553 
L 469 3553 
L 469 4384 
Q 803 4563 1142 4656 
Q 1481 4750 1806 4750 
Q 2534 4750 2956 4397 
Q 3378 4044 3378 3438 
Q 3378 2753 2422 1800 
Q 2347 1728 2309 1691 
L 1131 513 
L 3078 513 
L 3078 1088 
L 3444 1088 
L 3444 0 
L 434 0 
L 434 341 
L 1850 1753 
Q 2319 2222 2519 2614 
Q 2719 3006 2719 3438 
Q 2719 3909 2473 4175 
Q 2228 4441 1797 4441 
Q 1350 4441 1106 4219 
Q 863 3997 819 3553 
z
" transform="scale(0.015625)"/>
      <path id="DejaVuSerif-29" d="M 453 -997 
L 453 -691 
Q 934 -359 1145 242 
Q 1356 844 1356 1931 
Q 1356 3022 1145 3623 
Q 934 4225 453 4556 
L 453 4863 
Q 1216 4522 1603 3783 
Q 1991 3044 1991 1931 
Q 1991 822 1603 83 
Q 1216 -656 453 -997 
z
" transform="scale(0.015625)"/>
      <path id="DejaVuSerif-7a" d="M 256 0 
L 256 269 
L 2338 2988 
L 691 2988 
L 691 2413 
L 359 2413 
L 359 3322 
L 3078 3322 
L 3078 3053 
L 997 331 
L 2803 331 
L 2803 934 
L 3138 934 
L 3138 0 
L 256 0 
z
" transform="scale(0.015625)"/>
      <path id="DejaVuSerif-2b" d="M 2931 4013 
L 2931 2259 
L 4684 2259 
L 4684 1753 
L 2931 1753 
L 2931 0 
L 2431 0 
L 2431 1753 
L 678 1753 
L 678 2259 
L 2431 2259 
L 2431 4013 
L 2931 4013 
z
" transform="scale(0.015625)"/>
      <path id="DejaVuSerif-5d" d="M 1947 4863 
L 1947 -844 
L 494 -844 
L 494 -513 
L 1350 -513 
L 1350 4531 
L 494 4531 
L 494 4863 
L 1947 4863 
z
" transform="scale(0.015625)"/>
     </defs>
     <use xlink:href="#DejaVuSerif-46" transform="translate(0 0.015625)"/>
     <use xlink:href="#DejaVuSerif-6f" transform="translate(69.384766 0.015625)"/>
     <use xlink:href="#DejaVuSerif-72" transform="translate(129.589844 0.015625)"/>
     <use xlink:href="#DejaVuSerif-20" transform="translate(177.392578 0.015625)"/>
     <use xlink:href="#DejaVuSerif-61" transform="translate(209.179688 0.015625)"/>
     <use xlink:href="#DejaVuSerif-20" transform="translate(268.798828 0.015625)"/>
     <use xlink:href="#DejaVuSerif-6e" transform="translate(300.585938 0.015625)"/>
     <use xlink:href="#DejaVuSerif-6f" transform="translate(364.990234 0.015625)"/>
     <use xlink:href="#DejaVuSerif-6e" transform="translate(425.195312 0.015625)"/>
     <use xlink:href="#DejaVuSerif-6e" transform="translate(489.599609 0.015625)"/>
     <use xlink:href="#DejaVuSerif-65" transform="translate(554.003906 0.015625)"/>
     <use xlink:href="#DejaVuSerif-67" transform="translate(613.183594 0.015625)"/>
     <use xlink:href="#DejaVuSerif-61" transform="translate(677.197266 0.015625)"/>
     <use xlink:href="#DejaVuSerif-74" transform="translate(736.816406 0.015625)"/>
     <use xlink:href="#DejaVuSerif-69" transform="translate(777.001953 0.015625)"/>
     <use xlink:href="#DejaVuSerif-76" transform="translate(808.984375 0.015625)"/>
     <use xlink:href="#DejaVuSerif-65" transform="translate(865.478516 0.015625)"/>
     <use xlink:href="#DejaVuSerif-20" transform="translate(924.658203 0.015625)"/>
     <use xlink:href="#DejaVuSerif-69" transform="translate(956.445312 0.015625)"/>
     <use xlink:href="#DejaVuSerif-6e" transform="translate(988.427734 0.015625)"/>
     <use xlink:href="#DejaVuSerif-74" transform="translate(1052.832031 0.015625)"/>
     <use xlink:href="#DejaVuSerif-65" transform="translate(1093.017578 0.015625)"/>
     <use xlink:href="#DejaVuSerif-67" transform="translate(1152.197266 0.015625)"/>
     <use xlink:href="#DejaVuSerif-65" transform="translate(1216.210938 0.015625)"/>
     <use xlink:href="#DejaVuSerif-72" transform="translate(1275.390625 0.015625)"/>
     <use xlink:href="#DejaVuSerif-20" transform="translate(1323.193359 0.015625)"/>
     <use xlink:href="#Cmmi10-6b" transform="translate(1354.980469 0.015625)"/>
     <use xlink:href="#DejaVuSerif-2c" transform="translate(1406.982422 0.015625)"/>
     <use xlink:href="#DejaVuSerif-20" transform="translate(1438.769531 0.015625)"/>
     <use xlink:href="#DejaVuSerif-6c" transform="translate(1470.556641 0.015625)"/>
     <use xlink:href="#DejaVuSerif-65" transform="translate(1502.539062 0.015625)"/>
     <use xlink:href="#DejaVuSerif-74" transform="translate(1561.71875 0.015625)"/>
     <use xlink:href="#DejaVuSerif-20" transform="translate(1601.904297 0.015625)"/>
     <use xlink:href="#Cmmi10-66" transform="translate(1633.691406 0.015625)"/>
     <use xlink:href="#Cmr10-28" transform="translate(1682.568359 0.015625)"/>
     <use xlink:href="#Cmmi10-6b" transform="translate(1721.386719 0.015625)"/>
     <use xlink:href="#Cmr10-29" transform="translate(1773.388672 0.015625)"/>
     <use xlink:href="#DejaVuSerif-20" transform="translate(1812.207031 0.015625)"/>
     <use xlink:href="#DejaVuSerif-62" transform="translate(1843.994141 0.015625)"/>
     <use xlink:href="#DejaVuSerif-65" transform="translate(1908.007812 0.015625)"/>
     <use xlink:href="#DejaVuSerif-20" transform="translate(1967.1875 0.015625)"/>
     <use xlink:href="#DejaVuSerif-74" transform="translate(1998.974609 0.015625)"/>
     <use xlink:href="#DejaVuSerif-68" transform="translate(2039.160156 0.015625)"/>
     <use xlink:href="#DejaVuSerif-65" transform="translate(2103.564453 0.015625)"/>
     <use xlink:href="#DejaVuSerif-20" transform="translate(2162.744141 0.015625)"/>
     <use xlink:href="#DejaVuSerif-6e" transform="translate(2194.53125 0.015625)"/>
     <use xlink:href="#DejaVuSerif-75" transform="translate(2258.935547 0.015625)"/>
     <use xlink:href="#DejaVuSerif-6d" transform="translate(2323.339844 0.015625)"/>
     <use xlink:href="#DejaVuSerif-62" transform="translate(2418.164062 0.015625)"/>
     <use xlink:href="#DejaVuSerif-65" transform="translate(2482.177734 0.015625)"/>
     <use xlink:href="#DejaVuSerif-72" transform="translate(2541.357422 0.015625)"/>
     <use xlink:href="#DejaVuSerif-20" transform="translate(2589.160156 0.015625)"/>
     <use xlink:href="#DejaVuSerif-6f" transform="translate(2620.947266 0.015625)"/>
     <use xlink:href="#DejaVuSerif-66" transform="translate(2681.152344 0.015625)"/>
     <use xlink:href="#DejaVuSerif-20" transform="translate(2718.164062 0.015625)"/>
     <use xlink:href="#DejaVuSerif-6f" transform="translate(2749.951172 0.015625)"/>
     <use xlink:href="#DejaVuSerif-6e" transform="translate(2810.15625 0.015625)"/>
     <use xlink:href="#DejaVuSerif-65" transform="translate(2874.560547 0.015625)"/>
     <use xlink:href="#DejaVuSerif-73" transform="translate(2933.740234 0.015625)"/>
     <use xlink:href="#DejaVuSerif-20" transform="translate(2985.058594 0.015625)"/>
     <use xlink:href="#DejaVuSerif-69" transform="translate(3016.845703 0.015625)"/>
     <use xlink:href="#DejaVuSerif-6e" transform="translate(3048.828125 0.015625)"/>
     <use xlink:href="#DejaVuSerif-20" transform="translate(3113.232422 0.015625)"/>
     <use xlink:href="#DejaVuSerif-74" transform="translate(3145.019531 0.015625)"/>
     <use xlink:href="#DejaVuSerif-68" transform="translate(3185.205078 0.015625)"/>
     <use xlink:href="#DejaVuSerif-65" transform="translate(3249.609375 0.015625)"/>
     <use xlink:href="#DejaVuSerif-20" transform="translate(3308.789062 0.015625)"/>
     <use xlink:href="#DejaVuSerif-62" transform="translate(3340.576172 0.015625)"/>
     <use xlink:href="#DejaVuSerif-61" transform="translate(3404.589844 0.015625)"/>
     <use xlink:href="#DejaVuSerif-73" transform="translate(3464.208984 0.015625)"/>
     <use xlink:href="#DejaVuSerif-65" transform="translate(3515.527344 0.015625)"/>
     <use xlink:href="#DejaVuSerif-20" transform="translate(3574.707031 0.015625)"/>
     <use xlink:href="#DejaVuSerif-33" transform="translate(3606.494141 0.015625)"/>
     <use xlink:href="#DejaVuSerif-20" transform="translate(3670.117188 0.015625)"/>
     <use xlink:href="#DejaVuSerif-72" transform="translate(3701.904297 0.015625)"/>
     <use xlink:href="#DejaVuSerif-65" transform="translate(3749.707031 0.015625)"/>
     <use xlink:href="#DejaVuSerif-70" transform="translate(3808.886719 0.015625)"/>
     <use xlink:href="#DejaVuSerif-72" transform="translate(3872.900391 0.015625)"/>
     <use xlink:href="#DejaVuSerif-65" transform="translate(3920.703125 0.015625)"/>
     <use xlink:href="#DejaVuSerif-73" transform="translate(3979.882812 0.015625)"/>
     <use xlink:href="#DejaVuSerif-65" transform="translate(4031.201172 0.015625)"/>
     <use xlink:href="#DejaVuSerif-6e" transform="translate(4090.380859 0.015625)"/>
     <use xlink:href="#DejaVuSerif-74" transform="translate(4154.785156 0.015625)"/>
     <use xlink:href="#DejaVuSerif-61" transform="translate(4194.970703 0.015625)"/>
     <use xlink:href="#DejaVuSerif-74" transform="translate(4254.589844 0.015625)"/>
     <use xlink:href="#DejaVuSerif-69" transform="translate(4294.775391 0.015625)"/>
     <use xlink:href="#DejaVuSerif-6f" transform="translate(4326.757812 0.015625)"/>
     <use xlink:href="#DejaVuSerif-6e" transform="translate(4386.962891 0.015625)"/>
     <use xlink:href="#DejaVuSerif-20" transform="translate(4451.367188 0.015625)"/>
     <use xlink:href="#DejaVuSerif-6f" transform="translate(4483.154297 0.015625)"/>
     <use xlink:href="#DejaVuSerif-66" transform="translate(4543.359375 0.015625)"/>
     <use xlink:href="#DejaVuSerif-20" transform="translate(4580.371094 0.015625)"/>
     <use xlink:href="#Cmmi10-6b" transform="translate(4612.158203 0.015625)"/>
     <use xlink:href="#DejaVuSerif-2e" transform="translate(4664.160156 0.015625)"/>
     <use xlink:href="#DejaVuSerif-20" transform="translate(4695.947266 0.015625)"/>
     <use xlink:href="#DejaVuSerif-46" transform="translate(4727.734375 0.015625)"/>
     <use xlink:href="#DejaVuSerif-69" transform="translate(4797.119141 0.015625)"/>
     <use xlink:href="#DejaVuSerif-6e" transform="translate(4829.101562 0.015625)"/>
     <use xlink:href="#DejaVuSerif-64" transform="translate(4893.505859 0.015625)"/>
     <use xlink:href="#DejaVuSerif-20" transform="translate(4957.519531 0.015625)"/>
     <use xlink:href="#DejaVuSerif-61" transform="translate(4989.306641 0.015625)"/>
     <use xlink:href="#DejaVuSerif-6c" transform="translate(5048.925781 0.015625)"/>
     <use xlink:href="#DejaVuSerif-6c" transform="translate(5080.908203 0.015625)"/>
     <use xlink:href="#DejaVuSerif-20" transform="translate(5112.890625 0.015625)"/>
     <use xlink:href="#DejaVuSerif-63" transform="translate(5144.677734 0.015625)"/>
     <use xlink:href="#DejaVuSerif-6f" transform="translate(5200.683594 0.015625)"/>
     <use xlink:href="#DejaVuSerif-6d" transform="translate(5260.888672 0.015625)"/>
     <use xlink:href="#DejaVuSerif-70" transform="translate(5355.712891 0.015625)"/>
     <use xlink:href="#DejaVuSerif-6c" transform="translate(5419.726562 0.015625)"/>
     <use xlink:href="#DejaVuSerif-65" transform="translate(5451.708984 0.015625)"/>
     <use xlink:href="#DejaVuSerif-78" transform="translate(5510.888672 0.015625)"/>
     <use xlink:href="#DejaVuSerif-20" transform="translate(5567.285156 0.015625)"/>
     <use xlink:href="#DejaVuSerif-6e" transform="translate(5599.072266 0.015625)"/>
     <use xlink:href="#DejaVuSerif-75" transform="translate(5663.476562 0.015625)"/>
     <use xlink:href="#DejaVuSerif-6d" transform="translate(5727.880859 0.015625)"/>
     <use xlink:href="#DejaVuSerif-62" transform="translate(5822.705078 0.015625)"/>
     <use xlink:href="#DejaVuSerif-65" transform="translate(5886.71875 0.015625)"/>
     <use xlink:href="#DejaVuSerif-72" transform="translate(5945.898438 0.015625)"/>
     <use xlink:href="#DejaVuSerif-73" transform="translate(5993.701172 0.015625)"/>
     <use xlink:href="#DejaVuSerif-20" transform="translate(6045.019531 0.015625)"/>
     <use xlink:href="#Cmmi10-7a" transform="translate(6076.806641 0.015625)"/>
     <use xlink:href="#DejaVuSerif-20" transform="translate(6123.291016 0.015625)"/>
     <use xlink:href="#DejaVuSerif-73" transform="translate(6155.078125 0.015625)"/>
     <use xlink:href="#DejaVuSerif-75" transform="translate(6206.396484 0.015625)"/>
     <use xlink:href="#DejaVuSerif-63" transform="translate(6270.800781 0.015625)"/>
     <use xlink:href="#DejaVuSerif-68" transform="translate(6326.806641 0.015625)"/>
     <use xlink:href="#DejaVuSerif-20" transform="translate(6391.210938 0.015625)"/>
     <use xlink:href="#DejaVuSerif-74" transform="translate(6422.998047 0.015625)"/>
     <use xlink:href="#DejaVuSerif-68" transform="translate(6463.183594 0.015625)"/>
     <use xlink:href="#DejaVuSerif-61" transform="translate(6527.587891 0.015625)"/>
     <use xlink:href="#DejaVuSerif-74" transform="translate(6587.207031 0.015625)"/>
     <use xlink:href="#DejaVuSerif-20" transform="translate(6627.392578 0.015625)"/>
     <use xlink:href="#DejaVuSerif-5c" transform="translate(6659.179688 0.015625)"/>
     <use xlink:href="#DejaVuSerif-5b" transform="translate(6692.871094 0.015625)"/>
     <use xlink:href="#DejaVuSerif-20" transform="translate(6731.884766 0.015625)"/>
     <use xlink:href="#DejaVuSerif-5c" transform="translate(6763.671875 0.015625)"/>
     <use xlink:href="#DejaVuSerif-73" transform="translate(6797.363281 0.015625)"/>
     <use xlink:href="#DejaVuSerif-75" transform="translate(6848.681641 0.015625)"/>
     <use xlink:href="#DejaVuSerif-6d" transform="translate(6913.085938 0.015625)"/>
     <use xlink:href="#DejaVuSerif-5f" transform="translate(7007.910156 0.015625)"/>
     <use xlink:href="#DejaVuSerif-7b" transform="translate(7057.910156 0.015625)"/>
     <use xlink:href="#DejaVuSerif-6b" transform="translate(7121.533203 0.015625)"/>
     <use xlink:href="#DejaVuSerif-3d" transform="translate(7182.128906 0.015625)"/>
     <use xlink:href="#DejaVuSerif-30" transform="translate(7265.917969 0.015625)"/>
     <use xlink:href="#DejaVuSerif-7d" transform="translate(7329.541016 0.015625)"/>
     <use xlink:href="#DejaVuSerif-5e" transform="translate(7393.164062 0.015625)"/>
     <use xlink:href="#DejaVuSerif-7b" transform="translate(7476.953125 0.015625)"/>
     <use xlink:href="#DejaVuSerif-33" transform="translate(7540.576172 0.015625)"/>
     <use xlink:href="#DejaVuSerif-5e" transform="translate(7604.199219 0.015625)"/>
     <use xlink:href="#DejaVuSerif-7b" transform="translate(7687.988281 0.015625)"/>
     <use xlink:href="#DejaVuSerif-31" transform="translate(7751.611328 0.015625)"/>
     <use xlink:href="#DejaVuSerif-30" transform="translate(7815.234375 0.015625)"/>
     <use xlink:href="#DejaVuSerif-31" transform="translate(7878.857422 0.015625)"/>
     <use xlink:href="#DejaVuSerif-30" transform="translate(7942.480469 0.015625)"/>
     <use xlink:href="#DejaVuSerif-7d" transform="translate(8006.103516 0.015625)"/>
     <use xlink:href="#DejaVuSerif-2d" transform="translate(8069.726562 0.015625)"/>
     <use xlink:href="#DejaVuSerif-31" transform="translate(8103.515625 0.015625)"/>
     <use xlink:href="#DejaVuSerif-7d" transform="translate(8167.138672 0.015625)"/>
     <use xlink:href="#DejaVuSerif-20" transform="translate(8230.761719 0.015625)"/>
     <use xlink:href="#DejaVuSerif-28" transform="translate(8262.548828 0.015625)"/>
     <use xlink:href="#DejaVuSerif-2d" transform="translate(8301.5625 0.015625)"/>
     <use xlink:href="#DejaVuSerif-32" transform="translate(8335.351562 0.015625)"/>
     <use xlink:href="#DejaVuSerif-29" transform="translate(8398.974609 0.015625)"/>
     <use xlink:href="#DejaVuSerif-5e" transform="translate(8437.988281 0.015625)"/>
     <use xlink:href="#DejaVuSerif-7b" transform="translate(8521.777344 0.015625)"/>
     <use xlink:href="#DejaVuSerif-66" transform="translate(8585.400391 0.015625)"/>
     <use xlink:href="#DejaVuSerif-28" transform="translate(8622.412109 0.015625)"/>
     <use xlink:href="#DejaVuSerif-6b" transform="translate(8661.425781 0.015625)"/>
     <use xlink:href="#DejaVuSerif-29" transform="translate(8722.021484 0.015625)"/>
     <use xlink:href="#DejaVuSerif-7d" transform="translate(8761.035156 0.015625)"/>
     <use xlink:href="#DejaVuSerif-20" transform="translate(8824.658203 0.015625)"/>
     <use xlink:href="#DejaVuSerif-28" transform="translate(8856.445312 0.015625)"/>
     <use xlink:href="#DejaVuSerif-7a" transform="translate(8895.458984 0.015625)"/>
     <use xlink:href="#DejaVuSerif-2b" transform="translate(8948.144531 0.015625)"/>
     <use xlink:href="#DejaVuSerif-6b" transform="translate(9031.933594 0.015625)"/>
     <use xlink:href="#DejaVuSerif-29" transform="translate(9092.529297 0.015625)"/>
     <use xlink:href="#DejaVuSerif-5e" transform="translate(9131.542969 0.015625)"/>
     <use xlink:href="#DejaVuSerif-7b" transform="translate(9215.332031 0.015625)"/>
     <use xlink:href="#DejaVuSerif-32" transform="translate(9278.955078 0.015625)"/>
     <use xlink:href="#DejaVuSerif-30" transform="translate(9342.578125 0.015625)"/>
     <use xlink:href="#DejaVuSerif-32" transform="translate(9406.201172 0.015625)"/>
     <use xlink:href="#DejaVuSerif-33" transform="translate(9469.824219 0.015625)"/>
     <use xlink:href="#DejaVuSerif-7d" transform="translate(9533.447266 0.015625)"/>
     <use xlink:href="#DejaVuSerif-20" transform="translate(9597.070312 0.015625)"/>
     <use xlink:href="#DejaVuSerif-3d" transform="translate(9628.857422 0.015625)"/>
     <use xlink:href="#DejaVuSerif-20" transform="translate(9712.646484 0.015625)"/>
     <use xlink:href="#DejaVuSerif-30" transform="translate(9744.433594 0.015625)"/>
     <use xlink:href="#DejaVuSerif-2e" transform="translate(9808.056641 0.015625)"/>
     <use xlink:href="#DejaVuSerif-20" transform="translate(9839.84375 0.015625)"/>
     <use xlink:href="#DejaVuSerif-5c" transform="translate(9871.630859 0.015625)"/>
     <use xlink:href="#DejaVuSerif-5d" transform="translate(9905.322266 0.015625)"/>
    </g>
   </g>
  </g>
 </g>
</svg>
