<?xml version="1.0" encoding="utf-8" standalone="no"?>
<!DOCTYPE svg PUBLIC "-//W3C//DTD SVG 1.1//EN"
  "http://www.w3.org/Graphics/SVG/1.1/DTD/svg11.dtd">
<svg xmlns:xlink="http://www.w3.org/1999/xlink" width="763.32pt" height="228.4pt" viewBox="0 0 763.32 228.4" xmlns="http://www.w3.org/2000/svg" version="1.1">
 <metadata>
  <rdf:RDF xmlns:dc="http://purl.org/dc/elements/1.1/" xmlns:cc="http://creativecommons.org/ns#" xmlns:rdf="http://www.w3.org/1999/02/22-rdf-syntax-ns#">
   <cc:Work>
    <dc:type rdf:resource="http://purl.org/dc/dcmitype/StillImage"/>
    <dc:date>2025-05-29T18:44:07.771216</dc:date>
    <dc:format>image/svg+xml</dc:format>
    <dc:creator>
     <cc:Agent>
      <dc:title>Matplotlib v3.10.3, https://matplotlib.org/</dc:title>
     </cc:Agent>
    </dc:creator>
   </cc:Work>
  </rdf:RDF>
 </metadata>
 <defs>
  <style type="text/css">*{stroke-linejoin: round; stroke-linecap: butt}</style>
 </defs>
 <g id="figure_1">
  <g id="patch_1">
   <path d="M 0 228.4 
L 763.32 228.4 
L 763.32 0 
L 0 0 
z
" style="fill: #ffffff"/>
  </g>
  <g id="axes_1">
   <g id="text_1">
    <!-- Find all differentiable functions $f:(0,\infty) \rightarrow (0,\infty)$ for which there is a positive real number $a$ such that $f'(\frac{a}{x})=\frac{x}{f(x)}$ for all $x&gt;0$. -->
    <g transform="translate(7.2 115.04) scale(0.12 -0.12)">
     <defs>
      <path id="DejaVuSerif-46" d="M 353 0 
L 353 331 
L 947 331 
L 947 4331 
L 353 4331 
L 353 4666 
L 4172 4666 
L 4172 3628 
L 3788 3628 
L 3788 4281 
L 1581 4281 
L 1581 2719 
L 3175 2719 
L 3175 3303 
L 3559 3303 
L 3559 1753 
L 3175 1753 
L 3175 2338 
L 1581 2338 
L 1581 331 
L 2328 331 
L 2328 0 
L 353 0 
z
" transform="scale(0.015625)"/>
      <path id="DejaVuSerif-69" d="M 622 4353 
Q 622 4497 726 4603 
Q 831 4709 978 4709 
Q 1122 4709 1226 4603 
Q 1331 4497 1331 4353 
Q 1331 4206 1228 4103 
Q 1125 4000 978 4000 
Q 831 4000 726 4103 
Q 622 4206 622 4353 
z
M 1356 331 
L 1900 331 
L 1900 0 
L 231 0 
L 231 331 
L 781 331 
L 781 2988 
L 231 2988 
L 231 3322 
L 1356 3322 
L 1356 331 
z
" transform="scale(0.015625)"/>
      <path id="DejaVuSerif-6e" d="M 263 0 
L 263 331 
L 781 331 
L 781 2988 
L 231 2988 
L 231 3322 
L 1356 3322 
L 1356 2731 
Q 1516 3069 1770 3241 
Q 2025 3413 2363 3413 
Q 2913 3413 3172 3097 
Q 3431 2781 3431 2113 
L 3431 331 
L 3944 331 
L 3944 0 
L 2356 0 
L 2356 331 
L 2853 331 
L 2853 1931 
Q 2853 2541 2703 2767 
Q 2553 2994 2175 2994 
Q 1775 2994 1565 2701 
Q 1356 2409 1356 1850 
L 1356 331 
L 1856 331 
L 1856 0 
L 263 0 
z
" transform="scale(0.015625)"/>
      <path id="DejaVuSerif-64" d="M 3359 331 
L 3909 331 
L 3909 0 
L 2784 0 
L 2784 519 
Q 2616 206 2355 57 
Q 2094 -91 1709 -91 
Q 1097 -91 708 395 
Q 319 881 319 1663 
Q 319 2444 706 2928 
Q 1094 3413 1709 3413 
Q 2094 3413 2355 3264 
Q 2616 3116 2784 2803 
L 2784 4531 
L 2241 4531 
L 2241 4863 
L 3359 4863 
L 3359 331 
z
M 2784 1497 
L 2784 1825 
Q 2784 2422 2554 2737 
Q 2325 3053 1888 3053 
Q 1444 3053 1217 2703 
Q 991 2353 991 1663 
Q 991 975 1217 622 
Q 1444 269 1888 269 
Q 2325 269 2554 583 
Q 2784 897 2784 1497 
z
" transform="scale(0.015625)"/>
      <path id="DejaVuSerif-20" transform="scale(0.015625)"/>
      <path id="DejaVuSerif-61" d="M 2547 1044 
L 2547 1747 
L 1806 1747 
Q 1378 1747 1168 1562 
Q 959 1378 959 997 
Q 959 650 1171 447 
Q 1384 244 1747 244 
Q 2106 244 2326 466 
Q 2547 688 2547 1044 
z
M 3122 2075 
L 3122 331 
L 3634 331 
L 3634 0 
L 2547 0 
L 2547 359 
Q 2356 128 2106 18 
Q 1856 -91 1522 -91 
Q 969 -91 644 203 
Q 319 497 319 997 
Q 319 1513 691 1797 
Q 1063 2081 1741 2081 
L 2547 2081 
L 2547 2309 
Q 2547 2688 2317 2895 
Q 2088 3103 1672 3103 
Q 1328 3103 1125 2947 
Q 922 2791 872 2484 
L 575 2484 
L 575 3156 
Q 875 3284 1158 3348 
Q 1441 3413 1709 3413 
Q 2400 3413 2761 3070 
Q 3122 2728 3122 2075 
z
" transform="scale(0.015625)"/>
      <path id="DejaVuSerif-6c" d="M 1313 331 
L 1856 331 
L 1856 0 
L 184 0 
L 184 331 
L 738 331 
L 738 4531 
L 184 4531 
L 184 4863 
L 1313 4863 
L 1313 331 
z
" transform="scale(0.015625)"/>
      <path id="DejaVuSerif-66" d="M 2753 4078 
L 2450 4078 
Q 2447 4313 2317 4434 
Q 2188 4556 1941 4556 
Q 1619 4556 1487 4379 
Q 1356 4203 1356 3750 
L 1356 3322 
L 2284 3322 
L 2284 2988 
L 1356 2988 
L 1356 331 
L 2094 331 
L 2094 0 
L 231 0 
L 231 331 
L 781 331 
L 781 2988 
L 231 2988 
L 231 3322 
L 781 3322 
L 781 3738 
Q 781 4294 1070 4578 
Q 1359 4863 1919 4863 
Q 2128 4863 2337 4825 
Q 2547 4788 2753 4709 
L 2753 4078 
z
" transform="scale(0.015625)"/>
      <path id="DejaVuSerif-65" d="M 3469 1600 
L 991 1600 
L 991 1575 
Q 991 903 1244 561 
Q 1497 219 1991 219 
Q 2369 219 2611 417 
Q 2853 616 2950 1006 
L 3413 1006 
Q 3275 459 2904 184 
Q 2534 -91 1931 -91 
Q 1203 -91 761 389 
Q 319 869 319 1663 
Q 319 2450 753 2931 
Q 1188 3413 1894 3413 
Q 2647 3413 3050 2948 
Q 3453 2484 3469 1600 
z
M 2791 1931 
Q 2772 2513 2545 2808 
Q 2319 3103 1894 3103 
Q 1497 3103 1269 2806 
Q 1041 2509 991 1931 
L 2791 1931 
z
" transform="scale(0.015625)"/>
      <path id="DejaVuSerif-72" d="M 3059 3328 
L 3059 2497 
L 2728 2497 
Q 2713 2744 2591 2866 
Q 2469 2988 2234 2988 
Q 1809 2988 1582 2694 
Q 1356 2400 1356 1850 
L 1356 331 
L 2022 331 
L 2022 0 
L 263 0 
L 263 331 
L 781 331 
L 781 2994 
L 231 2994 
L 231 3322 
L 1356 3322 
L 1356 2731 
Q 1525 3078 1790 3245 
Q 2056 3413 2438 3413 
Q 2578 3413 2733 3391 
Q 2888 3369 3059 3328 
z
" transform="scale(0.015625)"/>
      <path id="DejaVuSerif-74" d="M 691 2988 
L 184 2988 
L 184 3322 
L 691 3322 
L 691 4353 
L 1269 4353 
L 1269 3322 
L 2350 3322 
L 2350 2988 
L 1269 2988 
L 1269 878 
Q 1269 456 1350 337 
Q 1431 219 1650 219 
Q 1875 219 1978 351 
Q 2081 484 2088 781 
L 2522 781 
Q 2497 328 2275 118 
Q 2053 -91 1600 -91 
Q 1103 -91 897 129 
Q 691 350 691 878 
L 691 2988 
z
" transform="scale(0.015625)"/>
      <path id="DejaVuSerif-62" d="M 738 331 
L 738 4531 
L 184 4531 
L 184 4863 
L 1313 4863 
L 1313 2803 
Q 1481 3116 1742 3264 
Q 2003 3413 2388 3413 
Q 3000 3413 3387 2928 
Q 3775 2444 3775 1663 
Q 3775 881 3387 395 
Q 3000 -91 2388 -91 
Q 2003 -91 1742 57 
Q 1481 206 1313 519 
L 1313 0 
L 184 0 
L 184 331 
L 738 331 
z
M 1313 1497 
Q 1313 897 1542 583 
Q 1772 269 2209 269 
Q 2650 269 2876 622 
Q 3103 975 3103 1663 
Q 3103 2353 2876 2703 
Q 2650 3053 2209 3053 
Q 1772 3053 1542 2737 
Q 1313 2422 1313 1825 
L 1313 1497 
z
" transform="scale(0.015625)"/>
      <path id="DejaVuSerif-75" d="M 2266 3322 
L 3341 3322 
L 3341 331 
L 3884 331 
L 3884 0 
L 2766 0 
L 2766 588 
Q 2606 256 2353 82 
Q 2100 -91 1766 -91 
Q 1213 -91 952 223 
Q 691 538 691 1209 
L 691 2988 
L 172 2988 
L 172 3322 
L 1269 3322 
L 1269 1388 
Q 1269 781 1417 556 
Q 1566 331 1947 331 
Q 2347 331 2556 625 
Q 2766 919 2766 1478 
L 2766 2988 
L 2266 2988 
L 2266 3322 
z
" transform="scale(0.015625)"/>
      <path id="DejaVuSerif-63" d="M 3291 997 
Q 3169 466 2822 187 
Q 2475 -91 1925 -91 
Q 1200 -91 759 389 
Q 319 869 319 1663 
Q 319 2459 759 2936 
Q 1200 3413 1925 3413 
Q 2241 3413 2553 3339 
Q 2866 3266 3181 3116 
L 3181 2266 
L 2847 2266 
Q 2781 2703 2561 2903 
Q 2341 3103 1931 3103 
Q 1466 3103 1228 2742 
Q 991 2381 991 1663 
Q 991 944 1227 581 
Q 1463 219 1931 219 
Q 2303 219 2525 412 
Q 2747 606 2828 997 
L 3291 997 
z
" transform="scale(0.015625)"/>
      <path id="DejaVuSerif-6f" d="M 1925 219 
Q 2388 219 2623 584 
Q 2859 950 2859 1663 
Q 2859 2375 2623 2739 
Q 2388 3103 1925 3103 
Q 1463 3103 1227 2739 
Q 991 2375 991 1663 
Q 991 950 1228 584 
Q 1466 219 1925 219 
z
M 1925 -91 
Q 1200 -91 759 389 
Q 319 869 319 1663 
Q 319 2456 758 2934 
Q 1197 3413 1925 3413 
Q 2653 3413 3092 2934 
Q 3531 2456 3531 1663 
Q 3531 869 3092 389 
Q 2653 -91 1925 -91 
z
" transform="scale(0.015625)"/>
      <path id="DejaVuSerif-73" d="M 359 184 
L 359 959 
L 691 959 
Q 703 588 923 403 
Q 1144 219 1575 219 
Q 1963 219 2166 364 
Q 2369 509 2369 788 
Q 2369 1006 2220 1140 
Q 2072 1275 1594 1428 
L 1178 1569 
Q 750 1706 558 1912 
Q 366 2119 366 2438 
Q 366 2894 700 3153 
Q 1034 3413 1625 3413 
Q 1888 3413 2178 3344 
Q 2469 3275 2778 3144 
L 2778 2419 
L 2447 2419 
Q 2434 2741 2221 2922 
Q 2009 3103 1644 3103 
Q 1281 3103 1095 2975 
Q 909 2847 909 2591 
Q 909 2381 1050 2254 
Q 1191 2128 1613 1997 
L 2069 1856 
Q 2541 1709 2748 1489 
Q 2956 1269 2956 922 
Q 2956 450 2595 179 
Q 2234 -91 1600 -91 
Q 1278 -91 972 -22 
Q 666 47 359 184 
z
" transform="scale(0.015625)"/>
      <path id="Cmmi10-66" d="M 622 -1056 
Q 741 -1147 909 -1147 
Q 1138 -1147 1281 -641 
Q 1341 -397 1606 966 
L 1900 2534 
L 1350 2534 
Q 1288 2534 1288 2619 
Q 1313 2759 1369 2759 
L 1941 2759 
L 2016 3175 
Q 2053 3369 2084 3508 
Q 2116 3647 2152 3765 
Q 2188 3884 2259 4031 
Q 2369 4241 2555 4377 
Q 2741 4513 2956 4513 
Q 3097 4513 3230 4461 
Q 3363 4409 3447 4306 
Q 3531 4203 3531 4063 
Q 3531 3900 3423 3779 
Q 3316 3659 3163 3659 
Q 3059 3659 2986 3723 
Q 2913 3788 2913 3891 
Q 2913 4031 3008 4136 
Q 3103 4241 3244 4256 
Q 3125 4347 2950 4347 
Q 2853 4347 2767 4256 
Q 2681 4166 2656 4063 
Q 2616 3900 2478 3181 
L 2400 2759 
L 3059 2759 
Q 3122 2759 3122 2675 
Q 3119 2659 3109 2620 
Q 3100 2581 3083 2557 
Q 3066 2534 3041 2534 
L 2356 2534 
L 2059 972 
Q 2003 631 1929 279 
Q 1856 -72 1723 -442 
Q 1591 -813 1384 -1063 
Q 1178 -1313 897 -1313 
Q 681 -1313 511 -1189 
Q 341 -1066 341 -863 
Q 341 -700 445 -579 
Q 550 -459 709 -459 
Q 816 -459 887 -523 
Q 959 -588 959 -691 
Q 959 -828 857 -942 
Q 756 -1056 622 -1056 
z
" transform="scale(0.015625)"/>
      <path id="Cmr10-3a" d="M 538 353 
Q 538 497 644 600 
Q 750 703 891 703 
Q 978 703 1062 656 
Q 1147 609 1194 525 
Q 1241 441 1241 353 
Q 1241 213 1137 106 
Q 1034 0 891 0 
Q 750 0 644 106 
Q 538 213 538 353 
z
M 538 2406 
Q 538 2497 584 2578 
Q 631 2659 714 2709 
Q 797 2759 891 2759 
Q 981 2759 1064 2709 
Q 1147 2659 1194 2578 
Q 1241 2497 1241 2406 
Q 1241 2263 1139 2158 
Q 1038 2053 891 2053 
Q 747 2053 642 2158 
Q 538 2263 538 2406 
z
" transform="scale(0.015625)"/>
      <path id="Cmr10-28" d="M 1984 -1588 
Q 1628 -1306 1370 -942 
Q 1113 -578 948 -165 
Q 784 247 703 697 
Q 622 1147 622 1600 
Q 622 2059 703 2509 
Q 784 2959 951 3375 
Q 1119 3791 1378 4153 
Q 1638 4516 1984 4788 
Q 1984 4800 2016 4800 
L 2075 4800 
Q 2094 4800 2109 4783 
Q 2125 4766 2125 4744 
Q 2125 4716 2113 4703 
Q 1800 4397 1592 4047 
Q 1384 3697 1257 3301 
Q 1131 2906 1075 2482 
Q 1019 2059 1019 1600 
Q 1019 -434 2106 -1491 
Q 2125 -1509 2125 -1544 
Q 2125 -1559 2108 -1579 
Q 2091 -1600 2075 -1600 
L 2016 -1600 
Q 1984 -1600 1984 -1588 
z
" transform="scale(0.015625)"/>
      <path id="Cmr10-30" d="M 1600 -141 
Q 816 -141 533 504 
Q 250 1150 250 2041 
Q 250 2597 351 3087 
Q 453 3578 754 3920 
Q 1056 4263 1600 4263 
Q 2022 4263 2290 4056 
Q 2559 3850 2700 3523 
Q 2841 3197 2892 2823 
Q 2944 2450 2944 2041 
Q 2944 1491 2842 1011 
Q 2741 531 2444 195 
Q 2147 -141 1600 -141 
z
M 1600 25 
Q 1956 25 2131 390 
Q 2306 756 2347 1200 
Q 2388 1644 2388 2144 
Q 2388 2625 2347 3031 
Q 2306 3438 2132 3767 
Q 1959 4097 1600 4097 
Q 1238 4097 1063 3765 
Q 888 3434 847 3029 
Q 806 2625 806 2144 
Q 806 1788 823 1472 
Q 841 1156 916 820 
Q 991 484 1158 254 
Q 1325 25 1600 25 
z
" transform="scale(0.015625)"/>
      <path id="Cmmi10-3b" d="M 634 -1153 
Q 634 -1125 659 -1100 
Q 891 -878 1019 -587 
Q 1147 -297 1147 25 
L 1147 103 
Q 1044 0 891 0 
Q 744 0 641 103 
Q 538 206 538 353 
Q 538 503 641 603 
Q 744 703 891 703 
Q 1119 703 1216 492 
Q 1313 281 1313 25 
Q 1313 -331 1170 -651 
Q 1028 -972 769 -1228 
Q 744 -1241 728 -1241 
Q 697 -1241 665 -1212 
Q 634 -1184 634 -1153 
z
" transform="scale(0.015625)"/>
      <path id="Cmsy10-31" d="M 1575 -72 
Q 1213 -72 933 140 
Q 653 353 506 690 
Q 359 1028 359 1381 
Q 359 1653 445 1912 
Q 531 2172 693 2378 
Q 856 2584 1086 2706 
Q 1316 2828 1594 2828 
Q 1881 2828 2150 2718 
Q 2419 2609 2642 2428 
Q 2866 2247 3059 2009 
L 3250 1753 
Q 3441 2056 3672 2295 
Q 3903 2534 4195 2681 
Q 4488 2828 4819 2828 
Q 5097 2828 5325 2704 
Q 5553 2581 5712 2368 
Q 5872 2156 5953 1898 
Q 6034 1641 6034 1381 
Q 6034 1019 5882 683 
Q 5731 347 5451 137 
Q 5172 -72 4800 -72 
Q 4381 -72 4004 153 
Q 3628 378 3334 750 
L 3144 1006 
Q 2850 528 2451 228 
Q 2053 -72 1575 -72 
z
M 1509 153 
Q 2322 153 2963 1241 
L 2625 1672 
Q 2331 2059 2078 2278 
Q 1825 2497 1491 2497 
Q 1206 2497 986 2336 
Q 766 2175 645 1915 
Q 525 1656 525 1375 
Q 525 1159 592 942 
Q 659 725 787 547 
Q 916 369 1098 261 
Q 1281 153 1509 153 
z
M 3769 1088 
Q 4063 700 4316 481 
Q 4569 263 4903 263 
Q 5116 263 5294 356 
Q 5472 450 5601 609 
Q 5731 769 5800 969 
Q 5869 1169 5869 1381 
Q 5869 1678 5750 1961 
Q 5631 2244 5407 2425 
Q 5184 2606 4884 2606 
Q 4072 2606 3431 1516 
L 3769 1088 
z
" transform="scale(0.015625)"/>
      <path id="Cmr10-29" d="M 416 -1600 
Q 359 -1600 359 -1544 
Q 359 -1516 372 -1503 
Q 1466 -434 1466 1600 
Q 1466 3634 384 4691 
Q 359 4706 359 4744 
Q 359 4766 376 4783 
Q 394 4800 416 4800 
L 475 4800 
Q 494 4800 506 4788 
Q 966 4425 1272 3906 
Q 1578 3388 1720 2800 
Q 1863 2213 1863 1600 
Q 1863 1147 1786 708 
Q 1709 269 1542 -157 
Q 1375 -584 1119 -945 
Q 863 -1306 506 -1588 
Q 494 -1600 475 -1600 
L 416 -1600 
z
" transform="scale(0.015625)"/>
      <path id="Cmsy10-21" d="M 481 1472 
Q 428 1472 393 1512 
Q 359 1553 359 1600 
Q 359 1647 393 1687 
Q 428 1728 481 1728 
L 5338 1728 
Q 5094 1903 4906 2133 
Q 4719 2363 4594 2627 
Q 4469 2891 4416 3188 
Q 4416 3272 4481 3272 
L 4609 3272 
Q 4631 3272 4648 3253 
Q 4666 3234 4672 3213 
Q 4725 2938 4839 2702 
Q 4953 2466 5125 2262 
Q 5297 2059 5509 1912 
Q 5722 1766 5991 1672 
Q 6034 1644 6034 1600 
Q 6034 1550 5991 1538 
Q 5656 1422 5378 1192 
Q 5100 963 4919 652 
Q 4738 341 4672 -13 
Q 4666 -34 4647 -53 
Q 4628 -72 4609 -72 
L 4481 -72 
Q 4416 -72 4416 13 
Q 4497 450 4740 836 
Q 4984 1222 5338 1472 
L 481 1472 
z
" transform="scale(0.015625)"/>
      <path id="DejaVuSerif-77" d="M 3072 3322 
L 3922 728 
L 4672 2988 
L 4191 2988 
L 4191 3322 
L 5394 3322 
L 5394 2988 
L 5025 2988 
L 4038 0 
L 3559 0 
L 2741 2484 
L 1919 0 
L 1459 0 
L 475 2988 
L 103 2988 
L 103 3322 
L 1606 3322 
L 1606 2988 
L 1069 2988 
L 1813 728 
L 2669 3322 
L 3072 3322 
z
" transform="scale(0.015625)"/>
      <path id="DejaVuSerif-68" d="M 263 0 
L 263 331 
L 781 331 
L 781 4531 
L 231 4531 
L 231 4863 
L 1356 4863 
L 1356 2731 
Q 1516 3069 1770 3241 
Q 2025 3413 2363 3413 
Q 2913 3413 3172 3097 
Q 3431 2781 3431 2113 
L 3431 331 
L 3944 331 
L 3944 0 
L 2356 0 
L 2356 331 
L 2853 331 
L 2853 1931 
Q 2853 2541 2704 2764 
Q 2556 2988 2175 2988 
Q 1775 2988 1565 2697 
Q 1356 2406 1356 1850 
L 1356 331 
L 1856 331 
L 1856 0 
L 263 0 
z
" transform="scale(0.015625)"/>
      <path id="DejaVuSerif-70" d="M 1313 1825 
L 1313 1497 
Q 1313 897 1542 583 
Q 1772 269 2209 269 
Q 2650 269 2876 622 
Q 3103 975 3103 1663 
Q 3103 2353 2876 2703 
Q 2650 3053 2209 3053 
Q 1772 3053 1542 2737 
Q 1313 2422 1313 1825 
z
M 738 2988 
L 184 2988 
L 184 3322 
L 1313 3322 
L 1313 2803 
Q 1481 3116 1742 3264 
Q 2003 3413 2388 3413 
Q 3000 3413 3387 2928 
Q 3775 2444 3775 1663 
Q 3775 881 3387 395 
Q 3000 -91 2388 -91 
Q 2003 -91 1742 57 
Q 1481 206 1313 519 
L 1313 -997 
L 1856 -997 
L 1856 -1331 
L 184 -1331 
L 184 -997 
L 738 -997 
L 738 2988 
z
" transform="scale(0.015625)"/>
      <path id="DejaVuSerif-76" d="M 1581 0 
L 359 2988 
L -19 2988 
L -19 3322 
L 1509 3322 
L 1509 2988 
L 978 2988 
L 1913 703 
L 2847 2988 
L 2350 2988 
L 2350 3322 
L 3597 3322 
L 3597 2988 
L 3225 2988 
L 2003 0 
L 1581 0 
z
" transform="scale(0.015625)"/>
      <path id="DejaVuSerif-6d" d="M 3316 2675 
Q 3481 3041 3739 3227 
Q 3997 3413 4341 3413 
Q 4863 3413 5119 3089 
Q 5375 2766 5375 2113 
L 5375 331 
L 5894 331 
L 5894 0 
L 4300 0 
L 4300 331 
L 4800 331 
L 4800 2047 
Q 4800 2556 4650 2772 
Q 4500 2988 4153 2988 
Q 3769 2988 3567 2697 
Q 3366 2406 3366 1850 
L 3366 331 
L 3866 331 
L 3866 0 
L 2291 0 
L 2291 331 
L 2791 331 
L 2791 2069 
Q 2791 2566 2641 2777 
Q 2491 2988 2144 2988 
Q 1759 2988 1557 2697 
Q 1356 2406 1356 1850 
L 1356 331 
L 1856 331 
L 1856 0 
L 263 0 
L 263 331 
L 781 331 
L 781 2994 
L 231 2994 
L 231 3322 
L 1356 3322 
L 1356 2731 
Q 1516 3063 1762 3238 
Q 2009 3413 2322 3413 
Q 2709 3413 2968 3220 
Q 3228 3028 3316 2675 
z
" transform="scale(0.015625)"/>
      <path id="Cmmi10-61" d="M 1113 -72 
Q 709 -72 476 233 
Q 244 538 244 953 
Q 244 1363 456 1803 
Q 669 2244 1030 2536 
Q 1391 2828 1806 2828 
Q 1997 2828 2147 2725 
Q 2297 2622 2381 2444 
Q 2453 2700 2663 2700 
Q 2744 2700 2798 2651 
Q 2853 2603 2853 2522 
Q 2853 2503 2851 2493 
Q 2850 2484 2847 2472 
L 2400 684 
Q 2356 494 2356 372 
Q 2356 97 2541 97 
Q 2741 97 2845 351 
Q 2950 606 3022 941 
Q 3034 978 3072 978 
L 3150 978 
Q 3175 978 3190 956 
Q 3206 934 3206 916 
Q 3094 469 2961 198 
Q 2828 -72 2528 -72 
Q 2313 -72 2147 54 
Q 1981 181 1941 391 
Q 1528 -72 1113 -72 
z
M 1119 97 
Q 1350 97 1567 270 
Q 1784 444 1941 678 
Q 1947 684 1947 697 
L 2291 2088 
L 2297 2106 
Q 2259 2334 2132 2498 
Q 2006 2663 1791 2663 
Q 1575 2663 1389 2486 
Q 1203 2309 1075 2069 
Q 950 1813 836 1366 
Q 722 919 722 672 
Q 722 450 817 273 
Q 913 97 1119 97 
z
" transform="scale(0.015625)"/>
      <path id="Cmsy10-30" d="M 225 347 
Q 184 359 184 409 
L 966 3316 
Q 1003 3434 1093 3506 
Q 1184 3578 1300 3578 
Q 1450 3578 1564 3479 
Q 1678 3381 1678 3231 
Q 1678 3166 1644 3084 
L 488 319 
Q 466 275 428 275 
Q 394 275 320 306 
Q 247 338 225 347 
z
" transform="scale(0.015625)"/>
      <path id="Cmmi10-78" d="M 500 184 
Q 613 97 819 97 
Q 1019 97 1172 289 
Q 1325 481 1381 709 
L 1672 1844 
Q 1741 2153 1741 2266 
Q 1741 2425 1652 2544 
Q 1563 2663 1403 2663 
Q 1200 2663 1022 2536 
Q 844 2409 722 2214 
Q 600 2019 550 1819 
Q 538 1778 500 1778 
L 422 1778 
Q 372 1778 372 1838 
L 372 1856 
Q 434 2094 584 2320 
Q 734 2547 951 2687 
Q 1169 2828 1416 2828 
Q 1650 2828 1839 2703 
Q 2028 2578 2106 2363 
Q 2216 2559 2386 2693 
Q 2556 2828 2759 2828 
Q 2897 2828 3040 2779 
Q 3184 2731 3275 2631 
Q 3366 2531 3366 2381 
Q 3366 2219 3261 2101 
Q 3156 1984 2994 1984 
Q 2891 1984 2822 2050 
Q 2753 2116 2753 2216 
Q 2753 2350 2845 2451 
Q 2938 2553 3066 2572 
Q 2950 2663 2747 2663 
Q 2541 2663 2389 2472 
Q 2238 2281 2175 2047 
L 1894 916 
Q 1825 659 1825 494 
Q 1825 331 1917 214 
Q 2009 97 2163 97 
Q 2463 97 2698 361 
Q 2934 625 3009 941 
Q 3022 978 3059 978 
L 3138 978 
Q 3163 978 3178 961 
Q 3194 944 3194 922 
Q 3194 916 3188 903 
Q 3097 522 2806 225 
Q 2516 -72 2150 -72 
Q 1916 -72 1727 54 
Q 1538 181 1459 397 
Q 1359 209 1182 68 
Q 1006 -72 806 -72 
Q 669 -72 523 -23 
Q 378 25 287 125 
Q 197 225 197 378 
Q 197 528 301 651 
Q 406 775 563 775 
Q 669 775 741 711 
Q 813 647 813 544 
Q 813 409 723 309 
Q 634 209 500 184 
z
" transform="scale(0.015625)"/>
      <path id="Cmr10-3d" d="M 481 850 
Q 428 850 393 890 
Q 359 931 359 978 
Q 359 1031 393 1068 
Q 428 1106 481 1106 
L 4500 1106 
Q 4547 1106 4581 1068 
Q 4616 1031 4616 978 
Q 4616 931 4581 890 
Q 4547 850 4500 850 
L 481 850 
z
M 481 2094 
Q 428 2094 393 2131 
Q 359 2169 359 2222 
Q 359 2269 393 2309 
Q 428 2350 481 2350 
L 4500 2350 
Q 4547 2350 4581 2309 
Q 4616 2269 4616 2222 
Q 4616 2169 4581 2131 
Q 4547 2094 4500 2094 
L 481 2094 
z
" transform="scale(0.015625)"/>
      <path id="Cmmi10-3e" d="M 531 -128 
Q 531 -47 616 -6 
L 4013 1600 
L 594 3219 
Q 531 3238 531 3328 
Q 531 3372 567 3414 
Q 603 3456 659 3456 
Q 672 3456 709 3444 
L 4384 1709 
Q 4441 1681 4441 1600 
Q 4441 1516 4366 1484 
L 709 -244 
Q 672 -256 659 -256 
Q 603 -256 567 -214 
Q 531 -172 531 -128 
z
" transform="scale(0.015625)"/>
      <path id="DejaVuSerif-2e" d="M 603 325 
Q 603 500 722 622 
Q 841 744 1019 744 
Q 1191 744 1312 622 
Q 1434 500 1434 325 
Q 1434 153 1312 31 
Q 1191 -91 1019 -91 
Q 841 -91 722 29 
Q 603 150 603 325 
z
" transform="scale(0.015625)"/>
     </defs>
     <use xlink:href="#DejaVuSerif-46" transform="translate(0 0.601562)"/>
     <use xlink:href="#DejaVuSerif-69" transform="translate(69.384766 0.601562)"/>
     <use xlink:href="#DejaVuSerif-6e" transform="translate(101.367188 0.601562)"/>
     <use xlink:href="#DejaVuSerif-64" transform="translate(165.771484 0.601562)"/>
     <use xlink:href="#DejaVuSerif-20" transform="translate(229.785156 0.601562)"/>
     <use xlink:href="#DejaVuSerif-61" transform="translate(261.572266 0.601562)"/>
     <use xlink:href="#DejaVuSerif-6c" transform="translate(321.191406 0.601562)"/>
     <use xlink:href="#DejaVuSerif-6c" transform="translate(353.173828 0.601562)"/>
     <use xlink:href="#DejaVuSerif-20" transform="translate(385.15625 0.601562)"/>
     <use xlink:href="#DejaVuSerif-64" transform="translate(416.943359 0.601562)"/>
     <use xlink:href="#DejaVuSerif-69" transform="translate(480.957031 0.601562)"/>
     <use xlink:href="#DejaVuSerif-66" transform="translate(512.939453 0.601562)"/>
     <use xlink:href="#DejaVuSerif-66" transform="translate(549.951172 0.601562)"/>
     <use xlink:href="#DejaVuSerif-65" transform="translate(586.962891 0.601562)"/>
     <use xlink:href="#DejaVuSerif-72" transform="translate(646.142578 0.601562)"/>
     <use xlink:href="#DejaVuSerif-65" transform="translate(693.945312 0.601562)"/>
     <use xlink:href="#DejaVuSerif-6e" transform="translate(753.125 0.601562)"/>
     <use xlink:href="#DejaVuSerif-74" transform="translate(817.529297 0.601562)"/>
     <use xlink:href="#DejaVuSerif-69" transform="translate(857.714844 0.601562)"/>
     <use xlink:href="#DejaVuSerif-61" transform="translate(889.697266 0.601562)"/>
     <use xlink:href="#DejaVuSerif-62" transform="translate(949.316406 0.601562)"/>
     <use xlink:href="#DejaVuSerif-6c" transform="translate(1013.330078 0.601562)"/>
     <use xlink:href="#DejaVuSerif-65" transform="translate(1045.3125 0.601562)"/>
     <use xlink:href="#DejaVuSerif-20" transform="translate(1104.492188 0.601562)"/>
     <use xlink:href="#DejaVuSerif-66" transform="translate(1136.279297 0.601562)"/>
     <use xlink:href="#DejaVuSerif-75" transform="translate(1173.291016 0.601562)"/>
     <use xlink:href="#DejaVuSerif-6e" transform="translate(1237.695312 0.601562)"/>
     <use xlink:href="#DejaVuSerif-63" transform="translate(1302.099609 0.601562)"/>
     <use xlink:href="#DejaVuSerif-74" transform="translate(1358.105469 0.601562)"/>
     <use xlink:href="#DejaVuSerif-69" transform="translate(1398.291016 0.601562)"/>
     <use xlink:href="#DejaVuSerif-6f" transform="translate(1430.273438 0.601562)"/>
     <use xlink:href="#DejaVuSerif-6e" transform="translate(1490.478516 0.601562)"/>
     <use xlink:href="#DejaVuSerif-73" transform="translate(1554.882812 0.601562)"/>
     <use xlink:href="#DejaVuSerif-20" transform="translate(1606.201172 0.601562)"/>
     <use xlink:href="#Cmmi10-66" transform="translate(1637.988281 0.601562)"/>
     <use xlink:href="#Cmr10-3a" transform="translate(1704.423828 0.601562)"/>
     <use xlink:href="#Cmr10-28" transform="translate(1749.667969 0.601562)"/>
     <use xlink:href="#Cmr10-30" transform="translate(1788.486328 0.601562)"/>
     <use xlink:href="#Cmmi10-3b" transform="translate(1838.486328 0.601562)"/>
     <use xlink:href="#Cmsy10-31" transform="translate(1883.730469 0.601562)"/>
     <use xlink:href="#Cmr10-29" transform="translate(1983.730469 0.601562)"/>
     <use xlink:href="#Cmsy10-21" transform="translate(2040.107422 0.601562)"/>
     <use xlink:href="#Cmr10-28" transform="translate(2157.666016 0.601562)"/>
     <use xlink:href="#Cmr10-30" transform="translate(2196.484375 0.601562)"/>
     <use xlink:href="#Cmmi10-3b" transform="translate(2246.484375 0.601562)"/>
     <use xlink:href="#Cmsy10-31" transform="translate(2291.728516 0.601562)"/>
     <use xlink:href="#Cmr10-29" transform="translate(2391.728516 0.601562)"/>
     <use xlink:href="#DejaVuSerif-20" transform="translate(2430.546875 0.601562)"/>
     <use xlink:href="#DejaVuSerif-66" transform="translate(2462.333984 0.601562)"/>
     <use xlink:href="#DejaVuSerif-6f" transform="translate(2499.345703 0.601562)"/>
     <use xlink:href="#DejaVuSerif-72" transform="translate(2559.550781 0.601562)"/>
     <use xlink:href="#DejaVuSerif-20" transform="translate(2607.353516 0.601562)"/>
     <use xlink:href="#DejaVuSerif-77" transform="translate(2639.140625 0.601562)"/>
     <use xlink:href="#DejaVuSerif-68" transform="translate(2724.736328 0.601562)"/>
     <use xlink:href="#DejaVuSerif-69" transform="translate(2789.140625 0.601562)"/>
     <use xlink:href="#DejaVuSerif-63" transform="translate(2821.123047 0.601562)"/>
     <use xlink:href="#DejaVuSerif-68" transform="translate(2877.128906 0.601562)"/>
     <use xlink:href="#DejaVuSerif-20" transform="translate(2941.533203 0.601562)"/>
     <use xlink:href="#DejaVuSerif-74" transform="translate(2973.320312 0.601562)"/>
     <use xlink:href="#DejaVuSerif-68" transform="translate(3013.505859 0.601562)"/>
     <use xlink:href="#DejaVuSerif-65" transform="translate(3077.910156 0.601562)"/>
     <use xlink:href="#DejaVuSerif-72" transform="translate(3137.089844 0.601562)"/>
     <use xlink:href="#DejaVuSerif-65" transform="translate(3184.892578 0.601562)"/>
     <use xlink:href="#DejaVuSerif-20" transform="translate(3244.072266 0.601562)"/>
     <use xlink:href="#DejaVuSerif-69" transform="translate(3275.859375 0.601562)"/>
     <use xlink:href="#DejaVuSerif-73" transform="translate(3307.841797 0.601562)"/>
     <use xlink:href="#DejaVuSerif-20" transform="translate(3359.160156 0.601562)"/>
     <use xlink:href="#DejaVuSerif-61" transform="translate(3390.947266 0.601562)"/>
     <use xlink:href="#DejaVuSerif-20" transform="translate(3450.566406 0.601562)"/>
     <use xlink:href="#DejaVuSerif-70" transform="translate(3482.353516 0.601562)"/>
     <use xlink:href="#DejaVuSerif-6f" transform="translate(3546.367188 0.601562)"/>
     <use xlink:href="#DejaVuSerif-73" transform="translate(3606.572266 0.601562)"/>
     <use xlink:href="#DejaVuSerif-69" transform="translate(3657.890625 0.601562)"/>
     <use xlink:href="#DejaVuSerif-74" transform="translate(3689.873047 0.601562)"/>
     <use xlink:href="#DejaVuSerif-69" transform="translate(3730.058594 0.601562)"/>
     <use xlink:href="#DejaVuSerif-76" transform="translate(3762.041016 0.601562)"/>
     <use xlink:href="#DejaVuSerif-65" transform="translate(3818.535156 0.601562)"/>
     <use xlink:href="#DejaVuSerif-20" transform="translate(3877.714844 0.601562)"/>
     <use xlink:href="#DejaVuSerif-72" transform="translate(3909.501953 0.601562)"/>
     <use xlink:href="#DejaVuSerif-65" transform="translate(3957.304688 0.601562)"/>
     <use xlink:href="#DejaVuSerif-61" transform="translate(4016.484375 0.601562)"/>
     <use xlink:href="#DejaVuSerif-6c" transform="translate(4076.103516 0.601562)"/>
     <use xlink:href="#DejaVuSerif-20" transform="translate(4108.085938 0.601562)"/>
     <use xlink:href="#DejaVuSerif-6e" transform="translate(4139.873047 0.601562)"/>
     <use xlink:href="#DejaVuSerif-75" transform="translate(4204.277344 0.601562)"/>
     <use xlink:href="#DejaVuSerif-6d" transform="translate(4268.681641 0.601562)"/>
     <use xlink:href="#DejaVuSerif-62" transform="translate(4363.505859 0.601562)"/>
     <use xlink:href="#DejaVuSerif-65" transform="translate(4427.519531 0.601562)"/>
     <use xlink:href="#DejaVuSerif-72" transform="translate(4486.699219 0.601562)"/>
     <use xlink:href="#DejaVuSerif-20" transform="translate(4534.501953 0.601562)"/>
     <use xlink:href="#Cmmi10-61" transform="translate(4566.289062 0.601562)"/>
     <use xlink:href="#DejaVuSerif-20" transform="translate(4619.072266 0.601562)"/>
     <use xlink:href="#DejaVuSerif-73" transform="translate(4650.859375 0.601562)"/>
     <use xlink:href="#DejaVuSerif-75" transform="translate(4702.177734 0.601562)"/>
     <use xlink:href="#DejaVuSerif-63" transform="translate(4766.582031 0.601562)"/>
     <use xlink:href="#DejaVuSerif-68" transform="translate(4822.587891 0.601562)"/>
     <use xlink:href="#DejaVuSerif-20" transform="translate(4886.992188 0.601562)"/>
     <use xlink:href="#DejaVuSerif-74" transform="translate(4918.779297 0.601562)"/>
     <use xlink:href="#DejaVuSerif-68" transform="translate(4958.964844 0.601562)"/>
     <use xlink:href="#DejaVuSerif-61" transform="translate(5023.369141 0.601562)"/>
     <use xlink:href="#DejaVuSerif-74" transform="translate(5082.988281 0.601562)"/>
     <use xlink:href="#DejaVuSerif-20" transform="translate(5123.173828 0.601562)"/>
     <use xlink:href="#Cmmi10-66" transform="translate(5154.960938 0.601562)"/>
     <use xlink:href="#Cmsy10-30" transform="translate(5215.670078 38.865625) scale(0.7)"/>
     <use xlink:href="#Cmr10-28" transform="translate(5241.290586 0.601562)"/>
     <use xlink:href="#Cmmi10-61" transform="translate(5282.108945 38.889063) scale(0.7)"/>
     <use xlink:href="#Cmmi10-78" transform="translate(5280.108945 -24.079688) scale(0.7)"/>
     <use xlink:href="#Cmr10-29" transform="translate(5332.565 0.601562)"/>
     <use xlink:href="#Cmr10-3d" transform="translate(5388.941953 0.601562)"/>
     <use xlink:href="#Cmmi10-78" transform="translate(5528.186094 38.889063) scale(0.7)"/>
     <use xlink:href="#Cmmi10-66" transform="translate(5484.186094 -45.648438) scale(0.7)"/>
     <use xlink:href="#Cmr10-28" transform="translate(5518.399961 -45.648438) scale(0.7)"/>
     <use xlink:href="#Cmmi10-78" transform="translate(5545.572812 -45.648438) scale(0.7)"/>
     <use xlink:href="#Cmr10-29" transform="translate(5585.528867 -45.648438) scale(0.7)"/>
     <use xlink:href="#DejaVuSerif-20" transform="translate(5625.201719 0.601562)"/>
     <use xlink:href="#DejaVuSerif-66" transform="translate(5656.988828 0.601562)"/>
     <use xlink:href="#DejaVuSerif-6f" transform="translate(5694.000547 0.601562)"/>
     <use xlink:href="#DejaVuSerif-72" transform="translate(5754.205625 0.601562)"/>
     <use xlink:href="#DejaVuSerif-20" transform="translate(5802.008359 0.601562)"/>
     <use xlink:href="#DejaVuSerif-61" transform="translate(5833.795469 0.601562)"/>
     <use xlink:href="#DejaVuSerif-6c" transform="translate(5893.414609 0.601562)"/>
     <use xlink:href="#DejaVuSerif-6c" transform="translate(5925.397031 0.601562)"/>
     <use xlink:href="#DejaVuSerif-20" transform="translate(5957.379453 0.601562)"/>
     <use xlink:href="#Cmmi10-78" transform="translate(5989.166562 0.601562)"/>
     <use xlink:href="#Cmmi10-3e" transform="translate(6063.805234 0.601562)"/>
     <use xlink:href="#Cmr10-30" transform="translate(6159.049375 0.601562)"/>
     <use xlink:href="#DejaVuSerif-2e" transform="translate(6209.049375 0.601562)"/>
     <path d="M 5280.108945 13.101562 
L 5280.108945 19.351562 
L 5320.065 19.351562 
L 5320.065 13.101562 
L 5280.108945 13.101562 
z
"/>
     <path d="M 5484.186094 13.101562 
L 5484.186094 19.351562 
L 5612.701719 19.351562 
L 5612.701719 13.101562 
L 5484.186094 13.101562 
z
"/>
    </g>
   </g>
  </g>
 </g>
</svg>
