<?xml version="1.0" encoding="utf-8" standalone="no"?>
<!DOCTYPE svg PUBLIC "-//W3C//DTD SVG 1.1//EN"
  "http://www.w3.org/Graphics/SVG/1.1/DTD/svg11.dtd">
<svg xmlns:xlink="http://www.w3.org/1999/xlink" width="1064.64pt" height="180.72pt" viewBox="0 0 1064.64 180.72" xmlns="http://www.w3.org/2000/svg" version="1.1">
 <metadata>
  <rdf:RDF xmlns:dc="http://purl.org/dc/elements/1.1/" xmlns:cc="http://creativecommons.org/ns#" xmlns:rdf="http://www.w3.org/1999/02/22-rdf-syntax-ns#">
   <cc:Work>
    <dc:type rdf:resource="http://purl.org/dc/dcmitype/StillImage"/>
    <dc:date>2025-05-29T18:43:48.090722</dc:date>
    <dc:format>image/svg+xml</dc:format>
    <dc:creator>
     <cc:Agent>
      <dc:title>Matplotlib v3.10.3, https://matplotlib.org/</dc:title>
     </cc:Agent>
    </dc:creator>
   </cc:Work>
  </rdf:RDF>
 </metadata>
 <defs>
  <style type="text/css">*{stroke-linejoin: round; stroke-linecap: butt}</style>
 </defs>
 <g id="figure_1">
  <g id="patch_1">
   <path d="M 0 180.72 
L 1064.64 180.72 
L 1064.64 0 
L 0 0 
z
" style="fill: #ffffff"/>
  </g>
  <g id="axes_1">
   <g id="text_1">
    <!-- Let $F$ be a finite field with $n$ elements, and assume $n$ is odd. Suppose $x^2 + bx + c$ is an irreducible polynomial over $F$. For how many elements $d \in F$ is $x^2 + bx + c + d$ irreducible? -->
    <g transform="translate(7.2 94.08) scale(0.12 -0.12)">
     <defs>
      <path id="DejaVuSerif-4c" d="M 353 0 
L 353 331 
L 947 331 
L 947 4331 
L 353 4331 
L 353 4666 
L 2175 4666 
L 2175 4331 
L 1581 4331 
L 1581 384 
L 3713 384 
L 3713 1166 
L 4097 1166 
L 4097 0 
L 353 0 
z
" transform="scale(0.015625)"/>
      <path id="DejaVuSerif-65" d="M 3469 1600 
L 991 1600 
L 991 1575 
Q 991 903 1244 561 
Q 1497 219 1991 219 
Q 2369 219 2611 417 
Q 2853 616 2950 1006 
L 3413 1006 
Q 3275 459 2904 184 
Q 2534 -91 1931 -91 
Q 1203 -91 761 389 
Q 319 869 319 1663 
Q 319 2450 753 2931 
Q 1188 3413 1894 3413 
Q 2647 3413 3050 2948 
Q 3453 2484 3469 1600 
z
M 2791 1931 
Q 2772 2513 2545 2808 
Q 2319 3103 1894 3103 
Q 1497 3103 1269 2806 
Q 1041 2509 991 1931 
L 2791 1931 
z
" transform="scale(0.015625)"/>
      <path id="DejaVuSerif-74" d="M 691 2988 
L 184 2988 
L 184 3322 
L 691 3322 
L 691 4353 
L 1269 4353 
L 1269 3322 
L 2350 3322 
L 2350 2988 
L 1269 2988 
L 1269 878 
Q 1269 456 1350 337 
Q 1431 219 1650 219 
Q 1875 219 1978 351 
Q 2081 484 2088 781 
L 2522 781 
Q 2497 328 2275 118 
Q 2053 -91 1600 -91 
Q 1103 -91 897 129 
Q 691 350 691 878 
L 691 2988 
z
" transform="scale(0.015625)"/>
      <path id="DejaVuSerif-20" transform="scale(0.015625)"/>
      <path id="Cmmi10-46" d="M 300 0 
Q 238 0 238 84 
Q 241 100 250 139 
Q 259 178 276 201 
Q 294 225 319 225 
Q 709 225 863 269 
Q 947 297 984 441 
L 1863 3956 
Q 1875 4019 1875 4044 
Q 1875 4113 1797 4122 
Q 1678 4147 1338 4147 
Q 1275 4147 1275 4231 
Q 1278 4247 1287 4286 
Q 1297 4325 1314 4348 
Q 1331 4372 1356 4372 
L 4738 4372 
Q 4800 4372 4800 4288 
L 4647 2963 
Q 4647 2944 4625 2925 
Q 4603 2906 4581 2906 
L 4525 2906 
Q 4459 2906 4459 2988 
Q 4500 3278 4500 3463 
Q 4500 3781 4362 3931 
Q 4225 4081 4015 4114 
Q 3806 4147 3438 4147 
L 2753 4147 
Q 2578 4147 2522 4117 
Q 2466 4088 2419 3928 
L 2009 2297 
L 2491 2297 
Q 2728 2297 2875 2322 
Q 3022 2347 3119 2419 
Q 3216 2491 3280 2627 
Q 3344 2763 3397 2988 
Q 3416 3047 3463 3047 
L 3519 3047 
Q 3584 3047 3584 2963 
L 3194 1381 
Q 3166 1325 3128 1325 
L 3072 1325 
Q 3009 1325 3009 1409 
Q 3025 1475 3034 1519 
Q 3044 1563 3058 1645 
Q 3072 1728 3072 1791 
Q 3072 1975 2909 2025 
Q 2747 2075 2484 2075 
L 1959 2075 
L 1544 416 
Q 1528 353 1528 353 
Q 1528 278 1575 269 
Q 1741 225 2228 225 
Q 2291 225 2291 141 
Q 2269 50 2256 25 
Q 2244 0 2181 0 
L 300 0 
z
" transform="scale(0.015625)"/>
      <path id="DejaVuSerif-62" d="M 738 331 
L 738 4531 
L 184 4531 
L 184 4863 
L 1313 4863 
L 1313 2803 
Q 1481 3116 1742 3264 
Q 2003 3413 2388 3413 
Q 3000 3413 3387 2928 
Q 3775 2444 3775 1663 
Q 3775 881 3387 395 
Q 3000 -91 2388 -91 
Q 2003 -91 1742 57 
Q 1481 206 1313 519 
L 1313 0 
L 184 0 
L 184 331 
L 738 331 
z
M 1313 1497 
Q 1313 897 1542 583 
Q 1772 269 2209 269 
Q 2650 269 2876 622 
Q 3103 975 3103 1663 
Q 3103 2353 2876 2703 
Q 2650 3053 2209 3053 
Q 1772 3053 1542 2737 
Q 1313 2422 1313 1825 
L 1313 1497 
z
" transform="scale(0.015625)"/>
      <path id="DejaVuSerif-61" d="M 2547 1044 
L 2547 1747 
L 1806 1747 
Q 1378 1747 1168 1562 
Q 959 1378 959 997 
Q 959 650 1171 447 
Q 1384 244 1747 244 
Q 2106 244 2326 466 
Q 2547 688 2547 1044 
z
M 3122 2075 
L 3122 331 
L 3634 331 
L 3634 0 
L 2547 0 
L 2547 359 
Q 2356 128 2106 18 
Q 1856 -91 1522 -91 
Q 969 -91 644 203 
Q 319 497 319 997 
Q 319 1513 691 1797 
Q 1063 2081 1741 2081 
L 2547 2081 
L 2547 2309 
Q 2547 2688 2317 2895 
Q 2088 3103 1672 3103 
Q 1328 3103 1125 2947 
Q 922 2791 872 2484 
L 575 2484 
L 575 3156 
Q 875 3284 1158 3348 
Q 1441 3413 1709 3413 
Q 2400 3413 2761 3070 
Q 3122 2728 3122 2075 
z
" transform="scale(0.015625)"/>
      <path id="DejaVuSerif-66" d="M 2753 4078 
L 2450 4078 
Q 2447 4313 2317 4434 
Q 2188 4556 1941 4556 
Q 1619 4556 1487 4379 
Q 1356 4203 1356 3750 
L 1356 3322 
L 2284 3322 
L 2284 2988 
L 1356 2988 
L 1356 331 
L 2094 331 
L 2094 0 
L 231 0 
L 231 331 
L 781 331 
L 781 2988 
L 231 2988 
L 231 3322 
L 781 3322 
L 781 3738 
Q 781 4294 1070 4578 
Q 1359 4863 1919 4863 
Q 2128 4863 2337 4825 
Q 2547 4788 2753 4709 
L 2753 4078 
z
" transform="scale(0.015625)"/>
      <path id="DejaVuSerif-69" d="M 622 4353 
Q 622 4497 726 4603 
Q 831 4709 978 4709 
Q 1122 4709 1226 4603 
Q 1331 4497 1331 4353 
Q 1331 4206 1228 4103 
Q 1125 4000 978 4000 
Q 831 4000 726 4103 
Q 622 4206 622 4353 
z
M 1356 331 
L 1900 331 
L 1900 0 
L 231 0 
L 231 331 
L 781 331 
L 781 2988 
L 231 2988 
L 231 3322 
L 1356 3322 
L 1356 331 
z
" transform="scale(0.015625)"/>
      <path id="DejaVuSerif-6e" d="M 263 0 
L 263 331 
L 781 331 
L 781 2988 
L 231 2988 
L 231 3322 
L 1356 3322 
L 1356 2731 
Q 1516 3069 1770 3241 
Q 2025 3413 2363 3413 
Q 2913 3413 3172 3097 
Q 3431 2781 3431 2113 
L 3431 331 
L 3944 331 
L 3944 0 
L 2356 0 
L 2356 331 
L 2853 331 
L 2853 1931 
Q 2853 2541 2703 2767 
Q 2553 2994 2175 2994 
Q 1775 2994 1565 2701 
Q 1356 2409 1356 1850 
L 1356 331 
L 1856 331 
L 1856 0 
L 263 0 
z
" transform="scale(0.015625)"/>
      <path id="DejaVuSerif-6c" d="M 1313 331 
L 1856 331 
L 1856 0 
L 184 0 
L 184 331 
L 738 331 
L 738 4531 
L 184 4531 
L 184 4863 
L 1313 4863 
L 1313 331 
z
" transform="scale(0.015625)"/>
      <path id="DejaVuSerif-64" d="M 3359 331 
L 3909 331 
L 3909 0 
L 2784 0 
L 2784 519 
Q 2616 206 2355 57 
Q 2094 -91 1709 -91 
Q 1097 -91 708 395 
Q 319 881 319 1663 
Q 319 2444 706 2928 
Q 1094 3413 1709 3413 
Q 2094 3413 2355 3264 
Q 2616 3116 2784 2803 
L 2784 4531 
L 2241 4531 
L 2241 4863 
L 3359 4863 
L 3359 331 
z
M 2784 1497 
L 2784 1825 
Q 2784 2422 2554 2737 
Q 2325 3053 1888 3053 
Q 1444 3053 1217 2703 
Q 991 2353 991 1663 
Q 991 975 1217 622 
Q 1444 269 1888 269 
Q 2325 269 2554 583 
Q 2784 897 2784 1497 
z
" transform="scale(0.015625)"/>
      <path id="DejaVuSerif-77" d="M 3072 3322 
L 3922 728 
L 4672 2988 
L 4191 2988 
L 4191 3322 
L 5394 3322 
L 5394 2988 
L 5025 2988 
L 4038 0 
L 3559 0 
L 2741 2484 
L 1919 0 
L 1459 0 
L 475 2988 
L 103 2988 
L 103 3322 
L 1606 3322 
L 1606 2988 
L 1069 2988 
L 1813 728 
L 2669 3322 
L 3072 3322 
z
" transform="scale(0.015625)"/>
      <path id="DejaVuSerif-68" d="M 263 0 
L 263 331 
L 781 331 
L 781 4531 
L 231 4531 
L 231 4863 
L 1356 4863 
L 1356 2731 
Q 1516 3069 1770 3241 
Q 2025 3413 2363 3413 
Q 2913 3413 3172 3097 
Q 3431 2781 3431 2113 
L 3431 331 
L 3944 331 
L 3944 0 
L 2356 0 
L 2356 331 
L 2853 331 
L 2853 1931 
Q 2853 2541 2704 2764 
Q 2556 2988 2175 2988 
Q 1775 2988 1565 2697 
Q 1356 2406 1356 1850 
L 1356 331 
L 1856 331 
L 1856 0 
L 263 0 
z
" transform="scale(0.015625)"/>
      <path id="Cmmi10-6e" d="M 494 109 
Q 494 147 500 166 
L 978 2075 
Q 1025 2253 1025 2388 
Q 1025 2663 838 2663 
Q 638 2663 541 2423 
Q 444 2184 353 1819 
Q 353 1800 334 1789 
Q 316 1778 300 1778 
L 225 1778 
Q 203 1778 187 1801 
Q 172 1825 172 1844 
Q 241 2122 305 2315 
Q 369 2509 505 2668 
Q 641 2828 844 2828 
Q 1084 2828 1268 2676 
Q 1453 2525 1453 2291 
Q 1644 2541 1900 2684 
Q 2156 2828 2444 2828 
Q 2672 2828 2837 2750 
Q 3003 2672 3095 2514 
Q 3188 2356 3188 2138 
Q 3188 1875 3070 1503 
Q 2953 1131 2778 672 
Q 2688 463 2688 288 
Q 2688 97 2834 97 
Q 3084 97 3251 365 
Q 3419 634 3488 941 
Q 3500 978 3541 978 
L 3616 978 
Q 3641 978 3658 962 
Q 3675 947 3675 922 
Q 3675 916 3669 903 
Q 3581 541 3364 234 
Q 3147 -72 2822 -72 
Q 2597 -72 2437 83 
Q 2278 238 2278 459 
Q 2278 578 2328 709 
Q 2409 919 2514 1209 
Q 2619 1500 2686 1765 
Q 2753 2031 2753 2234 
Q 2753 2413 2679 2538 
Q 2606 2663 2431 2663 
Q 2197 2663 2000 2559 
Q 1803 2456 1656 2286 
Q 1509 2116 1388 1881 
L 953 141 
Q 931 53 854 -9 
Q 778 -72 684 -72 
Q 606 -72 550 -22 
Q 494 28 494 109 
z
" transform="scale(0.015625)"/>
      <path id="DejaVuSerif-6d" d="M 3316 2675 
Q 3481 3041 3739 3227 
Q 3997 3413 4341 3413 
Q 4863 3413 5119 3089 
Q 5375 2766 5375 2113 
L 5375 331 
L 5894 331 
L 5894 0 
L 4300 0 
L 4300 331 
L 4800 331 
L 4800 2047 
Q 4800 2556 4650 2772 
Q 4500 2988 4153 2988 
Q 3769 2988 3567 2697 
Q 3366 2406 3366 1850 
L 3366 331 
L 3866 331 
L 3866 0 
L 2291 0 
L 2291 331 
L 2791 331 
L 2791 2069 
Q 2791 2566 2641 2777 
Q 2491 2988 2144 2988 
Q 1759 2988 1557 2697 
Q 1356 2406 1356 1850 
L 1356 331 
L 1856 331 
L 1856 0 
L 263 0 
L 263 331 
L 781 331 
L 781 2994 
L 231 2994 
L 231 3322 
L 1356 3322 
L 1356 2731 
Q 1516 3063 1762 3238 
Q 2009 3413 2322 3413 
Q 2709 3413 2968 3220 
Q 3228 3028 3316 2675 
z
" transform="scale(0.015625)"/>
      <path id="DejaVuSerif-73" d="M 359 184 
L 359 959 
L 691 959 
Q 703 588 923 403 
Q 1144 219 1575 219 
Q 1963 219 2166 364 
Q 2369 509 2369 788 
Q 2369 1006 2220 1140 
Q 2072 1275 1594 1428 
L 1178 1569 
Q 750 1706 558 1912 
Q 366 2119 366 2438 
Q 366 2894 700 3153 
Q 1034 3413 1625 3413 
Q 1888 3413 2178 3344 
Q 2469 3275 2778 3144 
L 2778 2419 
L 2447 2419 
Q 2434 2741 2221 2922 
Q 2009 3103 1644 3103 
Q 1281 3103 1095 2975 
Q 909 2847 909 2591 
Q 909 2381 1050 2254 
Q 1191 2128 1613 1997 
L 2069 1856 
Q 2541 1709 2748 1489 
Q 2956 1269 2956 922 
Q 2956 450 2595 179 
Q 2234 -91 1600 -91 
Q 1278 -91 972 -22 
Q 666 47 359 184 
z
" transform="scale(0.015625)"/>
      <path id="DejaVuSerif-2c" d="M 231 -622 
Q 525 -406 662 -114 
Q 800 178 800 594 
L 800 709 
L 1416 709 
Q 1391 175 1164 -208 
Q 938 -591 481 -872 
L 231 -622 
z
" transform="scale(0.015625)"/>
      <path id="DejaVuSerif-75" d="M 2266 3322 
L 3341 3322 
L 3341 331 
L 3884 331 
L 3884 0 
L 2766 0 
L 2766 588 
Q 2606 256 2353 82 
Q 2100 -91 1766 -91 
Q 1213 -91 952 223 
Q 691 538 691 1209 
L 691 2988 
L 172 2988 
L 172 3322 
L 1269 3322 
L 1269 1388 
Q 1269 781 1417 556 
Q 1566 331 1947 331 
Q 2347 331 2556 625 
Q 2766 919 2766 1478 
L 2766 2988 
L 2266 2988 
L 2266 3322 
z
" transform="scale(0.015625)"/>
      <path id="DejaVuSerif-6f" d="M 1925 219 
Q 2388 219 2623 584 
Q 2859 950 2859 1663 
Q 2859 2375 2623 2739 
Q 2388 3103 1925 3103 
Q 1463 3103 1227 2739 
Q 991 2375 991 1663 
Q 991 950 1228 584 
Q 1466 219 1925 219 
z
M 1925 -91 
Q 1200 -91 759 389 
Q 319 869 319 1663 
Q 319 2456 758 2934 
Q 1197 3413 1925 3413 
Q 2653 3413 3092 2934 
Q 3531 2456 3531 1663 
Q 3531 869 3092 389 
Q 2653 -91 1925 -91 
z
" transform="scale(0.015625)"/>
      <path id="DejaVuSerif-2e" d="M 603 325 
Q 603 500 722 622 
Q 841 744 1019 744 
Q 1191 744 1312 622 
Q 1434 500 1434 325 
Q 1434 153 1312 31 
Q 1191 -91 1019 -91 
Q 841 -91 722 29 
Q 603 150 603 325 
z
" transform="scale(0.015625)"/>
      <path id="DejaVuSerif-53" d="M 594 225 
L 594 1288 
L 953 1284 
Q 969 753 1261 498 
Q 1553 244 2150 244 
Q 2706 244 2998 464 
Q 3291 684 3291 1106 
Q 3291 1444 3114 1625 
Q 2938 1806 2369 1978 
L 1753 2163 
Q 1084 2366 811 2669 
Q 538 2972 538 3500 
Q 538 4094 959 4422 
Q 1381 4750 2144 4750 
Q 2469 4750 2856 4679 
Q 3244 4609 3681 4475 
L 3681 3481 
L 3328 3481 
Q 3275 3975 2998 4195 
Q 2722 4416 2156 4416 
Q 1663 4416 1405 4214 
Q 1147 4013 1147 3628 
Q 1147 3294 1340 3103 
Q 1534 2913 2163 2725 
L 2741 2553 
Q 3375 2363 3645 2067 
Q 3916 1772 3916 1275 
Q 3916 597 3481 253 
Q 3047 -91 2188 -91 
Q 1803 -91 1404 -12 
Q 1006 66 594 225 
z
" transform="scale(0.015625)"/>
      <path id="DejaVuSerif-70" d="M 1313 1825 
L 1313 1497 
Q 1313 897 1542 583 
Q 1772 269 2209 269 
Q 2650 269 2876 622 
Q 3103 975 3103 1663 
Q 3103 2353 2876 2703 
Q 2650 3053 2209 3053 
Q 1772 3053 1542 2737 
Q 1313 2422 1313 1825 
z
M 738 2988 
L 184 2988 
L 184 3322 
L 1313 3322 
L 1313 2803 
Q 1481 3116 1742 3264 
Q 2003 3413 2388 3413 
Q 3000 3413 3387 2928 
Q 3775 2444 3775 1663 
Q 3775 881 3387 395 
Q 3000 -91 2388 -91 
Q 2003 -91 1742 57 
Q 1481 206 1313 519 
L 1313 -997 
L 1856 -997 
L 1856 -1331 
L 184 -1331 
L 184 -997 
L 738 -997 
L 738 2988 
z
" transform="scale(0.015625)"/>
      <path id="Cmmi10-78" d="M 500 184 
Q 613 97 819 97 
Q 1019 97 1172 289 
Q 1325 481 1381 709 
L 1672 1844 
Q 1741 2153 1741 2266 
Q 1741 2425 1652 2544 
Q 1563 2663 1403 2663 
Q 1200 2663 1022 2536 
Q 844 2409 722 2214 
Q 600 2019 550 1819 
Q 538 1778 500 1778 
L 422 1778 
Q 372 1778 372 1838 
L 372 1856 
Q 434 2094 584 2320 
Q 734 2547 951 2687 
Q 1169 2828 1416 2828 
Q 1650 2828 1839 2703 
Q 2028 2578 2106 2363 
Q 2216 2559 2386 2693 
Q 2556 2828 2759 2828 
Q 2897 2828 3040 2779 
Q 3184 2731 3275 2631 
Q 3366 2531 3366 2381 
Q 3366 2219 3261 2101 
Q 3156 1984 2994 1984 
Q 2891 1984 2822 2050 
Q 2753 2116 2753 2216 
Q 2753 2350 2845 2451 
Q 2938 2553 3066 2572 
Q 2950 2663 2747 2663 
Q 2541 2663 2389 2472 
Q 2238 2281 2175 2047 
L 1894 916 
Q 1825 659 1825 494 
Q 1825 331 1917 214 
Q 2009 97 2163 97 
Q 2463 97 2698 361 
Q 2934 625 3009 941 
Q 3022 978 3059 978 
L 3138 978 
Q 3163 978 3178 961 
Q 3194 944 3194 922 
Q 3194 916 3188 903 
Q 3097 522 2806 225 
Q 2516 -72 2150 -72 
Q 1916 -72 1727 54 
Q 1538 181 1459 397 
Q 1359 209 1182 68 
Q 1006 -72 806 -72 
Q 669 -72 523 -23 
Q 378 25 287 125 
Q 197 225 197 378 
Q 197 528 301 651 
Q 406 775 563 775 
Q 669 775 741 711 
Q 813 647 813 544 
Q 813 409 723 309 
Q 634 209 500 184 
z
" transform="scale(0.015625)"/>
      <path id="Cmr10-32" d="M 319 0 
L 319 172 
Q 319 188 331 206 
L 1325 1306 
Q 1550 1550 1690 1715 
Q 1831 1881 1968 2097 
Q 2106 2313 2186 2536 
Q 2266 2759 2266 3009 
Q 2266 3272 2169 3511 
Q 2072 3750 1880 3894 
Q 1688 4038 1416 4038 
Q 1138 4038 916 3870 
Q 694 3703 603 3438 
Q 628 3444 672 3444 
Q 816 3444 917 3347 
Q 1019 3250 1019 3097 
Q 1019 2950 917 2848 
Q 816 2747 672 2747 
Q 522 2747 420 2851 
Q 319 2956 319 3097 
Q 319 3338 409 3548 
Q 500 3759 670 3923 
Q 841 4088 1055 4175 
Q 1269 4263 1509 4263 
Q 1875 4263 2190 4108 
Q 2506 3953 2690 3670 
Q 2875 3388 2875 3009 
Q 2875 2731 2753 2481 
Q 2631 2231 2440 2026 
Q 2250 1822 1953 1562 
Q 1656 1303 1563 1216 
L 838 519 
L 1453 519 
Q 1906 519 2211 526 
Q 2516 534 2534 550 
Q 2609 631 2688 1141 
L 2875 1141 
L 2694 0 
L 319 0 
z
" transform="scale(0.015625)"/>
      <path id="Cmr10-2b" d="M 481 1472 
Q 428 1472 393 1512 
Q 359 1553 359 1600 
Q 359 1647 393 1687 
Q 428 1728 481 1728 
L 2363 1728 
L 2363 3616 
Q 2363 3666 2400 3698 
Q 2438 3731 2491 3731 
Q 2538 3731 2578 3698 
Q 2619 3666 2619 3616 
L 2619 1728 
L 4500 1728 
Q 4547 1728 4581 1687 
Q 4616 1647 4616 1600 
Q 4616 1553 4581 1512 
Q 4547 1472 4500 1472 
L 2619 1472 
L 2619 -416 
Q 2619 -466 2578 -498 
Q 2538 -531 2491 -531 
Q 2438 -531 2400 -498 
Q 2363 -466 2363 -416 
L 2363 1472 
L 481 1472 
z
" transform="scale(0.015625)"/>
      <path id="Cmmi10-62" d="M 1106 -72 
Q 719 -72 503 231 
Q 288 534 288 941 
Q 288 1000 317 1173 
Q 347 1347 347 1388 
L 966 3872 
Q 991 3981 997 4044 
Q 997 4147 581 4147 
Q 519 4147 519 4231 
Q 522 4247 533 4287 
Q 544 4328 561 4350 
Q 578 4372 609 4372 
L 1472 4441 
Q 1550 4441 1550 4359 
L 1075 2472 
Q 1438 2828 1806 2828 
Q 2078 2828 2273 2684 
Q 2469 2541 2566 2306 
Q 2663 2072 2663 1806 
Q 2663 1497 2542 1167 
Q 2422 838 2209 555 
Q 1997 272 1712 100 
Q 1428 -72 1106 -72 
z
M 1119 97 
Q 1338 97 1528 280 
Q 1719 463 1838 691 
Q 1966 947 2077 1386 
Q 2188 1825 2188 2088 
Q 2188 2316 2092 2489 
Q 1997 2663 1791 2663 
Q 1559 2663 1348 2492 
Q 1138 2322 978 2088 
L 800 1363 
Q 697 959 691 716 
Q 691 475 795 286 
Q 900 97 1119 97 
z
" transform="scale(0.015625)"/>
      <path id="Cmmi10-63" d="M 750 763 
Q 750 484 892 290 
Q 1034 97 1300 97 
Q 1681 97 2032 272 
Q 2384 447 2606 756 
Q 2625 775 2656 775 
Q 2688 775 2720 739 
Q 2753 703 2753 672 
Q 2753 647 2741 634 
Q 2506 306 2109 117 
Q 1713 -72 1288 -72 
Q 981 -72 747 73 
Q 513 219 384 462 
Q 256 706 256 1013 
Q 256 1444 497 1869 
Q 738 2294 1138 2561 
Q 1538 2828 1978 2828 
Q 2266 2828 2495 2689 
Q 2725 2550 2725 2278 
Q 2725 2103 2623 1979 
Q 2522 1856 2350 1856 
Q 2247 1856 2176 1920 
Q 2106 1984 2106 2088 
Q 2106 2238 2215 2344 
Q 2325 2450 2472 2450 
L 2484 2450 
Q 2409 2559 2267 2611 
Q 2125 2663 1972 2663 
Q 1597 2663 1315 2342 
Q 1034 2022 892 1576 
Q 750 1131 750 763 
z
" transform="scale(0.015625)"/>
      <path id="DejaVuSerif-72" d="M 3059 3328 
L 3059 2497 
L 2728 2497 
Q 2713 2744 2591 2866 
Q 2469 2988 2234 2988 
Q 1809 2988 1582 2694 
Q 1356 2400 1356 1850 
L 1356 331 
L 2022 331 
L 2022 0 
L 263 0 
L 263 331 
L 781 331 
L 781 2994 
L 231 2994 
L 231 3322 
L 1356 3322 
L 1356 2731 
Q 1525 3078 1790 3245 
Q 2056 3413 2438 3413 
Q 2578 3413 2733 3391 
Q 2888 3369 3059 3328 
z
" transform="scale(0.015625)"/>
      <path id="DejaVuSerif-63" d="M 3291 997 
Q 3169 466 2822 187 
Q 2475 -91 1925 -91 
Q 1200 -91 759 389 
Q 319 869 319 1663 
Q 319 2459 759 2936 
Q 1200 3413 1925 3413 
Q 2241 3413 2553 3339 
Q 2866 3266 3181 3116 
L 3181 2266 
L 2847 2266 
Q 2781 2703 2561 2903 
Q 2341 3103 1931 3103 
Q 1466 3103 1228 2742 
Q 991 2381 991 1663 
Q 991 944 1227 581 
Q 1463 219 1931 219 
Q 2303 219 2525 412 
Q 2747 606 2828 997 
L 3291 997 
z
" transform="scale(0.015625)"/>
      <path id="DejaVuSerif-79" d="M 1381 -609 
L 1600 -56 
L 359 2988 
L -19 2988 
L -19 3322 
L 1509 3322 
L 1509 2988 
L 978 2988 
L 1913 703 
L 2847 2988 
L 2350 2988 
L 2350 3322 
L 3597 3322 
L 3597 2988 
L 3225 2988 
L 1703 -750 
Q 1547 -1138 1356 -1280 
Q 1166 -1422 819 -1422 
Q 672 -1422 517 -1397 
Q 363 -1372 206 -1325 
L 206 -691 
L 500 -691 
Q 519 -903 608 -995 
Q 697 -1088 884 -1088 
Q 1056 -1088 1161 -992 
Q 1266 -897 1381 -609 
z
" transform="scale(0.015625)"/>
      <path id="DejaVuSerif-76" d="M 1581 0 
L 359 2988 
L -19 2988 
L -19 3322 
L 1509 3322 
L 1509 2988 
L 978 2988 
L 1913 703 
L 2847 2988 
L 2350 2988 
L 2350 3322 
L 3597 3322 
L 3597 2988 
L 3225 2988 
L 2003 0 
L 1581 0 
z
" transform="scale(0.015625)"/>
      <path id="DejaVuSerif-46" d="M 353 0 
L 353 331 
L 947 331 
L 947 4331 
L 353 4331 
L 353 4666 
L 4172 4666 
L 4172 3628 
L 3788 3628 
L 3788 4281 
L 1581 4281 
L 1581 2719 
L 3175 2719 
L 3175 3303 
L 3559 3303 
L 3559 1753 
L 3175 1753 
L 3175 2338 
L 1581 2338 
L 1581 331 
L 2328 331 
L 2328 0 
L 353 0 
z
" transform="scale(0.015625)"/>
      <path id="Cmmi10-64" d="M 1113 -72 
Q 709 -72 476 233 
Q 244 538 244 953 
Q 244 1363 456 1803 
Q 669 2244 1030 2536 
Q 1391 2828 1806 2828 
Q 1994 2828 2145 2723 
Q 2297 2619 2381 2444 
L 2741 3872 
Q 2766 3981 2772 4044 
Q 2772 4147 2356 4147 
Q 2291 4147 2291 4231 
Q 2294 4247 2305 4287 
Q 2316 4328 2333 4350 
Q 2350 4372 2381 4372 
L 3244 4441 
Q 3322 4441 3322 4359 
L 2400 678 
Q 2356 572 2356 372 
Q 2356 97 2541 97 
Q 2741 97 2845 351 
Q 2950 606 3022 941 
Q 3034 978 3072 978 
L 3150 978 
Q 3175 978 3190 956 
Q 3206 934 3206 916 
Q 3094 469 2961 198 
Q 2828 -72 2528 -72 
Q 2313 -72 2147 54 
Q 1981 181 1941 391 
Q 1528 -72 1113 -72 
z
M 1119 97 
Q 1350 97 1567 270 
Q 1784 444 1941 678 
Q 1947 684 1947 703 
L 2297 2113 
Q 2259 2338 2131 2500 
Q 2003 2663 1791 2663 
Q 1575 2663 1389 2486 
Q 1203 2309 1075 2069 
Q 950 1813 836 1366 
Q 722 919 722 672 
Q 722 450 817 273 
Q 913 97 1119 97 
z
" transform="scale(0.015625)"/>
      <path id="Cmsy10-32" d="M 1356 403 
Q 1838 0 2497 0 
L 3616 0 
Q 3666 0 3698 -37 
Q 3731 -75 3731 -128 
Q 3731 -175 3698 -215 
Q 3666 -256 3616 -256 
L 2478 -256 
Q 1969 -256 1519 -12 
Q 1069 231 800 657 
Q 531 1084 531 1600 
Q 531 2116 800 2542 
Q 1069 2969 1519 3212 
Q 1969 3456 2478 3456 
L 3616 3456 
Q 3666 3456 3698 3415 
Q 3731 3375 3731 3328 
Q 3731 3275 3698 3237 
Q 3666 3200 3616 3200 
L 2497 3200 
Q 2184 3200 1889 3097 
Q 1594 2994 1356 2797 
Q 1122 2600 958 2304 
Q 794 2009 794 1728 
L 3616 1728 
Q 3666 1728 3698 1687 
Q 3731 1647 3731 1600 
Q 3731 1553 3698 1512 
Q 3666 1472 3616 1472 
L 794 1472 
Q 794 1194 958 897 
Q 1122 600 1356 403 
z
" transform="scale(0.015625)"/>
      <path id="DejaVuSerif-3f" d="M 1125 325 
Q 1125 500 1245 622 
Q 1366 744 1544 744 
Q 1716 744 1837 622 
Q 1959 500 1959 325 
Q 1959 153 1837 31 
Q 1716 -91 1544 -91 
Q 1366 -91 1245 29 
Q 1125 150 1125 325 
z
M 434 4459 
Q 766 4606 1064 4678 
Q 1363 4750 1625 4750 
Q 2319 4750 2720 4415 
Q 3122 4081 3122 3513 
Q 3122 2931 2776 2562 
Q 2431 2194 1734 2034 
L 1734 1241 
L 1350 1241 
L 1350 2266 
Q 1903 2400 2183 2715 
Q 2463 3031 2463 3519 
Q 2463 3947 2234 4194 
Q 2006 4441 1613 4441 
Q 1256 4441 1029 4236 
Q 803 4031 738 3647 
L 434 3647 
L 434 4459 
z
" transform="scale(0.015625)"/>
     </defs>
     <use xlink:href="#DejaVuSerif-4c" transform="translate(0 0.109375)"/>
     <use xlink:href="#DejaVuSerif-65" transform="translate(66.40625 0.109375)"/>
     <use xlink:href="#DejaVuSerif-74" transform="translate(125.585938 0.109375)"/>
     <use xlink:href="#DejaVuSerif-20" transform="translate(165.771484 0.109375)"/>
     <use xlink:href="#Cmmi10-46" transform="translate(197.558594 0.109375)"/>
     <use xlink:href="#DejaVuSerif-20" transform="translate(261.865234 0.109375)"/>
     <use xlink:href="#DejaVuSerif-62" transform="translate(293.652344 0.109375)"/>
     <use xlink:href="#DejaVuSerif-65" transform="translate(357.666016 0.109375)"/>
     <use xlink:href="#DejaVuSerif-20" transform="translate(416.845703 0.109375)"/>
     <use xlink:href="#DejaVuSerif-61" transform="translate(448.632812 0.109375)"/>
     <use xlink:href="#DejaVuSerif-20" transform="translate(508.251953 0.109375)"/>
     <use xlink:href="#DejaVuSerif-66" transform="translate(540.039062 0.109375)"/>
     <use xlink:href="#DejaVuSerif-69" transform="translate(577.050781 0.109375)"/>
     <use xlink:href="#DejaVuSerif-6e" transform="translate(609.033203 0.109375)"/>
     <use xlink:href="#DejaVuSerif-69" transform="translate(673.4375 0.109375)"/>
     <use xlink:href="#DejaVuSerif-74" transform="translate(705.419922 0.109375)"/>
     <use xlink:href="#DejaVuSerif-65" transform="translate(745.605469 0.109375)"/>
     <use xlink:href="#DejaVuSerif-20" transform="translate(804.785156 0.109375)"/>
     <use xlink:href="#DejaVuSerif-66" transform="translate(836.572266 0.109375)"/>
     <use xlink:href="#DejaVuSerif-69" transform="translate(873.583984 0.109375)"/>
     <use xlink:href="#DejaVuSerif-65" transform="translate(905.566406 0.109375)"/>
     <use xlink:href="#DejaVuSerif-6c" transform="translate(964.746094 0.109375)"/>
     <use xlink:href="#DejaVuSerif-64" transform="translate(996.728516 0.109375)"/>
     <use xlink:href="#DejaVuSerif-20" transform="translate(1060.742188 0.109375)"/>
     <use xlink:href="#DejaVuSerif-77" transform="translate(1092.529297 0.109375)"/>
     <use xlink:href="#DejaVuSerif-69" transform="translate(1178.125 0.109375)"/>
     <use xlink:href="#DejaVuSerif-74" transform="translate(1210.107422 0.109375)"/>
     <use xlink:href="#DejaVuSerif-68" transform="translate(1250.292969 0.109375)"/>
     <use xlink:href="#DejaVuSerif-20" transform="translate(1314.697266 0.109375)"/>
     <use xlink:href="#Cmmi10-6e" transform="translate(1346.484375 0.109375)"/>
     <use xlink:href="#DejaVuSerif-20" transform="translate(1406.494141 0.109375)"/>
     <use xlink:href="#DejaVuSerif-65" transform="translate(1438.28125 0.109375)"/>
     <use xlink:href="#DejaVuSerif-6c" transform="translate(1497.460938 0.109375)"/>
     <use xlink:href="#DejaVuSerif-65" transform="translate(1529.443359 0.109375)"/>
     <use xlink:href="#DejaVuSerif-6d" transform="translate(1588.623047 0.109375)"/>
     <use xlink:href="#DejaVuSerif-65" transform="translate(1683.447266 0.109375)"/>
     <use xlink:href="#DejaVuSerif-6e" transform="translate(1742.626953 0.109375)"/>
     <use xlink:href="#DejaVuSerif-74" transform="translate(1807.03125 0.109375)"/>
     <use xlink:href="#DejaVuSerif-73" transform="translate(1847.216797 0.109375)"/>
     <use xlink:href="#DejaVuSerif-2c" transform="translate(1898.535156 0.109375)"/>
     <use xlink:href="#DejaVuSerif-20" transform="translate(1930.322266 0.109375)"/>
     <use xlink:href="#DejaVuSerif-61" transform="translate(1962.109375 0.109375)"/>
     <use xlink:href="#DejaVuSerif-6e" transform="translate(2021.728516 0.109375)"/>
     <use xlink:href="#DejaVuSerif-64" transform="translate(2086.132812 0.109375)"/>
     <use xlink:href="#DejaVuSerif-20" transform="translate(2150.146484 0.109375)"/>
     <use xlink:href="#DejaVuSerif-61" transform="translate(2181.933594 0.109375)"/>
     <use xlink:href="#DejaVuSerif-73" transform="translate(2241.552734 0.109375)"/>
     <use xlink:href="#DejaVuSerif-73" transform="translate(2292.871094 0.109375)"/>
     <use xlink:href="#DejaVuSerif-75" transform="translate(2344.189453 0.109375)"/>
     <use xlink:href="#DejaVuSerif-6d" transform="translate(2408.59375 0.109375)"/>
     <use xlink:href="#DejaVuSerif-65" transform="translate(2503.417969 0.109375)"/>
     <use xlink:href="#DejaVuSerif-20" transform="translate(2562.597656 0.109375)"/>
     <use xlink:href="#Cmmi10-6e" transform="translate(2594.384766 0.109375)"/>
     <use xlink:href="#DejaVuSerif-20" transform="translate(2654.394531 0.109375)"/>
     <use xlink:href="#DejaVuSerif-69" transform="translate(2686.181641 0.109375)"/>
     <use xlink:href="#DejaVuSerif-73" transform="translate(2718.164062 0.109375)"/>
     <use xlink:href="#DejaVuSerif-20" transform="translate(2769.482422 0.109375)"/>
     <use xlink:href="#DejaVuSerif-6f" transform="translate(2801.269531 0.109375)"/>
     <use xlink:href="#DejaVuSerif-64" transform="translate(2861.474609 0.109375)"/>
     <use xlink:href="#DejaVuSerif-64" transform="translate(2925.488281 0.109375)"/>
     <use xlink:href="#DejaVuSerif-2e" transform="translate(2989.501953 0.109375)"/>
     <use xlink:href="#DejaVuSerif-20" transform="translate(3021.289062 0.109375)"/>
     <use xlink:href="#DejaVuSerif-53" transform="translate(3053.076172 0.109375)"/>
     <use xlink:href="#DejaVuSerif-75" transform="translate(3121.582031 0.109375)"/>
     <use xlink:href="#DejaVuSerif-70" transform="translate(3185.986328 0.109375)"/>
     <use xlink:href="#DejaVuSerif-70" transform="translate(3250 0.109375)"/>
     <use xlink:href="#DejaVuSerif-6f" transform="translate(3314.013672 0.109375)"/>
     <use xlink:href="#DejaVuSerif-73" transform="translate(3374.21875 0.109375)"/>
     <use xlink:href="#DejaVuSerif-65" transform="translate(3425.537109 0.109375)"/>
     <use xlink:href="#DejaVuSerif-20" transform="translate(3484.716797 0.109375)"/>
     <use xlink:href="#Cmmi10-78" transform="translate(3516.503906 0.109375)"/>
     <use xlink:href="#Cmr10-32" transform="translate(3579.887266 38.373438) scale(0.7)"/>
     <use xlink:href="#Cmr10-2b" transform="translate(3638.823203 0.109375)"/>
     <use xlink:href="#Cmmi10-62" transform="translate(3734.067344 0.109375)"/>
     <use xlink:href="#Cmmi10-78" transform="translate(3776.987266 0.109375)"/>
     <use xlink:href="#Cmr10-2b" transform="translate(3851.625937 0.109375)"/>
     <use xlink:href="#Cmmi10-63" transform="translate(3946.870078 0.109375)"/>
     <use xlink:href="#DejaVuSerif-20" transform="translate(3990.082969 0.109375)"/>
     <use xlink:href="#DejaVuSerif-69" transform="translate(4021.870078 0.109375)"/>
     <use xlink:href="#DejaVuSerif-73" transform="translate(4053.8525 0.109375)"/>
     <use xlink:href="#DejaVuSerif-20" transform="translate(4105.170859 0.109375)"/>
     <use xlink:href="#DejaVuSerif-61" transform="translate(4136.957969 0.109375)"/>
     <use xlink:href="#DejaVuSerif-6e" transform="translate(4196.577109 0.109375)"/>
     <use xlink:href="#DejaVuSerif-20" transform="translate(4260.981406 0.109375)"/>
     <use xlink:href="#DejaVuSerif-69" transform="translate(4292.768516 0.109375)"/>
     <use xlink:href="#DejaVuSerif-72" transform="translate(4324.750937 0.109375)"/>
     <use xlink:href="#DejaVuSerif-72" transform="translate(4372.553672 0.109375)"/>
     <use xlink:href="#DejaVuSerif-65" transform="translate(4420.356406 0.109375)"/>
     <use xlink:href="#DejaVuSerif-64" transform="translate(4479.536094 0.109375)"/>
     <use xlink:href="#DejaVuSerif-75" transform="translate(4543.549766 0.109375)"/>
     <use xlink:href="#DejaVuSerif-63" transform="translate(4607.954062 0.109375)"/>
     <use xlink:href="#DejaVuSerif-69" transform="translate(4663.959922 0.109375)"/>
     <use xlink:href="#DejaVuSerif-62" transform="translate(4695.942344 0.109375)"/>
     <use xlink:href="#DejaVuSerif-6c" transform="translate(4759.956016 0.109375)"/>
     <use xlink:href="#DejaVuSerif-65" transform="translate(4791.938437 0.109375)"/>
     <use xlink:href="#DejaVuSerif-20" transform="translate(4851.118125 0.109375)"/>
     <use xlink:href="#DejaVuSerif-70" transform="translate(4882.905234 0.109375)"/>
     <use xlink:href="#DejaVuSerif-6f" transform="translate(4946.918906 0.109375)"/>
     <use xlink:href="#DejaVuSerif-6c" transform="translate(5007.123984 0.109375)"/>
     <use xlink:href="#DejaVuSerif-79" transform="translate(5039.106406 0.109375)"/>
     <use xlink:href="#DejaVuSerif-6e" transform="translate(5095.600547 0.109375)"/>
     <use xlink:href="#DejaVuSerif-6f" transform="translate(5160.004844 0.109375)"/>
     <use xlink:href="#DejaVuSerif-6d" transform="translate(5220.209922 0.109375)"/>
     <use xlink:href="#DejaVuSerif-69" transform="translate(5315.034141 0.109375)"/>
     <use xlink:href="#DejaVuSerif-61" transform="translate(5347.016562 0.109375)"/>
     <use xlink:href="#DejaVuSerif-6c" transform="translate(5406.635703 0.109375)"/>
     <use xlink:href="#DejaVuSerif-20" transform="translate(5438.618125 0.109375)"/>
     <use xlink:href="#DejaVuSerif-6f" transform="translate(5470.405234 0.109375)"/>
     <use xlink:href="#DejaVuSerif-76" transform="translate(5530.610312 0.109375)"/>
     <use xlink:href="#DejaVuSerif-65" transform="translate(5587.104453 0.109375)"/>
     <use xlink:href="#DejaVuSerif-72" transform="translate(5646.284141 0.109375)"/>
     <use xlink:href="#DejaVuSerif-20" transform="translate(5694.086875 0.109375)"/>
     <use xlink:href="#Cmmi10-46" transform="translate(5725.873984 0.109375)"/>
     <use xlink:href="#DejaVuSerif-2e" transform="translate(5790.180625 0.109375)"/>
     <use xlink:href="#DejaVuSerif-20" transform="translate(5821.967734 0.109375)"/>
     <use xlink:href="#DejaVuSerif-46" transform="translate(5853.754844 0.109375)"/>
     <use xlink:href="#DejaVuSerif-6f" transform="translate(5923.139609 0.109375)"/>
     <use xlink:href="#DejaVuSerif-72" transform="translate(5983.344687 0.109375)"/>
     <use xlink:href="#DejaVuSerif-20" transform="translate(6031.147422 0.109375)"/>
     <use xlink:href="#DejaVuSerif-68" transform="translate(6062.934531 0.109375)"/>
     <use xlink:href="#DejaVuSerif-6f" transform="translate(6127.338828 0.109375)"/>
     <use xlink:href="#DejaVuSerif-77" transform="translate(6187.543906 0.109375)"/>
     <use xlink:href="#DejaVuSerif-20" transform="translate(6273.139609 0.109375)"/>
     <use xlink:href="#DejaVuSerif-6d" transform="translate(6304.926719 0.109375)"/>
     <use xlink:href="#DejaVuSerif-61" transform="translate(6399.750937 0.109375)"/>
     <use xlink:href="#DejaVuSerif-6e" transform="translate(6459.370078 0.109375)"/>
     <use xlink:href="#DejaVuSerif-79" transform="translate(6523.774375 0.109375)"/>
     <use xlink:href="#DejaVuSerif-20" transform="translate(6580.268516 0.109375)"/>
     <use xlink:href="#DejaVuSerif-65" transform="translate(6612.055625 0.109375)"/>
     <use xlink:href="#DejaVuSerif-6c" transform="translate(6671.235312 0.109375)"/>
     <use xlink:href="#DejaVuSerif-65" transform="translate(6703.217734 0.109375)"/>
     <use xlink:href="#DejaVuSerif-6d" transform="translate(6762.397422 0.109375)"/>
     <use xlink:href="#DejaVuSerif-65" transform="translate(6857.221641 0.109375)"/>
     <use xlink:href="#DejaVuSerif-6e" transform="translate(6916.401328 0.109375)"/>
     <use xlink:href="#DejaVuSerif-74" transform="translate(6980.805625 0.109375)"/>
     <use xlink:href="#DejaVuSerif-73" transform="translate(7020.991172 0.109375)"/>
     <use xlink:href="#DejaVuSerif-20" transform="translate(7072.309531 0.109375)"/>
     <use xlink:href="#Cmmi10-64" transform="translate(7104.096641 0.109375)"/>
     <use xlink:href="#Cmsy10-32" transform="translate(7173.657187 0.109375)"/>
     <use xlink:href="#Cmmi10-46" transform="translate(7257.817344 0.109375)"/>
     <use xlink:href="#DejaVuSerif-20" transform="translate(7322.123984 0.109375)"/>
     <use xlink:href="#DejaVuSerif-69" transform="translate(7353.911094 0.109375)"/>
     <use xlink:href="#DejaVuSerif-73" transform="translate(7385.893516 0.109375)"/>
     <use xlink:href="#DejaVuSerif-20" transform="translate(7437.211875 0.109375)"/>
     <use xlink:href="#Cmmi10-78" transform="translate(7468.998984 0.109375)"/>
     <use xlink:href="#Cmr10-32" transform="translate(7532.382344 38.373438) scale(0.7)"/>
     <use xlink:href="#Cmr10-2b" transform="translate(7591.318281 0.109375)"/>
     <use xlink:href="#Cmmi10-62" transform="translate(7686.562422 0.109375)"/>
     <use xlink:href="#Cmmi10-78" transform="translate(7729.482344 0.109375)"/>
     <use xlink:href="#Cmr10-2b" transform="translate(7804.121016 0.109375)"/>
     <use xlink:href="#Cmmi10-63" transform="translate(7899.365156 0.109375)"/>
     <use xlink:href="#Cmr10-2b" transform="translate(7960.136641 0.109375)"/>
     <use xlink:href="#Cmmi10-64" transform="translate(8055.380781 0.109375)"/>
     <use xlink:href="#DejaVuSerif-20" transform="translate(8107.382734 0.109375)"/>
     <use xlink:href="#DejaVuSerif-69" transform="translate(8139.169844 0.109375)"/>
     <use xlink:href="#DejaVuSerif-72" transform="translate(8171.152266 0.109375)"/>
     <use xlink:href="#DejaVuSerif-72" transform="translate(8218.955 0.109375)"/>
     <use xlink:href="#DejaVuSerif-65" transform="translate(8266.757734 0.109375)"/>
     <use xlink:href="#DejaVuSerif-64" transform="translate(8325.937422 0.109375)"/>
     <use xlink:href="#DejaVuSerif-75" transform="translate(8389.951094 0.109375)"/>
     <use xlink:href="#DejaVuSerif-63" transform="translate(8454.355391 0.109375)"/>
     <use xlink:href="#DejaVuSerif-69" transform="translate(8510.36125 0.109375)"/>
     <use xlink:href="#DejaVuSerif-62" transform="translate(8542.343672 0.109375)"/>
     <use xlink:href="#DejaVuSerif-6c" transform="translate(8606.357344 0.109375)"/>
     <use xlink:href="#DejaVuSerif-65" transform="translate(8638.339766 0.109375)"/>
     <use xlink:href="#DejaVuSerif-3f" transform="translate(8697.519453 0.109375)"/>
    </g>
   </g>
  </g>
 </g>
</svg>
