<?xml version="1.0" encoding="utf-8" standalone="no"?>
<!DOCTYPE svg PUBLIC "-//W3C//DTD SVG 1.1//EN"
  "http://www.w3.org/Graphics/SVG/1.1/DTD/svg11.dtd">
<svg xmlns:xlink="http://www.w3.org/1999/xlink" width="1261.08pt" height="180.72pt" viewBox="0 0 1261.08 180.72" xmlns="http://www.w3.org/2000/svg" version="1.1">
 <metadata>
  <rdf:RDF xmlns:dc="http://purl.org/dc/elements/1.1/" xmlns:cc="http://creativecommons.org/ns#" xmlns:rdf="http://www.w3.org/1999/02/22-rdf-syntax-ns#">
   <cc:Work>
    <dc:type rdf:resource="http://purl.org/dc/dcmitype/StillImage"/>
    <dc:date>2025-05-11T00:01:58.124852</dc:date>
    <dc:format>image/svg+xml</dc:format>
    <dc:creator>
     <cc:Agent>
      <dc:title>Matplotlib v3.10.3, https://matplotlib.org/</dc:title>
     </cc:Agent>
    </dc:creator>
   </cc:Work>
  </rdf:RDF>
 </metadata>
 <defs>
  <style type="text/css">*{stroke-linejoin: round; stroke-linecap: butt}</style>
 </defs>
 <g id="figure_1">
  <g id="patch_1">
   <path d="M 0 180.72 
L 1261.08 180.72 
L 1261.08 0 
L 0 0 
z
" style="fill: #ffffff"/>
  </g>
  <g id="axes_1">
   <g id="text_1">
    <!-- Let $x : \mathbb{R} \rightarrow \mathbb{R}$ be a twice differentiable function whose second derivative is nonstrictly decreasing. If $x(t) - x(0) = s$, $x'(0) = 0$, and $x'(t) = v$ for some $t &gt; 0$, find the maximum possible value of $t$ in terms of $s$ and $v$. -->
    <g transform="translate(7.2 93.54) scale(0.12 -0.12)">
     <defs>
      <path id="DejaVuSerif-4c" d="M 353 0 
L 353 331 
L 947 331 
L 947 4331 
L 353 4331 
L 353 4666 
L 2175 4666 
L 2175 4331 
L 1581 4331 
L 1581 384 
L 3713 384 
L 3713 1166 
L 4097 1166 
L 4097 0 
L 353 0 
z
" transform="scale(0.015625)"/>
      <path id="DejaVuSerif-65" d="M 3469 1600 
L 991 1600 
L 991 1575 
Q 991 903 1244 561 
Q 1497 219 1991 219 
Q 2369 219 2611 417 
Q 2853 616 2950 1006 
L 3413 1006 
Q 3275 459 2904 184 
Q 2534 -91 1931 -91 
Q 1203 -91 761 389 
Q 319 869 319 1663 
Q 319 2450 753 2931 
Q 1188 3413 1894 3413 
Q 2647 3413 3050 2948 
Q 3453 2484 3469 1600 
z
M 2791 1931 
Q 2772 2513 2545 2808 
Q 2319 3103 1894 3103 
Q 1497 3103 1269 2806 
Q 1041 2509 991 1931 
L 2791 1931 
z
" transform="scale(0.015625)"/>
      <path id="DejaVuSerif-74" d="M 691 2988 
L 184 2988 
L 184 3322 
L 691 3322 
L 691 4353 
L 1269 4353 
L 1269 3322 
L 2350 3322 
L 2350 2988 
L 1269 2988 
L 1269 878 
Q 1269 456 1350 337 
Q 1431 219 1650 219 
Q 1875 219 1978 351 
Q 2081 484 2088 781 
L 2522 781 
Q 2497 328 2275 118 
Q 2053 -91 1600 -91 
Q 1103 -91 897 129 
Q 691 350 691 878 
L 691 2988 
z
" transform="scale(0.015625)"/>
      <path id="DejaVuSerif-20" transform="scale(0.015625)"/>
      <path id="Cmmi10-78" d="M 500 184 
Q 613 97 819 97 
Q 1019 97 1172 289 
Q 1325 481 1381 709 
L 1672 1844 
Q 1741 2153 1741 2266 
Q 1741 2425 1652 2544 
Q 1563 2663 1403 2663 
Q 1200 2663 1022 2536 
Q 844 2409 722 2214 
Q 600 2019 550 1819 
Q 538 1778 500 1778 
L 422 1778 
Q 372 1778 372 1838 
L 372 1856 
Q 434 2094 584 2320 
Q 734 2547 951 2687 
Q 1169 2828 1416 2828 
Q 1650 2828 1839 2703 
Q 2028 2578 2106 2363 
Q 2216 2559 2386 2693 
Q 2556 2828 2759 2828 
Q 2897 2828 3040 2779 
Q 3184 2731 3275 2631 
Q 3366 2531 3366 2381 
Q 3366 2219 3261 2101 
Q 3156 1984 2994 1984 
Q 2891 1984 2822 2050 
Q 2753 2116 2753 2216 
Q 2753 2350 2845 2451 
Q 2938 2553 3066 2572 
Q 2950 2663 2747 2663 
Q 2541 2663 2389 2472 
Q 2238 2281 2175 2047 
L 1894 916 
Q 1825 659 1825 494 
Q 1825 331 1917 214 
Q 2009 97 2163 97 
Q 2463 97 2698 361 
Q 2934 625 3009 941 
Q 3022 978 3059 978 
L 3138 978 
Q 3163 978 3178 961 
Q 3194 944 3194 922 
Q 3194 916 3188 903 
Q 3097 522 2806 225 
Q 2516 -72 2150 -72 
Q 1916 -72 1727 54 
Q 1538 181 1459 397 
Q 1359 209 1182 68 
Q 1006 -72 806 -72 
Q 669 -72 523 -23 
Q 378 25 287 125 
Q 197 225 197 378 
Q 197 528 301 651 
Q 406 775 563 775 
Q 669 775 741 711 
Q 813 647 813 544 
Q 813 409 723 309 
Q 634 209 500 184 
z
" transform="scale(0.015625)"/>
      <path id="Cmr10-3a" d="M 538 353 
Q 538 497 644 600 
Q 750 703 891 703 
Q 978 703 1062 656 
Q 1147 609 1194 525 
Q 1241 441 1241 353 
Q 1241 213 1137 106 
Q 1034 0 891 0 
Q 750 0 644 106 
Q 538 213 538 353 
z
M 538 2406 
Q 538 2497 584 2578 
Q 631 2659 714 2709 
Q 797 2759 891 2759 
Q 981 2759 1064 2709 
Q 1147 2659 1194 2578 
Q 1241 2497 1241 2406 
Q 1241 2263 1139 2158 
Q 1038 2053 891 2053 
Q 747 2053 642 2158 
Q 538 2263 538 2406 
z
" transform="scale(0.015625)"/>
      <path id="STIXGeneral-Italic-211d" d="M 1229 4179 
L 3360 4179 
Q 3827 4179 4108 3894 
Q 4390 3610 4390 3142 
Q 4390 2554 4060 2186 
Q 3731 1818 3149 1715 
L 4026 0 
L 2925 0 
L 2125 1690 
L 1549 1690 
L 1094 0 
L 109 0 
L 1229 4179 
z
M 3866 3821 
L 3392 2022 
Q 3770 2144 3962 2438 
Q 4154 2733 4154 3136 
Q 4154 3584 3866 3821 
z
M 3142 1978 
L 3648 3872 
Q 3450 3942 3296 3942 
L 2150 3942 
L 1613 1926 
L 2630 1926 
Q 2957 1926 3142 1978 
z
M 3629 237 
L 2899 1696 
Q 2829 1683 2682 1683 
Q 2630 1683 2531 1686 
Q 2432 1690 2387 1690 
L 3072 237 
L 3629 237 
z
M 1907 3942 
L 1408 3942 
L 416 237 
L 915 237 
L 1907 3942 
z
" transform="scale(0.015625)"/>
      <path id="Cmsy10-21" d="M 481 1472 
Q 428 1472 393 1512 
Q 359 1553 359 1600 
Q 359 1647 393 1687 
Q 428 1728 481 1728 
L 5338 1728 
Q 5094 1903 4906 2133 
Q 4719 2363 4594 2627 
Q 4469 2891 4416 3188 
Q 4416 3272 4481 3272 
L 4609 3272 
Q 4631 3272 4648 3253 
Q 4666 3234 4672 3213 
Q 4725 2938 4839 2702 
Q 4953 2466 5125 2262 
Q 5297 2059 5509 1912 
Q 5722 1766 5991 1672 
Q 6034 1644 6034 1600 
Q 6034 1550 5991 1538 
Q 5656 1422 5378 1192 
Q 5100 963 4919 652 
Q 4738 341 4672 -13 
Q 4666 -34 4647 -53 
Q 4628 -72 4609 -72 
L 4481 -72 
Q 4416 -72 4416 13 
Q 4497 450 4740 836 
Q 4984 1222 5338 1472 
L 481 1472 
z
" transform="scale(0.015625)"/>
      <path id="DejaVuSerif-62" d="M 738 331 
L 738 4531 
L 184 4531 
L 184 4863 
L 1313 4863 
L 1313 2803 
Q 1481 3116 1742 3264 
Q 2003 3413 2388 3413 
Q 3000 3413 3387 2928 
Q 3775 2444 3775 1663 
Q 3775 881 3387 395 
Q 3000 -91 2388 -91 
Q 2003 -91 1742 57 
Q 1481 206 1313 519 
L 1313 0 
L 184 0 
L 184 331 
L 738 331 
z
M 1313 1497 
Q 1313 897 1542 583 
Q 1772 269 2209 269 
Q 2650 269 2876 622 
Q 3103 975 3103 1663 
Q 3103 2353 2876 2703 
Q 2650 3053 2209 3053 
Q 1772 3053 1542 2737 
Q 1313 2422 1313 1825 
L 1313 1497 
z
" transform="scale(0.015625)"/>
      <path id="DejaVuSerif-61" d="M 2547 1044 
L 2547 1747 
L 1806 1747 
Q 1378 1747 1168 1562 
Q 959 1378 959 997 
Q 959 650 1171 447 
Q 1384 244 1747 244 
Q 2106 244 2326 466 
Q 2547 688 2547 1044 
z
M 3122 2075 
L 3122 331 
L 3634 331 
L 3634 0 
L 2547 0 
L 2547 359 
Q 2356 128 2106 18 
Q 1856 -91 1522 -91 
Q 969 -91 644 203 
Q 319 497 319 997 
Q 319 1513 691 1797 
Q 1063 2081 1741 2081 
L 2547 2081 
L 2547 2309 
Q 2547 2688 2317 2895 
Q 2088 3103 1672 3103 
Q 1328 3103 1125 2947 
Q 922 2791 872 2484 
L 575 2484 
L 575 3156 
Q 875 3284 1158 3348 
Q 1441 3413 1709 3413 
Q 2400 3413 2761 3070 
Q 3122 2728 3122 2075 
z
" transform="scale(0.015625)"/>
      <path id="DejaVuSerif-77" d="M 3072 3322 
L 3922 728 
L 4672 2988 
L 4191 2988 
L 4191 3322 
L 5394 3322 
L 5394 2988 
L 5025 2988 
L 4038 0 
L 3559 0 
L 2741 2484 
L 1919 0 
L 1459 0 
L 475 2988 
L 103 2988 
L 103 3322 
L 1606 3322 
L 1606 2988 
L 1069 2988 
L 1813 728 
L 2669 3322 
L 3072 3322 
z
" transform="scale(0.015625)"/>
      <path id="DejaVuSerif-69" d="M 622 4353 
Q 622 4497 726 4603 
Q 831 4709 978 4709 
Q 1122 4709 1226 4603 
Q 1331 4497 1331 4353 
Q 1331 4206 1228 4103 
Q 1125 4000 978 4000 
Q 831 4000 726 4103 
Q 622 4206 622 4353 
z
M 1356 331 
L 1900 331 
L 1900 0 
L 231 0 
L 231 331 
L 781 331 
L 781 2988 
L 231 2988 
L 231 3322 
L 1356 3322 
L 1356 331 
z
" transform="scale(0.015625)"/>
      <path id="DejaVuSerif-63" d="M 3291 997 
Q 3169 466 2822 187 
Q 2475 -91 1925 -91 
Q 1200 -91 759 389 
Q 319 869 319 1663 
Q 319 2459 759 2936 
Q 1200 3413 1925 3413 
Q 2241 3413 2553 3339 
Q 2866 3266 3181 3116 
L 3181 2266 
L 2847 2266 
Q 2781 2703 2561 2903 
Q 2341 3103 1931 3103 
Q 1466 3103 1228 2742 
Q 991 2381 991 1663 
Q 991 944 1227 581 
Q 1463 219 1931 219 
Q 2303 219 2525 412 
Q 2747 606 2828 997 
L 3291 997 
z
" transform="scale(0.015625)"/>
      <path id="DejaVuSerif-64" d="M 3359 331 
L 3909 331 
L 3909 0 
L 2784 0 
L 2784 519 
Q 2616 206 2355 57 
Q 2094 -91 1709 -91 
Q 1097 -91 708 395 
Q 319 881 319 1663 
Q 319 2444 706 2928 
Q 1094 3413 1709 3413 
Q 2094 3413 2355 3264 
Q 2616 3116 2784 2803 
L 2784 4531 
L 2241 4531 
L 2241 4863 
L 3359 4863 
L 3359 331 
z
M 2784 1497 
L 2784 1825 
Q 2784 2422 2554 2737 
Q 2325 3053 1888 3053 
Q 1444 3053 1217 2703 
Q 991 2353 991 1663 
Q 991 975 1217 622 
Q 1444 269 1888 269 
Q 2325 269 2554 583 
Q 2784 897 2784 1497 
z
" transform="scale(0.015625)"/>
      <path id="DejaVuSerif-66" d="M 2753 4078 
L 2450 4078 
Q 2447 4313 2317 4434 
Q 2188 4556 1941 4556 
Q 1619 4556 1487 4379 
Q 1356 4203 1356 3750 
L 1356 3322 
L 2284 3322 
L 2284 2988 
L 1356 2988 
L 1356 331 
L 2094 331 
L 2094 0 
L 231 0 
L 231 331 
L 781 331 
L 781 2988 
L 231 2988 
L 231 3322 
L 781 3322 
L 781 3738 
Q 781 4294 1070 4578 
Q 1359 4863 1919 4863 
Q 2128 4863 2337 4825 
Q 2547 4788 2753 4709 
L 2753 4078 
z
" transform="scale(0.015625)"/>
      <path id="DejaVuSerif-72" d="M 3059 3328 
L 3059 2497 
L 2728 2497 
Q 2713 2744 2591 2866 
Q 2469 2988 2234 2988 
Q 1809 2988 1582 2694 
Q 1356 2400 1356 1850 
L 1356 331 
L 2022 331 
L 2022 0 
L 263 0 
L 263 331 
L 781 331 
L 781 2994 
L 231 2994 
L 231 3322 
L 1356 3322 
L 1356 2731 
Q 1525 3078 1790 3245 
Q 2056 3413 2438 3413 
Q 2578 3413 2733 3391 
Q 2888 3369 3059 3328 
z
" transform="scale(0.015625)"/>
      <path id="DejaVuSerif-6e" d="M 263 0 
L 263 331 
L 781 331 
L 781 2988 
L 231 2988 
L 231 3322 
L 1356 3322 
L 1356 2731 
Q 1516 3069 1770 3241 
Q 2025 3413 2363 3413 
Q 2913 3413 3172 3097 
Q 3431 2781 3431 2113 
L 3431 331 
L 3944 331 
L 3944 0 
L 2356 0 
L 2356 331 
L 2853 331 
L 2853 1931 
Q 2853 2541 2703 2767 
Q 2553 2994 2175 2994 
Q 1775 2994 1565 2701 
Q 1356 2409 1356 1850 
L 1356 331 
L 1856 331 
L 1856 0 
L 263 0 
z
" transform="scale(0.015625)"/>
      <path id="DejaVuSerif-6c" d="M 1313 331 
L 1856 331 
L 1856 0 
L 184 0 
L 184 331 
L 738 331 
L 738 4531 
L 184 4531 
L 184 4863 
L 1313 4863 
L 1313 331 
z
" transform="scale(0.015625)"/>
      <path id="DejaVuSerif-75" d="M 2266 3322 
L 3341 3322 
L 3341 331 
L 3884 331 
L 3884 0 
L 2766 0 
L 2766 588 
Q 2606 256 2353 82 
Q 2100 -91 1766 -91 
Q 1213 -91 952 223 
Q 691 538 691 1209 
L 691 2988 
L 172 2988 
L 172 3322 
L 1269 3322 
L 1269 1388 
Q 1269 781 1417 556 
Q 1566 331 1947 331 
Q 2347 331 2556 625 
Q 2766 919 2766 1478 
L 2766 2988 
L 2266 2988 
L 2266 3322 
z
" transform="scale(0.015625)"/>
      <path id="DejaVuSerif-6f" d="M 1925 219 
Q 2388 219 2623 584 
Q 2859 950 2859 1663 
Q 2859 2375 2623 2739 
Q 2388 3103 1925 3103 
Q 1463 3103 1227 2739 
Q 991 2375 991 1663 
Q 991 950 1228 584 
Q 1466 219 1925 219 
z
M 1925 -91 
Q 1200 -91 759 389 
Q 319 869 319 1663 
Q 319 2456 758 2934 
Q 1197 3413 1925 3413 
Q 2653 3413 3092 2934 
Q 3531 2456 3531 1663 
Q 3531 869 3092 389 
Q 2653 -91 1925 -91 
z
" transform="scale(0.015625)"/>
      <path id="DejaVuSerif-68" d="M 263 0 
L 263 331 
L 781 331 
L 781 4531 
L 231 4531 
L 231 4863 
L 1356 4863 
L 1356 2731 
Q 1516 3069 1770 3241 
Q 2025 3413 2363 3413 
Q 2913 3413 3172 3097 
Q 3431 2781 3431 2113 
L 3431 331 
L 3944 331 
L 3944 0 
L 2356 0 
L 2356 331 
L 2853 331 
L 2853 1931 
Q 2853 2541 2704 2764 
Q 2556 2988 2175 2988 
Q 1775 2988 1565 2697 
Q 1356 2406 1356 1850 
L 1356 331 
L 1856 331 
L 1856 0 
L 263 0 
z
" transform="scale(0.015625)"/>
      <path id="DejaVuSerif-73" d="M 359 184 
L 359 959 
L 691 959 
Q 703 588 923 403 
Q 1144 219 1575 219 
Q 1963 219 2166 364 
Q 2369 509 2369 788 
Q 2369 1006 2220 1140 
Q 2072 1275 1594 1428 
L 1178 1569 
Q 750 1706 558 1912 
Q 366 2119 366 2438 
Q 366 2894 700 3153 
Q 1034 3413 1625 3413 
Q 1888 3413 2178 3344 
Q 2469 3275 2778 3144 
L 2778 2419 
L 2447 2419 
Q 2434 2741 2221 2922 
Q 2009 3103 1644 3103 
Q 1281 3103 1095 2975 
Q 909 2847 909 2591 
Q 909 2381 1050 2254 
Q 1191 2128 1613 1997 
L 2069 1856 
Q 2541 1709 2748 1489 
Q 2956 1269 2956 922 
Q 2956 450 2595 179 
Q 2234 -91 1600 -91 
Q 1278 -91 972 -22 
Q 666 47 359 184 
z
" transform="scale(0.015625)"/>
      <path id="DejaVuSerif-76" d="M 1581 0 
L 359 2988 
L -19 2988 
L -19 3322 
L 1509 3322 
L 1509 2988 
L 978 2988 
L 1913 703 
L 2847 2988 
L 2350 2988 
L 2350 3322 
L 3597 3322 
L 3597 2988 
L 3225 2988 
L 2003 0 
L 1581 0 
z
" transform="scale(0.015625)"/>
      <path id="DejaVuSerif-79" d="M 1381 -609 
L 1600 -56 
L 359 2988 
L -19 2988 
L -19 3322 
L 1509 3322 
L 1509 2988 
L 978 2988 
L 1913 703 
L 2847 2988 
L 2350 2988 
L 2350 3322 
L 3597 3322 
L 3597 2988 
L 3225 2988 
L 1703 -750 
Q 1547 -1138 1356 -1280 
Q 1166 -1422 819 -1422 
Q 672 -1422 517 -1397 
Q 363 -1372 206 -1325 
L 206 -691 
L 500 -691 
Q 519 -903 608 -995 
Q 697 -1088 884 -1088 
Q 1056 -1088 1161 -992 
Q 1266 -897 1381 -609 
z
" transform="scale(0.015625)"/>
      <path id="DejaVuSerif-67" d="M 3359 2988 
L 3359 72 
Q 3359 -644 2965 -1033 
Q 2572 -1422 1844 -1422 
Q 1516 -1422 1216 -1362 
Q 916 -1303 641 -1184 
L 641 -488 
L 941 -488 
Q 997 -813 1206 -963 
Q 1416 -1113 1806 -1113 
Q 2313 -1113 2548 -827 
Q 2784 -541 2784 72 
L 2784 519 
Q 2616 206 2355 57 
Q 2094 -91 1709 -91 
Q 1097 -91 708 395 
Q 319 881 319 1663 
Q 319 2444 706 2928 
Q 1094 3413 1709 3413 
Q 2094 3413 2355 3264 
Q 2616 3116 2784 2803 
L 2784 3322 
L 3909 3322 
L 3909 2988 
L 3359 2988 
z
M 2784 1825 
Q 2784 2422 2554 2737 
Q 2325 3053 1888 3053 
Q 1444 3053 1217 2703 
Q 991 2353 991 1663 
Q 991 975 1217 622 
Q 1444 269 1888 269 
Q 2325 269 2554 583 
Q 2784 897 2784 1497 
L 2784 1825 
z
" transform="scale(0.015625)"/>
      <path id="DejaVuSerif-2e" d="M 603 325 
Q 603 500 722 622 
Q 841 744 1019 744 
Q 1191 744 1312 622 
Q 1434 500 1434 325 
Q 1434 153 1312 31 
Q 1191 -91 1019 -91 
Q 841 -91 722 29 
Q 603 150 603 325 
z
" transform="scale(0.015625)"/>
      <path id="DejaVuSerif-49" d="M 1581 331 
L 2175 331 
L 2175 0 
L 353 0 
L 353 331 
L 947 331 
L 947 4331 
L 353 4331 
L 353 4666 
L 2175 4666 
L 2175 4331 
L 1581 4331 
L 1581 331 
z
" transform="scale(0.015625)"/>
      <path id="Cmr10-28" d="M 1984 -1588 
Q 1628 -1306 1370 -942 
Q 1113 -578 948 -165 
Q 784 247 703 697 
Q 622 1147 622 1600 
Q 622 2059 703 2509 
Q 784 2959 951 3375 
Q 1119 3791 1378 4153 
Q 1638 4516 1984 4788 
Q 1984 4800 2016 4800 
L 2075 4800 
Q 2094 4800 2109 4783 
Q 2125 4766 2125 4744 
Q 2125 4716 2113 4703 
Q 1800 4397 1592 4047 
Q 1384 3697 1257 3301 
Q 1131 2906 1075 2482 
Q 1019 2059 1019 1600 
Q 1019 -434 2106 -1491 
Q 2125 -1509 2125 -1544 
Q 2125 -1559 2108 -1579 
Q 2091 -1600 2075 -1600 
L 2016 -1600 
Q 1984 -1600 1984 -1588 
z
" transform="scale(0.015625)"/>
      <path id="Cmmi10-74" d="M 397 519 
Q 397 613 416 697 
L 878 2534 
L 206 2534 
Q 141 2534 141 2619 
Q 166 2759 225 2759 
L 934 2759 
L 1191 3803 
Q 1216 3888 1291 3947 
Q 1366 4006 1459 4006 
Q 1541 4006 1595 3957 
Q 1650 3909 1650 3828 
Q 1650 3809 1648 3798 
Q 1647 3788 1644 3775 
L 1388 2759 
L 2047 2759 
Q 2113 2759 2113 2675 
Q 2109 2659 2100 2621 
Q 2091 2584 2075 2559 
Q 2059 2534 2028 2534 
L 1331 2534 
L 872 684 
Q 825 503 825 372 
Q 825 97 1013 97 
Q 1294 97 1511 361 
Q 1728 625 1844 941 
Q 1869 978 1894 978 
L 1972 978 
Q 1997 978 2012 961 
Q 2028 944 2028 922 
Q 2028 909 2022 903 
Q 1881 516 1612 222 
Q 1344 -72 997 -72 
Q 744 -72 570 93 
Q 397 259 397 519 
z
" transform="scale(0.015625)"/>
      <path id="Cmr10-29" d="M 416 -1600 
Q 359 -1600 359 -1544 
Q 359 -1516 372 -1503 
Q 1466 -434 1466 1600 
Q 1466 3634 384 4691 
Q 359 4706 359 4744 
Q 359 4766 376 4783 
Q 394 4800 416 4800 
L 475 4800 
Q 494 4800 506 4788 
Q 966 4425 1272 3906 
Q 1578 3388 1720 2800 
Q 1863 2213 1863 1600 
Q 1863 1147 1786 708 
Q 1709 269 1542 -157 
Q 1375 -584 1119 -945 
Q 863 -1306 506 -1588 
Q 494 -1600 475 -1600 
L 416 -1600 
z
" transform="scale(0.015625)"/>
      <path id="Cmsy10-a1" d="M 653 1472 
Q 600 1472 565 1512 
Q 531 1553 531 1600 
Q 531 1647 565 1687 
Q 600 1728 653 1728 
L 4325 1728 
Q 4375 1728 4408 1687 
Q 4441 1647 4441 1600 
Q 4441 1553 4408 1512 
Q 4375 1472 4325 1472 
L 653 1472 
z
" transform="scale(0.015625)"/>
      <path id="Cmr10-30" d="M 1600 -141 
Q 816 -141 533 504 
Q 250 1150 250 2041 
Q 250 2597 351 3087 
Q 453 3578 754 3920 
Q 1056 4263 1600 4263 
Q 2022 4263 2290 4056 
Q 2559 3850 2700 3523 
Q 2841 3197 2892 2823 
Q 2944 2450 2944 2041 
Q 2944 1491 2842 1011 
Q 2741 531 2444 195 
Q 2147 -141 1600 -141 
z
M 1600 25 
Q 1956 25 2131 390 
Q 2306 756 2347 1200 
Q 2388 1644 2388 2144 
Q 2388 2625 2347 3031 
Q 2306 3438 2132 3767 
Q 1959 4097 1600 4097 
Q 1238 4097 1063 3765 
Q 888 3434 847 3029 
Q 806 2625 806 2144 
Q 806 1788 823 1472 
Q 841 1156 916 820 
Q 991 484 1158 254 
Q 1325 25 1600 25 
z
" transform="scale(0.015625)"/>
      <path id="Cmr10-3d" d="M 481 850 
Q 428 850 393 890 
Q 359 931 359 978 
Q 359 1031 393 1068 
Q 428 1106 481 1106 
L 4500 1106 
Q 4547 1106 4581 1068 
Q 4616 1031 4616 978 
Q 4616 931 4581 890 
Q 4547 850 4500 850 
L 481 850 
z
M 481 2094 
Q 428 2094 393 2131 
Q 359 2169 359 2222 
Q 359 2269 393 2309 
Q 428 2350 481 2350 
L 4500 2350 
Q 4547 2350 4581 2309 
Q 4616 2269 4616 2222 
Q 4616 2169 4581 2131 
Q 4547 2094 4500 2094 
L 481 2094 
z
" transform="scale(0.015625)"/>
      <path id="Cmmi10-73" d="M 556 391 
Q 728 97 1247 97 
Q 1472 97 1675 173 
Q 1878 250 2011 403 
Q 2144 556 2144 775 
Q 2144 941 2025 1047 
Q 1906 1153 1734 1191 
L 1388 1259 
Q 1150 1319 997 1481 
Q 844 1644 844 1875 
Q 844 2159 998 2378 
Q 1153 2597 1406 2712 
Q 1659 2828 1931 2828 
Q 2222 2828 2451 2689 
Q 2681 2550 2681 2278 
Q 2681 2131 2598 2018 
Q 2516 1906 2369 1906 
Q 2284 1906 2223 1961 
Q 2163 2016 2163 2100 
Q 2163 2175 2205 2245 
Q 2247 2316 2317 2358 
Q 2388 2400 2463 2400 
Q 2406 2538 2251 2600 
Q 2097 2663 1919 2663 
Q 1756 2663 1593 2597 
Q 1431 2531 1332 2404 
Q 1234 2278 1234 2106 
Q 1234 1991 1315 1903 
Q 1397 1816 1516 1778 
L 1888 1703 
Q 2066 1666 2214 1570 
Q 2363 1475 2448 1329 
Q 2534 1184 2534 997 
Q 2534 759 2401 528 
Q 2269 297 2075 159 
Q 1734 -72 1241 -72 
Q 900 -72 615 84 
Q 331 241 331 550 
Q 331 725 432 854 
Q 534 984 709 984 
Q 813 984 883 921 
Q 953 859 953 756 
Q 953 609 843 500 
Q 734 391 588 391 
L 556 391 
z
" transform="scale(0.015625)"/>
      <path id="DejaVuSerif-2c" d="M 231 -622 
Q 525 -406 662 -114 
Q 800 178 800 594 
L 800 709 
L 1416 709 
Q 1391 175 1164 -208 
Q 938 -591 481 -872 
L 231 -622 
z
" transform="scale(0.015625)"/>
      <path id="Cmsy10-30" d="M 225 347 
Q 184 359 184 409 
L 966 3316 
Q 1003 3434 1093 3506 
Q 1184 3578 1300 3578 
Q 1450 3578 1564 3479 
Q 1678 3381 1678 3231 
Q 1678 3166 1644 3084 
L 488 319 
Q 466 275 428 275 
Q 394 275 320 306 
Q 247 338 225 347 
z
" transform="scale(0.015625)"/>
      <path id="Cmmi10-76" d="M 684 722 
Q 684 866 718 1037 
Q 753 1209 787 1320 
Q 822 1431 944 1753 
Q 1066 2075 1069 2088 
Q 1153 2322 1153 2472 
Q 1153 2663 1013 2663 
Q 759 2663 595 2402 
Q 431 2141 353 1819 
Q 341 1778 300 1778 
L 225 1778 
Q 172 1778 172 1838 
L 172 1856 
Q 275 2238 487 2533 
Q 700 2828 1025 2828 
Q 1253 2828 1411 2678 
Q 1569 2528 1569 2297 
Q 1569 2178 1516 2047 
Q 1391 1722 1319 1526 
Q 1247 1331 1186 1089 
Q 1125 847 1125 641 
Q 1125 400 1236 248 
Q 1347 97 1581 97 
Q 2025 97 2381 781 
Q 2494 1003 2594 1303 
Q 2694 1603 2694 1791 
Q 2694 1984 2631 2092 
Q 2569 2200 2469 2317 
Q 2369 2434 2369 2503 
Q 2369 2628 2472 2731 
Q 2575 2834 2700 2834 
Q 2853 2834 2920 2693 
Q 2988 2553 2988 2375 
Q 2988 2163 2927 1869 
Q 2866 1575 2758 1259 
Q 2650 944 2559 763 
Q 2138 -72 1575 -72 
Q 1172 -72 928 129 
Q 684 331 684 722 
z
" transform="scale(0.015625)"/>
      <path id="DejaVuSerif-6d" d="M 3316 2675 
Q 3481 3041 3739 3227 
Q 3997 3413 4341 3413 
Q 4863 3413 5119 3089 
Q 5375 2766 5375 2113 
L 5375 331 
L 5894 331 
L 5894 0 
L 4300 0 
L 4300 331 
L 4800 331 
L 4800 2047 
Q 4800 2556 4650 2772 
Q 4500 2988 4153 2988 
Q 3769 2988 3567 2697 
Q 3366 2406 3366 1850 
L 3366 331 
L 3866 331 
L 3866 0 
L 2291 0 
L 2291 331 
L 2791 331 
L 2791 2069 
Q 2791 2566 2641 2777 
Q 2491 2988 2144 2988 
Q 1759 2988 1557 2697 
Q 1356 2406 1356 1850 
L 1356 331 
L 1856 331 
L 1856 0 
L 263 0 
L 263 331 
L 781 331 
L 781 2994 
L 231 2994 
L 231 3322 
L 1356 3322 
L 1356 2731 
Q 1516 3063 1762 3238 
Q 2009 3413 2322 3413 
Q 2709 3413 2968 3220 
Q 3228 3028 3316 2675 
z
" transform="scale(0.015625)"/>
      <path id="Cmmi10-3e" d="M 531 -128 
Q 531 -47 616 -6 
L 4013 1600 
L 594 3219 
Q 531 3238 531 3328 
Q 531 3372 567 3414 
Q 603 3456 659 3456 
Q 672 3456 709 3444 
L 4384 1709 
Q 4441 1681 4441 1600 
Q 4441 1516 4366 1484 
L 709 -244 
Q 672 -256 659 -256 
Q 603 -256 567 -214 
Q 531 -172 531 -128 
z
" transform="scale(0.015625)"/>
      <path id="DejaVuSerif-78" d="M 1863 2028 
L 2559 2988 
L 2113 2988 
L 2113 3322 
L 3391 3322 
L 3391 2988 
L 2950 2988 
L 2059 1759 
L 3097 331 
L 3531 331 
L 3531 0 
L 1997 0 
L 1997 331 
L 2419 331 
L 1697 1325 
L 972 331 
L 1403 331 
L 1403 0 
L 141 0 
L 141 331 
L 581 331 
L 1497 1594 
L 488 2988 
L 78 2988 
L 78 3322 
L 1563 3322 
L 1563 2988 
L 1166 2988 
L 1863 2028 
z
" transform="scale(0.015625)"/>
      <path id="DejaVuSerif-70" d="M 1313 1825 
L 1313 1497 
Q 1313 897 1542 583 
Q 1772 269 2209 269 
Q 2650 269 2876 622 
Q 3103 975 3103 1663 
Q 3103 2353 2876 2703 
Q 2650 3053 2209 3053 
Q 1772 3053 1542 2737 
Q 1313 2422 1313 1825 
z
M 738 2988 
L 184 2988 
L 184 3322 
L 1313 3322 
L 1313 2803 
Q 1481 3116 1742 3264 
Q 2003 3413 2388 3413 
Q 3000 3413 3387 2928 
Q 3775 2444 3775 1663 
Q 3775 881 3387 395 
Q 3000 -91 2388 -91 
Q 2003 -91 1742 57 
Q 1481 206 1313 519 
L 1313 -997 
L 1856 -997 
L 1856 -1331 
L 184 -1331 
L 184 -997 
L 738 -997 
L 738 2988 
z
" transform="scale(0.015625)"/>
     </defs>
     <use xlink:href="#DejaVuSerif-4c" transform="translate(0 0.601562)"/>
     <use xlink:href="#DejaVuSerif-65" transform="translate(66.40625 0.601562)"/>
     <use xlink:href="#DejaVuSerif-74" transform="translate(125.585938 0.601562)"/>
     <use xlink:href="#DejaVuSerif-20" transform="translate(165.771484 0.601562)"/>
     <use xlink:href="#Cmmi10-78" transform="translate(197.558594 0.601562)"/>
     <use xlink:href="#Cmr10-3a" transform="translate(272.197266 0.601562)"/>
     <use xlink:href="#STIXGeneral-Italic-211d" transform="translate(317.441406 0.601562)"/>
     <use xlink:href="#Cmsy10-21" transform="translate(403.699982 0.601562)"/>
     <use xlink:href="#STIXGeneral-Italic-211d" transform="translate(521.258575 0.601562)"/>
     <use xlink:href="#DejaVuSerif-20" transform="translate(589.958557 0.601562)"/>
     <use xlink:href="#DejaVuSerif-62" transform="translate(621.745667 0.601562)"/>
     <use xlink:href="#DejaVuSerif-65" transform="translate(685.759338 0.601562)"/>
     <use xlink:href="#DejaVuSerif-20" transform="translate(744.939026 0.601562)"/>
     <use xlink:href="#DejaVuSerif-61" transform="translate(776.726135 0.601562)"/>
     <use xlink:href="#DejaVuSerif-20" transform="translate(836.345276 0.601562)"/>
     <use xlink:href="#DejaVuSerif-74" transform="translate(868.132385 0.601562)"/>
     <use xlink:href="#DejaVuSerif-77" transform="translate(908.317932 0.601562)"/>
     <use xlink:href="#DejaVuSerif-69" transform="translate(993.913635 0.601562)"/>
     <use xlink:href="#DejaVuSerif-63" transform="translate(1025.896057 0.601562)"/>
     <use xlink:href="#DejaVuSerif-65" transform="translate(1081.901917 0.601562)"/>
     <use xlink:href="#DejaVuSerif-20" transform="translate(1141.081604 0.601562)"/>
     <use xlink:href="#DejaVuSerif-64" transform="translate(1172.868713 0.601562)"/>
     <use xlink:href="#DejaVuSerif-69" transform="translate(1236.882385 0.601562)"/>
     <use xlink:href="#DejaVuSerif-66" transform="translate(1268.864807 0.601562)"/>
     <use xlink:href="#DejaVuSerif-66" transform="translate(1305.876526 0.601562)"/>
     <use xlink:href="#DejaVuSerif-65" transform="translate(1342.888245 0.601562)"/>
     <use xlink:href="#DejaVuSerif-72" transform="translate(1402.067932 0.601562)"/>
     <use xlink:href="#DejaVuSerif-65" transform="translate(1449.870667 0.601562)"/>
     <use xlink:href="#DejaVuSerif-6e" transform="translate(1509.050354 0.601562)"/>
     <use xlink:href="#DejaVuSerif-74" transform="translate(1573.454651 0.601562)"/>
     <use xlink:href="#DejaVuSerif-69" transform="translate(1613.640198 0.601562)"/>
     <use xlink:href="#DejaVuSerif-61" transform="translate(1645.62262 0.601562)"/>
     <use xlink:href="#DejaVuSerif-62" transform="translate(1705.24176 0.601562)"/>
     <use xlink:href="#DejaVuSerif-6c" transform="translate(1769.255432 0.601562)"/>
     <use xlink:href="#DejaVuSerif-65" transform="translate(1801.237854 0.601562)"/>
     <use xlink:href="#DejaVuSerif-20" transform="translate(1860.417542 0.601562)"/>
     <use xlink:href="#DejaVuSerif-66" transform="translate(1892.204651 0.601562)"/>
     <use xlink:href="#DejaVuSerif-75" transform="translate(1929.21637 0.601562)"/>
     <use xlink:href="#DejaVuSerif-6e" transform="translate(1993.620667 0.601562)"/>
     <use xlink:href="#DejaVuSerif-63" transform="translate(2058.024963 0.601562)"/>
     <use xlink:href="#DejaVuSerif-74" transform="translate(2114.030823 0.601562)"/>
     <use xlink:href="#DejaVuSerif-69" transform="translate(2154.21637 0.601562)"/>
     <use xlink:href="#DejaVuSerif-6f" transform="translate(2186.198792 0.601562)"/>
     <use xlink:href="#DejaVuSerif-6e" transform="translate(2246.40387 0.601562)"/>
     <use xlink:href="#DejaVuSerif-20" transform="translate(2310.808167 0.601562)"/>
     <use xlink:href="#DejaVuSerif-77" transform="translate(2342.595276 0.601562)"/>
     <use xlink:href="#DejaVuSerif-68" transform="translate(2428.190979 0.601562)"/>
     <use xlink:href="#DejaVuSerif-6f" transform="translate(2492.595276 0.601562)"/>
     <use xlink:href="#DejaVuSerif-73" transform="translate(2552.800354 0.601562)"/>
     <use xlink:href="#DejaVuSerif-65" transform="translate(2604.118713 0.601562)"/>
     <use xlink:href="#DejaVuSerif-20" transform="translate(2663.298401 0.601562)"/>
     <use xlink:href="#DejaVuSerif-73" transform="translate(2695.08551 0.601562)"/>
     <use xlink:href="#DejaVuSerif-65" transform="translate(2746.40387 0.601562)"/>
     <use xlink:href="#DejaVuSerif-63" transform="translate(2805.583557 0.601562)"/>
     <use xlink:href="#DejaVuSerif-6f" transform="translate(2861.589417 0.601562)"/>
     <use xlink:href="#DejaVuSerif-6e" transform="translate(2921.794495 0.601562)"/>
     <use xlink:href="#DejaVuSerif-64" transform="translate(2986.198792 0.601562)"/>
     <use xlink:href="#DejaVuSerif-20" transform="translate(3050.212463 0.601562)"/>
     <use xlink:href="#DejaVuSerif-64" transform="translate(3081.999573 0.601562)"/>
     <use xlink:href="#DejaVuSerif-65" transform="translate(3146.013245 0.601562)"/>
     <use xlink:href="#DejaVuSerif-72" transform="translate(3205.192932 0.601562)"/>
     <use xlink:href="#DejaVuSerif-69" transform="translate(3252.995667 0.601562)"/>
     <use xlink:href="#DejaVuSerif-76" transform="translate(3284.978088 0.601562)"/>
     <use xlink:href="#DejaVuSerif-61" transform="translate(3341.472229 0.601562)"/>
     <use xlink:href="#DejaVuSerif-74" transform="translate(3401.09137 0.601562)"/>
     <use xlink:href="#DejaVuSerif-69" transform="translate(3441.276917 0.601562)"/>
     <use xlink:href="#DejaVuSerif-76" transform="translate(3473.259338 0.601562)"/>
     <use xlink:href="#DejaVuSerif-65" transform="translate(3529.753479 0.601562)"/>
     <use xlink:href="#DejaVuSerif-20" transform="translate(3588.933167 0.601562)"/>
     <use xlink:href="#DejaVuSerif-69" transform="translate(3620.720276 0.601562)"/>
     <use xlink:href="#DejaVuSerif-73" transform="translate(3652.702698 0.601562)"/>
     <use xlink:href="#DejaVuSerif-20" transform="translate(3704.021057 0.601562)"/>
     <use xlink:href="#DejaVuSerif-6e" transform="translate(3735.808167 0.601562)"/>
     <use xlink:href="#DejaVuSerif-6f" transform="translate(3800.212463 0.601562)"/>
     <use xlink:href="#DejaVuSerif-6e" transform="translate(3860.417542 0.601562)"/>
     <use xlink:href="#DejaVuSerif-73" transform="translate(3924.821838 0.601562)"/>
     <use xlink:href="#DejaVuSerif-74" transform="translate(3976.140198 0.601562)"/>
     <use xlink:href="#DejaVuSerif-72" transform="translate(4016.325745 0.601562)"/>
     <use xlink:href="#DejaVuSerif-69" transform="translate(4064.128479 0.601562)"/>
     <use xlink:href="#DejaVuSerif-63" transform="translate(4096.110901 0.601562)"/>
     <use xlink:href="#DejaVuSerif-74" transform="translate(4152.11676 0.601562)"/>
     <use xlink:href="#DejaVuSerif-6c" transform="translate(4192.302307 0.601562)"/>
     <use xlink:href="#DejaVuSerif-79" transform="translate(4224.284729 0.601562)"/>
     <use xlink:href="#DejaVuSerif-20" transform="translate(4280.77887 0.601562)"/>
     <use xlink:href="#DejaVuSerif-64" transform="translate(4312.565979 0.601562)"/>
     <use xlink:href="#DejaVuSerif-65" transform="translate(4376.579651 0.601562)"/>
     <use xlink:href="#DejaVuSerif-63" transform="translate(4435.759338 0.601562)"/>
     <use xlink:href="#DejaVuSerif-72" transform="translate(4491.765198 0.601562)"/>
     <use xlink:href="#DejaVuSerif-65" transform="translate(4539.567932 0.601562)"/>
     <use xlink:href="#DejaVuSerif-61" transform="translate(4598.74762 0.601562)"/>
     <use xlink:href="#DejaVuSerif-73" transform="translate(4658.36676 0.601562)"/>
     <use xlink:href="#DejaVuSerif-69" transform="translate(4709.68512 0.601562)"/>
     <use xlink:href="#DejaVuSerif-6e" transform="translate(4741.667542 0.601562)"/>
     <use xlink:href="#DejaVuSerif-67" transform="translate(4806.071838 0.601562)"/>
     <use xlink:href="#DejaVuSerif-2e" transform="translate(4870.08551 0.601562)"/>
     <use xlink:href="#DejaVuSerif-20" transform="translate(4901.87262 0.601562)"/>
     <use xlink:href="#DejaVuSerif-49" transform="translate(4933.659729 0.601562)"/>
     <use xlink:href="#DejaVuSerif-66" transform="translate(4973.161682 0.601562)"/>
     <use xlink:href="#DejaVuSerif-20" transform="translate(5010.173401 0.601562)"/>
     <use xlink:href="#Cmmi10-78" transform="translate(5041.96051 0.601562)"/>
     <use xlink:href="#Cmr10-28" transform="translate(5099.040588 0.601562)"/>
     <use xlink:href="#Cmmi10-74" transform="translate(5137.858948 0.601562)"/>
     <use xlink:href="#Cmr10-29" transform="translate(5173.942932 0.601562)"/>
     <use xlink:href="#Cmsy10-a1" transform="translate(5230.319885 0.601562)"/>
     <use xlink:href="#Cmmi10-78" transform="translate(5325.564026 0.601562)"/>
     <use xlink:href="#Cmr10-28" transform="translate(5382.644104 0.601562)"/>
     <use xlink:href="#Cmr10-30" transform="translate(5421.462463 0.601562)"/>
     <use xlink:href="#Cmr10-29" transform="translate(5471.462463 0.601562)"/>
     <use xlink:href="#Cmr10-3d" transform="translate(5527.839417 0.601562)"/>
     <use xlink:href="#Cmmi10-73" transform="translate(5623.083557 0.601562)"/>
     <use xlink:href="#DejaVuSerif-2c" transform="translate(5669.860901 0.601562)"/>
     <use xlink:href="#DejaVuSerif-20" transform="translate(5701.64801 0.601562)"/>
     <use xlink:href="#Cmmi10-78" transform="translate(5733.43512 0.601562)"/>
     <use xlink:href="#Cmsy10-30" transform="translate(5796.818479 38.865625) scale(0.7)"/>
     <use xlink:href="#Cmr10-28" transform="translate(5822.438987 0.601562)"/>
     <use xlink:href="#Cmr10-30" transform="translate(5861.257346 0.601562)"/>
     <use xlink:href="#Cmr10-29" transform="translate(5911.257346 0.601562)"/>
     <use xlink:href="#Cmr10-3d" transform="translate(5967.634299 0.601562)"/>
     <use xlink:href="#Cmr10-30" transform="translate(6062.87844 0.601562)"/>
     <use xlink:href="#DejaVuSerif-2c" transform="translate(6112.87844 0.601562)"/>
     <use xlink:href="#DejaVuSerif-20" transform="translate(6144.665549 0.601562)"/>
     <use xlink:href="#DejaVuSerif-61" transform="translate(6176.452659 0.601562)"/>
     <use xlink:href="#DejaVuSerif-6e" transform="translate(6236.071799 0.601562)"/>
     <use xlink:href="#DejaVuSerif-64" transform="translate(6300.476096 0.601562)"/>
     <use xlink:href="#DejaVuSerif-20" transform="translate(6364.489768 0.601562)"/>
     <use xlink:href="#Cmmi10-78" transform="translate(6396.276877 0.601562)"/>
     <use xlink:href="#Cmsy10-30" transform="translate(6459.660237 38.865625) scale(0.7)"/>
     <use xlink:href="#Cmr10-28" transform="translate(6485.280745 0.601562)"/>
     <use xlink:href="#Cmmi10-74" transform="translate(6524.099104 0.601562)"/>
     <use xlink:href="#Cmr10-29" transform="translate(6560.183088 0.601562)"/>
     <use xlink:href="#Cmr10-3d" transform="translate(6616.560042 0.601562)"/>
     <use xlink:href="#Cmmi10-76" transform="translate(6711.804182 0.601562)"/>
     <use xlink:href="#DejaVuSerif-20" transform="translate(6760.192854 0.601562)"/>
     <use xlink:href="#DejaVuSerif-66" transform="translate(6791.979963 0.601562)"/>
     <use xlink:href="#DejaVuSerif-6f" transform="translate(6828.991682 0.601562)"/>
     <use xlink:href="#DejaVuSerif-72" transform="translate(6889.19676 0.601562)"/>
     <use xlink:href="#DejaVuSerif-20" transform="translate(6936.999495 0.601562)"/>
     <use xlink:href="#DejaVuSerif-73" transform="translate(6968.786604 0.601562)"/>
     <use xlink:href="#DejaVuSerif-6f" transform="translate(7020.104963 0.601562)"/>
     <use xlink:href="#DejaVuSerif-6d" transform="translate(7080.310042 0.601562)"/>
     <use xlink:href="#DejaVuSerif-65" transform="translate(7175.13426 0.601562)"/>
     <use xlink:href="#DejaVuSerif-20" transform="translate(7234.313948 0.601562)"/>
     <use xlink:href="#Cmmi10-74" transform="translate(7266.101057 0.601562)"/>
     <use xlink:href="#Cmmi10-3e" transform="translate(7319.743635 0.601562)"/>
     <use xlink:href="#Cmr10-30" transform="translate(7414.987776 0.601562)"/>
     <use xlink:href="#DejaVuSerif-2c" transform="translate(7464.987776 0.601562)"/>
     <use xlink:href="#DejaVuSerif-20" transform="translate(7496.774885 0.601562)"/>
     <use xlink:href="#DejaVuSerif-66" transform="translate(7528.561995 0.601562)"/>
     <use xlink:href="#DejaVuSerif-69" transform="translate(7565.573713 0.601562)"/>
     <use xlink:href="#DejaVuSerif-6e" transform="translate(7597.556135 0.601562)"/>
     <use xlink:href="#DejaVuSerif-64" transform="translate(7661.960432 0.601562)"/>
     <use xlink:href="#DejaVuSerif-20" transform="translate(7725.974104 0.601562)"/>
     <use xlink:href="#DejaVuSerif-74" transform="translate(7757.761213 0.601562)"/>
     <use xlink:href="#DejaVuSerif-68" transform="translate(7797.94676 0.601562)"/>
     <use xlink:href="#DejaVuSerif-65" transform="translate(7862.351057 0.601562)"/>
     <use xlink:href="#DejaVuSerif-20" transform="translate(7921.530745 0.601562)"/>
     <use xlink:href="#DejaVuSerif-6d" transform="translate(7953.317854 0.601562)"/>
     <use xlink:href="#DejaVuSerif-61" transform="translate(8048.142073 0.601562)"/>
     <use xlink:href="#DejaVuSerif-78" transform="translate(8107.761213 0.601562)"/>
     <use xlink:href="#DejaVuSerif-69" transform="translate(8164.157698 0.601562)"/>
     <use xlink:href="#DejaVuSerif-6d" transform="translate(8196.14012 0.601562)"/>
     <use xlink:href="#DejaVuSerif-75" transform="translate(8290.964338 0.601562)"/>
     <use xlink:href="#DejaVuSerif-6d" transform="translate(8355.368635 0.601562)"/>
     <use xlink:href="#DejaVuSerif-20" transform="translate(8450.192854 0.601562)"/>
     <use xlink:href="#DejaVuSerif-70" transform="translate(8481.979963 0.601562)"/>
     <use xlink:href="#DejaVuSerif-6f" transform="translate(8545.993635 0.601562)"/>
     <use xlink:href="#DejaVuSerif-73" transform="translate(8606.198713 0.601562)"/>
     <use xlink:href="#DejaVuSerif-73" transform="translate(8657.517073 0.601562)"/>
     <use xlink:href="#DejaVuSerif-69" transform="translate(8708.835432 0.601562)"/>
     <use xlink:href="#DejaVuSerif-62" transform="translate(8740.817854 0.601562)"/>
     <use xlink:href="#DejaVuSerif-6c" transform="translate(8804.831526 0.601562)"/>
     <use xlink:href="#DejaVuSerif-65" transform="translate(8836.813948 0.601562)"/>
     <use xlink:href="#DejaVuSerif-20" transform="translate(8895.993635 0.601562)"/>
     <use xlink:href="#DejaVuSerif-76" transform="translate(8927.780745 0.601562)"/>
     <use xlink:href="#DejaVuSerif-61" transform="translate(8984.274885 0.601562)"/>
     <use xlink:href="#DejaVuSerif-6c" transform="translate(9043.894026 0.601562)"/>
     <use xlink:href="#DejaVuSerif-75" transform="translate(9075.876448 0.601562)"/>
     <use xlink:href="#DejaVuSerif-65" transform="translate(9140.280745 0.601562)"/>
     <use xlink:href="#DejaVuSerif-20" transform="translate(9199.460432 0.601562)"/>
     <use xlink:href="#DejaVuSerif-6f" transform="translate(9231.247542 0.601562)"/>
     <use xlink:href="#DejaVuSerif-66" transform="translate(9291.45262 0.601562)"/>
     <use xlink:href="#DejaVuSerif-20" transform="translate(9328.464338 0.601562)"/>
     <use xlink:href="#Cmmi10-74" transform="translate(9360.251448 0.601562)"/>
     <use xlink:href="#DejaVuSerif-20" transform="translate(9396.335432 0.601562)"/>
     <use xlink:href="#DejaVuSerif-69" transform="translate(9428.122542 0.601562)"/>
     <use xlink:href="#DejaVuSerif-6e" transform="translate(9460.104963 0.601562)"/>
     <use xlink:href="#DejaVuSerif-20" transform="translate(9524.50926 0.601562)"/>
     <use xlink:href="#DejaVuSerif-74" transform="translate(9556.29637 0.601562)"/>
     <use xlink:href="#DejaVuSerif-65" transform="translate(9596.481917 0.601562)"/>
     <use xlink:href="#DejaVuSerif-72" transform="translate(9655.661604 0.601562)"/>
     <use xlink:href="#DejaVuSerif-6d" transform="translate(9703.464338 0.601562)"/>
     <use xlink:href="#DejaVuSerif-73" transform="translate(9798.288557 0.601562)"/>
     <use xlink:href="#DejaVuSerif-20" transform="translate(9849.606917 0.601562)"/>
     <use xlink:href="#DejaVuSerif-6f" transform="translate(9881.394026 0.601562)"/>
     <use xlink:href="#DejaVuSerif-66" transform="translate(9941.599104 0.601562)"/>
     <use xlink:href="#DejaVuSerif-20" transform="translate(9978.610823 0.601562)"/>
     <use xlink:href="#Cmmi10-73" transform="translate(10010.397932 0.601562)"/>
     <use xlink:href="#DejaVuSerif-20" transform="translate(10057.175276 0.601562)"/>
     <use xlink:href="#DejaVuSerif-61" transform="translate(10088.962385 0.601562)"/>
     <use xlink:href="#DejaVuSerif-6e" transform="translate(10148.581526 0.601562)"/>
     <use xlink:href="#DejaVuSerif-64" transform="translate(10212.985823 0.601562)"/>
     <use xlink:href="#DejaVuSerif-20" transform="translate(10276.999495 0.601562)"/>
     <use xlink:href="#Cmmi10-76" transform="translate(10308.786604 0.601562)"/>
     <use xlink:href="#DejaVuSerif-2e" transform="translate(10357.175276 0.601562)"/>
    </g>
   </g>
  </g>
 </g>
</svg>
