<?xml version="1.0" encoding="utf-8" standalone="no"?>
<!DOCTYPE svg PUBLIC "-//W3C//DTD SVG 1.1//EN"
  "http://www.w3.org/Graphics/SVG/1.1/DTD/svg11.dtd">
<svg xmlns:xlink="http://www.w3.org/1999/xlink" width="768.6pt" height="228.4pt" viewBox="0 0 768.6 228.4" xmlns="http://www.w3.org/2000/svg" version="1.1">
 <metadata>
  <rdf:RDF xmlns:dc="http://purl.org/dc/elements/1.1/" xmlns:cc="http://creativecommons.org/ns#" xmlns:rdf="http://www.w3.org/1999/02/22-rdf-syntax-ns#">
   <cc:Work>
    <dc:type rdf:resource="http://purl.org/dc/dcmitype/StillImage"/>
    <dc:date>2025-05-29T18:43:52.873259</dc:date>
    <dc:format>image/svg+xml</dc:format>
    <dc:creator>
     <cc:Agent>
      <dc:title>Matplotlib v3.10.3, https://matplotlib.org/</dc:title>
     </cc:Agent>
    </dc:creator>
   </cc:Work>
  </rdf:RDF>
 </metadata>
 <defs>
  <style type="text/css">*{stroke-linejoin: round; stroke-linecap: butt}</style>
 </defs>
 <g id="figure_1">
  <g id="patch_1">
   <path d="M 0 228.4 
L 768.6 228.4 
L 768.6 0 
L 0 0 
z
" style="fill: #ffffff"/>
  </g>
  <g id="axes_1">
   <g id="text_1">
    <!-- Let $k$ be the smallest positive integer for which there exist distinct integers $m_1, m_2, m_3, m_4, m_5$ such that the polynomial -->
    <g transform="translate(26.1 90.205063) scale(0.12 -0.12)">
     <defs>
      <path id="DejaVuSerif-4c" d="M 353 0 
L 353 331 
L 947 331 
L 947 4331 
L 353 4331 
L 353 4666 
L 2175 4666 
L 2175 4331 
L 1581 4331 
L 1581 384 
L 3713 384 
L 3713 1166 
L 4097 1166 
L 4097 0 
L 353 0 
z
" transform="scale(0.015625)"/>
      <path id="DejaVuSerif-65" d="M 3469 1600 
L 991 1600 
L 991 1575 
Q 991 903 1244 561 
Q 1497 219 1991 219 
Q 2369 219 2611 417 
Q 2853 616 2950 1006 
L 3413 1006 
Q 3275 459 2904 184 
Q 2534 -91 1931 -91 
Q 1203 -91 761 389 
Q 319 869 319 1663 
Q 319 2450 753 2931 
Q 1188 3413 1894 3413 
Q 2647 3413 3050 2948 
Q 3453 2484 3469 1600 
z
M 2791 1931 
Q 2772 2513 2545 2808 
Q 2319 3103 1894 3103 
Q 1497 3103 1269 2806 
Q 1041 2509 991 1931 
L 2791 1931 
z
" transform="scale(0.015625)"/>
      <path id="DejaVuSerif-74" d="M 691 2988 
L 184 2988 
L 184 3322 
L 691 3322 
L 691 4353 
L 1269 4353 
L 1269 3322 
L 2350 3322 
L 2350 2988 
L 1269 2988 
L 1269 878 
Q 1269 456 1350 337 
Q 1431 219 1650 219 
Q 1875 219 1978 351 
Q 2081 484 2088 781 
L 2522 781 
Q 2497 328 2275 118 
Q 2053 -91 1600 -91 
Q 1103 -91 897 129 
Q 691 350 691 878 
L 691 2988 
z
" transform="scale(0.015625)"/>
      <path id="DejaVuSerif-20" transform="scale(0.015625)"/>
      <path id="Cmmi10-6b" d="M 341 116 
Q 341 153 347 172 
L 1275 3872 
Q 1300 3981 1306 4044 
Q 1306 4147 891 4147 
Q 825 4147 825 4231 
Q 828 4247 839 4287 
Q 850 4328 867 4350 
Q 884 4372 916 4372 
L 1778 4441 
L 1797 4441 
Q 1797 4434 1819 4423 
Q 1841 4413 1844 4409 
Q 1856 4378 1856 4359 
L 1184 1684 
Q 1416 1781 1767 2145 
Q 2119 2509 2317 2668 
Q 2516 2828 2816 2828 
Q 2994 2828 3119 2706 
Q 3244 2584 3244 2406 
Q 3244 2294 3197 2198 
Q 3150 2103 3065 2043 
Q 2981 1984 2869 1984 
Q 2766 1984 2695 2048 
Q 2625 2113 2625 2216 
Q 2625 2369 2733 2473 
Q 2841 2578 2994 2578 
Q 2931 2663 2803 2663 
Q 2613 2663 2436 2553 
Q 2259 2444 2054 2239 
Q 1850 2034 1681 1864 
Q 1513 1694 1369 1606 
Q 1747 1563 2025 1408 
Q 2303 1253 2303 934 
Q 2303 869 2278 769 
Q 2222 528 2222 384 
Q 2222 97 2419 97 
Q 2650 97 2770 350 
Q 2891 603 2969 941 
Q 2981 978 3022 978 
L 3097 978 
Q 3122 978 3139 962 
Q 3156 947 3156 922 
Q 3156 916 3150 903 
Q 2909 -72 2406 -72 
Q 2225 -72 2086 12 
Q 1947 97 1872 242 
Q 1797 388 1797 569 
Q 1797 672 1825 781 
Q 1844 856 1844 922 
Q 1844 1169 1625 1297 
Q 1406 1425 1125 1453 
L 800 147 
Q 775 50 703 -11 
Q 631 -72 538 -72 
Q 456 -72 398 -17 
Q 341 38 341 116 
z
" transform="scale(0.015625)"/>
      <path id="DejaVuSerif-62" d="M 738 331 
L 738 4531 
L 184 4531 
L 184 4863 
L 1313 4863 
L 1313 2803 
Q 1481 3116 1742 3264 
Q 2003 3413 2388 3413 
Q 3000 3413 3387 2928 
Q 3775 2444 3775 1663 
Q 3775 881 3387 395 
Q 3000 -91 2388 -91 
Q 2003 -91 1742 57 
Q 1481 206 1313 519 
L 1313 0 
L 184 0 
L 184 331 
L 738 331 
z
M 1313 1497 
Q 1313 897 1542 583 
Q 1772 269 2209 269 
Q 2650 269 2876 622 
Q 3103 975 3103 1663 
Q 3103 2353 2876 2703 
Q 2650 3053 2209 3053 
Q 1772 3053 1542 2737 
Q 1313 2422 1313 1825 
L 1313 1497 
z
" transform="scale(0.015625)"/>
      <path id="DejaVuSerif-68" d="M 263 0 
L 263 331 
L 781 331 
L 781 4531 
L 231 4531 
L 231 4863 
L 1356 4863 
L 1356 2731 
Q 1516 3069 1770 3241 
Q 2025 3413 2363 3413 
Q 2913 3413 3172 3097 
Q 3431 2781 3431 2113 
L 3431 331 
L 3944 331 
L 3944 0 
L 2356 0 
L 2356 331 
L 2853 331 
L 2853 1931 
Q 2853 2541 2704 2764 
Q 2556 2988 2175 2988 
Q 1775 2988 1565 2697 
Q 1356 2406 1356 1850 
L 1356 331 
L 1856 331 
L 1856 0 
L 263 0 
z
" transform="scale(0.015625)"/>
      <path id="DejaVuSerif-73" d="M 359 184 
L 359 959 
L 691 959 
Q 703 588 923 403 
Q 1144 219 1575 219 
Q 1963 219 2166 364 
Q 2369 509 2369 788 
Q 2369 1006 2220 1140 
Q 2072 1275 1594 1428 
L 1178 1569 
Q 750 1706 558 1912 
Q 366 2119 366 2438 
Q 366 2894 700 3153 
Q 1034 3413 1625 3413 
Q 1888 3413 2178 3344 
Q 2469 3275 2778 3144 
L 2778 2419 
L 2447 2419 
Q 2434 2741 2221 2922 
Q 2009 3103 1644 3103 
Q 1281 3103 1095 2975 
Q 909 2847 909 2591 
Q 909 2381 1050 2254 
Q 1191 2128 1613 1997 
L 2069 1856 
Q 2541 1709 2748 1489 
Q 2956 1269 2956 922 
Q 2956 450 2595 179 
Q 2234 -91 1600 -91 
Q 1278 -91 972 -22 
Q 666 47 359 184 
z
" transform="scale(0.015625)"/>
      <path id="DejaVuSerif-6d" d="M 3316 2675 
Q 3481 3041 3739 3227 
Q 3997 3413 4341 3413 
Q 4863 3413 5119 3089 
Q 5375 2766 5375 2113 
L 5375 331 
L 5894 331 
L 5894 0 
L 4300 0 
L 4300 331 
L 4800 331 
L 4800 2047 
Q 4800 2556 4650 2772 
Q 4500 2988 4153 2988 
Q 3769 2988 3567 2697 
Q 3366 2406 3366 1850 
L 3366 331 
L 3866 331 
L 3866 0 
L 2291 0 
L 2291 331 
L 2791 331 
L 2791 2069 
Q 2791 2566 2641 2777 
Q 2491 2988 2144 2988 
Q 1759 2988 1557 2697 
Q 1356 2406 1356 1850 
L 1356 331 
L 1856 331 
L 1856 0 
L 263 0 
L 263 331 
L 781 331 
L 781 2994 
L 231 2994 
L 231 3322 
L 1356 3322 
L 1356 2731 
Q 1516 3063 1762 3238 
Q 2009 3413 2322 3413 
Q 2709 3413 2968 3220 
Q 3228 3028 3316 2675 
z
" transform="scale(0.015625)"/>
      <path id="DejaVuSerif-61" d="M 2547 1044 
L 2547 1747 
L 1806 1747 
Q 1378 1747 1168 1562 
Q 959 1378 959 997 
Q 959 650 1171 447 
Q 1384 244 1747 244 
Q 2106 244 2326 466 
Q 2547 688 2547 1044 
z
M 3122 2075 
L 3122 331 
L 3634 331 
L 3634 0 
L 2547 0 
L 2547 359 
Q 2356 128 2106 18 
Q 1856 -91 1522 -91 
Q 969 -91 644 203 
Q 319 497 319 997 
Q 319 1513 691 1797 
Q 1063 2081 1741 2081 
L 2547 2081 
L 2547 2309 
Q 2547 2688 2317 2895 
Q 2088 3103 1672 3103 
Q 1328 3103 1125 2947 
Q 922 2791 872 2484 
L 575 2484 
L 575 3156 
Q 875 3284 1158 3348 
Q 1441 3413 1709 3413 
Q 2400 3413 2761 3070 
Q 3122 2728 3122 2075 
z
" transform="scale(0.015625)"/>
      <path id="DejaVuSerif-6c" d="M 1313 331 
L 1856 331 
L 1856 0 
L 184 0 
L 184 331 
L 738 331 
L 738 4531 
L 184 4531 
L 184 4863 
L 1313 4863 
L 1313 331 
z
" transform="scale(0.015625)"/>
      <path id="DejaVuSerif-70" d="M 1313 1825 
L 1313 1497 
Q 1313 897 1542 583 
Q 1772 269 2209 269 
Q 2650 269 2876 622 
Q 3103 975 3103 1663 
Q 3103 2353 2876 2703 
Q 2650 3053 2209 3053 
Q 1772 3053 1542 2737 
Q 1313 2422 1313 1825 
z
M 738 2988 
L 184 2988 
L 184 3322 
L 1313 3322 
L 1313 2803 
Q 1481 3116 1742 3264 
Q 2003 3413 2388 3413 
Q 3000 3413 3387 2928 
Q 3775 2444 3775 1663 
Q 3775 881 3387 395 
Q 3000 -91 2388 -91 
Q 2003 -91 1742 57 
Q 1481 206 1313 519 
L 1313 -997 
L 1856 -997 
L 1856 -1331 
L 184 -1331 
L 184 -997 
L 738 -997 
L 738 2988 
z
" transform="scale(0.015625)"/>
      <path id="DejaVuSerif-6f" d="M 1925 219 
Q 2388 219 2623 584 
Q 2859 950 2859 1663 
Q 2859 2375 2623 2739 
Q 2388 3103 1925 3103 
Q 1463 3103 1227 2739 
Q 991 2375 991 1663 
Q 991 950 1228 584 
Q 1466 219 1925 219 
z
M 1925 -91 
Q 1200 -91 759 389 
Q 319 869 319 1663 
Q 319 2456 758 2934 
Q 1197 3413 1925 3413 
Q 2653 3413 3092 2934 
Q 3531 2456 3531 1663 
Q 3531 869 3092 389 
Q 2653 -91 1925 -91 
z
" transform="scale(0.015625)"/>
      <path id="DejaVuSerif-69" d="M 622 4353 
Q 622 4497 726 4603 
Q 831 4709 978 4709 
Q 1122 4709 1226 4603 
Q 1331 4497 1331 4353 
Q 1331 4206 1228 4103 
Q 1125 4000 978 4000 
Q 831 4000 726 4103 
Q 622 4206 622 4353 
z
M 1356 331 
L 1900 331 
L 1900 0 
L 231 0 
L 231 331 
L 781 331 
L 781 2988 
L 231 2988 
L 231 3322 
L 1356 3322 
L 1356 331 
z
" transform="scale(0.015625)"/>
      <path id="DejaVuSerif-76" d="M 1581 0 
L 359 2988 
L -19 2988 
L -19 3322 
L 1509 3322 
L 1509 2988 
L 978 2988 
L 1913 703 
L 2847 2988 
L 2350 2988 
L 2350 3322 
L 3597 3322 
L 3597 2988 
L 3225 2988 
L 2003 0 
L 1581 0 
z
" transform="scale(0.015625)"/>
      <path id="DejaVuSerif-6e" d="M 263 0 
L 263 331 
L 781 331 
L 781 2988 
L 231 2988 
L 231 3322 
L 1356 3322 
L 1356 2731 
Q 1516 3069 1770 3241 
Q 2025 3413 2363 3413 
Q 2913 3413 3172 3097 
Q 3431 2781 3431 2113 
L 3431 331 
L 3944 331 
L 3944 0 
L 2356 0 
L 2356 331 
L 2853 331 
L 2853 1931 
Q 2853 2541 2703 2767 
Q 2553 2994 2175 2994 
Q 1775 2994 1565 2701 
Q 1356 2409 1356 1850 
L 1356 331 
L 1856 331 
L 1856 0 
L 263 0 
z
" transform="scale(0.015625)"/>
      <path id="DejaVuSerif-67" d="M 3359 2988 
L 3359 72 
Q 3359 -644 2965 -1033 
Q 2572 -1422 1844 -1422 
Q 1516 -1422 1216 -1362 
Q 916 -1303 641 -1184 
L 641 -488 
L 941 -488 
Q 997 -813 1206 -963 
Q 1416 -1113 1806 -1113 
Q 2313 -1113 2548 -827 
Q 2784 -541 2784 72 
L 2784 519 
Q 2616 206 2355 57 
Q 2094 -91 1709 -91 
Q 1097 -91 708 395 
Q 319 881 319 1663 
Q 319 2444 706 2928 
Q 1094 3413 1709 3413 
Q 2094 3413 2355 3264 
Q 2616 3116 2784 2803 
L 2784 3322 
L 3909 3322 
L 3909 2988 
L 3359 2988 
z
M 2784 1825 
Q 2784 2422 2554 2737 
Q 2325 3053 1888 3053 
Q 1444 3053 1217 2703 
Q 991 2353 991 1663 
Q 991 975 1217 622 
Q 1444 269 1888 269 
Q 2325 269 2554 583 
Q 2784 897 2784 1497 
L 2784 1825 
z
" transform="scale(0.015625)"/>
      <path id="DejaVuSerif-72" d="M 3059 3328 
L 3059 2497 
L 2728 2497 
Q 2713 2744 2591 2866 
Q 2469 2988 2234 2988 
Q 1809 2988 1582 2694 
Q 1356 2400 1356 1850 
L 1356 331 
L 2022 331 
L 2022 0 
L 263 0 
L 263 331 
L 781 331 
L 781 2994 
L 231 2994 
L 231 3322 
L 1356 3322 
L 1356 2731 
Q 1525 3078 1790 3245 
Q 2056 3413 2438 3413 
Q 2578 3413 2733 3391 
Q 2888 3369 3059 3328 
z
" transform="scale(0.015625)"/>
      <path id="DejaVuSerif-66" d="M 2753 4078 
L 2450 4078 
Q 2447 4313 2317 4434 
Q 2188 4556 1941 4556 
Q 1619 4556 1487 4379 
Q 1356 4203 1356 3750 
L 1356 3322 
L 2284 3322 
L 2284 2988 
L 1356 2988 
L 1356 331 
L 2094 331 
L 2094 0 
L 231 0 
L 231 331 
L 781 331 
L 781 2988 
L 231 2988 
L 231 3322 
L 781 3322 
L 781 3738 
Q 781 4294 1070 4578 
Q 1359 4863 1919 4863 
Q 2128 4863 2337 4825 
Q 2547 4788 2753 4709 
L 2753 4078 
z
" transform="scale(0.015625)"/>
      <path id="DejaVuSerif-77" d="M 3072 3322 
L 3922 728 
L 4672 2988 
L 4191 2988 
L 4191 3322 
L 5394 3322 
L 5394 2988 
L 5025 2988 
L 4038 0 
L 3559 0 
L 2741 2484 
L 1919 0 
L 1459 0 
L 475 2988 
L 103 2988 
L 103 3322 
L 1606 3322 
L 1606 2988 
L 1069 2988 
L 1813 728 
L 2669 3322 
L 3072 3322 
z
" transform="scale(0.015625)"/>
      <path id="DejaVuSerif-63" d="M 3291 997 
Q 3169 466 2822 187 
Q 2475 -91 1925 -91 
Q 1200 -91 759 389 
Q 319 869 319 1663 
Q 319 2459 759 2936 
Q 1200 3413 1925 3413 
Q 2241 3413 2553 3339 
Q 2866 3266 3181 3116 
L 3181 2266 
L 2847 2266 
Q 2781 2703 2561 2903 
Q 2341 3103 1931 3103 
Q 1466 3103 1228 2742 
Q 991 2381 991 1663 
Q 991 944 1227 581 
Q 1463 219 1931 219 
Q 2303 219 2525 412 
Q 2747 606 2828 997 
L 3291 997 
z
" transform="scale(0.015625)"/>
      <path id="DejaVuSerif-78" d="M 1863 2028 
L 2559 2988 
L 2113 2988 
L 2113 3322 
L 3391 3322 
L 3391 2988 
L 2950 2988 
L 2059 1759 
L 3097 331 
L 3531 331 
L 3531 0 
L 1997 0 
L 1997 331 
L 2419 331 
L 1697 1325 
L 972 331 
L 1403 331 
L 1403 0 
L 141 0 
L 141 331 
L 581 331 
L 1497 1594 
L 488 2988 
L 78 2988 
L 78 3322 
L 1563 3322 
L 1563 2988 
L 1166 2988 
L 1863 2028 
z
" transform="scale(0.015625)"/>
      <path id="DejaVuSerif-64" d="M 3359 331 
L 3909 331 
L 3909 0 
L 2784 0 
L 2784 519 
Q 2616 206 2355 57 
Q 2094 -91 1709 -91 
Q 1097 -91 708 395 
Q 319 881 319 1663 
Q 319 2444 706 2928 
Q 1094 3413 1709 3413 
Q 2094 3413 2355 3264 
Q 2616 3116 2784 2803 
L 2784 4531 
L 2241 4531 
L 2241 4863 
L 3359 4863 
L 3359 331 
z
M 2784 1497 
L 2784 1825 
Q 2784 2422 2554 2737 
Q 2325 3053 1888 3053 
Q 1444 3053 1217 2703 
Q 991 2353 991 1663 
Q 991 975 1217 622 
Q 1444 269 1888 269 
Q 2325 269 2554 583 
Q 2784 897 2784 1497 
z
" transform="scale(0.015625)"/>
      <path id="Cmmi10-6d" d="M 494 109 
Q 494 147 500 166 
L 978 2075 
Q 1025 2253 1025 2388 
Q 1025 2663 838 2663 
Q 638 2663 541 2423 
Q 444 2184 353 1819 
Q 353 1800 334 1789 
Q 316 1778 300 1778 
L 225 1778 
Q 203 1778 187 1801 
Q 172 1825 172 1844 
Q 241 2122 305 2315 
Q 369 2509 505 2668 
Q 641 2828 844 2828 
Q 1084 2828 1268 2676 
Q 1453 2525 1453 2291 
Q 1644 2541 1900 2684 
Q 2156 2828 2444 2828 
Q 2747 2828 2967 2673 
Q 3188 2519 3188 2234 
Q 3384 2513 3648 2670 
Q 3913 2828 4225 2828 
Q 4556 2828 4757 2648 
Q 4959 2469 4959 2138 
Q 4959 1875 4842 1503 
Q 4725 1131 4550 672 
Q 4459 450 4459 288 
Q 4459 97 4609 97 
Q 4859 97 5025 365 
Q 5191 634 5259 941 
Q 5278 978 5313 978 
L 5388 978 
Q 5413 978 5430 961 
Q 5447 944 5447 922 
Q 5447 916 5441 903 
Q 5353 541 5136 234 
Q 4919 -72 4594 -72 
Q 4369 -72 4209 83 
Q 4050 238 4050 459 
Q 4050 572 4103 709 
Q 4284 1191 4404 1569 
Q 4525 1947 4525 2234 
Q 4525 2413 4453 2538 
Q 4381 2663 4213 2663 
Q 3863 2663 3606 2448 
Q 3350 2234 3163 1881 
Q 3150 1819 3144 1784 
L 2731 141 
Q 2709 53 2632 -9 
Q 2556 -72 2463 -72 
Q 2388 -72 2330 -22 
Q 2272 28 2272 109 
Q 2272 147 2278 166 
L 2688 1797 
Q 2753 2059 2753 2234 
Q 2753 2413 2679 2538 
Q 2606 2663 2431 2663 
Q 2197 2663 2000 2559 
Q 1803 2456 1656 2286 
Q 1509 2116 1388 1881 
L 953 141 
Q 931 53 854 -9 
Q 778 -72 684 -72 
Q 606 -72 550 -22 
Q 494 28 494 109 
z
" transform="scale(0.015625)"/>
      <path id="Cmr10-31" d="M 594 0 
L 594 225 
Q 1394 225 1394 428 
L 1394 3788 
Q 1063 3628 556 3628 
L 556 3853 
Q 1341 3853 1741 4263 
L 1831 4263 
Q 1853 4263 1873 4245 
Q 1894 4228 1894 4206 
L 1894 428 
Q 1894 225 2694 225 
L 2694 0 
L 594 0 
z
" transform="scale(0.015625)"/>
      <path id="Cmmi10-3b" d="M 634 -1153 
Q 634 -1125 659 -1100 
Q 891 -878 1019 -587 
Q 1147 -297 1147 25 
L 1147 103 
Q 1044 0 891 0 
Q 744 0 641 103 
Q 538 206 538 353 
Q 538 503 641 603 
Q 744 703 891 703 
Q 1119 703 1216 492 
Q 1313 281 1313 25 
Q 1313 -331 1170 -651 
Q 1028 -972 769 -1228 
Q 744 -1241 728 -1241 
Q 697 -1241 665 -1212 
Q 634 -1184 634 -1153 
z
" transform="scale(0.015625)"/>
      <path id="Cmr10-32" d="M 319 0 
L 319 172 
Q 319 188 331 206 
L 1325 1306 
Q 1550 1550 1690 1715 
Q 1831 1881 1968 2097 
Q 2106 2313 2186 2536 
Q 2266 2759 2266 3009 
Q 2266 3272 2169 3511 
Q 2072 3750 1880 3894 
Q 1688 4038 1416 4038 
Q 1138 4038 916 3870 
Q 694 3703 603 3438 
Q 628 3444 672 3444 
Q 816 3444 917 3347 
Q 1019 3250 1019 3097 
Q 1019 2950 917 2848 
Q 816 2747 672 2747 
Q 522 2747 420 2851 
Q 319 2956 319 3097 
Q 319 3338 409 3548 
Q 500 3759 670 3923 
Q 841 4088 1055 4175 
Q 1269 4263 1509 4263 
Q 1875 4263 2190 4108 
Q 2506 3953 2690 3670 
Q 2875 3388 2875 3009 
Q 2875 2731 2753 2481 
Q 2631 2231 2440 2026 
Q 2250 1822 1953 1562 
Q 1656 1303 1563 1216 
L 838 519 
L 1453 519 
Q 1906 519 2211 526 
Q 2516 534 2534 550 
Q 2609 631 2688 1141 
L 2875 1141 
L 2694 0 
L 319 0 
z
" transform="scale(0.015625)"/>
      <path id="Cmr10-33" d="M 609 494 
Q 759 275 1012 169 
Q 1266 63 1556 63 
Q 1928 63 2084 380 
Q 2241 697 2241 1100 
Q 2241 1281 2208 1462 
Q 2175 1644 2097 1800 
Q 2019 1956 1883 2050 
Q 1747 2144 1550 2144 
L 1125 2144 
Q 1069 2144 1069 2203 
L 1069 2259 
Q 1069 2309 1125 2309 
L 1478 2338 
Q 1703 2338 1851 2506 
Q 2000 2675 2069 2917 
Q 2138 3159 2138 3378 
Q 2138 3684 1994 3881 
Q 1850 4078 1556 4078 
Q 1313 4078 1091 3986 
Q 869 3894 738 3706 
Q 750 3709 759 3711 
Q 769 3713 781 3713 
Q 925 3713 1022 3613 
Q 1119 3513 1119 3372 
Q 1119 3234 1022 3134 
Q 925 3034 781 3034 
Q 641 3034 541 3134 
Q 441 3234 441 3372 
Q 441 3647 606 3850 
Q 772 4053 1033 4158 
Q 1294 4263 1556 4263 
Q 1750 4263 1965 4205 
Q 2181 4147 2356 4039 
Q 2531 3931 2642 3762 
Q 2753 3594 2753 3378 
Q 2753 3109 2633 2881 
Q 2513 2653 2303 2487 
Q 2094 2322 1844 2241 
Q 2122 2188 2372 2031 
Q 2622 1875 2773 1631 
Q 2925 1388 2925 1106 
Q 2925 753 2731 467 
Q 2538 181 2222 20 
Q 1906 -141 1556 -141 
Q 1256 -141 954 -26 
Q 653 88 461 316 
Q 269 544 269 863 
Q 269 1022 375 1128 
Q 481 1234 641 1234 
Q 744 1234 830 1186 
Q 916 1138 964 1050 
Q 1013 963 1013 863 
Q 1013 706 903 600 
Q 794 494 641 494 
L 609 494 
z
" transform="scale(0.015625)"/>
      <path id="Cmr10-34" d="M 178 1056 
L 178 1281 
L 2156 4231 
Q 2178 4263 2222 4263 
L 2316 4263 
Q 2388 4263 2388 4191 
L 2388 1281 
L 3016 1281 
L 3016 1056 
L 2388 1056 
L 2388 428 
Q 2388 297 2575 261 
Q 2763 225 3009 225 
L 3009 0 
L 1247 0 
L 1247 225 
Q 1494 225 1681 261 
Q 1869 297 1869 428 
L 1869 1056 
L 178 1056 
z
M 391 1281 
L 1906 1281 
L 1906 3547 
L 391 1281 
z
" transform="scale(0.015625)"/>
      <path id="Cmr10-35" d="M 556 728 
Q 622 541 758 387 
Q 894 234 1080 148 
Q 1266 63 1466 63 
Q 1928 63 2103 422 
Q 2278 781 2278 1294 
Q 2278 1516 2270 1667 
Q 2263 1819 2228 1959 
Q 2169 2184 2020 2353 
Q 1872 2522 1656 2522 
Q 1441 2522 1286 2456 
Q 1131 2391 1034 2303 
Q 938 2216 863 2119 
Q 788 2022 769 2016 
L 697 2016 
Q 681 2016 657 2036 
Q 634 2056 634 2075 
L 634 4213 
Q 634 4228 654 4245 
Q 675 4263 697 4263 
L 716 4263 
Q 1147 4056 1631 4056 
Q 2106 4056 2547 4263 
L 2566 4263 
Q 2588 4263 2606 4247 
Q 2625 4231 2625 4213 
L 2625 4153 
Q 2625 4122 2613 4122 
Q 2394 3831 2064 3668 
Q 1734 3506 1381 3506 
Q 1125 3506 856 3578 
L 856 2369 
Q 1069 2541 1236 2614 
Q 1403 2688 1663 2688 
Q 2016 2688 2295 2484 
Q 2575 2281 2725 1954 
Q 2875 1628 2875 1288 
Q 2875 903 2686 575 
Q 2497 247 2172 53 
Q 1847 -141 1466 -141 
Q 1150 -141 886 21 
Q 622 184 470 459 
Q 319 734 319 1044 
Q 319 1188 412 1278 
Q 506 1369 647 1369 
Q 788 1369 883 1276 
Q 978 1184 978 1044 
Q 978 906 883 811 
Q 788 716 647 716 
Q 625 716 597 720 
Q 569 725 556 728 
z
" transform="scale(0.015625)"/>
      <path id="DejaVuSerif-75" d="M 2266 3322 
L 3341 3322 
L 3341 331 
L 3884 331 
L 3884 0 
L 2766 0 
L 2766 588 
Q 2606 256 2353 82 
Q 2100 -91 1766 -91 
Q 1213 -91 952 223 
Q 691 538 691 1209 
L 691 2988 
L 172 2988 
L 172 3322 
L 1269 3322 
L 1269 1388 
Q 1269 781 1417 556 
Q 1566 331 1947 331 
Q 2347 331 2556 625 
Q 2766 919 2766 1478 
L 2766 2988 
L 2266 2988 
L 2266 3322 
z
" transform="scale(0.015625)"/>
      <path id="DejaVuSerif-79" d="M 1381 -609 
L 1600 -56 
L 359 2988 
L -19 2988 
L -19 3322 
L 1509 3322 
L 1509 2988 
L 978 2988 
L 1913 703 
L 2847 2988 
L 2350 2988 
L 2350 3322 
L 3597 3322 
L 3597 2988 
L 3225 2988 
L 1703 -750 
Q 1547 -1138 1356 -1280 
Q 1166 -1422 819 -1422 
Q 672 -1422 517 -1397 
Q 363 -1372 206 -1325 
L 206 -691 
L 500 -691 
Q 519 -903 608 -995 
Q 697 -1088 884 -1088 
Q 1056 -1088 1161 -992 
Q 1266 -897 1381 -609 
z
" transform="scale(0.015625)"/>
     </defs>
     <use xlink:href="#DejaVuSerif-4c" transform="translate(0 0.015625)"/>
     <use xlink:href="#DejaVuSerif-65" transform="translate(66.40625 0.015625)"/>
     <use xlink:href="#DejaVuSerif-74" transform="translate(125.585938 0.015625)"/>
     <use xlink:href="#DejaVuSerif-20" transform="translate(165.771484 0.015625)"/>
     <use xlink:href="#Cmmi10-6b" transform="translate(197.558594 0.015625)"/>
     <use xlink:href="#DejaVuSerif-20" transform="translate(249.560547 0.015625)"/>
     <use xlink:href="#DejaVuSerif-62" transform="translate(281.347656 0.015625)"/>
     <use xlink:href="#DejaVuSerif-65" transform="translate(345.361328 0.015625)"/>
     <use xlink:href="#DejaVuSerif-20" transform="translate(404.541016 0.015625)"/>
     <use xlink:href="#DejaVuSerif-74" transform="translate(436.328125 0.015625)"/>
     <use xlink:href="#DejaVuSerif-68" transform="translate(476.513672 0.015625)"/>
     <use xlink:href="#DejaVuSerif-65" transform="translate(540.917969 0.015625)"/>
     <use xlink:href="#DejaVuSerif-20" transform="translate(600.097656 0.015625)"/>
     <use xlink:href="#DejaVuSerif-73" transform="translate(631.884766 0.015625)"/>
     <use xlink:href="#DejaVuSerif-6d" transform="translate(683.203125 0.015625)"/>
     <use xlink:href="#DejaVuSerif-61" transform="translate(778.027344 0.015625)"/>
     <use xlink:href="#DejaVuSerif-6c" transform="translate(837.646484 0.015625)"/>
     <use xlink:href="#DejaVuSerif-6c" transform="translate(869.628906 0.015625)"/>
     <use xlink:href="#DejaVuSerif-65" transform="translate(901.611328 0.015625)"/>
     <use xlink:href="#DejaVuSerif-73" transform="translate(960.791016 0.015625)"/>
     <use xlink:href="#DejaVuSerif-74" transform="translate(1012.109375 0.015625)"/>
     <use xlink:href="#DejaVuSerif-20" transform="translate(1052.294922 0.015625)"/>
     <use xlink:href="#DejaVuSerif-70" transform="translate(1084.082031 0.015625)"/>
     <use xlink:href="#DejaVuSerif-6f" transform="translate(1148.095703 0.015625)"/>
     <use xlink:href="#DejaVuSerif-73" transform="translate(1208.300781 0.015625)"/>
     <use xlink:href="#DejaVuSerif-69" transform="translate(1259.619141 0.015625)"/>
     <use xlink:href="#DejaVuSerif-74" transform="translate(1291.601562 0.015625)"/>
     <use xlink:href="#DejaVuSerif-69" transform="translate(1331.787109 0.015625)"/>
     <use xlink:href="#DejaVuSerif-76" transform="translate(1363.769531 0.015625)"/>
     <use xlink:href="#DejaVuSerif-65" transform="translate(1420.263672 0.015625)"/>
     <use xlink:href="#DejaVuSerif-20" transform="translate(1479.443359 0.015625)"/>
     <use xlink:href="#DejaVuSerif-69" transform="translate(1511.230469 0.015625)"/>
     <use xlink:href="#DejaVuSerif-6e" transform="translate(1543.212891 0.015625)"/>
     <use xlink:href="#DejaVuSerif-74" transform="translate(1607.617188 0.015625)"/>
     <use xlink:href="#DejaVuSerif-65" transform="translate(1647.802734 0.015625)"/>
     <use xlink:href="#DejaVuSerif-67" transform="translate(1706.982422 0.015625)"/>
     <use xlink:href="#DejaVuSerif-65" transform="translate(1770.996094 0.015625)"/>
     <use xlink:href="#DejaVuSerif-72" transform="translate(1830.175781 0.015625)"/>
     <use xlink:href="#DejaVuSerif-20" transform="translate(1877.978516 0.015625)"/>
     <use xlink:href="#DejaVuSerif-66" transform="translate(1909.765625 0.015625)"/>
     <use xlink:href="#DejaVuSerif-6f" transform="translate(1946.777344 0.015625)"/>
     <use xlink:href="#DejaVuSerif-72" transform="translate(2006.982422 0.015625)"/>
     <use xlink:href="#DejaVuSerif-20" transform="translate(2054.785156 0.015625)"/>
     <use xlink:href="#DejaVuSerif-77" transform="translate(2086.572266 0.015625)"/>
     <use xlink:href="#DejaVuSerif-68" transform="translate(2172.167969 0.015625)"/>
     <use xlink:href="#DejaVuSerif-69" transform="translate(2236.572266 0.015625)"/>
     <use xlink:href="#DejaVuSerif-63" transform="translate(2268.554688 0.015625)"/>
     <use xlink:href="#DejaVuSerif-68" transform="translate(2324.560547 0.015625)"/>
     <use xlink:href="#DejaVuSerif-20" transform="translate(2388.964844 0.015625)"/>
     <use xlink:href="#DejaVuSerif-74" transform="translate(2420.751953 0.015625)"/>
     <use xlink:href="#DejaVuSerif-68" transform="translate(2460.9375 0.015625)"/>
     <use xlink:href="#DejaVuSerif-65" transform="translate(2525.341797 0.015625)"/>
     <use xlink:href="#DejaVuSerif-72" transform="translate(2584.521484 0.015625)"/>
     <use xlink:href="#DejaVuSerif-65" transform="translate(2632.324219 0.015625)"/>
     <use xlink:href="#DejaVuSerif-20" transform="translate(2691.503906 0.015625)"/>
     <use xlink:href="#DejaVuSerif-65" transform="translate(2723.291016 0.015625)"/>
     <use xlink:href="#DejaVuSerif-78" transform="translate(2782.470703 0.015625)"/>
     <use xlink:href="#DejaVuSerif-69" transform="translate(2838.867188 0.015625)"/>
     <use xlink:href="#DejaVuSerif-73" transform="translate(2870.849609 0.015625)"/>
     <use xlink:href="#DejaVuSerif-74" transform="translate(2922.167969 0.015625)"/>
     <use xlink:href="#DejaVuSerif-20" transform="translate(2962.353516 0.015625)"/>
     <use xlink:href="#DejaVuSerif-64" transform="translate(2994.140625 0.015625)"/>
     <use xlink:href="#DejaVuSerif-69" transform="translate(3058.154297 0.015625)"/>
     <use xlink:href="#DejaVuSerif-73" transform="translate(3090.136719 0.015625)"/>
     <use xlink:href="#DejaVuSerif-74" transform="translate(3141.455078 0.015625)"/>
     <use xlink:href="#DejaVuSerif-69" transform="translate(3181.640625 0.015625)"/>
     <use xlink:href="#DejaVuSerif-6e" transform="translate(3213.623047 0.015625)"/>
     <use xlink:href="#DejaVuSerif-63" transform="translate(3278.027344 0.015625)"/>
     <use xlink:href="#DejaVuSerif-74" transform="translate(3334.033203 0.015625)"/>
     <use xlink:href="#DejaVuSerif-20" transform="translate(3374.21875 0.015625)"/>
     <use xlink:href="#DejaVuSerif-69" transform="translate(3406.005859 0.015625)"/>
     <use xlink:href="#DejaVuSerif-6e" transform="translate(3437.988281 0.015625)"/>
     <use xlink:href="#DejaVuSerif-74" transform="translate(3502.392578 0.015625)"/>
     <use xlink:href="#DejaVuSerif-65" transform="translate(3542.578125 0.015625)"/>
     <use xlink:href="#DejaVuSerif-67" transform="translate(3601.757812 0.015625)"/>
     <use xlink:href="#DejaVuSerif-65" transform="translate(3665.771484 0.015625)"/>
     <use xlink:href="#DejaVuSerif-72" transform="translate(3724.951172 0.015625)"/>
     <use xlink:href="#DejaVuSerif-73" transform="translate(3772.753906 0.015625)"/>
     <use xlink:href="#DejaVuSerif-20" transform="translate(3824.072266 0.015625)"/>
     <use xlink:href="#Cmmi10-6d" transform="translate(3855.859375 0.015625)"/>
     <use xlink:href="#Cmr10-31" transform="translate(3943.652344 -16.990625) scale(0.7)"/>
     <use xlink:href="#Cmmi10-3b" transform="translate(3985.029687 0.015625)"/>
     <use xlink:href="#Cmmi10-6d" transform="translate(4030.273828 0.015625)"/>
     <use xlink:href="#Cmr10-32" transform="translate(4118.066797 -16.990625) scale(0.7)"/>
     <use xlink:href="#Cmmi10-3b" transform="translate(4159.444141 0.015625)"/>
     <use xlink:href="#Cmmi10-6d" transform="translate(4204.688281 0.015625)"/>
     <use xlink:href="#Cmr10-33" transform="translate(4292.48125 -16.990625) scale(0.7)"/>
     <use xlink:href="#Cmmi10-3b" transform="translate(4333.858594 0.015625)"/>
     <use xlink:href="#Cmmi10-6d" transform="translate(4379.102734 0.015625)"/>
     <use xlink:href="#Cmr10-34" transform="translate(4466.895703 -16.990625) scale(0.7)"/>
     <use xlink:href="#Cmmi10-3b" transform="translate(4508.273047 0.015625)"/>
     <use xlink:href="#Cmmi10-6d" transform="translate(4553.517188 0.015625)"/>
     <use xlink:href="#Cmr10-35" transform="translate(4641.310156 -16.990625) scale(0.7)"/>
     <use xlink:href="#DejaVuSerif-20" transform="translate(4682.6875 0.015625)"/>
     <use xlink:href="#DejaVuSerif-73" transform="translate(4714.474609 0.015625)"/>
     <use xlink:href="#DejaVuSerif-75" transform="translate(4765.792969 0.015625)"/>
     <use xlink:href="#DejaVuSerif-63" transform="translate(4830.197266 0.015625)"/>
     <use xlink:href="#DejaVuSerif-68" transform="translate(4886.203125 0.015625)"/>
     <use xlink:href="#DejaVuSerif-20" transform="translate(4950.607422 0.015625)"/>
     <use xlink:href="#DejaVuSerif-74" transform="translate(4982.394531 0.015625)"/>
     <use xlink:href="#DejaVuSerif-68" transform="translate(5022.580078 0.015625)"/>
     <use xlink:href="#DejaVuSerif-61" transform="translate(5086.984375 0.015625)"/>
     <use xlink:href="#DejaVuSerif-74" transform="translate(5146.603516 0.015625)"/>
     <use xlink:href="#DejaVuSerif-20" transform="translate(5186.789062 0.015625)"/>
     <use xlink:href="#DejaVuSerif-74" transform="translate(5218.576172 0.015625)"/>
     <use xlink:href="#DejaVuSerif-68" transform="translate(5258.761719 0.015625)"/>
     <use xlink:href="#DejaVuSerif-65" transform="translate(5323.166016 0.015625)"/>
     <use xlink:href="#DejaVuSerif-20" transform="translate(5382.345703 0.015625)"/>
     <use xlink:href="#DejaVuSerif-70" transform="translate(5414.132812 0.015625)"/>
     <use xlink:href="#DejaVuSerif-6f" transform="translate(5478.146484 0.015625)"/>
     <use xlink:href="#DejaVuSerif-6c" transform="translate(5538.351562 0.015625)"/>
     <use xlink:href="#DejaVuSerif-79" transform="translate(5570.333984 0.015625)"/>
     <use xlink:href="#DejaVuSerif-6e" transform="translate(5626.828125 0.015625)"/>
     <use xlink:href="#DejaVuSerif-6f" transform="translate(5691.232422 0.015625)"/>
     <use xlink:href="#DejaVuSerif-6d" transform="translate(5751.4375 0.015625)"/>
     <use xlink:href="#DejaVuSerif-69" transform="translate(5846.261719 0.015625)"/>
     <use xlink:href="#DejaVuSerif-61" transform="translate(5878.244141 0.015625)"/>
     <use xlink:href="#DejaVuSerif-6c" transform="translate(5937.863281 0.015625)"/>
    </g>
    <!-- \[ -->
    <g transform="translate(379.937812 103.906813) scale(0.12 -0.12)">
     <defs>
      <path id="DejaVuSerif-5c" d="M 500 4666 
L 2156 -594 
L 1656 -594 
L 0 4666 
L 500 4666 
z
" transform="scale(0.015625)"/>
      <path id="DejaVuSerif-5b" d="M 550 4863 
L 2003 4863 
L 2003 4531 
L 1147 4531 
L 1147 -513 
L 2003 -513 
L 2003 -844 
L 550 -844 
L 550 4863 
z
" transform="scale(0.015625)"/>
     </defs>
     <use xlink:href="#DejaVuSerif-5c"/>
     <use xlink:href="#DejaVuSerif-5b" transform="translate(33.691406 0)"/>
    </g>
    <!-- p(x) = (x-m_1)(x-m_2)(x-m_3)(x-m_4)(x-m_5) -->
    <g transform="translate(251.075625 117.344188) scale(0.12 -0.12)">
     <defs>
      <path id="DejaVuSerif-28" d="M 2041 -997 
Q 1281 -656 893 83 
Q 506 822 506 1931 
Q 506 3044 893 3783 
Q 1281 4522 2041 4863 
L 2041 4556 
Q 1559 4225 1350 3623 
Q 1141 3022 1141 1931 
Q 1141 844 1350 242 
Q 1559 -359 2041 -691 
L 2041 -997 
z
" transform="scale(0.015625)"/>
      <path id="DejaVuSerif-29" d="M 453 -997 
L 453 -691 
Q 934 -359 1145 242 
Q 1356 844 1356 1931 
Q 1356 3022 1145 3623 
Q 934 4225 453 4556 
L 453 4863 
Q 1216 4522 1603 3783 
Q 1991 3044 1991 1931 
Q 1991 822 1603 83 
Q 1216 -656 453 -997 
z
" transform="scale(0.015625)"/>
      <path id="DejaVuSerif-3d" d="M 678 2894 
L 4684 2894 
L 4684 2394 
L 678 2394 
L 678 2894 
z
M 678 1619 
L 4684 1619 
L 4684 1119 
L 678 1119 
L 678 1619 
z
" transform="scale(0.015625)"/>
      <path id="DejaVuSerif-2d" d="M 281 1959 
L 1881 1959 
L 1881 1472 
L 281 1472 
L 281 1959 
z
" transform="scale(0.015625)"/>
      <path id="DejaVuSerif-5f" d="M 3200 -1259 
L 3200 -1509 
L 0 -1509 
L 0 -1259 
L 3200 -1259 
z
" transform="scale(0.015625)"/>
      <path id="DejaVuSerif-31" d="M 909 0 
L 909 331 
L 1722 331 
L 1722 4213 
L 781 3603 
L 781 4013 
L 1919 4750 
L 2350 4750 
L 2350 331 
L 3163 331 
L 3163 0 
L 909 0 
z
" transform="scale(0.015625)"/>
      <path id="DejaVuSerif-32" d="M 819 3553 
L 469 3553 
L 469 4384 
Q 803 4563 1142 4656 
Q 1481 4750 1806 4750 
Q 2534 4750 2956 4397 
Q 3378 4044 3378 3438 
Q 3378 2753 2422 1800 
Q 2347 1728 2309 1691 
L 1131 513 
L 3078 513 
L 3078 1088 
L 3444 1088 
L 3444 0 
L 434 0 
L 434 341 
L 1850 1753 
Q 2319 2222 2519 2614 
Q 2719 3006 2719 3438 
Q 2719 3909 2473 4175 
Q 2228 4441 1797 4441 
Q 1350 4441 1106 4219 
Q 863 3997 819 3553 
z
" transform="scale(0.015625)"/>
      <path id="DejaVuSerif-33" d="M 622 4469 
Q 988 4606 1323 4678 
Q 1659 4750 1953 4750 
Q 2638 4750 3022 4454 
Q 3406 4159 3406 3634 
Q 3406 3213 3140 2930 
Q 2875 2647 2388 2547 
Q 2963 2466 3280 2130 
Q 3597 1794 3597 1259 
Q 3597 606 3158 257 
Q 2719 -91 1894 -91 
Q 1528 -91 1179 -12 
Q 831 66 488 225 
L 488 1131 
L 838 1131 
Q 869 681 1141 450 
Q 1413 219 1906 219 
Q 2384 219 2661 495 
Q 2938 772 2938 1253 
Q 2938 1803 2653 2086 
Q 2369 2369 1819 2369 
L 1522 2369 
L 1522 2688 
L 1678 2688 
Q 2225 2688 2498 2914 
Q 2772 3141 2772 3597 
Q 2772 4006 2547 4223 
Q 2322 4441 1900 4441 
Q 1478 4441 1245 4241 
Q 1013 4041 972 3647 
L 622 3647 
L 622 4469 
z
" transform="scale(0.015625)"/>
      <path id="DejaVuSerif-34" d="M 2234 1581 
L 2234 4063 
L 641 1581 
L 2234 1581 
z
M 3609 0 
L 1484 0 
L 1484 331 
L 2234 331 
L 2234 1247 
L 197 1247 
L 197 1588 
L 2241 4750 
L 2859 4750 
L 2859 1581 
L 3750 1581 
L 3750 1247 
L 2859 1247 
L 2859 331 
L 3609 331 
L 3609 0 
z
" transform="scale(0.015625)"/>
      <path id="DejaVuSerif-35" d="M 3219 4666 
L 3219 4153 
L 1081 4153 
L 1081 2816 
Q 1244 2928 1461 2984 
Q 1678 3041 1947 3041 
Q 2703 3041 3140 2622 
Q 3578 2203 3578 1478 
Q 3578 738 3136 323 
Q 2694 -91 1894 -91 
Q 1572 -91 1234 -12 
Q 897 66 544 225 
L 544 1131 
L 897 1131 
Q 925 688 1179 453 
Q 1434 219 1894 219 
Q 2388 219 2653 544 
Q 2919 869 2919 1478 
Q 2919 2084 2655 2407 
Q 2391 2731 1894 2731 
Q 1613 2731 1398 2631 
Q 1184 2531 1019 2322 
L 750 2322 
L 750 4666 
L 3219 4666 
z
" transform="scale(0.015625)"/>
     </defs>
     <use xlink:href="#DejaVuSerif-70"/>
     <use xlink:href="#DejaVuSerif-28" transform="translate(64.013672 0)"/>
     <use xlink:href="#DejaVuSerif-78" transform="translate(103.027344 0)"/>
     <use xlink:href="#DejaVuSerif-29" transform="translate(159.423828 0)"/>
     <use xlink:href="#DejaVuSerif-20" transform="translate(198.4375 0)"/>
     <use xlink:href="#DejaVuSerif-3d" transform="translate(230.224609 0)"/>
     <use xlink:href="#DejaVuSerif-20" transform="translate(314.013672 0)"/>
     <use xlink:href="#DejaVuSerif-28" transform="translate(345.800781 0)"/>
     <use xlink:href="#DejaVuSerif-78" transform="translate(384.814453 0)"/>
     <use xlink:href="#DejaVuSerif-2d" transform="translate(439.460938 0)"/>
     <use xlink:href="#DejaVuSerif-6d" transform="translate(473.25 0)"/>
     <use xlink:href="#DejaVuSerif-5f" transform="translate(568.074219 0)"/>
     <use xlink:href="#DejaVuSerif-31" transform="translate(618.074219 0)"/>
     <use xlink:href="#DejaVuSerif-29" transform="translate(681.697266 0)"/>
     <use xlink:href="#DejaVuSerif-28" transform="translate(720.710938 0)"/>
     <use xlink:href="#DejaVuSerif-78" transform="translate(759.724609 0)"/>
     <use xlink:href="#DejaVuSerif-2d" transform="translate(814.371094 0)"/>
     <use xlink:href="#DejaVuSerif-6d" transform="translate(848.160156 0)"/>
     <use xlink:href="#DejaVuSerif-5f" transform="translate(942.984375 0)"/>
     <use xlink:href="#DejaVuSerif-32" transform="translate(992.984375 0)"/>
     <use xlink:href="#DejaVuSerif-29" transform="translate(1056.607422 0)"/>
     <use xlink:href="#DejaVuSerif-28" transform="translate(1095.621094 0)"/>
     <use xlink:href="#DejaVuSerif-78" transform="translate(1134.634766 0)"/>
     <use xlink:href="#DejaVuSerif-2d" transform="translate(1189.28125 0)"/>
     <use xlink:href="#DejaVuSerif-6d" transform="translate(1223.070312 0)"/>
     <use xlink:href="#DejaVuSerif-5f" transform="translate(1317.894531 0)"/>
     <use xlink:href="#DejaVuSerif-33" transform="translate(1367.894531 0)"/>
     <use xlink:href="#DejaVuSerif-29" transform="translate(1431.517578 0)"/>
     <use xlink:href="#DejaVuSerif-28" transform="translate(1470.53125 0)"/>
     <use xlink:href="#DejaVuSerif-78" transform="translate(1509.544922 0)"/>
     <use xlink:href="#DejaVuSerif-2d" transform="translate(1564.191406 0)"/>
     <use xlink:href="#DejaVuSerif-6d" transform="translate(1597.980469 0)"/>
     <use xlink:href="#DejaVuSerif-5f" transform="translate(1692.804688 0)"/>
     <use xlink:href="#DejaVuSerif-34" transform="translate(1742.804688 0)"/>
     <use xlink:href="#DejaVuSerif-29" transform="translate(1806.427734 0)"/>
     <use xlink:href="#DejaVuSerif-28" transform="translate(1845.441406 0)"/>
     <use xlink:href="#DejaVuSerif-78" transform="translate(1884.455078 0)"/>
     <use xlink:href="#DejaVuSerif-2d" transform="translate(1939.101562 0)"/>
     <use xlink:href="#DejaVuSerif-6d" transform="translate(1972.890625 0)"/>
     <use xlink:href="#DejaVuSerif-5f" transform="translate(2067.714844 0)"/>
     <use xlink:href="#DejaVuSerif-35" transform="translate(2117.714844 0)"/>
     <use xlink:href="#DejaVuSerif-29" transform="translate(2181.337891 0)"/>
    </g>
    <!-- \] -->
    <g transform="translate(379.937812 131.115313) scale(0.12 -0.12)">
     <defs>
      <path id="DejaVuSerif-5d" d="M 1947 4863 
L 1947 -844 
L 494 -844 
L 494 -513 
L 1350 -513 
L 1350 4531 
L 494 4531 
L 494 4863 
L 1947 4863 
z
" transform="scale(0.015625)"/>
     </defs>
     <use xlink:href="#DejaVuSerif-5c"/>
     <use xlink:href="#DejaVuSerif-5d" transform="translate(33.691406 0)"/>
    </g>
    <!-- has exactly $k$ nonzero coefficients. Find, with proof, a set of integers $m_1, m_2, m_3, m_4, m_5$ for which this minimum $k$ is achieved. -->
    <g transform="translate(7.2 144.554938) scale(0.12 -0.12)">
     <defs>
      <path id="DejaVuSerif-7a" d="M 256 0 
L 256 269 
L 2338 2988 
L 691 2988 
L 691 2413 
L 359 2413 
L 359 3322 
L 3078 3322 
L 3078 3053 
L 997 331 
L 2803 331 
L 2803 934 
L 3138 934 
L 3138 0 
L 256 0 
z
" transform="scale(0.015625)"/>
      <path id="DejaVuSerif-2e" d="M 603 325 
Q 603 500 722 622 
Q 841 744 1019 744 
Q 1191 744 1312 622 
Q 1434 500 1434 325 
Q 1434 153 1312 31 
Q 1191 -91 1019 -91 
Q 841 -91 722 29 
Q 603 150 603 325 
z
" transform="scale(0.015625)"/>
      <path id="DejaVuSerif-46" d="M 353 0 
L 353 331 
L 947 331 
L 947 4331 
L 353 4331 
L 353 4666 
L 4172 4666 
L 4172 3628 
L 3788 3628 
L 3788 4281 
L 1581 4281 
L 1581 2719 
L 3175 2719 
L 3175 3303 
L 3559 3303 
L 3559 1753 
L 3175 1753 
L 3175 2338 
L 1581 2338 
L 1581 331 
L 2328 331 
L 2328 0 
L 353 0 
z
" transform="scale(0.015625)"/>
      <path id="DejaVuSerif-2c" d="M 231 -622 
Q 525 -406 662 -114 
Q 800 178 800 594 
L 800 709 
L 1416 709 
Q 1391 175 1164 -208 
Q 938 -591 481 -872 
L 231 -622 
z
" transform="scale(0.015625)"/>
     </defs>
     <use xlink:href="#DejaVuSerif-68" transform="translate(0 0.015625)"/>
     <use xlink:href="#DejaVuSerif-61" transform="translate(64.404297 0.015625)"/>
     <use xlink:href="#DejaVuSerif-73" transform="translate(124.023438 0.015625)"/>
     <use xlink:href="#DejaVuSerif-20" transform="translate(175.341797 0.015625)"/>
     <use xlink:href="#DejaVuSerif-65" transform="translate(207.128906 0.015625)"/>
     <use xlink:href="#DejaVuSerif-78" transform="translate(266.308594 0.015625)"/>
     <use xlink:href="#DejaVuSerif-61" transform="translate(322.705078 0.015625)"/>
     <use xlink:href="#DejaVuSerif-63" transform="translate(382.324219 0.015625)"/>
     <use xlink:href="#DejaVuSerif-74" transform="translate(438.330078 0.015625)"/>
     <use xlink:href="#DejaVuSerif-6c" transform="translate(478.515625 0.015625)"/>
     <use xlink:href="#DejaVuSerif-79" transform="translate(510.498047 0.015625)"/>
     <use xlink:href="#DejaVuSerif-20" transform="translate(566.992188 0.015625)"/>
     <use xlink:href="#Cmmi10-6b" transform="translate(598.779297 0.015625)"/>
     <use xlink:href="#DejaVuSerif-20" transform="translate(650.78125 0.015625)"/>
     <use xlink:href="#DejaVuSerif-6e" transform="translate(682.568359 0.015625)"/>
     <use xlink:href="#DejaVuSerif-6f" transform="translate(746.972656 0.015625)"/>
     <use xlink:href="#DejaVuSerif-6e" transform="translate(807.177734 0.015625)"/>
     <use xlink:href="#DejaVuSerif-7a" transform="translate(871.582031 0.015625)"/>
     <use xlink:href="#DejaVuSerif-65" transform="translate(924.267578 0.015625)"/>
     <use xlink:href="#DejaVuSerif-72" transform="translate(983.447266 0.015625)"/>
     <use xlink:href="#DejaVuSerif-6f" transform="translate(1031.25 0.015625)"/>
     <use xlink:href="#DejaVuSerif-20" transform="translate(1091.455078 0.015625)"/>
     <use xlink:href="#DejaVuSerif-63" transform="translate(1123.242188 0.015625)"/>
     <use xlink:href="#DejaVuSerif-6f" transform="translate(1179.248047 0.015625)"/>
     <use xlink:href="#DejaVuSerif-65" transform="translate(1239.453125 0.015625)"/>
     <use xlink:href="#DejaVuSerif-66" transform="translate(1298.632812 0.015625)"/>
     <use xlink:href="#DejaVuSerif-66" transform="translate(1335.644531 0.015625)"/>
     <use xlink:href="#DejaVuSerif-69" transform="translate(1372.65625 0.015625)"/>
     <use xlink:href="#DejaVuSerif-63" transform="translate(1404.638672 0.015625)"/>
     <use xlink:href="#DejaVuSerif-69" transform="translate(1460.644531 0.015625)"/>
     <use xlink:href="#DejaVuSerif-65" transform="translate(1492.626953 0.015625)"/>
     <use xlink:href="#DejaVuSerif-6e" transform="translate(1551.806641 0.015625)"/>
     <use xlink:href="#DejaVuSerif-74" transform="translate(1616.210938 0.015625)"/>
     <use xlink:href="#DejaVuSerif-73" transform="translate(1656.396484 0.015625)"/>
     <use xlink:href="#DejaVuSerif-2e" transform="translate(1707.714844 0.015625)"/>
     <use xlink:href="#DejaVuSerif-20" transform="translate(1739.501953 0.015625)"/>
     <use xlink:href="#DejaVuSerif-46" transform="translate(1771.289062 0.015625)"/>
     <use xlink:href="#DejaVuSerif-69" transform="translate(1840.673828 0.015625)"/>
     <use xlink:href="#DejaVuSerif-6e" transform="translate(1872.65625 0.015625)"/>
     <use xlink:href="#DejaVuSerif-64" transform="translate(1937.060547 0.015625)"/>
     <use xlink:href="#DejaVuSerif-2c" transform="translate(2001.074219 0.015625)"/>
     <use xlink:href="#DejaVuSerif-20" transform="translate(2032.861328 0.015625)"/>
     <use xlink:href="#DejaVuSerif-77" transform="translate(2064.648438 0.015625)"/>
     <use xlink:href="#DejaVuSerif-69" transform="translate(2150.244141 0.015625)"/>
     <use xlink:href="#DejaVuSerif-74" transform="translate(2182.226562 0.015625)"/>
     <use xlink:href="#DejaVuSerif-68" transform="translate(2222.412109 0.015625)"/>
     <use xlink:href="#DejaVuSerif-20" transform="translate(2286.816406 0.015625)"/>
     <use xlink:href="#DejaVuSerif-70" transform="translate(2318.603516 0.015625)"/>
     <use xlink:href="#DejaVuSerif-72" transform="translate(2382.617188 0.015625)"/>
     <use xlink:href="#DejaVuSerif-6f" transform="translate(2430.419922 0.015625)"/>
     <use xlink:href="#DejaVuSerif-6f" transform="translate(2490.625 0.015625)"/>
     <use xlink:href="#DejaVuSerif-66" transform="translate(2550.830078 0.015625)"/>
     <use xlink:href="#DejaVuSerif-2c" transform="translate(2587.841797 0.015625)"/>
     <use xlink:href="#DejaVuSerif-20" transform="translate(2619.628906 0.015625)"/>
     <use xlink:href="#DejaVuSerif-61" transform="translate(2651.416016 0.015625)"/>
     <use xlink:href="#DejaVuSerif-20" transform="translate(2711.035156 0.015625)"/>
     <use xlink:href="#DejaVuSerif-73" transform="translate(2742.822266 0.015625)"/>
     <use xlink:href="#DejaVuSerif-65" transform="translate(2794.140625 0.015625)"/>
     <use xlink:href="#DejaVuSerif-74" transform="translate(2853.320312 0.015625)"/>
     <use xlink:href="#DejaVuSerif-20" transform="translate(2893.505859 0.015625)"/>
     <use xlink:href="#DejaVuSerif-6f" transform="translate(2925.292969 0.015625)"/>
     <use xlink:href="#DejaVuSerif-66" transform="translate(2985.498047 0.015625)"/>
     <use xlink:href="#DejaVuSerif-20" transform="translate(3022.509766 0.015625)"/>
     <use xlink:href="#DejaVuSerif-69" transform="translate(3054.296875 0.015625)"/>
     <use xlink:href="#DejaVuSerif-6e" transform="translate(3086.279297 0.015625)"/>
     <use xlink:href="#DejaVuSerif-74" transform="translate(3150.683594 0.015625)"/>
     <use xlink:href="#DejaVuSerif-65" transform="translate(3190.869141 0.015625)"/>
     <use xlink:href="#DejaVuSerif-67" transform="translate(3250.048828 0.015625)"/>
     <use xlink:href="#DejaVuSerif-65" transform="translate(3314.0625 0.015625)"/>
     <use xlink:href="#DejaVuSerif-72" transform="translate(3373.242188 0.015625)"/>
     <use xlink:href="#DejaVuSerif-73" transform="translate(3421.044922 0.015625)"/>
     <use xlink:href="#DejaVuSerif-20" transform="translate(3472.363281 0.015625)"/>
     <use xlink:href="#Cmmi10-6d" transform="translate(3504.150391 0.015625)"/>
     <use xlink:href="#Cmr10-31" transform="translate(3591.943359 -16.990625) scale(0.7)"/>
     <use xlink:href="#Cmmi10-3b" transform="translate(3633.320703 0.015625)"/>
     <use xlink:href="#Cmmi10-6d" transform="translate(3678.564844 0.015625)"/>
     <use xlink:href="#Cmr10-32" transform="translate(3766.357812 -16.990625) scale(0.7)"/>
     <use xlink:href="#Cmmi10-3b" transform="translate(3807.735156 0.015625)"/>
     <use xlink:href="#Cmmi10-6d" transform="translate(3852.979297 0.015625)"/>
     <use xlink:href="#Cmr10-33" transform="translate(3940.772266 -16.990625) scale(0.7)"/>
     <use xlink:href="#Cmmi10-3b" transform="translate(3982.149609 0.015625)"/>
     <use xlink:href="#Cmmi10-6d" transform="translate(4027.39375 0.015625)"/>
     <use xlink:href="#Cmr10-34" transform="translate(4115.186719 -16.990625) scale(0.7)"/>
     <use xlink:href="#Cmmi10-3b" transform="translate(4156.564062 0.015625)"/>
     <use xlink:href="#Cmmi10-6d" transform="translate(4201.808203 0.015625)"/>
     <use xlink:href="#Cmr10-35" transform="translate(4289.601172 -16.990625) scale(0.7)"/>
     <use xlink:href="#DejaVuSerif-20" transform="translate(4330.978516 0.015625)"/>
     <use xlink:href="#DejaVuSerif-66" transform="translate(4362.765625 0.015625)"/>
     <use xlink:href="#DejaVuSerif-6f" transform="translate(4399.777344 0.015625)"/>
     <use xlink:href="#DejaVuSerif-72" transform="translate(4459.982422 0.015625)"/>
     <use xlink:href="#DejaVuSerif-20" transform="translate(4507.785156 0.015625)"/>
     <use xlink:href="#DejaVuSerif-77" transform="translate(4539.572266 0.015625)"/>
     <use xlink:href="#DejaVuSerif-68" transform="translate(4625.167969 0.015625)"/>
     <use xlink:href="#DejaVuSerif-69" transform="translate(4689.572266 0.015625)"/>
     <use xlink:href="#DejaVuSerif-63" transform="translate(4721.554688 0.015625)"/>
     <use xlink:href="#DejaVuSerif-68" transform="translate(4777.560547 0.015625)"/>
     <use xlink:href="#DejaVuSerif-20" transform="translate(4841.964844 0.015625)"/>
     <use xlink:href="#DejaVuSerif-74" transform="translate(4873.751953 0.015625)"/>
     <use xlink:href="#DejaVuSerif-68" transform="translate(4913.9375 0.015625)"/>
     <use xlink:href="#DejaVuSerif-69" transform="translate(4978.341797 0.015625)"/>
     <use xlink:href="#DejaVuSerif-73" transform="translate(5010.324219 0.015625)"/>
     <use xlink:href="#DejaVuSerif-20" transform="translate(5061.642578 0.015625)"/>
     <use xlink:href="#DejaVuSerif-6d" transform="translate(5093.429688 0.015625)"/>
     <use xlink:href="#DejaVuSerif-69" transform="translate(5188.253906 0.015625)"/>
     <use xlink:href="#DejaVuSerif-6e" transform="translate(5220.236328 0.015625)"/>
     <use xlink:href="#DejaVuSerif-69" transform="translate(5284.640625 0.015625)"/>
     <use xlink:href="#DejaVuSerif-6d" transform="translate(5316.623047 0.015625)"/>
     <use xlink:href="#DejaVuSerif-75" transform="translate(5411.447266 0.015625)"/>
     <use xlink:href="#DejaVuSerif-6d" transform="translate(5475.851562 0.015625)"/>
     <use xlink:href="#DejaVuSerif-20" transform="translate(5570.675781 0.015625)"/>
     <use xlink:href="#Cmmi10-6b" transform="translate(5602.462891 0.015625)"/>
     <use xlink:href="#DejaVuSerif-20" transform="translate(5654.464844 0.015625)"/>
     <use xlink:href="#DejaVuSerif-69" transform="translate(5686.251953 0.015625)"/>
     <use xlink:href="#DejaVuSerif-73" transform="translate(5718.234375 0.015625)"/>
     <use xlink:href="#DejaVuSerif-20" transform="translate(5769.552734 0.015625)"/>
     <use xlink:href="#DejaVuSerif-61" transform="translate(5801.339844 0.015625)"/>
     <use xlink:href="#DejaVuSerif-63" transform="translate(5860.958984 0.015625)"/>
     <use xlink:href="#DejaVuSerif-68" transform="translate(5916.964844 0.015625)"/>
     <use xlink:href="#DejaVuSerif-69" transform="translate(5981.369141 0.015625)"/>
     <use xlink:href="#DejaVuSerif-65" transform="translate(6013.351562 0.015625)"/>
     <use xlink:href="#DejaVuSerif-76" transform="translate(6072.53125 0.015625)"/>
     <use xlink:href="#DejaVuSerif-65" transform="translate(6129.025391 0.015625)"/>
     <use xlink:href="#DejaVuSerif-64" transform="translate(6188.205078 0.015625)"/>
     <use xlink:href="#DejaVuSerif-2e" transform="translate(6252.21875 0.015625)"/>
    </g>
   </g>
  </g>
 </g>
</svg>
