<?xml version="1.0" encoding="utf-8" standalone="no"?>
<!DOCTYPE svg PUBLIC "-//W3C//DTD SVG 1.1//EN"
  "http://www.w3.org/Graphics/SVG/1.1/DTD/svg11.dtd">
<svg xmlns:xlink="http://www.w3.org/1999/xlink" width="2448pt" height="180.72pt" viewBox="0 0 2448 180.72" xmlns="http://www.w3.org/2000/svg" version="1.1">
 <metadata>
  <rdf:RDF xmlns:dc="http://purl.org/dc/elements/1.1/" xmlns:cc="http://creativecommons.org/ns#" xmlns:rdf="http://www.w3.org/1999/02/22-rdf-syntax-ns#">
   <cc:Work>
    <dc:type rdf:resource="http://purl.org/dc/dcmitype/StillImage"/>
    <dc:date>2025-05-29T18:43:56.190807</dc:date>
    <dc:format>image/svg+xml</dc:format>
    <dc:creator>
     <cc:Agent>
      <dc:title>Matplotlib v3.10.3, https://matplotlib.org/</dc:title>
     </cc:Agent>
    </dc:creator>
   </cc:Work>
  </rdf:RDF>
 </metadata>
 <defs>
  <style type="text/css">*{stroke-linejoin: round; stroke-linecap: butt}</style>
 </defs>
 <g id="figure_1">
  <g id="patch_1">
   <path d="M 0 180.72 
L 2448 180.72 
L 2448 0 
L 0 0 
z
" style="fill: #ffffff"/>
  </g>
  <g id="axes_1">
   <g id="text_1">
    <!-- For positive integers $n$, let $M_n$ be the $2n+1$ by $2n+1$ skew-symmetric matrix for which each entry in the first $n$ subdiagonals below the main diagonal is $1$ and each of the remaining entries below the main diagonal is $-1$. Find, with proof, the rank of $M_n$. (According to one definition, the rank of a matrix is the largest $k$ such that there is a $k \times k$ submatrix with nonzero determinant.) One may note that -->
    <g transform="translate(7.2 66.160875) scale(0.12 -0.12)">
     <defs>
      <path id="DejaVuSerif-46" d="M 353 0 
L 353 331 
L 947 331 
L 947 4331 
L 353 4331 
L 353 4666 
L 4172 4666 
L 4172 3628 
L 3788 3628 
L 3788 4281 
L 1581 4281 
L 1581 2719 
L 3175 2719 
L 3175 3303 
L 3559 3303 
L 3559 1753 
L 3175 1753 
L 3175 2338 
L 1581 2338 
L 1581 331 
L 2328 331 
L 2328 0 
L 353 0 
z
" transform="scale(0.015625)"/>
      <path id="DejaVuSerif-6f" d="M 1925 219 
Q 2388 219 2623 584 
Q 2859 950 2859 1663 
Q 2859 2375 2623 2739 
Q 2388 3103 1925 3103 
Q 1463 3103 1227 2739 
Q 991 2375 991 1663 
Q 991 950 1228 584 
Q 1466 219 1925 219 
z
M 1925 -91 
Q 1200 -91 759 389 
Q 319 869 319 1663 
Q 319 2456 758 2934 
Q 1197 3413 1925 3413 
Q 2653 3413 3092 2934 
Q 3531 2456 3531 1663 
Q 3531 869 3092 389 
Q 2653 -91 1925 -91 
z
" transform="scale(0.015625)"/>
      <path id="DejaVuSerif-72" d="M 3059 3328 
L 3059 2497 
L 2728 2497 
Q 2713 2744 2591 2866 
Q 2469 2988 2234 2988 
Q 1809 2988 1582 2694 
Q 1356 2400 1356 1850 
L 1356 331 
L 2022 331 
L 2022 0 
L 263 0 
L 263 331 
L 781 331 
L 781 2994 
L 231 2994 
L 231 3322 
L 1356 3322 
L 1356 2731 
Q 1525 3078 1790 3245 
Q 2056 3413 2438 3413 
Q 2578 3413 2733 3391 
Q 2888 3369 3059 3328 
z
" transform="scale(0.015625)"/>
      <path id="DejaVuSerif-20" transform="scale(0.015625)"/>
      <path id="DejaVuSerif-70" d="M 1313 1825 
L 1313 1497 
Q 1313 897 1542 583 
Q 1772 269 2209 269 
Q 2650 269 2876 622 
Q 3103 975 3103 1663 
Q 3103 2353 2876 2703 
Q 2650 3053 2209 3053 
Q 1772 3053 1542 2737 
Q 1313 2422 1313 1825 
z
M 738 2988 
L 184 2988 
L 184 3322 
L 1313 3322 
L 1313 2803 
Q 1481 3116 1742 3264 
Q 2003 3413 2388 3413 
Q 3000 3413 3387 2928 
Q 3775 2444 3775 1663 
Q 3775 881 3387 395 
Q 3000 -91 2388 -91 
Q 2003 -91 1742 57 
Q 1481 206 1313 519 
L 1313 -997 
L 1856 -997 
L 1856 -1331 
L 184 -1331 
L 184 -997 
L 738 -997 
L 738 2988 
z
" transform="scale(0.015625)"/>
      <path id="DejaVuSerif-73" d="M 359 184 
L 359 959 
L 691 959 
Q 703 588 923 403 
Q 1144 219 1575 219 
Q 1963 219 2166 364 
Q 2369 509 2369 788 
Q 2369 1006 2220 1140 
Q 2072 1275 1594 1428 
L 1178 1569 
Q 750 1706 558 1912 
Q 366 2119 366 2438 
Q 366 2894 700 3153 
Q 1034 3413 1625 3413 
Q 1888 3413 2178 3344 
Q 2469 3275 2778 3144 
L 2778 2419 
L 2447 2419 
Q 2434 2741 2221 2922 
Q 2009 3103 1644 3103 
Q 1281 3103 1095 2975 
Q 909 2847 909 2591 
Q 909 2381 1050 2254 
Q 1191 2128 1613 1997 
L 2069 1856 
Q 2541 1709 2748 1489 
Q 2956 1269 2956 922 
Q 2956 450 2595 179 
Q 2234 -91 1600 -91 
Q 1278 -91 972 -22 
Q 666 47 359 184 
z
" transform="scale(0.015625)"/>
      <path id="DejaVuSerif-69" d="M 622 4353 
Q 622 4497 726 4603 
Q 831 4709 978 4709 
Q 1122 4709 1226 4603 
Q 1331 4497 1331 4353 
Q 1331 4206 1228 4103 
Q 1125 4000 978 4000 
Q 831 4000 726 4103 
Q 622 4206 622 4353 
z
M 1356 331 
L 1900 331 
L 1900 0 
L 231 0 
L 231 331 
L 781 331 
L 781 2988 
L 231 2988 
L 231 3322 
L 1356 3322 
L 1356 331 
z
" transform="scale(0.015625)"/>
      <path id="DejaVuSerif-74" d="M 691 2988 
L 184 2988 
L 184 3322 
L 691 3322 
L 691 4353 
L 1269 4353 
L 1269 3322 
L 2350 3322 
L 2350 2988 
L 1269 2988 
L 1269 878 
Q 1269 456 1350 337 
Q 1431 219 1650 219 
Q 1875 219 1978 351 
Q 2081 484 2088 781 
L 2522 781 
Q 2497 328 2275 118 
Q 2053 -91 1600 -91 
Q 1103 -91 897 129 
Q 691 350 691 878 
L 691 2988 
z
" transform="scale(0.015625)"/>
      <path id="DejaVuSerif-76" d="M 1581 0 
L 359 2988 
L -19 2988 
L -19 3322 
L 1509 3322 
L 1509 2988 
L 978 2988 
L 1913 703 
L 2847 2988 
L 2350 2988 
L 2350 3322 
L 3597 3322 
L 3597 2988 
L 3225 2988 
L 2003 0 
L 1581 0 
z
" transform="scale(0.015625)"/>
      <path id="DejaVuSerif-65" d="M 3469 1600 
L 991 1600 
L 991 1575 
Q 991 903 1244 561 
Q 1497 219 1991 219 
Q 2369 219 2611 417 
Q 2853 616 2950 1006 
L 3413 1006 
Q 3275 459 2904 184 
Q 2534 -91 1931 -91 
Q 1203 -91 761 389 
Q 319 869 319 1663 
Q 319 2450 753 2931 
Q 1188 3413 1894 3413 
Q 2647 3413 3050 2948 
Q 3453 2484 3469 1600 
z
M 2791 1931 
Q 2772 2513 2545 2808 
Q 2319 3103 1894 3103 
Q 1497 3103 1269 2806 
Q 1041 2509 991 1931 
L 2791 1931 
z
" transform="scale(0.015625)"/>
      <path id="DejaVuSerif-6e" d="M 263 0 
L 263 331 
L 781 331 
L 781 2988 
L 231 2988 
L 231 3322 
L 1356 3322 
L 1356 2731 
Q 1516 3069 1770 3241 
Q 2025 3413 2363 3413 
Q 2913 3413 3172 3097 
Q 3431 2781 3431 2113 
L 3431 331 
L 3944 331 
L 3944 0 
L 2356 0 
L 2356 331 
L 2853 331 
L 2853 1931 
Q 2853 2541 2703 2767 
Q 2553 2994 2175 2994 
Q 1775 2994 1565 2701 
Q 1356 2409 1356 1850 
L 1356 331 
L 1856 331 
L 1856 0 
L 263 0 
z
" transform="scale(0.015625)"/>
      <path id="DejaVuSerif-67" d="M 3359 2988 
L 3359 72 
Q 3359 -644 2965 -1033 
Q 2572 -1422 1844 -1422 
Q 1516 -1422 1216 -1362 
Q 916 -1303 641 -1184 
L 641 -488 
L 941 -488 
Q 997 -813 1206 -963 
Q 1416 -1113 1806 -1113 
Q 2313 -1113 2548 -827 
Q 2784 -541 2784 72 
L 2784 519 
Q 2616 206 2355 57 
Q 2094 -91 1709 -91 
Q 1097 -91 708 395 
Q 319 881 319 1663 
Q 319 2444 706 2928 
Q 1094 3413 1709 3413 
Q 2094 3413 2355 3264 
Q 2616 3116 2784 2803 
L 2784 3322 
L 3909 3322 
L 3909 2988 
L 3359 2988 
z
M 2784 1825 
Q 2784 2422 2554 2737 
Q 2325 3053 1888 3053 
Q 1444 3053 1217 2703 
Q 991 2353 991 1663 
Q 991 975 1217 622 
Q 1444 269 1888 269 
Q 2325 269 2554 583 
Q 2784 897 2784 1497 
L 2784 1825 
z
" transform="scale(0.015625)"/>
      <path id="Cmmi10-6e" d="M 494 109 
Q 494 147 500 166 
L 978 2075 
Q 1025 2253 1025 2388 
Q 1025 2663 838 2663 
Q 638 2663 541 2423 
Q 444 2184 353 1819 
Q 353 1800 334 1789 
Q 316 1778 300 1778 
L 225 1778 
Q 203 1778 187 1801 
Q 172 1825 172 1844 
Q 241 2122 305 2315 
Q 369 2509 505 2668 
Q 641 2828 844 2828 
Q 1084 2828 1268 2676 
Q 1453 2525 1453 2291 
Q 1644 2541 1900 2684 
Q 2156 2828 2444 2828 
Q 2672 2828 2837 2750 
Q 3003 2672 3095 2514 
Q 3188 2356 3188 2138 
Q 3188 1875 3070 1503 
Q 2953 1131 2778 672 
Q 2688 463 2688 288 
Q 2688 97 2834 97 
Q 3084 97 3251 365 
Q 3419 634 3488 941 
Q 3500 978 3541 978 
L 3616 978 
Q 3641 978 3658 962 
Q 3675 947 3675 922 
Q 3675 916 3669 903 
Q 3581 541 3364 234 
Q 3147 -72 2822 -72 
Q 2597 -72 2437 83 
Q 2278 238 2278 459 
Q 2278 578 2328 709 
Q 2409 919 2514 1209 
Q 2619 1500 2686 1765 
Q 2753 2031 2753 2234 
Q 2753 2413 2679 2538 
Q 2606 2663 2431 2663 
Q 2197 2663 2000 2559 
Q 1803 2456 1656 2286 
Q 1509 2116 1388 1881 
L 953 141 
Q 931 53 854 -9 
Q 778 -72 684 -72 
Q 606 -72 550 -22 
Q 494 28 494 109 
z
" transform="scale(0.015625)"/>
      <path id="DejaVuSerif-2c" d="M 231 -622 
Q 525 -406 662 -114 
Q 800 178 800 594 
L 800 709 
L 1416 709 
Q 1391 175 1164 -208 
Q 938 -591 481 -872 
L 231 -622 
z
" transform="scale(0.015625)"/>
      <path id="DejaVuSerif-6c" d="M 1313 331 
L 1856 331 
L 1856 0 
L 184 0 
L 184 331 
L 738 331 
L 738 4531 
L 184 4531 
L 184 4863 
L 1313 4863 
L 1313 331 
z
" transform="scale(0.015625)"/>
      <path id="Cmmi10-4d" d="M 325 0 
Q 263 0 263 84 
Q 266 100 275 137 
Q 284 175 300 200 
Q 316 225 347 225 
Q 956 225 1056 616 
L 1888 3956 
Q 1900 4019 1900 4044 
Q 1900 4113 1825 4122 
Q 1703 4147 1363 4147 
Q 1300 4147 1300 4231 
Q 1303 4247 1312 4286 
Q 1322 4325 1339 4348 
Q 1356 4372 1381 4372 
L 2509 4372 
Q 2581 4372 2591 4300 
L 3091 634 
L 5422 4300 
Q 5466 4372 5544 4372 
L 6631 4372 
Q 6694 4372 6694 4288 
Q 6691 4272 6681 4233 
Q 6672 4194 6655 4170 
Q 6638 4147 6613 4147 
Q 6222 4147 6069 4103 
Q 5984 4075 5947 3928 
L 5069 416 
Q 5056 353 5056 325 
Q 5056 300 5064 283 
Q 5072 266 5086 261 
Q 5100 256 5131 250 
Q 5253 225 5594 225 
Q 5656 225 5656 141 
Q 5634 50 5621 25 
Q 5609 0 5550 0 
L 3878 0 
Q 3816 0 3816 84 
Q 3819 100 3828 139 
Q 3838 178 3855 201 
Q 3872 225 3897 225 
Q 4288 225 4441 269 
Q 4525 297 4563 441 
L 5484 4147 
L 2900 72 
Q 2863 0 2772 0 
Q 2691 0 2681 72 
L 2138 4097 
L 1259 588 
Q 1253 572 1250 548 
Q 1247 525 1241 494 
Q 1241 328 1386 276 
Q 1531 225 1741 225 
Q 1806 225 1806 141 
Q 1784 56 1770 28 
Q 1756 0 1697 0 
L 325 0 
z
" transform="scale(0.015625)"/>
      <path id="DejaVuSerif-62" d="M 738 331 
L 738 4531 
L 184 4531 
L 184 4863 
L 1313 4863 
L 1313 2803 
Q 1481 3116 1742 3264 
Q 2003 3413 2388 3413 
Q 3000 3413 3387 2928 
Q 3775 2444 3775 1663 
Q 3775 881 3387 395 
Q 3000 -91 2388 -91 
Q 2003 -91 1742 57 
Q 1481 206 1313 519 
L 1313 0 
L 184 0 
L 184 331 
L 738 331 
z
M 1313 1497 
Q 1313 897 1542 583 
Q 1772 269 2209 269 
Q 2650 269 2876 622 
Q 3103 975 3103 1663 
Q 3103 2353 2876 2703 
Q 2650 3053 2209 3053 
Q 1772 3053 1542 2737 
Q 1313 2422 1313 1825 
L 1313 1497 
z
" transform="scale(0.015625)"/>
      <path id="DejaVuSerif-68" d="M 263 0 
L 263 331 
L 781 331 
L 781 4531 
L 231 4531 
L 231 4863 
L 1356 4863 
L 1356 2731 
Q 1516 3069 1770 3241 
Q 2025 3413 2363 3413 
Q 2913 3413 3172 3097 
Q 3431 2781 3431 2113 
L 3431 331 
L 3944 331 
L 3944 0 
L 2356 0 
L 2356 331 
L 2853 331 
L 2853 1931 
Q 2853 2541 2704 2764 
Q 2556 2988 2175 2988 
Q 1775 2988 1565 2697 
Q 1356 2406 1356 1850 
L 1356 331 
L 1856 331 
L 1856 0 
L 263 0 
z
" transform="scale(0.015625)"/>
      <path id="Cmr10-32" d="M 319 0 
L 319 172 
Q 319 188 331 206 
L 1325 1306 
Q 1550 1550 1690 1715 
Q 1831 1881 1968 2097 
Q 2106 2313 2186 2536 
Q 2266 2759 2266 3009 
Q 2266 3272 2169 3511 
Q 2072 3750 1880 3894 
Q 1688 4038 1416 4038 
Q 1138 4038 916 3870 
Q 694 3703 603 3438 
Q 628 3444 672 3444 
Q 816 3444 917 3347 
Q 1019 3250 1019 3097 
Q 1019 2950 917 2848 
Q 816 2747 672 2747 
Q 522 2747 420 2851 
Q 319 2956 319 3097 
Q 319 3338 409 3548 
Q 500 3759 670 3923 
Q 841 4088 1055 4175 
Q 1269 4263 1509 4263 
Q 1875 4263 2190 4108 
Q 2506 3953 2690 3670 
Q 2875 3388 2875 3009 
Q 2875 2731 2753 2481 
Q 2631 2231 2440 2026 
Q 2250 1822 1953 1562 
Q 1656 1303 1563 1216 
L 838 519 
L 1453 519 
Q 1906 519 2211 526 
Q 2516 534 2534 550 
Q 2609 631 2688 1141 
L 2875 1141 
L 2694 0 
L 319 0 
z
" transform="scale(0.015625)"/>
      <path id="Cmr10-2b" d="M 481 1472 
Q 428 1472 393 1512 
Q 359 1553 359 1600 
Q 359 1647 393 1687 
Q 428 1728 481 1728 
L 2363 1728 
L 2363 3616 
Q 2363 3666 2400 3698 
Q 2438 3731 2491 3731 
Q 2538 3731 2578 3698 
Q 2619 3666 2619 3616 
L 2619 1728 
L 4500 1728 
Q 4547 1728 4581 1687 
Q 4616 1647 4616 1600 
Q 4616 1553 4581 1512 
Q 4547 1472 4500 1472 
L 2619 1472 
L 2619 -416 
Q 2619 -466 2578 -498 
Q 2538 -531 2491 -531 
Q 2438 -531 2400 -498 
Q 2363 -466 2363 -416 
L 2363 1472 
L 481 1472 
z
" transform="scale(0.015625)"/>
      <path id="Cmr10-31" d="M 594 0 
L 594 225 
Q 1394 225 1394 428 
L 1394 3788 
Q 1063 3628 556 3628 
L 556 3853 
Q 1341 3853 1741 4263 
L 1831 4263 
Q 1853 4263 1873 4245 
Q 1894 4228 1894 4206 
L 1894 428 
Q 1894 225 2694 225 
L 2694 0 
L 594 0 
z
" transform="scale(0.015625)"/>
      <path id="DejaVuSerif-79" d="M 1381 -609 
L 1600 -56 
L 359 2988 
L -19 2988 
L -19 3322 
L 1509 3322 
L 1509 2988 
L 978 2988 
L 1913 703 
L 2847 2988 
L 2350 2988 
L 2350 3322 
L 3597 3322 
L 3597 2988 
L 3225 2988 
L 1703 -750 
Q 1547 -1138 1356 -1280 
Q 1166 -1422 819 -1422 
Q 672 -1422 517 -1397 
Q 363 -1372 206 -1325 
L 206 -691 
L 500 -691 
Q 519 -903 608 -995 
Q 697 -1088 884 -1088 
Q 1056 -1088 1161 -992 
Q 1266 -897 1381 -609 
z
" transform="scale(0.015625)"/>
      <path id="DejaVuSerif-6b" d="M 1831 0 
L 219 0 
L 219 331 
L 738 331 
L 738 4531 
L 184 4531 
L 184 4863 
L 1313 4863 
L 1313 1697 
L 2713 2988 
L 2234 2988 
L 2234 3322 
L 3738 3322 
L 3738 2988 
L 3169 2988 
L 2181 2075 
L 3444 331 
L 3922 331 
L 3922 0 
L 2284 0 
L 2284 331 
L 2759 331 
L 1766 1697 
L 1313 1275 
L 1313 331 
L 1831 331 
L 1831 0 
z
" transform="scale(0.015625)"/>
      <path id="DejaVuSerif-77" d="M 3072 3322 
L 3922 728 
L 4672 2988 
L 4191 2988 
L 4191 3322 
L 5394 3322 
L 5394 2988 
L 5025 2988 
L 4038 0 
L 3559 0 
L 2741 2484 
L 1919 0 
L 1459 0 
L 475 2988 
L 103 2988 
L 103 3322 
L 1606 3322 
L 1606 2988 
L 1069 2988 
L 1813 728 
L 2669 3322 
L 3072 3322 
z
" transform="scale(0.015625)"/>
      <path id="DejaVuSerif-2d" d="M 281 1959 
L 1881 1959 
L 1881 1472 
L 281 1472 
L 281 1959 
z
" transform="scale(0.015625)"/>
      <path id="DejaVuSerif-6d" d="M 3316 2675 
Q 3481 3041 3739 3227 
Q 3997 3413 4341 3413 
Q 4863 3413 5119 3089 
Q 5375 2766 5375 2113 
L 5375 331 
L 5894 331 
L 5894 0 
L 4300 0 
L 4300 331 
L 4800 331 
L 4800 2047 
Q 4800 2556 4650 2772 
Q 4500 2988 4153 2988 
Q 3769 2988 3567 2697 
Q 3366 2406 3366 1850 
L 3366 331 
L 3866 331 
L 3866 0 
L 2291 0 
L 2291 331 
L 2791 331 
L 2791 2069 
Q 2791 2566 2641 2777 
Q 2491 2988 2144 2988 
Q 1759 2988 1557 2697 
Q 1356 2406 1356 1850 
L 1356 331 
L 1856 331 
L 1856 0 
L 263 0 
L 263 331 
L 781 331 
L 781 2994 
L 231 2994 
L 231 3322 
L 1356 3322 
L 1356 2731 
Q 1516 3063 1762 3238 
Q 2009 3413 2322 3413 
Q 2709 3413 2968 3220 
Q 3228 3028 3316 2675 
z
" transform="scale(0.015625)"/>
      <path id="DejaVuSerif-63" d="M 3291 997 
Q 3169 466 2822 187 
Q 2475 -91 1925 -91 
Q 1200 -91 759 389 
Q 319 869 319 1663 
Q 319 2459 759 2936 
Q 1200 3413 1925 3413 
Q 2241 3413 2553 3339 
Q 2866 3266 3181 3116 
L 3181 2266 
L 2847 2266 
Q 2781 2703 2561 2903 
Q 2341 3103 1931 3103 
Q 1466 3103 1228 2742 
Q 991 2381 991 1663 
Q 991 944 1227 581 
Q 1463 219 1931 219 
Q 2303 219 2525 412 
Q 2747 606 2828 997 
L 3291 997 
z
" transform="scale(0.015625)"/>
      <path id="DejaVuSerif-61" d="M 2547 1044 
L 2547 1747 
L 1806 1747 
Q 1378 1747 1168 1562 
Q 959 1378 959 997 
Q 959 650 1171 447 
Q 1384 244 1747 244 
Q 2106 244 2326 466 
Q 2547 688 2547 1044 
z
M 3122 2075 
L 3122 331 
L 3634 331 
L 3634 0 
L 2547 0 
L 2547 359 
Q 2356 128 2106 18 
Q 1856 -91 1522 -91 
Q 969 -91 644 203 
Q 319 497 319 997 
Q 319 1513 691 1797 
Q 1063 2081 1741 2081 
L 2547 2081 
L 2547 2309 
Q 2547 2688 2317 2895 
Q 2088 3103 1672 3103 
Q 1328 3103 1125 2947 
Q 922 2791 872 2484 
L 575 2484 
L 575 3156 
Q 875 3284 1158 3348 
Q 1441 3413 1709 3413 
Q 2400 3413 2761 3070 
Q 3122 2728 3122 2075 
z
" transform="scale(0.015625)"/>
      <path id="DejaVuSerif-78" d="M 1863 2028 
L 2559 2988 
L 2113 2988 
L 2113 3322 
L 3391 3322 
L 3391 2988 
L 2950 2988 
L 2059 1759 
L 3097 331 
L 3531 331 
L 3531 0 
L 1997 0 
L 1997 331 
L 2419 331 
L 1697 1325 
L 972 331 
L 1403 331 
L 1403 0 
L 141 0 
L 141 331 
L 581 331 
L 1497 1594 
L 488 2988 
L 78 2988 
L 78 3322 
L 1563 3322 
L 1563 2988 
L 1166 2988 
L 1863 2028 
z
" transform="scale(0.015625)"/>
      <path id="DejaVuSerif-66" d="M 2753 4078 
L 2450 4078 
Q 2447 4313 2317 4434 
Q 2188 4556 1941 4556 
Q 1619 4556 1487 4379 
Q 1356 4203 1356 3750 
L 1356 3322 
L 2284 3322 
L 2284 2988 
L 1356 2988 
L 1356 331 
L 2094 331 
L 2094 0 
L 231 0 
L 231 331 
L 781 331 
L 781 2988 
L 231 2988 
L 231 3322 
L 781 3322 
L 781 3738 
Q 781 4294 1070 4578 
Q 1359 4863 1919 4863 
Q 2128 4863 2337 4825 
Q 2547 4788 2753 4709 
L 2753 4078 
z
" transform="scale(0.015625)"/>
      <path id="DejaVuSerif-75" d="M 2266 3322 
L 3341 3322 
L 3341 331 
L 3884 331 
L 3884 0 
L 2766 0 
L 2766 588 
Q 2606 256 2353 82 
Q 2100 -91 1766 -91 
Q 1213 -91 952 223 
Q 691 538 691 1209 
L 691 2988 
L 172 2988 
L 172 3322 
L 1269 3322 
L 1269 1388 
Q 1269 781 1417 556 
Q 1566 331 1947 331 
Q 2347 331 2556 625 
Q 2766 919 2766 1478 
L 2766 2988 
L 2266 2988 
L 2266 3322 
z
" transform="scale(0.015625)"/>
      <path id="DejaVuSerif-64" d="M 3359 331 
L 3909 331 
L 3909 0 
L 2784 0 
L 2784 519 
Q 2616 206 2355 57 
Q 2094 -91 1709 -91 
Q 1097 -91 708 395 
Q 319 881 319 1663 
Q 319 2444 706 2928 
Q 1094 3413 1709 3413 
Q 2094 3413 2355 3264 
Q 2616 3116 2784 2803 
L 2784 4531 
L 2241 4531 
L 2241 4863 
L 3359 4863 
L 3359 331 
z
M 2784 1497 
L 2784 1825 
Q 2784 2422 2554 2737 
Q 2325 3053 1888 3053 
Q 1444 3053 1217 2703 
Q 991 2353 991 1663 
Q 991 975 1217 622 
Q 1444 269 1888 269 
Q 2325 269 2554 583 
Q 2784 897 2784 1497 
z
" transform="scale(0.015625)"/>
      <path id="Cmsy10-a1" d="M 653 1472 
Q 600 1472 565 1512 
Q 531 1553 531 1600 
Q 531 1647 565 1687 
Q 600 1728 653 1728 
L 4325 1728 
Q 4375 1728 4408 1687 
Q 4441 1647 4441 1600 
Q 4441 1553 4408 1512 
Q 4375 1472 4325 1472 
L 653 1472 
z
" transform="scale(0.015625)"/>
      <path id="DejaVuSerif-2e" d="M 603 325 
Q 603 500 722 622 
Q 841 744 1019 744 
Q 1191 744 1312 622 
Q 1434 500 1434 325 
Q 1434 153 1312 31 
Q 1191 -91 1019 -91 
Q 841 -91 722 29 
Q 603 150 603 325 
z
" transform="scale(0.015625)"/>
      <path id="DejaVuSerif-28" d="M 2041 -997 
Q 1281 -656 893 83 
Q 506 822 506 1931 
Q 506 3044 893 3783 
Q 1281 4522 2041 4863 
L 2041 4556 
Q 1559 4225 1350 3623 
Q 1141 3022 1141 1931 
Q 1141 844 1350 242 
Q 1559 -359 2041 -691 
L 2041 -997 
z
" transform="scale(0.015625)"/>
      <path id="DejaVuSerif-41" d="M 1281 1691 
L 2994 1691 
L 2138 3909 
L 1281 1691 
z
M -38 0 
L -38 331 
L 372 331 
L 2034 4666 
L 2559 4666 
L 4225 331 
L 4684 331 
L 4684 0 
L 2988 0 
L 2988 331 
L 3506 331 
L 3116 1356 
L 1153 1356 
L 763 331 
L 1275 331 
L 1275 0 
L -38 0 
z
" transform="scale(0.015625)"/>
      <path id="Cmmi10-6b" d="M 341 116 
Q 341 153 347 172 
L 1275 3872 
Q 1300 3981 1306 4044 
Q 1306 4147 891 4147 
Q 825 4147 825 4231 
Q 828 4247 839 4287 
Q 850 4328 867 4350 
Q 884 4372 916 4372 
L 1778 4441 
L 1797 4441 
Q 1797 4434 1819 4423 
Q 1841 4413 1844 4409 
Q 1856 4378 1856 4359 
L 1184 1684 
Q 1416 1781 1767 2145 
Q 2119 2509 2317 2668 
Q 2516 2828 2816 2828 
Q 2994 2828 3119 2706 
Q 3244 2584 3244 2406 
Q 3244 2294 3197 2198 
Q 3150 2103 3065 2043 
Q 2981 1984 2869 1984 
Q 2766 1984 2695 2048 
Q 2625 2113 2625 2216 
Q 2625 2369 2733 2473 
Q 2841 2578 2994 2578 
Q 2931 2663 2803 2663 
Q 2613 2663 2436 2553 
Q 2259 2444 2054 2239 
Q 1850 2034 1681 1864 
Q 1513 1694 1369 1606 
Q 1747 1563 2025 1408 
Q 2303 1253 2303 934 
Q 2303 869 2278 769 
Q 2222 528 2222 384 
Q 2222 97 2419 97 
Q 2650 97 2770 350 
Q 2891 603 2969 941 
Q 2981 978 3022 978 
L 3097 978 
Q 3122 978 3139 962 
Q 3156 947 3156 922 
Q 3156 916 3150 903 
Q 2909 -72 2406 -72 
Q 2225 -72 2086 12 
Q 1947 97 1872 242 
Q 1797 388 1797 569 
Q 1797 672 1825 781 
Q 1844 856 1844 922 
Q 1844 1169 1625 1297 
Q 1406 1425 1125 1453 
L 800 147 
Q 775 50 703 -11 
Q 631 -72 538 -72 
Q 456 -72 398 -17 
Q 341 38 341 116 
z
" transform="scale(0.015625)"/>
      <path id="Cmsy10-a3" d="M 941 184 
Q 941 234 972 275 
L 2303 1600 
L 972 2931 
Q 941 2963 941 3016 
Q 941 3063 978 3103 
Q 1016 3144 1069 3144 
Q 1113 3144 1166 3103 
L 2491 1778 
L 3809 3103 
Q 3863 3144 3903 3144 
Q 3956 3144 3993 3106 
Q 4031 3069 4031 3016 
Q 4031 2963 4000 2931 
L 2669 1600 
L 4000 275 
Q 4031 234 4031 184 
Q 4031 131 3993 93 
Q 3956 56 3903 56 
Q 3856 56 3809 103 
L 2491 1422 
L 1166 103 
Q 1119 56 1069 56 
Q 1016 56 978 97 
Q 941 138 941 184 
z
" transform="scale(0.015625)"/>
      <path id="DejaVuSerif-7a" d="M 256 0 
L 256 269 
L 2338 2988 
L 691 2988 
L 691 2413 
L 359 2413 
L 359 3322 
L 3078 3322 
L 3078 3053 
L 997 331 
L 2803 331 
L 2803 934 
L 3138 934 
L 3138 0 
L 256 0 
z
" transform="scale(0.015625)"/>
      <path id="DejaVuSerif-29" d="M 453 -997 
L 453 -691 
Q 934 -359 1145 242 
Q 1356 844 1356 1931 
Q 1356 3022 1145 3623 
Q 934 4225 453 4556 
L 453 4863 
Q 1216 4522 1603 3783 
Q 1991 3044 1991 1931 
Q 1991 822 1603 83 
Q 1216 -656 453 -997 
z
" transform="scale(0.015625)"/>
      <path id="DejaVuSerif-4f" d="M 2625 244 
Q 3391 244 3781 770 
Q 4172 1297 4172 2328 
Q 4172 3363 3781 3889 
Q 3391 4416 2625 4416 
Q 1856 4416 1465 3889 
Q 1075 3363 1075 2328 
Q 1075 1297 1465 770 
Q 1856 244 2625 244 
z
M 2625 -91 
Q 2150 -91 1751 65 
Q 1353 222 1050 525 
Q 700 875 529 1319 
Q 359 1763 359 2328 
Q 359 2894 529 3339 
Q 700 3784 1050 4134 
Q 1356 4441 1750 4595 
Q 2144 4750 2625 4750 
Q 3641 4750 4266 4084 
Q 4891 3419 4891 2328 
Q 4891 1769 4719 1320 
Q 4547 872 4197 525 
Q 3891 219 3497 64 
Q 3103 -91 2625 -91 
z
" transform="scale(0.015625)"/>
     </defs>
     <use xlink:href="#DejaVuSerif-46" transform="translate(0 0.015625)"/>
     <use xlink:href="#DejaVuSerif-6f" transform="translate(69.384766 0.015625)"/>
     <use xlink:href="#DejaVuSerif-72" transform="translate(129.589844 0.015625)"/>
     <use xlink:href="#DejaVuSerif-20" transform="translate(177.392578 0.015625)"/>
     <use xlink:href="#DejaVuSerif-70" transform="translate(209.179688 0.015625)"/>
     <use xlink:href="#DejaVuSerif-6f" transform="translate(273.193359 0.015625)"/>
     <use xlink:href="#DejaVuSerif-73" transform="translate(333.398438 0.015625)"/>
     <use xlink:href="#DejaVuSerif-69" transform="translate(384.716797 0.015625)"/>
     <use xlink:href="#DejaVuSerif-74" transform="translate(416.699219 0.015625)"/>
     <use xlink:href="#DejaVuSerif-69" transform="translate(456.884766 0.015625)"/>
     <use xlink:href="#DejaVuSerif-76" transform="translate(488.867188 0.015625)"/>
     <use xlink:href="#DejaVuSerif-65" transform="translate(545.361328 0.015625)"/>
     <use xlink:href="#DejaVuSerif-20" transform="translate(604.541016 0.015625)"/>
     <use xlink:href="#DejaVuSerif-69" transform="translate(636.328125 0.015625)"/>
     <use xlink:href="#DejaVuSerif-6e" transform="translate(668.310547 0.015625)"/>
     <use xlink:href="#DejaVuSerif-74" transform="translate(732.714844 0.015625)"/>
     <use xlink:href="#DejaVuSerif-65" transform="translate(772.900391 0.015625)"/>
     <use xlink:href="#DejaVuSerif-67" transform="translate(832.080078 0.015625)"/>
     <use xlink:href="#DejaVuSerif-65" transform="translate(896.09375 0.015625)"/>
     <use xlink:href="#DejaVuSerif-72" transform="translate(955.273438 0.015625)"/>
     <use xlink:href="#DejaVuSerif-73" transform="translate(1003.076172 0.015625)"/>
     <use xlink:href="#DejaVuSerif-20" transform="translate(1054.394531 0.015625)"/>
     <use xlink:href="#Cmmi10-6e" transform="translate(1086.181641 0.015625)"/>
     <use xlink:href="#DejaVuSerif-2c" transform="translate(1146.191406 0.015625)"/>
     <use xlink:href="#DejaVuSerif-20" transform="translate(1177.978516 0.015625)"/>
     <use xlink:href="#DejaVuSerif-6c" transform="translate(1209.765625 0.015625)"/>
     <use xlink:href="#DejaVuSerif-65" transform="translate(1241.748047 0.015625)"/>
     <use xlink:href="#DejaVuSerif-74" transform="translate(1300.927734 0.015625)"/>
     <use xlink:href="#DejaVuSerif-20" transform="translate(1341.113281 0.015625)"/>
     <use xlink:href="#Cmmi10-4d" transform="translate(1372.900391 0.015625)"/>
     <use xlink:href="#Cmmi10-6e" transform="translate(1469.921875 -16.990625) scale(0.7)"/>
     <use xlink:href="#DejaVuSerif-20" transform="translate(1518.306055 0.015625)"/>
     <use xlink:href="#DejaVuSerif-62" transform="translate(1550.093164 0.015625)"/>
     <use xlink:href="#DejaVuSerif-65" transform="translate(1614.106836 0.015625)"/>
     <use xlink:href="#DejaVuSerif-20" transform="translate(1673.286523 0.015625)"/>
     <use xlink:href="#DejaVuSerif-74" transform="translate(1705.073633 0.015625)"/>
     <use xlink:href="#DejaVuSerif-68" transform="translate(1745.25918 0.015625)"/>
     <use xlink:href="#DejaVuSerif-65" transform="translate(1809.663477 0.015625)"/>
     <use xlink:href="#DejaVuSerif-20" transform="translate(1868.843164 0.015625)"/>
     <use xlink:href="#Cmr10-32" transform="translate(1900.630273 0.015625)"/>
     <use xlink:href="#Cmmi10-6e" transform="translate(1950.630273 0.015625)"/>
     <use xlink:href="#Cmr10-2b" transform="translate(2028.198633 0.015625)"/>
     <use xlink:href="#Cmr10-31" transform="translate(2123.442773 0.015625)"/>
     <use xlink:href="#DejaVuSerif-20" transform="translate(2173.442773 0.015625)"/>
     <use xlink:href="#DejaVuSerif-62" transform="translate(2205.229883 0.015625)"/>
     <use xlink:href="#DejaVuSerif-79" transform="translate(2269.243555 0.015625)"/>
     <use xlink:href="#DejaVuSerif-20" transform="translate(2325.737695 0.015625)"/>
     <use xlink:href="#Cmr10-32" transform="translate(2357.524805 0.015625)"/>
     <use xlink:href="#Cmmi10-6e" transform="translate(2407.524805 0.015625)"/>
     <use xlink:href="#Cmr10-2b" transform="translate(2485.093164 0.015625)"/>
     <use xlink:href="#Cmr10-31" transform="translate(2580.337305 0.015625)"/>
     <use xlink:href="#DejaVuSerif-20" transform="translate(2630.337305 0.015625)"/>
     <use xlink:href="#DejaVuSerif-73" transform="translate(2662.124414 0.015625)"/>
     <use xlink:href="#DejaVuSerif-6b" transform="translate(2713.442773 0.015625)"/>
     <use xlink:href="#DejaVuSerif-65" transform="translate(2774.038477 0.015625)"/>
     <use xlink:href="#DejaVuSerif-77" transform="translate(2833.218164 0.015625)"/>
     <use xlink:href="#DejaVuSerif-2d" transform="translate(2918.813867 0.015625)"/>
     <use xlink:href="#DejaVuSerif-73" transform="translate(2952.60293 0.015625)"/>
     <use xlink:href="#DejaVuSerif-79" transform="translate(3003.921289 0.015625)"/>
     <use xlink:href="#DejaVuSerif-6d" transform="translate(3060.41543 0.015625)"/>
     <use xlink:href="#DejaVuSerif-6d" transform="translate(3155.239648 0.015625)"/>
     <use xlink:href="#DejaVuSerif-65" transform="translate(3250.063867 0.015625)"/>
     <use xlink:href="#DejaVuSerif-74" transform="translate(3309.243555 0.015625)"/>
     <use xlink:href="#DejaVuSerif-72" transform="translate(3349.429102 0.015625)"/>
     <use xlink:href="#DejaVuSerif-69" transform="translate(3397.231836 0.015625)"/>
     <use xlink:href="#DejaVuSerif-63" transform="translate(3429.214258 0.015625)"/>
     <use xlink:href="#DejaVuSerif-20" transform="translate(3485.220117 0.015625)"/>
     <use xlink:href="#DejaVuSerif-6d" transform="translate(3517.007227 0.015625)"/>
     <use xlink:href="#DejaVuSerif-61" transform="translate(3611.831445 0.015625)"/>
     <use xlink:href="#DejaVuSerif-74" transform="translate(3671.450586 0.015625)"/>
     <use xlink:href="#DejaVuSerif-72" transform="translate(3711.636133 0.015625)"/>
     <use xlink:href="#DejaVuSerif-69" transform="translate(3759.438867 0.015625)"/>
     <use xlink:href="#DejaVuSerif-78" transform="translate(3791.421289 0.015625)"/>
     <use xlink:href="#DejaVuSerif-20" transform="translate(3847.817773 0.015625)"/>
     <use xlink:href="#DejaVuSerif-66" transform="translate(3879.604883 0.015625)"/>
     <use xlink:href="#DejaVuSerif-6f" transform="translate(3916.616602 0.015625)"/>
     <use xlink:href="#DejaVuSerif-72" transform="translate(3976.82168 0.015625)"/>
     <use xlink:href="#DejaVuSerif-20" transform="translate(4024.624414 0.015625)"/>
     <use xlink:href="#DejaVuSerif-77" transform="translate(4056.411523 0.015625)"/>
     <use xlink:href="#DejaVuSerif-68" transform="translate(4142.007227 0.015625)"/>
     <use xlink:href="#DejaVuSerif-69" transform="translate(4206.411523 0.015625)"/>
     <use xlink:href="#DejaVuSerif-63" transform="translate(4238.393945 0.015625)"/>
     <use xlink:href="#DejaVuSerif-68" transform="translate(4294.399805 0.015625)"/>
     <use xlink:href="#DejaVuSerif-20" transform="translate(4358.804102 0.015625)"/>
     <use xlink:href="#DejaVuSerif-65" transform="translate(4390.591211 0.015625)"/>
     <use xlink:href="#DejaVuSerif-61" transform="translate(4449.770898 0.015625)"/>
     <use xlink:href="#DejaVuSerif-63" transform="translate(4509.390039 0.015625)"/>
     <use xlink:href="#DejaVuSerif-68" transform="translate(4565.395898 0.015625)"/>
     <use xlink:href="#DejaVuSerif-20" transform="translate(4629.800195 0.015625)"/>
     <use xlink:href="#DejaVuSerif-65" transform="translate(4661.587305 0.015625)"/>
     <use xlink:href="#DejaVuSerif-6e" transform="translate(4720.766992 0.015625)"/>
     <use xlink:href="#DejaVuSerif-74" transform="translate(4785.171289 0.015625)"/>
     <use xlink:href="#DejaVuSerif-72" transform="translate(4825.356836 0.015625)"/>
     <use xlink:href="#DejaVuSerif-79" transform="translate(4873.15957 0.015625)"/>
     <use xlink:href="#DejaVuSerif-20" transform="translate(4929.653711 0.015625)"/>
     <use xlink:href="#DejaVuSerif-69" transform="translate(4961.44082 0.015625)"/>
     <use xlink:href="#DejaVuSerif-6e" transform="translate(4993.423242 0.015625)"/>
     <use xlink:href="#DejaVuSerif-20" transform="translate(5057.827539 0.015625)"/>
     <use xlink:href="#DejaVuSerif-74" transform="translate(5089.614648 0.015625)"/>
     <use xlink:href="#DejaVuSerif-68" transform="translate(5129.800195 0.015625)"/>
     <use xlink:href="#DejaVuSerif-65" transform="translate(5194.204492 0.015625)"/>
     <use xlink:href="#DejaVuSerif-20" transform="translate(5253.38418 0.015625)"/>
     <use xlink:href="#DejaVuSerif-66" transform="translate(5285.171289 0.015625)"/>
     <use xlink:href="#DejaVuSerif-69" transform="translate(5322.183008 0.015625)"/>
     <use xlink:href="#DejaVuSerif-72" transform="translate(5354.16543 0.015625)"/>
     <use xlink:href="#DejaVuSerif-73" transform="translate(5401.968164 0.015625)"/>
     <use xlink:href="#DejaVuSerif-74" transform="translate(5453.286523 0.015625)"/>
     <use xlink:href="#DejaVuSerif-20" transform="translate(5493.47207 0.015625)"/>
     <use xlink:href="#Cmmi10-6e" transform="translate(5525.25918 0.015625)"/>
     <use xlink:href="#DejaVuSerif-20" transform="translate(5585.268945 0.015625)"/>
     <use xlink:href="#DejaVuSerif-73" transform="translate(5617.056055 0.015625)"/>
     <use xlink:href="#DejaVuSerif-75" transform="translate(5668.374414 0.015625)"/>
     <use xlink:href="#DejaVuSerif-62" transform="translate(5732.778711 0.015625)"/>
     <use xlink:href="#DejaVuSerif-64" transform="translate(5796.792383 0.015625)"/>
     <use xlink:href="#DejaVuSerif-69" transform="translate(5860.806055 0.015625)"/>
     <use xlink:href="#DejaVuSerif-61" transform="translate(5892.788477 0.015625)"/>
     <use xlink:href="#DejaVuSerif-67" transform="translate(5952.407617 0.015625)"/>
     <use xlink:href="#DejaVuSerif-6f" transform="translate(6016.421289 0.015625)"/>
     <use xlink:href="#DejaVuSerif-6e" transform="translate(6076.626367 0.015625)"/>
     <use xlink:href="#DejaVuSerif-61" transform="translate(6141.030664 0.015625)"/>
     <use xlink:href="#DejaVuSerif-6c" transform="translate(6200.649805 0.015625)"/>
     <use xlink:href="#DejaVuSerif-73" transform="translate(6232.632227 0.015625)"/>
     <use xlink:href="#DejaVuSerif-20" transform="translate(6283.950586 0.015625)"/>
     <use xlink:href="#DejaVuSerif-62" transform="translate(6315.737695 0.015625)"/>
     <use xlink:href="#DejaVuSerif-65" transform="translate(6379.751367 0.015625)"/>
     <use xlink:href="#DejaVuSerif-6c" transform="translate(6438.931055 0.015625)"/>
     <use xlink:href="#DejaVuSerif-6f" transform="translate(6470.913477 0.015625)"/>
     <use xlink:href="#DejaVuSerif-77" transform="translate(6531.118555 0.015625)"/>
     <use xlink:href="#DejaVuSerif-20" transform="translate(6616.714258 0.015625)"/>
     <use xlink:href="#DejaVuSerif-74" transform="translate(6648.501367 0.015625)"/>
     <use xlink:href="#DejaVuSerif-68" transform="translate(6688.686914 0.015625)"/>
     <use xlink:href="#DejaVuSerif-65" transform="translate(6753.091211 0.015625)"/>
     <use xlink:href="#DejaVuSerif-20" transform="translate(6812.270898 0.015625)"/>
     <use xlink:href="#DejaVuSerif-6d" transform="translate(6844.058008 0.015625)"/>
     <use xlink:href="#DejaVuSerif-61" transform="translate(6938.882227 0.015625)"/>
     <use xlink:href="#DejaVuSerif-69" transform="translate(6998.501367 0.015625)"/>
     <use xlink:href="#DejaVuSerif-6e" transform="translate(7030.483789 0.015625)"/>
     <use xlink:href="#DejaVuSerif-20" transform="translate(7094.888086 0.015625)"/>
     <use xlink:href="#DejaVuSerif-64" transform="translate(7126.675195 0.015625)"/>
     <use xlink:href="#DejaVuSerif-69" transform="translate(7190.688867 0.015625)"/>
     <use xlink:href="#DejaVuSerif-61" transform="translate(7222.671289 0.015625)"/>
     <use xlink:href="#DejaVuSerif-67" transform="translate(7282.29043 0.015625)"/>
     <use xlink:href="#DejaVuSerif-6f" transform="translate(7346.304102 0.015625)"/>
     <use xlink:href="#DejaVuSerif-6e" transform="translate(7406.50918 0.015625)"/>
     <use xlink:href="#DejaVuSerif-61" transform="translate(7470.913477 0.015625)"/>
     <use xlink:href="#DejaVuSerif-6c" transform="translate(7530.532617 0.015625)"/>
     <use xlink:href="#DejaVuSerif-20" transform="translate(7562.515039 0.015625)"/>
     <use xlink:href="#DejaVuSerif-69" transform="translate(7594.302148 0.015625)"/>
     <use xlink:href="#DejaVuSerif-73" transform="translate(7626.28457 0.015625)"/>
     <use xlink:href="#DejaVuSerif-20" transform="translate(7677.60293 0.015625)"/>
     <use xlink:href="#Cmr10-31" transform="translate(7709.390039 0.015625)"/>
     <use xlink:href="#DejaVuSerif-20" transform="translate(7759.390039 0.015625)"/>
     <use xlink:href="#DejaVuSerif-61" transform="translate(7791.177148 0.015625)"/>
     <use xlink:href="#DejaVuSerif-6e" transform="translate(7850.796289 0.015625)"/>
     <use xlink:href="#DejaVuSerif-64" transform="translate(7915.200586 0.015625)"/>
     <use xlink:href="#DejaVuSerif-20" transform="translate(7979.214258 0.015625)"/>
     <use xlink:href="#DejaVuSerif-65" transform="translate(8011.001367 0.015625)"/>
     <use xlink:href="#DejaVuSerif-61" transform="translate(8070.181055 0.015625)"/>
     <use xlink:href="#DejaVuSerif-63" transform="translate(8129.800195 0.015625)"/>
     <use xlink:href="#DejaVuSerif-68" transform="translate(8185.806055 0.015625)"/>
     <use xlink:href="#DejaVuSerif-20" transform="translate(8250.210352 0.015625)"/>
     <use xlink:href="#DejaVuSerif-6f" transform="translate(8281.997461 0.015625)"/>
     <use xlink:href="#DejaVuSerif-66" transform="translate(8342.202539 0.015625)"/>
     <use xlink:href="#DejaVuSerif-20" transform="translate(8379.214258 0.015625)"/>
     <use xlink:href="#DejaVuSerif-74" transform="translate(8411.001367 0.015625)"/>
     <use xlink:href="#DejaVuSerif-68" transform="translate(8451.186914 0.015625)"/>
     <use xlink:href="#DejaVuSerif-65" transform="translate(8515.591211 0.015625)"/>
     <use xlink:href="#DejaVuSerif-20" transform="translate(8574.770898 0.015625)"/>
     <use xlink:href="#DejaVuSerif-72" transform="translate(8606.558008 0.015625)"/>
     <use xlink:href="#DejaVuSerif-65" transform="translate(8654.360742 0.015625)"/>
     <use xlink:href="#DejaVuSerif-6d" transform="translate(8713.54043 0.015625)"/>
     <use xlink:href="#DejaVuSerif-61" transform="translate(8808.364648 0.015625)"/>
     <use xlink:href="#DejaVuSerif-69" transform="translate(8867.983789 0.015625)"/>
     <use xlink:href="#DejaVuSerif-6e" transform="translate(8899.966211 0.015625)"/>
     <use xlink:href="#DejaVuSerif-69" transform="translate(8964.370508 0.015625)"/>
     <use xlink:href="#DejaVuSerif-6e" transform="translate(8996.35293 0.015625)"/>
     <use xlink:href="#DejaVuSerif-67" transform="translate(9060.757227 0.015625)"/>
     <use xlink:href="#DejaVuSerif-20" transform="translate(9124.770898 0.015625)"/>
     <use xlink:href="#DejaVuSerif-65" transform="translate(9156.558008 0.015625)"/>
     <use xlink:href="#DejaVuSerif-6e" transform="translate(9215.737695 0.015625)"/>
     <use xlink:href="#DejaVuSerif-74" transform="translate(9280.141992 0.015625)"/>
     <use xlink:href="#DejaVuSerif-72" transform="translate(9320.327539 0.015625)"/>
     <use xlink:href="#DejaVuSerif-69" transform="translate(9368.130273 0.015625)"/>
     <use xlink:href="#DejaVuSerif-65" transform="translate(9400.112695 0.015625)"/>
     <use xlink:href="#DejaVuSerif-73" transform="translate(9459.292383 0.015625)"/>
     <use xlink:href="#DejaVuSerif-20" transform="translate(9510.610742 0.015625)"/>
     <use xlink:href="#DejaVuSerif-62" transform="translate(9542.397852 0.015625)"/>
     <use xlink:href="#DejaVuSerif-65" transform="translate(9606.411523 0.015625)"/>
     <use xlink:href="#DejaVuSerif-6c" transform="translate(9665.591211 0.015625)"/>
     <use xlink:href="#DejaVuSerif-6f" transform="translate(9697.573633 0.015625)"/>
     <use xlink:href="#DejaVuSerif-77" transform="translate(9757.778711 0.015625)"/>
     <use xlink:href="#DejaVuSerif-20" transform="translate(9843.374414 0.015625)"/>
     <use xlink:href="#DejaVuSerif-74" transform="translate(9875.161523 0.015625)"/>
     <use xlink:href="#DejaVuSerif-68" transform="translate(9915.34707 0.015625)"/>
     <use xlink:href="#DejaVuSerif-65" transform="translate(9979.751367 0.015625)"/>
     <use xlink:href="#DejaVuSerif-20" transform="translate(10038.931055 0.015625)"/>
     <use xlink:href="#DejaVuSerif-6d" transform="translate(10070.718164 0.015625)"/>
     <use xlink:href="#DejaVuSerif-61" transform="translate(10165.542383 0.015625)"/>
     <use xlink:href="#DejaVuSerif-69" transform="translate(10225.161523 0.015625)"/>
     <use xlink:href="#DejaVuSerif-6e" transform="translate(10257.143945 0.015625)"/>
     <use xlink:href="#DejaVuSerif-20" transform="translate(10321.548242 0.015625)"/>
     <use xlink:href="#DejaVuSerif-64" transform="translate(10353.335352 0.015625)"/>
     <use xlink:href="#DejaVuSerif-69" transform="translate(10417.349023 0.015625)"/>
     <use xlink:href="#DejaVuSerif-61" transform="translate(10449.331445 0.015625)"/>
     <use xlink:href="#DejaVuSerif-67" transform="translate(10508.950586 0.015625)"/>
     <use xlink:href="#DejaVuSerif-6f" transform="translate(10572.964258 0.015625)"/>
     <use xlink:href="#DejaVuSerif-6e" transform="translate(10633.169336 0.015625)"/>
     <use xlink:href="#DejaVuSerif-61" transform="translate(10697.573633 0.015625)"/>
     <use xlink:href="#DejaVuSerif-6c" transform="translate(10757.192773 0.015625)"/>
     <use xlink:href="#DejaVuSerif-20" transform="translate(10789.175195 0.015625)"/>
     <use xlink:href="#DejaVuSerif-69" transform="translate(10820.962305 0.015625)"/>
     <use xlink:href="#DejaVuSerif-73" transform="translate(10852.944727 0.015625)"/>
     <use xlink:href="#DejaVuSerif-20" transform="translate(10904.263086 0.015625)"/>
     <use xlink:href="#Cmsy10-a1" transform="translate(10936.050195 0.015625)"/>
     <use xlink:href="#Cmr10-31" transform="translate(11013.735742 0.015625)"/>
     <use xlink:href="#DejaVuSerif-2e" transform="translate(11063.735742 0.015625)"/>
     <use xlink:href="#DejaVuSerif-20" transform="translate(11095.522852 0.015625)"/>
     <use xlink:href="#DejaVuSerif-46" transform="translate(11127.309961 0.015625)"/>
     <use xlink:href="#DejaVuSerif-69" transform="translate(11196.694727 0.015625)"/>
     <use xlink:href="#DejaVuSerif-6e" transform="translate(11228.677148 0.015625)"/>
     <use xlink:href="#DejaVuSerif-64" transform="translate(11293.081445 0.015625)"/>
     <use xlink:href="#DejaVuSerif-2c" transform="translate(11357.095117 0.015625)"/>
     <use xlink:href="#DejaVuSerif-20" transform="translate(11388.882227 0.015625)"/>
     <use xlink:href="#DejaVuSerif-77" transform="translate(11420.669336 0.015625)"/>
     <use xlink:href="#DejaVuSerif-69" transform="translate(11506.265039 0.015625)"/>
     <use xlink:href="#DejaVuSerif-74" transform="translate(11538.247461 0.015625)"/>
     <use xlink:href="#DejaVuSerif-68" transform="translate(11578.433008 0.015625)"/>
     <use xlink:href="#DejaVuSerif-20" transform="translate(11642.837305 0.015625)"/>
     <use xlink:href="#DejaVuSerif-70" transform="translate(11674.624414 0.015625)"/>
     <use xlink:href="#DejaVuSerif-72" transform="translate(11738.638086 0.015625)"/>
     <use xlink:href="#DejaVuSerif-6f" transform="translate(11786.44082 0.015625)"/>
     <use xlink:href="#DejaVuSerif-6f" transform="translate(11846.645898 0.015625)"/>
     <use xlink:href="#DejaVuSerif-66" transform="translate(11906.850977 0.015625)"/>
     <use xlink:href="#DejaVuSerif-2c" transform="translate(11943.862695 0.015625)"/>
     <use xlink:href="#DejaVuSerif-20" transform="translate(11975.649805 0.015625)"/>
     <use xlink:href="#DejaVuSerif-74" transform="translate(12007.436914 0.015625)"/>
     <use xlink:href="#DejaVuSerif-68" transform="translate(12047.622461 0.015625)"/>
     <use xlink:href="#DejaVuSerif-65" transform="translate(12112.026758 0.015625)"/>
     <use xlink:href="#DejaVuSerif-20" transform="translate(12171.206445 0.015625)"/>
     <use xlink:href="#DejaVuSerif-72" transform="translate(12202.993555 0.015625)"/>
     <use xlink:href="#DejaVuSerif-61" transform="translate(12250.796289 0.015625)"/>
     <use xlink:href="#DejaVuSerif-6e" transform="translate(12310.41543 0.015625)"/>
     <use xlink:href="#DejaVuSerif-6b" transform="translate(12374.819727 0.015625)"/>
     <use xlink:href="#DejaVuSerif-20" transform="translate(12435.41543 0.015625)"/>
     <use xlink:href="#DejaVuSerif-6f" transform="translate(12467.202539 0.015625)"/>
     <use xlink:href="#DejaVuSerif-66" transform="translate(12527.407617 0.015625)"/>
     <use xlink:href="#DejaVuSerif-20" transform="translate(12564.419336 0.015625)"/>
     <use xlink:href="#Cmmi10-4d" transform="translate(12596.206445 0.015625)"/>
     <use xlink:href="#Cmmi10-6e" transform="translate(12693.22793 -16.990625) scale(0.7)"/>
     <use xlink:href="#DejaVuSerif-2e" transform="translate(12741.612109 0.015625)"/>
     <use xlink:href="#DejaVuSerif-20" transform="translate(12773.399219 0.015625)"/>
     <use xlink:href="#DejaVuSerif-28" transform="translate(12805.186328 0.015625)"/>
     <use xlink:href="#DejaVuSerif-41" transform="translate(12844.2 0.015625)"/>
     <use xlink:href="#DejaVuSerif-63" transform="translate(12916.416797 0.015625)"/>
     <use xlink:href="#DejaVuSerif-63" transform="translate(12972.422656 0.015625)"/>
     <use xlink:href="#DejaVuSerif-6f" transform="translate(13028.428516 0.015625)"/>
     <use xlink:href="#DejaVuSerif-72" transform="translate(13088.633594 0.015625)"/>
     <use xlink:href="#DejaVuSerif-64" transform="translate(13136.436328 0.015625)"/>
     <use xlink:href="#DejaVuSerif-69" transform="translate(13200.45 0.015625)"/>
     <use xlink:href="#DejaVuSerif-6e" transform="translate(13232.432422 0.015625)"/>
     <use xlink:href="#DejaVuSerif-67" transform="translate(13296.836719 0.015625)"/>
     <use xlink:href="#DejaVuSerif-20" transform="translate(13360.850391 0.015625)"/>
     <use xlink:href="#DejaVuSerif-74" transform="translate(13392.6375 0.015625)"/>
     <use xlink:href="#DejaVuSerif-6f" transform="translate(13432.823047 0.015625)"/>
     <use xlink:href="#DejaVuSerif-20" transform="translate(13493.028125 0.015625)"/>
     <use xlink:href="#DejaVuSerif-6f" transform="translate(13524.815234 0.015625)"/>
     <use xlink:href="#DejaVuSerif-6e" transform="translate(13585.020313 0.015625)"/>
     <use xlink:href="#DejaVuSerif-65" transform="translate(13649.424609 0.015625)"/>
     <use xlink:href="#DejaVuSerif-20" transform="translate(13708.604297 0.015625)"/>
     <use xlink:href="#DejaVuSerif-64" transform="translate(13740.391406 0.015625)"/>
     <use xlink:href="#DejaVuSerif-65" transform="translate(13804.405078 0.015625)"/>
     <use xlink:href="#DejaVuSerif-66" transform="translate(13863.584766 0.015625)"/>
     <use xlink:href="#DejaVuSerif-69" transform="translate(13900.596484 0.015625)"/>
     <use xlink:href="#DejaVuSerif-6e" transform="translate(13932.578906 0.015625)"/>
     <use xlink:href="#DejaVuSerif-69" transform="translate(13996.983203 0.015625)"/>
     <use xlink:href="#DejaVuSerif-74" transform="translate(14028.965625 0.015625)"/>
     <use xlink:href="#DejaVuSerif-69" transform="translate(14069.151172 0.015625)"/>
     <use xlink:href="#DejaVuSerif-6f" transform="translate(14101.133594 0.015625)"/>
     <use xlink:href="#DejaVuSerif-6e" transform="translate(14161.338672 0.015625)"/>
     <use xlink:href="#DejaVuSerif-2c" transform="translate(14225.742969 0.015625)"/>
     <use xlink:href="#DejaVuSerif-20" transform="translate(14257.530078 0.015625)"/>
     <use xlink:href="#DejaVuSerif-74" transform="translate(14289.317188 0.015625)"/>
     <use xlink:href="#DejaVuSerif-68" transform="translate(14329.502734 0.015625)"/>
     <use xlink:href="#DejaVuSerif-65" transform="translate(14393.907031 0.015625)"/>
     <use xlink:href="#DejaVuSerif-20" transform="translate(14453.086719 0.015625)"/>
     <use xlink:href="#DejaVuSerif-72" transform="translate(14484.873828 0.015625)"/>
     <use xlink:href="#DejaVuSerif-61" transform="translate(14532.676563 0.015625)"/>
     <use xlink:href="#DejaVuSerif-6e" transform="translate(14592.295703 0.015625)"/>
     <use xlink:href="#DejaVuSerif-6b" transform="translate(14656.7 0.015625)"/>
     <use xlink:href="#DejaVuSerif-20" transform="translate(14717.295703 0.015625)"/>
     <use xlink:href="#DejaVuSerif-6f" transform="translate(14749.082813 0.015625)"/>
     <use xlink:href="#DejaVuSerif-66" transform="translate(14809.287891 0.015625)"/>
     <use xlink:href="#DejaVuSerif-20" transform="translate(14846.299609 0.015625)"/>
     <use xlink:href="#DejaVuSerif-61" transform="translate(14878.086719 0.015625)"/>
     <use xlink:href="#DejaVuSerif-20" transform="translate(14937.705859 0.015625)"/>
     <use xlink:href="#DejaVuSerif-6d" transform="translate(14969.492969 0.015625)"/>
     <use xlink:href="#DejaVuSerif-61" transform="translate(15064.317188 0.015625)"/>
     <use xlink:href="#DejaVuSerif-74" transform="translate(15123.936328 0.015625)"/>
     <use xlink:href="#DejaVuSerif-72" transform="translate(15164.121875 0.015625)"/>
     <use xlink:href="#DejaVuSerif-69" transform="translate(15211.924609 0.015625)"/>
     <use xlink:href="#DejaVuSerif-78" transform="translate(15243.907031 0.015625)"/>
     <use xlink:href="#DejaVuSerif-20" transform="translate(15300.303516 0.015625)"/>
     <use xlink:href="#DejaVuSerif-69" transform="translate(15332.090625 0.015625)"/>
     <use xlink:href="#DejaVuSerif-73" transform="translate(15364.073047 0.015625)"/>
     <use xlink:href="#DejaVuSerif-20" transform="translate(15415.391406 0.015625)"/>
     <use xlink:href="#DejaVuSerif-74" transform="translate(15447.178516 0.015625)"/>
     <use xlink:href="#DejaVuSerif-68" transform="translate(15487.364063 0.015625)"/>
     <use xlink:href="#DejaVuSerif-65" transform="translate(15551.768359 0.015625)"/>
     <use xlink:href="#DejaVuSerif-20" transform="translate(15610.948047 0.015625)"/>
     <use xlink:href="#DejaVuSerif-6c" transform="translate(15642.735156 0.015625)"/>
     <use xlink:href="#DejaVuSerif-61" transform="translate(15674.717578 0.015625)"/>
     <use xlink:href="#DejaVuSerif-72" transform="translate(15734.336719 0.015625)"/>
     <use xlink:href="#DejaVuSerif-67" transform="translate(15782.139453 0.015625)"/>
     <use xlink:href="#DejaVuSerif-65" transform="translate(15846.153125 0.015625)"/>
     <use xlink:href="#DejaVuSerif-73" transform="translate(15905.332813 0.015625)"/>
     <use xlink:href="#DejaVuSerif-74" transform="translate(15956.651172 0.015625)"/>
     <use xlink:href="#DejaVuSerif-20" transform="translate(15996.836719 0.015625)"/>
     <use xlink:href="#Cmmi10-6b" transform="translate(16028.623828 0.015625)"/>
     <use xlink:href="#DejaVuSerif-20" transform="translate(16080.625781 0.015625)"/>
     <use xlink:href="#DejaVuSerif-73" transform="translate(16112.412891 0.015625)"/>
     <use xlink:href="#DejaVuSerif-75" transform="translate(16163.73125 0.015625)"/>
     <use xlink:href="#DejaVuSerif-63" transform="translate(16228.135547 0.015625)"/>
     <use xlink:href="#DejaVuSerif-68" transform="translate(16284.141406 0.015625)"/>
     <use xlink:href="#DejaVuSerif-20" transform="translate(16348.545703 0.015625)"/>
     <use xlink:href="#DejaVuSerif-74" transform="translate(16380.332813 0.015625)"/>
     <use xlink:href="#DejaVuSerif-68" transform="translate(16420.518359 0.015625)"/>
     <use xlink:href="#DejaVuSerif-61" transform="translate(16484.922656 0.015625)"/>
     <use xlink:href="#DejaVuSerif-74" transform="translate(16544.541797 0.015625)"/>
     <use xlink:href="#DejaVuSerif-20" transform="translate(16584.727344 0.015625)"/>
     <use xlink:href="#DejaVuSerif-74" transform="translate(16616.514453 0.015625)"/>
     <use xlink:href="#DejaVuSerif-68" transform="translate(16656.7 0.015625)"/>
     <use xlink:href="#DejaVuSerif-65" transform="translate(16721.104297 0.015625)"/>
     <use xlink:href="#DejaVuSerif-72" transform="translate(16780.283984 0.015625)"/>
     <use xlink:href="#DejaVuSerif-65" transform="translate(16828.086719 0.015625)"/>
     <use xlink:href="#DejaVuSerif-20" transform="translate(16887.266406 0.015625)"/>
     <use xlink:href="#DejaVuSerif-69" transform="translate(16919.053516 0.015625)"/>
     <use xlink:href="#DejaVuSerif-73" transform="translate(16951.035938 0.015625)"/>
     <use xlink:href="#DejaVuSerif-20" transform="translate(17002.354297 0.015625)"/>
     <use xlink:href="#DejaVuSerif-61" transform="translate(17034.141406 0.015625)"/>
     <use xlink:href="#DejaVuSerif-20" transform="translate(17093.760547 0.015625)"/>
     <use xlink:href="#Cmmi10-6b" transform="translate(17125.547656 0.015625)"/>
     <use xlink:href="#Cmsy10-a3" transform="translate(17195.108203 0.015625)"/>
     <use xlink:href="#Cmmi10-6b" transform="translate(17290.352344 0.015625)"/>
     <use xlink:href="#DejaVuSerif-20" transform="translate(17342.354297 0.015625)"/>
     <use xlink:href="#DejaVuSerif-73" transform="translate(17374.141406 0.015625)"/>
     <use xlink:href="#DejaVuSerif-75" transform="translate(17425.459766 0.015625)"/>
     <use xlink:href="#DejaVuSerif-62" transform="translate(17489.864063 0.015625)"/>
     <use xlink:href="#DejaVuSerif-6d" transform="translate(17553.877734 0.015625)"/>
     <use xlink:href="#DejaVuSerif-61" transform="translate(17648.701953 0.015625)"/>
     <use xlink:href="#DejaVuSerif-74" transform="translate(17708.321094 0.015625)"/>
     <use xlink:href="#DejaVuSerif-72" transform="translate(17748.506641 0.015625)"/>
     <use xlink:href="#DejaVuSerif-69" transform="translate(17796.309375 0.015625)"/>
     <use xlink:href="#DejaVuSerif-78" transform="translate(17828.291797 0.015625)"/>
     <use xlink:href="#DejaVuSerif-20" transform="translate(17884.688281 0.015625)"/>
     <use xlink:href="#DejaVuSerif-77" transform="translate(17916.475391 0.015625)"/>
     <use xlink:href="#DejaVuSerif-69" transform="translate(18002.071094 0.015625)"/>
     <use xlink:href="#DejaVuSerif-74" transform="translate(18034.053516 0.015625)"/>
     <use xlink:href="#DejaVuSerif-68" transform="translate(18074.239063 0.015625)"/>
     <use xlink:href="#DejaVuSerif-20" transform="translate(18138.643359 0.015625)"/>
     <use xlink:href="#DejaVuSerif-6e" transform="translate(18170.430469 0.015625)"/>
     <use xlink:href="#DejaVuSerif-6f" transform="translate(18234.834766 0.015625)"/>
     <use xlink:href="#DejaVuSerif-6e" transform="translate(18295.039844 0.015625)"/>
     <use xlink:href="#DejaVuSerif-7a" transform="translate(18359.444141 0.015625)"/>
     <use xlink:href="#DejaVuSerif-65" transform="translate(18412.129688 0.015625)"/>
     <use xlink:href="#DejaVuSerif-72" transform="translate(18471.309375 0.015625)"/>
     <use xlink:href="#DejaVuSerif-6f" transform="translate(18519.112109 0.015625)"/>
     <use xlink:href="#DejaVuSerif-20" transform="translate(18579.317188 0.015625)"/>
     <use xlink:href="#DejaVuSerif-64" transform="translate(18611.104297 0.015625)"/>
     <use xlink:href="#DejaVuSerif-65" transform="translate(18675.117969 0.015625)"/>
     <use xlink:href="#DejaVuSerif-74" transform="translate(18734.297656 0.015625)"/>
     <use xlink:href="#DejaVuSerif-65" transform="translate(18774.483203 0.015625)"/>
     <use xlink:href="#DejaVuSerif-72" transform="translate(18833.662891 0.015625)"/>
     <use xlink:href="#DejaVuSerif-6d" transform="translate(18881.465625 0.015625)"/>
     <use xlink:href="#DejaVuSerif-69" transform="translate(18976.289844 0.015625)"/>
     <use xlink:href="#DejaVuSerif-6e" transform="translate(19008.272266 0.015625)"/>
     <use xlink:href="#DejaVuSerif-61" transform="translate(19072.676563 0.015625)"/>
     <use xlink:href="#DejaVuSerif-6e" transform="translate(19132.295703 0.015625)"/>
     <use xlink:href="#DejaVuSerif-74" transform="translate(19196.7 0.015625)"/>
     <use xlink:href="#DejaVuSerif-2e" transform="translate(19236.885547 0.015625)"/>
     <use xlink:href="#DejaVuSerif-29" transform="translate(19268.672656 0.015625)"/>
     <use xlink:href="#DejaVuSerif-20" transform="translate(19307.686328 0.015625)"/>
     <use xlink:href="#DejaVuSerif-4f" transform="translate(19339.473438 0.015625)"/>
     <use xlink:href="#DejaVuSerif-6e" transform="translate(19421.455859 0.015625)"/>
     <use xlink:href="#DejaVuSerif-65" transform="translate(19485.860156 0.015625)"/>
     <use xlink:href="#DejaVuSerif-20" transform="translate(19545.039844 0.015625)"/>
     <use xlink:href="#DejaVuSerif-6d" transform="translate(19576.826953 0.015625)"/>
     <use xlink:href="#DejaVuSerif-61" transform="translate(19671.651172 0.015625)"/>
     <use xlink:href="#DejaVuSerif-79" transform="translate(19731.270313 0.015625)"/>
     <use xlink:href="#DejaVuSerif-20" transform="translate(19787.764453 0.015625)"/>
     <use xlink:href="#DejaVuSerif-6e" transform="translate(19819.551563 0.015625)"/>
     <use xlink:href="#DejaVuSerif-6f" transform="translate(19883.955859 0.015625)"/>
     <use xlink:href="#DejaVuSerif-74" transform="translate(19944.160938 0.015625)"/>
     <use xlink:href="#DejaVuSerif-65" transform="translate(19984.346484 0.015625)"/>
     <use xlink:href="#DejaVuSerif-20" transform="translate(20043.526172 0.015625)"/>
     <use xlink:href="#DejaVuSerif-74" transform="translate(20075.313281 0.015625)"/>
     <use xlink:href="#DejaVuSerif-68" transform="translate(20115.498828 0.015625)"/>
     <use xlink:href="#DejaVuSerif-61" transform="translate(20179.903125 0.015625)"/>
     <use xlink:href="#DejaVuSerif-74" transform="translate(20239.522266 0.015625)"/>
    </g>
    <!-- \begin{align*} -->
    <g transform="translate(1179.20625 79.862625) scale(0.12 -0.12)">
     <defs>
      <path id="DejaVuSerif-5c" d="M 500 4666 
L 2156 -594 
L 1656 -594 
L 0 4666 
L 500 4666 
z
" transform="scale(0.015625)"/>
      <path id="DejaVuSerif-7b" d="M 3272 -716 
L 3272 -1044 
L 3078 -1044 
Q 2300 -1044 2036 -812 
Q 1772 -581 1772 109 
L 1772 916 
Q 1772 1384 1603 1565 
Q 1434 1747 991 1747 
L 800 1747 
L 800 2075 
L 991 2075 
Q 1434 2075 1603 2256 
Q 1772 2438 1772 2906 
L 1772 3713 
Q 1772 4403 2036 4633 
Q 2300 4863 3078 4863 
L 3272 4863 
L 3272 4538 
L 3059 4538 
Q 2619 4538 2484 4400 
Q 2350 4263 2350 3822 
L 2350 2925 
Q 2350 2431 2194 2218 
Q 2038 2006 1631 1913 
Q 2044 1806 2197 1597 
Q 2350 1388 2350 897 
L 2350 0 
Q 2350 -441 2484 -578 
Q 2619 -716 3059 -716 
L 3272 -716 
z
" transform="scale(0.015625)"/>
      <path id="DejaVuSerif-2a" d="M 3097 3866 
L 1875 3297 
L 3097 2719 
L 2859 2350 
L 1772 3028 
L 1813 1838 
L 1388 1838 
L 1428 3028 
L 341 2350 
L 103 2719 
L 1325 3291 
L 103 3866 
L 341 4238 
L 1428 3559 
L 1388 4750 
L 1813 4750 
L 1772 3559 
L 2859 4238 
L 3097 3866 
z
" transform="scale(0.015625)"/>
      <path id="DejaVuSerif-7d" d="M 800 -716 
L 1019 -716 
Q 1456 -716 1589 -580 
Q 1722 -444 1722 0 
L 1722 897 
Q 1722 1388 1875 1597 
Q 2028 1806 2438 1913 
Q 2031 2006 1876 2218 
Q 1722 2431 1722 2925 
L 1722 3822 
Q 1722 4266 1589 4402 
Q 1456 4538 1019 4538 
L 800 4538 
L 800 4863 
L 997 4863 
Q 1775 4863 2036 4633 
Q 2297 4403 2297 3713 
L 2297 2906 
Q 2297 2438 2465 2256 
Q 2634 2075 3078 2075 
L 3272 2075 
L 3272 1747 
L 3078 1747 
Q 2634 1747 2465 1565 
Q 2297 1384 2297 916 
L 2297 109 
Q 2297 -581 2036 -812 
Q 1775 -1044 997 -1044 
L 800 -1044 
L 800 -716 
z
" transform="scale(0.015625)"/>
     </defs>
     <use xlink:href="#DejaVuSerif-5c"/>
     <use xlink:href="#DejaVuSerif-62" transform="translate(33.691406 0)"/>
     <use xlink:href="#DejaVuSerif-65" transform="translate(97.705078 0)"/>
     <use xlink:href="#DejaVuSerif-67" transform="translate(156.884766 0)"/>
     <use xlink:href="#DejaVuSerif-69" transform="translate(220.898438 0)"/>
     <use xlink:href="#DejaVuSerif-6e" transform="translate(252.880859 0)"/>
     <use xlink:href="#DejaVuSerif-7b" transform="translate(317.285156 0)"/>
     <use xlink:href="#DejaVuSerif-61" transform="translate(380.908203 0)"/>
     <use xlink:href="#DejaVuSerif-6c" transform="translate(440.527344 0)"/>
     <use xlink:href="#DejaVuSerif-69" transform="translate(472.509766 0)"/>
     <use xlink:href="#DejaVuSerif-67" transform="translate(504.492188 0)"/>
     <use xlink:href="#DejaVuSerif-6e" transform="translate(568.505859 0)"/>
     <use xlink:href="#DejaVuSerif-2a" transform="translate(632.910156 0)"/>
     <use xlink:href="#DejaVuSerif-7d" transform="translate(682.910156 0)"/>
    </g>
    <!-- M_1&amp;=\begin{pmatrix} 0 &amp; -1 &amp; 1 \\ 1 &amp; 0 &amp; -1 \\ -1 &amp; 1 &amp; 0 \end{pmatrix} \\ -->
    <g transform="translate(984.860625 93.470625) scale(0.12 -0.12)">
     <defs>
      <path id="DejaVuSerif-4d" d="M 353 0 
L 353 331 
L 947 331 
L 947 4331 
L 319 4331 
L 319 4666 
L 1678 4666 
L 3316 1344 
L 4953 4666 
L 6228 4666 
L 6228 4331 
L 5606 4331 
L 5606 331 
L 6203 331 
L 6203 0 
L 4378 0 
L 4378 331 
L 4972 331 
L 4972 3938 
L 3372 684 
L 2931 684 
L 1331 3938 
L 1331 331 
L 1925 331 
L 1925 0 
L 353 0 
z
" transform="scale(0.015625)"/>
      <path id="DejaVuSerif-5f" d="M 3200 -1259 
L 3200 -1509 
L 0 -1509 
L 0 -1259 
L 3200 -1259 
z
" transform="scale(0.015625)"/>
      <path id="DejaVuSerif-31" d="M 909 0 
L 909 331 
L 1722 331 
L 1722 4213 
L 781 3603 
L 781 4013 
L 1919 4750 
L 2350 4750 
L 2350 331 
L 3163 331 
L 3163 0 
L 909 0 
z
" transform="scale(0.015625)"/>
      <path id="DejaVuSerif-26" d="M 3456 722 
L 1638 2638 
Q 1366 2394 1230 2111 
Q 1094 1828 1094 1509 
Q 1094 991 1453 639 
Q 1813 288 2350 288 
Q 2669 288 2951 398 
Q 3234 509 3456 722 
z
M 5394 0 
L 4141 0 
L 3713 453 
Q 3384 178 3012 43 
Q 2641 -91 2209 -91 
Q 1403 -91 931 321 
Q 459 734 459 1441 
Q 459 1856 698 2217 
Q 938 2578 1422 2894 
Q 1263 3084 1188 3273 
Q 1113 3463 1113 3669 
Q 1113 4166 1470 4458 
Q 1828 4750 2444 4750 
Q 2653 4750 2933 4697 
Q 3213 4644 3572 4538 
L 3572 3731 
L 3219 3731 
Q 3175 4066 2975 4241 
Q 2775 4416 2431 4416 
Q 2109 4416 1909 4239 
Q 1709 4063 1709 3781 
Q 1709 3591 1815 3402 
Q 1922 3213 2259 2859 
L 3872 1159 
Q 4088 1409 4211 1698 
Q 4334 1988 4366 2316 
L 3803 2316 
L 3803 2650 
L 5281 2650 
L 5281 2316 
L 4744 2316 
Q 4691 1909 4536 1556 
Q 4381 1203 4122 903 
L 4659 331 
L 5394 331 
L 5394 0 
z
" transform="scale(0.015625)"/>
      <path id="DejaVuSerif-3d" d="M 678 2894 
L 4684 2894 
L 4684 2394 
L 678 2394 
L 678 2894 
z
M 678 1619 
L 4684 1619 
L 4684 1119 
L 678 1119 
L 678 1619 
z
" transform="scale(0.015625)"/>
      <path id="DejaVuSerif-30" d="M 2034 219 
Q 2513 219 2750 744 
Q 2988 1269 2988 2328 
Q 2988 3391 2750 3916 
Q 2513 4441 2034 4441 
Q 1556 4441 1318 3916 
Q 1081 3391 1081 2328 
Q 1081 1269 1318 744 
Q 1556 219 2034 219 
z
M 2034 -91 
Q 1275 -91 848 546 
Q 422 1184 422 2328 
Q 422 3475 848 4112 
Q 1275 4750 2034 4750 
Q 2797 4750 3222 4112 
Q 3647 3475 3647 2328 
Q 3647 1184 3222 546 
Q 2797 -91 2034 -91 
z
" transform="scale(0.015625)"/>
     </defs>
     <use xlink:href="#DejaVuSerif-4d"/>
     <use xlink:href="#DejaVuSerif-5f" transform="translate(102.392578 0)"/>
     <use xlink:href="#DejaVuSerif-31" transform="translate(152.392578 0)"/>
     <use xlink:href="#DejaVuSerif-26" transform="translate(216.015625 0)"/>
     <use xlink:href="#DejaVuSerif-3d" transform="translate(305.029297 0)"/>
     <use xlink:href="#DejaVuSerif-5c" transform="translate(388.818359 0)"/>
     <use xlink:href="#DejaVuSerif-62" transform="translate(422.509766 0)"/>
     <use xlink:href="#DejaVuSerif-65" transform="translate(486.523438 0)"/>
     <use xlink:href="#DejaVuSerif-67" transform="translate(545.703125 0)"/>
     <use xlink:href="#DejaVuSerif-69" transform="translate(609.716797 0)"/>
     <use xlink:href="#DejaVuSerif-6e" transform="translate(641.699219 0)"/>
     <use xlink:href="#DejaVuSerif-7b" transform="translate(706.103516 0)"/>
     <use xlink:href="#DejaVuSerif-70" transform="translate(769.726562 0)"/>
     <use xlink:href="#DejaVuSerif-6d" transform="translate(833.740234 0)"/>
     <use xlink:href="#DejaVuSerif-61" transform="translate(928.564453 0)"/>
     <use xlink:href="#DejaVuSerif-74" transform="translate(988.183594 0)"/>
     <use xlink:href="#DejaVuSerif-72" transform="translate(1028.369141 0)"/>
     <use xlink:href="#DejaVuSerif-69" transform="translate(1076.171875 0)"/>
     <use xlink:href="#DejaVuSerif-78" transform="translate(1108.154297 0)"/>
     <use xlink:href="#DejaVuSerif-7d" transform="translate(1164.550781 0)"/>
     <use xlink:href="#DejaVuSerif-20" transform="translate(1228.173828 0)"/>
     <use xlink:href="#DejaVuSerif-30" transform="translate(1259.960938 0)"/>
     <use xlink:href="#DejaVuSerif-20" transform="translate(1323.583984 0)"/>
     <use xlink:href="#DejaVuSerif-26" transform="translate(1355.371094 0)"/>
     <use xlink:href="#DejaVuSerif-20" transform="translate(1444.384766 0)"/>
     <use xlink:href="#DejaVuSerif-2d" transform="translate(1476.171875 0)"/>
     <use xlink:href="#DejaVuSerif-31" transform="translate(1509.960938 0)"/>
     <use xlink:href="#DejaVuSerif-20" transform="translate(1573.583984 0)"/>
     <use xlink:href="#DejaVuSerif-26" transform="translate(1605.371094 0)"/>
     <use xlink:href="#DejaVuSerif-20" transform="translate(1694.384766 0)"/>
     <use xlink:href="#DejaVuSerif-31" transform="translate(1726.171875 0)"/>
     <use xlink:href="#DejaVuSerif-20" transform="translate(1789.794922 0)"/>
     <use xlink:href="#DejaVuSerif-5c" transform="translate(1821.582031 0)"/>
     <use xlink:href="#DejaVuSerif-5c" transform="translate(1855.273438 0)"/>
     <use xlink:href="#DejaVuSerif-20" transform="translate(1888.964844 0)"/>
     <use xlink:href="#DejaVuSerif-31" transform="translate(1920.751953 0)"/>
     <use xlink:href="#DejaVuSerif-20" transform="translate(1984.375 0)"/>
     <use xlink:href="#DejaVuSerif-26" transform="translate(2016.162109 0)"/>
     <use xlink:href="#DejaVuSerif-20" transform="translate(2105.175781 0)"/>
     <use xlink:href="#DejaVuSerif-30" transform="translate(2136.962891 0)"/>
     <use xlink:href="#DejaVuSerif-20" transform="translate(2200.585938 0)"/>
     <use xlink:href="#DejaVuSerif-26" transform="translate(2232.373047 0)"/>
     <use xlink:href="#DejaVuSerif-20" transform="translate(2321.386719 0)"/>
     <use xlink:href="#DejaVuSerif-2d" transform="translate(2353.173828 0)"/>
     <use xlink:href="#DejaVuSerif-31" transform="translate(2386.962891 0)"/>
     <use xlink:href="#DejaVuSerif-20" transform="translate(2450.585938 0)"/>
     <use xlink:href="#DejaVuSerif-5c" transform="translate(2482.373047 0)"/>
     <use xlink:href="#DejaVuSerif-5c" transform="translate(2516.064453 0)"/>
     <use xlink:href="#DejaVuSerif-20" transform="translate(2549.755859 0)"/>
     <use xlink:href="#DejaVuSerif-2d" transform="translate(2581.542969 0)"/>
     <use xlink:href="#DejaVuSerif-31" transform="translate(2615.332031 0)"/>
     <use xlink:href="#DejaVuSerif-20" transform="translate(2678.955078 0)"/>
     <use xlink:href="#DejaVuSerif-26" transform="translate(2710.742188 0)"/>
     <use xlink:href="#DejaVuSerif-20" transform="translate(2799.755859 0)"/>
     <use xlink:href="#DejaVuSerif-31" transform="translate(2831.542969 0)"/>
     <use xlink:href="#DejaVuSerif-20" transform="translate(2895.166016 0)"/>
     <use xlink:href="#DejaVuSerif-26" transform="translate(2926.953125 0)"/>
     <use xlink:href="#DejaVuSerif-20" transform="translate(3015.966797 0)"/>
     <use xlink:href="#DejaVuSerif-30" transform="translate(3047.753906 0)"/>
     <use xlink:href="#DejaVuSerif-20" transform="translate(3111.376953 0)"/>
     <use xlink:href="#DejaVuSerif-5c" transform="translate(3143.164062 0)"/>
     <use xlink:href="#DejaVuSerif-65" transform="translate(3176.855469 0)"/>
     <use xlink:href="#DejaVuSerif-6e" transform="translate(3236.035156 0)"/>
     <use xlink:href="#DejaVuSerif-64" transform="translate(3300.439453 0)"/>
     <use xlink:href="#DejaVuSerif-7b" transform="translate(3364.453125 0)"/>
     <use xlink:href="#DejaVuSerif-70" transform="translate(3428.076172 0)"/>
     <use xlink:href="#DejaVuSerif-6d" transform="translate(3492.089844 0)"/>
     <use xlink:href="#DejaVuSerif-61" transform="translate(3586.914062 0)"/>
     <use xlink:href="#DejaVuSerif-74" transform="translate(3646.533203 0)"/>
     <use xlink:href="#DejaVuSerif-72" transform="translate(3686.71875 0)"/>
     <use xlink:href="#DejaVuSerif-69" transform="translate(3734.521484 0)"/>
     <use xlink:href="#DejaVuSerif-78" transform="translate(3766.503906 0)"/>
     <use xlink:href="#DejaVuSerif-7d" transform="translate(3822.900391 0)"/>
     <use xlink:href="#DejaVuSerif-20" transform="translate(3886.523438 0)"/>
     <use xlink:href="#DejaVuSerif-5c" transform="translate(3918.310547 0)"/>
     <use xlink:href="#DejaVuSerif-5c" transform="translate(3952.001953 0)"/>
    </g>
    <!-- M_2&amp;=\begin{pmatrix} 0 &amp; -1 &amp; -1 &amp; 1 &amp; 1 \\ 1 &amp; 0 &amp; -1 &amp; -1 &amp; 1 \\ 1 &amp; 1 &amp; 0 &amp; -1 &amp; -1 \\ -1 &amp; 1 &amp; 1 &amp; 0 &amp; -1 \\ -1 &amp; -1 &amp; 1 &amp; 1 &amp; 0 \end{pmatrix}. -->
    <g transform="translate(769.750312 107.24175) scale(0.12 -0.12)">
     <defs>
      <path id="DejaVuSerif-32" d="M 819 3553 
L 469 3553 
L 469 4384 
Q 803 4563 1142 4656 
Q 1481 4750 1806 4750 
Q 2534 4750 2956 4397 
Q 3378 4044 3378 3438 
Q 3378 2753 2422 1800 
Q 2347 1728 2309 1691 
L 1131 513 
L 3078 513 
L 3078 1088 
L 3444 1088 
L 3444 0 
L 434 0 
L 434 341 
L 1850 1753 
Q 2319 2222 2519 2614 
Q 2719 3006 2719 3438 
Q 2719 3909 2473 4175 
Q 2228 4441 1797 4441 
Q 1350 4441 1106 4219 
Q 863 3997 819 3553 
z
" transform="scale(0.015625)"/>
     </defs>
     <use xlink:href="#DejaVuSerif-4d"/>
     <use xlink:href="#DejaVuSerif-5f" transform="translate(102.392578 0)"/>
     <use xlink:href="#DejaVuSerif-32" transform="translate(152.392578 0)"/>
     <use xlink:href="#DejaVuSerif-26" transform="translate(216.015625 0)"/>
     <use xlink:href="#DejaVuSerif-3d" transform="translate(305.029297 0)"/>
     <use xlink:href="#DejaVuSerif-5c" transform="translate(388.818359 0)"/>
     <use xlink:href="#DejaVuSerif-62" transform="translate(422.509766 0)"/>
     <use xlink:href="#DejaVuSerif-65" transform="translate(486.523438 0)"/>
     <use xlink:href="#DejaVuSerif-67" transform="translate(545.703125 0)"/>
     <use xlink:href="#DejaVuSerif-69" transform="translate(609.716797 0)"/>
     <use xlink:href="#DejaVuSerif-6e" transform="translate(641.699219 0)"/>
     <use xlink:href="#DejaVuSerif-7b" transform="translate(706.103516 0)"/>
     <use xlink:href="#DejaVuSerif-70" transform="translate(769.726562 0)"/>
     <use xlink:href="#DejaVuSerif-6d" transform="translate(833.740234 0)"/>
     <use xlink:href="#DejaVuSerif-61" transform="translate(928.564453 0)"/>
     <use xlink:href="#DejaVuSerif-74" transform="translate(988.183594 0)"/>
     <use xlink:href="#DejaVuSerif-72" transform="translate(1028.369141 0)"/>
     <use xlink:href="#DejaVuSerif-69" transform="translate(1076.171875 0)"/>
     <use xlink:href="#DejaVuSerif-78" transform="translate(1108.154297 0)"/>
     <use xlink:href="#DejaVuSerif-7d" transform="translate(1164.550781 0)"/>
     <use xlink:href="#DejaVuSerif-20" transform="translate(1228.173828 0)"/>
     <use xlink:href="#DejaVuSerif-30" transform="translate(1259.960938 0)"/>
     <use xlink:href="#DejaVuSerif-20" transform="translate(1323.583984 0)"/>
     <use xlink:href="#DejaVuSerif-26" transform="translate(1355.371094 0)"/>
     <use xlink:href="#DejaVuSerif-20" transform="translate(1444.384766 0)"/>
     <use xlink:href="#DejaVuSerif-2d" transform="translate(1476.171875 0)"/>
     <use xlink:href="#DejaVuSerif-31" transform="translate(1509.960938 0)"/>
     <use xlink:href="#DejaVuSerif-20" transform="translate(1573.583984 0)"/>
     <use xlink:href="#DejaVuSerif-26" transform="translate(1605.371094 0)"/>
     <use xlink:href="#DejaVuSerif-20" transform="translate(1694.384766 0)"/>
     <use xlink:href="#DejaVuSerif-2d" transform="translate(1726.171875 0)"/>
     <use xlink:href="#DejaVuSerif-31" transform="translate(1759.960938 0)"/>
     <use xlink:href="#DejaVuSerif-20" transform="translate(1823.583984 0)"/>
     <use xlink:href="#DejaVuSerif-26" transform="translate(1855.371094 0)"/>
     <use xlink:href="#DejaVuSerif-20" transform="translate(1944.384766 0)"/>
     <use xlink:href="#DejaVuSerif-31" transform="translate(1976.171875 0)"/>
     <use xlink:href="#DejaVuSerif-20" transform="translate(2039.794922 0)"/>
     <use xlink:href="#DejaVuSerif-26" transform="translate(2071.582031 0)"/>
     <use xlink:href="#DejaVuSerif-20" transform="translate(2160.595703 0)"/>
     <use xlink:href="#DejaVuSerif-31" transform="translate(2192.382812 0)"/>
     <use xlink:href="#DejaVuSerif-20" transform="translate(2256.005859 0)"/>
     <use xlink:href="#DejaVuSerif-5c" transform="translate(2287.792969 0)"/>
     <use xlink:href="#DejaVuSerif-5c" transform="translate(2321.484375 0)"/>
     <use xlink:href="#DejaVuSerif-20" transform="translate(2355.175781 0)"/>
     <use xlink:href="#DejaVuSerif-31" transform="translate(2386.962891 0)"/>
     <use xlink:href="#DejaVuSerif-20" transform="translate(2450.585938 0)"/>
     <use xlink:href="#DejaVuSerif-26" transform="translate(2482.373047 0)"/>
     <use xlink:href="#DejaVuSerif-20" transform="translate(2571.386719 0)"/>
     <use xlink:href="#DejaVuSerif-30" transform="translate(2603.173828 0)"/>
     <use xlink:href="#DejaVuSerif-20" transform="translate(2666.796875 0)"/>
     <use xlink:href="#DejaVuSerif-26" transform="translate(2698.583984 0)"/>
     <use xlink:href="#DejaVuSerif-20" transform="translate(2787.597656 0)"/>
     <use xlink:href="#DejaVuSerif-2d" transform="translate(2819.384766 0)"/>
     <use xlink:href="#DejaVuSerif-31" transform="translate(2853.173828 0)"/>
     <use xlink:href="#DejaVuSerif-20" transform="translate(2916.796875 0)"/>
     <use xlink:href="#DejaVuSerif-26" transform="translate(2948.583984 0)"/>
     <use xlink:href="#DejaVuSerif-20" transform="translate(3037.597656 0)"/>
     <use xlink:href="#DejaVuSerif-2d" transform="translate(3069.384766 0)"/>
     <use xlink:href="#DejaVuSerif-31" transform="translate(3103.173828 0)"/>
     <use xlink:href="#DejaVuSerif-20" transform="translate(3166.796875 0)"/>
     <use xlink:href="#DejaVuSerif-26" transform="translate(3198.583984 0)"/>
     <use xlink:href="#DejaVuSerif-20" transform="translate(3287.597656 0)"/>
     <use xlink:href="#DejaVuSerif-31" transform="translate(3319.384766 0)"/>
     <use xlink:href="#DejaVuSerif-20" transform="translate(3383.007812 0)"/>
     <use xlink:href="#DejaVuSerif-5c" transform="translate(3414.794922 0)"/>
     <use xlink:href="#DejaVuSerif-5c" transform="translate(3448.486328 0)"/>
     <use xlink:href="#DejaVuSerif-20" transform="translate(3482.177734 0)"/>
     <use xlink:href="#DejaVuSerif-31" transform="translate(3513.964844 0)"/>
     <use xlink:href="#DejaVuSerif-20" transform="translate(3577.587891 0)"/>
     <use xlink:href="#DejaVuSerif-26" transform="translate(3609.375 0)"/>
     <use xlink:href="#DejaVuSerif-20" transform="translate(3698.388672 0)"/>
     <use xlink:href="#DejaVuSerif-31" transform="translate(3730.175781 0)"/>
     <use xlink:href="#DejaVuSerif-20" transform="translate(3793.798828 0)"/>
     <use xlink:href="#DejaVuSerif-26" transform="translate(3825.585938 0)"/>
     <use xlink:href="#DejaVuSerif-20" transform="translate(3914.599609 0)"/>
     <use xlink:href="#DejaVuSerif-30" transform="translate(3946.386719 0)"/>
     <use xlink:href="#DejaVuSerif-20" transform="translate(4010.009766 0)"/>
     <use xlink:href="#DejaVuSerif-26" transform="translate(4041.796875 0)"/>
     <use xlink:href="#DejaVuSerif-20" transform="translate(4130.810547 0)"/>
     <use xlink:href="#DejaVuSerif-2d" transform="translate(4162.597656 0)"/>
     <use xlink:href="#DejaVuSerif-31" transform="translate(4196.386719 0)"/>
     <use xlink:href="#DejaVuSerif-20" transform="translate(4260.009766 0)"/>
     <use xlink:href="#DejaVuSerif-26" transform="translate(4291.796875 0)"/>
     <use xlink:href="#DejaVuSerif-20" transform="translate(4380.810547 0)"/>
     <use xlink:href="#DejaVuSerif-2d" transform="translate(4412.597656 0)"/>
     <use xlink:href="#DejaVuSerif-31" transform="translate(4446.386719 0)"/>
     <use xlink:href="#DejaVuSerif-20" transform="translate(4510.009766 0)"/>
     <use xlink:href="#DejaVuSerif-5c" transform="translate(4541.796875 0)"/>
     <use xlink:href="#DejaVuSerif-5c" transform="translate(4575.488281 0)"/>
     <use xlink:href="#DejaVuSerif-20" transform="translate(4609.179688 0)"/>
     <use xlink:href="#DejaVuSerif-2d" transform="translate(4640.966797 0)"/>
     <use xlink:href="#DejaVuSerif-31" transform="translate(4674.755859 0)"/>
     <use xlink:href="#DejaVuSerif-20" transform="translate(4738.378906 0)"/>
     <use xlink:href="#DejaVuSerif-26" transform="translate(4770.166016 0)"/>
     <use xlink:href="#DejaVuSerif-20" transform="translate(4859.179688 0)"/>
     <use xlink:href="#DejaVuSerif-31" transform="translate(4890.966797 0)"/>
     <use xlink:href="#DejaVuSerif-20" transform="translate(4954.589844 0)"/>
     <use xlink:href="#DejaVuSerif-26" transform="translate(4986.376953 0)"/>
     <use xlink:href="#DejaVuSerif-20" transform="translate(5075.390625 0)"/>
     <use xlink:href="#DejaVuSerif-31" transform="translate(5107.177734 0)"/>
     <use xlink:href="#DejaVuSerif-20" transform="translate(5170.800781 0)"/>
     <use xlink:href="#DejaVuSerif-26" transform="translate(5202.587891 0)"/>
     <use xlink:href="#DejaVuSerif-20" transform="translate(5291.601562 0)"/>
     <use xlink:href="#DejaVuSerif-30" transform="translate(5323.388672 0)"/>
     <use xlink:href="#DejaVuSerif-20" transform="translate(5387.011719 0)"/>
     <use xlink:href="#DejaVuSerif-26" transform="translate(5418.798828 0)"/>
     <use xlink:href="#DejaVuSerif-20" transform="translate(5507.8125 0)"/>
     <use xlink:href="#DejaVuSerif-2d" transform="translate(5539.599609 0)"/>
     <use xlink:href="#DejaVuSerif-31" transform="translate(5573.388672 0)"/>
     <use xlink:href="#DejaVuSerif-20" transform="translate(5637.011719 0)"/>
     <use xlink:href="#DejaVuSerif-5c" transform="translate(5668.798828 0)"/>
     <use xlink:href="#DejaVuSerif-5c" transform="translate(5702.490234 0)"/>
     <use xlink:href="#DejaVuSerif-20" transform="translate(5736.181641 0)"/>
     <use xlink:href="#DejaVuSerif-2d" transform="translate(5767.96875 0)"/>
     <use xlink:href="#DejaVuSerif-31" transform="translate(5801.757812 0)"/>
     <use xlink:href="#DejaVuSerif-20" transform="translate(5865.380859 0)"/>
     <use xlink:href="#DejaVuSerif-26" transform="translate(5897.167969 0)"/>
     <use xlink:href="#DejaVuSerif-20" transform="translate(5986.181641 0)"/>
     <use xlink:href="#DejaVuSerif-2d" transform="translate(6017.96875 0)"/>
     <use xlink:href="#DejaVuSerif-31" transform="translate(6051.757812 0)"/>
     <use xlink:href="#DejaVuSerif-20" transform="translate(6115.380859 0)"/>
     <use xlink:href="#DejaVuSerif-26" transform="translate(6147.167969 0)"/>
     <use xlink:href="#DejaVuSerif-20" transform="translate(6236.181641 0)"/>
     <use xlink:href="#DejaVuSerif-31" transform="translate(6267.96875 0)"/>
     <use xlink:href="#DejaVuSerif-20" transform="translate(6331.591797 0)"/>
     <use xlink:href="#DejaVuSerif-26" transform="translate(6363.378906 0)"/>
     <use xlink:href="#DejaVuSerif-20" transform="translate(6452.392578 0)"/>
     <use xlink:href="#DejaVuSerif-31" transform="translate(6484.179688 0)"/>
     <use xlink:href="#DejaVuSerif-20" transform="translate(6547.802734 0)"/>
     <use xlink:href="#DejaVuSerif-26" transform="translate(6579.589844 0)"/>
     <use xlink:href="#DejaVuSerif-20" transform="translate(6668.603516 0)"/>
     <use xlink:href="#DejaVuSerif-30" transform="translate(6700.390625 0)"/>
     <use xlink:href="#DejaVuSerif-20" transform="translate(6764.013672 0)"/>
     <use xlink:href="#DejaVuSerif-5c" transform="translate(6795.800781 0)"/>
     <use xlink:href="#DejaVuSerif-65" transform="translate(6829.492188 0)"/>
     <use xlink:href="#DejaVuSerif-6e" transform="translate(6888.671875 0)"/>
     <use xlink:href="#DejaVuSerif-64" transform="translate(6953.076172 0)"/>
     <use xlink:href="#DejaVuSerif-7b" transform="translate(7017.089844 0)"/>
     <use xlink:href="#DejaVuSerif-70" transform="translate(7080.712891 0)"/>
     <use xlink:href="#DejaVuSerif-6d" transform="translate(7144.726562 0)"/>
     <use xlink:href="#DejaVuSerif-61" transform="translate(7239.550781 0)"/>
     <use xlink:href="#DejaVuSerif-74" transform="translate(7299.169922 0)"/>
     <use xlink:href="#DejaVuSerif-72" transform="translate(7339.355469 0)"/>
     <use xlink:href="#DejaVuSerif-69" transform="translate(7387.158203 0)"/>
     <use xlink:href="#DejaVuSerif-78" transform="translate(7419.140625 0)"/>
     <use xlink:href="#DejaVuSerif-7d" transform="translate(7475.537109 0)"/>
     <use xlink:href="#DejaVuSerif-2e" transform="translate(7539.160156 0)"/>
    </g>
    <!-- \end{align*} -->
    <g transform="translate(1184.96625 121.012875) scale(0.12 -0.12)">
     <use xlink:href="#DejaVuSerif-5c"/>
     <use xlink:href="#DejaVuSerif-65" transform="translate(33.691406 0)"/>
     <use xlink:href="#DejaVuSerif-6e" transform="translate(92.871094 0)"/>
     <use xlink:href="#DejaVuSerif-64" transform="translate(157.275391 0)"/>
     <use xlink:href="#DejaVuSerif-7b" transform="translate(221.289062 0)"/>
     <use xlink:href="#DejaVuSerif-61" transform="translate(284.912109 0)"/>
     <use xlink:href="#DejaVuSerif-6c" transform="translate(344.53125 0)"/>
     <use xlink:href="#DejaVuSerif-69" transform="translate(376.513672 0)"/>
     <use xlink:href="#DejaVuSerif-67" transform="translate(408.496094 0)"/>
     <use xlink:href="#DejaVuSerif-6e" transform="translate(472.509766 0)"/>
     <use xlink:href="#DejaVuSerif-2a" transform="translate(536.914062 0)"/>
     <use xlink:href="#DejaVuSerif-7d" transform="translate(586.914062 0)"/>
    </g>
   </g>
  </g>
 </g>
</svg>
