<?xml version="1.0" encoding="utf-8" standalone="no"?>
<!DOCTYPE svg PUBLIC "-//W3C//DTD SVG 1.1//EN"
  "http://www.w3.org/Graphics/SVG/1.1/DTD/svg11.dtd">
<svg xmlns:xlink="http://www.w3.org/1999/xlink" width="892.44pt" height="228.4pt" viewBox="0 0 892.44 228.4" xmlns="http://www.w3.org/2000/svg" version="1.1">
 <metadata>
  <rdf:RDF xmlns:dc="http://purl.org/dc/elements/1.1/" xmlns:cc="http://creativecommons.org/ns#" xmlns:rdf="http://www.w3.org/1999/02/22-rdf-syntax-ns#">
   <cc:Work>
    <dc:type rdf:resource="http://purl.org/dc/dcmitype/StillImage"/>
    <dc:date>2025-05-29T18:43:42.029285</dc:date>
    <dc:format>image/svg+xml</dc:format>
    <dc:creator>
     <cc:Agent>
      <dc:title>Matplotlib v3.10.3, https://matplotlib.org/</dc:title>
     </cc:Agent>
    </dc:creator>
   </cc:Work>
  </rdf:RDF>
 </metadata>
 <defs>
  <style type="text/css">*{stroke-linejoin: round; stroke-linecap: butt}</style>
 </defs>
 <g id="figure_1">
  <g id="patch_1">
   <path d="M 0 228.4 
L 892.44 228.4 
L 892.44 0 
L 0 0 
z
" style="fill: #ffffff"/>
  </g>
  <g id="axes_1">
   <g id="text_1">
    <!-- Let $V$ be the set of all quadratic polynomials with real coefficients such that $|P(x)| \leq 1$ for all $x \in [0, 1]$. Find the supremum of $|P'(0)|$ across all $P \in V$. -->
    <g transform="translate(7.2 117.38) scale(0.12 -0.12)">
     <defs>
      <path id="DejaVuSerif-4c" d="M 353 0 
L 353 331 
L 947 331 
L 947 4331 
L 353 4331 
L 353 4666 
L 2175 4666 
L 2175 4331 
L 1581 4331 
L 1581 384 
L 3713 384 
L 3713 1166 
L 4097 1166 
L 4097 0 
L 353 0 
z
" transform="scale(0.015625)"/>
      <path id="DejaVuSerif-65" d="M 3469 1600 
L 991 1600 
L 991 1575 
Q 991 903 1244 561 
Q 1497 219 1991 219 
Q 2369 219 2611 417 
Q 2853 616 2950 1006 
L 3413 1006 
Q 3275 459 2904 184 
Q 2534 -91 1931 -91 
Q 1203 -91 761 389 
Q 319 869 319 1663 
Q 319 2450 753 2931 
Q 1188 3413 1894 3413 
Q 2647 3413 3050 2948 
Q 3453 2484 3469 1600 
z
M 2791 1931 
Q 2772 2513 2545 2808 
Q 2319 3103 1894 3103 
Q 1497 3103 1269 2806 
Q 1041 2509 991 1931 
L 2791 1931 
z
" transform="scale(0.015625)"/>
      <path id="DejaVuSerif-74" d="M 691 2988 
L 184 2988 
L 184 3322 
L 691 3322 
L 691 4353 
L 1269 4353 
L 1269 3322 
L 2350 3322 
L 2350 2988 
L 1269 2988 
L 1269 878 
Q 1269 456 1350 337 
Q 1431 219 1650 219 
Q 1875 219 1978 351 
Q 2081 484 2088 781 
L 2522 781 
Q 2497 328 2275 118 
Q 2053 -91 1600 -91 
Q 1103 -91 897 129 
Q 691 350 691 878 
L 691 2988 
z
" transform="scale(0.015625)"/>
      <path id="DejaVuSerif-20" transform="scale(0.015625)"/>
      <path id="Cmmi10-56" d="M 1409 -72 
L 897 4006 
Q 850 4147 416 4147 
Q 353 4147 353 4231 
Q 366 4300 384 4336 
Q 403 4372 459 4372 
L 2022 4372 
Q 2056 4372 2072 4347 
Q 2088 4322 2088 4288 
Q 2063 4147 2003 4147 
Q 1503 4147 1472 3975 
L 1894 628 
L 3866 3775 
Q 3922 3881 3922 3944 
Q 3922 4056 3820 4101 
Q 3719 4147 3584 4147 
Q 3519 4147 3519 4231 
Q 3531 4281 3540 4309 
Q 3550 4338 3569 4355 
Q 3588 4372 3628 4372 
L 4863 4372 
Q 4922 4372 4922 4288 
Q 4897 4147 4838 4147 
Q 4356 4147 4084 3725 
Q 4072 3713 4063 3713 
L 1703 -72 
Q 1656 -141 1581 -141 
L 1491 -141 
Q 1419 -141 1409 -72 
z
" transform="scale(0.015625)"/>
      <path id="DejaVuSerif-62" d="M 738 331 
L 738 4531 
L 184 4531 
L 184 4863 
L 1313 4863 
L 1313 2803 
Q 1481 3116 1742 3264 
Q 2003 3413 2388 3413 
Q 3000 3413 3387 2928 
Q 3775 2444 3775 1663 
Q 3775 881 3387 395 
Q 3000 -91 2388 -91 
Q 2003 -91 1742 57 
Q 1481 206 1313 519 
L 1313 0 
L 184 0 
L 184 331 
L 738 331 
z
M 1313 1497 
Q 1313 897 1542 583 
Q 1772 269 2209 269 
Q 2650 269 2876 622 
Q 3103 975 3103 1663 
Q 3103 2353 2876 2703 
Q 2650 3053 2209 3053 
Q 1772 3053 1542 2737 
Q 1313 2422 1313 1825 
L 1313 1497 
z
" transform="scale(0.015625)"/>
      <path id="DejaVuSerif-68" d="M 263 0 
L 263 331 
L 781 331 
L 781 4531 
L 231 4531 
L 231 4863 
L 1356 4863 
L 1356 2731 
Q 1516 3069 1770 3241 
Q 2025 3413 2363 3413 
Q 2913 3413 3172 3097 
Q 3431 2781 3431 2113 
L 3431 331 
L 3944 331 
L 3944 0 
L 2356 0 
L 2356 331 
L 2853 331 
L 2853 1931 
Q 2853 2541 2704 2764 
Q 2556 2988 2175 2988 
Q 1775 2988 1565 2697 
Q 1356 2406 1356 1850 
L 1356 331 
L 1856 331 
L 1856 0 
L 263 0 
z
" transform="scale(0.015625)"/>
      <path id="DejaVuSerif-73" d="M 359 184 
L 359 959 
L 691 959 
Q 703 588 923 403 
Q 1144 219 1575 219 
Q 1963 219 2166 364 
Q 2369 509 2369 788 
Q 2369 1006 2220 1140 
Q 2072 1275 1594 1428 
L 1178 1569 
Q 750 1706 558 1912 
Q 366 2119 366 2438 
Q 366 2894 700 3153 
Q 1034 3413 1625 3413 
Q 1888 3413 2178 3344 
Q 2469 3275 2778 3144 
L 2778 2419 
L 2447 2419 
Q 2434 2741 2221 2922 
Q 2009 3103 1644 3103 
Q 1281 3103 1095 2975 
Q 909 2847 909 2591 
Q 909 2381 1050 2254 
Q 1191 2128 1613 1997 
L 2069 1856 
Q 2541 1709 2748 1489 
Q 2956 1269 2956 922 
Q 2956 450 2595 179 
Q 2234 -91 1600 -91 
Q 1278 -91 972 -22 
Q 666 47 359 184 
z
" transform="scale(0.015625)"/>
      <path id="DejaVuSerif-6f" d="M 1925 219 
Q 2388 219 2623 584 
Q 2859 950 2859 1663 
Q 2859 2375 2623 2739 
Q 2388 3103 1925 3103 
Q 1463 3103 1227 2739 
Q 991 2375 991 1663 
Q 991 950 1228 584 
Q 1466 219 1925 219 
z
M 1925 -91 
Q 1200 -91 759 389 
Q 319 869 319 1663 
Q 319 2456 758 2934 
Q 1197 3413 1925 3413 
Q 2653 3413 3092 2934 
Q 3531 2456 3531 1663 
Q 3531 869 3092 389 
Q 2653 -91 1925 -91 
z
" transform="scale(0.015625)"/>
      <path id="DejaVuSerif-66" d="M 2753 4078 
L 2450 4078 
Q 2447 4313 2317 4434 
Q 2188 4556 1941 4556 
Q 1619 4556 1487 4379 
Q 1356 4203 1356 3750 
L 1356 3322 
L 2284 3322 
L 2284 2988 
L 1356 2988 
L 1356 331 
L 2094 331 
L 2094 0 
L 231 0 
L 231 331 
L 781 331 
L 781 2988 
L 231 2988 
L 231 3322 
L 781 3322 
L 781 3738 
Q 781 4294 1070 4578 
Q 1359 4863 1919 4863 
Q 2128 4863 2337 4825 
Q 2547 4788 2753 4709 
L 2753 4078 
z
" transform="scale(0.015625)"/>
      <path id="DejaVuSerif-61" d="M 2547 1044 
L 2547 1747 
L 1806 1747 
Q 1378 1747 1168 1562 
Q 959 1378 959 997 
Q 959 650 1171 447 
Q 1384 244 1747 244 
Q 2106 244 2326 466 
Q 2547 688 2547 1044 
z
M 3122 2075 
L 3122 331 
L 3634 331 
L 3634 0 
L 2547 0 
L 2547 359 
Q 2356 128 2106 18 
Q 1856 -91 1522 -91 
Q 969 -91 644 203 
Q 319 497 319 997 
Q 319 1513 691 1797 
Q 1063 2081 1741 2081 
L 2547 2081 
L 2547 2309 
Q 2547 2688 2317 2895 
Q 2088 3103 1672 3103 
Q 1328 3103 1125 2947 
Q 922 2791 872 2484 
L 575 2484 
L 575 3156 
Q 875 3284 1158 3348 
Q 1441 3413 1709 3413 
Q 2400 3413 2761 3070 
Q 3122 2728 3122 2075 
z
" transform="scale(0.015625)"/>
      <path id="DejaVuSerif-6c" d="M 1313 331 
L 1856 331 
L 1856 0 
L 184 0 
L 184 331 
L 738 331 
L 738 4531 
L 184 4531 
L 184 4863 
L 1313 4863 
L 1313 331 
z
" transform="scale(0.015625)"/>
      <path id="DejaVuSerif-71" d="M 3359 2988 
L 3359 -997 
L 3909 -997 
L 3909 -1331 
L 2241 -1331 
L 2241 -997 
L 2784 -997 
L 2784 519 
Q 2616 206 2355 57 
Q 2094 -91 1709 -91 
Q 1097 -91 708 395 
Q 319 881 319 1663 
Q 319 2444 706 2928 
Q 1094 3413 1709 3413 
Q 2094 3413 2355 3264 
Q 2616 3116 2784 2803 
L 2784 3322 
L 3909 3322 
L 3909 2988 
L 3359 2988 
z
M 2784 1825 
Q 2784 2422 2554 2737 
Q 2325 3053 1888 3053 
Q 1444 3053 1217 2703 
Q 991 2353 991 1663 
Q 991 975 1217 622 
Q 1444 269 1888 269 
Q 2325 269 2554 583 
Q 2784 897 2784 1497 
L 2784 1825 
z
" transform="scale(0.015625)"/>
      <path id="DejaVuSerif-75" d="M 2266 3322 
L 3341 3322 
L 3341 331 
L 3884 331 
L 3884 0 
L 2766 0 
L 2766 588 
Q 2606 256 2353 82 
Q 2100 -91 1766 -91 
Q 1213 -91 952 223 
Q 691 538 691 1209 
L 691 2988 
L 172 2988 
L 172 3322 
L 1269 3322 
L 1269 1388 
Q 1269 781 1417 556 
Q 1566 331 1947 331 
Q 2347 331 2556 625 
Q 2766 919 2766 1478 
L 2766 2988 
L 2266 2988 
L 2266 3322 
z
" transform="scale(0.015625)"/>
      <path id="DejaVuSerif-64" d="M 3359 331 
L 3909 331 
L 3909 0 
L 2784 0 
L 2784 519 
Q 2616 206 2355 57 
Q 2094 -91 1709 -91 
Q 1097 -91 708 395 
Q 319 881 319 1663 
Q 319 2444 706 2928 
Q 1094 3413 1709 3413 
Q 2094 3413 2355 3264 
Q 2616 3116 2784 2803 
L 2784 4531 
L 2241 4531 
L 2241 4863 
L 3359 4863 
L 3359 331 
z
M 2784 1497 
L 2784 1825 
Q 2784 2422 2554 2737 
Q 2325 3053 1888 3053 
Q 1444 3053 1217 2703 
Q 991 2353 991 1663 
Q 991 975 1217 622 
Q 1444 269 1888 269 
Q 2325 269 2554 583 
Q 2784 897 2784 1497 
z
" transform="scale(0.015625)"/>
      <path id="DejaVuSerif-72" d="M 3059 3328 
L 3059 2497 
L 2728 2497 
Q 2713 2744 2591 2866 
Q 2469 2988 2234 2988 
Q 1809 2988 1582 2694 
Q 1356 2400 1356 1850 
L 1356 331 
L 2022 331 
L 2022 0 
L 263 0 
L 263 331 
L 781 331 
L 781 2994 
L 231 2994 
L 231 3322 
L 1356 3322 
L 1356 2731 
Q 1525 3078 1790 3245 
Q 2056 3413 2438 3413 
Q 2578 3413 2733 3391 
Q 2888 3369 3059 3328 
z
" transform="scale(0.015625)"/>
      <path id="DejaVuSerif-69" d="M 622 4353 
Q 622 4497 726 4603 
Q 831 4709 978 4709 
Q 1122 4709 1226 4603 
Q 1331 4497 1331 4353 
Q 1331 4206 1228 4103 
Q 1125 4000 978 4000 
Q 831 4000 726 4103 
Q 622 4206 622 4353 
z
M 1356 331 
L 1900 331 
L 1900 0 
L 231 0 
L 231 331 
L 781 331 
L 781 2988 
L 231 2988 
L 231 3322 
L 1356 3322 
L 1356 331 
z
" transform="scale(0.015625)"/>
      <path id="DejaVuSerif-63" d="M 3291 997 
Q 3169 466 2822 187 
Q 2475 -91 1925 -91 
Q 1200 -91 759 389 
Q 319 869 319 1663 
Q 319 2459 759 2936 
Q 1200 3413 1925 3413 
Q 2241 3413 2553 3339 
Q 2866 3266 3181 3116 
L 3181 2266 
L 2847 2266 
Q 2781 2703 2561 2903 
Q 2341 3103 1931 3103 
Q 1466 3103 1228 2742 
Q 991 2381 991 1663 
Q 991 944 1227 581 
Q 1463 219 1931 219 
Q 2303 219 2525 412 
Q 2747 606 2828 997 
L 3291 997 
z
" transform="scale(0.015625)"/>
      <path id="DejaVuSerif-70" d="M 1313 1825 
L 1313 1497 
Q 1313 897 1542 583 
Q 1772 269 2209 269 
Q 2650 269 2876 622 
Q 3103 975 3103 1663 
Q 3103 2353 2876 2703 
Q 2650 3053 2209 3053 
Q 1772 3053 1542 2737 
Q 1313 2422 1313 1825 
z
M 738 2988 
L 184 2988 
L 184 3322 
L 1313 3322 
L 1313 2803 
Q 1481 3116 1742 3264 
Q 2003 3413 2388 3413 
Q 3000 3413 3387 2928 
Q 3775 2444 3775 1663 
Q 3775 881 3387 395 
Q 3000 -91 2388 -91 
Q 2003 -91 1742 57 
Q 1481 206 1313 519 
L 1313 -997 
L 1856 -997 
L 1856 -1331 
L 184 -1331 
L 184 -997 
L 738 -997 
L 738 2988 
z
" transform="scale(0.015625)"/>
      <path id="DejaVuSerif-79" d="M 1381 -609 
L 1600 -56 
L 359 2988 
L -19 2988 
L -19 3322 
L 1509 3322 
L 1509 2988 
L 978 2988 
L 1913 703 
L 2847 2988 
L 2350 2988 
L 2350 3322 
L 3597 3322 
L 3597 2988 
L 3225 2988 
L 1703 -750 
Q 1547 -1138 1356 -1280 
Q 1166 -1422 819 -1422 
Q 672 -1422 517 -1397 
Q 363 -1372 206 -1325 
L 206 -691 
L 500 -691 
Q 519 -903 608 -995 
Q 697 -1088 884 -1088 
Q 1056 -1088 1161 -992 
Q 1266 -897 1381 -609 
z
" transform="scale(0.015625)"/>
      <path id="DejaVuSerif-6e" d="M 263 0 
L 263 331 
L 781 331 
L 781 2988 
L 231 2988 
L 231 3322 
L 1356 3322 
L 1356 2731 
Q 1516 3069 1770 3241 
Q 2025 3413 2363 3413 
Q 2913 3413 3172 3097 
Q 3431 2781 3431 2113 
L 3431 331 
L 3944 331 
L 3944 0 
L 2356 0 
L 2356 331 
L 2853 331 
L 2853 1931 
Q 2853 2541 2703 2767 
Q 2553 2994 2175 2994 
Q 1775 2994 1565 2701 
Q 1356 2409 1356 1850 
L 1356 331 
L 1856 331 
L 1856 0 
L 263 0 
z
" transform="scale(0.015625)"/>
      <path id="DejaVuSerif-6d" d="M 3316 2675 
Q 3481 3041 3739 3227 
Q 3997 3413 4341 3413 
Q 4863 3413 5119 3089 
Q 5375 2766 5375 2113 
L 5375 331 
L 5894 331 
L 5894 0 
L 4300 0 
L 4300 331 
L 4800 331 
L 4800 2047 
Q 4800 2556 4650 2772 
Q 4500 2988 4153 2988 
Q 3769 2988 3567 2697 
Q 3366 2406 3366 1850 
L 3366 331 
L 3866 331 
L 3866 0 
L 2291 0 
L 2291 331 
L 2791 331 
L 2791 2069 
Q 2791 2566 2641 2777 
Q 2491 2988 2144 2988 
Q 1759 2988 1557 2697 
Q 1356 2406 1356 1850 
L 1356 331 
L 1856 331 
L 1856 0 
L 263 0 
L 263 331 
L 781 331 
L 781 2994 
L 231 2994 
L 231 3322 
L 1356 3322 
L 1356 2731 
Q 1516 3063 1762 3238 
Q 2009 3413 2322 3413 
Q 2709 3413 2968 3220 
Q 3228 3028 3316 2675 
z
" transform="scale(0.015625)"/>
      <path id="DejaVuSerif-77" d="M 3072 3322 
L 3922 728 
L 4672 2988 
L 4191 2988 
L 4191 3322 
L 5394 3322 
L 5394 2988 
L 5025 2988 
L 4038 0 
L 3559 0 
L 2741 2484 
L 1919 0 
L 1459 0 
L 475 2988 
L 103 2988 
L 103 3322 
L 1606 3322 
L 1606 2988 
L 1069 2988 
L 1813 728 
L 2669 3322 
L 3072 3322 
z
" transform="scale(0.015625)"/>
      <path id="Cmsy10-6a" d="M 763 -1484 
L 763 4684 
Q 763 4734 800 4767 
Q 838 4800 891 4800 
Q 938 4800 978 4767 
Q 1019 4734 1019 4684 
L 1019 -1484 
Q 1019 -1534 978 -1567 
Q 938 -1600 891 -1600 
Q 838 -1600 800 -1567 
Q 763 -1534 763 -1484 
z
" transform="scale(0.015625)"/>
      <path id="Cmmi10-50" d="M 313 0 
Q 250 0 250 84 
Q 253 100 262 139 
Q 272 178 289 201 
Q 306 225 331 225 
Q 722 225 878 269 
Q 959 297 997 441 
L 1875 3956 
Q 1888 4019 1888 4044 
Q 1888 4113 1813 4122 
Q 1691 4147 1350 4147 
Q 1288 4147 1288 4231 
Q 1291 4247 1300 4286 
Q 1309 4325 1326 4348 
Q 1344 4372 1369 4372 
L 3578 4372 
Q 3881 4372 4165 4264 
Q 4450 4156 4631 3934 
Q 4813 3713 4813 3397 
Q 4813 2991 4527 2672 
Q 4241 2353 3814 2175 
Q 3388 1997 2988 1997 
L 1947 1997 
L 1556 416 
Q 1544 353 1544 325 
Q 1544 300 1551 283 
Q 1559 266 1573 261 
Q 1588 256 1619 250 
Q 1741 225 2081 225 
Q 2144 225 2144 141 
Q 2122 50 2109 25 
Q 2097 0 2034 0 
L 313 0 
z
M 1978 2188 
L 2875 2188 
Q 3497 2188 3822 2522 
Q 3988 2688 4092 3000 
Q 4197 3313 4197 3566 
Q 4197 3881 3956 4014 
Q 3716 4147 3359 4147 
L 2747 4147 
Q 2572 4147 2515 4117 
Q 2459 4088 2413 3928 
L 1978 2188 
z
" transform="scale(0.015625)"/>
      <path id="Cmr10-28" d="M 1984 -1588 
Q 1628 -1306 1370 -942 
Q 1113 -578 948 -165 
Q 784 247 703 697 
Q 622 1147 622 1600 
Q 622 2059 703 2509 
Q 784 2959 951 3375 
Q 1119 3791 1378 4153 
Q 1638 4516 1984 4788 
Q 1984 4800 2016 4800 
L 2075 4800 
Q 2094 4800 2109 4783 
Q 2125 4766 2125 4744 
Q 2125 4716 2113 4703 
Q 1800 4397 1592 4047 
Q 1384 3697 1257 3301 
Q 1131 2906 1075 2482 
Q 1019 2059 1019 1600 
Q 1019 -434 2106 -1491 
Q 2125 -1509 2125 -1544 
Q 2125 -1559 2108 -1579 
Q 2091 -1600 2075 -1600 
L 2016 -1600 
Q 1984 -1600 1984 -1588 
z
" transform="scale(0.015625)"/>
      <path id="Cmmi10-78" d="M 500 184 
Q 613 97 819 97 
Q 1019 97 1172 289 
Q 1325 481 1381 709 
L 1672 1844 
Q 1741 2153 1741 2266 
Q 1741 2425 1652 2544 
Q 1563 2663 1403 2663 
Q 1200 2663 1022 2536 
Q 844 2409 722 2214 
Q 600 2019 550 1819 
Q 538 1778 500 1778 
L 422 1778 
Q 372 1778 372 1838 
L 372 1856 
Q 434 2094 584 2320 
Q 734 2547 951 2687 
Q 1169 2828 1416 2828 
Q 1650 2828 1839 2703 
Q 2028 2578 2106 2363 
Q 2216 2559 2386 2693 
Q 2556 2828 2759 2828 
Q 2897 2828 3040 2779 
Q 3184 2731 3275 2631 
Q 3366 2531 3366 2381 
Q 3366 2219 3261 2101 
Q 3156 1984 2994 1984 
Q 2891 1984 2822 2050 
Q 2753 2116 2753 2216 
Q 2753 2350 2845 2451 
Q 2938 2553 3066 2572 
Q 2950 2663 2747 2663 
Q 2541 2663 2389 2472 
Q 2238 2281 2175 2047 
L 1894 916 
Q 1825 659 1825 494 
Q 1825 331 1917 214 
Q 2009 97 2163 97 
Q 2463 97 2698 361 
Q 2934 625 3009 941 
Q 3022 978 3059 978 
L 3138 978 
Q 3163 978 3178 961 
Q 3194 944 3194 922 
Q 3194 916 3188 903 
Q 3097 522 2806 225 
Q 2516 -72 2150 -72 
Q 1916 -72 1727 54 
Q 1538 181 1459 397 
Q 1359 209 1182 68 
Q 1006 -72 806 -72 
Q 669 -72 523 -23 
Q 378 25 287 125 
Q 197 225 197 378 
Q 197 528 301 651 
Q 406 775 563 775 
Q 669 775 741 711 
Q 813 647 813 544 
Q 813 409 723 309 
Q 634 209 500 184 
z
" transform="scale(0.015625)"/>
      <path id="Cmr10-29" d="M 416 -1600 
Q 359 -1600 359 -1544 
Q 359 -1516 372 -1503 
Q 1466 -434 1466 1600 
Q 1466 3634 384 4691 
Q 359 4706 359 4744 
Q 359 4766 376 4783 
Q 394 4800 416 4800 
L 475 4800 
Q 494 4800 506 4788 
Q 966 4425 1272 3906 
Q 1578 3388 1720 2800 
Q 1863 2213 1863 1600 
Q 1863 1147 1786 708 
Q 1709 269 1542 -157 
Q 1375 -584 1119 -945 
Q 863 -1306 506 -1588 
Q 494 -1600 475 -1600 
L 416 -1600 
z
" transform="scale(0.015625)"/>
      <path id="Cmsy10-2219" d="M 653 -878 
Q 600 -878 565 -837 
Q 531 -797 531 -750 
Q 531 -697 565 -659 
Q 600 -622 653 -622 
L 4325 -622 
Q 4375 -622 4408 -659 
Q 4441 -697 4441 -750 
Q 4441 -797 4408 -837 
Q 4375 -878 4325 -878 
L 653 -878 
z
M 594 2113 
Q 531 2131 531 2222 
Q 531 2303 616 2338 
L 4269 4063 
Q 4281 4072 4313 4072 
Q 4366 4072 4403 4034 
Q 4441 3997 4441 3944 
Q 4441 3859 4366 3828 
L 959 2222 
L 4384 603 
Q 4441 572 4441 494 
Q 4441 438 4403 402 
Q 4366 366 4313 366 
Q 4281 366 4269 378 
L 594 2113 
z
" transform="scale(0.015625)"/>
      <path id="Cmr10-31" d="M 594 0 
L 594 225 
Q 1394 225 1394 428 
L 1394 3788 
Q 1063 3628 556 3628 
L 556 3853 
Q 1341 3853 1741 4263 
L 1831 4263 
Q 1853 4263 1873 4245 
Q 1894 4228 1894 4206 
L 1894 428 
Q 1894 225 2694 225 
L 2694 0 
L 594 0 
z
" transform="scale(0.015625)"/>
      <path id="Cmsy10-32" d="M 1356 403 
Q 1838 0 2497 0 
L 3616 0 
Q 3666 0 3698 -37 
Q 3731 -75 3731 -128 
Q 3731 -175 3698 -215 
Q 3666 -256 3616 -256 
L 2478 -256 
Q 1969 -256 1519 -12 
Q 1069 231 800 657 
Q 531 1084 531 1600 
Q 531 2116 800 2542 
Q 1069 2969 1519 3212 
Q 1969 3456 2478 3456 
L 3616 3456 
Q 3666 3456 3698 3415 
Q 3731 3375 3731 3328 
Q 3731 3275 3698 3237 
Q 3666 3200 3616 3200 
L 2497 3200 
Q 2184 3200 1889 3097 
Q 1594 2994 1356 2797 
Q 1122 2600 958 2304 
Q 794 2009 794 1728 
L 3616 1728 
Q 3666 1728 3698 1687 
Q 3731 1647 3731 1600 
Q 3731 1553 3698 1512 
Q 3666 1472 3616 1472 
L 794 1472 
Q 794 1194 958 897 
Q 1122 600 1356 403 
z
" transform="scale(0.015625)"/>
      <path id="Cmr10-5b" d="M 756 -1600 
L 756 4800 
L 1631 4800 
L 1631 4544 
L 1013 4544 
L 1013 -1344 
L 1631 -1344 
L 1631 -1600 
L 756 -1600 
z
" transform="scale(0.015625)"/>
      <path id="Cmr10-30" d="M 1600 -141 
Q 816 -141 533 504 
Q 250 1150 250 2041 
Q 250 2597 351 3087 
Q 453 3578 754 3920 
Q 1056 4263 1600 4263 
Q 2022 4263 2290 4056 
Q 2559 3850 2700 3523 
Q 2841 3197 2892 2823 
Q 2944 2450 2944 2041 
Q 2944 1491 2842 1011 
Q 2741 531 2444 195 
Q 2147 -141 1600 -141 
z
M 1600 25 
Q 1956 25 2131 390 
Q 2306 756 2347 1200 
Q 2388 1644 2388 2144 
Q 2388 2625 2347 3031 
Q 2306 3438 2132 3767 
Q 1959 4097 1600 4097 
Q 1238 4097 1063 3765 
Q 888 3434 847 3029 
Q 806 2625 806 2144 
Q 806 1788 823 1472 
Q 841 1156 916 820 
Q 991 484 1158 254 
Q 1325 25 1600 25 
z
" transform="scale(0.015625)"/>
      <path id="Cmmi10-3b" d="M 634 -1153 
Q 634 -1125 659 -1100 
Q 891 -878 1019 -587 
Q 1147 -297 1147 25 
L 1147 103 
Q 1044 0 891 0 
Q 744 0 641 103 
Q 538 206 538 353 
Q 538 503 641 603 
Q 744 703 891 703 
Q 1119 703 1216 492 
Q 1313 281 1313 25 
Q 1313 -331 1170 -651 
Q 1028 -972 769 -1228 
Q 744 -1241 728 -1241 
Q 697 -1241 665 -1212 
Q 634 -1184 634 -1153 
z
" transform="scale(0.015625)"/>
      <path id="Cmr10-5d" d="M 141 -1600 
L 141 -1344 
L 763 -1344 
L 763 4544 
L 141 4544 
L 141 4800 
L 1019 4800 
L 1019 -1600 
L 141 -1600 
z
" transform="scale(0.015625)"/>
      <path id="DejaVuSerif-2e" d="M 603 325 
Q 603 500 722 622 
Q 841 744 1019 744 
Q 1191 744 1312 622 
Q 1434 500 1434 325 
Q 1434 153 1312 31 
Q 1191 -91 1019 -91 
Q 841 -91 722 29 
Q 603 150 603 325 
z
" transform="scale(0.015625)"/>
      <path id="DejaVuSerif-46" d="M 353 0 
L 353 331 
L 947 331 
L 947 4331 
L 353 4331 
L 353 4666 
L 4172 4666 
L 4172 3628 
L 3788 3628 
L 3788 4281 
L 1581 4281 
L 1581 2719 
L 3175 2719 
L 3175 3303 
L 3559 3303 
L 3559 1753 
L 3175 1753 
L 3175 2338 
L 1581 2338 
L 1581 331 
L 2328 331 
L 2328 0 
L 353 0 
z
" transform="scale(0.015625)"/>
      <path id="Cmsy10-30" d="M 225 347 
Q 184 359 184 409 
L 966 3316 
Q 1003 3434 1093 3506 
Q 1184 3578 1300 3578 
Q 1450 3578 1564 3479 
Q 1678 3381 1678 3231 
Q 1678 3166 1644 3084 
L 488 319 
Q 466 275 428 275 
Q 394 275 320 306 
Q 247 338 225 347 
z
" transform="scale(0.015625)"/>
     </defs>
     <use xlink:href="#DejaVuSerif-4c" transform="translate(0 0.601562)"/>
     <use xlink:href="#DejaVuSerif-65" transform="translate(66.40625 0.601562)"/>
     <use xlink:href="#DejaVuSerif-74" transform="translate(125.585938 0.601562)"/>
     <use xlink:href="#DejaVuSerif-20" transform="translate(165.771484 0.601562)"/>
     <use xlink:href="#Cmmi10-56" transform="translate(197.558594 0.601562)"/>
     <use xlink:href="#DejaVuSerif-20" transform="translate(255.859375 0.601562)"/>
     <use xlink:href="#DejaVuSerif-62" transform="translate(287.646484 0.601562)"/>
     <use xlink:href="#DejaVuSerif-65" transform="translate(351.660156 0.601562)"/>
     <use xlink:href="#DejaVuSerif-20" transform="translate(410.839844 0.601562)"/>
     <use xlink:href="#DejaVuSerif-74" transform="translate(442.626953 0.601562)"/>
     <use xlink:href="#DejaVuSerif-68" transform="translate(482.8125 0.601562)"/>
     <use xlink:href="#DejaVuSerif-65" transform="translate(547.216797 0.601562)"/>
     <use xlink:href="#DejaVuSerif-20" transform="translate(606.396484 0.601562)"/>
     <use xlink:href="#DejaVuSerif-73" transform="translate(638.183594 0.601562)"/>
     <use xlink:href="#DejaVuSerif-65" transform="translate(689.501953 0.601562)"/>
     <use xlink:href="#DejaVuSerif-74" transform="translate(748.681641 0.601562)"/>
     <use xlink:href="#DejaVuSerif-20" transform="translate(788.867188 0.601562)"/>
     <use xlink:href="#DejaVuSerif-6f" transform="translate(820.654297 0.601562)"/>
     <use xlink:href="#DejaVuSerif-66" transform="translate(880.859375 0.601562)"/>
     <use xlink:href="#DejaVuSerif-20" transform="translate(917.871094 0.601562)"/>
     <use xlink:href="#DejaVuSerif-61" transform="translate(949.658203 0.601562)"/>
     <use xlink:href="#DejaVuSerif-6c" transform="translate(1009.277344 0.601562)"/>
     <use xlink:href="#DejaVuSerif-6c" transform="translate(1041.259766 0.601562)"/>
     <use xlink:href="#DejaVuSerif-20" transform="translate(1073.242188 0.601562)"/>
     <use xlink:href="#DejaVuSerif-71" transform="translate(1105.029297 0.601562)"/>
     <use xlink:href="#DejaVuSerif-75" transform="translate(1169.042969 0.601562)"/>
     <use xlink:href="#DejaVuSerif-61" transform="translate(1233.447266 0.601562)"/>
     <use xlink:href="#DejaVuSerif-64" transform="translate(1293.066406 0.601562)"/>
     <use xlink:href="#DejaVuSerif-72" transform="translate(1357.080078 0.601562)"/>
     <use xlink:href="#DejaVuSerif-61" transform="translate(1404.882812 0.601562)"/>
     <use xlink:href="#DejaVuSerif-74" transform="translate(1464.501953 0.601562)"/>
     <use xlink:href="#DejaVuSerif-69" transform="translate(1504.6875 0.601562)"/>
     <use xlink:href="#DejaVuSerif-63" transform="translate(1536.669922 0.601562)"/>
     <use xlink:href="#DejaVuSerif-20" transform="translate(1592.675781 0.601562)"/>
     <use xlink:href="#DejaVuSerif-70" transform="translate(1624.462891 0.601562)"/>
     <use xlink:href="#DejaVuSerif-6f" transform="translate(1688.476562 0.601562)"/>
     <use xlink:href="#DejaVuSerif-6c" transform="translate(1748.681641 0.601562)"/>
     <use xlink:href="#DejaVuSerif-79" transform="translate(1780.664062 0.601562)"/>
     <use xlink:href="#DejaVuSerif-6e" transform="translate(1837.158203 0.601562)"/>
     <use xlink:href="#DejaVuSerif-6f" transform="translate(1901.5625 0.601562)"/>
     <use xlink:href="#DejaVuSerif-6d" transform="translate(1961.767578 0.601562)"/>
     <use xlink:href="#DejaVuSerif-69" transform="translate(2056.591797 0.601562)"/>
     <use xlink:href="#DejaVuSerif-61" transform="translate(2088.574219 0.601562)"/>
     <use xlink:href="#DejaVuSerif-6c" transform="translate(2148.193359 0.601562)"/>
     <use xlink:href="#DejaVuSerif-73" transform="translate(2180.175781 0.601562)"/>
     <use xlink:href="#DejaVuSerif-20" transform="translate(2231.494141 0.601562)"/>
     <use xlink:href="#DejaVuSerif-77" transform="translate(2263.28125 0.601562)"/>
     <use xlink:href="#DejaVuSerif-69" transform="translate(2348.876953 0.601562)"/>
     <use xlink:href="#DejaVuSerif-74" transform="translate(2380.859375 0.601562)"/>
     <use xlink:href="#DejaVuSerif-68" transform="translate(2421.044922 0.601562)"/>
     <use xlink:href="#DejaVuSerif-20" transform="translate(2485.449219 0.601562)"/>
     <use xlink:href="#DejaVuSerif-72" transform="translate(2517.236328 0.601562)"/>
     <use xlink:href="#DejaVuSerif-65" transform="translate(2565.039062 0.601562)"/>
     <use xlink:href="#DejaVuSerif-61" transform="translate(2624.21875 0.601562)"/>
     <use xlink:href="#DejaVuSerif-6c" transform="translate(2683.837891 0.601562)"/>
     <use xlink:href="#DejaVuSerif-20" transform="translate(2715.820312 0.601562)"/>
     <use xlink:href="#DejaVuSerif-63" transform="translate(2747.607422 0.601562)"/>
     <use xlink:href="#DejaVuSerif-6f" transform="translate(2803.613281 0.601562)"/>
     <use xlink:href="#DejaVuSerif-65" transform="translate(2863.818359 0.601562)"/>
     <use xlink:href="#DejaVuSerif-66" transform="translate(2922.998047 0.601562)"/>
     <use xlink:href="#DejaVuSerif-66" transform="translate(2960.009766 0.601562)"/>
     <use xlink:href="#DejaVuSerif-69" transform="translate(2997.021484 0.601562)"/>
     <use xlink:href="#DejaVuSerif-63" transform="translate(3029.003906 0.601562)"/>
     <use xlink:href="#DejaVuSerif-69" transform="translate(3085.009766 0.601562)"/>
     <use xlink:href="#DejaVuSerif-65" transform="translate(3116.992188 0.601562)"/>
     <use xlink:href="#DejaVuSerif-6e" transform="translate(3176.171875 0.601562)"/>
     <use xlink:href="#DejaVuSerif-74" transform="translate(3240.576172 0.601562)"/>
     <use xlink:href="#DejaVuSerif-73" transform="translate(3280.761719 0.601562)"/>
     <use xlink:href="#DejaVuSerif-20" transform="translate(3332.080078 0.601562)"/>
     <use xlink:href="#DejaVuSerif-73" transform="translate(3363.867188 0.601562)"/>
     <use xlink:href="#DejaVuSerif-75" transform="translate(3415.185547 0.601562)"/>
     <use xlink:href="#DejaVuSerif-63" transform="translate(3479.589844 0.601562)"/>
     <use xlink:href="#DejaVuSerif-68" transform="translate(3535.595703 0.601562)"/>
     <use xlink:href="#DejaVuSerif-20" transform="translate(3600 0.601562)"/>
     <use xlink:href="#DejaVuSerif-74" transform="translate(3631.787109 0.601562)"/>
     <use xlink:href="#DejaVuSerif-68" transform="translate(3671.972656 0.601562)"/>
     <use xlink:href="#DejaVuSerif-61" transform="translate(3736.376953 0.601562)"/>
     <use xlink:href="#DejaVuSerif-74" transform="translate(3795.996094 0.601562)"/>
     <use xlink:href="#DejaVuSerif-20" transform="translate(3836.181641 0.601562)"/>
     <use xlink:href="#Cmsy10-6a" transform="translate(3867.96875 0.601562)"/>
     <use xlink:href="#Cmmi10-50" transform="translate(3895.654297 0.601562)"/>
     <use xlink:href="#Cmr10-28" transform="translate(3959.863281 0.601562)"/>
     <use xlink:href="#Cmmi10-78" transform="translate(3998.681641 0.601562)"/>
     <use xlink:href="#Cmr10-29" transform="translate(4055.761719 0.601562)"/>
     <use xlink:href="#Cmsy10-6a" transform="translate(4094.580078 0.601562)"/>
     <use xlink:href="#Cmsy10-2219" transform="translate(4139.824219 0.601562)"/>
     <use xlink:href="#Cmr10-31" transform="translate(4235.068359 0.601562)"/>
     <use xlink:href="#DejaVuSerif-20" transform="translate(4285.068359 0.601562)"/>
     <use xlink:href="#DejaVuSerif-66" transform="translate(4316.855469 0.601562)"/>
     <use xlink:href="#DejaVuSerif-6f" transform="translate(4353.867188 0.601562)"/>
     <use xlink:href="#DejaVuSerif-72" transform="translate(4414.072266 0.601562)"/>
     <use xlink:href="#DejaVuSerif-20" transform="translate(4461.875 0.601562)"/>
     <use xlink:href="#DejaVuSerif-61" transform="translate(4493.662109 0.601562)"/>
     <use xlink:href="#DejaVuSerif-6c" transform="translate(4553.28125 0.601562)"/>
     <use xlink:href="#DejaVuSerif-6c" transform="translate(4585.263672 0.601562)"/>
     <use xlink:href="#DejaVuSerif-20" transform="translate(4617.246094 0.601562)"/>
     <use xlink:href="#Cmmi10-78" transform="translate(4649.033203 0.601562)"/>
     <use xlink:href="#Cmsy10-32" transform="translate(4723.671875 0.601562)"/>
     <use xlink:href="#Cmr10-5b" transform="translate(4807.832031 0.601562)"/>
     <use xlink:href="#Cmr10-30" transform="translate(4835.517578 0.601562)"/>
     <use xlink:href="#Cmmi10-3b" transform="translate(4885.517578 0.601562)"/>
     <use xlink:href="#Cmr10-31" transform="translate(4930.761719 0.601562)"/>
     <use xlink:href="#Cmr10-5d" transform="translate(4980.761719 0.601562)"/>
     <use xlink:href="#DejaVuSerif-2e" transform="translate(5008.447266 0.601562)"/>
     <use xlink:href="#DejaVuSerif-20" transform="translate(5040.234375 0.601562)"/>
     <use xlink:href="#DejaVuSerif-46" transform="translate(5072.021484 0.601562)"/>
     <use xlink:href="#DejaVuSerif-69" transform="translate(5141.40625 0.601562)"/>
     <use xlink:href="#DejaVuSerif-6e" transform="translate(5173.388672 0.601562)"/>
     <use xlink:href="#DejaVuSerif-64" transform="translate(5237.792969 0.601562)"/>
     <use xlink:href="#DejaVuSerif-20" transform="translate(5301.806641 0.601562)"/>
     <use xlink:href="#DejaVuSerif-74" transform="translate(5333.59375 0.601562)"/>
     <use xlink:href="#DejaVuSerif-68" transform="translate(5373.779297 0.601562)"/>
     <use xlink:href="#DejaVuSerif-65" transform="translate(5438.183594 0.601562)"/>
     <use xlink:href="#DejaVuSerif-20" transform="translate(5497.363281 0.601562)"/>
     <use xlink:href="#DejaVuSerif-73" transform="translate(5529.150391 0.601562)"/>
     <use xlink:href="#DejaVuSerif-75" transform="translate(5580.46875 0.601562)"/>
     <use xlink:href="#DejaVuSerif-70" transform="translate(5644.873047 0.601562)"/>
     <use xlink:href="#DejaVuSerif-72" transform="translate(5708.886719 0.601562)"/>
     <use xlink:href="#DejaVuSerif-65" transform="translate(5756.689453 0.601562)"/>
     <use xlink:href="#DejaVuSerif-6d" transform="translate(5815.869141 0.601562)"/>
     <use xlink:href="#DejaVuSerif-75" transform="translate(5910.693359 0.601562)"/>
     <use xlink:href="#DejaVuSerif-6d" transform="translate(5975.097656 0.601562)"/>
     <use xlink:href="#DejaVuSerif-20" transform="translate(6069.921875 0.601562)"/>
     <use xlink:href="#DejaVuSerif-6f" transform="translate(6101.708984 0.601562)"/>
     <use xlink:href="#DejaVuSerif-66" transform="translate(6161.914062 0.601562)"/>
     <use xlink:href="#DejaVuSerif-20" transform="translate(6198.925781 0.601562)"/>
     <use xlink:href="#Cmsy10-6a" transform="translate(6230.712891 0.601562)"/>
     <use xlink:href="#Cmmi10-50" transform="translate(6258.398438 0.601562)"/>
     <use xlink:href="#Cmsy10-30" transform="translate(6333.976953 38.865625) scale(0.7)"/>
     <use xlink:href="#Cmr10-28" transform="translate(6359.597461 0.601562)"/>
     <use xlink:href="#Cmr10-30" transform="translate(6398.41582 0.601562)"/>
     <use xlink:href="#Cmr10-29" transform="translate(6448.41582 0.601562)"/>
     <use xlink:href="#Cmsy10-6a" transform="translate(6487.23418 0.601562)"/>
     <use xlink:href="#DejaVuSerif-20" transform="translate(6514.919727 0.601562)"/>
     <use xlink:href="#DejaVuSerif-61" transform="translate(6546.706836 0.601562)"/>
     <use xlink:href="#DejaVuSerif-63" transform="translate(6606.325977 0.601562)"/>
     <use xlink:href="#DejaVuSerif-72" transform="translate(6662.331836 0.601562)"/>
     <use xlink:href="#DejaVuSerif-6f" transform="translate(6710.13457 0.601562)"/>
     <use xlink:href="#DejaVuSerif-73" transform="translate(6770.339648 0.601562)"/>
     <use xlink:href="#DejaVuSerif-73" transform="translate(6821.658008 0.601562)"/>
     <use xlink:href="#DejaVuSerif-20" transform="translate(6872.976367 0.601562)"/>
     <use xlink:href="#DejaVuSerif-61" transform="translate(6904.763477 0.601562)"/>
     <use xlink:href="#DejaVuSerif-6c" transform="translate(6964.382617 0.601562)"/>
     <use xlink:href="#DejaVuSerif-6c" transform="translate(6996.365039 0.601562)"/>
     <use xlink:href="#DejaVuSerif-20" transform="translate(7028.347461 0.601562)"/>
     <use xlink:href="#Cmmi10-50" transform="translate(7060.13457 0.601562)"/>
     <use xlink:href="#Cmsy10-32" transform="translate(7141.902148 0.601562)"/>
     <use xlink:href="#Cmmi10-56" transform="translate(7226.062305 0.601562)"/>
     <use xlink:href="#DejaVuSerif-2e" transform="translate(7284.363086 0.601562)"/>
    </g>
   </g>
  </g>
 </g>
</svg>
