<?xml version="1.0" encoding="utf-8" standalone="no"?>
<!DOCTYPE svg PUBLIC "-//W3C//DTD SVG 1.1//EN"
  "http://www.w3.org/Graphics/SVG/1.1/DTD/svg11.dtd">
<svg xmlns:xlink="http://www.w3.org/1999/xlink" width="1584.72pt" height="180.72pt" viewBox="0 0 1584.72 180.72" xmlns="http://www.w3.org/2000/svg" version="1.1">
 <metadata>
  <rdf:RDF xmlns:dc="http://purl.org/dc/elements/1.1/" xmlns:cc="http://creativecommons.org/ns#" xmlns:rdf="http://www.w3.org/1999/02/22-rdf-syntax-ns#">
   <cc:Work>
    <dc:type rdf:resource="http://purl.org/dc/dcmitype/StillImage"/>
    <dc:date>2025-05-29T18:43:51.560809</dc:date>
    <dc:format>image/svg+xml</dc:format>
    <dc:creator>
     <cc:Agent>
      <dc:title>Matplotlib v3.10.3, https://matplotlib.org/</dc:title>
     </cc:Agent>
    </dc:creator>
   </cc:Work>
  </rdf:RDF>
 </metadata>
 <defs>
  <style type="text/css">*{stroke-linejoin: round; stroke-linecap: butt}</style>
 </defs>
 <g id="figure_1">
  <g id="patch_1">
   <path d="M 0 180.72 
L 1584.72 180.72 
L 1584.72 0 
L 0 0 
z
" style="fill: #ffffff"/>
  </g>
  <g id="axes_1">
   <g id="text_1">
    <!-- For each nonnegative integer $k$, let $d(k)$ denote the number of $1$'s in the binary expansion of $k$ (for example, $d(0)=0$ and $d(5)=2$). Let $m$ be a positive integer. Express $\sum_{k=0}^{2^m-1} (-1)^{d(k)}k^m$ in the form $(-1)^ma^{f(m)}(g(m))!$, where $a$ is an integer and $f$ and $g$ are polynomials. -->
    <g transform="translate(7.2 94.26) scale(0.12 -0.12)">
     <defs>
      <path id="DejaVuSerif-46" d="M 353 0 
L 353 331 
L 947 331 
L 947 4331 
L 353 4331 
L 353 4666 
L 4172 4666 
L 4172 3628 
L 3788 3628 
L 3788 4281 
L 1581 4281 
L 1581 2719 
L 3175 2719 
L 3175 3303 
L 3559 3303 
L 3559 1753 
L 3175 1753 
L 3175 2338 
L 1581 2338 
L 1581 331 
L 2328 331 
L 2328 0 
L 353 0 
z
" transform="scale(0.015625)"/>
      <path id="DejaVuSerif-6f" d="M 1925 219 
Q 2388 219 2623 584 
Q 2859 950 2859 1663 
Q 2859 2375 2623 2739 
Q 2388 3103 1925 3103 
Q 1463 3103 1227 2739 
Q 991 2375 991 1663 
Q 991 950 1228 584 
Q 1466 219 1925 219 
z
M 1925 -91 
Q 1200 -91 759 389 
Q 319 869 319 1663 
Q 319 2456 758 2934 
Q 1197 3413 1925 3413 
Q 2653 3413 3092 2934 
Q 3531 2456 3531 1663 
Q 3531 869 3092 389 
Q 2653 -91 1925 -91 
z
" transform="scale(0.015625)"/>
      <path id="DejaVuSerif-72" d="M 3059 3328 
L 3059 2497 
L 2728 2497 
Q 2713 2744 2591 2866 
Q 2469 2988 2234 2988 
Q 1809 2988 1582 2694 
Q 1356 2400 1356 1850 
L 1356 331 
L 2022 331 
L 2022 0 
L 263 0 
L 263 331 
L 781 331 
L 781 2994 
L 231 2994 
L 231 3322 
L 1356 3322 
L 1356 2731 
Q 1525 3078 1790 3245 
Q 2056 3413 2438 3413 
Q 2578 3413 2733 3391 
Q 2888 3369 3059 3328 
z
" transform="scale(0.015625)"/>
      <path id="DejaVuSerif-20" transform="scale(0.015625)"/>
      <path id="DejaVuSerif-65" d="M 3469 1600 
L 991 1600 
L 991 1575 
Q 991 903 1244 561 
Q 1497 219 1991 219 
Q 2369 219 2611 417 
Q 2853 616 2950 1006 
L 3413 1006 
Q 3275 459 2904 184 
Q 2534 -91 1931 -91 
Q 1203 -91 761 389 
Q 319 869 319 1663 
Q 319 2450 753 2931 
Q 1188 3413 1894 3413 
Q 2647 3413 3050 2948 
Q 3453 2484 3469 1600 
z
M 2791 1931 
Q 2772 2513 2545 2808 
Q 2319 3103 1894 3103 
Q 1497 3103 1269 2806 
Q 1041 2509 991 1931 
L 2791 1931 
z
" transform="scale(0.015625)"/>
      <path id="DejaVuSerif-61" d="M 2547 1044 
L 2547 1747 
L 1806 1747 
Q 1378 1747 1168 1562 
Q 959 1378 959 997 
Q 959 650 1171 447 
Q 1384 244 1747 244 
Q 2106 244 2326 466 
Q 2547 688 2547 1044 
z
M 3122 2075 
L 3122 331 
L 3634 331 
L 3634 0 
L 2547 0 
L 2547 359 
Q 2356 128 2106 18 
Q 1856 -91 1522 -91 
Q 969 -91 644 203 
Q 319 497 319 997 
Q 319 1513 691 1797 
Q 1063 2081 1741 2081 
L 2547 2081 
L 2547 2309 
Q 2547 2688 2317 2895 
Q 2088 3103 1672 3103 
Q 1328 3103 1125 2947 
Q 922 2791 872 2484 
L 575 2484 
L 575 3156 
Q 875 3284 1158 3348 
Q 1441 3413 1709 3413 
Q 2400 3413 2761 3070 
Q 3122 2728 3122 2075 
z
" transform="scale(0.015625)"/>
      <path id="DejaVuSerif-63" d="M 3291 997 
Q 3169 466 2822 187 
Q 2475 -91 1925 -91 
Q 1200 -91 759 389 
Q 319 869 319 1663 
Q 319 2459 759 2936 
Q 1200 3413 1925 3413 
Q 2241 3413 2553 3339 
Q 2866 3266 3181 3116 
L 3181 2266 
L 2847 2266 
Q 2781 2703 2561 2903 
Q 2341 3103 1931 3103 
Q 1466 3103 1228 2742 
Q 991 2381 991 1663 
Q 991 944 1227 581 
Q 1463 219 1931 219 
Q 2303 219 2525 412 
Q 2747 606 2828 997 
L 3291 997 
z
" transform="scale(0.015625)"/>
      <path id="DejaVuSerif-68" d="M 263 0 
L 263 331 
L 781 331 
L 781 4531 
L 231 4531 
L 231 4863 
L 1356 4863 
L 1356 2731 
Q 1516 3069 1770 3241 
Q 2025 3413 2363 3413 
Q 2913 3413 3172 3097 
Q 3431 2781 3431 2113 
L 3431 331 
L 3944 331 
L 3944 0 
L 2356 0 
L 2356 331 
L 2853 331 
L 2853 1931 
Q 2853 2541 2704 2764 
Q 2556 2988 2175 2988 
Q 1775 2988 1565 2697 
Q 1356 2406 1356 1850 
L 1356 331 
L 1856 331 
L 1856 0 
L 263 0 
z
" transform="scale(0.015625)"/>
      <path id="DejaVuSerif-6e" d="M 263 0 
L 263 331 
L 781 331 
L 781 2988 
L 231 2988 
L 231 3322 
L 1356 3322 
L 1356 2731 
Q 1516 3069 1770 3241 
Q 2025 3413 2363 3413 
Q 2913 3413 3172 3097 
Q 3431 2781 3431 2113 
L 3431 331 
L 3944 331 
L 3944 0 
L 2356 0 
L 2356 331 
L 2853 331 
L 2853 1931 
Q 2853 2541 2703 2767 
Q 2553 2994 2175 2994 
Q 1775 2994 1565 2701 
Q 1356 2409 1356 1850 
L 1356 331 
L 1856 331 
L 1856 0 
L 263 0 
z
" transform="scale(0.015625)"/>
      <path id="DejaVuSerif-67" d="M 3359 2988 
L 3359 72 
Q 3359 -644 2965 -1033 
Q 2572 -1422 1844 -1422 
Q 1516 -1422 1216 -1362 
Q 916 -1303 641 -1184 
L 641 -488 
L 941 -488 
Q 997 -813 1206 -963 
Q 1416 -1113 1806 -1113 
Q 2313 -1113 2548 -827 
Q 2784 -541 2784 72 
L 2784 519 
Q 2616 206 2355 57 
Q 2094 -91 1709 -91 
Q 1097 -91 708 395 
Q 319 881 319 1663 
Q 319 2444 706 2928 
Q 1094 3413 1709 3413 
Q 2094 3413 2355 3264 
Q 2616 3116 2784 2803 
L 2784 3322 
L 3909 3322 
L 3909 2988 
L 3359 2988 
z
M 2784 1825 
Q 2784 2422 2554 2737 
Q 2325 3053 1888 3053 
Q 1444 3053 1217 2703 
Q 991 2353 991 1663 
Q 991 975 1217 622 
Q 1444 269 1888 269 
Q 2325 269 2554 583 
Q 2784 897 2784 1497 
L 2784 1825 
z
" transform="scale(0.015625)"/>
      <path id="DejaVuSerif-74" d="M 691 2988 
L 184 2988 
L 184 3322 
L 691 3322 
L 691 4353 
L 1269 4353 
L 1269 3322 
L 2350 3322 
L 2350 2988 
L 1269 2988 
L 1269 878 
Q 1269 456 1350 337 
Q 1431 219 1650 219 
Q 1875 219 1978 351 
Q 2081 484 2088 781 
L 2522 781 
Q 2497 328 2275 118 
Q 2053 -91 1600 -91 
Q 1103 -91 897 129 
Q 691 350 691 878 
L 691 2988 
z
" transform="scale(0.015625)"/>
      <path id="DejaVuSerif-69" d="M 622 4353 
Q 622 4497 726 4603 
Q 831 4709 978 4709 
Q 1122 4709 1226 4603 
Q 1331 4497 1331 4353 
Q 1331 4206 1228 4103 
Q 1125 4000 978 4000 
Q 831 4000 726 4103 
Q 622 4206 622 4353 
z
M 1356 331 
L 1900 331 
L 1900 0 
L 231 0 
L 231 331 
L 781 331 
L 781 2988 
L 231 2988 
L 231 3322 
L 1356 3322 
L 1356 331 
z
" transform="scale(0.015625)"/>
      <path id="DejaVuSerif-76" d="M 1581 0 
L 359 2988 
L -19 2988 
L -19 3322 
L 1509 3322 
L 1509 2988 
L 978 2988 
L 1913 703 
L 2847 2988 
L 2350 2988 
L 2350 3322 
L 3597 3322 
L 3597 2988 
L 3225 2988 
L 2003 0 
L 1581 0 
z
" transform="scale(0.015625)"/>
      <path id="Cmmi10-6b" d="M 341 116 
Q 341 153 347 172 
L 1275 3872 
Q 1300 3981 1306 4044 
Q 1306 4147 891 4147 
Q 825 4147 825 4231 
Q 828 4247 839 4287 
Q 850 4328 867 4350 
Q 884 4372 916 4372 
L 1778 4441 
L 1797 4441 
Q 1797 4434 1819 4423 
Q 1841 4413 1844 4409 
Q 1856 4378 1856 4359 
L 1184 1684 
Q 1416 1781 1767 2145 
Q 2119 2509 2317 2668 
Q 2516 2828 2816 2828 
Q 2994 2828 3119 2706 
Q 3244 2584 3244 2406 
Q 3244 2294 3197 2198 
Q 3150 2103 3065 2043 
Q 2981 1984 2869 1984 
Q 2766 1984 2695 2048 
Q 2625 2113 2625 2216 
Q 2625 2369 2733 2473 
Q 2841 2578 2994 2578 
Q 2931 2663 2803 2663 
Q 2613 2663 2436 2553 
Q 2259 2444 2054 2239 
Q 1850 2034 1681 1864 
Q 1513 1694 1369 1606 
Q 1747 1563 2025 1408 
Q 2303 1253 2303 934 
Q 2303 869 2278 769 
Q 2222 528 2222 384 
Q 2222 97 2419 97 
Q 2650 97 2770 350 
Q 2891 603 2969 941 
Q 2981 978 3022 978 
L 3097 978 
Q 3122 978 3139 962 
Q 3156 947 3156 922 
Q 3156 916 3150 903 
Q 2909 -72 2406 -72 
Q 2225 -72 2086 12 
Q 1947 97 1872 242 
Q 1797 388 1797 569 
Q 1797 672 1825 781 
Q 1844 856 1844 922 
Q 1844 1169 1625 1297 
Q 1406 1425 1125 1453 
L 800 147 
Q 775 50 703 -11 
Q 631 -72 538 -72 
Q 456 -72 398 -17 
Q 341 38 341 116 
z
" transform="scale(0.015625)"/>
      <path id="DejaVuSerif-2c" d="M 231 -622 
Q 525 -406 662 -114 
Q 800 178 800 594 
L 800 709 
L 1416 709 
Q 1391 175 1164 -208 
Q 938 -591 481 -872 
L 231 -622 
z
" transform="scale(0.015625)"/>
      <path id="DejaVuSerif-6c" d="M 1313 331 
L 1856 331 
L 1856 0 
L 184 0 
L 184 331 
L 738 331 
L 738 4531 
L 184 4531 
L 184 4863 
L 1313 4863 
L 1313 331 
z
" transform="scale(0.015625)"/>
      <path id="Cmmi10-64" d="M 1113 -72 
Q 709 -72 476 233 
Q 244 538 244 953 
Q 244 1363 456 1803 
Q 669 2244 1030 2536 
Q 1391 2828 1806 2828 
Q 1994 2828 2145 2723 
Q 2297 2619 2381 2444 
L 2741 3872 
Q 2766 3981 2772 4044 
Q 2772 4147 2356 4147 
Q 2291 4147 2291 4231 
Q 2294 4247 2305 4287 
Q 2316 4328 2333 4350 
Q 2350 4372 2381 4372 
L 3244 4441 
Q 3322 4441 3322 4359 
L 2400 678 
Q 2356 572 2356 372 
Q 2356 97 2541 97 
Q 2741 97 2845 351 
Q 2950 606 3022 941 
Q 3034 978 3072 978 
L 3150 978 
Q 3175 978 3190 956 
Q 3206 934 3206 916 
Q 3094 469 2961 198 
Q 2828 -72 2528 -72 
Q 2313 -72 2147 54 
Q 1981 181 1941 391 
Q 1528 -72 1113 -72 
z
M 1119 97 
Q 1350 97 1567 270 
Q 1784 444 1941 678 
Q 1947 684 1947 703 
L 2297 2113 
Q 2259 2338 2131 2500 
Q 2003 2663 1791 2663 
Q 1575 2663 1389 2486 
Q 1203 2309 1075 2069 
Q 950 1813 836 1366 
Q 722 919 722 672 
Q 722 450 817 273 
Q 913 97 1119 97 
z
" transform="scale(0.015625)"/>
      <path id="Cmr10-28" d="M 1984 -1588 
Q 1628 -1306 1370 -942 
Q 1113 -578 948 -165 
Q 784 247 703 697 
Q 622 1147 622 1600 
Q 622 2059 703 2509 
Q 784 2959 951 3375 
Q 1119 3791 1378 4153 
Q 1638 4516 1984 4788 
Q 1984 4800 2016 4800 
L 2075 4800 
Q 2094 4800 2109 4783 
Q 2125 4766 2125 4744 
Q 2125 4716 2113 4703 
Q 1800 4397 1592 4047 
Q 1384 3697 1257 3301 
Q 1131 2906 1075 2482 
Q 1019 2059 1019 1600 
Q 1019 -434 2106 -1491 
Q 2125 -1509 2125 -1544 
Q 2125 -1559 2108 -1579 
Q 2091 -1600 2075 -1600 
L 2016 -1600 
Q 1984 -1600 1984 -1588 
z
" transform="scale(0.015625)"/>
      <path id="Cmr10-29" d="M 416 -1600 
Q 359 -1600 359 -1544 
Q 359 -1516 372 -1503 
Q 1466 -434 1466 1600 
Q 1466 3634 384 4691 
Q 359 4706 359 4744 
Q 359 4766 376 4783 
Q 394 4800 416 4800 
L 475 4800 
Q 494 4800 506 4788 
Q 966 4425 1272 3906 
Q 1578 3388 1720 2800 
Q 1863 2213 1863 1600 
Q 1863 1147 1786 708 
Q 1709 269 1542 -157 
Q 1375 -584 1119 -945 
Q 863 -1306 506 -1588 
Q 494 -1600 475 -1600 
L 416 -1600 
z
" transform="scale(0.015625)"/>
      <path id="DejaVuSerif-64" d="M 3359 331 
L 3909 331 
L 3909 0 
L 2784 0 
L 2784 519 
Q 2616 206 2355 57 
Q 2094 -91 1709 -91 
Q 1097 -91 708 395 
Q 319 881 319 1663 
Q 319 2444 706 2928 
Q 1094 3413 1709 3413 
Q 2094 3413 2355 3264 
Q 2616 3116 2784 2803 
L 2784 4531 
L 2241 4531 
L 2241 4863 
L 3359 4863 
L 3359 331 
z
M 2784 1497 
L 2784 1825 
Q 2784 2422 2554 2737 
Q 2325 3053 1888 3053 
Q 1444 3053 1217 2703 
Q 991 2353 991 1663 
Q 991 975 1217 622 
Q 1444 269 1888 269 
Q 2325 269 2554 583 
Q 2784 897 2784 1497 
z
" transform="scale(0.015625)"/>
      <path id="DejaVuSerif-75" d="M 2266 3322 
L 3341 3322 
L 3341 331 
L 3884 331 
L 3884 0 
L 2766 0 
L 2766 588 
Q 2606 256 2353 82 
Q 2100 -91 1766 -91 
Q 1213 -91 952 223 
Q 691 538 691 1209 
L 691 2988 
L 172 2988 
L 172 3322 
L 1269 3322 
L 1269 1388 
Q 1269 781 1417 556 
Q 1566 331 1947 331 
Q 2347 331 2556 625 
Q 2766 919 2766 1478 
L 2766 2988 
L 2266 2988 
L 2266 3322 
z
" transform="scale(0.015625)"/>
      <path id="DejaVuSerif-6d" d="M 3316 2675 
Q 3481 3041 3739 3227 
Q 3997 3413 4341 3413 
Q 4863 3413 5119 3089 
Q 5375 2766 5375 2113 
L 5375 331 
L 5894 331 
L 5894 0 
L 4300 0 
L 4300 331 
L 4800 331 
L 4800 2047 
Q 4800 2556 4650 2772 
Q 4500 2988 4153 2988 
Q 3769 2988 3567 2697 
Q 3366 2406 3366 1850 
L 3366 331 
L 3866 331 
L 3866 0 
L 2291 0 
L 2291 331 
L 2791 331 
L 2791 2069 
Q 2791 2566 2641 2777 
Q 2491 2988 2144 2988 
Q 1759 2988 1557 2697 
Q 1356 2406 1356 1850 
L 1356 331 
L 1856 331 
L 1856 0 
L 263 0 
L 263 331 
L 781 331 
L 781 2994 
L 231 2994 
L 231 3322 
L 1356 3322 
L 1356 2731 
Q 1516 3063 1762 3238 
Q 2009 3413 2322 3413 
Q 2709 3413 2968 3220 
Q 3228 3028 3316 2675 
z
" transform="scale(0.015625)"/>
      <path id="DejaVuSerif-62" d="M 738 331 
L 738 4531 
L 184 4531 
L 184 4863 
L 1313 4863 
L 1313 2803 
Q 1481 3116 1742 3264 
Q 2003 3413 2388 3413 
Q 3000 3413 3387 2928 
Q 3775 2444 3775 1663 
Q 3775 881 3387 395 
Q 3000 -91 2388 -91 
Q 2003 -91 1742 57 
Q 1481 206 1313 519 
L 1313 0 
L 184 0 
L 184 331 
L 738 331 
z
M 1313 1497 
Q 1313 897 1542 583 
Q 1772 269 2209 269 
Q 2650 269 2876 622 
Q 3103 975 3103 1663 
Q 3103 2353 2876 2703 
Q 2650 3053 2209 3053 
Q 1772 3053 1542 2737 
Q 1313 2422 1313 1825 
L 1313 1497 
z
" transform="scale(0.015625)"/>
      <path id="DejaVuSerif-66" d="M 2753 4078 
L 2450 4078 
Q 2447 4313 2317 4434 
Q 2188 4556 1941 4556 
Q 1619 4556 1487 4379 
Q 1356 4203 1356 3750 
L 1356 3322 
L 2284 3322 
L 2284 2988 
L 1356 2988 
L 1356 331 
L 2094 331 
L 2094 0 
L 231 0 
L 231 331 
L 781 331 
L 781 2988 
L 231 2988 
L 231 3322 
L 781 3322 
L 781 3738 
Q 781 4294 1070 4578 
Q 1359 4863 1919 4863 
Q 2128 4863 2337 4825 
Q 2547 4788 2753 4709 
L 2753 4078 
z
" transform="scale(0.015625)"/>
      <path id="Cmr10-31" d="M 594 0 
L 594 225 
Q 1394 225 1394 428 
L 1394 3788 
Q 1063 3628 556 3628 
L 556 3853 
Q 1341 3853 1741 4263 
L 1831 4263 
Q 1853 4263 1873 4245 
Q 1894 4228 1894 4206 
L 1894 428 
Q 1894 225 2694 225 
L 2694 0 
L 594 0 
z
" transform="scale(0.015625)"/>
      <path id="DejaVuSerif-27" d="M 1125 4666 
L 1125 2931 
L 628 2931 
L 628 4666 
L 1125 4666 
z
" transform="scale(0.015625)"/>
      <path id="DejaVuSerif-73" d="M 359 184 
L 359 959 
L 691 959 
Q 703 588 923 403 
Q 1144 219 1575 219 
Q 1963 219 2166 364 
Q 2369 509 2369 788 
Q 2369 1006 2220 1140 
Q 2072 1275 1594 1428 
L 1178 1569 
Q 750 1706 558 1912 
Q 366 2119 366 2438 
Q 366 2894 700 3153 
Q 1034 3413 1625 3413 
Q 1888 3413 2178 3344 
Q 2469 3275 2778 3144 
L 2778 2419 
L 2447 2419 
Q 2434 2741 2221 2922 
Q 2009 3103 1644 3103 
Q 1281 3103 1095 2975 
Q 909 2847 909 2591 
Q 909 2381 1050 2254 
Q 1191 2128 1613 1997 
L 2069 1856 
Q 2541 1709 2748 1489 
Q 2956 1269 2956 922 
Q 2956 450 2595 179 
Q 2234 -91 1600 -91 
Q 1278 -91 972 -22 
Q 666 47 359 184 
z
" transform="scale(0.015625)"/>
      <path id="DejaVuSerif-79" d="M 1381 -609 
L 1600 -56 
L 359 2988 
L -19 2988 
L -19 3322 
L 1509 3322 
L 1509 2988 
L 978 2988 
L 1913 703 
L 2847 2988 
L 2350 2988 
L 2350 3322 
L 3597 3322 
L 3597 2988 
L 3225 2988 
L 1703 -750 
Q 1547 -1138 1356 -1280 
Q 1166 -1422 819 -1422 
Q 672 -1422 517 -1397 
Q 363 -1372 206 -1325 
L 206 -691 
L 500 -691 
Q 519 -903 608 -995 
Q 697 -1088 884 -1088 
Q 1056 -1088 1161 -992 
Q 1266 -897 1381 -609 
z
" transform="scale(0.015625)"/>
      <path id="DejaVuSerif-78" d="M 1863 2028 
L 2559 2988 
L 2113 2988 
L 2113 3322 
L 3391 3322 
L 3391 2988 
L 2950 2988 
L 2059 1759 
L 3097 331 
L 3531 331 
L 3531 0 
L 1997 0 
L 1997 331 
L 2419 331 
L 1697 1325 
L 972 331 
L 1403 331 
L 1403 0 
L 141 0 
L 141 331 
L 581 331 
L 1497 1594 
L 488 2988 
L 78 2988 
L 78 3322 
L 1563 3322 
L 1563 2988 
L 1166 2988 
L 1863 2028 
z
" transform="scale(0.015625)"/>
      <path id="DejaVuSerif-70" d="M 1313 1825 
L 1313 1497 
Q 1313 897 1542 583 
Q 1772 269 2209 269 
Q 2650 269 2876 622 
Q 3103 975 3103 1663 
Q 3103 2353 2876 2703 
Q 2650 3053 2209 3053 
Q 1772 3053 1542 2737 
Q 1313 2422 1313 1825 
z
M 738 2988 
L 184 2988 
L 184 3322 
L 1313 3322 
L 1313 2803 
Q 1481 3116 1742 3264 
Q 2003 3413 2388 3413 
Q 3000 3413 3387 2928 
Q 3775 2444 3775 1663 
Q 3775 881 3387 395 
Q 3000 -91 2388 -91 
Q 2003 -91 1742 57 
Q 1481 206 1313 519 
L 1313 -997 
L 1856 -997 
L 1856 -1331 
L 184 -1331 
L 184 -997 
L 738 -997 
L 738 2988 
z
" transform="scale(0.015625)"/>
      <path id="DejaVuSerif-28" d="M 2041 -997 
Q 1281 -656 893 83 
Q 506 822 506 1931 
Q 506 3044 893 3783 
Q 1281 4522 2041 4863 
L 2041 4556 
Q 1559 4225 1350 3623 
Q 1141 3022 1141 1931 
Q 1141 844 1350 242 
Q 1559 -359 2041 -691 
L 2041 -997 
z
" transform="scale(0.015625)"/>
      <path id="Cmr10-30" d="M 1600 -141 
Q 816 -141 533 504 
Q 250 1150 250 2041 
Q 250 2597 351 3087 
Q 453 3578 754 3920 
Q 1056 4263 1600 4263 
Q 2022 4263 2290 4056 
Q 2559 3850 2700 3523 
Q 2841 3197 2892 2823 
Q 2944 2450 2944 2041 
Q 2944 1491 2842 1011 
Q 2741 531 2444 195 
Q 2147 -141 1600 -141 
z
M 1600 25 
Q 1956 25 2131 390 
Q 2306 756 2347 1200 
Q 2388 1644 2388 2144 
Q 2388 2625 2347 3031 
Q 2306 3438 2132 3767 
Q 1959 4097 1600 4097 
Q 1238 4097 1063 3765 
Q 888 3434 847 3029 
Q 806 2625 806 2144 
Q 806 1788 823 1472 
Q 841 1156 916 820 
Q 991 484 1158 254 
Q 1325 25 1600 25 
z
" transform="scale(0.015625)"/>
      <path id="Cmr10-3d" d="M 481 850 
Q 428 850 393 890 
Q 359 931 359 978 
Q 359 1031 393 1068 
Q 428 1106 481 1106 
L 4500 1106 
Q 4547 1106 4581 1068 
Q 4616 1031 4616 978 
Q 4616 931 4581 890 
Q 4547 850 4500 850 
L 481 850 
z
M 481 2094 
Q 428 2094 393 2131 
Q 359 2169 359 2222 
Q 359 2269 393 2309 
Q 428 2350 481 2350 
L 4500 2350 
Q 4547 2350 4581 2309 
Q 4616 2269 4616 2222 
Q 4616 2169 4581 2131 
Q 4547 2094 4500 2094 
L 481 2094 
z
" transform="scale(0.015625)"/>
      <path id="Cmr10-35" d="M 556 728 
Q 622 541 758 387 
Q 894 234 1080 148 
Q 1266 63 1466 63 
Q 1928 63 2103 422 
Q 2278 781 2278 1294 
Q 2278 1516 2270 1667 
Q 2263 1819 2228 1959 
Q 2169 2184 2020 2353 
Q 1872 2522 1656 2522 
Q 1441 2522 1286 2456 
Q 1131 2391 1034 2303 
Q 938 2216 863 2119 
Q 788 2022 769 2016 
L 697 2016 
Q 681 2016 657 2036 
Q 634 2056 634 2075 
L 634 4213 
Q 634 4228 654 4245 
Q 675 4263 697 4263 
L 716 4263 
Q 1147 4056 1631 4056 
Q 2106 4056 2547 4263 
L 2566 4263 
Q 2588 4263 2606 4247 
Q 2625 4231 2625 4213 
L 2625 4153 
Q 2625 4122 2613 4122 
Q 2394 3831 2064 3668 
Q 1734 3506 1381 3506 
Q 1125 3506 856 3578 
L 856 2369 
Q 1069 2541 1236 2614 
Q 1403 2688 1663 2688 
Q 2016 2688 2295 2484 
Q 2575 2281 2725 1954 
Q 2875 1628 2875 1288 
Q 2875 903 2686 575 
Q 2497 247 2172 53 
Q 1847 -141 1466 -141 
Q 1150 -141 886 21 
Q 622 184 470 459 
Q 319 734 319 1044 
Q 319 1188 412 1278 
Q 506 1369 647 1369 
Q 788 1369 883 1276 
Q 978 1184 978 1044 
Q 978 906 883 811 
Q 788 716 647 716 
Q 625 716 597 720 
Q 569 725 556 728 
z
" transform="scale(0.015625)"/>
      <path id="Cmr10-32" d="M 319 0 
L 319 172 
Q 319 188 331 206 
L 1325 1306 
Q 1550 1550 1690 1715 
Q 1831 1881 1968 2097 
Q 2106 2313 2186 2536 
Q 2266 2759 2266 3009 
Q 2266 3272 2169 3511 
Q 2072 3750 1880 3894 
Q 1688 4038 1416 4038 
Q 1138 4038 916 3870 
Q 694 3703 603 3438 
Q 628 3444 672 3444 
Q 816 3444 917 3347 
Q 1019 3250 1019 3097 
Q 1019 2950 917 2848 
Q 816 2747 672 2747 
Q 522 2747 420 2851 
Q 319 2956 319 3097 
Q 319 3338 409 3548 
Q 500 3759 670 3923 
Q 841 4088 1055 4175 
Q 1269 4263 1509 4263 
Q 1875 4263 2190 4108 
Q 2506 3953 2690 3670 
Q 2875 3388 2875 3009 
Q 2875 2731 2753 2481 
Q 2631 2231 2440 2026 
Q 2250 1822 1953 1562 
Q 1656 1303 1563 1216 
L 838 519 
L 1453 519 
Q 1906 519 2211 526 
Q 2516 534 2534 550 
Q 2609 631 2688 1141 
L 2875 1141 
L 2694 0 
L 319 0 
z
" transform="scale(0.015625)"/>
      <path id="DejaVuSerif-29" d="M 453 -997 
L 453 -691 
Q 934 -359 1145 242 
Q 1356 844 1356 1931 
Q 1356 3022 1145 3623 
Q 934 4225 453 4556 
L 453 4863 
Q 1216 4522 1603 3783 
Q 1991 3044 1991 1931 
Q 1991 822 1603 83 
Q 1216 -656 453 -997 
z
" transform="scale(0.015625)"/>
      <path id="DejaVuSerif-2e" d="M 603 325 
Q 603 500 722 622 
Q 841 744 1019 744 
Q 1191 744 1312 622 
Q 1434 500 1434 325 
Q 1434 153 1312 31 
Q 1191 -91 1019 -91 
Q 841 -91 722 29 
Q 603 150 603 325 
z
" transform="scale(0.015625)"/>
      <path id="DejaVuSerif-4c" d="M 353 0 
L 353 331 
L 947 331 
L 947 4331 
L 353 4331 
L 353 4666 
L 2175 4666 
L 2175 4331 
L 1581 4331 
L 1581 384 
L 3713 384 
L 3713 1166 
L 4097 1166 
L 4097 0 
L 353 0 
z
" transform="scale(0.015625)"/>
      <path id="Cmmi10-6d" d="M 494 109 
Q 494 147 500 166 
L 978 2075 
Q 1025 2253 1025 2388 
Q 1025 2663 838 2663 
Q 638 2663 541 2423 
Q 444 2184 353 1819 
Q 353 1800 334 1789 
Q 316 1778 300 1778 
L 225 1778 
Q 203 1778 187 1801 
Q 172 1825 172 1844 
Q 241 2122 305 2315 
Q 369 2509 505 2668 
Q 641 2828 844 2828 
Q 1084 2828 1268 2676 
Q 1453 2525 1453 2291 
Q 1644 2541 1900 2684 
Q 2156 2828 2444 2828 
Q 2747 2828 2967 2673 
Q 3188 2519 3188 2234 
Q 3384 2513 3648 2670 
Q 3913 2828 4225 2828 
Q 4556 2828 4757 2648 
Q 4959 2469 4959 2138 
Q 4959 1875 4842 1503 
Q 4725 1131 4550 672 
Q 4459 450 4459 288 
Q 4459 97 4609 97 
Q 4859 97 5025 365 
Q 5191 634 5259 941 
Q 5278 978 5313 978 
L 5388 978 
Q 5413 978 5430 961 
Q 5447 944 5447 922 
Q 5447 916 5441 903 
Q 5353 541 5136 234 
Q 4919 -72 4594 -72 
Q 4369 -72 4209 83 
Q 4050 238 4050 459 
Q 4050 572 4103 709 
Q 4284 1191 4404 1569 
Q 4525 1947 4525 2234 
Q 4525 2413 4453 2538 
Q 4381 2663 4213 2663 
Q 3863 2663 3606 2448 
Q 3350 2234 3163 1881 
Q 3150 1819 3144 1784 
L 2731 141 
Q 2709 53 2632 -9 
Q 2556 -72 2463 -72 
Q 2388 -72 2330 -22 
Q 2272 28 2272 109 
Q 2272 147 2278 166 
L 2688 1797 
Q 2753 2059 2753 2234 
Q 2753 2413 2679 2538 
Q 2606 2663 2431 2663 
Q 2197 2663 2000 2559 
Q 1803 2456 1656 2286 
Q 1509 2116 1388 1881 
L 953 141 
Q 931 53 854 -9 
Q 778 -72 684 -72 
Q 606 -72 550 -22 
Q 494 28 494 109 
z
" transform="scale(0.015625)"/>
      <path id="DejaVuSerif-45" d="M 353 0 
L 353 331 
L 947 331 
L 947 4331 
L 353 4331 
L 353 4666 
L 4109 4666 
L 4109 3628 
L 3725 3628 
L 3725 4281 
L 1581 4281 
L 1581 2719 
L 3109 2719 
L 3109 3303 
L 3494 3303 
L 3494 1753 
L 3109 1753 
L 3109 2338 
L 1581 2338 
L 1581 384 
L 3775 384 
L 3775 1038 
L 4159 1038 
L 4159 0 
L 353 0 
z
" transform="scale(0.015625)"/>
      <path id="Cmsy10-a1" d="M 653 1472 
Q 600 1472 565 1512 
Q 531 1553 531 1600 
Q 531 1647 565 1687 
Q 600 1728 653 1728 
L 4325 1728 
Q 4375 1728 4408 1687 
Q 4441 1647 4441 1600 
Q 4441 1553 4408 1512 
Q 4375 1472 4325 1472 
L 653 1472 
z
" transform="scale(0.015625)"/>
      <path id="Cmex10-58" d="M 422 -8959 
Q 359 -8959 359 -8891 
Q 359 -8863 378 -8844 
L 3756 -4909 
L 378 -281 
Q 359 -263 359 -250 
L 359 -56 
Q 359 -34 379 -17 
Q 400 0 422 0 
L 8103 0 
L 8878 -1797 
L 8691 -1797 
Q 8394 -1116 7697 -787 
Q 7000 -459 6242 -382 
Q 5484 -306 4481 -306 
L 1522 -306 
L 4544 -4434 
Q 4556 -4459 4556 -4481 
Q 4556 -4500 4544 -4525 
L 1222 -8391 
L 4544 -8391 
Q 5528 -8391 6289 -8314 
Q 7050 -8238 7739 -7908 
Q 8428 -7578 8691 -6900 
L 8878 -6900 
L 8103 -8959 
L 422 -8959 
z
" transform="scale(0.015625)"/>
      <path id="Cmmi10-61" d="M 1113 -72 
Q 709 -72 476 233 
Q 244 538 244 953 
Q 244 1363 456 1803 
Q 669 2244 1030 2536 
Q 1391 2828 1806 2828 
Q 1997 2828 2147 2725 
Q 2297 2622 2381 2444 
Q 2453 2700 2663 2700 
Q 2744 2700 2798 2651 
Q 2853 2603 2853 2522 
Q 2853 2503 2851 2493 
Q 2850 2484 2847 2472 
L 2400 684 
Q 2356 494 2356 372 
Q 2356 97 2541 97 
Q 2741 97 2845 351 
Q 2950 606 3022 941 
Q 3034 978 3072 978 
L 3150 978 
Q 3175 978 3190 956 
Q 3206 934 3206 916 
Q 3094 469 2961 198 
Q 2828 -72 2528 -72 
Q 2313 -72 2147 54 
Q 1981 181 1941 391 
Q 1528 -72 1113 -72 
z
M 1119 97 
Q 1350 97 1567 270 
Q 1784 444 1941 678 
Q 1947 684 1947 697 
L 2291 2088 
L 2297 2106 
Q 2259 2334 2132 2498 
Q 2006 2663 1791 2663 
Q 1575 2663 1389 2486 
Q 1203 2309 1075 2069 
Q 950 1813 836 1366 
Q 722 919 722 672 
Q 722 450 817 273 
Q 913 97 1119 97 
z
" transform="scale(0.015625)"/>
      <path id="Cmmi10-66" d="M 622 -1056 
Q 741 -1147 909 -1147 
Q 1138 -1147 1281 -641 
Q 1341 -397 1606 966 
L 1900 2534 
L 1350 2534 
Q 1288 2534 1288 2619 
Q 1313 2759 1369 2759 
L 1941 2759 
L 2016 3175 
Q 2053 3369 2084 3508 
Q 2116 3647 2152 3765 
Q 2188 3884 2259 4031 
Q 2369 4241 2555 4377 
Q 2741 4513 2956 4513 
Q 3097 4513 3230 4461 
Q 3363 4409 3447 4306 
Q 3531 4203 3531 4063 
Q 3531 3900 3423 3779 
Q 3316 3659 3163 3659 
Q 3059 3659 2986 3723 
Q 2913 3788 2913 3891 
Q 2913 4031 3008 4136 
Q 3103 4241 3244 4256 
Q 3125 4347 2950 4347 
Q 2853 4347 2767 4256 
Q 2681 4166 2656 4063 
Q 2616 3900 2478 3181 
L 2400 2759 
L 3059 2759 
Q 3122 2759 3122 2675 
Q 3119 2659 3109 2620 
Q 3100 2581 3083 2557 
Q 3066 2534 3041 2534 
L 2356 2534 
L 2059 972 
Q 2003 631 1929 279 
Q 1856 -72 1723 -442 
Q 1591 -813 1384 -1063 
Q 1178 -1313 897 -1313 
Q 681 -1313 511 -1189 
Q 341 -1066 341 -863 
Q 341 -700 445 -579 
Q 550 -459 709 -459 
Q 816 -459 887 -523 
Q 959 -588 959 -691 
Q 959 -828 857 -942 
Q 756 -1056 622 -1056 
z
" transform="scale(0.015625)"/>
      <path id="Cmmi10-67" d="M 91 -916 
Q 91 -759 198 -642 
Q 306 -525 459 -525 
Q 563 -525 633 -589 
Q 703 -653 703 -756 
Q 703 -872 637 -964 
Q 572 -1056 469 -1094 
Q 641 -1147 1006 -1147 
Q 1300 -1147 1544 -920 
Q 1788 -694 1863 -397 
L 2047 353 
Q 1700 0 1325 0 
Q 1050 0 854 140 
Q 659 281 556 515 
Q 453 750 453 1013 
Q 453 1306 573 1628 
Q 694 1950 911 2225 
Q 1128 2500 1409 2664 
Q 1691 2828 2003 2828 
Q 2191 2828 2341 2725 
Q 2491 2622 2578 2450 
Q 2641 2700 2853 2700 
Q 2934 2700 2990 2651 
Q 3047 2603 3047 2522 
Q 3047 2503 3045 2493 
Q 3044 2484 3041 2472 
L 2309 -434 
Q 2259 -634 2125 -800 
Q 1991 -966 1809 -1077 
Q 1628 -1188 1412 -1250 
Q 1197 -1313 997 -1313 
Q 631 -1313 361 -1242 
Q 91 -1172 91 -916 
z
M 1338 166 
Q 1747 166 2144 728 
L 2497 2125 
Q 2453 2347 2322 2505 
Q 2191 2663 1991 2663 
Q 1778 2663 1589 2489 
Q 1400 2316 1275 2075 
Q 1156 1844 1045 1411 
Q 934 978 934 728 
Q 934 509 1034 337 
Q 1134 166 1338 166 
z
" transform="scale(0.015625)"/>
      <path id="Cmr10-21" d="M 538 353 
Q 538 497 644 600 
Q 750 703 891 703 
Q 978 703 1062 656 
Q 1147 609 1194 525 
Q 1241 441 1241 353 
Q 1241 213 1137 106 
Q 1034 0 891 0 
Q 750 0 644 106 
Q 538 213 538 353 
z
M 800 1275 
L 538 4225 
L 538 4263 
Q 538 4397 645 4489 
Q 753 4581 891 4581 
Q 1031 4581 1136 4489 
Q 1241 4397 1241 4263 
L 1241 4225 
L 984 1275 
Q 984 1253 965 1234 
Q 947 1216 928 1216 
L 850 1216 
Q 834 1216 817 1236 
Q 800 1256 800 1275 
z
" transform="scale(0.015625)"/>
      <path id="DejaVuSerif-77" d="M 3072 3322 
L 3922 728 
L 4672 2988 
L 4191 2988 
L 4191 3322 
L 5394 3322 
L 5394 2988 
L 5025 2988 
L 4038 0 
L 3559 0 
L 2741 2484 
L 1919 0 
L 1459 0 
L 475 2988 
L 103 2988 
L 103 3322 
L 1606 3322 
L 1606 2988 
L 1069 2988 
L 1813 728 
L 2669 3322 
L 3072 3322 
z
" transform="scale(0.015625)"/>
     </defs>
     <use xlink:href="#DejaVuSerif-46" transform="translate(0 0.48776)"/>
     <use xlink:href="#DejaVuSerif-6f" transform="translate(69.384766 0.48776)"/>
     <use xlink:href="#DejaVuSerif-72" transform="translate(129.589844 0.48776)"/>
     <use xlink:href="#DejaVuSerif-20" transform="translate(177.392578 0.48776)"/>
     <use xlink:href="#DejaVuSerif-65" transform="translate(209.179688 0.48776)"/>
     <use xlink:href="#DejaVuSerif-61" transform="translate(268.359375 0.48776)"/>
     <use xlink:href="#DejaVuSerif-63" transform="translate(327.978516 0.48776)"/>
     <use xlink:href="#DejaVuSerif-68" transform="translate(383.984375 0.48776)"/>
     <use xlink:href="#DejaVuSerif-20" transform="translate(448.388672 0.48776)"/>
     <use xlink:href="#DejaVuSerif-6e" transform="translate(480.175781 0.48776)"/>
     <use xlink:href="#DejaVuSerif-6f" transform="translate(544.580078 0.48776)"/>
     <use xlink:href="#DejaVuSerif-6e" transform="translate(604.785156 0.48776)"/>
     <use xlink:href="#DejaVuSerif-6e" transform="translate(669.189453 0.48776)"/>
     <use xlink:href="#DejaVuSerif-65" transform="translate(733.59375 0.48776)"/>
     <use xlink:href="#DejaVuSerif-67" transform="translate(792.773438 0.48776)"/>
     <use xlink:href="#DejaVuSerif-61" transform="translate(856.787109 0.48776)"/>
     <use xlink:href="#DejaVuSerif-74" transform="translate(916.40625 0.48776)"/>
     <use xlink:href="#DejaVuSerif-69" transform="translate(956.591797 0.48776)"/>
     <use xlink:href="#DejaVuSerif-76" transform="translate(988.574219 0.48776)"/>
     <use xlink:href="#DejaVuSerif-65" transform="translate(1045.068359 0.48776)"/>
     <use xlink:href="#DejaVuSerif-20" transform="translate(1104.248047 0.48776)"/>
     <use xlink:href="#DejaVuSerif-69" transform="translate(1136.035156 0.48776)"/>
     <use xlink:href="#DejaVuSerif-6e" transform="translate(1168.017578 0.48776)"/>
     <use xlink:href="#DejaVuSerif-74" transform="translate(1232.421875 0.48776)"/>
     <use xlink:href="#DejaVuSerif-65" transform="translate(1272.607422 0.48776)"/>
     <use xlink:href="#DejaVuSerif-67" transform="translate(1331.787109 0.48776)"/>
     <use xlink:href="#DejaVuSerif-65" transform="translate(1395.800781 0.48776)"/>
     <use xlink:href="#DejaVuSerif-72" transform="translate(1454.980469 0.48776)"/>
     <use xlink:href="#DejaVuSerif-20" transform="translate(1502.783203 0.48776)"/>
     <use xlink:href="#Cmmi10-6b" transform="translate(1534.570312 0.48776)"/>
     <use xlink:href="#DejaVuSerif-2c" transform="translate(1586.572266 0.48776)"/>
     <use xlink:href="#DejaVuSerif-20" transform="translate(1618.359375 0.48776)"/>
     <use xlink:href="#DejaVuSerif-6c" transform="translate(1650.146484 0.48776)"/>
     <use xlink:href="#DejaVuSerif-65" transform="translate(1682.128906 0.48776)"/>
     <use xlink:href="#DejaVuSerif-74" transform="translate(1741.308594 0.48776)"/>
     <use xlink:href="#DejaVuSerif-20" transform="translate(1781.494141 0.48776)"/>
     <use xlink:href="#Cmmi10-64" transform="translate(1813.28125 0.48776)"/>
     <use xlink:href="#Cmr10-28" transform="translate(1865.283203 0.48776)"/>
     <use xlink:href="#Cmmi10-6b" transform="translate(1904.101562 0.48776)"/>
     <use xlink:href="#Cmr10-29" transform="translate(1956.103516 0.48776)"/>
     <use xlink:href="#DejaVuSerif-20" transform="translate(1994.921875 0.48776)"/>
     <use xlink:href="#DejaVuSerif-64" transform="translate(2026.708984 0.48776)"/>
     <use xlink:href="#DejaVuSerif-65" transform="translate(2090.722656 0.48776)"/>
     <use xlink:href="#DejaVuSerif-6e" transform="translate(2149.902344 0.48776)"/>
     <use xlink:href="#DejaVuSerif-6f" transform="translate(2214.306641 0.48776)"/>
     <use xlink:href="#DejaVuSerif-74" transform="translate(2274.511719 0.48776)"/>
     <use xlink:href="#DejaVuSerif-65" transform="translate(2314.697266 0.48776)"/>
     <use xlink:href="#DejaVuSerif-20" transform="translate(2373.876953 0.48776)"/>
     <use xlink:href="#DejaVuSerif-74" transform="translate(2405.664062 0.48776)"/>
     <use xlink:href="#DejaVuSerif-68" transform="translate(2445.849609 0.48776)"/>
     <use xlink:href="#DejaVuSerif-65" transform="translate(2510.253906 0.48776)"/>
     <use xlink:href="#DejaVuSerif-20" transform="translate(2569.433594 0.48776)"/>
     <use xlink:href="#DejaVuSerif-6e" transform="translate(2601.220703 0.48776)"/>
     <use xlink:href="#DejaVuSerif-75" transform="translate(2665.625 0.48776)"/>
     <use xlink:href="#DejaVuSerif-6d" transform="translate(2730.029297 0.48776)"/>
     <use xlink:href="#DejaVuSerif-62" transform="translate(2824.853516 0.48776)"/>
     <use xlink:href="#DejaVuSerif-65" transform="translate(2888.867188 0.48776)"/>
     <use xlink:href="#DejaVuSerif-72" transform="translate(2948.046875 0.48776)"/>
     <use xlink:href="#DejaVuSerif-20" transform="translate(2995.849609 0.48776)"/>
     <use xlink:href="#DejaVuSerif-6f" transform="translate(3027.636719 0.48776)"/>
     <use xlink:href="#DejaVuSerif-66" transform="translate(3087.841797 0.48776)"/>
     <use xlink:href="#DejaVuSerif-20" transform="translate(3124.853516 0.48776)"/>
     <use xlink:href="#Cmr10-31" transform="translate(3156.640625 0.48776)"/>
     <use xlink:href="#DejaVuSerif-27" transform="translate(3206.640625 0.48776)"/>
     <use xlink:href="#DejaVuSerif-73" transform="translate(3234.130859 0.48776)"/>
     <use xlink:href="#DejaVuSerif-20" transform="translate(3285.449219 0.48776)"/>
     <use xlink:href="#DejaVuSerif-69" transform="translate(3317.236328 0.48776)"/>
     <use xlink:href="#DejaVuSerif-6e" transform="translate(3349.21875 0.48776)"/>
     <use xlink:href="#DejaVuSerif-20" transform="translate(3413.623047 0.48776)"/>
     <use xlink:href="#DejaVuSerif-74" transform="translate(3445.410156 0.48776)"/>
     <use xlink:href="#DejaVuSerif-68" transform="translate(3485.595703 0.48776)"/>
     <use xlink:href="#DejaVuSerif-65" transform="translate(3550 0.48776)"/>
     <use xlink:href="#DejaVuSerif-20" transform="translate(3609.179688 0.48776)"/>
     <use xlink:href="#DejaVuSerif-62" transform="translate(3640.966797 0.48776)"/>
     <use xlink:href="#DejaVuSerif-69" transform="translate(3704.980469 0.48776)"/>
     <use xlink:href="#DejaVuSerif-6e" transform="translate(3736.962891 0.48776)"/>
     <use xlink:href="#DejaVuSerif-61" transform="translate(3801.367188 0.48776)"/>
     <use xlink:href="#DejaVuSerif-72" transform="translate(3860.986328 0.48776)"/>
     <use xlink:href="#DejaVuSerif-79" transform="translate(3908.789062 0.48776)"/>
     <use xlink:href="#DejaVuSerif-20" transform="translate(3965.283203 0.48776)"/>
     <use xlink:href="#DejaVuSerif-65" transform="translate(3997.070312 0.48776)"/>
     <use xlink:href="#DejaVuSerif-78" transform="translate(4056.25 0.48776)"/>
     <use xlink:href="#DejaVuSerif-70" transform="translate(4112.646484 0.48776)"/>
     <use xlink:href="#DejaVuSerif-61" transform="translate(4176.660156 0.48776)"/>
     <use xlink:href="#DejaVuSerif-6e" transform="translate(4236.279297 0.48776)"/>
     <use xlink:href="#DejaVuSerif-73" transform="translate(4300.683594 0.48776)"/>
     <use xlink:href="#DejaVuSerif-69" transform="translate(4352.001953 0.48776)"/>
     <use xlink:href="#DejaVuSerif-6f" transform="translate(4383.984375 0.48776)"/>
     <use xlink:href="#DejaVuSerif-6e" transform="translate(4444.189453 0.48776)"/>
     <use xlink:href="#DejaVuSerif-20" transform="translate(4508.59375 0.48776)"/>
     <use xlink:href="#DejaVuSerif-6f" transform="translate(4540.380859 0.48776)"/>
     <use xlink:href="#DejaVuSerif-66" transform="translate(4600.585938 0.48776)"/>
     <use xlink:href="#DejaVuSerif-20" transform="translate(4637.597656 0.48776)"/>
     <use xlink:href="#Cmmi10-6b" transform="translate(4669.384766 0.48776)"/>
     <use xlink:href="#DejaVuSerif-20" transform="translate(4721.386719 0.48776)"/>
     <use xlink:href="#DejaVuSerif-28" transform="translate(4753.173828 0.48776)"/>
     <use xlink:href="#DejaVuSerif-66" transform="translate(4792.1875 0.48776)"/>
     <use xlink:href="#DejaVuSerif-6f" transform="translate(4829.199219 0.48776)"/>
     <use xlink:href="#DejaVuSerif-72" transform="translate(4889.404297 0.48776)"/>
     <use xlink:href="#DejaVuSerif-20" transform="translate(4937.207031 0.48776)"/>
     <use xlink:href="#DejaVuSerif-65" transform="translate(4968.994141 0.48776)"/>
     <use xlink:href="#DejaVuSerif-78" transform="translate(5028.173828 0.48776)"/>
     <use xlink:href="#DejaVuSerif-61" transform="translate(5084.570312 0.48776)"/>
     <use xlink:href="#DejaVuSerif-6d" transform="translate(5144.189453 0.48776)"/>
     <use xlink:href="#DejaVuSerif-70" transform="translate(5239.013672 0.48776)"/>
     <use xlink:href="#DejaVuSerif-6c" transform="translate(5303.027344 0.48776)"/>
     <use xlink:href="#DejaVuSerif-65" transform="translate(5335.009766 0.48776)"/>
     <use xlink:href="#DejaVuSerif-2c" transform="translate(5394.189453 0.48776)"/>
     <use xlink:href="#DejaVuSerif-20" transform="translate(5425.976562 0.48776)"/>
     <use xlink:href="#Cmmi10-64" transform="translate(5457.763672 0.48776)"/>
     <use xlink:href="#Cmr10-28" transform="translate(5509.765625 0.48776)"/>
     <use xlink:href="#Cmr10-30" transform="translate(5548.583984 0.48776)"/>
     <use xlink:href="#Cmr10-29" transform="translate(5598.583984 0.48776)"/>
     <use xlink:href="#Cmr10-3d" transform="translate(5654.960938 0.48776)"/>
     <use xlink:href="#Cmr10-30" transform="translate(5750.205078 0.48776)"/>
     <use xlink:href="#DejaVuSerif-20" transform="translate(5800.205078 0.48776)"/>
     <use xlink:href="#DejaVuSerif-61" transform="translate(5831.992188 0.48776)"/>
     <use xlink:href="#DejaVuSerif-6e" transform="translate(5891.611328 0.48776)"/>
     <use xlink:href="#DejaVuSerif-64" transform="translate(5956.015625 0.48776)"/>
     <use xlink:href="#DejaVuSerif-20" transform="translate(6020.029297 0.48776)"/>
     <use xlink:href="#Cmmi10-64" transform="translate(6051.816406 0.48776)"/>
     <use xlink:href="#Cmr10-28" transform="translate(6103.818359 0.48776)"/>
     <use xlink:href="#Cmr10-35" transform="translate(6142.636719 0.48776)"/>
     <use xlink:href="#Cmr10-29" transform="translate(6192.636719 0.48776)"/>
     <use xlink:href="#Cmr10-3d" transform="translate(6249.013672 0.48776)"/>
     <use xlink:href="#Cmr10-32" transform="translate(6344.257812 0.48776)"/>
     <use xlink:href="#DejaVuSerif-29" transform="translate(6394.257812 0.48776)"/>
     <use xlink:href="#DejaVuSerif-2e" transform="translate(6433.271484 0.48776)"/>
     <use xlink:href="#DejaVuSerif-20" transform="translate(6465.058594 0.48776)"/>
     <use xlink:href="#DejaVuSerif-4c" transform="translate(6496.845703 0.48776)"/>
     <use xlink:href="#DejaVuSerif-65" transform="translate(6563.251953 0.48776)"/>
     <use xlink:href="#DejaVuSerif-74" transform="translate(6622.431641 0.48776)"/>
     <use xlink:href="#DejaVuSerif-20" transform="translate(6662.617188 0.48776)"/>
     <use xlink:href="#Cmmi10-6d" transform="translate(6694.404297 0.48776)"/>
     <use xlink:href="#DejaVuSerif-20" transform="translate(6782.197266 0.48776)"/>
     <use xlink:href="#DejaVuSerif-62" transform="translate(6813.984375 0.48776)"/>
     <use xlink:href="#DejaVuSerif-65" transform="translate(6877.998047 0.48776)"/>
     <use xlink:href="#DejaVuSerif-20" transform="translate(6937.177734 0.48776)"/>
     <use xlink:href="#DejaVuSerif-61" transform="translate(6968.964844 0.48776)"/>
     <use xlink:href="#DejaVuSerif-20" transform="translate(7028.583984 0.48776)"/>
     <use xlink:href="#DejaVuSerif-70" transform="translate(7060.371094 0.48776)"/>
     <use xlink:href="#DejaVuSerif-6f" transform="translate(7124.384766 0.48776)"/>
     <use xlink:href="#DejaVuSerif-73" transform="translate(7184.589844 0.48776)"/>
     <use xlink:href="#DejaVuSerif-69" transform="translate(7235.908203 0.48776)"/>
     <use xlink:href="#DejaVuSerif-74" transform="translate(7267.890625 0.48776)"/>
     <use xlink:href="#DejaVuSerif-69" transform="translate(7308.076172 0.48776)"/>
     <use xlink:href="#DejaVuSerif-76" transform="translate(7340.058594 0.48776)"/>
     <use xlink:href="#DejaVuSerif-65" transform="translate(7396.552734 0.48776)"/>
     <use xlink:href="#DejaVuSerif-20" transform="translate(7455.732422 0.48776)"/>
     <use xlink:href="#DejaVuSerif-69" transform="translate(7487.519531 0.48776)"/>
     <use xlink:href="#DejaVuSerif-6e" transform="translate(7519.501953 0.48776)"/>
     <use xlink:href="#DejaVuSerif-74" transform="translate(7583.90625 0.48776)"/>
     <use xlink:href="#DejaVuSerif-65" transform="translate(7624.091797 0.48776)"/>
     <use xlink:href="#DejaVuSerif-67" transform="translate(7683.271484 0.48776)"/>
     <use xlink:href="#DejaVuSerif-65" transform="translate(7747.285156 0.48776)"/>
     <use xlink:href="#DejaVuSerif-72" transform="translate(7806.464844 0.48776)"/>
     <use xlink:href="#DejaVuSerif-2e" transform="translate(7854.267578 0.48776)"/>
     <use xlink:href="#DejaVuSerif-20" transform="translate(7886.054688 0.48776)"/>
     <use xlink:href="#DejaVuSerif-45" transform="translate(7917.841797 0.48776)"/>
     <use xlink:href="#DejaVuSerif-78" transform="translate(7990.839844 0.48776)"/>
     <use xlink:href="#DejaVuSerif-70" transform="translate(8047.236328 0.48776)"/>
     <use xlink:href="#DejaVuSerif-72" transform="translate(8111.25 0.48776)"/>
     <use xlink:href="#DejaVuSerif-65" transform="translate(8159.052734 0.48776)"/>
     <use xlink:href="#DejaVuSerif-73" transform="translate(8218.232422 0.48776)"/>
     <use xlink:href="#DejaVuSerif-73" transform="translate(8269.550781 0.48776)"/>
     <use xlink:href="#DejaVuSerif-20" transform="translate(8320.869141 0.48776)"/>
     <use xlink:href="#Cmr10-32" transform="translate(8352.65625 122.563281) scale(0.7)"/>
     <use xlink:href="#Cmmi10-6d" transform="translate(8390.781148 149.348125) scale(0.49)"/>
     <use xlink:href="#Cmsy10-a1" transform="translate(8450.554859 122.563281) scale(0.7)"/>
     <use xlink:href="#Cmr10-31" transform="translate(8517.225758 122.563281) scale(0.7)"/>
     <use xlink:href="#Cmex10-58" transform="translate(8385.65625 103.813281)"/>
     <use xlink:href="#Cmmi10-6b" transform="translate(8377.65625 -103.494531) scale(0.7)"/>
     <use xlink:href="#Cmr10-3d" transform="translate(8426.348633 -103.494531) scale(0.7)"/>
     <use xlink:href="#Cmr10-30" transform="translate(8493.019531 -103.494531) scale(0.7)"/>
     <use xlink:href="#Cmr10-28" transform="translate(8552.225758 0.48776)"/>
     <use xlink:href="#Cmsy10-a1" transform="translate(8591.044117 0.48776)"/>
     <use xlink:href="#Cmr10-31" transform="translate(8668.729664 0.48776)"/>
     <use xlink:href="#Cmr10-29" transform="translate(8718.729664 0.48776)"/>
     <use xlink:href="#Cmmi10-64" transform="translate(8762.012164 38.751823) scale(0.7)"/>
     <use xlink:href="#Cmr10-28" transform="translate(8798.413531 38.751823) scale(0.7)"/>
     <use xlink:href="#Cmmi10-6b" transform="translate(8825.586383 38.751823) scale(0.7)"/>
     <use xlink:href="#Cmr10-29" transform="translate(8861.98775 38.751823) scale(0.7)"/>
     <use xlink:href="#Cmmi10-6b" transform="translate(8895.537945 0.48776)"/>
     <use xlink:href="#Cmmi10-6d" transform="translate(8959.135836 38.751823) scale(0.7)"/>
     <use xlink:href="#DejaVuSerif-20" transform="translate(9026.968258 0.48776)"/>
     <use xlink:href="#DejaVuSerif-69" transform="translate(9058.755367 0.48776)"/>
     <use xlink:href="#DejaVuSerif-6e" transform="translate(9090.737789 0.48776)"/>
     <use xlink:href="#DejaVuSerif-20" transform="translate(9155.142086 0.48776)"/>
     <use xlink:href="#DejaVuSerif-74" transform="translate(9186.929195 0.48776)"/>
     <use xlink:href="#DejaVuSerif-68" transform="translate(9227.114742 0.48776)"/>
     <use xlink:href="#DejaVuSerif-65" transform="translate(9291.519039 0.48776)"/>
     <use xlink:href="#DejaVuSerif-20" transform="translate(9350.698727 0.48776)"/>
     <use xlink:href="#DejaVuSerif-66" transform="translate(9382.485836 0.48776)"/>
     <use xlink:href="#DejaVuSerif-6f" transform="translate(9419.497555 0.48776)"/>
     <use xlink:href="#DejaVuSerif-72" transform="translate(9479.702633 0.48776)"/>
     <use xlink:href="#DejaVuSerif-6d" transform="translate(9527.505367 0.48776)"/>
     <use xlink:href="#DejaVuSerif-20" transform="translate(9622.329586 0.48776)"/>
     <use xlink:href="#Cmr10-28" transform="translate(9654.116695 0.48776)"/>
     <use xlink:href="#Cmsy10-a1" transform="translate(9692.935055 0.48776)"/>
     <use xlink:href="#Cmr10-31" transform="translate(9770.620602 0.48776)"/>
     <use xlink:href="#Cmr10-29" transform="translate(9820.620602 0.48776)"/>
     <use xlink:href="#Cmmi10-6d" transform="translate(9863.903102 38.751823) scale(0.7)"/>
     <use xlink:href="#Cmmi10-61" transform="translate(9931.735523 0.48776)"/>
     <use xlink:href="#Cmmi10-66" transform="translate(9990.822008 38.751823) scale(0.7)"/>
     <use xlink:href="#Cmr10-28" transform="translate(10025.035875 38.751823) scale(0.7)"/>
     <use xlink:href="#Cmmi10-6d" transform="translate(10052.208727 38.751823) scale(0.7)"/>
     <use xlink:href="#Cmr10-29" transform="translate(10113.663805 38.751823) scale(0.7)"/>
     <use xlink:href="#Cmr10-28" transform="translate(10147.214 0.48776)"/>
     <use xlink:href="#Cmmi10-67" transform="translate(10186.032359 0.48776)"/>
     <use xlink:href="#Cmr10-28" transform="translate(10233.737437 0.48776)"/>
     <use xlink:href="#Cmmi10-6d" transform="translate(10272.555797 0.48776)"/>
     <use xlink:href="#Cmr10-29" transform="translate(10360.348766 0.48776)"/>
     <use xlink:href="#Cmr10-29" transform="translate(10399.167125 0.48776)"/>
     <use xlink:href="#Cmr10-21" transform="translate(10437.985484 0.48776)"/>
     <use xlink:href="#DejaVuSerif-2c" transform="translate(10483.229625 0.48776)"/>
     <use xlink:href="#DejaVuSerif-20" transform="translate(10515.016734 0.48776)"/>
     <use xlink:href="#DejaVuSerif-77" transform="translate(10546.803844 0.48776)"/>
     <use xlink:href="#DejaVuSerif-68" transform="translate(10632.399547 0.48776)"/>
     <use xlink:href="#DejaVuSerif-65" transform="translate(10696.803844 0.48776)"/>
     <use xlink:href="#DejaVuSerif-72" transform="translate(10755.983531 0.48776)"/>
     <use xlink:href="#DejaVuSerif-65" transform="translate(10803.786266 0.48776)"/>
     <use xlink:href="#DejaVuSerif-20" transform="translate(10862.965953 0.48776)"/>
     <use xlink:href="#Cmmi10-61" transform="translate(10894.753062 0.48776)"/>
     <use xlink:href="#DejaVuSerif-20" transform="translate(10947.536266 0.48776)"/>
     <use xlink:href="#DejaVuSerif-69" transform="translate(10979.323375 0.48776)"/>
     <use xlink:href="#DejaVuSerif-73" transform="translate(11011.305797 0.48776)"/>
     <use xlink:href="#DejaVuSerif-20" transform="translate(11062.624156 0.48776)"/>
     <use xlink:href="#DejaVuSerif-61" transform="translate(11094.411266 0.48776)"/>
     <use xlink:href="#DejaVuSerif-6e" transform="translate(11154.030406 0.48776)"/>
     <use xlink:href="#DejaVuSerif-20" transform="translate(11218.434703 0.48776)"/>
     <use xlink:href="#DejaVuSerif-69" transform="translate(11250.221812 0.48776)"/>
     <use xlink:href="#DejaVuSerif-6e" transform="translate(11282.204234 0.48776)"/>
     <use xlink:href="#DejaVuSerif-74" transform="translate(11346.608531 0.48776)"/>
     <use xlink:href="#DejaVuSerif-65" transform="translate(11386.794078 0.48776)"/>
     <use xlink:href="#DejaVuSerif-67" transform="translate(11445.973766 0.48776)"/>
     <use xlink:href="#DejaVuSerif-65" transform="translate(11509.987437 0.48776)"/>
     <use xlink:href="#DejaVuSerif-72" transform="translate(11569.167125 0.48776)"/>
     <use xlink:href="#DejaVuSerif-20" transform="translate(11616.969859 0.48776)"/>
     <use xlink:href="#DejaVuSerif-61" transform="translate(11648.756969 0.48776)"/>
     <use xlink:href="#DejaVuSerif-6e" transform="translate(11708.376109 0.48776)"/>
     <use xlink:href="#DejaVuSerif-64" transform="translate(11772.780406 0.48776)"/>
     <use xlink:href="#DejaVuSerif-20" transform="translate(11836.794078 0.48776)"/>
     <use xlink:href="#Cmmi10-66" transform="translate(11868.581187 0.48776)"/>
     <use xlink:href="#DejaVuSerif-20" transform="translate(11917.458141 0.48776)"/>
     <use xlink:href="#DejaVuSerif-61" transform="translate(11949.24525 0.48776)"/>
     <use xlink:href="#DejaVuSerif-6e" transform="translate(12008.864391 0.48776)"/>
     <use xlink:href="#DejaVuSerif-64" transform="translate(12073.268687 0.48776)"/>
     <use xlink:href="#DejaVuSerif-20" transform="translate(12137.282359 0.48776)"/>
     <use xlink:href="#Cmmi10-67" transform="translate(12169.069469 0.48776)"/>
     <use xlink:href="#DejaVuSerif-20" transform="translate(12216.774547 0.48776)"/>
     <use xlink:href="#DejaVuSerif-61" transform="translate(12248.561656 0.48776)"/>
     <use xlink:href="#DejaVuSerif-72" transform="translate(12308.180797 0.48776)"/>
     <use xlink:href="#DejaVuSerif-65" transform="translate(12355.983531 0.48776)"/>
     <use xlink:href="#DejaVuSerif-20" transform="translate(12415.163219 0.48776)"/>
     <use xlink:href="#DejaVuSerif-70" transform="translate(12446.950328 0.48776)"/>
     <use xlink:href="#DejaVuSerif-6f" transform="translate(12510.964 0.48776)"/>
     <use xlink:href="#DejaVuSerif-6c" transform="translate(12571.169078 0.48776)"/>
     <use xlink:href="#DejaVuSerif-79" transform="translate(12603.1515 0.48776)"/>
     <use xlink:href="#DejaVuSerif-6e" transform="translate(12659.645641 0.48776)"/>
     <use xlink:href="#DejaVuSerif-6f" transform="translate(12724.049937 0.48776)"/>
     <use xlink:href="#DejaVuSerif-6d" transform="translate(12784.255016 0.48776)"/>
     <use xlink:href="#DejaVuSerif-69" transform="translate(12879.079234 0.48776)"/>
     <use xlink:href="#DejaVuSerif-61" transform="translate(12911.061656 0.48776)"/>
     <use xlink:href="#DejaVuSerif-6c" transform="translate(12970.680797 0.48776)"/>
     <use xlink:href="#DejaVuSerif-73" transform="translate(13002.663219 0.48776)"/>
     <use xlink:href="#DejaVuSerif-2e" transform="translate(13053.981578 0.48776)"/>
    </g>
   </g>
  </g>
 </g>
</svg>
