<?xml version="1.0" encoding="utf-8" standalone="no"?>
<!DOCTYPE svg PUBLIC "-//W3C//DTD SVG 1.1//EN"
  "http://www.w3.org/Graphics/SVG/1.1/DTD/svg11.dtd">
<svg xmlns:xlink="http://www.w3.org/1999/xlink" width="1367.4pt" height="180.72pt" viewBox="0 0 1367.4 180.72" xmlns="http://www.w3.org/2000/svg" version="1.1">
 <metadata>
  <rdf:RDF xmlns:dc="http://purl.org/dc/elements/1.1/" xmlns:cc="http://creativecommons.org/ns#" xmlns:rdf="http://www.w3.org/1999/02/22-rdf-syntax-ns#">
   <cc:Work>
    <dc:type rdf:resource="http://purl.org/dc/dcmitype/StillImage"/>
    <dc:date>2025-05-29T18:44:16.528445</dc:date>
    <dc:format>image/svg+xml</dc:format>
    <dc:creator>
     <cc:Agent>
      <dc:title>Matplotlib v3.10.3, https://matplotlib.org/</dc:title>
     </cc:Agent>
    </dc:creator>
   </cc:Work>
  </rdf:RDF>
 </metadata>
 <defs>
  <style type="text/css">*{stroke-linejoin: round; stroke-linecap: butt}</style>
 </defs>
 <g id="figure_1">
  <g id="patch_1">
   <path d="M 0 180.72 
L 1367.4 180.72 
L 1367.4 0 
L 0 0 
z
" style="fill: #ffffff"/>
  </g>
  <g id="axes_1">
   <g id="text_1">
    <!-- Let $A$ be a $2n \times 2n$ matrix, with entries chosen independently at random. Every entry is chosen to be $0$ or $1$, each with probability $1/2$. Find the expected value of $\det(A-A^t)$ (as a function of $n$), where $A^t$ is the transpose of $A$. -->
    <g transform="translate(7.2 93.84) scale(0.12 -0.12)">
     <defs>
      <path id="DejaVuSerif-4c" d="M 353 0 
L 353 331 
L 947 331 
L 947 4331 
L 353 4331 
L 353 4666 
L 2175 4666 
L 2175 4331 
L 1581 4331 
L 1581 384 
L 3713 384 
L 3713 1166 
L 4097 1166 
L 4097 0 
L 353 0 
z
" transform="scale(0.015625)"/>
      <path id="DejaVuSerif-65" d="M 3469 1600 
L 991 1600 
L 991 1575 
Q 991 903 1244 561 
Q 1497 219 1991 219 
Q 2369 219 2611 417 
Q 2853 616 2950 1006 
L 3413 1006 
Q 3275 459 2904 184 
Q 2534 -91 1931 -91 
Q 1203 -91 761 389 
Q 319 869 319 1663 
Q 319 2450 753 2931 
Q 1188 3413 1894 3413 
Q 2647 3413 3050 2948 
Q 3453 2484 3469 1600 
z
M 2791 1931 
Q 2772 2513 2545 2808 
Q 2319 3103 1894 3103 
Q 1497 3103 1269 2806 
Q 1041 2509 991 1931 
L 2791 1931 
z
" transform="scale(0.015625)"/>
      <path id="DejaVuSerif-74" d="M 691 2988 
L 184 2988 
L 184 3322 
L 691 3322 
L 691 4353 
L 1269 4353 
L 1269 3322 
L 2350 3322 
L 2350 2988 
L 1269 2988 
L 1269 878 
Q 1269 456 1350 337 
Q 1431 219 1650 219 
Q 1875 219 1978 351 
Q 2081 484 2088 781 
L 2522 781 
Q 2497 328 2275 118 
Q 2053 -91 1600 -91 
Q 1103 -91 897 129 
Q 691 350 691 878 
L 691 2988 
z
" transform="scale(0.015625)"/>
      <path id="DejaVuSerif-20" transform="scale(0.015625)"/>
      <path id="Cmmi10-41" d="M 288 0 
Q 225 0 225 84 
Q 250 225 306 225 
Q 566 225 755 328 
Q 944 431 1081 647 
Q 1094 659 1094 659 
L 3378 4513 
Q 3428 4581 3500 4581 
L 3584 4581 
Q 3603 4581 3622 4573 
Q 3641 4566 3655 4548 
Q 3669 4531 3669 4513 
L 4056 378 
Q 4056 350 4084 294 
Q 4147 225 4563 225 
Q 4628 225 4628 141 
Q 4606 56 4592 28 
Q 4578 0 4519 0 
L 2919 0 
Q 2859 0 2859 84 
Q 2894 225 2944 225 
Q 3450 225 3481 397 
L 3384 1453 
L 1806 1453 
L 1294 594 
Q 1247 525 1247 434 
Q 1247 322 1355 273 
Q 1463 225 1594 225 
Q 1656 225 1656 141 
Q 1634 50 1621 25 
Q 1609 0 1550 0 
L 288 0 
z
M 1931 1678 
L 3359 1678 
L 3169 3750 
L 1931 1678 
z
" transform="scale(0.015625)"/>
      <path id="DejaVuSerif-62" d="M 738 331 
L 738 4531 
L 184 4531 
L 184 4863 
L 1313 4863 
L 1313 2803 
Q 1481 3116 1742 3264 
Q 2003 3413 2388 3413 
Q 3000 3413 3387 2928 
Q 3775 2444 3775 1663 
Q 3775 881 3387 395 
Q 3000 -91 2388 -91 
Q 2003 -91 1742 57 
Q 1481 206 1313 519 
L 1313 0 
L 184 0 
L 184 331 
L 738 331 
z
M 1313 1497 
Q 1313 897 1542 583 
Q 1772 269 2209 269 
Q 2650 269 2876 622 
Q 3103 975 3103 1663 
Q 3103 2353 2876 2703 
Q 2650 3053 2209 3053 
Q 1772 3053 1542 2737 
Q 1313 2422 1313 1825 
L 1313 1497 
z
" transform="scale(0.015625)"/>
      <path id="DejaVuSerif-61" d="M 2547 1044 
L 2547 1747 
L 1806 1747 
Q 1378 1747 1168 1562 
Q 959 1378 959 997 
Q 959 650 1171 447 
Q 1384 244 1747 244 
Q 2106 244 2326 466 
Q 2547 688 2547 1044 
z
M 3122 2075 
L 3122 331 
L 3634 331 
L 3634 0 
L 2547 0 
L 2547 359 
Q 2356 128 2106 18 
Q 1856 -91 1522 -91 
Q 969 -91 644 203 
Q 319 497 319 997 
Q 319 1513 691 1797 
Q 1063 2081 1741 2081 
L 2547 2081 
L 2547 2309 
Q 2547 2688 2317 2895 
Q 2088 3103 1672 3103 
Q 1328 3103 1125 2947 
Q 922 2791 872 2484 
L 575 2484 
L 575 3156 
Q 875 3284 1158 3348 
Q 1441 3413 1709 3413 
Q 2400 3413 2761 3070 
Q 3122 2728 3122 2075 
z
" transform="scale(0.015625)"/>
      <path id="Cmr10-32" d="M 319 0 
L 319 172 
Q 319 188 331 206 
L 1325 1306 
Q 1550 1550 1690 1715 
Q 1831 1881 1968 2097 
Q 2106 2313 2186 2536 
Q 2266 2759 2266 3009 
Q 2266 3272 2169 3511 
Q 2072 3750 1880 3894 
Q 1688 4038 1416 4038 
Q 1138 4038 916 3870 
Q 694 3703 603 3438 
Q 628 3444 672 3444 
Q 816 3444 917 3347 
Q 1019 3250 1019 3097 
Q 1019 2950 917 2848 
Q 816 2747 672 2747 
Q 522 2747 420 2851 
Q 319 2956 319 3097 
Q 319 3338 409 3548 
Q 500 3759 670 3923 
Q 841 4088 1055 4175 
Q 1269 4263 1509 4263 
Q 1875 4263 2190 4108 
Q 2506 3953 2690 3670 
Q 2875 3388 2875 3009 
Q 2875 2731 2753 2481 
Q 2631 2231 2440 2026 
Q 2250 1822 1953 1562 
Q 1656 1303 1563 1216 
L 838 519 
L 1453 519 
Q 1906 519 2211 526 
Q 2516 534 2534 550 
Q 2609 631 2688 1141 
L 2875 1141 
L 2694 0 
L 319 0 
z
" transform="scale(0.015625)"/>
      <path id="Cmmi10-6e" d="M 494 109 
Q 494 147 500 166 
L 978 2075 
Q 1025 2253 1025 2388 
Q 1025 2663 838 2663 
Q 638 2663 541 2423 
Q 444 2184 353 1819 
Q 353 1800 334 1789 
Q 316 1778 300 1778 
L 225 1778 
Q 203 1778 187 1801 
Q 172 1825 172 1844 
Q 241 2122 305 2315 
Q 369 2509 505 2668 
Q 641 2828 844 2828 
Q 1084 2828 1268 2676 
Q 1453 2525 1453 2291 
Q 1644 2541 1900 2684 
Q 2156 2828 2444 2828 
Q 2672 2828 2837 2750 
Q 3003 2672 3095 2514 
Q 3188 2356 3188 2138 
Q 3188 1875 3070 1503 
Q 2953 1131 2778 672 
Q 2688 463 2688 288 
Q 2688 97 2834 97 
Q 3084 97 3251 365 
Q 3419 634 3488 941 
Q 3500 978 3541 978 
L 3616 978 
Q 3641 978 3658 962 
Q 3675 947 3675 922 
Q 3675 916 3669 903 
Q 3581 541 3364 234 
Q 3147 -72 2822 -72 
Q 2597 -72 2437 83 
Q 2278 238 2278 459 
Q 2278 578 2328 709 
Q 2409 919 2514 1209 
Q 2619 1500 2686 1765 
Q 2753 2031 2753 2234 
Q 2753 2413 2679 2538 
Q 2606 2663 2431 2663 
Q 2197 2663 2000 2559 
Q 1803 2456 1656 2286 
Q 1509 2116 1388 1881 
L 953 141 
Q 931 53 854 -9 
Q 778 -72 684 -72 
Q 606 -72 550 -22 
Q 494 28 494 109 
z
" transform="scale(0.015625)"/>
      <path id="Cmsy10-a3" d="M 941 184 
Q 941 234 972 275 
L 2303 1600 
L 972 2931 
Q 941 2963 941 3016 
Q 941 3063 978 3103 
Q 1016 3144 1069 3144 
Q 1113 3144 1166 3103 
L 2491 1778 
L 3809 3103 
Q 3863 3144 3903 3144 
Q 3956 3144 3993 3106 
Q 4031 3069 4031 3016 
Q 4031 2963 4000 2931 
L 2669 1600 
L 4000 275 
Q 4031 234 4031 184 
Q 4031 131 3993 93 
Q 3956 56 3903 56 
Q 3856 56 3809 103 
L 2491 1422 
L 1166 103 
Q 1119 56 1069 56 
Q 1016 56 978 97 
Q 941 138 941 184 
z
" transform="scale(0.015625)"/>
      <path id="DejaVuSerif-6d" d="M 3316 2675 
Q 3481 3041 3739 3227 
Q 3997 3413 4341 3413 
Q 4863 3413 5119 3089 
Q 5375 2766 5375 2113 
L 5375 331 
L 5894 331 
L 5894 0 
L 4300 0 
L 4300 331 
L 4800 331 
L 4800 2047 
Q 4800 2556 4650 2772 
Q 4500 2988 4153 2988 
Q 3769 2988 3567 2697 
Q 3366 2406 3366 1850 
L 3366 331 
L 3866 331 
L 3866 0 
L 2291 0 
L 2291 331 
L 2791 331 
L 2791 2069 
Q 2791 2566 2641 2777 
Q 2491 2988 2144 2988 
Q 1759 2988 1557 2697 
Q 1356 2406 1356 1850 
L 1356 331 
L 1856 331 
L 1856 0 
L 263 0 
L 263 331 
L 781 331 
L 781 2994 
L 231 2994 
L 231 3322 
L 1356 3322 
L 1356 2731 
Q 1516 3063 1762 3238 
Q 2009 3413 2322 3413 
Q 2709 3413 2968 3220 
Q 3228 3028 3316 2675 
z
" transform="scale(0.015625)"/>
      <path id="DejaVuSerif-72" d="M 3059 3328 
L 3059 2497 
L 2728 2497 
Q 2713 2744 2591 2866 
Q 2469 2988 2234 2988 
Q 1809 2988 1582 2694 
Q 1356 2400 1356 1850 
L 1356 331 
L 2022 331 
L 2022 0 
L 263 0 
L 263 331 
L 781 331 
L 781 2994 
L 231 2994 
L 231 3322 
L 1356 3322 
L 1356 2731 
Q 1525 3078 1790 3245 
Q 2056 3413 2438 3413 
Q 2578 3413 2733 3391 
Q 2888 3369 3059 3328 
z
" transform="scale(0.015625)"/>
      <path id="DejaVuSerif-69" d="M 622 4353 
Q 622 4497 726 4603 
Q 831 4709 978 4709 
Q 1122 4709 1226 4603 
Q 1331 4497 1331 4353 
Q 1331 4206 1228 4103 
Q 1125 4000 978 4000 
Q 831 4000 726 4103 
Q 622 4206 622 4353 
z
M 1356 331 
L 1900 331 
L 1900 0 
L 231 0 
L 231 331 
L 781 331 
L 781 2988 
L 231 2988 
L 231 3322 
L 1356 3322 
L 1356 331 
z
" transform="scale(0.015625)"/>
      <path id="DejaVuSerif-78" d="M 1863 2028 
L 2559 2988 
L 2113 2988 
L 2113 3322 
L 3391 3322 
L 3391 2988 
L 2950 2988 
L 2059 1759 
L 3097 331 
L 3531 331 
L 3531 0 
L 1997 0 
L 1997 331 
L 2419 331 
L 1697 1325 
L 972 331 
L 1403 331 
L 1403 0 
L 141 0 
L 141 331 
L 581 331 
L 1497 1594 
L 488 2988 
L 78 2988 
L 78 3322 
L 1563 3322 
L 1563 2988 
L 1166 2988 
L 1863 2028 
z
" transform="scale(0.015625)"/>
      <path id="DejaVuSerif-2c" d="M 231 -622 
Q 525 -406 662 -114 
Q 800 178 800 594 
L 800 709 
L 1416 709 
Q 1391 175 1164 -208 
Q 938 -591 481 -872 
L 231 -622 
z
" transform="scale(0.015625)"/>
      <path id="DejaVuSerif-77" d="M 3072 3322 
L 3922 728 
L 4672 2988 
L 4191 2988 
L 4191 3322 
L 5394 3322 
L 5394 2988 
L 5025 2988 
L 4038 0 
L 3559 0 
L 2741 2484 
L 1919 0 
L 1459 0 
L 475 2988 
L 103 2988 
L 103 3322 
L 1606 3322 
L 1606 2988 
L 1069 2988 
L 1813 728 
L 2669 3322 
L 3072 3322 
z
" transform="scale(0.015625)"/>
      <path id="DejaVuSerif-68" d="M 263 0 
L 263 331 
L 781 331 
L 781 4531 
L 231 4531 
L 231 4863 
L 1356 4863 
L 1356 2731 
Q 1516 3069 1770 3241 
Q 2025 3413 2363 3413 
Q 2913 3413 3172 3097 
Q 3431 2781 3431 2113 
L 3431 331 
L 3944 331 
L 3944 0 
L 2356 0 
L 2356 331 
L 2853 331 
L 2853 1931 
Q 2853 2541 2704 2764 
Q 2556 2988 2175 2988 
Q 1775 2988 1565 2697 
Q 1356 2406 1356 1850 
L 1356 331 
L 1856 331 
L 1856 0 
L 263 0 
z
" transform="scale(0.015625)"/>
      <path id="DejaVuSerif-6e" d="M 263 0 
L 263 331 
L 781 331 
L 781 2988 
L 231 2988 
L 231 3322 
L 1356 3322 
L 1356 2731 
Q 1516 3069 1770 3241 
Q 2025 3413 2363 3413 
Q 2913 3413 3172 3097 
Q 3431 2781 3431 2113 
L 3431 331 
L 3944 331 
L 3944 0 
L 2356 0 
L 2356 331 
L 2853 331 
L 2853 1931 
Q 2853 2541 2703 2767 
Q 2553 2994 2175 2994 
Q 1775 2994 1565 2701 
Q 1356 2409 1356 1850 
L 1356 331 
L 1856 331 
L 1856 0 
L 263 0 
z
" transform="scale(0.015625)"/>
      <path id="DejaVuSerif-73" d="M 359 184 
L 359 959 
L 691 959 
Q 703 588 923 403 
Q 1144 219 1575 219 
Q 1963 219 2166 364 
Q 2369 509 2369 788 
Q 2369 1006 2220 1140 
Q 2072 1275 1594 1428 
L 1178 1569 
Q 750 1706 558 1912 
Q 366 2119 366 2438 
Q 366 2894 700 3153 
Q 1034 3413 1625 3413 
Q 1888 3413 2178 3344 
Q 2469 3275 2778 3144 
L 2778 2419 
L 2447 2419 
Q 2434 2741 2221 2922 
Q 2009 3103 1644 3103 
Q 1281 3103 1095 2975 
Q 909 2847 909 2591 
Q 909 2381 1050 2254 
Q 1191 2128 1613 1997 
L 2069 1856 
Q 2541 1709 2748 1489 
Q 2956 1269 2956 922 
Q 2956 450 2595 179 
Q 2234 -91 1600 -91 
Q 1278 -91 972 -22 
Q 666 47 359 184 
z
" transform="scale(0.015625)"/>
      <path id="DejaVuSerif-63" d="M 3291 997 
Q 3169 466 2822 187 
Q 2475 -91 1925 -91 
Q 1200 -91 759 389 
Q 319 869 319 1663 
Q 319 2459 759 2936 
Q 1200 3413 1925 3413 
Q 2241 3413 2553 3339 
Q 2866 3266 3181 3116 
L 3181 2266 
L 2847 2266 
Q 2781 2703 2561 2903 
Q 2341 3103 1931 3103 
Q 1466 3103 1228 2742 
Q 991 2381 991 1663 
Q 991 944 1227 581 
Q 1463 219 1931 219 
Q 2303 219 2525 412 
Q 2747 606 2828 997 
L 3291 997 
z
" transform="scale(0.015625)"/>
      <path id="DejaVuSerif-6f" d="M 1925 219 
Q 2388 219 2623 584 
Q 2859 950 2859 1663 
Q 2859 2375 2623 2739 
Q 2388 3103 1925 3103 
Q 1463 3103 1227 2739 
Q 991 2375 991 1663 
Q 991 950 1228 584 
Q 1466 219 1925 219 
z
M 1925 -91 
Q 1200 -91 759 389 
Q 319 869 319 1663 
Q 319 2456 758 2934 
Q 1197 3413 1925 3413 
Q 2653 3413 3092 2934 
Q 3531 2456 3531 1663 
Q 3531 869 3092 389 
Q 2653 -91 1925 -91 
z
" transform="scale(0.015625)"/>
      <path id="DejaVuSerif-64" d="M 3359 331 
L 3909 331 
L 3909 0 
L 2784 0 
L 2784 519 
Q 2616 206 2355 57 
Q 2094 -91 1709 -91 
Q 1097 -91 708 395 
Q 319 881 319 1663 
Q 319 2444 706 2928 
Q 1094 3413 1709 3413 
Q 2094 3413 2355 3264 
Q 2616 3116 2784 2803 
L 2784 4531 
L 2241 4531 
L 2241 4863 
L 3359 4863 
L 3359 331 
z
M 2784 1497 
L 2784 1825 
Q 2784 2422 2554 2737 
Q 2325 3053 1888 3053 
Q 1444 3053 1217 2703 
Q 991 2353 991 1663 
Q 991 975 1217 622 
Q 1444 269 1888 269 
Q 2325 269 2554 583 
Q 2784 897 2784 1497 
z
" transform="scale(0.015625)"/>
      <path id="DejaVuSerif-70" d="M 1313 1825 
L 1313 1497 
Q 1313 897 1542 583 
Q 1772 269 2209 269 
Q 2650 269 2876 622 
Q 3103 975 3103 1663 
Q 3103 2353 2876 2703 
Q 2650 3053 2209 3053 
Q 1772 3053 1542 2737 
Q 1313 2422 1313 1825 
z
M 738 2988 
L 184 2988 
L 184 3322 
L 1313 3322 
L 1313 2803 
Q 1481 3116 1742 3264 
Q 2003 3413 2388 3413 
Q 3000 3413 3387 2928 
Q 3775 2444 3775 1663 
Q 3775 881 3387 395 
Q 3000 -91 2388 -91 
Q 2003 -91 1742 57 
Q 1481 206 1313 519 
L 1313 -997 
L 1856 -997 
L 1856 -1331 
L 184 -1331 
L 184 -997 
L 738 -997 
L 738 2988 
z
" transform="scale(0.015625)"/>
      <path id="DejaVuSerif-6c" d="M 1313 331 
L 1856 331 
L 1856 0 
L 184 0 
L 184 331 
L 738 331 
L 738 4531 
L 184 4531 
L 184 4863 
L 1313 4863 
L 1313 331 
z
" transform="scale(0.015625)"/>
      <path id="DejaVuSerif-79" d="M 1381 -609 
L 1600 -56 
L 359 2988 
L -19 2988 
L -19 3322 
L 1509 3322 
L 1509 2988 
L 978 2988 
L 1913 703 
L 2847 2988 
L 2350 2988 
L 2350 3322 
L 3597 3322 
L 3597 2988 
L 3225 2988 
L 1703 -750 
Q 1547 -1138 1356 -1280 
Q 1166 -1422 819 -1422 
Q 672 -1422 517 -1397 
Q 363 -1372 206 -1325 
L 206 -691 
L 500 -691 
Q 519 -903 608 -995 
Q 697 -1088 884 -1088 
Q 1056 -1088 1161 -992 
Q 1266 -897 1381 -609 
z
" transform="scale(0.015625)"/>
      <path id="DejaVuSerif-2e" d="M 603 325 
Q 603 500 722 622 
Q 841 744 1019 744 
Q 1191 744 1312 622 
Q 1434 500 1434 325 
Q 1434 153 1312 31 
Q 1191 -91 1019 -91 
Q 841 -91 722 29 
Q 603 150 603 325 
z
" transform="scale(0.015625)"/>
      <path id="DejaVuSerif-45" d="M 353 0 
L 353 331 
L 947 331 
L 947 4331 
L 353 4331 
L 353 4666 
L 4109 4666 
L 4109 3628 
L 3725 3628 
L 3725 4281 
L 1581 4281 
L 1581 2719 
L 3109 2719 
L 3109 3303 
L 3494 3303 
L 3494 1753 
L 3109 1753 
L 3109 2338 
L 1581 2338 
L 1581 384 
L 3775 384 
L 3775 1038 
L 4159 1038 
L 4159 0 
L 353 0 
z
" transform="scale(0.015625)"/>
      <path id="DejaVuSerif-76" d="M 1581 0 
L 359 2988 
L -19 2988 
L -19 3322 
L 1509 3322 
L 1509 2988 
L 978 2988 
L 1913 703 
L 2847 2988 
L 2350 2988 
L 2350 3322 
L 3597 3322 
L 3597 2988 
L 3225 2988 
L 2003 0 
L 1581 0 
z
" transform="scale(0.015625)"/>
      <path id="Cmr10-30" d="M 1600 -141 
Q 816 -141 533 504 
Q 250 1150 250 2041 
Q 250 2597 351 3087 
Q 453 3578 754 3920 
Q 1056 4263 1600 4263 
Q 2022 4263 2290 4056 
Q 2559 3850 2700 3523 
Q 2841 3197 2892 2823 
Q 2944 2450 2944 2041 
Q 2944 1491 2842 1011 
Q 2741 531 2444 195 
Q 2147 -141 1600 -141 
z
M 1600 25 
Q 1956 25 2131 390 
Q 2306 756 2347 1200 
Q 2388 1644 2388 2144 
Q 2388 2625 2347 3031 
Q 2306 3438 2132 3767 
Q 1959 4097 1600 4097 
Q 1238 4097 1063 3765 
Q 888 3434 847 3029 
Q 806 2625 806 2144 
Q 806 1788 823 1472 
Q 841 1156 916 820 
Q 991 484 1158 254 
Q 1325 25 1600 25 
z
" transform="scale(0.015625)"/>
      <path id="Cmr10-31" d="M 594 0 
L 594 225 
Q 1394 225 1394 428 
L 1394 3788 
Q 1063 3628 556 3628 
L 556 3853 
Q 1341 3853 1741 4263 
L 1831 4263 
Q 1853 4263 1873 4245 
Q 1894 4228 1894 4206 
L 1894 428 
Q 1894 225 2694 225 
L 2694 0 
L 594 0 
z
" transform="scale(0.015625)"/>
      <path id="Cmmi10-3d" d="M 359 -1472 
Q 359 -1453 366 -1447 
L 2591 4722 
Q 2603 4759 2634 4779 
Q 2666 4800 2706 4800 
Q 2763 4800 2798 4765 
Q 2834 4731 2834 4672 
L 2834 4647 
L 609 -1522 
Q 572 -1600 488 -1600 
Q 434 -1600 396 -1562 
Q 359 -1525 359 -1472 
z
" transform="scale(0.015625)"/>
      <path id="DejaVuSerif-46" d="M 353 0 
L 353 331 
L 947 331 
L 947 4331 
L 353 4331 
L 353 4666 
L 4172 4666 
L 4172 3628 
L 3788 3628 
L 3788 4281 
L 1581 4281 
L 1581 2719 
L 3175 2719 
L 3175 3303 
L 3559 3303 
L 3559 1753 
L 3175 1753 
L 3175 2338 
L 1581 2338 
L 1581 331 
L 2328 331 
L 2328 0 
L 353 0 
z
" transform="scale(0.015625)"/>
      <path id="DejaVuSerif-75" d="M 2266 3322 
L 3341 3322 
L 3341 331 
L 3884 331 
L 3884 0 
L 2766 0 
L 2766 588 
Q 2606 256 2353 82 
Q 2100 -91 1766 -91 
Q 1213 -91 952 223 
Q 691 538 691 1209 
L 691 2988 
L 172 2988 
L 172 3322 
L 1269 3322 
L 1269 1388 
Q 1269 781 1417 556 
Q 1566 331 1947 331 
Q 2347 331 2556 625 
Q 2766 919 2766 1478 
L 2766 2988 
L 2266 2988 
L 2266 3322 
z
" transform="scale(0.015625)"/>
      <path id="DejaVuSerif-66" d="M 2753 4078 
L 2450 4078 
Q 2447 4313 2317 4434 
Q 2188 4556 1941 4556 
Q 1619 4556 1487 4379 
Q 1356 4203 1356 3750 
L 1356 3322 
L 2284 3322 
L 2284 2988 
L 1356 2988 
L 1356 331 
L 2094 331 
L 2094 0 
L 231 0 
L 231 331 
L 781 331 
L 781 2988 
L 231 2988 
L 231 3322 
L 781 3322 
L 781 3738 
Q 781 4294 1070 4578 
Q 1359 4863 1919 4863 
Q 2128 4863 2337 4825 
Q 2547 4788 2753 4709 
L 2753 4078 
z
" transform="scale(0.015625)"/>
      <path id="Cmr10-64" d="M 1563 -72 
Q 1184 -72 871 133 
Q 559 338 386 672 
Q 213 1006 213 1381 
Q 213 1769 402 2101 
Q 591 2434 916 2631 
Q 1241 2828 1631 2828 
Q 1866 2828 2075 2729 
Q 2284 2631 2438 2456 
L 2438 3788 
Q 2438 3959 2386 4036 
Q 2334 4113 2239 4130 
Q 2144 4147 1941 4147 
L 1941 4372 
L 2888 4441 
L 2888 581 
Q 2888 413 2939 336 
Q 2991 259 3086 242 
Q 3181 225 3384 225 
L 3384 0 
L 2419 -72 
L 2419 331 
Q 2253 141 2025 34 
Q 1797 -72 1563 -72 
z
M 909 556 
Q 1019 347 1201 222 
Q 1384 97 1600 97 
Q 1866 97 2087 250 
Q 2309 403 2419 647 
L 2419 2181 
Q 2344 2322 2230 2433 
Q 2116 2544 1973 2603 
Q 1831 2663 1672 2663 
Q 1338 2663 1134 2473 
Q 931 2284 850 1990 
Q 769 1697 769 1375 
Q 769 1119 795 928 
Q 822 738 909 556 
z
" transform="scale(0.015625)"/>
      <path id="Cmr10-65" d="M 1594 -72 
Q 1203 -72 876 133 
Q 550 338 364 680 
Q 178 1022 178 1403 
Q 178 1778 348 2115 
Q 519 2453 823 2661 
Q 1128 2869 1503 2869 
Q 1797 2869 2014 2770 
Q 2231 2672 2372 2497 
Q 2513 2322 2584 2084 
Q 2656 1847 2656 1563 
Q 2656 1478 2591 1478 
L 738 1478 
L 738 1409 
Q 738 878 952 497 
Q 1166 116 1650 116 
Q 1847 116 2014 203 
Q 2181 291 2304 447 
Q 2428 603 2472 781 
Q 2478 803 2495 820 
Q 2513 838 2534 838 
L 2591 838 
Q 2656 838 2656 756 
Q 2566 394 2266 161 
Q 1966 -72 1594 -72 
z
M 744 1638 
L 2203 1638 
Q 2203 1878 2136 2125 
Q 2069 2372 1912 2536 
Q 1756 2700 1503 2700 
Q 1141 2700 942 2361 
Q 744 2022 744 1638 
z
" transform="scale(0.015625)"/>
      <path id="Cmr10-74" d="M 653 769 
L 653 2534 
L 122 2534 
L 122 2700 
Q 541 2700 737 3090 
Q 934 3481 934 3938 
L 1119 3938 
L 1119 2759 
L 2022 2759 
L 2022 2534 
L 1119 2534 
L 1119 781 
Q 1119 516 1208 316 
Q 1297 116 1528 116 
Q 1747 116 1844 327 
Q 1941 538 1941 781 
L 1941 1159 
L 2125 1159 
L 2125 769 
Q 2125 569 2051 373 
Q 1978 178 1834 53 
Q 1691 -72 1484 -72 
Q 1100 -72 876 158 
Q 653 388 653 769 
z
" transform="scale(0.015625)"/>
      <path id="Cmr10-28" d="M 1984 -1588 
Q 1628 -1306 1370 -942 
Q 1113 -578 948 -165 
Q 784 247 703 697 
Q 622 1147 622 1600 
Q 622 2059 703 2509 
Q 784 2959 951 3375 
Q 1119 3791 1378 4153 
Q 1638 4516 1984 4788 
Q 1984 4800 2016 4800 
L 2075 4800 
Q 2094 4800 2109 4783 
Q 2125 4766 2125 4744 
Q 2125 4716 2113 4703 
Q 1800 4397 1592 4047 
Q 1384 3697 1257 3301 
Q 1131 2906 1075 2482 
Q 1019 2059 1019 1600 
Q 1019 -434 2106 -1491 
Q 2125 -1509 2125 -1544 
Q 2125 -1559 2108 -1579 
Q 2091 -1600 2075 -1600 
L 2016 -1600 
Q 1984 -1600 1984 -1588 
z
" transform="scale(0.015625)"/>
      <path id="Cmsy10-a1" d="M 653 1472 
Q 600 1472 565 1512 
Q 531 1553 531 1600 
Q 531 1647 565 1687 
Q 600 1728 653 1728 
L 4325 1728 
Q 4375 1728 4408 1687 
Q 4441 1647 4441 1600 
Q 4441 1553 4408 1512 
Q 4375 1472 4325 1472 
L 653 1472 
z
" transform="scale(0.015625)"/>
      <path id="Cmmi10-74" d="M 397 519 
Q 397 613 416 697 
L 878 2534 
L 206 2534 
Q 141 2534 141 2619 
Q 166 2759 225 2759 
L 934 2759 
L 1191 3803 
Q 1216 3888 1291 3947 
Q 1366 4006 1459 4006 
Q 1541 4006 1595 3957 
Q 1650 3909 1650 3828 
Q 1650 3809 1648 3798 
Q 1647 3788 1644 3775 
L 1388 2759 
L 2047 2759 
Q 2113 2759 2113 2675 
Q 2109 2659 2100 2621 
Q 2091 2584 2075 2559 
Q 2059 2534 2028 2534 
L 1331 2534 
L 872 684 
Q 825 503 825 372 
Q 825 97 1013 97 
Q 1294 97 1511 361 
Q 1728 625 1844 941 
Q 1869 978 1894 978 
L 1972 978 
Q 1997 978 2012 961 
Q 2028 944 2028 922 
Q 2028 909 2022 903 
Q 1881 516 1612 222 
Q 1344 -72 997 -72 
Q 744 -72 570 93 
Q 397 259 397 519 
z
" transform="scale(0.015625)"/>
      <path id="Cmr10-29" d="M 416 -1600 
Q 359 -1600 359 -1544 
Q 359 -1516 372 -1503 
Q 1466 -434 1466 1600 
Q 1466 3634 384 4691 
Q 359 4706 359 4744 
Q 359 4766 376 4783 
Q 394 4800 416 4800 
L 475 4800 
Q 494 4800 506 4788 
Q 966 4425 1272 3906 
Q 1578 3388 1720 2800 
Q 1863 2213 1863 1600 
Q 1863 1147 1786 708 
Q 1709 269 1542 -157 
Q 1375 -584 1119 -945 
Q 863 -1306 506 -1588 
Q 494 -1600 475 -1600 
L 416 -1600 
z
" transform="scale(0.015625)"/>
      <path id="DejaVuSerif-28" d="M 2041 -997 
Q 1281 -656 893 83 
Q 506 822 506 1931 
Q 506 3044 893 3783 
Q 1281 4522 2041 4863 
L 2041 4556 
Q 1559 4225 1350 3623 
Q 1141 3022 1141 1931 
Q 1141 844 1350 242 
Q 1559 -359 2041 -691 
L 2041 -997 
z
" transform="scale(0.015625)"/>
      <path id="DejaVuSerif-29" d="M 453 -997 
L 453 -691 
Q 934 -359 1145 242 
Q 1356 844 1356 1931 
Q 1356 3022 1145 3623 
Q 934 4225 453 4556 
L 453 4863 
Q 1216 4522 1603 3783 
Q 1991 3044 1991 1931 
Q 1991 822 1603 83 
Q 1216 -656 453 -997 
z
" transform="scale(0.015625)"/>
     </defs>
     <use xlink:href="#DejaVuSerif-4c" transform="translate(0 0.920312)"/>
     <use xlink:href="#DejaVuSerif-65" transform="translate(66.40625 0.920312)"/>
     <use xlink:href="#DejaVuSerif-74" transform="translate(125.585938 0.920312)"/>
     <use xlink:href="#DejaVuSerif-20" transform="translate(165.771484 0.920312)"/>
     <use xlink:href="#Cmmi10-41" transform="translate(197.558594 0.920312)"/>
     <use xlink:href="#DejaVuSerif-20" transform="translate(272.558594 0.920312)"/>
     <use xlink:href="#DejaVuSerif-62" transform="translate(304.345703 0.920312)"/>
     <use xlink:href="#DejaVuSerif-65" transform="translate(368.359375 0.920312)"/>
     <use xlink:href="#DejaVuSerif-20" transform="translate(427.539062 0.920312)"/>
     <use xlink:href="#DejaVuSerif-61" transform="translate(459.326172 0.920312)"/>
     <use xlink:href="#DejaVuSerif-20" transform="translate(518.945312 0.920312)"/>
     <use xlink:href="#Cmr10-32" transform="translate(550.732422 0.920312)"/>
     <use xlink:href="#Cmmi10-6e" transform="translate(600.732422 0.920312)"/>
     <use xlink:href="#Cmsy10-a3" transform="translate(678.300781 0.920312)"/>
     <use xlink:href="#Cmr10-32" transform="translate(773.544922 0.920312)"/>
     <use xlink:href="#Cmmi10-6e" transform="translate(823.544922 0.920312)"/>
     <use xlink:href="#DejaVuSerif-20" transform="translate(883.554688 0.920312)"/>
     <use xlink:href="#DejaVuSerif-6d" transform="translate(915.341797 0.920312)"/>
     <use xlink:href="#DejaVuSerif-61" transform="translate(1010.166016 0.920312)"/>
     <use xlink:href="#DejaVuSerif-74" transform="translate(1069.785156 0.920312)"/>
     <use xlink:href="#DejaVuSerif-72" transform="translate(1109.970703 0.920312)"/>
     <use xlink:href="#DejaVuSerif-69" transform="translate(1157.773438 0.920312)"/>
     <use xlink:href="#DejaVuSerif-78" transform="translate(1189.755859 0.920312)"/>
     <use xlink:href="#DejaVuSerif-2c" transform="translate(1246.152344 0.920312)"/>
     <use xlink:href="#DejaVuSerif-20" transform="translate(1277.939453 0.920312)"/>
     <use xlink:href="#DejaVuSerif-77" transform="translate(1309.726562 0.920312)"/>
     <use xlink:href="#DejaVuSerif-69" transform="translate(1395.322266 0.920312)"/>
     <use xlink:href="#DejaVuSerif-74" transform="translate(1427.304688 0.920312)"/>
     <use xlink:href="#DejaVuSerif-68" transform="translate(1467.490234 0.920312)"/>
     <use xlink:href="#DejaVuSerif-20" transform="translate(1531.894531 0.920312)"/>
     <use xlink:href="#DejaVuSerif-65" transform="translate(1563.681641 0.920312)"/>
     <use xlink:href="#DejaVuSerif-6e" transform="translate(1622.861328 0.920312)"/>
     <use xlink:href="#DejaVuSerif-74" transform="translate(1687.265625 0.920312)"/>
     <use xlink:href="#DejaVuSerif-72" transform="translate(1727.451172 0.920312)"/>
     <use xlink:href="#DejaVuSerif-69" transform="translate(1775.253906 0.920312)"/>
     <use xlink:href="#DejaVuSerif-65" transform="translate(1807.236328 0.920312)"/>
     <use xlink:href="#DejaVuSerif-73" transform="translate(1866.416016 0.920312)"/>
     <use xlink:href="#DejaVuSerif-20" transform="translate(1917.734375 0.920312)"/>
     <use xlink:href="#DejaVuSerif-63" transform="translate(1949.521484 0.920312)"/>
     <use xlink:href="#DejaVuSerif-68" transform="translate(2005.527344 0.920312)"/>
     <use xlink:href="#DejaVuSerif-6f" transform="translate(2069.931641 0.920312)"/>
     <use xlink:href="#DejaVuSerif-73" transform="translate(2130.136719 0.920312)"/>
     <use xlink:href="#DejaVuSerif-65" transform="translate(2181.455078 0.920312)"/>
     <use xlink:href="#DejaVuSerif-6e" transform="translate(2240.634766 0.920312)"/>
     <use xlink:href="#DejaVuSerif-20" transform="translate(2305.039062 0.920312)"/>
     <use xlink:href="#DejaVuSerif-69" transform="translate(2336.826172 0.920312)"/>
     <use xlink:href="#DejaVuSerif-6e" transform="translate(2368.808594 0.920312)"/>
     <use xlink:href="#DejaVuSerif-64" transform="translate(2433.212891 0.920312)"/>
     <use xlink:href="#DejaVuSerif-65" transform="translate(2497.226562 0.920312)"/>
     <use xlink:href="#DejaVuSerif-70" transform="translate(2556.40625 0.920312)"/>
     <use xlink:href="#DejaVuSerif-65" transform="translate(2620.419922 0.920312)"/>
     <use xlink:href="#DejaVuSerif-6e" transform="translate(2679.599609 0.920312)"/>
     <use xlink:href="#DejaVuSerif-64" transform="translate(2744.003906 0.920312)"/>
     <use xlink:href="#DejaVuSerif-65" transform="translate(2808.017578 0.920312)"/>
     <use xlink:href="#DejaVuSerif-6e" transform="translate(2867.197266 0.920312)"/>
     <use xlink:href="#DejaVuSerif-74" transform="translate(2931.601562 0.920312)"/>
     <use xlink:href="#DejaVuSerif-6c" transform="translate(2971.787109 0.920312)"/>
     <use xlink:href="#DejaVuSerif-79" transform="translate(3003.769531 0.920312)"/>
     <use xlink:href="#DejaVuSerif-20" transform="translate(3060.263672 0.920312)"/>
     <use xlink:href="#DejaVuSerif-61" transform="translate(3092.050781 0.920312)"/>
     <use xlink:href="#DejaVuSerif-74" transform="translate(3151.669922 0.920312)"/>
     <use xlink:href="#DejaVuSerif-20" transform="translate(3191.855469 0.920312)"/>
     <use xlink:href="#DejaVuSerif-72" transform="translate(3223.642578 0.920312)"/>
     <use xlink:href="#DejaVuSerif-61" transform="translate(3271.445312 0.920312)"/>
     <use xlink:href="#DejaVuSerif-6e" transform="translate(3331.064453 0.920312)"/>
     <use xlink:href="#DejaVuSerif-64" transform="translate(3395.46875 0.920312)"/>
     <use xlink:href="#DejaVuSerif-6f" transform="translate(3459.482422 0.920312)"/>
     <use xlink:href="#DejaVuSerif-6d" transform="translate(3519.6875 0.920312)"/>
     <use xlink:href="#DejaVuSerif-2e" transform="translate(3614.511719 0.920312)"/>
     <use xlink:href="#DejaVuSerif-20" transform="translate(3646.298828 0.920312)"/>
     <use xlink:href="#DejaVuSerif-45" transform="translate(3678.085938 0.920312)"/>
     <use xlink:href="#DejaVuSerif-76" transform="translate(3751.083984 0.920312)"/>
     <use xlink:href="#DejaVuSerif-65" transform="translate(3807.578125 0.920312)"/>
     <use xlink:href="#DejaVuSerif-72" transform="translate(3866.757812 0.920312)"/>
     <use xlink:href="#DejaVuSerif-79" transform="translate(3914.560547 0.920312)"/>
     <use xlink:href="#DejaVuSerif-20" transform="translate(3971.054688 0.920312)"/>
     <use xlink:href="#DejaVuSerif-65" transform="translate(4002.841797 0.920312)"/>
     <use xlink:href="#DejaVuSerif-6e" transform="translate(4062.021484 0.920312)"/>
     <use xlink:href="#DejaVuSerif-74" transform="translate(4126.425781 0.920312)"/>
     <use xlink:href="#DejaVuSerif-72" transform="translate(4166.611328 0.920312)"/>
     <use xlink:href="#DejaVuSerif-79" transform="translate(4214.414062 0.920312)"/>
     <use xlink:href="#DejaVuSerif-20" transform="translate(4270.908203 0.920312)"/>
     <use xlink:href="#DejaVuSerif-69" transform="translate(4302.695312 0.920312)"/>
     <use xlink:href="#DejaVuSerif-73" transform="translate(4334.677734 0.920312)"/>
     <use xlink:href="#DejaVuSerif-20" transform="translate(4385.996094 0.920312)"/>
     <use xlink:href="#DejaVuSerif-63" transform="translate(4417.783203 0.920312)"/>
     <use xlink:href="#DejaVuSerif-68" transform="translate(4473.789062 0.920312)"/>
     <use xlink:href="#DejaVuSerif-6f" transform="translate(4538.193359 0.920312)"/>
     <use xlink:href="#DejaVuSerif-73" transform="translate(4598.398438 0.920312)"/>
     <use xlink:href="#DejaVuSerif-65" transform="translate(4649.716797 0.920312)"/>
     <use xlink:href="#DejaVuSerif-6e" transform="translate(4708.896484 0.920312)"/>
     <use xlink:href="#DejaVuSerif-20" transform="translate(4773.300781 0.920312)"/>
     <use xlink:href="#DejaVuSerif-74" transform="translate(4805.087891 0.920312)"/>
     <use xlink:href="#DejaVuSerif-6f" transform="translate(4845.273438 0.920312)"/>
     <use xlink:href="#DejaVuSerif-20" transform="translate(4905.478516 0.920312)"/>
     <use xlink:href="#DejaVuSerif-62" transform="translate(4937.265625 0.920312)"/>
     <use xlink:href="#DejaVuSerif-65" transform="translate(5001.279297 0.920312)"/>
     <use xlink:href="#DejaVuSerif-20" transform="translate(5060.458984 0.920312)"/>
     <use xlink:href="#Cmr10-30" transform="translate(5092.246094 0.920312)"/>
     <use xlink:href="#DejaVuSerif-20" transform="translate(5142.246094 0.920312)"/>
     <use xlink:href="#DejaVuSerif-6f" transform="translate(5174.033203 0.920312)"/>
     <use xlink:href="#DejaVuSerif-72" transform="translate(5234.238281 0.920312)"/>
     <use xlink:href="#DejaVuSerif-20" transform="translate(5282.041016 0.920312)"/>
     <use xlink:href="#Cmr10-31" transform="translate(5313.828125 0.920312)"/>
     <use xlink:href="#DejaVuSerif-2c" transform="translate(5363.828125 0.920312)"/>
     <use xlink:href="#DejaVuSerif-20" transform="translate(5395.615234 0.920312)"/>
     <use xlink:href="#DejaVuSerif-65" transform="translate(5427.402344 0.920312)"/>
     <use xlink:href="#DejaVuSerif-61" transform="translate(5486.582031 0.920312)"/>
     <use xlink:href="#DejaVuSerif-63" transform="translate(5546.201172 0.920312)"/>
     <use xlink:href="#DejaVuSerif-68" transform="translate(5602.207031 0.920312)"/>
     <use xlink:href="#DejaVuSerif-20" transform="translate(5666.611328 0.920312)"/>
     <use xlink:href="#DejaVuSerif-77" transform="translate(5698.398438 0.920312)"/>
     <use xlink:href="#DejaVuSerif-69" transform="translate(5783.994141 0.920312)"/>
     <use xlink:href="#DejaVuSerif-74" transform="translate(5815.976562 0.920312)"/>
     <use xlink:href="#DejaVuSerif-68" transform="translate(5856.162109 0.920312)"/>
     <use xlink:href="#DejaVuSerif-20" transform="translate(5920.566406 0.920312)"/>
     <use xlink:href="#DejaVuSerif-70" transform="translate(5952.353516 0.920312)"/>
     <use xlink:href="#DejaVuSerif-72" transform="translate(6016.367188 0.920312)"/>
     <use xlink:href="#DejaVuSerif-6f" transform="translate(6064.169922 0.920312)"/>
     <use xlink:href="#DejaVuSerif-62" transform="translate(6124.375 0.920312)"/>
     <use xlink:href="#DejaVuSerif-61" transform="translate(6188.388672 0.920312)"/>
     <use xlink:href="#DejaVuSerif-62" transform="translate(6248.007812 0.920312)"/>
     <use xlink:href="#DejaVuSerif-69" transform="translate(6312.021484 0.920312)"/>
     <use xlink:href="#DejaVuSerif-6c" transform="translate(6344.003906 0.920312)"/>
     <use xlink:href="#DejaVuSerif-69" transform="translate(6375.986328 0.920312)"/>
     <use xlink:href="#DejaVuSerif-74" transform="translate(6407.96875 0.920312)"/>
     <use xlink:href="#DejaVuSerif-79" transform="translate(6448.154297 0.920312)"/>
     <use xlink:href="#DejaVuSerif-20" transform="translate(6504.648438 0.920312)"/>
     <use xlink:href="#Cmr10-31" transform="translate(6536.435547 0.920312)"/>
     <use xlink:href="#Cmmi10-3d" transform="translate(6586.435547 0.920312)"/>
     <use xlink:href="#Cmr10-32" transform="translate(6636.435547 0.920312)"/>
     <use xlink:href="#DejaVuSerif-2e" transform="translate(6686.435547 0.920312)"/>
     <use xlink:href="#DejaVuSerif-20" transform="translate(6718.222656 0.920312)"/>
     <use xlink:href="#DejaVuSerif-46" transform="translate(6750.009766 0.920312)"/>
     <use xlink:href="#DejaVuSerif-69" transform="translate(6819.394531 0.920312)"/>
     <use xlink:href="#DejaVuSerif-6e" transform="translate(6851.376953 0.920312)"/>
     <use xlink:href="#DejaVuSerif-64" transform="translate(6915.78125 0.920312)"/>
     <use xlink:href="#DejaVuSerif-20" transform="translate(6979.794922 0.920312)"/>
     <use xlink:href="#DejaVuSerif-74" transform="translate(7011.582031 0.920312)"/>
     <use xlink:href="#DejaVuSerif-68" transform="translate(7051.767578 0.920312)"/>
     <use xlink:href="#DejaVuSerif-65" transform="translate(7116.171875 0.920312)"/>
     <use xlink:href="#DejaVuSerif-20" transform="translate(7175.351562 0.920312)"/>
     <use xlink:href="#DejaVuSerif-65" transform="translate(7207.138672 0.920312)"/>
     <use xlink:href="#DejaVuSerif-78" transform="translate(7266.318359 0.920312)"/>
     <use xlink:href="#DejaVuSerif-70" transform="translate(7322.714844 0.920312)"/>
     <use xlink:href="#DejaVuSerif-65" transform="translate(7386.728516 0.920312)"/>
     <use xlink:href="#DejaVuSerif-63" transform="translate(7445.908203 0.920312)"/>
     <use xlink:href="#DejaVuSerif-74" transform="translate(7501.914062 0.920312)"/>
     <use xlink:href="#DejaVuSerif-65" transform="translate(7542.099609 0.920312)"/>
     <use xlink:href="#DejaVuSerif-64" transform="translate(7601.279297 0.920312)"/>
     <use xlink:href="#DejaVuSerif-20" transform="translate(7665.292969 0.920312)"/>
     <use xlink:href="#DejaVuSerif-76" transform="translate(7697.080078 0.920312)"/>
     <use xlink:href="#DejaVuSerif-61" transform="translate(7753.574219 0.920312)"/>
     <use xlink:href="#DejaVuSerif-6c" transform="translate(7813.193359 0.920312)"/>
     <use xlink:href="#DejaVuSerif-75" transform="translate(7845.175781 0.920312)"/>
     <use xlink:href="#DejaVuSerif-65" transform="translate(7909.580078 0.920312)"/>
     <use xlink:href="#DejaVuSerif-20" transform="translate(7968.759766 0.920312)"/>
     <use xlink:href="#DejaVuSerif-6f" transform="translate(8000.546875 0.920312)"/>
     <use xlink:href="#DejaVuSerif-66" transform="translate(8060.751953 0.920312)"/>
     <use xlink:href="#DejaVuSerif-20" transform="translate(8097.763672 0.920312)"/>
     <use xlink:href="#Cmr10-64" transform="translate(8129.550781 0.920312)"/>
     <use xlink:href="#Cmr10-65" transform="translate(8185.068359 0.920312)"/>
     <use xlink:href="#Cmr10-74" transform="translate(8229.453125 0.920312)"/>
     <use xlink:href="#Cmr10-28" transform="translate(8268.271484 0.920312)"/>
     <use xlink:href="#Cmmi10-41" transform="translate(8307.089844 0.920312)"/>
     <use xlink:href="#Cmsy10-a1" transform="translate(8399.648438 0.920312)"/>
     <use xlink:href="#Cmmi10-41" transform="translate(8494.892578 0.920312)"/>
     <use xlink:href="#Cmmi10-74" transform="translate(8581.947891 39.184375) scale(0.7)"/>
     <use xlink:href="#Cmr10-29" transform="translate(8613.584023 0.920312)"/>
     <use xlink:href="#DejaVuSerif-20" transform="translate(8652.402383 0.920312)"/>
     <use xlink:href="#DejaVuSerif-28" transform="translate(8684.189492 0.920312)"/>
     <use xlink:href="#DejaVuSerif-61" transform="translate(8723.203164 0.920312)"/>
     <use xlink:href="#DejaVuSerif-73" transform="translate(8782.822305 0.920312)"/>
     <use xlink:href="#DejaVuSerif-20" transform="translate(8834.140664 0.920312)"/>
     <use xlink:href="#DejaVuSerif-61" transform="translate(8865.927773 0.920312)"/>
     <use xlink:href="#DejaVuSerif-20" transform="translate(8925.546914 0.920312)"/>
     <use xlink:href="#DejaVuSerif-66" transform="translate(8957.334023 0.920312)"/>
     <use xlink:href="#DejaVuSerif-75" transform="translate(8994.345742 0.920312)"/>
     <use xlink:href="#DejaVuSerif-6e" transform="translate(9058.750039 0.920312)"/>
     <use xlink:href="#DejaVuSerif-63" transform="translate(9123.154336 0.920312)"/>
     <use xlink:href="#DejaVuSerif-74" transform="translate(9179.160195 0.920312)"/>
     <use xlink:href="#DejaVuSerif-69" transform="translate(9219.345742 0.920312)"/>
     <use xlink:href="#DejaVuSerif-6f" transform="translate(9251.328164 0.920312)"/>
     <use xlink:href="#DejaVuSerif-6e" transform="translate(9311.533242 0.920312)"/>
     <use xlink:href="#DejaVuSerif-20" transform="translate(9375.937539 0.920312)"/>
     <use xlink:href="#DejaVuSerif-6f" transform="translate(9407.724648 0.920312)"/>
     <use xlink:href="#DejaVuSerif-66" transform="translate(9467.929727 0.920312)"/>
     <use xlink:href="#DejaVuSerif-20" transform="translate(9504.941445 0.920312)"/>
     <use xlink:href="#Cmmi10-6e" transform="translate(9536.728555 0.920312)"/>
     <use xlink:href="#DejaVuSerif-29" transform="translate(9596.73832 0.920312)"/>
     <use xlink:href="#DejaVuSerif-2c" transform="translate(9635.751992 0.920312)"/>
     <use xlink:href="#DejaVuSerif-20" transform="translate(9667.539102 0.920312)"/>
     <use xlink:href="#DejaVuSerif-77" transform="translate(9699.326211 0.920312)"/>
     <use xlink:href="#DejaVuSerif-68" transform="translate(9784.921914 0.920312)"/>
     <use xlink:href="#DejaVuSerif-65" transform="translate(9849.326211 0.920312)"/>
     <use xlink:href="#DejaVuSerif-72" transform="translate(9908.505898 0.920312)"/>
     <use xlink:href="#DejaVuSerif-65" transform="translate(9956.308633 0.920312)"/>
     <use xlink:href="#DejaVuSerif-20" transform="translate(10015.48832 0.920312)"/>
     <use xlink:href="#Cmmi10-41" transform="translate(10047.27543 0.920312)"/>
     <use xlink:href="#Cmmi10-74" transform="translate(10134.330742 39.184375) scale(0.7)"/>
     <use xlink:href="#DejaVuSerif-20" transform="translate(10165.966875 0.920312)"/>
     <use xlink:href="#DejaVuSerif-69" transform="translate(10197.753984 0.920312)"/>
     <use xlink:href="#DejaVuSerif-73" transform="translate(10229.736406 0.920312)"/>
     <use xlink:href="#DejaVuSerif-20" transform="translate(10281.054766 0.920312)"/>
     <use xlink:href="#DejaVuSerif-74" transform="translate(10312.841875 0.920312)"/>
     <use xlink:href="#DejaVuSerif-68" transform="translate(10353.027422 0.920312)"/>
     <use xlink:href="#DejaVuSerif-65" transform="translate(10417.431719 0.920312)"/>
     <use xlink:href="#DejaVuSerif-20" transform="translate(10476.611406 0.920312)"/>
     <use xlink:href="#DejaVuSerif-74" transform="translate(10508.398516 0.920312)"/>
     <use xlink:href="#DejaVuSerif-72" transform="translate(10548.584062 0.920312)"/>
     <use xlink:href="#DejaVuSerif-61" transform="translate(10596.386797 0.920312)"/>
     <use xlink:href="#DejaVuSerif-6e" transform="translate(10656.005937 0.920312)"/>
     <use xlink:href="#DejaVuSerif-73" transform="translate(10720.410234 0.920312)"/>
     <use xlink:href="#DejaVuSerif-70" transform="translate(10771.728594 0.920312)"/>
     <use xlink:href="#DejaVuSerif-6f" transform="translate(10835.742266 0.920312)"/>
     <use xlink:href="#DejaVuSerif-73" transform="translate(10895.947344 0.920312)"/>
     <use xlink:href="#DejaVuSerif-65" transform="translate(10947.265703 0.920312)"/>
     <use xlink:href="#DejaVuSerif-20" transform="translate(11006.445391 0.920312)"/>
     <use xlink:href="#DejaVuSerif-6f" transform="translate(11038.2325 0.920312)"/>
     <use xlink:href="#DejaVuSerif-66" transform="translate(11098.437578 0.920312)"/>
     <use xlink:href="#DejaVuSerif-20" transform="translate(11135.449297 0.920312)"/>
     <use xlink:href="#Cmmi10-41" transform="translate(11167.236406 0.920312)"/>
     <use xlink:href="#DejaVuSerif-2e" transform="translate(11242.236406 0.920312)"/>
    </g>
   </g>
  </g>
 </g>
</svg>
