<?xml version="1.0" encoding="utf-8" standalone="no"?>
<!DOCTYPE svg PUBLIC "-//W3C//DTD SVG 1.1//EN"
  "http://www.w3.org/Graphics/SVG/1.1/DTD/svg11.dtd">
<svg xmlns:xlink="http://www.w3.org/1999/xlink" width="765.72pt" height="210.26235pt" viewBox="0 0 765.72 210.26235" xmlns="http://www.w3.org/2000/svg" version="1.1">
 <metadata>
  <rdf:RDF xmlns:dc="http://purl.org/dc/elements/1.1/" xmlns:cc="http://creativecommons.org/ns#" xmlns:rdf="http://www.w3.org/1999/02/22-rdf-syntax-ns#">
   <cc:Work>
    <dc:type rdf:resource="http://purl.org/dc/dcmitype/StillImage"/>
    <dc:date>2025-05-29T18:44:07.170323</dc:date>
    <dc:format>image/svg+xml</dc:format>
    <dc:creator>
     <cc:Agent>
      <dc:title>Matplotlib v3.10.3, https://matplotlib.org/</dc:title>
     </cc:Agent>
    </dc:creator>
   </cc:Work>
  </rdf:RDF>
 </metadata>
 <defs>
  <style type="text/css">*{stroke-linejoin: round; stroke-linecap: butt}</style>
 </defs>
 <g id="figure_1">
  <g id="patch_1">
   <path d="M 0 210.26235 
L 765.72 210.26235 
L 765.72 0 
L 0 0 
z
" style="fill: #ffffff"/>
  </g>
  <g id="axes_1">
   <g id="text_1">
    <!-- Let $\mathbf{S} = \{(a,b) | a = 1, 2, \dots,n, b = 1,2,3\}$. -->
    <g transform="translate(274.92 41.380237) scale(0.12 -0.12)">
     <defs>
      <path id="DejaVuSerif-4c" d="M 353 0 
L 353 331 
L 947 331 
L 947 4331 
L 353 4331 
L 353 4666 
L 2175 4666 
L 2175 4331 
L 1581 4331 
L 1581 384 
L 3713 384 
L 3713 1166 
L 4097 1166 
L 4097 0 
L 353 0 
z
" transform="scale(0.015625)"/>
      <path id="DejaVuSerif-65" d="M 3469 1600 
L 991 1600 
L 991 1575 
Q 991 903 1244 561 
Q 1497 219 1991 219 
Q 2369 219 2611 417 
Q 2853 616 2950 1006 
L 3413 1006 
Q 3275 459 2904 184 
Q 2534 -91 1931 -91 
Q 1203 -91 761 389 
Q 319 869 319 1663 
Q 319 2450 753 2931 
Q 1188 3413 1894 3413 
Q 2647 3413 3050 2948 
Q 3453 2484 3469 1600 
z
M 2791 1931 
Q 2772 2513 2545 2808 
Q 2319 3103 1894 3103 
Q 1497 3103 1269 2806 
Q 1041 2509 991 1931 
L 2791 1931 
z
" transform="scale(0.015625)"/>
      <path id="DejaVuSerif-74" d="M 691 2988 
L 184 2988 
L 184 3322 
L 691 3322 
L 691 4353 
L 1269 4353 
L 1269 3322 
L 2350 3322 
L 2350 2988 
L 1269 2988 
L 1269 878 
Q 1269 456 1350 337 
Q 1431 219 1650 219 
Q 1875 219 1978 351 
Q 2081 484 2088 781 
L 2522 781 
Q 2497 328 2275 118 
Q 2053 -91 1600 -91 
Q 1103 -91 897 129 
Q 691 350 691 878 
L 691 2988 
z
" transform="scale(0.015625)"/>
      <path id="DejaVuSerif-20" transform="scale(0.015625)"/>
      <path id="Cmb10-53" d="M 359 13 
L 359 1381 
Q 375 1444 441 1459 
L 609 1459 
Q 669 1444 684 1381 
Q 684 1022 848 764 
Q 1013 506 1302 381 
Q 1591 256 1953 256 
Q 2247 256 2397 470 
Q 2547 684 2547 991 
Q 2547 1144 2494 1294 
Q 2441 1444 2331 1556 
Q 2222 1669 2069 1709 
L 1300 1900 
Q 878 2006 618 2367 
Q 359 2728 359 3163 
Q 359 3534 511 3831 
Q 663 4128 942 4293 
Q 1222 4459 1600 4459 
Q 2153 4459 2516 4141 
L 2809 4434 
Q 2834 4453 2869 4459 
L 2944 4459 
Q 3006 4441 3022 4384 
L 3022 3016 
Q 3006 2950 2944 2931 
L 2778 2931 
Q 2709 2947 2694 3016 
Q 2694 3219 2587 3481 
Q 2481 3744 2338 3878 
Q 2194 4025 2008 4092 
Q 1822 4159 1600 4159 
Q 1413 4159 1280 4073 
Q 1147 3988 1076 3839 
Q 1006 3691 1006 3500 
Q 1006 3278 1132 3095 
Q 1259 2913 1472 2853 
L 2241 2669 
Q 2528 2597 2743 2392 
Q 2959 2188 3076 1902 
Q 3194 1616 3194 1319 
Q 3194 934 3050 617 
Q 2906 300 2625 114 
Q 2344 -72 1953 -72 
Q 1297 -72 872 250 
L 569 -44 
Q 544 -59 513 -72 
L 441 -72 
Q 375 -50 359 13 
z
" transform="scale(0.015625)"/>
      <path id="Cmr10-3d" d="M 481 850 
Q 428 850 393 890 
Q 359 931 359 978 
Q 359 1031 393 1068 
Q 428 1106 481 1106 
L 4500 1106 
Q 4547 1106 4581 1068 
Q 4616 1031 4616 978 
Q 4616 931 4581 890 
Q 4547 850 4500 850 
L 481 850 
z
M 481 2094 
Q 428 2094 393 2131 
Q 359 2169 359 2222 
Q 359 2269 393 2309 
Q 428 2350 481 2350 
L 4500 2350 
Q 4547 2350 4581 2309 
Q 4616 2269 4616 2222 
Q 4616 2169 4581 2131 
Q 4547 2094 4500 2094 
L 481 2094 
z
" transform="scale(0.015625)"/>
      <path id="Cmex10-a9" d="M 1631 -6425 
L 1631 -4556 
Q 1631 -4338 1503 -4159 
Q 1375 -3981 1184 -3867 
Q 994 -3753 756 -3675 
Q 709 -3650 709 -3622 
L 709 -3547 
Q 709 -3503 756 -3494 
Q 1128 -3366 1379 -3150 
Q 1631 -2934 1631 -2606 
L 1631 -738 
Q 1631 -325 2004 -95 
Q 2378 134 2888 256 
L 2963 256 
Q 2981 256 2998 242 
Q 3016 228 3016 206 
L 3016 128 
Q 3016 91 2975 78 
Q 2619 -31 2359 -232 
Q 2100 -434 2100 -750 
L 2100 -2619 
Q 2100 -2994 1804 -3214 
Q 1509 -3434 1056 -3584 
Q 1497 -3716 1798 -3939 
Q 2100 -4163 2100 -4544 
L 2100 -6413 
Q 2100 -6628 2231 -6790 
Q 2363 -6953 2556 -7059 
Q 2750 -7166 2975 -7238 
Q 3016 -7250 3016 -7291 
L 3016 -7366 
Q 3016 -7384 2998 -7401 
Q 2981 -7419 2963 -7419 
L 2888 -7419 
Q 2559 -7338 2292 -7227 
Q 2025 -7116 1828 -6914 
Q 1631 -6713 1631 -6425 
z
" transform="scale(0.015625)"/>
      <path id="Cmr10-28" d="M 1984 -1588 
Q 1628 -1306 1370 -942 
Q 1113 -578 948 -165 
Q 784 247 703 697 
Q 622 1147 622 1600 
Q 622 2059 703 2509 
Q 784 2959 951 3375 
Q 1119 3791 1378 4153 
Q 1638 4516 1984 4788 
Q 1984 4800 2016 4800 
L 2075 4800 
Q 2094 4800 2109 4783 
Q 2125 4766 2125 4744 
Q 2125 4716 2113 4703 
Q 1800 4397 1592 4047 
Q 1384 3697 1257 3301 
Q 1131 2906 1075 2482 
Q 1019 2059 1019 1600 
Q 1019 -434 2106 -1491 
Q 2125 -1509 2125 -1544 
Q 2125 -1559 2108 -1579 
Q 2091 -1600 2075 -1600 
L 2016 -1600 
Q 1984 -1600 1984 -1588 
z
" transform="scale(0.015625)"/>
      <path id="Cmmi10-61" d="M 1113 -72 
Q 709 -72 476 233 
Q 244 538 244 953 
Q 244 1363 456 1803 
Q 669 2244 1030 2536 
Q 1391 2828 1806 2828 
Q 1997 2828 2147 2725 
Q 2297 2622 2381 2444 
Q 2453 2700 2663 2700 
Q 2744 2700 2798 2651 
Q 2853 2603 2853 2522 
Q 2853 2503 2851 2493 
Q 2850 2484 2847 2472 
L 2400 684 
Q 2356 494 2356 372 
Q 2356 97 2541 97 
Q 2741 97 2845 351 
Q 2950 606 3022 941 
Q 3034 978 3072 978 
L 3150 978 
Q 3175 978 3190 956 
Q 3206 934 3206 916 
Q 3094 469 2961 198 
Q 2828 -72 2528 -72 
Q 2313 -72 2147 54 
Q 1981 181 1941 391 
Q 1528 -72 1113 -72 
z
M 1119 97 
Q 1350 97 1567 270 
Q 1784 444 1941 678 
Q 1947 684 1947 697 
L 2291 2088 
L 2297 2106 
Q 2259 2334 2132 2498 
Q 2006 2663 1791 2663 
Q 1575 2663 1389 2486 
Q 1203 2309 1075 2069 
Q 950 1813 836 1366 
Q 722 919 722 672 
Q 722 450 817 273 
Q 913 97 1119 97 
z
" transform="scale(0.015625)"/>
      <path id="Cmmi10-3b" d="M 634 -1153 
Q 634 -1125 659 -1100 
Q 891 -878 1019 -587 
Q 1147 -297 1147 25 
L 1147 103 
Q 1044 0 891 0 
Q 744 0 641 103 
Q 538 206 538 353 
Q 538 503 641 603 
Q 744 703 891 703 
Q 1119 703 1216 492 
Q 1313 281 1313 25 
Q 1313 -331 1170 -651 
Q 1028 -972 769 -1228 
Q 744 -1241 728 -1241 
Q 697 -1241 665 -1212 
Q 634 -1184 634 -1153 
z
" transform="scale(0.015625)"/>
      <path id="Cmmi10-62" d="M 1106 -72 
Q 719 -72 503 231 
Q 288 534 288 941 
Q 288 1000 317 1173 
Q 347 1347 347 1388 
L 966 3872 
Q 991 3981 997 4044 
Q 997 4147 581 4147 
Q 519 4147 519 4231 
Q 522 4247 533 4287 
Q 544 4328 561 4350 
Q 578 4372 609 4372 
L 1472 4441 
Q 1550 4441 1550 4359 
L 1075 2472 
Q 1438 2828 1806 2828 
Q 2078 2828 2273 2684 
Q 2469 2541 2566 2306 
Q 2663 2072 2663 1806 
Q 2663 1497 2542 1167 
Q 2422 838 2209 555 
Q 1997 272 1712 100 
Q 1428 -72 1106 -72 
z
M 1119 97 
Q 1338 97 1528 280 
Q 1719 463 1838 691 
Q 1966 947 2077 1386 
Q 2188 1825 2188 2088 
Q 2188 2316 2092 2489 
Q 1997 2663 1791 2663 
Q 1559 2663 1348 2492 
Q 1138 2322 978 2088 
L 800 1363 
Q 697 959 691 716 
Q 691 475 795 286 
Q 900 97 1119 97 
z
" transform="scale(0.015625)"/>
      <path id="Cmr10-29" d="M 416 -1600 
Q 359 -1600 359 -1544 
Q 359 -1516 372 -1503 
Q 1466 -434 1466 1600 
Q 1466 3634 384 4691 
Q 359 4706 359 4744 
Q 359 4766 376 4783 
Q 394 4800 416 4800 
L 475 4800 
Q 494 4800 506 4788 
Q 966 4425 1272 3906 
Q 1578 3388 1720 2800 
Q 1863 2213 1863 1600 
Q 1863 1147 1786 708 
Q 1709 269 1542 -157 
Q 1375 -584 1119 -945 
Q 863 -1306 506 -1588 
Q 494 -1600 475 -1600 
L 416 -1600 
z
" transform="scale(0.015625)"/>
      <path id="Cmsy10-6a" d="M 763 -1484 
L 763 4684 
Q 763 4734 800 4767 
Q 838 4800 891 4800 
Q 938 4800 978 4767 
Q 1019 4734 1019 4684 
L 1019 -1484 
Q 1019 -1534 978 -1567 
Q 938 -1600 891 -1600 
Q 838 -1600 800 -1567 
Q 763 -1534 763 -1484 
z
" transform="scale(0.015625)"/>
      <path id="Cmr10-31" d="M 594 0 
L 594 225 
Q 1394 225 1394 428 
L 1394 3788 
Q 1063 3628 556 3628 
L 556 3853 
Q 1341 3853 1741 4263 
L 1831 4263 
Q 1853 4263 1873 4245 
Q 1894 4228 1894 4206 
L 1894 428 
Q 1894 225 2694 225 
L 2694 0 
L 594 0 
z
" transform="scale(0.015625)"/>
      <path id="Cmr10-32" d="M 319 0 
L 319 172 
Q 319 188 331 206 
L 1325 1306 
Q 1550 1550 1690 1715 
Q 1831 1881 1968 2097 
Q 2106 2313 2186 2536 
Q 2266 2759 2266 3009 
Q 2266 3272 2169 3511 
Q 2072 3750 1880 3894 
Q 1688 4038 1416 4038 
Q 1138 4038 916 3870 
Q 694 3703 603 3438 
Q 628 3444 672 3444 
Q 816 3444 917 3347 
Q 1019 3250 1019 3097 
Q 1019 2950 917 2848 
Q 816 2747 672 2747 
Q 522 2747 420 2851 
Q 319 2956 319 3097 
Q 319 3338 409 3548 
Q 500 3759 670 3923 
Q 841 4088 1055 4175 
Q 1269 4263 1509 4263 
Q 1875 4263 2190 4108 
Q 2506 3953 2690 3670 
Q 2875 3388 2875 3009 
Q 2875 2731 2753 2481 
Q 2631 2231 2440 2026 
Q 2250 1822 1953 1562 
Q 1656 1303 1563 1216 
L 838 519 
L 1453 519 
Q 1906 519 2211 526 
Q 2516 534 2534 550 
Q 2609 631 2688 1141 
L 2875 1141 
L 2694 0 
L 319 0 
z
" transform="scale(0.015625)"/>
      <path id="STIXGeneral-Regular-2026" d="M 5683 275 
Q 5683 134 5577 32 
Q 5472 -70 5325 -70 
Q 5178 -70 5075 32 
Q 4973 134 4973 281 
Q 4973 429 5078 534 
Q 5184 640 5331 640 
Q 5472 640 5577 531 
Q 5683 422 5683 275 
z
M 3552 275 
Q 3552 134 3446 32 
Q 3341 -70 3193 -70 
Q 3046 -70 2944 32 
Q 2842 134 2842 281 
Q 2842 429 2947 534 
Q 3053 640 3200 640 
Q 3341 640 3446 531 
Q 3552 422 3552 275 
z
M 1421 275 
Q 1421 134 1315 32 
Q 1210 -70 1062 -70 
Q 915 -70 812 32 
Q 710 134 710 281 
Q 710 429 816 534 
Q 922 640 1069 640 
Q 1210 640 1315 531 
Q 1421 422 1421 275 
z
" transform="scale(0.015625)"/>
      <path id="Cmmi10-6e" d="M 494 109 
Q 494 147 500 166 
L 978 2075 
Q 1025 2253 1025 2388 
Q 1025 2663 838 2663 
Q 638 2663 541 2423 
Q 444 2184 353 1819 
Q 353 1800 334 1789 
Q 316 1778 300 1778 
L 225 1778 
Q 203 1778 187 1801 
Q 172 1825 172 1844 
Q 241 2122 305 2315 
Q 369 2509 505 2668 
Q 641 2828 844 2828 
Q 1084 2828 1268 2676 
Q 1453 2525 1453 2291 
Q 1644 2541 1900 2684 
Q 2156 2828 2444 2828 
Q 2672 2828 2837 2750 
Q 3003 2672 3095 2514 
Q 3188 2356 3188 2138 
Q 3188 1875 3070 1503 
Q 2953 1131 2778 672 
Q 2688 463 2688 288 
Q 2688 97 2834 97 
Q 3084 97 3251 365 
Q 3419 634 3488 941 
Q 3500 978 3541 978 
L 3616 978 
Q 3641 978 3658 962 
Q 3675 947 3675 922 
Q 3675 916 3669 903 
Q 3581 541 3364 234 
Q 3147 -72 2822 -72 
Q 2597 -72 2437 83 
Q 2278 238 2278 459 
Q 2278 578 2328 709 
Q 2409 919 2514 1209 
Q 2619 1500 2686 1765 
Q 2753 2031 2753 2234 
Q 2753 2413 2679 2538 
Q 2606 2663 2431 2663 
Q 2197 2663 2000 2559 
Q 1803 2456 1656 2286 
Q 1509 2116 1388 1881 
L 953 141 
Q 931 53 854 -9 
Q 778 -72 684 -72 
Q 606 -72 550 -22 
Q 494 28 494 109 
z
" transform="scale(0.015625)"/>
      <path id="Cmr10-33" d="M 609 494 
Q 759 275 1012 169 
Q 1266 63 1556 63 
Q 1928 63 2084 380 
Q 2241 697 2241 1100 
Q 2241 1281 2208 1462 
Q 2175 1644 2097 1800 
Q 2019 1956 1883 2050 
Q 1747 2144 1550 2144 
L 1125 2144 
Q 1069 2144 1069 2203 
L 1069 2259 
Q 1069 2309 1125 2309 
L 1478 2338 
Q 1703 2338 1851 2506 
Q 2000 2675 2069 2917 
Q 2138 3159 2138 3378 
Q 2138 3684 1994 3881 
Q 1850 4078 1556 4078 
Q 1313 4078 1091 3986 
Q 869 3894 738 3706 
Q 750 3709 759 3711 
Q 769 3713 781 3713 
Q 925 3713 1022 3613 
Q 1119 3513 1119 3372 
Q 1119 3234 1022 3134 
Q 925 3034 781 3034 
Q 641 3034 541 3134 
Q 441 3234 441 3372 
Q 441 3647 606 3850 
Q 772 4053 1033 4158 
Q 1294 4263 1556 4263 
Q 1750 4263 1965 4205 
Q 2181 4147 2356 4039 
Q 2531 3931 2642 3762 
Q 2753 3594 2753 3378 
Q 2753 3109 2633 2881 
Q 2513 2653 2303 2487 
Q 2094 2322 1844 2241 
Q 2122 2188 2372 2031 
Q 2622 1875 2773 1631 
Q 2925 1388 2925 1106 
Q 2925 753 2731 467 
Q 2538 181 2222 20 
Q 1906 -141 1556 -141 
Q 1256 -141 954 -26 
Q 653 88 461 316 
Q 269 544 269 863 
Q 269 1022 375 1128 
Q 481 1234 641 1234 
Q 744 1234 830 1186 
Q 916 1138 964 1050 
Q 1013 963 1013 863 
Q 1013 706 903 600 
Q 794 494 641 494 
L 609 494 
z
" transform="scale(0.015625)"/>
      <path id="Cmex10-aa" d="M 709 -7366 
L 709 -7291 
Q 709 -7247 756 -7238 
Q 1631 -6953 1631 -6413 
L 1631 -4544 
Q 1631 -3909 2669 -3584 
Q 2219 -3431 1925 -3209 
Q 1631 -2988 1631 -2619 
L 1631 -750 
Q 1631 -206 756 78 
Q 709 88 709 128 
L 709 206 
Q 709 256 769 256 
L 844 256 
Q 1359 131 1729 -97 
Q 2100 -325 2100 -738 
L 2100 -2606 
Q 2100 -2925 2354 -3142 
Q 2609 -3359 2975 -3494 
Q 3016 -3506 3016 -3547 
L 3016 -3622 
Q 3016 -3641 2975 -3675 
Q 2769 -3744 2566 -3864 
Q 2363 -3984 2231 -4161 
Q 2100 -4338 2100 -4556 
L 2100 -6425 
Q 2100 -6713 1901 -6914 
Q 1703 -7116 1437 -7227 
Q 1172 -7338 844 -7419 
L 769 -7419 
Q 744 -7419 726 -7401 
Q 709 -7384 709 -7366 
z
" transform="scale(0.015625)"/>
      <path id="DejaVuSerif-2e" d="M 603 325 
Q 603 500 722 622 
Q 841 744 1019 744 
Q 1191 744 1312 622 
Q 1434 500 1434 325 
Q 1434 153 1312 31 
Q 1191 -91 1019 -91 
Q 841 -91 722 29 
Q 603 150 603 325 
z
" transform="scale(0.015625)"/>
     </defs>
     <use xlink:href="#DejaVuSerif-4c" transform="translate(0 0.705729)"/>
     <use xlink:href="#DejaVuSerif-65" transform="translate(66.40625 0.705729)"/>
     <use xlink:href="#DejaVuSerif-74" transform="translate(125.585938 0.705729)"/>
     <use xlink:href="#DejaVuSerif-20" transform="translate(165.771484 0.705729)"/>
     <use xlink:href="#Cmb10-53" transform="translate(197.558594 0.705729)"/>
     <use xlink:href="#Cmr10-3d" transform="translate(270.634766 0.705729)"/>
     <use xlink:href="#Cmex10-a9" transform="translate(365.878906 94)"/>
     <use xlink:href="#Cmr10-28" transform="translate(424.179688 0.705729)"/>
     <use xlink:href="#Cmmi10-61" transform="translate(462.998047 0.705729)"/>
     <use xlink:href="#Cmmi10-3b" transform="translate(515.78125 0.705729)"/>
     <use xlink:href="#Cmmi10-62" transform="translate(561.025391 0.705729)"/>
     <use xlink:href="#Cmr10-29" transform="translate(603.945312 0.705729)"/>
     <use xlink:href="#Cmsy10-6a" transform="translate(642.763672 0.705729)"/>
     <use xlink:href="#Cmmi10-61" transform="translate(670.449219 0.705729)"/>
     <use xlink:href="#Cmr10-3d" transform="translate(740.791016 0.705729)"/>
     <use xlink:href="#Cmr10-31" transform="translate(836.035156 0.705729)"/>
     <use xlink:href="#Cmmi10-3b" transform="translate(886.035156 0.705729)"/>
     <use xlink:href="#Cmr10-32" transform="translate(931.279297 0.705729)"/>
     <use xlink:href="#Cmmi10-3b" transform="translate(981.279297 0.705729)"/>
     <use xlink:href="#STIXGeneral-Regular-2026" transform="translate(1044.082031 0.705729)"/>
     <use xlink:href="#Cmmi10-3b" transform="translate(1161.64061 0.705729)"/>
     <use xlink:href="#Cmmi10-6e" transform="translate(1206.88475 0.705729)"/>
     <use xlink:href="#Cmmi10-3b" transform="translate(1266.894516 0.705729)"/>
     <use xlink:href="#Cmmi10-62" transform="translate(1312.138657 0.705729)"/>
     <use xlink:href="#Cmr10-3d" transform="translate(1372.617172 0.705729)"/>
     <use xlink:href="#Cmr10-31" transform="translate(1467.861313 0.705729)"/>
     <use xlink:href="#Cmmi10-3b" transform="translate(1517.861313 0.705729)"/>
     <use xlink:href="#Cmr10-32" transform="translate(1563.105453 0.705729)"/>
     <use xlink:href="#Cmmi10-3b" transform="translate(1613.105453 0.705729)"/>
     <use xlink:href="#Cmr10-33" transform="translate(1658.349594 0.705729)"/>
     <use xlink:href="#Cmex10-aa" transform="translate(1708.349594 94)"/>
     <use xlink:href="#DejaVuSerif-2e" transform="translate(1766.650375 0.705729)"/>
    </g>
    <!-- A \emph{rook tour} of $\mathbf{S}$ is a polygonal path made up of line segments connecting points $p_1, p_2, \dots, p_{3n}$ in sequence such that -->
    <g transform="translate(7.2 55.324237) scale(0.12 -0.12)">
     <defs>
      <path id="DejaVuSerif-41" d="M 1281 1691 
L 2994 1691 
L 2138 3909 
L 1281 1691 
z
M -38 0 
L -38 331 
L 372 331 
L 2034 4666 
L 2559 4666 
L 4225 331 
L 4684 331 
L 4684 0 
L 2988 0 
L 2988 331 
L 3506 331 
L 3116 1356 
L 1153 1356 
L 763 331 
L 1275 331 
L 1275 0 
L -38 0 
z
" transform="scale(0.015625)"/>
      <path id="DejaVuSerif-5c" d="M 500 4666 
L 2156 -594 
L 1656 -594 
L 0 4666 
L 500 4666 
z
" transform="scale(0.015625)"/>
      <path id="DejaVuSerif-6d" d="M 3316 2675 
Q 3481 3041 3739 3227 
Q 3997 3413 4341 3413 
Q 4863 3413 5119 3089 
Q 5375 2766 5375 2113 
L 5375 331 
L 5894 331 
L 5894 0 
L 4300 0 
L 4300 331 
L 4800 331 
L 4800 2047 
Q 4800 2556 4650 2772 
Q 4500 2988 4153 2988 
Q 3769 2988 3567 2697 
Q 3366 2406 3366 1850 
L 3366 331 
L 3866 331 
L 3866 0 
L 2291 0 
L 2291 331 
L 2791 331 
L 2791 2069 
Q 2791 2566 2641 2777 
Q 2491 2988 2144 2988 
Q 1759 2988 1557 2697 
Q 1356 2406 1356 1850 
L 1356 331 
L 1856 331 
L 1856 0 
L 263 0 
L 263 331 
L 781 331 
L 781 2994 
L 231 2994 
L 231 3322 
L 1356 3322 
L 1356 2731 
Q 1516 3063 1762 3238 
Q 2009 3413 2322 3413 
Q 2709 3413 2968 3220 
Q 3228 3028 3316 2675 
z
" transform="scale(0.015625)"/>
      <path id="DejaVuSerif-70" d="M 1313 1825 
L 1313 1497 
Q 1313 897 1542 583 
Q 1772 269 2209 269 
Q 2650 269 2876 622 
Q 3103 975 3103 1663 
Q 3103 2353 2876 2703 
Q 2650 3053 2209 3053 
Q 1772 3053 1542 2737 
Q 1313 2422 1313 1825 
z
M 738 2988 
L 184 2988 
L 184 3322 
L 1313 3322 
L 1313 2803 
Q 1481 3116 1742 3264 
Q 2003 3413 2388 3413 
Q 3000 3413 3387 2928 
Q 3775 2444 3775 1663 
Q 3775 881 3387 395 
Q 3000 -91 2388 -91 
Q 2003 -91 1742 57 
Q 1481 206 1313 519 
L 1313 -997 
L 1856 -997 
L 1856 -1331 
L 184 -1331 
L 184 -997 
L 738 -997 
L 738 2988 
z
" transform="scale(0.015625)"/>
      <path id="DejaVuSerif-68" d="M 263 0 
L 263 331 
L 781 331 
L 781 4531 
L 231 4531 
L 231 4863 
L 1356 4863 
L 1356 2731 
Q 1516 3069 1770 3241 
Q 2025 3413 2363 3413 
Q 2913 3413 3172 3097 
Q 3431 2781 3431 2113 
L 3431 331 
L 3944 331 
L 3944 0 
L 2356 0 
L 2356 331 
L 2853 331 
L 2853 1931 
Q 2853 2541 2704 2764 
Q 2556 2988 2175 2988 
Q 1775 2988 1565 2697 
Q 1356 2406 1356 1850 
L 1356 331 
L 1856 331 
L 1856 0 
L 263 0 
z
" transform="scale(0.015625)"/>
      <path id="DejaVuSerif-7b" d="M 3272 -716 
L 3272 -1044 
L 3078 -1044 
Q 2300 -1044 2036 -812 
Q 1772 -581 1772 109 
L 1772 916 
Q 1772 1384 1603 1565 
Q 1434 1747 991 1747 
L 800 1747 
L 800 2075 
L 991 2075 
Q 1434 2075 1603 2256 
Q 1772 2438 1772 2906 
L 1772 3713 
Q 1772 4403 2036 4633 
Q 2300 4863 3078 4863 
L 3272 4863 
L 3272 4538 
L 3059 4538 
Q 2619 4538 2484 4400 
Q 2350 4263 2350 3822 
L 2350 2925 
Q 2350 2431 2194 2218 
Q 2038 2006 1631 1913 
Q 2044 1806 2197 1597 
Q 2350 1388 2350 897 
L 2350 0 
Q 2350 -441 2484 -578 
Q 2619 -716 3059 -716 
L 3272 -716 
z
" transform="scale(0.015625)"/>
      <path id="DejaVuSerif-72" d="M 3059 3328 
L 3059 2497 
L 2728 2497 
Q 2713 2744 2591 2866 
Q 2469 2988 2234 2988 
Q 1809 2988 1582 2694 
Q 1356 2400 1356 1850 
L 1356 331 
L 2022 331 
L 2022 0 
L 263 0 
L 263 331 
L 781 331 
L 781 2994 
L 231 2994 
L 231 3322 
L 1356 3322 
L 1356 2731 
Q 1525 3078 1790 3245 
Q 2056 3413 2438 3413 
Q 2578 3413 2733 3391 
Q 2888 3369 3059 3328 
z
" transform="scale(0.015625)"/>
      <path id="DejaVuSerif-6f" d="M 1925 219 
Q 2388 219 2623 584 
Q 2859 950 2859 1663 
Q 2859 2375 2623 2739 
Q 2388 3103 1925 3103 
Q 1463 3103 1227 2739 
Q 991 2375 991 1663 
Q 991 950 1228 584 
Q 1466 219 1925 219 
z
M 1925 -91 
Q 1200 -91 759 389 
Q 319 869 319 1663 
Q 319 2456 758 2934 
Q 1197 3413 1925 3413 
Q 2653 3413 3092 2934 
Q 3531 2456 3531 1663 
Q 3531 869 3092 389 
Q 2653 -91 1925 -91 
z
" transform="scale(0.015625)"/>
      <path id="DejaVuSerif-6b" d="M 1831 0 
L 219 0 
L 219 331 
L 738 331 
L 738 4531 
L 184 4531 
L 184 4863 
L 1313 4863 
L 1313 1697 
L 2713 2988 
L 2234 2988 
L 2234 3322 
L 3738 3322 
L 3738 2988 
L 3169 2988 
L 2181 2075 
L 3444 331 
L 3922 331 
L 3922 0 
L 2284 0 
L 2284 331 
L 2759 331 
L 1766 1697 
L 1313 1275 
L 1313 331 
L 1831 331 
L 1831 0 
z
" transform="scale(0.015625)"/>
      <path id="DejaVuSerif-75" d="M 2266 3322 
L 3341 3322 
L 3341 331 
L 3884 331 
L 3884 0 
L 2766 0 
L 2766 588 
Q 2606 256 2353 82 
Q 2100 -91 1766 -91 
Q 1213 -91 952 223 
Q 691 538 691 1209 
L 691 2988 
L 172 2988 
L 172 3322 
L 1269 3322 
L 1269 1388 
Q 1269 781 1417 556 
Q 1566 331 1947 331 
Q 2347 331 2556 625 
Q 2766 919 2766 1478 
L 2766 2988 
L 2266 2988 
L 2266 3322 
z
" transform="scale(0.015625)"/>
      <path id="DejaVuSerif-7d" d="M 800 -716 
L 1019 -716 
Q 1456 -716 1589 -580 
Q 1722 -444 1722 0 
L 1722 897 
Q 1722 1388 1875 1597 
Q 2028 1806 2438 1913 
Q 2031 2006 1876 2218 
Q 1722 2431 1722 2925 
L 1722 3822 
Q 1722 4266 1589 4402 
Q 1456 4538 1019 4538 
L 800 4538 
L 800 4863 
L 997 4863 
Q 1775 4863 2036 4633 
Q 2297 4403 2297 3713 
L 2297 2906 
Q 2297 2438 2465 2256 
Q 2634 2075 3078 2075 
L 3272 2075 
L 3272 1747 
L 3078 1747 
Q 2634 1747 2465 1565 
Q 2297 1384 2297 916 
L 2297 109 
Q 2297 -581 2036 -812 
Q 1775 -1044 997 -1044 
L 800 -1044 
L 800 -716 
z
" transform="scale(0.015625)"/>
      <path id="DejaVuSerif-66" d="M 2753 4078 
L 2450 4078 
Q 2447 4313 2317 4434 
Q 2188 4556 1941 4556 
Q 1619 4556 1487 4379 
Q 1356 4203 1356 3750 
L 1356 3322 
L 2284 3322 
L 2284 2988 
L 1356 2988 
L 1356 331 
L 2094 331 
L 2094 0 
L 231 0 
L 231 331 
L 781 331 
L 781 2988 
L 231 2988 
L 231 3322 
L 781 3322 
L 781 3738 
Q 781 4294 1070 4578 
Q 1359 4863 1919 4863 
Q 2128 4863 2337 4825 
Q 2547 4788 2753 4709 
L 2753 4078 
z
" transform="scale(0.015625)"/>
      <path id="DejaVuSerif-69" d="M 622 4353 
Q 622 4497 726 4603 
Q 831 4709 978 4709 
Q 1122 4709 1226 4603 
Q 1331 4497 1331 4353 
Q 1331 4206 1228 4103 
Q 1125 4000 978 4000 
Q 831 4000 726 4103 
Q 622 4206 622 4353 
z
M 1356 331 
L 1900 331 
L 1900 0 
L 231 0 
L 231 331 
L 781 331 
L 781 2988 
L 231 2988 
L 231 3322 
L 1356 3322 
L 1356 331 
z
" transform="scale(0.015625)"/>
      <path id="DejaVuSerif-73" d="M 359 184 
L 359 959 
L 691 959 
Q 703 588 923 403 
Q 1144 219 1575 219 
Q 1963 219 2166 364 
Q 2369 509 2369 788 
Q 2369 1006 2220 1140 
Q 2072 1275 1594 1428 
L 1178 1569 
Q 750 1706 558 1912 
Q 366 2119 366 2438 
Q 366 2894 700 3153 
Q 1034 3413 1625 3413 
Q 1888 3413 2178 3344 
Q 2469 3275 2778 3144 
L 2778 2419 
L 2447 2419 
Q 2434 2741 2221 2922 
Q 2009 3103 1644 3103 
Q 1281 3103 1095 2975 
Q 909 2847 909 2591 
Q 909 2381 1050 2254 
Q 1191 2128 1613 1997 
L 2069 1856 
Q 2541 1709 2748 1489 
Q 2956 1269 2956 922 
Q 2956 450 2595 179 
Q 2234 -91 1600 -91 
Q 1278 -91 972 -22 
Q 666 47 359 184 
z
" transform="scale(0.015625)"/>
      <path id="DejaVuSerif-61" d="M 2547 1044 
L 2547 1747 
L 1806 1747 
Q 1378 1747 1168 1562 
Q 959 1378 959 997 
Q 959 650 1171 447 
Q 1384 244 1747 244 
Q 2106 244 2326 466 
Q 2547 688 2547 1044 
z
M 3122 2075 
L 3122 331 
L 3634 331 
L 3634 0 
L 2547 0 
L 2547 359 
Q 2356 128 2106 18 
Q 1856 -91 1522 -91 
Q 969 -91 644 203 
Q 319 497 319 997 
Q 319 1513 691 1797 
Q 1063 2081 1741 2081 
L 2547 2081 
L 2547 2309 
Q 2547 2688 2317 2895 
Q 2088 3103 1672 3103 
Q 1328 3103 1125 2947 
Q 922 2791 872 2484 
L 575 2484 
L 575 3156 
Q 875 3284 1158 3348 
Q 1441 3413 1709 3413 
Q 2400 3413 2761 3070 
Q 3122 2728 3122 2075 
z
" transform="scale(0.015625)"/>
      <path id="DejaVuSerif-6c" d="M 1313 331 
L 1856 331 
L 1856 0 
L 184 0 
L 184 331 
L 738 331 
L 738 4531 
L 184 4531 
L 184 4863 
L 1313 4863 
L 1313 331 
z
" transform="scale(0.015625)"/>
      <path id="DejaVuSerif-79" d="M 1381 -609 
L 1600 -56 
L 359 2988 
L -19 2988 
L -19 3322 
L 1509 3322 
L 1509 2988 
L 978 2988 
L 1913 703 
L 2847 2988 
L 2350 2988 
L 2350 3322 
L 3597 3322 
L 3597 2988 
L 3225 2988 
L 1703 -750 
Q 1547 -1138 1356 -1280 
Q 1166 -1422 819 -1422 
Q 672 -1422 517 -1397 
Q 363 -1372 206 -1325 
L 206 -691 
L 500 -691 
Q 519 -903 608 -995 
Q 697 -1088 884 -1088 
Q 1056 -1088 1161 -992 
Q 1266 -897 1381 -609 
z
" transform="scale(0.015625)"/>
      <path id="DejaVuSerif-67" d="M 3359 2988 
L 3359 72 
Q 3359 -644 2965 -1033 
Q 2572 -1422 1844 -1422 
Q 1516 -1422 1216 -1362 
Q 916 -1303 641 -1184 
L 641 -488 
L 941 -488 
Q 997 -813 1206 -963 
Q 1416 -1113 1806 -1113 
Q 2313 -1113 2548 -827 
Q 2784 -541 2784 72 
L 2784 519 
Q 2616 206 2355 57 
Q 2094 -91 1709 -91 
Q 1097 -91 708 395 
Q 319 881 319 1663 
Q 319 2444 706 2928 
Q 1094 3413 1709 3413 
Q 2094 3413 2355 3264 
Q 2616 3116 2784 2803 
L 2784 3322 
L 3909 3322 
L 3909 2988 
L 3359 2988 
z
M 2784 1825 
Q 2784 2422 2554 2737 
Q 2325 3053 1888 3053 
Q 1444 3053 1217 2703 
Q 991 2353 991 1663 
Q 991 975 1217 622 
Q 1444 269 1888 269 
Q 2325 269 2554 583 
Q 2784 897 2784 1497 
L 2784 1825 
z
" transform="scale(0.015625)"/>
      <path id="DejaVuSerif-6e" d="M 263 0 
L 263 331 
L 781 331 
L 781 2988 
L 231 2988 
L 231 3322 
L 1356 3322 
L 1356 2731 
Q 1516 3069 1770 3241 
Q 2025 3413 2363 3413 
Q 2913 3413 3172 3097 
Q 3431 2781 3431 2113 
L 3431 331 
L 3944 331 
L 3944 0 
L 2356 0 
L 2356 331 
L 2853 331 
L 2853 1931 
Q 2853 2541 2703 2767 
Q 2553 2994 2175 2994 
Q 1775 2994 1565 2701 
Q 1356 2409 1356 1850 
L 1356 331 
L 1856 331 
L 1856 0 
L 263 0 
z
" transform="scale(0.015625)"/>
      <path id="DejaVuSerif-64" d="M 3359 331 
L 3909 331 
L 3909 0 
L 2784 0 
L 2784 519 
Q 2616 206 2355 57 
Q 2094 -91 1709 -91 
Q 1097 -91 708 395 
Q 319 881 319 1663 
Q 319 2444 706 2928 
Q 1094 3413 1709 3413 
Q 2094 3413 2355 3264 
Q 2616 3116 2784 2803 
L 2784 4531 
L 2241 4531 
L 2241 4863 
L 3359 4863 
L 3359 331 
z
M 2784 1497 
L 2784 1825 
Q 2784 2422 2554 2737 
Q 2325 3053 1888 3053 
Q 1444 3053 1217 2703 
Q 991 2353 991 1663 
Q 991 975 1217 622 
Q 1444 269 1888 269 
Q 2325 269 2554 583 
Q 2784 897 2784 1497 
z
" transform="scale(0.015625)"/>
      <path id="DejaVuSerif-63" d="M 3291 997 
Q 3169 466 2822 187 
Q 2475 -91 1925 -91 
Q 1200 -91 759 389 
Q 319 869 319 1663 
Q 319 2459 759 2936 
Q 1200 3413 1925 3413 
Q 2241 3413 2553 3339 
Q 2866 3266 3181 3116 
L 3181 2266 
L 2847 2266 
Q 2781 2703 2561 2903 
Q 2341 3103 1931 3103 
Q 1466 3103 1228 2742 
Q 991 2381 991 1663 
Q 991 944 1227 581 
Q 1463 219 1931 219 
Q 2303 219 2525 412 
Q 2747 606 2828 997 
L 3291 997 
z
" transform="scale(0.015625)"/>
      <path id="Cmmi10-70" d="M -159 -1241 
Q -219 -1241 -219 -1159 
Q -197 -1019 -134 -1019 
Q 66 -1019 145 -983 
Q 225 -947 269 -800 
L 991 2081 
Q 1038 2200 1038 2388 
Q 1038 2663 850 2663 
Q 650 2663 553 2423 
Q 456 2184 366 1819 
Q 366 1778 313 1778 
L 238 1778 
Q 222 1778 203 1801 
Q 184 1825 184 1844 
Q 253 2122 317 2315 
Q 381 2509 517 2668 
Q 653 2828 856 2828 
Q 1075 2828 1240 2704 
Q 1406 2581 1453 2369 
Q 1628 2572 1840 2700 
Q 2053 2828 2278 2828 
Q 2547 2828 2745 2684 
Q 2944 2541 3044 2308 
Q 3144 2075 3144 1806 
Q 3144 1394 2933 953 
Q 2722 513 2361 220 
Q 2000 -72 1588 -72 
Q 1400 -72 1248 34 
Q 1097 141 1013 313 
L 722 -825 
Q 706 -919 703 -934 
Q 703 -1019 1125 -1019 
Q 1191 -1019 1191 -1100 
Q 1169 -1184 1155 -1212 
Q 1141 -1241 1081 -1241 
L -159 -1241 
z
M 1594 97 
Q 1816 97 2006 280 
Q 2197 463 2316 691 
Q 2403 863 2479 1111 
Q 2556 1359 2612 1640 
Q 2669 1922 2669 2088 
Q 2669 2234 2630 2362 
Q 2591 2491 2502 2577 
Q 2413 2663 2266 2663 
Q 2031 2663 1823 2495 
Q 1616 2328 1447 2081 
L 1447 2059 
L 1094 647 
Q 1138 419 1263 258 
Q 1388 97 1594 97 
z
" transform="scale(0.015625)"/>
      <path id="DejaVuSerif-71" d="M 3359 2988 
L 3359 -997 
L 3909 -997 
L 3909 -1331 
L 2241 -1331 
L 2241 -997 
L 2784 -997 
L 2784 519 
Q 2616 206 2355 57 
Q 2094 -91 1709 -91 
Q 1097 -91 708 395 
Q 319 881 319 1663 
Q 319 2444 706 2928 
Q 1094 3413 1709 3413 
Q 2094 3413 2355 3264 
Q 2616 3116 2784 2803 
L 2784 3322 
L 3909 3322 
L 3909 2988 
L 3359 2988 
z
M 2784 1825 
Q 2784 2422 2554 2737 
Q 2325 3053 1888 3053 
Q 1444 3053 1217 2703 
Q 991 2353 991 1663 
Q 991 975 1217 622 
Q 1444 269 1888 269 
Q 2325 269 2554 583 
Q 2784 897 2784 1497 
L 2784 1825 
z
" transform="scale(0.015625)"/>
     </defs>
     <use xlink:href="#DejaVuSerif-41" transform="translate(0 0.015625)"/>
     <use xlink:href="#DejaVuSerif-20" transform="translate(72.216797 0.015625)"/>
     <use xlink:href="#DejaVuSerif-5c" transform="translate(104.003906 0.015625)"/>
     <use xlink:href="#DejaVuSerif-65" transform="translate(137.695312 0.015625)"/>
     <use xlink:href="#DejaVuSerif-6d" transform="translate(196.875 0.015625)"/>
     <use xlink:href="#DejaVuSerif-70" transform="translate(291.699219 0.015625)"/>
     <use xlink:href="#DejaVuSerif-68" transform="translate(355.712891 0.015625)"/>
     <use xlink:href="#DejaVuSerif-7b" transform="translate(420.117188 0.015625)"/>
     <use xlink:href="#DejaVuSerif-72" transform="translate(483.740234 0.015625)"/>
     <use xlink:href="#DejaVuSerif-6f" transform="translate(531.542969 0.015625)"/>
     <use xlink:href="#DejaVuSerif-6f" transform="translate(591.748047 0.015625)"/>
     <use xlink:href="#DejaVuSerif-6b" transform="translate(651.953125 0.015625)"/>
     <use xlink:href="#DejaVuSerif-20" transform="translate(712.548828 0.015625)"/>
     <use xlink:href="#DejaVuSerif-74" transform="translate(744.335938 0.015625)"/>
     <use xlink:href="#DejaVuSerif-6f" transform="translate(784.521484 0.015625)"/>
     <use xlink:href="#DejaVuSerif-75" transform="translate(844.726562 0.015625)"/>
     <use xlink:href="#DejaVuSerif-72" transform="translate(909.130859 0.015625)"/>
     <use xlink:href="#DejaVuSerif-7d" transform="translate(956.933594 0.015625)"/>
     <use xlink:href="#DejaVuSerif-20" transform="translate(1020.556641 0.015625)"/>
     <use xlink:href="#DejaVuSerif-6f" transform="translate(1052.34375 0.015625)"/>
     <use xlink:href="#DejaVuSerif-66" transform="translate(1112.548828 0.015625)"/>
     <use xlink:href="#DejaVuSerif-20" transform="translate(1149.560547 0.015625)"/>
     <use xlink:href="#Cmb10-53" transform="translate(1181.347656 0.015625)"/>
     <use xlink:href="#DejaVuSerif-20" transform="translate(1236.865234 0.015625)"/>
     <use xlink:href="#DejaVuSerif-69" transform="translate(1268.652344 0.015625)"/>
     <use xlink:href="#DejaVuSerif-73" transform="translate(1300.634766 0.015625)"/>
     <use xlink:href="#DejaVuSerif-20" transform="translate(1351.953125 0.015625)"/>
     <use xlink:href="#DejaVuSerif-61" transform="translate(1383.740234 0.015625)"/>
     <use xlink:href="#DejaVuSerif-20" transform="translate(1443.359375 0.015625)"/>
     <use xlink:href="#DejaVuSerif-70" transform="translate(1475.146484 0.015625)"/>
     <use xlink:href="#DejaVuSerif-6f" transform="translate(1539.160156 0.015625)"/>
     <use xlink:href="#DejaVuSerif-6c" transform="translate(1599.365234 0.015625)"/>
     <use xlink:href="#DejaVuSerif-79" transform="translate(1631.347656 0.015625)"/>
     <use xlink:href="#DejaVuSerif-67" transform="translate(1687.841797 0.015625)"/>
     <use xlink:href="#DejaVuSerif-6f" transform="translate(1751.855469 0.015625)"/>
     <use xlink:href="#DejaVuSerif-6e" transform="translate(1812.060547 0.015625)"/>
     <use xlink:href="#DejaVuSerif-61" transform="translate(1876.464844 0.015625)"/>
     <use xlink:href="#DejaVuSerif-6c" transform="translate(1936.083984 0.015625)"/>
     <use xlink:href="#DejaVuSerif-20" transform="translate(1968.066406 0.015625)"/>
     <use xlink:href="#DejaVuSerif-70" transform="translate(1999.853516 0.015625)"/>
     <use xlink:href="#DejaVuSerif-61" transform="translate(2063.867188 0.015625)"/>
     <use xlink:href="#DejaVuSerif-74" transform="translate(2123.486328 0.015625)"/>
     <use xlink:href="#DejaVuSerif-68" transform="translate(2163.671875 0.015625)"/>
     <use xlink:href="#DejaVuSerif-20" transform="translate(2228.076172 0.015625)"/>
     <use xlink:href="#DejaVuSerif-6d" transform="translate(2259.863281 0.015625)"/>
     <use xlink:href="#DejaVuSerif-61" transform="translate(2354.6875 0.015625)"/>
     <use xlink:href="#DejaVuSerif-64" transform="translate(2414.306641 0.015625)"/>
     <use xlink:href="#DejaVuSerif-65" transform="translate(2478.320312 0.015625)"/>
     <use xlink:href="#DejaVuSerif-20" transform="translate(2537.5 0.015625)"/>
     <use xlink:href="#DejaVuSerif-75" transform="translate(2569.287109 0.015625)"/>
     <use xlink:href="#DejaVuSerif-70" transform="translate(2633.691406 0.015625)"/>
     <use xlink:href="#DejaVuSerif-20" transform="translate(2697.705078 0.015625)"/>
     <use xlink:href="#DejaVuSerif-6f" transform="translate(2729.492188 0.015625)"/>
     <use xlink:href="#DejaVuSerif-66" transform="translate(2789.697266 0.015625)"/>
     <use xlink:href="#DejaVuSerif-20" transform="translate(2826.708984 0.015625)"/>
     <use xlink:href="#DejaVuSerif-6c" transform="translate(2858.496094 0.015625)"/>
     <use xlink:href="#DejaVuSerif-69" transform="translate(2890.478516 0.015625)"/>
     <use xlink:href="#DejaVuSerif-6e" transform="translate(2922.460938 0.015625)"/>
     <use xlink:href="#DejaVuSerif-65" transform="translate(2986.865234 0.015625)"/>
     <use xlink:href="#DejaVuSerif-20" transform="translate(3046.044922 0.015625)"/>
     <use xlink:href="#DejaVuSerif-73" transform="translate(3077.832031 0.015625)"/>
     <use xlink:href="#DejaVuSerif-65" transform="translate(3129.150391 0.015625)"/>
     <use xlink:href="#DejaVuSerif-67" transform="translate(3188.330078 0.015625)"/>
     <use xlink:href="#DejaVuSerif-6d" transform="translate(3252.34375 0.015625)"/>
     <use xlink:href="#DejaVuSerif-65" transform="translate(3347.167969 0.015625)"/>
     <use xlink:href="#DejaVuSerif-6e" transform="translate(3406.347656 0.015625)"/>
     <use xlink:href="#DejaVuSerif-74" transform="translate(3470.751953 0.015625)"/>
     <use xlink:href="#DejaVuSerif-73" transform="translate(3510.9375 0.015625)"/>
     <use xlink:href="#DejaVuSerif-20" transform="translate(3562.255859 0.015625)"/>
     <use xlink:href="#DejaVuSerif-63" transform="translate(3594.042969 0.015625)"/>
     <use xlink:href="#DejaVuSerif-6f" transform="translate(3650.048828 0.015625)"/>
     <use xlink:href="#DejaVuSerif-6e" transform="translate(3710.253906 0.015625)"/>
     <use xlink:href="#DejaVuSerif-6e" transform="translate(3774.658203 0.015625)"/>
     <use xlink:href="#DejaVuSerif-65" transform="translate(3839.0625 0.015625)"/>
     <use xlink:href="#DejaVuSerif-63" transform="translate(3898.242188 0.015625)"/>
     <use xlink:href="#DejaVuSerif-74" transform="translate(3954.248047 0.015625)"/>
     <use xlink:href="#DejaVuSerif-69" transform="translate(3994.433594 0.015625)"/>
     <use xlink:href="#DejaVuSerif-6e" transform="translate(4026.416016 0.015625)"/>
     <use xlink:href="#DejaVuSerif-67" transform="translate(4090.820312 0.015625)"/>
     <use xlink:href="#DejaVuSerif-20" transform="translate(4154.833984 0.015625)"/>
     <use xlink:href="#DejaVuSerif-70" transform="translate(4186.621094 0.015625)"/>
     <use xlink:href="#DejaVuSerif-6f" transform="translate(4250.634766 0.015625)"/>
     <use xlink:href="#DejaVuSerif-69" transform="translate(4310.839844 0.015625)"/>
     <use xlink:href="#DejaVuSerif-6e" transform="translate(4342.822266 0.015625)"/>
     <use xlink:href="#DejaVuSerif-74" transform="translate(4407.226562 0.015625)"/>
     <use xlink:href="#DejaVuSerif-73" transform="translate(4447.412109 0.015625)"/>
     <use xlink:href="#DejaVuSerif-20" transform="translate(4498.730469 0.015625)"/>
     <use xlink:href="#Cmmi10-70" transform="translate(4530.517578 0.015625)"/>
     <use xlink:href="#Cmr10-31" transform="translate(4580.810547 -16.990625) scale(0.7)"/>
     <use xlink:href="#Cmmi10-3b" transform="translate(4622.187891 0.015625)"/>
     <use xlink:href="#Cmmi10-70" transform="translate(4667.432031 0.015625)"/>
     <use xlink:href="#Cmr10-32" transform="translate(4717.725 -16.990625) scale(0.7)"/>
     <use xlink:href="#Cmmi10-3b" transform="translate(4759.102344 0.015625)"/>
     <use xlink:href="#STIXGeneral-Regular-2026" transform="translate(4821.905078 0.015625)"/>
     <use xlink:href="#Cmmi10-3b" transform="translate(4939.463657 0.015625)"/>
     <use xlink:href="#Cmmi10-70" transform="translate(4984.707797 0.015625)"/>
     <use xlink:href="#Cmr10-33" transform="translate(5035.000766 -16.990625) scale(0.7)"/>
     <use xlink:href="#Cmmi10-6e" transform="translate(5070.000766 -16.990625) scale(0.7)"/>
     <use xlink:href="#DejaVuSerif-20" transform="translate(5118.384946 0.015625)"/>
     <use xlink:href="#DejaVuSerif-69" transform="translate(5150.172055 0.015625)"/>
     <use xlink:href="#DejaVuSerif-6e" transform="translate(5182.154477 0.015625)"/>
     <use xlink:href="#DejaVuSerif-20" transform="translate(5246.558774 0.015625)"/>
     <use xlink:href="#DejaVuSerif-73" transform="translate(5278.345883 0.015625)"/>
     <use xlink:href="#DejaVuSerif-65" transform="translate(5329.664243 0.015625)"/>
     <use xlink:href="#DejaVuSerif-71" transform="translate(5388.84393 0.015625)"/>
     <use xlink:href="#DejaVuSerif-75" transform="translate(5452.857602 0.015625)"/>
     <use xlink:href="#DejaVuSerif-65" transform="translate(5517.261899 0.015625)"/>
     <use xlink:href="#DejaVuSerif-6e" transform="translate(5576.441586 0.015625)"/>
     <use xlink:href="#DejaVuSerif-63" transform="translate(5640.845883 0.015625)"/>
     <use xlink:href="#DejaVuSerif-65" transform="translate(5696.851743 0.015625)"/>
     <use xlink:href="#DejaVuSerif-20" transform="translate(5756.03143 0.015625)"/>
     <use xlink:href="#DejaVuSerif-73" transform="translate(5787.818539 0.015625)"/>
     <use xlink:href="#DejaVuSerif-75" transform="translate(5839.136899 0.015625)"/>
     <use xlink:href="#DejaVuSerif-63" transform="translate(5903.541196 0.015625)"/>
     <use xlink:href="#DejaVuSerif-68" transform="translate(5959.547055 0.015625)"/>
     <use xlink:href="#DejaVuSerif-20" transform="translate(6023.951352 0.015625)"/>
     <use xlink:href="#DejaVuSerif-74" transform="translate(6055.738461 0.015625)"/>
     <use xlink:href="#DejaVuSerif-68" transform="translate(6095.924008 0.015625)"/>
     <use xlink:href="#DejaVuSerif-61" transform="translate(6160.328305 0.015625)"/>
     <use xlink:href="#DejaVuSerif-74" transform="translate(6219.947446 0.015625)"/>
    </g>
    <!-- \begin{enumerate} -->
    <g transform="translate(323.258438 69.025987) scale(0.12 -0.12)">
     <defs>
      <path id="DejaVuSerif-62" d="M 738 331 
L 738 4531 
L 184 4531 
L 184 4863 
L 1313 4863 
L 1313 2803 
Q 1481 3116 1742 3264 
Q 2003 3413 2388 3413 
Q 3000 3413 3387 2928 
Q 3775 2444 3775 1663 
Q 3775 881 3387 395 
Q 3000 -91 2388 -91 
Q 2003 -91 1742 57 
Q 1481 206 1313 519 
L 1313 0 
L 184 0 
L 184 331 
L 738 331 
z
M 1313 1497 
Q 1313 897 1542 583 
Q 1772 269 2209 269 
Q 2650 269 2876 622 
Q 3103 975 3103 1663 
Q 3103 2353 2876 2703 
Q 2650 3053 2209 3053 
Q 1772 3053 1542 2737 
Q 1313 2422 1313 1825 
L 1313 1497 
z
" transform="scale(0.015625)"/>
     </defs>
     <use xlink:href="#DejaVuSerif-5c"/>
     <use xlink:href="#DejaVuSerif-62" transform="translate(33.691406 0)"/>
     <use xlink:href="#DejaVuSerif-65" transform="translate(97.705078 0)"/>
     <use xlink:href="#DejaVuSerif-67" transform="translate(156.884766 0)"/>
     <use xlink:href="#DejaVuSerif-69" transform="translate(220.898438 0)"/>
     <use xlink:href="#DejaVuSerif-6e" transform="translate(252.880859 0)"/>
     <use xlink:href="#DejaVuSerif-7b" transform="translate(317.285156 0)"/>
     <use xlink:href="#DejaVuSerif-65" transform="translate(380.908203 0)"/>
     <use xlink:href="#DejaVuSerif-6e" transform="translate(440.087891 0)"/>
     <use xlink:href="#DejaVuSerif-75" transform="translate(504.492188 0)"/>
     <use xlink:href="#DejaVuSerif-6d" transform="translate(568.896484 0)"/>
     <use xlink:href="#DejaVuSerif-65" transform="translate(663.720703 0)"/>
     <use xlink:href="#DejaVuSerif-72" transform="translate(722.900391 0)"/>
     <use xlink:href="#DejaVuSerif-61" transform="translate(770.703125 0)"/>
     <use xlink:href="#DejaVuSerif-74" transform="translate(830.322266 0)"/>
     <use xlink:href="#DejaVuSerif-65" transform="translate(870.507812 0)"/>
     <use xlink:href="#DejaVuSerif-7d" transform="translate(929.6875 0)"/>
    </g>
    <!-- \item[(i)] $p_i \in \mathbf{S}$, -->
    <g transform="translate(337.86 82.633987) scale(0.12 -0.12)">
     <defs>
      <path id="DejaVuSerif-5b" d="M 550 4863 
L 2003 4863 
L 2003 4531 
L 1147 4531 
L 1147 -513 
L 2003 -513 
L 2003 -844 
L 550 -844 
L 550 4863 
z
" transform="scale(0.015625)"/>
      <path id="DejaVuSerif-28" d="M 2041 -997 
Q 1281 -656 893 83 
Q 506 822 506 1931 
Q 506 3044 893 3783 
Q 1281 4522 2041 4863 
L 2041 4556 
Q 1559 4225 1350 3623 
Q 1141 3022 1141 1931 
Q 1141 844 1350 242 
Q 1559 -359 2041 -691 
L 2041 -997 
z
" transform="scale(0.015625)"/>
      <path id="DejaVuSerif-29" d="M 453 -997 
L 453 -691 
Q 934 -359 1145 242 
Q 1356 844 1356 1931 
Q 1356 3022 1145 3623 
Q 934 4225 453 4556 
L 453 4863 
Q 1216 4522 1603 3783 
Q 1991 3044 1991 1931 
Q 1991 822 1603 83 
Q 1216 -656 453 -997 
z
" transform="scale(0.015625)"/>
      <path id="DejaVuSerif-5d" d="M 1947 4863 
L 1947 -844 
L 494 -844 
L 494 -513 
L 1350 -513 
L 1350 4531 
L 494 4531 
L 494 4863 
L 1947 4863 
z
" transform="scale(0.015625)"/>
      <path id="Cmmi10-69" d="M 500 459 
Q 500 578 550 709 
L 1069 2088 
Q 1153 2322 1153 2472 
Q 1153 2663 1013 2663 
Q 759 2663 595 2402 
Q 431 2141 353 1819 
Q 341 1778 300 1778 
L 225 1778 
Q 172 1778 172 1838 
L 172 1856 
Q 275 2238 487 2533 
Q 700 2828 1025 2828 
Q 1253 2828 1411 2678 
Q 1569 2528 1569 2297 
Q 1569 2178 1516 2047 
L 997 672 
Q 909 459 909 288 
Q 909 97 1056 97 
Q 1306 97 1473 364 
Q 1641 631 1709 941 
Q 1722 978 1759 978 
L 1838 978 
Q 1863 978 1878 961 
Q 1894 944 1894 922 
Q 1894 916 1888 903 
Q 1800 541 1583 234 
Q 1366 -72 1044 -72 
Q 819 -72 659 83 
Q 500 238 500 459 
z
M 1222 3878 
Q 1222 4013 1334 4122 
Q 1447 4231 1581 4231 
Q 1691 4231 1761 4164 
Q 1831 4097 1831 3994 
Q 1831 3850 1717 3742 
Q 1603 3634 1466 3634 
Q 1363 3634 1292 3704 
Q 1222 3775 1222 3878 
z
" transform="scale(0.015625)"/>
      <path id="Cmsy10-32" d="M 1356 403 
Q 1838 0 2497 0 
L 3616 0 
Q 3666 0 3698 -37 
Q 3731 -75 3731 -128 
Q 3731 -175 3698 -215 
Q 3666 -256 3616 -256 
L 2478 -256 
Q 1969 -256 1519 -12 
Q 1069 231 800 657 
Q 531 1084 531 1600 
Q 531 2116 800 2542 
Q 1069 2969 1519 3212 
Q 1969 3456 2478 3456 
L 3616 3456 
Q 3666 3456 3698 3415 
Q 3731 3375 3731 3328 
Q 3731 3275 3698 3237 
Q 3666 3200 3616 3200 
L 2497 3200 
Q 2184 3200 1889 3097 
Q 1594 2994 1356 2797 
Q 1122 2600 958 2304 
Q 794 2009 794 1728 
L 3616 1728 
Q 3666 1728 3698 1687 
Q 3731 1647 3731 1600 
Q 3731 1553 3698 1512 
Q 3666 1472 3616 1472 
L 794 1472 
Q 794 1194 958 897 
Q 1122 600 1356 403 
z
" transform="scale(0.015625)"/>
      <path id="DejaVuSerif-2c" d="M 231 -622 
Q 525 -406 662 -114 
Q 800 178 800 594 
L 800 709 
L 1416 709 
Q 1391 175 1164 -208 
Q 938 -591 481 -872 
L 231 -622 
z
" transform="scale(0.015625)"/>
     </defs>
     <use xlink:href="#DejaVuSerif-5c" transform="translate(0 0.015625)"/>
     <use xlink:href="#DejaVuSerif-69" transform="translate(33.691406 0.015625)"/>
     <use xlink:href="#DejaVuSerif-74" transform="translate(65.673828 0.015625)"/>
     <use xlink:href="#DejaVuSerif-65" transform="translate(105.859375 0.015625)"/>
     <use xlink:href="#DejaVuSerif-6d" transform="translate(165.039062 0.015625)"/>
     <use xlink:href="#DejaVuSerif-5b" transform="translate(259.863281 0.015625)"/>
     <use xlink:href="#DejaVuSerif-28" transform="translate(298.876953 0.015625)"/>
     <use xlink:href="#DejaVuSerif-69" transform="translate(337.890625 0.015625)"/>
     <use xlink:href="#DejaVuSerif-29" transform="translate(369.873047 0.015625)"/>
     <use xlink:href="#DejaVuSerif-5d" transform="translate(408.886719 0.015625)"/>
     <use xlink:href="#DejaVuSerif-20" transform="translate(447.900391 0.015625)"/>
     <use xlink:href="#Cmmi10-70" transform="translate(479.6875 0.015625)"/>
     <use xlink:href="#Cmmi10-69" transform="translate(529.980469 -16.990625) scale(0.7)"/>
     <use xlink:href="#Cmsy10-32" transform="translate(578.013086 0.015625)"/>
     <use xlink:href="#Cmb10-53" transform="translate(662.173242 0.015625)"/>
     <use xlink:href="#DejaVuSerif-2c" transform="translate(717.69082 0.015625)"/>
    </g>
    <!-- \item[(ii)] $p_i$ and $p_{i+1}$ are a unit distance apart, for -->
    <g transform="translate(230.94 96.073612) scale(0.12 -0.12)">
     <defs>
      <path id="Cmr10-2b" d="M 481 1472 
Q 428 1472 393 1512 
Q 359 1553 359 1600 
Q 359 1647 393 1687 
Q 428 1728 481 1728 
L 2363 1728 
L 2363 3616 
Q 2363 3666 2400 3698 
Q 2438 3731 2491 3731 
Q 2538 3731 2578 3698 
Q 2619 3666 2619 3616 
L 2619 1728 
L 4500 1728 
Q 4547 1728 4581 1687 
Q 4616 1647 4616 1600 
Q 4616 1553 4581 1512 
Q 4547 1472 4500 1472 
L 2619 1472 
L 2619 -416 
Q 2619 -466 2578 -498 
Q 2538 -531 2491 -531 
Q 2438 -531 2400 -498 
Q 2363 -466 2363 -416 
L 2363 1472 
L 481 1472 
z
" transform="scale(0.015625)"/>
     </defs>
     <use xlink:href="#DejaVuSerif-5c" transform="translate(0 0.015625)"/>
     <use xlink:href="#DejaVuSerif-69" transform="translate(33.691406 0.015625)"/>
     <use xlink:href="#DejaVuSerif-74" transform="translate(65.673828 0.015625)"/>
     <use xlink:href="#DejaVuSerif-65" transform="translate(105.859375 0.015625)"/>
     <use xlink:href="#DejaVuSerif-6d" transform="translate(165.039062 0.015625)"/>
     <use xlink:href="#DejaVuSerif-5b" transform="translate(259.863281 0.015625)"/>
     <use xlink:href="#DejaVuSerif-28" transform="translate(298.876953 0.015625)"/>
     <use xlink:href="#DejaVuSerif-69" transform="translate(337.890625 0.015625)"/>
     <use xlink:href="#DejaVuSerif-69" transform="translate(369.873047 0.015625)"/>
     <use xlink:href="#DejaVuSerif-29" transform="translate(401.855469 0.015625)"/>
     <use xlink:href="#DejaVuSerif-5d" transform="translate(440.869141 0.015625)"/>
     <use xlink:href="#DejaVuSerif-20" transform="translate(479.882812 0.015625)"/>
     <use xlink:href="#Cmmi10-70" transform="translate(511.669922 0.015625)"/>
     <use xlink:href="#Cmmi10-69" transform="translate(561.962891 -16.990625) scale(0.7)"/>
     <use xlink:href="#DejaVuSerif-20" transform="translate(592.436914 0.015625)"/>
     <use xlink:href="#DejaVuSerif-61" transform="translate(624.224023 0.015625)"/>
     <use xlink:href="#DejaVuSerif-6e" transform="translate(683.843164 0.015625)"/>
     <use xlink:href="#DejaVuSerif-64" transform="translate(748.247461 0.015625)"/>
     <use xlink:href="#DejaVuSerif-20" transform="translate(812.261133 0.015625)"/>
     <use xlink:href="#Cmmi10-70" transform="translate(844.048242 0.015625)"/>
     <use xlink:href="#Cmmi10-69" transform="translate(894.341211 -16.990625) scale(0.7)"/>
     <use xlink:href="#Cmr10-2b" transform="translate(930.728906 -16.990625) scale(0.7)"/>
     <use xlink:href="#Cmr10-31" transform="translate(997.399805 -16.990625) scale(0.7)"/>
     <use xlink:href="#DejaVuSerif-20" transform="translate(1038.777148 0.015625)"/>
     <use xlink:href="#DejaVuSerif-61" transform="translate(1070.564258 0.015625)"/>
     <use xlink:href="#DejaVuSerif-72" transform="translate(1130.183398 0.015625)"/>
     <use xlink:href="#DejaVuSerif-65" transform="translate(1177.986133 0.015625)"/>
     <use xlink:href="#DejaVuSerif-20" transform="translate(1237.16582 0.015625)"/>
     <use xlink:href="#DejaVuSerif-61" transform="translate(1268.95293 0.015625)"/>
     <use xlink:href="#DejaVuSerif-20" transform="translate(1328.57207 0.015625)"/>
     <use xlink:href="#DejaVuSerif-75" transform="translate(1360.35918 0.015625)"/>
     <use xlink:href="#DejaVuSerif-6e" transform="translate(1424.763477 0.015625)"/>
     <use xlink:href="#DejaVuSerif-69" transform="translate(1489.167773 0.015625)"/>
     <use xlink:href="#DejaVuSerif-74" transform="translate(1521.150195 0.015625)"/>
     <use xlink:href="#DejaVuSerif-20" transform="translate(1561.335742 0.015625)"/>
     <use xlink:href="#DejaVuSerif-64" transform="translate(1593.122852 0.015625)"/>
     <use xlink:href="#DejaVuSerif-69" transform="translate(1657.136523 0.015625)"/>
     <use xlink:href="#DejaVuSerif-73" transform="translate(1689.118945 0.015625)"/>
     <use xlink:href="#DejaVuSerif-74" transform="translate(1740.437305 0.015625)"/>
     <use xlink:href="#DejaVuSerif-61" transform="translate(1780.622852 0.015625)"/>
     <use xlink:href="#DejaVuSerif-6e" transform="translate(1840.241992 0.015625)"/>
     <use xlink:href="#DejaVuSerif-63" transform="translate(1904.646289 0.015625)"/>
     <use xlink:href="#DejaVuSerif-65" transform="translate(1960.652148 0.015625)"/>
     <use xlink:href="#DejaVuSerif-20" transform="translate(2019.831836 0.015625)"/>
     <use xlink:href="#DejaVuSerif-61" transform="translate(2051.618945 0.015625)"/>
     <use xlink:href="#DejaVuSerif-70" transform="translate(2111.238086 0.015625)"/>
     <use xlink:href="#DejaVuSerif-61" transform="translate(2175.251758 0.015625)"/>
     <use xlink:href="#DejaVuSerif-72" transform="translate(2234.870898 0.015625)"/>
     <use xlink:href="#DejaVuSerif-74" transform="translate(2282.673633 0.015625)"/>
     <use xlink:href="#DejaVuSerif-2c" transform="translate(2322.85918 0.015625)"/>
     <use xlink:href="#DejaVuSerif-20" transform="translate(2354.646289 0.015625)"/>
     <use xlink:href="#DejaVuSerif-66" transform="translate(2386.433398 0.015625)"/>
     <use xlink:href="#DejaVuSerif-6f" transform="translate(2423.445117 0.015625)"/>
     <use xlink:href="#DejaVuSerif-72" transform="translate(2483.650195 0.015625)"/>
    </g>
    <!-- $1 \leqq i &lt;3n$, -->
    <g transform="translate(356.28 109.775362) scale(0.12 -0.12)">
     <defs>
      <path id="STIXGeneral-Regular-2266" d="M 3981 1024 
L 365 2771 
L 365 2835 
L 3981 4595 
L 3981 4179 
L 1216 2803 
L 3981 1427 
L 3981 1024 
z
M 3981 -77 
L 365 -77 
L 365 346 
L 3981 346 
L 3981 -77 
z
M 3981 -1350 
L 365 -1350 
L 365 -928 
L 3981 -928 
L 3981 -1350 
z
" transform="scale(0.015625)"/>
      <path id="Cmmi10-3c" d="M 594 1491 
Q 531 1519 531 1600 
Q 531 1681 616 1722 
L 4269 3444 
Q 4294 3456 4313 3456 
Q 4369 3456 4405 3417 
Q 4441 3378 4441 3328 
Q 4441 3250 4366 3206 
L 959 1600 
L 4384 -19 
Q 4441 -38 4441 -128 
Q 4441 -178 4405 -217 
Q 4369 -256 4313 -256 
Q 4294 -256 4269 -244 
L 594 1491 
z
" transform="scale(0.015625)"/>
     </defs>
     <use xlink:href="#Cmr10-31" transform="translate(0 0.203125)"/>
     <use xlink:href="#STIXGeneral-Regular-2266" transform="translate(67.558594 0.203125)"/>
     <use xlink:href="#Cmmi10-69" transform="translate(153.617172 0.203125)"/>
     <use xlink:href="#Cmmi10-3c" transform="translate(205.599594 0.203125)"/>
     <use xlink:href="#Cmr10-33" transform="translate(300.843735 0.203125)"/>
     <use xlink:href="#Cmmi10-6e" transform="translate(350.843735 0.203125)"/>
     <use xlink:href="#DejaVuSerif-2c" transform="translate(410.8535 0.203125)"/>
    </g>
    <!-- \item[(iii)] for each $p \in \mathbf{S}$ there is a unique $i$ such that -->
    <g transform="translate(223.32 123.359362) scale(0.12 -0.12)">
     <use xlink:href="#DejaVuSerif-5c" transform="translate(0 0.015625)"/>
     <use xlink:href="#DejaVuSerif-69" transform="translate(33.691406 0.015625)"/>
     <use xlink:href="#DejaVuSerif-74" transform="translate(65.673828 0.015625)"/>
     <use xlink:href="#DejaVuSerif-65" transform="translate(105.859375 0.015625)"/>
     <use xlink:href="#DejaVuSerif-6d" transform="translate(165.039062 0.015625)"/>
     <use xlink:href="#DejaVuSerif-5b" transform="translate(259.863281 0.015625)"/>
     <use xlink:href="#DejaVuSerif-28" transform="translate(298.876953 0.015625)"/>
     <use xlink:href="#DejaVuSerif-69" transform="translate(337.890625 0.015625)"/>
     <use xlink:href="#DejaVuSerif-69" transform="translate(369.873047 0.015625)"/>
     <use xlink:href="#DejaVuSerif-69" transform="translate(401.855469 0.015625)"/>
     <use xlink:href="#DejaVuSerif-29" transform="translate(433.837891 0.015625)"/>
     <use xlink:href="#DejaVuSerif-5d" transform="translate(472.851562 0.015625)"/>
     <use xlink:href="#DejaVuSerif-20" transform="translate(511.865234 0.015625)"/>
     <use xlink:href="#DejaVuSerif-66" transform="translate(543.652344 0.015625)"/>
     <use xlink:href="#DejaVuSerif-6f" transform="translate(580.664062 0.015625)"/>
     <use xlink:href="#DejaVuSerif-72" transform="translate(640.869141 0.015625)"/>
     <use xlink:href="#DejaVuSerif-20" transform="translate(688.671875 0.015625)"/>
     <use xlink:href="#DejaVuSerif-65" transform="translate(720.458984 0.015625)"/>
     <use xlink:href="#DejaVuSerif-61" transform="translate(779.638672 0.015625)"/>
     <use xlink:href="#DejaVuSerif-63" transform="translate(839.257812 0.015625)"/>
     <use xlink:href="#DejaVuSerif-68" transform="translate(895.263672 0.015625)"/>
     <use xlink:href="#DejaVuSerif-20" transform="translate(959.667969 0.015625)"/>
     <use xlink:href="#Cmmi10-70" transform="translate(991.455078 0.015625)"/>
     <use xlink:href="#Cmsy10-32" transform="translate(1059.306641 0.015625)"/>
     <use xlink:href="#Cmb10-53" transform="translate(1143.466797 0.015625)"/>
     <use xlink:href="#DejaVuSerif-20" transform="translate(1198.984375 0.015625)"/>
     <use xlink:href="#DejaVuSerif-74" transform="translate(1230.771484 0.015625)"/>
     <use xlink:href="#DejaVuSerif-68" transform="translate(1270.957031 0.015625)"/>
     <use xlink:href="#DejaVuSerif-65" transform="translate(1335.361328 0.015625)"/>
     <use xlink:href="#DejaVuSerif-72" transform="translate(1394.541016 0.015625)"/>
     <use xlink:href="#DejaVuSerif-65" transform="translate(1442.34375 0.015625)"/>
     <use xlink:href="#DejaVuSerif-20" transform="translate(1501.523438 0.015625)"/>
     <use xlink:href="#DejaVuSerif-69" transform="translate(1533.310547 0.015625)"/>
     <use xlink:href="#DejaVuSerif-73" transform="translate(1565.292969 0.015625)"/>
     <use xlink:href="#DejaVuSerif-20" transform="translate(1616.611328 0.015625)"/>
     <use xlink:href="#DejaVuSerif-61" transform="translate(1648.398438 0.015625)"/>
     <use xlink:href="#DejaVuSerif-20" transform="translate(1708.017578 0.015625)"/>
     <use xlink:href="#DejaVuSerif-75" transform="translate(1739.804688 0.015625)"/>
     <use xlink:href="#DejaVuSerif-6e" transform="translate(1804.208984 0.015625)"/>
     <use xlink:href="#DejaVuSerif-69" transform="translate(1868.613281 0.015625)"/>
     <use xlink:href="#DejaVuSerif-71" transform="translate(1900.595703 0.015625)"/>
     <use xlink:href="#DejaVuSerif-75" transform="translate(1964.609375 0.015625)"/>
     <use xlink:href="#DejaVuSerif-65" transform="translate(2029.013672 0.015625)"/>
     <use xlink:href="#DejaVuSerif-20" transform="translate(2088.193359 0.015625)"/>
     <use xlink:href="#Cmmi10-69" transform="translate(2119.980469 0.015625)"/>
     <use xlink:href="#DejaVuSerif-20" transform="translate(2154.404297 0.015625)"/>
     <use xlink:href="#DejaVuSerif-73" transform="translate(2186.191406 0.015625)"/>
     <use xlink:href="#DejaVuSerif-75" transform="translate(2237.509766 0.015625)"/>
     <use xlink:href="#DejaVuSerif-63" transform="translate(2301.914062 0.015625)"/>
     <use xlink:href="#DejaVuSerif-68" transform="translate(2357.919922 0.015625)"/>
     <use xlink:href="#DejaVuSerif-20" transform="translate(2422.324219 0.015625)"/>
     <use xlink:href="#DejaVuSerif-74" transform="translate(2454.111328 0.015625)"/>
     <use xlink:href="#DejaVuSerif-68" transform="translate(2494.296875 0.015625)"/>
     <use xlink:href="#DejaVuSerif-61" transform="translate(2558.701172 0.015625)"/>
     <use xlink:href="#DejaVuSerif-74" transform="translate(2618.320312 0.015625)"/>
    </g>
    <!-- $p_i = p$. -->
    <g transform="translate(366.3 136.821112) scale(0.12 -0.12)">
     <use xlink:href="#Cmmi10-70" transform="translate(0 0.8125)"/>
     <use xlink:href="#Cmmi10-69" transform="translate(50.292969 -16.19375) scale(0.7)"/>
     <use xlink:href="#Cmr10-3d" transform="translate(98.325586 0.8125)"/>
     <use xlink:href="#Cmmi10-70" transform="translate(193.569727 0.8125)"/>
     <use xlink:href="#DejaVuSerif-2e" transform="translate(243.862695 0.8125)"/>
    </g>
    <!-- \end{enumerate} -->
    <g transform="translate(329.018438 150.258487) scale(0.12 -0.12)">
     <use xlink:href="#DejaVuSerif-5c"/>
     <use xlink:href="#DejaVuSerif-65" transform="translate(33.691406 0)"/>
     <use xlink:href="#DejaVuSerif-6e" transform="translate(92.871094 0)"/>
     <use xlink:href="#DejaVuSerif-64" transform="translate(157.275391 0)"/>
     <use xlink:href="#DejaVuSerif-7b" transform="translate(221.289062 0)"/>
     <use xlink:href="#DejaVuSerif-65" transform="translate(284.912109 0)"/>
     <use xlink:href="#DejaVuSerif-6e" transform="translate(344.091797 0)"/>
     <use xlink:href="#DejaVuSerif-75" transform="translate(408.496094 0)"/>
     <use xlink:href="#DejaVuSerif-6d" transform="translate(472.900391 0)"/>
     <use xlink:href="#DejaVuSerif-65" transform="translate(567.724609 0)"/>
     <use xlink:href="#DejaVuSerif-72" transform="translate(626.904297 0)"/>
     <use xlink:href="#DejaVuSerif-61" transform="translate(674.707031 0)"/>
     <use xlink:href="#DejaVuSerif-74" transform="translate(734.326172 0)"/>
     <use xlink:href="#DejaVuSerif-65" transform="translate(774.511719 0)"/>
     <use xlink:href="#DejaVuSerif-7d" transform="translate(833.691406 0)"/>
    </g>
    <!-- How many rook tours are there that begin at $(1,1)$ -->
    <g transform="translate(230.7 163.698112) scale(0.12 -0.12)">
     <defs>
      <path id="DejaVuSerif-48" d="M 353 0 
L 353 331 
L 947 331 
L 947 4331 
L 353 4331 
L 353 4666 
L 2175 4666 
L 2175 4331 
L 1581 4331 
L 1581 2719 
L 4000 2719 
L 4000 4331 
L 3406 4331 
L 3406 4666 
L 5228 4666 
L 5228 4331 
L 4634 4331 
L 4634 331 
L 5228 331 
L 5228 0 
L 3406 0 
L 3406 331 
L 4000 331 
L 4000 2338 
L 1581 2338 
L 1581 331 
L 2175 331 
L 2175 0 
L 353 0 
z
" transform="scale(0.015625)"/>
      <path id="DejaVuSerif-77" d="M 3072 3322 
L 3922 728 
L 4672 2988 
L 4191 2988 
L 4191 3322 
L 5394 3322 
L 5394 2988 
L 5025 2988 
L 4038 0 
L 3559 0 
L 2741 2484 
L 1919 0 
L 1459 0 
L 475 2988 
L 103 2988 
L 103 3322 
L 1606 3322 
L 1606 2988 
L 1069 2988 
L 1813 728 
L 2669 3322 
L 3072 3322 
z
" transform="scale(0.015625)"/>
     </defs>
     <use xlink:href="#DejaVuSerif-48" transform="translate(0 0.015625)"/>
     <use xlink:href="#DejaVuSerif-6f" transform="translate(87.207031 0.015625)"/>
     <use xlink:href="#DejaVuSerif-77" transform="translate(147.412109 0.015625)"/>
     <use xlink:href="#DejaVuSerif-20" transform="translate(233.007812 0.015625)"/>
     <use xlink:href="#DejaVuSerif-6d" transform="translate(264.794922 0.015625)"/>
     <use xlink:href="#DejaVuSerif-61" transform="translate(359.619141 0.015625)"/>
     <use xlink:href="#DejaVuSerif-6e" transform="translate(419.238281 0.015625)"/>
     <use xlink:href="#DejaVuSerif-79" transform="translate(483.642578 0.015625)"/>
     <use xlink:href="#DejaVuSerif-20" transform="translate(540.136719 0.015625)"/>
     <use xlink:href="#DejaVuSerif-72" transform="translate(571.923828 0.015625)"/>
     <use xlink:href="#DejaVuSerif-6f" transform="translate(619.726562 0.015625)"/>
     <use xlink:href="#DejaVuSerif-6f" transform="translate(679.931641 0.015625)"/>
     <use xlink:href="#DejaVuSerif-6b" transform="translate(740.136719 0.015625)"/>
     <use xlink:href="#DejaVuSerif-20" transform="translate(800.732422 0.015625)"/>
     <use xlink:href="#DejaVuSerif-74" transform="translate(832.519531 0.015625)"/>
     <use xlink:href="#DejaVuSerif-6f" transform="translate(872.705078 0.015625)"/>
     <use xlink:href="#DejaVuSerif-75" transform="translate(932.910156 0.015625)"/>
     <use xlink:href="#DejaVuSerif-72" transform="translate(997.314453 0.015625)"/>
     <use xlink:href="#DejaVuSerif-73" transform="translate(1045.117188 0.015625)"/>
     <use xlink:href="#DejaVuSerif-20" transform="translate(1096.435547 0.015625)"/>
     <use xlink:href="#DejaVuSerif-61" transform="translate(1128.222656 0.015625)"/>
     <use xlink:href="#DejaVuSerif-72" transform="translate(1187.841797 0.015625)"/>
     <use xlink:href="#DejaVuSerif-65" transform="translate(1235.644531 0.015625)"/>
     <use xlink:href="#DejaVuSerif-20" transform="translate(1294.824219 0.015625)"/>
     <use xlink:href="#DejaVuSerif-74" transform="translate(1326.611328 0.015625)"/>
     <use xlink:href="#DejaVuSerif-68" transform="translate(1366.796875 0.015625)"/>
     <use xlink:href="#DejaVuSerif-65" transform="translate(1431.201172 0.015625)"/>
     <use xlink:href="#DejaVuSerif-72" transform="translate(1490.380859 0.015625)"/>
     <use xlink:href="#DejaVuSerif-65" transform="translate(1538.183594 0.015625)"/>
     <use xlink:href="#DejaVuSerif-20" transform="translate(1597.363281 0.015625)"/>
     <use xlink:href="#DejaVuSerif-74" transform="translate(1629.150391 0.015625)"/>
     <use xlink:href="#DejaVuSerif-68" transform="translate(1669.335938 0.015625)"/>
     <use xlink:href="#DejaVuSerif-61" transform="translate(1733.740234 0.015625)"/>
     <use xlink:href="#DejaVuSerif-74" transform="translate(1793.359375 0.015625)"/>
     <use xlink:href="#DejaVuSerif-20" transform="translate(1833.544922 0.015625)"/>
     <use xlink:href="#DejaVuSerif-62" transform="translate(1865.332031 0.015625)"/>
     <use xlink:href="#DejaVuSerif-65" transform="translate(1929.345703 0.015625)"/>
     <use xlink:href="#DejaVuSerif-67" transform="translate(1988.525391 0.015625)"/>
     <use xlink:href="#DejaVuSerif-69" transform="translate(2052.539062 0.015625)"/>
     <use xlink:href="#DejaVuSerif-6e" transform="translate(2084.521484 0.015625)"/>
     <use xlink:href="#DejaVuSerif-20" transform="translate(2148.925781 0.015625)"/>
     <use xlink:href="#DejaVuSerif-61" transform="translate(2180.712891 0.015625)"/>
     <use xlink:href="#DejaVuSerif-74" transform="translate(2240.332031 0.015625)"/>
     <use xlink:href="#DejaVuSerif-20" transform="translate(2280.517578 0.015625)"/>
     <use xlink:href="#Cmr10-28" transform="translate(2312.304688 0.015625)"/>
     <use xlink:href="#Cmr10-31" transform="translate(2351.123047 0.015625)"/>
     <use xlink:href="#Cmmi10-3b" transform="translate(2401.123047 0.015625)"/>
     <use xlink:href="#Cmr10-31" transform="translate(2446.367188 0.015625)"/>
     <use xlink:href="#Cmr10-29" transform="translate(2496.367188 0.015625)"/>
    </g>
    <!-- and end at $(n,1)$? -->
    <g transform="translate(331.38 177.642112) scale(0.12 -0.12)">
     <defs>
      <path id="DejaVuSerif-3f" d="M 1125 325 
Q 1125 500 1245 622 
Q 1366 744 1544 744 
Q 1716 744 1837 622 
Q 1959 500 1959 325 
Q 1959 153 1837 31 
Q 1716 -91 1544 -91 
Q 1366 -91 1245 29 
Q 1125 150 1125 325 
z
M 434 4459 
Q 766 4606 1064 4678 
Q 1363 4750 1625 4750 
Q 2319 4750 2720 4415 
Q 3122 4081 3122 3513 
Q 3122 2931 2776 2562 
Q 2431 2194 1734 2034 
L 1734 1241 
L 1350 1241 
L 1350 2266 
Q 1903 2400 2183 2715 
Q 2463 3031 2463 3519 
Q 2463 3947 2234 4194 
Q 2006 4441 1613 4441 
Q 1256 4441 1029 4236 
Q 803 4031 738 3647 
L 434 3647 
L 434 4459 
z
" transform="scale(0.015625)"/>
     </defs>
     <use xlink:href="#DejaVuSerif-61" transform="translate(0 0.015625)"/>
     <use xlink:href="#DejaVuSerif-6e" transform="translate(59.619141 0.015625)"/>
     <use xlink:href="#DejaVuSerif-64" transform="translate(124.023438 0.015625)"/>
     <use xlink:href="#DejaVuSerif-20" transform="translate(188.037109 0.015625)"/>
     <use xlink:href="#DejaVuSerif-65" transform="translate(219.824219 0.015625)"/>
     <use xlink:href="#DejaVuSerif-6e" transform="translate(279.003906 0.015625)"/>
     <use xlink:href="#DejaVuSerif-64" transform="translate(343.408203 0.015625)"/>
     <use xlink:href="#DejaVuSerif-20" transform="translate(407.421875 0.015625)"/>
     <use xlink:href="#DejaVuSerif-61" transform="translate(439.208984 0.015625)"/>
     <use xlink:href="#DejaVuSerif-74" transform="translate(498.828125 0.015625)"/>
     <use xlink:href="#DejaVuSerif-20" transform="translate(539.013672 0.015625)"/>
     <use xlink:href="#Cmr10-28" transform="translate(570.800781 0.015625)"/>
     <use xlink:href="#Cmmi10-6e" transform="translate(609.619141 0.015625)"/>
     <use xlink:href="#Cmmi10-3b" transform="translate(669.628906 0.015625)"/>
     <use xlink:href="#Cmr10-31" transform="translate(714.873047 0.015625)"/>
     <use xlink:href="#Cmr10-29" transform="translate(764.873047 0.015625)"/>
     <use xlink:href="#DejaVuSerif-3f" transform="translate(803.691406 0.015625)"/>
    </g>
   </g>
  </g>
 </g>
</svg>
