<?xml version="1.0" encoding="utf-8" standalone="no"?>
<!DOCTYPE svg PUBLIC "-//W3C//DTD SVG 1.1//EN"
  "http://www.w3.org/Graphics/SVG/1.1/DTD/svg11.dtd">
<svg xmlns:xlink="http://www.w3.org/1999/xlink" width="1477.92pt" height="180.72pt" viewBox="0 0 1477.92 180.72" xmlns="http://www.w3.org/2000/svg" version="1.1">
 <metadata>
  <rdf:RDF xmlns:dc="http://purl.org/dc/elements/1.1/" xmlns:cc="http://creativecommons.org/ns#" xmlns:rdf="http://www.w3.org/1999/02/22-rdf-syntax-ns#">
   <cc:Work>
    <dc:type rdf:resource="http://purl.org/dc/dcmitype/StillImage"/>
    <dc:date>2025-05-29T18:44:03.692589</dc:date>
    <dc:format>image/svg+xml</dc:format>
    <dc:creator>
     <cc:Agent>
      <dc:title>Matplotlib v3.10.3, https://matplotlib.org/</dc:title>
     </cc:Agent>
    </dc:creator>
   </cc:Work>
  </rdf:RDF>
 </metadata>
 <defs>
  <style type="text/css">*{stroke-linejoin: round; stroke-linecap: butt}</style>
 </defs>
 <g id="figure_1">
  <g id="patch_1">
   <path d="M 0 180.72 
L 1477.92 180.72 
L 1477.92 0 
L 0 0 
z
" style="fill: #ffffff"/>
  </g>
  <g id="axes_1">
   <g id="text_1">
    <!-- Let $\{x\}$ denote the distance between the real number $x$ and the nearest integer.  For each positive integer $n$, evaluate \[F_n=\sum_{m=1}^{6n-1} \min(\{\frac{m}{6n}\},\{\frac{m}{3n}\}).\] (Here $\min(a,b)$ denotes the minimum of $a$ and $b$.) -->
    <g transform="translate(7.2 94.74) scale(0.12 -0.12)">
     <defs>
      <path id="DejaVuSerif-4c" d="M 353 0 
L 353 331 
L 947 331 
L 947 4331 
L 353 4331 
L 353 4666 
L 2175 4666 
L 2175 4331 
L 1581 4331 
L 1581 384 
L 3713 384 
L 3713 1166 
L 4097 1166 
L 4097 0 
L 353 0 
z
" transform="scale(0.015625)"/>
      <path id="DejaVuSerif-65" d="M 3469 1600 
L 991 1600 
L 991 1575 
Q 991 903 1244 561 
Q 1497 219 1991 219 
Q 2369 219 2611 417 
Q 2853 616 2950 1006 
L 3413 1006 
Q 3275 459 2904 184 
Q 2534 -91 1931 -91 
Q 1203 -91 761 389 
Q 319 869 319 1663 
Q 319 2450 753 2931 
Q 1188 3413 1894 3413 
Q 2647 3413 3050 2948 
Q 3453 2484 3469 1600 
z
M 2791 1931 
Q 2772 2513 2545 2808 
Q 2319 3103 1894 3103 
Q 1497 3103 1269 2806 
Q 1041 2509 991 1931 
L 2791 1931 
z
" transform="scale(0.015625)"/>
      <path id="DejaVuSerif-74" d="M 691 2988 
L 184 2988 
L 184 3322 
L 691 3322 
L 691 4353 
L 1269 4353 
L 1269 3322 
L 2350 3322 
L 2350 2988 
L 1269 2988 
L 1269 878 
Q 1269 456 1350 337 
Q 1431 219 1650 219 
Q 1875 219 1978 351 
Q 2081 484 2088 781 
L 2522 781 
Q 2497 328 2275 118 
Q 2053 -91 1600 -91 
Q 1103 -91 897 129 
Q 691 350 691 878 
L 691 2988 
z
" transform="scale(0.015625)"/>
      <path id="DejaVuSerif-20" transform="scale(0.015625)"/>
      <path id="Cmex10-a9" d="M 1631 -6425 
L 1631 -4556 
Q 1631 -4338 1503 -4159 
Q 1375 -3981 1184 -3867 
Q 994 -3753 756 -3675 
Q 709 -3650 709 -3622 
L 709 -3547 
Q 709 -3503 756 -3494 
Q 1128 -3366 1379 -3150 
Q 1631 -2934 1631 -2606 
L 1631 -738 
Q 1631 -325 2004 -95 
Q 2378 134 2888 256 
L 2963 256 
Q 2981 256 2998 242 
Q 3016 228 3016 206 
L 3016 128 
Q 3016 91 2975 78 
Q 2619 -31 2359 -232 
Q 2100 -434 2100 -750 
L 2100 -2619 
Q 2100 -2994 1804 -3214 
Q 1509 -3434 1056 -3584 
Q 1497 -3716 1798 -3939 
Q 2100 -4163 2100 -4544 
L 2100 -6413 
Q 2100 -6628 2231 -6790 
Q 2363 -6953 2556 -7059 
Q 2750 -7166 2975 -7238 
Q 3016 -7250 3016 -7291 
L 3016 -7366 
Q 3016 -7384 2998 -7401 
Q 2981 -7419 2963 -7419 
L 2888 -7419 
Q 2559 -7338 2292 -7227 
Q 2025 -7116 1828 -6914 
Q 1631 -6713 1631 -6425 
z
" transform="scale(0.015625)"/>
      <path id="Cmmi10-78" d="M 500 184 
Q 613 97 819 97 
Q 1019 97 1172 289 
Q 1325 481 1381 709 
L 1672 1844 
Q 1741 2153 1741 2266 
Q 1741 2425 1652 2544 
Q 1563 2663 1403 2663 
Q 1200 2663 1022 2536 
Q 844 2409 722 2214 
Q 600 2019 550 1819 
Q 538 1778 500 1778 
L 422 1778 
Q 372 1778 372 1838 
L 372 1856 
Q 434 2094 584 2320 
Q 734 2547 951 2687 
Q 1169 2828 1416 2828 
Q 1650 2828 1839 2703 
Q 2028 2578 2106 2363 
Q 2216 2559 2386 2693 
Q 2556 2828 2759 2828 
Q 2897 2828 3040 2779 
Q 3184 2731 3275 2631 
Q 3366 2531 3366 2381 
Q 3366 2219 3261 2101 
Q 3156 1984 2994 1984 
Q 2891 1984 2822 2050 
Q 2753 2116 2753 2216 
Q 2753 2350 2845 2451 
Q 2938 2553 3066 2572 
Q 2950 2663 2747 2663 
Q 2541 2663 2389 2472 
Q 2238 2281 2175 2047 
L 1894 916 
Q 1825 659 1825 494 
Q 1825 331 1917 214 
Q 2009 97 2163 97 
Q 2463 97 2698 361 
Q 2934 625 3009 941 
Q 3022 978 3059 978 
L 3138 978 
Q 3163 978 3178 961 
Q 3194 944 3194 922 
Q 3194 916 3188 903 
Q 3097 522 2806 225 
Q 2516 -72 2150 -72 
Q 1916 -72 1727 54 
Q 1538 181 1459 397 
Q 1359 209 1182 68 
Q 1006 -72 806 -72 
Q 669 -72 523 -23 
Q 378 25 287 125 
Q 197 225 197 378 
Q 197 528 301 651 
Q 406 775 563 775 
Q 669 775 741 711 
Q 813 647 813 544 
Q 813 409 723 309 
Q 634 209 500 184 
z
" transform="scale(0.015625)"/>
      <path id="Cmex10-aa" d="M 709 -7366 
L 709 -7291 
Q 709 -7247 756 -7238 
Q 1631 -6953 1631 -6413 
L 1631 -4544 
Q 1631 -3909 2669 -3584 
Q 2219 -3431 1925 -3209 
Q 1631 -2988 1631 -2619 
L 1631 -750 
Q 1631 -206 756 78 
Q 709 88 709 128 
L 709 206 
Q 709 256 769 256 
L 844 256 
Q 1359 131 1729 -97 
Q 2100 -325 2100 -738 
L 2100 -2606 
Q 2100 -2925 2354 -3142 
Q 2609 -3359 2975 -3494 
Q 3016 -3506 3016 -3547 
L 3016 -3622 
Q 3016 -3641 2975 -3675 
Q 2769 -3744 2566 -3864 
Q 2363 -3984 2231 -4161 
Q 2100 -4338 2100 -4556 
L 2100 -6425 
Q 2100 -6713 1901 -6914 
Q 1703 -7116 1437 -7227 
Q 1172 -7338 844 -7419 
L 769 -7419 
Q 744 -7419 726 -7401 
Q 709 -7384 709 -7366 
z
" transform="scale(0.015625)"/>
      <path id="DejaVuSerif-64" d="M 3359 331 
L 3909 331 
L 3909 0 
L 2784 0 
L 2784 519 
Q 2616 206 2355 57 
Q 2094 -91 1709 -91 
Q 1097 -91 708 395 
Q 319 881 319 1663 
Q 319 2444 706 2928 
Q 1094 3413 1709 3413 
Q 2094 3413 2355 3264 
Q 2616 3116 2784 2803 
L 2784 4531 
L 2241 4531 
L 2241 4863 
L 3359 4863 
L 3359 331 
z
M 2784 1497 
L 2784 1825 
Q 2784 2422 2554 2737 
Q 2325 3053 1888 3053 
Q 1444 3053 1217 2703 
Q 991 2353 991 1663 
Q 991 975 1217 622 
Q 1444 269 1888 269 
Q 2325 269 2554 583 
Q 2784 897 2784 1497 
z
" transform="scale(0.015625)"/>
      <path id="DejaVuSerif-6e" d="M 263 0 
L 263 331 
L 781 331 
L 781 2988 
L 231 2988 
L 231 3322 
L 1356 3322 
L 1356 2731 
Q 1516 3069 1770 3241 
Q 2025 3413 2363 3413 
Q 2913 3413 3172 3097 
Q 3431 2781 3431 2113 
L 3431 331 
L 3944 331 
L 3944 0 
L 2356 0 
L 2356 331 
L 2853 331 
L 2853 1931 
Q 2853 2541 2703 2767 
Q 2553 2994 2175 2994 
Q 1775 2994 1565 2701 
Q 1356 2409 1356 1850 
L 1356 331 
L 1856 331 
L 1856 0 
L 263 0 
z
" transform="scale(0.015625)"/>
      <path id="DejaVuSerif-6f" d="M 1925 219 
Q 2388 219 2623 584 
Q 2859 950 2859 1663 
Q 2859 2375 2623 2739 
Q 2388 3103 1925 3103 
Q 1463 3103 1227 2739 
Q 991 2375 991 1663 
Q 991 950 1228 584 
Q 1466 219 1925 219 
z
M 1925 -91 
Q 1200 -91 759 389 
Q 319 869 319 1663 
Q 319 2456 758 2934 
Q 1197 3413 1925 3413 
Q 2653 3413 3092 2934 
Q 3531 2456 3531 1663 
Q 3531 869 3092 389 
Q 2653 -91 1925 -91 
z
" transform="scale(0.015625)"/>
      <path id="DejaVuSerif-68" d="M 263 0 
L 263 331 
L 781 331 
L 781 4531 
L 231 4531 
L 231 4863 
L 1356 4863 
L 1356 2731 
Q 1516 3069 1770 3241 
Q 2025 3413 2363 3413 
Q 2913 3413 3172 3097 
Q 3431 2781 3431 2113 
L 3431 331 
L 3944 331 
L 3944 0 
L 2356 0 
L 2356 331 
L 2853 331 
L 2853 1931 
Q 2853 2541 2704 2764 
Q 2556 2988 2175 2988 
Q 1775 2988 1565 2697 
Q 1356 2406 1356 1850 
L 1356 331 
L 1856 331 
L 1856 0 
L 263 0 
z
" transform="scale(0.015625)"/>
      <path id="DejaVuSerif-69" d="M 622 4353 
Q 622 4497 726 4603 
Q 831 4709 978 4709 
Q 1122 4709 1226 4603 
Q 1331 4497 1331 4353 
Q 1331 4206 1228 4103 
Q 1125 4000 978 4000 
Q 831 4000 726 4103 
Q 622 4206 622 4353 
z
M 1356 331 
L 1900 331 
L 1900 0 
L 231 0 
L 231 331 
L 781 331 
L 781 2988 
L 231 2988 
L 231 3322 
L 1356 3322 
L 1356 331 
z
" transform="scale(0.015625)"/>
      <path id="DejaVuSerif-73" d="M 359 184 
L 359 959 
L 691 959 
Q 703 588 923 403 
Q 1144 219 1575 219 
Q 1963 219 2166 364 
Q 2369 509 2369 788 
Q 2369 1006 2220 1140 
Q 2072 1275 1594 1428 
L 1178 1569 
Q 750 1706 558 1912 
Q 366 2119 366 2438 
Q 366 2894 700 3153 
Q 1034 3413 1625 3413 
Q 1888 3413 2178 3344 
Q 2469 3275 2778 3144 
L 2778 2419 
L 2447 2419 
Q 2434 2741 2221 2922 
Q 2009 3103 1644 3103 
Q 1281 3103 1095 2975 
Q 909 2847 909 2591 
Q 909 2381 1050 2254 
Q 1191 2128 1613 1997 
L 2069 1856 
Q 2541 1709 2748 1489 
Q 2956 1269 2956 922 
Q 2956 450 2595 179 
Q 2234 -91 1600 -91 
Q 1278 -91 972 -22 
Q 666 47 359 184 
z
" transform="scale(0.015625)"/>
      <path id="DejaVuSerif-61" d="M 2547 1044 
L 2547 1747 
L 1806 1747 
Q 1378 1747 1168 1562 
Q 959 1378 959 997 
Q 959 650 1171 447 
Q 1384 244 1747 244 
Q 2106 244 2326 466 
Q 2547 688 2547 1044 
z
M 3122 2075 
L 3122 331 
L 3634 331 
L 3634 0 
L 2547 0 
L 2547 359 
Q 2356 128 2106 18 
Q 1856 -91 1522 -91 
Q 969 -91 644 203 
Q 319 497 319 997 
Q 319 1513 691 1797 
Q 1063 2081 1741 2081 
L 2547 2081 
L 2547 2309 
Q 2547 2688 2317 2895 
Q 2088 3103 1672 3103 
Q 1328 3103 1125 2947 
Q 922 2791 872 2484 
L 575 2484 
L 575 3156 
Q 875 3284 1158 3348 
Q 1441 3413 1709 3413 
Q 2400 3413 2761 3070 
Q 3122 2728 3122 2075 
z
" transform="scale(0.015625)"/>
      <path id="DejaVuSerif-63" d="M 3291 997 
Q 3169 466 2822 187 
Q 2475 -91 1925 -91 
Q 1200 -91 759 389 
Q 319 869 319 1663 
Q 319 2459 759 2936 
Q 1200 3413 1925 3413 
Q 2241 3413 2553 3339 
Q 2866 3266 3181 3116 
L 3181 2266 
L 2847 2266 
Q 2781 2703 2561 2903 
Q 2341 3103 1931 3103 
Q 1466 3103 1228 2742 
Q 991 2381 991 1663 
Q 991 944 1227 581 
Q 1463 219 1931 219 
Q 2303 219 2525 412 
Q 2747 606 2828 997 
L 3291 997 
z
" transform="scale(0.015625)"/>
      <path id="DejaVuSerif-62" d="M 738 331 
L 738 4531 
L 184 4531 
L 184 4863 
L 1313 4863 
L 1313 2803 
Q 1481 3116 1742 3264 
Q 2003 3413 2388 3413 
Q 3000 3413 3387 2928 
Q 3775 2444 3775 1663 
Q 3775 881 3387 395 
Q 3000 -91 2388 -91 
Q 2003 -91 1742 57 
Q 1481 206 1313 519 
L 1313 0 
L 184 0 
L 184 331 
L 738 331 
z
M 1313 1497 
Q 1313 897 1542 583 
Q 1772 269 2209 269 
Q 2650 269 2876 622 
Q 3103 975 3103 1663 
Q 3103 2353 2876 2703 
Q 2650 3053 2209 3053 
Q 1772 3053 1542 2737 
Q 1313 2422 1313 1825 
L 1313 1497 
z
" transform="scale(0.015625)"/>
      <path id="DejaVuSerif-77" d="M 3072 3322 
L 3922 728 
L 4672 2988 
L 4191 2988 
L 4191 3322 
L 5394 3322 
L 5394 2988 
L 5025 2988 
L 4038 0 
L 3559 0 
L 2741 2484 
L 1919 0 
L 1459 0 
L 475 2988 
L 103 2988 
L 103 3322 
L 1606 3322 
L 1606 2988 
L 1069 2988 
L 1813 728 
L 2669 3322 
L 3072 3322 
z
" transform="scale(0.015625)"/>
      <path id="DejaVuSerif-72" d="M 3059 3328 
L 3059 2497 
L 2728 2497 
Q 2713 2744 2591 2866 
Q 2469 2988 2234 2988 
Q 1809 2988 1582 2694 
Q 1356 2400 1356 1850 
L 1356 331 
L 2022 331 
L 2022 0 
L 263 0 
L 263 331 
L 781 331 
L 781 2994 
L 231 2994 
L 231 3322 
L 1356 3322 
L 1356 2731 
Q 1525 3078 1790 3245 
Q 2056 3413 2438 3413 
Q 2578 3413 2733 3391 
Q 2888 3369 3059 3328 
z
" transform="scale(0.015625)"/>
      <path id="DejaVuSerif-6c" d="M 1313 331 
L 1856 331 
L 1856 0 
L 184 0 
L 184 331 
L 738 331 
L 738 4531 
L 184 4531 
L 184 4863 
L 1313 4863 
L 1313 331 
z
" transform="scale(0.015625)"/>
      <path id="DejaVuSerif-75" d="M 2266 3322 
L 3341 3322 
L 3341 331 
L 3884 331 
L 3884 0 
L 2766 0 
L 2766 588 
Q 2606 256 2353 82 
Q 2100 -91 1766 -91 
Q 1213 -91 952 223 
Q 691 538 691 1209 
L 691 2988 
L 172 2988 
L 172 3322 
L 1269 3322 
L 1269 1388 
Q 1269 781 1417 556 
Q 1566 331 1947 331 
Q 2347 331 2556 625 
Q 2766 919 2766 1478 
L 2766 2988 
L 2266 2988 
L 2266 3322 
z
" transform="scale(0.015625)"/>
      <path id="DejaVuSerif-6d" d="M 3316 2675 
Q 3481 3041 3739 3227 
Q 3997 3413 4341 3413 
Q 4863 3413 5119 3089 
Q 5375 2766 5375 2113 
L 5375 331 
L 5894 331 
L 5894 0 
L 4300 0 
L 4300 331 
L 4800 331 
L 4800 2047 
Q 4800 2556 4650 2772 
Q 4500 2988 4153 2988 
Q 3769 2988 3567 2697 
Q 3366 2406 3366 1850 
L 3366 331 
L 3866 331 
L 3866 0 
L 2291 0 
L 2291 331 
L 2791 331 
L 2791 2069 
Q 2791 2566 2641 2777 
Q 2491 2988 2144 2988 
Q 1759 2988 1557 2697 
Q 1356 2406 1356 1850 
L 1356 331 
L 1856 331 
L 1856 0 
L 263 0 
L 263 331 
L 781 331 
L 781 2994 
L 231 2994 
L 231 3322 
L 1356 3322 
L 1356 2731 
Q 1516 3063 1762 3238 
Q 2009 3413 2322 3413 
Q 2709 3413 2968 3220 
Q 3228 3028 3316 2675 
z
" transform="scale(0.015625)"/>
      <path id="DejaVuSerif-67" d="M 3359 2988 
L 3359 72 
Q 3359 -644 2965 -1033 
Q 2572 -1422 1844 -1422 
Q 1516 -1422 1216 -1362 
Q 916 -1303 641 -1184 
L 641 -488 
L 941 -488 
Q 997 -813 1206 -963 
Q 1416 -1113 1806 -1113 
Q 2313 -1113 2548 -827 
Q 2784 -541 2784 72 
L 2784 519 
Q 2616 206 2355 57 
Q 2094 -91 1709 -91 
Q 1097 -91 708 395 
Q 319 881 319 1663 
Q 319 2444 706 2928 
Q 1094 3413 1709 3413 
Q 2094 3413 2355 3264 
Q 2616 3116 2784 2803 
L 2784 3322 
L 3909 3322 
L 3909 2988 
L 3359 2988 
z
M 2784 1825 
Q 2784 2422 2554 2737 
Q 2325 3053 1888 3053 
Q 1444 3053 1217 2703 
Q 991 2353 991 1663 
Q 991 975 1217 622 
Q 1444 269 1888 269 
Q 2325 269 2554 583 
Q 2784 897 2784 1497 
L 2784 1825 
z
" transform="scale(0.015625)"/>
      <path id="DejaVuSerif-2e" d="M 603 325 
Q 603 500 722 622 
Q 841 744 1019 744 
Q 1191 744 1312 622 
Q 1434 500 1434 325 
Q 1434 153 1312 31 
Q 1191 -91 1019 -91 
Q 841 -91 722 29 
Q 603 150 603 325 
z
" transform="scale(0.015625)"/>
      <path id="DejaVuSerif-46" d="M 353 0 
L 353 331 
L 947 331 
L 947 4331 
L 353 4331 
L 353 4666 
L 4172 4666 
L 4172 3628 
L 3788 3628 
L 3788 4281 
L 1581 4281 
L 1581 2719 
L 3175 2719 
L 3175 3303 
L 3559 3303 
L 3559 1753 
L 3175 1753 
L 3175 2338 
L 1581 2338 
L 1581 331 
L 2328 331 
L 2328 0 
L 353 0 
z
" transform="scale(0.015625)"/>
      <path id="DejaVuSerif-70" d="M 1313 1825 
L 1313 1497 
Q 1313 897 1542 583 
Q 1772 269 2209 269 
Q 2650 269 2876 622 
Q 3103 975 3103 1663 
Q 3103 2353 2876 2703 
Q 2650 3053 2209 3053 
Q 1772 3053 1542 2737 
Q 1313 2422 1313 1825 
z
M 738 2988 
L 184 2988 
L 184 3322 
L 1313 3322 
L 1313 2803 
Q 1481 3116 1742 3264 
Q 2003 3413 2388 3413 
Q 3000 3413 3387 2928 
Q 3775 2444 3775 1663 
Q 3775 881 3387 395 
Q 3000 -91 2388 -91 
Q 2003 -91 1742 57 
Q 1481 206 1313 519 
L 1313 -997 
L 1856 -997 
L 1856 -1331 
L 184 -1331 
L 184 -997 
L 738 -997 
L 738 2988 
z
" transform="scale(0.015625)"/>
      <path id="DejaVuSerif-76" d="M 1581 0 
L 359 2988 
L -19 2988 
L -19 3322 
L 1509 3322 
L 1509 2988 
L 978 2988 
L 1913 703 
L 2847 2988 
L 2350 2988 
L 2350 3322 
L 3597 3322 
L 3597 2988 
L 3225 2988 
L 2003 0 
L 1581 0 
z
" transform="scale(0.015625)"/>
      <path id="Cmmi10-6e" d="M 494 109 
Q 494 147 500 166 
L 978 2075 
Q 1025 2253 1025 2388 
Q 1025 2663 838 2663 
Q 638 2663 541 2423 
Q 444 2184 353 1819 
Q 353 1800 334 1789 
Q 316 1778 300 1778 
L 225 1778 
Q 203 1778 187 1801 
Q 172 1825 172 1844 
Q 241 2122 305 2315 
Q 369 2509 505 2668 
Q 641 2828 844 2828 
Q 1084 2828 1268 2676 
Q 1453 2525 1453 2291 
Q 1644 2541 1900 2684 
Q 2156 2828 2444 2828 
Q 2672 2828 2837 2750 
Q 3003 2672 3095 2514 
Q 3188 2356 3188 2138 
Q 3188 1875 3070 1503 
Q 2953 1131 2778 672 
Q 2688 463 2688 288 
Q 2688 97 2834 97 
Q 3084 97 3251 365 
Q 3419 634 3488 941 
Q 3500 978 3541 978 
L 3616 978 
Q 3641 978 3658 962 
Q 3675 947 3675 922 
Q 3675 916 3669 903 
Q 3581 541 3364 234 
Q 3147 -72 2822 -72 
Q 2597 -72 2437 83 
Q 2278 238 2278 459 
Q 2278 578 2328 709 
Q 2409 919 2514 1209 
Q 2619 1500 2686 1765 
Q 2753 2031 2753 2234 
Q 2753 2413 2679 2538 
Q 2606 2663 2431 2663 
Q 2197 2663 2000 2559 
Q 1803 2456 1656 2286 
Q 1509 2116 1388 1881 
L 953 141 
Q 931 53 854 -9 
Q 778 -72 684 -72 
Q 606 -72 550 -22 
Q 494 28 494 109 
z
" transform="scale(0.015625)"/>
      <path id="DejaVuSerif-2c" d="M 231 -622 
Q 525 -406 662 -114 
Q 800 178 800 594 
L 800 709 
L 1416 709 
Q 1391 175 1164 -208 
Q 938 -591 481 -872 
L 231 -622 
z
" transform="scale(0.015625)"/>
      <path id="DejaVuSerif-5c" d="M 500 4666 
L 2156 -594 
L 1656 -594 
L 0 4666 
L 500 4666 
z
" transform="scale(0.015625)"/>
      <path id="DejaVuSerif-5b" d="M 550 4863 
L 2003 4863 
L 2003 4531 
L 1147 4531 
L 1147 -513 
L 2003 -513 
L 2003 -844 
L 550 -844 
L 550 4863 
z
" transform="scale(0.015625)"/>
      <path id="DejaVuSerif-5f" d="M 3200 -1259 
L 3200 -1509 
L 0 -1509 
L 0 -1259 
L 3200 -1259 
z
" transform="scale(0.015625)"/>
      <path id="DejaVuSerif-3d" d="M 678 2894 
L 4684 2894 
L 4684 2394 
L 678 2394 
L 678 2894 
z
M 678 1619 
L 4684 1619 
L 4684 1119 
L 678 1119 
L 678 1619 
z
" transform="scale(0.015625)"/>
      <path id="DejaVuSerif-7b" d="M 3272 -716 
L 3272 -1044 
L 3078 -1044 
Q 2300 -1044 2036 -812 
Q 1772 -581 1772 109 
L 1772 916 
Q 1772 1384 1603 1565 
Q 1434 1747 991 1747 
L 800 1747 
L 800 2075 
L 991 2075 
Q 1434 2075 1603 2256 
Q 1772 2438 1772 2906 
L 1772 3713 
Q 1772 4403 2036 4633 
Q 2300 4863 3078 4863 
L 3272 4863 
L 3272 4538 
L 3059 4538 
Q 2619 4538 2484 4400 
Q 2350 4263 2350 3822 
L 2350 2925 
Q 2350 2431 2194 2218 
Q 2038 2006 1631 1913 
Q 2044 1806 2197 1597 
Q 2350 1388 2350 897 
L 2350 0 
Q 2350 -441 2484 -578 
Q 2619 -716 3059 -716 
L 3272 -716 
z
" transform="scale(0.015625)"/>
      <path id="DejaVuSerif-31" d="M 909 0 
L 909 331 
L 1722 331 
L 1722 4213 
L 781 3603 
L 781 4013 
L 1919 4750 
L 2350 4750 
L 2350 331 
L 3163 331 
L 3163 0 
L 909 0 
z
" transform="scale(0.015625)"/>
      <path id="DejaVuSerif-7d" d="M 800 -716 
L 1019 -716 
Q 1456 -716 1589 -580 
Q 1722 -444 1722 0 
L 1722 897 
Q 1722 1388 1875 1597 
Q 2028 1806 2438 1913 
Q 2031 2006 1876 2218 
Q 1722 2431 1722 2925 
L 1722 3822 
Q 1722 4266 1589 4402 
Q 1456 4538 1019 4538 
L 800 4538 
L 800 4863 
L 997 4863 
Q 1775 4863 2036 4633 
Q 2297 4403 2297 3713 
L 2297 2906 
Q 2297 2438 2465 2256 
Q 2634 2075 3078 2075 
L 3272 2075 
L 3272 1747 
L 3078 1747 
Q 2634 1747 2465 1565 
Q 2297 1384 2297 916 
L 2297 109 
Q 2297 -581 2036 -812 
Q 1775 -1044 997 -1044 
L 800 -1044 
L 800 -716 
z
" transform="scale(0.015625)"/>
      <path id="DejaVuSerif-5e" d="M 2988 4666 
L 4684 2925 
L 4206 2925 
L 2681 4116 
L 1159 2925 
L 678 2925 
L 2375 4666 
L 2988 4666 
z
" transform="scale(0.015625)"/>
      <path id="DejaVuSerif-36" d="M 2094 219 
Q 2534 219 2771 542 
Q 3009 866 3009 1472 
Q 3009 2078 2771 2401 
Q 2534 2725 2094 2725 
Q 1647 2725 1412 2412 
Q 1178 2100 1178 1509 
Q 1178 888 1415 553 
Q 1653 219 2094 219 
z
M 1075 2569 
Q 1288 2803 1556 2918 
Q 1825 3034 2163 3034 
Q 2859 3034 3264 2615 
Q 3669 2197 3669 1472 
Q 3669 763 3233 336 
Q 2797 -91 2069 -91 
Q 1278 -91 853 498 
Q 428 1088 428 2181 
Q 428 3406 931 4078 
Q 1434 4750 2350 4750 
Q 2597 4750 2869 4703 
Q 3141 4656 3425 4563 
L 3425 3794 
L 3072 3794 
Q 3034 4109 2831 4275 
Q 2628 4441 2284 4441 
Q 1678 4441 1381 3981 
Q 1084 3522 1075 2569 
z
" transform="scale(0.015625)"/>
      <path id="DejaVuSerif-2d" d="M 281 1959 
L 1881 1959 
L 1881 1472 
L 281 1472 
L 281 1959 
z
" transform="scale(0.015625)"/>
      <path id="DejaVuSerif-28" d="M 2041 -997 
Q 1281 -656 893 83 
Q 506 822 506 1931 
Q 506 3044 893 3783 
Q 1281 4522 2041 4863 
L 2041 4556 
Q 1559 4225 1350 3623 
Q 1141 3022 1141 1931 
Q 1141 844 1350 242 
Q 1559 -359 2041 -691 
L 2041 -997 
z
" transform="scale(0.015625)"/>
      <path id="DejaVuSerif-66" d="M 2753 4078 
L 2450 4078 
Q 2447 4313 2317 4434 
Q 2188 4556 1941 4556 
Q 1619 4556 1487 4379 
Q 1356 4203 1356 3750 
L 1356 3322 
L 2284 3322 
L 2284 2988 
L 1356 2988 
L 1356 331 
L 2094 331 
L 2094 0 
L 231 0 
L 231 331 
L 781 331 
L 781 2988 
L 231 2988 
L 231 3322 
L 781 3322 
L 781 3738 
Q 781 4294 1070 4578 
Q 1359 4863 1919 4863 
Q 2128 4863 2337 4825 
Q 2547 4788 2753 4709 
L 2753 4078 
z
" transform="scale(0.015625)"/>
      <path id="DejaVuSerif-33" d="M 622 4469 
Q 988 4606 1323 4678 
Q 1659 4750 1953 4750 
Q 2638 4750 3022 4454 
Q 3406 4159 3406 3634 
Q 3406 3213 3140 2930 
Q 2875 2647 2388 2547 
Q 2963 2466 3280 2130 
Q 3597 1794 3597 1259 
Q 3597 606 3158 257 
Q 2719 -91 1894 -91 
Q 1528 -91 1179 -12 
Q 831 66 488 225 
L 488 1131 
L 838 1131 
Q 869 681 1141 450 
Q 1413 219 1906 219 
Q 2384 219 2661 495 
Q 2938 772 2938 1253 
Q 2938 1803 2653 2086 
Q 2369 2369 1819 2369 
L 1522 2369 
L 1522 2688 
L 1678 2688 
Q 2225 2688 2498 2914 
Q 2772 3141 2772 3597 
Q 2772 4006 2547 4223 
Q 2322 4441 1900 4441 
Q 1478 4441 1245 4241 
Q 1013 4041 972 3647 
L 622 3647 
L 622 4469 
z
" transform="scale(0.015625)"/>
      <path id="DejaVuSerif-29" d="M 453 -997 
L 453 -691 
Q 934 -359 1145 242 
Q 1356 844 1356 1931 
Q 1356 3022 1145 3623 
Q 934 4225 453 4556 
L 453 4863 
Q 1216 4522 1603 3783 
Q 1991 3044 1991 1931 
Q 1991 822 1603 83 
Q 1216 -656 453 -997 
z
" transform="scale(0.015625)"/>
      <path id="DejaVuSerif-5d" d="M 1947 4863 
L 1947 -844 
L 494 -844 
L 494 -513 
L 1350 -513 
L 1350 4531 
L 494 4531 
L 494 4863 
L 1947 4863 
z
" transform="scale(0.015625)"/>
      <path id="DejaVuSerif-48" d="M 353 0 
L 353 331 
L 947 331 
L 947 4331 
L 353 4331 
L 353 4666 
L 2175 4666 
L 2175 4331 
L 1581 4331 
L 1581 2719 
L 4000 2719 
L 4000 4331 
L 3406 4331 
L 3406 4666 
L 5228 4666 
L 5228 4331 
L 4634 4331 
L 4634 331 
L 5228 331 
L 5228 0 
L 3406 0 
L 3406 331 
L 4000 331 
L 4000 2338 
L 1581 2338 
L 1581 331 
L 2175 331 
L 2175 0 
L 353 0 
z
" transform="scale(0.015625)"/>
      <path id="Cmr10-6d" d="M 191 0 
L 191 225 
Q 409 225 550 259 
Q 691 294 691 428 
L 691 2175 
Q 691 2347 639 2423 
Q 588 2500 491 2517 
Q 394 2534 191 2534 
L 191 2759 
L 1119 2828 
L 1119 2203 
Q 1247 2478 1498 2653 
Q 1750 2828 2047 2828 
Q 2784 2828 2913 2228 
Q 3041 2497 3287 2662 
Q 3534 2828 3828 2828 
Q 4119 2828 4317 2734 
Q 4516 2641 4616 2448 
Q 4716 2256 4716 1966 
L 4716 428 
Q 4716 294 4858 259 
Q 5000 225 5216 225 
L 5216 0 
L 3750 0 
L 3750 225 
Q 3969 225 4109 259 
Q 4250 294 4250 428 
L 4250 1947 
Q 4250 2269 4159 2466 
Q 4069 2663 3788 2663 
Q 3419 2663 3178 2366 
Q 2938 2069 2938 1691 
L 2938 428 
Q 2938 294 3078 259 
Q 3219 225 3438 225 
L 3438 0 
L 1972 0 
L 1972 225 
Q 2191 225 2331 259 
Q 2472 294 2472 428 
L 2472 1947 
Q 2472 2259 2381 2461 
Q 2291 2663 2009 2663 
Q 1638 2663 1398 2366 
Q 1159 2069 1159 1691 
L 1159 428 
Q 1159 294 1300 259 
Q 1441 225 1656 225 
L 1656 0 
L 191 0 
z
" transform="scale(0.015625)"/>
      <path id="Cmr10-69" d="M 197 0 
L 197 225 
Q 416 225 556 259 
Q 697 294 697 428 
L 697 2175 
Q 697 2422 601 2478 
Q 506 2534 225 2534 
L 225 2759 
L 1147 2828 
L 1147 428 
Q 1147 294 1269 259 
Q 1391 225 1594 225 
L 1594 0 
L 197 0 
z
M 469 3928 
Q 469 4069 575 4175 
Q 681 4281 819 4281 
Q 909 4281 993 4234 
Q 1078 4188 1125 4103 
Q 1172 4019 1172 3928 
Q 1172 3791 1065 3684 
Q 959 3578 819 3578 
Q 681 3578 575 3684 
Q 469 3791 469 3928 
z
" transform="scale(0.015625)"/>
      <path id="Cmr10-6e" d="M 191 0 
L 191 225 
Q 409 225 550 259 
Q 691 294 691 428 
L 691 2175 
Q 691 2347 639 2423 
Q 588 2500 491 2517 
Q 394 2534 191 2534 
L 191 2759 
L 1119 2828 
L 1119 2203 
Q 1247 2478 1498 2653 
Q 1750 2828 2047 2828 
Q 2491 2828 2714 2615 
Q 2938 2403 2938 1966 
L 2938 428 
Q 2938 294 3078 259 
Q 3219 225 3438 225 
L 3438 0 
L 1972 0 
L 1972 225 
Q 2191 225 2331 259 
Q 2472 294 2472 428 
L 2472 1947 
Q 2472 2259 2381 2461 
Q 2291 2663 2009 2663 
Q 1638 2663 1398 2366 
Q 1159 2069 1159 1691 
L 1159 428 
Q 1159 294 1300 259 
Q 1441 225 1656 225 
L 1656 0 
L 191 0 
z
" transform="scale(0.015625)"/>
      <path id="Cmr10-28" d="M 1984 -1588 
Q 1628 -1306 1370 -942 
Q 1113 -578 948 -165 
Q 784 247 703 697 
Q 622 1147 622 1600 
Q 622 2059 703 2509 
Q 784 2959 951 3375 
Q 1119 3791 1378 4153 
Q 1638 4516 1984 4788 
Q 1984 4800 2016 4800 
L 2075 4800 
Q 2094 4800 2109 4783 
Q 2125 4766 2125 4744 
Q 2125 4716 2113 4703 
Q 1800 4397 1592 4047 
Q 1384 3697 1257 3301 
Q 1131 2906 1075 2482 
Q 1019 2059 1019 1600 
Q 1019 -434 2106 -1491 
Q 2125 -1509 2125 -1544 
Q 2125 -1559 2108 -1579 
Q 2091 -1600 2075 -1600 
L 2016 -1600 
Q 1984 -1600 1984 -1588 
z
" transform="scale(0.015625)"/>
      <path id="Cmmi10-61" d="M 1113 -72 
Q 709 -72 476 233 
Q 244 538 244 953 
Q 244 1363 456 1803 
Q 669 2244 1030 2536 
Q 1391 2828 1806 2828 
Q 1997 2828 2147 2725 
Q 2297 2622 2381 2444 
Q 2453 2700 2663 2700 
Q 2744 2700 2798 2651 
Q 2853 2603 2853 2522 
Q 2853 2503 2851 2493 
Q 2850 2484 2847 2472 
L 2400 684 
Q 2356 494 2356 372 
Q 2356 97 2541 97 
Q 2741 97 2845 351 
Q 2950 606 3022 941 
Q 3034 978 3072 978 
L 3150 978 
Q 3175 978 3190 956 
Q 3206 934 3206 916 
Q 3094 469 2961 198 
Q 2828 -72 2528 -72 
Q 2313 -72 2147 54 
Q 1981 181 1941 391 
Q 1528 -72 1113 -72 
z
M 1119 97 
Q 1350 97 1567 270 
Q 1784 444 1941 678 
Q 1947 684 1947 697 
L 2291 2088 
L 2297 2106 
Q 2259 2334 2132 2498 
Q 2006 2663 1791 2663 
Q 1575 2663 1389 2486 
Q 1203 2309 1075 2069 
Q 950 1813 836 1366 
Q 722 919 722 672 
Q 722 450 817 273 
Q 913 97 1119 97 
z
" transform="scale(0.015625)"/>
      <path id="Cmmi10-3b" d="M 634 -1153 
Q 634 -1125 659 -1100 
Q 891 -878 1019 -587 
Q 1147 -297 1147 25 
L 1147 103 
Q 1044 0 891 0 
Q 744 0 641 103 
Q 538 206 538 353 
Q 538 503 641 603 
Q 744 703 891 703 
Q 1119 703 1216 492 
Q 1313 281 1313 25 
Q 1313 -331 1170 -651 
Q 1028 -972 769 -1228 
Q 744 -1241 728 -1241 
Q 697 -1241 665 -1212 
Q 634 -1184 634 -1153 
z
" transform="scale(0.015625)"/>
      <path id="Cmmi10-62" d="M 1106 -72 
Q 719 -72 503 231 
Q 288 534 288 941 
Q 288 1000 317 1173 
Q 347 1347 347 1388 
L 966 3872 
Q 991 3981 997 4044 
Q 997 4147 581 4147 
Q 519 4147 519 4231 
Q 522 4247 533 4287 
Q 544 4328 561 4350 
Q 578 4372 609 4372 
L 1472 4441 
Q 1550 4441 1550 4359 
L 1075 2472 
Q 1438 2828 1806 2828 
Q 2078 2828 2273 2684 
Q 2469 2541 2566 2306 
Q 2663 2072 2663 1806 
Q 2663 1497 2542 1167 
Q 2422 838 2209 555 
Q 1997 272 1712 100 
Q 1428 -72 1106 -72 
z
M 1119 97 
Q 1338 97 1528 280 
Q 1719 463 1838 691 
Q 1966 947 2077 1386 
Q 2188 1825 2188 2088 
Q 2188 2316 2092 2489 
Q 1997 2663 1791 2663 
Q 1559 2663 1348 2492 
Q 1138 2322 978 2088 
L 800 1363 
Q 697 959 691 716 
Q 691 475 795 286 
Q 900 97 1119 97 
z
" transform="scale(0.015625)"/>
      <path id="Cmr10-29" d="M 416 -1600 
Q 359 -1600 359 -1544 
Q 359 -1516 372 -1503 
Q 1466 -434 1466 1600 
Q 1466 3634 384 4691 
Q 359 4706 359 4744 
Q 359 4766 376 4783 
Q 394 4800 416 4800 
L 475 4800 
Q 494 4800 506 4788 
Q 966 4425 1272 3906 
Q 1578 3388 1720 2800 
Q 1863 2213 1863 1600 
Q 1863 1147 1786 708 
Q 1709 269 1542 -157 
Q 1375 -584 1119 -945 
Q 863 -1306 506 -1588 
Q 494 -1600 475 -1600 
L 416 -1600 
z
" transform="scale(0.015625)"/>
     </defs>
     <use xlink:href="#DejaVuSerif-4c" transform="translate(0 0.705729)"/>
     <use xlink:href="#DejaVuSerif-65" transform="translate(66.40625 0.705729)"/>
     <use xlink:href="#DejaVuSerif-74" transform="translate(125.585938 0.705729)"/>
     <use xlink:href="#DejaVuSerif-20" transform="translate(165.771484 0.705729)"/>
     <use xlink:href="#Cmex10-a9" transform="translate(197.558594 94)"/>
     <use xlink:href="#Cmmi10-78" transform="translate(255.859375 0.705729)"/>
     <use xlink:href="#Cmex10-aa" transform="translate(312.939453 94)"/>
     <use xlink:href="#DejaVuSerif-20" transform="translate(371.240234 0.705729)"/>
     <use xlink:href="#DejaVuSerif-64" transform="translate(403.027344 0.705729)"/>
     <use xlink:href="#DejaVuSerif-65" transform="translate(467.041016 0.705729)"/>
     <use xlink:href="#DejaVuSerif-6e" transform="translate(526.220703 0.705729)"/>
     <use xlink:href="#DejaVuSerif-6f" transform="translate(590.625 0.705729)"/>
     <use xlink:href="#DejaVuSerif-74" transform="translate(650.830078 0.705729)"/>
     <use xlink:href="#DejaVuSerif-65" transform="translate(691.015625 0.705729)"/>
     <use xlink:href="#DejaVuSerif-20" transform="translate(750.195312 0.705729)"/>
     <use xlink:href="#DejaVuSerif-74" transform="translate(781.982422 0.705729)"/>
     <use xlink:href="#DejaVuSerif-68" transform="translate(822.167969 0.705729)"/>
     <use xlink:href="#DejaVuSerif-65" transform="translate(886.572266 0.705729)"/>
     <use xlink:href="#DejaVuSerif-20" transform="translate(945.751953 0.705729)"/>
     <use xlink:href="#DejaVuSerif-64" transform="translate(977.539062 0.705729)"/>
     <use xlink:href="#DejaVuSerif-69" transform="translate(1041.552734 0.705729)"/>
     <use xlink:href="#DejaVuSerif-73" transform="translate(1073.535156 0.705729)"/>
     <use xlink:href="#DejaVuSerif-74" transform="translate(1124.853516 0.705729)"/>
     <use xlink:href="#DejaVuSerif-61" transform="translate(1165.039062 0.705729)"/>
     <use xlink:href="#DejaVuSerif-6e" transform="translate(1224.658203 0.705729)"/>
     <use xlink:href="#DejaVuSerif-63" transform="translate(1289.0625 0.705729)"/>
     <use xlink:href="#DejaVuSerif-65" transform="translate(1345.068359 0.705729)"/>
     <use xlink:href="#DejaVuSerif-20" transform="translate(1404.248047 0.705729)"/>
     <use xlink:href="#DejaVuSerif-62" transform="translate(1436.035156 0.705729)"/>
     <use xlink:href="#DejaVuSerif-65" transform="translate(1500.048828 0.705729)"/>
     <use xlink:href="#DejaVuSerif-74" transform="translate(1559.228516 0.705729)"/>
     <use xlink:href="#DejaVuSerif-77" transform="translate(1599.414062 0.705729)"/>
     <use xlink:href="#DejaVuSerif-65" transform="translate(1685.009766 0.705729)"/>
     <use xlink:href="#DejaVuSerif-65" transform="translate(1744.189453 0.705729)"/>
     <use xlink:href="#DejaVuSerif-6e" transform="translate(1803.369141 0.705729)"/>
     <use xlink:href="#DejaVuSerif-20" transform="translate(1867.773438 0.705729)"/>
     <use xlink:href="#DejaVuSerif-74" transform="translate(1899.560547 0.705729)"/>
     <use xlink:href="#DejaVuSerif-68" transform="translate(1939.746094 0.705729)"/>
     <use xlink:href="#DejaVuSerif-65" transform="translate(2004.150391 0.705729)"/>
     <use xlink:href="#DejaVuSerif-20" transform="translate(2063.330078 0.705729)"/>
     <use xlink:href="#DejaVuSerif-72" transform="translate(2095.117188 0.705729)"/>
     <use xlink:href="#DejaVuSerif-65" transform="translate(2142.919922 0.705729)"/>
     <use xlink:href="#DejaVuSerif-61" transform="translate(2202.099609 0.705729)"/>
     <use xlink:href="#DejaVuSerif-6c" transform="translate(2261.71875 0.705729)"/>
     <use xlink:href="#DejaVuSerif-20" transform="translate(2293.701172 0.705729)"/>
     <use xlink:href="#DejaVuSerif-6e" transform="translate(2325.488281 0.705729)"/>
     <use xlink:href="#DejaVuSerif-75" transform="translate(2389.892578 0.705729)"/>
     <use xlink:href="#DejaVuSerif-6d" transform="translate(2454.296875 0.705729)"/>
     <use xlink:href="#DejaVuSerif-62" transform="translate(2549.121094 0.705729)"/>
     <use xlink:href="#DejaVuSerif-65" transform="translate(2613.134766 0.705729)"/>
     <use xlink:href="#DejaVuSerif-72" transform="translate(2672.314453 0.705729)"/>
     <use xlink:href="#DejaVuSerif-20" transform="translate(2720.117188 0.705729)"/>
     <use xlink:href="#Cmmi10-78" transform="translate(2751.904297 0.705729)"/>
     <use xlink:href="#DejaVuSerif-20" transform="translate(2808.984375 0.705729)"/>
     <use xlink:href="#DejaVuSerif-61" transform="translate(2840.771484 0.705729)"/>
     <use xlink:href="#DejaVuSerif-6e" transform="translate(2900.390625 0.705729)"/>
     <use xlink:href="#DejaVuSerif-64" transform="translate(2964.794922 0.705729)"/>
     <use xlink:href="#DejaVuSerif-20" transform="translate(3028.808594 0.705729)"/>
     <use xlink:href="#DejaVuSerif-74" transform="translate(3060.595703 0.705729)"/>
     <use xlink:href="#DejaVuSerif-68" transform="translate(3100.78125 0.705729)"/>
     <use xlink:href="#DejaVuSerif-65" transform="translate(3165.185547 0.705729)"/>
     <use xlink:href="#DejaVuSerif-20" transform="translate(3224.365234 0.705729)"/>
     <use xlink:href="#DejaVuSerif-6e" transform="translate(3256.152344 0.705729)"/>
     <use xlink:href="#DejaVuSerif-65" transform="translate(3320.556641 0.705729)"/>
     <use xlink:href="#DejaVuSerif-61" transform="translate(3379.736328 0.705729)"/>
     <use xlink:href="#DejaVuSerif-72" transform="translate(3439.355469 0.705729)"/>
     <use xlink:href="#DejaVuSerif-65" transform="translate(3487.158203 0.705729)"/>
     <use xlink:href="#DejaVuSerif-73" transform="translate(3546.337891 0.705729)"/>
     <use xlink:href="#DejaVuSerif-74" transform="translate(3597.65625 0.705729)"/>
     <use xlink:href="#DejaVuSerif-20" transform="translate(3637.841797 0.705729)"/>
     <use xlink:href="#DejaVuSerif-69" transform="translate(3669.628906 0.705729)"/>
     <use xlink:href="#DejaVuSerif-6e" transform="translate(3701.611328 0.705729)"/>
     <use xlink:href="#DejaVuSerif-74" transform="translate(3766.015625 0.705729)"/>
     <use xlink:href="#DejaVuSerif-65" transform="translate(3806.201172 0.705729)"/>
     <use xlink:href="#DejaVuSerif-67" transform="translate(3865.380859 0.705729)"/>
     <use xlink:href="#DejaVuSerif-65" transform="translate(3929.394531 0.705729)"/>
     <use xlink:href="#DejaVuSerif-72" transform="translate(3988.574219 0.705729)"/>
     <use xlink:href="#DejaVuSerif-2e" transform="translate(4036.376953 0.705729)"/>
     <use xlink:href="#DejaVuSerif-20" transform="translate(4068.164062 0.705729)"/>
     <use xlink:href="#DejaVuSerif-20" transform="translate(4099.951172 0.705729)"/>
     <use xlink:href="#DejaVuSerif-46" transform="translate(4131.738281 0.705729)"/>
     <use xlink:href="#DejaVuSerif-6f" transform="translate(4201.123047 0.705729)"/>
     <use xlink:href="#DejaVuSerif-72" transform="translate(4261.328125 0.705729)"/>
     <use xlink:href="#DejaVuSerif-20" transform="translate(4309.130859 0.705729)"/>
     <use xlink:href="#DejaVuSerif-65" transform="translate(4340.917969 0.705729)"/>
     <use xlink:href="#DejaVuSerif-61" transform="translate(4400.097656 0.705729)"/>
     <use xlink:href="#DejaVuSerif-63" transform="translate(4459.716797 0.705729)"/>
     <use xlink:href="#DejaVuSerif-68" transform="translate(4515.722656 0.705729)"/>
     <use xlink:href="#DejaVuSerif-20" transform="translate(4580.126953 0.705729)"/>
     <use xlink:href="#DejaVuSerif-70" transform="translate(4611.914062 0.705729)"/>
     <use xlink:href="#DejaVuSerif-6f" transform="translate(4675.927734 0.705729)"/>
     <use xlink:href="#DejaVuSerif-73" transform="translate(4736.132812 0.705729)"/>
     <use xlink:href="#DejaVuSerif-69" transform="translate(4787.451172 0.705729)"/>
     <use xlink:href="#DejaVuSerif-74" transform="translate(4819.433594 0.705729)"/>
     <use xlink:href="#DejaVuSerif-69" transform="translate(4859.619141 0.705729)"/>
     <use xlink:href="#DejaVuSerif-76" transform="translate(4891.601562 0.705729)"/>
     <use xlink:href="#DejaVuSerif-65" transform="translate(4948.095703 0.705729)"/>
     <use xlink:href="#DejaVuSerif-20" transform="translate(5007.275391 0.705729)"/>
     <use xlink:href="#DejaVuSerif-69" transform="translate(5039.0625 0.705729)"/>
     <use xlink:href="#DejaVuSerif-6e" transform="translate(5071.044922 0.705729)"/>
     <use xlink:href="#DejaVuSerif-74" transform="translate(5135.449219 0.705729)"/>
     <use xlink:href="#DejaVuSerif-65" transform="translate(5175.634766 0.705729)"/>
     <use xlink:href="#DejaVuSerif-67" transform="translate(5234.814453 0.705729)"/>
     <use xlink:href="#DejaVuSerif-65" transform="translate(5298.828125 0.705729)"/>
     <use xlink:href="#DejaVuSerif-72" transform="translate(5358.007812 0.705729)"/>
     <use xlink:href="#DejaVuSerif-20" transform="translate(5405.810547 0.705729)"/>
     <use xlink:href="#Cmmi10-6e" transform="translate(5437.597656 0.705729)"/>
     <use xlink:href="#DejaVuSerif-2c" transform="translate(5497.607422 0.705729)"/>
     <use xlink:href="#DejaVuSerif-20" transform="translate(5529.394531 0.705729)"/>
     <use xlink:href="#DejaVuSerif-65" transform="translate(5561.181641 0.705729)"/>
     <use xlink:href="#DejaVuSerif-76" transform="translate(5620.361328 0.705729)"/>
     <use xlink:href="#DejaVuSerif-61" transform="translate(5676.855469 0.705729)"/>
     <use xlink:href="#DejaVuSerif-6c" transform="translate(5736.474609 0.705729)"/>
     <use xlink:href="#DejaVuSerif-75" transform="translate(5768.457031 0.705729)"/>
     <use xlink:href="#DejaVuSerif-61" transform="translate(5832.861328 0.705729)"/>
     <use xlink:href="#DejaVuSerif-74" transform="translate(5892.480469 0.705729)"/>
     <use xlink:href="#DejaVuSerif-65" transform="translate(5932.666016 0.705729)"/>
     <use xlink:href="#DejaVuSerif-20" transform="translate(5991.845703 0.705729)"/>
     <use xlink:href="#DejaVuSerif-5c" transform="translate(6023.632812 0.705729)"/>
     <use xlink:href="#DejaVuSerif-5b" transform="translate(6057.324219 0.705729)"/>
     <use xlink:href="#DejaVuSerif-46" transform="translate(6096.337891 0.705729)"/>
     <use xlink:href="#DejaVuSerif-5f" transform="translate(6165.722656 0.705729)"/>
     <use xlink:href="#DejaVuSerif-6e" transform="translate(6215.722656 0.705729)"/>
     <use xlink:href="#DejaVuSerif-3d" transform="translate(6280.126953 0.705729)"/>
     <use xlink:href="#DejaVuSerif-5c" transform="translate(6363.916016 0.705729)"/>
     <use xlink:href="#DejaVuSerif-73" transform="translate(6397.607422 0.705729)"/>
     <use xlink:href="#DejaVuSerif-75" transform="translate(6448.925781 0.705729)"/>
     <use xlink:href="#DejaVuSerif-6d" transform="translate(6513.330078 0.705729)"/>
     <use xlink:href="#DejaVuSerif-5f" transform="translate(6608.154297 0.705729)"/>
     <use xlink:href="#DejaVuSerif-7b" transform="translate(6658.154297 0.705729)"/>
     <use xlink:href="#DejaVuSerif-6d" transform="translate(6721.777344 0.705729)"/>
     <use xlink:href="#DejaVuSerif-3d" transform="translate(6816.601562 0.705729)"/>
     <use xlink:href="#DejaVuSerif-31" transform="translate(6900.390625 0.705729)"/>
     <use xlink:href="#DejaVuSerif-7d" transform="translate(6964.013672 0.705729)"/>
     <use xlink:href="#DejaVuSerif-5e" transform="translate(7027.636719 0.705729)"/>
     <use xlink:href="#DejaVuSerif-7b" transform="translate(7111.425781 0.705729)"/>
     <use xlink:href="#DejaVuSerif-36" transform="translate(7175.048828 0.705729)"/>
     <use xlink:href="#DejaVuSerif-6e" transform="translate(7238.671875 0.705729)"/>
     <use xlink:href="#DejaVuSerif-2d" transform="translate(7303.076172 0.705729)"/>
     <use xlink:href="#DejaVuSerif-31" transform="translate(7336.865234 0.705729)"/>
     <use xlink:href="#DejaVuSerif-7d" transform="translate(7400.488281 0.705729)"/>
     <use xlink:href="#DejaVuSerif-20" transform="translate(7464.111328 0.705729)"/>
     <use xlink:href="#DejaVuSerif-5c" transform="translate(7495.898438 0.705729)"/>
     <use xlink:href="#DejaVuSerif-6d" transform="translate(7529.589844 0.705729)"/>
     <use xlink:href="#DejaVuSerif-69" transform="translate(7624.414062 0.705729)"/>
     <use xlink:href="#DejaVuSerif-6e" transform="translate(7656.396484 0.705729)"/>
     <use xlink:href="#DejaVuSerif-28" transform="translate(7720.800781 0.705729)"/>
     <use xlink:href="#DejaVuSerif-5c" transform="translate(7759.814453 0.705729)"/>
     <use xlink:href="#DejaVuSerif-7b" transform="translate(7793.505859 0.705729)"/>
     <use xlink:href="#DejaVuSerif-5c" transform="translate(7857.128906 0.705729)"/>
     <use xlink:href="#DejaVuSerif-66" transform="translate(7890.820312 0.705729)"/>
     <use xlink:href="#DejaVuSerif-72" transform="translate(7927.832031 0.705729)"/>
     <use xlink:href="#DejaVuSerif-61" transform="translate(7975.634766 0.705729)"/>
     <use xlink:href="#DejaVuSerif-63" transform="translate(8035.253906 0.705729)"/>
     <use xlink:href="#DejaVuSerif-7b" transform="translate(8091.259766 0.705729)"/>
     <use xlink:href="#DejaVuSerif-6d" transform="translate(8154.882812 0.705729)"/>
     <use xlink:href="#DejaVuSerif-7d" transform="translate(8249.707031 0.705729)"/>
     <use xlink:href="#DejaVuSerif-7b" transform="translate(8313.330078 0.705729)"/>
     <use xlink:href="#DejaVuSerif-36" transform="translate(8376.953125 0.705729)"/>
     <use xlink:href="#DejaVuSerif-6e" transform="translate(8440.576172 0.705729)"/>
     <use xlink:href="#DejaVuSerif-7d" transform="translate(8504.980469 0.705729)"/>
     <use xlink:href="#DejaVuSerif-5c" transform="translate(8568.603516 0.705729)"/>
     <use xlink:href="#DejaVuSerif-7d" transform="translate(8602.294922 0.705729)"/>
     <use xlink:href="#DejaVuSerif-2c" transform="translate(8665.917969 0.705729)"/>
     <use xlink:href="#DejaVuSerif-5c" transform="translate(8697.705078 0.705729)"/>
     <use xlink:href="#DejaVuSerif-7b" transform="translate(8731.396484 0.705729)"/>
     <use xlink:href="#DejaVuSerif-5c" transform="translate(8795.019531 0.705729)"/>
     <use xlink:href="#DejaVuSerif-66" transform="translate(8828.710938 0.705729)"/>
     <use xlink:href="#DejaVuSerif-72" transform="translate(8865.722656 0.705729)"/>
     <use xlink:href="#DejaVuSerif-61" transform="translate(8913.525391 0.705729)"/>
     <use xlink:href="#DejaVuSerif-63" transform="translate(8973.144531 0.705729)"/>
     <use xlink:href="#DejaVuSerif-7b" transform="translate(9029.150391 0.705729)"/>
     <use xlink:href="#DejaVuSerif-6d" transform="translate(9092.773438 0.705729)"/>
     <use xlink:href="#DejaVuSerif-7d" transform="translate(9187.597656 0.705729)"/>
     <use xlink:href="#DejaVuSerif-7b" transform="translate(9251.220703 0.705729)"/>
     <use xlink:href="#DejaVuSerif-33" transform="translate(9314.84375 0.705729)"/>
     <use xlink:href="#DejaVuSerif-6e" transform="translate(9378.466797 0.705729)"/>
     <use xlink:href="#DejaVuSerif-7d" transform="translate(9442.871094 0.705729)"/>
     <use xlink:href="#DejaVuSerif-5c" transform="translate(9506.494141 0.705729)"/>
     <use xlink:href="#DejaVuSerif-7d" transform="translate(9540.185547 0.705729)"/>
     <use xlink:href="#DejaVuSerif-29" transform="translate(9603.808594 0.705729)"/>
     <use xlink:href="#DejaVuSerif-2e" transform="translate(9642.822266 0.705729)"/>
     <use xlink:href="#DejaVuSerif-5c" transform="translate(9668.234375 0.705729)"/>
     <use xlink:href="#DejaVuSerif-5d" transform="translate(9701.925781 0.705729)"/>
     <use xlink:href="#DejaVuSerif-20" transform="translate(9740.939453 0.705729)"/>
     <use xlink:href="#DejaVuSerif-28" transform="translate(9772.726562 0.705729)"/>
     <use xlink:href="#DejaVuSerif-48" transform="translate(9811.740234 0.705729)"/>
     <use xlink:href="#DejaVuSerif-65" transform="translate(9898.947266 0.705729)"/>
     <use xlink:href="#DejaVuSerif-72" transform="translate(9958.126953 0.705729)"/>
     <use xlink:href="#DejaVuSerif-65" transform="translate(10005.929688 0.705729)"/>
     <use xlink:href="#DejaVuSerif-20" transform="translate(10065.109375 0.705729)"/>
     <use xlink:href="#Cmr10-6d" transform="translate(10096.896484 0.705729)"/>
     <use xlink:href="#Cmr10-69" transform="translate(10180.197266 0.705729)"/>
     <use xlink:href="#Cmr10-6e" transform="translate(10207.882812 0.705729)"/>
     <use xlink:href="#Cmr10-28" transform="translate(10263.400391 0.705729)"/>
     <use xlink:href="#Cmmi10-61" transform="translate(10302.21875 0.705729)"/>
     <use xlink:href="#Cmmi10-3b" transform="translate(10355.001953 0.705729)"/>
     <use xlink:href="#Cmmi10-62" transform="translate(10400.246094 0.705729)"/>
     <use xlink:href="#Cmr10-29" transform="translate(10443.166016 0.705729)"/>
     <use xlink:href="#DejaVuSerif-20" transform="translate(10481.984375 0.705729)"/>
     <use xlink:href="#DejaVuSerif-64" transform="translate(10513.771484 0.705729)"/>
     <use xlink:href="#DejaVuSerif-65" transform="translate(10577.785156 0.705729)"/>
     <use xlink:href="#DejaVuSerif-6e" transform="translate(10636.964844 0.705729)"/>
     <use xlink:href="#DejaVuSerif-6f" transform="translate(10701.369141 0.705729)"/>
     <use xlink:href="#DejaVuSerif-74" transform="translate(10761.574219 0.705729)"/>
     <use xlink:href="#DejaVuSerif-65" transform="translate(10801.759766 0.705729)"/>
     <use xlink:href="#DejaVuSerif-73" transform="translate(10860.939453 0.705729)"/>
     <use xlink:href="#DejaVuSerif-20" transform="translate(10912.257812 0.705729)"/>
     <use xlink:href="#DejaVuSerif-74" transform="translate(10944.044922 0.705729)"/>
     <use xlink:href="#DejaVuSerif-68" transform="translate(10984.230469 0.705729)"/>
     <use xlink:href="#DejaVuSerif-65" transform="translate(11048.634766 0.705729)"/>
     <use xlink:href="#DejaVuSerif-20" transform="translate(11107.814453 0.705729)"/>
     <use xlink:href="#DejaVuSerif-6d" transform="translate(11139.601562 0.705729)"/>
     <use xlink:href="#DejaVuSerif-69" transform="translate(11234.425781 0.705729)"/>
     <use xlink:href="#DejaVuSerif-6e" transform="translate(11266.408203 0.705729)"/>
     <use xlink:href="#DejaVuSerif-69" transform="translate(11330.8125 0.705729)"/>
     <use xlink:href="#DejaVuSerif-6d" transform="translate(11362.794922 0.705729)"/>
     <use xlink:href="#DejaVuSerif-75" transform="translate(11457.619141 0.705729)"/>
     <use xlink:href="#DejaVuSerif-6d" transform="translate(11522.023438 0.705729)"/>
     <use xlink:href="#DejaVuSerif-20" transform="translate(11616.847656 0.705729)"/>
     <use xlink:href="#DejaVuSerif-6f" transform="translate(11648.634766 0.705729)"/>
     <use xlink:href="#DejaVuSerif-66" transform="translate(11708.839844 0.705729)"/>
     <use xlink:href="#DejaVuSerif-20" transform="translate(11745.851562 0.705729)"/>
     <use xlink:href="#Cmmi10-61" transform="translate(11777.638672 0.705729)"/>
     <use xlink:href="#DejaVuSerif-20" transform="translate(11830.421875 0.705729)"/>
     <use xlink:href="#DejaVuSerif-61" transform="translate(11862.208984 0.705729)"/>
     <use xlink:href="#DejaVuSerif-6e" transform="translate(11921.828125 0.705729)"/>
     <use xlink:href="#DejaVuSerif-64" transform="translate(11986.232422 0.705729)"/>
     <use xlink:href="#DejaVuSerif-20" transform="translate(12050.246094 0.705729)"/>
     <use xlink:href="#Cmmi10-62" transform="translate(12082.033203 0.705729)"/>
     <use xlink:href="#DejaVuSerif-2e" transform="translate(12124.953125 0.705729)"/>
     <use xlink:href="#DejaVuSerif-29" transform="translate(12156.740234 0.705729)"/>
    </g>
   </g>
  </g>
 </g>
</svg>
