<?xml version="1.0" encoding="utf-8" standalone="no"?>
<!DOCTYPE svg PUBLIC "-//W3C//DTD SVG 1.1//EN"
  "http://www.w3.org/Graphics/SVG/1.1/DTD/svg11.dtd">
<svg xmlns:xlink="http://www.w3.org/1999/xlink" width="2501.88pt" height="180.72pt" viewBox="0 0 2501.88 180.72" xmlns="http://www.w3.org/2000/svg" version="1.1">
 <metadata>
  <rdf:RDF xmlns:dc="http://purl.org/dc/elements/1.1/" xmlns:cc="http://creativecommons.org/ns#" xmlns:rdf="http://www.w3.org/1999/02/22-rdf-syntax-ns#">
   <cc:Work>
    <dc:type rdf:resource="http://purl.org/dc/dcmitype/StillImage"/>
    <dc:date>2025-05-29T18:44:25.955321</dc:date>
    <dc:format>image/svg+xml</dc:format>
    <dc:creator>
     <cc:Agent>
      <dc:title>Matplotlib v3.10.3, https://matplotlib.org/</dc:title>
     </cc:Agent>
    </dc:creator>
   </cc:Work>
  </rdf:RDF>
 </metadata>
 <defs>
  <style type="text/css">*{stroke-linejoin: round; stroke-linecap: butt}</style>
 </defs>
 <g id="figure_1">
  <g id="patch_1">
   <path d="M 0 180.72 
L 2501.88 180.72 
L 2501.88 0 
L 0 0 
z
" style="fill: #ffffff"/>
  </g>
  <g id="axes_1">
   <g id="text_1">
    <!-- A sequence $y_1, y_2, \dots, y_k$ of real numbers is called zigzag if $k = 1$, or if $y_2 - y_1, y_3 - y_2, \dots, y_k - y_{k-1}$ are nonzero and alternate in sign. Let $X_1, X_2,\dots, X_n$ be chosen independently from the uniform distribution on $[0,1]$. Let $a(X_1, X_2, \dots, X_n)$ be the largest value of $k$ for which there exists an increasing sequence of integers $i_1, i_2, \dots, i_k$ such that $X_{i_1}, X_{i_2}, \dots, X_{i_k}$ is zigzag. Find the expected value of $a(X_1, X_2, \dots, X_n)$ for $n \geq 2$. -->
    <g transform="translate(7.2 93.12) scale(0.12 -0.12)">
     <defs>
      <path id="DejaVuSerif-41" d="M 1281 1691 
L 2994 1691 
L 2138 3909 
L 1281 1691 
z
M -38 0 
L -38 331 
L 372 331 
L 2034 4666 
L 2559 4666 
L 4225 331 
L 4684 331 
L 4684 0 
L 2988 0 
L 2988 331 
L 3506 331 
L 3116 1356 
L 1153 1356 
L 763 331 
L 1275 331 
L 1275 0 
L -38 0 
z
" transform="scale(0.015625)"/>
      <path id="DejaVuSerif-20" transform="scale(0.015625)"/>
      <path id="DejaVuSerif-73" d="M 359 184 
L 359 959 
L 691 959 
Q 703 588 923 403 
Q 1144 219 1575 219 
Q 1963 219 2166 364 
Q 2369 509 2369 788 
Q 2369 1006 2220 1140 
Q 2072 1275 1594 1428 
L 1178 1569 
Q 750 1706 558 1912 
Q 366 2119 366 2438 
Q 366 2894 700 3153 
Q 1034 3413 1625 3413 
Q 1888 3413 2178 3344 
Q 2469 3275 2778 3144 
L 2778 2419 
L 2447 2419 
Q 2434 2741 2221 2922 
Q 2009 3103 1644 3103 
Q 1281 3103 1095 2975 
Q 909 2847 909 2591 
Q 909 2381 1050 2254 
Q 1191 2128 1613 1997 
L 2069 1856 
Q 2541 1709 2748 1489 
Q 2956 1269 2956 922 
Q 2956 450 2595 179 
Q 2234 -91 1600 -91 
Q 1278 -91 972 -22 
Q 666 47 359 184 
z
" transform="scale(0.015625)"/>
      <path id="DejaVuSerif-65" d="M 3469 1600 
L 991 1600 
L 991 1575 
Q 991 903 1244 561 
Q 1497 219 1991 219 
Q 2369 219 2611 417 
Q 2853 616 2950 1006 
L 3413 1006 
Q 3275 459 2904 184 
Q 2534 -91 1931 -91 
Q 1203 -91 761 389 
Q 319 869 319 1663 
Q 319 2450 753 2931 
Q 1188 3413 1894 3413 
Q 2647 3413 3050 2948 
Q 3453 2484 3469 1600 
z
M 2791 1931 
Q 2772 2513 2545 2808 
Q 2319 3103 1894 3103 
Q 1497 3103 1269 2806 
Q 1041 2509 991 1931 
L 2791 1931 
z
" transform="scale(0.015625)"/>
      <path id="DejaVuSerif-71" d="M 3359 2988 
L 3359 -997 
L 3909 -997 
L 3909 -1331 
L 2241 -1331 
L 2241 -997 
L 2784 -997 
L 2784 519 
Q 2616 206 2355 57 
Q 2094 -91 1709 -91 
Q 1097 -91 708 395 
Q 319 881 319 1663 
Q 319 2444 706 2928 
Q 1094 3413 1709 3413 
Q 2094 3413 2355 3264 
Q 2616 3116 2784 2803 
L 2784 3322 
L 3909 3322 
L 3909 2988 
L 3359 2988 
z
M 2784 1825 
Q 2784 2422 2554 2737 
Q 2325 3053 1888 3053 
Q 1444 3053 1217 2703 
Q 991 2353 991 1663 
Q 991 975 1217 622 
Q 1444 269 1888 269 
Q 2325 269 2554 583 
Q 2784 897 2784 1497 
L 2784 1825 
z
" transform="scale(0.015625)"/>
      <path id="DejaVuSerif-75" d="M 2266 3322 
L 3341 3322 
L 3341 331 
L 3884 331 
L 3884 0 
L 2766 0 
L 2766 588 
Q 2606 256 2353 82 
Q 2100 -91 1766 -91 
Q 1213 -91 952 223 
Q 691 538 691 1209 
L 691 2988 
L 172 2988 
L 172 3322 
L 1269 3322 
L 1269 1388 
Q 1269 781 1417 556 
Q 1566 331 1947 331 
Q 2347 331 2556 625 
Q 2766 919 2766 1478 
L 2766 2988 
L 2266 2988 
L 2266 3322 
z
" transform="scale(0.015625)"/>
      <path id="DejaVuSerif-6e" d="M 263 0 
L 263 331 
L 781 331 
L 781 2988 
L 231 2988 
L 231 3322 
L 1356 3322 
L 1356 2731 
Q 1516 3069 1770 3241 
Q 2025 3413 2363 3413 
Q 2913 3413 3172 3097 
Q 3431 2781 3431 2113 
L 3431 331 
L 3944 331 
L 3944 0 
L 2356 0 
L 2356 331 
L 2853 331 
L 2853 1931 
Q 2853 2541 2703 2767 
Q 2553 2994 2175 2994 
Q 1775 2994 1565 2701 
Q 1356 2409 1356 1850 
L 1356 331 
L 1856 331 
L 1856 0 
L 263 0 
z
" transform="scale(0.015625)"/>
      <path id="DejaVuSerif-63" d="M 3291 997 
Q 3169 466 2822 187 
Q 2475 -91 1925 -91 
Q 1200 -91 759 389 
Q 319 869 319 1663 
Q 319 2459 759 2936 
Q 1200 3413 1925 3413 
Q 2241 3413 2553 3339 
Q 2866 3266 3181 3116 
L 3181 2266 
L 2847 2266 
Q 2781 2703 2561 2903 
Q 2341 3103 1931 3103 
Q 1466 3103 1228 2742 
Q 991 2381 991 1663 
Q 991 944 1227 581 
Q 1463 219 1931 219 
Q 2303 219 2525 412 
Q 2747 606 2828 997 
L 3291 997 
z
" transform="scale(0.015625)"/>
      <path id="Cmmi10-79" d="M 538 -916 
Q 672 -1147 1006 -1147 
Q 1309 -1147 1531 -934 
Q 1753 -722 1889 -420 
Q 2025 -119 2100 197 
Q 1816 -72 1484 -72 
Q 1231 -72 1053 15 
Q 875 103 776 276 
Q 678 450 678 697 
Q 678 906 734 1126 
Q 791 1347 892 1617 
Q 994 1888 1069 2088 
Q 1153 2322 1153 2472 
Q 1153 2663 1013 2663 
Q 759 2663 595 2402 
Q 431 2141 353 1819 
Q 341 1778 300 1778 
L 225 1778 
Q 172 1778 172 1838 
L 172 1856 
Q 275 2238 487 2533 
Q 700 2828 1025 2828 
Q 1253 2828 1411 2678 
Q 1569 2528 1569 2297 
Q 1569 2178 1516 2047 
Q 1488 1969 1388 1706 
Q 1288 1444 1234 1272 
Q 1181 1100 1147 934 
Q 1113 769 1113 603 
Q 1113 391 1203 244 
Q 1294 97 1491 97 
Q 1888 97 2203 581 
L 2688 2553 
Q 2709 2638 2787 2698 
Q 2866 2759 2956 2759 
Q 3034 2759 3092 2709 
Q 3150 2659 3150 2578 
Q 3150 2541 3144 2528 
L 2509 -19 
Q 2425 -347 2200 -647 
Q 1975 -947 1658 -1130 
Q 1341 -1313 997 -1313 
Q 831 -1313 668 -1248 
Q 506 -1184 406 -1056 
Q 306 -928 306 -756 
Q 306 -581 409 -453 
Q 513 -325 684 -325 
Q 788 -325 858 -389 
Q 928 -453 928 -556 
Q 928 -703 818 -812 
Q 709 -922 563 -922 
Q 556 -919 550 -917 
Q 544 -916 538 -916 
z
" transform="scale(0.015625)"/>
      <path id="Cmr10-31" d="M 594 0 
L 594 225 
Q 1394 225 1394 428 
L 1394 3788 
Q 1063 3628 556 3628 
L 556 3853 
Q 1341 3853 1741 4263 
L 1831 4263 
Q 1853 4263 1873 4245 
Q 1894 4228 1894 4206 
L 1894 428 
Q 1894 225 2694 225 
L 2694 0 
L 594 0 
z
" transform="scale(0.015625)"/>
      <path id="Cmmi10-3b" d="M 634 -1153 
Q 634 -1125 659 -1100 
Q 891 -878 1019 -587 
Q 1147 -297 1147 25 
L 1147 103 
Q 1044 0 891 0 
Q 744 0 641 103 
Q 538 206 538 353 
Q 538 503 641 603 
Q 744 703 891 703 
Q 1119 703 1216 492 
Q 1313 281 1313 25 
Q 1313 -331 1170 -651 
Q 1028 -972 769 -1228 
Q 744 -1241 728 -1241 
Q 697 -1241 665 -1212 
Q 634 -1184 634 -1153 
z
" transform="scale(0.015625)"/>
      <path id="Cmr10-32" d="M 319 0 
L 319 172 
Q 319 188 331 206 
L 1325 1306 
Q 1550 1550 1690 1715 
Q 1831 1881 1968 2097 
Q 2106 2313 2186 2536 
Q 2266 2759 2266 3009 
Q 2266 3272 2169 3511 
Q 2072 3750 1880 3894 
Q 1688 4038 1416 4038 
Q 1138 4038 916 3870 
Q 694 3703 603 3438 
Q 628 3444 672 3444 
Q 816 3444 917 3347 
Q 1019 3250 1019 3097 
Q 1019 2950 917 2848 
Q 816 2747 672 2747 
Q 522 2747 420 2851 
Q 319 2956 319 3097 
Q 319 3338 409 3548 
Q 500 3759 670 3923 
Q 841 4088 1055 4175 
Q 1269 4263 1509 4263 
Q 1875 4263 2190 4108 
Q 2506 3953 2690 3670 
Q 2875 3388 2875 3009 
Q 2875 2731 2753 2481 
Q 2631 2231 2440 2026 
Q 2250 1822 1953 1562 
Q 1656 1303 1563 1216 
L 838 519 
L 1453 519 
Q 1906 519 2211 526 
Q 2516 534 2534 550 
Q 2609 631 2688 1141 
L 2875 1141 
L 2694 0 
L 319 0 
z
" transform="scale(0.015625)"/>
      <path id="STIXGeneral-Regular-2026" d="M 5683 275 
Q 5683 134 5577 32 
Q 5472 -70 5325 -70 
Q 5178 -70 5075 32 
Q 4973 134 4973 281 
Q 4973 429 5078 534 
Q 5184 640 5331 640 
Q 5472 640 5577 531 
Q 5683 422 5683 275 
z
M 3552 275 
Q 3552 134 3446 32 
Q 3341 -70 3193 -70 
Q 3046 -70 2944 32 
Q 2842 134 2842 281 
Q 2842 429 2947 534 
Q 3053 640 3200 640 
Q 3341 640 3446 531 
Q 3552 422 3552 275 
z
M 1421 275 
Q 1421 134 1315 32 
Q 1210 -70 1062 -70 
Q 915 -70 812 32 
Q 710 134 710 281 
Q 710 429 816 534 
Q 922 640 1069 640 
Q 1210 640 1315 531 
Q 1421 422 1421 275 
z
" transform="scale(0.015625)"/>
      <path id="Cmmi10-6b" d="M 341 116 
Q 341 153 347 172 
L 1275 3872 
Q 1300 3981 1306 4044 
Q 1306 4147 891 4147 
Q 825 4147 825 4231 
Q 828 4247 839 4287 
Q 850 4328 867 4350 
Q 884 4372 916 4372 
L 1778 4441 
L 1797 4441 
Q 1797 4434 1819 4423 
Q 1841 4413 1844 4409 
Q 1856 4378 1856 4359 
L 1184 1684 
Q 1416 1781 1767 2145 
Q 2119 2509 2317 2668 
Q 2516 2828 2816 2828 
Q 2994 2828 3119 2706 
Q 3244 2584 3244 2406 
Q 3244 2294 3197 2198 
Q 3150 2103 3065 2043 
Q 2981 1984 2869 1984 
Q 2766 1984 2695 2048 
Q 2625 2113 2625 2216 
Q 2625 2369 2733 2473 
Q 2841 2578 2994 2578 
Q 2931 2663 2803 2663 
Q 2613 2663 2436 2553 
Q 2259 2444 2054 2239 
Q 1850 2034 1681 1864 
Q 1513 1694 1369 1606 
Q 1747 1563 2025 1408 
Q 2303 1253 2303 934 
Q 2303 869 2278 769 
Q 2222 528 2222 384 
Q 2222 97 2419 97 
Q 2650 97 2770 350 
Q 2891 603 2969 941 
Q 2981 978 3022 978 
L 3097 978 
Q 3122 978 3139 962 
Q 3156 947 3156 922 
Q 3156 916 3150 903 
Q 2909 -72 2406 -72 
Q 2225 -72 2086 12 
Q 1947 97 1872 242 
Q 1797 388 1797 569 
Q 1797 672 1825 781 
Q 1844 856 1844 922 
Q 1844 1169 1625 1297 
Q 1406 1425 1125 1453 
L 800 147 
Q 775 50 703 -11 
Q 631 -72 538 -72 
Q 456 -72 398 -17 
Q 341 38 341 116 
z
" transform="scale(0.015625)"/>
      <path id="DejaVuSerif-6f" d="M 1925 219 
Q 2388 219 2623 584 
Q 2859 950 2859 1663 
Q 2859 2375 2623 2739 
Q 2388 3103 1925 3103 
Q 1463 3103 1227 2739 
Q 991 2375 991 1663 
Q 991 950 1228 584 
Q 1466 219 1925 219 
z
M 1925 -91 
Q 1200 -91 759 389 
Q 319 869 319 1663 
Q 319 2456 758 2934 
Q 1197 3413 1925 3413 
Q 2653 3413 3092 2934 
Q 3531 2456 3531 1663 
Q 3531 869 3092 389 
Q 2653 -91 1925 -91 
z
" transform="scale(0.015625)"/>
      <path id="DejaVuSerif-66" d="M 2753 4078 
L 2450 4078 
Q 2447 4313 2317 4434 
Q 2188 4556 1941 4556 
Q 1619 4556 1487 4379 
Q 1356 4203 1356 3750 
L 1356 3322 
L 2284 3322 
L 2284 2988 
L 1356 2988 
L 1356 331 
L 2094 331 
L 2094 0 
L 231 0 
L 231 331 
L 781 331 
L 781 2988 
L 231 2988 
L 231 3322 
L 781 3322 
L 781 3738 
Q 781 4294 1070 4578 
Q 1359 4863 1919 4863 
Q 2128 4863 2337 4825 
Q 2547 4788 2753 4709 
L 2753 4078 
z
" transform="scale(0.015625)"/>
      <path id="DejaVuSerif-72" d="M 3059 3328 
L 3059 2497 
L 2728 2497 
Q 2713 2744 2591 2866 
Q 2469 2988 2234 2988 
Q 1809 2988 1582 2694 
Q 1356 2400 1356 1850 
L 1356 331 
L 2022 331 
L 2022 0 
L 263 0 
L 263 331 
L 781 331 
L 781 2994 
L 231 2994 
L 231 3322 
L 1356 3322 
L 1356 2731 
Q 1525 3078 1790 3245 
Q 2056 3413 2438 3413 
Q 2578 3413 2733 3391 
Q 2888 3369 3059 3328 
z
" transform="scale(0.015625)"/>
      <path id="DejaVuSerif-61" d="M 2547 1044 
L 2547 1747 
L 1806 1747 
Q 1378 1747 1168 1562 
Q 959 1378 959 997 
Q 959 650 1171 447 
Q 1384 244 1747 244 
Q 2106 244 2326 466 
Q 2547 688 2547 1044 
z
M 3122 2075 
L 3122 331 
L 3634 331 
L 3634 0 
L 2547 0 
L 2547 359 
Q 2356 128 2106 18 
Q 1856 -91 1522 -91 
Q 969 -91 644 203 
Q 319 497 319 997 
Q 319 1513 691 1797 
Q 1063 2081 1741 2081 
L 2547 2081 
L 2547 2309 
Q 2547 2688 2317 2895 
Q 2088 3103 1672 3103 
Q 1328 3103 1125 2947 
Q 922 2791 872 2484 
L 575 2484 
L 575 3156 
Q 875 3284 1158 3348 
Q 1441 3413 1709 3413 
Q 2400 3413 2761 3070 
Q 3122 2728 3122 2075 
z
" transform="scale(0.015625)"/>
      <path id="DejaVuSerif-6c" d="M 1313 331 
L 1856 331 
L 1856 0 
L 184 0 
L 184 331 
L 738 331 
L 738 4531 
L 184 4531 
L 184 4863 
L 1313 4863 
L 1313 331 
z
" transform="scale(0.015625)"/>
      <path id="DejaVuSerif-6d" d="M 3316 2675 
Q 3481 3041 3739 3227 
Q 3997 3413 4341 3413 
Q 4863 3413 5119 3089 
Q 5375 2766 5375 2113 
L 5375 331 
L 5894 331 
L 5894 0 
L 4300 0 
L 4300 331 
L 4800 331 
L 4800 2047 
Q 4800 2556 4650 2772 
Q 4500 2988 4153 2988 
Q 3769 2988 3567 2697 
Q 3366 2406 3366 1850 
L 3366 331 
L 3866 331 
L 3866 0 
L 2291 0 
L 2291 331 
L 2791 331 
L 2791 2069 
Q 2791 2566 2641 2777 
Q 2491 2988 2144 2988 
Q 1759 2988 1557 2697 
Q 1356 2406 1356 1850 
L 1356 331 
L 1856 331 
L 1856 0 
L 263 0 
L 263 331 
L 781 331 
L 781 2994 
L 231 2994 
L 231 3322 
L 1356 3322 
L 1356 2731 
Q 1516 3063 1762 3238 
Q 2009 3413 2322 3413 
Q 2709 3413 2968 3220 
Q 3228 3028 3316 2675 
z
" transform="scale(0.015625)"/>
      <path id="DejaVuSerif-62" d="M 738 331 
L 738 4531 
L 184 4531 
L 184 4863 
L 1313 4863 
L 1313 2803 
Q 1481 3116 1742 3264 
Q 2003 3413 2388 3413 
Q 3000 3413 3387 2928 
Q 3775 2444 3775 1663 
Q 3775 881 3387 395 
Q 3000 -91 2388 -91 
Q 2003 -91 1742 57 
Q 1481 206 1313 519 
L 1313 0 
L 184 0 
L 184 331 
L 738 331 
z
M 1313 1497 
Q 1313 897 1542 583 
Q 1772 269 2209 269 
Q 2650 269 2876 622 
Q 3103 975 3103 1663 
Q 3103 2353 2876 2703 
Q 2650 3053 2209 3053 
Q 1772 3053 1542 2737 
Q 1313 2422 1313 1825 
L 1313 1497 
z
" transform="scale(0.015625)"/>
      <path id="DejaVuSerif-69" d="M 622 4353 
Q 622 4497 726 4603 
Q 831 4709 978 4709 
Q 1122 4709 1226 4603 
Q 1331 4497 1331 4353 
Q 1331 4206 1228 4103 
Q 1125 4000 978 4000 
Q 831 4000 726 4103 
Q 622 4206 622 4353 
z
M 1356 331 
L 1900 331 
L 1900 0 
L 231 0 
L 231 331 
L 781 331 
L 781 2988 
L 231 2988 
L 231 3322 
L 1356 3322 
L 1356 331 
z
" transform="scale(0.015625)"/>
      <path id="DejaVuSerif-64" d="M 3359 331 
L 3909 331 
L 3909 0 
L 2784 0 
L 2784 519 
Q 2616 206 2355 57 
Q 2094 -91 1709 -91 
Q 1097 -91 708 395 
Q 319 881 319 1663 
Q 319 2444 706 2928 
Q 1094 3413 1709 3413 
Q 2094 3413 2355 3264 
Q 2616 3116 2784 2803 
L 2784 4531 
L 2241 4531 
L 2241 4863 
L 3359 4863 
L 3359 331 
z
M 2784 1497 
L 2784 1825 
Q 2784 2422 2554 2737 
Q 2325 3053 1888 3053 
Q 1444 3053 1217 2703 
Q 991 2353 991 1663 
Q 991 975 1217 622 
Q 1444 269 1888 269 
Q 2325 269 2554 583 
Q 2784 897 2784 1497 
z
" transform="scale(0.015625)"/>
      <path id="DejaVuSerif-7a" d="M 256 0 
L 256 269 
L 2338 2988 
L 691 2988 
L 691 2413 
L 359 2413 
L 359 3322 
L 3078 3322 
L 3078 3053 
L 997 331 
L 2803 331 
L 2803 934 
L 3138 934 
L 3138 0 
L 256 0 
z
" transform="scale(0.015625)"/>
      <path id="DejaVuSerif-67" d="M 3359 2988 
L 3359 72 
Q 3359 -644 2965 -1033 
Q 2572 -1422 1844 -1422 
Q 1516 -1422 1216 -1362 
Q 916 -1303 641 -1184 
L 641 -488 
L 941 -488 
Q 997 -813 1206 -963 
Q 1416 -1113 1806 -1113 
Q 2313 -1113 2548 -827 
Q 2784 -541 2784 72 
L 2784 519 
Q 2616 206 2355 57 
Q 2094 -91 1709 -91 
Q 1097 -91 708 395 
Q 319 881 319 1663 
Q 319 2444 706 2928 
Q 1094 3413 1709 3413 
Q 2094 3413 2355 3264 
Q 2616 3116 2784 2803 
L 2784 3322 
L 3909 3322 
L 3909 2988 
L 3359 2988 
z
M 2784 1825 
Q 2784 2422 2554 2737 
Q 2325 3053 1888 3053 
Q 1444 3053 1217 2703 
Q 991 2353 991 1663 
Q 991 975 1217 622 
Q 1444 269 1888 269 
Q 2325 269 2554 583 
Q 2784 897 2784 1497 
L 2784 1825 
z
" transform="scale(0.015625)"/>
      <path id="Cmr10-3d" d="M 481 850 
Q 428 850 393 890 
Q 359 931 359 978 
Q 359 1031 393 1068 
Q 428 1106 481 1106 
L 4500 1106 
Q 4547 1106 4581 1068 
Q 4616 1031 4616 978 
Q 4616 931 4581 890 
Q 4547 850 4500 850 
L 481 850 
z
M 481 2094 
Q 428 2094 393 2131 
Q 359 2169 359 2222 
Q 359 2269 393 2309 
Q 428 2350 481 2350 
L 4500 2350 
Q 4547 2350 4581 2309 
Q 4616 2269 4616 2222 
Q 4616 2169 4581 2131 
Q 4547 2094 4500 2094 
L 481 2094 
z
" transform="scale(0.015625)"/>
      <path id="DejaVuSerif-2c" d="M 231 -622 
Q 525 -406 662 -114 
Q 800 178 800 594 
L 800 709 
L 1416 709 
Q 1391 175 1164 -208 
Q 938 -591 481 -872 
L 231 -622 
z
" transform="scale(0.015625)"/>
      <path id="Cmsy10-a1" d="M 653 1472 
Q 600 1472 565 1512 
Q 531 1553 531 1600 
Q 531 1647 565 1687 
Q 600 1728 653 1728 
L 4325 1728 
Q 4375 1728 4408 1687 
Q 4441 1647 4441 1600 
Q 4441 1553 4408 1512 
Q 4375 1472 4325 1472 
L 653 1472 
z
" transform="scale(0.015625)"/>
      <path id="Cmr10-33" d="M 609 494 
Q 759 275 1012 169 
Q 1266 63 1556 63 
Q 1928 63 2084 380 
Q 2241 697 2241 1100 
Q 2241 1281 2208 1462 
Q 2175 1644 2097 1800 
Q 2019 1956 1883 2050 
Q 1747 2144 1550 2144 
L 1125 2144 
Q 1069 2144 1069 2203 
L 1069 2259 
Q 1069 2309 1125 2309 
L 1478 2338 
Q 1703 2338 1851 2506 
Q 2000 2675 2069 2917 
Q 2138 3159 2138 3378 
Q 2138 3684 1994 3881 
Q 1850 4078 1556 4078 
Q 1313 4078 1091 3986 
Q 869 3894 738 3706 
Q 750 3709 759 3711 
Q 769 3713 781 3713 
Q 925 3713 1022 3613 
Q 1119 3513 1119 3372 
Q 1119 3234 1022 3134 
Q 925 3034 781 3034 
Q 641 3034 541 3134 
Q 441 3234 441 3372 
Q 441 3647 606 3850 
Q 772 4053 1033 4158 
Q 1294 4263 1556 4263 
Q 1750 4263 1965 4205 
Q 2181 4147 2356 4039 
Q 2531 3931 2642 3762 
Q 2753 3594 2753 3378 
Q 2753 3109 2633 2881 
Q 2513 2653 2303 2487 
Q 2094 2322 1844 2241 
Q 2122 2188 2372 2031 
Q 2622 1875 2773 1631 
Q 2925 1388 2925 1106 
Q 2925 753 2731 467 
Q 2538 181 2222 20 
Q 1906 -141 1556 -141 
Q 1256 -141 954 -26 
Q 653 88 461 316 
Q 269 544 269 863 
Q 269 1022 375 1128 
Q 481 1234 641 1234 
Q 744 1234 830 1186 
Q 916 1138 964 1050 
Q 1013 963 1013 863 
Q 1013 706 903 600 
Q 794 494 641 494 
L 609 494 
z
" transform="scale(0.015625)"/>
      <path id="DejaVuSerif-74" d="M 691 2988 
L 184 2988 
L 184 3322 
L 691 3322 
L 691 4353 
L 1269 4353 
L 1269 3322 
L 2350 3322 
L 2350 2988 
L 1269 2988 
L 1269 878 
Q 1269 456 1350 337 
Q 1431 219 1650 219 
Q 1875 219 1978 351 
Q 2081 484 2088 781 
L 2522 781 
Q 2497 328 2275 118 
Q 2053 -91 1600 -91 
Q 1103 -91 897 129 
Q 691 350 691 878 
L 691 2988 
z
" transform="scale(0.015625)"/>
      <path id="DejaVuSerif-2e" d="M 603 325 
Q 603 500 722 622 
Q 841 744 1019 744 
Q 1191 744 1312 622 
Q 1434 500 1434 325 
Q 1434 153 1312 31 
Q 1191 -91 1019 -91 
Q 841 -91 722 29 
Q 603 150 603 325 
z
" transform="scale(0.015625)"/>
      <path id="DejaVuSerif-4c" d="M 353 0 
L 353 331 
L 947 331 
L 947 4331 
L 353 4331 
L 353 4666 
L 2175 4666 
L 2175 4331 
L 1581 4331 
L 1581 384 
L 3713 384 
L 3713 1166 
L 4097 1166 
L 4097 0 
L 353 0 
z
" transform="scale(0.015625)"/>
      <path id="Cmmi10-58" d="M 231 0 
Q 166 0 166 84 
Q 169 100 180 140 
Q 191 181 208 203 
Q 225 225 256 225 
Q 838 225 1253 659 
Q 1259 666 1267 669 
Q 1275 672 1275 672 
L 2675 2181 
L 1913 4019 
Q 1847 4103 1700 4125 
Q 1553 4147 1356 4147 
Q 1294 4147 1294 4231 
Q 1316 4313 1328 4342 
Q 1341 4372 1403 4372 
L 3003 4372 
Q 3066 4372 3066 4288 
Q 3063 4272 3052 4231 
Q 3041 4191 3023 4169 
Q 3006 4147 2975 4147 
Q 2856 4147 2729 4108 
Q 2603 4069 2553 3981 
L 3103 2656 
L 4153 3781 
Q 4163 3803 4197 3858 
Q 4231 3913 4231 3963 
Q 4231 4056 4150 4101 
Q 4069 4147 3956 4147 
Q 3891 4147 3891 4231 
Q 3913 4313 3925 4342 
Q 3938 4372 4000 4372 
L 5388 4372 
Q 5422 4372 5437 4347 
Q 5453 4322 5453 4288 
Q 5450 4272 5440 4234 
Q 5431 4197 5415 4172 
Q 5400 4147 5369 4147 
Q 5072 4147 4823 4039 
Q 4575 3931 4366 3713 
Q 4363 3709 4358 3707 
Q 4353 3706 4347 3700 
L 3188 2450 
L 4063 353 
Q 4166 225 4622 225 
Q 4684 225 4684 141 
Q 4663 56 4648 28 
Q 4634 0 4575 0 
L 2975 0 
Q 2913 0 2913 84 
Q 2916 100 2925 139 
Q 2934 178 2951 201 
Q 2969 225 2994 225 
Q 3119 225 3247 264 
Q 3375 303 3425 391 
L 2759 1984 
L 1466 588 
Q 1456 566 1422 512 
Q 1388 459 1388 409 
Q 1388 316 1475 270 
Q 1563 225 1663 225 
Q 1728 225 1728 141 
Q 1706 50 1693 25 
Q 1681 0 1619 0 
L 231 0 
z
" transform="scale(0.015625)"/>
      <path id="Cmmi10-6e" d="M 494 109 
Q 494 147 500 166 
L 978 2075 
Q 1025 2253 1025 2388 
Q 1025 2663 838 2663 
Q 638 2663 541 2423 
Q 444 2184 353 1819 
Q 353 1800 334 1789 
Q 316 1778 300 1778 
L 225 1778 
Q 203 1778 187 1801 
Q 172 1825 172 1844 
Q 241 2122 305 2315 
Q 369 2509 505 2668 
Q 641 2828 844 2828 
Q 1084 2828 1268 2676 
Q 1453 2525 1453 2291 
Q 1644 2541 1900 2684 
Q 2156 2828 2444 2828 
Q 2672 2828 2837 2750 
Q 3003 2672 3095 2514 
Q 3188 2356 3188 2138 
Q 3188 1875 3070 1503 
Q 2953 1131 2778 672 
Q 2688 463 2688 288 
Q 2688 97 2834 97 
Q 3084 97 3251 365 
Q 3419 634 3488 941 
Q 3500 978 3541 978 
L 3616 978 
Q 3641 978 3658 962 
Q 3675 947 3675 922 
Q 3675 916 3669 903 
Q 3581 541 3364 234 
Q 3147 -72 2822 -72 
Q 2597 -72 2437 83 
Q 2278 238 2278 459 
Q 2278 578 2328 709 
Q 2409 919 2514 1209 
Q 2619 1500 2686 1765 
Q 2753 2031 2753 2234 
Q 2753 2413 2679 2538 
Q 2606 2663 2431 2663 
Q 2197 2663 2000 2559 
Q 1803 2456 1656 2286 
Q 1509 2116 1388 1881 
L 953 141 
Q 931 53 854 -9 
Q 778 -72 684 -72 
Q 606 -72 550 -22 
Q 494 28 494 109 
z
" transform="scale(0.015625)"/>
      <path id="DejaVuSerif-68" d="M 263 0 
L 263 331 
L 781 331 
L 781 4531 
L 231 4531 
L 231 4863 
L 1356 4863 
L 1356 2731 
Q 1516 3069 1770 3241 
Q 2025 3413 2363 3413 
Q 2913 3413 3172 3097 
Q 3431 2781 3431 2113 
L 3431 331 
L 3944 331 
L 3944 0 
L 2356 0 
L 2356 331 
L 2853 331 
L 2853 1931 
Q 2853 2541 2704 2764 
Q 2556 2988 2175 2988 
Q 1775 2988 1565 2697 
Q 1356 2406 1356 1850 
L 1356 331 
L 1856 331 
L 1856 0 
L 263 0 
z
" transform="scale(0.015625)"/>
      <path id="DejaVuSerif-70" d="M 1313 1825 
L 1313 1497 
Q 1313 897 1542 583 
Q 1772 269 2209 269 
Q 2650 269 2876 622 
Q 3103 975 3103 1663 
Q 3103 2353 2876 2703 
Q 2650 3053 2209 3053 
Q 1772 3053 1542 2737 
Q 1313 2422 1313 1825 
z
M 738 2988 
L 184 2988 
L 184 3322 
L 1313 3322 
L 1313 2803 
Q 1481 3116 1742 3264 
Q 2003 3413 2388 3413 
Q 3000 3413 3387 2928 
Q 3775 2444 3775 1663 
Q 3775 881 3387 395 
Q 3000 -91 2388 -91 
Q 2003 -91 1742 57 
Q 1481 206 1313 519 
L 1313 -997 
L 1856 -997 
L 1856 -1331 
L 184 -1331 
L 184 -997 
L 738 -997 
L 738 2988 
z
" transform="scale(0.015625)"/>
      <path id="DejaVuSerif-79" d="M 1381 -609 
L 1600 -56 
L 359 2988 
L -19 2988 
L -19 3322 
L 1509 3322 
L 1509 2988 
L 978 2988 
L 1913 703 
L 2847 2988 
L 2350 2988 
L 2350 3322 
L 3597 3322 
L 3597 2988 
L 3225 2988 
L 1703 -750 
Q 1547 -1138 1356 -1280 
Q 1166 -1422 819 -1422 
Q 672 -1422 517 -1397 
Q 363 -1372 206 -1325 
L 206 -691 
L 500 -691 
Q 519 -903 608 -995 
Q 697 -1088 884 -1088 
Q 1056 -1088 1161 -992 
Q 1266 -897 1381 -609 
z
" transform="scale(0.015625)"/>
      <path id="Cmr10-5b" d="M 756 -1600 
L 756 4800 
L 1631 4800 
L 1631 4544 
L 1013 4544 
L 1013 -1344 
L 1631 -1344 
L 1631 -1600 
L 756 -1600 
z
" transform="scale(0.015625)"/>
      <path id="Cmr10-30" d="M 1600 -141 
Q 816 -141 533 504 
Q 250 1150 250 2041 
Q 250 2597 351 3087 
Q 453 3578 754 3920 
Q 1056 4263 1600 4263 
Q 2022 4263 2290 4056 
Q 2559 3850 2700 3523 
Q 2841 3197 2892 2823 
Q 2944 2450 2944 2041 
Q 2944 1491 2842 1011 
Q 2741 531 2444 195 
Q 2147 -141 1600 -141 
z
M 1600 25 
Q 1956 25 2131 390 
Q 2306 756 2347 1200 
Q 2388 1644 2388 2144 
Q 2388 2625 2347 3031 
Q 2306 3438 2132 3767 
Q 1959 4097 1600 4097 
Q 1238 4097 1063 3765 
Q 888 3434 847 3029 
Q 806 2625 806 2144 
Q 806 1788 823 1472 
Q 841 1156 916 820 
Q 991 484 1158 254 
Q 1325 25 1600 25 
z
" transform="scale(0.015625)"/>
      <path id="Cmr10-5d" d="M 141 -1600 
L 141 -1344 
L 763 -1344 
L 763 4544 
L 141 4544 
L 141 4800 
L 1019 4800 
L 1019 -1600 
L 141 -1600 
z
" transform="scale(0.015625)"/>
      <path id="Cmmi10-61" d="M 1113 -72 
Q 709 -72 476 233 
Q 244 538 244 953 
Q 244 1363 456 1803 
Q 669 2244 1030 2536 
Q 1391 2828 1806 2828 
Q 1997 2828 2147 2725 
Q 2297 2622 2381 2444 
Q 2453 2700 2663 2700 
Q 2744 2700 2798 2651 
Q 2853 2603 2853 2522 
Q 2853 2503 2851 2493 
Q 2850 2484 2847 2472 
L 2400 684 
Q 2356 494 2356 372 
Q 2356 97 2541 97 
Q 2741 97 2845 351 
Q 2950 606 3022 941 
Q 3034 978 3072 978 
L 3150 978 
Q 3175 978 3190 956 
Q 3206 934 3206 916 
Q 3094 469 2961 198 
Q 2828 -72 2528 -72 
Q 2313 -72 2147 54 
Q 1981 181 1941 391 
Q 1528 -72 1113 -72 
z
M 1119 97 
Q 1350 97 1567 270 
Q 1784 444 1941 678 
Q 1947 684 1947 697 
L 2291 2088 
L 2297 2106 
Q 2259 2334 2132 2498 
Q 2006 2663 1791 2663 
Q 1575 2663 1389 2486 
Q 1203 2309 1075 2069 
Q 950 1813 836 1366 
Q 722 919 722 672 
Q 722 450 817 273 
Q 913 97 1119 97 
z
" transform="scale(0.015625)"/>
      <path id="Cmr10-28" d="M 1984 -1588 
Q 1628 -1306 1370 -942 
Q 1113 -578 948 -165 
Q 784 247 703 697 
Q 622 1147 622 1600 
Q 622 2059 703 2509 
Q 784 2959 951 3375 
Q 1119 3791 1378 4153 
Q 1638 4516 1984 4788 
Q 1984 4800 2016 4800 
L 2075 4800 
Q 2094 4800 2109 4783 
Q 2125 4766 2125 4744 
Q 2125 4716 2113 4703 
Q 1800 4397 1592 4047 
Q 1384 3697 1257 3301 
Q 1131 2906 1075 2482 
Q 1019 2059 1019 1600 
Q 1019 -434 2106 -1491 
Q 2125 -1509 2125 -1544 
Q 2125 -1559 2108 -1579 
Q 2091 -1600 2075 -1600 
L 2016 -1600 
Q 1984 -1600 1984 -1588 
z
" transform="scale(0.015625)"/>
      <path id="Cmr10-29" d="M 416 -1600 
Q 359 -1600 359 -1544 
Q 359 -1516 372 -1503 
Q 1466 -434 1466 1600 
Q 1466 3634 384 4691 
Q 359 4706 359 4744 
Q 359 4766 376 4783 
Q 394 4800 416 4800 
L 475 4800 
Q 494 4800 506 4788 
Q 966 4425 1272 3906 
Q 1578 3388 1720 2800 
Q 1863 2213 1863 1600 
Q 1863 1147 1786 708 
Q 1709 269 1542 -157 
Q 1375 -584 1119 -945 
Q 863 -1306 506 -1588 
Q 494 -1600 475 -1600 
L 416 -1600 
z
" transform="scale(0.015625)"/>
      <path id="DejaVuSerif-76" d="M 1581 0 
L 359 2988 
L -19 2988 
L -19 3322 
L 1509 3322 
L 1509 2988 
L 978 2988 
L 1913 703 
L 2847 2988 
L 2350 2988 
L 2350 3322 
L 3597 3322 
L 3597 2988 
L 3225 2988 
L 2003 0 
L 1581 0 
z
" transform="scale(0.015625)"/>
      <path id="DejaVuSerif-77" d="M 3072 3322 
L 3922 728 
L 4672 2988 
L 4191 2988 
L 4191 3322 
L 5394 3322 
L 5394 2988 
L 5025 2988 
L 4038 0 
L 3559 0 
L 2741 2484 
L 1919 0 
L 1459 0 
L 475 2988 
L 103 2988 
L 103 3322 
L 1606 3322 
L 1606 2988 
L 1069 2988 
L 1813 728 
L 2669 3322 
L 3072 3322 
z
" transform="scale(0.015625)"/>
      <path id="DejaVuSerif-78" d="M 1863 2028 
L 2559 2988 
L 2113 2988 
L 2113 3322 
L 3391 3322 
L 3391 2988 
L 2950 2988 
L 2059 1759 
L 3097 331 
L 3531 331 
L 3531 0 
L 1997 0 
L 1997 331 
L 2419 331 
L 1697 1325 
L 972 331 
L 1403 331 
L 1403 0 
L 141 0 
L 141 331 
L 581 331 
L 1497 1594 
L 488 2988 
L 78 2988 
L 78 3322 
L 1563 3322 
L 1563 2988 
L 1166 2988 
L 1863 2028 
z
" transform="scale(0.015625)"/>
      <path id="Cmmi10-69" d="M 500 459 
Q 500 578 550 709 
L 1069 2088 
Q 1153 2322 1153 2472 
Q 1153 2663 1013 2663 
Q 759 2663 595 2402 
Q 431 2141 353 1819 
Q 341 1778 300 1778 
L 225 1778 
Q 172 1778 172 1838 
L 172 1856 
Q 275 2238 487 2533 
Q 700 2828 1025 2828 
Q 1253 2828 1411 2678 
Q 1569 2528 1569 2297 
Q 1569 2178 1516 2047 
L 997 672 
Q 909 459 909 288 
Q 909 97 1056 97 
Q 1306 97 1473 364 
Q 1641 631 1709 941 
Q 1722 978 1759 978 
L 1838 978 
Q 1863 978 1878 961 
Q 1894 944 1894 922 
Q 1894 916 1888 903 
Q 1800 541 1583 234 
Q 1366 -72 1044 -72 
Q 819 -72 659 83 
Q 500 238 500 459 
z
M 1222 3878 
Q 1222 4013 1334 4122 
Q 1447 4231 1581 4231 
Q 1691 4231 1761 4164 
Q 1831 4097 1831 3994 
Q 1831 3850 1717 3742 
Q 1603 3634 1466 3634 
Q 1363 3634 1292 3704 
Q 1222 3775 1222 3878 
z
" transform="scale(0.015625)"/>
      <path id="DejaVuSerif-46" d="M 353 0 
L 353 331 
L 947 331 
L 947 4331 
L 353 4331 
L 353 4666 
L 4172 4666 
L 4172 3628 
L 3788 3628 
L 3788 4281 
L 1581 4281 
L 1581 2719 
L 3175 2719 
L 3175 3303 
L 3559 3303 
L 3559 1753 
L 3175 1753 
L 3175 2338 
L 1581 2338 
L 1581 331 
L 2328 331 
L 2328 0 
L 353 0 
z
" transform="scale(0.015625)"/>
      <path id="Cmsy10-b8" d="M 653 -878 
Q 600 -878 565 -837 
Q 531 -797 531 -750 
Q 531 -697 565 -659 
Q 600 -622 653 -622 
L 4325 -622 
Q 4375 -622 4408 -659 
Q 4441 -697 4441 -750 
Q 4441 -797 4408 -837 
Q 4375 -878 4325 -878 
L 653 -878 
z
M 531 494 
Q 531 572 616 616 
L 4013 2222 
L 594 3834 
Q 531 3863 531 3944 
Q 531 3991 568 4031 
Q 606 4072 659 4072 
Q 691 4072 709 4063 
L 4384 2328 
Q 4441 2300 4441 2222 
Q 4441 2144 4366 2100 
L 709 378 
Q 691 366 659 366 
Q 606 366 568 403 
Q 531 441 531 494 
z
" transform="scale(0.015625)"/>
     </defs>
     <use xlink:href="#DejaVuSerif-41" transform="translate(0 0.015625)"/>
     <use xlink:href="#DejaVuSerif-20" transform="translate(72.216797 0.015625)"/>
     <use xlink:href="#DejaVuSerif-73" transform="translate(104.003906 0.015625)"/>
     <use xlink:href="#DejaVuSerif-65" transform="translate(155.322266 0.015625)"/>
     <use xlink:href="#DejaVuSerif-71" transform="translate(214.501953 0.015625)"/>
     <use xlink:href="#DejaVuSerif-75" transform="translate(278.515625 0.015625)"/>
     <use xlink:href="#DejaVuSerif-65" transform="translate(342.919922 0.015625)"/>
     <use xlink:href="#DejaVuSerif-6e" transform="translate(402.099609 0.015625)"/>
     <use xlink:href="#DejaVuSerif-63" transform="translate(466.503906 0.015625)"/>
     <use xlink:href="#DejaVuSerif-65" transform="translate(522.509766 0.015625)"/>
     <use xlink:href="#DejaVuSerif-20" transform="translate(581.689453 0.015625)"/>
     <use xlink:href="#Cmmi10-79" transform="translate(613.476562 0.015625)"/>
     <use xlink:href="#Cmr10-31" transform="translate(662.5 -16.990625) scale(0.7)"/>
     <use xlink:href="#Cmmi10-3b" transform="translate(703.877344 0.015625)"/>
     <use xlink:href="#Cmmi10-79" transform="translate(749.121484 0.015625)"/>
     <use xlink:href="#Cmr10-32" transform="translate(798.144922 -16.990625) scale(0.7)"/>
     <use xlink:href="#Cmmi10-3b" transform="translate(839.522266 0.015625)"/>
     <use xlink:href="#STIXGeneral-Regular-2026" transform="translate(902.325 0.015625)"/>
     <use xlink:href="#Cmmi10-3b" transform="translate(1019.883578 0.015625)"/>
     <use xlink:href="#Cmmi10-79" transform="translate(1065.127719 0.015625)"/>
     <use xlink:href="#Cmmi10-6b" transform="translate(1114.151157 -16.990625) scale(0.7)"/>
     <use xlink:href="#DejaVuSerif-20" transform="translate(1156.929868 0.015625)"/>
     <use xlink:href="#DejaVuSerif-6f" transform="translate(1188.716977 0.015625)"/>
     <use xlink:href="#DejaVuSerif-66" transform="translate(1248.922055 0.015625)"/>
     <use xlink:href="#DejaVuSerif-20" transform="translate(1285.933774 0.015625)"/>
     <use xlink:href="#DejaVuSerif-72" transform="translate(1317.720883 0.015625)"/>
     <use xlink:href="#DejaVuSerif-65" transform="translate(1365.523618 0.015625)"/>
     <use xlink:href="#DejaVuSerif-61" transform="translate(1424.703305 0.015625)"/>
     <use xlink:href="#DejaVuSerif-6c" transform="translate(1484.322446 0.015625)"/>
     <use xlink:href="#DejaVuSerif-20" transform="translate(1516.304868 0.015625)"/>
     <use xlink:href="#DejaVuSerif-6e" transform="translate(1548.091977 0.015625)"/>
     <use xlink:href="#DejaVuSerif-75" transform="translate(1612.496274 0.015625)"/>
     <use xlink:href="#DejaVuSerif-6d" transform="translate(1676.900571 0.015625)"/>
     <use xlink:href="#DejaVuSerif-62" transform="translate(1771.724789 0.015625)"/>
     <use xlink:href="#DejaVuSerif-65" transform="translate(1835.738461 0.015625)"/>
     <use xlink:href="#DejaVuSerif-72" transform="translate(1894.918149 0.015625)"/>
     <use xlink:href="#DejaVuSerif-73" transform="translate(1942.720883 0.015625)"/>
     <use xlink:href="#DejaVuSerif-20" transform="translate(1994.039243 0.015625)"/>
     <use xlink:href="#DejaVuSerif-69" transform="translate(2025.826352 0.015625)"/>
     <use xlink:href="#DejaVuSerif-73" transform="translate(2057.808774 0.015625)"/>
     <use xlink:href="#DejaVuSerif-20" transform="translate(2109.127133 0.015625)"/>
     <use xlink:href="#DejaVuSerif-63" transform="translate(2140.914243 0.015625)"/>
     <use xlink:href="#DejaVuSerif-61" transform="translate(2196.920102 0.015625)"/>
     <use xlink:href="#DejaVuSerif-6c" transform="translate(2256.539243 0.015625)"/>
     <use xlink:href="#DejaVuSerif-6c" transform="translate(2288.521664 0.015625)"/>
     <use xlink:href="#DejaVuSerif-65" transform="translate(2320.504086 0.015625)"/>
     <use xlink:href="#DejaVuSerif-64" transform="translate(2379.683774 0.015625)"/>
     <use xlink:href="#DejaVuSerif-20" transform="translate(2443.697446 0.015625)"/>
     <use xlink:href="#DejaVuSerif-7a" transform="translate(2475.484555 0.015625)"/>
     <use xlink:href="#DejaVuSerif-69" transform="translate(2528.170102 0.015625)"/>
     <use xlink:href="#DejaVuSerif-67" transform="translate(2560.152524 0.015625)"/>
     <use xlink:href="#DejaVuSerif-7a" transform="translate(2624.166196 0.015625)"/>
     <use xlink:href="#DejaVuSerif-61" transform="translate(2676.851743 0.015625)"/>
     <use xlink:href="#DejaVuSerif-67" transform="translate(2736.470883 0.015625)"/>
     <use xlink:href="#DejaVuSerif-20" transform="translate(2800.484555 0.015625)"/>
     <use xlink:href="#DejaVuSerif-69" transform="translate(2832.271664 0.015625)"/>
     <use xlink:href="#DejaVuSerif-66" transform="translate(2864.254086 0.015625)"/>
     <use xlink:href="#DejaVuSerif-20" transform="translate(2901.265805 0.015625)"/>
     <use xlink:href="#Cmmi10-6b" transform="translate(2933.052914 0.015625)"/>
     <use xlink:href="#Cmr10-3d" transform="translate(3002.613461 0.015625)"/>
     <use xlink:href="#Cmr10-31" transform="translate(3097.857602 0.015625)"/>
     <use xlink:href="#DejaVuSerif-2c" transform="translate(3147.857602 0.015625)"/>
     <use xlink:href="#DejaVuSerif-20" transform="translate(3179.644711 0.015625)"/>
     <use xlink:href="#DejaVuSerif-6f" transform="translate(3211.431821 0.015625)"/>
     <use xlink:href="#DejaVuSerif-72" transform="translate(3271.636899 0.015625)"/>
     <use xlink:href="#DejaVuSerif-20" transform="translate(3319.439633 0.015625)"/>
     <use xlink:href="#DejaVuSerif-69" transform="translate(3351.226743 0.015625)"/>
     <use xlink:href="#DejaVuSerif-66" transform="translate(3383.209164 0.015625)"/>
     <use xlink:href="#DejaVuSerif-20" transform="translate(3420.220883 0.015625)"/>
     <use xlink:href="#Cmmi10-79" transform="translate(3452.007993 0.015625)"/>
     <use xlink:href="#Cmr10-32" transform="translate(3501.03143 -16.990625) scale(0.7)"/>
     <use xlink:href="#Cmsy10-a1" transform="translate(3559.967368 0.015625)"/>
     <use xlink:href="#Cmmi10-79" transform="translate(3655.211508 0.015625)"/>
     <use xlink:href="#Cmr10-31" transform="translate(3704.234946 -16.990625) scale(0.7)"/>
     <use xlink:href="#Cmmi10-3b" transform="translate(3745.612289 0.015625)"/>
     <use xlink:href="#Cmmi10-79" transform="translate(3790.85643 0.015625)"/>
     <use xlink:href="#Cmr10-33" transform="translate(3839.879868 -16.990625) scale(0.7)"/>
     <use xlink:href="#Cmsy10-a1" transform="translate(3898.815805 0.015625)"/>
     <use xlink:href="#Cmmi10-79" transform="translate(3994.059946 0.015625)"/>
     <use xlink:href="#Cmr10-32" transform="translate(4043.083383 -16.990625) scale(0.7)"/>
     <use xlink:href="#Cmmi10-3b" transform="translate(4084.460727 0.015625)"/>
     <use xlink:href="#STIXGeneral-Regular-2026" transform="translate(4147.263461 0.015625)"/>
     <use xlink:href="#Cmmi10-3b" transform="translate(4264.82204 0.015625)"/>
     <use xlink:href="#Cmmi10-79" transform="translate(4310.06618 0.015625)"/>
     <use xlink:href="#Cmmi10-6b" transform="translate(4359.089618 -16.990625) scale(0.7)"/>
     <use xlink:href="#Cmsy10-a1" transform="translate(4419.426923 0.015625)"/>
     <use xlink:href="#Cmmi10-79" transform="translate(4514.671063 0.015625)"/>
     <use xlink:href="#Cmmi10-6b" transform="translate(4563.694501 -16.990625) scale(0.7)"/>
     <use xlink:href="#Cmsy10-a1" transform="translate(4612.386884 -16.990625) scale(0.7)"/>
     <use xlink:href="#Cmr10-31" transform="translate(4679.057782 -16.990625) scale(0.7)"/>
     <use xlink:href="#DejaVuSerif-20" transform="translate(4720.435126 0.015625)"/>
     <use xlink:href="#DejaVuSerif-61" transform="translate(4752.222235 0.015625)"/>
     <use xlink:href="#DejaVuSerif-72" transform="translate(4811.841376 0.015625)"/>
     <use xlink:href="#DejaVuSerif-65" transform="translate(4859.64411 0.015625)"/>
     <use xlink:href="#DejaVuSerif-20" transform="translate(4918.823798 0.015625)"/>
     <use xlink:href="#DejaVuSerif-6e" transform="translate(4950.610907 0.015625)"/>
     <use xlink:href="#DejaVuSerif-6f" transform="translate(5015.015204 0.015625)"/>
     <use xlink:href="#DejaVuSerif-6e" transform="translate(5075.220282 0.015625)"/>
     <use xlink:href="#DejaVuSerif-7a" transform="translate(5139.624579 0.015625)"/>
     <use xlink:href="#DejaVuSerif-65" transform="translate(5192.310126 0.015625)"/>
     <use xlink:href="#DejaVuSerif-72" transform="translate(5251.489813 0.015625)"/>
     <use xlink:href="#DejaVuSerif-6f" transform="translate(5299.292548 0.015625)"/>
     <use xlink:href="#DejaVuSerif-20" transform="translate(5359.497626 0.015625)"/>
     <use xlink:href="#DejaVuSerif-61" transform="translate(5391.284735 0.015625)"/>
     <use xlink:href="#DejaVuSerif-6e" transform="translate(5450.903876 0.015625)"/>
     <use xlink:href="#DejaVuSerif-64" transform="translate(5515.308173 0.015625)"/>
     <use xlink:href="#DejaVuSerif-20" transform="translate(5579.321844 0.015625)"/>
     <use xlink:href="#DejaVuSerif-61" transform="translate(5611.108954 0.015625)"/>
     <use xlink:href="#DejaVuSerif-6c" transform="translate(5670.728094 0.015625)"/>
     <use xlink:href="#DejaVuSerif-74" transform="translate(5702.710516 0.015625)"/>
     <use xlink:href="#DejaVuSerif-65" transform="translate(5742.896063 0.015625)"/>
     <use xlink:href="#DejaVuSerif-72" transform="translate(5802.075751 0.015625)"/>
     <use xlink:href="#DejaVuSerif-6e" transform="translate(5849.878485 0.015625)"/>
     <use xlink:href="#DejaVuSerif-61" transform="translate(5914.282782 0.015625)"/>
     <use xlink:href="#DejaVuSerif-74" transform="translate(5973.901923 0.015625)"/>
     <use xlink:href="#DejaVuSerif-65" transform="translate(6014.087469 0.015625)"/>
     <use xlink:href="#DejaVuSerif-20" transform="translate(6073.267157 0.015625)"/>
     <use xlink:href="#DejaVuSerif-69" transform="translate(6105.054266 0.015625)"/>
     <use xlink:href="#DejaVuSerif-6e" transform="translate(6137.036688 0.015625)"/>
     <use xlink:href="#DejaVuSerif-20" transform="translate(6201.440985 0.015625)"/>
     <use xlink:href="#DejaVuSerif-73" transform="translate(6233.228094 0.015625)"/>
     <use xlink:href="#DejaVuSerif-69" transform="translate(6284.546454 0.015625)"/>
     <use xlink:href="#DejaVuSerif-67" transform="translate(6316.528876 0.015625)"/>
     <use xlink:href="#DejaVuSerif-6e" transform="translate(6380.542548 0.015625)"/>
     <use xlink:href="#DejaVuSerif-2e" transform="translate(6444.946844 0.015625)"/>
     <use xlink:href="#DejaVuSerif-20" transform="translate(6476.733954 0.015625)"/>
     <use xlink:href="#DejaVuSerif-4c" transform="translate(6508.521063 0.015625)"/>
     <use xlink:href="#DejaVuSerif-65" transform="translate(6574.927313 0.015625)"/>
     <use xlink:href="#DejaVuSerif-74" transform="translate(6634.107001 0.015625)"/>
     <use xlink:href="#DejaVuSerif-20" transform="translate(6674.292548 0.015625)"/>
     <use xlink:href="#Cmmi10-58" transform="translate(6706.079657 0.015625)"/>
     <use xlink:href="#Cmr10-31" transform="translate(6788.892157 -16.990625) scale(0.7)"/>
     <use xlink:href="#Cmmi10-3b" transform="translate(6830.269501 0.015625)"/>
     <use xlink:href="#Cmmi10-58" transform="translate(6875.513641 0.015625)"/>
     <use xlink:href="#Cmr10-32" transform="translate(6958.326141 -16.990625) scale(0.7)"/>
     <use xlink:href="#Cmmi10-3b" transform="translate(6999.703485 0.015625)"/>
     <use xlink:href="#STIXGeneral-Regular-2026" transform="translate(7062.506219 0.015625)"/>
     <use xlink:href="#Cmmi10-3b" transform="translate(7180.064798 0.015625)"/>
     <use xlink:href="#Cmmi10-58" transform="translate(7225.308939 0.015625)"/>
     <use xlink:href="#Cmmi10-6e" transform="translate(7308.121439 -16.990625) scale(0.7)"/>
     <use xlink:href="#DejaVuSerif-20" transform="translate(7356.505618 0.015625)"/>
     <use xlink:href="#DejaVuSerif-62" transform="translate(7388.292728 0.015625)"/>
     <use xlink:href="#DejaVuSerif-65" transform="translate(7452.3064 0.015625)"/>
     <use xlink:href="#DejaVuSerif-20" transform="translate(7511.486087 0.015625)"/>
     <use xlink:href="#DejaVuSerif-63" transform="translate(7543.273196 0.015625)"/>
     <use xlink:href="#DejaVuSerif-68" transform="translate(7599.279056 0.015625)"/>
     <use xlink:href="#DejaVuSerif-6f" transform="translate(7663.683353 0.015625)"/>
     <use xlink:href="#DejaVuSerif-73" transform="translate(7723.888431 0.015625)"/>
     <use xlink:href="#DejaVuSerif-65" transform="translate(7775.20679 0.015625)"/>
     <use xlink:href="#DejaVuSerif-6e" transform="translate(7834.386478 0.015625)"/>
     <use xlink:href="#DejaVuSerif-20" transform="translate(7898.790775 0.015625)"/>
     <use xlink:href="#DejaVuSerif-69" transform="translate(7930.577884 0.015625)"/>
     <use xlink:href="#DejaVuSerif-6e" transform="translate(7962.560306 0.015625)"/>
     <use xlink:href="#DejaVuSerif-64" transform="translate(8026.964603 0.015625)"/>
     <use xlink:href="#DejaVuSerif-65" transform="translate(8090.978275 0.015625)"/>
     <use xlink:href="#DejaVuSerif-70" transform="translate(8150.157962 0.015625)"/>
     <use xlink:href="#DejaVuSerif-65" transform="translate(8214.171634 0.015625)"/>
     <use xlink:href="#DejaVuSerif-6e" transform="translate(8273.351321 0.015625)"/>
     <use xlink:href="#DejaVuSerif-64" transform="translate(8337.755618 0.015625)"/>
     <use xlink:href="#DejaVuSerif-65" transform="translate(8401.76929 0.015625)"/>
     <use xlink:href="#DejaVuSerif-6e" transform="translate(8460.948978 0.015625)"/>
     <use xlink:href="#DejaVuSerif-74" transform="translate(8525.353275 0.015625)"/>
     <use xlink:href="#DejaVuSerif-6c" transform="translate(8565.538821 0.015625)"/>
     <use xlink:href="#DejaVuSerif-79" transform="translate(8597.521243 0.015625)"/>
     <use xlink:href="#DejaVuSerif-20" transform="translate(8654.015384 0.015625)"/>
     <use xlink:href="#DejaVuSerif-66" transform="translate(8685.802493 0.015625)"/>
     <use xlink:href="#DejaVuSerif-72" transform="translate(8722.814212 0.015625)"/>
     <use xlink:href="#DejaVuSerif-6f" transform="translate(8770.616946 0.015625)"/>
     <use xlink:href="#DejaVuSerif-6d" transform="translate(8830.822025 0.015625)"/>
     <use xlink:href="#DejaVuSerif-20" transform="translate(8925.646243 0.015625)"/>
     <use xlink:href="#DejaVuSerif-74" transform="translate(8957.433353 0.015625)"/>
     <use xlink:href="#DejaVuSerif-68" transform="translate(8997.6189 0.015625)"/>
     <use xlink:href="#DejaVuSerif-65" transform="translate(9062.023196 0.015625)"/>
     <use xlink:href="#DejaVuSerif-20" transform="translate(9121.202884 0.015625)"/>
     <use xlink:href="#DejaVuSerif-75" transform="translate(9152.989993 0.015625)"/>
     <use xlink:href="#DejaVuSerif-6e" transform="translate(9217.39429 0.015625)"/>
     <use xlink:href="#DejaVuSerif-69" transform="translate(9281.798587 0.015625)"/>
     <use xlink:href="#DejaVuSerif-66" transform="translate(9313.781009 0.015625)"/>
     <use xlink:href="#DejaVuSerif-6f" transform="translate(9350.792728 0.015625)"/>
     <use xlink:href="#DejaVuSerif-72" transform="translate(9410.997806 0.015625)"/>
     <use xlink:href="#DejaVuSerif-6d" transform="translate(9458.80054 0.015625)"/>
     <use xlink:href="#DejaVuSerif-20" transform="translate(9553.624759 0.015625)"/>
     <use xlink:href="#DejaVuSerif-64" transform="translate(9585.411868 0.015625)"/>
     <use xlink:href="#DejaVuSerif-69" transform="translate(9649.42554 0.015625)"/>
     <use xlink:href="#DejaVuSerif-73" transform="translate(9681.407962 0.015625)"/>
     <use xlink:href="#DejaVuSerif-74" transform="translate(9732.726321 0.015625)"/>
     <use xlink:href="#DejaVuSerif-72" transform="translate(9772.911868 0.015625)"/>
     <use xlink:href="#DejaVuSerif-69" transform="translate(9820.714603 0.015625)"/>
     <use xlink:href="#DejaVuSerif-62" transform="translate(9852.697025 0.015625)"/>
     <use xlink:href="#DejaVuSerif-75" transform="translate(9916.710696 0.015625)"/>
     <use xlink:href="#DejaVuSerif-74" transform="translate(9981.114993 0.015625)"/>
     <use xlink:href="#DejaVuSerif-69" transform="translate(10021.30054 0.015625)"/>
     <use xlink:href="#DejaVuSerif-6f" transform="translate(10053.282962 0.015625)"/>
     <use xlink:href="#DejaVuSerif-6e" transform="translate(10113.48804 0.015625)"/>
     <use xlink:href="#DejaVuSerif-20" transform="translate(10177.892337 0.015625)"/>
     <use xlink:href="#DejaVuSerif-6f" transform="translate(10209.679446 0.015625)"/>
     <use xlink:href="#DejaVuSerif-6e" transform="translate(10269.884525 0.015625)"/>
     <use xlink:href="#DejaVuSerif-20" transform="translate(10334.288821 0.015625)"/>
     <use xlink:href="#Cmr10-5b" transform="translate(10366.075931 0.015625)"/>
     <use xlink:href="#Cmr10-30" transform="translate(10393.761478 0.015625)"/>
     <use xlink:href="#Cmmi10-3b" transform="translate(10443.761478 0.015625)"/>
     <use xlink:href="#Cmr10-31" transform="translate(10489.005618 0.015625)"/>
     <use xlink:href="#Cmr10-5d" transform="translate(10539.005618 0.015625)"/>
     <use xlink:href="#DejaVuSerif-2e" transform="translate(10566.691165 0.015625)"/>
     <use xlink:href="#DejaVuSerif-20" transform="translate(10598.478275 0.015625)"/>
     <use xlink:href="#DejaVuSerif-4c" transform="translate(10630.265384 0.015625)"/>
     <use xlink:href="#DejaVuSerif-65" transform="translate(10696.671634 0.015625)"/>
     <use xlink:href="#DejaVuSerif-74" transform="translate(10755.851321 0.015625)"/>
     <use xlink:href="#DejaVuSerif-20" transform="translate(10796.036868 0.015625)"/>
     <use xlink:href="#Cmmi10-61" transform="translate(10827.823978 0.015625)"/>
     <use xlink:href="#Cmr10-28" transform="translate(10880.607181 0.015625)"/>
     <use xlink:href="#Cmmi10-58" transform="translate(10919.42554 0.015625)"/>
     <use xlink:href="#Cmr10-31" transform="translate(11002.23804 -16.990625) scale(0.7)"/>
     <use xlink:href="#Cmmi10-3b" transform="translate(11043.615384 0.015625)"/>
     <use xlink:href="#Cmmi10-58" transform="translate(11088.859525 0.015625)"/>
     <use xlink:href="#Cmr10-32" transform="translate(11171.672025 -16.990625) scale(0.7)"/>
     <use xlink:href="#Cmmi10-3b" transform="translate(11213.049368 0.015625)"/>
     <use xlink:href="#STIXGeneral-Regular-2026" transform="translate(11275.852103 0.015625)"/>
     <use xlink:href="#Cmmi10-3b" transform="translate(11393.410681 0.015625)"/>
     <use xlink:href="#Cmmi10-58" transform="translate(11438.654822 0.015625)"/>
     <use xlink:href="#Cmmi10-6e" transform="translate(11521.467322 -16.990625) scale(0.7)"/>
     <use xlink:href="#Cmr10-29" transform="translate(11569.851501 0.015625)"/>
     <use xlink:href="#DejaVuSerif-20" transform="translate(11608.669861 0.015625)"/>
     <use xlink:href="#DejaVuSerif-62" transform="translate(11640.45697 0.015625)"/>
     <use xlink:href="#DejaVuSerif-65" transform="translate(11704.470642 0.015625)"/>
     <use xlink:href="#DejaVuSerif-20" transform="translate(11763.65033 0.015625)"/>
     <use xlink:href="#DejaVuSerif-74" transform="translate(11795.437439 0.015625)"/>
     <use xlink:href="#DejaVuSerif-68" transform="translate(11835.622986 0.015625)"/>
     <use xlink:href="#DejaVuSerif-65" transform="translate(11900.027283 0.015625)"/>
     <use xlink:href="#DejaVuSerif-20" transform="translate(11959.20697 0.015625)"/>
     <use xlink:href="#DejaVuSerif-6c" transform="translate(11990.99408 0.015625)"/>
     <use xlink:href="#DejaVuSerif-61" transform="translate(12022.976501 0.015625)"/>
     <use xlink:href="#DejaVuSerif-72" transform="translate(12082.595642 0.015625)"/>
     <use xlink:href="#DejaVuSerif-67" transform="translate(12130.398376 0.015625)"/>
     <use xlink:href="#DejaVuSerif-65" transform="translate(12194.412048 0.015625)"/>
     <use xlink:href="#DejaVuSerif-73" transform="translate(12253.591736 0.015625)"/>
     <use xlink:href="#DejaVuSerif-74" transform="translate(12304.910095 0.015625)"/>
     <use xlink:href="#DejaVuSerif-20" transform="translate(12345.095642 0.015625)"/>
     <use xlink:href="#DejaVuSerif-76" transform="translate(12376.882751 0.015625)"/>
     <use xlink:href="#DejaVuSerif-61" transform="translate(12433.376892 0.015625)"/>
     <use xlink:href="#DejaVuSerif-6c" transform="translate(12492.996033 0.015625)"/>
     <use xlink:href="#DejaVuSerif-75" transform="translate(12524.978455 0.015625)"/>
     <use xlink:href="#DejaVuSerif-65" transform="translate(12589.382751 0.015625)"/>
     <use xlink:href="#DejaVuSerif-20" transform="translate(12648.562439 0.015625)"/>
     <use xlink:href="#DejaVuSerif-6f" transform="translate(12680.349548 0.015625)"/>
     <use xlink:href="#DejaVuSerif-66" transform="translate(12740.554626 0.015625)"/>
     <use xlink:href="#DejaVuSerif-20" transform="translate(12777.566345 0.015625)"/>
     <use xlink:href="#Cmmi10-6b" transform="translate(12809.353455 0.015625)"/>
     <use xlink:href="#DejaVuSerif-20" transform="translate(12861.355408 0.015625)"/>
     <use xlink:href="#DejaVuSerif-66" transform="translate(12893.142517 0.015625)"/>
     <use xlink:href="#DejaVuSerif-6f" transform="translate(12930.154236 0.015625)"/>
     <use xlink:href="#DejaVuSerif-72" transform="translate(12990.359314 0.015625)"/>
     <use xlink:href="#DejaVuSerif-20" transform="translate(13038.162048 0.015625)"/>
     <use xlink:href="#DejaVuSerif-77" transform="translate(13069.949158 0.015625)"/>
     <use xlink:href="#DejaVuSerif-68" transform="translate(13155.544861 0.015625)"/>
     <use xlink:href="#DejaVuSerif-69" transform="translate(13219.949158 0.015625)"/>
     <use xlink:href="#DejaVuSerif-63" transform="translate(13251.93158 0.015625)"/>
     <use xlink:href="#DejaVuSerif-68" transform="translate(13307.937439 0.015625)"/>
     <use xlink:href="#DejaVuSerif-20" transform="translate(13372.341736 0.015625)"/>
     <use xlink:href="#DejaVuSerif-74" transform="translate(13404.128845 0.015625)"/>
     <use xlink:href="#DejaVuSerif-68" transform="translate(13444.314392 0.015625)"/>
     <use xlink:href="#DejaVuSerif-65" transform="translate(13508.718689 0.015625)"/>
     <use xlink:href="#DejaVuSerif-72" transform="translate(13567.898376 0.015625)"/>
     <use xlink:href="#DejaVuSerif-65" transform="translate(13615.701111 0.015625)"/>
     <use xlink:href="#DejaVuSerif-20" transform="translate(13674.880798 0.015625)"/>
     <use xlink:href="#DejaVuSerif-65" transform="translate(13706.667908 0.015625)"/>
     <use xlink:href="#DejaVuSerif-78" transform="translate(13765.847595 0.015625)"/>
     <use xlink:href="#DejaVuSerif-69" transform="translate(13822.24408 0.015625)"/>
     <use xlink:href="#DejaVuSerif-73" transform="translate(13854.226501 0.015625)"/>
     <use xlink:href="#DejaVuSerif-74" transform="translate(13905.544861 0.015625)"/>
     <use xlink:href="#DejaVuSerif-73" transform="translate(13945.730408 0.015625)"/>
     <use xlink:href="#DejaVuSerif-20" transform="translate(13997.048767 0.015625)"/>
     <use xlink:href="#DejaVuSerif-61" transform="translate(14028.835876 0.015625)"/>
     <use xlink:href="#DejaVuSerif-6e" transform="translate(14088.455017 0.015625)"/>
     <use xlink:href="#DejaVuSerif-20" transform="translate(14152.859314 0.015625)"/>
     <use xlink:href="#DejaVuSerif-69" transform="translate(14184.646423 0.015625)"/>
     <use xlink:href="#DejaVuSerif-6e" transform="translate(14216.628845 0.015625)"/>
     <use xlink:href="#DejaVuSerif-63" transform="translate(14281.033142 0.015625)"/>
     <use xlink:href="#DejaVuSerif-72" transform="translate(14337.039001 0.015625)"/>
     <use xlink:href="#DejaVuSerif-65" transform="translate(14384.841736 0.015625)"/>
     <use xlink:href="#DejaVuSerif-61" transform="translate(14444.021423 0.015625)"/>
     <use xlink:href="#DejaVuSerif-73" transform="translate(14503.640564 0.015625)"/>
     <use xlink:href="#DejaVuSerif-69" transform="translate(14554.958923 0.015625)"/>
     <use xlink:href="#DejaVuSerif-6e" transform="translate(14586.941345 0.015625)"/>
     <use xlink:href="#DejaVuSerif-67" transform="translate(14651.345642 0.015625)"/>
     <use xlink:href="#DejaVuSerif-20" transform="translate(14715.359314 0.015625)"/>
     <use xlink:href="#DejaVuSerif-73" transform="translate(14747.146423 0.015625)"/>
     <use xlink:href="#DejaVuSerif-65" transform="translate(14798.464783 0.015625)"/>
     <use xlink:href="#DejaVuSerif-71" transform="translate(14857.64447 0.015625)"/>
     <use xlink:href="#DejaVuSerif-75" transform="translate(14921.658142 0.015625)"/>
     <use xlink:href="#DejaVuSerif-65" transform="translate(14986.062439 0.015625)"/>
     <use xlink:href="#DejaVuSerif-6e" transform="translate(15045.242126 0.015625)"/>
     <use xlink:href="#DejaVuSerif-63" transform="translate(15109.646423 0.015625)"/>
     <use xlink:href="#DejaVuSerif-65" transform="translate(15165.652283 0.015625)"/>
     <use xlink:href="#DejaVuSerif-20" transform="translate(15224.83197 0.015625)"/>
     <use xlink:href="#DejaVuSerif-6f" transform="translate(15256.61908 0.015625)"/>
     <use xlink:href="#DejaVuSerif-66" transform="translate(15316.824158 0.015625)"/>
     <use xlink:href="#DejaVuSerif-20" transform="translate(15353.835876 0.015625)"/>
     <use xlink:href="#DejaVuSerif-69" transform="translate(15385.622986 0.015625)"/>
     <use xlink:href="#DejaVuSerif-6e" transform="translate(15417.605408 0.015625)"/>
     <use xlink:href="#DejaVuSerif-74" transform="translate(15482.009705 0.015625)"/>
     <use xlink:href="#DejaVuSerif-65" transform="translate(15522.195251 0.015625)"/>
     <use xlink:href="#DejaVuSerif-67" transform="translate(15581.374939 0.015625)"/>
     <use xlink:href="#DejaVuSerif-65" transform="translate(15645.388611 0.015625)"/>
     <use xlink:href="#DejaVuSerif-72" transform="translate(15704.568298 0.015625)"/>
     <use xlink:href="#DejaVuSerif-73" transform="translate(15752.371033 0.015625)"/>
     <use xlink:href="#DejaVuSerif-20" transform="translate(15803.689392 0.015625)"/>
     <use xlink:href="#Cmmi10-69" transform="translate(15835.476501 0.015625)"/>
     <use xlink:href="#Cmr10-31" transform="translate(15869.90033 -16.990625) scale(0.7)"/>
     <use xlink:href="#Cmmi10-3b" transform="translate(15911.277673 0.015625)"/>
     <use xlink:href="#Cmmi10-69" transform="translate(15956.521814 0.015625)"/>
     <use xlink:href="#Cmr10-32" transform="translate(15990.945642 -16.990625) scale(0.7)"/>
     <use xlink:href="#Cmmi10-3b" transform="translate(16032.322986 0.015625)"/>
     <use xlink:href="#STIXGeneral-Regular-2026" transform="translate(16095.12572 0.015625)"/>
     <use xlink:href="#Cmmi10-3b" transform="translate(16212.684299 0.015625)"/>
     <use xlink:href="#Cmmi10-69" transform="translate(16257.928439 0.015625)"/>
     <use xlink:href="#Cmmi10-6b" transform="translate(16292.352267 -16.990625) scale(0.7)"/>
     <use xlink:href="#DejaVuSerif-20" transform="translate(16335.130978 0.015625)"/>
     <use xlink:href="#DejaVuSerif-73" transform="translate(16366.918088 0.015625)"/>
     <use xlink:href="#DejaVuSerif-75" transform="translate(16418.236447 0.015625)"/>
     <use xlink:href="#DejaVuSerif-63" transform="translate(16482.640744 0.015625)"/>
     <use xlink:href="#DejaVuSerif-68" transform="translate(16538.646603 0.015625)"/>
     <use xlink:href="#DejaVuSerif-20" transform="translate(16603.0509 0.015625)"/>
     <use xlink:href="#DejaVuSerif-74" transform="translate(16634.83801 0.015625)"/>
     <use xlink:href="#DejaVuSerif-68" transform="translate(16675.023557 0.015625)"/>
     <use xlink:href="#DejaVuSerif-61" transform="translate(16739.427853 0.015625)"/>
     <use xlink:href="#DejaVuSerif-74" transform="translate(16799.046994 0.015625)"/>
     <use xlink:href="#DejaVuSerif-20" transform="translate(16839.232541 0.015625)"/>
     <use xlink:href="#Cmmi10-58" transform="translate(16871.01965 0.015625)"/>
     <use xlink:href="#Cmmi10-69" transform="translate(16953.83215 -16.990625) scale(0.7)"/>
     <use xlink:href="#Cmr10-31" transform="translate(16977.92883 -28.895) scale(0.49)"/>
     <use xlink:href="#Cmmi10-3b" transform="translate(17013.270314 0.015625)"/>
     <use xlink:href="#Cmmi10-58" transform="translate(17058.514455 0.015625)"/>
     <use xlink:href="#Cmmi10-69" transform="translate(17141.326955 -16.990625) scale(0.7)"/>
     <use xlink:href="#Cmr10-32" transform="translate(17165.423635 -28.895) scale(0.49)"/>
     <use xlink:href="#Cmmi10-3b" transform="translate(17200.765119 0.015625)"/>
     <use xlink:href="#STIXGeneral-Regular-2026" transform="translate(17263.567853 0.015625)"/>
     <use xlink:href="#Cmmi10-3b" transform="translate(17381.126432 0.015625)"/>
     <use xlink:href="#Cmmi10-58" transform="translate(17426.370573 0.015625)"/>
     <use xlink:href="#Cmmi10-69" transform="translate(17509.183073 -16.990625) scale(0.7)"/>
     <use xlink:href="#Cmmi10-6b" transform="translate(17533.279752 -28.895) scale(0.49)"/>
     <use xlink:href="#DejaVuSerif-20" transform="translate(17569.602194 0.015625)"/>
     <use xlink:href="#DejaVuSerif-69" transform="translate(17601.389303 0.015625)"/>
     <use xlink:href="#DejaVuSerif-73" transform="translate(17633.371725 0.015625)"/>
     <use xlink:href="#DejaVuSerif-20" transform="translate(17684.690084 0.015625)"/>
     <use xlink:href="#DejaVuSerif-7a" transform="translate(17716.477194 0.015625)"/>
     <use xlink:href="#DejaVuSerif-69" transform="translate(17769.16274 0.015625)"/>
     <use xlink:href="#DejaVuSerif-67" transform="translate(17801.145162 0.015625)"/>
     <use xlink:href="#DejaVuSerif-7a" transform="translate(17865.158834 0.015625)"/>
     <use xlink:href="#DejaVuSerif-61" transform="translate(17917.844381 0.015625)"/>
     <use xlink:href="#DejaVuSerif-67" transform="translate(17977.463522 0.015625)"/>
     <use xlink:href="#DejaVuSerif-2e" transform="translate(18041.477194 0.015625)"/>
     <use xlink:href="#DejaVuSerif-20" transform="translate(18073.264303 0.015625)"/>
     <use xlink:href="#DejaVuSerif-46" transform="translate(18105.051412 0.015625)"/>
     <use xlink:href="#DejaVuSerif-69" transform="translate(18174.436178 0.015625)"/>
     <use xlink:href="#DejaVuSerif-6e" transform="translate(18206.4186 0.015625)"/>
     <use xlink:href="#DejaVuSerif-64" transform="translate(18270.822897 0.015625)"/>
     <use xlink:href="#DejaVuSerif-20" transform="translate(18334.836569 0.015625)"/>
     <use xlink:href="#DejaVuSerif-74" transform="translate(18366.623678 0.015625)"/>
     <use xlink:href="#DejaVuSerif-68" transform="translate(18406.809225 0.015625)"/>
     <use xlink:href="#DejaVuSerif-65" transform="translate(18471.213522 0.015625)"/>
     <use xlink:href="#DejaVuSerif-20" transform="translate(18530.393209 0.015625)"/>
     <use xlink:href="#DejaVuSerif-65" transform="translate(18562.180319 0.015625)"/>
     <use xlink:href="#DejaVuSerif-78" transform="translate(18621.360006 0.015625)"/>
     <use xlink:href="#DejaVuSerif-70" transform="translate(18677.75649 0.015625)"/>
     <use xlink:href="#DejaVuSerif-65" transform="translate(18741.770162 0.015625)"/>
     <use xlink:href="#DejaVuSerif-63" transform="translate(18800.94985 0.015625)"/>
     <use xlink:href="#DejaVuSerif-74" transform="translate(18856.955709 0.015625)"/>
     <use xlink:href="#DejaVuSerif-65" transform="translate(18897.141256 0.015625)"/>
     <use xlink:href="#DejaVuSerif-64" transform="translate(18956.320944 0.015625)"/>
     <use xlink:href="#DejaVuSerif-20" transform="translate(19020.334615 0.015625)"/>
     <use xlink:href="#DejaVuSerif-76" transform="translate(19052.121725 0.015625)"/>
     <use xlink:href="#DejaVuSerif-61" transform="translate(19108.615865 0.015625)"/>
     <use xlink:href="#DejaVuSerif-6c" transform="translate(19168.235006 0.015625)"/>
     <use xlink:href="#DejaVuSerif-75" transform="translate(19200.217428 0.015625)"/>
     <use xlink:href="#DejaVuSerif-65" transform="translate(19264.621725 0.015625)"/>
     <use xlink:href="#DejaVuSerif-20" transform="translate(19323.801412 0.015625)"/>
     <use xlink:href="#DejaVuSerif-6f" transform="translate(19355.588522 0.015625)"/>
     <use xlink:href="#DejaVuSerif-66" transform="translate(19415.7936 0.015625)"/>
     <use xlink:href="#DejaVuSerif-20" transform="translate(19452.805319 0.015625)"/>
     <use xlink:href="#Cmmi10-61" transform="translate(19484.592428 0.015625)"/>
     <use xlink:href="#Cmr10-28" transform="translate(19537.375631 0.015625)"/>
     <use xlink:href="#Cmmi10-58" transform="translate(19576.19399 0.015625)"/>
     <use xlink:href="#Cmr10-31" transform="translate(19659.00649 -16.990625) scale(0.7)"/>
     <use xlink:href="#Cmmi10-3b" transform="translate(19700.383834 0.015625)"/>
     <use xlink:href="#Cmmi10-58" transform="translate(19745.627975 0.015625)"/>
     <use xlink:href="#Cmr10-32" transform="translate(19828.440475 -16.990625) scale(0.7)"/>
     <use xlink:href="#Cmmi10-3b" transform="translate(19869.817819 0.015625)"/>
     <use xlink:href="#STIXGeneral-Regular-2026" transform="translate(19932.620553 0.015625)"/>
     <use xlink:href="#Cmmi10-3b" transform="translate(20050.179131 0.015625)"/>
     <use xlink:href="#Cmmi10-58" transform="translate(20095.423272 0.015625)"/>
     <use xlink:href="#Cmmi10-6e" transform="translate(20178.235772 -16.990625) scale(0.7)"/>
     <use xlink:href="#Cmr10-29" transform="translate(20226.619952 0.015625)"/>
     <use xlink:href="#DejaVuSerif-20" transform="translate(20265.438311 0.015625)"/>
     <use xlink:href="#DejaVuSerif-66" transform="translate(20297.225421 0.015625)"/>
     <use xlink:href="#DejaVuSerif-6f" transform="translate(20334.237139 0.015625)"/>
     <use xlink:href="#DejaVuSerif-72" transform="translate(20394.442217 0.015625)"/>
     <use xlink:href="#DejaVuSerif-20" transform="translate(20442.244952 0.015625)"/>
     <use xlink:href="#Cmmi10-6e" transform="translate(20474.032061 0.015625)"/>
     <use xlink:href="#Cmsy10-b8" transform="translate(20551.600421 0.015625)"/>
     <use xlink:href="#Cmr10-32" transform="translate(20646.844561 0.015625)"/>
     <use xlink:href="#DejaVuSerif-2e" transform="translate(20696.844561 0.015625)"/>
    </g>
   </g>
  </g>
 </g>
</svg>
