<?xml version="1.0" encoding="utf-8" standalone="no"?>
<!DOCTYPE svg PUBLIC "-//W3C//DTD SVG 1.1//EN"
  "http://www.w3.org/Graphics/SVG/1.1/DTD/svg11.dtd">
<svg xmlns:xlink="http://www.w3.org/1999/xlink" width="730.92pt" height="228.4pt" viewBox="0 0 730.92 228.4" xmlns="http://www.w3.org/2000/svg" version="1.1">
 <metadata>
  <rdf:RDF xmlns:dc="http://purl.org/dc/elements/1.1/" xmlns:cc="http://creativecommons.org/ns#" xmlns:rdf="http://www.w3.org/1999/02/22-rdf-syntax-ns#">
   <cc:Work>
    <dc:type rdf:resource="http://purl.org/dc/dcmitype/StillImage"/>
    <dc:date>2025-05-29T18:44:14.861342</dc:date>
    <dc:format>image/svg+xml</dc:format>
    <dc:creator>
     <cc:Agent>
      <dc:title>Matplotlib v3.10.3, https://matplotlib.org/</dc:title>
     </cc:Agent>
    </dc:creator>
   </cc:Work>
  </rdf:RDF>
 </metadata>
 <defs>
  <style type="text/css">*{stroke-linejoin: round; stroke-linecap: butt}</style>
 </defs>
 <g id="figure_1">
  <g id="patch_1">
   <path d="M 0 228.4 
L 730.92 228.4 
L 730.92 0 
L 0 0 
z
" style="fill: #ffffff"/>
  </g>
  <g id="axes_1">
   <g id="text_1">
    <!-- Let $T$ be the set of all triples $(a,b,c)$ of positive integers for which there exist triangles with side lengths $a,b,c$. Express -->
    <g transform="translate(7.2 90.218375) scale(0.12 -0.12)">
     <defs>
      <path id="DejaVuSerif-4c" d="M 353 0 
L 353 331 
L 947 331 
L 947 4331 
L 353 4331 
L 353 4666 
L 2175 4666 
L 2175 4331 
L 1581 4331 
L 1581 384 
L 3713 384 
L 3713 1166 
L 4097 1166 
L 4097 0 
L 353 0 
z
" transform="scale(0.015625)"/>
      <path id="DejaVuSerif-65" d="M 3469 1600 
L 991 1600 
L 991 1575 
Q 991 903 1244 561 
Q 1497 219 1991 219 
Q 2369 219 2611 417 
Q 2853 616 2950 1006 
L 3413 1006 
Q 3275 459 2904 184 
Q 2534 -91 1931 -91 
Q 1203 -91 761 389 
Q 319 869 319 1663 
Q 319 2450 753 2931 
Q 1188 3413 1894 3413 
Q 2647 3413 3050 2948 
Q 3453 2484 3469 1600 
z
M 2791 1931 
Q 2772 2513 2545 2808 
Q 2319 3103 1894 3103 
Q 1497 3103 1269 2806 
Q 1041 2509 991 1931 
L 2791 1931 
z
" transform="scale(0.015625)"/>
      <path id="DejaVuSerif-74" d="M 691 2988 
L 184 2988 
L 184 3322 
L 691 3322 
L 691 4353 
L 1269 4353 
L 1269 3322 
L 2350 3322 
L 2350 2988 
L 1269 2988 
L 1269 878 
Q 1269 456 1350 337 
Q 1431 219 1650 219 
Q 1875 219 1978 351 
Q 2081 484 2088 781 
L 2522 781 
Q 2497 328 2275 118 
Q 2053 -91 1600 -91 
Q 1103 -91 897 129 
Q 691 350 691 878 
L 691 2988 
z
" transform="scale(0.015625)"/>
      <path id="DejaVuSerif-20" transform="scale(0.015625)"/>
      <path id="Cmmi10-54" d="M 294 84 
Q 297 100 308 140 
Q 319 181 336 203 
Q 353 225 384 225 
Q 934 225 1113 256 
Q 1284 300 1319 441 
L 2194 3956 
Q 2222 4034 2222 4097 
Q 2222 4147 1997 4147 
L 1625 4147 
Q 1197 4147 964 4015 
Q 731 3884 622 3668 
Q 513 3453 341 2963 
Q 319 2906 275 2906 
L 219 2906 
Q 153 2906 153 2988 
L 609 4313 
Q 622 4372 672 4372 
L 4453 4372 
Q 4519 4372 4519 4288 
L 4306 2963 
Q 4306 2944 4284 2925 
Q 4263 2906 4244 2906 
L 4184 2906 
Q 4122 2906 4122 2988 
Q 4191 3441 4191 3628 
Q 4191 3853 4097 3968 
Q 4003 4084 3853 4115 
Q 3703 4147 3463 4147 
L 3084 4147 
Q 2913 4147 2853 4115 
Q 2794 4084 2753 3928 
L 1875 416 
Q 1872 403 1870 390 
Q 1869 378 1863 359 
Q 1863 278 1959 256 
Q 2125 225 2669 225 
Q 2731 225 2731 141 
Q 2709 50 2696 25 
Q 2684 0 2625 0 
L 359 0 
Q 294 0 294 84 
z
" transform="scale(0.015625)"/>
      <path id="DejaVuSerif-62" d="M 738 331 
L 738 4531 
L 184 4531 
L 184 4863 
L 1313 4863 
L 1313 2803 
Q 1481 3116 1742 3264 
Q 2003 3413 2388 3413 
Q 3000 3413 3387 2928 
Q 3775 2444 3775 1663 
Q 3775 881 3387 395 
Q 3000 -91 2388 -91 
Q 2003 -91 1742 57 
Q 1481 206 1313 519 
L 1313 0 
L 184 0 
L 184 331 
L 738 331 
z
M 1313 1497 
Q 1313 897 1542 583 
Q 1772 269 2209 269 
Q 2650 269 2876 622 
Q 3103 975 3103 1663 
Q 3103 2353 2876 2703 
Q 2650 3053 2209 3053 
Q 1772 3053 1542 2737 
Q 1313 2422 1313 1825 
L 1313 1497 
z
" transform="scale(0.015625)"/>
      <path id="DejaVuSerif-68" d="M 263 0 
L 263 331 
L 781 331 
L 781 4531 
L 231 4531 
L 231 4863 
L 1356 4863 
L 1356 2731 
Q 1516 3069 1770 3241 
Q 2025 3413 2363 3413 
Q 2913 3413 3172 3097 
Q 3431 2781 3431 2113 
L 3431 331 
L 3944 331 
L 3944 0 
L 2356 0 
L 2356 331 
L 2853 331 
L 2853 1931 
Q 2853 2541 2704 2764 
Q 2556 2988 2175 2988 
Q 1775 2988 1565 2697 
Q 1356 2406 1356 1850 
L 1356 331 
L 1856 331 
L 1856 0 
L 263 0 
z
" transform="scale(0.015625)"/>
      <path id="DejaVuSerif-73" d="M 359 184 
L 359 959 
L 691 959 
Q 703 588 923 403 
Q 1144 219 1575 219 
Q 1963 219 2166 364 
Q 2369 509 2369 788 
Q 2369 1006 2220 1140 
Q 2072 1275 1594 1428 
L 1178 1569 
Q 750 1706 558 1912 
Q 366 2119 366 2438 
Q 366 2894 700 3153 
Q 1034 3413 1625 3413 
Q 1888 3413 2178 3344 
Q 2469 3275 2778 3144 
L 2778 2419 
L 2447 2419 
Q 2434 2741 2221 2922 
Q 2009 3103 1644 3103 
Q 1281 3103 1095 2975 
Q 909 2847 909 2591 
Q 909 2381 1050 2254 
Q 1191 2128 1613 1997 
L 2069 1856 
Q 2541 1709 2748 1489 
Q 2956 1269 2956 922 
Q 2956 450 2595 179 
Q 2234 -91 1600 -91 
Q 1278 -91 972 -22 
Q 666 47 359 184 
z
" transform="scale(0.015625)"/>
      <path id="DejaVuSerif-6f" d="M 1925 219 
Q 2388 219 2623 584 
Q 2859 950 2859 1663 
Q 2859 2375 2623 2739 
Q 2388 3103 1925 3103 
Q 1463 3103 1227 2739 
Q 991 2375 991 1663 
Q 991 950 1228 584 
Q 1466 219 1925 219 
z
M 1925 -91 
Q 1200 -91 759 389 
Q 319 869 319 1663 
Q 319 2456 758 2934 
Q 1197 3413 1925 3413 
Q 2653 3413 3092 2934 
Q 3531 2456 3531 1663 
Q 3531 869 3092 389 
Q 2653 -91 1925 -91 
z
" transform="scale(0.015625)"/>
      <path id="DejaVuSerif-66" d="M 2753 4078 
L 2450 4078 
Q 2447 4313 2317 4434 
Q 2188 4556 1941 4556 
Q 1619 4556 1487 4379 
Q 1356 4203 1356 3750 
L 1356 3322 
L 2284 3322 
L 2284 2988 
L 1356 2988 
L 1356 331 
L 2094 331 
L 2094 0 
L 231 0 
L 231 331 
L 781 331 
L 781 2988 
L 231 2988 
L 231 3322 
L 781 3322 
L 781 3738 
Q 781 4294 1070 4578 
Q 1359 4863 1919 4863 
Q 2128 4863 2337 4825 
Q 2547 4788 2753 4709 
L 2753 4078 
z
" transform="scale(0.015625)"/>
      <path id="DejaVuSerif-61" d="M 2547 1044 
L 2547 1747 
L 1806 1747 
Q 1378 1747 1168 1562 
Q 959 1378 959 997 
Q 959 650 1171 447 
Q 1384 244 1747 244 
Q 2106 244 2326 466 
Q 2547 688 2547 1044 
z
M 3122 2075 
L 3122 331 
L 3634 331 
L 3634 0 
L 2547 0 
L 2547 359 
Q 2356 128 2106 18 
Q 1856 -91 1522 -91 
Q 969 -91 644 203 
Q 319 497 319 997 
Q 319 1513 691 1797 
Q 1063 2081 1741 2081 
L 2547 2081 
L 2547 2309 
Q 2547 2688 2317 2895 
Q 2088 3103 1672 3103 
Q 1328 3103 1125 2947 
Q 922 2791 872 2484 
L 575 2484 
L 575 3156 
Q 875 3284 1158 3348 
Q 1441 3413 1709 3413 
Q 2400 3413 2761 3070 
Q 3122 2728 3122 2075 
z
" transform="scale(0.015625)"/>
      <path id="DejaVuSerif-6c" d="M 1313 331 
L 1856 331 
L 1856 0 
L 184 0 
L 184 331 
L 738 331 
L 738 4531 
L 184 4531 
L 184 4863 
L 1313 4863 
L 1313 331 
z
" transform="scale(0.015625)"/>
      <path id="DejaVuSerif-72" d="M 3059 3328 
L 3059 2497 
L 2728 2497 
Q 2713 2744 2591 2866 
Q 2469 2988 2234 2988 
Q 1809 2988 1582 2694 
Q 1356 2400 1356 1850 
L 1356 331 
L 2022 331 
L 2022 0 
L 263 0 
L 263 331 
L 781 331 
L 781 2994 
L 231 2994 
L 231 3322 
L 1356 3322 
L 1356 2731 
Q 1525 3078 1790 3245 
Q 2056 3413 2438 3413 
Q 2578 3413 2733 3391 
Q 2888 3369 3059 3328 
z
" transform="scale(0.015625)"/>
      <path id="DejaVuSerif-69" d="M 622 4353 
Q 622 4497 726 4603 
Q 831 4709 978 4709 
Q 1122 4709 1226 4603 
Q 1331 4497 1331 4353 
Q 1331 4206 1228 4103 
Q 1125 4000 978 4000 
Q 831 4000 726 4103 
Q 622 4206 622 4353 
z
M 1356 331 
L 1900 331 
L 1900 0 
L 231 0 
L 231 331 
L 781 331 
L 781 2988 
L 231 2988 
L 231 3322 
L 1356 3322 
L 1356 331 
z
" transform="scale(0.015625)"/>
      <path id="DejaVuSerif-70" d="M 1313 1825 
L 1313 1497 
Q 1313 897 1542 583 
Q 1772 269 2209 269 
Q 2650 269 2876 622 
Q 3103 975 3103 1663 
Q 3103 2353 2876 2703 
Q 2650 3053 2209 3053 
Q 1772 3053 1542 2737 
Q 1313 2422 1313 1825 
z
M 738 2988 
L 184 2988 
L 184 3322 
L 1313 3322 
L 1313 2803 
Q 1481 3116 1742 3264 
Q 2003 3413 2388 3413 
Q 3000 3413 3387 2928 
Q 3775 2444 3775 1663 
Q 3775 881 3387 395 
Q 3000 -91 2388 -91 
Q 2003 -91 1742 57 
Q 1481 206 1313 519 
L 1313 -997 
L 1856 -997 
L 1856 -1331 
L 184 -1331 
L 184 -997 
L 738 -997 
L 738 2988 
z
" transform="scale(0.015625)"/>
      <path id="Cmr10-28" d="M 1984 -1588 
Q 1628 -1306 1370 -942 
Q 1113 -578 948 -165 
Q 784 247 703 697 
Q 622 1147 622 1600 
Q 622 2059 703 2509 
Q 784 2959 951 3375 
Q 1119 3791 1378 4153 
Q 1638 4516 1984 4788 
Q 1984 4800 2016 4800 
L 2075 4800 
Q 2094 4800 2109 4783 
Q 2125 4766 2125 4744 
Q 2125 4716 2113 4703 
Q 1800 4397 1592 4047 
Q 1384 3697 1257 3301 
Q 1131 2906 1075 2482 
Q 1019 2059 1019 1600 
Q 1019 -434 2106 -1491 
Q 2125 -1509 2125 -1544 
Q 2125 -1559 2108 -1579 
Q 2091 -1600 2075 -1600 
L 2016 -1600 
Q 1984 -1600 1984 -1588 
z
" transform="scale(0.015625)"/>
      <path id="Cmmi10-61" d="M 1113 -72 
Q 709 -72 476 233 
Q 244 538 244 953 
Q 244 1363 456 1803 
Q 669 2244 1030 2536 
Q 1391 2828 1806 2828 
Q 1997 2828 2147 2725 
Q 2297 2622 2381 2444 
Q 2453 2700 2663 2700 
Q 2744 2700 2798 2651 
Q 2853 2603 2853 2522 
Q 2853 2503 2851 2493 
Q 2850 2484 2847 2472 
L 2400 684 
Q 2356 494 2356 372 
Q 2356 97 2541 97 
Q 2741 97 2845 351 
Q 2950 606 3022 941 
Q 3034 978 3072 978 
L 3150 978 
Q 3175 978 3190 956 
Q 3206 934 3206 916 
Q 3094 469 2961 198 
Q 2828 -72 2528 -72 
Q 2313 -72 2147 54 
Q 1981 181 1941 391 
Q 1528 -72 1113 -72 
z
M 1119 97 
Q 1350 97 1567 270 
Q 1784 444 1941 678 
Q 1947 684 1947 697 
L 2291 2088 
L 2297 2106 
Q 2259 2334 2132 2498 
Q 2006 2663 1791 2663 
Q 1575 2663 1389 2486 
Q 1203 2309 1075 2069 
Q 950 1813 836 1366 
Q 722 919 722 672 
Q 722 450 817 273 
Q 913 97 1119 97 
z
" transform="scale(0.015625)"/>
      <path id="Cmmi10-3b" d="M 634 -1153 
Q 634 -1125 659 -1100 
Q 891 -878 1019 -587 
Q 1147 -297 1147 25 
L 1147 103 
Q 1044 0 891 0 
Q 744 0 641 103 
Q 538 206 538 353 
Q 538 503 641 603 
Q 744 703 891 703 
Q 1119 703 1216 492 
Q 1313 281 1313 25 
Q 1313 -331 1170 -651 
Q 1028 -972 769 -1228 
Q 744 -1241 728 -1241 
Q 697 -1241 665 -1212 
Q 634 -1184 634 -1153 
z
" transform="scale(0.015625)"/>
      <path id="Cmmi10-62" d="M 1106 -72 
Q 719 -72 503 231 
Q 288 534 288 941 
Q 288 1000 317 1173 
Q 347 1347 347 1388 
L 966 3872 
Q 991 3981 997 4044 
Q 997 4147 581 4147 
Q 519 4147 519 4231 
Q 522 4247 533 4287 
Q 544 4328 561 4350 
Q 578 4372 609 4372 
L 1472 4441 
Q 1550 4441 1550 4359 
L 1075 2472 
Q 1438 2828 1806 2828 
Q 2078 2828 2273 2684 
Q 2469 2541 2566 2306 
Q 2663 2072 2663 1806 
Q 2663 1497 2542 1167 
Q 2422 838 2209 555 
Q 1997 272 1712 100 
Q 1428 -72 1106 -72 
z
M 1119 97 
Q 1338 97 1528 280 
Q 1719 463 1838 691 
Q 1966 947 2077 1386 
Q 2188 1825 2188 2088 
Q 2188 2316 2092 2489 
Q 1997 2663 1791 2663 
Q 1559 2663 1348 2492 
Q 1138 2322 978 2088 
L 800 1363 
Q 697 959 691 716 
Q 691 475 795 286 
Q 900 97 1119 97 
z
" transform="scale(0.015625)"/>
      <path id="Cmmi10-63" d="M 750 763 
Q 750 484 892 290 
Q 1034 97 1300 97 
Q 1681 97 2032 272 
Q 2384 447 2606 756 
Q 2625 775 2656 775 
Q 2688 775 2720 739 
Q 2753 703 2753 672 
Q 2753 647 2741 634 
Q 2506 306 2109 117 
Q 1713 -72 1288 -72 
Q 981 -72 747 73 
Q 513 219 384 462 
Q 256 706 256 1013 
Q 256 1444 497 1869 
Q 738 2294 1138 2561 
Q 1538 2828 1978 2828 
Q 2266 2828 2495 2689 
Q 2725 2550 2725 2278 
Q 2725 2103 2623 1979 
Q 2522 1856 2350 1856 
Q 2247 1856 2176 1920 
Q 2106 1984 2106 2088 
Q 2106 2238 2215 2344 
Q 2325 2450 2472 2450 
L 2484 2450 
Q 2409 2559 2267 2611 
Q 2125 2663 1972 2663 
Q 1597 2663 1315 2342 
Q 1034 2022 892 1576 
Q 750 1131 750 763 
z
" transform="scale(0.015625)"/>
      <path id="Cmr10-29" d="M 416 -1600 
Q 359 -1600 359 -1544 
Q 359 -1516 372 -1503 
Q 1466 -434 1466 1600 
Q 1466 3634 384 4691 
Q 359 4706 359 4744 
Q 359 4766 376 4783 
Q 394 4800 416 4800 
L 475 4800 
Q 494 4800 506 4788 
Q 966 4425 1272 3906 
Q 1578 3388 1720 2800 
Q 1863 2213 1863 1600 
Q 1863 1147 1786 708 
Q 1709 269 1542 -157 
Q 1375 -584 1119 -945 
Q 863 -1306 506 -1588 
Q 494 -1600 475 -1600 
L 416 -1600 
z
" transform="scale(0.015625)"/>
      <path id="DejaVuSerif-76" d="M 1581 0 
L 359 2988 
L -19 2988 
L -19 3322 
L 1509 3322 
L 1509 2988 
L 978 2988 
L 1913 703 
L 2847 2988 
L 2350 2988 
L 2350 3322 
L 3597 3322 
L 3597 2988 
L 3225 2988 
L 2003 0 
L 1581 0 
z
" transform="scale(0.015625)"/>
      <path id="DejaVuSerif-6e" d="M 263 0 
L 263 331 
L 781 331 
L 781 2988 
L 231 2988 
L 231 3322 
L 1356 3322 
L 1356 2731 
Q 1516 3069 1770 3241 
Q 2025 3413 2363 3413 
Q 2913 3413 3172 3097 
Q 3431 2781 3431 2113 
L 3431 331 
L 3944 331 
L 3944 0 
L 2356 0 
L 2356 331 
L 2853 331 
L 2853 1931 
Q 2853 2541 2703 2767 
Q 2553 2994 2175 2994 
Q 1775 2994 1565 2701 
Q 1356 2409 1356 1850 
L 1356 331 
L 1856 331 
L 1856 0 
L 263 0 
z
" transform="scale(0.015625)"/>
      <path id="DejaVuSerif-67" d="M 3359 2988 
L 3359 72 
Q 3359 -644 2965 -1033 
Q 2572 -1422 1844 -1422 
Q 1516 -1422 1216 -1362 
Q 916 -1303 641 -1184 
L 641 -488 
L 941 -488 
Q 997 -813 1206 -963 
Q 1416 -1113 1806 -1113 
Q 2313 -1113 2548 -827 
Q 2784 -541 2784 72 
L 2784 519 
Q 2616 206 2355 57 
Q 2094 -91 1709 -91 
Q 1097 -91 708 395 
Q 319 881 319 1663 
Q 319 2444 706 2928 
Q 1094 3413 1709 3413 
Q 2094 3413 2355 3264 
Q 2616 3116 2784 2803 
L 2784 3322 
L 3909 3322 
L 3909 2988 
L 3359 2988 
z
M 2784 1825 
Q 2784 2422 2554 2737 
Q 2325 3053 1888 3053 
Q 1444 3053 1217 2703 
Q 991 2353 991 1663 
Q 991 975 1217 622 
Q 1444 269 1888 269 
Q 2325 269 2554 583 
Q 2784 897 2784 1497 
L 2784 1825 
z
" transform="scale(0.015625)"/>
      <path id="DejaVuSerif-77" d="M 3072 3322 
L 3922 728 
L 4672 2988 
L 4191 2988 
L 4191 3322 
L 5394 3322 
L 5394 2988 
L 5025 2988 
L 4038 0 
L 3559 0 
L 2741 2484 
L 1919 0 
L 1459 0 
L 475 2988 
L 103 2988 
L 103 3322 
L 1606 3322 
L 1606 2988 
L 1069 2988 
L 1813 728 
L 2669 3322 
L 3072 3322 
z
" transform="scale(0.015625)"/>
      <path id="DejaVuSerif-63" d="M 3291 997 
Q 3169 466 2822 187 
Q 2475 -91 1925 -91 
Q 1200 -91 759 389 
Q 319 869 319 1663 
Q 319 2459 759 2936 
Q 1200 3413 1925 3413 
Q 2241 3413 2553 3339 
Q 2866 3266 3181 3116 
L 3181 2266 
L 2847 2266 
Q 2781 2703 2561 2903 
Q 2341 3103 1931 3103 
Q 1466 3103 1228 2742 
Q 991 2381 991 1663 
Q 991 944 1227 581 
Q 1463 219 1931 219 
Q 2303 219 2525 412 
Q 2747 606 2828 997 
L 3291 997 
z
" transform="scale(0.015625)"/>
      <path id="DejaVuSerif-78" d="M 1863 2028 
L 2559 2988 
L 2113 2988 
L 2113 3322 
L 3391 3322 
L 3391 2988 
L 2950 2988 
L 2059 1759 
L 3097 331 
L 3531 331 
L 3531 0 
L 1997 0 
L 1997 331 
L 2419 331 
L 1697 1325 
L 972 331 
L 1403 331 
L 1403 0 
L 141 0 
L 141 331 
L 581 331 
L 1497 1594 
L 488 2988 
L 78 2988 
L 78 3322 
L 1563 3322 
L 1563 2988 
L 1166 2988 
L 1863 2028 
z
" transform="scale(0.015625)"/>
      <path id="DejaVuSerif-64" d="M 3359 331 
L 3909 331 
L 3909 0 
L 2784 0 
L 2784 519 
Q 2616 206 2355 57 
Q 2094 -91 1709 -91 
Q 1097 -91 708 395 
Q 319 881 319 1663 
Q 319 2444 706 2928 
Q 1094 3413 1709 3413 
Q 2094 3413 2355 3264 
Q 2616 3116 2784 2803 
L 2784 4531 
L 2241 4531 
L 2241 4863 
L 3359 4863 
L 3359 331 
z
M 2784 1497 
L 2784 1825 
Q 2784 2422 2554 2737 
Q 2325 3053 1888 3053 
Q 1444 3053 1217 2703 
Q 991 2353 991 1663 
Q 991 975 1217 622 
Q 1444 269 1888 269 
Q 2325 269 2554 583 
Q 2784 897 2784 1497 
z
" transform="scale(0.015625)"/>
      <path id="DejaVuSerif-2e" d="M 603 325 
Q 603 500 722 622 
Q 841 744 1019 744 
Q 1191 744 1312 622 
Q 1434 500 1434 325 
Q 1434 153 1312 31 
Q 1191 -91 1019 -91 
Q 841 -91 722 29 
Q 603 150 603 325 
z
" transform="scale(0.015625)"/>
      <path id="DejaVuSerif-45" d="M 353 0 
L 353 331 
L 947 331 
L 947 4331 
L 353 4331 
L 353 4666 
L 4109 4666 
L 4109 3628 
L 3725 3628 
L 3725 4281 
L 1581 4281 
L 1581 2719 
L 3109 2719 
L 3109 3303 
L 3494 3303 
L 3494 1753 
L 3109 1753 
L 3109 2338 
L 1581 2338 
L 1581 384 
L 3775 384 
L 3775 1038 
L 4159 1038 
L 4159 0 
L 353 0 
z
" transform="scale(0.015625)"/>
     </defs>
     <use xlink:href="#DejaVuSerif-4c" transform="translate(0 0.015625)"/>
     <use xlink:href="#DejaVuSerif-65" transform="translate(66.40625 0.015625)"/>
     <use xlink:href="#DejaVuSerif-74" transform="translate(125.585938 0.015625)"/>
     <use xlink:href="#DejaVuSerif-20" transform="translate(165.771484 0.015625)"/>
     <use xlink:href="#Cmmi10-54" transform="translate(197.558594 0.015625)"/>
     <use xlink:href="#DejaVuSerif-20" transform="translate(255.957031 0.015625)"/>
     <use xlink:href="#DejaVuSerif-62" transform="translate(287.744141 0.015625)"/>
     <use xlink:href="#DejaVuSerif-65" transform="translate(351.757812 0.015625)"/>
     <use xlink:href="#DejaVuSerif-20" transform="translate(410.9375 0.015625)"/>
     <use xlink:href="#DejaVuSerif-74" transform="translate(442.724609 0.015625)"/>
     <use xlink:href="#DejaVuSerif-68" transform="translate(482.910156 0.015625)"/>
     <use xlink:href="#DejaVuSerif-65" transform="translate(547.314453 0.015625)"/>
     <use xlink:href="#DejaVuSerif-20" transform="translate(606.494141 0.015625)"/>
     <use xlink:href="#DejaVuSerif-73" transform="translate(638.28125 0.015625)"/>
     <use xlink:href="#DejaVuSerif-65" transform="translate(689.599609 0.015625)"/>
     <use xlink:href="#DejaVuSerif-74" transform="translate(748.779297 0.015625)"/>
     <use xlink:href="#DejaVuSerif-20" transform="translate(788.964844 0.015625)"/>
     <use xlink:href="#DejaVuSerif-6f" transform="translate(820.751953 0.015625)"/>
     <use xlink:href="#DejaVuSerif-66" transform="translate(880.957031 0.015625)"/>
     <use xlink:href="#DejaVuSerif-20" transform="translate(917.96875 0.015625)"/>
     <use xlink:href="#DejaVuSerif-61" transform="translate(949.755859 0.015625)"/>
     <use xlink:href="#DejaVuSerif-6c" transform="translate(1009.375 0.015625)"/>
     <use xlink:href="#DejaVuSerif-6c" transform="translate(1041.357422 0.015625)"/>
     <use xlink:href="#DejaVuSerif-20" transform="translate(1073.339844 0.015625)"/>
     <use xlink:href="#DejaVuSerif-74" transform="translate(1105.126953 0.015625)"/>
     <use xlink:href="#DejaVuSerif-72" transform="translate(1145.3125 0.015625)"/>
     <use xlink:href="#DejaVuSerif-69" transform="translate(1193.115234 0.015625)"/>
     <use xlink:href="#DejaVuSerif-70" transform="translate(1225.097656 0.015625)"/>
     <use xlink:href="#DejaVuSerif-6c" transform="translate(1289.111328 0.015625)"/>
     <use xlink:href="#DejaVuSerif-65" transform="translate(1321.09375 0.015625)"/>
     <use xlink:href="#DejaVuSerif-73" transform="translate(1380.273438 0.015625)"/>
     <use xlink:href="#DejaVuSerif-20" transform="translate(1431.591797 0.015625)"/>
     <use xlink:href="#Cmr10-28" transform="translate(1463.378906 0.015625)"/>
     <use xlink:href="#Cmmi10-61" transform="translate(1502.197266 0.015625)"/>
     <use xlink:href="#Cmmi10-3b" transform="translate(1554.980469 0.015625)"/>
     <use xlink:href="#Cmmi10-62" transform="translate(1600.224609 0.015625)"/>
     <use xlink:href="#Cmmi10-3b" transform="translate(1643.144531 0.015625)"/>
     <use xlink:href="#Cmmi10-63" transform="translate(1688.388672 0.015625)"/>
     <use xlink:href="#Cmr10-29" transform="translate(1731.601562 0.015625)"/>
     <use xlink:href="#DejaVuSerif-20" transform="translate(1770.419922 0.015625)"/>
     <use xlink:href="#DejaVuSerif-6f" transform="translate(1802.207031 0.015625)"/>
     <use xlink:href="#DejaVuSerif-66" transform="translate(1862.412109 0.015625)"/>
     <use xlink:href="#DejaVuSerif-20" transform="translate(1899.423828 0.015625)"/>
     <use xlink:href="#DejaVuSerif-70" transform="translate(1931.210938 0.015625)"/>
     <use xlink:href="#DejaVuSerif-6f" transform="translate(1995.224609 0.015625)"/>
     <use xlink:href="#DejaVuSerif-73" transform="translate(2055.429688 0.015625)"/>
     <use xlink:href="#DejaVuSerif-69" transform="translate(2106.748047 0.015625)"/>
     <use xlink:href="#DejaVuSerif-74" transform="translate(2138.730469 0.015625)"/>
     <use xlink:href="#DejaVuSerif-69" transform="translate(2178.916016 0.015625)"/>
     <use xlink:href="#DejaVuSerif-76" transform="translate(2210.898438 0.015625)"/>
     <use xlink:href="#DejaVuSerif-65" transform="translate(2267.392578 0.015625)"/>
     <use xlink:href="#DejaVuSerif-20" transform="translate(2326.572266 0.015625)"/>
     <use xlink:href="#DejaVuSerif-69" transform="translate(2358.359375 0.015625)"/>
     <use xlink:href="#DejaVuSerif-6e" transform="translate(2390.341797 0.015625)"/>
     <use xlink:href="#DejaVuSerif-74" transform="translate(2454.746094 0.015625)"/>
     <use xlink:href="#DejaVuSerif-65" transform="translate(2494.931641 0.015625)"/>
     <use xlink:href="#DejaVuSerif-67" transform="translate(2554.111328 0.015625)"/>
     <use xlink:href="#DejaVuSerif-65" transform="translate(2618.125 0.015625)"/>
     <use xlink:href="#DejaVuSerif-72" transform="translate(2677.304688 0.015625)"/>
     <use xlink:href="#DejaVuSerif-73" transform="translate(2725.107422 0.015625)"/>
     <use xlink:href="#DejaVuSerif-20" transform="translate(2776.425781 0.015625)"/>
     <use xlink:href="#DejaVuSerif-66" transform="translate(2808.212891 0.015625)"/>
     <use xlink:href="#DejaVuSerif-6f" transform="translate(2845.224609 0.015625)"/>
     <use xlink:href="#DejaVuSerif-72" transform="translate(2905.429688 0.015625)"/>
     <use xlink:href="#DejaVuSerif-20" transform="translate(2953.232422 0.015625)"/>
     <use xlink:href="#DejaVuSerif-77" transform="translate(2985.019531 0.015625)"/>
     <use xlink:href="#DejaVuSerif-68" transform="translate(3070.615234 0.015625)"/>
     <use xlink:href="#DejaVuSerif-69" transform="translate(3135.019531 0.015625)"/>
     <use xlink:href="#DejaVuSerif-63" transform="translate(3167.001953 0.015625)"/>
     <use xlink:href="#DejaVuSerif-68" transform="translate(3223.007812 0.015625)"/>
     <use xlink:href="#DejaVuSerif-20" transform="translate(3287.412109 0.015625)"/>
     <use xlink:href="#DejaVuSerif-74" transform="translate(3319.199219 0.015625)"/>
     <use xlink:href="#DejaVuSerif-68" transform="translate(3359.384766 0.015625)"/>
     <use xlink:href="#DejaVuSerif-65" transform="translate(3423.789062 0.015625)"/>
     <use xlink:href="#DejaVuSerif-72" transform="translate(3482.96875 0.015625)"/>
     <use xlink:href="#DejaVuSerif-65" transform="translate(3530.771484 0.015625)"/>
     <use xlink:href="#DejaVuSerif-20" transform="translate(3589.951172 0.015625)"/>
     <use xlink:href="#DejaVuSerif-65" transform="translate(3621.738281 0.015625)"/>
     <use xlink:href="#DejaVuSerif-78" transform="translate(3680.917969 0.015625)"/>
     <use xlink:href="#DejaVuSerif-69" transform="translate(3737.314453 0.015625)"/>
     <use xlink:href="#DejaVuSerif-73" transform="translate(3769.296875 0.015625)"/>
     <use xlink:href="#DejaVuSerif-74" transform="translate(3820.615234 0.015625)"/>
     <use xlink:href="#DejaVuSerif-20" transform="translate(3860.800781 0.015625)"/>
     <use xlink:href="#DejaVuSerif-74" transform="translate(3892.587891 0.015625)"/>
     <use xlink:href="#DejaVuSerif-72" transform="translate(3932.773438 0.015625)"/>
     <use xlink:href="#DejaVuSerif-69" transform="translate(3980.576172 0.015625)"/>
     <use xlink:href="#DejaVuSerif-61" transform="translate(4012.558594 0.015625)"/>
     <use xlink:href="#DejaVuSerif-6e" transform="translate(4072.177734 0.015625)"/>
     <use xlink:href="#DejaVuSerif-67" transform="translate(4136.582031 0.015625)"/>
     <use xlink:href="#DejaVuSerif-6c" transform="translate(4200.595703 0.015625)"/>
     <use xlink:href="#DejaVuSerif-65" transform="translate(4232.578125 0.015625)"/>
     <use xlink:href="#DejaVuSerif-73" transform="translate(4291.757812 0.015625)"/>
     <use xlink:href="#DejaVuSerif-20" transform="translate(4343.076172 0.015625)"/>
     <use xlink:href="#DejaVuSerif-77" transform="translate(4374.863281 0.015625)"/>
     <use xlink:href="#DejaVuSerif-69" transform="translate(4460.458984 0.015625)"/>
     <use xlink:href="#DejaVuSerif-74" transform="translate(4492.441406 0.015625)"/>
     <use xlink:href="#DejaVuSerif-68" transform="translate(4532.626953 0.015625)"/>
     <use xlink:href="#DejaVuSerif-20" transform="translate(4597.03125 0.015625)"/>
     <use xlink:href="#DejaVuSerif-73" transform="translate(4628.818359 0.015625)"/>
     <use xlink:href="#DejaVuSerif-69" transform="translate(4680.136719 0.015625)"/>
     <use xlink:href="#DejaVuSerif-64" transform="translate(4712.119141 0.015625)"/>
     <use xlink:href="#DejaVuSerif-65" transform="translate(4776.132812 0.015625)"/>
     <use xlink:href="#DejaVuSerif-20" transform="translate(4835.3125 0.015625)"/>
     <use xlink:href="#DejaVuSerif-6c" transform="translate(4867.099609 0.015625)"/>
     <use xlink:href="#DejaVuSerif-65" transform="translate(4899.082031 0.015625)"/>
     <use xlink:href="#DejaVuSerif-6e" transform="translate(4958.261719 0.015625)"/>
     <use xlink:href="#DejaVuSerif-67" transform="translate(5022.666016 0.015625)"/>
     <use xlink:href="#DejaVuSerif-74" transform="translate(5086.679688 0.015625)"/>
     <use xlink:href="#DejaVuSerif-68" transform="translate(5126.865234 0.015625)"/>
     <use xlink:href="#DejaVuSerif-73" transform="translate(5191.269531 0.015625)"/>
     <use xlink:href="#DejaVuSerif-20" transform="translate(5242.587891 0.015625)"/>
     <use xlink:href="#Cmmi10-61" transform="translate(5274.375 0.015625)"/>
     <use xlink:href="#Cmmi10-3b" transform="translate(5327.158203 0.015625)"/>
     <use xlink:href="#Cmmi10-62" transform="translate(5372.402344 0.015625)"/>
     <use xlink:href="#Cmmi10-3b" transform="translate(5415.322266 0.015625)"/>
     <use xlink:href="#Cmmi10-63" transform="translate(5460.566406 0.015625)"/>
     <use xlink:href="#DejaVuSerif-2e" transform="translate(5503.779297 0.015625)"/>
     <use xlink:href="#DejaVuSerif-20" transform="translate(5535.566406 0.015625)"/>
     <use xlink:href="#DejaVuSerif-45" transform="translate(5567.353516 0.015625)"/>
     <use xlink:href="#DejaVuSerif-78" transform="translate(5640.351562 0.015625)"/>
     <use xlink:href="#DejaVuSerif-70" transform="translate(5696.748047 0.015625)"/>
     <use xlink:href="#DejaVuSerif-72" transform="translate(5760.761719 0.015625)"/>
     <use xlink:href="#DejaVuSerif-65" transform="translate(5808.564453 0.015625)"/>
     <use xlink:href="#DejaVuSerif-73" transform="translate(5867.744141 0.015625)"/>
     <use xlink:href="#DejaVuSerif-73" transform="translate(5919.0625 0.015625)"/>
    </g>
    <!-- \[ -->
    <g transform="translate(361.097813 104.160125) scale(0.12 -0.12)">
     <defs>
      <path id="DejaVuSerif-5c" d="M 500 4666 
L 2156 -594 
L 1656 -594 
L 0 4666 
L 500 4666 
z
" transform="scale(0.015625)"/>
      <path id="DejaVuSerif-5b" d="M 550 4863 
L 2003 4863 
L 2003 4531 
L 1147 4531 
L 1147 -513 
L 2003 -513 
L 2003 -844 
L 550 -844 
L 550 4863 
z
" transform="scale(0.015625)"/>
     </defs>
     <use xlink:href="#DejaVuSerif-5c"/>
     <use xlink:href="#DejaVuSerif-5b" transform="translate(33.691406 0)"/>
    </g>
    <!-- \sum_{(a,b,c) \in T} \frac{2^a}{3^b 5^c} -->
    <g transform="translate(234.830625 117.5975) scale(0.12 -0.12)">
     <defs>
      <path id="DejaVuSerif-75" d="M 2266 3322 
L 3341 3322 
L 3341 331 
L 3884 331 
L 3884 0 
L 2766 0 
L 2766 588 
Q 2606 256 2353 82 
Q 2100 -91 1766 -91 
Q 1213 -91 952 223 
Q 691 538 691 1209 
L 691 2988 
L 172 2988 
L 172 3322 
L 1269 3322 
L 1269 1388 
Q 1269 781 1417 556 
Q 1566 331 1947 331 
Q 2347 331 2556 625 
Q 2766 919 2766 1478 
L 2766 2988 
L 2266 2988 
L 2266 3322 
z
" transform="scale(0.015625)"/>
      <path id="DejaVuSerif-6d" d="M 3316 2675 
Q 3481 3041 3739 3227 
Q 3997 3413 4341 3413 
Q 4863 3413 5119 3089 
Q 5375 2766 5375 2113 
L 5375 331 
L 5894 331 
L 5894 0 
L 4300 0 
L 4300 331 
L 4800 331 
L 4800 2047 
Q 4800 2556 4650 2772 
Q 4500 2988 4153 2988 
Q 3769 2988 3567 2697 
Q 3366 2406 3366 1850 
L 3366 331 
L 3866 331 
L 3866 0 
L 2291 0 
L 2291 331 
L 2791 331 
L 2791 2069 
Q 2791 2566 2641 2777 
Q 2491 2988 2144 2988 
Q 1759 2988 1557 2697 
Q 1356 2406 1356 1850 
L 1356 331 
L 1856 331 
L 1856 0 
L 263 0 
L 263 331 
L 781 331 
L 781 2994 
L 231 2994 
L 231 3322 
L 1356 3322 
L 1356 2731 
Q 1516 3063 1762 3238 
Q 2009 3413 2322 3413 
Q 2709 3413 2968 3220 
Q 3228 3028 3316 2675 
z
" transform="scale(0.015625)"/>
      <path id="DejaVuSerif-5f" d="M 3200 -1259 
L 3200 -1509 
L 0 -1509 
L 0 -1259 
L 3200 -1259 
z
" transform="scale(0.015625)"/>
      <path id="DejaVuSerif-7b" d="M 3272 -716 
L 3272 -1044 
L 3078 -1044 
Q 2300 -1044 2036 -812 
Q 1772 -581 1772 109 
L 1772 916 
Q 1772 1384 1603 1565 
Q 1434 1747 991 1747 
L 800 1747 
L 800 2075 
L 991 2075 
Q 1434 2075 1603 2256 
Q 1772 2438 1772 2906 
L 1772 3713 
Q 1772 4403 2036 4633 
Q 2300 4863 3078 4863 
L 3272 4863 
L 3272 4538 
L 3059 4538 
Q 2619 4538 2484 4400 
Q 2350 4263 2350 3822 
L 2350 2925 
Q 2350 2431 2194 2218 
Q 2038 2006 1631 1913 
Q 2044 1806 2197 1597 
Q 2350 1388 2350 897 
L 2350 0 
Q 2350 -441 2484 -578 
Q 2619 -716 3059 -716 
L 3272 -716 
z
" transform="scale(0.015625)"/>
      <path id="DejaVuSerif-28" d="M 2041 -997 
Q 1281 -656 893 83 
Q 506 822 506 1931 
Q 506 3044 893 3783 
Q 1281 4522 2041 4863 
L 2041 4556 
Q 1559 4225 1350 3623 
Q 1141 3022 1141 1931 
Q 1141 844 1350 242 
Q 1559 -359 2041 -691 
L 2041 -997 
z
" transform="scale(0.015625)"/>
      <path id="DejaVuSerif-2c" d="M 231 -622 
Q 525 -406 662 -114 
Q 800 178 800 594 
L 800 709 
L 1416 709 
Q 1391 175 1164 -208 
Q 938 -591 481 -872 
L 231 -622 
z
" transform="scale(0.015625)"/>
      <path id="DejaVuSerif-29" d="M 453 -997 
L 453 -691 
Q 934 -359 1145 242 
Q 1356 844 1356 1931 
Q 1356 3022 1145 3623 
Q 934 4225 453 4556 
L 453 4863 
Q 1216 4522 1603 3783 
Q 1991 3044 1991 1931 
Q 1991 822 1603 83 
Q 1216 -656 453 -997 
z
" transform="scale(0.015625)"/>
      <path id="DejaVuSerif-54" d="M 1222 0 
L 1222 331 
L 1819 331 
L 1819 4294 
L 447 4294 
L 447 3566 
L 63 3566 
L 63 4666 
L 4206 4666 
L 4206 3566 
L 3822 3566 
L 3822 4294 
L 2450 4294 
L 2450 331 
L 3047 331 
L 3047 0 
L 1222 0 
z
" transform="scale(0.015625)"/>
      <path id="DejaVuSerif-7d" d="M 800 -716 
L 1019 -716 
Q 1456 -716 1589 -580 
Q 1722 -444 1722 0 
L 1722 897 
Q 1722 1388 1875 1597 
Q 2028 1806 2438 1913 
Q 2031 2006 1876 2218 
Q 1722 2431 1722 2925 
L 1722 3822 
Q 1722 4266 1589 4402 
Q 1456 4538 1019 4538 
L 800 4538 
L 800 4863 
L 997 4863 
Q 1775 4863 2036 4633 
Q 2297 4403 2297 3713 
L 2297 2906 
Q 2297 2438 2465 2256 
Q 2634 2075 3078 2075 
L 3272 2075 
L 3272 1747 
L 3078 1747 
Q 2634 1747 2465 1565 
Q 2297 1384 2297 916 
L 2297 109 
Q 2297 -581 2036 -812 
Q 1775 -1044 997 -1044 
L 800 -1044 
L 800 -716 
z
" transform="scale(0.015625)"/>
      <path id="DejaVuSerif-32" d="M 819 3553 
L 469 3553 
L 469 4384 
Q 803 4563 1142 4656 
Q 1481 4750 1806 4750 
Q 2534 4750 2956 4397 
Q 3378 4044 3378 3438 
Q 3378 2753 2422 1800 
Q 2347 1728 2309 1691 
L 1131 513 
L 3078 513 
L 3078 1088 
L 3444 1088 
L 3444 0 
L 434 0 
L 434 341 
L 1850 1753 
Q 2319 2222 2519 2614 
Q 2719 3006 2719 3438 
Q 2719 3909 2473 4175 
Q 2228 4441 1797 4441 
Q 1350 4441 1106 4219 
Q 863 3997 819 3553 
z
" transform="scale(0.015625)"/>
      <path id="DejaVuSerif-5e" d="M 2988 4666 
L 4684 2925 
L 4206 2925 
L 2681 4116 
L 1159 2925 
L 678 2925 
L 2375 4666 
L 2988 4666 
z
" transform="scale(0.015625)"/>
      <path id="DejaVuSerif-33" d="M 622 4469 
Q 988 4606 1323 4678 
Q 1659 4750 1953 4750 
Q 2638 4750 3022 4454 
Q 3406 4159 3406 3634 
Q 3406 3213 3140 2930 
Q 2875 2647 2388 2547 
Q 2963 2466 3280 2130 
Q 3597 1794 3597 1259 
Q 3597 606 3158 257 
Q 2719 -91 1894 -91 
Q 1528 -91 1179 -12 
Q 831 66 488 225 
L 488 1131 
L 838 1131 
Q 869 681 1141 450 
Q 1413 219 1906 219 
Q 2384 219 2661 495 
Q 2938 772 2938 1253 
Q 2938 1803 2653 2086 
Q 2369 2369 1819 2369 
L 1522 2369 
L 1522 2688 
L 1678 2688 
Q 2225 2688 2498 2914 
Q 2772 3141 2772 3597 
Q 2772 4006 2547 4223 
Q 2322 4441 1900 4441 
Q 1478 4441 1245 4241 
Q 1013 4041 972 3647 
L 622 3647 
L 622 4469 
z
" transform="scale(0.015625)"/>
      <path id="DejaVuSerif-35" d="M 3219 4666 
L 3219 4153 
L 1081 4153 
L 1081 2816 
Q 1244 2928 1461 2984 
Q 1678 3041 1947 3041 
Q 2703 3041 3140 2622 
Q 3578 2203 3578 1478 
Q 3578 738 3136 323 
Q 2694 -91 1894 -91 
Q 1572 -91 1234 -12 
Q 897 66 544 225 
L 544 1131 
L 897 1131 
Q 925 688 1179 453 
Q 1434 219 1894 219 
Q 2388 219 2653 544 
Q 2919 869 2919 1478 
Q 2919 2084 2655 2407 
Q 2391 2731 1894 2731 
Q 1613 2731 1398 2631 
Q 1184 2531 1019 2322 
L 750 2322 
L 750 4666 
L 3219 4666 
z
" transform="scale(0.015625)"/>
     </defs>
     <use xlink:href="#DejaVuSerif-5c"/>
     <use xlink:href="#DejaVuSerif-73" transform="translate(33.691406 0)"/>
     <use xlink:href="#DejaVuSerif-75" transform="translate(85.009766 0)"/>
     <use xlink:href="#DejaVuSerif-6d" transform="translate(149.414062 0)"/>
     <use xlink:href="#DejaVuSerif-5f" transform="translate(244.238281 0)"/>
     <use xlink:href="#DejaVuSerif-7b" transform="translate(294.238281 0)"/>
     <use xlink:href="#DejaVuSerif-28" transform="translate(357.861328 0)"/>
     <use xlink:href="#DejaVuSerif-61" transform="translate(396.875 0)"/>
     <use xlink:href="#DejaVuSerif-2c" transform="translate(456.494141 0)"/>
     <use xlink:href="#DejaVuSerif-62" transform="translate(488.28125 0)"/>
     <use xlink:href="#DejaVuSerif-2c" transform="translate(552.294922 0)"/>
     <use xlink:href="#DejaVuSerif-63" transform="translate(584.082031 0)"/>
     <use xlink:href="#DejaVuSerif-29" transform="translate(640.087891 0)"/>
     <use xlink:href="#DejaVuSerif-20" transform="translate(679.101562 0)"/>
     <use xlink:href="#DejaVuSerif-5c" transform="translate(710.888672 0)"/>
     <use xlink:href="#DejaVuSerif-69" transform="translate(744.580078 0)"/>
     <use xlink:href="#DejaVuSerif-6e" transform="translate(776.5625 0)"/>
     <use xlink:href="#DejaVuSerif-20" transform="translate(840.966797 0)"/>
     <use xlink:href="#DejaVuSerif-54" transform="translate(872.753906 0)"/>
     <use xlink:href="#DejaVuSerif-7d" transform="translate(939.453125 0)"/>
     <use xlink:href="#DejaVuSerif-20" transform="translate(1003.076172 0)"/>
     <use xlink:href="#DejaVuSerif-5c" transform="translate(1034.863281 0)"/>
     <use xlink:href="#DejaVuSerif-66" transform="translate(1068.554688 0)"/>
     <use xlink:href="#DejaVuSerif-72" transform="translate(1105.566406 0)"/>
     <use xlink:href="#DejaVuSerif-61" transform="translate(1153.369141 0)"/>
     <use xlink:href="#DejaVuSerif-63" transform="translate(1212.988281 0)"/>
     <use xlink:href="#DejaVuSerif-7b" transform="translate(1268.994141 0)"/>
     <use xlink:href="#DejaVuSerif-32" transform="translate(1332.617188 0)"/>
     <use xlink:href="#DejaVuSerif-5e" transform="translate(1396.240234 0)"/>
     <use xlink:href="#DejaVuSerif-61" transform="translate(1480.029297 0)"/>
     <use xlink:href="#DejaVuSerif-7d" transform="translate(1539.648438 0)"/>
     <use xlink:href="#DejaVuSerif-7b" transform="translate(1603.271484 0)"/>
     <use xlink:href="#DejaVuSerif-33" transform="translate(1666.894531 0)"/>
     <use xlink:href="#DejaVuSerif-5e" transform="translate(1730.517578 0)"/>
     <use xlink:href="#DejaVuSerif-62" transform="translate(1814.306641 0)"/>
     <use xlink:href="#DejaVuSerif-20" transform="translate(1878.320312 0)"/>
     <use xlink:href="#DejaVuSerif-35" transform="translate(1910.107422 0)"/>
     <use xlink:href="#DejaVuSerif-5e" transform="translate(1973.730469 0)"/>
     <use xlink:href="#DejaVuSerif-63" transform="translate(2057.519531 0)"/>
     <use xlink:href="#DejaVuSerif-7d" transform="translate(2113.525391 0)"/>
    </g>
    <!-- \] -->
    <g transform="translate(361.097813 131.368625) scale(0.12 -0.12)">
     <defs>
      <path id="DejaVuSerif-5d" d="M 1947 4863 
L 1947 -844 
L 494 -844 
L 494 -513 
L 1350 -513 
L 1350 4531 
L 494 4531 
L 494 4863 
L 1947 4863 
z
" transform="scale(0.015625)"/>
     </defs>
     <use xlink:href="#DejaVuSerif-5c"/>
     <use xlink:href="#DejaVuSerif-5d" transform="translate(33.691406 0)"/>
    </g>
    <!-- as a rational number in lowest terms. -->
    <g transform="translate(251.360625 144.806) scale(0.12 -0.12)">
     <use xlink:href="#DejaVuSerif-61"/>
     <use xlink:href="#DejaVuSerif-73" transform="translate(59.619141 0)"/>
     <use xlink:href="#DejaVuSerif-20" transform="translate(110.9375 0)"/>
     <use xlink:href="#DejaVuSerif-61" transform="translate(142.724609 0)"/>
     <use xlink:href="#DejaVuSerif-20" transform="translate(202.34375 0)"/>
     <use xlink:href="#DejaVuSerif-72" transform="translate(234.130859 0)"/>
     <use xlink:href="#DejaVuSerif-61" transform="translate(281.933594 0)"/>
     <use xlink:href="#DejaVuSerif-74" transform="translate(341.552734 0)"/>
     <use xlink:href="#DejaVuSerif-69" transform="translate(381.738281 0)"/>
     <use xlink:href="#DejaVuSerif-6f" transform="translate(413.720703 0)"/>
     <use xlink:href="#DejaVuSerif-6e" transform="translate(473.925781 0)"/>
     <use xlink:href="#DejaVuSerif-61" transform="translate(538.330078 0)"/>
     <use xlink:href="#DejaVuSerif-6c" transform="translate(597.949219 0)"/>
     <use xlink:href="#DejaVuSerif-20" transform="translate(629.931641 0)"/>
     <use xlink:href="#DejaVuSerif-6e" transform="translate(661.71875 0)"/>
     <use xlink:href="#DejaVuSerif-75" transform="translate(726.123047 0)"/>
     <use xlink:href="#DejaVuSerif-6d" transform="translate(790.527344 0)"/>
     <use xlink:href="#DejaVuSerif-62" transform="translate(885.351562 0)"/>
     <use xlink:href="#DejaVuSerif-65" transform="translate(949.365234 0)"/>
     <use xlink:href="#DejaVuSerif-72" transform="translate(1008.544922 0)"/>
     <use xlink:href="#DejaVuSerif-20" transform="translate(1056.347656 0)"/>
     <use xlink:href="#DejaVuSerif-69" transform="translate(1088.134766 0)"/>
     <use xlink:href="#DejaVuSerif-6e" transform="translate(1120.117188 0)"/>
     <use xlink:href="#DejaVuSerif-20" transform="translate(1184.521484 0)"/>
     <use xlink:href="#DejaVuSerif-6c" transform="translate(1216.308594 0)"/>
     <use xlink:href="#DejaVuSerif-6f" transform="translate(1248.291016 0)"/>
     <use xlink:href="#DejaVuSerif-77" transform="translate(1308.496094 0)"/>
     <use xlink:href="#DejaVuSerif-65" transform="translate(1394.091797 0)"/>
     <use xlink:href="#DejaVuSerif-73" transform="translate(1453.271484 0)"/>
     <use xlink:href="#DejaVuSerif-74" transform="translate(1504.589844 0)"/>
     <use xlink:href="#DejaVuSerif-20" transform="translate(1544.775391 0)"/>
     <use xlink:href="#DejaVuSerif-74" transform="translate(1576.5625 0)"/>
     <use xlink:href="#DejaVuSerif-65" transform="translate(1616.748047 0)"/>
     <use xlink:href="#DejaVuSerif-72" transform="translate(1675.927734 0)"/>
     <use xlink:href="#DejaVuSerif-6d" transform="translate(1723.730469 0)"/>
     <use xlink:href="#DejaVuSerif-73" transform="translate(1818.554688 0)"/>
     <use xlink:href="#DejaVuSerif-2e" transform="translate(1869.873047 0)"/>
    </g>
   </g>
  </g>
 </g>
</svg>
