<?xml version="1.0" encoding="utf-8" standalone="no"?>
<!DOCTYPE svg PUBLIC "-//W3C//DTD SVG 1.1//EN"
  "http://www.w3.org/Graphics/SVG/1.1/DTD/svg11.dtd">
<svg xmlns:xlink="http://www.w3.org/1999/xlink" width="2142pt" height="180.72pt" viewBox="0 0 2142 180.72" xmlns="http://www.w3.org/2000/svg" version="1.1">
 <metadata>
  <rdf:RDF xmlns:dc="http://purl.org/dc/elements/1.1/" xmlns:cc="http://creativecommons.org/ns#" xmlns:rdf="http://www.w3.org/1999/02/22-rdf-syntax-ns#">
   <cc:Work>
    <dc:type rdf:resource="http://purl.org/dc/dcmitype/StillImage"/>
    <dc:date>2025-05-29T18:44:06.657353</dc:date>
    <dc:format>image/svg+xml</dc:format>
    <dc:creator>
     <cc:Agent>
      <dc:title>Matplotlib v3.10.3, https://matplotlib.org/</dc:title>
     </cc:Agent>
    </dc:creator>
   </cc:Work>
  </rdf:RDF>
 </metadata>
 <defs>
  <style type="text/css">*{stroke-linejoin: round; stroke-linecap: butt}</style>
 </defs>
 <g id="figure_1">
  <g id="patch_1">
   <path d="M 0 180.72 
L 2142 180.72 
L 2142 0 
L 0 0 
z
" style="fill: #ffffff"/>
  </g>
  <g id="axes_1">
   <g id="text_1">
    <!-- Let $n$ be a positive integer, $n \geq 2$, and put $\theta = 2 \pi / n$. Define points $P_k = (k,0)$ in the $xy$-plane, for $k = 1, 2, \dots, n$. Let $R_k$ be the map that rotates the plane counterclockwise by the angle $\theta$ about the point $P_k$. Let $R$ denote the map obtained by applying, in order, $R_1$, then $R_2, \dots$, then $R_n$. For an arbitrary point $(x,y)$, find, and simplify, the coordinates of $R(x,y)$. -->
    <g transform="translate(7.2 93.42) scale(0.12 -0.12)">
     <defs>
      <path id="DejaVuSerif-4c" d="M 353 0 
L 353 331 
L 947 331 
L 947 4331 
L 353 4331 
L 353 4666 
L 2175 4666 
L 2175 4331 
L 1581 4331 
L 1581 384 
L 3713 384 
L 3713 1166 
L 4097 1166 
L 4097 0 
L 353 0 
z
" transform="scale(0.015625)"/>
      <path id="DejaVuSerif-65" d="M 3469 1600 
L 991 1600 
L 991 1575 
Q 991 903 1244 561 
Q 1497 219 1991 219 
Q 2369 219 2611 417 
Q 2853 616 2950 1006 
L 3413 1006 
Q 3275 459 2904 184 
Q 2534 -91 1931 -91 
Q 1203 -91 761 389 
Q 319 869 319 1663 
Q 319 2450 753 2931 
Q 1188 3413 1894 3413 
Q 2647 3413 3050 2948 
Q 3453 2484 3469 1600 
z
M 2791 1931 
Q 2772 2513 2545 2808 
Q 2319 3103 1894 3103 
Q 1497 3103 1269 2806 
Q 1041 2509 991 1931 
L 2791 1931 
z
" transform="scale(0.015625)"/>
      <path id="DejaVuSerif-74" d="M 691 2988 
L 184 2988 
L 184 3322 
L 691 3322 
L 691 4353 
L 1269 4353 
L 1269 3322 
L 2350 3322 
L 2350 2988 
L 1269 2988 
L 1269 878 
Q 1269 456 1350 337 
Q 1431 219 1650 219 
Q 1875 219 1978 351 
Q 2081 484 2088 781 
L 2522 781 
Q 2497 328 2275 118 
Q 2053 -91 1600 -91 
Q 1103 -91 897 129 
Q 691 350 691 878 
L 691 2988 
z
" transform="scale(0.015625)"/>
      <path id="DejaVuSerif-20" transform="scale(0.015625)"/>
      <path id="Cmmi10-6e" d="M 494 109 
Q 494 147 500 166 
L 978 2075 
Q 1025 2253 1025 2388 
Q 1025 2663 838 2663 
Q 638 2663 541 2423 
Q 444 2184 353 1819 
Q 353 1800 334 1789 
Q 316 1778 300 1778 
L 225 1778 
Q 203 1778 187 1801 
Q 172 1825 172 1844 
Q 241 2122 305 2315 
Q 369 2509 505 2668 
Q 641 2828 844 2828 
Q 1084 2828 1268 2676 
Q 1453 2525 1453 2291 
Q 1644 2541 1900 2684 
Q 2156 2828 2444 2828 
Q 2672 2828 2837 2750 
Q 3003 2672 3095 2514 
Q 3188 2356 3188 2138 
Q 3188 1875 3070 1503 
Q 2953 1131 2778 672 
Q 2688 463 2688 288 
Q 2688 97 2834 97 
Q 3084 97 3251 365 
Q 3419 634 3488 941 
Q 3500 978 3541 978 
L 3616 978 
Q 3641 978 3658 962 
Q 3675 947 3675 922 
Q 3675 916 3669 903 
Q 3581 541 3364 234 
Q 3147 -72 2822 -72 
Q 2597 -72 2437 83 
Q 2278 238 2278 459 
Q 2278 578 2328 709 
Q 2409 919 2514 1209 
Q 2619 1500 2686 1765 
Q 2753 2031 2753 2234 
Q 2753 2413 2679 2538 
Q 2606 2663 2431 2663 
Q 2197 2663 2000 2559 
Q 1803 2456 1656 2286 
Q 1509 2116 1388 1881 
L 953 141 
Q 931 53 854 -9 
Q 778 -72 684 -72 
Q 606 -72 550 -22 
Q 494 28 494 109 
z
" transform="scale(0.015625)"/>
      <path id="DejaVuSerif-62" d="M 738 331 
L 738 4531 
L 184 4531 
L 184 4863 
L 1313 4863 
L 1313 2803 
Q 1481 3116 1742 3264 
Q 2003 3413 2388 3413 
Q 3000 3413 3387 2928 
Q 3775 2444 3775 1663 
Q 3775 881 3387 395 
Q 3000 -91 2388 -91 
Q 2003 -91 1742 57 
Q 1481 206 1313 519 
L 1313 0 
L 184 0 
L 184 331 
L 738 331 
z
M 1313 1497 
Q 1313 897 1542 583 
Q 1772 269 2209 269 
Q 2650 269 2876 622 
Q 3103 975 3103 1663 
Q 3103 2353 2876 2703 
Q 2650 3053 2209 3053 
Q 1772 3053 1542 2737 
Q 1313 2422 1313 1825 
L 1313 1497 
z
" transform="scale(0.015625)"/>
      <path id="DejaVuSerif-61" d="M 2547 1044 
L 2547 1747 
L 1806 1747 
Q 1378 1747 1168 1562 
Q 959 1378 959 997 
Q 959 650 1171 447 
Q 1384 244 1747 244 
Q 2106 244 2326 466 
Q 2547 688 2547 1044 
z
M 3122 2075 
L 3122 331 
L 3634 331 
L 3634 0 
L 2547 0 
L 2547 359 
Q 2356 128 2106 18 
Q 1856 -91 1522 -91 
Q 969 -91 644 203 
Q 319 497 319 997 
Q 319 1513 691 1797 
Q 1063 2081 1741 2081 
L 2547 2081 
L 2547 2309 
Q 2547 2688 2317 2895 
Q 2088 3103 1672 3103 
Q 1328 3103 1125 2947 
Q 922 2791 872 2484 
L 575 2484 
L 575 3156 
Q 875 3284 1158 3348 
Q 1441 3413 1709 3413 
Q 2400 3413 2761 3070 
Q 3122 2728 3122 2075 
z
" transform="scale(0.015625)"/>
      <path id="DejaVuSerif-70" d="M 1313 1825 
L 1313 1497 
Q 1313 897 1542 583 
Q 1772 269 2209 269 
Q 2650 269 2876 622 
Q 3103 975 3103 1663 
Q 3103 2353 2876 2703 
Q 2650 3053 2209 3053 
Q 1772 3053 1542 2737 
Q 1313 2422 1313 1825 
z
M 738 2988 
L 184 2988 
L 184 3322 
L 1313 3322 
L 1313 2803 
Q 1481 3116 1742 3264 
Q 2003 3413 2388 3413 
Q 3000 3413 3387 2928 
Q 3775 2444 3775 1663 
Q 3775 881 3387 395 
Q 3000 -91 2388 -91 
Q 2003 -91 1742 57 
Q 1481 206 1313 519 
L 1313 -997 
L 1856 -997 
L 1856 -1331 
L 184 -1331 
L 184 -997 
L 738 -997 
L 738 2988 
z
" transform="scale(0.015625)"/>
      <path id="DejaVuSerif-6f" d="M 1925 219 
Q 2388 219 2623 584 
Q 2859 950 2859 1663 
Q 2859 2375 2623 2739 
Q 2388 3103 1925 3103 
Q 1463 3103 1227 2739 
Q 991 2375 991 1663 
Q 991 950 1228 584 
Q 1466 219 1925 219 
z
M 1925 -91 
Q 1200 -91 759 389 
Q 319 869 319 1663 
Q 319 2456 758 2934 
Q 1197 3413 1925 3413 
Q 2653 3413 3092 2934 
Q 3531 2456 3531 1663 
Q 3531 869 3092 389 
Q 2653 -91 1925 -91 
z
" transform="scale(0.015625)"/>
      <path id="DejaVuSerif-73" d="M 359 184 
L 359 959 
L 691 959 
Q 703 588 923 403 
Q 1144 219 1575 219 
Q 1963 219 2166 364 
Q 2369 509 2369 788 
Q 2369 1006 2220 1140 
Q 2072 1275 1594 1428 
L 1178 1569 
Q 750 1706 558 1912 
Q 366 2119 366 2438 
Q 366 2894 700 3153 
Q 1034 3413 1625 3413 
Q 1888 3413 2178 3344 
Q 2469 3275 2778 3144 
L 2778 2419 
L 2447 2419 
Q 2434 2741 2221 2922 
Q 2009 3103 1644 3103 
Q 1281 3103 1095 2975 
Q 909 2847 909 2591 
Q 909 2381 1050 2254 
Q 1191 2128 1613 1997 
L 2069 1856 
Q 2541 1709 2748 1489 
Q 2956 1269 2956 922 
Q 2956 450 2595 179 
Q 2234 -91 1600 -91 
Q 1278 -91 972 -22 
Q 666 47 359 184 
z
" transform="scale(0.015625)"/>
      <path id="DejaVuSerif-69" d="M 622 4353 
Q 622 4497 726 4603 
Q 831 4709 978 4709 
Q 1122 4709 1226 4603 
Q 1331 4497 1331 4353 
Q 1331 4206 1228 4103 
Q 1125 4000 978 4000 
Q 831 4000 726 4103 
Q 622 4206 622 4353 
z
M 1356 331 
L 1900 331 
L 1900 0 
L 231 0 
L 231 331 
L 781 331 
L 781 2988 
L 231 2988 
L 231 3322 
L 1356 3322 
L 1356 331 
z
" transform="scale(0.015625)"/>
      <path id="DejaVuSerif-76" d="M 1581 0 
L 359 2988 
L -19 2988 
L -19 3322 
L 1509 3322 
L 1509 2988 
L 978 2988 
L 1913 703 
L 2847 2988 
L 2350 2988 
L 2350 3322 
L 3597 3322 
L 3597 2988 
L 3225 2988 
L 2003 0 
L 1581 0 
z
" transform="scale(0.015625)"/>
      <path id="DejaVuSerif-6e" d="M 263 0 
L 263 331 
L 781 331 
L 781 2988 
L 231 2988 
L 231 3322 
L 1356 3322 
L 1356 2731 
Q 1516 3069 1770 3241 
Q 2025 3413 2363 3413 
Q 2913 3413 3172 3097 
Q 3431 2781 3431 2113 
L 3431 331 
L 3944 331 
L 3944 0 
L 2356 0 
L 2356 331 
L 2853 331 
L 2853 1931 
Q 2853 2541 2703 2767 
Q 2553 2994 2175 2994 
Q 1775 2994 1565 2701 
Q 1356 2409 1356 1850 
L 1356 331 
L 1856 331 
L 1856 0 
L 263 0 
z
" transform="scale(0.015625)"/>
      <path id="DejaVuSerif-67" d="M 3359 2988 
L 3359 72 
Q 3359 -644 2965 -1033 
Q 2572 -1422 1844 -1422 
Q 1516 -1422 1216 -1362 
Q 916 -1303 641 -1184 
L 641 -488 
L 941 -488 
Q 997 -813 1206 -963 
Q 1416 -1113 1806 -1113 
Q 2313 -1113 2548 -827 
Q 2784 -541 2784 72 
L 2784 519 
Q 2616 206 2355 57 
Q 2094 -91 1709 -91 
Q 1097 -91 708 395 
Q 319 881 319 1663 
Q 319 2444 706 2928 
Q 1094 3413 1709 3413 
Q 2094 3413 2355 3264 
Q 2616 3116 2784 2803 
L 2784 3322 
L 3909 3322 
L 3909 2988 
L 3359 2988 
z
M 2784 1825 
Q 2784 2422 2554 2737 
Q 2325 3053 1888 3053 
Q 1444 3053 1217 2703 
Q 991 2353 991 1663 
Q 991 975 1217 622 
Q 1444 269 1888 269 
Q 2325 269 2554 583 
Q 2784 897 2784 1497 
L 2784 1825 
z
" transform="scale(0.015625)"/>
      <path id="DejaVuSerif-72" d="M 3059 3328 
L 3059 2497 
L 2728 2497 
Q 2713 2744 2591 2866 
Q 2469 2988 2234 2988 
Q 1809 2988 1582 2694 
Q 1356 2400 1356 1850 
L 1356 331 
L 2022 331 
L 2022 0 
L 263 0 
L 263 331 
L 781 331 
L 781 2994 
L 231 2994 
L 231 3322 
L 1356 3322 
L 1356 2731 
Q 1525 3078 1790 3245 
Q 2056 3413 2438 3413 
Q 2578 3413 2733 3391 
Q 2888 3369 3059 3328 
z
" transform="scale(0.015625)"/>
      <path id="DejaVuSerif-2c" d="M 231 -622 
Q 525 -406 662 -114 
Q 800 178 800 594 
L 800 709 
L 1416 709 
Q 1391 175 1164 -208 
Q 938 -591 481 -872 
L 231 -622 
z
" transform="scale(0.015625)"/>
      <path id="Cmsy10-b8" d="M 653 -878 
Q 600 -878 565 -837 
Q 531 -797 531 -750 
Q 531 -697 565 -659 
Q 600 -622 653 -622 
L 4325 -622 
Q 4375 -622 4408 -659 
Q 4441 -697 4441 -750 
Q 4441 -797 4408 -837 
Q 4375 -878 4325 -878 
L 653 -878 
z
M 531 494 
Q 531 572 616 616 
L 4013 2222 
L 594 3834 
Q 531 3863 531 3944 
Q 531 3991 568 4031 
Q 606 4072 659 4072 
Q 691 4072 709 4063 
L 4384 2328 
Q 4441 2300 4441 2222 
Q 4441 2144 4366 2100 
L 709 378 
Q 691 366 659 366 
Q 606 366 568 403 
Q 531 441 531 494 
z
" transform="scale(0.015625)"/>
      <path id="Cmr10-32" d="M 319 0 
L 319 172 
Q 319 188 331 206 
L 1325 1306 
Q 1550 1550 1690 1715 
Q 1831 1881 1968 2097 
Q 2106 2313 2186 2536 
Q 2266 2759 2266 3009 
Q 2266 3272 2169 3511 
Q 2072 3750 1880 3894 
Q 1688 4038 1416 4038 
Q 1138 4038 916 3870 
Q 694 3703 603 3438 
Q 628 3444 672 3444 
Q 816 3444 917 3347 
Q 1019 3250 1019 3097 
Q 1019 2950 917 2848 
Q 816 2747 672 2747 
Q 522 2747 420 2851 
Q 319 2956 319 3097 
Q 319 3338 409 3548 
Q 500 3759 670 3923 
Q 841 4088 1055 4175 
Q 1269 4263 1509 4263 
Q 1875 4263 2190 4108 
Q 2506 3953 2690 3670 
Q 2875 3388 2875 3009 
Q 2875 2731 2753 2481 
Q 2631 2231 2440 2026 
Q 2250 1822 1953 1562 
Q 1656 1303 1563 1216 
L 838 519 
L 1453 519 
Q 1906 519 2211 526 
Q 2516 534 2534 550 
Q 2609 631 2688 1141 
L 2875 1141 
L 2694 0 
L 319 0 
z
" transform="scale(0.015625)"/>
      <path id="DejaVuSerif-64" d="M 3359 331 
L 3909 331 
L 3909 0 
L 2784 0 
L 2784 519 
Q 2616 206 2355 57 
Q 2094 -91 1709 -91 
Q 1097 -91 708 395 
Q 319 881 319 1663 
Q 319 2444 706 2928 
Q 1094 3413 1709 3413 
Q 2094 3413 2355 3264 
Q 2616 3116 2784 2803 
L 2784 4531 
L 2241 4531 
L 2241 4863 
L 3359 4863 
L 3359 331 
z
M 2784 1497 
L 2784 1825 
Q 2784 2422 2554 2737 
Q 2325 3053 1888 3053 
Q 1444 3053 1217 2703 
Q 991 2353 991 1663 
Q 991 975 1217 622 
Q 1444 269 1888 269 
Q 2325 269 2554 583 
Q 2784 897 2784 1497 
z
" transform="scale(0.015625)"/>
      <path id="DejaVuSerif-75" d="M 2266 3322 
L 3341 3322 
L 3341 331 
L 3884 331 
L 3884 0 
L 2766 0 
L 2766 588 
Q 2606 256 2353 82 
Q 2100 -91 1766 -91 
Q 1213 -91 952 223 
Q 691 538 691 1209 
L 691 2988 
L 172 2988 
L 172 3322 
L 1269 3322 
L 1269 1388 
Q 1269 781 1417 556 
Q 1566 331 1947 331 
Q 2347 331 2556 625 
Q 2766 919 2766 1478 
L 2766 2988 
L 2266 2988 
L 2266 3322 
z
" transform="scale(0.015625)"/>
      <path id="Cmmi10-b5" d="M 1031 -72 
Q 741 -72 566 140 
Q 391 353 323 653 
Q 256 953 256 1247 
L 256 1253 
Q 256 1572 317 1915 
Q 378 2259 493 2601 
Q 609 2944 744 3213 
Q 838 3400 986 3631 
Q 1134 3863 1317 4064 
Q 1500 4266 1711 4389 
Q 1922 4513 2138 4513 
L 2144 4513 
Q 2375 4513 2529 4384 
Q 2684 4256 2770 4056 
Q 2856 3856 2890 3628 
Q 2925 3400 2925 3194 
Q 2925 2709 2794 2204 
Q 2663 1700 2431 1228 
Q 2344 1050 2189 809 
Q 2034 569 1861 378 
Q 1688 188 1472 58 
Q 1256 -72 1038 -72 
L 1031 -72 
z
M 1044 97 
Q 1256 97 1451 323 
Q 1647 550 1794 873 
Q 1941 1197 2052 1536 
Q 2163 1875 2216 2113 
L 909 2113 
Q 809 1709 753 1417 
Q 697 1125 697 844 
Q 697 97 1044 97 
z
M 959 2338 
L 2272 2338 
Q 2341 2619 2381 2808 
Q 2422 2997 2450 3206 
Q 2478 3416 2478 3597 
Q 2478 4347 2138 4347 
Q 1731 4347 1436 3692 
Q 1141 3038 959 2338 
z
" transform="scale(0.015625)"/>
      <path id="Cmr10-3d" d="M 481 850 
Q 428 850 393 890 
Q 359 931 359 978 
Q 359 1031 393 1068 
Q 428 1106 481 1106 
L 4500 1106 
Q 4547 1106 4581 1068 
Q 4616 1031 4616 978 
Q 4616 931 4581 890 
Q 4547 850 4500 850 
L 481 850 
z
M 481 2094 
Q 428 2094 393 2131 
Q 359 2169 359 2222 
Q 359 2269 393 2309 
Q 428 2350 481 2350 
L 4500 2350 
Q 4547 2350 4581 2309 
Q 4616 2269 4616 2222 
Q 4616 2169 4581 2131 
Q 4547 2094 4500 2094 
L 481 2094 
z
" transform="scale(0.015625)"/>
      <path id="Cmmi10-bc" d="M 647 109 
Q 647 144 672 213 
Q 850 584 1004 942 
Q 1159 1300 1282 1639 
Q 1406 1978 1509 2363 
L 1100 2363 
Q 866 2363 662 2216 
Q 459 2069 325 1844 
Q 313 1819 288 1819 
L 213 1819 
Q 153 1819 153 1881 
Q 153 1894 166 1919 
Q 375 2275 614 2517 
Q 853 2759 1153 2759 
L 3475 2759 
Q 3541 2759 3587 2715 
Q 3634 2672 3634 2597 
Q 3634 2503 3567 2433 
Q 3500 2363 3406 2363 
L 2591 2363 
Q 2488 1859 2478 1381 
Q 2478 766 2694 269 
Q 2713 231 2713 191 
Q 2713 122 2672 62 
Q 2631 3 2567 -34 
Q 2503 -72 2431 -72 
Q 2263 -72 2200 203 
Q 2138 478 2138 738 
Q 2138 1103 2200 1442 
Q 2263 1781 2400 2363 
L 1703 2363 
Q 1197 313 1094 103 
Q 1003 -72 844 -72 
Q 766 -72 706 -20 
Q 647 31 647 109 
z
" transform="scale(0.015625)"/>
      <path id="Cmmi10-3d" d="M 359 -1472 
Q 359 -1453 366 -1447 
L 2591 4722 
Q 2603 4759 2634 4779 
Q 2666 4800 2706 4800 
Q 2763 4800 2798 4765 
Q 2834 4731 2834 4672 
L 2834 4647 
L 609 -1522 
Q 572 -1600 488 -1600 
Q 434 -1600 396 -1562 
Q 359 -1525 359 -1472 
z
" transform="scale(0.015625)"/>
      <path id="DejaVuSerif-2e" d="M 603 325 
Q 603 500 722 622 
Q 841 744 1019 744 
Q 1191 744 1312 622 
Q 1434 500 1434 325 
Q 1434 153 1312 31 
Q 1191 -91 1019 -91 
Q 841 -91 722 29 
Q 603 150 603 325 
z
" transform="scale(0.015625)"/>
      <path id="DejaVuSerif-44" d="M 1581 331 
L 2163 331 
Q 3072 331 3558 850 
Q 4044 1369 4044 2338 
Q 4044 3306 3559 3818 
Q 3075 4331 2163 4331 
L 1581 4331 
L 1581 331 
z
M 353 0 
L 353 331 
L 947 331 
L 947 4331 
L 353 4331 
L 353 4666 
L 2209 4666 
Q 3416 4666 4089 4050 
Q 4763 3434 4763 2338 
Q 4763 1238 4088 619 
Q 3413 0 2209 0 
L 353 0 
z
" transform="scale(0.015625)"/>
      <path id="DejaVuSerif-66" d="M 2753 4078 
L 2450 4078 
Q 2447 4313 2317 4434 
Q 2188 4556 1941 4556 
Q 1619 4556 1487 4379 
Q 1356 4203 1356 3750 
L 1356 3322 
L 2284 3322 
L 2284 2988 
L 1356 2988 
L 1356 331 
L 2094 331 
L 2094 0 
L 231 0 
L 231 331 
L 781 331 
L 781 2988 
L 231 2988 
L 231 3322 
L 781 3322 
L 781 3738 
Q 781 4294 1070 4578 
Q 1359 4863 1919 4863 
Q 2128 4863 2337 4825 
Q 2547 4788 2753 4709 
L 2753 4078 
z
" transform="scale(0.015625)"/>
      <path id="Cmmi10-50" d="M 313 0 
Q 250 0 250 84 
Q 253 100 262 139 
Q 272 178 289 201 
Q 306 225 331 225 
Q 722 225 878 269 
Q 959 297 997 441 
L 1875 3956 
Q 1888 4019 1888 4044 
Q 1888 4113 1813 4122 
Q 1691 4147 1350 4147 
Q 1288 4147 1288 4231 
Q 1291 4247 1300 4286 
Q 1309 4325 1326 4348 
Q 1344 4372 1369 4372 
L 3578 4372 
Q 3881 4372 4165 4264 
Q 4450 4156 4631 3934 
Q 4813 3713 4813 3397 
Q 4813 2991 4527 2672 
Q 4241 2353 3814 2175 
Q 3388 1997 2988 1997 
L 1947 1997 
L 1556 416 
Q 1544 353 1544 325 
Q 1544 300 1551 283 
Q 1559 266 1573 261 
Q 1588 256 1619 250 
Q 1741 225 2081 225 
Q 2144 225 2144 141 
Q 2122 50 2109 25 
Q 2097 0 2034 0 
L 313 0 
z
M 1978 2188 
L 2875 2188 
Q 3497 2188 3822 2522 
Q 3988 2688 4092 3000 
Q 4197 3313 4197 3566 
Q 4197 3881 3956 4014 
Q 3716 4147 3359 4147 
L 2747 4147 
Q 2572 4147 2515 4117 
Q 2459 4088 2413 3928 
L 1978 2188 
z
" transform="scale(0.015625)"/>
      <path id="Cmmi10-6b" d="M 341 116 
Q 341 153 347 172 
L 1275 3872 
Q 1300 3981 1306 4044 
Q 1306 4147 891 4147 
Q 825 4147 825 4231 
Q 828 4247 839 4287 
Q 850 4328 867 4350 
Q 884 4372 916 4372 
L 1778 4441 
L 1797 4441 
Q 1797 4434 1819 4423 
Q 1841 4413 1844 4409 
Q 1856 4378 1856 4359 
L 1184 1684 
Q 1416 1781 1767 2145 
Q 2119 2509 2317 2668 
Q 2516 2828 2816 2828 
Q 2994 2828 3119 2706 
Q 3244 2584 3244 2406 
Q 3244 2294 3197 2198 
Q 3150 2103 3065 2043 
Q 2981 1984 2869 1984 
Q 2766 1984 2695 2048 
Q 2625 2113 2625 2216 
Q 2625 2369 2733 2473 
Q 2841 2578 2994 2578 
Q 2931 2663 2803 2663 
Q 2613 2663 2436 2553 
Q 2259 2444 2054 2239 
Q 1850 2034 1681 1864 
Q 1513 1694 1369 1606 
Q 1747 1563 2025 1408 
Q 2303 1253 2303 934 
Q 2303 869 2278 769 
Q 2222 528 2222 384 
Q 2222 97 2419 97 
Q 2650 97 2770 350 
Q 2891 603 2969 941 
Q 2981 978 3022 978 
L 3097 978 
Q 3122 978 3139 962 
Q 3156 947 3156 922 
Q 3156 916 3150 903 
Q 2909 -72 2406 -72 
Q 2225 -72 2086 12 
Q 1947 97 1872 242 
Q 1797 388 1797 569 
Q 1797 672 1825 781 
Q 1844 856 1844 922 
Q 1844 1169 1625 1297 
Q 1406 1425 1125 1453 
L 800 147 
Q 775 50 703 -11 
Q 631 -72 538 -72 
Q 456 -72 398 -17 
Q 341 38 341 116 
z
" transform="scale(0.015625)"/>
      <path id="Cmr10-28" d="M 1984 -1588 
Q 1628 -1306 1370 -942 
Q 1113 -578 948 -165 
Q 784 247 703 697 
Q 622 1147 622 1600 
Q 622 2059 703 2509 
Q 784 2959 951 3375 
Q 1119 3791 1378 4153 
Q 1638 4516 1984 4788 
Q 1984 4800 2016 4800 
L 2075 4800 
Q 2094 4800 2109 4783 
Q 2125 4766 2125 4744 
Q 2125 4716 2113 4703 
Q 1800 4397 1592 4047 
Q 1384 3697 1257 3301 
Q 1131 2906 1075 2482 
Q 1019 2059 1019 1600 
Q 1019 -434 2106 -1491 
Q 2125 -1509 2125 -1544 
Q 2125 -1559 2108 -1579 
Q 2091 -1600 2075 -1600 
L 2016 -1600 
Q 1984 -1600 1984 -1588 
z
" transform="scale(0.015625)"/>
      <path id="Cmmi10-3b" d="M 634 -1153 
Q 634 -1125 659 -1100 
Q 891 -878 1019 -587 
Q 1147 -297 1147 25 
L 1147 103 
Q 1044 0 891 0 
Q 744 0 641 103 
Q 538 206 538 353 
Q 538 503 641 603 
Q 744 703 891 703 
Q 1119 703 1216 492 
Q 1313 281 1313 25 
Q 1313 -331 1170 -651 
Q 1028 -972 769 -1228 
Q 744 -1241 728 -1241 
Q 697 -1241 665 -1212 
Q 634 -1184 634 -1153 
z
" transform="scale(0.015625)"/>
      <path id="Cmr10-30" d="M 1600 -141 
Q 816 -141 533 504 
Q 250 1150 250 2041 
Q 250 2597 351 3087 
Q 453 3578 754 3920 
Q 1056 4263 1600 4263 
Q 2022 4263 2290 4056 
Q 2559 3850 2700 3523 
Q 2841 3197 2892 2823 
Q 2944 2450 2944 2041 
Q 2944 1491 2842 1011 
Q 2741 531 2444 195 
Q 2147 -141 1600 -141 
z
M 1600 25 
Q 1956 25 2131 390 
Q 2306 756 2347 1200 
Q 2388 1644 2388 2144 
Q 2388 2625 2347 3031 
Q 2306 3438 2132 3767 
Q 1959 4097 1600 4097 
Q 1238 4097 1063 3765 
Q 888 3434 847 3029 
Q 806 2625 806 2144 
Q 806 1788 823 1472 
Q 841 1156 916 820 
Q 991 484 1158 254 
Q 1325 25 1600 25 
z
" transform="scale(0.015625)"/>
      <path id="Cmr10-29" d="M 416 -1600 
Q 359 -1600 359 -1544 
Q 359 -1516 372 -1503 
Q 1466 -434 1466 1600 
Q 1466 3634 384 4691 
Q 359 4706 359 4744 
Q 359 4766 376 4783 
Q 394 4800 416 4800 
L 475 4800 
Q 494 4800 506 4788 
Q 966 4425 1272 3906 
Q 1578 3388 1720 2800 
Q 1863 2213 1863 1600 
Q 1863 1147 1786 708 
Q 1709 269 1542 -157 
Q 1375 -584 1119 -945 
Q 863 -1306 506 -1588 
Q 494 -1600 475 -1600 
L 416 -1600 
z
" transform="scale(0.015625)"/>
      <path id="DejaVuSerif-68" d="M 263 0 
L 263 331 
L 781 331 
L 781 4531 
L 231 4531 
L 231 4863 
L 1356 4863 
L 1356 2731 
Q 1516 3069 1770 3241 
Q 2025 3413 2363 3413 
Q 2913 3413 3172 3097 
Q 3431 2781 3431 2113 
L 3431 331 
L 3944 331 
L 3944 0 
L 2356 0 
L 2356 331 
L 2853 331 
L 2853 1931 
Q 2853 2541 2704 2764 
Q 2556 2988 2175 2988 
Q 1775 2988 1565 2697 
Q 1356 2406 1356 1850 
L 1356 331 
L 1856 331 
L 1856 0 
L 263 0 
z
" transform="scale(0.015625)"/>
      <path id="Cmmi10-78" d="M 500 184 
Q 613 97 819 97 
Q 1019 97 1172 289 
Q 1325 481 1381 709 
L 1672 1844 
Q 1741 2153 1741 2266 
Q 1741 2425 1652 2544 
Q 1563 2663 1403 2663 
Q 1200 2663 1022 2536 
Q 844 2409 722 2214 
Q 600 2019 550 1819 
Q 538 1778 500 1778 
L 422 1778 
Q 372 1778 372 1838 
L 372 1856 
Q 434 2094 584 2320 
Q 734 2547 951 2687 
Q 1169 2828 1416 2828 
Q 1650 2828 1839 2703 
Q 2028 2578 2106 2363 
Q 2216 2559 2386 2693 
Q 2556 2828 2759 2828 
Q 2897 2828 3040 2779 
Q 3184 2731 3275 2631 
Q 3366 2531 3366 2381 
Q 3366 2219 3261 2101 
Q 3156 1984 2994 1984 
Q 2891 1984 2822 2050 
Q 2753 2116 2753 2216 
Q 2753 2350 2845 2451 
Q 2938 2553 3066 2572 
Q 2950 2663 2747 2663 
Q 2541 2663 2389 2472 
Q 2238 2281 2175 2047 
L 1894 916 
Q 1825 659 1825 494 
Q 1825 331 1917 214 
Q 2009 97 2163 97 
Q 2463 97 2698 361 
Q 2934 625 3009 941 
Q 3022 978 3059 978 
L 3138 978 
Q 3163 978 3178 961 
Q 3194 944 3194 922 
Q 3194 916 3188 903 
Q 3097 522 2806 225 
Q 2516 -72 2150 -72 
Q 1916 -72 1727 54 
Q 1538 181 1459 397 
Q 1359 209 1182 68 
Q 1006 -72 806 -72 
Q 669 -72 523 -23 
Q 378 25 287 125 
Q 197 225 197 378 
Q 197 528 301 651 
Q 406 775 563 775 
Q 669 775 741 711 
Q 813 647 813 544 
Q 813 409 723 309 
Q 634 209 500 184 
z
" transform="scale(0.015625)"/>
      <path id="Cmmi10-79" d="M 538 -916 
Q 672 -1147 1006 -1147 
Q 1309 -1147 1531 -934 
Q 1753 -722 1889 -420 
Q 2025 -119 2100 197 
Q 1816 -72 1484 -72 
Q 1231 -72 1053 15 
Q 875 103 776 276 
Q 678 450 678 697 
Q 678 906 734 1126 
Q 791 1347 892 1617 
Q 994 1888 1069 2088 
Q 1153 2322 1153 2472 
Q 1153 2663 1013 2663 
Q 759 2663 595 2402 
Q 431 2141 353 1819 
Q 341 1778 300 1778 
L 225 1778 
Q 172 1778 172 1838 
L 172 1856 
Q 275 2238 487 2533 
Q 700 2828 1025 2828 
Q 1253 2828 1411 2678 
Q 1569 2528 1569 2297 
Q 1569 2178 1516 2047 
Q 1488 1969 1388 1706 
Q 1288 1444 1234 1272 
Q 1181 1100 1147 934 
Q 1113 769 1113 603 
Q 1113 391 1203 244 
Q 1294 97 1491 97 
Q 1888 97 2203 581 
L 2688 2553 
Q 2709 2638 2787 2698 
Q 2866 2759 2956 2759 
Q 3034 2759 3092 2709 
Q 3150 2659 3150 2578 
Q 3150 2541 3144 2528 
L 2509 -19 
Q 2425 -347 2200 -647 
Q 1975 -947 1658 -1130 
Q 1341 -1313 997 -1313 
Q 831 -1313 668 -1248 
Q 506 -1184 406 -1056 
Q 306 -928 306 -756 
Q 306 -581 409 -453 
Q 513 -325 684 -325 
Q 788 -325 858 -389 
Q 928 -453 928 -556 
Q 928 -703 818 -812 
Q 709 -922 563 -922 
Q 556 -919 550 -917 
Q 544 -916 538 -916 
z
" transform="scale(0.015625)"/>
      <path id="DejaVuSerif-2d" d="M 281 1959 
L 1881 1959 
L 1881 1472 
L 281 1472 
L 281 1959 
z
" transform="scale(0.015625)"/>
      <path id="DejaVuSerif-6c" d="M 1313 331 
L 1856 331 
L 1856 0 
L 184 0 
L 184 331 
L 738 331 
L 738 4531 
L 184 4531 
L 184 4863 
L 1313 4863 
L 1313 331 
z
" transform="scale(0.015625)"/>
      <path id="Cmr10-31" d="M 594 0 
L 594 225 
Q 1394 225 1394 428 
L 1394 3788 
Q 1063 3628 556 3628 
L 556 3853 
Q 1341 3853 1741 4263 
L 1831 4263 
Q 1853 4263 1873 4245 
Q 1894 4228 1894 4206 
L 1894 428 
Q 1894 225 2694 225 
L 2694 0 
L 594 0 
z
" transform="scale(0.015625)"/>
      <path id="STIXGeneral-Regular-2026" d="M 5683 275 
Q 5683 134 5577 32 
Q 5472 -70 5325 -70 
Q 5178 -70 5075 32 
Q 4973 134 4973 281 
Q 4973 429 5078 534 
Q 5184 640 5331 640 
Q 5472 640 5577 531 
Q 5683 422 5683 275 
z
M 3552 275 
Q 3552 134 3446 32 
Q 3341 -70 3193 -70 
Q 3046 -70 2944 32 
Q 2842 134 2842 281 
Q 2842 429 2947 534 
Q 3053 640 3200 640 
Q 3341 640 3446 531 
Q 3552 422 3552 275 
z
M 1421 275 
Q 1421 134 1315 32 
Q 1210 -70 1062 -70 
Q 915 -70 812 32 
Q 710 134 710 281 
Q 710 429 816 534 
Q 922 640 1069 640 
Q 1210 640 1315 531 
Q 1421 422 1421 275 
z
" transform="scale(0.015625)"/>
      <path id="Cmmi10-52" d="M 313 0 
Q 250 0 250 84 
Q 253 100 262 139 
Q 272 178 289 201 
Q 306 225 331 225 
Q 722 225 878 269 
Q 959 297 997 441 
L 1875 3956 
Q 1888 4019 1888 4044 
Q 1888 4113 1813 4122 
Q 1691 4147 1350 4147 
Q 1288 4147 1288 4231 
Q 1291 4247 1300 4286 
Q 1309 4325 1326 4348 
Q 1344 4372 1369 4372 
L 3309 4372 
Q 3541 4372 3791 4319 
Q 4041 4266 4250 4152 
Q 4459 4038 4593 3848 
Q 4728 3659 4728 3406 
Q 4728 3084 4515 2831 
Q 4303 2578 3978 2408 
Q 3653 2238 3347 2169 
Q 3597 2078 3756 1879 
Q 3916 1681 3916 1422 
Q 3916 1388 3914 1370 
Q 3913 1353 3909 1331 
L 3859 763 
Q 3853 638 3847 550 
Q 3841 463 3841 409 
Q 3841 234 3892 129 
Q 3944 25 4097 25 
Q 4297 25 4448 211 
Q 4600 397 4647 616 
Q 4675 672 4709 672 
L 4769 672 
Q 4831 672 4831 588 
Q 4784 403 4682 237 
Q 4581 72 4426 -34 
Q 4272 -141 4091 -141 
Q 3716 -141 3452 26 
Q 3188 194 3188 550 
Q 3188 684 3213 788 
L 3353 1356 
Q 3378 1434 3378 1538 
Q 3378 1803 3198 1954 
Q 3019 2106 2747 2106 
L 1959 2106 
L 1538 416 
Q 1522 363 1522 325 
Q 1522 259 1600 250 
Q 1722 225 2059 225 
Q 2125 225 2125 141 
Q 2103 50 2090 25 
Q 2078 0 2016 0 
L 313 0 
z
M 1997 2272 
L 2706 2272 
Q 3403 2272 3756 2625 
Q 3919 2788 4014 3039 
Q 4109 3291 4109 3541 
Q 4109 3778 3970 3912 
Q 3831 4047 3626 4097 
Q 3422 4147 3175 4147 
L 2747 4147 
Q 2572 4147 2515 4117 
Q 2459 4088 2413 3928 
L 1997 2272 
z
" transform="scale(0.015625)"/>
      <path id="DejaVuSerif-6d" d="M 3316 2675 
Q 3481 3041 3739 3227 
Q 3997 3413 4341 3413 
Q 4863 3413 5119 3089 
Q 5375 2766 5375 2113 
L 5375 331 
L 5894 331 
L 5894 0 
L 4300 0 
L 4300 331 
L 4800 331 
L 4800 2047 
Q 4800 2556 4650 2772 
Q 4500 2988 4153 2988 
Q 3769 2988 3567 2697 
Q 3366 2406 3366 1850 
L 3366 331 
L 3866 331 
L 3866 0 
L 2291 0 
L 2291 331 
L 2791 331 
L 2791 2069 
Q 2791 2566 2641 2777 
Q 2491 2988 2144 2988 
Q 1759 2988 1557 2697 
Q 1356 2406 1356 1850 
L 1356 331 
L 1856 331 
L 1856 0 
L 263 0 
L 263 331 
L 781 331 
L 781 2994 
L 231 2994 
L 231 3322 
L 1356 3322 
L 1356 2731 
Q 1516 3063 1762 3238 
Q 2009 3413 2322 3413 
Q 2709 3413 2968 3220 
Q 3228 3028 3316 2675 
z
" transform="scale(0.015625)"/>
      <path id="DejaVuSerif-63" d="M 3291 997 
Q 3169 466 2822 187 
Q 2475 -91 1925 -91 
Q 1200 -91 759 389 
Q 319 869 319 1663 
Q 319 2459 759 2936 
Q 1200 3413 1925 3413 
Q 2241 3413 2553 3339 
Q 2866 3266 3181 3116 
L 3181 2266 
L 2847 2266 
Q 2781 2703 2561 2903 
Q 2341 3103 1931 3103 
Q 1466 3103 1228 2742 
Q 991 2381 991 1663 
Q 991 944 1227 581 
Q 1463 219 1931 219 
Q 2303 219 2525 412 
Q 2747 606 2828 997 
L 3291 997 
z
" transform="scale(0.015625)"/>
      <path id="DejaVuSerif-6b" d="M 1831 0 
L 219 0 
L 219 331 
L 738 331 
L 738 4531 
L 184 4531 
L 184 4863 
L 1313 4863 
L 1313 1697 
L 2713 2988 
L 2234 2988 
L 2234 3322 
L 3738 3322 
L 3738 2988 
L 3169 2988 
L 2181 2075 
L 3444 331 
L 3922 331 
L 3922 0 
L 2284 0 
L 2284 331 
L 2759 331 
L 1766 1697 
L 1313 1275 
L 1313 331 
L 1831 331 
L 1831 0 
z
" transform="scale(0.015625)"/>
      <path id="DejaVuSerif-77" d="M 3072 3322 
L 3922 728 
L 4672 2988 
L 4191 2988 
L 4191 3322 
L 5394 3322 
L 5394 2988 
L 5025 2988 
L 4038 0 
L 3559 0 
L 2741 2484 
L 1919 0 
L 1459 0 
L 475 2988 
L 103 2988 
L 103 3322 
L 1606 3322 
L 1606 2988 
L 1069 2988 
L 1813 728 
L 2669 3322 
L 3072 3322 
z
" transform="scale(0.015625)"/>
      <path id="DejaVuSerif-79" d="M 1381 -609 
L 1600 -56 
L 359 2988 
L -19 2988 
L -19 3322 
L 1509 3322 
L 1509 2988 
L 978 2988 
L 1913 703 
L 2847 2988 
L 2350 2988 
L 2350 3322 
L 3597 3322 
L 3597 2988 
L 3225 2988 
L 1703 -750 
Q 1547 -1138 1356 -1280 
Q 1166 -1422 819 -1422 
Q 672 -1422 517 -1397 
Q 363 -1372 206 -1325 
L 206 -691 
L 500 -691 
Q 519 -903 608 -995 
Q 697 -1088 884 -1088 
Q 1056 -1088 1161 -992 
Q 1266 -897 1381 -609 
z
" transform="scale(0.015625)"/>
      <path id="DejaVuSerif-46" d="M 353 0 
L 353 331 
L 947 331 
L 947 4331 
L 353 4331 
L 353 4666 
L 4172 4666 
L 4172 3628 
L 3788 3628 
L 3788 4281 
L 1581 4281 
L 1581 2719 
L 3175 2719 
L 3175 3303 
L 3559 3303 
L 3559 1753 
L 3175 1753 
L 3175 2338 
L 1581 2338 
L 1581 331 
L 2328 331 
L 2328 0 
L 353 0 
z
" transform="scale(0.015625)"/>
     </defs>
     <use xlink:href="#DejaVuSerif-4c" transform="translate(0 0.015625)"/>
     <use xlink:href="#DejaVuSerif-65" transform="translate(66.40625 0.015625)"/>
     <use xlink:href="#DejaVuSerif-74" transform="translate(125.585938 0.015625)"/>
     <use xlink:href="#DejaVuSerif-20" transform="translate(165.771484 0.015625)"/>
     <use xlink:href="#Cmmi10-6e" transform="translate(197.558594 0.015625)"/>
     <use xlink:href="#DejaVuSerif-20" transform="translate(257.568359 0.015625)"/>
     <use xlink:href="#DejaVuSerif-62" transform="translate(289.355469 0.015625)"/>
     <use xlink:href="#DejaVuSerif-65" transform="translate(353.369141 0.015625)"/>
     <use xlink:href="#DejaVuSerif-20" transform="translate(412.548828 0.015625)"/>
     <use xlink:href="#DejaVuSerif-61" transform="translate(444.335938 0.015625)"/>
     <use xlink:href="#DejaVuSerif-20" transform="translate(503.955078 0.015625)"/>
     <use xlink:href="#DejaVuSerif-70" transform="translate(535.742188 0.015625)"/>
     <use xlink:href="#DejaVuSerif-6f" transform="translate(599.755859 0.015625)"/>
     <use xlink:href="#DejaVuSerif-73" transform="translate(659.960938 0.015625)"/>
     <use xlink:href="#DejaVuSerif-69" transform="translate(711.279297 0.015625)"/>
     <use xlink:href="#DejaVuSerif-74" transform="translate(743.261719 0.015625)"/>
     <use xlink:href="#DejaVuSerif-69" transform="translate(783.447266 0.015625)"/>
     <use xlink:href="#DejaVuSerif-76" transform="translate(815.429688 0.015625)"/>
     <use xlink:href="#DejaVuSerif-65" transform="translate(871.923828 0.015625)"/>
     <use xlink:href="#DejaVuSerif-20" transform="translate(931.103516 0.015625)"/>
     <use xlink:href="#DejaVuSerif-69" transform="translate(962.890625 0.015625)"/>
     <use xlink:href="#DejaVuSerif-6e" transform="translate(994.873047 0.015625)"/>
     <use xlink:href="#DejaVuSerif-74" transform="translate(1059.277344 0.015625)"/>
     <use xlink:href="#DejaVuSerif-65" transform="translate(1099.462891 0.015625)"/>
     <use xlink:href="#DejaVuSerif-67" transform="translate(1158.642578 0.015625)"/>
     <use xlink:href="#DejaVuSerif-65" transform="translate(1222.65625 0.015625)"/>
     <use xlink:href="#DejaVuSerif-72" transform="translate(1281.835938 0.015625)"/>
     <use xlink:href="#DejaVuSerif-2c" transform="translate(1329.638672 0.015625)"/>
     <use xlink:href="#DejaVuSerif-20" transform="translate(1361.425781 0.015625)"/>
     <use xlink:href="#Cmmi10-6e" transform="translate(1393.212891 0.015625)"/>
     <use xlink:href="#Cmsy10-b8" transform="translate(1470.78125 0.015625)"/>
     <use xlink:href="#Cmr10-32" transform="translate(1566.025391 0.015625)"/>
     <use xlink:href="#DejaVuSerif-2c" transform="translate(1616.025391 0.015625)"/>
     <use xlink:href="#DejaVuSerif-20" transform="translate(1647.8125 0.015625)"/>
     <use xlink:href="#DejaVuSerif-61" transform="translate(1679.599609 0.015625)"/>
     <use xlink:href="#DejaVuSerif-6e" transform="translate(1739.21875 0.015625)"/>
     <use xlink:href="#DejaVuSerif-64" transform="translate(1803.623047 0.015625)"/>
     <use xlink:href="#DejaVuSerif-20" transform="translate(1867.636719 0.015625)"/>
     <use xlink:href="#DejaVuSerif-70" transform="translate(1899.423828 0.015625)"/>
     <use xlink:href="#DejaVuSerif-75" transform="translate(1963.4375 0.015625)"/>
     <use xlink:href="#DejaVuSerif-74" transform="translate(2027.841797 0.015625)"/>
     <use xlink:href="#DejaVuSerif-20" transform="translate(2068.027344 0.015625)"/>
     <use xlink:href="#Cmmi10-b5" transform="translate(2099.814453 0.015625)"/>
     <use xlink:href="#Cmr10-3d" transform="translate(2164.296875 0.015625)"/>
     <use xlink:href="#Cmr10-32" transform="translate(2259.541016 0.015625)"/>
     <use xlink:href="#Cmmi10-bc" transform="translate(2309.541016 0.015625)"/>
     <use xlink:href="#Cmmi10-3d" transform="translate(2366.523438 0.015625)"/>
     <use xlink:href="#Cmmi10-6e" transform="translate(2416.523438 0.015625)"/>
     <use xlink:href="#DejaVuSerif-2e" transform="translate(2476.533203 0.015625)"/>
     <use xlink:href="#DejaVuSerif-20" transform="translate(2508.320312 0.015625)"/>
     <use xlink:href="#DejaVuSerif-44" transform="translate(2540.107422 0.015625)"/>
     <use xlink:href="#DejaVuSerif-65" transform="translate(2620.283203 0.015625)"/>
     <use xlink:href="#DejaVuSerif-66" transform="translate(2679.462891 0.015625)"/>
     <use xlink:href="#DejaVuSerif-69" transform="translate(2716.474609 0.015625)"/>
     <use xlink:href="#DejaVuSerif-6e" transform="translate(2748.457031 0.015625)"/>
     <use xlink:href="#DejaVuSerif-65" transform="translate(2812.861328 0.015625)"/>
     <use xlink:href="#DejaVuSerif-20" transform="translate(2872.041016 0.015625)"/>
     <use xlink:href="#DejaVuSerif-70" transform="translate(2903.828125 0.015625)"/>
     <use xlink:href="#DejaVuSerif-6f" transform="translate(2967.841797 0.015625)"/>
     <use xlink:href="#DejaVuSerif-69" transform="translate(3028.046875 0.015625)"/>
     <use xlink:href="#DejaVuSerif-6e" transform="translate(3060.029297 0.015625)"/>
     <use xlink:href="#DejaVuSerif-74" transform="translate(3124.433594 0.015625)"/>
     <use xlink:href="#DejaVuSerif-73" transform="translate(3164.619141 0.015625)"/>
     <use xlink:href="#DejaVuSerif-20" transform="translate(3215.9375 0.015625)"/>
     <use xlink:href="#Cmmi10-50" transform="translate(3247.724609 0.015625)"/>
     <use xlink:href="#Cmmi10-6b" transform="translate(3311.933594 -16.990625) scale(0.7)"/>
     <use xlink:href="#Cmr10-3d" transform="translate(3372.270898 0.015625)"/>
     <use xlink:href="#Cmr10-28" transform="translate(3467.515039 0.015625)"/>
     <use xlink:href="#Cmmi10-6b" transform="translate(3506.333398 0.015625)"/>
     <use xlink:href="#Cmmi10-3b" transform="translate(3558.335352 0.015625)"/>
     <use xlink:href="#Cmr10-30" transform="translate(3603.579492 0.015625)"/>
     <use xlink:href="#Cmr10-29" transform="translate(3653.579492 0.015625)"/>
     <use xlink:href="#DejaVuSerif-20" transform="translate(3692.397852 0.015625)"/>
     <use xlink:href="#DejaVuSerif-69" transform="translate(3724.184961 0.015625)"/>
     <use xlink:href="#DejaVuSerif-6e" transform="translate(3756.167383 0.015625)"/>
     <use xlink:href="#DejaVuSerif-20" transform="translate(3820.57168 0.015625)"/>
     <use xlink:href="#DejaVuSerif-74" transform="translate(3852.358789 0.015625)"/>
     <use xlink:href="#DejaVuSerif-68" transform="translate(3892.544336 0.015625)"/>
     <use xlink:href="#DejaVuSerif-65" transform="translate(3956.948633 0.015625)"/>
     <use xlink:href="#DejaVuSerif-20" transform="translate(4016.12832 0.015625)"/>
     <use xlink:href="#Cmmi10-78" transform="translate(4047.91543 0.015625)"/>
     <use xlink:href="#Cmmi10-79" transform="translate(4104.995508 0.015625)"/>
     <use xlink:href="#DejaVuSerif-2d" transform="translate(4154.018945 0.015625)"/>
     <use xlink:href="#DejaVuSerif-70" transform="translate(4187.808008 0.015625)"/>
     <use xlink:href="#DejaVuSerif-6c" transform="translate(4251.82168 0.015625)"/>
     <use xlink:href="#DejaVuSerif-61" transform="translate(4283.804102 0.015625)"/>
     <use xlink:href="#DejaVuSerif-6e" transform="translate(4343.423242 0.015625)"/>
     <use xlink:href="#DejaVuSerif-65" transform="translate(4407.827539 0.015625)"/>
     <use xlink:href="#DejaVuSerif-2c" transform="translate(4467.007227 0.015625)"/>
     <use xlink:href="#DejaVuSerif-20" transform="translate(4498.794336 0.015625)"/>
     <use xlink:href="#DejaVuSerif-66" transform="translate(4530.581445 0.015625)"/>
     <use xlink:href="#DejaVuSerif-6f" transform="translate(4567.593164 0.015625)"/>
     <use xlink:href="#DejaVuSerif-72" transform="translate(4627.798242 0.015625)"/>
     <use xlink:href="#DejaVuSerif-20" transform="translate(4675.600977 0.015625)"/>
     <use xlink:href="#Cmmi10-6b" transform="translate(4707.388086 0.015625)"/>
     <use xlink:href="#Cmr10-3d" transform="translate(4776.948633 0.015625)"/>
     <use xlink:href="#Cmr10-31" transform="translate(4872.192773 0.015625)"/>
     <use xlink:href="#Cmmi10-3b" transform="translate(4922.192773 0.015625)"/>
     <use xlink:href="#Cmr10-32" transform="translate(4967.436914 0.015625)"/>
     <use xlink:href="#Cmmi10-3b" transform="translate(5017.436914 0.015625)"/>
     <use xlink:href="#STIXGeneral-Regular-2026" transform="translate(5080.239648 0.015625)"/>
     <use xlink:href="#Cmmi10-3b" transform="translate(5197.798227 0.015625)"/>
     <use xlink:href="#Cmmi10-6e" transform="translate(5243.042368 0.015625)"/>
     <use xlink:href="#DejaVuSerif-2e" transform="translate(5303.052133 0.015625)"/>
     <use xlink:href="#DejaVuSerif-20" transform="translate(5334.839243 0.015625)"/>
     <use xlink:href="#DejaVuSerif-4c" transform="translate(5366.626352 0.015625)"/>
     <use xlink:href="#DejaVuSerif-65" transform="translate(5433.032602 0.015625)"/>
     <use xlink:href="#DejaVuSerif-74" transform="translate(5492.212289 0.015625)"/>
     <use xlink:href="#DejaVuSerif-20" transform="translate(5532.397836 0.015625)"/>
     <use xlink:href="#Cmmi10-52" transform="translate(5564.184946 0.015625)"/>
     <use xlink:href="#Cmmi10-6b" transform="translate(5640.063852 -16.990625) scale(0.7)"/>
     <use xlink:href="#DejaVuSerif-20" transform="translate(5682.842563 0.015625)"/>
     <use xlink:href="#DejaVuSerif-62" transform="translate(5714.629672 0.015625)"/>
     <use xlink:href="#DejaVuSerif-65" transform="translate(5778.643344 0.015625)"/>
     <use xlink:href="#DejaVuSerif-20" transform="translate(5837.823032 0.015625)"/>
     <use xlink:href="#DejaVuSerif-74" transform="translate(5869.610141 0.015625)"/>
     <use xlink:href="#DejaVuSerif-68" transform="translate(5909.795688 0.015625)"/>
     <use xlink:href="#DejaVuSerif-65" transform="translate(5974.199985 0.015625)"/>
     <use xlink:href="#DejaVuSerif-20" transform="translate(6033.379672 0.015625)"/>
     <use xlink:href="#DejaVuSerif-6d" transform="translate(6065.166782 0.015625)"/>
     <use xlink:href="#DejaVuSerif-61" transform="translate(6159.991 0.015625)"/>
     <use xlink:href="#DejaVuSerif-70" transform="translate(6219.610141 0.015625)"/>
     <use xlink:href="#DejaVuSerif-20" transform="translate(6283.623813 0.015625)"/>
     <use xlink:href="#DejaVuSerif-74" transform="translate(6315.410922 0.015625)"/>
     <use xlink:href="#DejaVuSerif-68" transform="translate(6355.596469 0.015625)"/>
     <use xlink:href="#DejaVuSerif-61" transform="translate(6420.000766 0.015625)"/>
     <use xlink:href="#DejaVuSerif-74" transform="translate(6479.619907 0.015625)"/>
     <use xlink:href="#DejaVuSerif-20" transform="translate(6519.805453 0.015625)"/>
     <use xlink:href="#DejaVuSerif-72" transform="translate(6551.592563 0.015625)"/>
     <use xlink:href="#DejaVuSerif-6f" transform="translate(6599.395297 0.015625)"/>
     <use xlink:href="#DejaVuSerif-74" transform="translate(6659.600375 0.015625)"/>
     <use xlink:href="#DejaVuSerif-61" transform="translate(6699.785922 0.015625)"/>
     <use xlink:href="#DejaVuSerif-74" transform="translate(6759.405063 0.015625)"/>
     <use xlink:href="#DejaVuSerif-65" transform="translate(6799.59061 0.015625)"/>
     <use xlink:href="#DejaVuSerif-73" transform="translate(6858.770297 0.015625)"/>
     <use xlink:href="#DejaVuSerif-20" transform="translate(6910.088657 0.015625)"/>
     <use xlink:href="#DejaVuSerif-74" transform="translate(6941.875766 0.015625)"/>
     <use xlink:href="#DejaVuSerif-68" transform="translate(6982.061313 0.015625)"/>
     <use xlink:href="#DejaVuSerif-65" transform="translate(7046.46561 0.015625)"/>
     <use xlink:href="#DejaVuSerif-20" transform="translate(7105.645297 0.015625)"/>
     <use xlink:href="#DejaVuSerif-70" transform="translate(7137.432407 0.015625)"/>
     <use xlink:href="#DejaVuSerif-6c" transform="translate(7201.446078 0.015625)"/>
     <use xlink:href="#DejaVuSerif-61" transform="translate(7233.4285 0.015625)"/>
     <use xlink:href="#DejaVuSerif-6e" transform="translate(7293.047641 0.015625)"/>
     <use xlink:href="#DejaVuSerif-65" transform="translate(7357.451938 0.015625)"/>
     <use xlink:href="#DejaVuSerif-20" transform="translate(7416.631625 0.015625)"/>
     <use xlink:href="#DejaVuSerif-63" transform="translate(7448.418735 0.015625)"/>
     <use xlink:href="#DejaVuSerif-6f" transform="translate(7504.424594 0.015625)"/>
     <use xlink:href="#DejaVuSerif-75" transform="translate(7564.629672 0.015625)"/>
     <use xlink:href="#DejaVuSerif-6e" transform="translate(7629.033969 0.015625)"/>
     <use xlink:href="#DejaVuSerif-74" transform="translate(7693.438266 0.015625)"/>
     <use xlink:href="#DejaVuSerif-65" transform="translate(7733.623813 0.015625)"/>
     <use xlink:href="#DejaVuSerif-72" transform="translate(7792.8035 0.015625)"/>
     <use xlink:href="#DejaVuSerif-63" transform="translate(7840.606235 0.015625)"/>
     <use xlink:href="#DejaVuSerif-6c" transform="translate(7896.612094 0.015625)"/>
     <use xlink:href="#DejaVuSerif-6f" transform="translate(7928.594516 0.015625)"/>
     <use xlink:href="#DejaVuSerif-63" transform="translate(7988.799594 0.015625)"/>
     <use xlink:href="#DejaVuSerif-6b" transform="translate(8044.805453 0.015625)"/>
     <use xlink:href="#DejaVuSerif-77" transform="translate(8105.401157 0.015625)"/>
     <use xlink:href="#DejaVuSerif-69" transform="translate(8190.99686 0.015625)"/>
     <use xlink:href="#DejaVuSerif-73" transform="translate(8222.979282 0.015625)"/>
     <use xlink:href="#DejaVuSerif-65" transform="translate(8274.297641 0.015625)"/>
     <use xlink:href="#DejaVuSerif-20" transform="translate(8333.477328 0.015625)"/>
     <use xlink:href="#DejaVuSerif-62" transform="translate(8365.264438 0.015625)"/>
     <use xlink:href="#DejaVuSerif-79" transform="translate(8429.27811 0.015625)"/>
     <use xlink:href="#DejaVuSerif-20" transform="translate(8485.77225 0.015625)"/>
     <use xlink:href="#DejaVuSerif-74" transform="translate(8517.55936 0.015625)"/>
     <use xlink:href="#DejaVuSerif-68" transform="translate(8557.744907 0.015625)"/>
     <use xlink:href="#DejaVuSerif-65" transform="translate(8622.149203 0.015625)"/>
     <use xlink:href="#DejaVuSerif-20" transform="translate(8681.328891 0.015625)"/>
     <use xlink:href="#DejaVuSerif-61" transform="translate(8713.116 0.015625)"/>
     <use xlink:href="#DejaVuSerif-6e" transform="translate(8772.735141 0.015625)"/>
     <use xlink:href="#DejaVuSerif-67" transform="translate(8837.139438 0.015625)"/>
     <use xlink:href="#DejaVuSerif-6c" transform="translate(8901.15311 0.015625)"/>
     <use xlink:href="#DejaVuSerif-65" transform="translate(8933.135532 0.015625)"/>
     <use xlink:href="#DejaVuSerif-20" transform="translate(8992.315219 0.015625)"/>
     <use xlink:href="#Cmmi10-b5" transform="translate(9024.102328 0.015625)"/>
     <use xlink:href="#DejaVuSerif-20" transform="translate(9071.026157 0.015625)"/>
     <use xlink:href="#DejaVuSerif-61" transform="translate(9102.813266 0.015625)"/>
     <use xlink:href="#DejaVuSerif-62" transform="translate(9162.432407 0.015625)"/>
     <use xlink:href="#DejaVuSerif-6f" transform="translate(9226.446078 0.015625)"/>
     <use xlink:href="#DejaVuSerif-75" transform="translate(9286.651157 0.015625)"/>
     <use xlink:href="#DejaVuSerif-74" transform="translate(9351.055453 0.015625)"/>
     <use xlink:href="#DejaVuSerif-20" transform="translate(9391.241 0.015625)"/>
     <use xlink:href="#DejaVuSerif-74" transform="translate(9423.02811 0.015625)"/>
     <use xlink:href="#DejaVuSerif-68" transform="translate(9463.213657 0.015625)"/>
     <use xlink:href="#DejaVuSerif-65" transform="translate(9527.617953 0.015625)"/>
     <use xlink:href="#DejaVuSerif-20" transform="translate(9586.797641 0.015625)"/>
     <use xlink:href="#DejaVuSerif-70" transform="translate(9618.58475 0.015625)"/>
     <use xlink:href="#DejaVuSerif-6f" transform="translate(9682.598422 0.015625)"/>
     <use xlink:href="#DejaVuSerif-69" transform="translate(9742.8035 0.015625)"/>
     <use xlink:href="#DejaVuSerif-6e" transform="translate(9774.785922 0.015625)"/>
     <use xlink:href="#DejaVuSerif-74" transform="translate(9839.190219 0.015625)"/>
     <use xlink:href="#DejaVuSerif-20" transform="translate(9879.375766 0.015625)"/>
     <use xlink:href="#Cmmi10-50" transform="translate(9911.162875 0.015625)"/>
     <use xlink:href="#Cmmi10-6b" transform="translate(9975.37186 -16.990625) scale(0.7)"/>
     <use xlink:href="#DejaVuSerif-2e" transform="translate(10018.150571 0.015625)"/>
     <use xlink:href="#DejaVuSerif-20" transform="translate(10049.93768 0.015625)"/>
     <use xlink:href="#DejaVuSerif-4c" transform="translate(10081.724789 0.015625)"/>
     <use xlink:href="#DejaVuSerif-65" transform="translate(10148.131039 0.015625)"/>
     <use xlink:href="#DejaVuSerif-74" transform="translate(10207.310727 0.015625)"/>
     <use xlink:href="#DejaVuSerif-20" transform="translate(10247.496274 0.015625)"/>
     <use xlink:href="#Cmmi10-52" transform="translate(10279.283383 0.015625)"/>
     <use xlink:href="#DejaVuSerif-20" transform="translate(10355.162289 0.015625)"/>
     <use xlink:href="#DejaVuSerif-64" transform="translate(10386.949399 0.015625)"/>
     <use xlink:href="#DejaVuSerif-65" transform="translate(10450.963071 0.015625)"/>
     <use xlink:href="#DejaVuSerif-6e" transform="translate(10510.142758 0.015625)"/>
     <use xlink:href="#DejaVuSerif-6f" transform="translate(10574.547055 0.015625)"/>
     <use xlink:href="#DejaVuSerif-74" transform="translate(10634.752133 0.015625)"/>
     <use xlink:href="#DejaVuSerif-65" transform="translate(10674.93768 0.015625)"/>
     <use xlink:href="#DejaVuSerif-20" transform="translate(10734.117368 0.015625)"/>
     <use xlink:href="#DejaVuSerif-74" transform="translate(10765.904477 0.015625)"/>
     <use xlink:href="#DejaVuSerif-68" transform="translate(10806.090024 0.015625)"/>
     <use xlink:href="#DejaVuSerif-65" transform="translate(10870.494321 0.015625)"/>
     <use xlink:href="#DejaVuSerif-20" transform="translate(10929.674008 0.015625)"/>
     <use xlink:href="#DejaVuSerif-6d" transform="translate(10961.461118 0.015625)"/>
     <use xlink:href="#DejaVuSerif-61" transform="translate(11056.285336 0.015625)"/>
     <use xlink:href="#DejaVuSerif-70" transform="translate(11115.904477 0.015625)"/>
     <use xlink:href="#DejaVuSerif-20" transform="translate(11179.918149 0.015625)"/>
     <use xlink:href="#DejaVuSerif-6f" transform="translate(11211.705258 0.015625)"/>
     <use xlink:href="#DejaVuSerif-62" transform="translate(11271.910336 0.015625)"/>
     <use xlink:href="#DejaVuSerif-74" transform="translate(11335.924008 0.015625)"/>
     <use xlink:href="#DejaVuSerif-61" transform="translate(11376.109555 0.015625)"/>
     <use xlink:href="#DejaVuSerif-69" transform="translate(11435.728696 0.015625)"/>
     <use xlink:href="#DejaVuSerif-6e" transform="translate(11467.711118 0.015625)"/>
     <use xlink:href="#DejaVuSerif-65" transform="translate(11532.115414 0.015625)"/>
     <use xlink:href="#DejaVuSerif-64" transform="translate(11591.295102 0.015625)"/>
     <use xlink:href="#DejaVuSerif-20" transform="translate(11655.308774 0.015625)"/>
     <use xlink:href="#DejaVuSerif-62" transform="translate(11687.095883 0.015625)"/>
     <use xlink:href="#DejaVuSerif-79" transform="translate(11751.109555 0.015625)"/>
     <use xlink:href="#DejaVuSerif-20" transform="translate(11807.603696 0.015625)"/>
     <use xlink:href="#DejaVuSerif-61" transform="translate(11839.390805 0.015625)"/>
     <use xlink:href="#DejaVuSerif-70" transform="translate(11899.009946 0.015625)"/>
     <use xlink:href="#DejaVuSerif-70" transform="translate(11963.023618 0.015625)"/>
     <use xlink:href="#DejaVuSerif-6c" transform="translate(12027.037289 0.015625)"/>
     <use xlink:href="#DejaVuSerif-79" transform="translate(12059.019711 0.015625)"/>
     <use xlink:href="#DejaVuSerif-69" transform="translate(12115.513852 0.015625)"/>
     <use xlink:href="#DejaVuSerif-6e" transform="translate(12147.496274 0.015625)"/>
     <use xlink:href="#DejaVuSerif-67" transform="translate(12211.900571 0.015625)"/>
     <use xlink:href="#DejaVuSerif-2c" transform="translate(12275.914243 0.015625)"/>
     <use xlink:href="#DejaVuSerif-20" transform="translate(12307.701352 0.015625)"/>
     <use xlink:href="#DejaVuSerif-69" transform="translate(12339.488461 0.015625)"/>
     <use xlink:href="#DejaVuSerif-6e" transform="translate(12371.470883 0.015625)"/>
     <use xlink:href="#DejaVuSerif-20" transform="translate(12435.87518 0.015625)"/>
     <use xlink:href="#DejaVuSerif-6f" transform="translate(12467.662289 0.015625)"/>
     <use xlink:href="#DejaVuSerif-72" transform="translate(12527.867368 0.015625)"/>
     <use xlink:href="#DejaVuSerif-64" transform="translate(12575.670102 0.015625)"/>
     <use xlink:href="#DejaVuSerif-65" transform="translate(12639.683774 0.015625)"/>
     <use xlink:href="#DejaVuSerif-72" transform="translate(12698.863461 0.015625)"/>
     <use xlink:href="#DejaVuSerif-2c" transform="translate(12746.666196 0.015625)"/>
     <use xlink:href="#DejaVuSerif-20" transform="translate(12778.453305 0.015625)"/>
     <use xlink:href="#Cmmi10-52" transform="translate(12810.240414 0.015625)"/>
     <use xlink:href="#Cmr10-31" transform="translate(12886.119321 -16.990625) scale(0.7)"/>
     <use xlink:href="#DejaVuSerif-2c" transform="translate(12927.496664 0.015625)"/>
     <use xlink:href="#DejaVuSerif-20" transform="translate(12959.283774 0.015625)"/>
     <use xlink:href="#DejaVuSerif-74" transform="translate(12991.070883 0.015625)"/>
     <use xlink:href="#DejaVuSerif-68" transform="translate(13031.25643 0.015625)"/>
     <use xlink:href="#DejaVuSerif-65" transform="translate(13095.660727 0.015625)"/>
     <use xlink:href="#DejaVuSerif-6e" transform="translate(13154.840414 0.015625)"/>
     <use xlink:href="#DejaVuSerif-20" transform="translate(13219.244711 0.015625)"/>
     <use xlink:href="#Cmmi10-52" transform="translate(13251.031821 0.015625)"/>
     <use xlink:href="#Cmr10-32" transform="translate(13326.910727 -16.990625) scale(0.7)"/>
     <use xlink:href="#Cmmi10-3b" transform="translate(13368.288071 0.015625)"/>
     <use xlink:href="#STIXGeneral-Regular-2026" transform="translate(13431.090805 0.015625)"/>
     <use xlink:href="#DejaVuSerif-2c" transform="translate(13548.649384 0.015625)"/>
     <use xlink:href="#DejaVuSerif-20" transform="translate(13580.436493 0.015625)"/>
     <use xlink:href="#DejaVuSerif-74" transform="translate(13612.223602 0.015625)"/>
     <use xlink:href="#DejaVuSerif-68" transform="translate(13652.409149 0.015625)"/>
     <use xlink:href="#DejaVuSerif-65" transform="translate(13716.813446 0.015625)"/>
     <use xlink:href="#DejaVuSerif-6e" transform="translate(13775.993134 0.015625)"/>
     <use xlink:href="#DejaVuSerif-20" transform="translate(13840.39743 0.015625)"/>
     <use xlink:href="#Cmmi10-52" transform="translate(13872.18454 0.015625)"/>
     <use xlink:href="#Cmmi10-6e" transform="translate(13948.063446 -16.990625) scale(0.7)"/>
     <use xlink:href="#DejaVuSerif-2e" transform="translate(13996.447626 0.015625)"/>
     <use xlink:href="#DejaVuSerif-20" transform="translate(14028.234735 0.015625)"/>
     <use xlink:href="#DejaVuSerif-46" transform="translate(14060.021844 0.015625)"/>
     <use xlink:href="#DejaVuSerif-6f" transform="translate(14129.40661 0.015625)"/>
     <use xlink:href="#DejaVuSerif-72" transform="translate(14189.611688 0.015625)"/>
     <use xlink:href="#DejaVuSerif-20" transform="translate(14237.414423 0.015625)"/>
     <use xlink:href="#DejaVuSerif-61" transform="translate(14269.201532 0.015625)"/>
     <use xlink:href="#DejaVuSerif-6e" transform="translate(14328.820673 0.015625)"/>
     <use xlink:href="#DejaVuSerif-20" transform="translate(14393.224969 0.015625)"/>
     <use xlink:href="#DejaVuSerif-61" transform="translate(14425.012079 0.015625)"/>
     <use xlink:href="#DejaVuSerif-72" transform="translate(14484.631219 0.015625)"/>
     <use xlink:href="#DejaVuSerif-62" transform="translate(14532.433954 0.015625)"/>
     <use xlink:href="#DejaVuSerif-69" transform="translate(14596.447626 0.015625)"/>
     <use xlink:href="#DejaVuSerif-74" transform="translate(14628.430048 0.015625)"/>
     <use xlink:href="#DejaVuSerif-72" transform="translate(14668.615594 0.015625)"/>
     <use xlink:href="#DejaVuSerif-61" transform="translate(14716.418329 0.015625)"/>
     <use xlink:href="#DejaVuSerif-72" transform="translate(14776.037469 0.015625)"/>
     <use xlink:href="#DejaVuSerif-79" transform="translate(14823.840204 0.015625)"/>
     <use xlink:href="#DejaVuSerif-20" transform="translate(14880.334344 0.015625)"/>
     <use xlink:href="#DejaVuSerif-70" transform="translate(14912.121454 0.015625)"/>
     <use xlink:href="#DejaVuSerif-6f" transform="translate(14976.135126 0.015625)"/>
     <use xlink:href="#DejaVuSerif-69" transform="translate(15036.340204 0.015625)"/>
     <use xlink:href="#DejaVuSerif-6e" transform="translate(15068.322626 0.015625)"/>
     <use xlink:href="#DejaVuSerif-74" transform="translate(15132.726923 0.015625)"/>
     <use xlink:href="#DejaVuSerif-20" transform="translate(15172.912469 0.015625)"/>
     <use xlink:href="#Cmr10-28" transform="translate(15204.699579 0.015625)"/>
     <use xlink:href="#Cmmi10-78" transform="translate(15243.517938 0.015625)"/>
     <use xlink:href="#Cmmi10-3b" transform="translate(15300.598016 0.015625)"/>
     <use xlink:href="#Cmmi10-79" transform="translate(15345.842157 0.015625)"/>
     <use xlink:href="#Cmr10-29" transform="translate(15394.865594 0.015625)"/>
     <use xlink:href="#DejaVuSerif-2c" transform="translate(15433.683954 0.015625)"/>
     <use xlink:href="#DejaVuSerif-20" transform="translate(15465.471063 0.015625)"/>
     <use xlink:href="#DejaVuSerif-66" transform="translate(15497.258173 0.015625)"/>
     <use xlink:href="#DejaVuSerif-69" transform="translate(15534.269891 0.015625)"/>
     <use xlink:href="#DejaVuSerif-6e" transform="translate(15566.252313 0.015625)"/>
     <use xlink:href="#DejaVuSerif-64" transform="translate(15630.65661 0.015625)"/>
     <use xlink:href="#DejaVuSerif-2c" transform="translate(15694.670282 0.015625)"/>
     <use xlink:href="#DejaVuSerif-20" transform="translate(15726.457391 0.015625)"/>
     <use xlink:href="#DejaVuSerif-61" transform="translate(15758.244501 0.015625)"/>
     <use xlink:href="#DejaVuSerif-6e" transform="translate(15817.863641 0.015625)"/>
     <use xlink:href="#DejaVuSerif-64" transform="translate(15882.267938 0.015625)"/>
     <use xlink:href="#DejaVuSerif-20" transform="translate(15946.28161 0.015625)"/>
     <use xlink:href="#DejaVuSerif-73" transform="translate(15978.068719 0.015625)"/>
     <use xlink:href="#DejaVuSerif-69" transform="translate(16029.387079 0.015625)"/>
     <use xlink:href="#DejaVuSerif-6d" transform="translate(16061.369501 0.015625)"/>
     <use xlink:href="#DejaVuSerif-70" transform="translate(16156.193719 0.015625)"/>
     <use xlink:href="#DejaVuSerif-6c" transform="translate(16220.207391 0.015625)"/>
     <use xlink:href="#DejaVuSerif-69" transform="translate(16252.189813 0.015625)"/>
     <use xlink:href="#DejaVuSerif-66" transform="translate(16284.172235 0.015625)"/>
     <use xlink:href="#DejaVuSerif-79" transform="translate(16321.183954 0.015625)"/>
     <use xlink:href="#DejaVuSerif-2c" transform="translate(16377.678094 0.015625)"/>
     <use xlink:href="#DejaVuSerif-20" transform="translate(16409.465204 0.015625)"/>
     <use xlink:href="#DejaVuSerif-74" transform="translate(16441.252313 0.015625)"/>
     <use xlink:href="#DejaVuSerif-68" transform="translate(16481.43786 0.015625)"/>
     <use xlink:href="#DejaVuSerif-65" transform="translate(16545.842157 0.015625)"/>
     <use xlink:href="#DejaVuSerif-20" transform="translate(16605.021844 0.015625)"/>
     <use xlink:href="#DejaVuSerif-63" transform="translate(16636.808954 0.015625)"/>
     <use xlink:href="#DejaVuSerif-6f" transform="translate(16692.814813 0.015625)"/>
     <use xlink:href="#DejaVuSerif-6f" transform="translate(16753.019891 0.015625)"/>
     <use xlink:href="#DejaVuSerif-72" transform="translate(16813.224969 0.015625)"/>
     <use xlink:href="#DejaVuSerif-64" transform="translate(16861.027704 0.015625)"/>
     <use xlink:href="#DejaVuSerif-69" transform="translate(16925.041376 0.015625)"/>
     <use xlink:href="#DejaVuSerif-6e" transform="translate(16957.023798 0.015625)"/>
     <use xlink:href="#DejaVuSerif-61" transform="translate(17021.428094 0.015625)"/>
     <use xlink:href="#DejaVuSerif-74" transform="translate(17081.047235 0.015625)"/>
     <use xlink:href="#DejaVuSerif-65" transform="translate(17121.232782 0.015625)"/>
     <use xlink:href="#DejaVuSerif-73" transform="translate(17180.412469 0.015625)"/>
     <use xlink:href="#DejaVuSerif-20" transform="translate(17231.730829 0.015625)"/>
     <use xlink:href="#DejaVuSerif-6f" transform="translate(17263.517938 0.015625)"/>
     <use xlink:href="#DejaVuSerif-66" transform="translate(17323.723016 0.015625)"/>
     <use xlink:href="#DejaVuSerif-20" transform="translate(17360.734735 0.015625)"/>
     <use xlink:href="#Cmmi10-52" transform="translate(17392.521844 0.015625)"/>
     <use xlink:href="#Cmr10-28" transform="translate(17468.400751 0.015625)"/>
     <use xlink:href="#Cmmi10-78" transform="translate(17507.21911 0.015625)"/>
     <use xlink:href="#Cmmi10-3b" transform="translate(17564.299188 0.015625)"/>
     <use xlink:href="#Cmmi10-79" transform="translate(17609.543329 0.015625)"/>
     <use xlink:href="#Cmr10-29" transform="translate(17658.566766 0.015625)"/>
     <use xlink:href="#DejaVuSerif-2e" transform="translate(17697.385126 0.015625)"/>
    </g>
   </g>
  </g>
 </g>
</svg>
