<?xml version="1.0" encoding="utf-8" standalone="no"?>
<!DOCTYPE svg PUBLIC "-//W3C//DTD SVG 1.1//EN"
  "http://www.w3.org/Graphics/SVG/1.1/DTD/svg11.dtd">
<svg xmlns:xlink="http://www.w3.org/1999/xlink" width="1298.52pt" height="180.72pt" viewBox="0 0 1298.52 180.72" xmlns="http://www.w3.org/2000/svg" version="1.1">
 <metadata>
  <rdf:RDF xmlns:dc="http://purl.org/dc/elements/1.1/" xmlns:cc="http://creativecommons.org/ns#" xmlns:rdf="http://www.w3.org/1999/02/22-rdf-syntax-ns#">
   <cc:Work>
    <dc:type rdf:resource="http://purl.org/dc/dcmitype/StillImage"/>
    <dc:date>2025-05-29T18:44:04.397762</dc:date>
    <dc:format>image/svg+xml</dc:format>
    <dc:creator>
     <cc:Agent>
      <dc:title>Matplotlib v3.10.3, https://matplotlib.org/</dc:title>
     </cc:Agent>
    </dc:creator>
   </cc:Work>
  </rdf:RDF>
 </metadata>
 <defs>
  <style type="text/css">*{stroke-linejoin: round; stroke-linecap: butt}</style>
 </defs>
 <g id="figure_1">
  <g id="patch_1">
   <path d="M 0 180.72 
L 1298.52 180.72 
L 1298.52 0 
L 0 0 
z
" style="fill: #ffffff"/>
  </g>
  <g id="axes_1">
   <g id="text_1">
    <!-- Given a point $(a,b)$ with $0&lt;b&lt;a$, determine the minimum perimeter of a triangle with one vertex at $(a,b)$, one on the $x$-axis, and one on the line $y=x$.  You may assume that a triangle of minimum perimeter exists. -->
    <g transform="translate(7.2 93.42) scale(0.12 -0.12)">
     <defs>
      <path id="DejaVuSerif-47" d="M 4097 3272 
Q 3988 3856 3641 4136 
Q 3294 4416 2675 4416 
Q 1869 4416 1472 3897 
Q 1075 3378 1075 2328 
Q 1075 1300 1484 772 
Q 1894 244 2688 244 
Q 3041 244 3362 331 
Q 3684 419 3975 594 
L 3975 1797 
L 3097 1797 
L 3097 2131 
L 4609 2131 
L 4609 391 
Q 4194 150 3714 29 
Q 3234 -91 2688 -91 
Q 1631 -91 995 570 
Q 359 1231 359 2328 
Q 359 3434 996 4092 
Q 1634 4750 2713 4750 
Q 3113 4750 3539 4658 
Q 3966 4566 4447 4378 
L 4447 3272 
L 4097 3272 
z
" transform="scale(0.015625)"/>
      <path id="DejaVuSerif-69" d="M 622 4353 
Q 622 4497 726 4603 
Q 831 4709 978 4709 
Q 1122 4709 1226 4603 
Q 1331 4497 1331 4353 
Q 1331 4206 1228 4103 
Q 1125 4000 978 4000 
Q 831 4000 726 4103 
Q 622 4206 622 4353 
z
M 1356 331 
L 1900 331 
L 1900 0 
L 231 0 
L 231 331 
L 781 331 
L 781 2988 
L 231 2988 
L 231 3322 
L 1356 3322 
L 1356 331 
z
" transform="scale(0.015625)"/>
      <path id="DejaVuSerif-76" d="M 1581 0 
L 359 2988 
L -19 2988 
L -19 3322 
L 1509 3322 
L 1509 2988 
L 978 2988 
L 1913 703 
L 2847 2988 
L 2350 2988 
L 2350 3322 
L 3597 3322 
L 3597 2988 
L 3225 2988 
L 2003 0 
L 1581 0 
z
" transform="scale(0.015625)"/>
      <path id="DejaVuSerif-65" d="M 3469 1600 
L 991 1600 
L 991 1575 
Q 991 903 1244 561 
Q 1497 219 1991 219 
Q 2369 219 2611 417 
Q 2853 616 2950 1006 
L 3413 1006 
Q 3275 459 2904 184 
Q 2534 -91 1931 -91 
Q 1203 -91 761 389 
Q 319 869 319 1663 
Q 319 2450 753 2931 
Q 1188 3413 1894 3413 
Q 2647 3413 3050 2948 
Q 3453 2484 3469 1600 
z
M 2791 1931 
Q 2772 2513 2545 2808 
Q 2319 3103 1894 3103 
Q 1497 3103 1269 2806 
Q 1041 2509 991 1931 
L 2791 1931 
z
" transform="scale(0.015625)"/>
      <path id="DejaVuSerif-6e" d="M 263 0 
L 263 331 
L 781 331 
L 781 2988 
L 231 2988 
L 231 3322 
L 1356 3322 
L 1356 2731 
Q 1516 3069 1770 3241 
Q 2025 3413 2363 3413 
Q 2913 3413 3172 3097 
Q 3431 2781 3431 2113 
L 3431 331 
L 3944 331 
L 3944 0 
L 2356 0 
L 2356 331 
L 2853 331 
L 2853 1931 
Q 2853 2541 2703 2767 
Q 2553 2994 2175 2994 
Q 1775 2994 1565 2701 
Q 1356 2409 1356 1850 
L 1356 331 
L 1856 331 
L 1856 0 
L 263 0 
z
" transform="scale(0.015625)"/>
      <path id="DejaVuSerif-20" transform="scale(0.015625)"/>
      <path id="DejaVuSerif-61" d="M 2547 1044 
L 2547 1747 
L 1806 1747 
Q 1378 1747 1168 1562 
Q 959 1378 959 997 
Q 959 650 1171 447 
Q 1384 244 1747 244 
Q 2106 244 2326 466 
Q 2547 688 2547 1044 
z
M 3122 2075 
L 3122 331 
L 3634 331 
L 3634 0 
L 2547 0 
L 2547 359 
Q 2356 128 2106 18 
Q 1856 -91 1522 -91 
Q 969 -91 644 203 
Q 319 497 319 997 
Q 319 1513 691 1797 
Q 1063 2081 1741 2081 
L 2547 2081 
L 2547 2309 
Q 2547 2688 2317 2895 
Q 2088 3103 1672 3103 
Q 1328 3103 1125 2947 
Q 922 2791 872 2484 
L 575 2484 
L 575 3156 
Q 875 3284 1158 3348 
Q 1441 3413 1709 3413 
Q 2400 3413 2761 3070 
Q 3122 2728 3122 2075 
z
" transform="scale(0.015625)"/>
      <path id="DejaVuSerif-70" d="M 1313 1825 
L 1313 1497 
Q 1313 897 1542 583 
Q 1772 269 2209 269 
Q 2650 269 2876 622 
Q 3103 975 3103 1663 
Q 3103 2353 2876 2703 
Q 2650 3053 2209 3053 
Q 1772 3053 1542 2737 
Q 1313 2422 1313 1825 
z
M 738 2988 
L 184 2988 
L 184 3322 
L 1313 3322 
L 1313 2803 
Q 1481 3116 1742 3264 
Q 2003 3413 2388 3413 
Q 3000 3413 3387 2928 
Q 3775 2444 3775 1663 
Q 3775 881 3387 395 
Q 3000 -91 2388 -91 
Q 2003 -91 1742 57 
Q 1481 206 1313 519 
L 1313 -997 
L 1856 -997 
L 1856 -1331 
L 184 -1331 
L 184 -997 
L 738 -997 
L 738 2988 
z
" transform="scale(0.015625)"/>
      <path id="DejaVuSerif-6f" d="M 1925 219 
Q 2388 219 2623 584 
Q 2859 950 2859 1663 
Q 2859 2375 2623 2739 
Q 2388 3103 1925 3103 
Q 1463 3103 1227 2739 
Q 991 2375 991 1663 
Q 991 950 1228 584 
Q 1466 219 1925 219 
z
M 1925 -91 
Q 1200 -91 759 389 
Q 319 869 319 1663 
Q 319 2456 758 2934 
Q 1197 3413 1925 3413 
Q 2653 3413 3092 2934 
Q 3531 2456 3531 1663 
Q 3531 869 3092 389 
Q 2653 -91 1925 -91 
z
" transform="scale(0.015625)"/>
      <path id="DejaVuSerif-74" d="M 691 2988 
L 184 2988 
L 184 3322 
L 691 3322 
L 691 4353 
L 1269 4353 
L 1269 3322 
L 2350 3322 
L 2350 2988 
L 1269 2988 
L 1269 878 
Q 1269 456 1350 337 
Q 1431 219 1650 219 
Q 1875 219 1978 351 
Q 2081 484 2088 781 
L 2522 781 
Q 2497 328 2275 118 
Q 2053 -91 1600 -91 
Q 1103 -91 897 129 
Q 691 350 691 878 
L 691 2988 
z
" transform="scale(0.015625)"/>
      <path id="Cmr10-28" d="M 1984 -1588 
Q 1628 -1306 1370 -942 
Q 1113 -578 948 -165 
Q 784 247 703 697 
Q 622 1147 622 1600 
Q 622 2059 703 2509 
Q 784 2959 951 3375 
Q 1119 3791 1378 4153 
Q 1638 4516 1984 4788 
Q 1984 4800 2016 4800 
L 2075 4800 
Q 2094 4800 2109 4783 
Q 2125 4766 2125 4744 
Q 2125 4716 2113 4703 
Q 1800 4397 1592 4047 
Q 1384 3697 1257 3301 
Q 1131 2906 1075 2482 
Q 1019 2059 1019 1600 
Q 1019 -434 2106 -1491 
Q 2125 -1509 2125 -1544 
Q 2125 -1559 2108 -1579 
Q 2091 -1600 2075 -1600 
L 2016 -1600 
Q 1984 -1600 1984 -1588 
z
" transform="scale(0.015625)"/>
      <path id="Cmmi10-61" d="M 1113 -72 
Q 709 -72 476 233 
Q 244 538 244 953 
Q 244 1363 456 1803 
Q 669 2244 1030 2536 
Q 1391 2828 1806 2828 
Q 1997 2828 2147 2725 
Q 2297 2622 2381 2444 
Q 2453 2700 2663 2700 
Q 2744 2700 2798 2651 
Q 2853 2603 2853 2522 
Q 2853 2503 2851 2493 
Q 2850 2484 2847 2472 
L 2400 684 
Q 2356 494 2356 372 
Q 2356 97 2541 97 
Q 2741 97 2845 351 
Q 2950 606 3022 941 
Q 3034 978 3072 978 
L 3150 978 
Q 3175 978 3190 956 
Q 3206 934 3206 916 
Q 3094 469 2961 198 
Q 2828 -72 2528 -72 
Q 2313 -72 2147 54 
Q 1981 181 1941 391 
Q 1528 -72 1113 -72 
z
M 1119 97 
Q 1350 97 1567 270 
Q 1784 444 1941 678 
Q 1947 684 1947 697 
L 2291 2088 
L 2297 2106 
Q 2259 2334 2132 2498 
Q 2006 2663 1791 2663 
Q 1575 2663 1389 2486 
Q 1203 2309 1075 2069 
Q 950 1813 836 1366 
Q 722 919 722 672 
Q 722 450 817 273 
Q 913 97 1119 97 
z
" transform="scale(0.015625)"/>
      <path id="Cmmi10-3b" d="M 634 -1153 
Q 634 -1125 659 -1100 
Q 891 -878 1019 -587 
Q 1147 -297 1147 25 
L 1147 103 
Q 1044 0 891 0 
Q 744 0 641 103 
Q 538 206 538 353 
Q 538 503 641 603 
Q 744 703 891 703 
Q 1119 703 1216 492 
Q 1313 281 1313 25 
Q 1313 -331 1170 -651 
Q 1028 -972 769 -1228 
Q 744 -1241 728 -1241 
Q 697 -1241 665 -1212 
Q 634 -1184 634 -1153 
z
" transform="scale(0.015625)"/>
      <path id="Cmmi10-62" d="M 1106 -72 
Q 719 -72 503 231 
Q 288 534 288 941 
Q 288 1000 317 1173 
Q 347 1347 347 1388 
L 966 3872 
Q 991 3981 997 4044 
Q 997 4147 581 4147 
Q 519 4147 519 4231 
Q 522 4247 533 4287 
Q 544 4328 561 4350 
Q 578 4372 609 4372 
L 1472 4441 
Q 1550 4441 1550 4359 
L 1075 2472 
Q 1438 2828 1806 2828 
Q 2078 2828 2273 2684 
Q 2469 2541 2566 2306 
Q 2663 2072 2663 1806 
Q 2663 1497 2542 1167 
Q 2422 838 2209 555 
Q 1997 272 1712 100 
Q 1428 -72 1106 -72 
z
M 1119 97 
Q 1338 97 1528 280 
Q 1719 463 1838 691 
Q 1966 947 2077 1386 
Q 2188 1825 2188 2088 
Q 2188 2316 2092 2489 
Q 1997 2663 1791 2663 
Q 1559 2663 1348 2492 
Q 1138 2322 978 2088 
L 800 1363 
Q 697 959 691 716 
Q 691 475 795 286 
Q 900 97 1119 97 
z
" transform="scale(0.015625)"/>
      <path id="Cmr10-29" d="M 416 -1600 
Q 359 -1600 359 -1544 
Q 359 -1516 372 -1503 
Q 1466 -434 1466 1600 
Q 1466 3634 384 4691 
Q 359 4706 359 4744 
Q 359 4766 376 4783 
Q 394 4800 416 4800 
L 475 4800 
Q 494 4800 506 4788 
Q 966 4425 1272 3906 
Q 1578 3388 1720 2800 
Q 1863 2213 1863 1600 
Q 1863 1147 1786 708 
Q 1709 269 1542 -157 
Q 1375 -584 1119 -945 
Q 863 -1306 506 -1588 
Q 494 -1600 475 -1600 
L 416 -1600 
z
" transform="scale(0.015625)"/>
      <path id="DejaVuSerif-77" d="M 3072 3322 
L 3922 728 
L 4672 2988 
L 4191 2988 
L 4191 3322 
L 5394 3322 
L 5394 2988 
L 5025 2988 
L 4038 0 
L 3559 0 
L 2741 2484 
L 1919 0 
L 1459 0 
L 475 2988 
L 103 2988 
L 103 3322 
L 1606 3322 
L 1606 2988 
L 1069 2988 
L 1813 728 
L 2669 3322 
L 3072 3322 
z
" transform="scale(0.015625)"/>
      <path id="DejaVuSerif-68" d="M 263 0 
L 263 331 
L 781 331 
L 781 4531 
L 231 4531 
L 231 4863 
L 1356 4863 
L 1356 2731 
Q 1516 3069 1770 3241 
Q 2025 3413 2363 3413 
Q 2913 3413 3172 3097 
Q 3431 2781 3431 2113 
L 3431 331 
L 3944 331 
L 3944 0 
L 2356 0 
L 2356 331 
L 2853 331 
L 2853 1931 
Q 2853 2541 2704 2764 
Q 2556 2988 2175 2988 
Q 1775 2988 1565 2697 
Q 1356 2406 1356 1850 
L 1356 331 
L 1856 331 
L 1856 0 
L 263 0 
z
" transform="scale(0.015625)"/>
      <path id="Cmr10-30" d="M 1600 -141 
Q 816 -141 533 504 
Q 250 1150 250 2041 
Q 250 2597 351 3087 
Q 453 3578 754 3920 
Q 1056 4263 1600 4263 
Q 2022 4263 2290 4056 
Q 2559 3850 2700 3523 
Q 2841 3197 2892 2823 
Q 2944 2450 2944 2041 
Q 2944 1491 2842 1011 
Q 2741 531 2444 195 
Q 2147 -141 1600 -141 
z
M 1600 25 
Q 1956 25 2131 390 
Q 2306 756 2347 1200 
Q 2388 1644 2388 2144 
Q 2388 2625 2347 3031 
Q 2306 3438 2132 3767 
Q 1959 4097 1600 4097 
Q 1238 4097 1063 3765 
Q 888 3434 847 3029 
Q 806 2625 806 2144 
Q 806 1788 823 1472 
Q 841 1156 916 820 
Q 991 484 1158 254 
Q 1325 25 1600 25 
z
" transform="scale(0.015625)"/>
      <path id="Cmmi10-3c" d="M 594 1491 
Q 531 1519 531 1600 
Q 531 1681 616 1722 
L 4269 3444 
Q 4294 3456 4313 3456 
Q 4369 3456 4405 3417 
Q 4441 3378 4441 3328 
Q 4441 3250 4366 3206 
L 959 1600 
L 4384 -19 
Q 4441 -38 4441 -128 
Q 4441 -178 4405 -217 
Q 4369 -256 4313 -256 
Q 4294 -256 4269 -244 
L 594 1491 
z
" transform="scale(0.015625)"/>
      <path id="DejaVuSerif-2c" d="M 231 -622 
Q 525 -406 662 -114 
Q 800 178 800 594 
L 800 709 
L 1416 709 
Q 1391 175 1164 -208 
Q 938 -591 481 -872 
L 231 -622 
z
" transform="scale(0.015625)"/>
      <path id="DejaVuSerif-64" d="M 3359 331 
L 3909 331 
L 3909 0 
L 2784 0 
L 2784 519 
Q 2616 206 2355 57 
Q 2094 -91 1709 -91 
Q 1097 -91 708 395 
Q 319 881 319 1663 
Q 319 2444 706 2928 
Q 1094 3413 1709 3413 
Q 2094 3413 2355 3264 
Q 2616 3116 2784 2803 
L 2784 4531 
L 2241 4531 
L 2241 4863 
L 3359 4863 
L 3359 331 
z
M 2784 1497 
L 2784 1825 
Q 2784 2422 2554 2737 
Q 2325 3053 1888 3053 
Q 1444 3053 1217 2703 
Q 991 2353 991 1663 
Q 991 975 1217 622 
Q 1444 269 1888 269 
Q 2325 269 2554 583 
Q 2784 897 2784 1497 
z
" transform="scale(0.015625)"/>
      <path id="DejaVuSerif-72" d="M 3059 3328 
L 3059 2497 
L 2728 2497 
Q 2713 2744 2591 2866 
Q 2469 2988 2234 2988 
Q 1809 2988 1582 2694 
Q 1356 2400 1356 1850 
L 1356 331 
L 2022 331 
L 2022 0 
L 263 0 
L 263 331 
L 781 331 
L 781 2994 
L 231 2994 
L 231 3322 
L 1356 3322 
L 1356 2731 
Q 1525 3078 1790 3245 
Q 2056 3413 2438 3413 
Q 2578 3413 2733 3391 
Q 2888 3369 3059 3328 
z
" transform="scale(0.015625)"/>
      <path id="DejaVuSerif-6d" d="M 3316 2675 
Q 3481 3041 3739 3227 
Q 3997 3413 4341 3413 
Q 4863 3413 5119 3089 
Q 5375 2766 5375 2113 
L 5375 331 
L 5894 331 
L 5894 0 
L 4300 0 
L 4300 331 
L 4800 331 
L 4800 2047 
Q 4800 2556 4650 2772 
Q 4500 2988 4153 2988 
Q 3769 2988 3567 2697 
Q 3366 2406 3366 1850 
L 3366 331 
L 3866 331 
L 3866 0 
L 2291 0 
L 2291 331 
L 2791 331 
L 2791 2069 
Q 2791 2566 2641 2777 
Q 2491 2988 2144 2988 
Q 1759 2988 1557 2697 
Q 1356 2406 1356 1850 
L 1356 331 
L 1856 331 
L 1856 0 
L 263 0 
L 263 331 
L 781 331 
L 781 2994 
L 231 2994 
L 231 3322 
L 1356 3322 
L 1356 2731 
Q 1516 3063 1762 3238 
Q 2009 3413 2322 3413 
Q 2709 3413 2968 3220 
Q 3228 3028 3316 2675 
z
" transform="scale(0.015625)"/>
      <path id="DejaVuSerif-75" d="M 2266 3322 
L 3341 3322 
L 3341 331 
L 3884 331 
L 3884 0 
L 2766 0 
L 2766 588 
Q 2606 256 2353 82 
Q 2100 -91 1766 -91 
Q 1213 -91 952 223 
Q 691 538 691 1209 
L 691 2988 
L 172 2988 
L 172 3322 
L 1269 3322 
L 1269 1388 
Q 1269 781 1417 556 
Q 1566 331 1947 331 
Q 2347 331 2556 625 
Q 2766 919 2766 1478 
L 2766 2988 
L 2266 2988 
L 2266 3322 
z
" transform="scale(0.015625)"/>
      <path id="DejaVuSerif-66" d="M 2753 4078 
L 2450 4078 
Q 2447 4313 2317 4434 
Q 2188 4556 1941 4556 
Q 1619 4556 1487 4379 
Q 1356 4203 1356 3750 
L 1356 3322 
L 2284 3322 
L 2284 2988 
L 1356 2988 
L 1356 331 
L 2094 331 
L 2094 0 
L 231 0 
L 231 331 
L 781 331 
L 781 2988 
L 231 2988 
L 231 3322 
L 781 3322 
L 781 3738 
Q 781 4294 1070 4578 
Q 1359 4863 1919 4863 
Q 2128 4863 2337 4825 
Q 2547 4788 2753 4709 
L 2753 4078 
z
" transform="scale(0.015625)"/>
      <path id="DejaVuSerif-67" d="M 3359 2988 
L 3359 72 
Q 3359 -644 2965 -1033 
Q 2572 -1422 1844 -1422 
Q 1516 -1422 1216 -1362 
Q 916 -1303 641 -1184 
L 641 -488 
L 941 -488 
Q 997 -813 1206 -963 
Q 1416 -1113 1806 -1113 
Q 2313 -1113 2548 -827 
Q 2784 -541 2784 72 
L 2784 519 
Q 2616 206 2355 57 
Q 2094 -91 1709 -91 
Q 1097 -91 708 395 
Q 319 881 319 1663 
Q 319 2444 706 2928 
Q 1094 3413 1709 3413 
Q 2094 3413 2355 3264 
Q 2616 3116 2784 2803 
L 2784 3322 
L 3909 3322 
L 3909 2988 
L 3359 2988 
z
M 2784 1825 
Q 2784 2422 2554 2737 
Q 2325 3053 1888 3053 
Q 1444 3053 1217 2703 
Q 991 2353 991 1663 
Q 991 975 1217 622 
Q 1444 269 1888 269 
Q 2325 269 2554 583 
Q 2784 897 2784 1497 
L 2784 1825 
z
" transform="scale(0.015625)"/>
      <path id="DejaVuSerif-6c" d="M 1313 331 
L 1856 331 
L 1856 0 
L 184 0 
L 184 331 
L 738 331 
L 738 4531 
L 184 4531 
L 184 4863 
L 1313 4863 
L 1313 331 
z
" transform="scale(0.015625)"/>
      <path id="DejaVuSerif-78" d="M 1863 2028 
L 2559 2988 
L 2113 2988 
L 2113 3322 
L 3391 3322 
L 3391 2988 
L 2950 2988 
L 2059 1759 
L 3097 331 
L 3531 331 
L 3531 0 
L 1997 0 
L 1997 331 
L 2419 331 
L 1697 1325 
L 972 331 
L 1403 331 
L 1403 0 
L 141 0 
L 141 331 
L 581 331 
L 1497 1594 
L 488 2988 
L 78 2988 
L 78 3322 
L 1563 3322 
L 1563 2988 
L 1166 2988 
L 1863 2028 
z
" transform="scale(0.015625)"/>
      <path id="Cmmi10-78" d="M 500 184 
Q 613 97 819 97 
Q 1019 97 1172 289 
Q 1325 481 1381 709 
L 1672 1844 
Q 1741 2153 1741 2266 
Q 1741 2425 1652 2544 
Q 1563 2663 1403 2663 
Q 1200 2663 1022 2536 
Q 844 2409 722 2214 
Q 600 2019 550 1819 
Q 538 1778 500 1778 
L 422 1778 
Q 372 1778 372 1838 
L 372 1856 
Q 434 2094 584 2320 
Q 734 2547 951 2687 
Q 1169 2828 1416 2828 
Q 1650 2828 1839 2703 
Q 2028 2578 2106 2363 
Q 2216 2559 2386 2693 
Q 2556 2828 2759 2828 
Q 2897 2828 3040 2779 
Q 3184 2731 3275 2631 
Q 3366 2531 3366 2381 
Q 3366 2219 3261 2101 
Q 3156 1984 2994 1984 
Q 2891 1984 2822 2050 
Q 2753 2116 2753 2216 
Q 2753 2350 2845 2451 
Q 2938 2553 3066 2572 
Q 2950 2663 2747 2663 
Q 2541 2663 2389 2472 
Q 2238 2281 2175 2047 
L 1894 916 
Q 1825 659 1825 494 
Q 1825 331 1917 214 
Q 2009 97 2163 97 
Q 2463 97 2698 361 
Q 2934 625 3009 941 
Q 3022 978 3059 978 
L 3138 978 
Q 3163 978 3178 961 
Q 3194 944 3194 922 
Q 3194 916 3188 903 
Q 3097 522 2806 225 
Q 2516 -72 2150 -72 
Q 1916 -72 1727 54 
Q 1538 181 1459 397 
Q 1359 209 1182 68 
Q 1006 -72 806 -72 
Q 669 -72 523 -23 
Q 378 25 287 125 
Q 197 225 197 378 
Q 197 528 301 651 
Q 406 775 563 775 
Q 669 775 741 711 
Q 813 647 813 544 
Q 813 409 723 309 
Q 634 209 500 184 
z
" transform="scale(0.015625)"/>
      <path id="DejaVuSerif-2d" d="M 281 1959 
L 1881 1959 
L 1881 1472 
L 281 1472 
L 281 1959 
z
" transform="scale(0.015625)"/>
      <path id="DejaVuSerif-73" d="M 359 184 
L 359 959 
L 691 959 
Q 703 588 923 403 
Q 1144 219 1575 219 
Q 1963 219 2166 364 
Q 2369 509 2369 788 
Q 2369 1006 2220 1140 
Q 2072 1275 1594 1428 
L 1178 1569 
Q 750 1706 558 1912 
Q 366 2119 366 2438 
Q 366 2894 700 3153 
Q 1034 3413 1625 3413 
Q 1888 3413 2178 3344 
Q 2469 3275 2778 3144 
L 2778 2419 
L 2447 2419 
Q 2434 2741 2221 2922 
Q 2009 3103 1644 3103 
Q 1281 3103 1095 2975 
Q 909 2847 909 2591 
Q 909 2381 1050 2254 
Q 1191 2128 1613 1997 
L 2069 1856 
Q 2541 1709 2748 1489 
Q 2956 1269 2956 922 
Q 2956 450 2595 179 
Q 2234 -91 1600 -91 
Q 1278 -91 972 -22 
Q 666 47 359 184 
z
" transform="scale(0.015625)"/>
      <path id="Cmmi10-79" d="M 538 -916 
Q 672 -1147 1006 -1147 
Q 1309 -1147 1531 -934 
Q 1753 -722 1889 -420 
Q 2025 -119 2100 197 
Q 1816 -72 1484 -72 
Q 1231 -72 1053 15 
Q 875 103 776 276 
Q 678 450 678 697 
Q 678 906 734 1126 
Q 791 1347 892 1617 
Q 994 1888 1069 2088 
Q 1153 2322 1153 2472 
Q 1153 2663 1013 2663 
Q 759 2663 595 2402 
Q 431 2141 353 1819 
Q 341 1778 300 1778 
L 225 1778 
Q 172 1778 172 1838 
L 172 1856 
Q 275 2238 487 2533 
Q 700 2828 1025 2828 
Q 1253 2828 1411 2678 
Q 1569 2528 1569 2297 
Q 1569 2178 1516 2047 
Q 1488 1969 1388 1706 
Q 1288 1444 1234 1272 
Q 1181 1100 1147 934 
Q 1113 769 1113 603 
Q 1113 391 1203 244 
Q 1294 97 1491 97 
Q 1888 97 2203 581 
L 2688 2553 
Q 2709 2638 2787 2698 
Q 2866 2759 2956 2759 
Q 3034 2759 3092 2709 
Q 3150 2659 3150 2578 
Q 3150 2541 3144 2528 
L 2509 -19 
Q 2425 -347 2200 -647 
Q 1975 -947 1658 -1130 
Q 1341 -1313 997 -1313 
Q 831 -1313 668 -1248 
Q 506 -1184 406 -1056 
Q 306 -928 306 -756 
Q 306 -581 409 -453 
Q 513 -325 684 -325 
Q 788 -325 858 -389 
Q 928 -453 928 -556 
Q 928 -703 818 -812 
Q 709 -922 563 -922 
Q 556 -919 550 -917 
Q 544 -916 538 -916 
z
" transform="scale(0.015625)"/>
      <path id="Cmr10-3d" d="M 481 850 
Q 428 850 393 890 
Q 359 931 359 978 
Q 359 1031 393 1068 
Q 428 1106 481 1106 
L 4500 1106 
Q 4547 1106 4581 1068 
Q 4616 1031 4616 978 
Q 4616 931 4581 890 
Q 4547 850 4500 850 
L 481 850 
z
M 481 2094 
Q 428 2094 393 2131 
Q 359 2169 359 2222 
Q 359 2269 393 2309 
Q 428 2350 481 2350 
L 4500 2350 
Q 4547 2350 4581 2309 
Q 4616 2269 4616 2222 
Q 4616 2169 4581 2131 
Q 4547 2094 4500 2094 
L 481 2094 
z
" transform="scale(0.015625)"/>
      <path id="DejaVuSerif-2e" d="M 603 325 
Q 603 500 722 622 
Q 841 744 1019 744 
Q 1191 744 1312 622 
Q 1434 500 1434 325 
Q 1434 153 1312 31 
Q 1191 -91 1019 -91 
Q 841 -91 722 29 
Q 603 150 603 325 
z
" transform="scale(0.015625)"/>
      <path id="DejaVuSerif-59" d="M 1209 0 
L 1209 331 
L 1806 331 
L 1806 2009 
L 366 4331 
L -72 4331 
L -72 4666 
L 1663 4666 
L 1663 4331 
L 1119 4331 
L 2284 2444 
L 3450 4331 
L 2925 4331 
L 2925 4666 
L 4281 4666 
L 4281 4331 
L 3841 4331 
L 2438 2069 
L 2438 331 
L 3034 331 
L 3034 0 
L 1209 0 
z
" transform="scale(0.015625)"/>
      <path id="DejaVuSerif-79" d="M 1381 -609 
L 1600 -56 
L 359 2988 
L -19 2988 
L -19 3322 
L 1509 3322 
L 1509 2988 
L 978 2988 
L 1913 703 
L 2847 2988 
L 2350 2988 
L 2350 3322 
L 3597 3322 
L 3597 2988 
L 3225 2988 
L 1703 -750 
Q 1547 -1138 1356 -1280 
Q 1166 -1422 819 -1422 
Q 672 -1422 517 -1397 
Q 363 -1372 206 -1325 
L 206 -691 
L 500 -691 
Q 519 -903 608 -995 
Q 697 -1088 884 -1088 
Q 1056 -1088 1161 -992 
Q 1266 -897 1381 -609 
z
" transform="scale(0.015625)"/>
     </defs>
     <use xlink:href="#DejaVuSerif-47" transform="translate(0 0.015625)"/>
     <use xlink:href="#DejaVuSerif-69" transform="translate(79.882812 0.015625)"/>
     <use xlink:href="#DejaVuSerif-76" transform="translate(111.865234 0.015625)"/>
     <use xlink:href="#DejaVuSerif-65" transform="translate(168.359375 0.015625)"/>
     <use xlink:href="#DejaVuSerif-6e" transform="translate(227.539062 0.015625)"/>
     <use xlink:href="#DejaVuSerif-20" transform="translate(291.943359 0.015625)"/>
     <use xlink:href="#DejaVuSerif-61" transform="translate(323.730469 0.015625)"/>
     <use xlink:href="#DejaVuSerif-20" transform="translate(383.349609 0.015625)"/>
     <use xlink:href="#DejaVuSerif-70" transform="translate(415.136719 0.015625)"/>
     <use xlink:href="#DejaVuSerif-6f" transform="translate(479.150391 0.015625)"/>
     <use xlink:href="#DejaVuSerif-69" transform="translate(539.355469 0.015625)"/>
     <use xlink:href="#DejaVuSerif-6e" transform="translate(571.337891 0.015625)"/>
     <use xlink:href="#DejaVuSerif-74" transform="translate(635.742188 0.015625)"/>
     <use xlink:href="#DejaVuSerif-20" transform="translate(675.927734 0.015625)"/>
     <use xlink:href="#Cmr10-28" transform="translate(707.714844 0.015625)"/>
     <use xlink:href="#Cmmi10-61" transform="translate(746.533203 0.015625)"/>
     <use xlink:href="#Cmmi10-3b" transform="translate(799.316406 0.015625)"/>
     <use xlink:href="#Cmmi10-62" transform="translate(844.560547 0.015625)"/>
     <use xlink:href="#Cmr10-29" transform="translate(887.480469 0.015625)"/>
     <use xlink:href="#DejaVuSerif-20" transform="translate(926.298828 0.015625)"/>
     <use xlink:href="#DejaVuSerif-77" transform="translate(958.085938 0.015625)"/>
     <use xlink:href="#DejaVuSerif-69" transform="translate(1043.681641 0.015625)"/>
     <use xlink:href="#DejaVuSerif-74" transform="translate(1075.664062 0.015625)"/>
     <use xlink:href="#DejaVuSerif-68" transform="translate(1115.849609 0.015625)"/>
     <use xlink:href="#DejaVuSerif-20" transform="translate(1180.253906 0.015625)"/>
     <use xlink:href="#Cmr10-30" transform="translate(1212.041016 0.015625)"/>
     <use xlink:href="#Cmmi10-3c" transform="translate(1279.599609 0.015625)"/>
     <use xlink:href="#Cmmi10-62" transform="translate(1374.84375 0.015625)"/>
     <use xlink:href="#Cmmi10-3c" transform="translate(1435.322266 0.015625)"/>
     <use xlink:href="#Cmmi10-61" transform="translate(1530.566406 0.015625)"/>
     <use xlink:href="#DejaVuSerif-2c" transform="translate(1583.349609 0.015625)"/>
     <use xlink:href="#DejaVuSerif-20" transform="translate(1615.136719 0.015625)"/>
     <use xlink:href="#DejaVuSerif-64" transform="translate(1646.923828 0.015625)"/>
     <use xlink:href="#DejaVuSerif-65" transform="translate(1710.9375 0.015625)"/>
     <use xlink:href="#DejaVuSerif-74" transform="translate(1770.117188 0.015625)"/>
     <use xlink:href="#DejaVuSerif-65" transform="translate(1810.302734 0.015625)"/>
     <use xlink:href="#DejaVuSerif-72" transform="translate(1869.482422 0.015625)"/>
     <use xlink:href="#DejaVuSerif-6d" transform="translate(1917.285156 0.015625)"/>
     <use xlink:href="#DejaVuSerif-69" transform="translate(2012.109375 0.015625)"/>
     <use xlink:href="#DejaVuSerif-6e" transform="translate(2044.091797 0.015625)"/>
     <use xlink:href="#DejaVuSerif-65" transform="translate(2108.496094 0.015625)"/>
     <use xlink:href="#DejaVuSerif-20" transform="translate(2167.675781 0.015625)"/>
     <use xlink:href="#DejaVuSerif-74" transform="translate(2199.462891 0.015625)"/>
     <use xlink:href="#DejaVuSerif-68" transform="translate(2239.648438 0.015625)"/>
     <use xlink:href="#DejaVuSerif-65" transform="translate(2304.052734 0.015625)"/>
     <use xlink:href="#DejaVuSerif-20" transform="translate(2363.232422 0.015625)"/>
     <use xlink:href="#DejaVuSerif-6d" transform="translate(2395.019531 0.015625)"/>
     <use xlink:href="#DejaVuSerif-69" transform="translate(2489.84375 0.015625)"/>
     <use xlink:href="#DejaVuSerif-6e" transform="translate(2521.826172 0.015625)"/>
     <use xlink:href="#DejaVuSerif-69" transform="translate(2586.230469 0.015625)"/>
     <use xlink:href="#DejaVuSerif-6d" transform="translate(2618.212891 0.015625)"/>
     <use xlink:href="#DejaVuSerif-75" transform="translate(2713.037109 0.015625)"/>
     <use xlink:href="#DejaVuSerif-6d" transform="translate(2777.441406 0.015625)"/>
     <use xlink:href="#DejaVuSerif-20" transform="translate(2872.265625 0.015625)"/>
     <use xlink:href="#DejaVuSerif-70" transform="translate(2904.052734 0.015625)"/>
     <use xlink:href="#DejaVuSerif-65" transform="translate(2968.066406 0.015625)"/>
     <use xlink:href="#DejaVuSerif-72" transform="translate(3027.246094 0.015625)"/>
     <use xlink:href="#DejaVuSerif-69" transform="translate(3075.048828 0.015625)"/>
     <use xlink:href="#DejaVuSerif-6d" transform="translate(3107.03125 0.015625)"/>
     <use xlink:href="#DejaVuSerif-65" transform="translate(3201.855469 0.015625)"/>
     <use xlink:href="#DejaVuSerif-74" transform="translate(3261.035156 0.015625)"/>
     <use xlink:href="#DejaVuSerif-65" transform="translate(3301.220703 0.015625)"/>
     <use xlink:href="#DejaVuSerif-72" transform="translate(3360.400391 0.015625)"/>
     <use xlink:href="#DejaVuSerif-20" transform="translate(3408.203125 0.015625)"/>
     <use xlink:href="#DejaVuSerif-6f" transform="translate(3439.990234 0.015625)"/>
     <use xlink:href="#DejaVuSerif-66" transform="translate(3500.195312 0.015625)"/>
     <use xlink:href="#DejaVuSerif-20" transform="translate(3537.207031 0.015625)"/>
     <use xlink:href="#DejaVuSerif-61" transform="translate(3568.994141 0.015625)"/>
     <use xlink:href="#DejaVuSerif-20" transform="translate(3628.613281 0.015625)"/>
     <use xlink:href="#DejaVuSerif-74" transform="translate(3660.400391 0.015625)"/>
     <use xlink:href="#DejaVuSerif-72" transform="translate(3700.585938 0.015625)"/>
     <use xlink:href="#DejaVuSerif-69" transform="translate(3748.388672 0.015625)"/>
     <use xlink:href="#DejaVuSerif-61" transform="translate(3780.371094 0.015625)"/>
     <use xlink:href="#DejaVuSerif-6e" transform="translate(3839.990234 0.015625)"/>
     <use xlink:href="#DejaVuSerif-67" transform="translate(3904.394531 0.015625)"/>
     <use xlink:href="#DejaVuSerif-6c" transform="translate(3968.408203 0.015625)"/>
     <use xlink:href="#DejaVuSerif-65" transform="translate(4000.390625 0.015625)"/>
     <use xlink:href="#DejaVuSerif-20" transform="translate(4059.570312 0.015625)"/>
     <use xlink:href="#DejaVuSerif-77" transform="translate(4091.357422 0.015625)"/>
     <use xlink:href="#DejaVuSerif-69" transform="translate(4176.953125 0.015625)"/>
     <use xlink:href="#DejaVuSerif-74" transform="translate(4208.935547 0.015625)"/>
     <use xlink:href="#DejaVuSerif-68" transform="translate(4249.121094 0.015625)"/>
     <use xlink:href="#DejaVuSerif-20" transform="translate(4313.525391 0.015625)"/>
     <use xlink:href="#DejaVuSerif-6f" transform="translate(4345.3125 0.015625)"/>
     <use xlink:href="#DejaVuSerif-6e" transform="translate(4405.517578 0.015625)"/>
     <use xlink:href="#DejaVuSerif-65" transform="translate(4469.921875 0.015625)"/>
     <use xlink:href="#DejaVuSerif-20" transform="translate(4529.101562 0.015625)"/>
     <use xlink:href="#DejaVuSerif-76" transform="translate(4560.888672 0.015625)"/>
     <use xlink:href="#DejaVuSerif-65" transform="translate(4617.382812 0.015625)"/>
     <use xlink:href="#DejaVuSerif-72" transform="translate(4676.5625 0.015625)"/>
     <use xlink:href="#DejaVuSerif-74" transform="translate(4724.365234 0.015625)"/>
     <use xlink:href="#DejaVuSerif-65" transform="translate(4764.550781 0.015625)"/>
     <use xlink:href="#DejaVuSerif-78" transform="translate(4823.730469 0.015625)"/>
     <use xlink:href="#DejaVuSerif-20" transform="translate(4880.126953 0.015625)"/>
     <use xlink:href="#DejaVuSerif-61" transform="translate(4911.914062 0.015625)"/>
     <use xlink:href="#DejaVuSerif-74" transform="translate(4971.533203 0.015625)"/>
     <use xlink:href="#DejaVuSerif-20" transform="translate(5011.71875 0.015625)"/>
     <use xlink:href="#Cmr10-28" transform="translate(5043.505859 0.015625)"/>
     <use xlink:href="#Cmmi10-61" transform="translate(5082.324219 0.015625)"/>
     <use xlink:href="#Cmmi10-3b" transform="translate(5135.107422 0.015625)"/>
     <use xlink:href="#Cmmi10-62" transform="translate(5180.351562 0.015625)"/>
     <use xlink:href="#Cmr10-29" transform="translate(5223.271484 0.015625)"/>
     <use xlink:href="#DejaVuSerif-2c" transform="translate(5262.089844 0.015625)"/>
     <use xlink:href="#DejaVuSerif-20" transform="translate(5293.876953 0.015625)"/>
     <use xlink:href="#DejaVuSerif-6f" transform="translate(5325.664062 0.015625)"/>
     <use xlink:href="#DejaVuSerif-6e" transform="translate(5385.869141 0.015625)"/>
     <use xlink:href="#DejaVuSerif-65" transform="translate(5450.273438 0.015625)"/>
     <use xlink:href="#DejaVuSerif-20" transform="translate(5509.453125 0.015625)"/>
     <use xlink:href="#DejaVuSerif-6f" transform="translate(5541.240234 0.015625)"/>
     <use xlink:href="#DejaVuSerif-6e" transform="translate(5601.445312 0.015625)"/>
     <use xlink:href="#DejaVuSerif-20" transform="translate(5665.849609 0.015625)"/>
     <use xlink:href="#DejaVuSerif-74" transform="translate(5697.636719 0.015625)"/>
     <use xlink:href="#DejaVuSerif-68" transform="translate(5737.822266 0.015625)"/>
     <use xlink:href="#DejaVuSerif-65" transform="translate(5802.226562 0.015625)"/>
     <use xlink:href="#DejaVuSerif-20" transform="translate(5861.40625 0.015625)"/>
     <use xlink:href="#Cmmi10-78" transform="translate(5893.193359 0.015625)"/>
     <use xlink:href="#DejaVuSerif-2d" transform="translate(5950.273438 0.015625)"/>
     <use xlink:href="#DejaVuSerif-61" transform="translate(5984.0625 0.015625)"/>
     <use xlink:href="#DejaVuSerif-78" transform="translate(6043.681641 0.015625)"/>
     <use xlink:href="#DejaVuSerif-69" transform="translate(6100.078125 0.015625)"/>
     <use xlink:href="#DejaVuSerif-73" transform="translate(6132.060547 0.015625)"/>
     <use xlink:href="#DejaVuSerif-2c" transform="translate(6183.378906 0.015625)"/>
     <use xlink:href="#DejaVuSerif-20" transform="translate(6215.166016 0.015625)"/>
     <use xlink:href="#DejaVuSerif-61" transform="translate(6246.953125 0.015625)"/>
     <use xlink:href="#DejaVuSerif-6e" transform="translate(6306.572266 0.015625)"/>
     <use xlink:href="#DejaVuSerif-64" transform="translate(6370.976562 0.015625)"/>
     <use xlink:href="#DejaVuSerif-20" transform="translate(6434.990234 0.015625)"/>
     <use xlink:href="#DejaVuSerif-6f" transform="translate(6466.777344 0.015625)"/>
     <use xlink:href="#DejaVuSerif-6e" transform="translate(6526.982422 0.015625)"/>
     <use xlink:href="#DejaVuSerif-65" transform="translate(6591.386719 0.015625)"/>
     <use xlink:href="#DejaVuSerif-20" transform="translate(6650.566406 0.015625)"/>
     <use xlink:href="#DejaVuSerif-6f" transform="translate(6682.353516 0.015625)"/>
     <use xlink:href="#DejaVuSerif-6e" transform="translate(6742.558594 0.015625)"/>
     <use xlink:href="#DejaVuSerif-20" transform="translate(6806.962891 0.015625)"/>
     <use xlink:href="#DejaVuSerif-74" transform="translate(6838.75 0.015625)"/>
     <use xlink:href="#DejaVuSerif-68" transform="translate(6878.935547 0.015625)"/>
     <use xlink:href="#DejaVuSerif-65" transform="translate(6943.339844 0.015625)"/>
     <use xlink:href="#DejaVuSerif-20" transform="translate(7002.519531 0.015625)"/>
     <use xlink:href="#DejaVuSerif-6c" transform="translate(7034.306641 0.015625)"/>
     <use xlink:href="#DejaVuSerif-69" transform="translate(7066.289062 0.015625)"/>
     <use xlink:href="#DejaVuSerif-6e" transform="translate(7098.271484 0.015625)"/>
     <use xlink:href="#DejaVuSerif-65" transform="translate(7162.675781 0.015625)"/>
     <use xlink:href="#DejaVuSerif-20" transform="translate(7221.855469 0.015625)"/>
     <use xlink:href="#Cmmi10-79" transform="translate(7253.642578 0.015625)"/>
     <use xlink:href="#Cmr10-3d" transform="translate(7320.224609 0.015625)"/>
     <use xlink:href="#Cmmi10-78" transform="translate(7415.46875 0.015625)"/>
     <use xlink:href="#DejaVuSerif-2e" transform="translate(7472.548828 0.015625)"/>
     <use xlink:href="#DejaVuSerif-20" transform="translate(7504.335938 0.015625)"/>
     <use xlink:href="#DejaVuSerif-20" transform="translate(7536.123047 0.015625)"/>
     <use xlink:href="#DejaVuSerif-59" transform="translate(7567.910156 0.015625)"/>
     <use xlink:href="#DejaVuSerif-6f" transform="translate(7633.925781 0.015625)"/>
     <use xlink:href="#DejaVuSerif-75" transform="translate(7694.130859 0.015625)"/>
     <use xlink:href="#DejaVuSerif-20" transform="translate(7758.535156 0.015625)"/>
     <use xlink:href="#DejaVuSerif-6d" transform="translate(7790.322266 0.015625)"/>
     <use xlink:href="#DejaVuSerif-61" transform="translate(7885.146484 0.015625)"/>
     <use xlink:href="#DejaVuSerif-79" transform="translate(7944.765625 0.015625)"/>
     <use xlink:href="#DejaVuSerif-20" transform="translate(8001.259766 0.015625)"/>
     <use xlink:href="#DejaVuSerif-61" transform="translate(8033.046875 0.015625)"/>
     <use xlink:href="#DejaVuSerif-73" transform="translate(8092.666016 0.015625)"/>
     <use xlink:href="#DejaVuSerif-73" transform="translate(8143.984375 0.015625)"/>
     <use xlink:href="#DejaVuSerif-75" transform="translate(8195.302734 0.015625)"/>
     <use xlink:href="#DejaVuSerif-6d" transform="translate(8259.707031 0.015625)"/>
     <use xlink:href="#DejaVuSerif-65" transform="translate(8354.53125 0.015625)"/>
     <use xlink:href="#DejaVuSerif-20" transform="translate(8413.710938 0.015625)"/>
     <use xlink:href="#DejaVuSerif-74" transform="translate(8445.498047 0.015625)"/>
     <use xlink:href="#DejaVuSerif-68" transform="translate(8485.683594 0.015625)"/>
     <use xlink:href="#DejaVuSerif-61" transform="translate(8550.087891 0.015625)"/>
     <use xlink:href="#DejaVuSerif-74" transform="translate(8609.707031 0.015625)"/>
     <use xlink:href="#DejaVuSerif-20" transform="translate(8649.892578 0.015625)"/>
     <use xlink:href="#DejaVuSerif-61" transform="translate(8681.679688 0.015625)"/>
     <use xlink:href="#DejaVuSerif-20" transform="translate(8741.298828 0.015625)"/>
     <use xlink:href="#DejaVuSerif-74" transform="translate(8773.085938 0.015625)"/>
     <use xlink:href="#DejaVuSerif-72" transform="translate(8813.271484 0.015625)"/>
     <use xlink:href="#DejaVuSerif-69" transform="translate(8861.074219 0.015625)"/>
     <use xlink:href="#DejaVuSerif-61" transform="translate(8893.056641 0.015625)"/>
     <use xlink:href="#DejaVuSerif-6e" transform="translate(8952.675781 0.015625)"/>
     <use xlink:href="#DejaVuSerif-67" transform="translate(9017.080078 0.015625)"/>
     <use xlink:href="#DejaVuSerif-6c" transform="translate(9081.09375 0.015625)"/>
     <use xlink:href="#DejaVuSerif-65" transform="translate(9113.076172 0.015625)"/>
     <use xlink:href="#DejaVuSerif-20" transform="translate(9172.255859 0.015625)"/>
     <use xlink:href="#DejaVuSerif-6f" transform="translate(9204.042969 0.015625)"/>
     <use xlink:href="#DejaVuSerif-66" transform="translate(9264.248047 0.015625)"/>
     <use xlink:href="#DejaVuSerif-20" transform="translate(9301.259766 0.015625)"/>
     <use xlink:href="#DejaVuSerif-6d" transform="translate(9333.046875 0.015625)"/>
     <use xlink:href="#DejaVuSerif-69" transform="translate(9427.871094 0.015625)"/>
     <use xlink:href="#DejaVuSerif-6e" transform="translate(9459.853516 0.015625)"/>
     <use xlink:href="#DejaVuSerif-69" transform="translate(9524.257812 0.015625)"/>
     <use xlink:href="#DejaVuSerif-6d" transform="translate(9556.240234 0.015625)"/>
     <use xlink:href="#DejaVuSerif-75" transform="translate(9651.064453 0.015625)"/>
     <use xlink:href="#DejaVuSerif-6d" transform="translate(9715.46875 0.015625)"/>
     <use xlink:href="#DejaVuSerif-20" transform="translate(9810.292969 0.015625)"/>
     <use xlink:href="#DejaVuSerif-70" transform="translate(9842.080078 0.015625)"/>
     <use xlink:href="#DejaVuSerif-65" transform="translate(9906.09375 0.015625)"/>
     <use xlink:href="#DejaVuSerif-72" transform="translate(9965.273438 0.015625)"/>
     <use xlink:href="#DejaVuSerif-69" transform="translate(10013.076172 0.015625)"/>
     <use xlink:href="#DejaVuSerif-6d" transform="translate(10045.058594 0.015625)"/>
     <use xlink:href="#DejaVuSerif-65" transform="translate(10139.882812 0.015625)"/>
     <use xlink:href="#DejaVuSerif-74" transform="translate(10199.0625 0.015625)"/>
     <use xlink:href="#DejaVuSerif-65" transform="translate(10239.248047 0.015625)"/>
     <use xlink:href="#DejaVuSerif-72" transform="translate(10298.427734 0.015625)"/>
     <use xlink:href="#DejaVuSerif-20" transform="translate(10346.230469 0.015625)"/>
     <use xlink:href="#DejaVuSerif-65" transform="translate(10378.017578 0.015625)"/>
     <use xlink:href="#DejaVuSerif-78" transform="translate(10437.197266 0.015625)"/>
     <use xlink:href="#DejaVuSerif-69" transform="translate(10493.59375 0.015625)"/>
     <use xlink:href="#DejaVuSerif-73" transform="translate(10525.576172 0.015625)"/>
     <use xlink:href="#DejaVuSerif-74" transform="translate(10576.894531 0.015625)"/>
     <use xlink:href="#DejaVuSerif-73" transform="translate(10617.080078 0.015625)"/>
     <use xlink:href="#DejaVuSerif-2e" transform="translate(10668.398438 0.015625)"/>
    </g>
   </g>
  </g>
 </g>
</svg>
