<?xml version="1.0" encoding="utf-8" standalone="no"?>
<!DOCTYPE svg PUBLIC "-//W3C//DTD SVG 1.1//EN"
  "http://www.w3.org/Graphics/SVG/1.1/DTD/svg11.dtd">
<svg xmlns:xlink="http://www.w3.org/1999/xlink" width="1156.08pt" height="180.72pt" viewBox="0 0 1156.08 180.72" xmlns="http://www.w3.org/2000/svg" version="1.1">
 <metadata>
  <rdf:RDF xmlns:dc="http://purl.org/dc/elements/1.1/" xmlns:cc="http://creativecommons.org/ns#" xmlns:rdf="http://www.w3.org/1999/02/22-rdf-syntax-ns#">
   <cc:Work>
    <dc:type rdf:resource="http://purl.org/dc/dcmitype/StillImage"/>
    <dc:date>2025-05-29T18:44:10.351044</dc:date>
    <dc:format>image/svg+xml</dc:format>
    <dc:creator>
     <cc:Agent>
      <dc:title>Matplotlib v3.10.3, https://matplotlib.org/</dc:title>
     </cc:Agent>
    </dc:creator>
   </cc:Work>
  </rdf:RDF>
 </metadata>
 <defs>
  <style type="text/css">*{stroke-linejoin: round; stroke-linecap: butt}</style>
 </defs>
 <g id="figure_1">
  <g id="patch_1">
   <path d="M 0 180.72 
L 1156.08 180.72 
L 1156.08 0 
L 0 0 
z
" style="fill: #ffffff"/>
  </g>
  <g id="axes_1">
   <g id="text_1">
    <!-- Find all continuously differentiable functions f : \mathbb{R} \rightarrow \mathbb{R} such that for every rational number $q$, the number $f(q)$ is rational and has the same denominator as $q$. -->
    <g transform="translate(7.2 93.42) scale(0.12 -0.12)">
     <defs>
      <path id="DejaVuSerif-46" d="M 353 0 
L 353 331 
L 947 331 
L 947 4331 
L 353 4331 
L 353 4666 
L 4172 4666 
L 4172 3628 
L 3788 3628 
L 3788 4281 
L 1581 4281 
L 1581 2719 
L 3175 2719 
L 3175 3303 
L 3559 3303 
L 3559 1753 
L 3175 1753 
L 3175 2338 
L 1581 2338 
L 1581 331 
L 2328 331 
L 2328 0 
L 353 0 
z
" transform="scale(0.015625)"/>
      <path id="DejaVuSerif-69" d="M 622 4353 
Q 622 4497 726 4603 
Q 831 4709 978 4709 
Q 1122 4709 1226 4603 
Q 1331 4497 1331 4353 
Q 1331 4206 1228 4103 
Q 1125 4000 978 4000 
Q 831 4000 726 4103 
Q 622 4206 622 4353 
z
M 1356 331 
L 1900 331 
L 1900 0 
L 231 0 
L 231 331 
L 781 331 
L 781 2988 
L 231 2988 
L 231 3322 
L 1356 3322 
L 1356 331 
z
" transform="scale(0.015625)"/>
      <path id="DejaVuSerif-6e" d="M 263 0 
L 263 331 
L 781 331 
L 781 2988 
L 231 2988 
L 231 3322 
L 1356 3322 
L 1356 2731 
Q 1516 3069 1770 3241 
Q 2025 3413 2363 3413 
Q 2913 3413 3172 3097 
Q 3431 2781 3431 2113 
L 3431 331 
L 3944 331 
L 3944 0 
L 2356 0 
L 2356 331 
L 2853 331 
L 2853 1931 
Q 2853 2541 2703 2767 
Q 2553 2994 2175 2994 
Q 1775 2994 1565 2701 
Q 1356 2409 1356 1850 
L 1356 331 
L 1856 331 
L 1856 0 
L 263 0 
z
" transform="scale(0.015625)"/>
      <path id="DejaVuSerif-64" d="M 3359 331 
L 3909 331 
L 3909 0 
L 2784 0 
L 2784 519 
Q 2616 206 2355 57 
Q 2094 -91 1709 -91 
Q 1097 -91 708 395 
Q 319 881 319 1663 
Q 319 2444 706 2928 
Q 1094 3413 1709 3413 
Q 2094 3413 2355 3264 
Q 2616 3116 2784 2803 
L 2784 4531 
L 2241 4531 
L 2241 4863 
L 3359 4863 
L 3359 331 
z
M 2784 1497 
L 2784 1825 
Q 2784 2422 2554 2737 
Q 2325 3053 1888 3053 
Q 1444 3053 1217 2703 
Q 991 2353 991 1663 
Q 991 975 1217 622 
Q 1444 269 1888 269 
Q 2325 269 2554 583 
Q 2784 897 2784 1497 
z
" transform="scale(0.015625)"/>
      <path id="DejaVuSerif-20" transform="scale(0.015625)"/>
      <path id="DejaVuSerif-61" d="M 2547 1044 
L 2547 1747 
L 1806 1747 
Q 1378 1747 1168 1562 
Q 959 1378 959 997 
Q 959 650 1171 447 
Q 1384 244 1747 244 
Q 2106 244 2326 466 
Q 2547 688 2547 1044 
z
M 3122 2075 
L 3122 331 
L 3634 331 
L 3634 0 
L 2547 0 
L 2547 359 
Q 2356 128 2106 18 
Q 1856 -91 1522 -91 
Q 969 -91 644 203 
Q 319 497 319 997 
Q 319 1513 691 1797 
Q 1063 2081 1741 2081 
L 2547 2081 
L 2547 2309 
Q 2547 2688 2317 2895 
Q 2088 3103 1672 3103 
Q 1328 3103 1125 2947 
Q 922 2791 872 2484 
L 575 2484 
L 575 3156 
Q 875 3284 1158 3348 
Q 1441 3413 1709 3413 
Q 2400 3413 2761 3070 
Q 3122 2728 3122 2075 
z
" transform="scale(0.015625)"/>
      <path id="DejaVuSerif-6c" d="M 1313 331 
L 1856 331 
L 1856 0 
L 184 0 
L 184 331 
L 738 331 
L 738 4531 
L 184 4531 
L 184 4863 
L 1313 4863 
L 1313 331 
z
" transform="scale(0.015625)"/>
      <path id="DejaVuSerif-63" d="M 3291 997 
Q 3169 466 2822 187 
Q 2475 -91 1925 -91 
Q 1200 -91 759 389 
Q 319 869 319 1663 
Q 319 2459 759 2936 
Q 1200 3413 1925 3413 
Q 2241 3413 2553 3339 
Q 2866 3266 3181 3116 
L 3181 2266 
L 2847 2266 
Q 2781 2703 2561 2903 
Q 2341 3103 1931 3103 
Q 1466 3103 1228 2742 
Q 991 2381 991 1663 
Q 991 944 1227 581 
Q 1463 219 1931 219 
Q 2303 219 2525 412 
Q 2747 606 2828 997 
L 3291 997 
z
" transform="scale(0.015625)"/>
      <path id="DejaVuSerif-6f" d="M 1925 219 
Q 2388 219 2623 584 
Q 2859 950 2859 1663 
Q 2859 2375 2623 2739 
Q 2388 3103 1925 3103 
Q 1463 3103 1227 2739 
Q 991 2375 991 1663 
Q 991 950 1228 584 
Q 1466 219 1925 219 
z
M 1925 -91 
Q 1200 -91 759 389 
Q 319 869 319 1663 
Q 319 2456 758 2934 
Q 1197 3413 1925 3413 
Q 2653 3413 3092 2934 
Q 3531 2456 3531 1663 
Q 3531 869 3092 389 
Q 2653 -91 1925 -91 
z
" transform="scale(0.015625)"/>
      <path id="DejaVuSerif-74" d="M 691 2988 
L 184 2988 
L 184 3322 
L 691 3322 
L 691 4353 
L 1269 4353 
L 1269 3322 
L 2350 3322 
L 2350 2988 
L 1269 2988 
L 1269 878 
Q 1269 456 1350 337 
Q 1431 219 1650 219 
Q 1875 219 1978 351 
Q 2081 484 2088 781 
L 2522 781 
Q 2497 328 2275 118 
Q 2053 -91 1600 -91 
Q 1103 -91 897 129 
Q 691 350 691 878 
L 691 2988 
z
" transform="scale(0.015625)"/>
      <path id="DejaVuSerif-75" d="M 2266 3322 
L 3341 3322 
L 3341 331 
L 3884 331 
L 3884 0 
L 2766 0 
L 2766 588 
Q 2606 256 2353 82 
Q 2100 -91 1766 -91 
Q 1213 -91 952 223 
Q 691 538 691 1209 
L 691 2988 
L 172 2988 
L 172 3322 
L 1269 3322 
L 1269 1388 
Q 1269 781 1417 556 
Q 1566 331 1947 331 
Q 2347 331 2556 625 
Q 2766 919 2766 1478 
L 2766 2988 
L 2266 2988 
L 2266 3322 
z
" transform="scale(0.015625)"/>
      <path id="DejaVuSerif-73" d="M 359 184 
L 359 959 
L 691 959 
Q 703 588 923 403 
Q 1144 219 1575 219 
Q 1963 219 2166 364 
Q 2369 509 2369 788 
Q 2369 1006 2220 1140 
Q 2072 1275 1594 1428 
L 1178 1569 
Q 750 1706 558 1912 
Q 366 2119 366 2438 
Q 366 2894 700 3153 
Q 1034 3413 1625 3413 
Q 1888 3413 2178 3344 
Q 2469 3275 2778 3144 
L 2778 2419 
L 2447 2419 
Q 2434 2741 2221 2922 
Q 2009 3103 1644 3103 
Q 1281 3103 1095 2975 
Q 909 2847 909 2591 
Q 909 2381 1050 2254 
Q 1191 2128 1613 1997 
L 2069 1856 
Q 2541 1709 2748 1489 
Q 2956 1269 2956 922 
Q 2956 450 2595 179 
Q 2234 -91 1600 -91 
Q 1278 -91 972 -22 
Q 666 47 359 184 
z
" transform="scale(0.015625)"/>
      <path id="DejaVuSerif-79" d="M 1381 -609 
L 1600 -56 
L 359 2988 
L -19 2988 
L -19 3322 
L 1509 3322 
L 1509 2988 
L 978 2988 
L 1913 703 
L 2847 2988 
L 2350 2988 
L 2350 3322 
L 3597 3322 
L 3597 2988 
L 3225 2988 
L 1703 -750 
Q 1547 -1138 1356 -1280 
Q 1166 -1422 819 -1422 
Q 672 -1422 517 -1397 
Q 363 -1372 206 -1325 
L 206 -691 
L 500 -691 
Q 519 -903 608 -995 
Q 697 -1088 884 -1088 
Q 1056 -1088 1161 -992 
Q 1266 -897 1381 -609 
z
" transform="scale(0.015625)"/>
      <path id="DejaVuSerif-66" d="M 2753 4078 
L 2450 4078 
Q 2447 4313 2317 4434 
Q 2188 4556 1941 4556 
Q 1619 4556 1487 4379 
Q 1356 4203 1356 3750 
L 1356 3322 
L 2284 3322 
L 2284 2988 
L 1356 2988 
L 1356 331 
L 2094 331 
L 2094 0 
L 231 0 
L 231 331 
L 781 331 
L 781 2988 
L 231 2988 
L 231 3322 
L 781 3322 
L 781 3738 
Q 781 4294 1070 4578 
Q 1359 4863 1919 4863 
Q 2128 4863 2337 4825 
Q 2547 4788 2753 4709 
L 2753 4078 
z
" transform="scale(0.015625)"/>
      <path id="DejaVuSerif-65" d="M 3469 1600 
L 991 1600 
L 991 1575 
Q 991 903 1244 561 
Q 1497 219 1991 219 
Q 2369 219 2611 417 
Q 2853 616 2950 1006 
L 3413 1006 
Q 3275 459 2904 184 
Q 2534 -91 1931 -91 
Q 1203 -91 761 389 
Q 319 869 319 1663 
Q 319 2450 753 2931 
Q 1188 3413 1894 3413 
Q 2647 3413 3050 2948 
Q 3453 2484 3469 1600 
z
M 2791 1931 
Q 2772 2513 2545 2808 
Q 2319 3103 1894 3103 
Q 1497 3103 1269 2806 
Q 1041 2509 991 1931 
L 2791 1931 
z
" transform="scale(0.015625)"/>
      <path id="DejaVuSerif-72" d="M 3059 3328 
L 3059 2497 
L 2728 2497 
Q 2713 2744 2591 2866 
Q 2469 2988 2234 2988 
Q 1809 2988 1582 2694 
Q 1356 2400 1356 1850 
L 1356 331 
L 2022 331 
L 2022 0 
L 263 0 
L 263 331 
L 781 331 
L 781 2994 
L 231 2994 
L 231 3322 
L 1356 3322 
L 1356 2731 
Q 1525 3078 1790 3245 
Q 2056 3413 2438 3413 
Q 2578 3413 2733 3391 
Q 2888 3369 3059 3328 
z
" transform="scale(0.015625)"/>
      <path id="DejaVuSerif-62" d="M 738 331 
L 738 4531 
L 184 4531 
L 184 4863 
L 1313 4863 
L 1313 2803 
Q 1481 3116 1742 3264 
Q 2003 3413 2388 3413 
Q 3000 3413 3387 2928 
Q 3775 2444 3775 1663 
Q 3775 881 3387 395 
Q 3000 -91 2388 -91 
Q 2003 -91 1742 57 
Q 1481 206 1313 519 
L 1313 0 
L 184 0 
L 184 331 
L 738 331 
z
M 1313 1497 
Q 1313 897 1542 583 
Q 1772 269 2209 269 
Q 2650 269 2876 622 
Q 3103 975 3103 1663 
Q 3103 2353 2876 2703 
Q 2650 3053 2209 3053 
Q 1772 3053 1542 2737 
Q 1313 2422 1313 1825 
L 1313 1497 
z
" transform="scale(0.015625)"/>
      <path id="DejaVuSerif-3a" d="M 666 325 
Q 666 500 786 622 
Q 906 744 1081 744 
Q 1256 744 1376 622 
Q 1497 500 1497 325 
Q 1497 150 1378 29 
Q 1259 -91 1081 -91 
Q 903 -91 784 29 
Q 666 150 666 325 
z
M 666 2363 
Q 666 2538 786 2658 
Q 906 2778 1081 2778 
Q 1259 2778 1378 2659 
Q 1497 2541 1497 2363 
Q 1497 2184 1378 2065 
Q 1259 1947 1081 1947 
Q 906 1947 786 2067 
Q 666 2188 666 2363 
z
" transform="scale(0.015625)"/>
      <path id="DejaVuSerif-5c" d="M 500 4666 
L 2156 -594 
L 1656 -594 
L 0 4666 
L 500 4666 
z
" transform="scale(0.015625)"/>
      <path id="DejaVuSerif-6d" d="M 3316 2675 
Q 3481 3041 3739 3227 
Q 3997 3413 4341 3413 
Q 4863 3413 5119 3089 
Q 5375 2766 5375 2113 
L 5375 331 
L 5894 331 
L 5894 0 
L 4300 0 
L 4300 331 
L 4800 331 
L 4800 2047 
Q 4800 2556 4650 2772 
Q 4500 2988 4153 2988 
Q 3769 2988 3567 2697 
Q 3366 2406 3366 1850 
L 3366 331 
L 3866 331 
L 3866 0 
L 2291 0 
L 2291 331 
L 2791 331 
L 2791 2069 
Q 2791 2566 2641 2777 
Q 2491 2988 2144 2988 
Q 1759 2988 1557 2697 
Q 1356 2406 1356 1850 
L 1356 331 
L 1856 331 
L 1856 0 
L 263 0 
L 263 331 
L 781 331 
L 781 2994 
L 231 2994 
L 231 3322 
L 1356 3322 
L 1356 2731 
Q 1516 3063 1762 3238 
Q 2009 3413 2322 3413 
Q 2709 3413 2968 3220 
Q 3228 3028 3316 2675 
z
" transform="scale(0.015625)"/>
      <path id="DejaVuSerif-68" d="M 263 0 
L 263 331 
L 781 331 
L 781 4531 
L 231 4531 
L 231 4863 
L 1356 4863 
L 1356 2731 
Q 1516 3069 1770 3241 
Q 2025 3413 2363 3413 
Q 2913 3413 3172 3097 
Q 3431 2781 3431 2113 
L 3431 331 
L 3944 331 
L 3944 0 
L 2356 0 
L 2356 331 
L 2853 331 
L 2853 1931 
Q 2853 2541 2704 2764 
Q 2556 2988 2175 2988 
Q 1775 2988 1565 2697 
Q 1356 2406 1356 1850 
L 1356 331 
L 1856 331 
L 1856 0 
L 263 0 
z
" transform="scale(0.015625)"/>
      <path id="DejaVuSerif-7b" d="M 3272 -716 
L 3272 -1044 
L 3078 -1044 
Q 2300 -1044 2036 -812 
Q 1772 -581 1772 109 
L 1772 916 
Q 1772 1384 1603 1565 
Q 1434 1747 991 1747 
L 800 1747 
L 800 2075 
L 991 2075 
Q 1434 2075 1603 2256 
Q 1772 2438 1772 2906 
L 1772 3713 
Q 1772 4403 2036 4633 
Q 2300 4863 3078 4863 
L 3272 4863 
L 3272 4538 
L 3059 4538 
Q 2619 4538 2484 4400 
Q 2350 4263 2350 3822 
L 2350 2925 
Q 2350 2431 2194 2218 
Q 2038 2006 1631 1913 
Q 2044 1806 2197 1597 
Q 2350 1388 2350 897 
L 2350 0 
Q 2350 -441 2484 -578 
Q 2619 -716 3059 -716 
L 3272 -716 
z
" transform="scale(0.015625)"/>
      <path id="DejaVuSerif-52" d="M 3066 2316 
Q 3284 2256 3442 2114 
Q 3600 1972 3725 1716 
L 4403 331 
L 4972 331 
L 4972 0 
L 3872 0 
L 3144 1484 
Q 2934 1916 2759 2042 
Q 2584 2169 2278 2169 
L 1581 2169 
L 1581 331 
L 2241 331 
L 2241 0 
L 353 0 
L 353 331 
L 947 331 
L 947 4331 
L 353 4331 
L 353 4666 
L 2719 4666 
Q 3400 4666 3770 4341 
Q 4141 4016 4141 3419 
Q 4141 2938 3870 2661 
Q 3600 2384 3066 2316 
z
M 1581 2503 
L 2503 2503 
Q 2975 2503 3200 2726 
Q 3425 2950 3425 3419 
Q 3425 3888 3200 4109 
Q 2975 4331 2503 4331 
L 1581 4331 
L 1581 2503 
z
" transform="scale(0.015625)"/>
      <path id="DejaVuSerif-7d" d="M 800 -716 
L 1019 -716 
Q 1456 -716 1589 -580 
Q 1722 -444 1722 0 
L 1722 897 
Q 1722 1388 1875 1597 
Q 2028 1806 2438 1913 
Q 2031 2006 1876 2218 
Q 1722 2431 1722 2925 
L 1722 3822 
Q 1722 4266 1589 4402 
Q 1456 4538 1019 4538 
L 800 4538 
L 800 4863 
L 997 4863 
Q 1775 4863 2036 4633 
Q 2297 4403 2297 3713 
L 2297 2906 
Q 2297 2438 2465 2256 
Q 2634 2075 3078 2075 
L 3272 2075 
L 3272 1747 
L 3078 1747 
Q 2634 1747 2465 1565 
Q 2297 1384 2297 916 
L 2297 109 
Q 2297 -581 2036 -812 
Q 1775 -1044 997 -1044 
L 800 -1044 
L 800 -716 
z
" transform="scale(0.015625)"/>
      <path id="DejaVuSerif-67" d="M 3359 2988 
L 3359 72 
Q 3359 -644 2965 -1033 
Q 2572 -1422 1844 -1422 
Q 1516 -1422 1216 -1362 
Q 916 -1303 641 -1184 
L 641 -488 
L 941 -488 
Q 997 -813 1206 -963 
Q 1416 -1113 1806 -1113 
Q 2313 -1113 2548 -827 
Q 2784 -541 2784 72 
L 2784 519 
Q 2616 206 2355 57 
Q 2094 -91 1709 -91 
Q 1097 -91 708 395 
Q 319 881 319 1663 
Q 319 2444 706 2928 
Q 1094 3413 1709 3413 
Q 2094 3413 2355 3264 
Q 2616 3116 2784 2803 
L 2784 3322 
L 3909 3322 
L 3909 2988 
L 3359 2988 
z
M 2784 1825 
Q 2784 2422 2554 2737 
Q 2325 3053 1888 3053 
Q 1444 3053 1217 2703 
Q 991 2353 991 1663 
Q 991 975 1217 622 
Q 1444 269 1888 269 
Q 2325 269 2554 583 
Q 2784 897 2784 1497 
L 2784 1825 
z
" transform="scale(0.015625)"/>
      <path id="DejaVuSerif-77" d="M 3072 3322 
L 3922 728 
L 4672 2988 
L 4191 2988 
L 4191 3322 
L 5394 3322 
L 5394 2988 
L 5025 2988 
L 4038 0 
L 3559 0 
L 2741 2484 
L 1919 0 
L 1459 0 
L 475 2988 
L 103 2988 
L 103 3322 
L 1606 3322 
L 1606 2988 
L 1069 2988 
L 1813 728 
L 2669 3322 
L 3072 3322 
z
" transform="scale(0.015625)"/>
      <path id="DejaVuSerif-76" d="M 1581 0 
L 359 2988 
L -19 2988 
L -19 3322 
L 1509 3322 
L 1509 2988 
L 978 2988 
L 1913 703 
L 2847 2988 
L 2350 2988 
L 2350 3322 
L 3597 3322 
L 3597 2988 
L 3225 2988 
L 2003 0 
L 1581 0 
z
" transform="scale(0.015625)"/>
      <path id="Cmmi10-71" d="M 941 -1159 
Q 963 -1019 1025 -1019 
Q 1256 -1019 1389 -981 
Q 1522 -944 1563 -800 
L 1838 288 
Q 1472 -72 1106 -72 
Q 703 -72 473 233 
Q 244 538 244 953 
Q 244 1363 455 1803 
Q 666 2244 1027 2536 
Q 1388 2828 1806 2828 
Q 2000 2828 2156 2712 
Q 2313 2597 2394 2406 
Q 2431 2481 2601 2654 
Q 2772 2828 2841 2828 
Q 2913 2828 2913 2747 
L 2016 -825 
Q 2000 -919 1997 -934 
Q 1997 -1019 2419 -1019 
Q 2450 -1019 2467 -1044 
Q 2484 -1069 2484 -1100 
Q 2463 -1184 2448 -1212 
Q 2434 -1241 2375 -1241 
L 1006 -1241 
Q 941 -1241 941 -1159 
z
M 1119 97 
Q 1344 97 1558 267 
Q 1772 438 1931 672 
L 2291 2113 
Q 2253 2338 2126 2500 
Q 2000 2663 1791 2663 
Q 1575 2663 1389 2486 
Q 1203 2309 1075 2069 
Q 950 1813 836 1366 
Q 722 919 722 672 
Q 722 450 817 273 
Q 913 97 1119 97 
z
" transform="scale(0.015625)"/>
      <path id="DejaVuSerif-2c" d="M 231 -622 
Q 525 -406 662 -114 
Q 800 178 800 594 
L 800 709 
L 1416 709 
Q 1391 175 1164 -208 
Q 938 -591 481 -872 
L 231 -622 
z
" transform="scale(0.015625)"/>
      <path id="Cmmi10-66" d="M 622 -1056 
Q 741 -1147 909 -1147 
Q 1138 -1147 1281 -641 
Q 1341 -397 1606 966 
L 1900 2534 
L 1350 2534 
Q 1288 2534 1288 2619 
Q 1313 2759 1369 2759 
L 1941 2759 
L 2016 3175 
Q 2053 3369 2084 3508 
Q 2116 3647 2152 3765 
Q 2188 3884 2259 4031 
Q 2369 4241 2555 4377 
Q 2741 4513 2956 4513 
Q 3097 4513 3230 4461 
Q 3363 4409 3447 4306 
Q 3531 4203 3531 4063 
Q 3531 3900 3423 3779 
Q 3316 3659 3163 3659 
Q 3059 3659 2986 3723 
Q 2913 3788 2913 3891 
Q 2913 4031 3008 4136 
Q 3103 4241 3244 4256 
Q 3125 4347 2950 4347 
Q 2853 4347 2767 4256 
Q 2681 4166 2656 4063 
Q 2616 3900 2478 3181 
L 2400 2759 
L 3059 2759 
Q 3122 2759 3122 2675 
Q 3119 2659 3109 2620 
Q 3100 2581 3083 2557 
Q 3066 2534 3041 2534 
L 2356 2534 
L 2059 972 
Q 2003 631 1929 279 
Q 1856 -72 1723 -442 
Q 1591 -813 1384 -1063 
Q 1178 -1313 897 -1313 
Q 681 -1313 511 -1189 
Q 341 -1066 341 -863 
Q 341 -700 445 -579 
Q 550 -459 709 -459 
Q 816 -459 887 -523 
Q 959 -588 959 -691 
Q 959 -828 857 -942 
Q 756 -1056 622 -1056 
z
" transform="scale(0.015625)"/>
      <path id="Cmr10-28" d="M 1984 -1588 
Q 1628 -1306 1370 -942 
Q 1113 -578 948 -165 
Q 784 247 703 697 
Q 622 1147 622 1600 
Q 622 2059 703 2509 
Q 784 2959 951 3375 
Q 1119 3791 1378 4153 
Q 1638 4516 1984 4788 
Q 1984 4800 2016 4800 
L 2075 4800 
Q 2094 4800 2109 4783 
Q 2125 4766 2125 4744 
Q 2125 4716 2113 4703 
Q 1800 4397 1592 4047 
Q 1384 3697 1257 3301 
Q 1131 2906 1075 2482 
Q 1019 2059 1019 1600 
Q 1019 -434 2106 -1491 
Q 2125 -1509 2125 -1544 
Q 2125 -1559 2108 -1579 
Q 2091 -1600 2075 -1600 
L 2016 -1600 
Q 1984 -1600 1984 -1588 
z
" transform="scale(0.015625)"/>
      <path id="Cmr10-29" d="M 416 -1600 
Q 359 -1600 359 -1544 
Q 359 -1516 372 -1503 
Q 1466 -434 1466 1600 
Q 1466 3634 384 4691 
Q 359 4706 359 4744 
Q 359 4766 376 4783 
Q 394 4800 416 4800 
L 475 4800 
Q 494 4800 506 4788 
Q 966 4425 1272 3906 
Q 1578 3388 1720 2800 
Q 1863 2213 1863 1600 
Q 1863 1147 1786 708 
Q 1709 269 1542 -157 
Q 1375 -584 1119 -945 
Q 863 -1306 506 -1588 
Q 494 -1600 475 -1600 
L 416 -1600 
z
" transform="scale(0.015625)"/>
      <path id="DejaVuSerif-2e" d="M 603 325 
Q 603 500 722 622 
Q 841 744 1019 744 
Q 1191 744 1312 622 
Q 1434 500 1434 325 
Q 1434 153 1312 31 
Q 1191 -91 1019 -91 
Q 841 -91 722 29 
Q 603 150 603 325 
z
" transform="scale(0.015625)"/>
     </defs>
     <use xlink:href="#DejaVuSerif-46" transform="translate(0 0.015625)"/>
     <use xlink:href="#DejaVuSerif-69" transform="translate(69.384766 0.015625)"/>
     <use xlink:href="#DejaVuSerif-6e" transform="translate(101.367188 0.015625)"/>
     <use xlink:href="#DejaVuSerif-64" transform="translate(165.771484 0.015625)"/>
     <use xlink:href="#DejaVuSerif-20" transform="translate(229.785156 0.015625)"/>
     <use xlink:href="#DejaVuSerif-61" transform="translate(261.572266 0.015625)"/>
     <use xlink:href="#DejaVuSerif-6c" transform="translate(321.191406 0.015625)"/>
     <use xlink:href="#DejaVuSerif-6c" transform="translate(353.173828 0.015625)"/>
     <use xlink:href="#DejaVuSerif-20" transform="translate(385.15625 0.015625)"/>
     <use xlink:href="#DejaVuSerif-63" transform="translate(416.943359 0.015625)"/>
     <use xlink:href="#DejaVuSerif-6f" transform="translate(472.949219 0.015625)"/>
     <use xlink:href="#DejaVuSerif-6e" transform="translate(533.154297 0.015625)"/>
     <use xlink:href="#DejaVuSerif-74" transform="translate(597.558594 0.015625)"/>
     <use xlink:href="#DejaVuSerif-69" transform="translate(637.744141 0.015625)"/>
     <use xlink:href="#DejaVuSerif-6e" transform="translate(669.726562 0.015625)"/>
     <use xlink:href="#DejaVuSerif-75" transform="translate(734.130859 0.015625)"/>
     <use xlink:href="#DejaVuSerif-6f" transform="translate(798.535156 0.015625)"/>
     <use xlink:href="#DejaVuSerif-75" transform="translate(858.740234 0.015625)"/>
     <use xlink:href="#DejaVuSerif-73" transform="translate(923.144531 0.015625)"/>
     <use xlink:href="#DejaVuSerif-6c" transform="translate(974.462891 0.015625)"/>
     <use xlink:href="#DejaVuSerif-79" transform="translate(1006.445312 0.015625)"/>
     <use xlink:href="#DejaVuSerif-20" transform="translate(1062.939453 0.015625)"/>
     <use xlink:href="#DejaVuSerif-64" transform="translate(1094.726562 0.015625)"/>
     <use xlink:href="#DejaVuSerif-69" transform="translate(1158.740234 0.015625)"/>
     <use xlink:href="#DejaVuSerif-66" transform="translate(1190.722656 0.015625)"/>
     <use xlink:href="#DejaVuSerif-66" transform="translate(1227.734375 0.015625)"/>
     <use xlink:href="#DejaVuSerif-65" transform="translate(1264.746094 0.015625)"/>
     <use xlink:href="#DejaVuSerif-72" transform="translate(1323.925781 0.015625)"/>
     <use xlink:href="#DejaVuSerif-65" transform="translate(1371.728516 0.015625)"/>
     <use xlink:href="#DejaVuSerif-6e" transform="translate(1430.908203 0.015625)"/>
     <use xlink:href="#DejaVuSerif-74" transform="translate(1495.3125 0.015625)"/>
     <use xlink:href="#DejaVuSerif-69" transform="translate(1535.498047 0.015625)"/>
     <use xlink:href="#DejaVuSerif-61" transform="translate(1567.480469 0.015625)"/>
     <use xlink:href="#DejaVuSerif-62" transform="translate(1627.099609 0.015625)"/>
     <use xlink:href="#DejaVuSerif-6c" transform="translate(1691.113281 0.015625)"/>
     <use xlink:href="#DejaVuSerif-65" transform="translate(1723.095703 0.015625)"/>
     <use xlink:href="#DejaVuSerif-20" transform="translate(1782.275391 0.015625)"/>
     <use xlink:href="#DejaVuSerif-66" transform="translate(1814.0625 0.015625)"/>
     <use xlink:href="#DejaVuSerif-75" transform="translate(1851.074219 0.015625)"/>
     <use xlink:href="#DejaVuSerif-6e" transform="translate(1915.478516 0.015625)"/>
     <use xlink:href="#DejaVuSerif-63" transform="translate(1979.882812 0.015625)"/>
     <use xlink:href="#DejaVuSerif-74" transform="translate(2035.888672 0.015625)"/>
     <use xlink:href="#DejaVuSerif-69" transform="translate(2076.074219 0.015625)"/>
     <use xlink:href="#DejaVuSerif-6f" transform="translate(2108.056641 0.015625)"/>
     <use xlink:href="#DejaVuSerif-6e" transform="translate(2168.261719 0.015625)"/>
     <use xlink:href="#DejaVuSerif-73" transform="translate(2232.666016 0.015625)"/>
     <use xlink:href="#DejaVuSerif-20" transform="translate(2283.984375 0.015625)"/>
     <use xlink:href="#DejaVuSerif-66" transform="translate(2315.771484 0.015625)"/>
     <use xlink:href="#DejaVuSerif-20" transform="translate(2352.783203 0.015625)"/>
     <use xlink:href="#DejaVuSerif-3a" transform="translate(2384.570312 0.015625)"/>
     <use xlink:href="#DejaVuSerif-20" transform="translate(2418.261719 0.015625)"/>
     <use xlink:href="#DejaVuSerif-5c" transform="translate(2450.048828 0.015625)"/>
     <use xlink:href="#DejaVuSerif-6d" transform="translate(2483.740234 0.015625)"/>
     <use xlink:href="#DejaVuSerif-61" transform="translate(2578.564453 0.015625)"/>
     <use xlink:href="#DejaVuSerif-74" transform="translate(2638.183594 0.015625)"/>
     <use xlink:href="#DejaVuSerif-68" transform="translate(2678.369141 0.015625)"/>
     <use xlink:href="#DejaVuSerif-62" transform="translate(2742.773438 0.015625)"/>
     <use xlink:href="#DejaVuSerif-62" transform="translate(2806.787109 0.015625)"/>
     <use xlink:href="#DejaVuSerif-7b" transform="translate(2870.800781 0.015625)"/>
     <use xlink:href="#DejaVuSerif-52" transform="translate(2934.423828 0.015625)"/>
     <use xlink:href="#DejaVuSerif-7d" transform="translate(3009.716797 0.015625)"/>
     <use xlink:href="#DejaVuSerif-20" transform="translate(3073.339844 0.015625)"/>
     <use xlink:href="#DejaVuSerif-5c" transform="translate(3105.126953 0.015625)"/>
     <use xlink:href="#DejaVuSerif-72" transform="translate(3138.818359 0.015625)"/>
     <use xlink:href="#DejaVuSerif-69" transform="translate(3186.621094 0.015625)"/>
     <use xlink:href="#DejaVuSerif-67" transform="translate(3218.603516 0.015625)"/>
     <use xlink:href="#DejaVuSerif-68" transform="translate(3282.617188 0.015625)"/>
     <use xlink:href="#DejaVuSerif-74" transform="translate(3347.021484 0.015625)"/>
     <use xlink:href="#DejaVuSerif-61" transform="translate(3387.207031 0.015625)"/>
     <use xlink:href="#DejaVuSerif-72" transform="translate(3446.826172 0.015625)"/>
     <use xlink:href="#DejaVuSerif-72" transform="translate(3494.628906 0.015625)"/>
     <use xlink:href="#DejaVuSerif-6f" transform="translate(3542.431641 0.015625)"/>
     <use xlink:href="#DejaVuSerif-77" transform="translate(3602.636719 0.015625)"/>
     <use xlink:href="#DejaVuSerif-20" transform="translate(3688.232422 0.015625)"/>
     <use xlink:href="#DejaVuSerif-5c" transform="translate(3720.019531 0.015625)"/>
     <use xlink:href="#DejaVuSerif-6d" transform="translate(3753.710938 0.015625)"/>
     <use xlink:href="#DejaVuSerif-61" transform="translate(3848.535156 0.015625)"/>
     <use xlink:href="#DejaVuSerif-74" transform="translate(3908.154297 0.015625)"/>
     <use xlink:href="#DejaVuSerif-68" transform="translate(3948.339844 0.015625)"/>
     <use xlink:href="#DejaVuSerif-62" transform="translate(4012.744141 0.015625)"/>
     <use xlink:href="#DejaVuSerif-62" transform="translate(4076.757812 0.015625)"/>
     <use xlink:href="#DejaVuSerif-7b" transform="translate(4140.771484 0.015625)"/>
     <use xlink:href="#DejaVuSerif-52" transform="translate(4204.394531 0.015625)"/>
     <use xlink:href="#DejaVuSerif-7d" transform="translate(4279.6875 0.015625)"/>
     <use xlink:href="#DejaVuSerif-20" transform="translate(4343.310547 0.015625)"/>
     <use xlink:href="#DejaVuSerif-73" transform="translate(4375.097656 0.015625)"/>
     <use xlink:href="#DejaVuSerif-75" transform="translate(4426.416016 0.015625)"/>
     <use xlink:href="#DejaVuSerif-63" transform="translate(4490.820312 0.015625)"/>
     <use xlink:href="#DejaVuSerif-68" transform="translate(4546.826172 0.015625)"/>
     <use xlink:href="#DejaVuSerif-20" transform="translate(4611.230469 0.015625)"/>
     <use xlink:href="#DejaVuSerif-74" transform="translate(4643.017578 0.015625)"/>
     <use xlink:href="#DejaVuSerif-68" transform="translate(4683.203125 0.015625)"/>
     <use xlink:href="#DejaVuSerif-61" transform="translate(4747.607422 0.015625)"/>
     <use xlink:href="#DejaVuSerif-74" transform="translate(4807.226562 0.015625)"/>
     <use xlink:href="#DejaVuSerif-20" transform="translate(4847.412109 0.015625)"/>
     <use xlink:href="#DejaVuSerif-66" transform="translate(4879.199219 0.015625)"/>
     <use xlink:href="#DejaVuSerif-6f" transform="translate(4916.210938 0.015625)"/>
     <use xlink:href="#DejaVuSerif-72" transform="translate(4976.416016 0.015625)"/>
     <use xlink:href="#DejaVuSerif-20" transform="translate(5024.21875 0.015625)"/>
     <use xlink:href="#DejaVuSerif-65" transform="translate(5056.005859 0.015625)"/>
     <use xlink:href="#DejaVuSerif-76" transform="translate(5115.185547 0.015625)"/>
     <use xlink:href="#DejaVuSerif-65" transform="translate(5171.679688 0.015625)"/>
     <use xlink:href="#DejaVuSerif-72" transform="translate(5230.859375 0.015625)"/>
     <use xlink:href="#DejaVuSerif-79" transform="translate(5278.662109 0.015625)"/>
     <use xlink:href="#DejaVuSerif-20" transform="translate(5335.15625 0.015625)"/>
     <use xlink:href="#DejaVuSerif-72" transform="translate(5366.943359 0.015625)"/>
     <use xlink:href="#DejaVuSerif-61" transform="translate(5414.746094 0.015625)"/>
     <use xlink:href="#DejaVuSerif-74" transform="translate(5474.365234 0.015625)"/>
     <use xlink:href="#DejaVuSerif-69" transform="translate(5514.550781 0.015625)"/>
     <use xlink:href="#DejaVuSerif-6f" transform="translate(5546.533203 0.015625)"/>
     <use xlink:href="#DejaVuSerif-6e" transform="translate(5606.738281 0.015625)"/>
     <use xlink:href="#DejaVuSerif-61" transform="translate(5671.142578 0.015625)"/>
     <use xlink:href="#DejaVuSerif-6c" transform="translate(5730.761719 0.015625)"/>
     <use xlink:href="#DejaVuSerif-20" transform="translate(5762.744141 0.015625)"/>
     <use xlink:href="#DejaVuSerif-6e" transform="translate(5794.53125 0.015625)"/>
     <use xlink:href="#DejaVuSerif-75" transform="translate(5858.935547 0.015625)"/>
     <use xlink:href="#DejaVuSerif-6d" transform="translate(5923.339844 0.015625)"/>
     <use xlink:href="#DejaVuSerif-62" transform="translate(6018.164062 0.015625)"/>
     <use xlink:href="#DejaVuSerif-65" transform="translate(6082.177734 0.015625)"/>
     <use xlink:href="#DejaVuSerif-72" transform="translate(6141.357422 0.015625)"/>
     <use xlink:href="#DejaVuSerif-20" transform="translate(6189.160156 0.015625)"/>
     <use xlink:href="#Cmmi10-71" transform="translate(6220.947266 0.015625)"/>
     <use xlink:href="#DejaVuSerif-2c" transform="translate(6265.527344 0.015625)"/>
     <use xlink:href="#DejaVuSerif-20" transform="translate(6297.314453 0.015625)"/>
     <use xlink:href="#DejaVuSerif-74" transform="translate(6329.101562 0.015625)"/>
     <use xlink:href="#DejaVuSerif-68" transform="translate(6369.287109 0.015625)"/>
     <use xlink:href="#DejaVuSerif-65" transform="translate(6433.691406 0.015625)"/>
     <use xlink:href="#DejaVuSerif-20" transform="translate(6492.871094 0.015625)"/>
     <use xlink:href="#DejaVuSerif-6e" transform="translate(6524.658203 0.015625)"/>
     <use xlink:href="#DejaVuSerif-75" transform="translate(6589.0625 0.015625)"/>
     <use xlink:href="#DejaVuSerif-6d" transform="translate(6653.466797 0.015625)"/>
     <use xlink:href="#DejaVuSerif-62" transform="translate(6748.291016 0.015625)"/>
     <use xlink:href="#DejaVuSerif-65" transform="translate(6812.304688 0.015625)"/>
     <use xlink:href="#DejaVuSerif-72" transform="translate(6871.484375 0.015625)"/>
     <use xlink:href="#DejaVuSerif-20" transform="translate(6919.287109 0.015625)"/>
     <use xlink:href="#Cmmi10-66" transform="translate(6951.074219 0.015625)"/>
     <use xlink:href="#Cmr10-28" transform="translate(6999.951172 0.015625)"/>
     <use xlink:href="#Cmmi10-71" transform="translate(7038.769531 0.015625)"/>
     <use xlink:href="#Cmr10-29" transform="translate(7083.349609 0.015625)"/>
     <use xlink:href="#DejaVuSerif-20" transform="translate(7122.167969 0.015625)"/>
     <use xlink:href="#DejaVuSerif-69" transform="translate(7153.955078 0.015625)"/>
     <use xlink:href="#DejaVuSerif-73" transform="translate(7185.9375 0.015625)"/>
     <use xlink:href="#DejaVuSerif-20" transform="translate(7237.255859 0.015625)"/>
     <use xlink:href="#DejaVuSerif-72" transform="translate(7269.042969 0.015625)"/>
     <use xlink:href="#DejaVuSerif-61" transform="translate(7316.845703 0.015625)"/>
     <use xlink:href="#DejaVuSerif-74" transform="translate(7376.464844 0.015625)"/>
     <use xlink:href="#DejaVuSerif-69" transform="translate(7416.650391 0.015625)"/>
     <use xlink:href="#DejaVuSerif-6f" transform="translate(7448.632812 0.015625)"/>
     <use xlink:href="#DejaVuSerif-6e" transform="translate(7508.837891 0.015625)"/>
     <use xlink:href="#DejaVuSerif-61" transform="translate(7573.242188 0.015625)"/>
     <use xlink:href="#DejaVuSerif-6c" transform="translate(7632.861328 0.015625)"/>
     <use xlink:href="#DejaVuSerif-20" transform="translate(7664.84375 0.015625)"/>
     <use xlink:href="#DejaVuSerif-61" transform="translate(7696.630859 0.015625)"/>
     <use xlink:href="#DejaVuSerif-6e" transform="translate(7756.25 0.015625)"/>
     <use xlink:href="#DejaVuSerif-64" transform="translate(7820.654297 0.015625)"/>
     <use xlink:href="#DejaVuSerif-20" transform="translate(7884.667969 0.015625)"/>
     <use xlink:href="#DejaVuSerif-68" transform="translate(7916.455078 0.015625)"/>
     <use xlink:href="#DejaVuSerif-61" transform="translate(7980.859375 0.015625)"/>
     <use xlink:href="#DejaVuSerif-73" transform="translate(8040.478516 0.015625)"/>
     <use xlink:href="#DejaVuSerif-20" transform="translate(8091.796875 0.015625)"/>
     <use xlink:href="#DejaVuSerif-74" transform="translate(8123.583984 0.015625)"/>
     <use xlink:href="#DejaVuSerif-68" transform="translate(8163.769531 0.015625)"/>
     <use xlink:href="#DejaVuSerif-65" transform="translate(8228.173828 0.015625)"/>
     <use xlink:href="#DejaVuSerif-20" transform="translate(8287.353516 0.015625)"/>
     <use xlink:href="#DejaVuSerif-73" transform="translate(8319.140625 0.015625)"/>
     <use xlink:href="#DejaVuSerif-61" transform="translate(8370.458984 0.015625)"/>
     <use xlink:href="#DejaVuSerif-6d" transform="translate(8430.078125 0.015625)"/>
     <use xlink:href="#DejaVuSerif-65" transform="translate(8524.902344 0.015625)"/>
     <use xlink:href="#DejaVuSerif-20" transform="translate(8584.082031 0.015625)"/>
     <use xlink:href="#DejaVuSerif-64" transform="translate(8615.869141 0.015625)"/>
     <use xlink:href="#DejaVuSerif-65" transform="translate(8679.882812 0.015625)"/>
     <use xlink:href="#DejaVuSerif-6e" transform="translate(8739.0625 0.015625)"/>
     <use xlink:href="#DejaVuSerif-6f" transform="translate(8803.466797 0.015625)"/>
     <use xlink:href="#DejaVuSerif-6d" transform="translate(8863.671875 0.015625)"/>
     <use xlink:href="#DejaVuSerif-69" transform="translate(8958.496094 0.015625)"/>
     <use xlink:href="#DejaVuSerif-6e" transform="translate(8990.478516 0.015625)"/>
     <use xlink:href="#DejaVuSerif-61" transform="translate(9054.882812 0.015625)"/>
     <use xlink:href="#DejaVuSerif-74" transform="translate(9114.501953 0.015625)"/>
     <use xlink:href="#DejaVuSerif-6f" transform="translate(9154.6875 0.015625)"/>
     <use xlink:href="#DejaVuSerif-72" transform="translate(9214.892578 0.015625)"/>
     <use xlink:href="#DejaVuSerif-20" transform="translate(9262.695312 0.015625)"/>
     <use xlink:href="#DejaVuSerif-61" transform="translate(9294.482422 0.015625)"/>
     <use xlink:href="#DejaVuSerif-73" transform="translate(9354.101562 0.015625)"/>
     <use xlink:href="#DejaVuSerif-20" transform="translate(9405.419922 0.015625)"/>
     <use xlink:href="#Cmmi10-71" transform="translate(9437.207031 0.015625)"/>
     <use xlink:href="#DejaVuSerif-2e" transform="translate(9481.787109 0.015625)"/>
    </g>
   </g>
  </g>
 </g>
</svg>
