<?xml version="1.0" encoding="utf-8" standalone="no"?>
<!DOCTYPE svg PUBLIC "-//W3C//DTD SVG 1.1//EN"
  "http://www.w3.org/Graphics/SVG/1.1/DTD/svg11.dtd">
<svg xmlns:xlink="http://www.w3.org/1999/xlink" width="1753.44pt" height="180.72pt" viewBox="0 0 1753.44 180.72" xmlns="http://www.w3.org/2000/svg" version="1.1">
 <metadata>
  <rdf:RDF xmlns:dc="http://purl.org/dc/elements/1.1/" xmlns:cc="http://creativecommons.org/ns#" xmlns:rdf="http://www.w3.org/1999/02/22-rdf-syntax-ns#">
   <cc:Work>
    <dc:type rdf:resource="http://purl.org/dc/dcmitype/StillImage"/>
    <dc:date>2025-05-29T18:43:48.378879</dc:date>
    <dc:format>image/svg+xml</dc:format>
    <dc:creator>
     <cc:Agent>
      <dc:title>Matplotlib v3.10.3, https://matplotlib.org/</dc:title>
     </cc:Agent>
    </dc:creator>
   </cc:Work>
  </rdf:RDF>
 </metadata>
 <defs>
  <style type="text/css">*{stroke-linejoin: round; stroke-linecap: butt}</style>
 </defs>
 <g id="figure_1">
  <g id="patch_1">
   <path d="M 0 180.72 
L 1753.44 180.72 
L 1753.44 0 
L 0 0 
z
" style="fill: #ffffff"/>
  </g>
  <g id="axes_1">
   <g id="text_1">
    <!-- Let $r$ and $s$ be positive integers. Derive a formula for the number of ordered quadruples $(a,b,c,d)$ of positive integers such that $3^r \cdot 7^s=\mathrm{lcm}[a,b,c]=\mathrm{lcm}[a,b,d]=\mathrm{lcm}[a,c,d]=\mathrm{lcm}[b,c,d]$. The answer should be a function of $r$ and $s$. (Note that $\mathrm{lcm}[x,y,z]$ denotes the least common multiple of $x,y,z$.) -->
    <g transform="translate(7.2 93.42) scale(0.12 -0.12)">
     <defs>
      <path id="DejaVuSerif-4c" d="M 353 0 
L 353 331 
L 947 331 
L 947 4331 
L 353 4331 
L 353 4666 
L 2175 4666 
L 2175 4331 
L 1581 4331 
L 1581 384 
L 3713 384 
L 3713 1166 
L 4097 1166 
L 4097 0 
L 353 0 
z
" transform="scale(0.015625)"/>
      <path id="DejaVuSerif-65" d="M 3469 1600 
L 991 1600 
L 991 1575 
Q 991 903 1244 561 
Q 1497 219 1991 219 
Q 2369 219 2611 417 
Q 2853 616 2950 1006 
L 3413 1006 
Q 3275 459 2904 184 
Q 2534 -91 1931 -91 
Q 1203 -91 761 389 
Q 319 869 319 1663 
Q 319 2450 753 2931 
Q 1188 3413 1894 3413 
Q 2647 3413 3050 2948 
Q 3453 2484 3469 1600 
z
M 2791 1931 
Q 2772 2513 2545 2808 
Q 2319 3103 1894 3103 
Q 1497 3103 1269 2806 
Q 1041 2509 991 1931 
L 2791 1931 
z
" transform="scale(0.015625)"/>
      <path id="DejaVuSerif-74" d="M 691 2988 
L 184 2988 
L 184 3322 
L 691 3322 
L 691 4353 
L 1269 4353 
L 1269 3322 
L 2350 3322 
L 2350 2988 
L 1269 2988 
L 1269 878 
Q 1269 456 1350 337 
Q 1431 219 1650 219 
Q 1875 219 1978 351 
Q 2081 484 2088 781 
L 2522 781 
Q 2497 328 2275 118 
Q 2053 -91 1600 -91 
Q 1103 -91 897 129 
Q 691 350 691 878 
L 691 2988 
z
" transform="scale(0.015625)"/>
      <path id="DejaVuSerif-20" transform="scale(0.015625)"/>
      <path id="Cmmi10-72" d="M 494 109 
Q 494 147 500 166 
L 978 2075 
Q 1025 2253 1025 2388 
Q 1025 2663 838 2663 
Q 638 2663 541 2423 
Q 444 2184 353 1819 
Q 353 1800 334 1789 
Q 316 1778 300 1778 
L 225 1778 
Q 203 1778 187 1801 
Q 172 1825 172 1844 
Q 241 2122 305 2315 
Q 369 2509 505 2668 
Q 641 2828 844 2828 
Q 1066 2828 1233 2700 
Q 1400 2572 1441 2363 
Q 1603 2575 1811 2701 
Q 2019 2828 2266 2828 
Q 2469 2828 2623 2709 
Q 2778 2591 2778 2388 
Q 2778 2225 2676 2104 
Q 2575 1984 2406 1984 
Q 2303 1984 2233 2048 
Q 2163 2113 2163 2216 
Q 2163 2356 2266 2467 
Q 2369 2578 2503 2578 
Q 2400 2663 2253 2663 
Q 1978 2663 1775 2467 
Q 1572 2272 1409 1972 
L 953 141 
Q 931 53 854 -9 
Q 778 -72 684 -72 
Q 606 -72 550 -22 
Q 494 28 494 109 
z
" transform="scale(0.015625)"/>
      <path id="DejaVuSerif-61" d="M 2547 1044 
L 2547 1747 
L 1806 1747 
Q 1378 1747 1168 1562 
Q 959 1378 959 997 
Q 959 650 1171 447 
Q 1384 244 1747 244 
Q 2106 244 2326 466 
Q 2547 688 2547 1044 
z
M 3122 2075 
L 3122 331 
L 3634 331 
L 3634 0 
L 2547 0 
L 2547 359 
Q 2356 128 2106 18 
Q 1856 -91 1522 -91 
Q 969 -91 644 203 
Q 319 497 319 997 
Q 319 1513 691 1797 
Q 1063 2081 1741 2081 
L 2547 2081 
L 2547 2309 
Q 2547 2688 2317 2895 
Q 2088 3103 1672 3103 
Q 1328 3103 1125 2947 
Q 922 2791 872 2484 
L 575 2484 
L 575 3156 
Q 875 3284 1158 3348 
Q 1441 3413 1709 3413 
Q 2400 3413 2761 3070 
Q 3122 2728 3122 2075 
z
" transform="scale(0.015625)"/>
      <path id="DejaVuSerif-6e" d="M 263 0 
L 263 331 
L 781 331 
L 781 2988 
L 231 2988 
L 231 3322 
L 1356 3322 
L 1356 2731 
Q 1516 3069 1770 3241 
Q 2025 3413 2363 3413 
Q 2913 3413 3172 3097 
Q 3431 2781 3431 2113 
L 3431 331 
L 3944 331 
L 3944 0 
L 2356 0 
L 2356 331 
L 2853 331 
L 2853 1931 
Q 2853 2541 2703 2767 
Q 2553 2994 2175 2994 
Q 1775 2994 1565 2701 
Q 1356 2409 1356 1850 
L 1356 331 
L 1856 331 
L 1856 0 
L 263 0 
z
" transform="scale(0.015625)"/>
      <path id="DejaVuSerif-64" d="M 3359 331 
L 3909 331 
L 3909 0 
L 2784 0 
L 2784 519 
Q 2616 206 2355 57 
Q 2094 -91 1709 -91 
Q 1097 -91 708 395 
Q 319 881 319 1663 
Q 319 2444 706 2928 
Q 1094 3413 1709 3413 
Q 2094 3413 2355 3264 
Q 2616 3116 2784 2803 
L 2784 4531 
L 2241 4531 
L 2241 4863 
L 3359 4863 
L 3359 331 
z
M 2784 1497 
L 2784 1825 
Q 2784 2422 2554 2737 
Q 2325 3053 1888 3053 
Q 1444 3053 1217 2703 
Q 991 2353 991 1663 
Q 991 975 1217 622 
Q 1444 269 1888 269 
Q 2325 269 2554 583 
Q 2784 897 2784 1497 
z
" transform="scale(0.015625)"/>
      <path id="Cmmi10-73" d="M 556 391 
Q 728 97 1247 97 
Q 1472 97 1675 173 
Q 1878 250 2011 403 
Q 2144 556 2144 775 
Q 2144 941 2025 1047 
Q 1906 1153 1734 1191 
L 1388 1259 
Q 1150 1319 997 1481 
Q 844 1644 844 1875 
Q 844 2159 998 2378 
Q 1153 2597 1406 2712 
Q 1659 2828 1931 2828 
Q 2222 2828 2451 2689 
Q 2681 2550 2681 2278 
Q 2681 2131 2598 2018 
Q 2516 1906 2369 1906 
Q 2284 1906 2223 1961 
Q 2163 2016 2163 2100 
Q 2163 2175 2205 2245 
Q 2247 2316 2317 2358 
Q 2388 2400 2463 2400 
Q 2406 2538 2251 2600 
Q 2097 2663 1919 2663 
Q 1756 2663 1593 2597 
Q 1431 2531 1332 2404 
Q 1234 2278 1234 2106 
Q 1234 1991 1315 1903 
Q 1397 1816 1516 1778 
L 1888 1703 
Q 2066 1666 2214 1570 
Q 2363 1475 2448 1329 
Q 2534 1184 2534 997 
Q 2534 759 2401 528 
Q 2269 297 2075 159 
Q 1734 -72 1241 -72 
Q 900 -72 615 84 
Q 331 241 331 550 
Q 331 725 432 854 
Q 534 984 709 984 
Q 813 984 883 921 
Q 953 859 953 756 
Q 953 609 843 500 
Q 734 391 588 391 
L 556 391 
z
" transform="scale(0.015625)"/>
      <path id="DejaVuSerif-62" d="M 738 331 
L 738 4531 
L 184 4531 
L 184 4863 
L 1313 4863 
L 1313 2803 
Q 1481 3116 1742 3264 
Q 2003 3413 2388 3413 
Q 3000 3413 3387 2928 
Q 3775 2444 3775 1663 
Q 3775 881 3387 395 
Q 3000 -91 2388 -91 
Q 2003 -91 1742 57 
Q 1481 206 1313 519 
L 1313 0 
L 184 0 
L 184 331 
L 738 331 
z
M 1313 1497 
Q 1313 897 1542 583 
Q 1772 269 2209 269 
Q 2650 269 2876 622 
Q 3103 975 3103 1663 
Q 3103 2353 2876 2703 
Q 2650 3053 2209 3053 
Q 1772 3053 1542 2737 
Q 1313 2422 1313 1825 
L 1313 1497 
z
" transform="scale(0.015625)"/>
      <path id="DejaVuSerif-70" d="M 1313 1825 
L 1313 1497 
Q 1313 897 1542 583 
Q 1772 269 2209 269 
Q 2650 269 2876 622 
Q 3103 975 3103 1663 
Q 3103 2353 2876 2703 
Q 2650 3053 2209 3053 
Q 1772 3053 1542 2737 
Q 1313 2422 1313 1825 
z
M 738 2988 
L 184 2988 
L 184 3322 
L 1313 3322 
L 1313 2803 
Q 1481 3116 1742 3264 
Q 2003 3413 2388 3413 
Q 3000 3413 3387 2928 
Q 3775 2444 3775 1663 
Q 3775 881 3387 395 
Q 3000 -91 2388 -91 
Q 2003 -91 1742 57 
Q 1481 206 1313 519 
L 1313 -997 
L 1856 -997 
L 1856 -1331 
L 184 -1331 
L 184 -997 
L 738 -997 
L 738 2988 
z
" transform="scale(0.015625)"/>
      <path id="DejaVuSerif-6f" d="M 1925 219 
Q 2388 219 2623 584 
Q 2859 950 2859 1663 
Q 2859 2375 2623 2739 
Q 2388 3103 1925 3103 
Q 1463 3103 1227 2739 
Q 991 2375 991 1663 
Q 991 950 1228 584 
Q 1466 219 1925 219 
z
M 1925 -91 
Q 1200 -91 759 389 
Q 319 869 319 1663 
Q 319 2456 758 2934 
Q 1197 3413 1925 3413 
Q 2653 3413 3092 2934 
Q 3531 2456 3531 1663 
Q 3531 869 3092 389 
Q 2653 -91 1925 -91 
z
" transform="scale(0.015625)"/>
      <path id="DejaVuSerif-73" d="M 359 184 
L 359 959 
L 691 959 
Q 703 588 923 403 
Q 1144 219 1575 219 
Q 1963 219 2166 364 
Q 2369 509 2369 788 
Q 2369 1006 2220 1140 
Q 2072 1275 1594 1428 
L 1178 1569 
Q 750 1706 558 1912 
Q 366 2119 366 2438 
Q 366 2894 700 3153 
Q 1034 3413 1625 3413 
Q 1888 3413 2178 3344 
Q 2469 3275 2778 3144 
L 2778 2419 
L 2447 2419 
Q 2434 2741 2221 2922 
Q 2009 3103 1644 3103 
Q 1281 3103 1095 2975 
Q 909 2847 909 2591 
Q 909 2381 1050 2254 
Q 1191 2128 1613 1997 
L 2069 1856 
Q 2541 1709 2748 1489 
Q 2956 1269 2956 922 
Q 2956 450 2595 179 
Q 2234 -91 1600 -91 
Q 1278 -91 972 -22 
Q 666 47 359 184 
z
" transform="scale(0.015625)"/>
      <path id="DejaVuSerif-69" d="M 622 4353 
Q 622 4497 726 4603 
Q 831 4709 978 4709 
Q 1122 4709 1226 4603 
Q 1331 4497 1331 4353 
Q 1331 4206 1228 4103 
Q 1125 4000 978 4000 
Q 831 4000 726 4103 
Q 622 4206 622 4353 
z
M 1356 331 
L 1900 331 
L 1900 0 
L 231 0 
L 231 331 
L 781 331 
L 781 2988 
L 231 2988 
L 231 3322 
L 1356 3322 
L 1356 331 
z
" transform="scale(0.015625)"/>
      <path id="DejaVuSerif-76" d="M 1581 0 
L 359 2988 
L -19 2988 
L -19 3322 
L 1509 3322 
L 1509 2988 
L 978 2988 
L 1913 703 
L 2847 2988 
L 2350 2988 
L 2350 3322 
L 3597 3322 
L 3597 2988 
L 3225 2988 
L 2003 0 
L 1581 0 
z
" transform="scale(0.015625)"/>
      <path id="DejaVuSerif-67" d="M 3359 2988 
L 3359 72 
Q 3359 -644 2965 -1033 
Q 2572 -1422 1844 -1422 
Q 1516 -1422 1216 -1362 
Q 916 -1303 641 -1184 
L 641 -488 
L 941 -488 
Q 997 -813 1206 -963 
Q 1416 -1113 1806 -1113 
Q 2313 -1113 2548 -827 
Q 2784 -541 2784 72 
L 2784 519 
Q 2616 206 2355 57 
Q 2094 -91 1709 -91 
Q 1097 -91 708 395 
Q 319 881 319 1663 
Q 319 2444 706 2928 
Q 1094 3413 1709 3413 
Q 2094 3413 2355 3264 
Q 2616 3116 2784 2803 
L 2784 3322 
L 3909 3322 
L 3909 2988 
L 3359 2988 
z
M 2784 1825 
Q 2784 2422 2554 2737 
Q 2325 3053 1888 3053 
Q 1444 3053 1217 2703 
Q 991 2353 991 1663 
Q 991 975 1217 622 
Q 1444 269 1888 269 
Q 2325 269 2554 583 
Q 2784 897 2784 1497 
L 2784 1825 
z
" transform="scale(0.015625)"/>
      <path id="DejaVuSerif-72" d="M 3059 3328 
L 3059 2497 
L 2728 2497 
Q 2713 2744 2591 2866 
Q 2469 2988 2234 2988 
Q 1809 2988 1582 2694 
Q 1356 2400 1356 1850 
L 1356 331 
L 2022 331 
L 2022 0 
L 263 0 
L 263 331 
L 781 331 
L 781 2994 
L 231 2994 
L 231 3322 
L 1356 3322 
L 1356 2731 
Q 1525 3078 1790 3245 
Q 2056 3413 2438 3413 
Q 2578 3413 2733 3391 
Q 2888 3369 3059 3328 
z
" transform="scale(0.015625)"/>
      <path id="DejaVuSerif-2e" d="M 603 325 
Q 603 500 722 622 
Q 841 744 1019 744 
Q 1191 744 1312 622 
Q 1434 500 1434 325 
Q 1434 153 1312 31 
Q 1191 -91 1019 -91 
Q 841 -91 722 29 
Q 603 150 603 325 
z
" transform="scale(0.015625)"/>
      <path id="DejaVuSerif-44" d="M 1581 331 
L 2163 331 
Q 3072 331 3558 850 
Q 4044 1369 4044 2338 
Q 4044 3306 3559 3818 
Q 3075 4331 2163 4331 
L 1581 4331 
L 1581 331 
z
M 353 0 
L 353 331 
L 947 331 
L 947 4331 
L 353 4331 
L 353 4666 
L 2209 4666 
Q 3416 4666 4089 4050 
Q 4763 3434 4763 2338 
Q 4763 1238 4088 619 
Q 3413 0 2209 0 
L 353 0 
z
" transform="scale(0.015625)"/>
      <path id="DejaVuSerif-66" d="M 2753 4078 
L 2450 4078 
Q 2447 4313 2317 4434 
Q 2188 4556 1941 4556 
Q 1619 4556 1487 4379 
Q 1356 4203 1356 3750 
L 1356 3322 
L 2284 3322 
L 2284 2988 
L 1356 2988 
L 1356 331 
L 2094 331 
L 2094 0 
L 231 0 
L 231 331 
L 781 331 
L 781 2988 
L 231 2988 
L 231 3322 
L 781 3322 
L 781 3738 
Q 781 4294 1070 4578 
Q 1359 4863 1919 4863 
Q 2128 4863 2337 4825 
Q 2547 4788 2753 4709 
L 2753 4078 
z
" transform="scale(0.015625)"/>
      <path id="DejaVuSerif-6d" d="M 3316 2675 
Q 3481 3041 3739 3227 
Q 3997 3413 4341 3413 
Q 4863 3413 5119 3089 
Q 5375 2766 5375 2113 
L 5375 331 
L 5894 331 
L 5894 0 
L 4300 0 
L 4300 331 
L 4800 331 
L 4800 2047 
Q 4800 2556 4650 2772 
Q 4500 2988 4153 2988 
Q 3769 2988 3567 2697 
Q 3366 2406 3366 1850 
L 3366 331 
L 3866 331 
L 3866 0 
L 2291 0 
L 2291 331 
L 2791 331 
L 2791 2069 
Q 2791 2566 2641 2777 
Q 2491 2988 2144 2988 
Q 1759 2988 1557 2697 
Q 1356 2406 1356 1850 
L 1356 331 
L 1856 331 
L 1856 0 
L 263 0 
L 263 331 
L 781 331 
L 781 2994 
L 231 2994 
L 231 3322 
L 1356 3322 
L 1356 2731 
Q 1516 3063 1762 3238 
Q 2009 3413 2322 3413 
Q 2709 3413 2968 3220 
Q 3228 3028 3316 2675 
z
" transform="scale(0.015625)"/>
      <path id="DejaVuSerif-75" d="M 2266 3322 
L 3341 3322 
L 3341 331 
L 3884 331 
L 3884 0 
L 2766 0 
L 2766 588 
Q 2606 256 2353 82 
Q 2100 -91 1766 -91 
Q 1213 -91 952 223 
Q 691 538 691 1209 
L 691 2988 
L 172 2988 
L 172 3322 
L 1269 3322 
L 1269 1388 
Q 1269 781 1417 556 
Q 1566 331 1947 331 
Q 2347 331 2556 625 
Q 2766 919 2766 1478 
L 2766 2988 
L 2266 2988 
L 2266 3322 
z
" transform="scale(0.015625)"/>
      <path id="DejaVuSerif-6c" d="M 1313 331 
L 1856 331 
L 1856 0 
L 184 0 
L 184 331 
L 738 331 
L 738 4531 
L 184 4531 
L 184 4863 
L 1313 4863 
L 1313 331 
z
" transform="scale(0.015625)"/>
      <path id="DejaVuSerif-68" d="M 263 0 
L 263 331 
L 781 331 
L 781 4531 
L 231 4531 
L 231 4863 
L 1356 4863 
L 1356 2731 
Q 1516 3069 1770 3241 
Q 2025 3413 2363 3413 
Q 2913 3413 3172 3097 
Q 3431 2781 3431 2113 
L 3431 331 
L 3944 331 
L 3944 0 
L 2356 0 
L 2356 331 
L 2853 331 
L 2853 1931 
Q 2853 2541 2704 2764 
Q 2556 2988 2175 2988 
Q 1775 2988 1565 2697 
Q 1356 2406 1356 1850 
L 1356 331 
L 1856 331 
L 1856 0 
L 263 0 
z
" transform="scale(0.015625)"/>
      <path id="DejaVuSerif-71" d="M 3359 2988 
L 3359 -997 
L 3909 -997 
L 3909 -1331 
L 2241 -1331 
L 2241 -997 
L 2784 -997 
L 2784 519 
Q 2616 206 2355 57 
Q 2094 -91 1709 -91 
Q 1097 -91 708 395 
Q 319 881 319 1663 
Q 319 2444 706 2928 
Q 1094 3413 1709 3413 
Q 2094 3413 2355 3264 
Q 2616 3116 2784 2803 
L 2784 3322 
L 3909 3322 
L 3909 2988 
L 3359 2988 
z
M 2784 1825 
Q 2784 2422 2554 2737 
Q 2325 3053 1888 3053 
Q 1444 3053 1217 2703 
Q 991 2353 991 1663 
Q 991 975 1217 622 
Q 1444 269 1888 269 
Q 2325 269 2554 583 
Q 2784 897 2784 1497 
L 2784 1825 
z
" transform="scale(0.015625)"/>
      <path id="Cmr10-28" d="M 1984 -1588 
Q 1628 -1306 1370 -942 
Q 1113 -578 948 -165 
Q 784 247 703 697 
Q 622 1147 622 1600 
Q 622 2059 703 2509 
Q 784 2959 951 3375 
Q 1119 3791 1378 4153 
Q 1638 4516 1984 4788 
Q 1984 4800 2016 4800 
L 2075 4800 
Q 2094 4800 2109 4783 
Q 2125 4766 2125 4744 
Q 2125 4716 2113 4703 
Q 1800 4397 1592 4047 
Q 1384 3697 1257 3301 
Q 1131 2906 1075 2482 
Q 1019 2059 1019 1600 
Q 1019 -434 2106 -1491 
Q 2125 -1509 2125 -1544 
Q 2125 -1559 2108 -1579 
Q 2091 -1600 2075 -1600 
L 2016 -1600 
Q 1984 -1600 1984 -1588 
z
" transform="scale(0.015625)"/>
      <path id="Cmmi10-61" d="M 1113 -72 
Q 709 -72 476 233 
Q 244 538 244 953 
Q 244 1363 456 1803 
Q 669 2244 1030 2536 
Q 1391 2828 1806 2828 
Q 1997 2828 2147 2725 
Q 2297 2622 2381 2444 
Q 2453 2700 2663 2700 
Q 2744 2700 2798 2651 
Q 2853 2603 2853 2522 
Q 2853 2503 2851 2493 
Q 2850 2484 2847 2472 
L 2400 684 
Q 2356 494 2356 372 
Q 2356 97 2541 97 
Q 2741 97 2845 351 
Q 2950 606 3022 941 
Q 3034 978 3072 978 
L 3150 978 
Q 3175 978 3190 956 
Q 3206 934 3206 916 
Q 3094 469 2961 198 
Q 2828 -72 2528 -72 
Q 2313 -72 2147 54 
Q 1981 181 1941 391 
Q 1528 -72 1113 -72 
z
M 1119 97 
Q 1350 97 1567 270 
Q 1784 444 1941 678 
Q 1947 684 1947 697 
L 2291 2088 
L 2297 2106 
Q 2259 2334 2132 2498 
Q 2006 2663 1791 2663 
Q 1575 2663 1389 2486 
Q 1203 2309 1075 2069 
Q 950 1813 836 1366 
Q 722 919 722 672 
Q 722 450 817 273 
Q 913 97 1119 97 
z
" transform="scale(0.015625)"/>
      <path id="Cmmi10-3b" d="M 634 -1153 
Q 634 -1125 659 -1100 
Q 891 -878 1019 -587 
Q 1147 -297 1147 25 
L 1147 103 
Q 1044 0 891 0 
Q 744 0 641 103 
Q 538 206 538 353 
Q 538 503 641 603 
Q 744 703 891 703 
Q 1119 703 1216 492 
Q 1313 281 1313 25 
Q 1313 -331 1170 -651 
Q 1028 -972 769 -1228 
Q 744 -1241 728 -1241 
Q 697 -1241 665 -1212 
Q 634 -1184 634 -1153 
z
" transform="scale(0.015625)"/>
      <path id="Cmmi10-62" d="M 1106 -72 
Q 719 -72 503 231 
Q 288 534 288 941 
Q 288 1000 317 1173 
Q 347 1347 347 1388 
L 966 3872 
Q 991 3981 997 4044 
Q 997 4147 581 4147 
Q 519 4147 519 4231 
Q 522 4247 533 4287 
Q 544 4328 561 4350 
Q 578 4372 609 4372 
L 1472 4441 
Q 1550 4441 1550 4359 
L 1075 2472 
Q 1438 2828 1806 2828 
Q 2078 2828 2273 2684 
Q 2469 2541 2566 2306 
Q 2663 2072 2663 1806 
Q 2663 1497 2542 1167 
Q 2422 838 2209 555 
Q 1997 272 1712 100 
Q 1428 -72 1106 -72 
z
M 1119 97 
Q 1338 97 1528 280 
Q 1719 463 1838 691 
Q 1966 947 2077 1386 
Q 2188 1825 2188 2088 
Q 2188 2316 2092 2489 
Q 1997 2663 1791 2663 
Q 1559 2663 1348 2492 
Q 1138 2322 978 2088 
L 800 1363 
Q 697 959 691 716 
Q 691 475 795 286 
Q 900 97 1119 97 
z
" transform="scale(0.015625)"/>
      <path id="Cmmi10-63" d="M 750 763 
Q 750 484 892 290 
Q 1034 97 1300 97 
Q 1681 97 2032 272 
Q 2384 447 2606 756 
Q 2625 775 2656 775 
Q 2688 775 2720 739 
Q 2753 703 2753 672 
Q 2753 647 2741 634 
Q 2506 306 2109 117 
Q 1713 -72 1288 -72 
Q 981 -72 747 73 
Q 513 219 384 462 
Q 256 706 256 1013 
Q 256 1444 497 1869 
Q 738 2294 1138 2561 
Q 1538 2828 1978 2828 
Q 2266 2828 2495 2689 
Q 2725 2550 2725 2278 
Q 2725 2103 2623 1979 
Q 2522 1856 2350 1856 
Q 2247 1856 2176 1920 
Q 2106 1984 2106 2088 
Q 2106 2238 2215 2344 
Q 2325 2450 2472 2450 
L 2484 2450 
Q 2409 2559 2267 2611 
Q 2125 2663 1972 2663 
Q 1597 2663 1315 2342 
Q 1034 2022 892 1576 
Q 750 1131 750 763 
z
" transform="scale(0.015625)"/>
      <path id="Cmmi10-64" d="M 1113 -72 
Q 709 -72 476 233 
Q 244 538 244 953 
Q 244 1363 456 1803 
Q 669 2244 1030 2536 
Q 1391 2828 1806 2828 
Q 1994 2828 2145 2723 
Q 2297 2619 2381 2444 
L 2741 3872 
Q 2766 3981 2772 4044 
Q 2772 4147 2356 4147 
Q 2291 4147 2291 4231 
Q 2294 4247 2305 4287 
Q 2316 4328 2333 4350 
Q 2350 4372 2381 4372 
L 3244 4441 
Q 3322 4441 3322 4359 
L 2400 678 
Q 2356 572 2356 372 
Q 2356 97 2541 97 
Q 2741 97 2845 351 
Q 2950 606 3022 941 
Q 3034 978 3072 978 
L 3150 978 
Q 3175 978 3190 956 
Q 3206 934 3206 916 
Q 3094 469 2961 198 
Q 2828 -72 2528 -72 
Q 2313 -72 2147 54 
Q 1981 181 1941 391 
Q 1528 -72 1113 -72 
z
M 1119 97 
Q 1350 97 1567 270 
Q 1784 444 1941 678 
Q 1947 684 1947 703 
L 2297 2113 
Q 2259 2338 2131 2500 
Q 2003 2663 1791 2663 
Q 1575 2663 1389 2486 
Q 1203 2309 1075 2069 
Q 950 1813 836 1366 
Q 722 919 722 672 
Q 722 450 817 273 
Q 913 97 1119 97 
z
" transform="scale(0.015625)"/>
      <path id="Cmr10-29" d="M 416 -1600 
Q 359 -1600 359 -1544 
Q 359 -1516 372 -1503 
Q 1466 -434 1466 1600 
Q 1466 3634 384 4691 
Q 359 4706 359 4744 
Q 359 4766 376 4783 
Q 394 4800 416 4800 
L 475 4800 
Q 494 4800 506 4788 
Q 966 4425 1272 3906 
Q 1578 3388 1720 2800 
Q 1863 2213 1863 1600 
Q 1863 1147 1786 708 
Q 1709 269 1542 -157 
Q 1375 -584 1119 -945 
Q 863 -1306 506 -1588 
Q 494 -1600 475 -1600 
L 416 -1600 
z
" transform="scale(0.015625)"/>
      <path id="DejaVuSerif-63" d="M 3291 997 
Q 3169 466 2822 187 
Q 2475 -91 1925 -91 
Q 1200 -91 759 389 
Q 319 869 319 1663 
Q 319 2459 759 2936 
Q 1200 3413 1925 3413 
Q 2241 3413 2553 3339 
Q 2866 3266 3181 3116 
L 3181 2266 
L 2847 2266 
Q 2781 2703 2561 2903 
Q 2341 3103 1931 3103 
Q 1466 3103 1228 2742 
Q 991 2381 991 1663 
Q 991 944 1227 581 
Q 1463 219 1931 219 
Q 2303 219 2525 412 
Q 2747 606 2828 997 
L 3291 997 
z
" transform="scale(0.015625)"/>
      <path id="Cmr10-33" d="M 609 494 
Q 759 275 1012 169 
Q 1266 63 1556 63 
Q 1928 63 2084 380 
Q 2241 697 2241 1100 
Q 2241 1281 2208 1462 
Q 2175 1644 2097 1800 
Q 2019 1956 1883 2050 
Q 1747 2144 1550 2144 
L 1125 2144 
Q 1069 2144 1069 2203 
L 1069 2259 
Q 1069 2309 1125 2309 
L 1478 2338 
Q 1703 2338 1851 2506 
Q 2000 2675 2069 2917 
Q 2138 3159 2138 3378 
Q 2138 3684 1994 3881 
Q 1850 4078 1556 4078 
Q 1313 4078 1091 3986 
Q 869 3894 738 3706 
Q 750 3709 759 3711 
Q 769 3713 781 3713 
Q 925 3713 1022 3613 
Q 1119 3513 1119 3372 
Q 1119 3234 1022 3134 
Q 925 3034 781 3034 
Q 641 3034 541 3134 
Q 441 3234 441 3372 
Q 441 3647 606 3850 
Q 772 4053 1033 4158 
Q 1294 4263 1556 4263 
Q 1750 4263 1965 4205 
Q 2181 4147 2356 4039 
Q 2531 3931 2642 3762 
Q 2753 3594 2753 3378 
Q 2753 3109 2633 2881 
Q 2513 2653 2303 2487 
Q 2094 2322 1844 2241 
Q 2122 2188 2372 2031 
Q 2622 1875 2773 1631 
Q 2925 1388 2925 1106 
Q 2925 753 2731 467 
Q 2538 181 2222 20 
Q 1906 -141 1556 -141 
Q 1256 -141 954 -26 
Q 653 88 461 316 
Q 269 544 269 863 
Q 269 1022 375 1128 
Q 481 1234 641 1234 
Q 744 1234 830 1186 
Q 916 1138 964 1050 
Q 1013 963 1013 863 
Q 1013 706 903 600 
Q 794 494 641 494 
L 609 494 
z
" transform="scale(0.015625)"/>
      <path id="Cmsy10-a2" d="M 538 1600 
Q 538 1691 584 1772 
Q 631 1853 714 1903 
Q 797 1953 891 1953 
Q 981 1953 1064 1903 
Q 1147 1853 1194 1772 
Q 1241 1691 1241 1600 
Q 1241 1456 1139 1351 
Q 1038 1247 891 1247 
Q 747 1247 642 1351 
Q 538 1456 538 1600 
z
" transform="scale(0.015625)"/>
      <path id="Cmr10-37" d="M 1113 166 
Q 1113 522 1175 862 
Q 1238 1203 1358 1536 
Q 1478 1869 1648 2189 
Q 1819 2509 2022 2791 
L 2606 3603 
L 1875 3603 
Q 738 3603 703 3572 
Q 619 3469 544 2981 
L 359 2981 
L 569 4325 
L 756 4325 
L 756 4306 
Q 756 4191 1147 4156 
Q 1538 4122 1913 4122 
L 3103 4122 
L 3103 3956 
Q 3103 3950 3101 3947 
Q 3100 3944 3097 3938 
L 2216 2700 
Q 1891 2219 1809 1631 
Q 1728 1044 1728 166 
Q 1728 41 1637 -50 
Q 1547 -141 1422 -141 
Q 1294 -141 1203 -50 
Q 1113 41 1113 166 
z
" transform="scale(0.015625)"/>
      <path id="Cmr10-3d" d="M 481 850 
Q 428 850 393 890 
Q 359 931 359 978 
Q 359 1031 393 1068 
Q 428 1106 481 1106 
L 4500 1106 
Q 4547 1106 4581 1068 
Q 4616 1031 4616 978 
Q 4616 931 4581 890 
Q 4547 850 4500 850 
L 481 850 
z
M 481 2094 
Q 428 2094 393 2131 
Q 359 2169 359 2222 
Q 359 2269 393 2309 
Q 428 2350 481 2350 
L 4500 2350 
Q 4547 2350 4581 2309 
Q 4616 2269 4616 2222 
Q 4616 2169 4581 2131 
Q 4547 2094 4500 2094 
L 481 2094 
z
" transform="scale(0.015625)"/>
      <path id="Cmr10-6c" d="M 197 0 
L 197 225 
Q 416 225 556 259 
Q 697 294 697 428 
L 697 3788 
Q 697 3959 645 4036 
Q 594 4113 497 4130 
Q 400 4147 197 4147 
L 197 4372 
L 1147 4441 
L 1147 428 
Q 1147 294 1287 259 
Q 1428 225 1644 225 
L 1644 0 
L 197 0 
z
" transform="scale(0.015625)"/>
      <path id="Cmr10-63" d="M 1594 -72 
Q 1206 -72 890 129 
Q 575 331 394 667 
Q 213 1003 213 1381 
Q 213 1759 392 2106 
Q 572 2453 889 2661 
Q 1206 2869 1594 2869 
Q 1969 2869 2276 2722 
Q 2584 2575 2584 2241 
Q 2584 2116 2495 2023 
Q 2406 1931 2278 1931 
Q 2150 1931 2061 2023 
Q 1972 2116 1972 2241 
Q 1972 2353 2044 2436 
Q 2116 2519 2222 2541 
Q 2000 2681 1600 2681 
Q 1294 2681 1106 2478 
Q 919 2275 844 1975 
Q 769 1675 769 1381 
Q 769 1072 861 783 
Q 953 494 1158 305 
Q 1363 116 1672 116 
Q 1975 116 2187 302 
Q 2400 488 2478 788 
Q 2478 825 2528 825 
L 2606 825 
Q 2625 825 2640 808 
Q 2656 791 2656 769 
L 2656 750 
Q 2559 372 2271 150 
Q 1984 -72 1594 -72 
z
" transform="scale(0.015625)"/>
      <path id="Cmr10-6d" d="M 191 0 
L 191 225 
Q 409 225 550 259 
Q 691 294 691 428 
L 691 2175 
Q 691 2347 639 2423 
Q 588 2500 491 2517 
Q 394 2534 191 2534 
L 191 2759 
L 1119 2828 
L 1119 2203 
Q 1247 2478 1498 2653 
Q 1750 2828 2047 2828 
Q 2784 2828 2913 2228 
Q 3041 2497 3287 2662 
Q 3534 2828 3828 2828 
Q 4119 2828 4317 2734 
Q 4516 2641 4616 2448 
Q 4716 2256 4716 1966 
L 4716 428 
Q 4716 294 4858 259 
Q 5000 225 5216 225 
L 5216 0 
L 3750 0 
L 3750 225 
Q 3969 225 4109 259 
Q 4250 294 4250 428 
L 4250 1947 
Q 4250 2269 4159 2466 
Q 4069 2663 3788 2663 
Q 3419 2663 3178 2366 
Q 2938 2069 2938 1691 
L 2938 428 
Q 2938 294 3078 259 
Q 3219 225 3438 225 
L 3438 0 
L 1972 0 
L 1972 225 
Q 2191 225 2331 259 
Q 2472 294 2472 428 
L 2472 1947 
Q 2472 2259 2381 2461 
Q 2291 2663 2009 2663 
Q 1638 2663 1398 2366 
Q 1159 2069 1159 1691 
L 1159 428 
Q 1159 294 1300 259 
Q 1441 225 1656 225 
L 1656 0 
L 191 0 
z
" transform="scale(0.015625)"/>
      <path id="Cmr10-5b" d="M 756 -1600 
L 756 4800 
L 1631 4800 
L 1631 4544 
L 1013 4544 
L 1013 -1344 
L 1631 -1344 
L 1631 -1600 
L 756 -1600 
z
" transform="scale(0.015625)"/>
      <path id="Cmr10-5d" d="M 141 -1600 
L 141 -1344 
L 763 -1344 
L 763 4544 
L 141 4544 
L 141 4800 
L 1019 4800 
L 1019 -1600 
L 141 -1600 
z
" transform="scale(0.015625)"/>
      <path id="DejaVuSerif-54" d="M 1222 0 
L 1222 331 
L 1819 331 
L 1819 4294 
L 447 4294 
L 447 3566 
L 63 3566 
L 63 4666 
L 4206 4666 
L 4206 3566 
L 3822 3566 
L 3822 4294 
L 2450 4294 
L 2450 331 
L 3047 331 
L 3047 0 
L 1222 0 
z
" transform="scale(0.015625)"/>
      <path id="DejaVuSerif-77" d="M 3072 3322 
L 3922 728 
L 4672 2988 
L 4191 2988 
L 4191 3322 
L 5394 3322 
L 5394 2988 
L 5025 2988 
L 4038 0 
L 3559 0 
L 2741 2484 
L 1919 0 
L 1459 0 
L 475 2988 
L 103 2988 
L 103 3322 
L 1606 3322 
L 1606 2988 
L 1069 2988 
L 1813 728 
L 2669 3322 
L 3072 3322 
z
" transform="scale(0.015625)"/>
      <path id="DejaVuSerif-28" d="M 2041 -997 
Q 1281 -656 893 83 
Q 506 822 506 1931 
Q 506 3044 893 3783 
Q 1281 4522 2041 4863 
L 2041 4556 
Q 1559 4225 1350 3623 
Q 1141 3022 1141 1931 
Q 1141 844 1350 242 
Q 1559 -359 2041 -691 
L 2041 -997 
z
" transform="scale(0.015625)"/>
      <path id="DejaVuSerif-4e" d="M 313 0 
L 313 331 
L 941 331 
L 941 4331 
L 313 4331 
L 313 4666 
L 1509 4666 
L 4306 984 
L 4306 4331 
L 3681 4331 
L 3681 4666 
L 5319 4666 
L 5319 4331 
L 4691 4331 
L 4691 -91 
L 4313 -91 
L 1325 3841 
L 1325 331 
L 1953 331 
L 1953 0 
L 313 0 
z
" transform="scale(0.015625)"/>
      <path id="Cmmi10-78" d="M 500 184 
Q 613 97 819 97 
Q 1019 97 1172 289 
Q 1325 481 1381 709 
L 1672 1844 
Q 1741 2153 1741 2266 
Q 1741 2425 1652 2544 
Q 1563 2663 1403 2663 
Q 1200 2663 1022 2536 
Q 844 2409 722 2214 
Q 600 2019 550 1819 
Q 538 1778 500 1778 
L 422 1778 
Q 372 1778 372 1838 
L 372 1856 
Q 434 2094 584 2320 
Q 734 2547 951 2687 
Q 1169 2828 1416 2828 
Q 1650 2828 1839 2703 
Q 2028 2578 2106 2363 
Q 2216 2559 2386 2693 
Q 2556 2828 2759 2828 
Q 2897 2828 3040 2779 
Q 3184 2731 3275 2631 
Q 3366 2531 3366 2381 
Q 3366 2219 3261 2101 
Q 3156 1984 2994 1984 
Q 2891 1984 2822 2050 
Q 2753 2116 2753 2216 
Q 2753 2350 2845 2451 
Q 2938 2553 3066 2572 
Q 2950 2663 2747 2663 
Q 2541 2663 2389 2472 
Q 2238 2281 2175 2047 
L 1894 916 
Q 1825 659 1825 494 
Q 1825 331 1917 214 
Q 2009 97 2163 97 
Q 2463 97 2698 361 
Q 2934 625 3009 941 
Q 3022 978 3059 978 
L 3138 978 
Q 3163 978 3178 961 
Q 3194 944 3194 922 
Q 3194 916 3188 903 
Q 3097 522 2806 225 
Q 2516 -72 2150 -72 
Q 1916 -72 1727 54 
Q 1538 181 1459 397 
Q 1359 209 1182 68 
Q 1006 -72 806 -72 
Q 669 -72 523 -23 
Q 378 25 287 125 
Q 197 225 197 378 
Q 197 528 301 651 
Q 406 775 563 775 
Q 669 775 741 711 
Q 813 647 813 544 
Q 813 409 723 309 
Q 634 209 500 184 
z
" transform="scale(0.015625)"/>
      <path id="Cmmi10-79" d="M 538 -916 
Q 672 -1147 1006 -1147 
Q 1309 -1147 1531 -934 
Q 1753 -722 1889 -420 
Q 2025 -119 2100 197 
Q 1816 -72 1484 -72 
Q 1231 -72 1053 15 
Q 875 103 776 276 
Q 678 450 678 697 
Q 678 906 734 1126 
Q 791 1347 892 1617 
Q 994 1888 1069 2088 
Q 1153 2322 1153 2472 
Q 1153 2663 1013 2663 
Q 759 2663 595 2402 
Q 431 2141 353 1819 
Q 341 1778 300 1778 
L 225 1778 
Q 172 1778 172 1838 
L 172 1856 
Q 275 2238 487 2533 
Q 700 2828 1025 2828 
Q 1253 2828 1411 2678 
Q 1569 2528 1569 2297 
Q 1569 2178 1516 2047 
Q 1488 1969 1388 1706 
Q 1288 1444 1234 1272 
Q 1181 1100 1147 934 
Q 1113 769 1113 603 
Q 1113 391 1203 244 
Q 1294 97 1491 97 
Q 1888 97 2203 581 
L 2688 2553 
Q 2709 2638 2787 2698 
Q 2866 2759 2956 2759 
Q 3034 2759 3092 2709 
Q 3150 2659 3150 2578 
Q 3150 2541 3144 2528 
L 2509 -19 
Q 2425 -347 2200 -647 
Q 1975 -947 1658 -1130 
Q 1341 -1313 997 -1313 
Q 831 -1313 668 -1248 
Q 506 -1184 406 -1056 
Q 306 -928 306 -756 
Q 306 -581 409 -453 
Q 513 -325 684 -325 
Q 788 -325 858 -389 
Q 928 -453 928 -556 
Q 928 -703 818 -812 
Q 709 -922 563 -922 
Q 556 -919 550 -917 
Q 544 -916 538 -916 
z
" transform="scale(0.015625)"/>
      <path id="Cmmi10-7a" d="M 313 -72 
Q 263 -72 263 -13 
Q 263 19 275 31 
Q 447 328 689 598 
Q 931 869 1239 1145 
Q 1547 1422 1858 1700 
Q 2169 1978 2363 2194 
L 2338 2194 
Q 2197 2194 1925 2284 
Q 1653 2375 1497 2375 
Q 1328 2375 1168 2301 
Q 1009 2228 966 2075 
Q 956 2028 916 2028 
L 838 2028 
Q 788 2028 788 2094 
L 788 2113 
Q 838 2300 952 2462 
Q 1066 2625 1233 2726 
Q 1400 2828 1581 2828 
Q 1709 2828 1793 2770 
Q 1878 2713 1990 2591 
Q 2103 2469 2173 2416 
Q 2244 2363 2350 2363 
Q 2491 2363 2602 2491 
Q 2713 2619 2822 2809 
Q 2841 2828 2869 2828 
L 2944 2828 
Q 2966 2828 2980 2812 
Q 2994 2797 2994 2772 
Q 2994 2750 2981 2731 
Q 2809 2434 2579 2176 
Q 2350 1919 1979 1586 
Q 1609 1253 1354 1023 
Q 1100 794 878 550 
Q 928 563 1013 563 
Q 1169 563 1439 473 
Q 1709 384 1856 384 
Q 2016 384 2178 453 
Q 2341 522 2459 647 
Q 2578 772 2619 934 
Q 2634 978 2669 978 
L 2747 978 
Q 2772 978 2787 958 
Q 2803 938 2803 916 
Q 2803 909 2797 897 
Q 2738 653 2591 433 
Q 2444 213 2230 70 
Q 2016 -72 1772 -72 
Q 1650 -72 1565 -15 
Q 1481 41 1367 164 
Q 1253 288 1181 342 
Q 1109 397 1006 397 
Q 688 397 434 -50 
Q 413 -72 391 -72 
L 313 -72 
z
" transform="scale(0.015625)"/>
      <path id="DejaVuSerif-29" d="M 453 -997 
L 453 -691 
Q 934 -359 1145 242 
Q 1356 844 1356 1931 
Q 1356 3022 1145 3623 
Q 934 4225 453 4556 
L 453 4863 
Q 1216 4522 1603 3783 
Q 1991 3044 1991 1931 
Q 1991 822 1603 83 
Q 1216 -656 453 -997 
z
" transform="scale(0.015625)"/>
     </defs>
     <use xlink:href="#DejaVuSerif-4c" transform="translate(0 0.015625)"/>
     <use xlink:href="#DejaVuSerif-65" transform="translate(66.40625 0.015625)"/>
     <use xlink:href="#DejaVuSerif-74" transform="translate(125.585938 0.015625)"/>
     <use xlink:href="#DejaVuSerif-20" transform="translate(165.771484 0.015625)"/>
     <use xlink:href="#Cmmi10-72" transform="translate(197.558594 0.015625)"/>
     <use xlink:href="#DejaVuSerif-20" transform="translate(242.675781 0.015625)"/>
     <use xlink:href="#DejaVuSerif-61" transform="translate(274.462891 0.015625)"/>
     <use xlink:href="#DejaVuSerif-6e" transform="translate(334.082031 0.015625)"/>
     <use xlink:href="#DejaVuSerif-64" transform="translate(398.486328 0.015625)"/>
     <use xlink:href="#DejaVuSerif-20" transform="translate(462.5 0.015625)"/>
     <use xlink:href="#Cmmi10-73" transform="translate(494.287109 0.015625)"/>
     <use xlink:href="#DejaVuSerif-20" transform="translate(541.064453 0.015625)"/>
     <use xlink:href="#DejaVuSerif-62" transform="translate(572.851562 0.015625)"/>
     <use xlink:href="#DejaVuSerif-65" transform="translate(636.865234 0.015625)"/>
     <use xlink:href="#DejaVuSerif-20" transform="translate(696.044922 0.015625)"/>
     <use xlink:href="#DejaVuSerif-70" transform="translate(727.832031 0.015625)"/>
     <use xlink:href="#DejaVuSerif-6f" transform="translate(791.845703 0.015625)"/>
     <use xlink:href="#DejaVuSerif-73" transform="translate(852.050781 0.015625)"/>
     <use xlink:href="#DejaVuSerif-69" transform="translate(903.369141 0.015625)"/>
     <use xlink:href="#DejaVuSerif-74" transform="translate(935.351562 0.015625)"/>
     <use xlink:href="#DejaVuSerif-69" transform="translate(975.537109 0.015625)"/>
     <use xlink:href="#DejaVuSerif-76" transform="translate(1007.519531 0.015625)"/>
     <use xlink:href="#DejaVuSerif-65" transform="translate(1064.013672 0.015625)"/>
     <use xlink:href="#DejaVuSerif-20" transform="translate(1123.193359 0.015625)"/>
     <use xlink:href="#DejaVuSerif-69" transform="translate(1154.980469 0.015625)"/>
     <use xlink:href="#DejaVuSerif-6e" transform="translate(1186.962891 0.015625)"/>
     <use xlink:href="#DejaVuSerif-74" transform="translate(1251.367188 0.015625)"/>
     <use xlink:href="#DejaVuSerif-65" transform="translate(1291.552734 0.015625)"/>
     <use xlink:href="#DejaVuSerif-67" transform="translate(1350.732422 0.015625)"/>
     <use xlink:href="#DejaVuSerif-65" transform="translate(1414.746094 0.015625)"/>
     <use xlink:href="#DejaVuSerif-72" transform="translate(1473.925781 0.015625)"/>
     <use xlink:href="#DejaVuSerif-73" transform="translate(1521.728516 0.015625)"/>
     <use xlink:href="#DejaVuSerif-2e" transform="translate(1573.046875 0.015625)"/>
     <use xlink:href="#DejaVuSerif-20" transform="translate(1604.833984 0.015625)"/>
     <use xlink:href="#DejaVuSerif-44" transform="translate(1636.621094 0.015625)"/>
     <use xlink:href="#DejaVuSerif-65" transform="translate(1716.796875 0.015625)"/>
     <use xlink:href="#DejaVuSerif-72" transform="translate(1775.976562 0.015625)"/>
     <use xlink:href="#DejaVuSerif-69" transform="translate(1823.779297 0.015625)"/>
     <use xlink:href="#DejaVuSerif-76" transform="translate(1855.761719 0.015625)"/>
     <use xlink:href="#DejaVuSerif-65" transform="translate(1912.255859 0.015625)"/>
     <use xlink:href="#DejaVuSerif-20" transform="translate(1971.435547 0.015625)"/>
     <use xlink:href="#DejaVuSerif-61" transform="translate(2003.222656 0.015625)"/>
     <use xlink:href="#DejaVuSerif-20" transform="translate(2062.841797 0.015625)"/>
     <use xlink:href="#DejaVuSerif-66" transform="translate(2094.628906 0.015625)"/>
     <use xlink:href="#DejaVuSerif-6f" transform="translate(2131.640625 0.015625)"/>
     <use xlink:href="#DejaVuSerif-72" transform="translate(2191.845703 0.015625)"/>
     <use xlink:href="#DejaVuSerif-6d" transform="translate(2239.648438 0.015625)"/>
     <use xlink:href="#DejaVuSerif-75" transform="translate(2334.472656 0.015625)"/>
     <use xlink:href="#DejaVuSerif-6c" transform="translate(2398.876953 0.015625)"/>
     <use xlink:href="#DejaVuSerif-61" transform="translate(2430.859375 0.015625)"/>
     <use xlink:href="#DejaVuSerif-20" transform="translate(2490.478516 0.015625)"/>
     <use xlink:href="#DejaVuSerif-66" transform="translate(2522.265625 0.015625)"/>
     <use xlink:href="#DejaVuSerif-6f" transform="translate(2559.277344 0.015625)"/>
     <use xlink:href="#DejaVuSerif-72" transform="translate(2619.482422 0.015625)"/>
     <use xlink:href="#DejaVuSerif-20" transform="translate(2667.285156 0.015625)"/>
     <use xlink:href="#DejaVuSerif-74" transform="translate(2699.072266 0.015625)"/>
     <use xlink:href="#DejaVuSerif-68" transform="translate(2739.257812 0.015625)"/>
     <use xlink:href="#DejaVuSerif-65" transform="translate(2803.662109 0.015625)"/>
     <use xlink:href="#DejaVuSerif-20" transform="translate(2862.841797 0.015625)"/>
     <use xlink:href="#DejaVuSerif-6e" transform="translate(2894.628906 0.015625)"/>
     <use xlink:href="#DejaVuSerif-75" transform="translate(2959.033203 0.015625)"/>
     <use xlink:href="#DejaVuSerif-6d" transform="translate(3023.4375 0.015625)"/>
     <use xlink:href="#DejaVuSerif-62" transform="translate(3118.261719 0.015625)"/>
     <use xlink:href="#DejaVuSerif-65" transform="translate(3182.275391 0.015625)"/>
     <use xlink:href="#DejaVuSerif-72" transform="translate(3241.455078 0.015625)"/>
     <use xlink:href="#DejaVuSerif-20" transform="translate(3289.257812 0.015625)"/>
     <use xlink:href="#DejaVuSerif-6f" transform="translate(3321.044922 0.015625)"/>
     <use xlink:href="#DejaVuSerif-66" transform="translate(3381.25 0.015625)"/>
     <use xlink:href="#DejaVuSerif-20" transform="translate(3418.261719 0.015625)"/>
     <use xlink:href="#DejaVuSerif-6f" transform="translate(3450.048828 0.015625)"/>
     <use xlink:href="#DejaVuSerif-72" transform="translate(3510.253906 0.015625)"/>
     <use xlink:href="#DejaVuSerif-64" transform="translate(3558.056641 0.015625)"/>
     <use xlink:href="#DejaVuSerif-65" transform="translate(3622.070312 0.015625)"/>
     <use xlink:href="#DejaVuSerif-72" transform="translate(3681.25 0.015625)"/>
     <use xlink:href="#DejaVuSerif-65" transform="translate(3729.052734 0.015625)"/>
     <use xlink:href="#DejaVuSerif-64" transform="translate(3788.232422 0.015625)"/>
     <use xlink:href="#DejaVuSerif-20" transform="translate(3852.246094 0.015625)"/>
     <use xlink:href="#DejaVuSerif-71" transform="translate(3884.033203 0.015625)"/>
     <use xlink:href="#DejaVuSerif-75" transform="translate(3948.046875 0.015625)"/>
     <use xlink:href="#DejaVuSerif-61" transform="translate(4012.451172 0.015625)"/>
     <use xlink:href="#DejaVuSerif-64" transform="translate(4072.070312 0.015625)"/>
     <use xlink:href="#DejaVuSerif-72" transform="translate(4136.083984 0.015625)"/>
     <use xlink:href="#DejaVuSerif-75" transform="translate(4183.886719 0.015625)"/>
     <use xlink:href="#DejaVuSerif-70" transform="translate(4248.291016 0.015625)"/>
     <use xlink:href="#DejaVuSerif-6c" transform="translate(4312.304688 0.015625)"/>
     <use xlink:href="#DejaVuSerif-65" transform="translate(4344.287109 0.015625)"/>
     <use xlink:href="#DejaVuSerif-73" transform="translate(4403.466797 0.015625)"/>
     <use xlink:href="#DejaVuSerif-20" transform="translate(4454.785156 0.015625)"/>
     <use xlink:href="#Cmr10-28" transform="translate(4486.572266 0.015625)"/>
     <use xlink:href="#Cmmi10-61" transform="translate(4525.390625 0.015625)"/>
     <use xlink:href="#Cmmi10-3b" transform="translate(4578.173828 0.015625)"/>
     <use xlink:href="#Cmmi10-62" transform="translate(4623.417969 0.015625)"/>
     <use xlink:href="#Cmmi10-3b" transform="translate(4666.337891 0.015625)"/>
     <use xlink:href="#Cmmi10-63" transform="translate(4711.582031 0.015625)"/>
     <use xlink:href="#Cmmi10-3b" transform="translate(4754.794922 0.015625)"/>
     <use xlink:href="#Cmmi10-64" transform="translate(4800.039062 0.015625)"/>
     <use xlink:href="#Cmr10-29" transform="translate(4852.041016 0.015625)"/>
     <use xlink:href="#DejaVuSerif-20" transform="translate(4890.859375 0.015625)"/>
     <use xlink:href="#DejaVuSerif-6f" transform="translate(4922.646484 0.015625)"/>
     <use xlink:href="#DejaVuSerif-66" transform="translate(4982.851562 0.015625)"/>
     <use xlink:href="#DejaVuSerif-20" transform="translate(5019.863281 0.015625)"/>
     <use xlink:href="#DejaVuSerif-70" transform="translate(5051.650391 0.015625)"/>
     <use xlink:href="#DejaVuSerif-6f" transform="translate(5115.664062 0.015625)"/>
     <use xlink:href="#DejaVuSerif-73" transform="translate(5175.869141 0.015625)"/>
     <use xlink:href="#DejaVuSerif-69" transform="translate(5227.1875 0.015625)"/>
     <use xlink:href="#DejaVuSerif-74" transform="translate(5259.169922 0.015625)"/>
     <use xlink:href="#DejaVuSerif-69" transform="translate(5299.355469 0.015625)"/>
     <use xlink:href="#DejaVuSerif-76" transform="translate(5331.337891 0.015625)"/>
     <use xlink:href="#DejaVuSerif-65" transform="translate(5387.832031 0.015625)"/>
     <use xlink:href="#DejaVuSerif-20" transform="translate(5447.011719 0.015625)"/>
     <use xlink:href="#DejaVuSerif-69" transform="translate(5478.798828 0.015625)"/>
     <use xlink:href="#DejaVuSerif-6e" transform="translate(5510.78125 0.015625)"/>
     <use xlink:href="#DejaVuSerif-74" transform="translate(5575.185547 0.015625)"/>
     <use xlink:href="#DejaVuSerif-65" transform="translate(5615.371094 0.015625)"/>
     <use xlink:href="#DejaVuSerif-67" transform="translate(5674.550781 0.015625)"/>
     <use xlink:href="#DejaVuSerif-65" transform="translate(5738.564453 0.015625)"/>
     <use xlink:href="#DejaVuSerif-72" transform="translate(5797.744141 0.015625)"/>
     <use xlink:href="#DejaVuSerif-73" transform="translate(5845.546875 0.015625)"/>
     <use xlink:href="#DejaVuSerif-20" transform="translate(5896.865234 0.015625)"/>
     <use xlink:href="#DejaVuSerif-73" transform="translate(5928.652344 0.015625)"/>
     <use xlink:href="#DejaVuSerif-75" transform="translate(5979.970703 0.015625)"/>
     <use xlink:href="#DejaVuSerif-63" transform="translate(6044.375 0.015625)"/>
     <use xlink:href="#DejaVuSerif-68" transform="translate(6100.380859 0.015625)"/>
     <use xlink:href="#DejaVuSerif-20" transform="translate(6164.785156 0.015625)"/>
     <use xlink:href="#DejaVuSerif-74" transform="translate(6196.572266 0.015625)"/>
     <use xlink:href="#DejaVuSerif-68" transform="translate(6236.757812 0.015625)"/>
     <use xlink:href="#DejaVuSerif-61" transform="translate(6301.162109 0.015625)"/>
     <use xlink:href="#DejaVuSerif-74" transform="translate(6360.78125 0.015625)"/>
     <use xlink:href="#DejaVuSerif-20" transform="translate(6400.966797 0.015625)"/>
     <use xlink:href="#Cmr10-33" transform="translate(6432.753906 0.015625)"/>
     <use xlink:href="#Cmmi10-72" transform="translate(6487.218047 38.279688) scale(0.7)"/>
     <use xlink:href="#Cmsy10-a2" transform="translate(6542.736016 0.015625)"/>
     <use xlink:href="#Cmr10-37" transform="translate(6587.980156 0.015625)"/>
     <use xlink:href="#Cmmi10-73" transform="translate(6642.444297 38.279688) scale(0.7)"/>
     <use xlink:href="#Cmr10-3d" transform="translate(6699.124375 0.015625)"/>
     <use xlink:href="#Cmr10-6c" transform="translate(6794.368516 0.015625)"/>
     <use xlink:href="#Cmr10-63" transform="translate(6822.054062 0.015625)"/>
     <use xlink:href="#Cmr10-6d" transform="translate(6866.438828 0.015625)"/>
     <use xlink:href="#Cmr10-5b" transform="translate(6949.739609 0.015625)"/>
     <use xlink:href="#Cmmi10-61" transform="translate(6977.425156 0.015625)"/>
     <use xlink:href="#Cmmi10-3b" transform="translate(7030.208359 0.015625)"/>
     <use xlink:href="#Cmmi10-62" transform="translate(7075.4525 0.015625)"/>
     <use xlink:href="#Cmmi10-3b" transform="translate(7118.372422 0.015625)"/>
     <use xlink:href="#Cmmi10-63" transform="translate(7163.616562 0.015625)"/>
     <use xlink:href="#Cmr10-5d" transform="translate(7206.829453 0.015625)"/>
     <use xlink:href="#Cmr10-3d" transform="translate(7252.073594 0.015625)"/>
     <use xlink:href="#Cmr10-6c" transform="translate(7347.317734 0.015625)"/>
     <use xlink:href="#Cmr10-63" transform="translate(7375.003281 0.015625)"/>
     <use xlink:href="#Cmr10-6d" transform="translate(7419.388047 0.015625)"/>
     <use xlink:href="#Cmr10-5b" transform="translate(7502.688828 0.015625)"/>
     <use xlink:href="#Cmmi10-61" transform="translate(7530.374375 0.015625)"/>
     <use xlink:href="#Cmmi10-3b" transform="translate(7583.157578 0.015625)"/>
     <use xlink:href="#Cmmi10-62" transform="translate(7628.401719 0.015625)"/>
     <use xlink:href="#Cmmi10-3b" transform="translate(7671.321641 0.015625)"/>
     <use xlink:href="#Cmmi10-64" transform="translate(7716.565781 0.015625)"/>
     <use xlink:href="#Cmr10-5d" transform="translate(7768.567734 0.015625)"/>
     <use xlink:href="#Cmr10-3d" transform="translate(7813.811875 0.015625)"/>
     <use xlink:href="#Cmr10-6c" transform="translate(7909.056016 0.015625)"/>
     <use xlink:href="#Cmr10-63" transform="translate(7936.741562 0.015625)"/>
     <use xlink:href="#Cmr10-6d" transform="translate(7981.126328 0.015625)"/>
     <use xlink:href="#Cmr10-5b" transform="translate(8064.427109 0.015625)"/>
     <use xlink:href="#Cmmi10-61" transform="translate(8092.112656 0.015625)"/>
     <use xlink:href="#Cmmi10-3b" transform="translate(8144.895859 0.015625)"/>
     <use xlink:href="#Cmmi10-63" transform="translate(8190.14 0.015625)"/>
     <use xlink:href="#Cmmi10-3b" transform="translate(8233.352891 0.015625)"/>
     <use xlink:href="#Cmmi10-64" transform="translate(8278.597031 0.015625)"/>
     <use xlink:href="#Cmr10-5d" transform="translate(8330.598984 0.015625)"/>
     <use xlink:href="#Cmr10-3d" transform="translate(8375.843125 0.015625)"/>
     <use xlink:href="#Cmr10-6c" transform="translate(8471.087266 0.015625)"/>
     <use xlink:href="#Cmr10-63" transform="translate(8498.772812 0.015625)"/>
     <use xlink:href="#Cmr10-6d" transform="translate(8543.157578 0.015625)"/>
     <use xlink:href="#Cmr10-5b" transform="translate(8626.458359 0.015625)"/>
     <use xlink:href="#Cmmi10-62" transform="translate(8654.143906 0.015625)"/>
     <use xlink:href="#Cmmi10-3b" transform="translate(8697.063828 0.015625)"/>
     <use xlink:href="#Cmmi10-63" transform="translate(8742.307969 0.015625)"/>
     <use xlink:href="#Cmmi10-3b" transform="translate(8785.520859 0.015625)"/>
     <use xlink:href="#Cmmi10-64" transform="translate(8830.765 0.015625)"/>
     <use xlink:href="#Cmr10-5d" transform="translate(8882.766953 0.015625)"/>
     <use xlink:href="#DejaVuSerif-2e" transform="translate(8910.4525 0.015625)"/>
     <use xlink:href="#DejaVuSerif-20" transform="translate(8942.239609 0.015625)"/>
     <use xlink:href="#DejaVuSerif-54" transform="translate(8974.026719 0.015625)"/>
     <use xlink:href="#DejaVuSerif-68" transform="translate(9040.725937 0.015625)"/>
     <use xlink:href="#DejaVuSerif-65" transform="translate(9105.130234 0.015625)"/>
     <use xlink:href="#DejaVuSerif-20" transform="translate(9164.309922 0.015625)"/>
     <use xlink:href="#DejaVuSerif-61" transform="translate(9196.097031 0.015625)"/>
     <use xlink:href="#DejaVuSerif-6e" transform="translate(9255.716172 0.015625)"/>
     <use xlink:href="#DejaVuSerif-73" transform="translate(9320.120469 0.015625)"/>
     <use xlink:href="#DejaVuSerif-77" transform="translate(9371.438828 0.015625)"/>
     <use xlink:href="#DejaVuSerif-65" transform="translate(9457.034531 0.015625)"/>
     <use xlink:href="#DejaVuSerif-72" transform="translate(9516.214219 0.015625)"/>
     <use xlink:href="#DejaVuSerif-20" transform="translate(9564.016953 0.015625)"/>
     <use xlink:href="#DejaVuSerif-73" transform="translate(9595.804062 0.015625)"/>
     <use xlink:href="#DejaVuSerif-68" transform="translate(9647.122422 0.015625)"/>
     <use xlink:href="#DejaVuSerif-6f" transform="translate(9711.526719 0.015625)"/>
     <use xlink:href="#DejaVuSerif-75" transform="translate(9771.731797 0.015625)"/>
     <use xlink:href="#DejaVuSerif-6c" transform="translate(9836.136094 0.015625)"/>
     <use xlink:href="#DejaVuSerif-64" transform="translate(9868.118516 0.015625)"/>
     <use xlink:href="#DejaVuSerif-20" transform="translate(9932.132187 0.015625)"/>
     <use xlink:href="#DejaVuSerif-62" transform="translate(9963.919297 0.015625)"/>
     <use xlink:href="#DejaVuSerif-65" transform="translate(10027.932969 0.015625)"/>
     <use xlink:href="#DejaVuSerif-20" transform="translate(10087.112656 0.015625)"/>
     <use xlink:href="#DejaVuSerif-61" transform="translate(10118.899766 0.015625)"/>
     <use xlink:href="#DejaVuSerif-20" transform="translate(10178.518906 0.015625)"/>
     <use xlink:href="#DejaVuSerif-66" transform="translate(10210.306016 0.015625)"/>
     <use xlink:href="#DejaVuSerif-75" transform="translate(10247.317734 0.015625)"/>
     <use xlink:href="#DejaVuSerif-6e" transform="translate(10311.722031 0.015625)"/>
     <use xlink:href="#DejaVuSerif-63" transform="translate(10376.126328 0.015625)"/>
     <use xlink:href="#DejaVuSerif-74" transform="translate(10432.132187 0.015625)"/>
     <use xlink:href="#DejaVuSerif-69" transform="translate(10472.317734 0.015625)"/>
     <use xlink:href="#DejaVuSerif-6f" transform="translate(10504.300156 0.015625)"/>
     <use xlink:href="#DejaVuSerif-6e" transform="translate(10564.505234 0.015625)"/>
     <use xlink:href="#DejaVuSerif-20" transform="translate(10628.909531 0.015625)"/>
     <use xlink:href="#DejaVuSerif-6f" transform="translate(10660.696641 0.015625)"/>
     <use xlink:href="#DejaVuSerif-66" transform="translate(10720.901719 0.015625)"/>
     <use xlink:href="#DejaVuSerif-20" transform="translate(10757.913437 0.015625)"/>
     <use xlink:href="#Cmmi10-72" transform="translate(10789.700547 0.015625)"/>
     <use xlink:href="#DejaVuSerif-20" transform="translate(10834.817734 0.015625)"/>
     <use xlink:href="#DejaVuSerif-61" transform="translate(10866.604844 0.015625)"/>
     <use xlink:href="#DejaVuSerif-6e" transform="translate(10926.223984 0.015625)"/>
     <use xlink:href="#DejaVuSerif-64" transform="translate(10990.628281 0.015625)"/>
     <use xlink:href="#DejaVuSerif-20" transform="translate(11054.641953 0.015625)"/>
     <use xlink:href="#Cmmi10-73" transform="translate(11086.429062 0.015625)"/>
     <use xlink:href="#DejaVuSerif-2e" transform="translate(11133.206406 0.015625)"/>
     <use xlink:href="#DejaVuSerif-20" transform="translate(11164.993516 0.015625)"/>
     <use xlink:href="#DejaVuSerif-28" transform="translate(11196.780625 0.015625)"/>
     <use xlink:href="#DejaVuSerif-4e" transform="translate(11235.794297 0.015625)"/>
     <use xlink:href="#DejaVuSerif-6f" transform="translate(11323.294297 0.015625)"/>
     <use xlink:href="#DejaVuSerif-74" transform="translate(11383.499375 0.015625)"/>
     <use xlink:href="#DejaVuSerif-65" transform="translate(11423.684922 0.015625)"/>
     <use xlink:href="#DejaVuSerif-20" transform="translate(11482.864609 0.015625)"/>
     <use xlink:href="#DejaVuSerif-74" transform="translate(11514.651719 0.015625)"/>
     <use xlink:href="#DejaVuSerif-68" transform="translate(11554.837266 0.015625)"/>
     <use xlink:href="#DejaVuSerif-61" transform="translate(11619.241562 0.015625)"/>
     <use xlink:href="#DejaVuSerif-74" transform="translate(11678.860703 0.015625)"/>
     <use xlink:href="#DejaVuSerif-20" transform="translate(11719.04625 0.015625)"/>
     <use xlink:href="#Cmr10-6c" transform="translate(11750.833359 0.015625)"/>
     <use xlink:href="#Cmr10-63" transform="translate(11778.518906 0.015625)"/>
     <use xlink:href="#Cmr10-6d" transform="translate(11822.903672 0.015625)"/>
     <use xlink:href="#Cmr10-5b" transform="translate(11906.204453 0.015625)"/>
     <use xlink:href="#Cmmi10-78" transform="translate(11933.89 0.015625)"/>
     <use xlink:href="#Cmmi10-3b" transform="translate(11990.970078 0.015625)"/>
     <use xlink:href="#Cmmi10-79" transform="translate(12036.214219 0.015625)"/>
     <use xlink:href="#Cmmi10-3b" transform="translate(12085.237656 0.015625)"/>
     <use xlink:href="#Cmmi10-7a" transform="translate(12130.481797 0.015625)"/>
     <use xlink:href="#Cmr10-5d" transform="translate(12176.966172 0.015625)"/>
     <use xlink:href="#DejaVuSerif-20" transform="translate(12204.651719 0.015625)"/>
     <use xlink:href="#DejaVuSerif-64" transform="translate(12236.438828 0.015625)"/>
     <use xlink:href="#DejaVuSerif-65" transform="translate(12300.4525 0.015625)"/>
     <use xlink:href="#DejaVuSerif-6e" transform="translate(12359.632187 0.015625)"/>
     <use xlink:href="#DejaVuSerif-6f" transform="translate(12424.036484 0.015625)"/>
     <use xlink:href="#DejaVuSerif-74" transform="translate(12484.241562 0.015625)"/>
     <use xlink:href="#DejaVuSerif-65" transform="translate(12524.427109 0.015625)"/>
     <use xlink:href="#DejaVuSerif-73" transform="translate(12583.606797 0.015625)"/>
     <use xlink:href="#DejaVuSerif-20" transform="translate(12634.925156 0.015625)"/>
     <use xlink:href="#DejaVuSerif-74" transform="translate(12666.712266 0.015625)"/>
     <use xlink:href="#DejaVuSerif-68" transform="translate(12706.897812 0.015625)"/>
     <use xlink:href="#DejaVuSerif-65" transform="translate(12771.302109 0.015625)"/>
     <use xlink:href="#DejaVuSerif-20" transform="translate(12830.481797 0.015625)"/>
     <use xlink:href="#DejaVuSerif-6c" transform="translate(12862.268906 0.015625)"/>
     <use xlink:href="#DejaVuSerif-65" transform="translate(12894.251328 0.015625)"/>
     <use xlink:href="#DejaVuSerif-61" transform="translate(12953.431016 0.015625)"/>
     <use xlink:href="#DejaVuSerif-73" transform="translate(13013.050156 0.015625)"/>
     <use xlink:href="#DejaVuSerif-74" transform="translate(13064.368516 0.015625)"/>
     <use xlink:href="#DejaVuSerif-20" transform="translate(13104.554062 0.015625)"/>
     <use xlink:href="#DejaVuSerif-63" transform="translate(13136.341172 0.015625)"/>
     <use xlink:href="#DejaVuSerif-6f" transform="translate(13192.347031 0.015625)"/>
     <use xlink:href="#DejaVuSerif-6d" transform="translate(13252.552109 0.015625)"/>
     <use xlink:href="#DejaVuSerif-6d" transform="translate(13347.376328 0.015625)"/>
     <use xlink:href="#DejaVuSerif-6f" transform="translate(13442.200547 0.015625)"/>
     <use xlink:href="#DejaVuSerif-6e" transform="translate(13502.405625 0.015625)"/>
     <use xlink:href="#DejaVuSerif-20" transform="translate(13566.809922 0.015625)"/>
     <use xlink:href="#DejaVuSerif-6d" transform="translate(13598.597031 0.015625)"/>
     <use xlink:href="#DejaVuSerif-75" transform="translate(13693.42125 0.015625)"/>
     <use xlink:href="#DejaVuSerif-6c" transform="translate(13757.825547 0.015625)"/>
     <use xlink:href="#DejaVuSerif-74" transform="translate(13789.807969 0.015625)"/>
     <use xlink:href="#DejaVuSerif-69" transform="translate(13829.993516 0.015625)"/>
     <use xlink:href="#DejaVuSerif-70" transform="translate(13861.975937 0.015625)"/>
     <use xlink:href="#DejaVuSerif-6c" transform="translate(13925.989609 0.015625)"/>
     <use xlink:href="#DejaVuSerif-65" transform="translate(13957.972031 0.015625)"/>
     <use xlink:href="#DejaVuSerif-20" transform="translate(14017.151719 0.015625)"/>
     <use xlink:href="#DejaVuSerif-6f" transform="translate(14048.938828 0.015625)"/>
     <use xlink:href="#DejaVuSerif-66" transform="translate(14109.143906 0.015625)"/>
     <use xlink:href="#DejaVuSerif-20" transform="translate(14146.155625 0.015625)"/>
     <use xlink:href="#Cmmi10-78" transform="translate(14177.942734 0.015625)"/>
     <use xlink:href="#Cmmi10-3b" transform="translate(14235.022812 0.015625)"/>
     <use xlink:href="#Cmmi10-79" transform="translate(14280.266953 0.015625)"/>
     <use xlink:href="#Cmmi10-3b" transform="translate(14329.290391 0.015625)"/>
     <use xlink:href="#Cmmi10-7a" transform="translate(14374.534531 0.015625)"/>
     <use xlink:href="#DejaVuSerif-2e" transform="translate(14421.018906 0.015625)"/>
     <use xlink:href="#DejaVuSerif-29" transform="translate(14452.806016 0.015625)"/>
    </g>
   </g>
  </g>
 </g>
</svg>
