<?xml version="1.0" encoding="utf-8" standalone="no"?>
<!DOCTYPE svg PUBLIC "-//W3C//DTD SVG 1.1//EN"
  "http://www.w3.org/Graphics/SVG/1.1/DTD/svg11.dtd">
<svg xmlns:xlink="http://www.w3.org/1999/xlink" width="1443pt" height="180.72pt" viewBox="0 0 1443 180.72" xmlns="http://www.w3.org/2000/svg" version="1.1">
 <metadata>
  <rdf:RDF xmlns:dc="http://purl.org/dc/elements/1.1/" xmlns:cc="http://creativecommons.org/ns#" xmlns:rdf="http://www.w3.org/1999/02/22-rdf-syntax-ns#">
   <cc:Work>
    <dc:type rdf:resource="http://purl.org/dc/dcmitype/StillImage"/>
    <dc:date>2025-05-29T18:43:57.464850</dc:date>
    <dc:format>image/svg+xml</dc:format>
    <dc:creator>
     <cc:Agent>
      <dc:title>Matplotlib v3.10.3, https://matplotlib.org/</dc:title>
     </cc:Agent>
    </dc:creator>
   </cc:Work>
  </rdf:RDF>
 </metadata>
 <defs>
  <style type="text/css">*{stroke-linejoin: round; stroke-linecap: butt}</style>
 </defs>
 <g id="figure_1">
  <g id="patch_1">
   <path d="M 0 180.72 
L 1443 180.72 
L 1443 0 
L 0 0 
z
" style="fill: #ffffff"/>
  </g>
  <g id="axes_1">
   <g id="text_1">
    <!-- Let $T_0=2,T_1=3,T_2=6$, and for $n \geqq 3$, $T_n=(n+4)T_{n-1}-4nT_{n-2}+(4n-8)T_{n-3}$. The first few terms are $2,3,6,14,40,152,784,5168,40576$. Find, with proof, a formula for $T_n$ of the form $T_n=A_n+B_n$, where $\{A_n\}$ and $\{B_n\}$ are well-known sequences. -->
    <g transform="translate(7.2 94.74) scale(0.12 -0.12)">
     <defs>
      <path id="DejaVuSerif-4c" d="M 353 0 
L 353 331 
L 947 331 
L 947 4331 
L 353 4331 
L 353 4666 
L 2175 4666 
L 2175 4331 
L 1581 4331 
L 1581 384 
L 3713 384 
L 3713 1166 
L 4097 1166 
L 4097 0 
L 353 0 
z
" transform="scale(0.015625)"/>
      <path id="DejaVuSerif-65" d="M 3469 1600 
L 991 1600 
L 991 1575 
Q 991 903 1244 561 
Q 1497 219 1991 219 
Q 2369 219 2611 417 
Q 2853 616 2950 1006 
L 3413 1006 
Q 3275 459 2904 184 
Q 2534 -91 1931 -91 
Q 1203 -91 761 389 
Q 319 869 319 1663 
Q 319 2450 753 2931 
Q 1188 3413 1894 3413 
Q 2647 3413 3050 2948 
Q 3453 2484 3469 1600 
z
M 2791 1931 
Q 2772 2513 2545 2808 
Q 2319 3103 1894 3103 
Q 1497 3103 1269 2806 
Q 1041 2509 991 1931 
L 2791 1931 
z
" transform="scale(0.015625)"/>
      <path id="DejaVuSerif-74" d="M 691 2988 
L 184 2988 
L 184 3322 
L 691 3322 
L 691 4353 
L 1269 4353 
L 1269 3322 
L 2350 3322 
L 2350 2988 
L 1269 2988 
L 1269 878 
Q 1269 456 1350 337 
Q 1431 219 1650 219 
Q 1875 219 1978 351 
Q 2081 484 2088 781 
L 2522 781 
Q 2497 328 2275 118 
Q 2053 -91 1600 -91 
Q 1103 -91 897 129 
Q 691 350 691 878 
L 691 2988 
z
" transform="scale(0.015625)"/>
      <path id="DejaVuSerif-20" transform="scale(0.015625)"/>
      <path id="Cmmi10-54" d="M 294 84 
Q 297 100 308 140 
Q 319 181 336 203 
Q 353 225 384 225 
Q 934 225 1113 256 
Q 1284 300 1319 441 
L 2194 3956 
Q 2222 4034 2222 4097 
Q 2222 4147 1997 4147 
L 1625 4147 
Q 1197 4147 964 4015 
Q 731 3884 622 3668 
Q 513 3453 341 2963 
Q 319 2906 275 2906 
L 219 2906 
Q 153 2906 153 2988 
L 609 4313 
Q 622 4372 672 4372 
L 4453 4372 
Q 4519 4372 4519 4288 
L 4306 2963 
Q 4306 2944 4284 2925 
Q 4263 2906 4244 2906 
L 4184 2906 
Q 4122 2906 4122 2988 
Q 4191 3441 4191 3628 
Q 4191 3853 4097 3968 
Q 4003 4084 3853 4115 
Q 3703 4147 3463 4147 
L 3084 4147 
Q 2913 4147 2853 4115 
Q 2794 4084 2753 3928 
L 1875 416 
Q 1872 403 1870 390 
Q 1869 378 1863 359 
Q 1863 278 1959 256 
Q 2125 225 2669 225 
Q 2731 225 2731 141 
Q 2709 50 2696 25 
Q 2684 0 2625 0 
L 359 0 
Q 294 0 294 84 
z
" transform="scale(0.015625)"/>
      <path id="Cmr10-30" d="M 1600 -141 
Q 816 -141 533 504 
Q 250 1150 250 2041 
Q 250 2597 351 3087 
Q 453 3578 754 3920 
Q 1056 4263 1600 4263 
Q 2022 4263 2290 4056 
Q 2559 3850 2700 3523 
Q 2841 3197 2892 2823 
Q 2944 2450 2944 2041 
Q 2944 1491 2842 1011 
Q 2741 531 2444 195 
Q 2147 -141 1600 -141 
z
M 1600 25 
Q 1956 25 2131 390 
Q 2306 756 2347 1200 
Q 2388 1644 2388 2144 
Q 2388 2625 2347 3031 
Q 2306 3438 2132 3767 
Q 1959 4097 1600 4097 
Q 1238 4097 1063 3765 
Q 888 3434 847 3029 
Q 806 2625 806 2144 
Q 806 1788 823 1472 
Q 841 1156 916 820 
Q 991 484 1158 254 
Q 1325 25 1600 25 
z
" transform="scale(0.015625)"/>
      <path id="Cmr10-3d" d="M 481 850 
Q 428 850 393 890 
Q 359 931 359 978 
Q 359 1031 393 1068 
Q 428 1106 481 1106 
L 4500 1106 
Q 4547 1106 4581 1068 
Q 4616 1031 4616 978 
Q 4616 931 4581 890 
Q 4547 850 4500 850 
L 481 850 
z
M 481 2094 
Q 428 2094 393 2131 
Q 359 2169 359 2222 
Q 359 2269 393 2309 
Q 428 2350 481 2350 
L 4500 2350 
Q 4547 2350 4581 2309 
Q 4616 2269 4616 2222 
Q 4616 2169 4581 2131 
Q 4547 2094 4500 2094 
L 481 2094 
z
" transform="scale(0.015625)"/>
      <path id="Cmr10-32" d="M 319 0 
L 319 172 
Q 319 188 331 206 
L 1325 1306 
Q 1550 1550 1690 1715 
Q 1831 1881 1968 2097 
Q 2106 2313 2186 2536 
Q 2266 2759 2266 3009 
Q 2266 3272 2169 3511 
Q 2072 3750 1880 3894 
Q 1688 4038 1416 4038 
Q 1138 4038 916 3870 
Q 694 3703 603 3438 
Q 628 3444 672 3444 
Q 816 3444 917 3347 
Q 1019 3250 1019 3097 
Q 1019 2950 917 2848 
Q 816 2747 672 2747 
Q 522 2747 420 2851 
Q 319 2956 319 3097 
Q 319 3338 409 3548 
Q 500 3759 670 3923 
Q 841 4088 1055 4175 
Q 1269 4263 1509 4263 
Q 1875 4263 2190 4108 
Q 2506 3953 2690 3670 
Q 2875 3388 2875 3009 
Q 2875 2731 2753 2481 
Q 2631 2231 2440 2026 
Q 2250 1822 1953 1562 
Q 1656 1303 1563 1216 
L 838 519 
L 1453 519 
Q 1906 519 2211 526 
Q 2516 534 2534 550 
Q 2609 631 2688 1141 
L 2875 1141 
L 2694 0 
L 319 0 
z
" transform="scale(0.015625)"/>
      <path id="Cmmi10-3b" d="M 634 -1153 
Q 634 -1125 659 -1100 
Q 891 -878 1019 -587 
Q 1147 -297 1147 25 
L 1147 103 
Q 1044 0 891 0 
Q 744 0 641 103 
Q 538 206 538 353 
Q 538 503 641 603 
Q 744 703 891 703 
Q 1119 703 1216 492 
Q 1313 281 1313 25 
Q 1313 -331 1170 -651 
Q 1028 -972 769 -1228 
Q 744 -1241 728 -1241 
Q 697 -1241 665 -1212 
Q 634 -1184 634 -1153 
z
" transform="scale(0.015625)"/>
      <path id="Cmr10-31" d="M 594 0 
L 594 225 
Q 1394 225 1394 428 
L 1394 3788 
Q 1063 3628 556 3628 
L 556 3853 
Q 1341 3853 1741 4263 
L 1831 4263 
Q 1853 4263 1873 4245 
Q 1894 4228 1894 4206 
L 1894 428 
Q 1894 225 2694 225 
L 2694 0 
L 594 0 
z
" transform="scale(0.015625)"/>
      <path id="Cmr10-33" d="M 609 494 
Q 759 275 1012 169 
Q 1266 63 1556 63 
Q 1928 63 2084 380 
Q 2241 697 2241 1100 
Q 2241 1281 2208 1462 
Q 2175 1644 2097 1800 
Q 2019 1956 1883 2050 
Q 1747 2144 1550 2144 
L 1125 2144 
Q 1069 2144 1069 2203 
L 1069 2259 
Q 1069 2309 1125 2309 
L 1478 2338 
Q 1703 2338 1851 2506 
Q 2000 2675 2069 2917 
Q 2138 3159 2138 3378 
Q 2138 3684 1994 3881 
Q 1850 4078 1556 4078 
Q 1313 4078 1091 3986 
Q 869 3894 738 3706 
Q 750 3709 759 3711 
Q 769 3713 781 3713 
Q 925 3713 1022 3613 
Q 1119 3513 1119 3372 
Q 1119 3234 1022 3134 
Q 925 3034 781 3034 
Q 641 3034 541 3134 
Q 441 3234 441 3372 
Q 441 3647 606 3850 
Q 772 4053 1033 4158 
Q 1294 4263 1556 4263 
Q 1750 4263 1965 4205 
Q 2181 4147 2356 4039 
Q 2531 3931 2642 3762 
Q 2753 3594 2753 3378 
Q 2753 3109 2633 2881 
Q 2513 2653 2303 2487 
Q 2094 2322 1844 2241 
Q 2122 2188 2372 2031 
Q 2622 1875 2773 1631 
Q 2925 1388 2925 1106 
Q 2925 753 2731 467 
Q 2538 181 2222 20 
Q 1906 -141 1556 -141 
Q 1256 -141 954 -26 
Q 653 88 461 316 
Q 269 544 269 863 
Q 269 1022 375 1128 
Q 481 1234 641 1234 
Q 744 1234 830 1186 
Q 916 1138 964 1050 
Q 1013 963 1013 863 
Q 1013 706 903 600 
Q 794 494 641 494 
L 609 494 
z
" transform="scale(0.015625)"/>
      <path id="Cmr10-36" d="M 1600 -141 
Q 1203 -141 937 70 
Q 672 281 526 617 
Q 381 953 325 1322 
Q 269 1691 269 2069 
Q 269 2575 466 3084 
Q 663 3594 1045 3928 
Q 1428 4263 1953 4263 
Q 2172 4263 2361 4180 
Q 2550 4097 2658 3936 
Q 2766 3775 2766 3547 
Q 2766 3416 2677 3327 
Q 2588 3238 2456 3238 
Q 2331 3238 2240 3328 
Q 2150 3419 2150 3547 
Q 2150 3672 2240 3762 
Q 2331 3853 2456 3853 
L 2491 3853 
Q 2409 3969 2261 4023 
Q 2113 4078 1953 4078 
Q 1759 4078 1595 3993 
Q 1431 3909 1300 3765 
Q 1169 3622 1081 3448 
Q 994 3275 945 3053 
Q 897 2831 884 2637 
Q 872 2444 872 2150 
Q 984 2413 1190 2580 
Q 1397 2747 1656 2747 
Q 1941 2747 2175 2631 
Q 2409 2516 2578 2311 
Q 2747 2106 2836 1843 
Q 2925 1581 2925 1313 
Q 2925 938 2758 598 
Q 2591 259 2287 59 
Q 1984 -141 1600 -141 
z
M 1600 63 
Q 1847 63 1997 175 
Q 2147 288 2217 473 
Q 2288 659 2305 848 
Q 2322 1038 2322 1313 
Q 2322 1675 2287 1931 
Q 2253 2188 2100 2383 
Q 1947 2578 1631 2578 
Q 1372 2578 1205 2403 
Q 1038 2228 961 1961 
Q 884 1694 884 1447 
Q 884 1363 891 1319 
Q 891 1309 889 1303 
Q 888 1297 884 1288 
Q 884 1013 940 731 
Q 997 450 1156 256 
Q 1316 63 1600 63 
z
" transform="scale(0.015625)"/>
      <path id="DejaVuSerif-2c" d="M 231 -622 
Q 525 -406 662 -114 
Q 800 178 800 594 
L 800 709 
L 1416 709 
Q 1391 175 1164 -208 
Q 938 -591 481 -872 
L 231 -622 
z
" transform="scale(0.015625)"/>
      <path id="DejaVuSerif-61" d="M 2547 1044 
L 2547 1747 
L 1806 1747 
Q 1378 1747 1168 1562 
Q 959 1378 959 997 
Q 959 650 1171 447 
Q 1384 244 1747 244 
Q 2106 244 2326 466 
Q 2547 688 2547 1044 
z
M 3122 2075 
L 3122 331 
L 3634 331 
L 3634 0 
L 2547 0 
L 2547 359 
Q 2356 128 2106 18 
Q 1856 -91 1522 -91 
Q 969 -91 644 203 
Q 319 497 319 997 
Q 319 1513 691 1797 
Q 1063 2081 1741 2081 
L 2547 2081 
L 2547 2309 
Q 2547 2688 2317 2895 
Q 2088 3103 1672 3103 
Q 1328 3103 1125 2947 
Q 922 2791 872 2484 
L 575 2484 
L 575 3156 
Q 875 3284 1158 3348 
Q 1441 3413 1709 3413 
Q 2400 3413 2761 3070 
Q 3122 2728 3122 2075 
z
" transform="scale(0.015625)"/>
      <path id="DejaVuSerif-6e" d="M 263 0 
L 263 331 
L 781 331 
L 781 2988 
L 231 2988 
L 231 3322 
L 1356 3322 
L 1356 2731 
Q 1516 3069 1770 3241 
Q 2025 3413 2363 3413 
Q 2913 3413 3172 3097 
Q 3431 2781 3431 2113 
L 3431 331 
L 3944 331 
L 3944 0 
L 2356 0 
L 2356 331 
L 2853 331 
L 2853 1931 
Q 2853 2541 2703 2767 
Q 2553 2994 2175 2994 
Q 1775 2994 1565 2701 
Q 1356 2409 1356 1850 
L 1356 331 
L 1856 331 
L 1856 0 
L 263 0 
z
" transform="scale(0.015625)"/>
      <path id="DejaVuSerif-64" d="M 3359 331 
L 3909 331 
L 3909 0 
L 2784 0 
L 2784 519 
Q 2616 206 2355 57 
Q 2094 -91 1709 -91 
Q 1097 -91 708 395 
Q 319 881 319 1663 
Q 319 2444 706 2928 
Q 1094 3413 1709 3413 
Q 2094 3413 2355 3264 
Q 2616 3116 2784 2803 
L 2784 4531 
L 2241 4531 
L 2241 4863 
L 3359 4863 
L 3359 331 
z
M 2784 1497 
L 2784 1825 
Q 2784 2422 2554 2737 
Q 2325 3053 1888 3053 
Q 1444 3053 1217 2703 
Q 991 2353 991 1663 
Q 991 975 1217 622 
Q 1444 269 1888 269 
Q 2325 269 2554 583 
Q 2784 897 2784 1497 
z
" transform="scale(0.015625)"/>
      <path id="DejaVuSerif-66" d="M 2753 4078 
L 2450 4078 
Q 2447 4313 2317 4434 
Q 2188 4556 1941 4556 
Q 1619 4556 1487 4379 
Q 1356 4203 1356 3750 
L 1356 3322 
L 2284 3322 
L 2284 2988 
L 1356 2988 
L 1356 331 
L 2094 331 
L 2094 0 
L 231 0 
L 231 331 
L 781 331 
L 781 2988 
L 231 2988 
L 231 3322 
L 781 3322 
L 781 3738 
Q 781 4294 1070 4578 
Q 1359 4863 1919 4863 
Q 2128 4863 2337 4825 
Q 2547 4788 2753 4709 
L 2753 4078 
z
" transform="scale(0.015625)"/>
      <path id="DejaVuSerif-6f" d="M 1925 219 
Q 2388 219 2623 584 
Q 2859 950 2859 1663 
Q 2859 2375 2623 2739 
Q 2388 3103 1925 3103 
Q 1463 3103 1227 2739 
Q 991 2375 991 1663 
Q 991 950 1228 584 
Q 1466 219 1925 219 
z
M 1925 -91 
Q 1200 -91 759 389 
Q 319 869 319 1663 
Q 319 2456 758 2934 
Q 1197 3413 1925 3413 
Q 2653 3413 3092 2934 
Q 3531 2456 3531 1663 
Q 3531 869 3092 389 
Q 2653 -91 1925 -91 
z
" transform="scale(0.015625)"/>
      <path id="DejaVuSerif-72" d="M 3059 3328 
L 3059 2497 
L 2728 2497 
Q 2713 2744 2591 2866 
Q 2469 2988 2234 2988 
Q 1809 2988 1582 2694 
Q 1356 2400 1356 1850 
L 1356 331 
L 2022 331 
L 2022 0 
L 263 0 
L 263 331 
L 781 331 
L 781 2994 
L 231 2994 
L 231 3322 
L 1356 3322 
L 1356 2731 
Q 1525 3078 1790 3245 
Q 2056 3413 2438 3413 
Q 2578 3413 2733 3391 
Q 2888 3369 3059 3328 
z
" transform="scale(0.015625)"/>
      <path id="Cmmi10-6e" d="M 494 109 
Q 494 147 500 166 
L 978 2075 
Q 1025 2253 1025 2388 
Q 1025 2663 838 2663 
Q 638 2663 541 2423 
Q 444 2184 353 1819 
Q 353 1800 334 1789 
Q 316 1778 300 1778 
L 225 1778 
Q 203 1778 187 1801 
Q 172 1825 172 1844 
Q 241 2122 305 2315 
Q 369 2509 505 2668 
Q 641 2828 844 2828 
Q 1084 2828 1268 2676 
Q 1453 2525 1453 2291 
Q 1644 2541 1900 2684 
Q 2156 2828 2444 2828 
Q 2672 2828 2837 2750 
Q 3003 2672 3095 2514 
Q 3188 2356 3188 2138 
Q 3188 1875 3070 1503 
Q 2953 1131 2778 672 
Q 2688 463 2688 288 
Q 2688 97 2834 97 
Q 3084 97 3251 365 
Q 3419 634 3488 941 
Q 3500 978 3541 978 
L 3616 978 
Q 3641 978 3658 962 
Q 3675 947 3675 922 
Q 3675 916 3669 903 
Q 3581 541 3364 234 
Q 3147 -72 2822 -72 
Q 2597 -72 2437 83 
Q 2278 238 2278 459 
Q 2278 578 2328 709 
Q 2409 919 2514 1209 
Q 2619 1500 2686 1765 
Q 2753 2031 2753 2234 
Q 2753 2413 2679 2538 
Q 2606 2663 2431 2663 
Q 2197 2663 2000 2559 
Q 1803 2456 1656 2286 
Q 1509 2116 1388 1881 
L 953 141 
Q 931 53 854 -9 
Q 778 -72 684 -72 
Q 606 -72 550 -22 
Q 494 28 494 109 
z
" transform="scale(0.015625)"/>
      <path id="STIXGeneral-Regular-2267" d="M 3981 2771 
L 365 1024 
L 365 1427 
L 3130 2803 
L 365 4179 
L 365 4595 
L 3981 2835 
L 3981 2771 
z
M 3981 -77 
L 365 -77 
L 365 346 
L 3981 346 
L 3981 -77 
z
M 3981 -1350 
L 365 -1350 
L 365 -928 
L 3981 -928 
L 3981 -1350 
z
" transform="scale(0.015625)"/>
      <path id="Cmr10-28" d="M 1984 -1588 
Q 1628 -1306 1370 -942 
Q 1113 -578 948 -165 
Q 784 247 703 697 
Q 622 1147 622 1600 
Q 622 2059 703 2509 
Q 784 2959 951 3375 
Q 1119 3791 1378 4153 
Q 1638 4516 1984 4788 
Q 1984 4800 2016 4800 
L 2075 4800 
Q 2094 4800 2109 4783 
Q 2125 4766 2125 4744 
Q 2125 4716 2113 4703 
Q 1800 4397 1592 4047 
Q 1384 3697 1257 3301 
Q 1131 2906 1075 2482 
Q 1019 2059 1019 1600 
Q 1019 -434 2106 -1491 
Q 2125 -1509 2125 -1544 
Q 2125 -1559 2108 -1579 
Q 2091 -1600 2075 -1600 
L 2016 -1600 
Q 1984 -1600 1984 -1588 
z
" transform="scale(0.015625)"/>
      <path id="Cmr10-2b" d="M 481 1472 
Q 428 1472 393 1512 
Q 359 1553 359 1600 
Q 359 1647 393 1687 
Q 428 1728 481 1728 
L 2363 1728 
L 2363 3616 
Q 2363 3666 2400 3698 
Q 2438 3731 2491 3731 
Q 2538 3731 2578 3698 
Q 2619 3666 2619 3616 
L 2619 1728 
L 4500 1728 
Q 4547 1728 4581 1687 
Q 4616 1647 4616 1600 
Q 4616 1553 4581 1512 
Q 4547 1472 4500 1472 
L 2619 1472 
L 2619 -416 
Q 2619 -466 2578 -498 
Q 2538 -531 2491 -531 
Q 2438 -531 2400 -498 
Q 2363 -466 2363 -416 
L 2363 1472 
L 481 1472 
z
" transform="scale(0.015625)"/>
      <path id="Cmr10-34" d="M 178 1056 
L 178 1281 
L 2156 4231 
Q 2178 4263 2222 4263 
L 2316 4263 
Q 2388 4263 2388 4191 
L 2388 1281 
L 3016 1281 
L 3016 1056 
L 2388 1056 
L 2388 428 
Q 2388 297 2575 261 
Q 2763 225 3009 225 
L 3009 0 
L 1247 0 
L 1247 225 
Q 1494 225 1681 261 
Q 1869 297 1869 428 
L 1869 1056 
L 178 1056 
z
M 391 1281 
L 1906 1281 
L 1906 3547 
L 391 1281 
z
" transform="scale(0.015625)"/>
      <path id="Cmr10-29" d="M 416 -1600 
Q 359 -1600 359 -1544 
Q 359 -1516 372 -1503 
Q 1466 -434 1466 1600 
Q 1466 3634 384 4691 
Q 359 4706 359 4744 
Q 359 4766 376 4783 
Q 394 4800 416 4800 
L 475 4800 
Q 494 4800 506 4788 
Q 966 4425 1272 3906 
Q 1578 3388 1720 2800 
Q 1863 2213 1863 1600 
Q 1863 1147 1786 708 
Q 1709 269 1542 -157 
Q 1375 -584 1119 -945 
Q 863 -1306 506 -1588 
Q 494 -1600 475 -1600 
L 416 -1600 
z
" transform="scale(0.015625)"/>
      <path id="Cmsy10-a1" d="M 653 1472 
Q 600 1472 565 1512 
Q 531 1553 531 1600 
Q 531 1647 565 1687 
Q 600 1728 653 1728 
L 4325 1728 
Q 4375 1728 4408 1687 
Q 4441 1647 4441 1600 
Q 4441 1553 4408 1512 
Q 4375 1472 4325 1472 
L 653 1472 
z
" transform="scale(0.015625)"/>
      <path id="Cmr10-38" d="M 269 972 
Q 269 1356 522 1651 
Q 775 1947 1172 2144 
L 934 2297 
Q 716 2441 578 2680 
Q 441 2919 441 3181 
Q 441 3488 602 3734 
Q 763 3981 1030 4122 
Q 1297 4263 1600 4263 
Q 1884 4263 2148 4147 
Q 2413 4031 2583 3815 
Q 2753 3600 2753 3303 
Q 2753 3088 2651 2903 
Q 2550 2719 2373 2572 
Q 2197 2425 1997 2322 
L 2363 2088 
Q 2616 1922 2770 1653 
Q 2925 1384 2925 1088 
Q 2925 741 2739 456 
Q 2553 172 2247 15 
Q 1941 -141 1600 -141 
Q 1269 -141 961 -6 
Q 653 128 461 383 
Q 269 638 269 972 
z
M 616 972 
Q 616 719 755 509 
Q 894 300 1122 181 
Q 1350 63 1600 63 
Q 1972 63 2275 280 
Q 2578 497 2578 856 
Q 2578 978 2529 1098 
Q 2481 1219 2395 1317 
Q 2309 1416 2203 1478 
L 1344 2034 
Q 1144 1928 976 1765 
Q 809 1603 712 1400 
Q 616 1197 616 972 
z
M 1056 2925 
L 1831 2425 
Q 2100 2581 2272 2803 
Q 2444 3025 2444 3303 
Q 2444 3519 2323 3698 
Q 2203 3878 2009 3978 
Q 1816 4078 1594 4078 
Q 1400 4078 1203 4003 
Q 1006 3928 878 3779 
Q 750 3631 750 3431 
Q 750 3131 1056 2925 
z
" transform="scale(0.015625)"/>
      <path id="DejaVuSerif-2e" d="M 603 325 
Q 603 500 722 622 
Q 841 744 1019 744 
Q 1191 744 1312 622 
Q 1434 500 1434 325 
Q 1434 153 1312 31 
Q 1191 -91 1019 -91 
Q 841 -91 722 29 
Q 603 150 603 325 
z
" transform="scale(0.015625)"/>
      <path id="DejaVuSerif-54" d="M 1222 0 
L 1222 331 
L 1819 331 
L 1819 4294 
L 447 4294 
L 447 3566 
L 63 3566 
L 63 4666 
L 4206 4666 
L 4206 3566 
L 3822 3566 
L 3822 4294 
L 2450 4294 
L 2450 331 
L 3047 331 
L 3047 0 
L 1222 0 
z
" transform="scale(0.015625)"/>
      <path id="DejaVuSerif-68" d="M 263 0 
L 263 331 
L 781 331 
L 781 4531 
L 231 4531 
L 231 4863 
L 1356 4863 
L 1356 2731 
Q 1516 3069 1770 3241 
Q 2025 3413 2363 3413 
Q 2913 3413 3172 3097 
Q 3431 2781 3431 2113 
L 3431 331 
L 3944 331 
L 3944 0 
L 2356 0 
L 2356 331 
L 2853 331 
L 2853 1931 
Q 2853 2541 2704 2764 
Q 2556 2988 2175 2988 
Q 1775 2988 1565 2697 
Q 1356 2406 1356 1850 
L 1356 331 
L 1856 331 
L 1856 0 
L 263 0 
z
" transform="scale(0.015625)"/>
      <path id="DejaVuSerif-69" d="M 622 4353 
Q 622 4497 726 4603 
Q 831 4709 978 4709 
Q 1122 4709 1226 4603 
Q 1331 4497 1331 4353 
Q 1331 4206 1228 4103 
Q 1125 4000 978 4000 
Q 831 4000 726 4103 
Q 622 4206 622 4353 
z
M 1356 331 
L 1900 331 
L 1900 0 
L 231 0 
L 231 331 
L 781 331 
L 781 2988 
L 231 2988 
L 231 3322 
L 1356 3322 
L 1356 331 
z
" transform="scale(0.015625)"/>
      <path id="DejaVuSerif-73" d="M 359 184 
L 359 959 
L 691 959 
Q 703 588 923 403 
Q 1144 219 1575 219 
Q 1963 219 2166 364 
Q 2369 509 2369 788 
Q 2369 1006 2220 1140 
Q 2072 1275 1594 1428 
L 1178 1569 
Q 750 1706 558 1912 
Q 366 2119 366 2438 
Q 366 2894 700 3153 
Q 1034 3413 1625 3413 
Q 1888 3413 2178 3344 
Q 2469 3275 2778 3144 
L 2778 2419 
L 2447 2419 
Q 2434 2741 2221 2922 
Q 2009 3103 1644 3103 
Q 1281 3103 1095 2975 
Q 909 2847 909 2591 
Q 909 2381 1050 2254 
Q 1191 2128 1613 1997 
L 2069 1856 
Q 2541 1709 2748 1489 
Q 2956 1269 2956 922 
Q 2956 450 2595 179 
Q 2234 -91 1600 -91 
Q 1278 -91 972 -22 
Q 666 47 359 184 
z
" transform="scale(0.015625)"/>
      <path id="DejaVuSerif-77" d="M 3072 3322 
L 3922 728 
L 4672 2988 
L 4191 2988 
L 4191 3322 
L 5394 3322 
L 5394 2988 
L 5025 2988 
L 4038 0 
L 3559 0 
L 2741 2484 
L 1919 0 
L 1459 0 
L 475 2988 
L 103 2988 
L 103 3322 
L 1606 3322 
L 1606 2988 
L 1069 2988 
L 1813 728 
L 2669 3322 
L 3072 3322 
z
" transform="scale(0.015625)"/>
      <path id="DejaVuSerif-6d" d="M 3316 2675 
Q 3481 3041 3739 3227 
Q 3997 3413 4341 3413 
Q 4863 3413 5119 3089 
Q 5375 2766 5375 2113 
L 5375 331 
L 5894 331 
L 5894 0 
L 4300 0 
L 4300 331 
L 4800 331 
L 4800 2047 
Q 4800 2556 4650 2772 
Q 4500 2988 4153 2988 
Q 3769 2988 3567 2697 
Q 3366 2406 3366 1850 
L 3366 331 
L 3866 331 
L 3866 0 
L 2291 0 
L 2291 331 
L 2791 331 
L 2791 2069 
Q 2791 2566 2641 2777 
Q 2491 2988 2144 2988 
Q 1759 2988 1557 2697 
Q 1356 2406 1356 1850 
L 1356 331 
L 1856 331 
L 1856 0 
L 263 0 
L 263 331 
L 781 331 
L 781 2994 
L 231 2994 
L 231 3322 
L 1356 3322 
L 1356 2731 
Q 1516 3063 1762 3238 
Q 2009 3413 2322 3413 
Q 2709 3413 2968 3220 
Q 3228 3028 3316 2675 
z
" transform="scale(0.015625)"/>
      <path id="Cmr10-35" d="M 556 728 
Q 622 541 758 387 
Q 894 234 1080 148 
Q 1266 63 1466 63 
Q 1928 63 2103 422 
Q 2278 781 2278 1294 
Q 2278 1516 2270 1667 
Q 2263 1819 2228 1959 
Q 2169 2184 2020 2353 
Q 1872 2522 1656 2522 
Q 1441 2522 1286 2456 
Q 1131 2391 1034 2303 
Q 938 2216 863 2119 
Q 788 2022 769 2016 
L 697 2016 
Q 681 2016 657 2036 
Q 634 2056 634 2075 
L 634 4213 
Q 634 4228 654 4245 
Q 675 4263 697 4263 
L 716 4263 
Q 1147 4056 1631 4056 
Q 2106 4056 2547 4263 
L 2566 4263 
Q 2588 4263 2606 4247 
Q 2625 4231 2625 4213 
L 2625 4153 
Q 2625 4122 2613 4122 
Q 2394 3831 2064 3668 
Q 1734 3506 1381 3506 
Q 1125 3506 856 3578 
L 856 2369 
Q 1069 2541 1236 2614 
Q 1403 2688 1663 2688 
Q 2016 2688 2295 2484 
Q 2575 2281 2725 1954 
Q 2875 1628 2875 1288 
Q 2875 903 2686 575 
Q 2497 247 2172 53 
Q 1847 -141 1466 -141 
Q 1150 -141 886 21 
Q 622 184 470 459 
Q 319 734 319 1044 
Q 319 1188 412 1278 
Q 506 1369 647 1369 
Q 788 1369 883 1276 
Q 978 1184 978 1044 
Q 978 906 883 811 
Q 788 716 647 716 
Q 625 716 597 720 
Q 569 725 556 728 
z
" transform="scale(0.015625)"/>
      <path id="Cmr10-37" d="M 1113 166 
Q 1113 522 1175 862 
Q 1238 1203 1358 1536 
Q 1478 1869 1648 2189 
Q 1819 2509 2022 2791 
L 2606 3603 
L 1875 3603 
Q 738 3603 703 3572 
Q 619 3469 544 2981 
L 359 2981 
L 569 4325 
L 756 4325 
L 756 4306 
Q 756 4191 1147 4156 
Q 1538 4122 1913 4122 
L 3103 4122 
L 3103 3956 
Q 3103 3950 3101 3947 
Q 3100 3944 3097 3938 
L 2216 2700 
Q 1891 2219 1809 1631 
Q 1728 1044 1728 166 
Q 1728 41 1637 -50 
Q 1547 -141 1422 -141 
Q 1294 -141 1203 -50 
Q 1113 41 1113 166 
z
" transform="scale(0.015625)"/>
      <path id="DejaVuSerif-46" d="M 353 0 
L 353 331 
L 947 331 
L 947 4331 
L 353 4331 
L 353 4666 
L 4172 4666 
L 4172 3628 
L 3788 3628 
L 3788 4281 
L 1581 4281 
L 1581 2719 
L 3175 2719 
L 3175 3303 
L 3559 3303 
L 3559 1753 
L 3175 1753 
L 3175 2338 
L 1581 2338 
L 1581 331 
L 2328 331 
L 2328 0 
L 353 0 
z
" transform="scale(0.015625)"/>
      <path id="DejaVuSerif-70" d="M 1313 1825 
L 1313 1497 
Q 1313 897 1542 583 
Q 1772 269 2209 269 
Q 2650 269 2876 622 
Q 3103 975 3103 1663 
Q 3103 2353 2876 2703 
Q 2650 3053 2209 3053 
Q 1772 3053 1542 2737 
Q 1313 2422 1313 1825 
z
M 738 2988 
L 184 2988 
L 184 3322 
L 1313 3322 
L 1313 2803 
Q 1481 3116 1742 3264 
Q 2003 3413 2388 3413 
Q 3000 3413 3387 2928 
Q 3775 2444 3775 1663 
Q 3775 881 3387 395 
Q 3000 -91 2388 -91 
Q 2003 -91 1742 57 
Q 1481 206 1313 519 
L 1313 -997 
L 1856 -997 
L 1856 -1331 
L 184 -1331 
L 184 -997 
L 738 -997 
L 738 2988 
z
" transform="scale(0.015625)"/>
      <path id="DejaVuSerif-75" d="M 2266 3322 
L 3341 3322 
L 3341 331 
L 3884 331 
L 3884 0 
L 2766 0 
L 2766 588 
Q 2606 256 2353 82 
Q 2100 -91 1766 -91 
Q 1213 -91 952 223 
Q 691 538 691 1209 
L 691 2988 
L 172 2988 
L 172 3322 
L 1269 3322 
L 1269 1388 
Q 1269 781 1417 556 
Q 1566 331 1947 331 
Q 2347 331 2556 625 
Q 2766 919 2766 1478 
L 2766 2988 
L 2266 2988 
L 2266 3322 
z
" transform="scale(0.015625)"/>
      <path id="DejaVuSerif-6c" d="M 1313 331 
L 1856 331 
L 1856 0 
L 184 0 
L 184 331 
L 738 331 
L 738 4531 
L 184 4531 
L 184 4863 
L 1313 4863 
L 1313 331 
z
" transform="scale(0.015625)"/>
      <path id="Cmmi10-41" d="M 288 0 
Q 225 0 225 84 
Q 250 225 306 225 
Q 566 225 755 328 
Q 944 431 1081 647 
Q 1094 659 1094 659 
L 3378 4513 
Q 3428 4581 3500 4581 
L 3584 4581 
Q 3603 4581 3622 4573 
Q 3641 4566 3655 4548 
Q 3669 4531 3669 4513 
L 4056 378 
Q 4056 350 4084 294 
Q 4147 225 4563 225 
Q 4628 225 4628 141 
Q 4606 56 4592 28 
Q 4578 0 4519 0 
L 2919 0 
Q 2859 0 2859 84 
Q 2894 225 2944 225 
Q 3450 225 3481 397 
L 3384 1453 
L 1806 1453 
L 1294 594 
Q 1247 525 1247 434 
Q 1247 322 1355 273 
Q 1463 225 1594 225 
Q 1656 225 1656 141 
Q 1634 50 1621 25 
Q 1609 0 1550 0 
L 288 0 
z
M 1931 1678 
L 3359 1678 
L 3169 3750 
L 1931 1678 
z
" transform="scale(0.015625)"/>
      <path id="Cmmi10-42" d="M 319 0 
Q 256 0 256 84 
Q 259 100 268 137 
Q 278 175 293 200 
Q 309 225 341 225 
Q 522 225 656 234 
Q 791 244 884 269 
Q 959 297 1006 441 
L 1881 3956 
Q 1894 4019 1894 4044 
Q 1894 4113 1819 4122 
Q 1697 4147 1356 4147 
Q 1294 4147 1294 4231 
Q 1297 4247 1306 4286 
Q 1316 4325 1333 4348 
Q 1350 4372 1375 4372 
L 3669 4372 
Q 3878 4372 4083 4320 
Q 4288 4269 4461 4156 
Q 4634 4044 4736 3876 
Q 4838 3709 4838 3488 
Q 4838 3247 4714 3040 
Q 4591 2834 4395 2681 
Q 4200 2528 3973 2429 
Q 3747 2331 3500 2284 
Q 3675 2284 3854 2215 
Q 4034 2147 4175 2028 
Q 4316 1909 4402 1743 
Q 4488 1578 4488 1388 
Q 4488 1003 4219 684 
Q 3950 366 3542 183 
Q 3134 0 2753 0 
L 319 0 
z
M 1497 275 
Q 1497 225 1716 225 
L 2631 225 
Q 2944 225 3231 398 
Q 3519 572 3692 859 
Q 3866 1147 3866 1459 
Q 3866 1650 3786 1820 
Q 3706 1991 3556 2089 
Q 3406 2188 3213 2188 
L 1966 2188 
L 1522 416 
Q 1497 328 1497 275 
z
M 2009 2356 
L 2981 2356 
Q 3288 2356 3577 2512 
Q 3866 2669 4048 2937 
Q 4231 3206 4231 3506 
Q 4231 3784 4057 3965 
Q 3884 4147 3609 4147 
L 2731 4147 
Q 2559 4147 2500 4115 
Q 2441 4084 2400 3928 
L 2009 2356 
z
" transform="scale(0.015625)"/>
      <path id="Cmex10-a9" d="M 1631 -6425 
L 1631 -4556 
Q 1631 -4338 1503 -4159 
Q 1375 -3981 1184 -3867 
Q 994 -3753 756 -3675 
Q 709 -3650 709 -3622 
L 709 -3547 
Q 709 -3503 756 -3494 
Q 1128 -3366 1379 -3150 
Q 1631 -2934 1631 -2606 
L 1631 -738 
Q 1631 -325 2004 -95 
Q 2378 134 2888 256 
L 2963 256 
Q 2981 256 2998 242 
Q 3016 228 3016 206 
L 3016 128 
Q 3016 91 2975 78 
Q 2619 -31 2359 -232 
Q 2100 -434 2100 -750 
L 2100 -2619 
Q 2100 -2994 1804 -3214 
Q 1509 -3434 1056 -3584 
Q 1497 -3716 1798 -3939 
Q 2100 -4163 2100 -4544 
L 2100 -6413 
Q 2100 -6628 2231 -6790 
Q 2363 -6953 2556 -7059 
Q 2750 -7166 2975 -7238 
Q 3016 -7250 3016 -7291 
L 3016 -7366 
Q 3016 -7384 2998 -7401 
Q 2981 -7419 2963 -7419 
L 2888 -7419 
Q 2559 -7338 2292 -7227 
Q 2025 -7116 1828 -6914 
Q 1631 -6713 1631 -6425 
z
" transform="scale(0.015625)"/>
      <path id="Cmex10-aa" d="M 709 -7366 
L 709 -7291 
Q 709 -7247 756 -7238 
Q 1631 -6953 1631 -6413 
L 1631 -4544 
Q 1631 -3909 2669 -3584 
Q 2219 -3431 1925 -3209 
Q 1631 -2988 1631 -2619 
L 1631 -750 
Q 1631 -206 756 78 
Q 709 88 709 128 
L 709 206 
Q 709 256 769 256 
L 844 256 
Q 1359 131 1729 -97 
Q 2100 -325 2100 -738 
L 2100 -2606 
Q 2100 -2925 2354 -3142 
Q 2609 -3359 2975 -3494 
Q 3016 -3506 3016 -3547 
L 3016 -3622 
Q 3016 -3641 2975 -3675 
Q 2769 -3744 2566 -3864 
Q 2363 -3984 2231 -4161 
Q 2100 -4338 2100 -4556 
L 2100 -6425 
Q 2100 -6713 1901 -6914 
Q 1703 -7116 1437 -7227 
Q 1172 -7338 844 -7419 
L 769 -7419 
Q 744 -7419 726 -7401 
Q 709 -7384 709 -7366 
z
" transform="scale(0.015625)"/>
      <path id="DejaVuSerif-2d" d="M 281 1959 
L 1881 1959 
L 1881 1472 
L 281 1472 
L 281 1959 
z
" transform="scale(0.015625)"/>
      <path id="DejaVuSerif-6b" d="M 1831 0 
L 219 0 
L 219 331 
L 738 331 
L 738 4531 
L 184 4531 
L 184 4863 
L 1313 4863 
L 1313 1697 
L 2713 2988 
L 2234 2988 
L 2234 3322 
L 3738 3322 
L 3738 2988 
L 3169 2988 
L 2181 2075 
L 3444 331 
L 3922 331 
L 3922 0 
L 2284 0 
L 2284 331 
L 2759 331 
L 1766 1697 
L 1313 1275 
L 1313 331 
L 1831 331 
L 1831 0 
z
" transform="scale(0.015625)"/>
      <path id="DejaVuSerif-71" d="M 3359 2988 
L 3359 -997 
L 3909 -997 
L 3909 -1331 
L 2241 -1331 
L 2241 -997 
L 2784 -997 
L 2784 519 
Q 2616 206 2355 57 
Q 2094 -91 1709 -91 
Q 1097 -91 708 395 
Q 319 881 319 1663 
Q 319 2444 706 2928 
Q 1094 3413 1709 3413 
Q 2094 3413 2355 3264 
Q 2616 3116 2784 2803 
L 2784 3322 
L 3909 3322 
L 3909 2988 
L 3359 2988 
z
M 2784 1825 
Q 2784 2422 2554 2737 
Q 2325 3053 1888 3053 
Q 1444 3053 1217 2703 
Q 991 2353 991 1663 
Q 991 975 1217 622 
Q 1444 269 1888 269 
Q 2325 269 2554 583 
Q 2784 897 2784 1497 
L 2784 1825 
z
" transform="scale(0.015625)"/>
      <path id="DejaVuSerif-63" d="M 3291 997 
Q 3169 466 2822 187 
Q 2475 -91 1925 -91 
Q 1200 -91 759 389 
Q 319 869 319 1663 
Q 319 2459 759 2936 
Q 1200 3413 1925 3413 
Q 2241 3413 2553 3339 
Q 2866 3266 3181 3116 
L 3181 2266 
L 2847 2266 
Q 2781 2703 2561 2903 
Q 2341 3103 1931 3103 
Q 1466 3103 1228 2742 
Q 991 2381 991 1663 
Q 991 944 1227 581 
Q 1463 219 1931 219 
Q 2303 219 2525 412 
Q 2747 606 2828 997 
L 3291 997 
z
" transform="scale(0.015625)"/>
     </defs>
     <use xlink:href="#DejaVuSerif-4c" transform="translate(0 0.705729)"/>
     <use xlink:href="#DejaVuSerif-65" transform="translate(66.40625 0.705729)"/>
     <use xlink:href="#DejaVuSerif-74" transform="translate(125.585938 0.705729)"/>
     <use xlink:href="#DejaVuSerif-20" transform="translate(165.771484 0.705729)"/>
     <use xlink:href="#Cmmi10-54" transform="translate(197.558594 0.705729)"/>
     <use xlink:href="#Cmr10-30" transform="translate(255.957031 -16.300521) scale(0.7)"/>
     <use xlink:href="#Cmr10-3d" transform="translate(314.892969 0.705729)"/>
     <use xlink:href="#Cmr10-32" transform="translate(410.137109 0.705729)"/>
     <use xlink:href="#Cmmi10-3b" transform="translate(460.137109 0.705729)"/>
     <use xlink:href="#Cmmi10-54" transform="translate(505.38125 0.705729)"/>
     <use xlink:href="#Cmr10-31" transform="translate(563.779688 -16.300521) scale(0.7)"/>
     <use xlink:href="#Cmr10-3d" transform="translate(622.715625 0.705729)"/>
     <use xlink:href="#Cmr10-33" transform="translate(717.959766 0.705729)"/>
     <use xlink:href="#Cmmi10-3b" transform="translate(767.959766 0.705729)"/>
     <use xlink:href="#Cmmi10-54" transform="translate(813.203906 0.705729)"/>
     <use xlink:href="#Cmr10-32" transform="translate(871.602344 -16.300521) scale(0.7)"/>
     <use xlink:href="#Cmr10-3d" transform="translate(930.538281 0.705729)"/>
     <use xlink:href="#Cmr10-36" transform="translate(1025.782422 0.705729)"/>
     <use xlink:href="#DejaVuSerif-2c" transform="translate(1075.782422 0.705729)"/>
     <use xlink:href="#DejaVuSerif-20" transform="translate(1107.569531 0.705729)"/>
     <use xlink:href="#DejaVuSerif-61" transform="translate(1139.356641 0.705729)"/>
     <use xlink:href="#DejaVuSerif-6e" transform="translate(1198.975781 0.705729)"/>
     <use xlink:href="#DejaVuSerif-64" transform="translate(1263.380078 0.705729)"/>
     <use xlink:href="#DejaVuSerif-20" transform="translate(1327.39375 0.705729)"/>
     <use xlink:href="#DejaVuSerif-66" transform="translate(1359.180859 0.705729)"/>
     <use xlink:href="#DejaVuSerif-6f" transform="translate(1396.192578 0.705729)"/>
     <use xlink:href="#DejaVuSerif-72" transform="translate(1456.397656 0.705729)"/>
     <use xlink:href="#DejaVuSerif-20" transform="translate(1504.200391 0.705729)"/>
     <use xlink:href="#Cmmi10-6e" transform="translate(1535.9875 0.705729)"/>
     <use xlink:href="#STIXGeneral-Regular-2267" transform="translate(1613.555859 0.705729)"/>
     <use xlink:href="#Cmr10-33" transform="translate(1699.614438 0.705729)"/>
     <use xlink:href="#DejaVuSerif-2c" transform="translate(1749.614438 0.705729)"/>
     <use xlink:href="#DejaVuSerif-20" transform="translate(1781.401547 0.705729)"/>
     <use xlink:href="#Cmmi10-54" transform="translate(1813.188657 0.705729)"/>
     <use xlink:href="#Cmmi10-6e" transform="translate(1871.587094 -16.300521) scale(0.7)"/>
     <use xlink:href="#Cmr10-3d" transform="translate(1937.529868 0.705729)"/>
     <use xlink:href="#Cmr10-28" transform="translate(2032.774008 0.705729)"/>
     <use xlink:href="#Cmmi10-6e" transform="translate(2071.592368 0.705729)"/>
     <use xlink:href="#Cmr10-2b" transform="translate(2149.160727 0.705729)"/>
     <use xlink:href="#Cmr10-34" transform="translate(2244.404868 0.705729)"/>
     <use xlink:href="#Cmr10-29" transform="translate(2294.404868 0.705729)"/>
     <use xlink:href="#Cmmi10-54" transform="translate(2333.223227 0.705729)"/>
     <use xlink:href="#Cmmi10-6e" transform="translate(2391.621664 -16.300521) scale(0.7)"/>
     <use xlink:href="#Cmsy10-a1" transform="translate(2445.919516 -16.300521) scale(0.7)"/>
     <use xlink:href="#Cmr10-31" transform="translate(2512.590414 -16.300521) scale(0.7)"/>
     <use xlink:href="#Cmsy10-a1" transform="translate(2571.526352 0.705729)"/>
     <use xlink:href="#Cmr10-34" transform="translate(2666.770493 0.705729)"/>
     <use xlink:href="#Cmmi10-6e" transform="translate(2716.770493 0.705729)"/>
     <use xlink:href="#Cmmi10-54" transform="translate(2776.780258 0.705729)"/>
     <use xlink:href="#Cmmi10-6e" transform="translate(2835.178696 -16.300521) scale(0.7)"/>
     <use xlink:href="#Cmsy10-a1" transform="translate(2889.476547 -16.300521) scale(0.7)"/>
     <use xlink:href="#Cmr10-32" transform="translate(2956.147446 -16.300521) scale(0.7)"/>
     <use xlink:href="#Cmr10-2b" transform="translate(3015.083383 0.705729)"/>
     <use xlink:href="#Cmr10-28" transform="translate(3110.327524 0.705729)"/>
     <use xlink:href="#Cmr10-34" transform="translate(3149.145883 0.705729)"/>
     <use xlink:href="#Cmmi10-6e" transform="translate(3199.145883 0.705729)"/>
     <use xlink:href="#Cmsy10-a1" transform="translate(3276.714243 0.705729)"/>
     <use xlink:href="#Cmr10-38" transform="translate(3371.958383 0.705729)"/>
     <use xlink:href="#Cmr10-29" transform="translate(3421.958383 0.705729)"/>
     <use xlink:href="#Cmmi10-54" transform="translate(3460.776743 0.705729)"/>
     <use xlink:href="#Cmmi10-6e" transform="translate(3519.17518 -16.300521) scale(0.7)"/>
     <use xlink:href="#Cmsy10-a1" transform="translate(3573.473032 -16.300521) scale(0.7)"/>
     <use xlink:href="#Cmr10-33" transform="translate(3640.14393 -16.300521) scale(0.7)"/>
     <use xlink:href="#DejaVuSerif-2e" transform="translate(3681.521274 0.705729)"/>
     <use xlink:href="#DejaVuSerif-20" transform="translate(3713.308383 0.705729)"/>
     <use xlink:href="#DejaVuSerif-54" transform="translate(3745.095493 0.705729)"/>
     <use xlink:href="#DejaVuSerif-68" transform="translate(3811.794711 0.705729)"/>
     <use xlink:href="#DejaVuSerif-65" transform="translate(3876.199008 0.705729)"/>
     <use xlink:href="#DejaVuSerif-20" transform="translate(3935.378696 0.705729)"/>
     <use xlink:href="#DejaVuSerif-66" transform="translate(3967.165805 0.705729)"/>
     <use xlink:href="#DejaVuSerif-69" transform="translate(4004.177524 0.705729)"/>
     <use xlink:href="#DejaVuSerif-72" transform="translate(4036.159946 0.705729)"/>
     <use xlink:href="#DejaVuSerif-73" transform="translate(4083.96268 0.705729)"/>
     <use xlink:href="#DejaVuSerif-74" transform="translate(4135.281039 0.705729)"/>
     <use xlink:href="#DejaVuSerif-20" transform="translate(4175.466586 0.705729)"/>
     <use xlink:href="#DejaVuSerif-66" transform="translate(4207.253696 0.705729)"/>
     <use xlink:href="#DejaVuSerif-65" transform="translate(4244.265414 0.705729)"/>
     <use xlink:href="#DejaVuSerif-77" transform="translate(4303.445102 0.705729)"/>
     <use xlink:href="#DejaVuSerif-20" transform="translate(4389.040805 0.705729)"/>
     <use xlink:href="#DejaVuSerif-74" transform="translate(4420.827914 0.705729)"/>
     <use xlink:href="#DejaVuSerif-65" transform="translate(4461.013461 0.705729)"/>
     <use xlink:href="#DejaVuSerif-72" transform="translate(4520.193149 0.705729)"/>
     <use xlink:href="#DejaVuSerif-6d" transform="translate(4567.995883 0.705729)"/>
     <use xlink:href="#DejaVuSerif-73" transform="translate(4662.820102 0.705729)"/>
     <use xlink:href="#DejaVuSerif-20" transform="translate(4714.138461 0.705729)"/>
     <use xlink:href="#DejaVuSerif-61" transform="translate(4745.925571 0.705729)"/>
     <use xlink:href="#DejaVuSerif-72" transform="translate(4805.544711 0.705729)"/>
     <use xlink:href="#DejaVuSerif-65" transform="translate(4853.347446 0.705729)"/>
     <use xlink:href="#DejaVuSerif-20" transform="translate(4912.527133 0.705729)"/>
     <use xlink:href="#Cmr10-32" transform="translate(4944.314243 0.705729)"/>
     <use xlink:href="#Cmmi10-3b" transform="translate(4994.314243 0.705729)"/>
     <use xlink:href="#Cmr10-33" transform="translate(5039.558383 0.705729)"/>
     <use xlink:href="#Cmmi10-3b" transform="translate(5089.558383 0.705729)"/>
     <use xlink:href="#Cmr10-36" transform="translate(5134.802524 0.705729)"/>
     <use xlink:href="#Cmmi10-3b" transform="translate(5184.802524 0.705729)"/>
     <use xlink:href="#Cmr10-31" transform="translate(5230.046664 0.705729)"/>
     <use xlink:href="#Cmr10-34" transform="translate(5280.046664 0.705729)"/>
     <use xlink:href="#Cmmi10-3b" transform="translate(5330.046664 0.705729)"/>
     <use xlink:href="#Cmr10-34" transform="translate(5375.290805 0.705729)"/>
     <use xlink:href="#Cmr10-30" transform="translate(5425.290805 0.705729)"/>
     <use xlink:href="#Cmmi10-3b" transform="translate(5475.290805 0.705729)"/>
     <use xlink:href="#Cmr10-31" transform="translate(5520.534946 0.705729)"/>
     <use xlink:href="#Cmr10-35" transform="translate(5570.534946 0.705729)"/>
     <use xlink:href="#Cmr10-32" transform="translate(5620.534946 0.705729)"/>
     <use xlink:href="#Cmmi10-3b" transform="translate(5670.534946 0.705729)"/>
     <use xlink:href="#Cmr10-37" transform="translate(5715.779086 0.705729)"/>
     <use xlink:href="#Cmr10-38" transform="translate(5765.779086 0.705729)"/>
     <use xlink:href="#Cmr10-34" transform="translate(5815.779086 0.705729)"/>
     <use xlink:href="#Cmmi10-3b" transform="translate(5865.779086 0.705729)"/>
     <use xlink:href="#Cmr10-35" transform="translate(5911.023227 0.705729)"/>
     <use xlink:href="#Cmr10-31" transform="translate(5961.023227 0.705729)"/>
     <use xlink:href="#Cmr10-36" transform="translate(6011.023227 0.705729)"/>
     <use xlink:href="#Cmr10-38" transform="translate(6061.023227 0.705729)"/>
     <use xlink:href="#Cmmi10-3b" transform="translate(6111.023227 0.705729)"/>
     <use xlink:href="#Cmr10-34" transform="translate(6156.267368 0.705729)"/>
     <use xlink:href="#Cmr10-30" transform="translate(6206.267368 0.705729)"/>
     <use xlink:href="#Cmr10-35" transform="translate(6256.267368 0.705729)"/>
     <use xlink:href="#Cmr10-37" transform="translate(6306.267368 0.705729)"/>
     <use xlink:href="#Cmr10-36" transform="translate(6356.267368 0.705729)"/>
     <use xlink:href="#DejaVuSerif-2e" transform="translate(6406.267368 0.705729)"/>
     <use xlink:href="#DejaVuSerif-20" transform="translate(6438.054477 0.705729)"/>
     <use xlink:href="#DejaVuSerif-46" transform="translate(6469.841586 0.705729)"/>
     <use xlink:href="#DejaVuSerif-69" transform="translate(6539.226352 0.705729)"/>
     <use xlink:href="#DejaVuSerif-6e" transform="translate(6571.208774 0.705729)"/>
     <use xlink:href="#DejaVuSerif-64" transform="translate(6635.613071 0.705729)"/>
     <use xlink:href="#DejaVuSerif-2c" transform="translate(6699.626743 0.705729)"/>
     <use xlink:href="#DejaVuSerif-20" transform="translate(6731.413852 0.705729)"/>
     <use xlink:href="#DejaVuSerif-77" transform="translate(6763.200961 0.705729)"/>
     <use xlink:href="#DejaVuSerif-69" transform="translate(6848.796664 0.705729)"/>
     <use xlink:href="#DejaVuSerif-74" transform="translate(6880.779086 0.705729)"/>
     <use xlink:href="#DejaVuSerif-68" transform="translate(6920.964633 0.705729)"/>
     <use xlink:href="#DejaVuSerif-20" transform="translate(6985.36893 0.705729)"/>
     <use xlink:href="#DejaVuSerif-70" transform="translate(7017.156039 0.705729)"/>
     <use xlink:href="#DejaVuSerif-72" transform="translate(7081.169711 0.705729)"/>
     <use xlink:href="#DejaVuSerif-6f" transform="translate(7128.972446 0.705729)"/>
     <use xlink:href="#DejaVuSerif-6f" transform="translate(7189.177524 0.705729)"/>
     <use xlink:href="#DejaVuSerif-66" transform="translate(7249.382602 0.705729)"/>
     <use xlink:href="#DejaVuSerif-2c" transform="translate(7286.394321 0.705729)"/>
     <use xlink:href="#DejaVuSerif-20" transform="translate(7318.18143 0.705729)"/>
     <use xlink:href="#DejaVuSerif-61" transform="translate(7349.968539 0.705729)"/>
     <use xlink:href="#DejaVuSerif-20" transform="translate(7409.58768 0.705729)"/>
     <use xlink:href="#DejaVuSerif-66" transform="translate(7441.374789 0.705729)"/>
     <use xlink:href="#DejaVuSerif-6f" transform="translate(7478.386508 0.705729)"/>
     <use xlink:href="#DejaVuSerif-72" transform="translate(7538.591586 0.705729)"/>
     <use xlink:href="#DejaVuSerif-6d" transform="translate(7586.394321 0.705729)"/>
     <use xlink:href="#DejaVuSerif-75" transform="translate(7681.218539 0.705729)"/>
     <use xlink:href="#DejaVuSerif-6c" transform="translate(7745.622836 0.705729)"/>
     <use xlink:href="#DejaVuSerif-61" transform="translate(7777.605258 0.705729)"/>
     <use xlink:href="#DejaVuSerif-20" transform="translate(7837.224399 0.705729)"/>
     <use xlink:href="#DejaVuSerif-66" transform="translate(7869.011508 0.705729)"/>
     <use xlink:href="#DejaVuSerif-6f" transform="translate(7906.023227 0.705729)"/>
     <use xlink:href="#DejaVuSerif-72" transform="translate(7966.228305 0.705729)"/>
     <use xlink:href="#DejaVuSerif-20" transform="translate(8014.031039 0.705729)"/>
     <use xlink:href="#Cmmi10-54" transform="translate(8045.818149 0.705729)"/>
     <use xlink:href="#Cmmi10-6e" transform="translate(8104.216586 -16.300521) scale(0.7)"/>
     <use xlink:href="#DejaVuSerif-20" transform="translate(8152.600766 0.705729)"/>
     <use xlink:href="#DejaVuSerif-6f" transform="translate(8184.387875 0.705729)"/>
     <use xlink:href="#DejaVuSerif-66" transform="translate(8244.592953 0.705729)"/>
     <use xlink:href="#DejaVuSerif-20" transform="translate(8281.604672 0.705729)"/>
     <use xlink:href="#DejaVuSerif-74" transform="translate(8313.391782 0.705729)"/>
     <use xlink:href="#DejaVuSerif-68" transform="translate(8353.577328 0.705729)"/>
     <use xlink:href="#DejaVuSerif-65" transform="translate(8417.981625 0.705729)"/>
     <use xlink:href="#DejaVuSerif-20" transform="translate(8477.161313 0.705729)"/>
     <use xlink:href="#DejaVuSerif-66" transform="translate(8508.948422 0.705729)"/>
     <use xlink:href="#DejaVuSerif-6f" transform="translate(8545.960141 0.705729)"/>
     <use xlink:href="#DejaVuSerif-72" transform="translate(8606.165219 0.705729)"/>
     <use xlink:href="#DejaVuSerif-6d" transform="translate(8653.967953 0.705729)"/>
     <use xlink:href="#DejaVuSerif-20" transform="translate(8748.792172 0.705729)"/>
     <use xlink:href="#Cmmi10-54" transform="translate(8780.579282 0.705729)"/>
     <use xlink:href="#Cmmi10-6e" transform="translate(8838.977719 -16.300521) scale(0.7)"/>
     <use xlink:href="#Cmr10-3d" transform="translate(8904.920493 0.705729)"/>
     <use xlink:href="#Cmmi10-41" transform="translate(9000.164633 0.705729)"/>
     <use xlink:href="#Cmmi10-6e" transform="translate(9075.164633 -16.300521) scale(0.7)"/>
     <use xlink:href="#Cmr10-2b" transform="translate(9141.107407 0.705729)"/>
     <use xlink:href="#Cmmi10-42" transform="translate(9236.351547 0.705729)"/>
     <use xlink:href="#Cmmi10-6e" transform="translate(9312.132797 -16.300521) scale(0.7)"/>
     <use xlink:href="#DejaVuSerif-2c" transform="translate(9360.516977 0.705729)"/>
     <use xlink:href="#DejaVuSerif-20" transform="translate(9392.304086 0.705729)"/>
     <use xlink:href="#DejaVuSerif-77" transform="translate(9424.091196 0.705729)"/>
     <use xlink:href="#DejaVuSerif-68" transform="translate(9509.686899 0.705729)"/>
     <use xlink:href="#DejaVuSerif-65" transform="translate(9574.091196 0.705729)"/>
     <use xlink:href="#DejaVuSerif-72" transform="translate(9633.270883 0.705729)"/>
     <use xlink:href="#DejaVuSerif-65" transform="translate(9681.073618 0.705729)"/>
     <use xlink:href="#DejaVuSerif-20" transform="translate(9740.253305 0.705729)"/>
     <use xlink:href="#Cmex10-a9" transform="translate(9772.040414 94)"/>
     <use xlink:href="#Cmmi10-41" transform="translate(9830.341196 0.705729)"/>
     <use xlink:href="#Cmmi10-6e" transform="translate(9905.341196 -16.300521) scale(0.7)"/>
     <use xlink:href="#Cmex10-aa" transform="translate(9953.725375 94)"/>
     <use xlink:href="#DejaVuSerif-20" transform="translate(10012.026157 0.705729)"/>
     <use xlink:href="#DejaVuSerif-61" transform="translate(10043.813266 0.705729)"/>
     <use xlink:href="#DejaVuSerif-6e" transform="translate(10103.432407 0.705729)"/>
     <use xlink:href="#DejaVuSerif-64" transform="translate(10167.836703 0.705729)"/>
     <use xlink:href="#DejaVuSerif-20" transform="translate(10231.850375 0.705729)"/>
     <use xlink:href="#Cmex10-a9" transform="translate(10263.637485 94)"/>
     <use xlink:href="#Cmmi10-42" transform="translate(10321.938266 0.705729)"/>
     <use xlink:href="#Cmmi10-6e" transform="translate(10397.719516 -16.300521) scale(0.7)"/>
     <use xlink:href="#Cmex10-aa" transform="translate(10446.103696 94)"/>
     <use xlink:href="#DejaVuSerif-20" transform="translate(10504.404477 0.705729)"/>
     <use xlink:href="#DejaVuSerif-61" transform="translate(10536.191586 0.705729)"/>
     <use xlink:href="#DejaVuSerif-72" transform="translate(10595.810727 0.705729)"/>
     <use xlink:href="#DejaVuSerif-65" transform="translate(10643.613461 0.705729)"/>
     <use xlink:href="#DejaVuSerif-20" transform="translate(10702.793149 0.705729)"/>
     <use xlink:href="#DejaVuSerif-77" transform="translate(10734.580258 0.705729)"/>
     <use xlink:href="#DejaVuSerif-65" transform="translate(10820.175961 0.705729)"/>
     <use xlink:href="#DejaVuSerif-6c" transform="translate(10879.355649 0.705729)"/>
     <use xlink:href="#DejaVuSerif-6c" transform="translate(10911.338071 0.705729)"/>
     <use xlink:href="#DejaVuSerif-2d" transform="translate(10943.320493 0.705729)"/>
     <use xlink:href="#DejaVuSerif-6b" transform="translate(10977.109555 0.705729)"/>
     <use xlink:href="#DejaVuSerif-6e" transform="translate(11037.705258 0.705729)"/>
     <use xlink:href="#DejaVuSerif-6f" transform="translate(11102.109555 0.705729)"/>
     <use xlink:href="#DejaVuSerif-77" transform="translate(11162.314633 0.705729)"/>
     <use xlink:href="#DejaVuSerif-6e" transform="translate(11247.910336 0.705729)"/>
     <use xlink:href="#DejaVuSerif-20" transform="translate(11312.314633 0.705729)"/>
     <use xlink:href="#DejaVuSerif-73" transform="translate(11344.101743 0.705729)"/>
     <use xlink:href="#DejaVuSerif-65" transform="translate(11395.420102 0.705729)"/>
     <use xlink:href="#DejaVuSerif-71" transform="translate(11454.599789 0.705729)"/>
     <use xlink:href="#DejaVuSerif-75" transform="translate(11518.613461 0.705729)"/>
     <use xlink:href="#DejaVuSerif-65" transform="translate(11583.017758 0.705729)"/>
     <use xlink:href="#DejaVuSerif-6e" transform="translate(11642.197446 0.705729)"/>
     <use xlink:href="#DejaVuSerif-63" transform="translate(11706.601743 0.705729)"/>
     <use xlink:href="#DejaVuSerif-65" transform="translate(11762.607602 0.705729)"/>
     <use xlink:href="#DejaVuSerif-73" transform="translate(11821.787289 0.705729)"/>
     <use xlink:href="#DejaVuSerif-2e" transform="translate(11873.105649 0.705729)"/>
    </g>
   </g>
  </g>
 </g>
</svg>
