<?xml version="1.0" encoding="utf-8" standalone="no"?>
<!DOCTYPE svg PUBLIC "-//W3C//DTD SVG 1.1//EN"
  "http://www.w3.org/Graphics/SVG/1.1/DTD/svg11.dtd">
<svg xmlns:xlink="http://www.w3.org/1999/xlink" width="567.12pt" height="228.4pt" viewBox="0 0 567.12 228.4" xmlns="http://www.w3.org/2000/svg" version="1.1">
 <metadata>
  <rdf:RDF xmlns:dc="http://purl.org/dc/elements/1.1/" xmlns:cc="http://creativecommons.org/ns#" xmlns:rdf="http://www.w3.org/1999/02/22-rdf-syntax-ns#">
   <cc:Work>
    <dc:type rdf:resource="http://purl.org/dc/dcmitype/StillImage"/>
    <dc:date>2025-05-29T18:43:53.094404</dc:date>
    <dc:format>image/svg+xml</dc:format>
    <dc:creator>
     <cc:Agent>
      <dc:title>Matplotlib v3.10.3, https://matplotlib.org/</dc:title>
     </cc:Agent>
    </dc:creator>
   </cc:Work>
  </rdf:RDF>
 </metadata>
 <defs>
  <style type="text/css">*{stroke-linejoin: round; stroke-linecap: butt}</style>
 </defs>
 <g id="figure_1">
  <g id="patch_1">
   <path d="M 0 228.4 
L 567.12 228.4 
L 567.12 0 
L 0 0 
z
" style="fill: #ffffff"/>
  </g>
  <g id="axes_1">
   <g id="text_1">
    <!-- Define polynomials $f_n(x)$ for $n \geqq 0$ by $f_0(x)=1$, $f_n(0)=0$ for $n \geqq 1$, and -->
    <g transform="translate(82.32 89.965063) scale(0.12 -0.12)">
     <defs>
      <path id="DejaVuSerif-44" d="M 1581 331 
L 2163 331 
Q 3072 331 3558 850 
Q 4044 1369 4044 2338 
Q 4044 3306 3559 3818 
Q 3075 4331 2163 4331 
L 1581 4331 
L 1581 331 
z
M 353 0 
L 353 331 
L 947 331 
L 947 4331 
L 353 4331 
L 353 4666 
L 2209 4666 
Q 3416 4666 4089 4050 
Q 4763 3434 4763 2338 
Q 4763 1238 4088 619 
Q 3413 0 2209 0 
L 353 0 
z
" transform="scale(0.015625)"/>
      <path id="DejaVuSerif-65" d="M 3469 1600 
L 991 1600 
L 991 1575 
Q 991 903 1244 561 
Q 1497 219 1991 219 
Q 2369 219 2611 417 
Q 2853 616 2950 1006 
L 3413 1006 
Q 3275 459 2904 184 
Q 2534 -91 1931 -91 
Q 1203 -91 761 389 
Q 319 869 319 1663 
Q 319 2450 753 2931 
Q 1188 3413 1894 3413 
Q 2647 3413 3050 2948 
Q 3453 2484 3469 1600 
z
M 2791 1931 
Q 2772 2513 2545 2808 
Q 2319 3103 1894 3103 
Q 1497 3103 1269 2806 
Q 1041 2509 991 1931 
L 2791 1931 
z
" transform="scale(0.015625)"/>
      <path id="DejaVuSerif-66" d="M 2753 4078 
L 2450 4078 
Q 2447 4313 2317 4434 
Q 2188 4556 1941 4556 
Q 1619 4556 1487 4379 
Q 1356 4203 1356 3750 
L 1356 3322 
L 2284 3322 
L 2284 2988 
L 1356 2988 
L 1356 331 
L 2094 331 
L 2094 0 
L 231 0 
L 231 331 
L 781 331 
L 781 2988 
L 231 2988 
L 231 3322 
L 781 3322 
L 781 3738 
Q 781 4294 1070 4578 
Q 1359 4863 1919 4863 
Q 2128 4863 2337 4825 
Q 2547 4788 2753 4709 
L 2753 4078 
z
" transform="scale(0.015625)"/>
      <path id="DejaVuSerif-69" d="M 622 4353 
Q 622 4497 726 4603 
Q 831 4709 978 4709 
Q 1122 4709 1226 4603 
Q 1331 4497 1331 4353 
Q 1331 4206 1228 4103 
Q 1125 4000 978 4000 
Q 831 4000 726 4103 
Q 622 4206 622 4353 
z
M 1356 331 
L 1900 331 
L 1900 0 
L 231 0 
L 231 331 
L 781 331 
L 781 2988 
L 231 2988 
L 231 3322 
L 1356 3322 
L 1356 331 
z
" transform="scale(0.015625)"/>
      <path id="DejaVuSerif-6e" d="M 263 0 
L 263 331 
L 781 331 
L 781 2988 
L 231 2988 
L 231 3322 
L 1356 3322 
L 1356 2731 
Q 1516 3069 1770 3241 
Q 2025 3413 2363 3413 
Q 2913 3413 3172 3097 
Q 3431 2781 3431 2113 
L 3431 331 
L 3944 331 
L 3944 0 
L 2356 0 
L 2356 331 
L 2853 331 
L 2853 1931 
Q 2853 2541 2703 2767 
Q 2553 2994 2175 2994 
Q 1775 2994 1565 2701 
Q 1356 2409 1356 1850 
L 1356 331 
L 1856 331 
L 1856 0 
L 263 0 
z
" transform="scale(0.015625)"/>
      <path id="DejaVuSerif-20" transform="scale(0.015625)"/>
      <path id="DejaVuSerif-70" d="M 1313 1825 
L 1313 1497 
Q 1313 897 1542 583 
Q 1772 269 2209 269 
Q 2650 269 2876 622 
Q 3103 975 3103 1663 
Q 3103 2353 2876 2703 
Q 2650 3053 2209 3053 
Q 1772 3053 1542 2737 
Q 1313 2422 1313 1825 
z
M 738 2988 
L 184 2988 
L 184 3322 
L 1313 3322 
L 1313 2803 
Q 1481 3116 1742 3264 
Q 2003 3413 2388 3413 
Q 3000 3413 3387 2928 
Q 3775 2444 3775 1663 
Q 3775 881 3387 395 
Q 3000 -91 2388 -91 
Q 2003 -91 1742 57 
Q 1481 206 1313 519 
L 1313 -997 
L 1856 -997 
L 1856 -1331 
L 184 -1331 
L 184 -997 
L 738 -997 
L 738 2988 
z
" transform="scale(0.015625)"/>
      <path id="DejaVuSerif-6f" d="M 1925 219 
Q 2388 219 2623 584 
Q 2859 950 2859 1663 
Q 2859 2375 2623 2739 
Q 2388 3103 1925 3103 
Q 1463 3103 1227 2739 
Q 991 2375 991 1663 
Q 991 950 1228 584 
Q 1466 219 1925 219 
z
M 1925 -91 
Q 1200 -91 759 389 
Q 319 869 319 1663 
Q 319 2456 758 2934 
Q 1197 3413 1925 3413 
Q 2653 3413 3092 2934 
Q 3531 2456 3531 1663 
Q 3531 869 3092 389 
Q 2653 -91 1925 -91 
z
" transform="scale(0.015625)"/>
      <path id="DejaVuSerif-6c" d="M 1313 331 
L 1856 331 
L 1856 0 
L 184 0 
L 184 331 
L 738 331 
L 738 4531 
L 184 4531 
L 184 4863 
L 1313 4863 
L 1313 331 
z
" transform="scale(0.015625)"/>
      <path id="DejaVuSerif-79" d="M 1381 -609 
L 1600 -56 
L 359 2988 
L -19 2988 
L -19 3322 
L 1509 3322 
L 1509 2988 
L 978 2988 
L 1913 703 
L 2847 2988 
L 2350 2988 
L 2350 3322 
L 3597 3322 
L 3597 2988 
L 3225 2988 
L 1703 -750 
Q 1547 -1138 1356 -1280 
Q 1166 -1422 819 -1422 
Q 672 -1422 517 -1397 
Q 363 -1372 206 -1325 
L 206 -691 
L 500 -691 
Q 519 -903 608 -995 
Q 697 -1088 884 -1088 
Q 1056 -1088 1161 -992 
Q 1266 -897 1381 -609 
z
" transform="scale(0.015625)"/>
      <path id="DejaVuSerif-6d" d="M 3316 2675 
Q 3481 3041 3739 3227 
Q 3997 3413 4341 3413 
Q 4863 3413 5119 3089 
Q 5375 2766 5375 2113 
L 5375 331 
L 5894 331 
L 5894 0 
L 4300 0 
L 4300 331 
L 4800 331 
L 4800 2047 
Q 4800 2556 4650 2772 
Q 4500 2988 4153 2988 
Q 3769 2988 3567 2697 
Q 3366 2406 3366 1850 
L 3366 331 
L 3866 331 
L 3866 0 
L 2291 0 
L 2291 331 
L 2791 331 
L 2791 2069 
Q 2791 2566 2641 2777 
Q 2491 2988 2144 2988 
Q 1759 2988 1557 2697 
Q 1356 2406 1356 1850 
L 1356 331 
L 1856 331 
L 1856 0 
L 263 0 
L 263 331 
L 781 331 
L 781 2994 
L 231 2994 
L 231 3322 
L 1356 3322 
L 1356 2731 
Q 1516 3063 1762 3238 
Q 2009 3413 2322 3413 
Q 2709 3413 2968 3220 
Q 3228 3028 3316 2675 
z
" transform="scale(0.015625)"/>
      <path id="DejaVuSerif-61" d="M 2547 1044 
L 2547 1747 
L 1806 1747 
Q 1378 1747 1168 1562 
Q 959 1378 959 997 
Q 959 650 1171 447 
Q 1384 244 1747 244 
Q 2106 244 2326 466 
Q 2547 688 2547 1044 
z
M 3122 2075 
L 3122 331 
L 3634 331 
L 3634 0 
L 2547 0 
L 2547 359 
Q 2356 128 2106 18 
Q 1856 -91 1522 -91 
Q 969 -91 644 203 
Q 319 497 319 997 
Q 319 1513 691 1797 
Q 1063 2081 1741 2081 
L 2547 2081 
L 2547 2309 
Q 2547 2688 2317 2895 
Q 2088 3103 1672 3103 
Q 1328 3103 1125 2947 
Q 922 2791 872 2484 
L 575 2484 
L 575 3156 
Q 875 3284 1158 3348 
Q 1441 3413 1709 3413 
Q 2400 3413 2761 3070 
Q 3122 2728 3122 2075 
z
" transform="scale(0.015625)"/>
      <path id="DejaVuSerif-73" d="M 359 184 
L 359 959 
L 691 959 
Q 703 588 923 403 
Q 1144 219 1575 219 
Q 1963 219 2166 364 
Q 2369 509 2369 788 
Q 2369 1006 2220 1140 
Q 2072 1275 1594 1428 
L 1178 1569 
Q 750 1706 558 1912 
Q 366 2119 366 2438 
Q 366 2894 700 3153 
Q 1034 3413 1625 3413 
Q 1888 3413 2178 3344 
Q 2469 3275 2778 3144 
L 2778 2419 
L 2447 2419 
Q 2434 2741 2221 2922 
Q 2009 3103 1644 3103 
Q 1281 3103 1095 2975 
Q 909 2847 909 2591 
Q 909 2381 1050 2254 
Q 1191 2128 1613 1997 
L 2069 1856 
Q 2541 1709 2748 1489 
Q 2956 1269 2956 922 
Q 2956 450 2595 179 
Q 2234 -91 1600 -91 
Q 1278 -91 972 -22 
Q 666 47 359 184 
z
" transform="scale(0.015625)"/>
      <path id="Cmmi10-66" d="M 622 -1056 
Q 741 -1147 909 -1147 
Q 1138 -1147 1281 -641 
Q 1341 -397 1606 966 
L 1900 2534 
L 1350 2534 
Q 1288 2534 1288 2619 
Q 1313 2759 1369 2759 
L 1941 2759 
L 2016 3175 
Q 2053 3369 2084 3508 
Q 2116 3647 2152 3765 
Q 2188 3884 2259 4031 
Q 2369 4241 2555 4377 
Q 2741 4513 2956 4513 
Q 3097 4513 3230 4461 
Q 3363 4409 3447 4306 
Q 3531 4203 3531 4063 
Q 3531 3900 3423 3779 
Q 3316 3659 3163 3659 
Q 3059 3659 2986 3723 
Q 2913 3788 2913 3891 
Q 2913 4031 3008 4136 
Q 3103 4241 3244 4256 
Q 3125 4347 2950 4347 
Q 2853 4347 2767 4256 
Q 2681 4166 2656 4063 
Q 2616 3900 2478 3181 
L 2400 2759 
L 3059 2759 
Q 3122 2759 3122 2675 
Q 3119 2659 3109 2620 
Q 3100 2581 3083 2557 
Q 3066 2534 3041 2534 
L 2356 2534 
L 2059 972 
Q 2003 631 1929 279 
Q 1856 -72 1723 -442 
Q 1591 -813 1384 -1063 
Q 1178 -1313 897 -1313 
Q 681 -1313 511 -1189 
Q 341 -1066 341 -863 
Q 341 -700 445 -579 
Q 550 -459 709 -459 
Q 816 -459 887 -523 
Q 959 -588 959 -691 
Q 959 -828 857 -942 
Q 756 -1056 622 -1056 
z
" transform="scale(0.015625)"/>
      <path id="Cmmi10-6e" d="M 494 109 
Q 494 147 500 166 
L 978 2075 
Q 1025 2253 1025 2388 
Q 1025 2663 838 2663 
Q 638 2663 541 2423 
Q 444 2184 353 1819 
Q 353 1800 334 1789 
Q 316 1778 300 1778 
L 225 1778 
Q 203 1778 187 1801 
Q 172 1825 172 1844 
Q 241 2122 305 2315 
Q 369 2509 505 2668 
Q 641 2828 844 2828 
Q 1084 2828 1268 2676 
Q 1453 2525 1453 2291 
Q 1644 2541 1900 2684 
Q 2156 2828 2444 2828 
Q 2672 2828 2837 2750 
Q 3003 2672 3095 2514 
Q 3188 2356 3188 2138 
Q 3188 1875 3070 1503 
Q 2953 1131 2778 672 
Q 2688 463 2688 288 
Q 2688 97 2834 97 
Q 3084 97 3251 365 
Q 3419 634 3488 941 
Q 3500 978 3541 978 
L 3616 978 
Q 3641 978 3658 962 
Q 3675 947 3675 922 
Q 3675 916 3669 903 
Q 3581 541 3364 234 
Q 3147 -72 2822 -72 
Q 2597 -72 2437 83 
Q 2278 238 2278 459 
Q 2278 578 2328 709 
Q 2409 919 2514 1209 
Q 2619 1500 2686 1765 
Q 2753 2031 2753 2234 
Q 2753 2413 2679 2538 
Q 2606 2663 2431 2663 
Q 2197 2663 2000 2559 
Q 1803 2456 1656 2286 
Q 1509 2116 1388 1881 
L 953 141 
Q 931 53 854 -9 
Q 778 -72 684 -72 
Q 606 -72 550 -22 
Q 494 28 494 109 
z
" transform="scale(0.015625)"/>
      <path id="Cmr10-28" d="M 1984 -1588 
Q 1628 -1306 1370 -942 
Q 1113 -578 948 -165 
Q 784 247 703 697 
Q 622 1147 622 1600 
Q 622 2059 703 2509 
Q 784 2959 951 3375 
Q 1119 3791 1378 4153 
Q 1638 4516 1984 4788 
Q 1984 4800 2016 4800 
L 2075 4800 
Q 2094 4800 2109 4783 
Q 2125 4766 2125 4744 
Q 2125 4716 2113 4703 
Q 1800 4397 1592 4047 
Q 1384 3697 1257 3301 
Q 1131 2906 1075 2482 
Q 1019 2059 1019 1600 
Q 1019 -434 2106 -1491 
Q 2125 -1509 2125 -1544 
Q 2125 -1559 2108 -1579 
Q 2091 -1600 2075 -1600 
L 2016 -1600 
Q 1984 -1600 1984 -1588 
z
" transform="scale(0.015625)"/>
      <path id="Cmmi10-78" d="M 500 184 
Q 613 97 819 97 
Q 1019 97 1172 289 
Q 1325 481 1381 709 
L 1672 1844 
Q 1741 2153 1741 2266 
Q 1741 2425 1652 2544 
Q 1563 2663 1403 2663 
Q 1200 2663 1022 2536 
Q 844 2409 722 2214 
Q 600 2019 550 1819 
Q 538 1778 500 1778 
L 422 1778 
Q 372 1778 372 1838 
L 372 1856 
Q 434 2094 584 2320 
Q 734 2547 951 2687 
Q 1169 2828 1416 2828 
Q 1650 2828 1839 2703 
Q 2028 2578 2106 2363 
Q 2216 2559 2386 2693 
Q 2556 2828 2759 2828 
Q 2897 2828 3040 2779 
Q 3184 2731 3275 2631 
Q 3366 2531 3366 2381 
Q 3366 2219 3261 2101 
Q 3156 1984 2994 1984 
Q 2891 1984 2822 2050 
Q 2753 2116 2753 2216 
Q 2753 2350 2845 2451 
Q 2938 2553 3066 2572 
Q 2950 2663 2747 2663 
Q 2541 2663 2389 2472 
Q 2238 2281 2175 2047 
L 1894 916 
Q 1825 659 1825 494 
Q 1825 331 1917 214 
Q 2009 97 2163 97 
Q 2463 97 2698 361 
Q 2934 625 3009 941 
Q 3022 978 3059 978 
L 3138 978 
Q 3163 978 3178 961 
Q 3194 944 3194 922 
Q 3194 916 3188 903 
Q 3097 522 2806 225 
Q 2516 -72 2150 -72 
Q 1916 -72 1727 54 
Q 1538 181 1459 397 
Q 1359 209 1182 68 
Q 1006 -72 806 -72 
Q 669 -72 523 -23 
Q 378 25 287 125 
Q 197 225 197 378 
Q 197 528 301 651 
Q 406 775 563 775 
Q 669 775 741 711 
Q 813 647 813 544 
Q 813 409 723 309 
Q 634 209 500 184 
z
" transform="scale(0.015625)"/>
      <path id="Cmr10-29" d="M 416 -1600 
Q 359 -1600 359 -1544 
Q 359 -1516 372 -1503 
Q 1466 -434 1466 1600 
Q 1466 3634 384 4691 
Q 359 4706 359 4744 
Q 359 4766 376 4783 
Q 394 4800 416 4800 
L 475 4800 
Q 494 4800 506 4788 
Q 966 4425 1272 3906 
Q 1578 3388 1720 2800 
Q 1863 2213 1863 1600 
Q 1863 1147 1786 708 
Q 1709 269 1542 -157 
Q 1375 -584 1119 -945 
Q 863 -1306 506 -1588 
Q 494 -1600 475 -1600 
L 416 -1600 
z
" transform="scale(0.015625)"/>
      <path id="DejaVuSerif-72" d="M 3059 3328 
L 3059 2497 
L 2728 2497 
Q 2713 2744 2591 2866 
Q 2469 2988 2234 2988 
Q 1809 2988 1582 2694 
Q 1356 2400 1356 1850 
L 1356 331 
L 2022 331 
L 2022 0 
L 263 0 
L 263 331 
L 781 331 
L 781 2994 
L 231 2994 
L 231 3322 
L 1356 3322 
L 1356 2731 
Q 1525 3078 1790 3245 
Q 2056 3413 2438 3413 
Q 2578 3413 2733 3391 
Q 2888 3369 3059 3328 
z
" transform="scale(0.015625)"/>
      <path id="STIXGeneral-Regular-2267" d="M 3981 2771 
L 365 1024 
L 365 1427 
L 3130 2803 
L 365 4179 
L 365 4595 
L 3981 2835 
L 3981 2771 
z
M 3981 -77 
L 365 -77 
L 365 346 
L 3981 346 
L 3981 -77 
z
M 3981 -1350 
L 365 -1350 
L 365 -928 
L 3981 -928 
L 3981 -1350 
z
" transform="scale(0.015625)"/>
      <path id="Cmr10-30" d="M 1600 -141 
Q 816 -141 533 504 
Q 250 1150 250 2041 
Q 250 2597 351 3087 
Q 453 3578 754 3920 
Q 1056 4263 1600 4263 
Q 2022 4263 2290 4056 
Q 2559 3850 2700 3523 
Q 2841 3197 2892 2823 
Q 2944 2450 2944 2041 
Q 2944 1491 2842 1011 
Q 2741 531 2444 195 
Q 2147 -141 1600 -141 
z
M 1600 25 
Q 1956 25 2131 390 
Q 2306 756 2347 1200 
Q 2388 1644 2388 2144 
Q 2388 2625 2347 3031 
Q 2306 3438 2132 3767 
Q 1959 4097 1600 4097 
Q 1238 4097 1063 3765 
Q 888 3434 847 3029 
Q 806 2625 806 2144 
Q 806 1788 823 1472 
Q 841 1156 916 820 
Q 991 484 1158 254 
Q 1325 25 1600 25 
z
" transform="scale(0.015625)"/>
      <path id="DejaVuSerif-62" d="M 738 331 
L 738 4531 
L 184 4531 
L 184 4863 
L 1313 4863 
L 1313 2803 
Q 1481 3116 1742 3264 
Q 2003 3413 2388 3413 
Q 3000 3413 3387 2928 
Q 3775 2444 3775 1663 
Q 3775 881 3387 395 
Q 3000 -91 2388 -91 
Q 2003 -91 1742 57 
Q 1481 206 1313 519 
L 1313 0 
L 184 0 
L 184 331 
L 738 331 
z
M 1313 1497 
Q 1313 897 1542 583 
Q 1772 269 2209 269 
Q 2650 269 2876 622 
Q 3103 975 3103 1663 
Q 3103 2353 2876 2703 
Q 2650 3053 2209 3053 
Q 1772 3053 1542 2737 
Q 1313 2422 1313 1825 
L 1313 1497 
z
" transform="scale(0.015625)"/>
      <path id="Cmr10-3d" d="M 481 850 
Q 428 850 393 890 
Q 359 931 359 978 
Q 359 1031 393 1068 
Q 428 1106 481 1106 
L 4500 1106 
Q 4547 1106 4581 1068 
Q 4616 1031 4616 978 
Q 4616 931 4581 890 
Q 4547 850 4500 850 
L 481 850 
z
M 481 2094 
Q 428 2094 393 2131 
Q 359 2169 359 2222 
Q 359 2269 393 2309 
Q 428 2350 481 2350 
L 4500 2350 
Q 4547 2350 4581 2309 
Q 4616 2269 4616 2222 
Q 4616 2169 4581 2131 
Q 4547 2094 4500 2094 
L 481 2094 
z
" transform="scale(0.015625)"/>
      <path id="Cmr10-31" d="M 594 0 
L 594 225 
Q 1394 225 1394 428 
L 1394 3788 
Q 1063 3628 556 3628 
L 556 3853 
Q 1341 3853 1741 4263 
L 1831 4263 
Q 1853 4263 1873 4245 
Q 1894 4228 1894 4206 
L 1894 428 
Q 1894 225 2694 225 
L 2694 0 
L 594 0 
z
" transform="scale(0.015625)"/>
      <path id="DejaVuSerif-2c" d="M 231 -622 
Q 525 -406 662 -114 
Q 800 178 800 594 
L 800 709 
L 1416 709 
Q 1391 175 1164 -208 
Q 938 -591 481 -872 
L 231 -622 
z
" transform="scale(0.015625)"/>
      <path id="DejaVuSerif-64" d="M 3359 331 
L 3909 331 
L 3909 0 
L 2784 0 
L 2784 519 
Q 2616 206 2355 57 
Q 2094 -91 1709 -91 
Q 1097 -91 708 395 
Q 319 881 319 1663 
Q 319 2444 706 2928 
Q 1094 3413 1709 3413 
Q 2094 3413 2355 3264 
Q 2616 3116 2784 2803 
L 2784 4531 
L 2241 4531 
L 2241 4863 
L 3359 4863 
L 3359 331 
z
M 2784 1497 
L 2784 1825 
Q 2784 2422 2554 2737 
Q 2325 3053 1888 3053 
Q 1444 3053 1217 2703 
Q 991 2353 991 1663 
Q 991 975 1217 622 
Q 1444 269 1888 269 
Q 2325 269 2554 583 
Q 2784 897 2784 1497 
z
" transform="scale(0.015625)"/>
     </defs>
     <use xlink:href="#DejaVuSerif-44" transform="translate(0 0.015625)"/>
     <use xlink:href="#DejaVuSerif-65" transform="translate(80.175781 0.015625)"/>
     <use xlink:href="#DejaVuSerif-66" transform="translate(139.355469 0.015625)"/>
     <use xlink:href="#DejaVuSerif-69" transform="translate(176.367188 0.015625)"/>
     <use xlink:href="#DejaVuSerif-6e" transform="translate(208.349609 0.015625)"/>
     <use xlink:href="#DejaVuSerif-65" transform="translate(272.753906 0.015625)"/>
     <use xlink:href="#DejaVuSerif-20" transform="translate(331.933594 0.015625)"/>
     <use xlink:href="#DejaVuSerif-70" transform="translate(363.720703 0.015625)"/>
     <use xlink:href="#DejaVuSerif-6f" transform="translate(427.734375 0.015625)"/>
     <use xlink:href="#DejaVuSerif-6c" transform="translate(487.939453 0.015625)"/>
     <use xlink:href="#DejaVuSerif-79" transform="translate(519.921875 0.015625)"/>
     <use xlink:href="#DejaVuSerif-6e" transform="translate(576.416016 0.015625)"/>
     <use xlink:href="#DejaVuSerif-6f" transform="translate(640.820312 0.015625)"/>
     <use xlink:href="#DejaVuSerif-6d" transform="translate(701.025391 0.015625)"/>
     <use xlink:href="#DejaVuSerif-69" transform="translate(795.849609 0.015625)"/>
     <use xlink:href="#DejaVuSerif-61" transform="translate(827.832031 0.015625)"/>
     <use xlink:href="#DejaVuSerif-6c" transform="translate(887.451172 0.015625)"/>
     <use xlink:href="#DejaVuSerif-73" transform="translate(919.433594 0.015625)"/>
     <use xlink:href="#DejaVuSerif-20" transform="translate(970.751953 0.015625)"/>
     <use xlink:href="#Cmmi10-66" transform="translate(1002.539062 0.015625)"/>
     <use xlink:href="#Cmmi10-6e" transform="translate(1051.416016 -16.990625) scale(0.7)"/>
     <use xlink:href="#Cmr10-28" transform="translate(1099.800195 0.015625)"/>
     <use xlink:href="#Cmmi10-78" transform="translate(1138.618555 0.015625)"/>
     <use xlink:href="#Cmr10-29" transform="translate(1195.698633 0.015625)"/>
     <use xlink:href="#DejaVuSerif-20" transform="translate(1234.516992 0.015625)"/>
     <use xlink:href="#DejaVuSerif-66" transform="translate(1266.304102 0.015625)"/>
     <use xlink:href="#DejaVuSerif-6f" transform="translate(1303.31582 0.015625)"/>
     <use xlink:href="#DejaVuSerif-72" transform="translate(1363.520898 0.015625)"/>
     <use xlink:href="#DejaVuSerif-20" transform="translate(1411.323633 0.015625)"/>
     <use xlink:href="#Cmmi10-6e" transform="translate(1443.110742 0.015625)"/>
     <use xlink:href="#STIXGeneral-Regular-2267" transform="translate(1520.679102 0.015625)"/>
     <use xlink:href="#Cmr10-30" transform="translate(1606.73768 0.015625)"/>
     <use xlink:href="#DejaVuSerif-20" transform="translate(1656.73768 0.015625)"/>
     <use xlink:href="#DejaVuSerif-62" transform="translate(1688.524789 0.015625)"/>
     <use xlink:href="#DejaVuSerif-79" transform="translate(1752.538461 0.015625)"/>
     <use xlink:href="#DejaVuSerif-20" transform="translate(1809.032602 0.015625)"/>
     <use xlink:href="#Cmmi10-66" transform="translate(1840.819711 0.015625)"/>
     <use xlink:href="#Cmr10-30" transform="translate(1889.696664 -16.990625) scale(0.7)"/>
     <use xlink:href="#Cmr10-28" transform="translate(1931.074008 0.015625)"/>
     <use xlink:href="#Cmmi10-78" transform="translate(1969.892368 0.015625)"/>
     <use xlink:href="#Cmr10-29" transform="translate(2026.972446 0.015625)"/>
     <use xlink:href="#Cmr10-3d" transform="translate(2083.349399 0.015625)"/>
     <use xlink:href="#Cmr10-31" transform="translate(2178.593539 0.015625)"/>
     <use xlink:href="#DejaVuSerif-2c" transform="translate(2228.593539 0.015625)"/>
     <use xlink:href="#DejaVuSerif-20" transform="translate(2260.380649 0.015625)"/>
     <use xlink:href="#Cmmi10-66" transform="translate(2292.167758 0.015625)"/>
     <use xlink:href="#Cmmi10-6e" transform="translate(2341.044711 -16.990625) scale(0.7)"/>
     <use xlink:href="#Cmr10-28" transform="translate(2389.428891 0.015625)"/>
     <use xlink:href="#Cmr10-30" transform="translate(2428.24725 0.015625)"/>
     <use xlink:href="#Cmr10-29" transform="translate(2478.24725 0.015625)"/>
     <use xlink:href="#Cmr10-3d" transform="translate(2534.624203 0.015625)"/>
     <use xlink:href="#Cmr10-30" transform="translate(2629.868344 0.015625)"/>
     <use xlink:href="#DejaVuSerif-20" transform="translate(2679.868344 0.015625)"/>
     <use xlink:href="#DejaVuSerif-66" transform="translate(2711.655453 0.015625)"/>
     <use xlink:href="#DejaVuSerif-6f" transform="translate(2748.667172 0.015625)"/>
     <use xlink:href="#DejaVuSerif-72" transform="translate(2808.87225 0.015625)"/>
     <use xlink:href="#DejaVuSerif-20" transform="translate(2856.674985 0.015625)"/>
     <use xlink:href="#Cmmi10-6e" transform="translate(2888.462094 0.015625)"/>
     <use xlink:href="#STIXGeneral-Regular-2267" transform="translate(2966.030453 0.015625)"/>
     <use xlink:href="#Cmr10-31" transform="translate(3052.089032 0.015625)"/>
     <use xlink:href="#DejaVuSerif-2c" transform="translate(3102.089032 0.015625)"/>
     <use xlink:href="#DejaVuSerif-20" transform="translate(3133.876141 0.015625)"/>
     <use xlink:href="#DejaVuSerif-61" transform="translate(3165.663251 0.015625)"/>
     <use xlink:href="#DejaVuSerif-6e" transform="translate(3225.282391 0.015625)"/>
     <use xlink:href="#DejaVuSerif-64" transform="translate(3289.686688 0.015625)"/>
    </g>
    <!-- \[ -->
    <g transform="translate(279.197812 103.906813) scale(0.12 -0.12)">
     <defs>
      <path id="DejaVuSerif-5c" d="M 500 4666 
L 2156 -594 
L 1656 -594 
L 0 4666 
L 500 4666 
z
" transform="scale(0.015625)"/>
      <path id="DejaVuSerif-5b" d="M 550 4863 
L 2003 4863 
L 2003 4531 
L 1147 4531 
L 1147 -513 
L 2003 -513 
L 2003 -844 
L 550 -844 
L 550 4863 
z
" transform="scale(0.015625)"/>
     </defs>
     <use xlink:href="#DejaVuSerif-5c"/>
     <use xlink:href="#DejaVuSerif-5b" transform="translate(33.691406 0)"/>
    </g>
    <!-- \frac{d}{dx} f_{n+1}(x) = (n+1)f_n(x+1) -->
    <g transform="translate(155.410313 117.344188) scale(0.12 -0.12)">
     <defs>
      <path id="DejaVuSerif-63" d="M 3291 997 
Q 3169 466 2822 187 
Q 2475 -91 1925 -91 
Q 1200 -91 759 389 
Q 319 869 319 1663 
Q 319 2459 759 2936 
Q 1200 3413 1925 3413 
Q 2241 3413 2553 3339 
Q 2866 3266 3181 3116 
L 3181 2266 
L 2847 2266 
Q 2781 2703 2561 2903 
Q 2341 3103 1931 3103 
Q 1466 3103 1228 2742 
Q 991 2381 991 1663 
Q 991 944 1227 581 
Q 1463 219 1931 219 
Q 2303 219 2525 412 
Q 2747 606 2828 997 
L 3291 997 
z
" transform="scale(0.015625)"/>
      <path id="DejaVuSerif-7b" d="M 3272 -716 
L 3272 -1044 
L 3078 -1044 
Q 2300 -1044 2036 -812 
Q 1772 -581 1772 109 
L 1772 916 
Q 1772 1384 1603 1565 
Q 1434 1747 991 1747 
L 800 1747 
L 800 2075 
L 991 2075 
Q 1434 2075 1603 2256 
Q 1772 2438 1772 2906 
L 1772 3713 
Q 1772 4403 2036 4633 
Q 2300 4863 3078 4863 
L 3272 4863 
L 3272 4538 
L 3059 4538 
Q 2619 4538 2484 4400 
Q 2350 4263 2350 3822 
L 2350 2925 
Q 2350 2431 2194 2218 
Q 2038 2006 1631 1913 
Q 2044 1806 2197 1597 
Q 2350 1388 2350 897 
L 2350 0 
Q 2350 -441 2484 -578 
Q 2619 -716 3059 -716 
L 3272 -716 
z
" transform="scale(0.015625)"/>
      <path id="DejaVuSerif-7d" d="M 800 -716 
L 1019 -716 
Q 1456 -716 1589 -580 
Q 1722 -444 1722 0 
L 1722 897 
Q 1722 1388 1875 1597 
Q 2028 1806 2438 1913 
Q 2031 2006 1876 2218 
Q 1722 2431 1722 2925 
L 1722 3822 
Q 1722 4266 1589 4402 
Q 1456 4538 1019 4538 
L 800 4538 
L 800 4863 
L 997 4863 
Q 1775 4863 2036 4633 
Q 2297 4403 2297 3713 
L 2297 2906 
Q 2297 2438 2465 2256 
Q 2634 2075 3078 2075 
L 3272 2075 
L 3272 1747 
L 3078 1747 
Q 2634 1747 2465 1565 
Q 2297 1384 2297 916 
L 2297 109 
Q 2297 -581 2036 -812 
Q 1775 -1044 997 -1044 
L 800 -1044 
L 800 -716 
z
" transform="scale(0.015625)"/>
      <path id="DejaVuSerif-78" d="M 1863 2028 
L 2559 2988 
L 2113 2988 
L 2113 3322 
L 3391 3322 
L 3391 2988 
L 2950 2988 
L 2059 1759 
L 3097 331 
L 3531 331 
L 3531 0 
L 1997 0 
L 1997 331 
L 2419 331 
L 1697 1325 
L 972 331 
L 1403 331 
L 1403 0 
L 141 0 
L 141 331 
L 581 331 
L 1497 1594 
L 488 2988 
L 78 2988 
L 78 3322 
L 1563 3322 
L 1563 2988 
L 1166 2988 
L 1863 2028 
z
" transform="scale(0.015625)"/>
      <path id="DejaVuSerif-5f" d="M 3200 -1259 
L 3200 -1509 
L 0 -1509 
L 0 -1259 
L 3200 -1259 
z
" transform="scale(0.015625)"/>
      <path id="DejaVuSerif-2b" d="M 2931 4013 
L 2931 2259 
L 4684 2259 
L 4684 1753 
L 2931 1753 
L 2931 0 
L 2431 0 
L 2431 1753 
L 678 1753 
L 678 2259 
L 2431 2259 
L 2431 4013 
L 2931 4013 
z
" transform="scale(0.015625)"/>
      <path id="DejaVuSerif-31" d="M 909 0 
L 909 331 
L 1722 331 
L 1722 4213 
L 781 3603 
L 781 4013 
L 1919 4750 
L 2350 4750 
L 2350 331 
L 3163 331 
L 3163 0 
L 909 0 
z
" transform="scale(0.015625)"/>
      <path id="DejaVuSerif-28" d="M 2041 -997 
Q 1281 -656 893 83 
Q 506 822 506 1931 
Q 506 3044 893 3783 
Q 1281 4522 2041 4863 
L 2041 4556 
Q 1559 4225 1350 3623 
Q 1141 3022 1141 1931 
Q 1141 844 1350 242 
Q 1559 -359 2041 -691 
L 2041 -997 
z
" transform="scale(0.015625)"/>
      <path id="DejaVuSerif-29" d="M 453 -997 
L 453 -691 
Q 934 -359 1145 242 
Q 1356 844 1356 1931 
Q 1356 3022 1145 3623 
Q 934 4225 453 4556 
L 453 4863 
Q 1216 4522 1603 3783 
Q 1991 3044 1991 1931 
Q 1991 822 1603 83 
Q 1216 -656 453 -997 
z
" transform="scale(0.015625)"/>
      <path id="DejaVuSerif-3d" d="M 678 2894 
L 4684 2894 
L 4684 2394 
L 678 2394 
L 678 2894 
z
M 678 1619 
L 4684 1619 
L 4684 1119 
L 678 1119 
L 678 1619 
z
" transform="scale(0.015625)"/>
     </defs>
     <use xlink:href="#DejaVuSerif-5c"/>
     <use xlink:href="#DejaVuSerif-66" transform="translate(33.691406 0)"/>
     <use xlink:href="#DejaVuSerif-72" transform="translate(70.703125 0)"/>
     <use xlink:href="#DejaVuSerif-61" transform="translate(118.505859 0)"/>
     <use xlink:href="#DejaVuSerif-63" transform="translate(178.125 0)"/>
     <use xlink:href="#DejaVuSerif-7b" transform="translate(234.130859 0)"/>
     <use xlink:href="#DejaVuSerif-64" transform="translate(297.753906 0)"/>
     <use xlink:href="#DejaVuSerif-7d" transform="translate(361.767578 0)"/>
     <use xlink:href="#DejaVuSerif-7b" transform="translate(425.390625 0)"/>
     <use xlink:href="#DejaVuSerif-64" transform="translate(489.013672 0)"/>
     <use xlink:href="#DejaVuSerif-78" transform="translate(553.027344 0)"/>
     <use xlink:href="#DejaVuSerif-7d" transform="translate(609.423828 0)"/>
     <use xlink:href="#DejaVuSerif-20" transform="translate(673.046875 0)"/>
     <use xlink:href="#DejaVuSerif-66" transform="translate(704.833984 0)"/>
     <use xlink:href="#DejaVuSerif-5f" transform="translate(741.845703 0)"/>
     <use xlink:href="#DejaVuSerif-7b" transform="translate(791.845703 0)"/>
     <use xlink:href="#DejaVuSerif-6e" transform="translate(855.46875 0)"/>
     <use xlink:href="#DejaVuSerif-2b" transform="translate(919.873047 0)"/>
     <use xlink:href="#DejaVuSerif-31" transform="translate(1003.662109 0)"/>
     <use xlink:href="#DejaVuSerif-7d" transform="translate(1067.285156 0)"/>
     <use xlink:href="#DejaVuSerif-28" transform="translate(1130.908203 0)"/>
     <use xlink:href="#DejaVuSerif-78" transform="translate(1169.921875 0)"/>
     <use xlink:href="#DejaVuSerif-29" transform="translate(1226.318359 0)"/>
     <use xlink:href="#DejaVuSerif-20" transform="translate(1265.332031 0)"/>
     <use xlink:href="#DejaVuSerif-3d" transform="translate(1297.119141 0)"/>
     <use xlink:href="#DejaVuSerif-20" transform="translate(1380.908203 0)"/>
     <use xlink:href="#DejaVuSerif-28" transform="translate(1412.695312 0)"/>
     <use xlink:href="#DejaVuSerif-6e" transform="translate(1451.708984 0)"/>
     <use xlink:href="#DejaVuSerif-2b" transform="translate(1516.113281 0)"/>
     <use xlink:href="#DejaVuSerif-31" transform="translate(1599.902344 0)"/>
     <use xlink:href="#DejaVuSerif-29" transform="translate(1663.525391 0)"/>
     <use xlink:href="#DejaVuSerif-66" transform="translate(1702.539062 0)"/>
     <use xlink:href="#DejaVuSerif-5f" transform="translate(1739.550781 0)"/>
     <use xlink:href="#DejaVuSerif-6e" transform="translate(1789.550781 0)"/>
     <use xlink:href="#DejaVuSerif-28" transform="translate(1853.955078 0)"/>
     <use xlink:href="#DejaVuSerif-78" transform="translate(1892.96875 0)"/>
     <use xlink:href="#DejaVuSerif-2b" transform="translate(1949.365234 0)"/>
     <use xlink:href="#DejaVuSerif-31" transform="translate(2033.154297 0)"/>
     <use xlink:href="#DejaVuSerif-29" transform="translate(2096.777344 0)"/>
    </g>
    <!-- \] -->
    <g transform="translate(279.197812 131.115313) scale(0.12 -0.12)">
     <defs>
      <path id="DejaVuSerif-5d" d="M 1947 4863 
L 1947 -844 
L 494 -844 
L 494 -513 
L 1350 -513 
L 1350 4531 
L 494 4531 
L 494 4863 
L 1947 4863 
z
" transform="scale(0.015625)"/>
     </defs>
     <use xlink:href="#DejaVuSerif-5c"/>
     <use xlink:href="#DejaVuSerif-5d" transform="translate(33.691406 0)"/>
    </g>
    <!-- for $n \geqq 0$. Find, with proof, the explicit factorization of $f_{100}(1)$ into powers of distinct primes. -->
    <g transform="translate(7.2 144.554938) scale(0.12 -0.12)">
     <defs>
      <path id="DejaVuSerif-2e" d="M 603 325 
Q 603 500 722 622 
Q 841 744 1019 744 
Q 1191 744 1312 622 
Q 1434 500 1434 325 
Q 1434 153 1312 31 
Q 1191 -91 1019 -91 
Q 841 -91 722 29 
Q 603 150 603 325 
z
" transform="scale(0.015625)"/>
      <path id="DejaVuSerif-46" d="M 353 0 
L 353 331 
L 947 331 
L 947 4331 
L 353 4331 
L 353 4666 
L 4172 4666 
L 4172 3628 
L 3788 3628 
L 3788 4281 
L 1581 4281 
L 1581 2719 
L 3175 2719 
L 3175 3303 
L 3559 3303 
L 3559 1753 
L 3175 1753 
L 3175 2338 
L 1581 2338 
L 1581 331 
L 2328 331 
L 2328 0 
L 353 0 
z
" transform="scale(0.015625)"/>
      <path id="DejaVuSerif-77" d="M 3072 3322 
L 3922 728 
L 4672 2988 
L 4191 2988 
L 4191 3322 
L 5394 3322 
L 5394 2988 
L 5025 2988 
L 4038 0 
L 3559 0 
L 2741 2484 
L 1919 0 
L 1459 0 
L 475 2988 
L 103 2988 
L 103 3322 
L 1606 3322 
L 1606 2988 
L 1069 2988 
L 1813 728 
L 2669 3322 
L 3072 3322 
z
" transform="scale(0.015625)"/>
      <path id="DejaVuSerif-74" d="M 691 2988 
L 184 2988 
L 184 3322 
L 691 3322 
L 691 4353 
L 1269 4353 
L 1269 3322 
L 2350 3322 
L 2350 2988 
L 1269 2988 
L 1269 878 
Q 1269 456 1350 337 
Q 1431 219 1650 219 
Q 1875 219 1978 351 
Q 2081 484 2088 781 
L 2522 781 
Q 2497 328 2275 118 
Q 2053 -91 1600 -91 
Q 1103 -91 897 129 
Q 691 350 691 878 
L 691 2988 
z
" transform="scale(0.015625)"/>
      <path id="DejaVuSerif-68" d="M 263 0 
L 263 331 
L 781 331 
L 781 4531 
L 231 4531 
L 231 4863 
L 1356 4863 
L 1356 2731 
Q 1516 3069 1770 3241 
Q 2025 3413 2363 3413 
Q 2913 3413 3172 3097 
Q 3431 2781 3431 2113 
L 3431 331 
L 3944 331 
L 3944 0 
L 2356 0 
L 2356 331 
L 2853 331 
L 2853 1931 
Q 2853 2541 2704 2764 
Q 2556 2988 2175 2988 
Q 1775 2988 1565 2697 
Q 1356 2406 1356 1850 
L 1356 331 
L 1856 331 
L 1856 0 
L 263 0 
z
" transform="scale(0.015625)"/>
      <path id="DejaVuSerif-7a" d="M 256 0 
L 256 269 
L 2338 2988 
L 691 2988 
L 691 2413 
L 359 2413 
L 359 3322 
L 3078 3322 
L 3078 3053 
L 997 331 
L 2803 331 
L 2803 934 
L 3138 934 
L 3138 0 
L 256 0 
z
" transform="scale(0.015625)"/>
     </defs>
     <use xlink:href="#DejaVuSerif-66" transform="translate(0 0.015625)"/>
     <use xlink:href="#DejaVuSerif-6f" transform="translate(37.011719 0.015625)"/>
     <use xlink:href="#DejaVuSerif-72" transform="translate(97.216797 0.015625)"/>
     <use xlink:href="#DejaVuSerif-20" transform="translate(145.019531 0.015625)"/>
     <use xlink:href="#Cmmi10-6e" transform="translate(176.806641 0.015625)"/>
     <use xlink:href="#STIXGeneral-Regular-2267" transform="translate(254.375 0.015625)"/>
     <use xlink:href="#Cmr10-30" transform="translate(340.433578 0.015625)"/>
     <use xlink:href="#DejaVuSerif-2e" transform="translate(390.433578 0.015625)"/>
     <use xlink:href="#DejaVuSerif-20" transform="translate(422.220688 0.015625)"/>
     <use xlink:href="#DejaVuSerif-46" transform="translate(454.007797 0.015625)"/>
     <use xlink:href="#DejaVuSerif-69" transform="translate(523.392563 0.015625)"/>
     <use xlink:href="#DejaVuSerif-6e" transform="translate(555.374985 0.015625)"/>
     <use xlink:href="#DejaVuSerif-64" transform="translate(619.779282 0.015625)"/>
     <use xlink:href="#DejaVuSerif-2c" transform="translate(683.792953 0.015625)"/>
     <use xlink:href="#DejaVuSerif-20" transform="translate(715.580063 0.015625)"/>
     <use xlink:href="#DejaVuSerif-77" transform="translate(747.367172 0.015625)"/>
     <use xlink:href="#DejaVuSerif-69" transform="translate(832.962875 0.015625)"/>
     <use xlink:href="#DejaVuSerif-74" transform="translate(864.945297 0.015625)"/>
     <use xlink:href="#DejaVuSerif-68" transform="translate(905.130844 0.015625)"/>
     <use xlink:href="#DejaVuSerif-20" transform="translate(969.535141 0.015625)"/>
     <use xlink:href="#DejaVuSerif-70" transform="translate(1001.32225 0.015625)"/>
     <use xlink:href="#DejaVuSerif-72" transform="translate(1065.335922 0.015625)"/>
     <use xlink:href="#DejaVuSerif-6f" transform="translate(1113.138657 0.015625)"/>
     <use xlink:href="#DejaVuSerif-6f" transform="translate(1173.343735 0.015625)"/>
     <use xlink:href="#DejaVuSerif-66" transform="translate(1233.548813 0.015625)"/>
     <use xlink:href="#DejaVuSerif-2c" transform="translate(1270.560532 0.015625)"/>
     <use xlink:href="#DejaVuSerif-20" transform="translate(1302.347641 0.015625)"/>
     <use xlink:href="#DejaVuSerif-74" transform="translate(1334.13475 0.015625)"/>
     <use xlink:href="#DejaVuSerif-68" transform="translate(1374.320297 0.015625)"/>
     <use xlink:href="#DejaVuSerif-65" transform="translate(1438.724594 0.015625)"/>
     <use xlink:href="#DejaVuSerif-20" transform="translate(1497.904282 0.015625)"/>
     <use xlink:href="#DejaVuSerif-65" transform="translate(1529.691391 0.015625)"/>
     <use xlink:href="#DejaVuSerif-78" transform="translate(1588.871078 0.015625)"/>
     <use xlink:href="#DejaVuSerif-70" transform="translate(1645.267563 0.015625)"/>
     <use xlink:href="#DejaVuSerif-6c" transform="translate(1709.281235 0.015625)"/>
     <use xlink:href="#DejaVuSerif-69" transform="translate(1741.263657 0.015625)"/>
     <use xlink:href="#DejaVuSerif-63" transform="translate(1773.246078 0.015625)"/>
     <use xlink:href="#DejaVuSerif-69" transform="translate(1829.251938 0.015625)"/>
     <use xlink:href="#DejaVuSerif-74" transform="translate(1861.23436 0.015625)"/>
     <use xlink:href="#DejaVuSerif-20" transform="translate(1901.419907 0.015625)"/>
     <use xlink:href="#DejaVuSerif-66" transform="translate(1933.207016 0.015625)"/>
     <use xlink:href="#DejaVuSerif-61" transform="translate(1970.218735 0.015625)"/>
     <use xlink:href="#DejaVuSerif-63" transform="translate(2029.837875 0.015625)"/>
     <use xlink:href="#DejaVuSerif-74" transform="translate(2085.843735 0.015625)"/>
     <use xlink:href="#DejaVuSerif-6f" transform="translate(2126.029282 0.015625)"/>
     <use xlink:href="#DejaVuSerif-72" transform="translate(2186.23436 0.015625)"/>
     <use xlink:href="#DejaVuSerif-69" transform="translate(2234.037094 0.015625)"/>
     <use xlink:href="#DejaVuSerif-7a" transform="translate(2266.019516 0.015625)"/>
     <use xlink:href="#DejaVuSerif-61" transform="translate(2318.705063 0.015625)"/>
     <use xlink:href="#DejaVuSerif-74" transform="translate(2378.324203 0.015625)"/>
     <use xlink:href="#DejaVuSerif-69" transform="translate(2418.50975 0.015625)"/>
     <use xlink:href="#DejaVuSerif-6f" transform="translate(2450.492172 0.015625)"/>
     <use xlink:href="#DejaVuSerif-6e" transform="translate(2510.69725 0.015625)"/>
     <use xlink:href="#DejaVuSerif-20" transform="translate(2575.101547 0.015625)"/>
     <use xlink:href="#DejaVuSerif-6f" transform="translate(2606.888657 0.015625)"/>
     <use xlink:href="#DejaVuSerif-66" transform="translate(2667.093735 0.015625)"/>
     <use xlink:href="#DejaVuSerif-20" transform="translate(2704.105453 0.015625)"/>
     <use xlink:href="#Cmmi10-66" transform="translate(2735.892563 0.015625)"/>
     <use xlink:href="#Cmr10-31" transform="translate(2784.769516 -16.990625) scale(0.7)"/>
     <use xlink:href="#Cmr10-30" transform="translate(2819.769516 -16.990625) scale(0.7)"/>
     <use xlink:href="#Cmr10-30" transform="translate(2854.769516 -16.990625) scale(0.7)"/>
     <use xlink:href="#Cmr10-28" transform="translate(2896.14686 0.015625)"/>
     <use xlink:href="#Cmr10-31" transform="translate(2934.965219 0.015625)"/>
     <use xlink:href="#Cmr10-29" transform="translate(2984.965219 0.015625)"/>
     <use xlink:href="#DejaVuSerif-20" transform="translate(3023.783578 0.015625)"/>
     <use xlink:href="#DejaVuSerif-69" transform="translate(3055.570688 0.015625)"/>
     <use xlink:href="#DejaVuSerif-6e" transform="translate(3087.55311 0.015625)"/>
     <use xlink:href="#DejaVuSerif-74" transform="translate(3151.957407 0.015625)"/>
     <use xlink:href="#DejaVuSerif-6f" transform="translate(3192.142953 0.015625)"/>
     <use xlink:href="#DejaVuSerif-20" transform="translate(3252.348032 0.015625)"/>
     <use xlink:href="#DejaVuSerif-70" transform="translate(3284.135141 0.015625)"/>
     <use xlink:href="#DejaVuSerif-6f" transform="translate(3348.148813 0.015625)"/>
     <use xlink:href="#DejaVuSerif-77" transform="translate(3408.353891 0.015625)"/>
     <use xlink:href="#DejaVuSerif-65" transform="translate(3493.949594 0.015625)"/>
     <use xlink:href="#DejaVuSerif-72" transform="translate(3553.129282 0.015625)"/>
     <use xlink:href="#DejaVuSerif-73" transform="translate(3600.932016 0.015625)"/>
     <use xlink:href="#DejaVuSerif-20" transform="translate(3652.250375 0.015625)"/>
     <use xlink:href="#DejaVuSerif-6f" transform="translate(3684.037485 0.015625)"/>
     <use xlink:href="#DejaVuSerif-66" transform="translate(3744.242563 0.015625)"/>
     <use xlink:href="#DejaVuSerif-20" transform="translate(3781.254282 0.015625)"/>
     <use xlink:href="#DejaVuSerif-64" transform="translate(3813.041391 0.015625)"/>
     <use xlink:href="#DejaVuSerif-69" transform="translate(3877.055063 0.015625)"/>
     <use xlink:href="#DejaVuSerif-73" transform="translate(3909.037485 0.015625)"/>
     <use xlink:href="#DejaVuSerif-74" transform="translate(3960.355844 0.015625)"/>
     <use xlink:href="#DejaVuSerif-69" transform="translate(4000.541391 0.015625)"/>
     <use xlink:href="#DejaVuSerif-6e" transform="translate(4032.523813 0.015625)"/>
     <use xlink:href="#DejaVuSerif-63" transform="translate(4096.92811 0.015625)"/>
     <use xlink:href="#DejaVuSerif-74" transform="translate(4152.933969 0.015625)"/>
     <use xlink:href="#DejaVuSerif-20" transform="translate(4193.119516 0.015625)"/>
     <use xlink:href="#DejaVuSerif-70" transform="translate(4224.906625 0.015625)"/>
     <use xlink:href="#DejaVuSerif-72" transform="translate(4288.920297 0.015625)"/>
     <use xlink:href="#DejaVuSerif-69" transform="translate(4336.723032 0.015625)"/>
     <use xlink:href="#DejaVuSerif-6d" transform="translate(4368.705453 0.015625)"/>
     <use xlink:href="#DejaVuSerif-65" transform="translate(4463.529672 0.015625)"/>
     <use xlink:href="#DejaVuSerif-73" transform="translate(4522.70936 0.015625)"/>
     <use xlink:href="#DejaVuSerif-2e" transform="translate(4574.027719 0.015625)"/>
    </g>
   </g>
  </g>
 </g>
</svg>
